G04 start of page 3 for group 1 idx 1 *
G04 Title: (unknown), signal2 *
G04 Creator: pcb 20110918 *
G04 CreationDate: Thu Dec  5 20:49:14 2013 UTC *
G04 For: fosse *
G04 Format: Gerber/RS-274X *
G04 PCB-Dimensions: 600000 500000 *
G04 PCB-Coordinate-Origin: lower left *
%MOIN*%
%FSLAX25Y25*%
%LNGROUP1*%
%ADD30C,0.0354*%
%ADD29C,0.1160*%
%ADD28C,0.0890*%
%ADD27C,0.0200*%
%ADD26C,0.0360*%
%ADD25C,0.0394*%
%ADD24C,0.2700*%
%ADD23C,0.2000*%
%ADD22C,0.0150*%
G54D22*X136000Y298000D02*X140000D01*
X139500Y302500D02*X134500D01*
X132500Y300500D01*
Y295000D01*
X140000Y298000D02*X143000Y295000D01*
Y306000D02*X139500Y302500D01*
X143000Y295000D02*Y284000D01*
Y315500D02*Y306000D01*
Y284000D02*X141000Y282000D01*
X132500Y295000D02*X134500Y293000D01*
Y287500D01*
X132000Y285000D01*
X130000Y309000D02*Y317500D01*
X93500Y352500D02*Y341500D01*
X96000Y339000D01*
Y337500D01*
X100000Y333500D01*
X97000Y360500D02*X95500Y359000D01*
Y354500D01*
X93500Y352500D01*
X122000Y366500D02*X80500D01*
X79000Y365000D01*
Y356500D01*
X83000Y352500D01*
Y345000D01*
X76500Y338500D01*
Y307000D01*
X113000Y319000D02*Y323000D01*
X119000Y329000D01*
X115500Y315000D02*X120500D01*
X115500D02*X121000D01*
X79500Y282000D02*X76500Y285000D01*
Y290500D01*
X82000Y296000D01*
X76500Y307000D02*X80000Y303500D01*
X83000D01*
X85500Y301000D01*
Y296500D01*
X87500Y294500D01*
X89500Y298500D02*Y313500D01*
X129000Y359500D02*X122000Y366500D01*
X125500Y329000D02*X129000Y332500D01*
Y337000D01*
X133000Y327000D02*Y341500D01*
X137000Y324500D02*Y337500D01*
X133000Y341500D02*X134500Y343000D01*
X139500D01*
X141000Y344500D01*
Y348500D01*
Y282000D02*X79500D01*
X132000Y285000D02*X85500D01*
X82000Y288500D01*
X100500Y294500D02*X102500Y292500D01*
X107500D01*
X100500Y294500D02*X87500D01*
X100000Y298500D02*Y299500D01*
X107500Y292500D02*X111500Y296500D01*
X100000Y299500D02*X115500Y315000D01*
X105500Y296000D02*Y299000D01*
X113000Y306500D01*
X127500D01*
X130000Y309000D01*
X89500Y313500D02*X107000Y331000D01*
X115500D01*
X118000Y333500D01*
X122500D01*
X119000Y329000D02*X125500D01*
X121000Y315000D02*X133000Y327000D01*
X130000Y317500D02*X137000Y324500D01*
G54D23*X87000Y381000D03*
X132500D03*
G54D24*X110000Y348000D03*
G54D25*X136575Y308205D03*
X83425D03*
G54D26*X122500Y333500D03*
X100000D03*
X83000Y328000D03*
X91000Y337500D03*
X83000D03*
X97000Y360500D03*
X79000Y348500D03*
X87000D03*
X91000Y359500D03*
X83000D03*
X129000D03*
Y337500D03*
X137000D03*
X141000Y348500D03*
X129000Y298000D03*
X136000D03*
X111500Y296500D03*
X117000Y311000D03*
X124000D03*
X105000Y312000D03*
X108500Y316000D03*
X143000Y323500D03*
X139500Y319500D03*
X119500Y319000D03*
X113000D03*
X143000Y315500D03*
X90000Y288500D03*
X122000D03*
X130000D03*
X138000D03*
X82000D03*
X114000D03*
X100000Y298500D03*
X105500Y296000D03*
X82000D03*
X89500Y298500D03*
G54D27*G54D28*G54D29*G54D30*M02*
