G04 start of page 10 for group -4079 idx -4079 *
G04 Title: (unknown), topsilk *
G04 Creator: pcb 20110918 *
G04 CreationDate: Thu Dec  5 20:49:14 2013 UTC *
G04 For: fosse *
G04 Format: Gerber/RS-274X *
G04 PCB-Dimensions: 600000 500000 *
G04 PCB-Coordinate-Origin: lower left *
%MOIN*%
%FSLAX25Y25*%
%LNTOPSILK*%
%ADD67C,0.0060*%
G54D67*X79400Y380550D02*X79625Y380325D01*
X78725Y380550D02*X79400D01*
X78500Y380325D02*X78725Y380550D01*
X78500Y380325D02*Y379875D01*
X78725Y379650D01*
X79400D01*
X79625Y379425D01*
Y378975D01*
X79400Y378750D02*X79625Y378975D01*
X78725Y378750D02*X79400D01*
X78500Y378975D02*X78725Y378750D01*
X80480D02*X81065D01*
X80165Y379065D02*X80480Y378750D01*
X80165Y380235D02*Y379065D01*
Y380235D02*X80480Y380550D01*
X81065D01*
X81605D02*X82505D01*
X82730Y380325D01*
Y379875D01*
X82505Y379650D02*X82730Y379875D01*
X81830Y379650D02*X82505D01*
X81830Y380550D02*Y378750D01*
X82190Y379650D02*X82730Y378750D01*
X83270Y379740D02*X83945D01*
X83270Y378750D02*X84170D01*
X83270Y380550D02*Y378750D01*
Y380550D02*X84170D01*
X84710D02*Y379650D01*
X84935Y378750D01*
X85385Y379650D01*
X85835Y378750D01*
X86060Y379650D01*
Y380550D02*Y379650D01*
X86600Y380325D02*X86825Y380550D01*
X87500D01*
X87725Y380325D01*
Y379875D01*
X86600Y378750D02*X87725Y379875D01*
X86600Y378750D02*X87725D01*
X88265Y379650D02*X89165D01*
X89705Y380550D02*X90605D01*
X89705D02*Y379650D01*
X89930Y379875D01*
X90380D01*
X90605Y379650D01*
Y378975D01*
X90380Y378750D02*X90605Y378975D01*
X89930Y378750D02*X90380D01*
X89705Y378975D02*X89930Y378750D01*
X91820Y380550D02*X92045Y380325D01*
X91370Y380550D02*X91820D01*
X91145Y380325D02*X91370Y380550D01*
X91145Y380325D02*Y378975D01*
X91370Y378750D01*
X91820Y379740D02*X92045Y379515D01*
X91145Y379740D02*X91820D01*
X91370Y378750D02*X91820D01*
X92045Y378975D01*
Y379515D02*Y378975D01*
X92585Y378750D02*X93485D01*
X94025Y379425D02*X94925Y380550D01*
X94025Y379425D02*X95150D01*
X94925Y380550D02*Y378750D01*
X124900Y381050D02*X125125Y380825D01*
X124225Y381050D02*X124900D01*
X124000Y380825D02*X124225Y381050D01*
X124000Y380825D02*Y380375D01*
X124225Y380150D01*
X124900D01*
X125125Y379925D01*
Y379475D01*
X124900Y379250D02*X125125Y379475D01*
X124225Y379250D02*X124900D01*
X124000Y379475D02*X124225Y379250D01*
X125980D02*X126565D01*
X125665Y379565D02*X125980Y379250D01*
X125665Y380735D02*Y379565D01*
Y380735D02*X125980Y381050D01*
X126565D01*
X127105D02*X128005D01*
X128230Y380825D01*
Y380375D01*
X128005Y380150D02*X128230Y380375D01*
X127330Y380150D02*X128005D01*
X127330Y381050D02*Y379250D01*
X127690Y380150D02*X128230Y379250D01*
X128770Y380240D02*X129445D01*
X128770Y379250D02*X129670D01*
X128770Y381050D02*Y379250D01*
Y381050D02*X129670D01*
X130210D02*Y380150D01*
X130435Y379250D01*
X130885Y380150D01*
X131335Y379250D01*
X131560Y380150D01*
Y381050D02*Y380150D01*
X132100Y380825D02*X132325Y381050D01*
X133000D01*
X133225Y380825D01*
Y380375D01*
X132100Y379250D02*X133225Y380375D01*
X132100Y379250D02*X133225D01*
X133765Y380150D02*X134665D01*
X135205Y381050D02*X136105D01*
X135205D02*Y380150D01*
X135430Y380375D01*
X135880D01*
X136105Y380150D01*
Y379475D01*
X135880Y379250D02*X136105Y379475D01*
X135430Y379250D02*X135880D01*
X135205Y379475D02*X135430Y379250D01*
X137320Y381050D02*X137545Y380825D01*
X136870Y381050D02*X137320D01*
X136645Y380825D02*X136870Y381050D01*
X136645Y380825D02*Y379475D01*
X136870Y379250D01*
X137320Y380240D02*X137545Y380015D01*
X136645Y380240D02*X137320D01*
X136870Y379250D02*X137320D01*
X137545Y379475D01*
Y380015D02*Y379475D01*
X138085Y379250D02*X138985D01*
X139525Y380825D02*X139750Y381050D01*
X140200D01*
X140425Y380825D01*
X140200Y379250D02*X140425Y379475D01*
X139750Y379250D02*X140200D01*
X139525Y379475D02*X139750Y379250D01*
Y380240D02*X140200D01*
X140425Y380825D02*Y380465D01*
Y380015D02*Y379475D01*
Y380015D02*X140200Y380240D01*
X140425Y380465D02*X140200Y380240D01*
X118900Y345550D02*X118625Y345825D01*
X118900Y345550D02*X119725D01*
X120000Y345825D02*X119725Y345550D01*
X120000Y346375D02*Y345825D01*
Y346375D02*X119725Y346650D01*
X118900D02*X119725D01*
X118900D02*X118625Y346925D01*
Y347475D02*Y346925D01*
X118900Y347750D02*X118625Y347475D01*
X118900Y347750D02*X119725D01*
X120000Y347475D02*X119725Y347750D01*
X116865D02*X117580D01*
X117965Y347365D02*X117580Y347750D01*
X117965Y347365D02*Y345935D01*
X117580Y345550D01*
X116865D02*X117580D01*
X115105D02*X116205D01*
X115105D02*X114830Y345825D01*
Y346375D02*Y345825D01*
X115105Y346650D02*X114830Y346375D01*
X115105Y346650D02*X115930D01*
Y347750D02*Y345550D01*
X115490Y346650D02*X114830Y347750D01*
X113345Y346540D02*X114170D01*
X113070Y347750D02*X114170D01*
Y345550D01*
X113070D02*X114170D01*
X112410Y346650D02*Y345550D01*
Y346650D02*X112135Y347750D01*
X111585Y346650D01*
X111035Y347750D01*
X110760Y346650D01*
Y345550D01*
X110100Y346925D02*X109000Y345550D01*
X108725Y346925D02*X110100D01*
X109000Y347750D02*Y345550D01*
X106965Y346650D02*X108065D01*
X106305Y346925D02*X105205Y345550D01*
X104930Y346925D02*X106305D01*
X105205Y347750D02*Y345550D01*
X104270Y347475D02*X103995Y347750D01*
X104270Y347475D02*Y345825D01*
X103995Y345550D01*
X103445D02*X103995D01*
X103445D02*X103170Y345825D01*
Y347475D02*Y345825D01*
X103445Y347750D02*X103170Y347475D01*
X103445Y347750D02*X103995D01*
X104270Y347200D02*X103170Y346100D01*
X101410Y347750D02*X102510D01*
X100750Y346925D02*X99650Y345550D01*
X99375Y346925D02*X100750D01*
X99650Y347750D02*Y345550D01*
X98700Y368000D02*X100000D01*
X98000Y368700D02*X98700Y368000D01*
X98000Y371300D02*Y368700D01*
Y371300D02*X98700Y372000D01*
X100000D01*
X101200Y371500D02*Y368500D01*
Y371500D02*X101700Y372000D01*
X102700D01*
X103200Y371500D01*
Y368500D01*
X102700Y368000D02*X103200Y368500D01*
X101700Y368000D02*X102700D01*
X101200Y368500D02*X101700Y368000D01*
X104400Y372000D02*Y368000D01*
Y372000D02*X106900Y368000D01*
Y372000D02*Y368000D01*
X108100Y372000D02*Y368000D01*
Y372000D02*X110600Y368000D01*
Y372000D02*Y368000D01*
X111800Y371200D02*X112600Y372000D01*
Y368000D01*
X111800D02*X113300D01*
X114500Y371500D02*X115000Y372000D01*
X116000D01*
X116500Y371500D01*
X116000Y368000D02*X116500Y368500D01*
X115000Y368000D02*X116000D01*
X114500Y368500D02*X115000Y368000D01*
Y370200D02*X116000D01*
X116500Y371500D02*Y370700D01*
Y369700D02*Y368500D01*
Y369700D02*X116000Y370200D01*
X116500Y370700D02*X116000Y370200D01*
X117700Y368500D02*X118200Y368000D01*
X117700Y371500D02*Y368500D01*
Y371500D02*X118200Y372000D01*
X119200D01*
X119700Y371500D01*
Y368500D01*
X119200Y368000D02*X119700Y368500D01*
X118200Y368000D02*X119200D01*
X117700Y369000D02*X119700Y371000D01*
X120900Y371200D02*X121700Y372000D01*
Y368000D01*
X120900D02*X122400D01*
M02*
