G04 start of page 5 for group 3 idx 3 *
G04 Title: (unknown), bottom4 *
G04 Creator: pcb 20110918 *
G04 CreationDate: Thu Dec  5 20:49:14 2013 UTC *
G04 For: fosse *
G04 Format: Gerber/RS-274X *
G04 PCB-Dimensions: 600000 500000 *
G04 PCB-Coordinate-Origin: lower left *
%MOIN*%
%FSLAX25Y25*%
%LNBOTTOM*%
%ADD51C,0.0354*%
%ADD50C,0.1160*%
%ADD49C,0.0890*%
%ADD48C,0.0200*%
%ADD47C,0.0360*%
%ADD46R,0.0197X0.0197*%
%ADD45R,0.0197X0.0197*%
%ADD44R,0.0197X0.0197*%
%ADD43C,0.0394*%
%ADD42C,0.2700*%
%ADD41C,0.2000*%
%ADD40C,0.0150*%
G54D40*X132087Y327338D02*X141338D01*
X130500Y322000D02*X134000D01*
X135500Y323500D01*
X143000D01*
X128937Y327338D02*Y323563D01*
X130500Y322000D01*
X125787Y327338D02*Y322713D01*
X122638Y327338D02*Y321862D01*
X119488Y327338D02*Y319012D01*
X110039Y327338D02*Y321961D01*
X113000Y319000D01*
X119488Y319012D02*X119500Y319000D01*
X94291Y327338D02*Y304268D01*
X94251Y304228D01*
X87992Y327338D02*Y304267D01*
X89000Y331500D02*X88000Y330500D01*
Y328500D01*
X87992Y328492D01*
Y327008D01*
Y304267D02*X87953Y304228D01*
X88000Y304181D02*X87953Y304228D01*
X91102D02*Y327298D01*
X91142Y327338D01*
Y330358D01*
X90000Y331500D01*
X89000D02*X93500D01*
X141338Y327338D02*X144500Y330500D01*
Y364500D01*
X142500Y366500D01*
X116339Y327338D02*Y331839D01*
X118000Y333500D01*
X122500D01*
X142500Y366500D02*X80500D01*
X79000Y365000D01*
Y348500D01*
X83000Y352000D02*X91000Y360000D01*
X96000Y334000D02*Y337500D01*
X113189Y327338D02*Y331311D01*
X112500Y332000D01*
X101500D01*
X100000Y333500D01*
X79000Y341000D02*X83000Y345000D01*
Y352000D01*
X93500Y331500D02*X96000Y334000D01*
X83000Y328000D02*X82500D01*
X79000Y331500D01*
Y341000D01*
X100590Y327338D02*Y304267D01*
X97401Y304228D02*Y327298D01*
X103740Y313260D02*X105000Y312000D01*
X97401Y327298D02*X97441Y327338D01*
X103740D02*Y313260D01*
X106890Y327338D02*Y317610D01*
X108500Y316000D01*
X116299Y304228D02*Y295701D01*
X122000Y290000D01*
Y288000D01*
X122598Y304228D02*Y296402D01*
X126000Y293000D01*
Y283000D01*
X128897Y304228D02*Y298103D01*
X129000Y298000D01*
X132047Y304228D02*Y301953D01*
X136000Y298000D01*
X113150Y304228D02*Y313150D01*
X119448Y304228D02*Y308552D01*
X113150Y313150D02*X115000Y315000D01*
X119000D01*
X120000Y314000D01*
X121000D01*
X119448Y308552D02*X117000Y311000D01*
X125748Y304228D02*Y309252D01*
X124000Y311000D01*
X121000Y314000D02*X122000Y315000D01*
X126000D01*
X128000Y313000D01*
Y312000D01*
X129000Y311000D01*
X133000D01*
X128000Y316500D02*X131500D01*
X132500Y315500D01*
X135000Y313000D02*X139000D01*
X141000Y311000D01*
Y291000D01*
X138000Y288000D01*
X133000Y311000D02*X135000Y313000D01*
X132500Y315500D02*X143000D01*
X125787Y322713D02*X129000Y319500D01*
X122638Y321862D02*X128000Y316500D01*
X129000Y319500D02*X139500D01*
X126000Y283000D02*X125000Y282000D01*
X92000D01*
X90000Y284000D01*
Y288000D01*
X103700Y304228D02*Y300200D01*
X102000Y298500D01*
X100000D01*
X106850Y304228D02*Y297350D01*
X105500Y296000D01*
X110000Y304228D02*Y298000D01*
X111500Y296500D01*
X114000Y288500D02*X99500D01*
X89500Y298500D01*
G54D41*X87000Y381000D03*
X132500D03*
G54D42*X110000Y348000D03*
G54D43*X136575Y308205D03*
X83425D03*
G54D44*X87953Y306039D02*Y302417D01*
X91102Y306039D02*Y302417D01*
G54D45*X94251Y306040D02*Y302417D01*
X97401Y306040D02*Y302417D01*
G54D44*X100551Y306039D02*Y302417D01*
G54D45*X87992Y329150D02*Y325527D01*
G54D44*X91142Y329149D02*Y325527D01*
G54D46*X94291Y329150D02*Y325526D01*
G54D44*X97441Y329149D02*Y325527D01*
X100590Y329149D02*Y325527D01*
G54D46*X103740Y329150D02*Y325526D01*
G54D44*X116299Y306039D02*Y302417D01*
G54D45*X119448Y306040D02*Y302417D01*
X122598Y306040D02*Y302417D01*
G54D44*X125748Y306039D02*Y302417D01*
G54D45*X128897Y306040D02*Y302417D01*
X132047Y306040D02*Y302417D01*
G54D46*X110000Y306040D02*Y302416D01*
G54D44*X113150Y306039D02*Y302417D01*
G54D45*X103700Y306040D02*Y302417D01*
X106850Y306040D02*Y302417D01*
G54D44*X125787Y329149D02*Y325527D01*
G54D46*X128937Y329150D02*Y325526D01*
G54D44*X132087Y329149D02*Y325527D01*
G54D45*X110039Y329150D02*Y325527D01*
X113189Y329150D02*Y325527D01*
G54D44*X116339Y329149D02*Y325527D01*
G54D46*X119488Y329150D02*Y325526D01*
G54D44*X122638Y329149D02*Y325527D01*
X106890Y329149D02*Y325527D01*
G54D47*X122500Y333500D03*
X100000D03*
X83000Y328000D03*
X91000Y337500D03*
X83000D03*
X97000Y360500D03*
X79000Y348500D03*
X87000D03*
X91000Y359500D03*
X83000D03*
X129000D03*
Y337500D03*
X137000D03*
X141000Y348500D03*
X129000Y298000D03*
X136000D03*
X111500Y296500D03*
X117000Y311000D03*
X124000D03*
X105000Y312000D03*
X108500Y316000D03*
X143000Y323500D03*
X139500Y319500D03*
X119500Y319000D03*
X113000D03*
X143000Y315500D03*
X90000Y288500D03*
X122000D03*
X130000D03*
X138000D03*
X82000D03*
X114000D03*
X100000Y298500D03*
X105500Y296000D03*
X82000D03*
X89500Y298500D03*
G54D48*G54D49*G54D50*G54D51*M02*
