G04 start of page 8 for group -4063 idx -4063 *
G04 Title: (unknown), componentmask *
G04 Creator: pcb 20110918 *
G04 CreationDate: Thu Dec  5 20:49:14 2013 UTC *
G04 For: fosse *
G04 Format: Gerber/RS-274X *
G04 PCB-Dimensions: 600000 500000 *
G04 PCB-Coordinate-Origin: lower left *
%MOIN*%
%FSLAX25Y25*%
%LNTOPMASK*%
%ADD60R,0.0500X0.0500*%
%ADD59C,0.0454*%
%ADD58C,0.2760*%
%ADD57C,0.2060*%
G54D57*X87000Y381000D03*
X132500D03*
G54D58*X110000Y348000D03*
G54D59*X136575Y308205D03*
X83425D03*
G54D60*X82000Y290000D02*Y287000D01*
X90000Y290000D02*Y287000D01*
X98000Y290000D02*Y287000D01*
X91000Y339000D02*Y336000D01*
X83000Y361000D02*Y358000D01*
X91000Y361000D02*Y358000D01*
X87000Y350000D02*Y347000D01*
X79000Y350000D02*Y347000D01*
X83000Y339000D02*Y336000D01*
X106000Y290000D02*Y287000D01*
X114000Y290000D02*Y287000D01*
X122000Y290000D02*Y287000D01*
X130000Y290000D02*Y287000D01*
X138000Y290000D02*Y287000D01*
X137000Y339000D02*Y336000D01*
X133000Y350000D02*Y347000D01*
X141000Y350000D02*Y347000D01*
X137000Y361000D02*Y358000D01*
X129000Y361000D02*Y358000D01*
Y339000D02*Y336000D01*
M02*
