G04 start of page 2 for group 0 idx 0 *
G04 Title: (unknown), top1 *
G04 Creator: pcb 20110918 *
G04 CreationDate: Thu Dec  5 20:49:14 2013 UTC *
G04 For: fosse *
G04 Format: Gerber/RS-274X *
G04 PCB-Dimensions: 600000 500000 *
G04 PCB-Coordinate-Origin: lower left *
%MOIN*%
%FSLAX25Y25*%
%LNTOP*%
%ADD21C,0.0354*%
%ADD20C,0.1160*%
%ADD19C,0.0890*%
%ADD18C,0.0200*%
%ADD17C,0.0360*%
%ADD16R,0.0400X0.0400*%
%ADD15C,0.0394*%
%ADD14C,0.2700*%
%ADD13C,0.2000*%
%ADD12C,0.0400*%
%ADD11C,0.0150*%
G54D11*X103000Y314000D02*Y325000D01*
X108500Y316000D02*X106500Y318000D01*
Y322500D01*
X110500Y326500D01*
X119488Y319012D02*X119012D01*
X103000Y325000D02*X108500Y330500D01*
X114500D01*
X121000Y337000D01*
X110500Y326500D02*X129000D01*
X133000Y330500D01*
X126000Y285000D02*Y302000D01*
X117000Y311000D01*
X123000Y333000D02*X122500Y333500D01*
X106000Y288500D02*Y284000D01*
X108000Y282000D01*
X123000D01*
X126000Y285000D01*
X105000Y312000D02*X103000Y314000D01*
X119012Y319012D02*X106000Y306000D01*
X99000D01*
X96500Y303500D01*
Y290000D01*
X98000Y288500D01*
X121000Y337000D02*X123000D01*
X125000Y339000D01*
Y342000D01*
X127500Y344500D01*
Y352000D01*
X133000Y330500D02*Y348500D01*
X127500Y352000D02*X124500Y355000D01*
Y364500D01*
X126500Y366500D01*
X134000D01*
X137000Y363500D01*
Y359500D01*
G54D12*X87000Y381000D02*X132500D01*
X110000Y348000D02*Y381000D01*
G54D13*X87000D03*
X132500D03*
G54D14*X110000Y348000D03*
G54D15*X136575Y308205D03*
X83425D03*
G54D16*X82000Y290000D02*Y287000D01*
X90000Y290000D02*Y287000D01*
X98000Y290000D02*Y287000D01*
X91000Y339000D02*Y336000D01*
X83000Y361000D02*Y358000D01*
X91000Y361000D02*Y358000D01*
X87000Y350000D02*Y347000D01*
X79000Y350000D02*Y347000D01*
X83000Y339000D02*Y336000D01*
X106000Y290000D02*Y287000D01*
X114000Y290000D02*Y287000D01*
X122000Y290000D02*Y287000D01*
X130000Y290000D02*Y287000D01*
X138000Y290000D02*Y287000D01*
X137000Y339000D02*Y336000D01*
X133000Y350000D02*Y347000D01*
X141000Y350000D02*Y347000D01*
X137000Y361000D02*Y358000D01*
X129000Y361000D02*Y358000D01*
Y339000D02*Y336000D01*
G54D17*X122500Y333500D03*
X100000D03*
X83000Y328000D03*
X91000Y337500D03*
X83000D03*
X97000Y360500D03*
X79000Y348500D03*
X87000D03*
X91000Y359500D03*
X83000D03*
X129000D03*
Y337500D03*
X137000D03*
X141000Y348500D03*
X129000Y298000D03*
X136000D03*
X111500Y296500D03*
X117000Y311000D03*
X124000D03*
X105000Y312000D03*
X108500Y316000D03*
X143000Y323500D03*
X139500Y319500D03*
X119500Y319000D03*
X113000D03*
X143000Y315500D03*
X90000Y288500D03*
X122000D03*
X130000D03*
X138000D03*
X82000D03*
X114000D03*
X100000Y298500D03*
X105500Y296000D03*
X82000D03*
X89500Y298500D03*
G54D18*G54D19*G54D20*G54D21*M02*
