G04 start of page 3 for group 1 idx 1 *
G04 Title: (unknown), ground *
G04 Creator: pcb 20110918 *
G04 CreationDate: Tue Nov 19 21:14:11 2013 UTC *
G04 For: fosse *
G04 Format: Gerber/RS-274X *
G04 PCB-Dimensions: 72000 152000 *
G04 PCB-Coordinate-Origin: lower left *
%MOIN*%
%FSLAX25Y25*%
%LNGROUP1*%
%ADD24C,0.0354*%
%ADD23C,0.1160*%
%ADD22C,0.0360*%
%ADD21C,0.0494*%
%ADD20C,0.2700*%
%ADD19C,0.0200*%
G54D19*X3900Y94100D02*X7300Y97500D01*
X3600Y72000D02*X14700Y83100D01*
X3900Y94100D02*Y86700D01*
X6700Y83900D01*
X18800Y90100D02*Y80300D01*
X15000Y76500D01*
X24200Y72000D02*X10100D01*
X3600Y48400D02*Y72000D01*
X10100D02*X6900Y68800D01*
Y63000D01*
X10900Y59000D01*
Y51500D01*
X20300Y91600D02*X18800Y90100D01*
X24200Y83400D02*X26800Y80800D01*
Y74600D01*
X24200Y72000D01*
X67100Y97500D02*X65700D01*
X62900Y100300D01*
X62200D01*
X41600Y95000D02*X38200Y91600D01*
X57900Y96600D02*Y90700D01*
X64800Y83800D01*
X66600D01*
X69000Y81400D01*
Y67100D01*
X62700Y60800D01*
X57700D01*
X53000Y65500D01*
X59000Y70500D02*X65000Y76500D01*
X42300Y74800D02*X46600Y70500D01*
X58900D01*
X11000Y43500D02*X8500D01*
X3600Y48400D01*
X10900Y51500D02*X13700Y48700D01*
X21300D01*
X28300Y41700D01*
X51200D01*
X53000Y43500D01*
X28800Y99600D02*X33200Y104000D01*
Y110000D01*
X38700Y115500D01*
X37800Y103300D02*Y107500D01*
X28600Y104900D02*X25800D01*
X26600Y96100D02*X30600D01*
X38200Y91600D02*X20300D01*
X30600Y96100D02*X37800Y103300D01*
X25800Y104900D02*X22000Y108700D01*
X18900Y102600D02*Y106000D01*
X10300Y114600D01*
X7300Y97500D02*X25200D01*
X26600Y96100D01*
X22000Y108700D02*Y122500D01*
X15500Y119200D02*Y121800D01*
X20900Y127200D01*
X27700D01*
X10300Y114600D02*Y126500D01*
X11400Y127600D01*
X38700Y115500D02*X40400D01*
X41900Y117000D01*
Y126500D01*
X43600Y128200D01*
X44700D01*
X50000Y133500D01*
X27700Y127200D02*X34000Y133500D01*
X40100Y109800D02*X59300D01*
X56100Y106400D02*X43800D01*
X59300Y109800D02*X62200Y106900D01*
Y100300D02*X56100Y106400D01*
X53100Y99600D02*X54900D01*
X57900Y96600D01*
X43800Y106400D02*X42600Y105200D01*
Y102300D01*
X44800Y100100D01*
Y97500D01*
X42300Y95000D01*
X41600D01*
X37800Y107500D02*X40100Y109800D01*
G54D20*X36000Y58000D03*
G54D21*X62575Y93205D03*
X9425D03*
G54D22*X30000Y122500D03*
X34000Y133500D03*
X26000D03*
X9600Y102700D03*
X14400Y102800D03*
X23400Y101600D03*
X18900Y102600D03*
X28800Y99600D03*
X28600Y104900D03*
X18000Y133500D03*
X22000Y122500D03*
X15500Y119200D03*
X11400Y127600D03*
X38000Y122500D03*
X46000D03*
X54000D03*
X50000Y133500D03*
X42000D03*
X66000Y111600D03*
X66800Y103300D03*
X67100Y88200D03*
Y97500D03*
X64600Y117200D03*
X62200Y106900D03*
X40600Y98700D03*
X36600Y95800D03*
X53100Y99600D03*
X50700Y95200D03*
X47500Y102900D03*
X65000Y76500D03*
X61000Y65500D03*
X53000D03*
X57000Y54500D03*
X65000D03*
X57000Y76500D03*
X53000Y43500D03*
X61000D03*
X62900Y36700D03*
X11000Y65500D03*
X19000D03*
X15000Y54500D03*
X7000D03*
X11000Y43500D03*
X19000D03*
X15000Y76500D03*
X14700Y83100D03*
X6700Y83900D03*
X24200Y83400D03*
X23000Y76500D03*
X42299Y74801D03*
G54D19*G54D23*G54D24*M02*
