G04 start of page 13 for group -4014 idx -4014 *
G04 Title: (unknown), bottompaste *
G04 Creator: pcb 20110918 *
G04 CreationDate: Tue Nov 19 21:14:11 2013 UTC *
G04 For: fosse *
G04 Format: Gerber/RS-274X *
G04 PCB-Dimensions: 72000 152000 *
G04 PCB-Coordinate-Origin: lower left *
%MOIN*%
%FSLAX25Y25*%
%LNBOTTOMPASTE*%
%ADD59R,0.0197X0.0197*%
%ADD58R,0.0197X0.0197*%
%ADD57R,0.0197X0.0197*%
G54D57*X36000Y91040D02*Y87416D01*
G54D58*X39150Y91039D02*Y87417D01*
X42299Y91039D02*Y87417D01*
G54D59*X45448Y91040D02*Y87417D01*
X48598Y91040D02*Y87417D01*
G54D58*X51748Y91039D02*Y87417D01*
G54D59*X54897Y91040D02*Y87417D01*
X58047Y91040D02*Y87417D01*
G54D58*X13953Y91039D02*Y87417D01*
X17102Y91039D02*Y87417D01*
G54D59*X20251Y91040D02*Y87417D01*
X23401Y91040D02*Y87417D01*
G54D58*X26551Y91039D02*Y87417D01*
G54D59*X29700Y91040D02*Y87417D01*
X32850Y91040D02*Y87417D01*
X36039Y114150D02*Y110527D01*
X39189Y114150D02*Y110527D01*
G54D58*X42339Y114149D02*Y110527D01*
G54D57*X45488Y114150D02*Y110526D01*
G54D58*X48638Y114149D02*Y110527D01*
X51787Y114149D02*Y110527D01*
G54D57*X54937Y114150D02*Y110526D01*
G54D58*X58087Y114149D02*Y110527D01*
G54D59*X13992Y114150D02*Y110527D01*
G54D58*X17142Y114149D02*Y110527D01*
G54D57*X20291Y114150D02*Y110526D01*
G54D58*X23441Y114149D02*Y110527D01*
X26590Y114149D02*Y110527D01*
G54D57*X29740Y114150D02*Y110526D01*
G54D58*X32890Y114149D02*Y110527D01*
M02*
