G04 start of page 5 for group 3 idx 3 *
G04 Title: (unknown), bottom *
G04 Creator: pcb 20110918 *
G04 CreationDate: Wed Nov 20 21:14:43 2013 UTC *
G04 For: fosse *
G04 Format: Gerber/RS-274X *
G04 PCB-Dimensions: 77000 162000 *
G04 PCB-Coordinate-Origin: lower left *
%MOIN*%
%FSLAX25Y25*%
%LNBOTTOM*%
%ADD50C,0.0890*%
%ADD49C,0.0354*%
%ADD48C,0.1160*%
%ADD47C,0.0360*%
%ADD46R,0.2000X0.2000*%
%ADD45R,0.0950X0.0950*%
%ADD44R,0.0197X0.0197*%
%ADD43R,0.0197X0.0197*%
%ADD42R,0.0197X0.0197*%
%ADD41C,0.2000*%
%ADD40C,0.0494*%
%ADD39C,0.2700*%
%ADD38C,0.0200*%
G54D38*X34700Y130400D02*Y134700D01*
X38800Y138800D01*
Y145400D01*
X36900Y147300D01*
X22700D01*
X18900Y143500D01*
X18000Y137700D02*X21600D01*
X25700Y141800D01*
X26900Y143500D02*Y143000D01*
X25000Y141100D01*
X11200Y130900D02*X18000Y137700D01*
X8600Y153000D02*X54800D01*
X59100Y148700D01*
Y136700D01*
X54900Y132500D01*
X66900Y121600D02*X59725D01*
X58987Y122338D01*
X55200Y116900D02*X63100D01*
X53800Y113300D02*X67700D01*
X55837Y125937D02*X57100Y127200D01*
X65500D01*
X55837Y122338D02*Y125937D01*
X52687Y122338D02*X52700Y119400D01*
X55200Y116900D01*
X49538Y122338D02*Y117562D01*
X53800Y113300D01*
X46388Y122338D02*Y114912D01*
X48400Y112900D01*
X43239Y122338D02*Y112561D01*
X47200Y108600D01*
X40089Y122338D02*Y110111D01*
X41500Y108700D01*
X54000Y109600D02*X50300D01*
X49300Y108600D01*
X47200D01*
X68000Y98200D02*X59976D01*
X57300Y104500D02*X59000D01*
X62000Y107500D01*
X68000D01*
X59976Y98200D02*X58947Y99228D01*
X55797D02*Y102997D01*
X57300Y104500D01*
X52648Y99228D02*Y104152D01*
X51600Y105200D01*
X14853Y99228D02*X14828D01*
X13200Y116600D02*X11200Y118600D01*
X13200Y116600D02*X25200D01*
X27500Y118900D01*
X25900Y127500D02*X30900Y132500D01*
X33750Y122298D02*X33790Y122338D01*
X33800Y122348D02*Y129500D01*
X21191Y122338D02*Y125991D01*
X22700Y127500D01*
X24341Y122338D02*Y125859D01*
X22700Y127500D01*
X25900D01*
X14892Y122338D02*Y126392D01*
Y126400D02*X14900D01*
X11200Y118700D02*Y130900D01*
X18042Y122338D02*Y126258D01*
X16400Y127900D01*
X14900Y126400D02*X16400Y127900D01*
Y129200D02*Y127900D01*
X17200Y127100D01*
X33800Y129500D02*X34700Y130400D01*
X27490Y122338D02*X27500Y118900D01*
X30640Y122338D02*Y116040D01*
X29500Y114900D01*
X24300Y109351D02*X27451Y106200D01*
X33750Y99228D02*Y122298D01*
X30600Y99228D02*Y108700D01*
X29700Y109600D01*
X27451Y106200D02*Y100800D01*
X36939Y122338D02*Y106361D01*
X37500Y105800D01*
X27451Y99228D02*Y105149D01*
X24301Y99228D02*Y104799D01*
X21151Y99228D02*Y103749D01*
X18002Y99228D02*Y102598D01*
X24300Y111600D02*Y109351D01*
X19800Y112600D02*Y109301D01*
X24301Y104800D01*
X21151Y103749D02*X15300Y109600D01*
Y112800D01*
X18002Y102598D02*X10600Y110000D01*
Y112600D01*
X10500Y112700D01*
X5600Y100900D02*Y150000D01*
X8600Y153000D01*
X8800Y97700D02*X5600Y100900D01*
X36900Y99228D02*Y94900D01*
X35600Y93600D01*
X31100D01*
X14828Y99228D02*X13300Y97700D01*
X8800D01*
X31100Y93600D02*X27400Y89900D01*
X21000D01*
X19900Y88800D01*
Y84600D01*
X31600Y90400D02*X27700Y86500D01*
Y83100D01*
X17300Y82000D02*X8900D01*
X19900Y84600D02*X17300Y82000D01*
X40050Y99228D02*Y93450D01*
X43199Y99228D02*Y91399D01*
X49498Y94200D02*Y99228D01*
X46348D02*Y87852D01*
X43199Y91400D02*Y84801D01*
X43200Y84800D01*
X40050Y93450D02*X37000Y90400D01*
X31600D01*
X8900Y82000D02*X6300Y79400D01*
X27700Y83100D02*X23900Y79300D01*
X17700D01*
X15800Y77400D01*
X6300Y79400D02*Y73000D01*
X15800Y77400D02*Y71800D01*
X20300Y67300D01*
Y61300D01*
X29200Y52400D01*
X6300Y73000D02*X11600Y67700D01*
Y60600D01*
X7400Y56400D01*
Y50900D01*
X9600Y48700D01*
X55800D01*
X57700Y50600D01*
X29200Y52400D02*X46100D01*
X57700Y50600D02*Y64300D01*
X46100Y52400D02*X53300Y59600D01*
X57700Y64300D02*X57900Y64500D01*
X53300Y59600D02*Y67200D01*
X55700Y69600D01*
X59500D01*
X62000Y67100D01*
Y53600D01*
X61900Y53500D01*
X63800Y46700D02*X64400D01*
X68000Y50300D01*
Y58700D01*
X69400Y60100D01*
Y80900D01*
X70000Y81500D01*
Y90800D01*
X68000Y92800D01*
X50898D01*
X49498Y94200D01*
X46348Y87852D02*X53000Y81200D01*
X56200D01*
X61900Y75500D01*
G54D39*X36900Y68000D03*
G54D40*X63475Y103205D03*
X10325D03*
G54D41*X59900Y25800D03*
X14400D03*
G54D42*X14853Y101039D02*Y97417D01*
G54D43*X14892Y124150D02*Y120527D01*
G54D42*X18002Y101039D02*Y97417D01*
X18042Y124149D02*Y120527D01*
G54D44*X21191Y124150D02*Y120526D01*
G54D42*X24341Y124149D02*Y120527D01*
X27490Y124149D02*Y120527D01*
G54D44*X30640Y124150D02*Y120526D01*
G54D45*X8650Y154250D02*X65150D01*
G54D43*X46348Y101040D02*Y97417D01*
X49498Y101040D02*Y97417D01*
G54D42*X52648Y101039D02*Y97417D01*
G54D43*X55797Y101040D02*Y97417D01*
G54D44*X36900Y101040D02*Y97416D01*
G54D42*X40050Y101039D02*Y97417D01*
X43199Y101039D02*Y97417D01*
G54D43*X58947Y101040D02*Y97417D01*
G54D46*X14400Y25800D02*X59900D01*
G54D43*X36939Y124150D02*Y120527D01*
X40089Y124150D02*Y120527D01*
G54D42*X43239Y124149D02*Y120527D01*
G54D44*X46388Y124150D02*Y120526D01*
G54D42*X49538Y124149D02*Y120527D01*
X52687Y124149D02*Y120527D01*
G54D44*X55837Y124150D02*Y120526D01*
G54D42*X58987Y124149D02*Y120527D01*
X33790Y124149D02*Y120527D01*
G54D43*X21151Y101040D02*Y97417D01*
X24301Y101040D02*Y97417D01*
G54D42*X27451Y101039D02*Y97417D01*
G54D43*X30600Y101040D02*Y97417D01*
X33750Y101040D02*Y97417D01*
G54D47*X30900Y132500D03*
X34900Y143500D03*
X26900D03*
X10500Y112700D03*
X15300Y112800D03*
X24300Y111600D03*
X19800Y112600D03*
X29700Y109600D03*
X29500Y114900D03*
X18900Y143500D03*
X22900Y132500D03*
X16400Y129200D03*
X12300Y137600D03*
X8800Y154400D03*
X24100Y154500D03*
X38900Y132500D03*
X46900D03*
X54900D03*
X50900Y143500D03*
X52000Y154500D03*
X42900Y143500D03*
X43199Y84801D03*
X66900Y121600D03*
X67700Y113300D03*
X68000Y98200D03*
Y107500D03*
X65500Y127200D03*
X66300Y154500D03*
X63100Y116900D03*
X48400Y112900D03*
X41500Y108700D03*
X37500Y105800D03*
X54000Y109600D03*
X51600Y105200D03*
X65900Y86500D03*
X61900Y75500D03*
X53900D03*
X57900Y64500D03*
X65900D03*
X57900Y86500D03*
X53900Y53500D03*
X61900D03*
X63800Y46700D03*
X11900Y75500D03*
X19900D03*
X15900Y86500D03*
Y64500D03*
X7900D03*
X11900Y53500D03*
X19900D03*
X15600Y93100D03*
X7600Y93900D03*
X25100Y93400D03*
X23900Y86500D03*
G54D38*G54D48*G54D49*G54D50*M02*
