G04 start of page 11 for group -3984 idx -3984 *
G04 Title: (unknown), fab *
G04 Creator: pcb 20110918 *
G04 CreationDate: Fri Nov 15 22:26:29 2013 UTC *
G04 For: fosse *
G04 Format: Gerber/RS-274X *
G04 PCB-Dimensions: 72000 152000 *
G04 PCB-Coordinate-Origin: lower left *
%MOIN*%
%FSLAX25Y25*%
%LNFAB*%
%ADD41C,0.0100*%
%ADD40C,0.0075*%
%ADD39C,0.0060*%
%ADD38R,0.0080X0.0080*%
G54D38*X36000Y59600D02*Y56400D01*
X34400Y58000D02*X37600D01*
X15000Y194850D02*Y191650D01*
X13400Y193250D02*X16600D01*
G54D39*X135000Y195500D02*X136500Y192500D01*
X138000Y195500D01*
X136500Y192500D02*Y189500D01*
X139800Y192800D02*X142050D01*
X139800Y189500D02*X142800D01*
X139800Y195500D02*Y189500D01*
Y195500D02*X142800D01*
X147600D02*X148350Y194750D01*
X145350Y195500D02*X147600D01*
X144600Y194750D02*X145350Y195500D01*
X144600Y194750D02*Y193250D01*
X145350Y192500D01*
X147600D01*
X148350Y191750D01*
Y190250D01*
X147600Y189500D02*X148350Y190250D01*
X145350Y189500D02*X147600D01*
X144600Y190250D02*X145350Y189500D01*
X98000Y194300D02*X99200Y195500D01*
Y189500D01*
X98000D02*X100250D01*
X45000Y190250D02*X45750Y189500D01*
X45000Y194750D02*Y190250D01*
Y194750D02*X45750Y195500D01*
X47250D01*
X48000Y194750D01*
Y190250D01*
X47250Y189500D02*X48000Y190250D01*
X45750Y189500D02*X47250D01*
X45000Y191000D02*X48000Y194000D01*
X49800Y189500D02*X50550D01*
X52350Y194300D02*X53550Y195500D01*
Y189500D01*
X52350D02*X54600D01*
X56400Y194300D02*X57600Y195500D01*
Y189500D01*
X56400D02*X58650D01*
X62700Y195500D02*X63450Y194750D01*
X61200Y195500D02*X62700D01*
X60450Y194750D02*X61200Y195500D01*
X60450Y194750D02*Y190250D01*
X61200Y189500D01*
X62700Y192800D02*X63450Y192050D01*
X60450Y192800D02*X62700D01*
X61200Y189500D02*X62700D01*
X63450Y190250D01*
Y192050D02*Y190250D01*
X62575Y93205D02*Y91605D01*
Y93205D02*X63962Y94005D01*
X62575Y93205D02*X61188Y94005D01*
X9425Y93205D02*Y91605D01*
Y93205D02*X10812Y94005D01*
X9425Y93205D02*X8038Y94005D01*
X15000Y208250D02*Y206650D01*
Y208250D02*X16387Y209050D01*
X15000Y208250D02*X13613Y209050D01*
X135000Y210500D02*X136500Y207500D01*
X138000Y210500D01*
X136500Y207500D02*Y204500D01*
X139800Y207800D02*X142050D01*
X139800Y204500D02*X142800D01*
X139800Y210500D02*Y204500D01*
Y210500D02*X142800D01*
X147600D02*X148350Y209750D01*
X145350Y210500D02*X147600D01*
X144600Y209750D02*X145350Y210500D01*
X144600Y209750D02*Y208250D01*
X145350Y207500D01*
X147600D01*
X148350Y206750D01*
Y205250D01*
X147600Y204500D02*X148350Y205250D01*
X145350Y204500D02*X147600D01*
X144600Y205250D02*X145350Y204500D01*
X98000Y209750D02*X98750Y210500D01*
X101000D01*
X101750Y209750D01*
Y208250D01*
X98000Y204500D02*X101750Y208250D01*
X98000Y204500D02*X101750D01*
X45000Y205250D02*X45750Y204500D01*
X45000Y209750D02*Y205250D01*
Y209750D02*X45750Y210500D01*
X47250D01*
X48000Y209750D01*
Y205250D01*
X47250Y204500D02*X48000Y205250D01*
X45750Y204500D02*X47250D01*
X45000Y206000D02*X48000Y209000D01*
X49800Y204500D02*X50550D01*
X52350Y205250D02*X53100Y204500D01*
X52350Y209750D02*Y205250D01*
Y209750D02*X53100Y210500D01*
X54600D01*
X55350Y209750D01*
Y205250D01*
X54600Y204500D02*X55350Y205250D01*
X53100Y204500D02*X54600D01*
X52350Y206000D02*X55350Y209000D01*
X57150Y209750D02*X57900Y210500D01*
X59400D01*
X60150Y209750D01*
X59400Y204500D02*X60150Y205250D01*
X57900Y204500D02*X59400D01*
X57150Y205250D02*X57900Y204500D01*
Y207800D02*X59400D01*
X60150Y209750D02*Y208550D01*
Y207050D02*Y205250D01*
Y207050D02*X59400Y207800D01*
X60150Y208550D02*X59400Y207800D01*
X61950Y210500D02*X64950D01*
X61950D02*Y207500D01*
X62700Y208250D01*
X64200D01*
X64950Y207500D01*
Y205250D01*
X64200Y204500D02*X64950Y205250D01*
X62700Y204500D02*X64200D01*
X61950Y205250D02*X62700Y204500D01*
X3000Y225500D02*X3750Y224750D01*
X750Y225500D02*X3000D01*
X0Y224750D02*X750Y225500D01*
X0Y224750D02*Y223250D01*
X750Y222500D01*
X3000D01*
X3750Y221750D01*
Y220250D01*
X3000Y219500D02*X3750Y220250D01*
X750Y219500D02*X3000D01*
X0Y220250D02*X750Y219500D01*
X5550Y222500D02*Y220250D01*
X6300Y219500D01*
X8550Y222500D02*Y218000D01*
X7800Y217250D02*X8550Y218000D01*
X6300Y217250D02*X7800D01*
X5550Y218000D02*X6300Y217250D01*
Y219500D02*X7800D01*
X8550Y220250D01*
X11100Y221750D02*Y219500D01*
Y221750D02*X11850Y222500D01*
X12600D01*
X13350Y221750D01*
Y219500D01*
Y221750D02*X14100Y222500D01*
X14850D01*
X15600Y221750D01*
Y219500D01*
X10350Y222500D02*X11100Y221750D01*
X17400Y225500D02*Y219500D01*
Y220250D02*X18150Y219500D01*
X19650D01*
X20400Y220250D01*
Y221750D02*Y220250D01*
X19650Y222500D02*X20400Y221750D01*
X18150Y222500D02*X19650D01*
X17400Y221750D02*X18150Y222500D01*
X22200Y221750D02*Y220250D01*
Y221750D02*X22950Y222500D01*
X24450D01*
X25200Y221750D01*
Y220250D01*
X24450Y219500D02*X25200Y220250D01*
X22950Y219500D02*X24450D01*
X22200Y220250D02*X22950Y219500D01*
X27000Y225500D02*Y220250D01*
X27750Y219500D01*
X0Y216250D02*X29250D01*
X41750Y225500D02*Y219500D01*
X43700Y225500D02*X44750Y224450D01*
Y220550D01*
X43700Y219500D02*X44750Y220550D01*
X41000Y219500D02*X43700D01*
X41000Y225500D02*X43700D01*
G54D40*X46550Y224000D02*Y223850D01*
G54D39*Y221750D02*Y219500D01*
X50300Y222500D02*X51050Y221750D01*
X48800Y222500D02*X50300D01*
X48050Y221750D02*X48800Y222500D01*
X48050Y221750D02*Y220250D01*
X48800Y219500D01*
X51050Y222500D02*Y220250D01*
X51800Y219500D01*
X48800D02*X50300D01*
X51050Y220250D01*
X54350Y221750D02*Y219500D01*
Y221750D02*X55100Y222500D01*
X55850D01*
X56600Y221750D01*
Y219500D01*
Y221750D02*X57350Y222500D01*
X58100D01*
X58850Y221750D01*
Y219500D01*
X53600Y222500D02*X54350Y221750D01*
X60650Y219500D02*X61400D01*
X65900Y220250D02*X66650Y219500D01*
X65900Y224750D02*X66650Y225500D01*
X65900Y224750D02*Y220250D01*
X68450Y225500D02*X69950D01*
X69200D02*Y219500D01*
X68450D02*X69950D01*
X72500Y221750D02*Y219500D01*
Y221750D02*X73250Y222500D01*
X74000D01*
X74750Y221750D01*
Y219500D01*
X71750Y222500D02*X72500Y221750D01*
X77300Y222500D02*X79550D01*
X76550Y221750D02*X77300Y222500D01*
X76550Y221750D02*Y220250D01*
X77300Y219500D01*
X79550D01*
X81350Y225500D02*Y219500D01*
Y221750D02*X82100Y222500D01*
X83600D01*
X84350Y221750D01*
Y219500D01*
X86150Y225500D02*X86900Y224750D01*
Y220250D01*
X86150Y219500D02*X86900Y220250D01*
X41000Y216250D02*X88700D01*
X96050Y219500D02*X98000D01*
X95000Y220550D02*X96050Y219500D01*
X95000Y224450D02*Y220550D01*
Y224450D02*X96050Y225500D01*
X98000D01*
X99800Y221750D02*Y220250D01*
Y221750D02*X100550Y222500D01*
X102050D01*
X102800Y221750D01*
Y220250D01*
X102050Y219500D02*X102800Y220250D01*
X100550Y219500D02*X102050D01*
X99800Y220250D02*X100550Y219500D01*
X104600Y222500D02*Y220250D01*
X105350Y219500D01*
X106850D01*
X107600Y220250D01*
Y222500D02*Y220250D01*
X110150Y221750D02*Y219500D01*
Y221750D02*X110900Y222500D01*
X111650D01*
X112400Y221750D01*
Y219500D01*
X109400Y222500D02*X110150Y221750D01*
X114950Y225500D02*Y220250D01*
X115700Y219500D01*
X114200Y223250D02*X115700D01*
X95000Y216250D02*X117200D01*
X130750Y225500D02*Y219500D01*
X130000Y225500D02*X133000D01*
X133750Y224750D01*
Y223250D01*
X133000Y222500D02*X133750Y223250D01*
X130750Y222500D02*X133000D01*
X135550Y225500D02*Y220250D01*
X136300Y219500D01*
X140050Y222500D02*X140800Y221750D01*
X138550Y222500D02*X140050D01*
X137800Y221750D02*X138550Y222500D01*
X137800Y221750D02*Y220250D01*
X138550Y219500D01*
X140800Y222500D02*Y220250D01*
X141550Y219500D01*
X138550D02*X140050D01*
X140800Y220250D01*
X144100Y225500D02*Y220250D01*
X144850Y219500D01*
X143350Y223250D02*X144850D01*
X147100Y219500D02*X149350D01*
X146350Y220250D02*X147100Y219500D01*
X146350Y221750D02*Y220250D01*
Y221750D02*X147100Y222500D01*
X148600D01*
X149350Y221750D01*
X146350Y221000D02*X149350D01*
Y221750D02*Y221000D01*
X154150Y225500D02*Y219500D01*
X153400D02*X154150Y220250D01*
X151900Y219500D02*X153400D01*
X151150Y220250D02*X151900Y219500D01*
X151150Y221750D02*Y220250D01*
Y221750D02*X151900Y222500D01*
X153400D01*
X154150Y221750D01*
X157450Y222500D02*Y221750D01*
Y220250D02*Y219500D01*
X155950Y224750D02*Y224000D01*
Y224750D02*X156700Y225500D01*
X158200D01*
X158950Y224750D01*
Y224000D01*
X157450Y222500D02*X158950Y224000D01*
X130000Y216250D02*X160750D01*
X0Y240500D02*X3000D01*
X1500D02*Y234500D01*
X4800Y240500D02*Y234500D01*
Y236750D02*X5550Y237500D01*
X7050D01*
X7800Y236750D01*
Y234500D01*
X10350D02*X12600D01*
X9600Y235250D02*X10350Y234500D01*
X9600Y236750D02*Y235250D01*
Y236750D02*X10350Y237500D01*
X11850D01*
X12600Y236750D01*
X9600Y236000D02*X12600D01*
Y236750D02*Y236000D01*
X15150Y236750D02*Y234500D01*
Y236750D02*X15900Y237500D01*
X17400D01*
X14400D02*X15150Y236750D01*
X19950Y234500D02*X22200D01*
X19200Y235250D02*X19950Y234500D01*
X19200Y236750D02*Y235250D01*
Y236750D02*X19950Y237500D01*
X21450D01*
X22200Y236750D01*
X19200Y236000D02*X22200D01*
Y236750D02*Y236000D01*
X28950Y237500D02*X29700Y236750D01*
X27450Y237500D02*X28950D01*
X26700Y236750D02*X27450Y237500D01*
X26700Y236750D02*Y235250D01*
X27450Y234500D01*
X29700Y237500D02*Y235250D01*
X30450Y234500D01*
X27450D02*X28950D01*
X29700Y235250D01*
X33000Y236750D02*Y234500D01*
Y236750D02*X33750Y237500D01*
X35250D01*
X32250D02*X33000Y236750D01*
X37800Y234500D02*X40050D01*
X37050Y235250D02*X37800Y234500D01*
X37050Y236750D02*Y235250D01*
Y236750D02*X37800Y237500D01*
X39300D01*
X40050Y236750D01*
X37050Y236000D02*X40050D01*
Y236750D02*Y236000D01*
X44550Y239750D02*X45300Y240500D01*
X47550D01*
X48300Y239750D01*
Y238250D01*
X44550Y234500D02*X48300Y238250D01*
X44550Y234500D02*X48300D01*
X55800Y240500D02*Y234500D01*
X55050D02*X55800Y235250D01*
X53550Y234500D02*X55050D01*
X52800Y235250D02*X53550Y234500D01*
X52800Y236750D02*Y235250D01*
Y236750D02*X53550Y237500D01*
X55050D01*
X55800Y236750D01*
G54D40*X57600Y239000D02*Y238850D01*
G54D39*Y236750D02*Y234500D01*
X59850Y239750D02*Y234500D01*
Y239750D02*X60600Y240500D01*
X61350D01*
X59100Y237500D02*X60600D01*
X63600Y239750D02*Y234500D01*
Y239750D02*X64350Y240500D01*
X65100D01*
X62850Y237500D02*X64350D01*
X67350Y234500D02*X69600D01*
X66600Y235250D02*X67350Y234500D01*
X66600Y236750D02*Y235250D01*
Y236750D02*X67350Y237500D01*
X68850D01*
X69600Y236750D01*
X66600Y236000D02*X69600D01*
Y236750D02*Y236000D01*
X72150Y236750D02*Y234500D01*
Y236750D02*X72900Y237500D01*
X74400D01*
X71400D02*X72150Y236750D01*
X76950Y234500D02*X79200D01*
X76200Y235250D02*X76950Y234500D01*
X76200Y236750D02*Y235250D01*
Y236750D02*X76950Y237500D01*
X78450D01*
X79200Y236750D01*
X76200Y236000D02*X79200D01*
Y236750D02*Y236000D01*
X81750Y236750D02*Y234500D01*
Y236750D02*X82500Y237500D01*
X83250D01*
X84000Y236750D01*
Y234500D01*
X81000Y237500D02*X81750Y236750D01*
X86550Y240500D02*Y235250D01*
X87300Y234500D01*
X85800Y238250D02*X87300D01*
X94500Y240500D02*Y234500D01*
X93750D02*X94500Y235250D01*
X92250Y234500D02*X93750D01*
X91500Y235250D02*X92250Y234500D01*
X91500Y236750D02*Y235250D01*
Y236750D02*X92250Y237500D01*
X93750D01*
X94500Y236750D01*
X97050D02*Y234500D01*
Y236750D02*X97800Y237500D01*
X99300D01*
X96300D02*X97050Y236750D01*
G54D40*X101100Y239000D02*Y238850D01*
G54D39*Y236750D02*Y234500D01*
X102600Y240500D02*Y235250D01*
X103350Y234500D01*
X104850Y240500D02*Y235250D01*
X105600Y234500D01*
X110550D02*X112800D01*
X113550Y235250D01*
X112800Y236000D02*X113550Y235250D01*
X110550Y236000D02*X112800D01*
X109800Y236750D02*X110550Y236000D01*
X109800Y236750D02*X110550Y237500D01*
X112800D01*
X113550Y236750D01*
X109800Y235250D02*X110550Y234500D01*
G54D40*X115350Y239000D02*Y238850D01*
G54D39*Y236750D02*Y234500D01*
X116850Y237500D02*X119850D01*
X116850Y234500D02*X119850Y237500D01*
X116850Y234500D02*X119850D01*
X122400D02*X124650D01*
X121650Y235250D02*X122400Y234500D01*
X121650Y236750D02*Y235250D01*
Y236750D02*X122400Y237500D01*
X123900D01*
X124650Y236750D01*
X121650Y236000D02*X124650D01*
Y236750D02*Y236000D01*
X127200Y234500D02*X129450D01*
X130200Y235250D01*
X129450Y236000D02*X130200Y235250D01*
X127200Y236000D02*X129450D01*
X126450Y236750D02*X127200Y236000D01*
X126450Y236750D02*X127200Y237500D01*
X129450D01*
X130200Y236750D01*
X126450Y235250D02*X127200Y234500D01*
X134700Y237500D02*Y235250D01*
X135450Y234500D01*
X136950D01*
X137700Y235250D01*
Y237500D02*Y235250D01*
X140250Y234500D02*X142500D01*
X143250Y235250D01*
X142500Y236000D02*X143250Y235250D01*
X140250Y236000D02*X142500D01*
X139500Y236750D02*X140250Y236000D01*
X139500Y236750D02*X140250Y237500D01*
X142500D01*
X143250Y236750D01*
X139500Y235250D02*X140250Y234500D01*
X145800D02*X148050D01*
X145050Y235250D02*X145800Y234500D01*
X145050Y236750D02*Y235250D01*
Y236750D02*X145800Y237500D01*
X147300D01*
X148050Y236750D01*
X145050Y236000D02*X148050D01*
Y236750D02*Y236000D01*
X152850Y240500D02*Y234500D01*
X152100D02*X152850Y235250D01*
X150600Y234500D02*X152100D01*
X149850Y235250D02*X150600Y234500D01*
X149850Y236750D02*Y235250D01*
Y236750D02*X150600Y237500D01*
X152100D01*
X152850Y236750D01*
G54D40*X157350Y239000D02*Y238850D01*
G54D39*Y236750D02*Y234500D01*
X159600Y236750D02*Y234500D01*
Y236750D02*X160350Y237500D01*
X161100D01*
X161850Y236750D01*
Y234500D01*
X158850Y237500D02*X159600Y236750D01*
X167100Y240500D02*Y235250D01*
X167850Y234500D01*
X166350Y238250D02*X167850D01*
X169350Y240500D02*Y234500D01*
Y236750D02*X170100Y237500D01*
X171600D01*
X172350Y236750D01*
Y234500D01*
G54D40*X174150Y239000D02*Y238850D01*
G54D39*Y236750D02*Y234500D01*
X176400D02*X178650D01*
X179400Y235250D01*
X178650Y236000D02*X179400Y235250D01*
X176400Y236000D02*X178650D01*
X175650Y236750D02*X176400Y236000D01*
X175650Y236750D02*X176400Y237500D01*
X178650D01*
X179400Y236750D01*
X175650Y235250D02*X176400Y234500D01*
X183900Y240500D02*Y235250D01*
X184650Y234500D01*
X188400Y237500D02*X189150Y236750D01*
X186900Y237500D02*X188400D01*
X186150Y236750D02*X186900Y237500D01*
X186150Y236750D02*Y235250D01*
X186900Y234500D01*
X189150Y237500D02*Y235250D01*
X189900Y234500D01*
X186900D02*X188400D01*
X189150Y235250D01*
X191700Y237500D02*Y235250D01*
X192450Y234500D01*
X194700Y237500D02*Y233000D01*
X193950Y232250D02*X194700Y233000D01*
X192450Y232250D02*X193950D01*
X191700Y233000D02*X192450Y232250D01*
Y234500D02*X193950D01*
X194700Y235250D01*
X196500Y236750D02*Y235250D01*
Y236750D02*X197250Y237500D01*
X198750D01*
X199500Y236750D01*
Y235250D01*
X198750Y234500D02*X199500Y235250D01*
X197250Y234500D02*X198750D01*
X196500Y235250D02*X197250Y234500D01*
X201300Y237500D02*Y235250D01*
X202050Y234500D01*
X203550D01*
X204300Y235250D01*
Y237500D02*Y235250D01*
X206850Y240500D02*Y235250D01*
X207600Y234500D01*
X206100Y238250D02*X207600D01*
X209100Y233000D02*X210600Y234500D01*
X215100Y239750D02*X215850Y240500D01*
X217350D01*
X218100Y239750D01*
X217350Y234500D02*X218100Y235250D01*
X215850Y234500D02*X217350D01*
X215100Y235250D02*X215850Y234500D01*
Y237800D02*X217350D01*
X218100Y239750D02*Y238550D01*
Y237050D02*Y235250D01*
Y237050D02*X217350Y237800D01*
X218100Y238550D02*X217350Y237800D01*
X222600Y240500D02*Y234500D01*
Y236750D02*X223350Y237500D01*
X224850D01*
X225600Y236750D01*
Y234500D01*
X227400Y236750D02*Y235250D01*
Y236750D02*X228150Y237500D01*
X229650D01*
X230400Y236750D01*
Y235250D01*
X229650Y234500D02*X230400Y235250D01*
X228150Y234500D02*X229650D01*
X227400Y235250D02*X228150Y234500D01*
X232200Y240500D02*Y235250D01*
X232950Y234500D01*
X235200D02*X237450D01*
X234450Y235250D02*X235200Y234500D01*
X234450Y236750D02*Y235250D01*
Y236750D02*X235200Y237500D01*
X236700D01*
X237450Y236750D01*
X234450Y236000D02*X237450D01*
Y236750D02*Y236000D01*
X240000Y234500D02*X242250D01*
X243000Y235250D01*
X242250Y236000D02*X243000Y235250D01*
X240000Y236000D02*X242250D01*
X239250Y236750D02*X240000Y236000D01*
X239250Y236750D02*X240000Y237500D01*
X242250D01*
X243000Y236750D01*
X239250Y235250D02*X240000Y234500D01*
X248250Y240500D02*Y235250D01*
X249000Y234500D01*
X247500Y238250D02*X249000D01*
X250500Y236750D02*Y235250D01*
Y236750D02*X251250Y237500D01*
X252750D01*
X253500Y236750D01*
Y235250D01*
X252750Y234500D02*X253500Y235250D01*
X251250Y234500D02*X252750D01*
X250500Y235250D02*X251250Y234500D01*
X256050Y240500D02*Y235250D01*
X256800Y234500D01*
X255300Y238250D02*X256800D01*
X260550Y237500D02*X261300Y236750D01*
X259050Y237500D02*X260550D01*
X258300Y236750D02*X259050Y237500D01*
X258300Y236750D02*Y235250D01*
X259050Y234500D01*
X261300Y237500D02*Y235250D01*
X262050Y234500D01*
X259050D02*X260550D01*
X261300Y235250D01*
X263850Y240500D02*Y235250D01*
X264600Y234500D01*
G54D41*X1000Y151000D02*Y1000D01*
X71000D01*
Y151000D01*
X1000D02*X71000D01*
G54D39*X0Y-9500D02*X3000D01*
X3750Y-8750D01*
Y-6950D02*Y-8750D01*
X3000Y-6200D02*X3750Y-6950D01*
X750Y-6200D02*X3000D01*
X750Y-3500D02*Y-9500D01*
X0Y-3500D02*X3000D01*
X3750Y-4250D01*
Y-5450D01*
X3000Y-6200D02*X3750Y-5450D01*
X5550Y-7250D02*Y-8750D01*
Y-7250D02*X6300Y-6500D01*
X7800D01*
X8550Y-7250D01*
Y-8750D01*
X7800Y-9500D02*X8550Y-8750D01*
X6300Y-9500D02*X7800D01*
X5550Y-8750D02*X6300Y-9500D01*
X12600Y-6500D02*X13350Y-7250D01*
X11100Y-6500D02*X12600D01*
X10350Y-7250D02*X11100Y-6500D01*
X10350Y-7250D02*Y-8750D01*
X11100Y-9500D01*
X13350Y-6500D02*Y-8750D01*
X14100Y-9500D01*
X11100D02*X12600D01*
X13350Y-8750D01*
X16650Y-7250D02*Y-9500D01*
Y-7250D02*X17400Y-6500D01*
X18900D01*
X15900D02*X16650Y-7250D01*
X23700Y-3500D02*Y-9500D01*
X22950D02*X23700Y-8750D01*
X21450Y-9500D02*X22950D01*
X20700Y-8750D02*X21450Y-9500D01*
X20700Y-7250D02*Y-8750D01*
Y-7250D02*X21450Y-6500D01*
X22950D01*
X23700Y-7250D01*
X28200D02*Y-8750D01*
Y-7250D02*X28950Y-6500D01*
X30450D01*
X31200Y-7250D01*
Y-8750D01*
X30450Y-9500D02*X31200Y-8750D01*
X28950Y-9500D02*X30450D01*
X28200Y-8750D02*X28950Y-9500D01*
X33000Y-6500D02*Y-8750D01*
X33750Y-9500D01*
X35250D01*
X36000Y-8750D01*
Y-6500D02*Y-8750D01*
X38550Y-3500D02*Y-8750D01*
X39300Y-9500D01*
X37800Y-5750D02*X39300D01*
X40800Y-3500D02*Y-8750D01*
X41550Y-9500D01*
G54D40*X43050Y-5000D02*Y-5150D01*
G54D39*Y-7250D02*Y-9500D01*
X45300Y-7250D02*Y-9500D01*
Y-7250D02*X46050Y-6500D01*
X46800D01*
X47550Y-7250D01*
Y-9500D01*
X44550Y-6500D02*X45300Y-7250D01*
X50100Y-9500D02*X52350D01*
X49350Y-8750D02*X50100Y-9500D01*
X49350Y-7250D02*Y-8750D01*
Y-7250D02*X50100Y-6500D01*
X51600D01*
X52350Y-7250D01*
X49350Y-8000D02*X52350D01*
Y-7250D02*Y-8000D01*
G54D40*X56850Y-5000D02*Y-5150D01*
G54D39*Y-7250D02*Y-9500D01*
X59100D02*X61350D01*
X62100Y-8750D01*
X61350Y-8000D02*X62100Y-8750D01*
X59100Y-8000D02*X61350D01*
X58350Y-7250D02*X59100Y-8000D01*
X58350Y-7250D02*X59100Y-6500D01*
X61350D01*
X62100Y-7250D01*
X58350Y-8750D02*X59100Y-9500D01*
X67350Y-3500D02*Y-8750D01*
X68100Y-9500D01*
X66600Y-5750D02*X68100D01*
X69600Y-3500D02*Y-9500D01*
Y-7250D02*X70350Y-6500D01*
X71850D01*
X72600Y-7250D01*
Y-9500D01*
X75150D02*X77400D01*
X74400Y-8750D02*X75150Y-9500D01*
X74400Y-7250D02*Y-8750D01*
Y-7250D02*X75150Y-6500D01*
X76650D01*
X77400Y-7250D01*
X74400Y-8000D02*X77400D01*
Y-7250D02*Y-8000D01*
X82650Y-6500D02*X84900D01*
X81900Y-7250D02*X82650Y-6500D01*
X81900Y-7250D02*Y-8750D01*
X82650Y-9500D01*
X84900D01*
X87450D02*X89700D01*
X86700Y-8750D02*X87450Y-9500D01*
X86700Y-7250D02*Y-8750D01*
Y-7250D02*X87450Y-6500D01*
X88950D01*
X89700Y-7250D01*
X86700Y-8000D02*X89700D01*
Y-7250D02*Y-8000D01*
X92250Y-7250D02*Y-9500D01*
Y-7250D02*X93000Y-6500D01*
X93750D01*
X94500Y-7250D01*
Y-9500D01*
X91500Y-6500D02*X92250Y-7250D01*
X97050Y-3500D02*Y-8750D01*
X97800Y-9500D01*
X96300Y-5750D02*X97800D01*
X100050Y-9500D02*X102300D01*
X99300Y-8750D02*X100050Y-9500D01*
X99300Y-7250D02*Y-8750D01*
Y-7250D02*X100050Y-6500D01*
X101550D01*
X102300Y-7250D01*
X99300Y-8000D02*X102300D01*
Y-7250D02*Y-8000D01*
X104850Y-7250D02*Y-9500D01*
Y-7250D02*X105600Y-6500D01*
X107100D01*
X104100D02*X104850Y-7250D01*
X108900Y-3500D02*Y-8750D01*
X109650Y-9500D01*
G54D40*X111150Y-5000D02*Y-5150D01*
G54D39*Y-7250D02*Y-9500D01*
X113400Y-7250D02*Y-9500D01*
Y-7250D02*X114150Y-6500D01*
X114900D01*
X115650Y-7250D01*
Y-9500D01*
X112650Y-6500D02*X113400Y-7250D01*
X118200Y-9500D02*X120450D01*
X117450Y-8750D02*X118200Y-9500D01*
X117450Y-7250D02*Y-8750D01*
Y-7250D02*X118200Y-6500D01*
X119700D01*
X120450Y-7250D01*
X117450Y-8000D02*X120450D01*
Y-7250D02*Y-8000D01*
X124950Y-7250D02*Y-8750D01*
Y-7250D02*X125700Y-6500D01*
X127200D01*
X127950Y-7250D01*
Y-8750D01*
X127200Y-9500D02*X127950Y-8750D01*
X125700Y-9500D02*X127200D01*
X124950Y-8750D02*X125700Y-9500D01*
X130500Y-4250D02*Y-9500D01*
Y-4250D02*X131250Y-3500D01*
X132000D01*
X129750Y-6500D02*X131250D01*
X136950Y-3500D02*Y-8750D01*
X137700Y-9500D01*
X136200Y-5750D02*X137700D01*
X139200Y-3500D02*Y-9500D01*
Y-7250D02*X139950Y-6500D01*
X141450D01*
X142200Y-7250D01*
Y-9500D01*
G54D40*X144000Y-5000D02*Y-5150D01*
G54D39*Y-7250D02*Y-9500D01*
X146250D02*X148500D01*
X149250Y-8750D01*
X148500Y-8000D02*X149250Y-8750D01*
X146250Y-8000D02*X148500D01*
X145500Y-7250D02*X146250Y-8000D01*
X145500Y-7250D02*X146250Y-6500D01*
X148500D01*
X149250Y-7250D01*
X145500Y-8750D02*X146250Y-9500D01*
X154500Y-7250D02*Y-11750D01*
X153750Y-6500D02*X154500Y-7250D01*
X155250Y-6500D01*
X156750D01*
X157500Y-7250D01*
Y-8750D01*
X156750Y-9500D02*X157500Y-8750D01*
X155250Y-9500D02*X156750D01*
X154500Y-8750D02*X155250Y-9500D01*
X161550Y-6500D02*X162300Y-7250D01*
X160050Y-6500D02*X161550D01*
X159300Y-7250D02*X160050Y-6500D01*
X159300Y-7250D02*Y-8750D01*
X160050Y-9500D01*
X162300Y-6500D02*Y-8750D01*
X163050Y-9500D01*
X160050D02*X161550D01*
X162300Y-8750D01*
X165600Y-3500D02*Y-8750D01*
X166350Y-9500D01*
X164850Y-5750D02*X166350D01*
X167850Y-3500D02*Y-9500D01*
Y-7250D02*X168600Y-6500D01*
X170100D01*
X170850Y-7250D01*
Y-9500D01*
X200750Y180500D02*Y174500D01*
X202700Y180500D02*X203750Y179450D01*
Y175550D01*
X202700Y174500D02*X203750Y175550D01*
X200000Y174500D02*X202700D01*
X200000Y180500D02*X202700D01*
X207800Y177500D02*X208550Y176750D01*
X206300Y177500D02*X207800D01*
X205550Y176750D02*X206300Y177500D01*
X205550Y176750D02*Y175250D01*
X206300Y174500D01*
X208550Y177500D02*Y175250D01*
X209300Y174500D01*
X206300D02*X207800D01*
X208550Y175250D01*
X211850Y180500D02*Y175250D01*
X212600Y174500D01*
X211100Y178250D02*X212600D01*
X214850Y174500D02*X217100D01*
X214100Y175250D02*X214850Y174500D01*
X214100Y176750D02*Y175250D01*
Y176750D02*X214850Y177500D01*
X216350D01*
X217100Y176750D01*
X214100Y176000D02*X217100D01*
Y176750D02*Y176000D01*
X218900Y178250D02*X219650D01*
X218900Y176750D02*X219650D01*
X224150Y180500D02*Y174500D01*
Y180500D02*X227150D01*
X224150Y177800D02*X226400D01*
X229700Y176750D02*Y174500D01*
Y176750D02*X230450Y177500D01*
X231950D01*
X228950D02*X229700Y176750D01*
G54D40*X233750Y179000D02*Y178850D01*
G54D39*Y176750D02*Y174500D01*
X237950Y180500D02*Y174500D01*
Y180500D02*X241700Y174500D01*
Y180500D02*Y174500D01*
X243500Y176750D02*Y175250D01*
Y176750D02*X244250Y177500D01*
X245750D01*
X246500Y176750D01*
Y175250D01*
X245750Y174500D02*X246500Y175250D01*
X244250Y174500D02*X245750D01*
X243500Y175250D02*X244250Y174500D01*
X248300Y177500D02*X249800Y174500D01*
X251300Y177500D02*X249800Y174500D01*
X255800Y179300D02*X257000Y180500D01*
Y174500D01*
X255800D02*X258050D01*
X259850Y180500D02*X262850D01*
X259850D02*Y177500D01*
X260600Y178250D01*
X262100D01*
X262850Y177500D01*
Y175250D01*
X262100Y174500D02*X262850Y175250D01*
X260600Y174500D02*X262100D01*
X259850Y175250D02*X260600Y174500D01*
X267350Y179750D02*X268100Y180500D01*
X270350D01*
X271100Y179750D01*
Y178250D01*
X267350Y174500D02*X271100Y178250D01*
X267350Y174500D02*X271100D01*
X272900Y179750D02*X273650Y180500D01*
X275900D01*
X276650Y179750D01*
Y178250D01*
X272900Y174500D02*X276650Y178250D01*
X272900Y174500D02*X276650D01*
X278450Y178250D02*X279200D01*
X278450Y176750D02*X279200D01*
X281000Y179750D02*X281750Y180500D01*
X284000D01*
X284750Y179750D01*
Y178250D01*
X281000Y174500D02*X284750Y178250D01*
X281000Y174500D02*X284750D01*
X288800Y180500D02*X289550Y179750D01*
X287300Y180500D02*X288800D01*
X286550Y179750D02*X287300Y180500D01*
X286550Y179750D02*Y175250D01*
X287300Y174500D01*
X288800Y177800D02*X289550Y177050D01*
X286550Y177800D02*X288800D01*
X287300Y174500D02*X288800D01*
X289550Y175250D01*
Y177050D02*Y175250D01*
X291350Y178250D02*X292100D01*
X291350Y176750D02*X292100D01*
X293900Y179750D02*X294650Y180500D01*
X296900D01*
X297650Y179750D01*
Y178250D01*
X293900Y174500D02*X297650Y178250D01*
X293900Y174500D02*X297650D01*
X300200D02*X302450Y177500D01*
Y179750D02*Y177500D01*
X301700Y180500D02*X302450Y179750D01*
X300200Y180500D02*X301700D01*
X299450Y179750D02*X300200Y180500D01*
X299450Y179750D02*Y178250D01*
X300200Y177500D01*
X302450D01*
X306950Y179750D02*X307700Y180500D01*
X309950D01*
X310700Y179750D01*
Y178250D01*
X306950Y174500D02*X310700Y178250D01*
X306950Y174500D02*X310700D01*
X312500Y175250D02*X313250Y174500D01*
X312500Y179750D02*Y175250D01*
Y179750D02*X313250Y180500D01*
X314750D01*
X315500Y179750D01*
Y175250D01*
X314750Y174500D02*X315500Y175250D01*
X313250Y174500D02*X314750D01*
X312500Y176000D02*X315500Y179000D01*
X317300Y179300D02*X318500Y180500D01*
Y174500D01*
X317300D02*X319550D01*
X321350Y179750D02*X322100Y180500D01*
X323600D01*
X324350Y179750D01*
X323600Y174500D02*X324350Y175250D01*
X322100Y174500D02*X323600D01*
X321350Y175250D02*X322100Y174500D01*
Y177800D02*X323600D01*
X324350Y179750D02*Y178550D01*
Y177050D02*Y175250D01*
Y177050D02*X323600Y177800D01*
X324350Y178550D02*X323600Y177800D01*
X328850Y180500D02*Y175250D01*
X329600Y174500D01*
X331100D01*
X331850Y175250D01*
Y180500D02*Y175250D01*
X333650Y180500D02*X336650D01*
X335150D02*Y174500D01*
X339500D02*X341450D01*
X338450Y175550D02*X339500Y174500D01*
X338450Y179450D02*Y175550D01*
Y179450D02*X339500Y180500D01*
X341450D01*
X200000Y194000D02*Y189500D01*
Y194000D02*X201050Y195500D01*
X202700D01*
X203750Y194000D01*
Y189500D01*
X200000Y192500D02*X203750D01*
X205550D02*Y190250D01*
X206300Y189500D01*
X207800D01*
X208550Y190250D01*
Y192500D02*Y190250D01*
X211100Y195500D02*Y190250D01*
X211850Y189500D01*
X210350Y193250D02*X211850D01*
X213350Y195500D02*Y189500D01*
Y191750D02*X214100Y192500D01*
X215600D01*
X216350Y191750D01*
Y189500D01*
X218150Y191750D02*Y190250D01*
Y191750D02*X218900Y192500D01*
X220400D01*
X221150Y191750D01*
Y190250D01*
X220400Y189500D02*X221150Y190250D01*
X218900Y189500D02*X220400D01*
X218150Y190250D02*X218900Y189500D01*
X223700Y191750D02*Y189500D01*
Y191750D02*X224450Y192500D01*
X225950D01*
X222950D02*X223700Y191750D01*
X227750Y193250D02*X228500D01*
X227750Y191750D02*X228500D01*
X200000Y210500D02*X203000D01*
X201500D02*Y204500D01*
G54D40*X204800Y209000D02*Y208850D01*
G54D39*Y206750D02*Y204500D01*
X207050Y210500D02*Y205250D01*
X207800Y204500D01*
X206300Y208250D02*X207800D01*
X209300Y210500D02*Y205250D01*
X210050Y204500D01*
X212300D02*X214550D01*
X211550Y205250D02*X212300Y204500D01*
X211550Y206750D02*Y205250D01*
Y206750D02*X212300Y207500D01*
X213800D01*
X214550Y206750D01*
X211550Y206000D02*X214550D01*
Y206750D02*Y206000D01*
X216350Y208250D02*X217100D01*
X216350Y206750D02*X217100D01*
X221600Y205250D02*X222350Y204500D01*
X221600Y209750D02*X222350Y210500D01*
X221600Y209750D02*Y205250D01*
X224150Y207500D02*Y205250D01*
X224900Y204500D01*
X226400D01*
X227150Y205250D01*
Y207500D02*Y205250D01*
X229700Y206750D02*Y204500D01*
Y206750D02*X230450Y207500D01*
X231200D01*
X231950Y206750D01*
Y204500D01*
X228950Y207500D02*X229700Y206750D01*
X233750Y210500D02*Y204500D01*
Y206750D02*X236000Y204500D01*
X233750Y206750D02*X235250Y208250D01*
X238550Y206750D02*Y204500D01*
Y206750D02*X239300Y207500D01*
X240050D01*
X240800Y206750D01*
Y204500D01*
X237800Y207500D02*X238550Y206750D01*
X242600D02*Y205250D01*
Y206750D02*X243350Y207500D01*
X244850D01*
X245600Y206750D01*
Y205250D01*
X244850Y204500D02*X245600Y205250D01*
X243350Y204500D02*X244850D01*
X242600Y205250D02*X243350Y204500D01*
X247400Y207500D02*Y205250D01*
X248150Y204500D01*
X248900D01*
X249650Y205250D01*
Y207500D02*Y205250D01*
X250400Y204500D01*
X251150D01*
X251900Y205250D01*
Y207500D02*Y205250D01*
X254450Y206750D02*Y204500D01*
Y206750D02*X255200Y207500D01*
X255950D01*
X256700Y206750D01*
Y204500D01*
X253700Y207500D02*X254450Y206750D01*
X258500Y210500D02*X259250Y209750D01*
Y205250D01*
X258500Y204500D02*X259250Y205250D01*
X263750Y207500D02*X266750D01*
X271250Y210500D02*Y204500D01*
Y210500D02*X274250D01*
X271250Y207800D02*X273500D01*
X278300Y207500D02*X279050Y206750D01*
X276800Y207500D02*X278300D01*
X276050Y206750D02*X276800Y207500D01*
X276050Y206750D02*Y205250D01*
X276800Y204500D01*
X279050Y207500D02*Y205250D01*
X279800Y204500D01*
X276800D02*X278300D01*
X279050Y205250D01*
X281600Y210500D02*Y204500D01*
Y205250D02*X282350Y204500D01*
X283850D01*
X284600Y205250D01*
Y206750D02*Y205250D01*
X283850Y207500D02*X284600Y206750D01*
X282350Y207500D02*X283850D01*
X281600Y206750D02*X282350Y207500D01*
X287150Y206750D02*Y204500D01*
Y206750D02*X287900Y207500D01*
X289400D01*
X286400D02*X287150Y206750D01*
G54D40*X291200Y209000D02*Y208850D01*
G54D39*Y206750D02*Y204500D01*
X293450Y207500D02*X295700D01*
X292700Y206750D02*X293450Y207500D01*
X292700Y206750D02*Y205250D01*
X293450Y204500D01*
X295700D01*
X299750Y207500D02*X300500Y206750D01*
X298250Y207500D02*X299750D01*
X297500Y206750D02*X298250Y207500D01*
X297500Y206750D02*Y205250D01*
X298250Y204500D01*
X300500Y207500D02*Y205250D01*
X301250Y204500D01*
X298250D02*X299750D01*
X300500Y205250D01*
X303800Y210500D02*Y205250D01*
X304550Y204500D01*
X303050Y208250D02*X304550D01*
G54D40*X306050Y209000D02*Y208850D01*
G54D39*Y206750D02*Y204500D01*
X307550Y206750D02*Y205250D01*
Y206750D02*X308300Y207500D01*
X309800D01*
X310550Y206750D01*
Y205250D01*
X309800Y204500D02*X310550Y205250D01*
X308300Y204500D02*X309800D01*
X307550Y205250D02*X308300Y204500D01*
X313100Y206750D02*Y204500D01*
Y206750D02*X313850Y207500D01*
X314600D01*
X315350Y206750D01*
Y204500D01*
X312350Y207500D02*X313100Y206750D01*
X320600Y210500D02*Y204500D01*
X322550Y210500D02*X323600Y209450D01*
Y205550D01*
X322550Y204500D02*X323600Y205550D01*
X319850Y204500D02*X322550D01*
X319850Y210500D02*X322550D01*
X326150Y206750D02*Y204500D01*
Y206750D02*X326900Y207500D01*
X328400D01*
X325400D02*X326150Y206750D01*
X332450Y207500D02*X333200Y206750D01*
X330950Y207500D02*X332450D01*
X330200Y206750D02*X330950Y207500D01*
X330200Y206750D02*Y205250D01*
X330950Y204500D01*
X333200Y207500D02*Y205250D01*
X333950Y204500D01*
X330950D02*X332450D01*
X333200Y205250D01*
X335750Y207500D02*Y205250D01*
X336500Y204500D01*
X337250D01*
X338000Y205250D01*
Y207500D02*Y205250D01*
X338750Y204500D01*
X339500D01*
X340250Y205250D01*
Y207500D02*Y205250D01*
G54D40*X342050Y209000D02*Y208850D01*
G54D39*Y206750D02*Y204500D01*
X344300Y206750D02*Y204500D01*
Y206750D02*X345050Y207500D01*
X345800D01*
X346550Y206750D01*
Y204500D01*
X343550Y207500D02*X344300Y206750D01*
X350600Y207500D02*X351350Y206750D01*
X349100Y207500D02*X350600D01*
X348350Y206750D02*X349100Y207500D01*
X348350Y206750D02*Y205250D01*
X349100Y204500D01*
X350600D01*
X351350Y205250D01*
X348350Y203000D02*X349100Y202250D01*
X350600D01*
X351350Y203000D01*
Y207500D02*Y203000D01*
M02*
