G04 start of page 4 for group 2 idx 2 *
G04 Title: (unknown), signal2 *
G04 Creator: pcb 20110918 *
G04 CreationDate: Tue Nov 19 21:14:11 2013 UTC *
G04 For: fosse *
G04 Format: Gerber/RS-274X *
G04 PCB-Dimensions: 72000 152000 *
G04 PCB-Coordinate-Origin: lower left *
%MOIN*%
%FSLAX25Y25*%
%LNGROUP2*%
%ADD30C,0.0354*%
%ADD29C,0.1160*%
%ADD28C,0.0360*%
%ADD27C,0.0494*%
%ADD26C,0.2700*%
%ADD25C,0.0200*%
G54D25*X23400Y101600D02*Y105100D01*
X28000Y109700D01*
X31600D01*
X14400Y105000D02*X22700Y113300D01*
X28800D01*
X14400Y102800D02*Y105000D01*
X32800Y104500D02*Y98300D01*
X30600Y96100D01*
X16600D01*
X31600Y109700D02*X34600Y112700D01*
X36200D01*
X46000Y122500D01*
X45500Y117200D02*X32800Y104500D01*
X28800Y113300D02*X38000Y122500D01*
X36100Y127600D02*X42000Y133500D01*
X11400Y127600D02*X36100D01*
X43100Y101800D02*X44700Y100200D01*
Y96900D01*
X38700Y90900D01*
X22400D01*
X6700Y62800D02*X15000Y54500D01*
X7000D02*X7900D01*
X10800Y65700D02*X11000Y65500D01*
X7900Y54500D02*X15100Y47300D01*
Y39600D01*
X16600Y38100D01*
Y96100D02*X14100Y93600D01*
Y88400D01*
X22400Y90900D02*X19300Y87800D01*
X14100Y88400D02*X10800Y85100D01*
Y65700D01*
X6700Y83900D02*Y62800D01*
X19300Y87800D02*Y80200D01*
X23000Y76500D01*
X66000Y111600D02*X45900D01*
X43100Y108800D02*Y101800D01*
X64700Y117200D02*X45500D01*
X45900Y111600D02*X43100Y108800D01*
X47500Y102900D02*Y105500D01*
X49800Y107800D01*
X54700D01*
X58000Y104500D01*
Y77500D01*
X57000Y76500D01*
X52600Y73600D02*Y93300D01*
X50700Y95200D01*
X19000Y43500D02*X23300D01*
X26700Y40100D01*
X42900D01*
X52400Y49600D01*
Y57400D01*
X57100Y62100D01*
Y69100D01*
X52600Y73600D01*
X16600Y38100D02*X23200D01*
X24600Y36700D01*
X62900D01*
G54D26*X36000Y58000D03*
G54D27*X62575Y93205D03*
X9425D03*
G54D28*X30000Y122500D03*
X34000Y133500D03*
X26000D03*
X9600Y102700D03*
X14400Y102800D03*
X23400Y101600D03*
X18900Y102600D03*
X28800Y99600D03*
X28600Y104900D03*
X18000Y133500D03*
X22000Y122500D03*
X15500Y119200D03*
X11400Y127600D03*
X38000Y122500D03*
X46000D03*
X54000D03*
X50000Y133500D03*
X42000D03*
X66000Y111600D03*
X66800Y103300D03*
X67100Y88200D03*
Y97500D03*
X64600Y117200D03*
X62200Y106900D03*
X40600Y98700D03*
X36600Y95800D03*
X53100Y99600D03*
X50700Y95200D03*
X47500Y102900D03*
X65000Y76500D03*
X61000Y65500D03*
X53000D03*
X57000Y54500D03*
X65000D03*
X57000Y76500D03*
X53000Y43500D03*
X61000D03*
X62900Y36700D03*
X11000Y65500D03*
X19000D03*
X15000Y54500D03*
X7000D03*
X11000Y43500D03*
X19000D03*
X15000Y76500D03*
X14700Y83100D03*
X6700Y83900D03*
X24200Y83400D03*
X23000Y76500D03*
X42299Y74801D03*
G54D25*G54D29*G54D30*M02*
