G04 start of page 14 for group -3984 idx -3984 *
G04 Title: (unknown), fab *
G04 Creator: pcb 20110918 *
G04 CreationDate: Wed Nov 20 21:14:43 2013 UTC *
G04 For: fosse *
G04 Format: Gerber/RS-274X *
G04 PCB-Dimensions: 77000 162000 *
G04 PCB-Coordinate-Origin: lower left *
%MOIN*%
%FSLAX25Y25*%
%LNFAB*%
%ADD84C,0.0100*%
%ADD83C,0.0075*%
%ADD82C,0.0060*%
%ADD81R,0.0080X0.0080*%
G54D81*X36100Y68000D02*G75*G03X37700Y68000I800J0D01*G01*
G75*G03X36100Y68000I-800J0D01*G01*
X14200Y173250D02*G75*G03X15800Y173250I800J0D01*G01*
G75*G03X14200Y173250I-800J0D01*G01*
G54D82*X135000Y175500D02*X136500Y172500D01*
X138000Y175500D01*
X136500Y172500D02*Y169500D01*
X139800Y172800D02*X142050D01*
X139800Y169500D02*X142800D01*
X139800Y175500D02*Y169500D01*
Y175500D02*X142800D01*
X147600D02*X148350Y174750D01*
X145350Y175500D02*X147600D01*
X144600Y174750D02*X145350Y175500D01*
X144600Y174750D02*Y173250D01*
X145350Y172500D01*
X147600D01*
X148350Y171750D01*
Y170250D01*
X147600Y169500D02*X148350Y170250D01*
X145350Y169500D02*X147600D01*
X144600Y170250D02*X145350Y169500D01*
X98000Y174300D02*X99200Y175500D01*
Y169500D01*
X98000D02*X100250D01*
X45000Y170250D02*X45750Y169500D01*
X45000Y174750D02*Y170250D01*
Y174750D02*X45750Y175500D01*
X47250D01*
X48000Y174750D01*
Y170250D01*
X47250Y169500D02*X48000Y170250D01*
X45750Y169500D02*X47250D01*
X45000Y171000D02*X48000Y174000D01*
X49800Y169500D02*X50550D01*
X52350Y174300D02*X53550Y175500D01*
Y169500D01*
X52350D02*X54600D01*
X56400Y174300D02*X57600Y175500D01*
Y169500D01*
X56400D02*X58650D01*
X62700Y175500D02*X63450Y174750D01*
X61200Y175500D02*X62700D01*
X60450Y174750D02*X61200Y175500D01*
X60450Y174750D02*Y170250D01*
X61200Y169500D01*
X62700Y172800D02*X63450Y172050D01*
X60450Y172800D02*X62700D01*
X61200Y169500D02*X62700D01*
X63450Y170250D01*
Y172050D02*Y170250D01*
X58700Y27000D02*X61100Y24600D01*
X58700D02*X61100Y27000D01*
X13200D02*X15600Y24600D01*
X13200D02*X15600Y27000D01*
X13800Y189450D02*X16200Y187050D01*
X13800D02*X16200Y189450D01*
X135000Y190500D02*X136500Y187500D01*
X138000Y190500D01*
X136500Y187500D02*Y184500D01*
X139800Y187800D02*X142050D01*
X139800Y184500D02*X142800D01*
X139800Y190500D02*Y184500D01*
Y190500D02*X142800D01*
X147600D02*X148350Y189750D01*
X145350Y190500D02*X147600D01*
X144600Y189750D02*X145350Y190500D01*
X144600Y189750D02*Y188250D01*
X145350Y187500D01*
X147600D01*
X148350Y186750D01*
Y185250D01*
X147600Y184500D02*X148350Y185250D01*
X145350Y184500D02*X147600D01*
X144600Y185250D02*X145350Y184500D01*
X98000Y189750D02*X98750Y190500D01*
X101000D01*
X101750Y189750D01*
Y188250D01*
X98000Y184500D02*X101750Y188250D01*
X98000Y184500D02*X101750D01*
X45000Y185250D02*X45750Y184500D01*
X45000Y189750D02*Y185250D01*
Y189750D02*X45750Y190500D01*
X47250D01*
X48000Y189750D01*
Y185250D01*
X47250Y184500D02*X48000Y185250D01*
X45750Y184500D02*X47250D01*
X45000Y186000D02*X48000Y189000D01*
X49800Y184500D02*X50550D01*
X52350Y185250D02*X53100Y184500D01*
X52350Y189750D02*Y185250D01*
Y189750D02*X53100Y190500D01*
X54600D01*
X55350Y189750D01*
Y185250D01*
X54600Y184500D02*X55350Y185250D01*
X53100Y184500D02*X54600D01*
X52350Y186000D02*X55350Y189000D01*
X57150Y185250D02*X57900Y184500D01*
X57150Y186450D02*Y185250D01*
Y186450D02*X58200Y187500D01*
X59100D01*
X60150Y186450D01*
Y185250D01*
X59400Y184500D02*X60150Y185250D01*
X57900Y184500D02*X59400D01*
X57150Y188550D02*X58200Y187500D01*
X57150Y189750D02*Y188550D01*
Y189750D02*X57900Y190500D01*
X59400D01*
X60150Y189750D01*
Y188550D01*
X59100Y187500D02*X60150Y188550D01*
X62700Y184500D02*X64950Y187500D01*
Y189750D02*Y187500D01*
X64200Y190500D02*X64950Y189750D01*
X62700Y190500D02*X64200D01*
X61950Y189750D02*X62700Y190500D01*
X61950Y189750D02*Y188250D01*
X62700Y187500D01*
X64950D01*
X63475Y104805D02*Y101605D01*
X61875Y103205D02*X65075D01*
X10325Y104805D02*Y101605D01*
X8725Y103205D02*X11925D01*
X15000Y204850D02*Y201650D01*
X13400Y203250D02*X16600D01*
X135000Y205500D02*X136500Y202500D01*
X138000Y205500D01*
X136500Y202500D02*Y199500D01*
X139800Y202800D02*X142050D01*
X139800Y199500D02*X142800D01*
X139800Y205500D02*Y199500D01*
Y205500D02*X142800D01*
X147600D02*X148350Y204750D01*
X145350Y205500D02*X147600D01*
X144600Y204750D02*X145350Y205500D01*
X144600Y204750D02*Y203250D01*
X145350Y202500D01*
X147600D01*
X148350Y201750D01*
Y200250D01*
X147600Y199500D02*X148350Y200250D01*
X145350Y199500D02*X147600D01*
X144600Y200250D02*X145350Y199500D01*
X98000Y204750D02*X98750Y205500D01*
X101000D01*
X101750Y204750D01*
Y203250D01*
X98000Y199500D02*X101750Y203250D01*
X98000Y199500D02*X101750D01*
X45000Y200250D02*X45750Y199500D01*
X45000Y204750D02*Y200250D01*
Y204750D02*X45750Y205500D01*
X47250D01*
X48000Y204750D01*
Y200250D01*
X47250Y199500D02*X48000Y200250D01*
X45750Y199500D02*X47250D01*
X45000Y201000D02*X48000Y204000D01*
X49800Y199500D02*X50550D01*
X52350Y200250D02*X53100Y199500D01*
X52350Y204750D02*Y200250D01*
Y204750D02*X53100Y205500D01*
X54600D01*
X55350Y204750D01*
Y200250D01*
X54600Y199500D02*X55350Y200250D01*
X53100Y199500D02*X54600D01*
X52350Y201000D02*X55350Y204000D01*
X57150Y204750D02*X57900Y205500D01*
X59400D01*
X60150Y204750D01*
X59400Y199500D02*X60150Y200250D01*
X57900Y199500D02*X59400D01*
X57150Y200250D02*X57900Y199500D01*
Y202800D02*X59400D01*
X60150Y204750D02*Y203550D01*
Y202050D02*Y200250D01*
Y202050D02*X59400Y202800D01*
X60150Y203550D02*X59400Y202800D01*
X61950Y205500D02*X64950D01*
X61950D02*Y202500D01*
X62700Y203250D01*
X64200D01*
X64950Y202500D01*
Y200250D01*
X64200Y199500D02*X64950Y200250D01*
X62700Y199500D02*X64200D01*
X61950Y200250D02*X62700Y199500D01*
X30900Y132500D02*Y130900D01*
Y132500D02*X32287Y133300D01*
X30900Y132500D02*X29513Y133300D01*
X34900Y143500D02*Y141900D01*
Y143500D02*X36287Y144300D01*
X34900Y143500D02*X33513Y144300D01*
X29500Y114900D02*Y113300D01*
Y114900D02*X30887Y115700D01*
X29500Y114900D02*X28113Y115700D01*
X18900Y143500D02*Y141900D01*
Y143500D02*X20287Y144300D01*
X18900Y143500D02*X17513Y144300D01*
X38900Y132500D02*Y130900D01*
Y132500D02*X40287Y133300D01*
X38900Y132500D02*X37513Y133300D01*
X46900Y132500D02*Y130900D01*
Y132500D02*X48287Y133300D01*
X46900Y132500D02*X45513Y133300D01*
X54900Y132500D02*Y130900D01*
Y132500D02*X56287Y133300D01*
X54900Y132500D02*X53513Y133300D01*
X50900Y143500D02*Y141900D01*
Y143500D02*X52287Y144300D01*
X50900Y143500D02*X49513Y144300D01*
X42900Y143500D02*Y141900D01*
Y143500D02*X44287Y144300D01*
X42900Y143500D02*X41513Y144300D01*
X10500Y112700D02*Y111100D01*
Y112700D02*X11887Y113500D01*
X10500Y112700D02*X9113Y113500D01*
X24300Y111600D02*Y110000D01*
Y111600D02*X25687Y112400D01*
X24300Y111600D02*X22913Y112400D01*
X19800Y112600D02*Y111000D01*
Y112600D02*X21187Y113400D01*
X19800Y112600D02*X18413Y113400D01*
X15300Y112800D02*Y111200D01*
Y112800D02*X16687Y113600D01*
X15300Y112800D02*X13913Y113600D01*
X26900Y143500D02*Y141900D01*
Y143500D02*X28287Y144300D01*
X26900Y143500D02*X25513Y144300D01*
X29700Y109600D02*Y108000D01*
Y109600D02*X31087Y110400D01*
X29700Y109600D02*X28313Y110400D01*
X22900Y132500D02*Y130900D01*
Y132500D02*X24287Y133300D01*
X22900Y132500D02*X21513Y133300D01*
X16400Y129200D02*Y127600D01*
Y129200D02*X17787Y130000D01*
X16400Y129200D02*X15013Y130000D01*
X12300Y137600D02*Y136000D01*
Y137600D02*X13687Y138400D01*
X12300Y137600D02*X10913Y138400D01*
X66900Y121600D02*Y120000D01*
Y121600D02*X68287Y122400D01*
X66900Y121600D02*X65513Y122400D01*
X65500Y127200D02*Y125600D01*
Y127200D02*X66887Y128000D01*
X65500Y127200D02*X64113Y128000D01*
X63100Y116900D02*Y115300D01*
Y116900D02*X64487Y117700D01*
X63100Y116900D02*X61713Y117700D01*
X67700Y113300D02*Y111700D01*
Y113300D02*X69087Y114100D01*
X67700Y113300D02*X66313Y114100D01*
X48400Y112900D02*Y111300D01*
Y112900D02*X49787Y113700D01*
X48400Y112900D02*X47013Y113700D01*
X41500Y108700D02*Y107100D01*
Y108700D02*X42887Y109500D01*
X41500Y108700D02*X40113Y109500D01*
X37500Y105800D02*Y104200D01*
Y105800D02*X38887Y106600D01*
X37500Y105800D02*X36113Y106600D01*
X11900Y75500D02*Y73900D01*
Y75500D02*X13287Y76300D01*
X11900Y75500D02*X10513Y76300D01*
X19900Y75500D02*Y73900D01*
Y75500D02*X21287Y76300D01*
X19900Y75500D02*X18513Y76300D01*
X15900Y86500D02*Y84900D01*
Y86500D02*X17287Y87300D01*
X15900Y86500D02*X14513Y87300D01*
X65900Y86500D02*Y84900D01*
Y86500D02*X67287Y87300D01*
X65900Y86500D02*X64513Y87300D01*
X61900Y75500D02*Y73900D01*
Y75500D02*X63287Y76300D01*
X61900Y75500D02*X60513Y76300D01*
X53900Y75500D02*Y73900D01*
Y75500D02*X55287Y76300D01*
X53900Y75500D02*X52513Y76300D01*
X57900Y64500D02*Y62900D01*
Y64500D02*X59287Y65300D01*
X57900Y64500D02*X56513Y65300D01*
X65900Y64500D02*Y62900D01*
Y64500D02*X67287Y65300D01*
X65900Y64500D02*X64513Y65300D01*
X15900Y64500D02*Y62900D01*
Y64500D02*X17287Y65300D01*
X15900Y64500D02*X14513Y65300D01*
X7900Y64500D02*Y62900D01*
Y64500D02*X9287Y65300D01*
X7900Y64500D02*X6513Y65300D01*
X11900Y53500D02*Y51900D01*
Y53500D02*X13287Y54300D01*
X11900Y53500D02*X10513Y54300D01*
X19900Y53500D02*Y51900D01*
Y53500D02*X21287Y54300D01*
X19900Y53500D02*X18513Y54300D01*
X53900Y53500D02*Y51900D01*
Y53500D02*X55287Y54300D01*
X53900Y53500D02*X52513Y54300D01*
X61900Y53500D02*Y51900D01*
Y53500D02*X63287Y54300D01*
X61900Y53500D02*X60513Y54300D01*
X68000Y98200D02*Y96600D01*
Y98200D02*X69387Y99000D01*
X68000Y98200D02*X66613Y99000D01*
X15600Y93100D02*Y91500D01*
Y93100D02*X16987Y93900D01*
X15600Y93100D02*X14213Y93900D01*
X7600D02*Y92300D01*
Y93900D02*X8987Y94700D01*
X7600Y93900D02*X6213Y94700D01*
X25100Y93400D02*Y91800D01*
Y93400D02*X26487Y94200D01*
X25100Y93400D02*X23713Y94200D01*
X68000Y107500D02*Y105900D01*
Y107500D02*X69387Y108300D01*
X68000Y107500D02*X66613Y108300D01*
X57900Y86500D02*Y84900D01*
Y86500D02*X59287Y87300D01*
X57900Y86500D02*X56513Y87300D01*
X54000Y109600D02*Y108000D01*
Y109600D02*X55387Y110400D01*
X54000Y109600D02*X52613Y110400D01*
X51600Y105200D02*Y103600D01*
Y105200D02*X52987Y106000D01*
X51600Y105200D02*X50213Y106000D01*
X23900Y86500D02*Y84900D01*
Y86500D02*X25287Y87300D01*
X23900Y86500D02*X22513Y87300D01*
X63800Y46700D02*Y45100D01*
Y46700D02*X65187Y47500D01*
X63800Y46700D02*X62413Y47500D01*
X43199Y84801D02*Y83201D01*
Y84801D02*X44586Y85601D01*
X43199Y84801D02*X41812Y85601D01*
X8800Y154400D02*Y152800D01*
Y154400D02*X10187Y155200D01*
X8800Y154400D02*X7413Y155200D01*
X66300Y154500D02*Y152900D01*
Y154500D02*X67687Y155300D01*
X66300Y154500D02*X64913Y155300D01*
X24100Y154500D02*Y152900D01*
Y154500D02*X25487Y155300D01*
X24100Y154500D02*X22713Y155300D01*
X52000Y154500D02*Y152900D01*
Y154500D02*X53387Y155300D01*
X52000Y154500D02*X50613Y155300D01*
X15000Y218250D02*Y216650D01*
Y218250D02*X16387Y219050D01*
X15000Y218250D02*X13613Y219050D01*
X135000Y220500D02*X136500Y217500D01*
X138000Y220500D01*
X136500Y217500D02*Y214500D01*
X139800Y217800D02*X142050D01*
X139800Y214500D02*X142800D01*
X139800Y220500D02*Y214500D01*
Y220500D02*X142800D01*
X147600D02*X148350Y219750D01*
X145350Y220500D02*X147600D01*
X144600Y219750D02*X145350Y220500D01*
X144600Y219750D02*Y218250D01*
X145350Y217500D01*
X147600D01*
X148350Y216750D01*
Y215250D01*
X147600Y214500D02*X148350Y215250D01*
X145350Y214500D02*X147600D01*
X144600Y215250D02*X145350Y214500D01*
X98000Y220500D02*X101000D01*
X98000D02*Y217500D01*
X98750Y218250D01*
X100250D01*
X101000Y217500D01*
Y215250D01*
X100250Y214500D02*X101000Y215250D01*
X98750Y214500D02*X100250D01*
X98000Y215250D02*X98750Y214500D01*
X102800Y216750D02*X105800Y220500D01*
X102800Y216750D02*X106550D01*
X105800Y220500D02*Y214500D01*
X45000Y215250D02*X45750Y214500D01*
X45000Y219750D02*Y215250D01*
Y219750D02*X45750Y220500D01*
X47250D01*
X48000Y219750D01*
Y215250D01*
X47250Y214500D02*X48000Y215250D01*
X45750Y214500D02*X47250D01*
X45000Y216000D02*X48000Y219000D01*
X49800Y214500D02*X50550D01*
X52350Y215250D02*X53100Y214500D01*
X52350Y219750D02*Y215250D01*
Y219750D02*X53100Y220500D01*
X54600D01*
X55350Y219750D01*
Y215250D01*
X54600Y214500D02*X55350Y215250D01*
X53100Y214500D02*X54600D01*
X52350Y216000D02*X55350Y219000D01*
X57150Y219750D02*X57900Y220500D01*
X60150D01*
X60900Y219750D01*
Y218250D01*
X57150Y214500D02*X60900Y218250D01*
X57150Y214500D02*X60900D01*
X62700Y215250D02*X63450Y214500D01*
X62700Y219750D02*Y215250D01*
Y219750D02*X63450Y220500D01*
X64950D01*
X65700Y219750D01*
Y215250D01*
X64950Y214500D02*X65700Y215250D01*
X63450Y214500D02*X64950D01*
X62700Y216000D02*X65700Y219000D01*
X3000Y235500D02*X3750Y234750D01*
X750Y235500D02*X3000D01*
X0Y234750D02*X750Y235500D01*
X0Y234750D02*Y233250D01*
X750Y232500D01*
X3000D01*
X3750Y231750D01*
Y230250D01*
X3000Y229500D02*X3750Y230250D01*
X750Y229500D02*X3000D01*
X0Y230250D02*X750Y229500D01*
X5550Y232500D02*Y230250D01*
X6300Y229500D01*
X8550Y232500D02*Y228000D01*
X7800Y227250D02*X8550Y228000D01*
X6300Y227250D02*X7800D01*
X5550Y228000D02*X6300Y227250D01*
Y229500D02*X7800D01*
X8550Y230250D01*
X11100Y231750D02*Y229500D01*
Y231750D02*X11850Y232500D01*
X12600D01*
X13350Y231750D01*
Y229500D01*
Y231750D02*X14100Y232500D01*
X14850D01*
X15600Y231750D01*
Y229500D01*
X10350Y232500D02*X11100Y231750D01*
X17400Y235500D02*Y229500D01*
Y230250D02*X18150Y229500D01*
X19650D01*
X20400Y230250D01*
Y231750D02*Y230250D01*
X19650Y232500D02*X20400Y231750D01*
X18150Y232500D02*X19650D01*
X17400Y231750D02*X18150Y232500D01*
X22200Y231750D02*Y230250D01*
Y231750D02*X22950Y232500D01*
X24450D01*
X25200Y231750D01*
Y230250D01*
X24450Y229500D02*X25200Y230250D01*
X22950Y229500D02*X24450D01*
X22200Y230250D02*X22950Y229500D01*
X27000Y235500D02*Y230250D01*
X27750Y229500D01*
X0Y226250D02*X29250D01*
X41750Y235500D02*Y229500D01*
X43700Y235500D02*X44750Y234450D01*
Y230550D01*
X43700Y229500D02*X44750Y230550D01*
X41000Y229500D02*X43700D01*
X41000Y235500D02*X43700D01*
G54D83*X46550Y234000D02*Y233850D01*
G54D82*Y231750D02*Y229500D01*
X50300Y232500D02*X51050Y231750D01*
X48800Y232500D02*X50300D01*
X48050Y231750D02*X48800Y232500D01*
X48050Y231750D02*Y230250D01*
X48800Y229500D01*
X51050Y232500D02*Y230250D01*
X51800Y229500D01*
X48800D02*X50300D01*
X51050Y230250D01*
X54350Y231750D02*Y229500D01*
Y231750D02*X55100Y232500D01*
X55850D01*
X56600Y231750D01*
Y229500D01*
Y231750D02*X57350Y232500D01*
X58100D01*
X58850Y231750D01*
Y229500D01*
X53600Y232500D02*X54350Y231750D01*
X60650Y229500D02*X61400D01*
X65900Y230250D02*X66650Y229500D01*
X65900Y234750D02*X66650Y235500D01*
X65900Y234750D02*Y230250D01*
X68450Y235500D02*X69950D01*
X69200D02*Y229500D01*
X68450D02*X69950D01*
X72500Y231750D02*Y229500D01*
Y231750D02*X73250Y232500D01*
X74000D01*
X74750Y231750D01*
Y229500D01*
X71750Y232500D02*X72500Y231750D01*
X77300Y232500D02*X79550D01*
X76550Y231750D02*X77300Y232500D01*
X76550Y231750D02*Y230250D01*
X77300Y229500D01*
X79550D01*
X81350Y235500D02*Y229500D01*
Y231750D02*X82100Y232500D01*
X83600D01*
X84350Y231750D01*
Y229500D01*
X86150Y235500D02*X86900Y234750D01*
Y230250D01*
X86150Y229500D02*X86900Y230250D01*
X41000Y226250D02*X88700D01*
X96050Y229500D02*X98000D01*
X95000Y230550D02*X96050Y229500D01*
X95000Y234450D02*Y230550D01*
Y234450D02*X96050Y235500D01*
X98000D01*
X99800Y231750D02*Y230250D01*
Y231750D02*X100550Y232500D01*
X102050D01*
X102800Y231750D01*
Y230250D01*
X102050Y229500D02*X102800Y230250D01*
X100550Y229500D02*X102050D01*
X99800Y230250D02*X100550Y229500D01*
X104600Y232500D02*Y230250D01*
X105350Y229500D01*
X106850D01*
X107600Y230250D01*
Y232500D02*Y230250D01*
X110150Y231750D02*Y229500D01*
Y231750D02*X110900Y232500D01*
X111650D01*
X112400Y231750D01*
Y229500D01*
X109400Y232500D02*X110150Y231750D01*
X114950Y235500D02*Y230250D01*
X115700Y229500D01*
X114200Y233250D02*X115700D01*
X95000Y226250D02*X117200D01*
X130750Y235500D02*Y229500D01*
X130000Y235500D02*X133000D01*
X133750Y234750D01*
Y233250D01*
X133000Y232500D02*X133750Y233250D01*
X130750Y232500D02*X133000D01*
X135550Y235500D02*Y230250D01*
X136300Y229500D01*
X140050Y232500D02*X140800Y231750D01*
X138550Y232500D02*X140050D01*
X137800Y231750D02*X138550Y232500D01*
X137800Y231750D02*Y230250D01*
X138550Y229500D01*
X140800Y232500D02*Y230250D01*
X141550Y229500D01*
X138550D02*X140050D01*
X140800Y230250D01*
X144100Y235500D02*Y230250D01*
X144850Y229500D01*
X143350Y233250D02*X144850D01*
X147100Y229500D02*X149350D01*
X146350Y230250D02*X147100Y229500D01*
X146350Y231750D02*Y230250D01*
Y231750D02*X147100Y232500D01*
X148600D01*
X149350Y231750D01*
X146350Y231000D02*X149350D01*
Y231750D02*Y231000D01*
X154150Y235500D02*Y229500D01*
X153400D02*X154150Y230250D01*
X151900Y229500D02*X153400D01*
X151150Y230250D02*X151900Y229500D01*
X151150Y231750D02*Y230250D01*
Y231750D02*X151900Y232500D01*
X153400D01*
X154150Y231750D01*
X157450Y232500D02*Y231750D01*
Y230250D02*Y229500D01*
X155950Y234750D02*Y234000D01*
Y234750D02*X156700Y235500D01*
X158200D01*
X158950Y234750D01*
Y234000D01*
X157450Y232500D02*X158950Y234000D01*
X130000Y226250D02*X160750D01*
X0Y250500D02*X3000D01*
X1500D02*Y244500D01*
X4800Y250500D02*Y244500D01*
Y246750D02*X5550Y247500D01*
X7050D01*
X7800Y246750D01*
Y244500D01*
X10350D02*X12600D01*
X9600Y245250D02*X10350Y244500D01*
X9600Y246750D02*Y245250D01*
Y246750D02*X10350Y247500D01*
X11850D01*
X12600Y246750D01*
X9600Y246000D02*X12600D01*
Y246750D02*Y246000D01*
X15150Y246750D02*Y244500D01*
Y246750D02*X15900Y247500D01*
X17400D01*
X14400D02*X15150Y246750D01*
X19950Y244500D02*X22200D01*
X19200Y245250D02*X19950Y244500D01*
X19200Y246750D02*Y245250D01*
Y246750D02*X19950Y247500D01*
X21450D01*
X22200Y246750D01*
X19200Y246000D02*X22200D01*
Y246750D02*Y246000D01*
X28950Y247500D02*X29700Y246750D01*
X27450Y247500D02*X28950D01*
X26700Y246750D02*X27450Y247500D01*
X26700Y246750D02*Y245250D01*
X27450Y244500D01*
X29700Y247500D02*Y245250D01*
X30450Y244500D01*
X27450D02*X28950D01*
X29700Y245250D01*
X33000Y246750D02*Y244500D01*
Y246750D02*X33750Y247500D01*
X35250D01*
X32250D02*X33000Y246750D01*
X37800Y244500D02*X40050D01*
X37050Y245250D02*X37800Y244500D01*
X37050Y246750D02*Y245250D01*
Y246750D02*X37800Y247500D01*
X39300D01*
X40050Y246750D01*
X37050Y246000D02*X40050D01*
Y246750D02*Y246000D01*
X44550Y246750D02*X47550Y250500D01*
X44550Y246750D02*X48300D01*
X47550Y250500D02*Y244500D01*
X55800Y250500D02*Y244500D01*
X55050D02*X55800Y245250D01*
X53550Y244500D02*X55050D01*
X52800Y245250D02*X53550Y244500D01*
X52800Y246750D02*Y245250D01*
Y246750D02*X53550Y247500D01*
X55050D01*
X55800Y246750D01*
G54D83*X57600Y249000D02*Y248850D01*
G54D82*Y246750D02*Y244500D01*
X59850Y249750D02*Y244500D01*
Y249750D02*X60600Y250500D01*
X61350D01*
X59100Y247500D02*X60600D01*
X63600Y249750D02*Y244500D01*
Y249750D02*X64350Y250500D01*
X65100D01*
X62850Y247500D02*X64350D01*
X67350Y244500D02*X69600D01*
X66600Y245250D02*X67350Y244500D01*
X66600Y246750D02*Y245250D01*
Y246750D02*X67350Y247500D01*
X68850D01*
X69600Y246750D01*
X66600Y246000D02*X69600D01*
Y246750D02*Y246000D01*
X72150Y246750D02*Y244500D01*
Y246750D02*X72900Y247500D01*
X74400D01*
X71400D02*X72150Y246750D01*
X76950Y244500D02*X79200D01*
X76200Y245250D02*X76950Y244500D01*
X76200Y246750D02*Y245250D01*
Y246750D02*X76950Y247500D01*
X78450D01*
X79200Y246750D01*
X76200Y246000D02*X79200D01*
Y246750D02*Y246000D01*
X81750Y246750D02*Y244500D01*
Y246750D02*X82500Y247500D01*
X83250D01*
X84000Y246750D01*
Y244500D01*
X81000Y247500D02*X81750Y246750D01*
X86550Y250500D02*Y245250D01*
X87300Y244500D01*
X85800Y248250D02*X87300D01*
X94500Y250500D02*Y244500D01*
X93750D02*X94500Y245250D01*
X92250Y244500D02*X93750D01*
X91500Y245250D02*X92250Y244500D01*
X91500Y246750D02*Y245250D01*
Y246750D02*X92250Y247500D01*
X93750D01*
X94500Y246750D01*
X97050D02*Y244500D01*
Y246750D02*X97800Y247500D01*
X99300D01*
X96300D02*X97050Y246750D01*
G54D83*X101100Y249000D02*Y248850D01*
G54D82*Y246750D02*Y244500D01*
X102600Y250500D02*Y245250D01*
X103350Y244500D01*
X104850Y250500D02*Y245250D01*
X105600Y244500D01*
X110550D02*X112800D01*
X113550Y245250D01*
X112800Y246000D02*X113550Y245250D01*
X110550Y246000D02*X112800D01*
X109800Y246750D02*X110550Y246000D01*
X109800Y246750D02*X110550Y247500D01*
X112800D01*
X113550Y246750D01*
X109800Y245250D02*X110550Y244500D01*
G54D83*X115350Y249000D02*Y248850D01*
G54D82*Y246750D02*Y244500D01*
X116850Y247500D02*X119850D01*
X116850Y244500D02*X119850Y247500D01*
X116850Y244500D02*X119850D01*
X122400D02*X124650D01*
X121650Y245250D02*X122400Y244500D01*
X121650Y246750D02*Y245250D01*
Y246750D02*X122400Y247500D01*
X123900D01*
X124650Y246750D01*
X121650Y246000D02*X124650D01*
Y246750D02*Y246000D01*
X127200Y244500D02*X129450D01*
X130200Y245250D01*
X129450Y246000D02*X130200Y245250D01*
X127200Y246000D02*X129450D01*
X126450Y246750D02*X127200Y246000D01*
X126450Y246750D02*X127200Y247500D01*
X129450D01*
X130200Y246750D01*
X126450Y245250D02*X127200Y244500D01*
X134700Y247500D02*Y245250D01*
X135450Y244500D01*
X136950D01*
X137700Y245250D01*
Y247500D02*Y245250D01*
X140250Y244500D02*X142500D01*
X143250Y245250D01*
X142500Y246000D02*X143250Y245250D01*
X140250Y246000D02*X142500D01*
X139500Y246750D02*X140250Y246000D01*
X139500Y246750D02*X140250Y247500D01*
X142500D01*
X143250Y246750D01*
X139500Y245250D02*X140250Y244500D01*
X145800D02*X148050D01*
X145050Y245250D02*X145800Y244500D01*
X145050Y246750D02*Y245250D01*
Y246750D02*X145800Y247500D01*
X147300D01*
X148050Y246750D01*
X145050Y246000D02*X148050D01*
Y246750D02*Y246000D01*
X152850Y250500D02*Y244500D01*
X152100D02*X152850Y245250D01*
X150600Y244500D02*X152100D01*
X149850Y245250D02*X150600Y244500D01*
X149850Y246750D02*Y245250D01*
Y246750D02*X150600Y247500D01*
X152100D01*
X152850Y246750D01*
G54D83*X157350Y249000D02*Y248850D01*
G54D82*Y246750D02*Y244500D01*
X159600Y246750D02*Y244500D01*
Y246750D02*X160350Y247500D01*
X161100D01*
X161850Y246750D01*
Y244500D01*
X158850Y247500D02*X159600Y246750D01*
X167100Y250500D02*Y245250D01*
X167850Y244500D01*
X166350Y248250D02*X167850D01*
X169350Y250500D02*Y244500D01*
Y246750D02*X170100Y247500D01*
X171600D01*
X172350Y246750D01*
Y244500D01*
G54D83*X174150Y249000D02*Y248850D01*
G54D82*Y246750D02*Y244500D01*
X176400D02*X178650D01*
X179400Y245250D01*
X178650Y246000D02*X179400Y245250D01*
X176400Y246000D02*X178650D01*
X175650Y246750D02*X176400Y246000D01*
X175650Y246750D02*X176400Y247500D01*
X178650D01*
X179400Y246750D01*
X175650Y245250D02*X176400Y244500D01*
X183900Y250500D02*Y245250D01*
X184650Y244500D01*
X188400Y247500D02*X189150Y246750D01*
X186900Y247500D02*X188400D01*
X186150Y246750D02*X186900Y247500D01*
X186150Y246750D02*Y245250D01*
X186900Y244500D01*
X189150Y247500D02*Y245250D01*
X189900Y244500D01*
X186900D02*X188400D01*
X189150Y245250D01*
X191700Y247500D02*Y245250D01*
X192450Y244500D01*
X194700Y247500D02*Y243000D01*
X193950Y242250D02*X194700Y243000D01*
X192450Y242250D02*X193950D01*
X191700Y243000D02*X192450Y242250D01*
Y244500D02*X193950D01*
X194700Y245250D01*
X196500Y246750D02*Y245250D01*
Y246750D02*X197250Y247500D01*
X198750D01*
X199500Y246750D01*
Y245250D01*
X198750Y244500D02*X199500Y245250D01*
X197250Y244500D02*X198750D01*
X196500Y245250D02*X197250Y244500D01*
X201300Y247500D02*Y245250D01*
X202050Y244500D01*
X203550D01*
X204300Y245250D01*
Y247500D02*Y245250D01*
X206850Y250500D02*Y245250D01*
X207600Y244500D01*
X206100Y248250D02*X207600D01*
X209100Y243000D02*X210600Y244500D01*
X215100Y250500D02*X218100D01*
X215100D02*Y247500D01*
X215850Y248250D01*
X217350D01*
X218100Y247500D01*
Y245250D01*
X217350Y244500D02*X218100Y245250D01*
X215850Y244500D02*X217350D01*
X215100Y245250D02*X215850Y244500D01*
X220650D02*X222900Y247500D01*
Y249750D02*Y247500D01*
X222150Y250500D02*X222900Y249750D01*
X220650Y250500D02*X222150D01*
X219900Y249750D02*X220650Y250500D01*
X219900Y249750D02*Y248250D01*
X220650Y247500D01*
X222900D01*
X227400Y250500D02*Y244500D01*
Y246750D02*X228150Y247500D01*
X229650D01*
X230400Y246750D01*
Y244500D01*
X232200Y246750D02*Y245250D01*
Y246750D02*X232950Y247500D01*
X234450D01*
X235200Y246750D01*
Y245250D01*
X234450Y244500D02*X235200Y245250D01*
X232950Y244500D02*X234450D01*
X232200Y245250D02*X232950Y244500D01*
X237000Y250500D02*Y245250D01*
X237750Y244500D01*
X240000D02*X242250D01*
X239250Y245250D02*X240000Y244500D01*
X239250Y246750D02*Y245250D01*
Y246750D02*X240000Y247500D01*
X241500D01*
X242250Y246750D01*
X239250Y246000D02*X242250D01*
Y246750D02*Y246000D01*
X244800Y244500D02*X247050D01*
X247800Y245250D01*
X247050Y246000D02*X247800Y245250D01*
X244800Y246000D02*X247050D01*
X244050Y246750D02*X244800Y246000D01*
X244050Y246750D02*X244800Y247500D01*
X247050D01*
X247800Y246750D01*
X244050Y245250D02*X244800Y244500D01*
X253050Y250500D02*Y245250D01*
X253800Y244500D01*
X252300Y248250D02*X253800D01*
X255300Y246750D02*Y245250D01*
Y246750D02*X256050Y247500D01*
X257550D01*
X258300Y246750D01*
Y245250D01*
X257550Y244500D02*X258300Y245250D01*
X256050Y244500D02*X257550D01*
X255300Y245250D02*X256050Y244500D01*
X260850Y250500D02*Y245250D01*
X261600Y244500D01*
X260100Y248250D02*X261600D01*
X265350Y247500D02*X266100Y246750D01*
X263850Y247500D02*X265350D01*
X263100Y246750D02*X263850Y247500D01*
X263100Y246750D02*Y245250D01*
X263850Y244500D01*
X266100Y247500D02*Y245250D01*
X266850Y244500D01*
X263850D02*X265350D01*
X266100Y245250D01*
X268650Y250500D02*Y245250D01*
X269400Y244500D01*
G54D84*X1000Y161000D02*Y11000D01*
X73500D02*Y161000D01*
X1000D02*X73500D01*
X1000Y11000D02*X73500D01*
G54D82*X0Y-9500D02*X3000D01*
X3750Y-8750D01*
Y-6950D02*Y-8750D01*
X3000Y-6200D02*X3750Y-6950D01*
X750Y-6200D02*X3000D01*
X750Y-3500D02*Y-9500D01*
X0Y-3500D02*X3000D01*
X3750Y-4250D01*
Y-5450D01*
X3000Y-6200D02*X3750Y-5450D01*
X5550Y-7250D02*Y-8750D01*
Y-7250D02*X6300Y-6500D01*
X7800D01*
X8550Y-7250D01*
Y-8750D01*
X7800Y-9500D02*X8550Y-8750D01*
X6300Y-9500D02*X7800D01*
X5550Y-8750D02*X6300Y-9500D01*
X12600Y-6500D02*X13350Y-7250D01*
X11100Y-6500D02*X12600D01*
X10350Y-7250D02*X11100Y-6500D01*
X10350Y-7250D02*Y-8750D01*
X11100Y-9500D01*
X13350Y-6500D02*Y-8750D01*
X14100Y-9500D01*
X11100D02*X12600D01*
X13350Y-8750D01*
X16650Y-7250D02*Y-9500D01*
Y-7250D02*X17400Y-6500D01*
X18900D01*
X15900D02*X16650Y-7250D01*
X23700Y-3500D02*Y-9500D01*
X22950D02*X23700Y-8750D01*
X21450Y-9500D02*X22950D01*
X20700Y-8750D02*X21450Y-9500D01*
X20700Y-7250D02*Y-8750D01*
Y-7250D02*X21450Y-6500D01*
X22950D01*
X23700Y-7250D01*
X28200D02*Y-8750D01*
Y-7250D02*X28950Y-6500D01*
X30450D01*
X31200Y-7250D01*
Y-8750D01*
X30450Y-9500D02*X31200Y-8750D01*
X28950Y-9500D02*X30450D01*
X28200Y-8750D02*X28950Y-9500D01*
X33000Y-6500D02*Y-8750D01*
X33750Y-9500D01*
X35250D01*
X36000Y-8750D01*
Y-6500D02*Y-8750D01*
X38550Y-3500D02*Y-8750D01*
X39300Y-9500D01*
X37800Y-5750D02*X39300D01*
X40800Y-3500D02*Y-8750D01*
X41550Y-9500D01*
G54D83*X43050Y-5000D02*Y-5150D01*
G54D82*Y-7250D02*Y-9500D01*
X45300Y-7250D02*Y-9500D01*
Y-7250D02*X46050Y-6500D01*
X46800D01*
X47550Y-7250D01*
Y-9500D01*
X44550Y-6500D02*X45300Y-7250D01*
X50100Y-9500D02*X52350D01*
X49350Y-8750D02*X50100Y-9500D01*
X49350Y-7250D02*Y-8750D01*
Y-7250D02*X50100Y-6500D01*
X51600D01*
X52350Y-7250D01*
X49350Y-8000D02*X52350D01*
Y-7250D02*Y-8000D01*
G54D83*X56850Y-5000D02*Y-5150D01*
G54D82*Y-7250D02*Y-9500D01*
X59100D02*X61350D01*
X62100Y-8750D01*
X61350Y-8000D02*X62100Y-8750D01*
X59100Y-8000D02*X61350D01*
X58350Y-7250D02*X59100Y-8000D01*
X58350Y-7250D02*X59100Y-6500D01*
X61350D01*
X62100Y-7250D01*
X58350Y-8750D02*X59100Y-9500D01*
X67350Y-3500D02*Y-8750D01*
X68100Y-9500D01*
X66600Y-5750D02*X68100D01*
X69600Y-3500D02*Y-9500D01*
Y-7250D02*X70350Y-6500D01*
X71850D01*
X72600Y-7250D01*
Y-9500D01*
X75150D02*X77400D01*
X74400Y-8750D02*X75150Y-9500D01*
X74400Y-7250D02*Y-8750D01*
Y-7250D02*X75150Y-6500D01*
X76650D01*
X77400Y-7250D01*
X74400Y-8000D02*X77400D01*
Y-7250D02*Y-8000D01*
X82650Y-6500D02*X84900D01*
X81900Y-7250D02*X82650Y-6500D01*
X81900Y-7250D02*Y-8750D01*
X82650Y-9500D01*
X84900D01*
X87450D02*X89700D01*
X86700Y-8750D02*X87450Y-9500D01*
X86700Y-7250D02*Y-8750D01*
Y-7250D02*X87450Y-6500D01*
X88950D01*
X89700Y-7250D01*
X86700Y-8000D02*X89700D01*
Y-7250D02*Y-8000D01*
X92250Y-7250D02*Y-9500D01*
Y-7250D02*X93000Y-6500D01*
X93750D01*
X94500Y-7250D01*
Y-9500D01*
X91500Y-6500D02*X92250Y-7250D01*
X97050Y-3500D02*Y-8750D01*
X97800Y-9500D01*
X96300Y-5750D02*X97800D01*
X100050Y-9500D02*X102300D01*
X99300Y-8750D02*X100050Y-9500D01*
X99300Y-7250D02*Y-8750D01*
Y-7250D02*X100050Y-6500D01*
X101550D01*
X102300Y-7250D01*
X99300Y-8000D02*X102300D01*
Y-7250D02*Y-8000D01*
X104850Y-7250D02*Y-9500D01*
Y-7250D02*X105600Y-6500D01*
X107100D01*
X104100D02*X104850Y-7250D01*
X108900Y-3500D02*Y-8750D01*
X109650Y-9500D01*
G54D83*X111150Y-5000D02*Y-5150D01*
G54D82*Y-7250D02*Y-9500D01*
X113400Y-7250D02*Y-9500D01*
Y-7250D02*X114150Y-6500D01*
X114900D01*
X115650Y-7250D01*
Y-9500D01*
X112650Y-6500D02*X113400Y-7250D01*
X118200Y-9500D02*X120450D01*
X117450Y-8750D02*X118200Y-9500D01*
X117450Y-7250D02*Y-8750D01*
Y-7250D02*X118200Y-6500D01*
X119700D01*
X120450Y-7250D01*
X117450Y-8000D02*X120450D01*
Y-7250D02*Y-8000D01*
X124950Y-7250D02*Y-8750D01*
Y-7250D02*X125700Y-6500D01*
X127200D01*
X127950Y-7250D01*
Y-8750D01*
X127200Y-9500D02*X127950Y-8750D01*
X125700Y-9500D02*X127200D01*
X124950Y-8750D02*X125700Y-9500D01*
X130500Y-4250D02*Y-9500D01*
Y-4250D02*X131250Y-3500D01*
X132000D01*
X129750Y-6500D02*X131250D01*
X136950Y-3500D02*Y-8750D01*
X137700Y-9500D01*
X136200Y-5750D02*X137700D01*
X139200Y-3500D02*Y-9500D01*
Y-7250D02*X139950Y-6500D01*
X141450D01*
X142200Y-7250D01*
Y-9500D01*
G54D83*X144000Y-5000D02*Y-5150D01*
G54D82*Y-7250D02*Y-9500D01*
X146250D02*X148500D01*
X149250Y-8750D01*
X148500Y-8000D02*X149250Y-8750D01*
X146250Y-8000D02*X148500D01*
X145500Y-7250D02*X146250Y-8000D01*
X145500Y-7250D02*X146250Y-6500D01*
X148500D01*
X149250Y-7250D01*
X145500Y-8750D02*X146250Y-9500D01*
X154500Y-7250D02*Y-11750D01*
X153750Y-6500D02*X154500Y-7250D01*
X155250Y-6500D01*
X156750D01*
X157500Y-7250D01*
Y-8750D01*
X156750Y-9500D02*X157500Y-8750D01*
X155250Y-9500D02*X156750D01*
X154500Y-8750D02*X155250Y-9500D01*
X161550Y-6500D02*X162300Y-7250D01*
X160050Y-6500D02*X161550D01*
X159300Y-7250D02*X160050Y-6500D01*
X159300Y-7250D02*Y-8750D01*
X160050Y-9500D01*
X162300Y-6500D02*Y-8750D01*
X163050Y-9500D01*
X160050D02*X161550D01*
X162300Y-8750D01*
X165600Y-3500D02*Y-8750D01*
X166350Y-9500D01*
X164850Y-5750D02*X166350D01*
X167850Y-3500D02*Y-9500D01*
Y-7250D02*X168600Y-6500D01*
X170100D01*
X170850Y-7250D01*
Y-9500D01*
X200750Y190500D02*Y184500D01*
X202700Y190500D02*X203750Y189450D01*
Y185550D01*
X202700Y184500D02*X203750Y185550D01*
X200000Y184500D02*X202700D01*
X200000Y190500D02*X202700D01*
X207800Y187500D02*X208550Y186750D01*
X206300Y187500D02*X207800D01*
X205550Y186750D02*X206300Y187500D01*
X205550Y186750D02*Y185250D01*
X206300Y184500D01*
X208550Y187500D02*Y185250D01*
X209300Y184500D01*
X206300D02*X207800D01*
X208550Y185250D01*
X211850Y190500D02*Y185250D01*
X212600Y184500D01*
X211100Y188250D02*X212600D01*
X214850Y184500D02*X217100D01*
X214100Y185250D02*X214850Y184500D01*
X214100Y186750D02*Y185250D01*
Y186750D02*X214850Y187500D01*
X216350D01*
X217100Y186750D01*
X214100Y186000D02*X217100D01*
Y186750D02*Y186000D01*
X218900Y188250D02*X219650D01*
X218900Y186750D02*X219650D01*
X224150Y190500D02*Y187500D01*
X224900Y184500D01*
X226400Y187500D01*
X227900Y184500D01*
X228650Y187500D01*
Y190500D02*Y187500D01*
X231200Y184500D02*X233450D01*
X230450Y185250D02*X231200Y184500D01*
X230450Y186750D02*Y185250D01*
Y186750D02*X231200Y187500D01*
X232700D01*
X233450Y186750D01*
X230450Y186000D02*X233450D01*
Y186750D02*Y186000D01*
X238250Y190500D02*Y184500D01*
X237500D02*X238250Y185250D01*
X236000Y184500D02*X237500D01*
X235250Y185250D02*X236000Y184500D01*
X235250Y186750D02*Y185250D01*
Y186750D02*X236000Y187500D01*
X237500D01*
X238250Y186750D01*
X242750Y190500D02*Y184500D01*
Y190500D02*X246500Y184500D01*
Y190500D02*Y184500D01*
X248300Y186750D02*Y185250D01*
Y186750D02*X249050Y187500D01*
X250550D01*
X251300Y186750D01*
Y185250D01*
X250550Y184500D02*X251300Y185250D01*
X249050Y184500D02*X250550D01*
X248300Y185250D02*X249050Y184500D01*
X253100Y187500D02*X254600Y184500D01*
X256100Y187500D02*X254600Y184500D01*
X260600Y189750D02*X261350Y190500D01*
X263600D01*
X264350Y189750D01*
Y188250D01*
X260600Y184500D02*X264350Y188250D01*
X260600Y184500D02*X264350D01*
X266150Y185250D02*X266900Y184500D01*
X266150Y189750D02*Y185250D01*
Y189750D02*X266900Y190500D01*
X268400D01*
X269150Y189750D01*
Y185250D01*
X268400Y184500D02*X269150Y185250D01*
X266900Y184500D02*X268400D01*
X266150Y186000D02*X269150Y189000D01*
X273650Y189750D02*X274400Y190500D01*
X276650D01*
X277400Y189750D01*
Y188250D01*
X273650Y184500D02*X277400Y188250D01*
X273650Y184500D02*X277400D01*
X279200Y189300D02*X280400Y190500D01*
Y184500D01*
X279200D02*X281450D01*
X283250Y188250D02*X284000D01*
X283250Y186750D02*X284000D01*
X285800Y189300D02*X287000Y190500D01*
Y184500D01*
X285800D02*X288050D01*
X289850Y186750D02*X292850Y190500D01*
X289850Y186750D02*X293600D01*
X292850Y190500D02*Y184500D01*
X295400Y188250D02*X296150D01*
X295400Y186750D02*X296150D01*
X297950D02*X300950Y190500D01*
X297950Y186750D02*X301700D01*
X300950Y190500D02*Y184500D01*
X303500Y189750D02*X304250Y190500D01*
X305750D01*
X306500Y189750D01*
X305750Y184500D02*X306500Y185250D01*
X304250Y184500D02*X305750D01*
X303500Y185250D02*X304250Y184500D01*
Y187800D02*X305750D01*
X306500Y189750D02*Y188550D01*
Y187050D02*Y185250D01*
Y187050D02*X305750Y187800D01*
X306500Y188550D02*X305750Y187800D01*
X311000Y189750D02*X311750Y190500D01*
X314000D01*
X314750Y189750D01*
Y188250D01*
X311000Y184500D02*X314750Y188250D01*
X311000Y184500D02*X314750D01*
X316550Y185250D02*X317300Y184500D01*
X316550Y189750D02*Y185250D01*
Y189750D02*X317300Y190500D01*
X318800D01*
X319550Y189750D01*
Y185250D01*
X318800Y184500D02*X319550Y185250D01*
X317300Y184500D02*X318800D01*
X316550Y186000D02*X319550Y189000D01*
X321350Y189300D02*X322550Y190500D01*
Y184500D01*
X321350D02*X323600D01*
X325400Y189750D02*X326150Y190500D01*
X327650D01*
X328400Y189750D01*
X327650Y184500D02*X328400Y185250D01*
X326150Y184500D02*X327650D01*
X325400Y185250D02*X326150Y184500D01*
Y187800D02*X327650D01*
X328400Y189750D02*Y188550D01*
Y187050D02*Y185250D01*
Y187050D02*X327650Y187800D01*
X328400Y188550D02*X327650Y187800D01*
X332900Y190500D02*Y185250D01*
X333650Y184500D01*
X335150D01*
X335900Y185250D01*
Y190500D02*Y185250D01*
X337700Y190500D02*X340700D01*
X339200D02*Y184500D01*
X343550D02*X345500D01*
X342500Y185550D02*X343550Y184500D01*
X342500Y189450D02*Y185550D01*
Y189450D02*X343550Y190500D01*
X345500D01*
X200000Y204000D02*Y199500D01*
Y204000D02*X201050Y205500D01*
X202700D01*
X203750Y204000D01*
Y199500D01*
X200000Y202500D02*X203750D01*
X205550D02*Y200250D01*
X206300Y199500D01*
X207800D01*
X208550Y200250D01*
Y202500D02*Y200250D01*
X211100Y205500D02*Y200250D01*
X211850Y199500D01*
X210350Y203250D02*X211850D01*
X213350Y205500D02*Y199500D01*
Y201750D02*X214100Y202500D01*
X215600D01*
X216350Y201750D01*
Y199500D01*
X218150Y201750D02*Y200250D01*
Y201750D02*X218900Y202500D01*
X220400D01*
X221150Y201750D01*
Y200250D01*
X220400Y199500D02*X221150Y200250D01*
X218900Y199500D02*X220400D01*
X218150Y200250D02*X218900Y199500D01*
X223700Y201750D02*Y199500D01*
Y201750D02*X224450Y202500D01*
X225950D01*
X222950D02*X223700Y201750D01*
X227750Y203250D02*X228500D01*
X227750Y201750D02*X228500D01*
X200000Y220500D02*X203000D01*
X201500D02*Y214500D01*
G54D83*X204800Y219000D02*Y218850D01*
G54D82*Y216750D02*Y214500D01*
X207050Y220500D02*Y215250D01*
X207800Y214500D01*
X206300Y218250D02*X207800D01*
X209300Y220500D02*Y215250D01*
X210050Y214500D01*
X212300D02*X214550D01*
X211550Y215250D02*X212300Y214500D01*
X211550Y216750D02*Y215250D01*
Y216750D02*X212300Y217500D01*
X213800D01*
X214550Y216750D01*
X211550Y216000D02*X214550D01*
Y216750D02*Y216000D01*
X216350Y218250D02*X217100D01*
X216350Y216750D02*X217100D01*
X221600Y215250D02*X222350Y214500D01*
X221600Y219750D02*X222350Y220500D01*
X221600Y219750D02*Y215250D01*
X224150Y217500D02*Y215250D01*
X224900Y214500D01*
X226400D01*
X227150Y215250D01*
Y217500D02*Y215250D01*
X229700Y216750D02*Y214500D01*
Y216750D02*X230450Y217500D01*
X231200D01*
X231950Y216750D01*
Y214500D01*
X228950Y217500D02*X229700Y216750D01*
X233750Y220500D02*Y214500D01*
Y216750D02*X236000Y214500D01*
X233750Y216750D02*X235250Y218250D01*
X238550Y216750D02*Y214500D01*
Y216750D02*X239300Y217500D01*
X240050D01*
X240800Y216750D01*
Y214500D01*
X237800Y217500D02*X238550Y216750D01*
X242600D02*Y215250D01*
Y216750D02*X243350Y217500D01*
X244850D01*
X245600Y216750D01*
Y215250D01*
X244850Y214500D02*X245600Y215250D01*
X243350Y214500D02*X244850D01*
X242600Y215250D02*X243350Y214500D01*
X247400Y217500D02*Y215250D01*
X248150Y214500D01*
X248900D01*
X249650Y215250D01*
Y217500D02*Y215250D01*
X250400Y214500D01*
X251150D01*
X251900Y215250D01*
Y217500D02*Y215250D01*
X254450Y216750D02*Y214500D01*
Y216750D02*X255200Y217500D01*
X255950D01*
X256700Y216750D01*
Y214500D01*
X253700Y217500D02*X254450Y216750D01*
X258500Y220500D02*X259250Y219750D01*
Y215250D01*
X258500Y214500D02*X259250Y215250D01*
X263750Y217500D02*X266750D01*
X271250Y220500D02*Y214500D01*
Y220500D02*X274250D01*
X271250Y217800D02*X273500D01*
X278300Y217500D02*X279050Y216750D01*
X276800Y217500D02*X278300D01*
X276050Y216750D02*X276800Y217500D01*
X276050Y216750D02*Y215250D01*
X276800Y214500D01*
X279050Y217500D02*Y215250D01*
X279800Y214500D01*
X276800D02*X278300D01*
X279050Y215250D01*
X281600Y220500D02*Y214500D01*
Y215250D02*X282350Y214500D01*
X283850D01*
X284600Y215250D01*
Y216750D02*Y215250D01*
X283850Y217500D02*X284600Y216750D01*
X282350Y217500D02*X283850D01*
X281600Y216750D02*X282350Y217500D01*
X287150Y216750D02*Y214500D01*
Y216750D02*X287900Y217500D01*
X289400D01*
X286400D02*X287150Y216750D01*
G54D83*X291200Y219000D02*Y218850D01*
G54D82*Y216750D02*Y214500D01*
X293450Y217500D02*X295700D01*
X292700Y216750D02*X293450Y217500D01*
X292700Y216750D02*Y215250D01*
X293450Y214500D01*
X295700D01*
X299750Y217500D02*X300500Y216750D01*
X298250Y217500D02*X299750D01*
X297500Y216750D02*X298250Y217500D01*
X297500Y216750D02*Y215250D01*
X298250Y214500D01*
X300500Y217500D02*Y215250D01*
X301250Y214500D01*
X298250D02*X299750D01*
X300500Y215250D01*
X303800Y220500D02*Y215250D01*
X304550Y214500D01*
X303050Y218250D02*X304550D01*
G54D83*X306050Y219000D02*Y218850D01*
G54D82*Y216750D02*Y214500D01*
X307550Y216750D02*Y215250D01*
Y216750D02*X308300Y217500D01*
X309800D01*
X310550Y216750D01*
Y215250D01*
X309800Y214500D02*X310550Y215250D01*
X308300Y214500D02*X309800D01*
X307550Y215250D02*X308300Y214500D01*
X313100Y216750D02*Y214500D01*
Y216750D02*X313850Y217500D01*
X314600D01*
X315350Y216750D01*
Y214500D01*
X312350Y217500D02*X313100Y216750D01*
X320600Y220500D02*Y214500D01*
X322550Y220500D02*X323600Y219450D01*
Y215550D01*
X322550Y214500D02*X323600Y215550D01*
X319850Y214500D02*X322550D01*
X319850Y220500D02*X322550D01*
X326150Y216750D02*Y214500D01*
Y216750D02*X326900Y217500D01*
X328400D01*
X325400D02*X326150Y216750D01*
X332450Y217500D02*X333200Y216750D01*
X330950Y217500D02*X332450D01*
X330200Y216750D02*X330950Y217500D01*
X330200Y216750D02*Y215250D01*
X330950Y214500D01*
X333200Y217500D02*Y215250D01*
X333950Y214500D01*
X330950D02*X332450D01*
X333200Y215250D01*
X335750Y217500D02*Y215250D01*
X336500Y214500D01*
X337250D01*
X338000Y215250D01*
Y217500D02*Y215250D01*
X338750Y214500D01*
X339500D01*
X340250Y215250D01*
Y217500D02*Y215250D01*
G54D83*X342050Y219000D02*Y218850D01*
G54D82*Y216750D02*Y214500D01*
X344300Y216750D02*Y214500D01*
Y216750D02*X345050Y217500D01*
X345800D01*
X346550Y216750D01*
Y214500D01*
X343550Y217500D02*X344300Y216750D01*
X350600Y217500D02*X351350Y216750D01*
X349100Y217500D02*X350600D01*
X348350Y216750D02*X349100Y217500D01*
X348350Y216750D02*Y215250D01*
X349100Y214500D01*
X350600D01*
X351350Y215250D01*
X348350Y213000D02*X349100Y212250D01*
X350600D01*
X351350Y213000D01*
Y217500D02*Y213000D01*
M02*
