G04 start of page 3 for group 5 idx 5 *
G04 Title: (unknown), bottom *
G04 Creator: pcb 20110918 *
G04 CreationDate: Fri Nov 15 22:26:29 2013 UTC *
G04 For: fosse *
G04 Format: Gerber/RS-274X *
G04 PCB-Dimensions: 72000 152000 *
G04 PCB-Coordinate-Origin: lower left *
%MOIN*%
%FSLAX25Y25*%
%LNBOTTOM*%
%ADD22C,0.0354*%
%ADD21C,0.1160*%
%ADD20R,0.0197X0.0197*%
%ADD19R,0.0197X0.0197*%
%ADD18R,0.0197X0.0197*%
%ADD17C,0.0394*%
%ADD16C,0.2700*%
G54D16*X36000Y58000D03*
G54D17*X62575Y93205D03*
X9425D03*
G54D18*X13953Y91039D02*Y87417D01*
G54D19*X13992Y114150D02*Y110527D01*
G54D18*X17102Y91039D02*Y87417D01*
X17142Y114149D02*Y110527D01*
G54D20*X20291Y114150D02*Y110526D01*
G54D18*X23441Y114149D02*Y110527D01*
X26590Y114149D02*Y110527D01*
G54D20*X29740Y114150D02*Y110526D01*
G54D19*X45448Y91040D02*Y87417D01*
X48598Y91040D02*Y87417D01*
G54D18*X51748Y91039D02*Y87417D01*
G54D19*X54897Y91040D02*Y87417D01*
G54D20*X36000Y91040D02*Y87416D01*
G54D18*X39150Y91039D02*Y87417D01*
X42299Y91039D02*Y87417D01*
G54D19*X58047Y91040D02*Y87417D01*
X20251Y91040D02*Y87417D01*
X23401Y91040D02*Y87417D01*
G54D18*X26551Y91039D02*Y87417D01*
G54D19*X29700Y91040D02*Y87417D01*
X32850Y91040D02*Y87417D01*
X36039Y114150D02*Y110527D01*
X39189Y114150D02*Y110527D01*
G54D18*X42339Y114149D02*Y110527D01*
G54D20*X45488Y114150D02*Y110526D01*
G54D18*X48638Y114149D02*Y110527D01*
X51787Y114149D02*Y110527D01*
G54D20*X54937Y114150D02*Y110526D01*
G54D18*X58087Y114149D02*Y110527D01*
X32890Y114149D02*Y110527D01*
G54D21*G54D22*M02*
