G04 start of page 2 for group 0 idx 0 *
G04 Title: (unknown), top *
G04 Creator: pcb 20110918 *
G04 CreationDate: Tue Nov 19 21:14:11 2013 UTC *
G04 For: fosse *
G04 Format: Gerber/RS-274X *
G04 PCB-Dimensions: 72000 152000 *
G04 PCB-Coordinate-Origin: lower left *
%MOIN*%
%FSLAX25Y25*%
%LNTOP*%
%ADD18C,0.0354*%
%ADD17C,0.1160*%
%ADD16C,0.0360*%
%ADD15R,0.0400X0.0400*%
%ADD14C,0.0494*%
%ADD13C,0.2700*%
%ADD12C,0.0200*%
%ADD11C,0.0001*%
G54D11*G36*
X3000Y149000D02*X69000D01*
Y139500D01*
X3000D01*
Y149000D01*
G37*
G54D12*X4700Y106700D02*Y91400D01*
X7700Y88400D01*
X9400D02*X14700Y83100D01*
X19000Y65500D02*Y83300D01*
X9700Y111700D02*X4700Y106700D01*
X7700Y88400D02*X9400D01*
X36600Y95800D02*X24200Y83400D01*
X51100Y85200D02*X47600D01*
X40600Y92200D01*
X19000Y83300D02*X32400Y96700D01*
Y97500D01*
X42000Y107100D01*
X40600Y98700D02*Y92200D01*
X9700Y111700D02*X51200D01*
X42000Y107100D02*X51000D01*
X57800Y100300D01*
Y91500D01*
X61100Y88200D01*
X67100D01*
X51200Y111700D02*X59500Y103400D01*
X66700D01*
X66800Y103300D01*
X52800Y80000D02*Y72300D01*
X53900Y71200D01*
X55500D01*
X57100Y69600D01*
X52800Y73400D02*Y83500D01*
X51100Y85200D01*
X57100Y69600D02*Y68400D01*
Y69100D02*Y61000D01*
X58200Y59900D01*
X61800D01*
X63200Y58500D01*
Y56300D01*
X65000Y54500D01*
G54D13*X36000Y58000D03*
G54D14*X62575Y93205D03*
X9425D03*
G54D15*X7000Y78000D02*Y75000D01*
X11000Y67000D02*Y64000D01*
X7000Y56000D02*Y53000D01*
X11000Y45000D02*Y42000D01*
X15000Y78000D02*Y75000D01*
X19000Y67000D02*Y64000D01*
X15000Y56000D02*Y53000D01*
X19000Y45000D02*Y42000D01*
X23000Y78000D02*Y75000D01*
X53000Y67000D02*Y64000D01*
Y45000D02*Y42000D01*
X65000Y78000D02*Y75000D01*
X57000Y78000D02*Y75000D01*
X61000Y67000D02*Y64000D01*
X65000Y56000D02*Y53000D01*
X57000Y56000D02*Y53000D01*
X61000Y45000D02*Y42000D01*
X49000Y78000D02*Y75000D01*
X18000Y135000D02*Y132000D01*
X26000Y135000D02*Y132000D01*
X34000Y135000D02*Y132000D01*
X42000Y135000D02*Y132000D01*
X50000Y135000D02*Y132000D01*
X22000Y124000D02*Y121000D01*
X30000Y124000D02*Y121000D01*
X38000Y124000D02*Y121000D01*
X46000Y124000D02*Y121000D01*
X54000Y124000D02*Y121000D01*
G54D16*X30000Y122500D03*
X34000Y133500D03*
X26000D03*
X9600Y102700D03*
X14400Y102800D03*
X23400Y101600D03*
X18900Y102600D03*
X28800Y99600D03*
X28600Y104900D03*
X18000Y133500D03*
X22000Y122500D03*
X15500Y119200D03*
X11400Y127600D03*
X38000Y122500D03*
X46000D03*
X54000D03*
X50000Y133500D03*
X42000D03*
X66000Y111600D03*
X66800Y103300D03*
X67100Y88200D03*
Y97500D03*
X64600Y117200D03*
X62200Y106900D03*
X40600Y98700D03*
X36600Y95800D03*
X53100Y99600D03*
X50700Y95200D03*
X47500Y102900D03*
X65000Y76500D03*
X61000Y65500D03*
X53000D03*
X57000Y54500D03*
X65000D03*
X57000Y76500D03*
X53000Y43500D03*
X61000D03*
X62900Y36700D03*
X11000Y65500D03*
X19000D03*
X15000Y54500D03*
X7000D03*
X11000Y43500D03*
X19000D03*
X15000Y76500D03*
X14700Y83100D03*
X6700Y83900D03*
X24200Y83400D03*
X23000Y76500D03*
X42299Y74801D03*
G54D12*G54D17*G54D18*M02*
