G04 start of page 8 for group -4079 idx -4079 *
G04 Title: (unknown), topsilk *
G04 Creator: pcb 20110918 *
G04 CreationDate: Fri Nov 15 22:26:29 2013 UTC *
G04 For: fosse *
G04 Format: Gerber/RS-274X *
G04 PCB-Dimensions: 72000 152000 *
G04 PCB-Coordinate-Origin: lower left *
%MOIN*%
%FSLAX25Y25*%
%LNTOPSILK*%
%ADD33C,0.0100*%
G54D33*X18000Y77000D02*X18500Y76500D01*
X16500Y77000D02*X18000D01*
X16000Y76500D02*X16500Y77000D01*
X16000Y76500D02*Y75500D01*
X16500Y75000D01*
X18000D01*
X18500Y74500D01*
Y73500D01*
X18000Y73000D02*X18500Y73500D01*
X16500Y73000D02*X18000D01*
X16000Y73500D02*X16500Y73000D01*
X20400D02*X21700D01*
X19700Y73700D02*X20400Y73000D01*
X19700Y76300D02*Y73700D01*
Y76300D02*X20400Y77000D01*
X21700D01*
X22900D02*X24900D01*
X25400Y76500D01*
Y75500D01*
X24900Y75000D02*X25400Y75500D01*
X23400Y75000D02*X24900D01*
X23400Y77000D02*Y73000D01*
X24200Y75000D02*X25400Y73000D01*
X26600Y75200D02*X28100D01*
X26600Y73000D02*X28600D01*
X26600Y77000D02*Y73000D01*
Y77000D02*X28600D01*
X29800D02*Y75000D01*
X30300Y73000D01*
X31300Y75000D01*
X32300Y73000D01*
X32800Y75000D01*
Y77000D02*Y75000D01*
X34000Y74500D02*X36000Y77000D01*
X34000Y74500D02*X36500D01*
X36000Y77000D02*Y73000D01*
X37700Y75000D02*X39700D01*
X40900Y74500D02*X42900Y77000D01*
X40900Y74500D02*X43400D01*
X42900Y77000D02*Y73000D01*
X44600Y73500D02*X45100Y73000D01*
X44600Y76500D02*Y73500D01*
Y76500D02*X45100Y77000D01*
X46100D01*
X46600Y76500D01*
Y73500D01*
X46100Y73000D02*X46600Y73500D01*
X45100Y73000D02*X46100D01*
X44600Y74000D02*X46600Y76000D01*
X47800Y73000D02*X49800D01*
X51000Y76500D02*X51500Y77000D01*
X52500D01*
X53000Y76500D01*
X52500Y73000D02*X53000Y73500D01*
X51500Y73000D02*X52500D01*
X51000Y73500D02*X51500Y73000D01*
Y75200D02*X52500D01*
X53000Y76500D02*Y75700D01*
Y74700D02*Y73500D01*
Y74700D02*X52500Y75200D01*
X53000Y75700D02*X52500Y75200D01*
M02*
