G04 start of page 11 for group -4078 idx -4078 *
G04 Title: (unknown), bottomsilk *
G04 Creator: pcb 20110918 *
G04 CreationDate: Wed Nov 20 21:14:43 2013 UTC *
G04 For: fosse *
G04 Format: Gerber/RS-274X *
G04 PCB-Dimensions: 77000 162000 *
G04 PCB-Coordinate-Origin: lower left *
%MOIN*%
%FSLAX25Y25*%
%LNBOTTOMSILK*%
%ADD72C,0.0100*%
G54D72*X67332Y118402D02*X63002Y122732D01*
X10404D02*X63002D01*
X10404D02*X6073Y118402D01*
Y99268D01*
X67332D01*
X67333Y118402D01*
X8160Y101157D02*X65640D01*
X8160D02*X8159Y116670D01*
X12096Y120607D02*X61702D01*
X65639Y116670D02*X65640Y101157D01*
X65639Y116670D02*X61702Y120607D01*
X8159Y116670D02*X12096Y120607D01*
X47900Y90000D02*X49200D01*
X49900Y90700D02*X49200Y90000D01*
X49900Y90700D02*Y93300D01*
X49200Y94000D01*
X47900D02*X49200D01*
X46700Y90500D02*Y93500D01*
X46200Y94000D01*
X45200D02*X46200D01*
X45200D02*X44700Y93500D01*
Y90500D02*Y93500D01*
X45200Y90000D02*X44700Y90500D01*
X45200Y90000D02*X46200D01*
X46700Y90500D02*X46200Y90000D01*
X43500D02*Y94000D01*
X41000Y90000D01*
Y94000D01*
X39800Y90000D02*Y94000D01*
X37300Y90000D01*
Y94000D01*
X36100Y93200D02*X35300Y94000D01*
Y90000D02*Y94000D01*
X34600Y90000D02*X36100D01*
X33400Y90500D02*X32900Y90000D01*
X33400Y90500D02*Y93500D01*
X32900Y94000D01*
X31900D02*X32900D01*
X31900D02*X31400Y93500D01*
Y90500D02*Y93500D01*
X31900Y90000D02*X31400Y90500D01*
X31900Y90000D02*X32900D01*
X33400Y91000D02*X31400Y93000D01*
X30200Y90500D02*X29700Y90000D01*
X30200Y90500D02*Y93500D01*
X29700Y94000D01*
X28700D02*X29700D01*
X28700D02*X28200Y93500D01*
Y90500D02*Y93500D01*
X28700Y90000D02*X28200Y90500D01*
X28700Y90000D02*X29700D01*
X30200Y91000D02*X28200Y93000D01*
X27000Y90500D02*X26500Y90000D01*
X27000Y90500D02*Y93500D01*
X26500Y94000D01*
X25500D02*X26500D01*
X25500D02*X25000Y93500D01*
Y90500D02*Y93500D01*
X25500Y90000D02*X25000Y90500D01*
X25500Y90000D02*X26500D01*
X27000Y91000D02*X25000Y93000D01*
M02*
