G04 start of page 3 for group 1 idx 1 *
G04 Title: (unknown), ground *
G04 Creator: pcb 20110918 *
G04 CreationDate: Wed Nov 20 21:14:43 2013 UTC *
G04 For: fosse *
G04 Format: Gerber/RS-274X *
G04 PCB-Dimensions: 77000 162000 *
G04 PCB-Coordinate-Origin: lower left *
%MOIN*%
%FSLAX25Y25*%
%LNGROUP1*%
%ADD29C,0.0890*%
%ADD28C,0.0354*%
%ADD27C,0.1160*%
%ADD26C,0.0360*%
%ADD25C,0.2000*%
%ADD24C,0.0494*%
%ADD23C,0.2700*%
%ADD22C,0.0200*%
G54D22*X29700Y109600D02*X34100Y114000D01*
Y120000D01*
X39600Y125500D01*
X31500Y106100D02*X38700Y113300D01*
Y117500D02*X41000Y119800D01*
X38700Y113300D02*Y117500D01*
X29500Y114900D02*X26700D01*
X27500Y106100D02*X31500D01*
X39100Y101600D02*X21200D01*
X22900Y118700D02*Y132500D01*
X16400Y129200D02*Y131800D01*
X21800Y137200D01*
X28600D01*
X39600Y125500D02*X41300D01*
X42800Y127000D01*
Y136500D01*
X44500Y138200D01*
X45600D01*
X50900Y143500D01*
X28600Y137200D02*X34900Y143500D01*
X11900Y53500D02*X9400D01*
X4500Y58400D01*
X19700Y100100D02*Y90300D01*
X15900Y86500D01*
X25100Y82000D02*X11000D01*
X43200Y84800D02*X47500Y80500D01*
X4500Y58400D02*Y82000D01*
X11000D02*X7800Y78800D01*
Y73000D01*
X11800Y69000D01*
Y61500D01*
X4500Y82000D02*X15600Y93100D01*
X4800Y104100D02*Y96700D01*
X7600Y93900D01*
X11800Y61500D02*X14600Y58700D01*
X22200D01*
X29200Y51700D01*
X52100D01*
X53900Y53500D01*
X41000Y119800D02*X60200D01*
X57000Y116400D02*X44700D01*
X60200Y119800D02*X63100Y116900D01*
Y110300D02*X57000Y116400D01*
X54000Y109600D02*X55800D01*
X58800Y106600D01*
X44700Y116400D02*X43500Y115200D01*
Y112300D01*
X45700Y110100D01*
Y107500D01*
X43200Y105000D01*
X42500D01*
X26700Y114900D02*X22900Y118700D01*
X19800Y112600D02*Y116000D01*
X11200Y124600D01*
X8200Y107500D02*X26100D01*
X27500Y106100D01*
X11200Y124600D02*Y136500D01*
X4800Y104100D02*X8200Y107500D01*
X11200Y136500D02*X12300Y137600D01*
X21200Y101600D02*X19700Y100100D01*
X25100Y93400D02*X27700Y90800D01*
Y84600D01*
X25100Y82000D01*
X68000Y107500D02*X66600D01*
X63800Y110300D01*
X63100D01*
X42500Y105000D02*X39100Y101600D01*
X58800Y106600D02*Y100700D01*
X65700Y93800D01*
X67500D01*
X59900Y80500D02*X65900Y86500D01*
X67500Y93800D02*X69900Y91400D01*
Y77100D01*
X63600Y70800D01*
X58600D01*
X53900Y75500D01*
X47500Y80500D02*X59800D01*
G54D23*X36900Y68000D03*
G54D24*X63475Y103205D03*
X10325D03*
G54D25*X59900Y25800D03*
X14400D03*
G54D26*X30900Y132500D03*
X34900Y143500D03*
X26900D03*
X10500Y112700D03*
X15300Y112800D03*
X24300Y111600D03*
X19800Y112600D03*
X29700Y109600D03*
X29500Y114900D03*
X18900Y143500D03*
X22900Y132500D03*
X16400Y129200D03*
X12300Y137600D03*
X8800Y154400D03*
X24100Y154500D03*
X38900Y132500D03*
X46900D03*
X54900D03*
X50900Y143500D03*
X52000Y154500D03*
X42900Y143500D03*
X43199Y84801D03*
X66900Y121600D03*
X67700Y113300D03*
X68000Y98200D03*
Y107500D03*
X65500Y127200D03*
X66300Y154500D03*
X63100Y116900D03*
X48400Y112900D03*
X41500Y108700D03*
X37500Y105800D03*
X54000Y109600D03*
X51600Y105200D03*
X65900Y86500D03*
X61900Y75500D03*
X53900D03*
X57900Y64500D03*
X65900D03*
X57900Y86500D03*
X53900Y53500D03*
X61900D03*
X63800Y46700D03*
X11900Y75500D03*
X19900D03*
X15900Y86500D03*
Y64500D03*
X7900D03*
X11900Y53500D03*
X19900D03*
X15600Y93100D03*
X7600Y93900D03*
X25100Y93400D03*
X23900Y86500D03*
G54D22*G54D27*G54D28*G54D29*M02*
