G04 start of page 14 for group -3984 idx -3984 *
G04 Title: (unknown), fab *
G04 Creator: pcb 20110918 *
G04 CreationDate: Fri Sep 12 16:05:54 2014 UTC *
G04 For: fosse *
G04 Format: Gerber/RS-274X *
G04 PCB-Dimensions: 300000 300000 *
G04 PCB-Coordinate-Origin: lower left *
%MOIN*%
%FSLAX25Y25*%
%LNFAB*%
%ADD79C,0.0100*%
%ADD78C,0.0075*%
%ADD77C,0.0060*%
%ADD76R,0.0080X0.0080*%
G54D76*X25902Y277221D02*Y274021D01*
X24302Y275621D02*X27502D01*
X26000Y222319D02*Y219119D01*
X24400Y220719D02*X27600D01*
X16902Y277221D02*Y274021D01*
X15302Y275621D02*X18502D01*
X35902Y277221D02*Y274021D01*
X34302Y275621D02*X37502D01*
X55902Y277221D02*Y274021D01*
X54302Y275621D02*X57502D01*
X55902Y219221D02*Y216021D01*
X54302Y217621D02*X57502D01*
X35902Y222221D02*Y219021D01*
X34302Y220621D02*X37502D01*
X35902Y249221D02*Y246021D01*
X34302Y247621D02*X37502D01*
X45902Y256221D02*Y253021D01*
X44302Y254621D02*X47502D01*
X55902Y242221D02*Y239021D01*
X54302Y240621D02*X57502D01*
X61902Y283221D02*Y280021D01*
X60302Y281621D02*X63502D01*
X15902Y219221D02*Y216021D01*
X14302Y217621D02*X17502D01*
X84902Y226221D02*Y223021D01*
X83302Y224621D02*X86502D01*
X76902Y288221D02*Y285021D01*
X75302Y286621D02*X78502D01*
X78000Y259100D02*Y255900D01*
X76400Y257500D02*X79600D01*
X15000Y342850D02*Y339650D01*
X13400Y341250D02*X16600D01*
G54D77*X135000Y343500D02*X136500Y340500D01*
X138000Y343500D01*
X136500Y340500D02*Y337500D01*
X139800Y340800D02*X142050D01*
X139800Y337500D02*X142800D01*
X139800Y343500D02*Y337500D01*
Y343500D02*X142800D01*
X147600D02*X148350Y342750D01*
X145350Y343500D02*X147600D01*
X144600Y342750D02*X145350Y343500D01*
X144600Y342750D02*Y341250D01*
X145350Y340500D01*
X147600D01*
X148350Y339750D01*
Y338250D01*
X147600Y337500D02*X148350Y338250D01*
X145350Y337500D02*X147600D01*
X144600Y338250D02*X145350Y337500D01*
X98000Y342300D02*X99200Y343500D01*
Y337500D01*
X98000D02*X100250D01*
X102050Y343500D02*X105050D01*
X102050D02*Y340500D01*
X102800Y341250D01*
X104300D01*
X105050Y340500D01*
Y338250D01*
X104300Y337500D02*X105050Y338250D01*
X102800Y337500D02*X104300D01*
X102050Y338250D02*X102800Y337500D01*
X45000Y338250D02*X45750Y337500D01*
X45000Y342750D02*Y338250D01*
Y342750D02*X45750Y343500D01*
X47250D01*
X48000Y342750D01*
Y338250D01*
X47250Y337500D02*X48000Y338250D01*
X45750Y337500D02*X47250D01*
X45000Y339000D02*X48000Y342000D01*
X49800Y337500D02*X50550D01*
X52350Y338250D02*X53100Y337500D01*
X52350Y342750D02*Y338250D01*
Y342750D02*X53100Y343500D01*
X54600D01*
X55350Y342750D01*
Y338250D01*
X54600Y337500D02*X55350Y338250D01*
X53100Y337500D02*X54600D01*
X52350Y339000D02*X55350Y342000D01*
X57150Y342750D02*X57900Y343500D01*
X59400D01*
X60150Y342750D01*
X59400Y337500D02*X60150Y338250D01*
X57900Y337500D02*X59400D01*
X57150Y338250D02*X57900Y337500D01*
Y340800D02*X59400D01*
X60150Y342750D02*Y341550D01*
Y340050D02*Y338250D01*
Y340050D02*X59400Y340800D01*
X60150Y341550D02*X59400Y340800D01*
X61950Y343500D02*X64950D01*
X61950D02*Y340500D01*
X62700Y341250D01*
X64200D01*
X64950Y340500D01*
Y338250D01*
X64200Y337500D02*X64950Y338250D01*
X62700Y337500D02*X64200D01*
X61950Y338250D02*X62700Y337500D01*
X17902Y247621D02*Y246021D01*
Y247621D02*X19289Y248421D01*
X17902Y247621D02*X16515Y248421D01*
X77902Y277621D02*Y276021D01*
Y277621D02*X79289Y278421D01*
X77902Y277621D02*X76515Y278421D01*
X68500Y245500D02*Y243900D01*
Y245500D02*X69887Y246300D01*
X68500Y245500D02*X67113Y246300D01*
X98000Y221500D02*Y219900D01*
Y221500D02*X99387Y222300D01*
X98000Y221500D02*X96613Y222300D01*
X100000Y286500D02*Y284900D01*
Y286500D02*X101387Y287300D01*
X100000Y286500D02*X98613Y287300D01*
X88000Y245500D02*Y243900D01*
Y245500D02*X89387Y246300D01*
X88000Y245500D02*X86613Y246300D01*
X88000Y265000D02*Y263400D01*
Y265000D02*X89387Y265800D01*
X88000Y265000D02*X86613Y265800D01*
X78500Y245500D02*Y243900D01*
Y245500D02*X79887Y246300D01*
X78500Y245500D02*X77113Y246300D01*
X15000Y356250D02*Y354650D01*
Y356250D02*X16387Y357050D01*
X15000Y356250D02*X13613Y357050D01*
X135000Y358500D02*X136500Y355500D01*
X138000Y358500D01*
X136500Y355500D02*Y352500D01*
X139800Y355800D02*X142050D01*
X139800Y352500D02*X142800D01*
X139800Y358500D02*Y352500D01*
Y358500D02*X142800D01*
X147600D02*X148350Y357750D01*
X145350Y358500D02*X147600D01*
X144600Y357750D02*X145350Y358500D01*
X144600Y357750D02*Y356250D01*
X145350Y355500D01*
X147600D01*
X148350Y354750D01*
Y353250D01*
X147600Y352500D02*X148350Y353250D01*
X145350Y352500D02*X147600D01*
X144600Y353250D02*X145350Y352500D01*
X98000Y353250D02*X98750Y352500D01*
X98000Y354450D02*Y353250D01*
Y354450D02*X99050Y355500D01*
X99950D01*
X101000Y354450D01*
Y353250D01*
X100250Y352500D02*X101000Y353250D01*
X98750Y352500D02*X100250D01*
X98000Y356550D02*X99050Y355500D01*
X98000Y357750D02*Y356550D01*
Y357750D02*X98750Y358500D01*
X100250D01*
X101000Y357750D01*
Y356550D01*
X99950Y355500D02*X101000Y356550D01*
X45000Y353250D02*X45750Y352500D01*
X45000Y357750D02*Y353250D01*
Y357750D02*X45750Y358500D01*
X47250D01*
X48000Y357750D01*
Y353250D01*
X47250Y352500D02*X48000Y353250D01*
X45750Y352500D02*X47250D01*
X45000Y354000D02*X48000Y357000D01*
X49800Y352500D02*X50550D01*
X52350Y353250D02*X53100Y352500D01*
X52350Y357750D02*Y353250D01*
Y357750D02*X53100Y358500D01*
X54600D01*
X55350Y357750D01*
Y353250D01*
X54600Y352500D02*X55350Y353250D01*
X53100Y352500D02*X54600D01*
X52350Y354000D02*X55350Y357000D01*
X57150Y357750D02*X57900Y358500D01*
X60150D01*
X60900Y357750D01*
Y356250D01*
X57150Y352500D02*X60900Y356250D01*
X57150Y352500D02*X60900D01*
X62700Y353250D02*X63450Y352500D01*
X62700Y357750D02*Y353250D01*
Y357750D02*X63450Y358500D01*
X64950D01*
X65700Y357750D01*
Y353250D01*
X64950Y352500D02*X65700Y353250D01*
X63450Y352500D02*X64950D01*
X62700Y354000D02*X65700Y357000D01*
X3000Y373500D02*X3750Y372750D01*
X750Y373500D02*X3000D01*
X0Y372750D02*X750Y373500D01*
X0Y372750D02*Y371250D01*
X750Y370500D01*
X3000D01*
X3750Y369750D01*
Y368250D01*
X3000Y367500D02*X3750Y368250D01*
X750Y367500D02*X3000D01*
X0Y368250D02*X750Y367500D01*
X5550Y370500D02*Y368250D01*
X6300Y367500D01*
X8550Y370500D02*Y366000D01*
X7800Y365250D02*X8550Y366000D01*
X6300Y365250D02*X7800D01*
X5550Y366000D02*X6300Y365250D01*
Y367500D02*X7800D01*
X8550Y368250D01*
X11100Y369750D02*Y367500D01*
Y369750D02*X11850Y370500D01*
X12600D01*
X13350Y369750D01*
Y367500D01*
Y369750D02*X14100Y370500D01*
X14850D01*
X15600Y369750D01*
Y367500D01*
X10350Y370500D02*X11100Y369750D01*
X17400Y373500D02*Y367500D01*
Y368250D02*X18150Y367500D01*
X19650D01*
X20400Y368250D01*
Y369750D02*Y368250D01*
X19650Y370500D02*X20400Y369750D01*
X18150Y370500D02*X19650D01*
X17400Y369750D02*X18150Y370500D01*
X22200Y369750D02*Y368250D01*
Y369750D02*X22950Y370500D01*
X24450D01*
X25200Y369750D01*
Y368250D01*
X24450Y367500D02*X25200Y368250D01*
X22950Y367500D02*X24450D01*
X22200Y368250D02*X22950Y367500D01*
X27000Y373500D02*Y368250D01*
X27750Y367500D01*
X0Y364250D02*X29250D01*
X41750Y373500D02*Y367500D01*
X43700Y373500D02*X44750Y372450D01*
Y368550D01*
X43700Y367500D02*X44750Y368550D01*
X41000Y367500D02*X43700D01*
X41000Y373500D02*X43700D01*
G54D78*X46550Y372000D02*Y371850D01*
G54D77*Y369750D02*Y367500D01*
X50300Y370500D02*X51050Y369750D01*
X48800Y370500D02*X50300D01*
X48050Y369750D02*X48800Y370500D01*
X48050Y369750D02*Y368250D01*
X48800Y367500D01*
X51050Y370500D02*Y368250D01*
X51800Y367500D01*
X48800D02*X50300D01*
X51050Y368250D01*
X54350Y369750D02*Y367500D01*
Y369750D02*X55100Y370500D01*
X55850D01*
X56600Y369750D01*
Y367500D01*
Y369750D02*X57350Y370500D01*
X58100D01*
X58850Y369750D01*
Y367500D01*
X53600Y370500D02*X54350Y369750D01*
X60650Y367500D02*X61400D01*
X65900Y368250D02*X66650Y367500D01*
X65900Y372750D02*X66650Y373500D01*
X65900Y372750D02*Y368250D01*
X68450Y373500D02*X69950D01*
X69200D02*Y367500D01*
X68450D02*X69950D01*
X72500Y369750D02*Y367500D01*
Y369750D02*X73250Y370500D01*
X74000D01*
X74750Y369750D01*
Y367500D01*
X71750Y370500D02*X72500Y369750D01*
X77300Y370500D02*X79550D01*
X76550Y369750D02*X77300Y370500D01*
X76550Y369750D02*Y368250D01*
X77300Y367500D01*
X79550D01*
X81350Y373500D02*Y367500D01*
Y369750D02*X82100Y370500D01*
X83600D01*
X84350Y369750D01*
Y367500D01*
X86150Y373500D02*X86900Y372750D01*
Y368250D01*
X86150Y367500D02*X86900Y368250D01*
X41000Y364250D02*X88700D01*
X96050Y367500D02*X98000D01*
X95000Y368550D02*X96050Y367500D01*
X95000Y372450D02*Y368550D01*
Y372450D02*X96050Y373500D01*
X98000D01*
X99800Y369750D02*Y368250D01*
Y369750D02*X100550Y370500D01*
X102050D01*
X102800Y369750D01*
Y368250D01*
X102050Y367500D02*X102800Y368250D01*
X100550Y367500D02*X102050D01*
X99800Y368250D02*X100550Y367500D01*
X104600Y370500D02*Y368250D01*
X105350Y367500D01*
X106850D01*
X107600Y368250D01*
Y370500D02*Y368250D01*
X110150Y369750D02*Y367500D01*
Y369750D02*X110900Y370500D01*
X111650D01*
X112400Y369750D01*
Y367500D01*
X109400Y370500D02*X110150Y369750D01*
X114950Y373500D02*Y368250D01*
X115700Y367500D01*
X114200Y371250D02*X115700D01*
X95000Y364250D02*X117200D01*
X130750Y373500D02*Y367500D01*
X130000Y373500D02*X133000D01*
X133750Y372750D01*
Y371250D01*
X133000Y370500D02*X133750Y371250D01*
X130750Y370500D02*X133000D01*
X135550Y373500D02*Y368250D01*
X136300Y367500D01*
X140050Y370500D02*X140800Y369750D01*
X138550Y370500D02*X140050D01*
X137800Y369750D02*X138550Y370500D01*
X137800Y369750D02*Y368250D01*
X138550Y367500D01*
X140800Y370500D02*Y368250D01*
X141550Y367500D01*
X138550D02*X140050D01*
X140800Y368250D01*
X144100Y373500D02*Y368250D01*
X144850Y367500D01*
X143350Y371250D02*X144850D01*
X147100Y367500D02*X149350D01*
X146350Y368250D02*X147100Y367500D01*
X146350Y369750D02*Y368250D01*
Y369750D02*X147100Y370500D01*
X148600D01*
X149350Y369750D01*
X146350Y369000D02*X149350D01*
Y369750D02*Y369000D01*
X154150Y373500D02*Y367500D01*
X153400D02*X154150Y368250D01*
X151900Y367500D02*X153400D01*
X151150Y368250D02*X151900Y367500D01*
X151150Y369750D02*Y368250D01*
Y369750D02*X151900Y370500D01*
X153400D01*
X154150Y369750D01*
X157450Y370500D02*Y369750D01*
Y368250D02*Y367500D01*
X155950Y372750D02*Y372000D01*
Y372750D02*X156700Y373500D01*
X158200D01*
X158950Y372750D01*
Y372000D01*
X157450Y370500D02*X158950Y372000D01*
X130000Y364250D02*X160750D01*
X0Y388500D02*X3000D01*
X1500D02*Y382500D01*
X4800Y388500D02*Y382500D01*
Y384750D02*X5550Y385500D01*
X7050D01*
X7800Y384750D01*
Y382500D01*
X10350D02*X12600D01*
X9600Y383250D02*X10350Y382500D01*
X9600Y384750D02*Y383250D01*
Y384750D02*X10350Y385500D01*
X11850D01*
X12600Y384750D01*
X9600Y384000D02*X12600D01*
Y384750D02*Y384000D01*
X15150Y384750D02*Y382500D01*
Y384750D02*X15900Y385500D01*
X17400D01*
X14400D02*X15150Y384750D01*
X19950Y382500D02*X22200D01*
X19200Y383250D02*X19950Y382500D01*
X19200Y384750D02*Y383250D01*
Y384750D02*X19950Y385500D01*
X21450D01*
X22200Y384750D01*
X19200Y384000D02*X22200D01*
Y384750D02*Y384000D01*
X28950Y385500D02*X29700Y384750D01*
X27450Y385500D02*X28950D01*
X26700Y384750D02*X27450Y385500D01*
X26700Y384750D02*Y383250D01*
X27450Y382500D01*
X29700Y385500D02*Y383250D01*
X30450Y382500D01*
X27450D02*X28950D01*
X29700Y383250D01*
X33000Y384750D02*Y382500D01*
Y384750D02*X33750Y385500D01*
X35250D01*
X32250D02*X33000Y384750D01*
X37800Y382500D02*X40050D01*
X37050Y383250D02*X37800Y382500D01*
X37050Y384750D02*Y383250D01*
Y384750D02*X37800Y385500D01*
X39300D01*
X40050Y384750D01*
X37050Y384000D02*X40050D01*
Y384750D02*Y384000D01*
X44550Y387750D02*X45300Y388500D01*
X47550D01*
X48300Y387750D01*
Y386250D01*
X44550Y382500D02*X48300Y386250D01*
X44550Y382500D02*X48300D01*
X55800Y388500D02*Y382500D01*
X55050D02*X55800Y383250D01*
X53550Y382500D02*X55050D01*
X52800Y383250D02*X53550Y382500D01*
X52800Y384750D02*Y383250D01*
Y384750D02*X53550Y385500D01*
X55050D01*
X55800Y384750D01*
G54D78*X57600Y387000D02*Y386850D01*
G54D77*Y384750D02*Y382500D01*
X59850Y387750D02*Y382500D01*
Y387750D02*X60600Y388500D01*
X61350D01*
X59100Y385500D02*X60600D01*
X63600Y387750D02*Y382500D01*
Y387750D02*X64350Y388500D01*
X65100D01*
X62850Y385500D02*X64350D01*
X67350Y382500D02*X69600D01*
X66600Y383250D02*X67350Y382500D01*
X66600Y384750D02*Y383250D01*
Y384750D02*X67350Y385500D01*
X68850D01*
X69600Y384750D01*
X66600Y384000D02*X69600D01*
Y384750D02*Y384000D01*
X72150Y384750D02*Y382500D01*
Y384750D02*X72900Y385500D01*
X74400D01*
X71400D02*X72150Y384750D01*
X76950Y382500D02*X79200D01*
X76200Y383250D02*X76950Y382500D01*
X76200Y384750D02*Y383250D01*
Y384750D02*X76950Y385500D01*
X78450D01*
X79200Y384750D01*
X76200Y384000D02*X79200D01*
Y384750D02*Y384000D01*
X81750Y384750D02*Y382500D01*
Y384750D02*X82500Y385500D01*
X83250D01*
X84000Y384750D01*
Y382500D01*
X81000Y385500D02*X81750Y384750D01*
X86550Y388500D02*Y383250D01*
X87300Y382500D01*
X85800Y386250D02*X87300D01*
X94500Y388500D02*Y382500D01*
X93750D02*X94500Y383250D01*
X92250Y382500D02*X93750D01*
X91500Y383250D02*X92250Y382500D01*
X91500Y384750D02*Y383250D01*
Y384750D02*X92250Y385500D01*
X93750D01*
X94500Y384750D01*
X97050D02*Y382500D01*
Y384750D02*X97800Y385500D01*
X99300D01*
X96300D02*X97050Y384750D01*
G54D78*X101100Y387000D02*Y386850D01*
G54D77*Y384750D02*Y382500D01*
X102600Y388500D02*Y383250D01*
X103350Y382500D01*
X104850Y388500D02*Y383250D01*
X105600Y382500D01*
X110550D02*X112800D01*
X113550Y383250D01*
X112800Y384000D02*X113550Y383250D01*
X110550Y384000D02*X112800D01*
X109800Y384750D02*X110550Y384000D01*
X109800Y384750D02*X110550Y385500D01*
X112800D01*
X113550Y384750D01*
X109800Y383250D02*X110550Y382500D01*
G54D78*X115350Y387000D02*Y386850D01*
G54D77*Y384750D02*Y382500D01*
X116850Y385500D02*X119850D01*
X116850Y382500D02*X119850Y385500D01*
X116850Y382500D02*X119850D01*
X122400D02*X124650D01*
X121650Y383250D02*X122400Y382500D01*
X121650Y384750D02*Y383250D01*
Y384750D02*X122400Y385500D01*
X123900D01*
X124650Y384750D01*
X121650Y384000D02*X124650D01*
Y384750D02*Y384000D01*
X127200Y382500D02*X129450D01*
X130200Y383250D01*
X129450Y384000D02*X130200Y383250D01*
X127200Y384000D02*X129450D01*
X126450Y384750D02*X127200Y384000D01*
X126450Y384750D02*X127200Y385500D01*
X129450D01*
X130200Y384750D01*
X126450Y383250D02*X127200Y382500D01*
X134700Y385500D02*Y383250D01*
X135450Y382500D01*
X136950D01*
X137700Y383250D01*
Y385500D02*Y383250D01*
X140250Y382500D02*X142500D01*
X143250Y383250D01*
X142500Y384000D02*X143250Y383250D01*
X140250Y384000D02*X142500D01*
X139500Y384750D02*X140250Y384000D01*
X139500Y384750D02*X140250Y385500D01*
X142500D01*
X143250Y384750D01*
X139500Y383250D02*X140250Y382500D01*
X145800D02*X148050D01*
X145050Y383250D02*X145800Y382500D01*
X145050Y384750D02*Y383250D01*
Y384750D02*X145800Y385500D01*
X147300D01*
X148050Y384750D01*
X145050Y384000D02*X148050D01*
Y384750D02*Y384000D01*
X152850Y388500D02*Y382500D01*
X152100D02*X152850Y383250D01*
X150600Y382500D02*X152100D01*
X149850Y383250D02*X150600Y382500D01*
X149850Y384750D02*Y383250D01*
Y384750D02*X150600Y385500D01*
X152100D01*
X152850Y384750D01*
G54D78*X157350Y387000D02*Y386850D01*
G54D77*Y384750D02*Y382500D01*
X159600Y384750D02*Y382500D01*
Y384750D02*X160350Y385500D01*
X161100D01*
X161850Y384750D01*
Y382500D01*
X158850Y385500D02*X159600Y384750D01*
X167100Y388500D02*Y383250D01*
X167850Y382500D01*
X166350Y386250D02*X167850D01*
X169350Y388500D02*Y382500D01*
Y384750D02*X170100Y385500D01*
X171600D01*
X172350Y384750D01*
Y382500D01*
G54D78*X174150Y387000D02*Y386850D01*
G54D77*Y384750D02*Y382500D01*
X176400D02*X178650D01*
X179400Y383250D01*
X178650Y384000D02*X179400Y383250D01*
X176400Y384000D02*X178650D01*
X175650Y384750D02*X176400Y384000D01*
X175650Y384750D02*X176400Y385500D01*
X178650D01*
X179400Y384750D01*
X175650Y383250D02*X176400Y382500D01*
X183900Y388500D02*Y383250D01*
X184650Y382500D01*
X188400Y385500D02*X189150Y384750D01*
X186900Y385500D02*X188400D01*
X186150Y384750D02*X186900Y385500D01*
X186150Y384750D02*Y383250D01*
X186900Y382500D01*
X189150Y385500D02*Y383250D01*
X189900Y382500D01*
X186900D02*X188400D01*
X189150Y383250D01*
X191700Y385500D02*Y383250D01*
X192450Y382500D01*
X194700Y385500D02*Y381000D01*
X193950Y380250D02*X194700Y381000D01*
X192450Y380250D02*X193950D01*
X191700Y381000D02*X192450Y380250D01*
Y382500D02*X193950D01*
X194700Y383250D01*
X196500Y384750D02*Y383250D01*
Y384750D02*X197250Y385500D01*
X198750D01*
X199500Y384750D01*
Y383250D01*
X198750Y382500D02*X199500Y383250D01*
X197250Y382500D02*X198750D01*
X196500Y383250D02*X197250Y382500D01*
X201300Y385500D02*Y383250D01*
X202050Y382500D01*
X203550D01*
X204300Y383250D01*
Y385500D02*Y383250D01*
X206850Y388500D02*Y383250D01*
X207600Y382500D01*
X206100Y386250D02*X207600D01*
X209100Y381000D02*X210600Y382500D01*
X215100Y387750D02*X215850Y388500D01*
X218100D01*
X218850Y387750D01*
Y386250D01*
X215100Y382500D02*X218850Y386250D01*
X215100Y382500D02*X218850D01*
X220650Y387750D02*X221400Y388500D01*
X222900D01*
X223650Y387750D01*
X222900Y382500D02*X223650Y383250D01*
X221400Y382500D02*X222900D01*
X220650Y383250D02*X221400Y382500D01*
Y385800D02*X222900D01*
X223650Y387750D02*Y386550D01*
Y385050D02*Y383250D01*
Y385050D02*X222900Y385800D01*
X223650Y386550D02*X222900Y385800D01*
X228150Y388500D02*Y382500D01*
Y384750D02*X228900Y385500D01*
X230400D01*
X231150Y384750D01*
Y382500D01*
X232950Y384750D02*Y383250D01*
Y384750D02*X233700Y385500D01*
X235200D01*
X235950Y384750D01*
Y383250D01*
X235200Y382500D02*X235950Y383250D01*
X233700Y382500D02*X235200D01*
X232950Y383250D02*X233700Y382500D01*
X237750Y388500D02*Y383250D01*
X238500Y382500D01*
X240750D02*X243000D01*
X240000Y383250D02*X240750Y382500D01*
X240000Y384750D02*Y383250D01*
Y384750D02*X240750Y385500D01*
X242250D01*
X243000Y384750D01*
X240000Y384000D02*X243000D01*
Y384750D02*Y384000D01*
X245550Y382500D02*X247800D01*
X248550Y383250D01*
X247800Y384000D02*X248550Y383250D01*
X245550Y384000D02*X247800D01*
X244800Y384750D02*X245550Y384000D01*
X244800Y384750D02*X245550Y385500D01*
X247800D01*
X248550Y384750D01*
X244800Y383250D02*X245550Y382500D01*
X253800Y388500D02*Y383250D01*
X254550Y382500D01*
X253050Y386250D02*X254550D01*
X256050Y384750D02*Y383250D01*
Y384750D02*X256800Y385500D01*
X258300D01*
X259050Y384750D01*
Y383250D01*
X258300Y382500D02*X259050Y383250D01*
X256800Y382500D02*X258300D01*
X256050Y383250D02*X256800Y382500D01*
X261600Y388500D02*Y383250D01*
X262350Y382500D01*
X260850Y386250D02*X262350D01*
X266100Y385500D02*X266850Y384750D01*
X264600Y385500D02*X266100D01*
X263850Y384750D02*X264600Y385500D01*
X263850Y384750D02*Y383250D01*
X264600Y382500D01*
X266850Y385500D02*Y383250D01*
X267600Y382500D01*
X264600D02*X266100D01*
X266850Y383250D01*
X269400Y388500D02*Y383250D01*
X270150Y382500D01*
G54D79*X2000Y276000D02*Y228000D01*
X24000Y298000D02*X96500D01*
X24000Y206000D02*X96500D01*
X108500Y286000D02*Y218000D01*
X24000Y298000D02*G75*G03X2000Y276000I0J-22000D01*G01*
Y228000D02*G75*G03X24000Y206000I22000J0D01*G01*
X96500Y298000D02*G75*G02X108500Y286000I0J-12000D01*G01*
Y218000D02*G75*G02X96500Y206000I-12000J0D01*G01*
G54D77*X63675Y-9500D02*X66675D01*
X67425Y-8750D01*
Y-6950D02*Y-8750D01*
X66675Y-6200D02*X67425Y-6950D01*
X64425Y-6200D02*X66675D01*
X64425Y-3500D02*Y-9500D01*
X63675Y-3500D02*X66675D01*
X67425Y-4250D01*
Y-5450D01*
X66675Y-6200D02*X67425Y-5450D01*
X69225Y-7250D02*Y-8750D01*
Y-7250D02*X69975Y-6500D01*
X71475D01*
X72225Y-7250D01*
Y-8750D01*
X71475Y-9500D02*X72225Y-8750D01*
X69975Y-9500D02*X71475D01*
X69225Y-8750D02*X69975Y-9500D01*
X76275Y-6500D02*X77025Y-7250D01*
X74775Y-6500D02*X76275D01*
X74025Y-7250D02*X74775Y-6500D01*
X74025Y-7250D02*Y-8750D01*
X74775Y-9500D01*
X77025Y-6500D02*Y-8750D01*
X77775Y-9500D01*
X74775D02*X76275D01*
X77025Y-8750D01*
X80325Y-7250D02*Y-9500D01*
Y-7250D02*X81075Y-6500D01*
X82575D01*
X79575D02*X80325Y-7250D01*
X87375Y-3500D02*Y-9500D01*
X86625D02*X87375Y-8750D01*
X85125Y-9500D02*X86625D01*
X84375Y-8750D02*X85125Y-9500D01*
X84375Y-7250D02*Y-8750D01*
Y-7250D02*X85125Y-6500D01*
X86625D01*
X87375Y-7250D01*
X91875D02*Y-8750D01*
Y-7250D02*X92625Y-6500D01*
X94125D01*
X94875Y-7250D01*
Y-8750D01*
X94125Y-9500D02*X94875Y-8750D01*
X92625Y-9500D02*X94125D01*
X91875Y-8750D02*X92625Y-9500D01*
X96675Y-6500D02*Y-8750D01*
X97425Y-9500D01*
X98925D01*
X99675Y-8750D01*
Y-6500D02*Y-8750D01*
X102225Y-3500D02*Y-8750D01*
X102975Y-9500D01*
X101475Y-5750D02*X102975D01*
X104475Y-3500D02*Y-8750D01*
X105225Y-9500D01*
G54D78*X106725Y-5000D02*Y-5150D01*
G54D77*Y-7250D02*Y-9500D01*
X108975Y-7250D02*Y-9500D01*
Y-7250D02*X109725Y-6500D01*
X110475D01*
X111225Y-7250D01*
Y-9500D01*
X108225Y-6500D02*X108975Y-7250D01*
X113775Y-9500D02*X116025D01*
X113025Y-8750D02*X113775Y-9500D01*
X113025Y-7250D02*Y-8750D01*
Y-7250D02*X113775Y-6500D01*
X115275D01*
X116025Y-7250D01*
X113025Y-8000D02*X116025D01*
Y-7250D02*Y-8000D01*
G54D78*X120525Y-5000D02*Y-5150D01*
G54D77*Y-7250D02*Y-9500D01*
X122775D02*X125025D01*
X125775Y-8750D01*
X125025Y-8000D02*X125775Y-8750D01*
X122775Y-8000D02*X125025D01*
X122025Y-7250D02*X122775Y-8000D01*
X122025Y-7250D02*X122775Y-6500D01*
X125025D01*
X125775Y-7250D01*
X122025Y-8750D02*X122775Y-9500D01*
X131025Y-3500D02*Y-8750D01*
X131775Y-9500D01*
X130275Y-5750D02*X131775D01*
X133275Y-3500D02*Y-9500D01*
Y-7250D02*X134025Y-6500D01*
X135525D01*
X136275Y-7250D01*
Y-9500D01*
X138825D02*X141075D01*
X138075Y-8750D02*X138825Y-9500D01*
X138075Y-7250D02*Y-8750D01*
Y-7250D02*X138825Y-6500D01*
X140325D01*
X141075Y-7250D01*
X138075Y-8000D02*X141075D01*
Y-7250D02*Y-8000D01*
X146325Y-6500D02*X148575D01*
X145575Y-7250D02*X146325Y-6500D01*
X145575Y-7250D02*Y-8750D01*
X146325Y-9500D01*
X148575D01*
X151125D02*X153375D01*
X150375Y-8750D02*X151125Y-9500D01*
X150375Y-7250D02*Y-8750D01*
Y-7250D02*X151125Y-6500D01*
X152625D01*
X153375Y-7250D01*
X150375Y-8000D02*X153375D01*
Y-7250D02*Y-8000D01*
X155925Y-7250D02*Y-9500D01*
Y-7250D02*X156675Y-6500D01*
X157425D01*
X158175Y-7250D01*
Y-9500D01*
X155175Y-6500D02*X155925Y-7250D01*
X160725Y-3500D02*Y-8750D01*
X161475Y-9500D01*
X159975Y-5750D02*X161475D01*
X163725Y-9500D02*X165975D01*
X162975Y-8750D02*X163725Y-9500D01*
X162975Y-7250D02*Y-8750D01*
Y-7250D02*X163725Y-6500D01*
X165225D01*
X165975Y-7250D01*
X162975Y-8000D02*X165975D01*
Y-7250D02*Y-8000D01*
X168525Y-7250D02*Y-9500D01*
Y-7250D02*X169275Y-6500D01*
X170775D01*
X167775D02*X168525Y-7250D01*
X172575Y-3500D02*Y-8750D01*
X173325Y-9500D01*
G54D78*X174825Y-5000D02*Y-5150D01*
G54D77*Y-7250D02*Y-9500D01*
X177075Y-7250D02*Y-9500D01*
Y-7250D02*X177825Y-6500D01*
X178575D01*
X179325Y-7250D01*
Y-9500D01*
X176325Y-6500D02*X177075Y-7250D01*
X181875Y-9500D02*X184125D01*
X181125Y-8750D02*X181875Y-9500D01*
X181125Y-7250D02*Y-8750D01*
Y-7250D02*X181875Y-6500D01*
X183375D01*
X184125Y-7250D01*
X181125Y-8000D02*X184125D01*
Y-7250D02*Y-8000D01*
X188625Y-7250D02*Y-8750D01*
Y-7250D02*X189375Y-6500D01*
X190875D01*
X191625Y-7250D01*
Y-8750D01*
X190875Y-9500D02*X191625Y-8750D01*
X189375Y-9500D02*X190875D01*
X188625Y-8750D02*X189375Y-9500D01*
X194175Y-4250D02*Y-9500D01*
Y-4250D02*X194925Y-3500D01*
X195675D01*
X193425Y-6500D02*X194925D01*
X200625Y-3500D02*Y-8750D01*
X201375Y-9500D01*
X199875Y-5750D02*X201375D01*
X202875Y-3500D02*Y-9500D01*
Y-7250D02*X203625Y-6500D01*
X205125D01*
X205875Y-7250D01*
Y-9500D01*
G54D78*X207675Y-5000D02*Y-5150D01*
G54D77*Y-7250D02*Y-9500D01*
X209925D02*X212175D01*
X212925Y-8750D01*
X212175Y-8000D02*X212925Y-8750D01*
X209925Y-8000D02*X212175D01*
X209175Y-7250D02*X209925Y-8000D01*
X209175Y-7250D02*X209925Y-6500D01*
X212175D01*
X212925Y-7250D01*
X209175Y-8750D02*X209925Y-9500D01*
X218175Y-7250D02*Y-11750D01*
X217425Y-6500D02*X218175Y-7250D01*
X218925Y-6500D01*
X220425D01*
X221175Y-7250D01*
Y-8750D01*
X220425Y-9500D02*X221175Y-8750D01*
X218925Y-9500D02*X220425D01*
X218175Y-8750D02*X218925Y-9500D01*
X225225Y-6500D02*X225975Y-7250D01*
X223725Y-6500D02*X225225D01*
X222975Y-7250D02*X223725Y-6500D01*
X222975Y-7250D02*Y-8750D01*
X223725Y-9500D01*
X225975Y-6500D02*Y-8750D01*
X226725Y-9500D01*
X223725D02*X225225D01*
X225975Y-8750D01*
X229275Y-3500D02*Y-8750D01*
X230025Y-9500D01*
X228525Y-5750D02*X230025D01*
X231525Y-3500D02*Y-9500D01*
Y-7250D02*X232275Y-6500D01*
X233775D01*
X234525Y-7250D01*
Y-9500D01*
X200750Y328500D02*Y322500D01*
X202700Y328500D02*X203750Y327450D01*
Y323550D01*
X202700Y322500D02*X203750Y323550D01*
X200000Y322500D02*X202700D01*
X200000Y328500D02*X202700D01*
X207800Y325500D02*X208550Y324750D01*
X206300Y325500D02*X207800D01*
X205550Y324750D02*X206300Y325500D01*
X205550Y324750D02*Y323250D01*
X206300Y322500D01*
X208550Y325500D02*Y323250D01*
X209300Y322500D01*
X206300D02*X207800D01*
X208550Y323250D01*
X211850Y328500D02*Y323250D01*
X212600Y322500D01*
X211100Y326250D02*X212600D01*
X214850Y322500D02*X217100D01*
X214100Y323250D02*X214850Y322500D01*
X214100Y324750D02*Y323250D01*
Y324750D02*X214850Y325500D01*
X216350D01*
X217100Y324750D01*
X214100Y324000D02*X217100D01*
Y324750D02*Y324000D01*
X218900Y326250D02*X219650D01*
X218900Y324750D02*X219650D01*
X224150Y328500D02*Y322500D01*
Y328500D02*X227150D01*
X224150Y325800D02*X226400D01*
X229700Y324750D02*Y322500D01*
Y324750D02*X230450Y325500D01*
X231950D01*
X228950D02*X229700Y324750D01*
G54D78*X233750Y327000D02*Y326850D01*
G54D77*Y324750D02*Y322500D01*
X240950Y328500D02*X241700Y327750D01*
X238700Y328500D02*X240950D01*
X237950Y327750D02*X238700Y328500D01*
X237950Y327750D02*Y326250D01*
X238700Y325500D01*
X240950D01*
X241700Y324750D01*
Y323250D01*
X240950Y322500D02*X241700Y323250D01*
X238700Y322500D02*X240950D01*
X237950Y323250D02*X238700Y322500D01*
X244250D02*X246500D01*
X243500Y323250D02*X244250Y322500D01*
X243500Y324750D02*Y323250D01*
Y324750D02*X244250Y325500D01*
X245750D01*
X246500Y324750D01*
X243500Y324000D02*X246500D01*
Y324750D02*Y324000D01*
X249050Y324750D02*Y320250D01*
X248300Y325500D02*X249050Y324750D01*
X249800Y325500D01*
X251300D01*
X252050Y324750D01*
Y323250D01*
X251300Y322500D02*X252050Y323250D01*
X249800Y322500D02*X251300D01*
X249050Y323250D02*X249800Y322500D01*
X256550Y327300D02*X257750Y328500D01*
Y322500D01*
X256550D02*X258800D01*
X260600Y327750D02*X261350Y328500D01*
X263600D01*
X264350Y327750D01*
Y326250D01*
X260600Y322500D02*X264350Y326250D01*
X260600Y322500D02*X264350D01*
X268850Y327300D02*X270050Y328500D01*
Y322500D01*
X268850D02*X271100D01*
X275150Y328500D02*X275900Y327750D01*
X273650Y328500D02*X275150D01*
X272900Y327750D02*X273650Y328500D01*
X272900Y327750D02*Y323250D01*
X273650Y322500D01*
X275150Y325800D02*X275900Y325050D01*
X272900Y325800D02*X275150D01*
X273650Y322500D02*X275150D01*
X275900Y323250D01*
Y325050D02*Y323250D01*
X277700Y326250D02*X278450D01*
X277700Y324750D02*X278450D01*
X280250Y323250D02*X281000Y322500D01*
X280250Y327750D02*Y323250D01*
Y327750D02*X281000Y328500D01*
X282500D01*
X283250Y327750D01*
Y323250D01*
X282500Y322500D02*X283250Y323250D01*
X281000Y322500D02*X282500D01*
X280250Y324000D02*X283250Y327000D01*
X285050Y328500D02*X288050D01*
X285050D02*Y325500D01*
X285800Y326250D01*
X287300D01*
X288050Y325500D01*
Y323250D01*
X287300Y322500D02*X288050Y323250D01*
X285800Y322500D02*X287300D01*
X285050Y323250D02*X285800Y322500D01*
X289850Y326250D02*X290600D01*
X289850Y324750D02*X290600D01*
X292400Y328500D02*X295400D01*
X292400D02*Y325500D01*
X293150Y326250D01*
X294650D01*
X295400Y325500D01*
Y323250D01*
X294650Y322500D02*X295400Y323250D01*
X293150Y322500D02*X294650D01*
X292400Y323250D02*X293150Y322500D01*
X297200Y324750D02*X300200Y328500D01*
X297200Y324750D02*X300950D01*
X300200Y328500D02*Y322500D01*
X305450Y327750D02*X306200Y328500D01*
X308450D01*
X309200Y327750D01*
Y326250D01*
X305450Y322500D02*X309200Y326250D01*
X305450Y322500D02*X309200D01*
X311000Y323250D02*X311750Y322500D01*
X311000Y327750D02*Y323250D01*
Y327750D02*X311750Y328500D01*
X313250D01*
X314000Y327750D01*
Y323250D01*
X313250Y322500D02*X314000Y323250D01*
X311750Y322500D02*X313250D01*
X311000Y324000D02*X314000Y327000D01*
X315800Y327300D02*X317000Y328500D01*
Y322500D01*
X315800D02*X318050D01*
X319850Y324750D02*X322850Y328500D01*
X319850Y324750D02*X323600D01*
X322850Y328500D02*Y322500D01*
X328100Y328500D02*Y323250D01*
X328850Y322500D01*
X330350D01*
X331100Y323250D01*
Y328500D02*Y323250D01*
X332900Y328500D02*X335900D01*
X334400D02*Y322500D01*
X338750D02*X340700D01*
X337700Y323550D02*X338750Y322500D01*
X337700Y327450D02*Y323550D01*
Y327450D02*X338750Y328500D01*
X340700D01*
X200000Y342000D02*Y337500D01*
Y342000D02*X201050Y343500D01*
X202700D01*
X203750Y342000D01*
Y337500D01*
X200000Y340500D02*X203750D01*
X205550D02*Y338250D01*
X206300Y337500D01*
X207800D01*
X208550Y338250D01*
Y340500D02*Y338250D01*
X211100Y343500D02*Y338250D01*
X211850Y337500D01*
X210350Y341250D02*X211850D01*
X213350Y343500D02*Y337500D01*
Y339750D02*X214100Y340500D01*
X215600D01*
X216350Y339750D01*
Y337500D01*
X218150Y339750D02*Y338250D01*
Y339750D02*X218900Y340500D01*
X220400D01*
X221150Y339750D01*
Y338250D01*
X220400Y337500D02*X221150Y338250D01*
X218900Y337500D02*X220400D01*
X218150Y338250D02*X218900Y337500D01*
X223700Y339750D02*Y337500D01*
Y339750D02*X224450Y340500D01*
X225950D01*
X222950D02*X223700Y339750D01*
X227750Y341250D02*X228500D01*
X227750Y339750D02*X228500D01*
X200000Y358500D02*X203000D01*
X201500D02*Y352500D01*
G54D78*X204800Y357000D02*Y356850D01*
G54D77*Y354750D02*Y352500D01*
X207050Y358500D02*Y353250D01*
X207800Y352500D01*
X206300Y356250D02*X207800D01*
X209300Y358500D02*Y353250D01*
X210050Y352500D01*
X212300D02*X214550D01*
X211550Y353250D02*X212300Y352500D01*
X211550Y354750D02*Y353250D01*
Y354750D02*X212300Y355500D01*
X213800D01*
X214550Y354750D01*
X211550Y354000D02*X214550D01*
Y354750D02*Y354000D01*
X216350Y356250D02*X217100D01*
X216350Y354750D02*X217100D01*
X221600Y353250D02*X222350Y352500D01*
X221600Y357750D02*X222350Y358500D01*
X221600Y357750D02*Y353250D01*
X224150Y355500D02*Y353250D01*
X224900Y352500D01*
X226400D01*
X227150Y353250D01*
Y355500D02*Y353250D01*
X229700Y354750D02*Y352500D01*
Y354750D02*X230450Y355500D01*
X231200D01*
X231950Y354750D01*
Y352500D01*
X228950Y355500D02*X229700Y354750D01*
X233750Y358500D02*Y352500D01*
Y354750D02*X236000Y352500D01*
X233750Y354750D02*X235250Y356250D01*
X238550Y354750D02*Y352500D01*
Y354750D02*X239300Y355500D01*
X240050D01*
X240800Y354750D01*
Y352500D01*
X237800Y355500D02*X238550Y354750D01*
X242600D02*Y353250D01*
Y354750D02*X243350Y355500D01*
X244850D01*
X245600Y354750D01*
Y353250D01*
X244850Y352500D02*X245600Y353250D01*
X243350Y352500D02*X244850D01*
X242600Y353250D02*X243350Y352500D01*
X247400Y355500D02*Y353250D01*
X248150Y352500D01*
X248900D01*
X249650Y353250D01*
Y355500D02*Y353250D01*
X250400Y352500D01*
X251150D01*
X251900Y353250D01*
Y355500D02*Y353250D01*
X254450Y354750D02*Y352500D01*
Y354750D02*X255200Y355500D01*
X255950D01*
X256700Y354750D01*
Y352500D01*
X253700Y355500D02*X254450Y354750D01*
X258500Y358500D02*X259250Y357750D01*
Y353250D01*
X258500Y352500D02*X259250Y353250D01*
X263750Y355500D02*X266750D01*
X271250Y358500D02*Y352500D01*
Y358500D02*X274250D01*
X271250Y355800D02*X273500D01*
X278300Y355500D02*X279050Y354750D01*
X276800Y355500D02*X278300D01*
X276050Y354750D02*X276800Y355500D01*
X276050Y354750D02*Y353250D01*
X276800Y352500D01*
X279050Y355500D02*Y353250D01*
X279800Y352500D01*
X276800D02*X278300D01*
X279050Y353250D01*
X281600Y358500D02*Y352500D01*
Y353250D02*X282350Y352500D01*
X283850D01*
X284600Y353250D01*
Y354750D02*Y353250D01*
X283850Y355500D02*X284600Y354750D01*
X282350Y355500D02*X283850D01*
X281600Y354750D02*X282350Y355500D01*
X287150Y354750D02*Y352500D01*
Y354750D02*X287900Y355500D01*
X289400D01*
X286400D02*X287150Y354750D01*
G54D78*X291200Y357000D02*Y356850D01*
G54D77*Y354750D02*Y352500D01*
X293450Y355500D02*X295700D01*
X292700Y354750D02*X293450Y355500D01*
X292700Y354750D02*Y353250D01*
X293450Y352500D01*
X295700D01*
X299750Y355500D02*X300500Y354750D01*
X298250Y355500D02*X299750D01*
X297500Y354750D02*X298250Y355500D01*
X297500Y354750D02*Y353250D01*
X298250Y352500D01*
X300500Y355500D02*Y353250D01*
X301250Y352500D01*
X298250D02*X299750D01*
X300500Y353250D01*
X303800Y358500D02*Y353250D01*
X304550Y352500D01*
X303050Y356250D02*X304550D01*
G54D78*X306050Y357000D02*Y356850D01*
G54D77*Y354750D02*Y352500D01*
X307550Y354750D02*Y353250D01*
Y354750D02*X308300Y355500D01*
X309800D01*
X310550Y354750D01*
Y353250D01*
X309800Y352500D02*X310550Y353250D01*
X308300Y352500D02*X309800D01*
X307550Y353250D02*X308300Y352500D01*
X313100Y354750D02*Y352500D01*
Y354750D02*X313850Y355500D01*
X314600D01*
X315350Y354750D01*
Y352500D01*
X312350Y355500D02*X313100Y354750D01*
X320600Y358500D02*Y352500D01*
X322550Y358500D02*X323600Y357450D01*
Y353550D01*
X322550Y352500D02*X323600Y353550D01*
X319850Y352500D02*X322550D01*
X319850Y358500D02*X322550D01*
X326150Y354750D02*Y352500D01*
Y354750D02*X326900Y355500D01*
X328400D01*
X325400D02*X326150Y354750D01*
X332450Y355500D02*X333200Y354750D01*
X330950Y355500D02*X332450D01*
X330200Y354750D02*X330950Y355500D01*
X330200Y354750D02*Y353250D01*
X330950Y352500D01*
X333200Y355500D02*Y353250D01*
X333950Y352500D01*
X330950D02*X332450D01*
X333200Y353250D01*
X335750Y355500D02*Y353250D01*
X336500Y352500D01*
X337250D01*
X338000Y353250D01*
Y355500D02*Y353250D01*
X338750Y352500D01*
X339500D01*
X340250Y353250D01*
Y355500D02*Y353250D01*
G54D78*X342050Y357000D02*Y356850D01*
G54D77*Y354750D02*Y352500D01*
X344300Y354750D02*Y352500D01*
Y354750D02*X345050Y355500D01*
X345800D01*
X346550Y354750D01*
Y352500D01*
X343550Y355500D02*X344300Y354750D01*
X350600Y355500D02*X351350Y354750D01*
X349100Y355500D02*X350600D01*
X348350Y354750D02*X349100Y355500D01*
X348350Y354750D02*Y353250D01*
X349100Y352500D01*
X350600D01*
X351350Y353250D01*
X348350Y351000D02*X349100Y350250D01*
X350600D01*
X351350Y351000D01*
Y355500D02*Y351000D01*
M02*
