M48
INCH
T52C0.035
T51C0.020
%
T51
X001790Y024762
X007790Y027762
X010000Y028650
X008800Y026500
X008800Y024550
X006850Y024550
X007850Y024550
X009800Y022150
T52
X002590Y027562
X001690Y027562
X003590Y027562
X005590Y027562
X003590Y024762
X004590Y025462
X006190Y028162
X007690Y028662
X008490Y022462
X005590Y024062
X007800Y025750
X002600Y022072
X005590Y021762
X003590Y022062
X001590Y021762
M30
