G04 start of page 5 for group 3 idx 3 *
G04 Title: (unknown), bottom *
G04 Creator: pcb 20110918 *
G04 CreationDate: Tue Nov 19 21:14:11 2013 UTC *
G04 For: fosse *
G04 Format: Gerber/RS-274X *
G04 PCB-Dimensions: 72000 152000 *
G04 PCB-Coordinate-Origin: lower left *
%MOIN*%
%FSLAX25Y25*%
%LNBOTTOM*%
%ADD40C,0.0354*%
%ADD39C,0.1160*%
%ADD38C,0.0360*%
%ADD37R,0.0197X0.0197*%
%ADD36R,0.0197X0.0197*%
%ADD35R,0.0197X0.0197*%
%ADD34C,0.0494*%
%ADD33C,0.2700*%
%ADD32C,0.0200*%
%ADD31C,0.0001*%
G54D31*G36*
X3000Y149000D02*X69000D01*
Y139500D01*
X3000D01*
Y149000D01*
G37*
G54D32*X33800Y120400D02*Y124700D01*
X37900Y128800D01*
Y135400D01*
X36000Y137300D01*
X21800D01*
X18000Y133500D01*
X17100Y127700D02*X20700D01*
X24800Y131800D01*
X26000Y133500D02*Y133000D01*
X24100Y131100D01*
X10300Y120900D02*X17100Y127700D01*
X7700Y143000D02*X53900D01*
X58200Y138700D01*
Y126700D01*
X54000Y122500D01*
X66000Y111600D02*X58825D01*
X58087Y112338D01*
X54937D02*Y115937D01*
X56200Y117200D01*
X64600D01*
X52900Y103300D02*X66800D01*
X51800Y109400D02*X54300Y106900D01*
X62200D01*
X48638Y112338D02*Y107562D01*
X51787Y112338D02*X51800Y109400D01*
X45488Y112338D02*Y104912D01*
X47500Y102900D01*
X42339Y112338D02*Y102561D01*
X39189Y112338D02*Y100111D01*
X40600Y98700D01*
X48638Y107562D02*X52900Y103300D01*
X53100Y99600D02*X49400D01*
X48400Y98600D01*
X46300D01*
X42339Y102561D02*X46300Y98600D01*
X67100Y88200D02*X59076D01*
X58047Y89228D01*
X54897D02*Y92997D01*
X56400Y94500D01*
X58100D01*
X61100Y97500D01*
X67100D01*
X51748Y89228D02*Y94152D01*
X50700Y95200D01*
X13953Y89228D02*X13928D01*
X12300Y106600D02*X10300Y108600D01*
X12300Y106600D02*X24300D01*
X26600Y108900D01*
X25000Y117500D02*X30000Y122500D01*
X32850Y112298D02*X32890Y112338D01*
X32900Y112348D02*Y119500D01*
X20291Y112338D02*Y115991D01*
X21800Y117500D01*
X23441Y112338D02*Y115859D01*
X21800Y117500D01*
X25000D01*
X13992Y112338D02*Y116392D01*
Y116400D02*X14000D01*
X10300Y108700D02*Y120900D01*
X17142Y112338D02*Y116258D01*
X15500Y117900D01*
X14000Y116400D02*X15500Y117900D01*
Y119200D02*Y117900D01*
X16300Y117100D01*
X32900Y119500D02*X33800Y120400D01*
X26590Y112338D02*X26600Y108900D01*
X29740Y112338D02*Y106040D01*
X28600Y104900D01*
X23400Y99351D02*X26551Y96200D01*
X32850Y89228D02*Y112298D01*
X29700Y89228D02*Y98700D01*
X28800Y99600D01*
X26551Y96200D02*Y90800D01*
X36039Y112338D02*Y96361D01*
X26551Y89228D02*Y95149D01*
X23401Y89228D02*Y94799D01*
X20251Y89228D02*Y93749D01*
X17102Y89228D02*Y92598D01*
X23400Y101600D02*Y99351D01*
X18900Y102600D02*Y99301D01*
X23401Y94800D01*
X20251Y93749D02*X14400Y99600D01*
Y102800D01*
X17102Y92598D02*X9700Y100000D01*
Y102600D01*
X9600Y102700D01*
X4700Y90900D02*Y140000D01*
X7700Y143000D01*
X36039Y96361D02*X36600Y95800D01*
X36000Y89228D02*Y84900D01*
X39150Y89228D02*Y83450D01*
X36100Y80400D01*
X36000Y84900D02*X34700Y83600D01*
X49998Y82800D02*X48598Y84200D01*
Y89228D01*
X42299Y89228D02*Y81399D01*
Y81400D02*Y74801D01*
X42300Y74800D01*
X45448Y89228D02*Y77852D01*
X34700Y83600D02*X30200D01*
X26500Y79900D01*
X20100D01*
X19000Y78800D01*
X13928Y89228D02*X12400Y87700D01*
X7900D01*
X4700Y90900D01*
X19000Y78800D02*Y74600D01*
X16400Y72000D02*X8000D01*
X5400Y69400D01*
X23000Y69300D02*X16800D01*
X14900Y67400D01*
X19000Y74600D02*X16400Y72000D01*
X5400Y69400D02*Y63000D01*
X14900Y67400D02*Y61800D01*
X36100Y80400D02*X30700D01*
X26800Y76500D01*
Y73100D01*
X23000Y69300D01*
X5400Y63000D02*X10700Y57700D01*
Y50600D01*
X6500Y46400D01*
Y40900D01*
X8700Y38700D01*
X14900Y61800D02*X19400Y57300D01*
Y51300D01*
X8700Y38700D02*X54900D01*
X56800Y40600D01*
Y54300D01*
X19400Y51300D02*X28300Y42400D01*
X45200D01*
X52400Y49600D01*
X56800Y54300D02*X57000Y54500D01*
X52400Y49600D02*Y57200D01*
X54800Y59600D01*
X58600D01*
X61100Y57100D01*
Y43600D01*
X61000Y43500D01*
X62900Y36700D02*X63500D01*
X67100Y40300D01*
Y48700D01*
X68500Y50100D01*
Y70900D01*
X69100Y71500D01*
Y80800D01*
X67100Y82800D01*
X49998D01*
X45448Y77852D02*X52100Y71200D01*
X55300D01*
X61000Y65500D01*
G54D33*X36000Y58000D03*
G54D34*X62575Y93205D03*
X9425D03*
G54D35*X36000Y91040D02*Y87416D01*
G54D36*X39150Y91039D02*Y87417D01*
X42299Y91039D02*Y87417D01*
G54D37*X45448Y91040D02*Y87417D01*
X48598Y91040D02*Y87417D01*
G54D36*X51748Y91039D02*Y87417D01*
G54D37*X54897Y91040D02*Y87417D01*
X58047Y91040D02*Y87417D01*
G54D36*X13953Y91039D02*Y87417D01*
X17102Y91039D02*Y87417D01*
G54D37*X20251Y91040D02*Y87417D01*
X23401Y91040D02*Y87417D01*
G54D36*X26551Y91039D02*Y87417D01*
G54D37*X29700Y91040D02*Y87417D01*
X32850Y91040D02*Y87417D01*
G54D36*X42339Y114149D02*Y110527D01*
G54D35*X45488Y114150D02*Y110526D01*
G54D36*X48638Y114149D02*Y110527D01*
X51787Y114149D02*Y110527D01*
G54D35*X54937Y114150D02*Y110526D01*
G54D36*X58087Y114149D02*Y110527D01*
X17142Y114149D02*Y110527D01*
G54D35*X20291Y114150D02*Y110526D01*
G54D36*X23441Y114149D02*Y110527D01*
X26590Y114149D02*Y110527D01*
G54D37*X36039Y114150D02*Y110527D01*
G54D36*X32890Y114149D02*Y110527D01*
G54D37*X39189Y114150D02*Y110527D01*
X13992Y114150D02*Y110527D01*
G54D35*X29740Y114150D02*Y110526D01*
G54D38*X30000Y122500D03*
X34000Y133500D03*
X26000D03*
X9600Y102700D03*
X14400Y102800D03*
X23400Y101600D03*
X18900Y102600D03*
X28800Y99600D03*
X28600Y104900D03*
X18000Y133500D03*
X22000Y122500D03*
X15500Y119200D03*
X11400Y127600D03*
X38000Y122500D03*
X46000D03*
X54000D03*
X50000Y133500D03*
X42000D03*
X66000Y111600D03*
X66800Y103300D03*
X67100Y88200D03*
Y97500D03*
X64600Y117200D03*
X62200Y106900D03*
X40600Y98700D03*
X36600Y95800D03*
X53100Y99600D03*
X50700Y95200D03*
X47500Y102900D03*
X65000Y76500D03*
X61000Y65500D03*
X53000D03*
X57000Y54500D03*
X65000D03*
X57000Y76500D03*
X53000Y43500D03*
X61000D03*
X62900Y36700D03*
X11000Y65500D03*
X19000D03*
X15000Y54500D03*
X7000D03*
X11000Y43500D03*
X19000D03*
X15000Y76500D03*
X14700Y83100D03*
X6700Y83900D03*
X24200Y83400D03*
X23000Y76500D03*
X42299Y74801D03*
G54D32*G54D39*G54D40*M02*
