G04 start of page 12 for group -4015 idx -4015 *
G04 Title: (unknown), toppaste *
G04 Creator: pcb 20110918 *
G04 CreationDate: Fri Sep 12 18:51:31 2014 UTC *
G04 For: fosse *
G04 Format: Gerber/RS-274X *
G04 PCB-Dimensions: 300000 300000 *
G04 PCB-Coordinate-Origin: lower left *
%MOIN*%
%FSLAX25Y25*%
%LNTOPPASTE*%
%ADD71R,0.0750X0.0750*%
%ADD70R,0.0340X0.0340*%
%ADD69R,0.0590X0.0590*%
%ADD68R,0.0591X0.0591*%
%ADD67R,0.0590X0.0590*%
%ADD66R,0.0512X0.0512*%
G54D66*X86359Y275014D02*Y274228D01*
X93445Y275014D02*Y274228D01*
X86359Y287014D02*Y286228D01*
X93445Y287014D02*Y286228D01*
X70816Y213014D02*Y212228D01*
X77902Y213014D02*Y212228D01*
X45816Y287014D02*Y286228D01*
X52902Y287014D02*Y286228D01*
G54D67*X26000Y266969D02*Y263031D01*
G54D68*X35842Y266969D02*Y263032D01*
G54D67*X45684Y266969D02*Y263031D01*
G54D68*X55527Y266969D02*Y263032D01*
G54D67*X26000Y232521D02*Y228583D01*
G54D68*X35842Y232520D02*Y228584D01*
G54D67*X45684Y232521D02*Y228583D01*
G54D68*X55527Y232520D02*Y228584D01*
G54D69*X26164Y249783D02*Y245459D01*
G54D66*X27359Y287014D02*Y286228D01*
X34445Y287014D02*Y286228D01*
X12509Y254078D02*X13295D01*
X12509Y261164D02*X13295D01*
X13147Y224716D02*X18657D01*
X13147Y236526D02*X18657D01*
G54D70*X78102Y265221D02*Y264921D01*
X77802Y272021D02*X78402D01*
X69602D02*X70202D01*
X69602Y264621D02*X70202D01*
X77902Y225771D02*Y225471D01*
X77602Y232571D02*X78202D01*
X69402D02*X70002D01*
X69402Y225171D02*X70002D01*
G54D71*X96750Y260250D02*X99250D01*
X96750Y250250D02*X99250D01*
X96750Y240250D02*X99250D01*
X96750Y230250D02*X99250D01*
M02*
