M48
INCH
T55C0.020
T54C0.089
T53C0.035
T52C0.116
%
T55
X003090Y013250
X003490Y014350
X002690Y014350
X001050Y011270
X001530Y011280
X002430Y011160
X001980Y011260
X002970Y010960
X002950Y011490
X001890Y014350
X002290Y013250
X001640Y012920
X001230Y013760
X000880Y015440
X002410Y015450
X003890Y013250
X004690Y013250
X005490Y013250
X005090Y014350
X005200Y015450
X004290Y014350
X004320Y008480
X006690Y012160
X006770Y011330
X006800Y009820
X006800Y010750
X006550Y012720
X006630Y015450
X006310Y011690
X004840Y011290
X004150Y010870
X003750Y010580
X005400Y010960
X005160Y010520
X006590Y008650
X006190Y007550
X005390Y007550
X005790Y006450
X006590Y006450
X005790Y008650
X005390Y005350
X006190Y005350
X006380Y004670
X001190Y007550
X001990Y007550
X001590Y008650
X001590Y006450
X000790Y006450
X001190Y005350
X001990Y005350
X001560Y009310
X000760Y009390
X002510Y009340
X002390Y008650
T53
X006348Y010320
X001032Y010320
T54
X005990Y002580
X001440Y002580
T52
X003690Y006800
M30
