G04 start of page 10 for group -4079 idx -4079 *
G04 Title: (unknown), topsilk *
G04 Creator: pcb 20110918 *
G04 CreationDate: Fri Sep 12 16:05:54 2014 UTC *
G04 For: fosse *
G04 Format: Gerber/RS-274X *
G04 PCB-Dimensions: 300000 300000 *
G04 PCB-Coordinate-Origin: lower left *
%MOIN*%
%FSLAX25Y25*%
%LNTOPSILK*%
%ADD64C,0.0130*%
%ADD63C,0.0100*%
G54D63*X21902Y215621D02*Y211621D01*
X23902D01*
X25102Y213821D02*X26602D01*
X25102Y211621D02*X27102D01*
X25102Y215621D02*Y211621D01*
Y215621D02*X27102D01*
X28302D02*Y211621D01*
Y215621D02*X30302D01*
X28302Y213821D02*X29802D01*
X31502Y215621D02*X33502D01*
X32502D02*Y211621D01*
X38502Y215621D02*X39002Y215121D01*
X37002Y215621D02*X38502D01*
X36502Y215121D02*X37002Y215621D01*
X36502Y215121D02*Y214121D01*
X37002Y213621D01*
X38502D01*
X39002Y213121D01*
Y212121D01*
X38502Y211621D02*X39002Y212121D01*
X37002Y211621D02*X38502D01*
X36502Y212121D02*X37002Y211621D01*
X40202Y215621D02*X41202D01*
X40702D02*Y211621D01*
X40202D02*X41202D01*
X42902Y215621D02*Y211621D01*
X44202Y215621D02*X44902Y214921D01*
Y212321D01*
X44202Y211621D02*X44902Y212321D01*
X42402Y211621D02*X44202D01*
X42402Y215621D02*X44202D01*
X46102Y213821D02*X47602D01*
X46102Y211621D02*X48102D01*
X46102Y215621D02*Y211621D01*
Y215621D02*X48102D01*
X83500Y261700D02*X84300Y262500D01*
Y258500D01*
X83500D02*X85000D01*
X82500Y252000D02*X83000Y252500D01*
X84500D01*
X85000Y252000D01*
Y251000D01*
X82500Y248500D02*X85000Y251000D01*
X82500Y248500D02*X85000D01*
X82500Y230000D02*X84500Y232500D01*
X82500Y230000D02*X85000D01*
X84500Y232500D02*Y228500D01*
X83000Y242000D02*X83500Y242500D01*
X84500D01*
X85000Y242000D01*
X84500Y238500D02*X85000Y239000D01*
X83500Y238500D02*X84500D01*
X83000Y239000D02*X83500Y238500D01*
Y240700D02*X84500D01*
X85000Y242000D02*Y241200D01*
Y240200D02*Y239000D01*
Y240200D02*X84500Y240700D01*
X85000Y241200D02*X84500Y240700D01*
G54D64*X73966Y215376D02*X74752D01*
X73966Y209866D02*X74752D01*
X48966Y289376D02*X49752D01*
X48966Y283866D02*X49752D01*
G54D63*X31511Y240158D02*X50094D01*
Y254961D02*Y240158D01*
X31511Y254961D02*Y240158D01*
Y254961D02*X50094D01*
X33277Y247670D02*G75*G03X35245Y245702I1968J0D01*G01*
G75*G03X37213Y247670I0J1968D01*G01*
G75*G03X35245Y249638I-1968J0D01*G01*
G75*G03X33277Y247670I0J-1968D01*G01*
G54D64*X30509Y289376D02*X31295D01*
X30509Y283866D02*X31295D01*
G54D63*X66902Y222671D02*X80802D01*
Y235071D02*Y222671D01*
X66902Y235071D02*X80802D01*
X66902D02*Y222671D01*
G54D64*X89509Y277376D02*X90295D01*
X89509Y271866D02*X90295D01*
X89509Y289376D02*X90295D01*
X89509Y283866D02*X90295D01*
X10147Y258014D02*Y257228D01*
X15657Y258014D02*Y257228D01*
X10588Y232589D02*Y228653D01*
X21216Y232589D02*Y228653D01*
G54D63*X67102Y262121D02*X81002D01*
Y274521D02*Y262121D01*
X67102Y274521D02*X81002D01*
X67102D02*Y262121D01*
X42209Y294771D02*X44209D01*
X44709Y294271D01*
Y293271D01*
X44209Y292771D02*X44709Y293271D01*
X42709Y292771D02*X44209D01*
X42709Y294771D02*Y290771D01*
X43509Y292771D02*X44709Y290771D01*
X45909Y293971D02*X46709Y294771D01*
Y290771D01*
X45909D02*X47409D01*
X48609Y293971D02*X49409Y294771D01*
Y290771D01*
X48609D02*X50109D01*
X51309Y291271D02*X51809Y290771D01*
X51309Y294271D02*Y291271D01*
Y294271D02*X51809Y294771D01*
X52809D01*
X53309Y294271D01*
Y291271D01*
X52809Y290771D02*X53309Y291271D01*
X51809Y290771D02*X52809D01*
X51309Y291771D02*X53309Y293771D01*
X54509Y291271D02*X55009Y290771D01*
X54509Y294271D02*Y291271D01*
Y294271D02*X55009Y294771D01*
X56009D01*
X56509Y294271D01*
Y291271D01*
X56009Y290771D02*X56509Y291271D01*
X55009Y290771D02*X56009D01*
X54509Y291771D02*X56509Y293771D01*
X17536Y241726D02*X21536D01*
X17536D02*X19536Y243226D01*
X17536Y244726D01*
X21536D01*
X17536Y246926D02*Y245926D01*
Y246426D02*X21536D01*
Y246926D02*Y245926D01*
Y250126D02*Y248826D01*
X20836Y248126D02*X21536Y248826D01*
X18236Y248126D02*X20836D01*
X18236D02*X17536Y248826D01*
Y250126D02*Y248826D01*
X18336Y251326D02*X17536Y252126D01*
X21536D01*
Y252826D02*Y251326D01*
X18336Y254026D02*X17536Y254826D01*
X21536D01*
Y255526D02*Y254026D01*
X21036Y256726D02*X21536Y257226D01*
X18036Y256726D02*X21036D01*
X18036D02*X17536Y257226D01*
Y258226D02*Y257226D01*
Y258226D02*X18036Y258726D01*
X21036D01*
X21536Y258226D02*X21036Y258726D01*
X21536Y258226D02*Y257226D01*
X20536Y256726D02*X18536Y258726D01*
X18336Y259926D02*X17536Y260726D01*
X21536D01*
Y261426D02*Y259926D01*
X23752Y294771D02*X25752D01*
X26252Y294271D01*
Y293271D01*
X25752Y292771D02*X26252Y293271D01*
X24252Y292771D02*X25752D01*
X24252Y294771D02*Y290771D01*
X25052Y292771D02*X26252Y290771D01*
X27452Y293971D02*X28252Y294771D01*
Y290771D01*
X27452D02*X28952D01*
X30152Y293971D02*X30952Y294771D01*
Y290771D01*
X30152D02*X31652D01*
X32852Y291271D02*X33352Y290771D01*
X32852Y294271D02*Y291271D01*
Y294271D02*X33352Y294771D01*
X34352D01*
X34852Y294271D01*
Y291271D01*
X34352Y290771D02*X34852Y291271D01*
X33352Y290771D02*X34352D01*
X32852Y291771D02*X34852Y293771D01*
X36052Y292271D02*X38052Y294771D01*
X36052Y292271D02*X38552D01*
X38052Y294771D02*Y290771D01*
X82752Y282771D02*X84752D01*
X85252Y282271D01*
Y281271D01*
X84752Y280771D02*X85252Y281271D01*
X83252Y280771D02*X84752D01*
X83252Y282771D02*Y278771D01*
X84052Y280771D02*X85252Y278771D01*
X86452Y281971D02*X87252Y282771D01*
Y278771D01*
X86452D02*X87952D01*
X89152Y281971D02*X89952Y282771D01*
Y278771D01*
X89152D02*X90652D01*
X91852Y279271D02*X92352Y278771D01*
X91852Y282271D02*Y279271D01*
Y282271D02*X92352Y282771D01*
X93352D01*
X93852Y282271D01*
Y279271D01*
X93352Y278771D02*X93852Y279271D01*
X92352Y278771D02*X93352D01*
X91852Y279771D02*X93852Y281771D01*
X95052Y281971D02*X95852Y282771D01*
Y278771D01*
X95052D02*X96552D01*
X82752Y294771D02*X84752D01*
X85252Y294271D01*
Y293271D01*
X84752Y292771D02*X85252Y293271D01*
X83252Y292771D02*X84752D01*
X83252Y294771D02*Y290771D01*
X84052Y292771D02*X85252Y290771D01*
X86452Y293971D02*X87252Y294771D01*
Y290771D01*
X86452D02*X87952D01*
X89152Y293971D02*X89952Y294771D01*
Y290771D01*
X89152D02*X90652D01*
X91852Y291271D02*X92352Y290771D01*
X91852Y294271D02*Y291271D01*
Y294271D02*X92352Y294771D01*
X93352D01*
X93852Y294271D01*
Y291271D01*
X93352Y290771D02*X93852Y291271D01*
X92352Y290771D02*X93352D01*
X91852Y291771D02*X93852Y293771D01*
X95052Y294271D02*X95552Y294771D01*
X97052D01*
X97552Y294271D01*
Y293271D01*
X95052Y290771D02*X97552Y293271D01*
X95052Y290771D02*X97552D01*
X67209Y220771D02*X69209D01*
X69709Y220271D01*
Y219271D01*
X69209Y218771D02*X69709Y219271D01*
X67709Y218771D02*X69209D01*
X67709Y220771D02*Y216771D01*
X68509Y218771D02*X69709Y216771D01*
X70909Y219971D02*X71709Y220771D01*
Y216771D01*
X70909D02*X72409D01*
X73609Y219971D02*X74409Y220771D01*
Y216771D01*
X73609D02*X75109D01*
X76309Y217271D02*X76809Y216771D01*
X76309Y220271D02*Y217271D01*
Y220271D02*X76809Y220771D01*
X77809D01*
X78309Y220271D01*
Y217271D01*
X77809Y216771D02*X78309Y217271D01*
X76809Y216771D02*X77809D01*
X76309Y217771D02*X78309Y219771D01*
X79509Y220271D02*X80009Y220771D01*
X81009D01*
X81509Y220271D01*
X81009Y216771D02*X81509Y217271D01*
X80009Y216771D02*X81009D01*
X79509Y217271D02*X80009Y216771D01*
Y218971D02*X81009D01*
X81509Y220271D02*Y219471D01*
Y218471D02*Y217271D01*
Y218471D02*X81009Y218971D01*
X81509Y219471D02*X81009Y218971D01*
X91500Y235500D02*Y234200D01*
X90800Y233500D02*X91500Y234200D01*
X88200Y233500D02*X90800D01*
X88200D02*X87500Y234200D01*
Y235500D02*Y234200D01*
X88000Y236700D02*X91000D01*
X88000D02*X87500Y237200D01*
Y238200D02*Y237200D01*
Y238200D02*X88000Y238700D01*
X91000D01*
X91500Y238200D02*X91000Y238700D01*
X91500Y238200D02*Y237200D01*
X91000Y236700D02*X91500Y237200D01*
X87500Y239900D02*X91500D01*
X87500D02*X91500Y242400D01*
X87500D02*X91500D01*
X87500Y243600D02*X91500D01*
X87500D02*X91500Y246100D01*
X87500D02*X91500D01*
X88300Y247300D02*X87500Y248100D01*
X91500D01*
Y248800D02*Y247300D01*
X88300Y250000D02*X87500Y250800D01*
X91500D01*
Y251500D02*Y250000D01*
X91000Y252700D02*X91500Y253200D01*
X88000Y252700D02*X91000D01*
X88000D02*X87500Y253200D01*
Y254200D02*Y253200D01*
Y254200D02*X88000Y254700D01*
X91000D01*
X91500Y254200D02*X91000Y254700D01*
X91500Y254200D02*Y253200D01*
X90500Y252700D02*X88500Y254700D01*
X88000Y255900D02*X87500Y256400D01*
Y257400D02*Y256400D01*
Y257400D02*X88000Y257900D01*
X91500Y257400D02*X91000Y257900D01*
X91500Y257400D02*Y256400D01*
X91000Y255900D02*X91500Y256400D01*
X89300Y257400D02*Y256400D01*
X88000Y257900D02*X88800D01*
X89800D02*X91000D01*
X89800D02*X89300Y257400D01*
X88800Y257900D02*X89300Y257400D01*
X8752Y253471D02*Y252171D01*
X8052Y251471D02*X8752Y252171D01*
X5452Y251471D02*X8052D01*
X5452D02*X4752Y252171D01*
Y253471D02*Y252171D01*
X5552Y254671D02*X4752Y255471D01*
X8752D01*
Y256171D02*Y254671D01*
X5552Y257371D02*X4752Y258171D01*
X8752D01*
Y258871D02*Y257371D01*
X8252Y260071D02*X8752Y260571D01*
X5252Y260071D02*X8252D01*
X5252D02*X4752Y260571D01*
Y261571D02*Y260571D01*
Y261571D02*X5252Y262071D01*
X8252D01*
X8752Y261571D02*X8252Y262071D01*
X8752Y261571D02*Y260571D01*
X7752Y260071D02*X5752Y262071D01*
X7252Y263271D02*X4752Y265271D01*
X7252Y265771D02*Y263271D01*
X4752Y265271D02*X8752D01*
X9752Y225471D02*Y224171D01*
X9052Y223471D02*X9752Y224171D01*
X6452Y223471D02*X9052D01*
X6452D02*X5752Y224171D01*
Y225471D02*Y224171D01*
X6552Y226671D02*X5752Y227471D01*
X9752D01*
Y228171D02*Y226671D01*
X6552Y229371D02*X5752Y230171D01*
X9752D01*
Y230871D02*Y229371D01*
X9252Y232071D02*X9752Y232571D01*
X6252Y232071D02*X9252D01*
X6252D02*X5752Y232571D01*
Y233571D02*Y232571D01*
Y233571D02*X6252Y234071D01*
X9252D01*
X9752Y233571D02*X9252Y234071D01*
X9752Y233571D02*Y232571D01*
X8752Y232071D02*X6752Y234071D01*
X6252Y235271D02*X5752Y235771D01*
Y236771D02*Y235771D01*
Y236771D02*X6252Y237271D01*
X9752Y236771D02*X9252Y237271D01*
X9752Y236771D02*Y235771D01*
X9252Y235271D02*X9752Y235771D01*
X7552Y236771D02*Y235771D01*
X6252Y237271D02*X7052D01*
X8052D02*X9252D01*
X8052D02*X7552Y236771D01*
X7052Y237271D02*X7552Y236771D01*
X67602Y281121D02*Y277121D01*
X68902Y281121D02*X69602Y280421D01*
Y277821D01*
X68902Y277121D02*X69602Y277821D01*
X67102Y277121D02*X68902D01*
X67102Y281121D02*X68902D01*
X70802Y280321D02*X71602Y281121D01*
Y277121D01*
X70802D02*X72302D01*
X73502Y280321D02*X74302Y281121D01*
Y277121D01*
X73502D02*X75002D01*
X76202Y277621D02*X76702Y277121D01*
X76202Y280621D02*Y277621D01*
Y280621D02*X76702Y281121D01*
X77702D01*
X78202Y280621D01*
Y277621D01*
X77702Y277121D02*X78202Y277621D01*
X76702Y277121D02*X77702D01*
X76202Y278121D02*X78202Y280121D01*
X79402Y280321D02*X80202Y281121D01*
Y277121D01*
X79402D02*X80902D01*
X67402Y240671D02*Y236671D01*
X68702Y240671D02*X69402Y239971D01*
Y237371D01*
X68702Y236671D02*X69402Y237371D01*
X66902Y236671D02*X68702D01*
X66902Y240671D02*X68702D01*
X70602Y239871D02*X71402Y240671D01*
Y236671D01*
X70602D02*X72102D01*
X73302Y239871D02*X74102Y240671D01*
Y236671D01*
X73302D02*X74802D01*
X76002Y237171D02*X76502Y236671D01*
X76002Y240171D02*Y237171D01*
Y240171D02*X76502Y240671D01*
X77502D01*
X78002Y240171D01*
Y237171D01*
X77502Y236671D02*X78002Y237171D01*
X76502Y236671D02*X77502D01*
X76002Y237671D02*X78002Y239671D01*
X79202Y237171D02*X79702Y236671D01*
X79202Y240171D02*Y237171D01*
Y240171D02*X79702Y240671D01*
X80702D01*
X81202Y240171D01*
Y237171D01*
X80702Y236671D02*X81202Y237171D01*
X79702Y236671D02*X80702D01*
X79202Y237671D02*X81202Y239671D01*
M02*
