G04 start of page 5 for group 3 idx 3 *
G04 Title: (unknown), right *
G04 Creator: pcb 20110918 *
G04 CreationDate: Fri Sep 12 16:05:54 2014 UTC *
G04 For: fosse *
G04 Format: Gerber/RS-274X *
G04 PCB-Dimensions: 300000 300000 *
G04 PCB-Coordinate-Origin: lower left *
%MOIN*%
%FSLAX25Y25*%
%LNBOTTOM*%
%ADD49C,0.0350*%
%ADD48C,0.0200*%
%ADD47C,0.0410*%
%ADD46C,0.0600*%
%ADD45C,0.0460*%
%ADD44R,0.0750X0.0750*%
%ADD43R,0.0591X0.0591*%
%ADD42R,0.0590X0.0590*%
%ADD41R,0.0590X0.0590*%
%ADD40C,0.0250*%
%ADD39C,0.0400*%
G54D39*X26000Y230242D02*Y220719D01*
X35842Y230241D02*X35902Y220621D01*
X55527Y230241D02*Y217996D01*
G54D40*X45684Y230552D02*Y217839D01*
X51902Y211621D01*
X59902D01*
X61902Y213621D01*
G54D39*X17902Y247621D02*X26164D01*
X26000Y264690D02*X22833D01*
X16902Y270621D01*
Y275621D01*
G54D40*X35902Y247621D02*Y264630D01*
X35842Y264690D01*
X45902Y254621D02*Y264472D01*
X45684Y264690D01*
G54D39*X55527Y217996D02*X55902Y217621D01*
G54D40*Y240621D02*Y264315D01*
X55527Y264690D01*
X61902Y213621D02*Y281621D01*
X35902Y265621D02*Y267621D01*
X62152Y250250D02*X61902Y250000D01*
X35902Y267621D02*X55902Y287621D01*
X64902D01*
X68902Y283621D01*
Y279621D01*
X70902Y277621D01*
X77902D01*
X98000Y250250D02*X62152D01*
X97750Y240000D02*X98000Y240250D01*
X68500Y245500D02*X74000Y240000D01*
X97750D01*
X98000Y230250D02*Y221500D01*
G54D41*X26000Y266659D02*Y262721D01*
Y232211D02*Y228273D01*
G54D42*X26164Y249783D02*Y245459D01*
G54D43*X35842Y232210D02*Y228273D01*
Y266658D02*Y262722D01*
G54D41*X45684Y232211D02*Y228273D01*
Y266659D02*Y262721D01*
G54D43*X55527Y232210D02*Y228273D01*
Y266658D02*Y262722D01*
G54D44*X96750Y260250D02*X99250D01*
X96750Y250250D02*X99250D01*
X96750Y240250D02*X99250D01*
X96750Y230250D02*X99250D01*
G54D45*X17902Y247621D03*
G54D46*X25902Y275621D03*
X16902D03*
X35902D03*
X55902D03*
X35902Y247621D03*
X45902Y254621D03*
X61902Y281621D03*
G54D47*X77902Y277621D03*
G54D46*X76902Y286621D03*
G54D45*X100000Y286500D03*
G54D46*X84902Y224621D03*
G54D47*X88000Y265000D03*
Y245500D03*
G54D46*X55902Y240621D03*
G54D47*X68500Y245500D03*
G54D46*X78000Y257500D03*
G54D47*X78500Y245500D03*
G54D46*X26000Y220719D03*
X55902Y217621D03*
X35902Y220621D03*
G54D47*X98000Y221500D03*
G54D46*X15902Y217621D03*
G54D48*G54D49*G54D48*G54D49*G54D48*G54D49*G54D48*G54D49*G54D48*G54D49*G54D48*G54D49*G54D48*G54D49*M02*
