G04 start of page 4 for group 2 idx 2 *
G04 Title: (unknown), gnd *
G04 Creator: pcb 20110918 *
G04 CreationDate: Fri Sep 12 18:51:31 2014 UTC *
G04 For: fosse *
G04 Format: Gerber/RS-274X *
G04 PCB-Dimensions: 300000 300000 *
G04 PCB-Coordinate-Origin: lower left *
%MOIN*%
%FSLAX25Y25*%
%LNGROUP2*%
%ADD38C,0.0350*%
%ADD37C,0.0200*%
%ADD36C,0.0410*%
%ADD35C,0.0600*%
%ADD34C,0.0460*%
%ADD33C,0.0400*%
%ADD32C,0.0001*%
G54D32*G36*
X97995Y253253D02*X102038Y257296D01*
X102128Y257372D01*
X102434Y257731D01*
X102435Y257731D01*
X102681Y258134D01*
X102862Y258570D01*
X102972Y259029D01*
X103009Y259500D01*
X103000Y259618D01*
Y285119D01*
X103148Y285477D01*
X103269Y285982D01*
X103300Y286500D01*
X103287Y286713D01*
X104000Y286000D01*
Y220000D01*
X103000Y219000D01*
Y216000D01*
X100000Y213000D01*
X97995D01*
Y218441D01*
X98000Y218441D01*
X98479Y218478D01*
X98945Y218590D01*
X99389Y218774D01*
X99798Y219025D01*
X100163Y219337D01*
X100475Y219702D01*
X100726Y220111D01*
X100910Y220555D01*
X101022Y221021D01*
X101050Y221500D01*
X101022Y221979D01*
X100910Y222445D01*
X100726Y222889D01*
X100475Y223298D01*
X100163Y223663D01*
X99798Y223975D01*
X99389Y224226D01*
X98945Y224410D01*
X98479Y224522D01*
X98000Y224559D01*
X97995Y224559D01*
Y253253D01*
G37*
G36*
X87995Y250000D02*X93382D01*
X93500Y249991D01*
X93971Y250028D01*
X93971Y250028D01*
X94430Y250138D01*
X94866Y250319D01*
X95269Y250565D01*
X95628Y250872D01*
X95704Y250962D01*
X97995Y253253D01*
Y224559D01*
X97521Y224522D01*
X97055Y224410D01*
X96611Y224226D01*
X96202Y223975D01*
X95837Y223663D01*
X95525Y223298D01*
X95274Y222889D01*
X95090Y222445D01*
X94978Y221979D01*
X94941Y221500D01*
X94978Y221021D01*
X95090Y220555D01*
X95274Y220111D01*
X95525Y219702D01*
X95837Y219337D01*
X96202Y219025D01*
X96611Y218774D01*
X97055Y218590D01*
X97521Y218478D01*
X97995Y218441D01*
Y213000D01*
X97000D01*
X94000Y210000D01*
X87995D01*
Y222444D01*
X88038Y222447D01*
X88115Y222463D01*
X88189Y222491D01*
X88257Y222530D01*
X88318Y222579D01*
X88371Y222638D01*
X88413Y222704D01*
X88576Y223029D01*
X88705Y223369D01*
X88803Y223719D01*
X88869Y224077D01*
X88902Y224439D01*
Y224803D01*
X88869Y225165D01*
X88803Y225523D01*
X88705Y225873D01*
X88576Y226213D01*
X88417Y226540D01*
X88374Y226606D01*
X88321Y226665D01*
X88259Y226715D01*
X88190Y226754D01*
X88116Y226782D01*
X88039Y226798D01*
X87995Y226801D01*
Y242441D01*
X88000Y242441D01*
X88479Y242478D01*
X88945Y242590D01*
X89389Y242774D01*
X89798Y243025D01*
X90163Y243337D01*
X90475Y243702D01*
X90726Y244111D01*
X90910Y244555D01*
X91022Y245021D01*
X91050Y245500D01*
X91022Y245979D01*
X90910Y246445D01*
X90726Y246889D01*
X90475Y247298D01*
X90163Y247663D01*
X89798Y247975D01*
X89389Y248226D01*
X88945Y248410D01*
X88479Y248522D01*
X88000Y248559D01*
X87995Y248559D01*
Y250000D01*
G37*
G36*
X84904Y247661D02*X87243Y250000D01*
X87995D01*
Y248559D01*
X87521Y248522D01*
X87055Y248410D01*
X86611Y248226D01*
X86202Y247975D01*
X85837Y247663D01*
X85525Y247298D01*
X85274Y246889D01*
X85090Y246445D01*
X84978Y245979D01*
X84941Y245500D01*
X84978Y245021D01*
X85090Y244555D01*
X85274Y244111D01*
X85525Y243702D01*
X85837Y243337D01*
X86202Y243025D01*
X86611Y242774D01*
X87055Y242590D01*
X87521Y242478D01*
X87995Y242441D01*
Y226801D01*
X87960Y226802D01*
X87881Y226794D01*
X87805Y226773D01*
X87732Y226741D01*
X87666Y226698D01*
X87607Y226645D01*
X87558Y226583D01*
X87518Y226514D01*
X87490Y226440D01*
X87474Y226363D01*
X87470Y226284D01*
X87478Y226205D01*
X87499Y226128D01*
X87532Y226057D01*
X87655Y225814D01*
X87752Y225559D01*
X87825Y225297D01*
X87874Y225029D01*
X87899Y224757D01*
Y224485D01*
X87874Y224213D01*
X87825Y223945D01*
X87752Y223683D01*
X87655Y223428D01*
X87535Y223184D01*
X87502Y223112D01*
X87481Y223036D01*
X87473Y222958D01*
X87477Y222880D01*
X87493Y222803D01*
X87521Y222729D01*
X87560Y222661D01*
X87609Y222600D01*
X87668Y222547D01*
X87734Y222504D01*
X87806Y222472D01*
X87882Y222451D01*
X87960Y222443D01*
X87995Y222444D01*
Y210000D01*
X84904D01*
Y220621D01*
X85084D01*
X85446Y220654D01*
X85804Y220720D01*
X86154Y220818D01*
X86494Y220947D01*
X86821Y221106D01*
X86887Y221149D01*
X86946Y221202D01*
X86996Y221264D01*
X87035Y221333D01*
X87063Y221407D01*
X87079Y221484D01*
X87083Y221563D01*
X87075Y221642D01*
X87054Y221718D01*
X87022Y221791D01*
X86979Y221857D01*
X86926Y221916D01*
X86864Y221965D01*
X86795Y222005D01*
X86721Y222033D01*
X86644Y222049D01*
X86565Y222053D01*
X86486Y222045D01*
X86409Y222024D01*
X86338Y221991D01*
X86095Y221868D01*
X85840Y221771D01*
X85578Y221698D01*
X85310Y221649D01*
X85038Y221624D01*
X84904D01*
Y227618D01*
X85038D01*
X85310Y227593D01*
X85578Y227544D01*
X85840Y227471D01*
X86095Y227374D01*
X86339Y227254D01*
X86411Y227221D01*
X86486Y227200D01*
X86565Y227192D01*
X86643Y227196D01*
X86720Y227212D01*
X86794Y227240D01*
X86862Y227279D01*
X86923Y227328D01*
X86976Y227387D01*
X87019Y227453D01*
X87051Y227525D01*
X87072Y227601D01*
X87080Y227679D01*
X87076Y227757D01*
X87060Y227834D01*
X87032Y227908D01*
X86993Y227976D01*
X86944Y228037D01*
X86885Y228090D01*
X86819Y228132D01*
X86494Y228295D01*
X86154Y228424D01*
X85804Y228522D01*
X85446Y228588D01*
X85084Y228621D01*
X84904D01*
Y247661D01*
G37*
G36*
X81618Y244376D02*X84904Y247661D01*
Y228621D01*
X84720D01*
X84358Y228588D01*
X84000Y228522D01*
X83650Y228424D01*
X83310Y228295D01*
X82983Y228136D01*
X82917Y228093D01*
X82858Y228040D01*
X82808Y227978D01*
X82769Y227909D01*
X82741Y227835D01*
X82725Y227758D01*
X82721Y227679D01*
X82729Y227600D01*
X82750Y227524D01*
X82782Y227451D01*
X82825Y227385D01*
X82878Y227326D01*
X82940Y227277D01*
X83009Y227237D01*
X83083Y227209D01*
X83160Y227193D01*
X83239Y227189D01*
X83318Y227197D01*
X83395Y227218D01*
X83466Y227251D01*
X83709Y227374D01*
X83964Y227471D01*
X84226Y227544D01*
X84494Y227593D01*
X84766Y227618D01*
X84904D01*
Y221624D01*
X84766D01*
X84494Y221649D01*
X84226Y221698D01*
X83964Y221771D01*
X83709Y221868D01*
X83465Y221988D01*
X83393Y222021D01*
X83317Y222042D01*
X83239Y222050D01*
X83161Y222046D01*
X83084Y222030D01*
X83010Y222002D01*
X82942Y221963D01*
X82881Y221914D01*
X82828Y221855D01*
X82785Y221789D01*
X82753Y221717D01*
X82732Y221641D01*
X82724Y221563D01*
X82728Y221485D01*
X82744Y221408D01*
X82772Y221334D01*
X82811Y221266D01*
X82860Y221205D01*
X82919Y221152D01*
X82985Y221110D01*
X83310Y220947D01*
X83650Y220818D01*
X84000Y220720D01*
X84358Y220654D01*
X84720Y220621D01*
X84904D01*
Y210000D01*
X81618D01*
Y222486D01*
X81688Y222460D01*
X81765Y222444D01*
X81844Y222440D01*
X81923Y222448D01*
X81999Y222469D01*
X82072Y222501D01*
X82138Y222544D01*
X82197Y222597D01*
X82246Y222659D01*
X82286Y222728D01*
X82314Y222802D01*
X82330Y222879D01*
X82334Y222958D01*
X82326Y223037D01*
X82305Y223114D01*
X82272Y223185D01*
X82149Y223428D01*
X82052Y223683D01*
X81979Y223945D01*
X81930Y224213D01*
X81905Y224485D01*
Y224757D01*
X81930Y225029D01*
X81979Y225297D01*
X82052Y225559D01*
X82149Y225814D01*
X82269Y226058D01*
X82302Y226130D01*
X82323Y226206D01*
X82331Y226284D01*
X82327Y226362D01*
X82311Y226439D01*
X82283Y226513D01*
X82244Y226581D01*
X82195Y226642D01*
X82136Y226695D01*
X82070Y226738D01*
X81998Y226770D01*
X81922Y226791D01*
X81844Y226799D01*
X81766Y226795D01*
X81689Y226779D01*
X81618Y226752D01*
Y244376D01*
G37*
G36*
X77897Y242508D02*X78021Y242478D01*
X78500Y242441D01*
X78979Y242478D01*
X79445Y242590D01*
X79889Y242774D01*
X80298Y243025D01*
X80663Y243337D01*
X80975Y243702D01*
X81024Y243781D01*
X81618Y244376D01*
Y226752D01*
X81615Y226751D01*
X81547Y226712D01*
X81486Y226663D01*
X81433Y226604D01*
X81391Y226538D01*
X81228Y226213D01*
X81099Y225873D01*
X81001Y225523D01*
X80935Y225165D01*
X80902Y224803D01*
Y224439D01*
X80935Y224077D01*
X81001Y223719D01*
X81099Y223369D01*
X81228Y223029D01*
X81387Y222702D01*
X81430Y222636D01*
X81483Y222577D01*
X81545Y222527D01*
X81614Y222488D01*
X81618Y222486D01*
Y210000D01*
X77897D01*
Y242508D01*
G37*
G36*
X87995Y294000D02*X99000D01*
X102000Y291000D01*
Y289132D01*
X101946Y289178D01*
X101503Y289449D01*
X101023Y289648D01*
X100518Y289769D01*
X100000Y289810D01*
X99482Y289769D01*
X98977Y289648D01*
X98497Y289449D01*
X98054Y289178D01*
X97659Y288841D01*
X97322Y288446D01*
X97051Y288003D01*
X96852Y287523D01*
X96731Y287018D01*
X96690Y286500D01*
X96731Y285982D01*
X96852Y285477D01*
X97000Y285119D01*
Y260743D01*
X92257Y256000D01*
X87995D01*
Y261941D01*
X88000Y261941D01*
X88479Y261978D01*
X88945Y262090D01*
X89389Y262274D01*
X89798Y262525D01*
X90163Y262837D01*
X90475Y263202D01*
X90726Y263611D01*
X90910Y264055D01*
X91022Y264521D01*
X91050Y265000D01*
X91022Y265479D01*
X90910Y265945D01*
X90726Y266389D01*
X90475Y266798D01*
X90163Y267163D01*
X89798Y267475D01*
X89389Y267726D01*
X88945Y267910D01*
X88479Y268022D01*
X88000Y268059D01*
X87995Y268059D01*
Y294000D01*
G37*
G36*
X81284D02*X87995D01*
Y268059D01*
X87521Y268022D01*
X87055Y267910D01*
X86611Y267726D01*
X86202Y267475D01*
X85837Y267163D01*
X85525Y266798D01*
X85274Y266389D01*
X85090Y265945D01*
X84978Y265479D01*
X84941Y265000D01*
X84978Y264521D01*
X85090Y264055D01*
X85274Y263611D01*
X85525Y263202D01*
X85837Y262837D01*
X86202Y262525D01*
X86611Y262274D01*
X87055Y262090D01*
X87521Y261978D01*
X87995Y261941D01*
Y256000D01*
X86118D01*
X86000Y256009D01*
X85529Y255972D01*
X85070Y255862D01*
X84634Y255681D01*
X84231Y255435D01*
X84231Y255434D01*
X83872Y255128D01*
X83796Y255038D01*
X81284Y252526D01*
Y255369D01*
X81287Y255370D01*
X81355Y255409D01*
X81416Y255458D01*
X81469Y255517D01*
X81511Y255583D01*
X81674Y255908D01*
X81803Y256248D01*
X81901Y256598D01*
X81967Y256956D01*
X82000Y257318D01*
Y257682D01*
X81967Y258044D01*
X81901Y258402D01*
X81803Y258752D01*
X81674Y259092D01*
X81515Y259419D01*
X81472Y259485D01*
X81419Y259544D01*
X81357Y259594D01*
X81288Y259633D01*
X81284Y259635D01*
Y294000D01*
G37*
G36*
X77897D02*X81284D01*
Y259635D01*
X81214Y259661D01*
X81137Y259677D01*
X81058Y259681D01*
X80979Y259673D01*
X80903Y259652D01*
X80830Y259620D01*
X80764Y259577D01*
X80705Y259524D01*
X80656Y259462D01*
X80616Y259393D01*
X80588Y259319D01*
X80572Y259242D01*
X80568Y259163D01*
X80576Y259084D01*
X80597Y259007D01*
X80630Y258936D01*
X80753Y258693D01*
X80850Y258438D01*
X80923Y258176D01*
X80972Y257908D01*
X80997Y257636D01*
Y257364D01*
X80972Y257092D01*
X80923Y256824D01*
X80850Y256562D01*
X80753Y256307D01*
X80633Y256063D01*
X80600Y255991D01*
X80579Y255916D01*
X80571Y255837D01*
X80575Y255759D01*
X80591Y255682D01*
X80619Y255608D01*
X80658Y255540D01*
X80707Y255479D01*
X80766Y255426D01*
X80832Y255383D01*
X80904Y255351D01*
X80980Y255330D01*
X81058Y255322D01*
X81136Y255326D01*
X81213Y255342D01*
X81284Y255369D01*
Y252526D01*
X77897Y249140D01*
Y253500D01*
X78182D01*
X78544Y253533D01*
X78902Y253599D01*
X79252Y253697D01*
X79592Y253826D01*
X79919Y253985D01*
X79985Y254028D01*
X80044Y254081D01*
X80094Y254143D01*
X80133Y254212D01*
X80161Y254286D01*
X80177Y254363D01*
X80181Y254442D01*
X80173Y254521D01*
X80152Y254597D01*
X80120Y254670D01*
X80077Y254736D01*
X80024Y254795D01*
X79962Y254844D01*
X79893Y254884D01*
X79819Y254912D01*
X79742Y254928D01*
X79663Y254932D01*
X79584Y254924D01*
X79507Y254903D01*
X79436Y254870D01*
X79193Y254747D01*
X78938Y254650D01*
X78676Y254577D01*
X78408Y254528D01*
X78136Y254503D01*
X77897D01*
Y260497D01*
X78136D01*
X78408Y260472D01*
X78676Y260423D01*
X78938Y260350D01*
X79193Y260253D01*
X79437Y260133D01*
X79509Y260100D01*
X79584Y260079D01*
X79663Y260071D01*
X79741Y260075D01*
X79818Y260091D01*
X79892Y260119D01*
X79960Y260158D01*
X80021Y260207D01*
X80074Y260266D01*
X80117Y260332D01*
X80149Y260404D01*
X80170Y260480D01*
X80178Y260558D01*
X80174Y260636D01*
X80158Y260713D01*
X80130Y260787D01*
X80091Y260855D01*
X80042Y260916D01*
X79983Y260969D01*
X79917Y261011D01*
X79592Y261174D01*
X79252Y261303D01*
X78902Y261401D01*
X78544Y261467D01*
X78182Y261500D01*
X77897D01*
Y274562D01*
X77902Y274562D01*
X78381Y274599D01*
X78847Y274711D01*
X79291Y274895D01*
X79700Y275146D01*
X80065Y275458D01*
X80377Y275823D01*
X80628Y276232D01*
X80812Y276676D01*
X80924Y277142D01*
X80952Y277621D01*
X80924Y278100D01*
X80812Y278566D01*
X80628Y279010D01*
X80377Y279419D01*
X80065Y279784D01*
X79700Y280096D01*
X79291Y280347D01*
X78847Y280531D01*
X78381Y280643D01*
X77902Y280680D01*
X77897Y280680D01*
Y282746D01*
X78142Y282805D01*
X78724Y283046D01*
X79260Y283375D01*
X79739Y283784D01*
X80148Y284263D01*
X80477Y284799D01*
X80718Y285381D01*
X80865Y285993D01*
X80902Y286621D01*
X80865Y287249D01*
X80718Y287861D01*
X80477Y288443D01*
X80148Y288979D01*
X79739Y289458D01*
X79260Y289867D01*
X78724Y290196D01*
X78142Y290437D01*
X77897Y290496D01*
Y294000D01*
G37*
G36*
X74716Y283269D02*X75080Y283046D01*
X75662Y282805D01*
X76274Y282658D01*
X76902Y282609D01*
X77530Y282658D01*
X77897Y282746D01*
Y280680D01*
X77423Y280643D01*
X76957Y280531D01*
X76513Y280347D01*
X76104Y280096D01*
X75739Y279784D01*
X75427Y279419D01*
X75176Y279010D01*
X74992Y278566D01*
X74880Y278100D01*
X74843Y277621D01*
X74880Y277142D01*
X74992Y276676D01*
X75176Y276232D01*
X75427Y275823D01*
X75739Y275458D01*
X76104Y275146D01*
X76513Y274895D01*
X76957Y274711D01*
X77423Y274599D01*
X77897Y274562D01*
Y261500D01*
X77818D01*
X77456Y261467D01*
X77098Y261401D01*
X76748Y261303D01*
X76408Y261174D01*
X76081Y261015D01*
X76015Y260972D01*
X75956Y260919D01*
X75906Y260857D01*
X75867Y260788D01*
X75839Y260714D01*
X75823Y260637D01*
X75819Y260558D01*
X75827Y260479D01*
X75848Y260403D01*
X75880Y260330D01*
X75923Y260264D01*
X75976Y260205D01*
X76038Y260156D01*
X76107Y260116D01*
X76181Y260088D01*
X76258Y260072D01*
X76337Y260068D01*
X76416Y260076D01*
X76493Y260097D01*
X76564Y260130D01*
X76807Y260253D01*
X77062Y260350D01*
X77324Y260423D01*
X77592Y260472D01*
X77864Y260497D01*
X77897D01*
Y254503D01*
X77864D01*
X77592Y254528D01*
X77324Y254577D01*
X77062Y254650D01*
X76807Y254747D01*
X76563Y254867D01*
X76491Y254900D01*
X76415Y254921D01*
X76337Y254929D01*
X76259Y254925D01*
X76182Y254909D01*
X76108Y254881D01*
X76040Y254842D01*
X75979Y254793D01*
X75926Y254734D01*
X75883Y254668D01*
X75851Y254596D01*
X75830Y254520D01*
X75822Y254442D01*
X75826Y254364D01*
X75842Y254287D01*
X75870Y254213D01*
X75909Y254145D01*
X75958Y254084D01*
X76017Y254031D01*
X76083Y253989D01*
X76408Y253826D01*
X76748Y253697D01*
X77098Y253599D01*
X77456Y253533D01*
X77818Y253500D01*
X77897D01*
Y249140D01*
X76781Y248024D01*
X76702Y247975D01*
X76337Y247663D01*
X76025Y247298D01*
X75774Y246889D01*
X75590Y246445D01*
X75478Y245979D01*
X75441Y245500D01*
X75478Y245021D01*
X75590Y244555D01*
X75774Y244111D01*
X76025Y243702D01*
X76337Y243337D01*
X76702Y243025D01*
X77111Y242774D01*
X77555Y242590D01*
X77897Y242508D01*
Y210000D01*
X74716D01*
Y255365D01*
X74786Y255339D01*
X74863Y255323D01*
X74942Y255319D01*
X75021Y255327D01*
X75097Y255348D01*
X75170Y255380D01*
X75236Y255423D01*
X75295Y255476D01*
X75344Y255538D01*
X75384Y255607D01*
X75412Y255681D01*
X75428Y255758D01*
X75432Y255837D01*
X75424Y255916D01*
X75403Y255993D01*
X75370Y256064D01*
X75247Y256307D01*
X75150Y256562D01*
X75077Y256824D01*
X75028Y257092D01*
X75003Y257364D01*
Y257636D01*
X75028Y257908D01*
X75077Y258176D01*
X75150Y258438D01*
X75247Y258693D01*
X75367Y258937D01*
X75400Y259009D01*
X75421Y259085D01*
X75429Y259163D01*
X75425Y259241D01*
X75409Y259318D01*
X75381Y259392D01*
X75342Y259460D01*
X75293Y259521D01*
X75234Y259574D01*
X75168Y259617D01*
X75096Y259649D01*
X75020Y259670D01*
X74942Y259678D01*
X74864Y259674D01*
X74787Y259658D01*
X74716Y259631D01*
Y283269D01*
G37*
G36*
Y294000D02*X77897D01*
Y290496D01*
X77530Y290584D01*
X76902Y290633D01*
X76274Y290584D01*
X75662Y290437D01*
X75080Y290196D01*
X74716Y289973D01*
Y294000D01*
G37*
G36*
X68495D02*X74716D01*
Y289973D01*
X74544Y289867D01*
X74065Y289458D01*
X73656Y288979D01*
X73327Y288443D01*
X73086Y287861D01*
X72939Y287249D01*
X72890Y286621D01*
X72939Y285993D01*
X73086Y285381D01*
X73327Y284799D01*
X73656Y284263D01*
X74065Y283784D01*
X74544Y283375D01*
X74716Y283269D01*
Y259631D01*
X74713Y259630D01*
X74645Y259591D01*
X74584Y259542D01*
X74531Y259483D01*
X74489Y259417D01*
X74326Y259092D01*
X74197Y258752D01*
X74099Y258402D01*
X74033Y258044D01*
X74000Y257682D01*
Y257318D01*
X74033Y256956D01*
X74099Y256598D01*
X74197Y256248D01*
X74326Y255908D01*
X74485Y255581D01*
X74528Y255515D01*
X74581Y255456D01*
X74643Y255406D01*
X74712Y255367D01*
X74716Y255365D01*
Y210000D01*
X68495D01*
Y242441D01*
X68500Y242441D01*
X68979Y242478D01*
X69445Y242590D01*
X69889Y242774D01*
X70298Y243025D01*
X70663Y243337D01*
X70975Y243702D01*
X71226Y244111D01*
X71410Y244555D01*
X71522Y245021D01*
X71550Y245500D01*
X71522Y245979D01*
X71410Y246445D01*
X71226Y246889D01*
X70975Y247298D01*
X70663Y247663D01*
X70298Y247975D01*
X69889Y248226D01*
X69445Y248410D01*
X68979Y248522D01*
X68500Y248559D01*
X68495Y248559D01*
Y294000D01*
G37*
G36*
X59186D02*X68495D01*
Y248559D01*
X68021Y248522D01*
X67555Y248410D01*
X67111Y248226D01*
X66702Y247975D01*
X66337Y247663D01*
X66025Y247298D01*
X65774Y246889D01*
X65590Y246445D01*
X65478Y245979D01*
X65441Y245500D01*
X65478Y245021D01*
X65590Y244555D01*
X65774Y244111D01*
X66025Y243702D01*
X66337Y243337D01*
X66702Y243025D01*
X67111Y242774D01*
X67555Y242590D01*
X68021Y242478D01*
X68495Y242441D01*
Y210000D01*
X59186D01*
Y215490D01*
X59189Y215491D01*
X59257Y215530D01*
X59318Y215579D01*
X59371Y215638D01*
X59413Y215704D01*
X59576Y216029D01*
X59705Y216369D01*
X59803Y216719D01*
X59869Y217077D01*
X59902Y217439D01*
Y217803D01*
X59869Y218165D01*
X59803Y218523D01*
X59705Y218873D01*
X59576Y219213D01*
X59417Y219540D01*
X59374Y219606D01*
X59321Y219665D01*
X59259Y219715D01*
X59190Y219754D01*
X59186Y219756D01*
Y238324D01*
X59477Y238799D01*
X59718Y239381D01*
X59865Y239993D01*
X59902Y240621D01*
X59865Y241249D01*
X59718Y241861D01*
X59477Y242443D01*
X59186Y242918D01*
Y273490D01*
X59189Y273491D01*
X59257Y273530D01*
X59318Y273579D01*
X59371Y273638D01*
X59413Y273704D01*
X59576Y274029D01*
X59705Y274369D01*
X59803Y274719D01*
X59869Y275077D01*
X59902Y275439D01*
Y275803D01*
X59869Y276165D01*
X59803Y276523D01*
X59705Y276873D01*
X59576Y277213D01*
X59417Y277540D01*
X59374Y277606D01*
X59321Y277665D01*
X59259Y277715D01*
X59190Y277754D01*
X59186Y277756D01*
Y278681D01*
X59544Y278375D01*
X60080Y278046D01*
X60662Y277805D01*
X61274Y277658D01*
X61902Y277609D01*
X62530Y277658D01*
X63142Y277805D01*
X63724Y278046D01*
X64260Y278375D01*
X64739Y278784D01*
X65148Y279263D01*
X65477Y279799D01*
X65718Y280381D01*
X65865Y280993D01*
X65902Y281621D01*
X65865Y282249D01*
X65718Y282861D01*
X65477Y283443D01*
X65148Y283979D01*
X64739Y284458D01*
X64260Y284867D01*
X63724Y285196D01*
X63142Y285437D01*
X62530Y285584D01*
X61902Y285633D01*
X61274Y285584D01*
X60662Y285437D01*
X60080Y285196D01*
X59544Y284867D01*
X59186Y284561D01*
Y294000D01*
G37*
G36*
Y210000D02*X55904D01*
Y213621D01*
X56084D01*
X56446Y213654D01*
X56804Y213720D01*
X57154Y213818D01*
X57494Y213947D01*
X57821Y214106D01*
X57887Y214149D01*
X57946Y214202D01*
X57996Y214264D01*
X58035Y214333D01*
X58063Y214407D01*
X58079Y214484D01*
X58083Y214563D01*
X58075Y214642D01*
X58054Y214718D01*
X58022Y214791D01*
X57979Y214857D01*
X57926Y214916D01*
X57864Y214965D01*
X57795Y215005D01*
X57721Y215033D01*
X57644Y215049D01*
X57565Y215053D01*
X57486Y215045D01*
X57409Y215024D01*
X57338Y214991D01*
X57095Y214868D01*
X56840Y214771D01*
X56578Y214698D01*
X56310Y214649D01*
X56038Y214624D01*
X55904D01*
Y220618D01*
X56038D01*
X56310Y220593D01*
X56578Y220544D01*
X56840Y220471D01*
X57095Y220374D01*
X57339Y220254D01*
X57411Y220221D01*
X57486Y220200D01*
X57565Y220192D01*
X57643Y220196D01*
X57720Y220212D01*
X57794Y220240D01*
X57862Y220279D01*
X57923Y220328D01*
X57976Y220387D01*
X58019Y220453D01*
X58051Y220525D01*
X58072Y220601D01*
X58080Y220679D01*
X58076Y220757D01*
X58060Y220834D01*
X58032Y220908D01*
X57993Y220976D01*
X57944Y221037D01*
X57885Y221090D01*
X57819Y221132D01*
X57494Y221295D01*
X57154Y221424D01*
X56804Y221522D01*
X56446Y221588D01*
X56084Y221621D01*
X55904D01*
Y236609D01*
X56530Y236658D01*
X57142Y236805D01*
X57724Y237046D01*
X58260Y237375D01*
X58739Y237784D01*
X59148Y238263D01*
X59186Y238324D01*
Y219756D01*
X59116Y219782D01*
X59039Y219798D01*
X58960Y219802D01*
X58881Y219794D01*
X58805Y219773D01*
X58732Y219741D01*
X58666Y219698D01*
X58607Y219645D01*
X58558Y219583D01*
X58518Y219514D01*
X58490Y219440D01*
X58474Y219363D01*
X58470Y219284D01*
X58478Y219205D01*
X58499Y219128D01*
X58532Y219057D01*
X58655Y218814D01*
X58752Y218559D01*
X58825Y218297D01*
X58874Y218029D01*
X58899Y217757D01*
Y217485D01*
X58874Y217213D01*
X58825Y216945D01*
X58752Y216683D01*
X58655Y216428D01*
X58535Y216184D01*
X58502Y216112D01*
X58481Y216036D01*
X58473Y215958D01*
X58477Y215880D01*
X58493Y215803D01*
X58521Y215729D01*
X58560Y215661D01*
X58609Y215600D01*
X58668Y215547D01*
X58734Y215504D01*
X58806Y215472D01*
X58882Y215451D01*
X58960Y215443D01*
X59038Y215447D01*
X59115Y215463D01*
X59186Y215490D01*
Y210000D01*
G37*
G36*
X55904Y294000D02*X59186D01*
Y284561D01*
X59065Y284458D01*
X58656Y283979D01*
X58327Y283443D01*
X58086Y282861D01*
X57939Y282249D01*
X57890Y281621D01*
X57939Y280993D01*
X58086Y280381D01*
X58327Y279799D01*
X58656Y279263D01*
X59065Y278784D01*
X59186Y278681D01*
Y277756D01*
X59116Y277782D01*
X59039Y277798D01*
X58960Y277802D01*
X58881Y277794D01*
X58805Y277773D01*
X58732Y277741D01*
X58666Y277698D01*
X58607Y277645D01*
X58558Y277583D01*
X58518Y277514D01*
X58490Y277440D01*
X58474Y277363D01*
X58470Y277284D01*
X58478Y277205D01*
X58499Y277128D01*
X58532Y277057D01*
X58655Y276814D01*
X58752Y276559D01*
X58825Y276297D01*
X58874Y276029D01*
X58899Y275757D01*
Y275485D01*
X58874Y275213D01*
X58825Y274945D01*
X58752Y274683D01*
X58655Y274428D01*
X58535Y274184D01*
X58502Y274112D01*
X58481Y274036D01*
X58473Y273958D01*
X58477Y273880D01*
X58493Y273803D01*
X58521Y273729D01*
X58560Y273661D01*
X58609Y273600D01*
X58668Y273547D01*
X58734Y273504D01*
X58806Y273472D01*
X58882Y273451D01*
X58960Y273443D01*
X59038Y273447D01*
X59115Y273463D01*
X59186Y273490D01*
Y242918D01*
X59148Y242979D01*
X58739Y243458D01*
X58260Y243867D01*
X57724Y244196D01*
X57142Y244437D01*
X56530Y244584D01*
X55904Y244633D01*
Y271621D01*
X56084D01*
X56446Y271654D01*
X56804Y271720D01*
X57154Y271818D01*
X57494Y271947D01*
X57821Y272106D01*
X57887Y272149D01*
X57946Y272202D01*
X57996Y272264D01*
X58035Y272333D01*
X58063Y272407D01*
X58079Y272484D01*
X58083Y272563D01*
X58075Y272642D01*
X58054Y272718D01*
X58022Y272791D01*
X57979Y272857D01*
X57926Y272916D01*
X57864Y272965D01*
X57795Y273005D01*
X57721Y273033D01*
X57644Y273049D01*
X57565Y273053D01*
X57486Y273045D01*
X57409Y273024D01*
X57338Y272991D01*
X57095Y272868D01*
X56840Y272771D01*
X56578Y272698D01*
X56310Y272649D01*
X56038Y272624D01*
X55904D01*
Y278618D01*
X56038D01*
X56310Y278593D01*
X56578Y278544D01*
X56840Y278471D01*
X57095Y278374D01*
X57339Y278254D01*
X57411Y278221D01*
X57486Y278200D01*
X57565Y278192D01*
X57643Y278196D01*
X57720Y278212D01*
X57794Y278240D01*
X57862Y278279D01*
X57923Y278328D01*
X57976Y278387D01*
X58019Y278453D01*
X58051Y278525D01*
X58072Y278601D01*
X58080Y278679D01*
X58076Y278757D01*
X58060Y278834D01*
X58032Y278908D01*
X57993Y278976D01*
X57944Y279037D01*
X57885Y279090D01*
X57819Y279132D01*
X57494Y279295D01*
X57154Y279424D01*
X56804Y279522D01*
X56446Y279588D01*
X56084Y279621D01*
X55904D01*
Y294000D01*
G37*
G36*
X52618Y238324D02*X52656Y238263D01*
X53065Y237784D01*
X53544Y237375D01*
X54080Y237046D01*
X54662Y236805D01*
X55274Y236658D01*
X55902Y236609D01*
X55904Y236609D01*
Y221621D01*
X55720D01*
X55358Y221588D01*
X55000Y221522D01*
X54650Y221424D01*
X54310Y221295D01*
X53983Y221136D01*
X53917Y221093D01*
X53858Y221040D01*
X53808Y220978D01*
X53769Y220909D01*
X53741Y220835D01*
X53725Y220758D01*
X53721Y220679D01*
X53729Y220600D01*
X53750Y220524D01*
X53782Y220451D01*
X53825Y220385D01*
X53878Y220326D01*
X53940Y220277D01*
X54009Y220237D01*
X54083Y220209D01*
X54160Y220193D01*
X54239Y220189D01*
X54318Y220197D01*
X54395Y220218D01*
X54466Y220251D01*
X54709Y220374D01*
X54964Y220471D01*
X55226Y220544D01*
X55494Y220593D01*
X55766Y220618D01*
X55904D01*
Y214624D01*
X55766D01*
X55494Y214649D01*
X55226Y214698D01*
X54964Y214771D01*
X54709Y214868D01*
X54465Y214988D01*
X54393Y215021D01*
X54317Y215042D01*
X54239Y215050D01*
X54161Y215046D01*
X54084Y215030D01*
X54010Y215002D01*
X53942Y214963D01*
X53881Y214914D01*
X53828Y214855D01*
X53785Y214789D01*
X53753Y214717D01*
X53732Y214641D01*
X53724Y214563D01*
X53728Y214485D01*
X53744Y214408D01*
X53772Y214334D01*
X53811Y214266D01*
X53860Y214205D01*
X53919Y214152D01*
X53985Y214110D01*
X54310Y213947D01*
X54650Y213818D01*
X55000Y213720D01*
X55358Y213654D01*
X55720Y213621D01*
X55904D01*
Y210000D01*
X52618D01*
Y215486D01*
X52688Y215460D01*
X52765Y215444D01*
X52844Y215440D01*
X52923Y215448D01*
X52999Y215469D01*
X53072Y215501D01*
X53138Y215544D01*
X53197Y215597D01*
X53246Y215659D01*
X53286Y215728D01*
X53314Y215802D01*
X53330Y215879D01*
X53334Y215958D01*
X53326Y216037D01*
X53305Y216114D01*
X53272Y216185D01*
X53149Y216428D01*
X53052Y216683D01*
X52979Y216945D01*
X52930Y217213D01*
X52905Y217485D01*
Y217757D01*
X52930Y218029D01*
X52979Y218297D01*
X53052Y218559D01*
X53149Y218814D01*
X53269Y219058D01*
X53302Y219130D01*
X53323Y219206D01*
X53331Y219284D01*
X53327Y219362D01*
X53311Y219439D01*
X53283Y219513D01*
X53244Y219581D01*
X53195Y219642D01*
X53136Y219695D01*
X53070Y219738D01*
X52998Y219770D01*
X52922Y219791D01*
X52844Y219799D01*
X52766Y219795D01*
X52689Y219779D01*
X52618Y219752D01*
Y238324D01*
G37*
G36*
Y294000D02*X55904D01*
Y279621D01*
X55720D01*
X55358Y279588D01*
X55000Y279522D01*
X54650Y279424D01*
X54310Y279295D01*
X53983Y279136D01*
X53917Y279093D01*
X53858Y279040D01*
X53808Y278978D01*
X53769Y278909D01*
X53741Y278835D01*
X53725Y278758D01*
X53721Y278679D01*
X53729Y278600D01*
X53750Y278524D01*
X53782Y278451D01*
X53825Y278385D01*
X53878Y278326D01*
X53940Y278277D01*
X54009Y278237D01*
X54083Y278209D01*
X54160Y278193D01*
X54239Y278189D01*
X54318Y278197D01*
X54395Y278218D01*
X54466Y278251D01*
X54709Y278374D01*
X54964Y278471D01*
X55226Y278544D01*
X55494Y278593D01*
X55766Y278618D01*
X55904D01*
Y272624D01*
X55766D01*
X55494Y272649D01*
X55226Y272698D01*
X54964Y272771D01*
X54709Y272868D01*
X54465Y272988D01*
X54393Y273021D01*
X54317Y273042D01*
X54239Y273050D01*
X54161Y273046D01*
X54084Y273030D01*
X54010Y273002D01*
X53942Y272963D01*
X53881Y272914D01*
X53828Y272855D01*
X53785Y272789D01*
X53753Y272717D01*
X53732Y272641D01*
X53724Y272563D01*
X53728Y272485D01*
X53744Y272408D01*
X53772Y272334D01*
X53811Y272266D01*
X53860Y272205D01*
X53919Y272152D01*
X53985Y272110D01*
X54310Y271947D01*
X54650Y271818D01*
X55000Y271720D01*
X55358Y271654D01*
X55720Y271621D01*
X55904D01*
Y244633D01*
X55902Y244633D01*
X55274Y244584D01*
X54662Y244437D01*
X54080Y244196D01*
X53544Y243867D01*
X53065Y243458D01*
X52656Y242979D01*
X52618Y242918D01*
Y273486D01*
X52688Y273460D01*
X52765Y273444D01*
X52844Y273440D01*
X52923Y273448D01*
X52999Y273469D01*
X53072Y273501D01*
X53138Y273544D01*
X53197Y273597D01*
X53246Y273659D01*
X53286Y273728D01*
X53314Y273802D01*
X53330Y273879D01*
X53334Y273958D01*
X53326Y274037D01*
X53305Y274114D01*
X53272Y274185D01*
X53149Y274428D01*
X53052Y274683D01*
X52979Y274945D01*
X52930Y275213D01*
X52905Y275485D01*
Y275757D01*
X52930Y276029D01*
X52979Y276297D01*
X53052Y276559D01*
X53149Y276814D01*
X53269Y277058D01*
X53302Y277130D01*
X53323Y277206D01*
X53331Y277284D01*
X53327Y277362D01*
X53311Y277439D01*
X53283Y277513D01*
X53244Y277581D01*
X53195Y277642D01*
X53136Y277695D01*
X53070Y277738D01*
X52998Y277770D01*
X52922Y277791D01*
X52844Y277799D01*
X52766Y277795D01*
X52689Y277779D01*
X52618Y277752D01*
Y294000D01*
G37*
G36*
X45896D02*X52618D01*
Y277752D01*
X52615Y277751D01*
X52547Y277712D01*
X52486Y277663D01*
X52433Y277604D01*
X52391Y277538D01*
X52228Y277213D01*
X52099Y276873D01*
X52001Y276523D01*
X51935Y276165D01*
X51902Y275803D01*
Y275439D01*
X51935Y275077D01*
X52001Y274719D01*
X52099Y274369D01*
X52228Y274029D01*
X52387Y273702D01*
X52430Y273636D01*
X52483Y273577D01*
X52545Y273527D01*
X52614Y273488D01*
X52618Y273486D01*
Y242918D01*
X52327Y242443D01*
X52086Y241861D01*
X51939Y241249D01*
X51890Y240621D01*
X51939Y239993D01*
X52086Y239381D01*
X52327Y238799D01*
X52618Y238324D01*
Y219752D01*
X52615Y219751D01*
X52547Y219712D01*
X52486Y219663D01*
X52433Y219604D01*
X52391Y219538D01*
X52228Y219213D01*
X52099Y218873D01*
X52001Y218523D01*
X51935Y218165D01*
X51902Y217803D01*
Y217439D01*
X51935Y217077D01*
X52001Y216719D01*
X52099Y216369D01*
X52228Y216029D01*
X52387Y215702D01*
X52430Y215636D01*
X52483Y215577D01*
X52545Y215527D01*
X52614Y215488D01*
X52618Y215486D01*
Y210000D01*
X45896D01*
Y250609D01*
X45902Y250609D01*
X46530Y250658D01*
X47142Y250805D01*
X47724Y251046D01*
X48260Y251375D01*
X48739Y251784D01*
X49148Y252263D01*
X49477Y252799D01*
X49718Y253381D01*
X49865Y253993D01*
X49902Y254621D01*
X49865Y255249D01*
X49718Y255861D01*
X49477Y256443D01*
X49148Y256979D01*
X48739Y257458D01*
X48260Y257867D01*
X47724Y258196D01*
X47142Y258437D01*
X46530Y258584D01*
X45902Y258633D01*
X45896Y258633D01*
Y294000D01*
G37*
G36*
X35896D02*X45896D01*
Y258633D01*
X45274Y258584D01*
X44662Y258437D01*
X44080Y258196D01*
X43544Y257867D01*
X43065Y257458D01*
X42656Y256979D01*
X42327Y256443D01*
X42086Y255861D01*
X41939Y255249D01*
X41890Y254621D01*
X41939Y253993D01*
X42086Y253381D01*
X42327Y252799D01*
X42656Y252263D01*
X43065Y251784D01*
X43544Y251375D01*
X44080Y251046D01*
X44662Y250805D01*
X45274Y250658D01*
X45896Y250609D01*
Y210000D01*
X35896D01*
Y216609D01*
X35902Y216609D01*
X36530Y216658D01*
X37142Y216805D01*
X37724Y217046D01*
X38260Y217375D01*
X38739Y217784D01*
X39148Y218263D01*
X39477Y218799D01*
X39718Y219381D01*
X39865Y219993D01*
X39902Y220621D01*
X39865Y221249D01*
X39718Y221861D01*
X39477Y222443D01*
X39148Y222979D01*
X38739Y223458D01*
X38260Y223867D01*
X37724Y224196D01*
X37142Y224437D01*
X36530Y224584D01*
X35902Y224633D01*
X35896Y224633D01*
Y243609D01*
X35902Y243609D01*
X36530Y243658D01*
X37142Y243805D01*
X37724Y244046D01*
X38260Y244375D01*
X38739Y244784D01*
X39148Y245263D01*
X39477Y245799D01*
X39718Y246381D01*
X39865Y246993D01*
X39902Y247621D01*
X39865Y248249D01*
X39718Y248861D01*
X39477Y249443D01*
X39148Y249979D01*
X38739Y250458D01*
X38260Y250867D01*
X37724Y251196D01*
X37142Y251437D01*
X36530Y251584D01*
X35902Y251633D01*
X35896Y251633D01*
Y271609D01*
X35902Y271609D01*
X36530Y271658D01*
X37142Y271805D01*
X37724Y272046D01*
X38260Y272375D01*
X38739Y272784D01*
X39148Y273263D01*
X39477Y273799D01*
X39718Y274381D01*
X39865Y274993D01*
X39902Y275621D01*
X39865Y276249D01*
X39718Y276861D01*
X39477Y277443D01*
X39148Y277979D01*
X38739Y278458D01*
X38260Y278867D01*
X37724Y279196D01*
X37142Y279437D01*
X36530Y279584D01*
X35902Y279633D01*
X35896Y279633D01*
Y294000D01*
G37*
G36*
X29186D02*X35896D01*
Y279633D01*
X35274Y279584D01*
X34662Y279437D01*
X34080Y279196D01*
X33544Y278867D01*
X33065Y278458D01*
X32656Y277979D01*
X32327Y277443D01*
X32086Y276861D01*
X31939Y276249D01*
X31890Y275621D01*
X31939Y274993D01*
X32086Y274381D01*
X32327Y273799D01*
X32656Y273263D01*
X33065Y272784D01*
X33544Y272375D01*
X34080Y272046D01*
X34662Y271805D01*
X35274Y271658D01*
X35896Y271609D01*
Y251633D01*
X35274Y251584D01*
X34662Y251437D01*
X34080Y251196D01*
X33544Y250867D01*
X33065Y250458D01*
X32656Y249979D01*
X32327Y249443D01*
X32086Y248861D01*
X31939Y248249D01*
X31890Y247621D01*
X31939Y246993D01*
X32086Y246381D01*
X32327Y245799D01*
X32656Y245263D01*
X33065Y244784D01*
X33544Y244375D01*
X34080Y244046D01*
X34662Y243805D01*
X35274Y243658D01*
X35896Y243609D01*
Y224633D01*
X35274Y224584D01*
X34662Y224437D01*
X34080Y224196D01*
X33544Y223867D01*
X33065Y223458D01*
X32656Y222979D01*
X32327Y222443D01*
X32086Y221861D01*
X31939Y221249D01*
X31890Y220621D01*
X31939Y219993D01*
X32086Y219381D01*
X32327Y218799D01*
X32656Y218263D01*
X33065Y217784D01*
X33544Y217375D01*
X34080Y217046D01*
X34662Y216805D01*
X35274Y216658D01*
X35896Y216609D01*
Y210000D01*
X29186D01*
Y218555D01*
X29213Y218561D01*
X29287Y218589D01*
X29355Y218628D01*
X29416Y218677D01*
X29469Y218736D01*
X29511Y218802D01*
X29674Y219127D01*
X29803Y219467D01*
X29901Y219817D01*
X29967Y220175D01*
X30000Y220537D01*
Y220901D01*
X29967Y221263D01*
X29901Y221621D01*
X29803Y221971D01*
X29674Y222311D01*
X29515Y222638D01*
X29472Y222704D01*
X29419Y222763D01*
X29357Y222813D01*
X29288Y222852D01*
X29214Y222880D01*
X29186Y222886D01*
Y273490D01*
X29189Y273491D01*
X29257Y273530D01*
X29318Y273579D01*
X29371Y273638D01*
X29413Y273704D01*
X29576Y274029D01*
X29705Y274369D01*
X29803Y274719D01*
X29869Y275077D01*
X29902Y275439D01*
Y275803D01*
X29869Y276165D01*
X29803Y276523D01*
X29705Y276873D01*
X29576Y277213D01*
X29417Y277540D01*
X29374Y277606D01*
X29321Y277665D01*
X29259Y277715D01*
X29190Y277754D01*
X29186Y277756D01*
Y294000D01*
G37*
G36*
X25904D02*X29186D01*
Y277756D01*
X29116Y277782D01*
X29039Y277798D01*
X28960Y277802D01*
X28881Y277794D01*
X28805Y277773D01*
X28732Y277741D01*
X28666Y277698D01*
X28607Y277645D01*
X28558Y277583D01*
X28518Y277514D01*
X28490Y277440D01*
X28474Y277363D01*
X28470Y277284D01*
X28478Y277205D01*
X28499Y277128D01*
X28532Y277057D01*
X28655Y276814D01*
X28752Y276559D01*
X28825Y276297D01*
X28874Y276029D01*
X28899Y275757D01*
Y275485D01*
X28874Y275213D01*
X28825Y274945D01*
X28752Y274683D01*
X28655Y274428D01*
X28535Y274184D01*
X28502Y274112D01*
X28481Y274036D01*
X28473Y273958D01*
X28477Y273880D01*
X28493Y273803D01*
X28521Y273729D01*
X28560Y273661D01*
X28609Y273600D01*
X28668Y273547D01*
X28734Y273504D01*
X28806Y273472D01*
X28882Y273451D01*
X28960Y273443D01*
X29038Y273447D01*
X29115Y273463D01*
X29186Y273490D01*
Y222886D01*
X29137Y222896D01*
X29058Y222900D01*
X28979Y222892D01*
X28903Y222871D01*
X28830Y222839D01*
X28764Y222796D01*
X28705Y222743D01*
X28656Y222681D01*
X28616Y222612D01*
X28588Y222538D01*
X28572Y222461D01*
X28568Y222382D01*
X28576Y222303D01*
X28597Y222226D01*
X28630Y222155D01*
X28753Y221912D01*
X28850Y221657D01*
X28923Y221395D01*
X28972Y221127D01*
X28997Y220855D01*
Y220583D01*
X28972Y220311D01*
X28923Y220043D01*
X28850Y219781D01*
X28753Y219526D01*
X28633Y219282D01*
X28600Y219210D01*
X28579Y219134D01*
X28571Y219056D01*
X28575Y218978D01*
X28591Y218901D01*
X28619Y218827D01*
X28658Y218759D01*
X28707Y218698D01*
X28766Y218645D01*
X28832Y218602D01*
X28904Y218570D01*
X28980Y218549D01*
X29058Y218541D01*
X29136Y218545D01*
X29186Y218555D01*
Y210000D01*
X25904D01*
Y216719D01*
X26182D01*
X26544Y216752D01*
X26902Y216818D01*
X27252Y216916D01*
X27592Y217045D01*
X27919Y217204D01*
X27985Y217247D01*
X28044Y217300D01*
X28094Y217362D01*
X28133Y217431D01*
X28161Y217505D01*
X28177Y217582D01*
X28181Y217661D01*
X28173Y217740D01*
X28152Y217816D01*
X28120Y217889D01*
X28077Y217955D01*
X28024Y218014D01*
X27962Y218063D01*
X27893Y218103D01*
X27819Y218131D01*
X27742Y218147D01*
X27663Y218151D01*
X27584Y218143D01*
X27507Y218122D01*
X27436Y218089D01*
X27193Y217966D01*
X26938Y217869D01*
X26676Y217796D01*
X26408Y217747D01*
X26136Y217722D01*
X25904D01*
Y223716D01*
X26136D01*
X26408Y223691D01*
X26676Y223642D01*
X26938Y223569D01*
X27193Y223472D01*
X27437Y223352D01*
X27509Y223319D01*
X27585Y223298D01*
X27663Y223290D01*
X27741Y223294D01*
X27818Y223310D01*
X27892Y223338D01*
X27960Y223377D01*
X28021Y223426D01*
X28074Y223485D01*
X28117Y223551D01*
X28149Y223623D01*
X28170Y223699D01*
X28178Y223777D01*
X28174Y223855D01*
X28158Y223932D01*
X28130Y224006D01*
X28091Y224074D01*
X28042Y224135D01*
X27983Y224188D01*
X27917Y224230D01*
X27592Y224393D01*
X27252Y224522D01*
X26902Y224620D01*
X26544Y224686D01*
X26182Y224719D01*
X25904D01*
Y271621D01*
X26084D01*
X26446Y271654D01*
X26804Y271720D01*
X27154Y271818D01*
X27494Y271947D01*
X27821Y272106D01*
X27887Y272149D01*
X27946Y272202D01*
X27996Y272264D01*
X28035Y272333D01*
X28063Y272407D01*
X28079Y272484D01*
X28083Y272563D01*
X28075Y272642D01*
X28054Y272718D01*
X28022Y272791D01*
X27979Y272857D01*
X27926Y272916D01*
X27864Y272965D01*
X27795Y273005D01*
X27721Y273033D01*
X27644Y273049D01*
X27565Y273053D01*
X27486Y273045D01*
X27409Y273024D01*
X27338Y272991D01*
X27095Y272868D01*
X26840Y272771D01*
X26578Y272698D01*
X26310Y272649D01*
X26038Y272624D01*
X25904D01*
Y278618D01*
X26038D01*
X26310Y278593D01*
X26578Y278544D01*
X26840Y278471D01*
X27095Y278374D01*
X27339Y278254D01*
X27411Y278221D01*
X27486Y278200D01*
X27565Y278192D01*
X27643Y278196D01*
X27720Y278212D01*
X27794Y278240D01*
X27862Y278279D01*
X27923Y278328D01*
X27976Y278387D01*
X28019Y278453D01*
X28051Y278525D01*
X28072Y278601D01*
X28080Y278679D01*
X28076Y278757D01*
X28060Y278834D01*
X28032Y278908D01*
X27993Y278976D01*
X27944Y279037D01*
X27885Y279090D01*
X27819Y279132D01*
X27494Y279295D01*
X27154Y279424D01*
X26804Y279522D01*
X26446Y279588D01*
X26084Y279621D01*
X25904D01*
Y294000D01*
G37*
G36*
X23000D02*X25904D01*
Y279621D01*
X25720D01*
X25358Y279588D01*
X25000Y279522D01*
X24650Y279424D01*
X24310Y279295D01*
X23983Y279136D01*
X23917Y279093D01*
X23858Y279040D01*
X23808Y278978D01*
X23769Y278909D01*
X23741Y278835D01*
X23725Y278758D01*
X23721Y278679D01*
X23729Y278600D01*
X23750Y278524D01*
X23782Y278451D01*
X23825Y278385D01*
X23878Y278326D01*
X23940Y278277D01*
X24009Y278237D01*
X24083Y278209D01*
X24160Y278193D01*
X24239Y278189D01*
X24318Y278197D01*
X24395Y278218D01*
X24466Y278251D01*
X24709Y278374D01*
X24964Y278471D01*
X25226Y278544D01*
X25494Y278593D01*
X25766Y278618D01*
X25904D01*
Y272624D01*
X25766D01*
X25494Y272649D01*
X25226Y272698D01*
X24964Y272771D01*
X24709Y272868D01*
X24465Y272988D01*
X24393Y273021D01*
X24317Y273042D01*
X24239Y273050D01*
X24161Y273046D01*
X24084Y273030D01*
X24010Y273002D01*
X23942Y272963D01*
X23881Y272914D01*
X23828Y272855D01*
X23785Y272789D01*
X23753Y272717D01*
X23732Y272641D01*
X23724Y272563D01*
X23728Y272485D01*
X23744Y272408D01*
X23772Y272334D01*
X23811Y272266D01*
X23860Y272205D01*
X23919Y272152D01*
X23985Y272110D01*
X24310Y271947D01*
X24650Y271818D01*
X25000Y271720D01*
X25358Y271654D01*
X25720Y271621D01*
X25904D01*
Y224719D01*
X25818D01*
X25456Y224686D01*
X25098Y224620D01*
X24748Y224522D01*
X24408Y224393D01*
X24081Y224234D01*
X24015Y224191D01*
X23956Y224138D01*
X23906Y224076D01*
X23867Y224007D01*
X23839Y223933D01*
X23823Y223856D01*
X23819Y223777D01*
X23827Y223698D01*
X23848Y223622D01*
X23880Y223549D01*
X23923Y223483D01*
X23976Y223424D01*
X24038Y223375D01*
X24107Y223335D01*
X24181Y223307D01*
X24258Y223291D01*
X24337Y223287D01*
X24416Y223295D01*
X24493Y223316D01*
X24564Y223349D01*
X24807Y223472D01*
X25062Y223569D01*
X25324Y223642D01*
X25592Y223691D01*
X25864Y223716D01*
X25904D01*
Y217722D01*
X25864D01*
X25592Y217747D01*
X25324Y217796D01*
X25062Y217869D01*
X24807Y217966D01*
X24563Y218086D01*
X24491Y218119D01*
X24415Y218140D01*
X24337Y218148D01*
X24259Y218144D01*
X24182Y218128D01*
X24108Y218100D01*
X24040Y218061D01*
X23979Y218012D01*
X23926Y217953D01*
X23883Y217887D01*
X23851Y217815D01*
X23830Y217739D01*
X23822Y217661D01*
X23826Y217583D01*
X23842Y217506D01*
X23870Y217432D01*
X23909Y217364D01*
X23958Y217303D01*
X24017Y217250D01*
X24083Y217208D01*
X24408Y217045D01*
X24748Y216916D01*
X25098Y216818D01*
X25456Y216752D01*
X25818Y216719D01*
X25904D01*
Y210000D01*
X23000D01*
X22618Y210382D01*
Y218645D01*
X22643Y218625D01*
X22712Y218586D01*
X22786Y218558D01*
X22863Y218542D01*
X22942Y218538D01*
X23021Y218546D01*
X23097Y218567D01*
X23170Y218599D01*
X23236Y218642D01*
X23295Y218695D01*
X23344Y218757D01*
X23384Y218826D01*
X23412Y218900D01*
X23428Y218977D01*
X23432Y219056D01*
X23424Y219135D01*
X23403Y219212D01*
X23370Y219283D01*
X23247Y219526D01*
X23150Y219781D01*
X23077Y220043D01*
X23028Y220311D01*
X23003Y220583D01*
Y220855D01*
X23028Y221127D01*
X23077Y221395D01*
X23150Y221657D01*
X23247Y221912D01*
X23367Y222156D01*
X23400Y222228D01*
X23421Y222304D01*
X23429Y222382D01*
X23425Y222460D01*
X23409Y222537D01*
X23381Y222611D01*
X23342Y222679D01*
X23293Y222740D01*
X23234Y222793D01*
X23168Y222836D01*
X23096Y222868D01*
X23020Y222889D01*
X22942Y222897D01*
X22864Y222893D01*
X22787Y222877D01*
X22713Y222849D01*
X22645Y222810D01*
X22618Y222789D01*
Y273486D01*
X22688Y273460D01*
X22765Y273444D01*
X22844Y273440D01*
X22923Y273448D01*
X22999Y273469D01*
X23072Y273501D01*
X23138Y273544D01*
X23197Y273597D01*
X23246Y273659D01*
X23286Y273728D01*
X23314Y273802D01*
X23330Y273879D01*
X23334Y273958D01*
X23326Y274037D01*
X23305Y274114D01*
X23272Y274185D01*
X23149Y274428D01*
X23052Y274683D01*
X22979Y274945D01*
X22930Y275213D01*
X22905Y275485D01*
Y275757D01*
X22930Y276029D01*
X22979Y276297D01*
X23052Y276559D01*
X23149Y276814D01*
X23269Y277058D01*
X23302Y277130D01*
X23323Y277206D01*
X23331Y277284D01*
X23327Y277362D01*
X23311Y277439D01*
X23283Y277513D01*
X23244Y277581D01*
X23195Y277642D01*
X23136Y277695D01*
X23070Y277738D01*
X22998Y277770D01*
X22922Y277791D01*
X22844Y277799D01*
X22766Y277795D01*
X22689Y277779D01*
X22618Y277752D01*
Y293618D01*
X23000Y294000D01*
G37*
G36*
X22618Y210382D02*X20574Y212426D01*
Y245974D01*
X20624Y245988D01*
X20696Y246022D01*
X20761Y246065D01*
X20819Y246119D01*
X20867Y246181D01*
X20904Y246251D01*
X21024Y246541D01*
X21113Y246842D01*
X21172Y247151D01*
X21202Y247464D01*
Y247778D01*
X21172Y248091D01*
X21113Y248400D01*
X21024Y248701D01*
X20907Y248993D01*
X20869Y249062D01*
X20821Y249125D01*
X20763Y249179D01*
X20697Y249223D01*
X20625Y249256D01*
X20574Y249271D01*
Y274033D01*
X20718Y274381D01*
X20865Y274993D01*
X20902Y275621D01*
X20865Y276249D01*
X20718Y276861D01*
X20574Y277209D01*
Y291574D01*
X22618Y293618D01*
Y277752D01*
X22615Y277751D01*
X22547Y277712D01*
X22486Y277663D01*
X22433Y277604D01*
X22391Y277538D01*
X22228Y277213D01*
X22099Y276873D01*
X22001Y276523D01*
X21935Y276165D01*
X21902Y275803D01*
Y275439D01*
X21935Y275077D01*
X22001Y274719D01*
X22099Y274369D01*
X22228Y274029D01*
X22387Y273702D01*
X22430Y273636D01*
X22483Y273577D01*
X22545Y273527D01*
X22614Y273488D01*
X22618Y273486D01*
Y222789D01*
X22584Y222761D01*
X22531Y222702D01*
X22489Y222636D01*
X22326Y222311D01*
X22197Y221971D01*
X22099Y221621D01*
X22033Y221263D01*
X22000Y220901D01*
Y220537D01*
X22033Y220175D01*
X22099Y219817D01*
X22197Y219467D01*
X22326Y219127D01*
X22485Y218800D01*
X22528Y218734D01*
X22581Y218675D01*
X22618Y218645D01*
Y210382D01*
G37*
G36*
X20574Y277209D02*X20477Y277443D01*
X20148Y277979D01*
X19739Y278458D01*
X19260Y278867D01*
X18724Y279196D01*
X18142Y279437D01*
X17903Y279494D01*
Y291000D01*
X20000D01*
X20574Y291574D01*
Y277209D01*
G37*
G36*
Y212426D02*X20000Y213000D01*
X17903D01*
Y214156D01*
X18260Y214375D01*
X18739Y214784D01*
X19148Y215263D01*
X19477Y215799D01*
X19718Y216381D01*
X19865Y216993D01*
X19902Y217621D01*
X19865Y218249D01*
X19718Y218861D01*
X19477Y219443D01*
X19148Y219979D01*
X18739Y220458D01*
X18260Y220867D01*
X17903Y221086D01*
Y244321D01*
X18059D01*
X18372Y244351D01*
X18681Y244410D01*
X18982Y244499D01*
X19274Y244616D01*
X19343Y244654D01*
X19406Y244702D01*
X19460Y244760D01*
X19504Y244826D01*
X19537Y244898D01*
X19559Y244974D01*
X19568Y245052D01*
X19566Y245131D01*
X19551Y245209D01*
X19523Y245283D01*
X19485Y245352D01*
X19436Y245415D01*
X19378Y245469D01*
X19313Y245513D01*
X19241Y245546D01*
X19165Y245568D01*
X19086Y245578D01*
X19007Y245575D01*
X18930Y245560D01*
X18856Y245531D01*
X18654Y245447D01*
X18444Y245386D01*
X18229Y245344D01*
X18011Y245324D01*
X17903D01*
Y249918D01*
X18011D01*
X18229Y249898D01*
X18444Y249856D01*
X18654Y249795D01*
X18857Y249713D01*
X18930Y249685D01*
X19008Y249670D01*
X19086Y249667D01*
X19164Y249677D01*
X19240Y249698D01*
X19311Y249731D01*
X19377Y249775D01*
X19434Y249829D01*
X19483Y249891D01*
X19521Y249960D01*
X19548Y250034D01*
X19563Y250111D01*
X19566Y250190D01*
X19556Y250268D01*
X19535Y250343D01*
X19501Y250415D01*
X19458Y250480D01*
X19404Y250538D01*
X19342Y250586D01*
X19272Y250623D01*
X18982Y250743D01*
X18681Y250832D01*
X18372Y250891D01*
X18059Y250921D01*
X17903D01*
Y271748D01*
X18142Y271805D01*
X18724Y272046D01*
X19260Y272375D01*
X19739Y272784D01*
X20148Y273263D01*
X20477Y273799D01*
X20574Y274033D01*
Y249271D01*
X20549Y249278D01*
X20471Y249287D01*
X20392Y249285D01*
X20314Y249270D01*
X20240Y249242D01*
X20171Y249204D01*
X20108Y249155D01*
X20054Y249097D01*
X20010Y249032D01*
X19977Y248960D01*
X19955Y248884D01*
X19945Y248805D01*
X19948Y248726D01*
X19963Y248649D01*
X19992Y248575D01*
X20076Y248373D01*
X20137Y248163D01*
X20179Y247948D01*
X20199Y247730D01*
Y247512D01*
X20179Y247294D01*
X20137Y247079D01*
X20076Y246869D01*
X19994Y246666D01*
X19966Y246593D01*
X19951Y246515D01*
X19948Y246437D01*
X19958Y246359D01*
X19979Y246283D01*
X20012Y246212D01*
X20056Y246146D01*
X20110Y246089D01*
X20172Y246040D01*
X20241Y246002D01*
X20315Y245975D01*
X20392Y245960D01*
X20471Y245957D01*
X20549Y245967D01*
X20574Y245974D01*
Y212426D01*
G37*
G36*
X15230Y291000D02*X17903D01*
Y279494D01*
X17530Y279584D01*
X16902Y279633D01*
X16274Y279584D01*
X15662Y279437D01*
X15230Y279258D01*
Y291000D01*
G37*
G36*
X17903Y221086D02*X17724Y221196D01*
X17142Y221437D01*
X16530Y221584D01*
X15902Y221633D01*
X15274Y221584D01*
X15230Y221573D01*
Y245971D01*
X15255Y245964D01*
X15333Y245955D01*
X15412Y245957D01*
X15490Y245972D01*
X15564Y246000D01*
X15633Y246038D01*
X15696Y246087D01*
X15750Y246145D01*
X15794Y246210D01*
X15827Y246282D01*
X15849Y246358D01*
X15859Y246437D01*
X15856Y246516D01*
X15841Y246593D01*
X15812Y246667D01*
X15728Y246869D01*
X15667Y247079D01*
X15625Y247294D01*
X15605Y247512D01*
Y247730D01*
X15625Y247948D01*
X15667Y248163D01*
X15728Y248373D01*
X15810Y248576D01*
X15838Y248649D01*
X15853Y248727D01*
X15856Y248805D01*
X15846Y248883D01*
X15825Y248959D01*
X15792Y249030D01*
X15748Y249096D01*
X15694Y249153D01*
X15632Y249202D01*
X15563Y249240D01*
X15489Y249267D01*
X15412Y249282D01*
X15333Y249285D01*
X15255Y249275D01*
X15230Y249268D01*
Y271984D01*
X15662Y271805D01*
X16274Y271658D01*
X16902Y271609D01*
X17530Y271658D01*
X17903Y271748D01*
Y250921D01*
X17745D01*
X17432Y250891D01*
X17123Y250832D01*
X16822Y250743D01*
X16530Y250626D01*
X16461Y250588D01*
X16398Y250540D01*
X16344Y250482D01*
X16300Y250416D01*
X16267Y250344D01*
X16245Y250268D01*
X16236Y250190D01*
X16238Y250111D01*
X16253Y250033D01*
X16281Y249959D01*
X16319Y249890D01*
X16368Y249827D01*
X16426Y249773D01*
X16491Y249729D01*
X16563Y249696D01*
X16639Y249674D01*
X16718Y249664D01*
X16797Y249667D01*
X16874Y249682D01*
X16948Y249711D01*
X17150Y249795D01*
X17360Y249856D01*
X17575Y249898D01*
X17793Y249918D01*
X17903D01*
Y245324D01*
X17793D01*
X17575Y245344D01*
X17360Y245386D01*
X17150Y245447D01*
X16947Y245529D01*
X16874Y245557D01*
X16796Y245572D01*
X16718Y245575D01*
X16640Y245565D01*
X16564Y245544D01*
X16493Y245511D01*
X16427Y245467D01*
X16370Y245413D01*
X16321Y245351D01*
X16283Y245282D01*
X16256Y245208D01*
X16241Y245131D01*
X16238Y245052D01*
X16248Y244974D01*
X16269Y244899D01*
X16303Y244827D01*
X16346Y244762D01*
X16400Y244704D01*
X16462Y244656D01*
X16532Y244619D01*
X16822Y244499D01*
X17123Y244410D01*
X17432Y244351D01*
X17745Y244321D01*
X17903D01*
Y221086D01*
G37*
G36*
X15230Y221573D02*X14662Y221437D01*
X14080Y221196D01*
X13544Y220867D01*
X13065Y220458D01*
X12656Y219979D01*
X12327Y219443D01*
X12086Y218861D01*
X11939Y218249D01*
X11890Y217621D01*
X11939Y216993D01*
X12086Y216381D01*
X12327Y215799D01*
X12527Y215473D01*
X11000Y217000D01*
Y221000D01*
X8000Y224000D01*
Y228000D01*
X5000Y231000D01*
Y277000D01*
X8000Y280000D01*
Y285000D01*
X14000Y291000D01*
X15230D01*
Y279258D01*
X15080Y279196D01*
X14544Y278867D01*
X14065Y278458D01*
X13656Y277979D01*
X13327Y277443D01*
X13086Y276861D01*
X12939Y276249D01*
X12890Y275621D01*
X12939Y274993D01*
X13086Y274381D01*
X13327Y273799D01*
X13656Y273263D01*
X14065Y272784D01*
X14544Y272375D01*
X15080Y272046D01*
X15230Y271984D01*
Y249268D01*
X15180Y249254D01*
X15108Y249220D01*
X15043Y249177D01*
X14985Y249123D01*
X14937Y249061D01*
X14900Y248991D01*
X14780Y248701D01*
X14691Y248400D01*
X14632Y248091D01*
X14602Y247778D01*
Y247464D01*
X14632Y247151D01*
X14691Y246842D01*
X14780Y246541D01*
X14897Y246249D01*
X14935Y246180D01*
X14983Y246117D01*
X15041Y246063D01*
X15107Y246019D01*
X15179Y245986D01*
X15230Y245971D01*
Y221573D01*
G37*
G36*
X17903Y213000D02*X15000D01*
X13754Y214246D01*
X14080Y214046D01*
X14662Y213805D01*
X15274Y213658D01*
X15902Y213609D01*
X16530Y213658D01*
X17142Y213805D01*
X17724Y214046D01*
X17903Y214156D01*
Y213000D01*
G37*
G54D33*X100000Y286500D02*Y259500D01*
X93500Y253000D01*
X86000D01*
X78500Y245500D01*
G54D34*X17902Y247621D03*
G54D35*X25902Y275621D03*
X16902D03*
X35902D03*
X55902D03*
X35902Y247621D03*
X45902Y254621D03*
X61902Y281621D03*
G54D36*X77902Y277621D03*
G54D35*X76902Y286621D03*
G54D34*X100000Y286500D03*
G54D35*X55902Y240621D03*
G54D36*X68500Y245500D03*
G54D35*X78000Y257500D03*
G54D36*X88000Y245500D03*
X78500D03*
X88000Y265000D03*
G54D35*X26000Y220719D03*
X55902Y217621D03*
X35902Y220621D03*
X15902Y217621D03*
X84902Y224621D03*
G54D36*X98000Y221500D03*
G54D37*G54D38*G54D37*G54D38*G54D37*G54D38*G54D37*G54D38*G54D37*G54D38*G54D37*M02*
