G04 start of page 9 for group -4079 idx -4079 *
G04 Title: (unknown), topsilk *
G04 Creator: pcb 20110918 *
G04 CreationDate: Mon Sep 22 22:22:36 2014 UTC *
G04 For: fosse *
G04 Format: Gerber/RS-274X *
G04 PCB-Dimensions: 320000 125000 *
G04 PCB-Coordinate-Origin: lower left *
%MOIN*%
%FSLAX25Y25*%
%LNTOPSILK*%
%ADD44C,0.0100*%
G54D44*X53000Y83000D02*X53500Y82500D01*
X51500Y83000D02*X53000D01*
X51000Y82500D02*X51500Y83000D01*
X51000Y82500D02*Y81500D01*
X51500Y81000D01*
X53000D01*
X53500Y80500D01*
Y79500D01*
X53000Y79000D02*X53500Y79500D01*
X51500Y79000D02*X53000D01*
X51000Y79500D02*X51500Y79000D01*
X56700Y83000D02*X57200Y82500D01*
X55200Y83000D02*X56700D01*
X54700Y82500D02*X55200Y83000D01*
X54700Y82500D02*Y81500D01*
X55200Y81000D01*
X56700D01*
X57200Y80500D01*
Y79500D01*
X56700Y79000D02*X57200Y79500D01*
X55200Y79000D02*X56700D01*
X54700Y79500D02*X55200Y79000D01*
X63000Y83000D02*Y79000D01*
Y83000D02*X64500Y81000D01*
X66000Y83000D01*
Y79000D01*
X67200Y82500D02*Y79500D01*
Y82500D02*X67700Y83000D01*
X68700D01*
X69200Y82500D01*
Y79500D01*
X68700Y79000D02*X69200Y79500D01*
X67700Y79000D02*X68700D01*
X67200Y79500D02*X67700Y79000D01*
X72400Y83000D02*X72900Y82500D01*
X70900Y83000D02*X72400D01*
X70400Y82500D02*X70900Y83000D01*
X70400Y82500D02*Y81500D01*
X70900Y81000D01*
X72400D01*
X72900Y80500D01*
Y79500D01*
X72400Y79000D02*X72900Y79500D01*
X70900Y79000D02*X72400D01*
X70400Y79500D02*X70900Y79000D01*
X74100Y83000D02*X75100D01*
X74600D02*Y79000D01*
X74100D02*X75100D01*
X78000Y83000D02*Y79000D01*
Y83000D02*X79500Y81000D01*
X81000Y83000D01*
Y79000D01*
X82200Y83000D02*X83200D01*
X82700D02*Y79000D01*
X82200D02*X83200D01*
X86400Y83000D02*X86900Y82500D01*
X84900Y83000D02*X86400D01*
X84400Y82500D02*X84900Y83000D01*
X84400Y82500D02*Y81500D01*
X84900Y81000D01*
X86400D01*
X86900Y80500D01*
Y79500D01*
X86400Y79000D02*X86900Y79500D01*
X84900Y79000D02*X86400D01*
X84400Y79500D02*X84900Y79000D01*
X88100Y82500D02*Y79500D01*
Y82500D02*X88600Y83000D01*
X89600D01*
X90100Y82500D01*
Y79500D01*
X89600Y79000D02*X90100Y79500D01*
X88600Y79000D02*X89600D01*
X88100Y79500D02*X88600Y79000D01*
X96000Y82500D02*X96500Y82000D01*
X94500Y82500D02*X96000D01*
X94000Y82000D02*X94500Y82500D01*
X94000Y82000D02*Y81000D01*
X94500Y80500D01*
X96000D01*
X96500Y80000D01*
Y79000D01*
X96000Y78500D02*X96500Y79000D01*
X94500Y78500D02*X96000D01*
X94000Y79000D02*X94500Y78500D01*
X98400D02*X99700D01*
X97700Y79200D02*X98400Y78500D01*
X97700Y81800D02*Y79200D01*
Y81800D02*X98400Y82500D01*
X99700D01*
X100900D02*Y78500D01*
Y80500D02*X102900Y82500D01*
X100900Y80500D02*X102900Y78500D01*
X111000Y82000D02*X111500Y81500D01*
X109500Y82000D02*X111000D01*
X109000Y81500D02*X109500Y82000D01*
X109000Y81500D02*Y78500D01*
X109500Y78000D01*
X111000D01*
X111500Y78500D01*
Y79500D02*Y78500D01*
X111000Y80000D02*X111500Y79500D01*
X110000Y80000D02*X111000D01*
X112700Y82000D02*Y78000D01*
Y82000D02*X115200Y78000D01*
Y82000D02*Y78000D01*
X116900Y82000D02*Y78000D01*
X118200Y82000D02*X118900Y81300D01*
Y78700D01*
X118200Y78000D02*X118900Y78700D01*
X116400Y78000D02*X118200D01*
X116400Y82000D02*X118200D01*
X224000Y91000D02*X224500Y91500D01*
X226000D01*
X226500Y91000D01*
Y90000D01*
X224000Y87500D02*X226500Y90000D01*
X224000Y87500D02*X226500D01*
X227700Y88000D02*X228200Y87500D01*
X227700Y91000D02*Y88000D01*
Y91000D02*X228200Y91500D01*
X229200D01*
X229700Y91000D01*
Y88000D01*
X229200Y87500D02*X229700Y88000D01*
X228200Y87500D02*X229200D01*
X227700Y88500D02*X229700Y90500D01*
X230900Y90700D02*X231700Y91500D01*
Y87500D01*
X230900D02*X232400D01*
X233600Y89000D02*X235600Y91500D01*
X233600Y89000D02*X236100D01*
X235600Y91500D02*Y87500D01*
X237300D02*X237800D01*
X239000Y88000D02*X239500Y87500D01*
X239000Y91000D02*Y88000D01*
Y91000D02*X239500Y91500D01*
X240500D01*
X241000Y91000D01*
Y88000D01*
X240500Y87500D02*X241000Y88000D01*
X239500Y87500D02*X240500D01*
X239000Y88500D02*X241000Y90500D01*
X242700Y87500D02*X244200Y89500D01*
Y91000D02*Y89500D01*
X243700Y91500D02*X244200Y91000D01*
X242700Y91500D02*X243700D01*
X242200Y91000D02*X242700Y91500D01*
X242200Y91000D02*Y90000D01*
X242700Y89500D01*
X244200D01*
X245400Y87500D02*X245900D01*
X247100Y91000D02*X247600Y91500D01*
X249100D01*
X249600Y91000D01*
Y90000D01*
X247100Y87500D02*X249600Y90000D01*
X247100Y87500D02*X249600D01*
X250800Y91000D02*X251300Y91500D01*
X252800D01*
X253300Y91000D01*
Y90000D01*
X250800Y87500D02*X253300Y90000D01*
X250800Y87500D02*X253300D01*
X226000Y104500D02*X226500Y104000D01*
X224500Y104500D02*X226000D01*
X224000Y104000D02*X224500Y104500D01*
X224000Y104000D02*Y103000D01*
X224500Y102500D01*
X226000D01*
X226500Y102000D01*
Y101000D01*
X226000Y100500D02*X226500Y101000D01*
X224500Y100500D02*X226000D01*
X224000Y101000D02*X224500Y100500D01*
X228200Y104500D02*Y100500D01*
X227700Y104500D02*X229700D01*
X230200Y104000D01*
Y103000D01*
X229700Y102500D02*X230200Y103000D01*
X228200Y102500D02*X229700D01*
X231400Y104500D02*X232400D01*
X231900D02*Y100500D01*
X231400D02*X232400D01*
X235400Y103500D02*Y100500D01*
Y103500D02*X236100Y104500D01*
X237200D01*
X237900Y103500D01*
Y100500D01*
X235400Y102500D02*X237900D01*
X241100Y104500D02*Y100500D01*
X240600D02*X241100Y101000D01*
X239600Y100500D02*X240600D01*
X239100Y101000D02*X239600Y100500D01*
X239100Y102000D02*Y101000D01*
Y102000D02*X239600Y102500D01*
X240600D01*
X241100Y102000D01*
X243800Y102500D02*X244300Y102000D01*
X242800Y102500D02*X243800D01*
X242300Y102000D02*X242800Y102500D01*
X242300Y102000D02*Y101000D01*
X242800Y100500D01*
X244300Y102500D02*Y101000D01*
X244800Y100500D01*
X242800D02*X243800D01*
X244300Y101000D01*
X246500Y102000D02*Y99000D01*
X246000Y102500D02*X246500Y102000D01*
X247000Y102500D01*
X248000D01*
X248500Y102000D01*
Y101000D01*
X248000Y100500D02*X248500Y101000D01*
X247000Y100500D02*X248000D01*
X246500Y101000D02*X247000Y100500D01*
X250200Y104500D02*Y101000D01*
X250700Y100500D01*
X249700Y103000D02*X250700D01*
X252200Y100500D02*X253700D01*
X251700Y101000D02*X252200Y100500D01*
X251700Y102000D02*Y101000D01*
Y102000D02*X252200Y102500D01*
X253200D01*
X253700Y102000D01*
X251700Y101500D02*X253700D01*
Y102000D02*Y101500D01*
X255400Y102000D02*Y100500D01*
Y102000D02*X255900Y102500D01*
X256900D01*
X254900D02*X255400Y102000D01*
X224000Y96200D02*X225500D01*
X224000Y94000D02*X226000D01*
X224000Y98000D02*Y94000D01*
Y98000D02*X226000D01*
X227200Y96000D02*X228200Y94000D01*
X229200Y96000D02*X228200Y94000D01*
X231900Y96000D02*X232400Y95500D01*
X230900Y96000D02*X231900D01*
X230400Y95500D02*X230900Y96000D01*
X230400Y95500D02*Y94500D01*
X230900Y94000D01*
X232400Y96000D02*Y94500D01*
X232900Y94000D01*
X230900D02*X231900D01*
X232400Y94500D01*
X234600Y95500D02*Y94000D01*
Y95500D02*X235100Y96000D01*
X235600D01*
X236100Y95500D01*
Y94000D01*
X234100Y96000D02*X234600Y95500D01*
X239100Y98000D02*Y94000D01*
Y98000D02*X241100D01*
X239100Y96200D02*X240600D01*
X242300Y95500D02*Y94500D01*
Y95500D02*X242800Y96000D01*
X243800D01*
X244300Y95500D01*
Y94500D01*
X243800Y94000D02*X244300Y94500D01*
X242800Y94000D02*X243800D01*
X242300Y94500D02*X242800Y94000D01*
X246000D02*X247500D01*
X248000Y94500D01*
X247500Y95000D02*X248000Y94500D01*
X246000Y95000D02*X247500D01*
X245500Y95500D02*X246000Y95000D01*
X245500Y95500D02*X246000Y96000D01*
X247500D01*
X248000Y95500D01*
X245500Y94500D02*X246000Y94000D01*
X249700D02*X251200D01*
X251700Y94500D01*
X251200Y95000D02*X251700Y94500D01*
X249700Y95000D02*X251200D01*
X249200Y95500D02*X249700Y95000D01*
X249200Y95500D02*X249700Y96000D01*
X251200D01*
X251700Y95500D01*
X249200Y94500D02*X249700Y94000D01*
X254700Y98000D02*Y95000D01*
X255700Y94000D01*
X258700D01*
X259700Y98000D02*Y95500D01*
Y98000D02*X258700Y99000D01*
X255700D02*X258700D01*
X255700D02*X254700Y98000D01*
X256200Y97000D02*Y96000D01*
X256700Y95500D01*
X257700D01*
X258200Y96000D01*
X258700Y95500D01*
X258200Y97500D02*Y96000D01*
Y97000D02*X257700Y97500D01*
X256700D02*X257700D01*
X256700D02*X256200Y97000D01*
X258700Y95500D02*X259700D01*
X262700Y96200D02*X264200D01*
X262700Y94000D02*X264700D01*
X262700Y98000D02*Y94000D01*
Y98000D02*X264700D01*
X266400D02*Y94000D01*
X265900Y98000D02*X267900D01*
X268400Y97500D01*
Y96500D01*
X267900Y96000D02*X268400Y96500D01*
X266400Y96000D02*X267900D01*
X269600Y98000D02*Y94000D01*
X271600D01*
X196043Y98307D02*X213956D01*
Y86693D01*
X196043D01*
Y98307D01*
X169063Y98287D02*X186976D01*
Y86673D01*
X169063D01*
Y98287D01*
X185993Y54101D02*Y65716D01*
X128906D02*Y54101D01*
X131859Y65716D02*X128906D01*
X185993D02*X183040D01*
X185993Y54101D02*X183040D01*
X131859D02*X128906D01*
X176151Y71818D02*Y75952D01*
Y71818D02*X174969Y72999D01*
X176151Y71818D02*X177332Y72999D01*
X174969D02*X177332D01*
X117543Y98307D02*X135456D01*
Y86693D01*
X117543D01*
Y98307D01*
X140543D02*X158456D01*
Y86693D01*
X140543D01*
Y98307D01*
X88043D02*X105956D01*
Y86693D01*
X88043D01*
Y98307D01*
X36543D02*X54456D01*
Y86693D01*
X36543D01*
Y98307D01*
X151654Y72133D02*X152954D01*
X150954Y72833D02*X151654Y72133D01*
X150954Y75433D02*Y72833D01*
Y75433D02*X151654Y76133D01*
X152954D01*
X154154Y75633D02*Y72633D01*
Y75633D02*X154654Y76133D01*
X155654D01*
X156154Y75633D01*
Y72633D01*
X155654Y72133D02*X156154Y72633D01*
X154654Y72133D02*X155654D01*
X154154Y72633D02*X154654Y72133D01*
X157354Y76133D02*Y72133D01*
Y76133D02*X159854Y72133D01*
Y76133D02*Y72133D01*
X161054Y76133D02*Y72133D01*
Y76133D02*X163554Y72133D01*
Y76133D02*Y72133D01*
X165454Y76133D02*X166254D01*
Y72633D01*
X165754Y72133D02*X166254Y72633D01*
X165254Y72133D02*X165754D01*
X164754Y72633D02*X165254Y72133D01*
X164754Y73133D02*Y72633D01*
X167454Y75633D02*X167954Y76133D01*
X168954D01*
X169454Y75633D01*
X168954Y72133D02*X169454Y72633D01*
X167954Y72133D02*X168954D01*
X167454Y72633D02*X167954Y72133D01*
Y74333D02*X168954D01*
X169454Y75633D02*Y74833D01*
Y73833D02*Y72633D01*
Y73833D02*X168954Y74333D01*
X169454Y74833D02*X168954Y74333D01*
X194756Y103512D02*X196756D01*
X195756D02*Y99512D01*
X198456Y103512D02*Y99512D01*
X197956Y103512D02*X199956D01*
X200456Y103012D01*
Y102012D01*
X199956Y101512D02*X200456Y102012D01*
X198456Y101512D02*X199956D01*
X201656Y99512D02*X203656D01*
X206856Y103512D02*X207356Y103012D01*
X205356Y103512D02*X206856D01*
X204856Y103012D02*X205356Y103512D01*
X204856Y103012D02*Y100012D01*
X205356Y99512D01*
X206856D01*
X207356Y100012D01*
Y101012D02*Y100012D01*
X206856Y101512D02*X207356Y101012D01*
X205856Y101512D02*X206856D01*
X208556Y103512D02*Y99512D01*
Y103512D02*X211056Y99512D01*
Y103512D02*Y99512D01*
X212756Y103512D02*Y99512D01*
X214056Y103512D02*X214756Y102812D01*
Y100212D01*
X214056Y99512D02*X214756Y100212D01*
X212256Y99512D02*X214056D01*
X212256Y103512D02*X214056D01*
X138256D02*X140256D01*
X139256D02*Y99512D01*
X141956Y103512D02*Y99512D01*
X141456Y103512D02*X143456D01*
X143956Y103012D01*
Y102012D01*
X143456Y101512D02*X143956Y102012D01*
X141956Y101512D02*X143456D01*
X145156Y99512D02*X147156D01*
X148356Y103512D02*Y99512D01*
Y103512D02*X149856Y101512D01*
X151356Y103512D01*
Y99512D01*
X152556Y103512D02*X153556D01*
X153056D02*Y99512D01*
X152556D02*X153556D01*
X156756Y103512D02*X157256Y103012D01*
X155256Y103512D02*X156756D01*
X154756Y103012D02*X155256Y103512D01*
X154756Y103012D02*Y102012D01*
X155256Y101512D01*
X156756D01*
X157256Y101012D01*
Y100012D01*
X156756Y99512D02*X157256Y100012D01*
X155256Y99512D02*X156756D01*
X154756Y100012D02*X155256Y99512D01*
X158456Y103012D02*Y100012D01*
Y103012D02*X158956Y103512D01*
X159956D01*
X160456Y103012D01*
Y100012D01*
X159956Y99512D02*X160456Y100012D01*
X158956Y99512D02*X159956D01*
X158456Y100012D02*X158956Y99512D01*
X168276Y103492D02*X170276D01*
X169276D02*Y99492D01*
X171976Y103492D02*Y99492D01*
X171476Y103492D02*X173476D01*
X173976Y102992D01*
Y101992D01*
X173476Y101492D02*X173976Y101992D01*
X171976Y101492D02*X173476D01*
X175176Y99492D02*X177176D01*
X178376Y102992D02*X178876Y103492D01*
X179876D01*
X180376Y102992D01*
X179876Y99492D02*X180376Y99992D01*
X178876Y99492D02*X179876D01*
X178376Y99992D02*X178876Y99492D01*
Y101692D02*X179876D01*
X180376Y102992D02*Y102192D01*
Y101192D02*Y99992D01*
Y101192D02*X179876Y101692D01*
X180376Y102192D02*X179876Y101692D01*
X181576Y103492D02*X182576Y99492D01*
X183576Y103492D01*
X184776Y102992D02*X185276Y103492D01*
X186276D01*
X186776Y102992D01*
X186276Y99492D02*X186776Y99992D01*
X185276Y99492D02*X186276D01*
X184776Y99992D02*X185276Y99492D01*
Y101692D02*X186276D01*
X186776Y102992D02*Y102192D01*
Y101192D02*Y99992D01*
Y101192D02*X186276Y101692D01*
X186776Y102192D02*X186276Y101692D01*
X116756Y103512D02*X118756D01*
X117756D02*Y99512D01*
X120456Y103512D02*Y99512D01*
X119956Y103512D02*X121956D01*
X122456Y103012D01*
Y102012D01*
X121956Y101512D02*X122456Y102012D01*
X120456Y101512D02*X121956D01*
X123656Y99512D02*X125656D01*
X128856Y103512D02*X129356Y103012D01*
X127356Y103512D02*X128856D01*
X126856Y103012D02*X127356Y103512D01*
X126856Y103012D02*Y102012D01*
X127356Y101512D01*
X128856D01*
X129356Y101012D01*
Y100012D01*
X128856Y99512D02*X129356Y100012D01*
X127356Y99512D02*X128856D01*
X126856Y100012D02*X127356Y99512D01*
X131256D02*X132556D01*
X130556Y100212D02*X131256Y99512D01*
X130556Y102812D02*Y100212D01*
Y102812D02*X131256Y103512D01*
X132556D01*
X133756D02*Y99512D01*
Y101512D02*X135756Y103512D01*
X133756Y101512D02*X135756Y99512D01*
X86256Y103512D02*X88256D01*
X87256D02*Y99512D01*
X89956Y103512D02*Y99512D01*
X89456Y103512D02*X91456D01*
X91956Y103012D01*
Y102012D01*
X91456Y101512D02*X91956Y102012D01*
X89956Y101512D02*X91456D01*
X93156Y99512D02*X95156D01*
X96356Y103512D02*Y99512D01*
Y103512D02*X97856Y101512D01*
X99356Y103512D01*
Y99512D01*
X100556Y103012D02*Y100012D01*
Y103012D02*X101056Y103512D01*
X102056D01*
X102556Y103012D01*
Y100012D01*
X102056Y99512D02*X102556Y100012D01*
X101056Y99512D02*X102056D01*
X100556Y100012D02*X101056Y99512D01*
X105756Y103512D02*X106256Y103012D01*
X104256Y103512D02*X105756D01*
X103756Y103012D02*X104256Y103512D01*
X103756Y103012D02*Y102012D01*
X104256Y101512D01*
X105756D01*
X106256Y101012D01*
Y100012D01*
X105756Y99512D02*X106256Y100012D01*
X104256Y99512D02*X105756D01*
X103756Y100012D02*X104256Y99512D01*
X107456Y103512D02*X108456D01*
X107956D02*Y99512D01*
X107456D02*X108456D01*
X36756Y103512D02*X38756D01*
X37756D02*Y99512D01*
X40456Y103512D02*Y99512D01*
X39956Y103512D02*X41956D01*
X42456Y103012D01*
Y102012D01*
X41956Y101512D02*X42456Y102012D01*
X40456Y101512D02*X41956D01*
X43656Y99512D02*X45656D01*
X48856Y103512D02*X49356Y103012D01*
X47356Y103512D02*X48856D01*
X46856Y103012D02*X47356Y103512D01*
X46856Y103012D02*Y102012D01*
X47356Y101512D01*
X48856D01*
X49356Y101012D01*
Y100012D01*
X48856Y99512D02*X49356Y100012D01*
X47356Y99512D02*X48856D01*
X46856Y100012D02*X47356Y99512D01*
X52556Y103512D02*X53056Y103012D01*
X51056Y103512D02*X52556D01*
X50556Y103012D02*X51056Y103512D01*
X50556Y103012D02*Y102012D01*
X51056Y101512D01*
X52556D01*
X53056Y101012D01*
Y100012D01*
X52556Y99512D02*X53056Y100012D01*
X51056Y99512D02*X52556D01*
X50556Y100012D02*X51056Y99512D01*
M02*
