G04 start of page 3 for group 2 idx 2 *
G04 Title: (unknown), 4HiddenLines(NO FAB) *
G04 Creator: pcb 20110918 *
G04 CreationDate: Mon Sep 22 22:22:36 2014 UTC *
G04 For: fosse *
G04 Format: Gerber/RS-274X *
G04 PCB-Dimensions: 320000 125000 *
G04 PCB-Coordinate-Origin: lower left *
%MOIN*%
%FSLAX25Y25*%
%LNGROUP2*%
%ADD27C,0.0150*%
%ADD26C,0.0300*%
%ADD25C,0.0000*%
%ADD24C,0.0070*%
%ADD23C,0.0100*%
%ADD22C,0.0050*%
%ADD21C,0.0060*%
%ADD20C,0.0100*%
%ADD19C,0.0001*%
G54D19*G36*
X67947Y107409D02*X77953D01*
Y97411D01*
X67947D01*
Y107409D01*
G37*
G36*
X299416Y36328D02*X296983Y37216D01*
X295736Y40211D01*
X296983Y43211D01*
X299416Y44099D01*
Y36328D01*
G37*
G36*
X297966Y49936D02*X297548Y48934D01*
X295795Y48294D01*
X294037Y48934D01*
X293622Y49936D01*
X297966D01*
G37*
G36*
X276172Y40211D02*X274919Y37216D01*
X272491Y36328D01*
Y44099D01*
X274919Y43211D01*
X276172Y40211D01*
G37*
G36*
X278283Y49936D02*X277865Y48934D01*
X276112Y48294D01*
X274354Y48934D01*
X273939Y49936D01*
X278283D01*
G37*
G36*
X251155Y57415D02*X250683Y56291D01*
X249652Y55918D01*
X248622Y56291D01*
X248155Y57415D01*
X248622Y58537D01*
X249652Y58912D01*
X250683Y58537D01*
X251155Y57415D01*
G37*
G36*
X211751D02*X211279Y56291D01*
X210248Y55918D01*
X209218Y56291D01*
X208751Y57415D01*
X209218Y58537D01*
X210248Y58912D01*
X211279Y58537D01*
X211751Y57415D01*
G37*
G54D20*X287613Y46791D02*Y54891D01*
X289409D01*
Y46791D01*
X290169D02*Y54891D01*
X291970D02*Y46791D01*
X285054D02*Y54891D01*
X284294D02*Y46791D01*
X285054Y54891D02*X286854D01*
X282493D02*X284294D01*
X290169D02*X291970D01*
G54D21*X271191Y51236D02*X300716D01*
G54D22*X300559Y54137D02*X300218Y53931D01*
G54D20*X286854Y54891D02*Y46791D01*
G54D22*X300218Y53931D02*X300331Y55277D01*
G54D20*X286941Y36261D02*Y44161D01*
X292838D01*
Y36261D01*
X279069Y44161D02*X284966D01*
Y36261D01*
X282493Y46791D02*Y54891D01*
X279937Y46791D02*Y54891D01*
X281733D01*
Y46791D01*
G54D21*X271191Y31552D02*Y51236D01*
G54D20*X279069Y36261D02*Y44161D01*
G54D21*X300716Y31552D02*X271191D01*
X300716Y51236D02*Y31552D01*
G54D22*X299945Y52640D02*X300179Y52380D01*
X300445Y52227D01*
X300793Y52173D01*
X301134Y52277D01*
X301405Y52483D01*
X301595Y52847D01*
X301633Y53259D01*
X301556Y53670D01*
X301368Y53931D01*
X301095Y54137D01*
X300830Y54191D01*
X300559Y54137D01*
X300331Y55277D02*X301368D01*
G54D21*X270112Y60213D02*X269791Y60415D01*
X269418Y60545D01*
X268988D01*
X268511Y60344D01*
X268137Y60013D01*
X267870Y59612D01*
X267654Y58944D01*
X267605Y58348D01*
X267708Y57745D01*
X267870Y57344D01*
X268191Y56948D01*
X268565Y56681D01*
X268934Y56547D01*
X269309D01*
X269683Y56681D01*
X270004Y56877D01*
X270269Y57148D01*
X271712Y56547D02*Y60545D01*
X274165Y56547D01*
Y60545D01*
X276937Y56547D02*Y60545D01*
X276297Y59747D01*
Y56547D02*X277577D01*
G54D22*X271615Y51999D02*Y55098D01*
X271154Y54479D01*
Y51999D02*X272076D01*
X265381Y45511D02*X265766Y45408D01*
X266031Y45154D01*
X265918Y44274D02*X265148Y43759D01*
X265663Y45408D02*X265934Y45154D01*
X265815Y44274D02*X265050Y43759D01*
X265148D02*X264805Y43395D01*
X265050Y43759D02*X264702Y43395D01*
X264572Y44995D02*X264805Y45305D01*
X265072Y45462D01*
X265381Y45511D01*
X264475Y44995D02*X264702Y45305D01*
X264974Y45462D01*
X265277Y45511D01*
X265663Y45408D01*
X266031Y45154D02*X266108Y44844D01*
X266070Y44529D01*
X265918Y44274D01*
X265934Y45154D02*X266011Y44844D01*
G54D20*X262955Y43412D02*Y71412D01*
G54D22*X264745Y70012D02*X265663D01*
G54D20*X261452Y44915D02*Y69915D01*
G54D22*X265305Y70012D02*Y73115D01*
X264844Y72491D01*
Y70012D02*X265761D01*
X265202D02*Y73115D01*
X264745Y72491D01*
X264805Y43395D02*X264572Y42880D01*
X264497Y42413D01*
X266108D01*
X266011Y44844D02*X265972Y44529D01*
X265815Y44274D01*
X264398Y42413D02*X266011D01*
X264702Y43395D02*X264475Y42880D01*
X264398Y42413D01*
G54D20*X251573Y60377D02*Y71179D01*
X255577D02*Y60377D01*
X247700Y71179D02*Y60377D01*
X251573Y71179D02*X255577D01*
X243701Y60377D02*Y71179D01*
X247700D01*
X235829Y60377D02*Y71179D01*
X239827D01*
Y60377D01*
G54D23*X242801Y109615D02*X238101D01*
Y121215D01*
X242801D02*Y109615D01*
X238101Y121215D02*X242801D01*
G54D20*X227951Y60377D02*Y71179D01*
X220079D02*X224077D01*
Y60377D01*
G54D21*X225955Y71412D02*Y69915D01*
G54D20*X227951Y71179D02*X231955D01*
X262955Y71412D02*X196951D01*
X261452Y69915D02*X198454D01*
Y44915D02*X261452D01*
X231955Y71179D02*Y60377D01*
G54D21*X233452Y69915D02*Y71412D01*
G54D20*X204329Y43645D02*Y54447D01*
X208333D01*
Y43645D01*
X212206D02*Y54447D01*
X216205D02*Y43645D01*
X212206Y54447D02*X216205D01*
X220079D02*X224077D01*
X227951D02*X231955D01*
X220079Y43645D02*Y54447D01*
X224077D02*Y43645D01*
X227951D02*Y54447D01*
X231955D02*Y43645D01*
X196951Y43412D02*X262955D01*
X251573Y43645D02*Y54447D01*
X255577D01*
X243701D02*X247700D01*
Y43645D01*
X235829D02*Y54447D01*
X239827D01*
Y43645D01*
X243701D02*Y54447D01*
X255577D02*Y43645D01*
X220079Y60377D02*Y71179D01*
X212206Y60377D02*Y71179D01*
X216205D01*
Y60377D01*
X208333Y71179D02*Y60377D01*
X204329D02*Y71179D01*
X196951Y71412D02*Y43412D01*
X198454Y69915D02*Y44915D01*
X204329Y71179D02*X208333D01*
G54D22*X208562Y37713D02*Y40811D01*
X207145Y38591D01*
X209061D01*
X208465Y37713D02*Y40811D01*
X207043Y38591D01*
X208963D01*
X205002Y37713D02*Y40811D01*
X204541Y40193D01*
Y37713D02*X205465D01*
X204905D02*Y40811D01*
X204444Y40193D01*
Y37713D02*X205361D01*
G54D23*X166701Y114215D02*Y109615D01*
X178201D01*
Y114215D02*X166701D01*
X219201D02*Y109615D01*
X230701D01*
Y114215D01*
X219201D01*
X178201Y109615D02*Y114215D01*
G54D20*X167579Y59265D02*Y63562D01*
X168977D01*
X169548Y59265D02*Y63562D01*
X170947D01*
Y59265D01*
X168977Y63562D02*Y59265D01*
X171516D02*Y63562D01*
X173486Y59265D02*Y63562D01*
X174886D01*
X172916D02*Y59265D01*
X171516Y63562D02*X172916D01*
X174886D02*Y59265D01*
X175455D02*Y63562D01*
X176855D01*
Y59265D01*
G54D24*X303147Y84412D02*X10748D01*
G54D20*X89551Y42511D02*Y67316D01*
Y67315D01*
Y42511D02*X89595D01*
X114355Y67316D02*Y42511D01*
X89551D01*
Y67315D02*X114355Y42511D01*
X89595D02*X114355Y67271D01*
X89551Y67316D02*X114355D01*
G54D21*X93402Y70501D02*X93294Y69898D01*
X89295Y70430D02*X89724Y70100D01*
X90202Y69898D01*
X90630D01*
X91059Y70100D01*
X91373Y70430D01*
X93294Y69898D02*X95534D01*
X91373Y70430D02*X91537Y70897D01*
X91427Y71363D01*
X91162Y71765D01*
X90684Y72030D01*
X90044Y72166D01*
X89670Y72431D01*
X89508Y72898D01*
X89616Y73365D01*
X89881Y73695D01*
X90256Y73897D01*
X90630D01*
X91005Y73766D01*
X91325Y73430D01*
X93402Y73229D02*X93723Y73631D01*
X94097Y73831D01*
X94520Y73897D01*
X95058Y73766D01*
X95431Y73430D01*
X95534Y73034D01*
X95480Y72633D01*
X95269Y72297D01*
X94205Y71629D01*
X93723Y71162D01*
X93402Y70501D01*
G54D22*X204621Y74118D02*X204848Y73762D01*
X205158Y73549D01*
X204751Y73762D02*X205055Y73549D01*
X205808D02*X206112Y73810D01*
X206308Y74118D01*
X206015Y73810D02*X206205Y74118D01*
X204518D02*X204751Y73762D01*
X205158Y73549D02*X205500Y73500D01*
X205808Y73549D01*
X205055D02*X205403Y73500D01*
X205705Y73549D01*
X206015Y73810D01*
X206308Y74118D02*X206346Y74428D01*
X206205Y74118D02*X206243Y74428D01*
X206346D02*X206269Y74792D01*
X206243Y74428D02*X206166Y74792D01*
X206269D02*X205998Y75052D01*
X206166Y74792D02*X205901Y75052D01*
X205961Y75307D02*X206155Y75567D01*
X206232Y75877D01*
X206155Y76186D01*
X206053Y75567D02*X206129Y75877D01*
X206053Y76186D01*
X206155D02*X205961Y76446D01*
X205619Y76599D01*
X205272Y76549D01*
X204925Y76343D01*
X205864Y76446D02*X205516Y76599D01*
X205173Y76549D01*
X204826Y76343D01*
X205998Y75052D02*X205733Y75155D01*
X205386D01*
X205733D02*X205961Y75307D01*
X205901Y75052D02*X205630Y75155D01*
X205287D01*
X205630D02*X205864Y75307D01*
X206053Y75567D01*
Y76186D02*X205864Y76446D01*
X202364Y73500D02*Y76599D01*
X201903Y75980D01*
Y73500D02*X202825D01*
X202266D02*Y76599D01*
X201805Y75980D01*
Y73500D02*X202722D01*
G54D20*X124973Y42516D02*Y59840D01*
X127652Y59834D02*X137256D01*
G54D22*X135862Y45913D02*X135711Y46223D01*
X135483Y46479D01*
X135173Y46581D01*
G54D20*X141987Y59265D02*Y63562D01*
X143391D01*
Y59265D01*
X143956D02*Y63562D01*
X141423D02*Y59265D01*
X145926D02*Y63562D01*
X147326D01*
Y59265D01*
X143956Y63562D02*X145356D01*
Y59265D01*
X140023D02*Y63562D01*
X138054Y59265D02*Y63562D01*
X139454D01*
Y59265D01*
X140023Y63562D02*X141423D01*
X124973Y59840D02*X189936D01*
X177652Y59834D02*X187256D01*
X189936Y59840D02*Y42516D01*
G54D22*X184604Y44015D02*Y47113D01*
X184143Y46494D01*
Y44015D02*X185065D01*
X184604Y43912D02*Y47015D01*
X184143Y46391D01*
Y43912D02*X185065D01*
G54D20*X189936Y42516D02*X124973D01*
G54D21*X155040Y43666D02*X155307Y43270D01*
X155626Y43003D01*
X156001Y42868D01*
X156423Y43003D01*
X156744Y43270D01*
X157064Y43666D01*
X157173Y44203D01*
Y46867D01*
X160802Y45200D02*X161068Y45538D01*
X161171Y45934D01*
X161068Y46335D01*
X160802Y46666D01*
X160319Y46867D01*
X159841Y46802D01*
X159359Y46535D01*
X158930Y43666D02*X159251Y43199D01*
X159679Y42934D01*
X160162Y42868D01*
X160586Y42934D01*
X161014Y43270D01*
X161280Y43666D01*
X161334Y44067D01*
X161226Y44534D01*
X160851Y44870D01*
X160482Y45000D01*
X160000D01*
X160482D02*X160802Y45200D01*
G54D20*X165609Y59265D02*Y63562D01*
X167013D02*Y59265D01*
X163645Y63562D02*X165044D01*
Y59265D01*
X165609Y63562D02*X167013D01*
X161676Y59265D02*Y63562D01*
X163075D01*
Y59265D01*
X163645D02*Y63562D01*
X161105D02*Y59265D01*
X157737D02*Y63562D01*
X159136D01*
X159706D02*X161105D01*
X159136D02*Y59265D01*
X159706D02*Y63562D01*
X149865Y59265D02*Y63562D01*
X151263D01*
Y59265D01*
X147895D02*Y63562D01*
X149294D01*
Y59265D01*
X151834D02*Y63562D01*
X153233D01*
Y59265D01*
X153798D02*Y63562D01*
X155202D02*Y59265D01*
X155768D02*Y63562D01*
X157166D02*Y59265D01*
X153798Y63562D02*X155202D01*
X155768D02*X157166D01*
G54D22*X131533Y46434D02*X131804Y46593D01*
X132108Y46641D01*
X132493Y46538D01*
X132759Y46283D01*
X131305Y46126D02*X131533Y46434D01*
X132759Y46283D02*X132840Y45973D01*
X132802Y45659D01*
X132645Y45404D01*
X131533Y44524D02*X131305Y44009D01*
X131229Y43543D01*
X132645Y45404D02*X131880Y44888D01*
X131533Y44524D01*
X131229Y43543D02*X132840D01*
X135136Y46641D02*X134826Y46538D01*
X134598Y46283D01*
X134441Y45973D01*
X134327Y45556D01*
X134288Y45095D01*
X134327Y44629D01*
X134441Y44216D01*
X134598Y43906D01*
X134826Y43647D01*
X135136Y43543D01*
X135440Y43647D01*
X135673Y43906D01*
X135824Y44216D01*
X135938Y44629D01*
X135976Y45095D01*
X135938Y45556D01*
X135824Y45973D01*
X135673Y46283D01*
X135440Y46538D01*
X135136Y46641D01*
X131343Y46066D02*X131576Y46376D01*
X131843Y46533D01*
X132151Y46581D01*
X132531Y46479D01*
X132802Y46223D01*
X132879Y45913D01*
X132840Y45599D01*
X132688Y45344D01*
X131918Y44829D01*
X131576Y44465D01*
X131343Y43949D01*
X131268Y43483D01*
X132879D01*
X135173Y46581D02*X134863Y46479D01*
X134636Y46223D01*
X134484Y45913D01*
X134370Y45497D01*
X134333Y45036D01*
X134370Y44569D01*
X134484Y44156D01*
X134636Y43847D01*
X134863Y43587D01*
X135173Y43483D01*
X135483Y43587D01*
X135711Y43847D01*
X135862Y44156D01*
X135976Y44569D01*
X136015Y45036D01*
X135976Y45497D01*
X135862Y45913D01*
G54D20*X10752Y34411D02*X303152D01*
G54D24*X4450Y90711D02*X4943Y88258D01*
X6294Y86257D01*
G54D25*X16950Y81921D02*X16940Y81911D01*
G54D24*X4862Y88266D02*X6212Y86264D01*
X8214Y84914D01*
X10666Y84419D01*
X4367Y90718D02*X4862Y88266D01*
G54D20*X36556Y57811D02*Y46011D01*
X50352D01*
X36556Y57811D02*X50352Y46011D01*
X36556D02*X50352Y57811D01*
Y46011D02*Y57811D01*
X36556D01*
G54D22*X50455Y53411D02*X36452D01*
G54D21*X37841Y69318D02*Y65313D01*
X39975D01*
X43972D02*X41840D01*
Y69318D01*
X43972D01*
X43120Y67381D02*X41840D01*
X45736Y65313D02*Y69318D01*
X46800D01*
X47227Y69118D01*
X47548Y68851D01*
X47813Y68450D01*
X48024Y67983D01*
X48079Y67316D01*
X48024Y66648D01*
X47813Y66181D01*
X47548Y65780D02*X47227Y65515D01*
X46800Y65313D01*
X45736D01*
X47813Y66181D02*X47548Y65780D01*
X69358Y64787D02*X67226D01*
X50906Y65313D02*Y69318D01*
X50266Y68515D01*
Y65313D02*X51547D01*
G54D20*X62554Y57811D02*Y46011D01*
X76351D01*
Y57811D01*
X62554D01*
G54D22*X76454Y53411D02*X62451D01*
G54D20*X62554Y57811D02*X76351Y46011D01*
X62554D02*X76351Y57811D01*
G54D21*X63227Y68786D02*Y64787D01*
X65359D01*
X67226D02*Y68786D01*
X69358D01*
X68506Y66855D02*X67226D01*
X71120Y64787D02*Y68786D01*
X72184D01*
X72613Y68586D01*
X72933Y68319D01*
X73198Y67918D01*
X73411Y67451D01*
X73465Y66790D01*
X73411Y66122D01*
X73198Y65655D01*
X72933Y65254D01*
X72613Y64988D01*
X72184Y64787D01*
X71120D01*
X75276Y68119D02*X75597Y68520D01*
X75970Y68720D01*
X76400Y68786D01*
X76931Y68656D01*
X77305Y68319D01*
X77415Y67918D01*
X77359Y67522D01*
X77143Y67186D01*
X76080Y66518D01*
X75597Y66052D01*
X75276Y65384D01*
X75173Y64787D01*
X77415D01*
G54D23*X16938Y81911D02*G75*G03X31939Y96912I0J15001D01*G01*
X31940Y96911D02*G75*G03X16950Y111901I-14990J0D01*G01*
X281937Y96909D02*G75*G03X296935Y81911I14998J0D01*G01*
X296947Y111901D02*G75*G03X281937Y96891I0J-15010D01*G01*
G54D20*X303500Y84500D02*G75*G03X309500Y90500I0J6000D01*G01*
X217684Y77132D02*X218484D01*
Y73632D01*
X217984Y73132D02*X218484Y73632D01*
X217484Y73132D02*X217984D01*
X216984Y73632D02*X217484Y73132D01*
X216984Y74132D02*Y73632D01*
X219684Y76332D02*X220484Y77132D01*
Y73132D01*
X219684D02*X221184D01*
X222384Y76332D02*X223184Y77132D01*
Y73132D01*
X222384D02*X223884D01*
X225084Y75132D02*X227084D01*
X228984Y77132D02*X229784D01*
Y73632D01*
X229284Y73132D02*X229784Y73632D01*
X228784Y73132D02*X229284D01*
X228284Y73632D02*X228784Y73132D01*
X228284Y74132D02*Y73632D01*
X230984Y77132D02*X232984D01*
X231984D02*Y73132D01*
X234184Y76132D02*Y73132D01*
Y76132D02*X234884Y77132D01*
X235984D01*
X236684Y76132D01*
Y73132D01*
X234184Y75132D02*X236684D01*
X239884Y77132D02*X240384Y76632D01*
X238384Y77132D02*X239884D01*
X237884Y76632D02*X238384Y77132D01*
X237884Y76632D02*Y73632D01*
X238384Y73132D01*
X239884D01*
X240384Y73632D01*
Y74632D02*Y73632D01*
X239884Y75132D02*X240384Y74632D01*
X238884Y75132D02*X239884D01*
G54D26*X115500Y92500D03*
X86000D03*
X158500Y73000D03*
X173000Y75500D03*
X138500Y92500D03*
X130500Y75500D03*
X54000Y80000D03*
X82500Y86500D03*
X64000Y88500D03*
X42500Y82000D03*
G54D27*M02*
