G04 start of page 11 for group -4015 idx -4015 *
G04 Title: (unknown), toppaste *
G04 Creator: pcb 20110918 *
G04 CreationDate: Mon Sep 22 22:22:36 2014 UTC *
G04 For: fosse *
G04 Format: Gerber/RS-274X *
G04 PCB-Dimensions: 320000 125000 *
G04 PCB-Coordinate-Origin: lower left *
%MOIN*%
%FSLAX25Y25*%
%LNTOPPASTE*%
%ADD49R,0.0807X0.0807*%
%ADD48R,0.0236X0.0236*%
%ADD47R,0.0157X0.0157*%
%ADD46R,0.0158X0.0158*%
G54D46*X140717Y69062D02*Y64338D01*
X144654Y69062D02*Y64338D01*
X148591Y69062D02*Y64338D01*
X152528Y69062D02*Y64338D01*
X156465Y69062D02*Y64338D01*
X160402Y69062D02*Y64338D01*
X164339Y69062D02*Y64338D01*
X168276Y69062D02*Y64338D01*
X172213Y69062D02*Y64338D01*
X176150Y69062D02*Y64338D01*
G54D47*X138749Y59613D02*Y54888D01*
X142686Y59613D02*Y54888D01*
X146623Y59613D02*Y54888D01*
X150560Y59613D02*Y54888D01*
X154497Y59613D02*Y54888D01*
G54D46*X158434Y59613D02*Y54889D01*
X162371Y59613D02*Y54889D01*
X166308Y59613D02*Y54889D01*
X170245Y59613D02*Y54889D01*
X174182Y59613D02*Y54889D01*
G54D48*X180088Y68668D02*Y64731D01*
Y59219D02*Y55282D01*
X134812Y68668D02*Y64731D01*
Y59219D02*Y55282D01*
G54D49*X201850Y92500D02*X208149D01*
X123350D02*X129649D01*
X146350D02*X152649D01*
X93850D02*X100149D01*
X42350D02*X48649D01*
X174870Y92480D02*X181169D01*
M02*
