G04 start of page 11 for group -4078 idx -4078 *
G04 Title: (unknown), bottomsilk *
G04 Creator: pcb 20110918 *
G04 CreationDate: Tue Dec 17 23:37:43 2013 UTC *
G04 For: fosse *
G04 Format: Gerber/RS-274X *
G04 PCB-Dimensions: 550000 350000 *
G04 PCB-Coordinate-Origin: lower left *
%MOIN*%
%FSLAX25Y25*%
%LNBOTTOMSILK*%
%ADD191C,0.0100*%
%ADD190C,0.0060*%
G54D190*X335250Y269250D02*Y273250D01*
Y269250D02*X336750Y271250D01*
X338250Y269250D01*
Y273250D01*
X339450Y270250D02*Y270350D01*
Y271750D02*Y273250D01*
X340950Y271250D02*X342450D01*
X340450Y271750D02*X340950Y271250D01*
X340450Y271750D02*Y272750D01*
X340950Y273250D01*
X342450D01*
X344150Y271750D02*Y273250D01*
Y271750D02*X344650Y271250D01*
X345650D01*
X343650D02*X344150Y271750D01*
X346850D02*Y272750D01*
Y271750D02*X347350Y271250D01*
X348350D01*
X348850Y271750D01*
Y272750D01*
X348350Y273250D02*X348850Y272750D01*
X347350Y273250D02*X348350D01*
X346850Y272750D02*X347350Y273250D01*
X353850Y269250D02*X354350Y269750D01*
X352350Y269250D02*X353850D01*
X351850Y269750D02*X352350Y269250D01*
X351850Y269750D02*Y270750D01*
X352350Y271250D01*
X353850D01*
X354350Y271750D01*
Y272750D01*
X353850Y273250D02*X354350Y272750D01*
X352350Y273250D02*X353850D01*
X351850Y272750D02*X352350Y273250D01*
X356050Y269250D02*Y273250D01*
X357350Y269250D02*X358050Y269950D01*
Y272550D01*
X357350Y273250D02*X358050Y272550D01*
X355550Y273250D02*X357350D01*
X355550Y269250D02*X357350D01*
X359250Y271250D02*X361250D01*
X363150Y273250D02*X364450D01*
X362450Y272550D02*X363150Y273250D01*
X362450Y269950D02*Y272550D01*
Y269950D02*X363150Y269250D01*
X364450D01*
X365650Y270250D02*Y273250D01*
Y270250D02*X366350Y269250D01*
X367450D01*
X368150Y270250D01*
Y273250D01*
X365650Y271250D02*X368150D01*
X369350Y269250D02*X371350D01*
X371850Y269750D01*
Y270750D01*
X371350Y271250D02*X371850Y270750D01*
X369850Y271250D02*X371350D01*
X369850Y269250D02*Y273250D01*
X370650Y271250D02*X371850Y273250D01*
X373550Y269250D02*Y273250D01*
X374850Y269250D02*X375550Y269950D01*
Y272550D01*
X374850Y273250D02*X375550Y272550D01*
X373050Y273250D02*X374850D01*
X373050Y269250D02*X374850D01*
G54D191*X268650Y64396D02*X211170D01*
X211169Y79909D01*
X264712Y83846D02*X215106D01*
X268649Y79909D02*X268650Y64396D01*
X268649Y79909D02*X264712Y83846D01*
X211169Y79909D02*X215106Y83846D01*
X270342Y81642D02*X266012Y85972D01*
X213020D01*
X209083Y82035D01*
Y62507D02*Y82035D01*
X270342Y62507D02*X209083D01*
X270342D02*X270343Y81642D01*
X234667Y238441D02*Y250056D01*
X291754D02*Y238441D01*
X288801Y250056D02*X291754D01*
X234667D02*X237620D01*
X234667Y238441D02*X237620D01*
X288801D02*X291754D01*
X244509Y256158D02*Y260292D01*
Y256158D02*X245691Y257339D01*
X244509Y256158D02*X243328Y257339D01*
X245691D02*X243328D01*
X321409Y201740D02*X389519D01*
X321409Y266701D02*X321410Y201740D01*
X317473Y260992D02*Y217685D01*
X313536Y260992D02*Y217685D01*
X301725D02*X321410D01*
X301725Y260992D02*Y217685D01*
Y260992D02*X321410D01*
X389519Y266701D02*Y201740D01*
X321409Y266701D02*X389519D01*
X326330Y304890D02*Y266701D01*
Y304890D02*X364814D01*
X385386Y284318D02*Y266701D01*
X364814Y304890D02*X385386Y284318D01*
X49316Y257705D02*X52465D01*
X49316Y192548D02*X52465D01*
Y257705D01*
X49316Y192548D02*Y257705D01*
X52465Y196091D02*X62780D01*
X71442Y204280D02*Y244201D01*
X52465Y252390D02*X62780D01*
X55418Y196091D02*Y252390D01*
X75221Y175051D02*Y151429D01*
X51599Y175051D02*X75221D01*
X51599D02*Y151429D01*
X75221D01*
X111221Y57551D02*Y33929D01*
X87599Y57551D02*X111221D01*
X87599D02*Y33929D01*
X111221D01*
X75221Y98051D02*Y74429D01*
X51599Y98051D02*X75221D01*
X51599D02*Y74429D01*
X75221D01*
X215241Y240158D02*X157761D01*
X157760Y255671D01*
X161697Y259608D02*X211303D01*
X215240Y255671D02*X215241Y240158D01*
X215240Y255671D02*X211303Y259608D01*
X157760Y255671D02*X161697Y259608D01*
X216933Y257404D02*X212603Y261734D01*
X159611D01*
X155674Y257797D01*
Y238269D01*
X216933D01*
X216934Y257404D01*
G54D190*X77111Y216751D02*Y218051D01*
X77811Y216051D02*X77111Y216751D01*
X77811Y216051D02*X80411D01*
X81111Y216751D01*
Y218051D01*
X77611Y219251D02*X80611D01*
X81111Y219751D01*
Y220751D01*
X80611Y221251D01*
X77611D02*X80611D01*
X77111Y220751D02*X77611Y221251D01*
X77111Y219751D02*Y220751D01*
X77611Y219251D02*X77111Y219751D01*
Y222451D02*X81111D01*
X77111Y224951D01*
X81111D01*
X77111Y226151D02*X81111D01*
X77111Y228651D01*
X81111D01*
X78611Y229851D02*X81111Y231851D01*
X78611Y229851D02*Y232351D01*
X77111Y231851D02*X81111D01*
X77611Y233551D02*X77111Y234051D01*
X77611Y233551D02*X80611D01*
X81111Y234051D01*
Y235051D01*
X80611Y235551D01*
X77611D02*X80611D01*
X77111Y235051D02*X77611Y235551D01*
X77111Y234051D02*Y235051D01*
X78111Y233551D02*X80111Y235551D01*
X77611Y236751D02*X77111Y237251D01*
X77611Y236751D02*X80611D01*
X81111Y237251D01*
Y238251D01*
X80611Y238751D01*
X77611D02*X80611D01*
X77111Y238251D02*X77611Y238751D01*
X77111Y237251D02*Y238251D01*
X78111Y236751D02*X80111Y238751D01*
X174897Y235846D02*X176197D01*
X174197Y235146D02*X174897Y235846D01*
X174197Y232546D02*Y235146D01*
Y232546D02*X174897Y231846D01*
X176197D01*
X177397Y232346D02*Y235346D01*
Y232346D02*X177897Y231846D01*
X178897D01*
X179397Y232346D01*
Y235346D01*
X178897Y235846D02*X179397Y235346D01*
X177897Y235846D02*X178897D01*
X177397Y235346D02*X177897Y235846D01*
X180597Y231846D02*Y235846D01*
Y231846D02*X183097Y235846D01*
Y231846D02*Y235846D01*
X184297Y231846D02*Y235846D01*
Y231846D02*X186797Y235846D01*
Y231846D02*Y235846D01*
X188497D02*X190497Y231846D01*
X187997D02*X190497D01*
X191697Y235346D02*X192197Y235846D01*
X191697Y232346D02*Y235346D01*
Y232346D02*X192197Y231846D01*
X193197D01*
X193697Y232346D01*
Y235346D01*
X193197Y235846D02*X193697Y235346D01*
X192197Y235846D02*X193197D01*
X191697Y234846D02*X193697Y232846D01*
X194897Y234346D02*X196897Y231846D01*
X194897Y234346D02*X197397D01*
X196897Y231846D02*Y235846D01*
X81111Y162287D02*X80611Y162787D01*
X81111Y160787D02*Y162287D01*
X80611Y160287D02*X81111Y160787D01*
X79611Y160287D02*X80611D01*
X79611D02*X79111Y160787D01*
Y162287D01*
X78611Y162787D01*
X77611D02*X78611D01*
X77111Y162287D02*X77611Y162787D01*
X77111Y160787D02*Y162287D01*
X77611Y160287D02*X77111Y160787D01*
X81111Y165487D02*X80611Y165987D01*
X81111Y164487D02*Y165487D01*
X80611Y163987D02*X81111Y164487D01*
X77611Y163987D02*X80611D01*
X77611D02*X77111Y164487D01*
X79311Y165487D02*X78811Y165987D01*
X79311Y163987D02*Y165487D01*
X77111Y164487D02*Y165487D01*
X77611Y165987D01*
X78811D01*
X77611Y167187D02*X77111Y167687D01*
X77611Y167187D02*X80611D01*
X81111Y167687D01*
Y168687D01*
X80611Y169187D01*
X77611D02*X80611D01*
X77111Y168687D02*X77611Y169187D01*
X77111Y167687D02*Y168687D01*
X78111Y167187D02*X80111Y169187D01*
X80311Y170387D02*X81111Y171187D01*
X77111D02*X81111D01*
X77111Y170387D02*Y171887D01*
X229410Y60240D02*X230710D01*
X228710Y59540D02*X229410Y60240D01*
X228710Y56940D02*Y59540D01*
Y56940D02*X229410Y56240D01*
X230710D01*
X231910Y56740D02*Y59740D01*
Y56740D02*X232410Y56240D01*
X233410D01*
X233910Y56740D01*
Y59740D01*
X233410Y60240D02*X233910Y59740D01*
X232410Y60240D02*X233410D01*
X231910Y59740D02*X232410Y60240D01*
X235110Y56240D02*Y60240D01*
Y56240D02*X237610Y60240D01*
Y56240D02*Y60240D01*
X238810Y56240D02*Y60240D01*
Y56240D02*X241310Y60240D01*
Y56240D02*Y60240D01*
X243010D02*X245010Y56240D01*
X242510D02*X245010D01*
X246210Y59740D02*X246710Y60240D01*
X246210Y56740D02*Y59740D01*
Y56740D02*X246710Y56240D01*
X247710D01*
X248210Y56740D01*
Y59740D01*
X247710Y60240D02*X248210Y59740D01*
X246710Y60240D02*X247710D01*
X246210Y59240D02*X248210Y57240D01*
X250910Y56240D02*X251410Y56740D01*
X249910Y56240D02*X250910D01*
X249410Y56740D02*X249910Y56240D01*
X249410Y56740D02*Y59740D01*
X249910Y60240D01*
X250910Y58040D02*X251410Y58540D01*
X249410Y58040D02*X250910D01*
X249910Y60240D02*X250910D01*
X251410Y59740D01*
Y58540D02*Y59740D01*
X314910Y59890D02*Y63890D01*
X316910D01*
X318610Y59890D02*Y63890D01*
X318110Y59890D02*X320110D01*
X320610Y60390D01*
Y61390D01*
X320110Y61890D02*X320610Y61390D01*
X318610Y61890D02*X320110D01*
X321810Y59890D02*X322810D01*
X322310D02*Y63890D01*
X321810D02*X322810D01*
X324510Y59890D02*Y63890D01*
X324010Y59890D02*X326010D01*
X326510Y60390D01*
Y61390D01*
X326010Y61890D02*X326510Y61390D01*
X324510Y61890D02*X326010D01*
X327710Y61690D02*X329210D01*
X327710Y63890D02*X329710D01*
X327710Y59890D02*Y63890D01*
Y59890D02*X329710D01*
X330910Y63390D02*X331410Y63890D01*
X330910Y62590D02*Y63390D01*
Y62590D02*X331610Y61890D01*
X332210D01*
X332910Y62590D01*
Y63390D01*
X332410Y63890D02*X332910Y63390D01*
X331410Y63890D02*X332410D01*
X330910Y61190D02*X331610Y61890D01*
X330910Y60390D02*Y61190D01*
Y60390D02*X331410Y59890D01*
X332410D01*
X332910Y60390D01*
Y61190D01*
X332210Y61890D02*X332910Y61190D01*
X334110Y63390D02*X334610Y63890D01*
X334110Y60390D02*Y63390D01*
Y60390D02*X334610Y59890D01*
X335610D01*
X336110Y60390D01*
Y63390D01*
X335610Y63890D02*X336110Y63390D01*
X334610Y63890D02*X335610D01*
X334110Y62890D02*X336110Y60890D01*
X337310Y63390D02*X337810Y63890D01*
X337310Y60390D02*Y63390D01*
Y60390D02*X337810Y59890D01*
X338810D01*
X339310Y60390D01*
Y63390D01*
X338810Y63890D02*X339310Y63390D01*
X337810Y63890D02*X338810D01*
X337310Y62890D02*X339310Y60890D01*
X343110Y60590D02*Y64590D01*
X345110D01*
X346810Y60590D02*Y64590D01*
X346310Y60590D02*X348310D01*
X348810Y61090D01*
Y62090D01*
X348310Y62590D02*X348810Y62090D01*
X346810Y62590D02*X348310D01*
X350010Y60590D02*X351010D01*
X350510D02*Y64590D01*
X350010D02*X351010D01*
X352710Y60590D02*Y64590D01*
X352210Y60590D02*X354210D01*
X354710Y61090D01*
Y62090D01*
X354210Y62590D02*X354710Y62090D01*
X352710Y62590D02*X354210D01*
X355910Y62390D02*X357410D01*
X355910Y64590D02*X357910D01*
X355910Y60590D02*Y64590D01*
Y60590D02*X357910D01*
X359110Y64090D02*X359610Y64590D01*
X359110Y63290D02*Y64090D01*
Y63290D02*X359810Y62590D01*
X360410D01*
X361110Y63290D01*
Y64090D01*
X360610Y64590D02*X361110Y64090D01*
X359610Y64590D02*X360610D01*
X359110Y61890D02*X359810Y62590D01*
X359110Y61090D02*Y61890D01*
Y61090D02*X359610Y60590D01*
X360610D01*
X361110Y61090D01*
Y61890D01*
X360410Y62590D02*X361110Y61890D01*
X362310Y64090D02*X362810Y64590D01*
X362310Y61090D02*Y64090D01*
Y61090D02*X362810Y60590D01*
X363810D01*
X364310Y61090D01*
Y64090D01*
X363810Y64590D02*X364310Y64090D01*
X362810Y64590D02*X363810D01*
X362310Y63590D02*X364310Y61590D01*
X365510Y61390D02*X366310Y60590D01*
Y64590D01*
X365510D02*X367010D01*
X255446Y226709D02*X256746D01*
X254746Y226009D02*X255446Y226709D01*
X254746Y223409D02*Y226009D01*
Y223409D02*X255446Y222709D01*
X256746D01*
X257946Y223209D02*Y226209D01*
Y223209D02*X258446Y222709D01*
X259446D01*
X259946Y223209D01*
Y226209D01*
X259446Y226709D02*X259946Y226209D01*
X258446Y226709D02*X259446D01*
X257946Y226209D02*X258446Y226709D01*
X261146Y222709D02*Y226709D01*
Y222709D02*X263646Y226709D01*
Y222709D02*Y226709D01*
X264846Y222709D02*Y226709D01*
Y222709D02*X267346Y226709D01*
Y222709D02*Y226709D01*
X269046D02*X271046Y222709D01*
X268546D02*X271046D01*
X272246Y226209D02*X272746Y226709D01*
X272246Y223209D02*Y226209D01*
Y223209D02*X272746Y222709D01*
X273746D01*
X274246Y223209D01*
Y226209D01*
X273746Y226709D02*X274246Y226209D01*
X272746Y226709D02*X273746D01*
X272246Y225709D02*X274246Y223709D01*
X275446Y222709D02*X277446D01*
X275446D02*Y224709D01*
X275946Y224209D01*
X276946D01*
X277446Y224709D01*
Y226209D01*
X276946Y226709D02*X277446Y226209D01*
X275946Y226709D02*X276946D01*
X275446Y226209D02*X275946Y226709D01*
X391473Y204012D02*Y205312D01*
X392173Y203312D02*X391473Y204012D01*
X392173Y203312D02*X394773D01*
X395473Y204012D01*
Y205312D01*
X391973Y206512D02*X394973D01*
X395473Y207012D01*
Y208012D01*
X394973Y208512D01*
X391973D02*X394973D01*
X391473Y208012D02*X391973Y208512D01*
X391473Y207012D02*Y208012D01*
X391973Y206512D02*X391473Y207012D01*
Y209712D02*X395473D01*
X391473Y212212D01*
X395473D01*
X391473Y213412D02*X395473D01*
X391473Y215912D01*
X395473D01*
X394973Y217112D02*X395473Y217612D01*
Y218612D01*
X394973Y219112D01*
X391473Y218612D02*X391973Y219112D01*
X391473Y217612D02*Y218612D01*
X391973Y217112D02*X391473Y217612D01*
X393673D02*Y218612D01*
X394173Y219112D02*X394973D01*
X391973D02*X393173D01*
X393673Y218612D01*
X394173Y219112D02*X393673Y218612D01*
X391973Y220312D02*X391473Y220812D01*
X391973Y220312D02*X394973D01*
X395473Y220812D01*
Y221812D01*
X394973Y222312D01*
X391973D02*X394973D01*
X391473Y221812D02*X391973Y222312D01*
X391473Y220812D02*Y221812D01*
X392473Y220312D02*X394473Y222312D01*
X391973Y223512D02*X391473Y224012D01*
X391973Y223512D02*X394973D01*
X395473Y224012D01*
Y225012D01*
X394973Y225512D01*
X391973D02*X394973D01*
X391473Y225012D02*X391973Y225512D01*
X391473Y224012D02*Y225012D01*
X392473Y223512D02*X394473Y225512D01*
X81111Y85287D02*X80611Y85787D01*
X81111Y83787D02*Y85287D01*
X80611Y83287D02*X81111Y83787D01*
X79611Y83287D02*X80611D01*
X79611D02*X79111Y83787D01*
Y85287D01*
X78611Y85787D01*
X77611D02*X78611D01*
X77111Y85287D02*X77611Y85787D01*
X77111Y83787D02*Y85287D01*
X77611Y83287D02*X77111Y83787D01*
X81111Y88487D02*X80611Y88987D01*
X81111Y87487D02*Y88487D01*
X80611Y86987D02*X81111Y87487D01*
X77611Y86987D02*X80611D01*
X77611D02*X77111Y87487D01*
X79311Y88487D02*X78811Y88987D01*
X79311Y86987D02*Y88487D01*
X77111Y87487D02*Y88487D01*
X77611Y88987D01*
X78811D01*
X77611Y90187D02*X77111Y90687D01*
X77611Y90187D02*X80611D01*
X81111Y90687D01*
Y91687D01*
X80611Y92187D01*
X77611D02*X80611D01*
X77111Y91687D02*X77611Y92187D01*
X77111Y90687D02*Y91687D01*
X78111Y90187D02*X80111Y92187D01*
X80611Y93387D02*X81111Y93887D01*
Y95387D01*
X80611Y95887D01*
X79611D02*X80611D01*
X77111Y93387D02*X79611Y95887D01*
X77111Y93387D02*Y95887D01*
X117111Y44787D02*X116611Y45287D01*
X117111Y43287D02*Y44787D01*
X116611Y42787D02*X117111Y43287D01*
X115611Y42787D02*X116611D01*
X115611D02*X115111Y43287D01*
Y44787D01*
X114611Y45287D01*
X113611D02*X114611D01*
X113111Y44787D02*X113611Y45287D01*
X113111Y43287D02*Y44787D01*
X113611Y42787D02*X113111Y43287D01*
X117111Y47987D02*X116611Y48487D01*
X117111Y46987D02*Y47987D01*
X116611Y46487D02*X117111Y46987D01*
X113611Y46487D02*X116611D01*
X113611D02*X113111Y46987D01*
X115311Y47987D02*X114811Y48487D01*
X115311Y46487D02*Y47987D01*
X113111Y46987D02*Y47987D01*
X113611Y48487D01*
X114811D01*
X113611Y49687D02*X113111Y50187D01*
X113611Y49687D02*X116611D01*
X117111Y50187D01*
Y51187D01*
X116611Y51687D01*
X113611D02*X116611D01*
X113111Y51187D02*X113611Y51687D01*
X113111Y50187D02*Y51187D01*
X114111Y49687D02*X116111Y51687D01*
X113611Y52887D02*X113111Y53387D01*
X113611Y52887D02*X116611D01*
X117111Y53387D01*
Y54387D01*
X116611Y54887D01*
X113611D02*X116611D01*
X113111Y54387D02*X113611Y54887D01*
X113111Y53387D02*Y54387D01*
X114111Y52887D02*X116111Y54887D01*
M02*
