M48
INCH
T136C0.020
T135C0.035
T134C0.015
T133C0.043
T132C0.109
T131C0.094
T130C0.115
T129C0.035
T128C0.116
%
T134
X027650Y007300
X027700Y002550
X028300Y003100
X035250Y003300
X025625Y009725
X027500Y011100
X026450Y011650
X026450Y011150
X030300Y012200
X030900Y011750
X025881Y008914
X025251Y008914
X024931Y007774
X024621Y008914
X024301Y007774
X023991Y008914
X023671Y007774
X023361Y008914
X023041Y007774
X022731Y008914
X022101Y008914
X022411Y007774
X021781Y007774
X039350Y004400
X039350Y004950
X038800Y004400
X036500Y006000
X037100Y006050
X026730Y004980
X025801Y005194
X026621Y005784
X025401Y004744
X025011Y005194
X024611Y004744
X024221Y005194
X023821Y004744
X023441Y005194
X022641Y005194
X023041Y004744
X022241Y004744
X025601Y002624
X025201Y002624
X024801Y002624
X024411Y002624
X024021Y002624
X023621Y002624
X023241Y002624
X022839Y002626
X022445Y002628
X022041Y002624
X013200Y009850
X013950Y007150
X012900Y006400
X012850Y005650
X012613Y009863
X010300Y004600
X014800Y005700
X015900Y009950
X015150Y006500
X014500Y006500
X015550Y002950
X015400Y005150
X016450Y004350
X010450Y008500
X020350Y005550
X020350Y006800
X018010Y005600
X019210Y005600
X021000Y002600
X020150Y003000
X021200Y015850
X021100Y014000
X020800Y013000
X020000Y011600
X019150Y008450
X019350Y010700
X019550Y013700
X018300Y013800
X008750Y004300
X007400Y004950
X007850Y004500
X009350Y010100
X009141Y011474
X009341Y012074
X009941Y012074
X009950Y009950
X011582Y013015
X007250Y005850
X007850Y008150
X008500Y010100
X007750Y006300
X010000Y008050
X009300Y008050
X012141Y011874
X013191Y014524
X012791Y014074
X012391Y014524
X014850Y011650
X016600Y012850
X011891Y013574
X011650Y010050
X012250Y010450
X011691Y014174
X013641Y014074
X011826Y014889
X014800Y013600
X015350Y013600
X015875Y013625
X016100Y014550
X018750Y016800
X017100Y016950
X017350Y017800
X018300Y017180
X019450Y017100
X015100Y017300
X015650Y017650
X015250Y018150
X014450Y019250
X012950Y019250
X012250Y018550
X013800Y018500
X023400Y018700
X024800Y018700
X021700Y018700
X021700Y014850
X022800Y015150
X022050Y014400
X022350Y012700
X023300Y012800
X023450Y013500
X018900Y013750
X020050Y010850
X023400Y019900
X023450Y021350
X022800Y020100
X022400Y021200
X023200Y020900
X024050Y021200
X022050Y019200
X021100Y019350
X020540Y023460
X020225Y022875
X019910Y023440
X019595Y022855
X018965Y022835
X016441Y022844
X017073Y022846
X017703Y022846
X018333Y022846
X019280Y023420
X016753Y023409
X017393Y023409
X018023Y023409
X018653Y023409
X024644Y023594
X025048Y023047
X025040Y029770
X024648Y029273
X024451Y025814
X024840Y026620
X025241Y025814
X020400Y024700
X020700Y025150
X020071Y026494
X020701Y026494
X016441Y024754
X017070Y024755
X016763Y025369
X017393Y025369
X017700Y024755
X018330Y024755
X018023Y025369
X018643Y025369
X019651Y029274
X019251Y029274
X018861Y029274
X018461Y029274
X018071Y029274
X017681Y029274
X017281Y029274
X016891Y029274
X008041Y024924
X005550Y025750
X008841Y024224
X009491Y025574
X005491Y025224
X005850Y013950
X008700Y014750
X007800Y015950
X008000Y018300
X011400Y018800
X011400Y017650
X011400Y018200
X010100Y017000
X011250Y017100
X004600Y018500
X004650Y021700
X004650Y019150
X004650Y023150
X004641Y021074
X007250Y018550
X007846Y017346
X007991Y020774
X006591Y021074
X008641Y019774
X009241Y019724
X006541Y023024
X005241Y018624
X011350Y020200
X010891Y021674
X009191Y021874
X009491Y022324
X008541Y021774
X008741Y022724
X008041Y022124
X006391Y021724
X008391Y023324
X032100Y014750
X032000Y014050
X031900Y013350
X032850Y014150
X031900Y015250
X032900Y015050
X032650Y019600
X032550Y021200
X030800Y018750
X030900Y021200
X030150Y019350
X035450Y012600
X035450Y016000
X032350Y012350
X032850Y013350
X034100Y014700
X034350Y013900
X035850Y021000
X037150Y020600
X036700Y021000
X036300Y020600
X033900Y020700
X034550Y020900
X025650Y013950
X028000Y014900
X027250Y014100
X030200Y014250
X029350Y015600
X027600Y020050
X027100Y018800
X026550Y018400
X028250Y018350
X028200Y020350
X026350Y020650
X025431Y023594
X025832Y023047
X026623Y023047
X027395Y023047
X028187Y023047
X026223Y023596
X027011Y023594
X027801Y023594
X027990Y026620
X027210Y026620
X027596Y025814
X026420Y026620
X026816Y025814
X025630Y026620
X026021Y025814
X028200Y029770
X027795Y029273
X027410Y029770
X027008Y029273
X026620Y029770
X026218Y029273
X025438Y029273
X025830Y029770
T136
X011591Y012224
X011569Y011046
X012241Y013024
X012241Y011024
X012000Y017500
T135
X031050Y008700
X030700Y010100
X012191Y007074
X012300Y002950
X017241Y007624
X017241Y009124
X010791Y007874
X010891Y009224
X020900Y016600
X018941Y015574
X006391Y006074
X005541Y011124
X016941Y015574
X023600Y016600
X007491Y027424
X011950Y027650
X006041Y016624
X031900Y016250
X033350Y022850
X031300Y025600
X030200Y025600
X033800Y008950
X035400Y018850
X033900Y018850
X036375Y027925
X037375Y027925
X039625Y027925
X038675Y027925
T129
X021308Y024221
X026648Y006644
X021334Y006644
X015993Y024221
T133
X043033Y010024
X041261Y010024
T131
X037900Y005250
T132
X041961Y003834
X005961Y028834
X005961Y003834
X041961Y028834
T130
X032711Y005209
X035311Y005209
T128
X018650Y020700
X023991Y010624
M30
