G04 start of page 10 for group -4079 idx -4079 *
G04 Title: (unknown), topsilk *
G04 Creator: pcb 20110918 *
G04 CreationDate: Thu Oct 25 19:42:23 2012 UTC *
G04 For: fosse *
G04 Format: Gerber/RS-274X *
G04 PCB-Dimensions: 455000 853500 *
G04 PCB-Coordinate-Origin: lower left *
%MOIN*%
%FSLAX25Y25*%
%LNTOPSILK*%
%ADD99C,0.0060*%
%ADD98C,0.0080*%
%ADD97C,0.0100*%
G54D97*X147500Y517000D02*X215000D01*
X147500Y569500D02*X215000D01*
X147500D02*Y517000D01*
X215000Y569500D02*Y517000D01*
X171500Y575500D02*Y571500D01*
Y575500D02*X173000Y573500D01*
X174500Y575500D01*
Y571500D01*
X175700Y574500D02*Y574400D01*
Y573000D02*Y571500D01*
X177200Y573500D02*X178700D01*
X176700Y573000D02*X177200Y573500D01*
X176700Y573000D02*Y572000D01*
X177200Y571500D01*
X178700D01*
X179900D02*X180400D01*
X183400D02*X185400D01*
X185900Y572000D01*
Y573200D02*Y572000D01*
X185400Y573700D02*X185900Y573200D01*
X183900Y573700D02*X185400D01*
X183900Y575500D02*Y571500D01*
X183400Y575500D02*X185400D01*
X185900Y575000D01*
Y574200D01*
X185400Y573700D02*X185900Y574200D01*
X187100Y574500D02*Y574400D01*
Y573000D02*Y571500D01*
X189600Y573500D02*X190100Y573000D01*
X188600Y573500D02*X189600D01*
X188100Y573000D02*X188600Y573500D01*
X188100Y573000D02*Y572000D01*
X188600Y571500D01*
X190100Y573500D02*Y572000D01*
X190600Y571500D01*
X188600D02*X189600D01*
X190100Y572000D01*
X192300Y571500D02*X193800D01*
X194300Y572000D01*
X193800Y572500D02*X194300Y572000D01*
X192300Y572500D02*X193800D01*
X191800Y573000D02*X192300Y572500D01*
X191800Y573000D02*X192300Y573500D01*
X193800D01*
X194300Y573000D01*
X191800Y572000D02*X192300Y571500D01*
X198000D02*X199300D01*
X197300Y572200D02*X198000Y571500D01*
X197300Y574800D02*Y572200D01*
Y574800D02*X198000Y575500D01*
X199300D01*
X200500Y574500D02*Y574400D01*
Y573000D02*Y571500D01*
X202000Y573000D02*Y571500D01*
Y573000D02*X202500Y573500D01*
X203500D01*
X201500D02*X202000Y573000D01*
X205200Y573500D02*X206700D01*
X204700Y573000D02*X205200Y573500D01*
X204700Y573000D02*Y572000D01*
X205200Y571500D01*
X206700D01*
X207900Y573500D02*Y572000D01*
X208400Y571500D01*
X209400D01*
X209900Y572000D01*
Y573500D02*Y572000D01*
X211100Y574500D02*Y574400D01*
Y573000D02*Y571500D01*
X212600Y575500D02*Y572000D01*
X213100Y571500D01*
X212100Y574000D02*X213100D01*
X8500Y834000D02*Y509000D01*
Y834000D02*X446500D01*
Y509000D01*
X8500D02*X446500D01*
X22500Y796500D02*G75*G03X47500Y771500I25000J0D01*G01*
X72500Y796500D02*G75*G03X47500Y821500I-25000J0D01*G01*
X47500D02*G75*G03X22500Y796500I0J-25000D01*G01*
X47500Y771500D02*G75*G03X72500Y796500I0J25000D01*G01*
X382500D02*G75*G03X407500Y771500I25000J0D01*G01*
X432500Y796500D02*G75*G03X407500Y821500I-25000J0D01*G01*
G75*G03X382500Y796500I0J-25000D01*G01*
X407500Y771500D02*G75*G03X432500Y796500I0J25000D01*G01*
X22500Y546500D02*G75*G03X47500Y521500I25000J0D01*G01*
X72500Y546500D02*G75*G03X47500Y571500I-25000J0D01*G01*
X47500D02*G75*G03X22500Y546500I0J-25000D01*G01*
X47500Y521500D02*G75*G03X72500Y546500I0J25000D01*G01*
X382500D02*G75*G03X407500Y521500I25000J0D01*G01*
X432500Y546500D02*G75*G03X407500Y571500I-25000J0D01*G01*
G75*G03X382500Y546500I0J-25000D01*G01*
X407500Y521500D02*G75*G03X432500Y546500I0J25000D01*G01*
X185550Y712000D02*Y698100D01*
X197950D01*
Y712000D01*
X185550D01*
X205050D02*Y698100D01*
X217450D01*
Y712000D01*
X205050D01*
G54D98*X149607Y697255D02*X150393D01*
X149607Y691745D02*X150393D01*
X162138Y689740D02*X166862D01*
X162138Y682260D02*X166862D01*
G54D97*X72550Y728500D02*Y714600D01*
X84950D01*
Y728500D01*
X72550D01*
X166050Y712000D02*Y698100D01*
X178450D01*
Y712000D01*
X166050D01*
X27100Y728000D02*Y714100D01*
X39500D01*
Y728000D01*
X27100D01*
G54D98*X189745Y525893D02*Y525107D01*
X195255Y525893D02*Y525107D01*
X164138Y562740D02*X168862D01*
X164138Y555260D02*X168862D01*
X173500Y544000D02*Y534000D01*
X194500D01*
Y544000D02*Y534000D01*
X173500Y544000D02*X194500D01*
X174500D02*Y534000D01*
G54D97*X366050Y806000D02*Y792100D01*
X378450D01*
Y806000D01*
X366050D01*
G54D98*X89114Y791255D02*X89900D01*
X89114Y785745D02*X89900D01*
G54D97*X50550Y728000D02*Y714100D01*
X62950D01*
Y728000D01*
X50550D01*
G54D98*X86241Y690159D02*X137659D01*
Y635841D01*
X83341D01*
Y687259D01*
X86241Y690159D01*
X85241Y687259D02*G75*G03X85241Y687259I1000J0D01*G01*
X136233Y610240D02*X140957D01*
X136233Y602760D02*X140957D01*
X88650Y620755D02*X89436D01*
X88650Y615245D02*X89436D01*
X142607Y625255D02*X143393D01*
X142607Y619745D02*X143393D01*
X83107Y706755D02*X83893D01*
X83107Y701245D02*X83893D01*
X53107Y615255D02*X53893D01*
X53107Y609745D02*X53893D01*
X63138Y634740D02*X67862D01*
X63138Y627260D02*X67862D01*
X57107Y694755D02*X57893D01*
X57107Y689245D02*X57893D01*
X57107Y682755D02*X57893D01*
X57107Y677245D02*X57893D01*
X109638Y591740D02*X114362D01*
X109638Y584260D02*X114362D01*
G54D97*X43082Y654441D02*Y609559D01*
X24578D02*X43082D01*
X24578Y654441D02*Y609559D01*
Y654441D02*X43082D01*
G54D98*X51107Y651255D02*X51893D01*
X51107Y645745D02*X51893D01*
X51107Y663255D02*X51893D01*
X51107Y657745D02*X51893D01*
G54D97*X35299Y697748D02*Y666252D01*
X22700D02*X35299D01*
X22700Y697748D02*Y666252D01*
Y697748D02*X35299D01*
X27804Y698493D02*X30156D01*
X27804Y697121D02*X30156D01*
X30321Y697896D02*G75*G03X28949Y699268I-1372J0D01*G01*
G75*G03X27577Y697896I0J-1372D01*G01*
X28980Y696337D02*G75*G03X30352Y697709I0J1372D01*G01*
X27608D02*G75*G03X28980Y696337I1372J0D01*G01*
G54D98*X97755Y706393D02*Y705607D01*
X92245Y706393D02*Y705607D01*
G54D99*X159940Y545208D02*X165058D01*
X159940Y533791D02*X165058D01*
Y545208D02*Y533791D01*
X159940Y545208D02*Y533791D01*
G54D98*X171543Y526740D02*X176267D01*
X171543Y519260D02*X176267D01*
X202000Y535000D02*X212000D01*
Y556000D02*Y535000D01*
X202000Y556000D02*X212000D01*
X202000D02*Y535000D01*
Y536000D02*X212000D01*
X183245Y558393D02*Y557607D01*
X188755Y558393D02*Y557607D01*
G54D97*X224500Y544000D02*Y533000D01*
Y560000D02*Y549000D01*
Y560000D02*X246900D01*
Y533000D01*
X224500D02*X246900D01*
X224500Y544000D02*G75*G03X224500Y549000I0J2500D01*G01*
X349500Y614500D02*Y600600D01*
X361900D01*
Y614500D01*
X349500D01*
G54D98*X321107Y624755D02*X321893D01*
X321107Y619245D02*X321893D01*
X321064Y608255D02*X321850D01*
X321064Y602745D02*X321850D01*
X390607Y637255D02*X391393D01*
X390607Y631745D02*X391393D01*
G54D97*X348500Y580500D02*X362400D01*
Y592900D02*Y580500D01*
X348500Y592900D02*X362400D01*
X348500D02*Y580500D01*
X349600Y644500D02*Y630600D01*
X362000D01*
Y644500D01*
X349600D01*
G54D98*X376255Y638393D02*Y637607D01*
X370745Y638393D02*Y637607D01*
G54D97*X203500Y794500D02*X208500D01*
X218500D02*X223500D01*
X208500Y796100D02*X218500D01*
Y792900D01*
X208500D01*
Y796100D01*
X203500Y802200D02*Y798200D01*
X201500Y800200D02*X205500D01*
X221500D02*X225500D01*
G54D98*X275650Y795755D02*X276436D01*
X275650Y790245D02*X276436D01*
X274650Y806255D02*X275436D01*
X274650Y800745D02*X275436D01*
G54D97*X250550Y801500D02*Y787600D01*
X262950D01*
Y801500D01*
X250550D01*
G54D98*X427564Y669831D02*X428350D01*
X427564Y664321D02*X428350D01*
G54D97*X411050Y700576D02*Y686676D01*
X423450D01*
Y700576D01*
X411050D01*
G54D98*X161650Y805755D02*X162436D01*
X161650Y800245D02*X162436D01*
X372276Y812331D02*X373062D01*
X372276Y806821D02*X373062D01*
X387150Y742755D02*X387936D01*
X387150Y737245D02*X387936D01*
X372650Y820755D02*X373436D01*
X372650Y815245D02*X373436D01*
X387064Y757255D02*X387850D01*
X387064Y751745D02*X387850D01*
G54D97*X364550Y756000D02*Y742100D01*
X376950D01*
Y756000D01*
X364550D01*
X437700Y577500D02*X438200Y578000D01*
X437700Y577500D02*Y576000D01*
X438200Y575500D02*X437700Y576000D01*
X438200Y575500D02*X439200D01*
X439700Y576000D01*
Y577500D02*Y576000D01*
Y577500D02*X440200Y578000D01*
X441200D01*
X441700Y577500D02*X441200Y578000D01*
X441700Y577500D02*Y576000D01*
X441200Y575500D02*X441700Y576000D01*
X439500Y580700D02*Y579200D01*
X441700Y581200D02*Y579200D01*
X437700D02*X441700D01*
X437700Y581200D02*Y579200D01*
Y584400D02*Y582400D01*
Y584400D02*X438200Y584900D01*
X439200D01*
X439700Y584400D02*X439200Y584900D01*
X439700Y584400D02*Y582900D01*
X437700D02*X441700D01*
X439700Y583700D02*X441700Y584900D01*
X437700Y586600D02*X441700D01*
X437700Y588100D02*Y586100D01*
Y588100D02*X438200Y588600D01*
X439200D01*
X439700Y588100D02*X439200Y588600D01*
X439700Y588100D02*Y586600D01*
X438700Y589800D02*X441700D01*
X438700D02*X437700Y590500D01*
Y591600D02*Y590500D01*
Y591600D02*X438700Y592300D01*
X441700D01*
X439700D02*Y589800D01*
X441700Y595500D02*Y594200D01*
X441000Y593500D02*X441700Y594200D01*
X438400Y593500D02*X441000D01*
X438400D02*X437700Y594200D01*
Y595500D02*Y594200D01*
X441700Y598700D02*Y596700D01*
X441200Y599900D02*X441700Y600400D01*
X438200Y599900D02*X441200D01*
X438200D02*X437700Y600400D01*
Y601400D02*Y600400D01*
Y601400D02*X438200Y601900D01*
X441200D01*
X441700Y601400D02*X441200Y601900D01*
X441700Y601400D02*Y600400D01*
X440700Y599900D02*X438700Y601900D01*
X438200Y603100D02*X437700Y603600D01*
Y604600D02*Y603600D01*
Y604600D02*X438200Y605100D01*
X441700Y604600D02*X441200Y605100D01*
X441700Y604600D02*Y603600D01*
X441200Y603100D02*X441700Y603600D01*
X439500Y604600D02*Y603600D01*
X438200Y605100D02*X439000D01*
X440000D02*X441200D01*
X440000D02*X439500Y604600D01*
X439000Y605100D02*X439500Y604600D01*
X438500Y606300D02*X437700Y607100D01*
X441700D01*
Y607800D02*Y606300D01*
X437700Y610000D02*Y609000D01*
Y609500D02*X441700D01*
Y610000D02*Y609000D01*
Y611700D02*Y611200D01*
X437700Y614900D02*X438200Y615400D01*
X437700Y614900D02*Y613400D01*
X438200Y612900D02*X437700Y613400D01*
X438200Y612900D02*X441200D01*
X441700Y613400D01*
Y614900D02*Y613400D01*
Y614900D02*X441200Y615400D01*
X440200D02*X441200D01*
X439700Y614900D02*X440200Y615400D01*
X439700Y614900D02*Y613900D01*
X437700Y616600D02*X439700Y617600D01*
X437700Y618600D01*
X439700Y617600D02*X441700D01*
Y621800D02*Y619800D01*
X437700Y623000D02*X441700D01*
Y625000D02*Y623000D01*
X438700Y626200D02*X438800D01*
X440200D02*X441700D01*
X437700Y629200D02*X441700D01*
Y628700D02*X441200Y629200D01*
X441700Y628700D02*Y627700D01*
X441200Y627200D02*X441700Y627700D01*
X440200Y627200D02*X441200D01*
X440200D02*X439700Y627700D01*
Y628700D02*Y627700D01*
Y628700D02*X440200Y629200D01*
X424350Y675726D02*X426350D01*
X426850Y675226D01*
Y674226D01*
X426350Y673726D02*X426850Y674226D01*
X424850Y673726D02*X426350D01*
X424850Y675726D02*Y671726D01*
X425650Y673726D02*X426850Y671726D01*
X429550Y675726D02*X430050Y675226D01*
X428550Y675726D02*X429550D01*
X428050Y675226D02*X428550Y675726D01*
X428050Y675226D02*Y672226D01*
X428550Y671726D01*
X429550Y673926D02*X430050Y673426D01*
X428050Y673926D02*X429550D01*
X428550Y671726D02*X429550D01*
X430050Y672226D01*
Y673426D02*Y672226D01*
X431250D02*X431750Y671726D01*
X431250Y675226D02*Y672226D01*
Y675226D02*X431750Y675726D01*
X432750D01*
X433250Y675226D01*
Y672226D01*
X432750Y671726D02*X433250Y672226D01*
X431750Y671726D02*X432750D01*
X431250Y672726D02*X433250Y674726D01*
X434450Y674926D02*X435250Y675726D01*
Y671726D01*
X434450D02*X435950D01*
X420450Y700076D02*X424450D01*
Y698776D02*X423750Y698076D01*
X421150D02*X423750D01*
X420450Y698776D02*X421150Y698076D01*
X420450Y700576D02*Y698776D01*
X424450Y700576D02*Y698776D01*
Y695376D02*X423950Y694876D01*
X424450Y696376D02*Y695376D01*
X423950Y696876D02*X424450Y696376D01*
X420950Y696876D02*X423950D01*
X420950D02*X420450Y696376D01*
X422650Y695376D02*X422150Y694876D01*
X422650Y696876D02*Y695376D01*
X420450Y696376D02*Y695376D01*
X420950Y694876D01*
X422150D01*
X420950Y693676D02*X420450Y693176D01*
X420950Y693676D02*X423950D01*
X424450Y693176D01*
Y692176D01*
X423950Y691676D01*
X420950D02*X423950D01*
X420450Y692176D02*X420950Y691676D01*
X420450Y693176D02*Y692176D01*
X421450Y693676D02*X423450Y691676D01*
X421950Y690476D02*X424450Y688476D01*
X421950Y690476D02*Y687976D01*
X420450Y688476D02*X424450D01*
X363500Y612800D02*X367500D01*
Y611500D02*X366800Y610800D01*
X364200D02*X366800D01*
X363500Y611500D02*X364200Y610800D01*
X363500Y613300D02*Y611500D01*
X367500Y613300D02*Y611500D01*
X367000Y609600D02*X367500Y609100D01*
Y608100D01*
X367000Y607600D01*
X363500Y608100D02*X364000Y607600D01*
X363500Y609100D02*Y608100D01*
X364000Y609600D02*X363500Y609100D01*
X365700D02*Y608100D01*
X366200Y607600D02*X367000D01*
X364000D02*X365200D01*
X365700Y608100D01*
X366200Y607600D02*X365700Y608100D01*
X364000Y606400D02*X363500Y605900D01*
X364000Y606400D02*X367000D01*
X367500Y605900D01*
Y604900D01*
X367000Y604400D01*
X364000D02*X367000D01*
X363500Y604900D02*X364000Y604400D01*
X363500Y605900D02*Y604900D01*
X364500Y606400D02*X366500Y604400D01*
X364000Y603200D02*X363500Y602700D01*
X364000Y603200D02*X367000D01*
X367500Y602700D01*
Y601700D01*
X367000Y601200D01*
X364000D02*X367000D01*
X363500Y601700D02*X364000Y601200D01*
X363500Y602700D02*Y601700D01*
X364500Y603200D02*X366500Y601200D01*
X363500Y643500D02*X367500D01*
Y642200D02*X366800Y641500D01*
X364200D02*X366800D01*
X363500Y642200D02*X364200Y641500D01*
X363500Y644000D02*Y642200D01*
X367500Y644000D02*Y642200D01*
X367000Y640300D02*X367500Y639800D01*
Y638800D01*
X367000Y638300D01*
X363500Y638800D02*X364000Y638300D01*
X363500Y639800D02*Y638800D01*
X364000Y640300D02*X363500Y639800D01*
X365700D02*Y638800D01*
X366200Y638300D02*X367000D01*
X364000D02*X365200D01*
X365700Y638800D01*
X366200Y638300D02*X365700Y638800D01*
X364000Y637100D02*X363500Y636600D01*
X364000Y637100D02*X367000D01*
X367500Y636600D01*
Y635600D01*
X367000Y635100D01*
X364000D02*X367000D01*
X363500Y635600D02*X364000Y635100D01*
X363500Y636600D02*Y635600D01*
X364500Y637100D02*X366500Y635100D01*
X367000Y633900D02*X367500Y633400D01*
Y631900D01*
X367000Y631400D01*
X366000D02*X367000D01*
X363500Y633900D02*X366000Y631400D01*
X363500Y633900D02*Y631400D01*
X315850Y630150D02*Y626150D01*
Y630150D02*X317850D01*
X315850Y628350D02*X317350D01*
X319050Y629650D02*X319550Y630150D01*
X320550D01*
X321050Y629650D01*
X320550Y626150D02*X321050Y626650D01*
X319550Y626150D02*X320550D01*
X319050Y626650D02*X319550Y626150D01*
Y628350D02*X320550D01*
X321050Y629650D02*Y628850D01*
Y627850D02*Y626650D01*
Y627850D02*X320550Y628350D01*
X321050Y628850D02*X320550Y628350D01*
X322250Y626650D02*X322750Y626150D01*
X322250Y629650D02*Y626650D01*
Y629650D02*X322750Y630150D01*
X323750D01*
X324250Y629650D01*
Y626650D01*
X323750Y626150D02*X324250Y626650D01*
X322750Y626150D02*X323750D01*
X322250Y627150D02*X324250Y629150D01*
X325450Y626650D02*X325950Y626150D01*
X325450Y629650D02*Y626650D01*
Y629650D02*X325950Y630150D01*
X326950D01*
X327450Y629650D01*
Y626650D01*
X326950Y626150D02*X327450Y626650D01*
X325950Y626150D02*X326950D01*
X325450Y627150D02*X327450Y629150D01*
X316921Y609650D02*X318221D01*
X316221Y610350D02*X316921Y609650D01*
X316221Y612950D02*Y610350D01*
Y612950D02*X316921Y613650D01*
X318221D01*
X319421Y613150D02*X319921Y613650D01*
X320921D01*
X321421Y613150D01*
X320921Y609650D02*X321421Y610150D01*
X319921Y609650D02*X320921D01*
X319421Y610150D02*X319921Y609650D01*
Y611850D02*X320921D01*
X321421Y613150D02*Y612350D01*
Y611350D02*Y610150D01*
Y611350D02*X320921Y611850D01*
X321421Y612350D02*X320921Y611850D01*
X322621Y610150D02*X323121Y609650D01*
X322621Y613150D02*Y610150D01*
Y613150D02*X323121Y613650D01*
X324121D01*
X324621Y613150D01*
Y610150D01*
X324121Y609650D02*X324621Y610150D01*
X323121Y609650D02*X324121D01*
X322621Y610650D02*X324621Y612650D01*
X325821Y610150D02*X326321Y609650D01*
X325821Y613150D02*Y610150D01*
Y613150D02*X326321Y613650D01*
X327321D01*
X327821Y613150D01*
Y610150D01*
X327321Y609650D02*X327821Y610150D01*
X326321Y609650D02*X327321D01*
X325821Y610650D02*X327821Y612650D01*
X385264Y642650D02*X387264D01*
X387764Y642150D01*
Y641150D01*
X387264Y640650D02*X387764Y641150D01*
X385764Y640650D02*X387264D01*
X385764Y642650D02*Y638650D01*
X386564Y640650D02*X387764Y638650D01*
X388964Y642150D02*X389464Y642650D01*
X390464D01*
X390964Y642150D01*
X390464Y638650D02*X390964Y639150D01*
X389464Y638650D02*X390464D01*
X388964Y639150D02*X389464Y638650D01*
Y640850D02*X390464D01*
X390964Y642150D02*Y641350D01*
Y640350D02*Y639150D01*
Y640350D02*X390464Y640850D01*
X390964Y641350D02*X390464Y640850D01*
X392164Y639150D02*X392664Y638650D01*
X392164Y642150D02*Y639150D01*
Y642150D02*X392664Y642650D01*
X393664D01*
X394164Y642150D01*
Y639150D01*
X393664Y638650D02*X394164Y639150D01*
X392664Y638650D02*X393664D01*
X392164Y639650D02*X394164Y641650D01*
X395364Y639150D02*X395864Y638650D01*
X395364Y642150D02*Y639150D01*
Y642150D02*X395864Y642650D01*
X396864D01*
X397364Y642150D01*
Y639150D01*
X396864Y638650D02*X397364Y639150D01*
X395864Y638650D02*X396864D01*
X395364Y639650D02*X397364Y641650D01*
X377650Y642536D02*Y641236D01*
X378350Y643236D02*X377650Y642536D01*
X378350Y643236D02*X380950D01*
X381650Y642536D01*
Y641236D01*
X381150Y640036D02*X381650Y639536D01*
Y638536D01*
X381150Y638036D01*
X377650Y638536D02*X378150Y638036D01*
X377650Y639536D02*Y638536D01*
X378150Y640036D02*X377650Y639536D01*
X379850D02*Y638536D01*
X380350Y638036D02*X381150D01*
X378150D02*X379350D01*
X379850Y638536D01*
X380350Y638036D02*X379850Y638536D01*
X378150Y636836D02*X377650Y636336D01*
X378150Y636836D02*X381150D01*
X381650Y636336D01*
Y635336D01*
X381150Y634836D01*
X378150D02*X381150D01*
X377650Y635336D02*X378150Y634836D01*
X377650Y636336D02*Y635336D01*
X378650Y636836D02*X380650Y634836D01*
X380850Y633636D02*X381650Y632836D01*
X377650D02*X381650D01*
X377650Y633636D02*Y632136D01*
X350000Y598400D02*Y594400D01*
X351300Y598400D02*X352000Y597700D01*
Y595100D01*
X351300Y594400D02*X352000Y595100D01*
X349500Y594400D02*X351300D01*
X349500Y598400D02*X351300D01*
X353200Y597900D02*X353700Y598400D01*
X354700D01*
X355200Y597900D01*
X354700Y594400D02*X355200Y594900D01*
X353700Y594400D02*X354700D01*
X353200Y594900D02*X353700Y594400D01*
Y596600D02*X354700D01*
X355200Y597900D02*Y597100D01*
Y596100D02*Y594900D01*
Y596100D02*X354700Y596600D01*
X355200Y597100D02*X354700Y596600D01*
X356400Y594900D02*X356900Y594400D01*
X356400Y597900D02*Y594900D01*
Y597900D02*X356900Y598400D01*
X357900D01*
X358400Y597900D01*
Y594900D01*
X357900Y594400D02*X358400Y594900D01*
X356900Y594400D02*X357900D01*
X356400Y595400D02*X358400Y597400D01*
X359600Y597600D02*X360400Y598400D01*
Y594400D01*
X359600D02*X361100D01*
X85400Y796650D02*Y792650D01*
Y796650D02*X87400D01*
X85400Y794850D02*X86900D01*
X88600Y796650D02*X90600D01*
X88600D02*Y794650D01*
X89100Y795150D01*
X90100D01*
X90600Y794650D01*
Y793150D01*
X90100Y792650D02*X90600Y793150D01*
X89100Y792650D02*X90100D01*
X88600Y793150D02*X89100Y792650D01*
X91800Y793150D02*X92300Y792650D01*
X91800Y796150D02*Y793150D01*
Y796150D02*X92300Y796650D01*
X93300D01*
X93800Y796150D01*
Y793150D01*
X93300Y792650D02*X93800Y793150D01*
X92300Y792650D02*X93300D01*
X91800Y793650D02*X93800Y795650D01*
X95000Y795850D02*X95800Y796650D01*
Y792650D01*
X95000D02*X96500D01*
X64950Y727500D02*X68950D01*
Y726200D02*X68250Y725500D01*
X65650D02*X68250D01*
X64950Y726200D02*X65650Y725500D01*
X64950Y728000D02*Y726200D01*
X68950Y728000D02*Y726200D01*
Y724300D02*Y722300D01*
X66950Y724300D02*X68950D01*
X66950D02*X67450Y723800D01*
Y722800D01*
X66950Y722300D01*
X65450D02*X66950D01*
X64950Y722800D02*X65450Y722300D01*
X64950Y723800D02*Y722800D01*
X65450Y724300D02*X64950Y723800D01*
X65450Y721100D02*X64950Y720600D01*
X65450Y721100D02*X68450D01*
X68950Y720600D01*
Y719600D01*
X68450Y719100D01*
X65450D02*X68450D01*
X64950Y719600D02*X65450Y719100D01*
X64950Y720600D02*Y719600D01*
X65950Y721100D02*X67950Y719100D01*
X68950Y717900D02*Y715900D01*
X66950Y717900D02*X68950D01*
X66950D02*X67450Y717400D01*
Y716400D01*
X66950Y715900D01*
X65450D02*X66950D01*
X64950Y716400D02*X65450Y715900D01*
X64950Y717400D02*Y716400D01*
X65450Y717900D02*X64950Y717400D01*
X72000Y694500D02*Y691000D01*
X72500Y690500D01*
X73500D01*
X74000Y691000D01*
Y694500D02*Y691000D01*
X75200Y693700D02*X76000Y694500D01*
Y690500D01*
X75200D02*X76700D01*
X77900Y691000D02*X78400Y690500D01*
X77900Y694000D02*Y691000D01*
Y694000D02*X78400Y694500D01*
X79400D01*
X79900Y694000D01*
Y691000D01*
X79400Y690500D02*X79900Y691000D01*
X78400Y690500D02*X79400D01*
X77900Y691500D02*X79900Y693500D01*
X81100Y691000D02*X81600Y690500D01*
X81100Y694000D02*Y691000D01*
Y694000D02*X81600Y694500D01*
X82600D01*
X83100Y694000D01*
Y691000D01*
X82600Y690500D02*X83100Y691000D01*
X81600Y690500D02*X82600D01*
X81100Y691500D02*X83100Y693500D01*
X79593Y708150D02*X80893D01*
X78893Y708850D02*X79593Y708150D01*
X78893Y711450D02*Y708850D01*
Y711450D02*X79593Y712150D01*
X80893D01*
X82093Y711350D02*X82893Y712150D01*
Y708150D01*
X82093D02*X83593D01*
X84793Y711350D02*X85593Y712150D01*
Y708150D01*
X84793D02*X86293D01*
X87493Y708650D02*X87993Y708150D01*
X87493Y711650D02*Y708650D01*
Y711650D02*X87993Y712150D01*
X88993D01*
X89493Y711650D01*
Y708650D01*
X88993Y708150D02*X89493Y708650D01*
X87993Y708150D02*X88993D01*
X87493Y709150D02*X89493Y711150D01*
X87550Y730500D02*X91550D01*
Y729200D02*X90850Y728500D01*
X88250D02*X90850D01*
X87550Y729200D02*X88250Y728500D01*
X87550Y731000D02*Y729200D01*
X91550Y731000D02*Y729200D01*
Y727300D02*Y725300D01*
X89550Y727300D02*X91550D01*
X89550D02*X90050Y726800D01*
Y725800D01*
X89550Y725300D01*
X88050D02*X89550D01*
X87550Y725800D02*X88050Y725300D01*
X87550Y726800D02*Y725800D01*
X88050Y727300D02*X87550Y726800D01*
X88050Y724100D02*X87550Y723600D01*
X88050Y724100D02*X91050D01*
X91550Y723600D01*
Y722600D01*
X91050Y722100D01*
X88050D02*X91050D01*
X87550Y722600D02*X88050Y722100D01*
X87550Y723600D02*Y722600D01*
X88550Y724100D02*X90550Y722100D01*
X91050Y720900D02*X91550Y720400D01*
Y719400D01*
X91050Y718900D01*
X87550Y719400D02*X88050Y718900D01*
X87550Y720400D02*Y719400D01*
X88050Y720900D02*X87550Y720400D01*
X89750D02*Y719400D01*
X90250Y718900D02*X91050D01*
X88050D02*X89250D01*
X89750Y719400D01*
X90250Y718900D02*X89750Y719400D01*
X42000Y726500D02*X46000D01*
Y725200D02*X45300Y724500D01*
X42700D02*X45300D01*
X42000Y725200D02*X42700Y724500D01*
X42000Y727000D02*Y725200D01*
X46000Y727000D02*Y725200D01*
Y723300D02*Y721300D01*
X44000Y723300D02*X46000D01*
X44000D02*X44500Y722800D01*
Y721800D01*
X44000Y721300D01*
X42500D02*X44000D01*
X42000Y721800D02*X42500Y721300D01*
X42000Y722800D02*Y721800D01*
X42500Y723300D02*X42000Y722800D01*
X42500Y720100D02*X42000Y719600D01*
X42500Y720100D02*X45500D01*
X46000Y719600D01*
Y718600D01*
X45500Y718100D01*
X42500D02*X45500D01*
X42000Y718600D02*X42500Y718100D01*
X42000Y719600D02*Y718600D01*
X43000Y720100D02*X45000Y718100D01*
X43500Y716900D02*X46000Y714900D01*
X43500Y716900D02*Y714400D01*
X42000Y714900D02*X46000D01*
X220500Y785900D02*X222500D01*
X223000Y786400D01*
Y787600D02*Y786400D01*
X222500Y788100D02*X223000Y787600D01*
X221000Y788100D02*X222500D01*
X221000Y789900D02*Y785900D01*
X220500Y789900D02*X222500D01*
X223000Y789400D01*
Y788600D01*
X222500Y788100D02*X223000Y788600D01*
X224200Y789900D02*X226200D01*
X224200D02*Y787900D01*
X224700Y788400D01*
X225700D01*
X226200Y787900D01*
Y786400D01*
X225700Y785900D02*X226200Y786400D01*
X224700Y785900D02*X225700D01*
X224200Y786400D02*X224700Y785900D01*
X227400Y786400D02*X227900Y785900D01*
X227400Y789400D02*Y786400D01*
Y789400D02*X227900Y789900D01*
X228900D01*
X229400Y789400D01*
Y786400D01*
X228900Y785900D02*X229400Y786400D01*
X227900Y785900D02*X228900D01*
X227400Y786900D02*X229400Y788900D01*
X230600Y786400D02*X231100Y785900D01*
X230600Y789400D02*Y786400D01*
Y789400D02*X231100Y789900D01*
X232100D01*
X232600Y789400D01*
Y786400D01*
X232100Y785900D02*X232600Y786400D01*
X231100Y785900D02*X232100D01*
X230600Y786900D02*X232600Y788900D01*
X157593Y807650D02*X158893D01*
X156893Y808350D02*X157593Y807650D01*
X156893Y810950D02*Y808350D01*
Y810950D02*X157593Y811650D01*
X158893D01*
X161593D02*X162093Y811150D01*
X160593Y811650D02*X161593D01*
X160093Y811150D02*X160593Y811650D01*
X160093Y811150D02*Y808150D01*
X160593Y807650D01*
X161593Y809850D02*X162093Y809350D01*
X160093Y809850D02*X161593D01*
X160593Y807650D02*X161593D01*
X162093Y808150D01*
Y809350D02*Y808150D01*
X163293D02*X163793Y807650D01*
X163293Y811150D02*Y808150D01*
Y811150D02*X163793Y811650D01*
X164793D01*
X165293Y811150D01*
Y808150D01*
X164793Y807650D02*X165293Y808150D01*
X163793Y807650D02*X164793D01*
X163293Y808650D02*X165293Y810650D01*
X166493Y808150D02*X166993Y807650D01*
X166493Y811150D02*Y808150D01*
Y811150D02*X166993Y811650D01*
X167993D01*
X168493Y811150D01*
Y808150D01*
X167993Y807650D02*X168493Y808150D01*
X166993Y807650D02*X167993D01*
X166493Y808650D02*X168493Y810650D01*
X145593Y698650D02*X146893D01*
X144893Y699350D02*X145593Y698650D01*
X144893Y701950D02*Y699350D01*
Y701950D02*X145593Y702650D01*
X146893D01*
X148093Y701850D02*X148893Y702650D01*
Y698650D01*
X148093D02*X149593D01*
X150793Y701850D02*X151593Y702650D01*
Y698650D01*
X150793D02*X152293D01*
X153493Y701850D02*X154293Y702650D01*
Y698650D01*
X153493D02*X154993D01*
X199450Y711000D02*X203450D01*
Y709700D02*X202750Y709000D01*
X200150D02*X202750D01*
X199450Y709700D02*X200150Y709000D01*
X199450Y711500D02*Y709700D01*
X203450Y711500D02*Y709700D01*
Y707800D02*Y705800D01*
X201450Y707800D02*X203450D01*
X201450D02*X201950Y707300D01*
Y706300D01*
X201450Y705800D01*
X199950D02*X201450D01*
X199450Y706300D02*X199950Y705800D01*
X199450Y707300D02*Y706300D01*
X199950Y707800D02*X199450Y707300D01*
X199950Y704600D02*X199450Y704100D01*
X199950Y704600D02*X202950D01*
X203450Y704100D01*
Y703100D01*
X202950Y702600D01*
X199950D02*X202950D01*
X199450Y703100D02*X199950Y702600D01*
X199450Y704100D02*Y703100D01*
X200450Y704600D02*X202450Y702600D01*
X202650Y701400D02*X203450Y700600D01*
X199450D02*X203450D01*
X199450Y701400D02*Y699900D01*
X218950Y711000D02*X222950D01*
Y709700D02*X222250Y709000D01*
X219650D02*X222250D01*
X218950Y709700D02*X219650Y709000D01*
X218950Y711500D02*Y709700D01*
X222950Y711500D02*Y709700D01*
Y707800D02*Y705800D01*
X220950Y707800D02*X222950D01*
X220950D02*X221450Y707300D01*
Y706300D01*
X220950Y705800D01*
X219450D02*X220950D01*
X218950Y706300D02*X219450Y705800D01*
X218950Y707300D02*Y706300D01*
X219450Y707800D02*X218950Y707300D01*
X219450Y704600D02*X218950Y704100D01*
X219450Y704600D02*X222450D01*
X222950Y704100D01*
Y703100D01*
X222450Y702600D01*
X219450D02*X222450D01*
X218950Y703100D02*X219450Y702600D01*
X218950Y704100D02*Y703100D01*
X219950Y704600D02*X221950Y702600D01*
X219450Y701400D02*X218950Y700900D01*
X219450Y701400D02*X222450D01*
X222950Y700900D01*
Y699900D01*
X222450Y699400D01*
X219450D02*X222450D01*
X218950Y699900D02*X219450Y699400D01*
X218950Y700900D02*Y699900D01*
X219950Y701400D02*X221950Y699400D01*
X179950Y711000D02*X183950D01*
Y709700D02*X183250Y709000D01*
X180650D02*X183250D01*
X179950Y709700D02*X180650Y709000D01*
X179950Y711500D02*Y709700D01*
X183950Y711500D02*Y709700D01*
Y707800D02*Y705800D01*
X181950Y707800D02*X183950D01*
X181950D02*X182450Y707300D01*
Y706300D01*
X181950Y705800D01*
X180450D02*X181950D01*
X179950Y706300D02*X180450Y705800D01*
X179950Y707300D02*Y706300D01*
X180450Y707800D02*X179950Y707300D01*
X180450Y704600D02*X179950Y704100D01*
X180450Y704600D02*X183450D01*
X183950Y704100D01*
Y703100D01*
X183450Y702600D01*
X180450D02*X183450D01*
X179950Y703100D02*X180450Y702600D01*
X179950Y704100D02*Y703100D01*
X180950Y704600D02*X182950Y702600D01*
X183450Y701400D02*X183950Y700900D01*
Y699400D01*
X183450Y698900D01*
X182450D02*X183450D01*
X179950Y701400D02*X182450Y698900D01*
X179950Y701400D02*Y698900D01*
X159602Y691150D02*X160902D01*
X158902Y691850D02*X159602Y691150D01*
X158902Y694450D02*Y691850D01*
Y694450D02*X159602Y695150D01*
X160902D01*
X162102Y694350D02*X162902Y695150D01*
Y691150D01*
X162102D02*X163602D01*
X164802Y691650D02*X165302Y691150D01*
X164802Y694650D02*Y691650D01*
Y694650D02*X165302Y695150D01*
X166302D01*
X166802Y694650D01*
Y691650D01*
X166302Y691150D02*X166802Y691650D01*
X165302Y691150D02*X166302D01*
X164802Y692150D02*X166802Y694150D01*
X168002Y691650D02*X168502Y691150D01*
X168002Y694650D02*Y691650D01*
Y694650D02*X168502Y695150D01*
X169502D01*
X170002Y694650D01*
Y691650D01*
X169502Y691150D02*X170002Y691650D01*
X168502Y691150D02*X169502D01*
X168002Y692150D02*X170002Y694150D01*
X57991Y671650D02*X59291D01*
X57291Y672350D02*X57991Y671650D01*
X57291Y674950D02*Y672350D01*
Y674950D02*X57991Y675650D01*
X59291D01*
X60491Y674850D02*X61291Y675650D01*
Y671650D01*
X60491D02*X61991D01*
X63191Y675150D02*X63691Y675650D01*
X65191D01*
X65691Y675150D01*
Y674150D01*
X63191Y671650D02*X65691Y674150D01*
X63191Y671650D02*X65691D01*
X66891Y672150D02*X67391Y671650D01*
X66891Y675150D02*Y672150D01*
Y675150D02*X67391Y675650D01*
X68391D01*
X68891Y675150D01*
Y672150D01*
X68391Y671650D02*X68891Y672150D01*
X67391Y671650D02*X68391D01*
X66891Y672650D02*X68891Y674650D01*
X51350Y688150D02*X53350D01*
X53850Y687650D01*
Y686650D01*
X53350Y686150D02*X53850Y686650D01*
X51850Y686150D02*X53350D01*
X51850Y688150D02*Y684150D01*
X52650Y686150D02*X53850Y684150D01*
X55050Y687350D02*X55850Y688150D01*
Y684150D01*
X55050D02*X56550D01*
X57750Y684650D02*X58250Y684150D01*
X57750Y687650D02*Y684650D01*
Y687650D02*X58250Y688150D01*
X59250D01*
X59750Y687650D01*
Y684650D01*
X59250Y684150D02*X59750Y684650D01*
X58250Y684150D02*X59250D01*
X57750Y685150D02*X59750Y687150D01*
X60950Y687650D02*X61450Y688150D01*
X62950D01*
X63450Y687650D01*
Y686650D01*
X60950Y684150D02*X63450Y686650D01*
X60950Y684150D02*X63450D01*
X20050Y660650D02*X21350D01*
X19350Y661350D02*X20050Y660650D01*
X19350Y663950D02*Y661350D01*
Y663950D02*X20050Y664650D01*
X21350D01*
X22550Y663850D02*X23350Y664650D01*
Y660650D01*
X22550D02*X24050D01*
X25250Y661150D02*X25750Y660650D01*
X25250Y664150D02*Y661150D01*
Y664150D02*X25750Y664650D01*
X26750D01*
X27250Y664150D01*
Y661150D01*
X26750Y660650D02*X27250Y661150D01*
X25750Y660650D02*X26750D01*
X25250Y661650D02*X27250Y663650D01*
X28450Y664650D02*X30450D01*
X28450D02*Y662650D01*
X28950Y663150D01*
X29950D01*
X30450Y662650D01*
Y661150D01*
X29950Y660650D02*X30450Y661150D01*
X28950Y660650D02*X29950D01*
X28450Y661150D02*X28950Y660650D01*
X45350Y668650D02*X47350D01*
X47850Y668150D01*
Y667150D01*
X47350Y666650D02*X47850Y667150D01*
X45850Y666650D02*X47350D01*
X45850Y668650D02*Y664650D01*
X46650Y666650D02*X47850Y664650D01*
X49050Y667850D02*X49850Y668650D01*
Y664650D01*
X49050D02*X50550D01*
X51750Y665150D02*X52250Y664650D01*
X51750Y668150D02*Y665150D01*
Y668150D02*X52250Y668650D01*
X53250D01*
X53750Y668150D01*
Y665150D01*
X53250Y664650D02*X53750Y665150D01*
X52250Y664650D02*X53250D01*
X51750Y665650D02*X53750Y667650D01*
X54950Y668150D02*X55450Y668650D01*
X56450D01*
X56950Y668150D01*
X56450Y664650D02*X56950Y665150D01*
X55450Y664650D02*X56450D01*
X54950Y665150D02*X55450Y664650D01*
Y666850D02*X56450D01*
X56950Y668150D02*Y667350D01*
Y666350D02*Y665150D01*
Y666350D02*X56450Y666850D01*
X56950Y667350D02*X56450Y666850D01*
X40626Y693374D02*X44626Y690874D01*
Y693374D02*X40626Y690874D01*
X44626Y689674D02*Y687674D01*
X40626Y688674D02*X44626D01*
X40626Y686474D02*X43626D01*
X44626Y685774D01*
Y684674D01*
X43626Y683974D01*
X40626D02*X43626D01*
X42626Y686474D02*Y683974D01*
X40626Y682774D02*X44626D01*
X40626D02*Y680774D01*
X43826Y679574D02*X44626Y678774D01*
X40626D02*X44626D01*
X40626Y679574D02*Y678074D01*
X41126Y676874D02*X40626Y676374D01*
X41126Y676874D02*X44126D01*
X44626Y676374D01*
Y675374D01*
X44126Y674874D01*
X41126D02*X44126D01*
X40626Y675374D02*X41126Y674874D01*
X40626Y676374D02*Y675374D01*
X41626Y676874D02*X43626Y674874D01*
X44126Y673674D02*X44626Y673174D01*
Y671674D01*
X44126Y671174D01*
X43126D02*X44126D01*
X40626Y673674D02*X43126Y671174D01*
X40626Y673674D02*Y671174D01*
X51307Y700150D02*X53307D01*
X53807Y699650D01*
Y698650D01*
X53307Y698150D02*X53807Y698650D01*
X51807Y698150D02*X53307D01*
X51807Y700150D02*Y696150D01*
X52607Y698150D02*X53807Y696150D01*
X55007Y699350D02*X55807Y700150D01*
Y696150D01*
X55007D02*X56507D01*
X57707Y696650D02*X58207Y696150D01*
X57707Y699650D02*Y696650D01*
Y699650D02*X58207Y700150D01*
X59207D01*
X59707Y699650D01*
Y696650D01*
X59207Y696150D02*X59707Y696650D01*
X58207Y696150D02*X59207D01*
X57707Y697150D02*X59707Y699150D01*
X60907Y699350D02*X61707Y700150D01*
Y696150D01*
X60907D02*X62407D01*
X24650Y710891D02*Y709591D01*
X25350Y711591D02*X24650Y710891D01*
X25350Y711591D02*X27950D01*
X28650Y710891D01*
Y709591D01*
X27850Y708391D02*X28650Y707591D01*
X24650D02*X28650D01*
X24650Y708391D02*Y706891D01*
X25150Y705691D02*X24650Y705191D01*
X25150Y705691D02*X28150D01*
X28650Y705191D01*
Y704191D01*
X28150Y703691D01*
X25150D02*X28150D01*
X24650Y704191D02*X25150Y703691D01*
X24650Y705191D02*Y704191D01*
X25650Y705691D02*X27650Y703691D01*
X26150Y702491D02*X28650Y700491D01*
X26150Y702491D02*Y699991D01*
X24650Y700491D02*X28650D01*
X41150Y710009D02*Y708709D01*
X41850Y710709D02*X41150Y710009D01*
X41850Y710709D02*X44450D01*
X45150Y710009D01*
Y708709D01*
X44350Y707509D02*X45150Y706709D01*
X41150D02*X45150D01*
X41150Y707509D02*Y706009D01*
X41650Y704809D02*X41150Y704309D01*
X41650Y704809D02*X44650D01*
X45150Y704309D01*
Y703309D01*
X44650Y702809D01*
X41650D02*X44650D01*
X41150Y703309D02*X41650Y702809D01*
X41150Y704309D02*Y703309D01*
X42150Y704809D02*X44150Y702809D01*
X44650Y701609D02*X45150Y701109D01*
Y700109D01*
X44650Y699609D01*
X41150Y700109D02*X41650Y699609D01*
X41150Y701109D02*Y700109D01*
X41650Y701609D02*X41150Y701109D01*
X43350D02*Y700109D01*
X43850Y699609D02*X44650D01*
X41650D02*X42850D01*
X43350Y700109D01*
X43850Y699609D02*X43350Y700109D01*
X103150Y712150D02*Y710150D01*
X102650Y709650D01*
X101650D02*X102650D01*
X101150Y710150D02*X101650Y709650D01*
X101150Y711650D02*Y710150D01*
X99150Y711650D02*X103150D01*
X101150Y710850D02*X99150Y709650D01*
X102350Y708450D02*X103150Y707650D01*
X99150D02*X103150D01*
X99150Y708450D02*Y706950D01*
X99650Y705750D02*X99150Y705250D01*
X99650Y705750D02*X102650D01*
X103150Y705250D01*
Y704250D01*
X102650Y703750D01*
X99650D02*X102650D01*
X99150Y704250D02*X99650Y703750D01*
X99150Y705250D02*Y704250D01*
X100150Y705750D02*X102150Y703750D01*
X99650Y702550D02*X99150Y702050D01*
X99650Y702550D02*X102650D01*
X103150Y702050D01*
Y701050D01*
X102650Y700550D01*
X99650D02*X102650D01*
X99150Y701050D02*X99650Y700550D01*
X99150Y702050D02*Y701050D01*
X100150Y702550D02*X102150Y700550D01*
X47350Y620650D02*X49350D01*
X49850Y620150D01*
Y619150D01*
X49350Y618650D02*X49850Y619150D01*
X47850Y618650D02*X49350D01*
X47850Y620650D02*Y616650D01*
X48650Y618650D02*X49850Y616650D01*
X51050Y619850D02*X51850Y620650D01*
Y616650D01*
X51050D02*X52550D01*
X53750Y617150D02*X54250Y616650D01*
X53750Y620150D02*Y617150D01*
Y620150D02*X54250Y620650D01*
X55250D01*
X55750Y620150D01*
Y617150D01*
X55250Y616650D02*X55750Y617150D01*
X54250Y616650D02*X55250D01*
X53750Y617650D02*X55750Y619650D01*
X56950Y620650D02*X58950D01*
X56950D02*Y618650D01*
X57450Y619150D01*
X58450D01*
X58950Y618650D01*
Y617150D01*
X58450Y616650D02*X58950Y617150D01*
X57450Y616650D02*X58450D01*
X56950Y617150D02*X57450Y616650D01*
X44669Y643571D02*X48669Y641071D01*
Y643571D02*X44669Y641071D01*
X48669Y639871D02*Y637871D01*
X44669Y638871D02*X48669D01*
X44669Y636671D02*X47669D01*
X48669Y635971D01*
Y634871D01*
X47669Y634171D01*
X44669D02*X47669D01*
X46669Y636671D02*Y634171D01*
X44669Y632971D02*X48669D01*
X44669D02*Y630971D01*
X47869Y629771D02*X48669Y628971D01*
X44669D02*X48669D01*
X44669Y629771D02*Y628271D01*
X45169Y627071D02*X44669Y626571D01*
X45169Y627071D02*X48169D01*
X48669Y626571D01*
Y625571D01*
X48169Y625071D01*
X45169D02*X48169D01*
X44669Y625571D02*X45169Y625071D01*
X44669Y626571D02*Y625571D01*
X45669Y627071D02*X47669Y625071D01*
X47869Y623871D02*X48669Y623071D01*
X44669D02*X48669D01*
X44669Y623871D02*Y622371D01*
X45350Y656650D02*X47350D01*
X47850Y656150D01*
Y655150D01*
X47350Y654650D02*X47850Y655150D01*
X45850Y654650D02*X47350D01*
X45850Y656650D02*Y652650D01*
X46650Y654650D02*X47850Y652650D01*
X49050Y655850D02*X49850Y656650D01*
Y652650D01*
X49050D02*X50550D01*
X51750Y653150D02*X52250Y652650D01*
X51750Y656150D02*Y653150D01*
Y656150D02*X52250Y656650D01*
X53250D01*
X53750Y656150D01*
Y653150D01*
X53250Y652650D02*X53750Y653150D01*
X52250Y652650D02*X53250D01*
X51750Y653650D02*X53750Y655650D01*
X54950Y654150D02*X56950Y656650D01*
X54950Y654150D02*X57450D01*
X56950Y656650D02*Y652650D01*
X25150Y606568D02*Y605268D01*
X25850Y607268D02*X25150Y606568D01*
X25850Y607268D02*X28450D01*
X29150Y606568D01*
Y605268D01*
X28350Y604068D02*X29150Y603268D01*
X25150D02*X29150D01*
X25150Y604068D02*Y602568D01*
X25650Y601368D02*X25150Y600868D01*
X25650Y601368D02*X28650D01*
X29150Y600868D01*
Y599868D01*
X28650Y599368D01*
X25650D02*X28650D01*
X25150Y599868D02*X25650Y599368D01*
X25150Y600868D02*Y599868D01*
X26150Y601368D02*X28150Y599368D01*
X29150Y596668D02*X28650Y596168D01*
X29150Y597668D02*Y596668D01*
X28650Y598168D02*X29150Y597668D01*
X25650Y598168D02*X28650D01*
X25650D02*X25150Y597668D01*
X27350Y596668D02*X26850Y596168D01*
X27350Y598168D02*Y596668D01*
X25150Y597668D02*Y596668D01*
X25650Y596168D01*
X26850D01*
X134197Y611650D02*X135497D01*
X133497Y612350D02*X134197Y611650D01*
X133497Y614950D02*Y612350D01*
Y614950D02*X134197Y615650D01*
X135497D01*
X136697Y614850D02*X137497Y615650D01*
Y611650D01*
X136697D02*X138197D01*
X139397Y612150D02*X139897Y611650D01*
X139397Y615150D02*Y612150D01*
Y615150D02*X139897Y615650D01*
X140897D01*
X141397Y615150D01*
Y612150D01*
X140897Y611650D02*X141397Y612150D01*
X139897Y611650D02*X140897D01*
X139397Y612650D02*X141397Y614650D01*
X142597Y614850D02*X143397Y615650D01*
Y611650D01*
X142597D02*X144097D01*
X85136Y621150D02*X86436D01*
X84436Y621850D02*X85136Y621150D01*
X84436Y624450D02*Y621850D01*
Y624450D02*X85136Y625150D01*
X86436D01*
X87636Y624350D02*X88436Y625150D01*
Y621150D01*
X87636D02*X89136D01*
X90336Y624350D02*X91136Y625150D01*
Y621150D01*
X90336D02*X91836D01*
X93036Y624650D02*X93536Y625150D01*
X94536D01*
X95036Y624650D01*
X94536Y621150D02*X95036Y621650D01*
X93536Y621150D02*X94536D01*
X93036Y621650D02*X93536Y621150D01*
Y623350D02*X94536D01*
X95036Y624650D02*Y623850D01*
Y622850D02*Y621650D01*
Y622850D02*X94536Y623350D01*
X95036Y623850D02*X94536Y623350D01*
X138093Y626650D02*X139393D01*
X137393Y627350D02*X138093Y626650D01*
X137393Y629950D02*Y627350D01*
Y629950D02*X138093Y630650D01*
X139393D01*
X140593Y629850D02*X141393Y630650D01*
Y626650D01*
X140593D02*X142093D01*
X143293Y629850D02*X144093Y630650D01*
Y626650D01*
X143293D02*X144793D01*
X145993Y630150D02*X146493Y630650D01*
X147993D01*
X148493Y630150D01*
Y629150D01*
X145993Y626650D02*X148493Y629150D01*
X145993Y626650D02*X148493D01*
X62050Y650650D02*X63350D01*
X61350Y651350D02*X62050Y650650D01*
X61350Y653950D02*Y651350D01*
Y653950D02*X62050Y654650D01*
X63350D01*
X64550Y653850D02*X65350Y654650D01*
Y650650D01*
X64550D02*X66050D01*
X67250Y653850D02*X68050Y654650D01*
Y650650D01*
X67250D02*X68750D01*
X70450D02*X71950Y652650D01*
Y654150D02*Y652650D01*
X71450Y654650D02*X71950Y654150D01*
X70450Y654650D02*X71450D01*
X69950Y654150D02*X70450Y654650D01*
X69950Y654150D02*Y653150D01*
X70450Y652650D01*
X71950D01*
X61550Y636150D02*X62850D01*
X60850Y636850D02*X61550Y636150D01*
X60850Y639450D02*Y636850D01*
Y639450D02*X61550Y640150D01*
X62850D01*
X64050Y639350D02*X64850Y640150D01*
Y636150D01*
X64050D02*X65550D01*
X66750Y639350D02*X67550Y640150D01*
Y636150D01*
X66750D02*X68250D01*
X69450Y636650D02*X69950Y636150D01*
X69450Y637450D02*Y636650D01*
Y637450D02*X70150Y638150D01*
X70750D01*
X71450Y637450D01*
Y636650D01*
X70950Y636150D02*X71450Y636650D01*
X69950Y636150D02*X70950D01*
X69450Y638850D02*X70150Y638150D01*
X69450Y639650D02*Y638850D01*
Y639650D02*X69950Y640150D01*
X70950D01*
X71450Y639650D01*
Y638850D01*
X70750Y638150D02*X71450Y638850D01*
X107550Y593650D02*X108850D01*
X106850Y594350D02*X107550Y593650D01*
X106850Y596950D02*Y594350D01*
Y596950D02*X107550Y597650D01*
X108850D01*
X110050Y596850D02*X110850Y597650D01*
Y593650D01*
X110050D02*X111550D01*
X112750Y596850D02*X113550Y597650D01*
Y593650D01*
X112750D02*X114250D01*
X116950Y597650D02*X117450Y597150D01*
X115950Y597650D02*X116950D01*
X115450Y597150D02*X115950Y597650D01*
X115450Y597150D02*Y594150D01*
X115950Y593650D01*
X116950Y595850D02*X117450Y595350D01*
X115450Y595850D02*X116950D01*
X115950Y593650D02*X116950D01*
X117450Y594150D01*
Y595350D02*Y594150D01*
X184350Y520893D02*Y518893D01*
Y520893D02*X184850Y521393D01*
X185850D01*
X186350Y520893D02*X185850Y521393D01*
X186350Y520893D02*Y519393D01*
X184350D02*X188350D01*
X186350Y520193D02*X188350Y521393D01*
X184850Y522593D02*X184350Y523093D01*
Y524593D02*Y523093D01*
Y524593D02*X184850Y525093D01*
X185850D01*
X188350Y522593D02*X185850Y525093D01*
X188350D02*Y522593D01*
X187850Y526293D02*X188350Y526793D01*
X184850Y526293D02*X187850D01*
X184850D02*X184350Y526793D01*
Y527793D02*Y526793D01*
Y527793D02*X184850Y528293D01*
X187850D01*
X188350Y527793D02*X187850Y528293D01*
X188350Y527793D02*Y526793D01*
X187350Y526293D02*X185350Y528293D01*
X184850Y529493D02*X184350Y529993D01*
Y530993D02*Y529993D01*
Y530993D02*X184850Y531493D01*
X188350Y530993D02*X187850Y531493D01*
X188350Y530993D02*Y529993D01*
X187850Y529493D02*X188350Y529993D01*
X186150Y530993D02*Y529993D01*
X184850Y531493D02*X185650D01*
X186650D02*X187850D01*
X186650D02*X186150Y530993D01*
X185650Y531493D02*X186150Y530993D01*
X168455Y528150D02*X169755D01*
X167755Y528850D02*X168455Y528150D01*
X167755Y531450D02*Y528850D01*
Y531450D02*X168455Y532150D01*
X169755D01*
X170955Y531650D02*X171455Y532150D01*
X172955D01*
X173455Y531650D01*
Y530650D01*
X170955Y528150D02*X173455Y530650D01*
X170955Y528150D02*X173455D01*
X174655Y528650D02*X175155Y528150D01*
X174655Y531650D02*Y528650D01*
Y531650D02*X175155Y532150D01*
X176155D01*
X176655Y531650D01*
Y528650D01*
X176155Y528150D02*X176655Y528650D01*
X175155Y528150D02*X176155D01*
X174655Y529150D02*X176655Y531150D01*
X177855Y529650D02*X179855Y532150D01*
X177855Y529650D02*X180355D01*
X179855Y532150D02*Y528150D01*
X200500Y541500D02*Y540200D01*
X199800Y539500D02*X200500Y540200D01*
X197200Y539500D02*X199800D01*
X197200D02*X196500Y540200D01*
Y541500D02*Y540200D01*
X197000Y542700D02*X196500Y543200D01*
Y544700D02*Y543200D01*
Y544700D02*X197000Y545200D01*
X198000D01*
X200500Y542700D02*X198000Y545200D01*
X200500D02*Y542700D01*
X200000Y546400D02*X200500Y546900D01*
X197000Y546400D02*X200000D01*
X197000D02*X196500Y546900D01*
Y547900D02*Y546900D01*
Y547900D02*X197000Y548400D01*
X200000D01*
X200500Y547900D02*X200000Y548400D01*
X200500Y547900D02*Y546900D01*
X199500Y546400D02*X197500Y548400D01*
X197000Y549600D02*X196500Y550100D01*
Y551100D02*Y550100D01*
Y551100D02*X197000Y551600D01*
X200500Y551100D02*X200000Y551600D01*
X200500Y551100D02*Y550100D01*
X200000Y549600D02*X200500Y550100D01*
X198300Y551100D02*Y550100D01*
X197000Y551600D02*X197800D01*
X198800D02*X200000D01*
X198800D02*X198300Y551100D01*
X197800Y551600D02*X198300Y551100D01*
X161602Y563650D02*X162902D01*
X160902Y564350D02*X161602Y563650D01*
X160902Y566950D02*Y564350D01*
Y566950D02*X161602Y567650D01*
X162902D01*
X164102Y567150D02*X164602Y567650D01*
X166102D01*
X166602Y567150D01*
Y566150D01*
X164102Y563650D02*X166602Y566150D01*
X164102Y563650D02*X166602D01*
X167802Y564150D02*X168302Y563650D01*
X167802Y567150D02*Y564150D01*
Y567150D02*X168302Y567650D01*
X169302D01*
X169802Y567150D01*
Y564150D01*
X169302Y563650D02*X169802Y564150D01*
X168302Y563650D02*X169302D01*
X167802Y564650D02*X169802Y566650D01*
X171002Y566850D02*X171802Y567650D01*
Y563650D01*
X171002D02*X172502D01*
X178700Y545500D02*X180000D01*
X178000Y546200D02*X178700Y545500D01*
X178000Y548800D02*Y546200D01*
Y548800D02*X178700Y549500D01*
X180000D01*
X181200Y549000D02*X181700Y549500D01*
X183200D01*
X183700Y549000D01*
Y548000D01*
X181200Y545500D02*X183700Y548000D01*
X181200Y545500D02*X183700D01*
X184900Y546000D02*X185400Y545500D01*
X184900Y549000D02*Y546000D01*
Y549000D02*X185400Y549500D01*
X186400D01*
X186900Y549000D01*
Y546000D01*
X186400Y545500D02*X186900Y546000D01*
X185400Y545500D02*X186400D01*
X184900Y546500D02*X186900Y548500D01*
X188100Y549000D02*X188600Y549500D01*
X190100D01*
X190600Y549000D01*
Y548000D01*
X188100Y545500D02*X190600Y548000D01*
X188100Y545500D02*X190600D01*
X152138Y550902D02*X153138Y546902D01*
X154138Y550902D01*
X155338D02*X157338D01*
X157838Y550402D01*
Y549402D01*
X157338Y548902D02*X157838Y549402D01*
X155838Y548902D02*X157338D01*
X155838Y550902D02*Y546902D01*
X156638Y548902D02*X157838Y546902D01*
X159038Y549102D02*X160538D01*
X159038Y546902D02*X161038D01*
X159038Y550902D02*Y546902D01*
Y550902D02*X161038D01*
X164238D02*X164738Y550402D01*
X162738Y550902D02*X164238D01*
X162238Y550402D02*X162738Y550902D01*
X162238Y550402D02*Y547402D01*
X162738Y546902D01*
X164238D01*
X164738Y547402D01*
Y548402D02*Y547402D01*
X164238Y548902D02*X164738Y548402D01*
X163238Y548902D02*X164238D01*
X165938Y550402D02*X166438Y550902D01*
X167938D01*
X168438Y550402D01*
Y549402D01*
X165938Y546902D02*X168438Y549402D01*
X165938Y546902D02*X168438D01*
X169638Y547402D02*X170138Y546902D01*
X169638Y550402D02*Y547402D01*
Y550402D02*X170138Y550902D01*
X171138D01*
X171638Y550402D01*
Y547402D01*
X171138Y546902D02*X171638Y547402D01*
X170138Y546902D02*X171138D01*
X169638Y547902D02*X171638Y549902D01*
X172838Y547402D02*X173338Y546902D01*
X172838Y550402D02*Y547402D01*
Y550402D02*X173338Y550902D01*
X174338D01*
X174838Y550402D01*
Y547402D01*
X174338Y546902D02*X174838Y547402D01*
X173338Y546902D02*X174338D01*
X172838Y547902D02*X174838Y549902D01*
X177850Y553807D02*Y551807D01*
Y553807D02*X178350Y554307D01*
X179350D01*
X179850Y553807D02*X179350Y554307D01*
X179850Y553807D02*Y552307D01*
X177850D02*X181850D01*
X179850Y553107D02*X181850Y554307D01*
X178350Y555507D02*X177850Y556007D01*
Y557507D02*Y556007D01*
Y557507D02*X178350Y558007D01*
X179350D01*
X181850Y555507D02*X179350Y558007D01*
X181850D02*Y555507D01*
X181350Y559207D02*X181850Y559707D01*
X178350Y559207D02*X181350D01*
X178350D02*X177850Y559707D01*
Y560707D02*Y559707D01*
Y560707D02*X178350Y561207D01*
X181350D01*
X181850Y560707D02*X181350Y561207D01*
X181850Y560707D02*Y559707D01*
X180850Y559207D02*X178850Y561207D01*
X181350Y562407D02*X181850Y562907D01*
X178350Y562407D02*X181350D01*
X178350D02*X177850Y562907D01*
Y563907D02*Y562907D01*
Y563907D02*X178350Y564407D01*
X181350D01*
X181850Y563907D02*X181350Y564407D01*
X181850Y563907D02*Y562907D01*
X180850Y562407D02*X178850Y564407D01*
X230000Y566000D02*Y562500D01*
X230500Y562000D01*
X231500D01*
X232000Y562500D01*
Y566000D02*Y562500D01*
X233200Y565500D02*X233700Y566000D01*
X235200D01*
X235700Y565500D01*
Y564500D01*
X233200Y562000D02*X235700Y564500D01*
X233200Y562000D02*X235700D01*
X236900Y562500D02*X237400Y562000D01*
X236900Y565500D02*Y562500D01*
Y565500D02*X237400Y566000D01*
X238400D01*
X238900Y565500D01*
Y562500D01*
X238400Y562000D02*X238900Y562500D01*
X237400Y562000D02*X238400D01*
X236900Y563000D02*X238900Y565000D01*
X240100Y562500D02*X240600Y562000D01*
X240100Y565500D02*Y562500D01*
Y565500D02*X240600Y566000D01*
X241600D01*
X242100Y565500D01*
Y562500D01*
X241600Y562000D02*X242100Y562500D01*
X240600Y562000D02*X241600D01*
X240100Y563000D02*X242100Y565000D01*
X273893Y801150D02*X275893D01*
X276393Y800650D01*
Y799650D01*
X275893Y799150D02*X276393Y799650D01*
X274393Y799150D02*X275893D01*
X274393Y801150D02*Y797150D01*
X275193Y799150D02*X276393Y797150D01*
X279093Y801150D02*X279593Y800650D01*
X278093Y801150D02*X279093D01*
X277593Y800650D02*X278093Y801150D01*
X277593Y800650D02*Y797650D01*
X278093Y797150D01*
X279093Y799350D02*X279593Y798850D01*
X277593Y799350D02*X279093D01*
X278093Y797150D02*X279093D01*
X279593Y797650D01*
Y798850D02*Y797650D01*
X280793D02*X281293Y797150D01*
X280793Y800650D02*Y797650D01*
Y800650D02*X281293Y801150D01*
X282293D01*
X282793Y800650D01*
Y797650D01*
X282293Y797150D02*X282793Y797650D01*
X281293Y797150D02*X282293D01*
X280793Y798150D02*X282793Y800150D01*
X283993Y798650D02*X285993Y801150D01*
X283993Y798650D02*X286493D01*
X285993Y801150D02*Y797150D01*
X271393Y810650D02*X273393D01*
X273893Y810150D01*
Y809150D01*
X273393Y808650D02*X273893Y809150D01*
X271893Y808650D02*X273393D01*
X271893Y810650D02*Y806650D01*
X272693Y808650D02*X273893Y806650D01*
X276593Y810650D02*X277093Y810150D01*
X275593Y810650D02*X276593D01*
X275093Y810150D02*X275593Y810650D01*
X275093Y810150D02*Y807150D01*
X275593Y806650D01*
X276593Y808850D02*X277093Y808350D01*
X275093Y808850D02*X276593D01*
X275593Y806650D02*X276593D01*
X277093Y807150D01*
Y808350D02*Y807150D01*
X278293D02*X278793Y806650D01*
X278293Y810150D02*Y807150D01*
Y810150D02*X278793Y810650D01*
X279793D01*
X280293Y810150D01*
Y807150D01*
X279793Y806650D02*X280293Y807150D01*
X278793Y806650D02*X279793D01*
X278293Y807650D02*X280293Y809650D01*
X281493Y810650D02*X283493D01*
X281493D02*Y808650D01*
X281993Y809150D01*
X282993D01*
X283493Y808650D01*
Y807150D01*
X282993Y806650D02*X283493Y807150D01*
X281993Y806650D02*X282993D01*
X281493Y807150D02*X281993Y806650D01*
X259950Y801000D02*X263950D01*
Y799700D02*X263250Y799000D01*
X260650D02*X263250D01*
X259950Y799700D02*X260650Y799000D01*
X259950Y801500D02*Y799700D01*
X263950Y801500D02*Y799700D01*
Y796300D02*X263450Y795800D01*
X263950Y797300D02*Y796300D01*
X263450Y797800D02*X263950Y797300D01*
X260450Y797800D02*X263450D01*
X260450D02*X259950Y797300D01*
X262150Y796300D02*X261650Y795800D01*
X262150Y797800D02*Y796300D01*
X259950Y797300D02*Y796300D01*
X260450Y795800D01*
X261650D01*
X260450Y794600D02*X259950Y794100D01*
X260450Y794600D02*X263450D01*
X263950Y794100D01*
Y793100D01*
X263450Y792600D01*
X260450D02*X263450D01*
X259950Y793100D02*X260450Y792600D01*
X259950Y794100D02*Y793100D01*
X260950Y794600D02*X262950Y792600D01*
X263450Y791400D02*X263950Y790900D01*
Y789400D01*
X263450Y788900D01*
X262450D02*X263450D01*
X259950Y791400D02*X262450Y788900D01*
X259950Y791400D02*Y788900D01*
X369519Y818726D02*X371519D01*
X372019Y818226D01*
Y817226D01*
X371519Y816726D02*X372019Y817226D01*
X370019Y816726D02*X371519D01*
X370019Y818726D02*Y814726D01*
X370819Y816726D02*X372019Y814726D01*
X374719Y818726D02*X375219Y818226D01*
X373719Y818726D02*X374719D01*
X373219Y818226D02*X373719Y818726D01*
X373219Y818226D02*Y815226D01*
X373719Y814726D01*
X374719Y816926D02*X375219Y816426D01*
X373219Y816926D02*X374719D01*
X373719Y814726D02*X374719D01*
X375219Y815226D01*
Y816426D02*Y815226D01*
X376419D02*X376919Y814726D01*
X376419Y818226D02*Y815226D01*
Y818226D02*X376919Y818726D01*
X377919D01*
X378419Y818226D01*
Y815226D01*
X377919Y814726D02*X378419Y815226D01*
X376919Y814726D02*X377919D01*
X376419Y815726D02*X378419Y817726D01*
X379619Y818226D02*X380119Y818726D01*
X381619D01*
X382119Y818226D01*
Y817226D01*
X379619Y814726D02*X382119Y817226D01*
X379619Y814726D02*X382119D01*
X371393Y825150D02*X373393D01*
X373893Y824650D01*
Y823650D01*
X373393Y823150D02*X373893Y823650D01*
X371893Y823150D02*X373393D01*
X371893Y825150D02*Y821150D01*
X372693Y823150D02*X373893Y821150D01*
X376593Y825150D02*X377093Y824650D01*
X375593Y825150D02*X376593D01*
X375093Y824650D02*X375593Y825150D01*
X375093Y824650D02*Y821650D01*
X375593Y821150D01*
X376593Y823350D02*X377093Y822850D01*
X375093Y823350D02*X376593D01*
X375593Y821150D02*X376593D01*
X377093Y821650D01*
Y822850D02*Y821650D01*
X378293D02*X378793Y821150D01*
X378293Y824650D02*Y821650D01*
Y824650D02*X378793Y825150D01*
X379793D01*
X380293Y824650D01*
Y821650D01*
X379793Y821150D02*X380293Y821650D01*
X378793Y821150D02*X379793D01*
X378293Y822150D02*X380293Y824150D01*
X381493Y824650D02*X381993Y825150D01*
X382993D01*
X383493Y824650D01*
X382993Y821150D02*X383493Y821650D01*
X381993Y821150D02*X382993D01*
X381493Y821650D02*X381993Y821150D01*
Y823350D02*X382993D01*
X383493Y824650D02*Y823850D01*
Y822850D02*Y821650D01*
Y822850D02*X382993Y823350D01*
X383493Y823850D02*X382993Y823350D01*
X375450Y805500D02*X379450D01*
Y804200D02*X378750Y803500D01*
X376150D02*X378750D01*
X375450Y804200D02*X376150Y803500D01*
X375450Y806000D02*Y804200D01*
X379450Y806000D02*Y804200D01*
Y800800D02*X378950Y800300D01*
X379450Y801800D02*Y800800D01*
X378950Y802300D02*X379450Y801800D01*
X375950Y802300D02*X378950D01*
X375950D02*X375450Y801800D01*
X377650Y800800D02*X377150Y800300D01*
X377650Y802300D02*Y800800D01*
X375450Y801800D02*Y800800D01*
X375950Y800300D01*
X377150D01*
X375950Y799100D02*X375450Y798600D01*
X375950Y799100D02*X378950D01*
X379450Y798600D01*
Y797600D01*
X378950Y797100D01*
X375950D02*X378950D01*
X375450Y797600D02*X375950Y797100D01*
X375450Y798600D02*Y797600D01*
X376450Y799100D02*X378450Y797100D01*
X378950Y795900D02*X379450Y795400D01*
Y794400D01*
X378950Y793900D01*
X375450Y794400D02*X375950Y793900D01*
X375450Y795400D02*Y794400D01*
X375950Y795900D02*X375450Y795400D01*
X377650D02*Y794400D01*
X378150Y793900D02*X378950D01*
X375950D02*X377150D01*
X377650Y794400D01*
X378150Y793900D02*X377650Y794400D01*
X385221Y763150D02*X387221D01*
X387721Y762650D01*
Y761650D01*
X387221Y761150D02*X387721Y761650D01*
X385721Y761150D02*X387221D01*
X385721Y763150D02*Y759150D01*
X386521Y761150D02*X387721Y759150D01*
X390421Y763150D02*X390921Y762650D01*
X389421Y763150D02*X390421D01*
X388921Y762650D02*X389421Y763150D01*
X388921Y762650D02*Y759650D01*
X389421Y759150D01*
X390421Y761350D02*X390921Y760850D01*
X388921Y761350D02*X390421D01*
X389421Y759150D02*X390421D01*
X390921Y759650D01*
Y760850D02*Y759650D01*
X392121D02*X392621Y759150D01*
X392121Y762650D02*Y759650D01*
Y762650D02*X392621Y763150D01*
X393621D01*
X394121Y762650D01*
Y759650D01*
X393621Y759150D02*X394121Y759650D01*
X392621Y759150D02*X393621D01*
X392121Y760150D02*X394121Y762150D01*
X395821Y759150D02*X397821Y763150D01*
X395321D02*X397821D01*
X382807Y748150D02*X384807D01*
X385307Y747650D01*
Y746650D01*
X384807Y746150D02*X385307Y746650D01*
X383307Y746150D02*X384807D01*
X383307Y748150D02*Y744150D01*
X384107Y746150D02*X385307Y744150D01*
X388007Y748150D02*X388507Y747650D01*
X387007Y748150D02*X388007D01*
X386507Y747650D02*X387007Y748150D01*
X386507Y747650D02*Y744650D01*
X387007Y744150D01*
X388007Y746350D02*X388507Y745850D01*
X386507Y746350D02*X388007D01*
X387007Y744150D02*X388007D01*
X388507Y744650D01*
Y745850D02*Y744650D01*
X389707D02*X390207Y744150D01*
X389707Y747650D02*Y744650D01*
Y747650D02*X390207Y748150D01*
X391207D01*
X391707Y747650D01*
Y744650D01*
X391207Y744150D02*X391707Y744650D01*
X390207Y744150D02*X391207D01*
X389707Y745150D02*X391707Y747150D01*
X394407Y748150D02*X394907Y747650D01*
X393407Y748150D02*X394407D01*
X392907Y747650D02*X393407Y748150D01*
X392907Y747650D02*Y744650D01*
X393407Y744150D01*
X394407Y746350D02*X394907Y745850D01*
X392907Y746350D02*X394407D01*
X393407Y744150D02*X394407D01*
X394907Y744650D01*
Y745850D02*Y744650D01*
X373950Y755500D02*X377950D01*
Y754200D02*X377250Y753500D01*
X374650D02*X377250D01*
X373950Y754200D02*X374650Y753500D01*
X373950Y756000D02*Y754200D01*
X377950Y756000D02*Y754200D01*
Y750800D02*X377450Y750300D01*
X377950Y751800D02*Y750800D01*
X377450Y752300D02*X377950Y751800D01*
X374450Y752300D02*X377450D01*
X374450D02*X373950Y751800D01*
X376150Y750800D02*X375650Y750300D01*
X376150Y752300D02*Y750800D01*
X373950Y751800D02*Y750800D01*
X374450Y750300D01*
X375650D01*
X374450Y749100D02*X373950Y748600D01*
X374450Y749100D02*X377450D01*
X377950Y748600D01*
Y747600D01*
X377450Y747100D01*
X374450D02*X377450D01*
X373950Y747600D02*X374450Y747100D01*
X373950Y748600D02*Y747600D01*
X374950Y749100D02*X376950Y747100D01*
X377150Y745900D02*X377950Y745100D01*
X373950D02*X377950D01*
X373950Y745900D02*Y744400D01*
M02*
