G04 start of page 6 for group 4 idx 4 *
G04 Title: (unknown), outline *
G04 Creator: pcb 20110918 *
G04 CreationDate: Thu Nov 14 23:28:25 2013 UTC *
G04 For: fosse *
G04 Format: Gerber/RS-274X *
G04 PCB-Dimensions: 550000 600000 *
G04 PCB-Coordinate-Origin: lower left *
%MOIN*%
%FSLAX25Y25*%
%LNOUTLINE*%
%ADD114C,0.0000*%
%ADD113C,0.0100*%
%ADD112C,0.0050*%
%ADD111C,0.0101*%
%ADD110C,0.0080*%
%ADD109C,0.0079*%
%ADD108C,0.0100*%
%ADD107C,0.0070*%
%ADD106C,0.0060*%
%ADD105C,0.0001*%
G54D105*G36*
X221946Y298001D02*X198443D01*
Y326701D01*
X221946D01*
Y298001D01*
G37*
G36*
X218888D01*
Y298718D01*
X218923Y298715D01*
X219315Y298746D01*
X219698Y298838D01*
X220061Y298989D01*
X220397Y299194D01*
X220696Y299450D01*
X220952Y299749D01*
X221157Y300085D01*
X221308Y300448D01*
X221400Y300831D01*
X221423Y301223D01*
X221400Y301615D01*
X221308Y301998D01*
X221157Y302361D01*
X220952Y302697D01*
X220696Y302996D01*
X220397Y303252D01*
X220061Y303457D01*
X219698Y303608D01*
X219315Y303700D01*
X218923Y303731D01*
X218888Y303728D01*
Y317801D01*
X218892Y317800D01*
X219284Y317831D01*
X219667Y317923D01*
X220030Y318074D01*
X220366Y318279D01*
X220665Y318535D01*
X220921Y318834D01*
X221126Y319170D01*
X221277Y319533D01*
X221369Y319916D01*
X221392Y320308D01*
X221369Y320700D01*
X221277Y321083D01*
X221126Y321446D01*
X220921Y321782D01*
X220665Y322081D01*
X220366Y322337D01*
X220030Y322542D01*
X219667Y322693D01*
X219284Y322785D01*
X218892Y322816D01*
X218888Y322815D01*
Y326701D01*
X219532D01*
X219512Y326450D01*
X219543Y326058D01*
X219635Y325675D01*
X219786Y325312D01*
X219991Y324976D01*
X220247Y324677D01*
X220546Y324421D01*
X220882Y324216D01*
X221245Y324065D01*
X221628Y323973D01*
X221946Y323948D01*
Y309344D01*
X221728Y309327D01*
X221345Y309235D01*
X220982Y309084D01*
X220646Y308879D01*
X220347Y308623D01*
X220091Y308324D01*
X219886Y307988D01*
X219735Y307625D01*
X219643Y307242D01*
X219612Y306850D01*
X219643Y306458D01*
X219735Y306075D01*
X219886Y305712D01*
X220091Y305376D01*
X220347Y305077D01*
X220646Y304821D01*
X220982Y304616D01*
X221345Y304465D01*
X221728Y304373D01*
X221946Y304356D01*
Y298001D01*
G37*
G36*
X218888D02*X215816D01*
Y304343D01*
X215820Y304342D01*
X216212Y304373D01*
X216595Y304465D01*
X216958Y304616D01*
X217294Y304821D01*
X217593Y305077D01*
X217849Y305376D01*
X218054Y305712D01*
X218205Y306075D01*
X218297Y306458D01*
X218320Y306850D01*
X218297Y307242D01*
X218205Y307625D01*
X218054Y307988D01*
X217849Y308324D01*
X217593Y308623D01*
X217294Y308879D01*
X216958Y309084D01*
X216595Y309235D01*
X216212Y309327D01*
X215820Y309358D01*
X215816Y309357D01*
Y323943D01*
X215820Y323942D01*
X216212Y323973D01*
X216595Y324065D01*
X216958Y324216D01*
X217294Y324421D01*
X217593Y324677D01*
X217849Y324976D01*
X218054Y325312D01*
X218205Y325675D01*
X218297Y326058D01*
X218320Y326450D01*
X218305Y326701D01*
X218888D01*
Y322815D01*
X218500Y322785D01*
X218117Y322693D01*
X217754Y322542D01*
X217418Y322337D01*
X217119Y322081D01*
X216863Y321782D01*
X216658Y321446D01*
X216507Y321083D01*
X216415Y320700D01*
X216384Y320308D01*
X216415Y319916D01*
X216507Y319533D01*
X216658Y319170D01*
X216863Y318834D01*
X217119Y318535D01*
X217418Y318279D01*
X217754Y318074D01*
X218117Y317923D01*
X218500Y317831D01*
X218888Y317801D01*
Y303728D01*
X218531Y303700D01*
X218148Y303608D01*
X217785Y303457D01*
X217449Y303252D01*
X217150Y302996D01*
X216894Y302697D01*
X216689Y302361D01*
X216538Y301998D01*
X216446Y301615D01*
X216415Y301223D01*
X216446Y300831D01*
X216538Y300448D01*
X216689Y300085D01*
X216894Y299749D01*
X217150Y299450D01*
X217449Y299194D01*
X217785Y298989D01*
X218148Y298838D01*
X218531Y298746D01*
X218888Y298718D01*
Y298001D01*
G37*
G36*
X215816D02*X212588D01*
Y298718D01*
X212623Y298715D01*
X213015Y298746D01*
X213398Y298838D01*
X213761Y298989D01*
X214097Y299194D01*
X214396Y299450D01*
X214652Y299749D01*
X214857Y300085D01*
X215008Y300448D01*
X215100Y300831D01*
X215123Y301223D01*
X215100Y301615D01*
X215008Y301998D01*
X214857Y302361D01*
X214652Y302697D01*
X214396Y302996D01*
X214097Y303252D01*
X213761Y303457D01*
X213398Y303608D01*
X213015Y303700D01*
X212623Y303731D01*
X212588Y303728D01*
Y317801D01*
X212592Y317800D01*
X212984Y317831D01*
X213367Y317923D01*
X213730Y318074D01*
X214066Y318279D01*
X214365Y318535D01*
X214621Y318834D01*
X214826Y319170D01*
X214977Y319533D01*
X215069Y319916D01*
X215092Y320308D01*
X215069Y320700D01*
X214977Y321083D01*
X214826Y321446D01*
X214621Y321782D01*
X214365Y322081D01*
X214066Y322337D01*
X213730Y322542D01*
X213367Y322693D01*
X212984Y322785D01*
X212592Y322816D01*
X212588Y322815D01*
Y326701D01*
X213332D01*
X213312Y326450D01*
X213343Y326058D01*
X213435Y325675D01*
X213586Y325312D01*
X213791Y324976D01*
X214047Y324677D01*
X214346Y324421D01*
X214682Y324216D01*
X215045Y324065D01*
X215428Y323973D01*
X215816Y323943D01*
Y309357D01*
X215428Y309327D01*
X215045Y309235D01*
X214682Y309084D01*
X214346Y308879D01*
X214047Y308623D01*
X213791Y308324D01*
X213586Y307988D01*
X213435Y307625D01*
X213343Y307242D01*
X213312Y306850D01*
X213343Y306458D01*
X213435Y306075D01*
X213586Y305712D01*
X213791Y305376D01*
X214047Y305077D01*
X214346Y304821D01*
X214682Y304616D01*
X215045Y304465D01*
X215428Y304373D01*
X215816Y304343D01*
Y298001D01*
G37*
G36*
X212588D02*X209516D01*
Y304343D01*
X209520Y304342D01*
X209912Y304373D01*
X210295Y304465D01*
X210658Y304616D01*
X210994Y304821D01*
X211293Y305077D01*
X211549Y305376D01*
X211754Y305712D01*
X211905Y306075D01*
X211997Y306458D01*
X212020Y306850D01*
X211997Y307242D01*
X211905Y307625D01*
X211754Y307988D01*
X211549Y308324D01*
X211293Y308623D01*
X210994Y308879D01*
X210658Y309084D01*
X210295Y309235D01*
X209912Y309327D01*
X209520Y309358D01*
X209516Y309357D01*
Y323943D01*
X209520Y323942D01*
X209912Y323973D01*
X210295Y324065D01*
X210658Y324216D01*
X210994Y324421D01*
X211293Y324677D01*
X211549Y324976D01*
X211754Y325312D01*
X211905Y325675D01*
X211997Y326058D01*
X212020Y326450D01*
X212005Y326701D01*
X212588D01*
Y322815D01*
X212200Y322785D01*
X211817Y322693D01*
X211454Y322542D01*
X211118Y322337D01*
X210819Y322081D01*
X210563Y321782D01*
X210358Y321446D01*
X210207Y321083D01*
X210115Y320700D01*
X210084Y320308D01*
X210115Y319916D01*
X210207Y319533D01*
X210358Y319170D01*
X210563Y318834D01*
X210819Y318535D01*
X211118Y318279D01*
X211454Y318074D01*
X211817Y317923D01*
X212200Y317831D01*
X212588Y317801D01*
Y303728D01*
X212231Y303700D01*
X211848Y303608D01*
X211485Y303457D01*
X211149Y303252D01*
X210850Y302996D01*
X210594Y302697D01*
X210389Y302361D01*
X210238Y301998D01*
X210146Y301615D01*
X210115Y301223D01*
X210146Y300831D01*
X210238Y300448D01*
X210389Y300085D01*
X210594Y299749D01*
X210850Y299450D01*
X211149Y299194D01*
X211485Y298989D01*
X211848Y298838D01*
X212231Y298746D01*
X212588Y298718D01*
Y298001D01*
G37*
G36*
X209516D02*X206288D01*
Y298718D01*
X206323Y298715D01*
X206715Y298746D01*
X207098Y298838D01*
X207461Y298989D01*
X207797Y299194D01*
X208096Y299450D01*
X208352Y299749D01*
X208557Y300085D01*
X208708Y300448D01*
X208800Y300831D01*
X208823Y301223D01*
X208800Y301615D01*
X208708Y301998D01*
X208557Y302361D01*
X208352Y302697D01*
X208096Y302996D01*
X207797Y303252D01*
X207461Y303457D01*
X207098Y303608D01*
X206715Y303700D01*
X206323Y303731D01*
X206288Y303728D01*
Y317801D01*
X206292Y317800D01*
X206684Y317831D01*
X207067Y317923D01*
X207430Y318074D01*
X207766Y318279D01*
X208065Y318535D01*
X208321Y318834D01*
X208526Y319170D01*
X208677Y319533D01*
X208769Y319916D01*
X208792Y320308D01*
X208769Y320700D01*
X208677Y321083D01*
X208526Y321446D01*
X208321Y321782D01*
X208065Y322081D01*
X207766Y322337D01*
X207430Y322542D01*
X207067Y322693D01*
X206684Y322785D01*
X206292Y322816D01*
X206288Y322815D01*
Y326701D01*
X207032D01*
X207012Y326450D01*
X207043Y326058D01*
X207135Y325675D01*
X207286Y325312D01*
X207491Y324976D01*
X207747Y324677D01*
X208046Y324421D01*
X208382Y324216D01*
X208745Y324065D01*
X209128Y323973D01*
X209516Y323943D01*
Y309357D01*
X209128Y309327D01*
X208745Y309235D01*
X208382Y309084D01*
X208046Y308879D01*
X207747Y308623D01*
X207491Y308324D01*
X207286Y307988D01*
X207135Y307625D01*
X207043Y307242D01*
X207012Y306850D01*
X207043Y306458D01*
X207135Y306075D01*
X207286Y305712D01*
X207491Y305376D01*
X207747Y305077D01*
X208046Y304821D01*
X208382Y304616D01*
X208745Y304465D01*
X209128Y304373D01*
X209516Y304343D01*
Y298001D01*
G37*
G36*
X206288D02*X203116D01*
Y304343D01*
X203120Y304342D01*
X203512Y304373D01*
X203895Y304465D01*
X204258Y304616D01*
X204594Y304821D01*
X204893Y305077D01*
X205149Y305376D01*
X205354Y305712D01*
X205505Y306075D01*
X205597Y306458D01*
X205620Y306850D01*
X205597Y307242D01*
X205505Y307625D01*
X205354Y307988D01*
X205149Y308324D01*
X204893Y308623D01*
X204594Y308879D01*
X204258Y309084D01*
X203895Y309235D01*
X203512Y309327D01*
X203120Y309358D01*
X203116Y309357D01*
Y323950D01*
X203220Y323942D01*
X203612Y323973D01*
X203995Y324065D01*
X204358Y324216D01*
X204694Y324421D01*
X204993Y324677D01*
X205249Y324976D01*
X205454Y325312D01*
X205605Y325675D01*
X205697Y326058D01*
X205720Y326450D01*
X205705Y326701D01*
X206288D01*
Y322815D01*
X205900Y322785D01*
X205517Y322693D01*
X205154Y322542D01*
X204818Y322337D01*
X204519Y322081D01*
X204263Y321782D01*
X204058Y321446D01*
X203907Y321083D01*
X203815Y320700D01*
X203784Y320308D01*
X203815Y319916D01*
X203907Y319533D01*
X204058Y319170D01*
X204263Y318834D01*
X204519Y318535D01*
X204818Y318279D01*
X205154Y318074D01*
X205517Y317923D01*
X205900Y317831D01*
X206288Y317801D01*
Y303728D01*
X205931Y303700D01*
X205548Y303608D01*
X205185Y303457D01*
X204849Y303252D01*
X204550Y302996D01*
X204294Y302697D01*
X204089Y302361D01*
X203938Y301998D01*
X203846Y301615D01*
X203815Y301223D01*
X203846Y300831D01*
X203938Y300448D01*
X204089Y300085D01*
X204294Y299749D01*
X204550Y299450D01*
X204849Y299194D01*
X205185Y298989D01*
X205548Y298838D01*
X205931Y298746D01*
X206288Y298718D01*
Y298001D01*
G37*
G36*
X203116D02*X198443D01*
Y299242D01*
X198526Y299171D01*
X198862Y298966D01*
X199225Y298815D01*
X199608Y298723D01*
X200000Y298692D01*
X200392Y298723D01*
X200775Y298815D01*
X201138Y298966D01*
X201474Y299171D01*
X201773Y299427D01*
X202029Y299726D01*
X202234Y300062D01*
X202385Y300425D01*
X202477Y300808D01*
X202500Y301200D01*
X202477Y301592D01*
X202385Y301975D01*
X202234Y302338D01*
X202029Y302674D01*
X201773Y302973D01*
X201474Y303229D01*
X201138Y303434D01*
X200775Y303585D01*
X200392Y303677D01*
X200000Y303708D01*
X199608Y303677D01*
X199225Y303585D01*
X198862Y303434D01*
X198526Y303229D01*
X198443Y303158D01*
Y312663D01*
X198536Y312772D01*
X198842Y313271D01*
X199066Y313812D01*
X199203Y314382D01*
X199238Y314966D01*
X199203Y315550D01*
X199066Y316120D01*
X198842Y316661D01*
X198536Y317160D01*
X198443Y317269D01*
Y318342D01*
X198526Y318271D01*
X198862Y318066D01*
X199225Y317915D01*
X199608Y317823D01*
X200000Y317792D01*
X200392Y317823D01*
X200775Y317915D01*
X201138Y318066D01*
X201474Y318271D01*
X201773Y318527D01*
X202029Y318826D01*
X202234Y319162D01*
X202385Y319525D01*
X202477Y319908D01*
X202500Y320300D01*
X202477Y320692D01*
X202385Y321075D01*
X202234Y321438D01*
X202029Y321774D01*
X201773Y322073D01*
X201474Y322329D01*
X201138Y322534D01*
X200775Y322685D01*
X200392Y322777D01*
X200000Y322808D01*
X199608Y322777D01*
X199225Y322685D01*
X198862Y322534D01*
X198526Y322329D01*
X198443Y322258D01*
Y326701D01*
X200732D01*
X200712Y326450D01*
X200743Y326058D01*
X200835Y325675D01*
X200986Y325312D01*
X201191Y324976D01*
X201447Y324677D01*
X201746Y324421D01*
X202082Y324216D01*
X202445Y324065D01*
X202828Y323973D01*
X203116Y323950D01*
Y309357D01*
X202728Y309327D01*
X202345Y309235D01*
X201982Y309084D01*
X201646Y308879D01*
X201347Y308623D01*
X201091Y308324D01*
X200886Y307988D01*
X200735Y307625D01*
X200643Y307242D01*
X200612Y306850D01*
X200643Y306458D01*
X200735Y306075D01*
X200886Y305712D01*
X201091Y305376D01*
X201347Y305077D01*
X201646Y304821D01*
X201982Y304616D01*
X202345Y304465D01*
X202728Y304373D01*
X203116Y304343D01*
Y298001D01*
G37*
G36*
X249446D02*X225945D01*
Y326701D01*
X249446D01*
Y298001D01*
G37*
G36*
X225945D01*
Y326701D01*
X249446D01*
Y318606D01*
X249250Y318653D01*
X248666Y318699D01*
X248082Y318653D01*
X247512Y318516D01*
X246971Y318292D01*
X246472Y317986D01*
X246026Y317606D01*
X245646Y317160D01*
X245340Y316661D01*
X245116Y316120D01*
X244979Y315550D01*
X244933Y314966D01*
X244979Y314382D01*
X245116Y313812D01*
X245340Y313271D01*
X245646Y312772D01*
X246026Y312326D01*
X246472Y311946D01*
X246971Y311640D01*
X247512Y311416D01*
X248082Y311279D01*
X248666Y311233D01*
X249250Y311279D01*
X249446Y311326D01*
Y298001D01*
G37*
G36*
X165842Y338099D02*Y361596D01*
X194542D01*
Y338099D01*
X165842D01*
G37*
G36*
X168446Y302998D02*Y331698D01*
X191943D01*
Y316025D01*
X191829Y315550D01*
X191783Y314966D01*
X191829Y314382D01*
X191943Y313907D01*
Y302998D01*
X168446D01*
G37*
G36*
X165842Y338099D02*Y351339D01*
X167240Y350145D01*
X169052Y349034D01*
X171015Y348221D01*
X173082Y347725D01*
X175200Y347558D01*
X177318Y347725D01*
X179385Y348221D01*
X181348Y349034D01*
X183160Y350145D01*
X184775Y351525D01*
X186155Y353140D01*
X187266Y354952D01*
X188079Y356915D01*
X188183Y357350D01*
X194542D01*
Y338099D01*
X165842D01*
G37*
G36*
X168446Y302998D02*Y331698D01*
X191943D01*
Y316025D01*
X191829Y315550D01*
X191783Y314966D01*
X191829Y314382D01*
X191943Y313907D01*
Y302998D01*
X168446D01*
G37*
G36*
X186192Y180346D02*X196198D01*
Y170348D01*
X186192D01*
Y180346D01*
G37*
G36*
X196198D01*
Y170348D01*
X186192D01*
Y180346D01*
G37*
G36*
X130843Y263099D02*Y286596D01*
X159543D01*
Y263099D01*
X130843D01*
G37*
G36*
X159543Y290601D02*X130843D01*
Y314098D01*
X159543D01*
Y290601D01*
G37*
G36*
X130843Y263099D02*Y286596D01*
X159543D01*
Y263099D01*
X130843D01*
G37*
G36*
X159543Y290601D02*X130843D01*
Y314098D01*
X159543D01*
Y290601D01*
G37*
G36*
X130843Y318102D02*Y336838D01*
X131012Y336784D01*
X132385Y336480D01*
X133779Y336296D01*
X135183Y336235D01*
X135358Y336248D01*
X135399Y336258D01*
X136588Y336297D01*
X137982Y336480D01*
X139354Y336784D01*
X140695Y337207D01*
X141994Y337745D01*
X143241Y338394D01*
X144427Y339150D01*
X145543Y340006D01*
X146579Y340956D01*
X147169Y341599D01*
X159543D01*
Y318102D01*
X130843D01*
G37*
G36*
Y341599D01*
X159543D01*
Y318102D01*
X130843D01*
G37*
G36*
X404942Y331498D02*X381446D01*
Y360198D01*
X404942D01*
Y331498D01*
G37*
G36*
X381446D01*
Y360198D01*
X404942D01*
Y331498D01*
G37*
G36*
X359945Y298501D02*X336442D01*
Y327201D01*
X344718D01*
X344793Y327170D01*
X344961Y327130D01*
X344962Y327130D01*
X345134Y327116D01*
X345177Y327120D01*
X350364D01*
X350407Y327116D01*
X350579Y327130D01*
X350580Y327130D01*
X350748Y327170D01*
X350823Y327201D01*
X359945D01*
Y298501D01*
G37*
G36*
X386442D02*X362945D01*
Y327201D01*
X386442D01*
Y298501D01*
G37*
G36*
X414442D02*X390945D01*
Y327201D01*
X414442D01*
Y298501D01*
G37*
G36*
X359945D02*X336442D01*
Y327201D01*
X344718D01*
X344793Y327170D01*
X344961Y327130D01*
X344962Y327130D01*
X345134Y327116D01*
X345177Y327120D01*
X350364D01*
X350407Y327116D01*
X350579Y327130D01*
X350580Y327130D01*
X350748Y327170D01*
X350823Y327201D01*
X359945D01*
Y298501D01*
G37*
G36*
X386442D02*X362945D01*
Y327201D01*
X386442D01*
Y298501D01*
G37*
G36*
X414442D02*X390945D01*
Y327201D01*
X414442D01*
Y298501D01*
G37*
G36*
X409446Y250502D02*X385943D01*
Y279202D01*
X409446D01*
Y250502D01*
G37*
G36*
X381945D02*X358442D01*
Y279202D01*
X381945D01*
Y250502D01*
G37*
G36*
X409446D02*X385943D01*
Y279202D01*
X409446D01*
Y250502D01*
G37*
G36*
X381945D02*X358442D01*
Y279202D01*
X381945D01*
Y250502D01*
G37*
G36*
X417661Y109265D02*X415228Y110153D01*
X414522Y111849D01*
X417661D01*
Y109265D01*
G37*
G36*
X416211Y122873D02*X415793Y121871D01*
X414040Y121231D01*
X412282Y121871D01*
X411867Y122873D01*
X416211D01*
G37*
G36*
X393874Y111849D02*X393164Y110153D01*
X390736Y109265D01*
Y111849D01*
X393874D01*
G37*
G36*
X396528Y122873D02*X396110Y121871D01*
X394357Y121231D01*
X392599Y121871D01*
X392184Y122873D01*
X396528D01*
G37*
G36*
X369400Y130352D02*X368928Y129228D01*
X367897Y128855D01*
X366867Y129228D01*
X366400Y130352D01*
X366867Y131474D01*
X367897Y131849D01*
X368928Y131474D01*
X369400Y130352D01*
G37*
G36*
X329996D02*X329524Y129228D01*
X328493Y128855D01*
X327463Y129228D01*
X326996Y130352D01*
X327463Y131474D01*
X328493Y131849D01*
X329524Y131474D01*
X329996Y130352D01*
G37*
G36*
X274599Y298001D02*X253445D01*
Y326701D01*
X274599D01*
Y298001D01*
G37*
G36*
X253445D01*
Y326701D01*
X274599D01*
Y298001D01*
G37*
G36*
X304443D02*X280946D01*
Y326701D01*
X304443D01*
Y298001D01*
G37*
G36*
X333442D02*X309945D01*
Y326701D01*
X333442D01*
Y298001D01*
G37*
G36*
X304443D02*X301816D01*
Y300723D01*
X301820Y300722D01*
X302212Y300753D01*
X302595Y300845D01*
X302958Y300996D01*
X303294Y301201D01*
X303593Y301457D01*
X303849Y301756D01*
X304054Y302092D01*
X304205Y302455D01*
X304297Y302838D01*
X304320Y303230D01*
X304297Y303622D01*
X304205Y304005D01*
X304054Y304368D01*
X303849Y304704D01*
X303593Y305003D01*
X303294Y305259D01*
X302958Y305464D01*
X302595Y305615D01*
X302212Y305707D01*
X301820Y305738D01*
X301816Y305737D01*
Y326701D01*
X304443D01*
Y310862D01*
X304225Y310729D01*
X303926Y310473D01*
X303670Y310174D01*
X303465Y309838D01*
X303314Y309475D01*
X303222Y309092D01*
X303191Y308700D01*
X303222Y308308D01*
X303314Y307925D01*
X303465Y307562D01*
X303670Y307226D01*
X303926Y306927D01*
X304225Y306671D01*
X304443Y306538D01*
Y298001D01*
G37*
G36*
X301816D02*X297812D01*
Y306211D01*
X297816Y306210D01*
X298208Y306241D01*
X298591Y306333D01*
X298954Y306484D01*
X299290Y306689D01*
X299589Y306945D01*
X299845Y307244D01*
X300050Y307580D01*
X300201Y307943D01*
X300293Y308326D01*
X300316Y308718D01*
X300293Y309110D01*
X300201Y309493D01*
X300050Y309856D01*
X299845Y310192D01*
X299589Y310491D01*
X299290Y310747D01*
X298954Y310952D01*
X298591Y311103D01*
X298208Y311195D01*
X297816Y311226D01*
X297812Y311225D01*
Y326701D01*
X301816D01*
Y305737D01*
X301428Y305707D01*
X301045Y305615D01*
X300682Y305464D01*
X300346Y305259D01*
X300047Y305003D01*
X299791Y304704D01*
X299586Y304368D01*
X299435Y304005D01*
X299343Y303622D01*
X299312Y303230D01*
X299343Y302838D01*
X299435Y302455D01*
X299586Y302092D01*
X299791Y301756D01*
X300047Y301457D01*
X300346Y301201D01*
X300682Y300996D01*
X301045Y300845D01*
X301428Y300753D01*
X301816Y300723D01*
Y298001D01*
G37*
G36*
X297812D02*X293906D01*
Y300723D01*
X293910Y300722D01*
X294302Y300753D01*
X294685Y300845D01*
X295048Y300996D01*
X295384Y301201D01*
X295683Y301457D01*
X295939Y301756D01*
X296144Y302092D01*
X296295Y302455D01*
X296387Y302838D01*
X296410Y303230D01*
X296387Y303622D01*
X296295Y304005D01*
X296144Y304368D01*
X295939Y304704D01*
X295683Y305003D01*
X295384Y305259D01*
X295048Y305464D01*
X294685Y305615D01*
X294302Y305707D01*
X293910Y305738D01*
X293906Y305737D01*
Y326701D01*
X297812D01*
Y311225D01*
X297424Y311195D01*
X297041Y311103D01*
X296678Y310952D01*
X296342Y310747D01*
X296043Y310491D01*
X295787Y310192D01*
X295582Y309856D01*
X295431Y309493D01*
X295339Y309110D01*
X295308Y308718D01*
X295339Y308326D01*
X295431Y307943D01*
X295582Y307580D01*
X295787Y307244D01*
X296043Y306945D01*
X296342Y306689D01*
X296678Y306484D01*
X297041Y306333D01*
X297424Y306241D01*
X297812Y306211D01*
Y298001D01*
G37*
G36*
X293906D02*X289895D01*
Y306193D01*
X289899Y306192D01*
X290291Y306223D01*
X290674Y306315D01*
X291037Y306466D01*
X291373Y306671D01*
X291672Y306927D01*
X291928Y307226D01*
X292133Y307562D01*
X292284Y307925D01*
X292376Y308308D01*
X292399Y308700D01*
X292376Y309092D01*
X292284Y309475D01*
X292133Y309838D01*
X291928Y310174D01*
X291672Y310473D01*
X291373Y310729D01*
X291037Y310934D01*
X290674Y311085D01*
X290291Y311177D01*
X289899Y311208D01*
X289895Y311207D01*
Y326701D01*
X293906D01*
Y305737D01*
X293518Y305707D01*
X293135Y305615D01*
X292772Y305464D01*
X292436Y305259D01*
X292137Y305003D01*
X291881Y304704D01*
X291676Y304368D01*
X291525Y304005D01*
X291433Y303622D01*
X291402Y303230D01*
X291433Y302838D01*
X291525Y302455D01*
X291676Y302092D01*
X291881Y301756D01*
X292137Y301457D01*
X292436Y301201D01*
X292772Y300996D01*
X293135Y300845D01*
X293518Y300753D01*
X293906Y300723D01*
Y298001D01*
G37*
G36*
X289895D02*X286066D01*
Y300723D01*
X286070Y300722D01*
X286462Y300753D01*
X286845Y300845D01*
X287208Y300996D01*
X287544Y301201D01*
X287843Y301457D01*
X288099Y301756D01*
X288304Y302092D01*
X288455Y302455D01*
X288547Y302838D01*
X288570Y303230D01*
X288547Y303622D01*
X288455Y304005D01*
X288304Y304368D01*
X288099Y304704D01*
X287843Y305003D01*
X287544Y305259D01*
X287208Y305464D01*
X286845Y305615D01*
X286462Y305707D01*
X286070Y305738D01*
X286066Y305737D01*
Y326701D01*
X289895D01*
Y311207D01*
X289507Y311177D01*
X289124Y311085D01*
X288761Y310934D01*
X288425Y310729D01*
X288126Y310473D01*
X287870Y310174D01*
X287665Y309838D01*
X287514Y309475D01*
X287422Y309092D01*
X287391Y308700D01*
X287422Y308308D01*
X287514Y307925D01*
X287665Y307562D01*
X287870Y307226D01*
X288126Y306927D01*
X288425Y306671D01*
X288761Y306466D01*
X289124Y306315D01*
X289507Y306223D01*
X289895Y306193D01*
Y298001D01*
G37*
G36*
X286066D02*X280946D01*
Y306441D01*
X281250Y306315D01*
X281633Y306223D01*
X282025Y306192D01*
X282417Y306223D01*
X282800Y306315D01*
X283163Y306466D01*
X283499Y306671D01*
X283798Y306927D01*
X284054Y307226D01*
X284259Y307562D01*
X284410Y307925D01*
X284502Y308308D01*
X284525Y308700D01*
X284502Y309092D01*
X284410Y309475D01*
X284259Y309838D01*
X284054Y310174D01*
X283798Y310473D01*
X283499Y310729D01*
X283163Y310934D01*
X282800Y311085D01*
X282417Y311177D01*
X282025Y311208D01*
X281633Y311177D01*
X281250Y311085D01*
X280946Y310959D01*
Y326701D01*
X286066D01*
Y305737D01*
X285678Y305707D01*
X285295Y305615D01*
X284932Y305464D01*
X284596Y305259D01*
X284297Y305003D01*
X284041Y304704D01*
X283836Y304368D01*
X283685Y304005D01*
X283593Y303622D01*
X283562Y303230D01*
X283593Y302838D01*
X283685Y302455D01*
X283836Y302092D01*
X284041Y301756D01*
X284297Y301457D01*
X284596Y301201D01*
X284932Y300996D01*
X285295Y300845D01*
X285678Y300753D01*
X286066Y300723D01*
Y298001D01*
G37*
G36*
X333442D02*X317456D01*
Y300723D01*
X317460Y300722D01*
X317852Y300753D01*
X318235Y300845D01*
X318598Y300996D01*
X318934Y301201D01*
X319233Y301457D01*
X319489Y301756D01*
X319694Y302092D01*
X319845Y302455D01*
X319937Y302838D01*
X319960Y303230D01*
X319937Y303622D01*
X319845Y304005D01*
X319694Y304368D01*
X319489Y304704D01*
X319233Y305003D01*
X318934Y305259D01*
X318598Y305464D01*
X318235Y305615D01*
X317852Y305707D01*
X317460Y305738D01*
X317456Y305737D01*
Y326701D01*
X333442D01*
Y298001D01*
G37*
G36*
X317456D02*X313595D01*
Y306193D01*
X313599Y306192D01*
X313991Y306223D01*
X314374Y306315D01*
X314737Y306466D01*
X315073Y306671D01*
X315372Y306927D01*
X315628Y307226D01*
X315833Y307562D01*
X315984Y307925D01*
X316076Y308308D01*
X316099Y308700D01*
X316076Y309092D01*
X315984Y309475D01*
X315833Y309838D01*
X315628Y310174D01*
X315372Y310473D01*
X315073Y310729D01*
X314737Y310934D01*
X314374Y311085D01*
X313991Y311177D01*
X313599Y311208D01*
X313595Y311207D01*
Y326701D01*
X317456D01*
Y305737D01*
X317068Y305707D01*
X316685Y305615D01*
X316322Y305464D01*
X315986Y305259D01*
X315687Y305003D01*
X315431Y304704D01*
X315226Y304368D01*
X315075Y304005D01*
X314983Y303622D01*
X314952Y303230D01*
X314983Y302838D01*
X315075Y302455D01*
X315226Y302092D01*
X315431Y301756D01*
X315687Y301457D01*
X315986Y301201D01*
X316322Y300996D01*
X316685Y300845D01*
X317068Y300753D01*
X317456Y300723D01*
Y298001D01*
G37*
G36*
X313595D02*X309945D01*
Y300756D01*
X310315Y300845D01*
X310678Y300996D01*
X311014Y301201D01*
X311313Y301457D01*
X311569Y301756D01*
X311774Y302092D01*
X311925Y302455D01*
X312017Y302838D01*
X312040Y303230D01*
X312017Y303622D01*
X311925Y304005D01*
X311774Y304368D01*
X311569Y304704D01*
X311313Y305003D01*
X311014Y305259D01*
X310678Y305464D01*
X310315Y305615D01*
X309945Y305704D01*
Y326701D01*
X313595D01*
Y311207D01*
X313207Y311177D01*
X312824Y311085D01*
X312461Y310934D01*
X312125Y310729D01*
X311826Y310473D01*
X311570Y310174D01*
X311365Y309838D01*
X311214Y309475D01*
X311122Y309092D01*
X311091Y308700D01*
X311122Y308308D01*
X311214Y307925D01*
X311365Y307562D01*
X311570Y307226D01*
X311826Y306927D01*
X312125Y306671D01*
X312461Y306466D01*
X312824Y306315D01*
X313207Y306223D01*
X313595Y306193D01*
Y298001D01*
G37*
G54D106*X476500Y91300D02*Y380900D01*
G54D107*X427696Y358451D02*Y163648D01*
G54D108*Y113349D02*Y358352D01*
G54D109*X427646Y358651D02*Y163769D01*
G54D107*X427630Y113358D02*Y358356D01*
G54D110*X427639Y358519D02*Y113419D01*
G54D107*X427696Y358548D02*X427198Y361001D01*
G54D108*X427381Y360527D02*X427582Y359763D01*
X427685Y358981D01*
X427696Y358552D01*
X421701Y113349D02*Y358850D01*
G54D107*X425786Y109208D02*X423784Y107857D01*
Y364362D02*X425786Y363016D01*
X425765Y363005D02*X423762Y364355D01*
X425786Y363016D02*X427132Y361015D01*
X427115Y361002D02*X425765Y363005D01*
X427132Y361015D02*X427630Y358556D01*
X427615Y358555D02*X427115Y361002D01*
X425846Y363002D02*X423845Y364353D01*
G54D108*X424424Y364075D02*X425086Y363657D01*
X425699Y363153D01*
X421397Y364852D02*X422183Y364802D01*
X415835Y351564D02*X415048Y351171D01*
G54D111*Y353533D02*Y351171D01*
X413867Y352352D02*X416229D01*
G54D108*X422183Y364802D02*X422960Y364656D01*
X423708Y364412D01*
G54D107*X421332Y364855D02*X423784Y364362D01*
X423762Y364355D02*X421316Y364855D01*
G54D108*X423708Y364412D02*X424424Y364075D01*
G54D107*X427198Y361001D02*X425846Y363002D01*
G54D108*X425699Y363153D02*X426236Y362584D01*
X426703Y361949D01*
X427088Y361260D01*
X427381Y360527D01*
X427696Y113652D02*X427647Y112866D01*
X427500Y112089D01*
X416384Y169858D02*X415988Y170796D01*
X415130Y171111D01*
X414273Y170796D01*
X415109Y171105D02*X415966Y170790D01*
X416362Y169856D01*
G54D111*X416384Y169858D02*X413883D01*
G54D108*X414273Y170796D02*X413883Y169858D01*
X414273Y168924D01*
X414252Y168917D02*X413861Y169856D01*
X414252Y170790D01*
G54D111*X415130Y171111D02*Y168610D01*
G54D108*X415988Y168924D02*X416384Y169858D01*
X416362Y169856D02*X415966Y168917D01*
X414273Y168924D02*X415130Y168610D01*
X415988Y168924D01*
X415966Y168917D02*X415109Y168603D01*
X414252Y168917D01*
Y170790D02*X415109Y171105D01*
G54D107*X421316Y157356D02*X423762Y157851D01*
X425765Y159201D01*
X427115Y161203D01*
X427615Y163655D01*
X427630Y113656D02*X427132Y111210D01*
X425786Y109208D01*
X423784Y107857D02*X421332Y107358D01*
G54D112*X310247Y118150D02*Y121248D01*
X309786Y120630D01*
Y118150D02*X310710D01*
X310150D02*Y121248D01*
G54D108*X308181Y132777D02*Y115453D01*
G54D112*X310150Y121248D02*X309689Y120630D01*
Y118150D02*X310606D01*
X310351Y139650D02*Y142749D01*
X309890Y142130D01*
Y139650D02*X310807D01*
X302349Y134952D02*Y138050D01*
X301888Y137431D01*
Y134952D02*X302810D01*
X301888Y134849D02*X302810D01*
X302349D02*Y137952D01*
X301888Y137328D01*
X313488Y139650D02*X313790Y139699D01*
X314100Y139960D01*
X314290Y140268D01*
X314328Y140578D01*
X314251Y140942D01*
X313986Y141202D01*
X313715Y141305D01*
X312603Y140268D02*X312836Y139912D01*
X313140Y139699D01*
X313488Y139650D01*
X313715Y141305D02*X313372D01*
X313715D02*X313949Y141457D01*
X314138Y141717D01*
X314214Y142027D01*
X314138Y142336D01*
X313949Y142596D01*
X313601Y142749D01*
X313258Y142699D01*
X312911Y142493D01*
X313807Y118150D02*Y121248D01*
X312390Y119028D01*
X314306D01*
X313710Y118150D02*Y121248D01*
X312288Y119028D01*
X314208D01*
G54D108*X405858Y119728D02*Y127828D01*
X403299Y119728D02*Y127828D01*
X405099D01*
Y119728D01*
X402539Y127828D02*Y119728D01*
X405858Y127828D02*X407654D01*
X400738D02*X402539D01*
G54D112*X418804Y127074D02*X418463Y126868D01*
X418576Y128214D01*
G54D108*X407654Y127828D02*Y119728D01*
X405186Y117098D02*X411083D01*
X408414Y119728D02*Y127828D01*
X410215D01*
Y119728D01*
X400738D02*Y127828D01*
X398182Y119728D02*Y127828D01*
X399978D01*
Y119728D01*
G54D106*X389436Y124173D02*X418961D01*
G54D112*X389860Y124936D02*Y128035D01*
X389399Y127416D01*
Y124936D02*X390321D01*
G54D108*X427500Y112089D02*X427261Y111341D01*
X426925Y110625D01*
X426503Y109957D01*
X426003Y109350D01*
X425433Y108807D01*
X424793Y108346D01*
X424104Y107961D01*
X423378Y107668D01*
X422613Y107467D01*
X421831Y107364D01*
X421397Y107348D01*
X388058Y107441D02*X420339D01*
G54D106*X418961Y104489D02*X389436D01*
G54D108*X405186Y109198D02*Y117098D01*
X397314Y109198D02*Y117098D01*
X403211D01*
Y109198D01*
X411083Y117098D02*Y109198D01*
G54D106*X418961Y124173D02*Y104489D01*
G54D112*X418190Y125577D02*X418424Y125317D01*
X418690Y125164D01*
X419038Y125110D01*
X419379Y125214D01*
X419650Y125420D01*
X419840Y125784D01*
X419878Y126196D01*
X419801Y126607D01*
X419613Y126868D01*
X419340Y127074D01*
X419075Y127128D01*
X418804Y127074D01*
X418576Y128214D02*X419613D01*
X383447Y142949D02*Y146052D01*
X382990Y145428D01*
Y142949D02*X383908D01*
X382720Y117932D02*X382947Y118242D01*
X383219Y118399D01*
X383522Y118448D01*
X383908Y118345D01*
X384179Y118091D01*
X384256Y117781D01*
X384217Y117466D01*
G54D106*X389436Y104489D02*Y124173D01*
G54D112*X384217Y117466D02*X384060Y117211D01*
X383295Y116696D01*
X382947Y116332D01*
X382720Y115817D01*
X382643Y115350D01*
X384256D01*
G54D106*X388357Y133150D02*X388036Y133352D01*
X387663Y133482D01*
X387233D01*
X386756Y133281D01*
X386382Y132950D01*
X386115Y132549D01*
X385899Y131881D01*
X385850Y131285D01*
X385953Y130682D01*
X386115Y130281D01*
X386436Y129885D01*
X386810Y129618D01*
X387179Y129484D01*
X387554D01*
X387928Y129618D01*
X388249Y129814D01*
X388514Y130085D01*
X389957Y129484D02*Y133482D01*
X392410Y129484D01*
Y133482D01*
X395182Y129484D02*Y133482D01*
X394542Y129484D02*X395822D01*
X395182Y133482D02*X394542Y132684D01*
G54D113*X320500Y221848D02*X320546D01*
X320500D02*X316346Y226002D01*
G54D108*X322574Y116582D02*Y127384D01*
X326578D01*
Y116582D01*
X315196Y144349D02*Y116349D01*
G54D112*X310449Y139650D02*Y142749D01*
X309988Y142130D01*
Y139650D02*X310910D01*
X312706Y140268D02*X312933Y139912D01*
X313243Y139699D01*
X313585Y139650D01*
X313893Y139699D01*
X314197Y139960D01*
X314393Y140268D01*
X314431Y140578D01*
X314354Y140942D01*
X314083Y141202D01*
X313818Y141305D01*
X313471D01*
X313818D02*X314046Y141457D01*
X314240Y141717D01*
X314317Y142027D01*
X314240Y142336D01*
X314046Y142596D01*
X313704Y142749D01*
X313357Y142699D01*
X313010Y142493D01*
G54D108*X369818Y116582D02*Y127384D01*
X373822D01*
Y116582D01*
Y144116D02*Y133314D01*
X369818D02*Y144116D01*
X361946D02*X365945D01*
Y133314D01*
X369818Y144116D02*X373822D01*
X361946Y133314D02*Y144116D01*
X354074D02*X358072D01*
Y133314D01*
X354074Y116582D02*Y127384D01*
X358072D01*
Y116582D01*
X361946D02*Y127384D01*
X365945D02*Y116582D01*
X361946Y127384D02*X365945D01*
X354074Y133314D02*Y144116D01*
X346196Y133314D02*Y144116D01*
X350200D01*
Y133314D01*
X342322Y144116D02*Y133314D01*
X338324D02*Y144116D01*
X330451D02*X334450D01*
Y133314D01*
X338324Y144116D02*X342322D01*
X330451Y133314D02*Y144116D01*
X322574Y133314D02*Y144116D01*
X326578D01*
Y133314D01*
X330451Y116582D02*Y127384D01*
X334450D01*
Y116582D01*
X338324D02*Y127384D01*
X315196Y116349D02*X381200D01*
X316699Y117852D02*X379697D01*
X342322Y127384D02*Y116582D01*
X346196D02*Y127384D01*
X350200D02*Y116582D01*
X338324Y127384D02*X342322D01*
X346196D02*X350200D01*
X316699Y142852D02*Y117852D01*
X379697D02*Y142852D01*
X381200Y116349D02*Y144349D01*
G54D112*X382817Y117932D02*X383050Y118242D01*
X383317Y118399D01*
X383393Y116696D02*X383050Y116332D01*
X382817Y115817D01*
X382742Y115350D01*
X383550Y142949D02*Y146052D01*
X383089Y142949D02*X384006D01*
X383550Y146052D02*X383089Y145428D01*
X383317Y118399D02*X383626Y118448D01*
X384011Y118345D01*
X384276Y118091D01*
X384353Y117781D01*
X384315Y117466D01*
X384163Y117211D01*
X383393Y116696D01*
X382742Y115350D02*X384353D01*
G54D108*X381200Y144349D02*X315196D01*
G54D106*X344200D02*Y142852D01*
X351697D02*Y144349D01*
G54D108*X379697Y142852D02*X316699D01*
X287793Y132202D02*Y136499D01*
X289192D02*Y132202D01*
X289761D02*Y136499D01*
X285824Y132202D02*Y136499D01*
X287222D01*
Y132202D01*
X291731D02*Y136499D01*
X293131D01*
Y132202D01*
X289761Y136499D02*X291161D01*
Y132202D01*
X287793Y136499D02*X289192D01*
X295897Y132771D02*X305501D01*
X293700Y136499D02*X295100D01*
X295897Y120575D02*Y132771D01*
X305501D02*Y120575D01*
X293700Y132202D02*Y136499D01*
X295100D02*Y132202D01*
G54D106*X73900Y91300D02*X476500D01*
G54D108*X128997Y107348D02*X421397D01*
G54D107*X244135Y107358D02*X421332D01*
G54D109*X129025Y107331D02*X243985D01*
G54D108*X128700Y113349D02*X421701D01*
X308181Y115453D02*X243218D01*
X207796Y115448D02*X207840D01*
G54D107*X123128Y111210D02*X122634Y113656D01*
G54D110*X128529Y107309D02*X421329D01*
G54D107*X421392Y157349D02*X128993D01*
G54D106*X209250Y146703D02*X209570Y146367D01*
X211647Y146166D02*X211968Y146568D01*
X212342Y146768D01*
X212765Y146834D01*
X213303Y146703D01*
X213676Y146367D01*
X213779Y145971D01*
X213725Y145570D01*
X213514Y145234D01*
X212450Y144566D01*
X211968Y144099D01*
X211647Y143438D01*
X211539Y142835D01*
X213779D01*
X278043Y144452D02*X277674Y144582D01*
X277192D01*
X277674D02*X277994Y144782D01*
X278260Y145120D01*
X278363Y145516D01*
X278260Y145917D01*
X277994Y146248D01*
X277511Y146449D01*
X277033Y146384D01*
X276551Y146117D01*
G54D108*X260232Y132202D02*Y136499D01*
X258268D02*X259668D01*
Y132202D01*
X255501Y132771D02*Y120575D01*
X258268Y132202D02*Y136499D01*
X256299Y132202D02*Y136499D01*
X257699D01*
Y132202D01*
X245897Y132771D02*X255501D01*
G54D112*X249853Y137578D02*X250238Y137475D01*
X250504Y137220D01*
X250585Y136910D01*
X249896Y137518D02*X250276Y137416D01*
X250547Y137160D01*
X250624Y136850D01*
X250585Y136910D02*X250547Y136596D01*
X250624Y136850D02*X250585Y136536D01*
X249050Y137063D02*X249278Y137371D01*
X249549Y137530D01*
X249853Y137578D01*
X249088Y137003D02*X249321Y137313D01*
X249588Y137470D01*
X249896Y137518D01*
X252881Y137578D02*X252571Y137475D01*
X253185D02*X252881Y137578D01*
X252918Y137518D02*X252608Y137416D01*
X253683Y136493D02*X253569Y136910D01*
X253418Y137220D01*
X253185Y137475D01*
X253721Y136434D02*X253607Y136850D01*
X253456Y137160D01*
X253228Y137416D01*
X252571Y137475D02*X252343Y137220D01*
X252186Y136910D01*
X252072Y136493D01*
X252608Y137416D02*X252381Y137160D01*
X252229Y136850D01*
X252115Y136434D01*
X253607Y135093D02*X253721Y135506D01*
X253760Y135973D01*
X253721Y136434D01*
X253228Y137416D02*X252918Y137518D01*
G54D108*X260232Y136499D02*X261636D01*
X262201D02*X263601D01*
X261636D02*Y132202D01*
X262201D02*Y136499D01*
X264171Y132202D02*Y136499D01*
X265571D02*Y132202D01*
X263601Y136499D02*Y132202D01*
X266140D02*Y136499D01*
X264171D02*X265571D01*
X266140D02*X267539D01*
X268110Y132202D02*Y136499D01*
X269508D01*
X267539D02*Y132202D01*
X269508Y136499D02*Y132202D01*
X270079D02*Y136499D01*
X271478D01*
Y132202D01*
X272043D02*Y136499D01*
X275982Y132202D02*Y136499D01*
X277381D01*
Y132202D01*
X277951D02*Y136499D01*
X275411D02*Y132202D01*
X272043Y136499D02*X273447D01*
X274013D02*X275411D01*
X273447D02*Y132202D01*
X274013D02*Y136499D01*
G54D106*X272232Y143248D02*X272499Y142852D01*
X272818Y142585D01*
X273193Y142450D01*
X273615Y142585D01*
X273936Y142852D01*
X274256Y143248D02*X274365Y143785D01*
Y146449D01*
X273936Y142852D02*X274256Y143248D01*
X276122D02*X276443Y142781D01*
X276871Y142516D01*
X277354Y142450D01*
X277778Y142516D01*
X278206Y142852D01*
X278472Y143248D01*
X278526Y143649D01*
X278418Y144116D01*
X278043Y144452D01*
G54D108*X283854Y132202D02*Y136499D01*
X285258D01*
Y132202D01*
X283289Y136499D02*Y132202D01*
X279921D02*Y136499D01*
X277951D02*X279350D01*
Y132202D01*
X279921Y136499D02*X281320D01*
X281890D02*X283289D01*
X281320D02*Y132202D01*
X281890D02*Y136499D01*
X243218Y132777D02*X308181D01*
X243218Y115453D02*Y132777D01*
G54D112*X250547Y136596D02*X250390Y136341D01*
X249625Y135825D01*
X249278Y135461D01*
X249050Y134946D01*
X248974Y134480D01*
X250585D01*
X252072Y136493D02*X252033Y136032D01*
X252072Y135566D01*
X252186Y135153D01*
X252343Y134843D01*
X252571Y134584D01*
X252881Y134480D01*
X253185Y134584D01*
X253418Y134843D01*
X253569Y135153D01*
X253683Y135566D01*
X253721Y136032D01*
X253683Y136493D01*
X250585Y136536D02*X250433Y136281D01*
X249663Y135766D01*
X249321Y135402D01*
X249088Y134886D01*
X249013Y134420D01*
X250624D01*
X252115Y136434D02*X252078Y135973D01*
X252115Y135506D01*
X252229Y135093D01*
X252381Y134784D01*
X252608Y134524D01*
X252918Y134420D01*
X253228Y134524D01*
X253456Y134784D01*
X253607Y135093D01*
G54D108*X245897Y120575D02*Y132771D01*
X180799Y130748D02*Y118948D01*
X154801Y130748D02*X168597Y118948D01*
X154801D02*X168597Y130748D01*
X180799Y118948D02*X194596D01*
X180799Y130748D02*X194596Y118948D01*
X180799D02*X194596Y130748D01*
Y118948D02*Y130748D01*
X207796Y140252D02*X232600Y115448D01*
X207840D02*X232600Y140208D01*
X194596Y130748D02*X180799D01*
G54D112*X194699Y126348D02*X180696D01*
G54D106*X181472Y141723D02*Y137724D01*
X183604D01*
X187603D02*X185471D01*
Y141723D01*
X186751Y139792D02*X185471D01*
Y141723D02*X187603D01*
X189365D02*X190429D01*
X189365Y137724D02*Y141723D01*
X190429D02*X190858Y141523D01*
X191178Y138191D02*X190858Y137925D01*
X190429Y137724D01*
X189365D01*
X190858Y141523D02*X191178Y141256D01*
X191443Y140855D01*
X191656Y140388D01*
X191710Y139727D01*
X191656Y139059D01*
X191443Y138592D01*
X191178Y138191D01*
X193521Y141056D02*X193842Y141457D01*
X194215Y141657D01*
X194645Y141723D01*
X195176Y141593D01*
X195550Y141256D01*
X195660Y140855D01*
X195604Y140459D01*
X195388Y140123D01*
G54D108*X207796Y140253D02*Y140252D01*
G54D106*X195388Y140123D02*X194325Y139455D01*
X193842Y138989D01*
X193521Y138321D01*
X193418Y137724D01*
X195660D01*
G54D113*X287411Y203855D02*X305407Y221851D01*
X291411Y203855D02*X309407Y221851D01*
X295411Y203855D02*X312696Y221140D01*
X299411Y203855D02*X312696Y217140D01*
X303411Y203855D02*X312696Y213140D01*
X307411Y203855D02*X312696Y209140D01*
X311411Y203855D02*X312696Y205140D01*
X311146Y226002D02*Y221848D01*
X311100D02*X306946Y226002D01*
X306000Y221848D02*X301846Y226002D01*
X279700Y203855D02*X312696D01*
X314699D02*X347695D01*
X312696Y221851D02*Y203855D01*
X314699Y221851D02*Y203855D01*
X285500Y221848D02*X285546D01*
X346100D02*X346146D01*
X330800D02*X330846D01*
X325600D02*X325646D01*
X284946Y187152D02*Y182552D01*
X296446D01*
Y187152D01*
X284946D01*
X281346Y203852D02*Y199802D01*
Y203852D02*Y203802D01*
X285346Y199802D01*
X286496Y203852D02*X290546Y199802D01*
X281346D02*X311146D01*
X291596Y203852D02*X295546Y199902D01*
X296746Y203852D02*X296796D01*
X300846Y199802D01*
X306946Y203852D02*X307096D01*
X311146Y199802D01*
Y203852D02*Y199802D01*
X301846Y203852D02*X301896D01*
X305946Y199802D01*
X279700Y221851D02*Y203855D01*
Y204144D02*X297407Y221851D01*
X279700Y208144D02*X293407Y221851D01*
X281346Y226002D02*X311146D01*
X283411Y203855D02*X301407Y221851D01*
X300892Y221856D02*Y221848D01*
X281346Y226002D02*Y221848D01*
Y221902D02*Y221848D01*
X290600D02*X286446Y226002D01*
X285500Y221848D02*X281346Y226002D01*
X279700Y221851D02*X312696D01*
X311100Y221848D02*X311146D01*
X295800D02*X295846D01*
X290600D02*X290646D01*
X300892Y221856D02*X296746Y226002D01*
X295800Y221848D02*X291646Y226002D01*
X279700Y212144D02*X289407Y221851D01*
X279700Y216144D02*X285407Y221851D01*
X279700Y220144D02*X281407Y221851D01*
X347695D02*Y203855D01*
X330410D02*X347695Y221140D01*
X334410Y203855D02*X347695Y217140D01*
X338410Y203855D02*X347695Y213140D01*
X342410Y203855D02*X347695Y209140D01*
X346410Y203855D02*X347695Y205140D01*
X314699Y221851D02*X347695D01*
X314699Y204144D02*X332406Y221851D01*
X318410Y203855D02*X336406Y221851D01*
X322410Y203855D02*X340406Y221851D01*
X316346Y203852D02*Y199802D01*
X346146D01*
Y203852D02*Y199802D01*
X337446Y187152D02*Y182552D01*
X348946D01*
X361046D02*X356346D01*
X348946D02*Y187152D01*
X356346Y182552D02*Y194152D01*
X361046D01*
Y182552D01*
X348946Y187152D02*X337446D01*
X326410Y203855D02*X344406Y221851D01*
X331746Y203852D02*X331796D01*
X336846D02*X336896D01*
X341946D02*X342096D01*
X335892Y221856D02*Y221848D01*
X346146Y226002D02*Y221848D01*
X346100D02*X341946Y226002D01*
X341000Y221848D02*X336846Y226002D01*
X335892Y221856D02*X331746Y226002D01*
X330800Y221848D02*X326646Y226002D01*
X316346Y203802D02*X320346Y199802D01*
X321496Y203852D02*X325546Y199802D01*
X326596Y203852D02*X330546Y199902D01*
X331796Y203852D02*X335846Y199802D01*
X336896Y203852D02*X340946Y199802D01*
X342096Y203852D02*X346146Y199802D01*
X316346Y226002D02*X346146D01*
X314699Y208144D02*X328406Y221851D01*
X314699Y212144D02*X324406Y221851D01*
X316346Y203852D02*Y203802D01*
X314699Y216144D02*X320406Y221851D01*
X314699Y220144D02*X316406Y221851D01*
X316346Y226002D02*Y221848D01*
Y221902D02*Y221848D01*
X325600D02*X321446Y226002D01*
X284885Y364948D02*Y336948D01*
X306885D02*X303885D01*
X290885Y349948D01*
Y346948D01*
X300885Y336948D01*
X297885D01*
X290885Y343948D01*
Y340948D01*
X294885Y336948D01*
X291885D02*X290885Y337948D01*
Y336948D01*
Y364948D02*X318885Y336948D01*
X315885D02*X290885Y361948D01*
X291885Y336948D02*X290885D01*
Y364948D01*
Y361948D02*Y358948D01*
X312885Y336948D01*
X309885D02*X290885Y355948D01*
Y352948D01*
X306885Y336948D01*
X294885D02*X290885D01*
X321885D02*X293981Y364852D01*
X296981D02*X324885Y336948D01*
X327885D02*X299981Y364852D01*
X359885Y336948D02*X290885D01*
X342885D02*X344885D01*
X332885D02*X327885D01*
X290885D02*X324885D01*
X302981Y364852D02*X330885Y336948D01*
X333885D02*X305981Y364852D01*
X308981D02*X336885Y336948D01*
X339885D02*X311981Y364852D01*
X314981D02*X342885Y336948D01*
X345885D02*X317981Y364852D01*
X320981D02*X348885Y336948D01*
G54D109*X129025Y364812D02*X421544D01*
X128827Y364950D02*X421347D01*
G54D110*X129049Y364949D02*X421199D01*
G54D108*X416229Y352352D02*X415835Y351564D01*
X135129Y351108D02*X135986Y351422D01*
X136382Y352355D01*
G54D111*X133881D02*X136382D01*
X135129Y353609D02*Y351108D01*
G54D108*X415048Y351171D02*X414261Y351564D01*
X413867Y352352D01*
X414261Y353139D01*
X415048Y353533D01*
X415835Y353139D01*
X416229Y352352D01*
X136308D02*X135914Y351564D01*
X135127Y351171D01*
X134339Y351564D01*
X133946Y352352D01*
X134339Y353139D01*
X135127Y353533D01*
X135914Y353139D01*
X136308Y352352D01*
G54D107*X122634Y358556D02*X123128Y361015D01*
X123107Y361002D02*X122612Y358555D01*
X123128Y361015D02*X124479Y363016D01*
X124457Y363005D02*X123107Y361002D01*
X124479Y363016D02*X126481Y364362D01*
X128933Y364855D01*
X128911D02*X126459Y364355D01*
X124457Y363005D01*
G54D108*X136382Y352355D02*X135986Y353299D01*
X135129Y353609D01*
X134271Y353299D01*
X133881Y352355D01*
X134271Y351422D01*
X135129Y351108D01*
G54D107*X421392Y157349D02*X423845Y157842D01*
X425846Y159194D01*
X427198Y161195D01*
X427696Y163648D01*
G54D109*X128827Y157470D02*X421347D01*
G54D108*X169114Y167355D02*X168641Y166227D01*
X167611Y165852D01*
X166579Y166227D01*
X166114Y167355D01*
X166579Y168478D01*
X167611Y168853D01*
X168641Y168478D01*
X169114Y167355D01*
G54D111*X167611Y168853D02*Y165852D01*
X166114Y167355D02*X169114D01*
G54D114*X122689Y236100D02*X427696D01*
G54D109*X122528Y358651D02*Y163769D01*
G54D107*X122612Y163655D02*X123107Y161203D01*
G54D109*X122725Y358906D02*Y113237D01*
G54D110*X122539Y358659D02*Y113309D01*
G54D108*X136382Y169858D02*X135986Y170796D01*
X135129Y171111D01*
X135112Y171105D02*X135969Y170790D01*
X136366Y169856D01*
X135986Y168924D02*X136382Y169858D01*
G54D114*X275200Y364852D02*Y107392D01*
G54D108*X136366Y169856D02*X135969Y168917D01*
X135112Y168603D01*
X134271Y170796D02*X133881Y169858D01*
X134271Y168924D01*
X134255Y168917D02*X133865Y169856D01*
X134255Y170790D01*
G54D111*X135129Y171111D02*Y168610D01*
G54D108*Y171111D02*X134271Y170796D01*
X134255Y170790D02*X135112Y171105D01*
G54D111*X133881Y169858D02*X136382D01*
G54D107*X128933Y107358D02*X126481Y107857D01*
X124479Y109208D01*
X123128Y111210D01*
G54D108*X134271Y168924D02*X135129Y168610D01*
X135986Y168924D01*
X135112Y168603D02*X134255Y168917D01*
G54D107*X123107Y161203D02*X124457Y159201D01*
X126459Y157851D01*
X128911Y157356D01*
G54D106*X73900Y380900D02*Y91300D01*
G54D107*X122695Y163648D02*Y358548D01*
X123188Y361001D02*X122695Y358548D01*
G54D108*X122699Y358850D02*Y113349D01*
Y358552D02*X122747Y359339D01*
X122894Y360110D01*
X123014Y111673D02*X122818Y112436D01*
X122715Y113218D01*
X122699Y113652D01*
X128700Y358850D02*Y113349D01*
G54D107*X126541Y157842D02*X128993Y157349D01*
G54D114*X135195Y184838D02*X135185Y184848D01*
X150184Y169849D02*X150185Y169848D01*
G54D107*X122695Y163648D02*X123188Y161195D01*
X124539Y159194D01*
X126541Y157842D01*
G54D114*X120186Y169849D02*X120185Y169848D01*
X135195Y154858D02*X135185Y154848D01*
G54D108*X128997Y107348D02*X128211Y107396D01*
X127435Y107549D01*
X126686Y107788D01*
X125976Y108124D01*
X125308Y108542D01*
X124701Y109046D01*
X124158Y109616D01*
X123692Y110250D01*
X123313Y110939D01*
X123014Y111673D01*
X122894Y360110D02*X123139Y360859D01*
X123470Y361574D01*
X123893Y362242D01*
X124392Y362849D01*
X124967Y363392D01*
X125601Y363859D01*
X126290Y364238D01*
X127024Y364531D01*
X127782Y364732D01*
X128564Y364835D01*
X128997Y364852D01*
G54D106*X476500Y380900D02*X73900D01*
G54D107*X128993Y364852D02*X126541Y364353D01*
X124539Y363002D01*
X123188Y361001D01*
G54D113*X281981Y364852D02*X284885Y361948D01*
G54D107*X128993Y364852D02*X421392D01*
G54D113*X236981D02*X239981D01*
X242981D02*X245981D01*
X248981D02*X254981D01*
X257981D02*X260981D01*
X332981D02*X335981D01*
X356981D02*X359885Y361948D01*
G54D108*X421500Y364852D02*X129199D01*
X421701Y358850D02*X128700D01*
G54D113*X215885Y364948D02*X243885Y336948D01*
X240885D02*X215885Y361948D01*
X216885Y336948D02*X215885D01*
Y364948D01*
X243885Y336948D02*X240885D01*
X215885Y361948D02*Y358948D01*
X237885Y336948D01*
X234885D02*X215885Y355948D01*
X219885Y336948D02*X215885D01*
X246885D02*X218981Y364852D01*
X221981D02*X249885Y336948D01*
X252885D02*X224981Y364852D01*
X227981D02*X255885Y336948D01*
X258885D02*X230981Y364852D01*
X237885Y336948D02*X234885D01*
X215885Y355948D02*Y352948D01*
X231885Y336948D01*
X228885D01*
X215885Y349948D01*
X284885Y336948D02*X215885D01*
X233981Y364852D02*X261885Y336948D01*
X264885D02*X236981Y364852D01*
X239981D02*X267885Y336948D01*
X278981Y364852D02*X284885Y358948D01*
X270885Y336948D02*X242981Y364852D01*
X245981D02*X273885Y336948D01*
X276885D02*X248981Y364852D01*
X251981D02*X279885Y336948D01*
X254981Y364852D02*X282885Y336948D01*
X284885Y337948D02*X257981Y364852D01*
X260981D02*X284885Y340948D01*
X263981Y364852D02*X284885Y343948D01*
X266981Y364852D02*X284885Y346948D01*
X269981Y364852D02*X284885Y349948D01*
X272981Y364852D02*X284885Y352948D01*
X275981Y364852D02*X284885Y355948D01*
G54D107*X423845Y364353D02*X421392Y364852D01*
G54D113*X215885Y364948D02*X284885D01*
X218981Y364852D02*X221981D01*
X224981D02*X227981D01*
X230981D02*X233981D01*
X290885Y364948D02*X359885D01*
X293981Y364852D02*X296981D01*
X299981D02*X302981D01*
X305981D02*X308981D01*
X311981D02*X314981D01*
X317981D02*X320981D01*
X323981D02*X329981D01*
X348885Y336948D02*X351885D01*
X354885D02*X356885D01*
X345885D02*X321885D01*
X351885D02*X323981Y364852D01*
X339885Y336948D02*X336885D01*
X326981Y364852D02*X354885Y336948D01*
X329981Y364852D02*X357885Y336948D01*
X359885Y337948D02*X332981Y364852D01*
X335981D02*X359885Y340948D01*
X338981Y364852D02*X359885Y343948D01*
X350981Y364852D02*X359885Y355948D01*
X353981Y364852D02*X359885Y358948D01*
Y364948D02*Y336948D01*
X341981Y364852D02*X359885Y346948D01*
X344981Y364852D02*X359885Y349948D01*
X347981Y364852D02*X359885Y352948D01*
X215885Y349948D02*Y346948D01*
X225885Y336948D01*
X222885D01*
X215885Y343948D01*
Y340948D01*
X219885Y336948D01*
X216885D02*X215885Y337948D01*
Y336948D01*
X267885D02*X269885D01*
X273885D02*X276885D01*
X279885D02*X281885D01*
X264885D02*X261885D01*
X215885D02*X249885D01*
X257885D02*X252885D01*
X270885D02*X246885D01*
X267648Y327921D02*X270275Y330548D01*
X270279D01*
X272906Y327921D01*
X267632D02*X272906D01*
X318885Y336948D02*X315885D01*
X312885D02*X309885D01*
X350407Y328220D02*X347775Y330852D01*
X347766D01*
X345134Y328220D01*
X350407D01*
X221696Y288848D02*Y255852D01*
X217646Y287252D02*Y257452D01*
X221696Y277002D02*X217746Y273052D01*
X221696Y271852D02*Y271802D01*
Y281137D02*X239692Y263141D01*
X221696Y277137D02*X239692Y259141D01*
Y267706D02*X239700D01*
X217646Y257452D02*X221696D01*
Y271802D02*X217646Y267752D01*
X221696Y266752D02*Y266702D01*
X217646Y262652D01*
X221696Y261652D02*Y261502D01*
X217646Y257452D01*
X239692Y287252D02*X239746D01*
X239692Y272752D02*Y272798D01*
Y277952D02*Y277998D01*
Y283052D02*Y283098D01*
X229985Y288848D02*X239692Y279141D01*
X233985Y288848D02*X239692Y283141D01*
X237985Y288848D02*X239692Y287141D01*
X243846Y287252D02*X239692D01*
Y283098D02*X243846Y287252D01*
X239692Y288848D02*X221696D01*
X221985D02*X239692Y271141D01*
X221696Y285137D02*X239692Y267141D01*
X225985Y288848D02*X239692Y275141D01*
X221696Y287252D02*X217646D01*
X221696D02*X221646D01*
X217646Y283252D01*
X221696Y282102D02*X217646Y278052D01*
X239692Y255852D02*Y288848D01*
X243846Y257452D02*Y287252D01*
X239700Y267706D02*X243846Y271852D01*
X239692Y272798D02*X243846Y276952D01*
X239692Y277998D02*X243846Y282152D01*
X221696Y255852D02*X239692D01*
Y257452D02*X243846D01*
X239692D02*Y257498D01*
X221696Y273137D02*X238981Y255852D01*
X221696Y269137D02*X234981Y255852D01*
X221696Y265137D02*X230981Y255852D01*
X221696Y261137D02*X226981Y255852D01*
X221696Y257137D02*X222981Y255852D01*
X239692Y257498D02*X243846Y261652D01*
X239692Y262598D02*X243846Y266752D01*
G54D108*X232600Y140253D02*Y115448D01*
X207796D01*
Y140253D01*
X232600D01*
G54D106*X207540Y143367D02*X207969Y143037D01*
X208447Y142835D01*
X208875D01*
X209304Y143037D01*
X209618Y143367D01*
X209782Y143834D01*
X209672Y144300D01*
X209407Y144702D01*
X208929Y144967D01*
X208289Y145103D01*
X207915Y145368D01*
X207753Y145835D01*
X207861Y146302D01*
X208126Y146632D01*
X208501Y146834D01*
X208875D01*
X209250Y146703D01*
G54D108*X154801Y130748D02*Y118948D01*
X168597D01*
G54D112*X168700Y126348D02*X154697D01*
G54D108*X168597Y118948D02*Y130748D01*
X154801D01*
G54D106*X156086Y142255D02*Y138250D01*
X158220D01*
X162217D02*X160085D01*
Y142255D01*
X162217D01*
X161365Y140318D02*X160085D01*
X163981Y138250D02*Y142255D01*
X165045D01*
X165472Y142055D01*
X165793Y141788D01*
X166058Y141387D01*
X166269Y140920D01*
X166324Y140253D01*
X166269Y139585D01*
X166058Y139118D01*
X165793Y138717D01*
X165472Y138452D01*
X165045Y138250D01*
X163981D01*
X169151D02*Y142255D01*
X168511Y141452D01*
Y138250D02*X169792D01*
G54D113*X400182Y169846D02*G75*G03X415180Y154848I14998J0D01*G01*
X415192Y184838D02*G75*G03X400182Y169828I0J-15010D01*G01*
X415180Y154848D02*G75*G03X430181Y169849I0J15001D01*G01*
X120185Y169846D02*G75*G03X135183Y154848I14998J0D01*G01*
X135195Y184838D02*G75*G03X120185Y169828I0J-15010D01*G01*
X135183Y154848D02*G75*G03X150184Y169849I0J15001D01*G01*
X150185Y169848D02*G75*G03X135195Y184838I-14990J0D01*G01*
G54D110*X122539Y113319D02*G75*G03X128549Y107309I6010J0D01*G01*
G54D113*X430182Y169848D02*G75*G03X415192Y184838I-14990J0D01*G01*
G54D110*X421609Y107309D02*G75*G03X427639Y113339I0J6030D01*G01*
G54D113*X400182Y352349D02*G75*G03X415180Y337351I14998J0D01*G01*
X120185Y352349D02*G75*G03X135183Y337351I14998J0D01*G01*
X135195Y367341D02*G75*G03X120185Y352331I0J-15010D01*G01*
X135183Y337351D02*G75*G03X150184Y352352I0J15001D01*G01*
X150185Y352351D02*G75*G03X135195Y367341I-14990J0D01*G01*
G54D110*X129049Y364949D02*G75*G03X122539Y358439I0J-6510D01*G01*
G54D113*X415192Y367341D02*G75*G03X400182Y352331I0J-15010D01*G01*
X415180Y337351D02*G75*G03X430181Y352352I0J15001D01*G01*
X430182Y352351D02*G75*G03X415192Y367341I-14990J0D01*G01*
G54D110*X421199Y364949D02*G75*G02X427639Y358509I0J-6440D01*G01*
G54D108*X313385Y347948D02*Y343948D01*
X312885Y347948D02*X314885D01*
X315385Y347448D01*
Y346448D01*
X314885Y345948D02*X315385Y346448D01*
X313385Y345948D02*X314885D01*
X316585Y347148D02*X317385Y347948D01*
Y343948D01*
X316585D02*X318085D01*
X313385Y347948D02*Y343948D01*
X312885Y347948D02*X314885D01*
X315385Y347448D01*
Y346448D01*
X314885Y345948D02*X315385Y346448D01*
X313385Y345948D02*X314885D01*
X316585Y347148D02*X317385Y347948D01*
Y343948D01*
X316585D02*X318085D01*
X241749Y347029D02*Y343029D01*
X241249Y347029D02*X243249D01*
X243749Y346529D01*
Y345529D01*
X243249Y345029D02*X243749Y345529D01*
X241749Y345029D02*X243249D01*
X244949Y346529D02*X245449Y347029D01*
X246949D01*
X247449Y346529D01*
Y345529D01*
X244949Y343029D02*X247449Y345529D01*
X244949Y343029D02*X247449D01*
X248649Y345029D02*X250649D01*
X251849Y347029D02*X252849D01*
X252349D02*Y343029D01*
X251849D02*X252849D01*
X254049Y343529D02*X257049Y346529D01*
X258249D02*Y343529D01*
Y346529D02*X258749Y347029D01*
X259749D01*
X260249Y346529D01*
Y343529D01*
X259749Y343029D02*X260249Y343529D01*
X258749Y343029D02*X259749D01*
X258249Y343529D02*X258749Y343029D01*
X312919Y347869D02*Y343869D01*
X312419Y347869D02*X314419D01*
X314919Y347369D01*
Y346369D01*
X314419Y345869D02*X314919Y346369D01*
X312919Y345869D02*X314419D01*
X316119Y347069D02*X316919Y347869D01*
Y343869D01*
X316119D02*X317619D01*
X318819Y345869D02*X320819D01*
X322019Y343869D02*X324019D01*
X324519Y344369D01*
Y345569D02*Y344369D01*
X324019Y346069D02*X324519Y345569D01*
X322519Y346069D02*X324019D01*
X322519Y347869D02*Y343869D01*
X322019Y347869D02*X324019D01*
X324519Y347369D01*
Y346569D01*
X324019Y346069D02*X324519Y346569D01*
X325719Y347869D02*X326719D01*
X326219D02*Y343869D01*
X325719D02*X326719D01*
X329919Y347869D02*X330419Y347369D01*
X328419Y347869D02*X329919D01*
X327919Y347369D02*X328419Y347869D01*
X327919Y347369D02*Y346369D01*
X328419Y345869D01*
X329919D01*
X330419Y345369D01*
Y344369D01*
X329919Y343869D02*X330419Y344369D01*
X328419Y343869D02*X329919D01*
X327919Y344369D02*X328419Y343869D01*
X331619Y347869D02*X333619D01*
X332619D02*Y343869D01*
X334819Y347869D02*Y343869D01*
Y347869D02*X336319Y345869D01*
X337819Y347869D01*
Y343869D01*
X335929Y150069D02*X336729D01*
Y146569D01*
X336229Y146069D02*X336729Y146569D01*
X335729Y146069D02*X336229D01*
X335229Y146569D02*X335729Y146069D01*
X335229Y147069D02*Y146569D01*
X337929Y149269D02*X338729Y150069D01*
Y146069D01*
X337929D02*X339429D01*
X340629Y149269D02*X341429Y150069D01*
Y146069D01*
X340629D02*X342129D01*
X343329Y148069D02*X345329D01*
X347229Y150069D02*X348029D01*
Y146569D01*
X347529Y146069D02*X348029Y146569D01*
X347029Y146069D02*X347529D01*
X346529Y146569D02*X347029Y146069D01*
X346529Y147069D02*Y146569D01*
X349229Y150069D02*X351229D01*
X350229D02*Y146069D01*
X352429Y149069D02*Y146069D01*
Y149069D02*X353129Y150069D01*
X354229D01*
X354929Y149069D01*
Y146069D01*
X352429Y148069D02*X354929D01*
X358129Y150069D02*X358629Y149569D01*
X356629Y150069D02*X358129D01*
X356129Y149569D02*X356629Y150069D01*
X356129Y149569D02*Y146569D01*
X356629Y146069D01*
X358129D01*
X358629Y146569D01*
Y147569D02*Y146569D01*
X358129Y148069D02*X358629Y147569D01*
X357129Y148069D02*X358129D01*
X164069Y169609D02*Y165609D01*
X162069D02*X164069D01*
X162569Y167409D02*X164069D01*
X159869Y165609D02*X160869D01*
X160369Y169609D02*Y165609D01*
X159869Y169609D02*X160869D01*
X158169D02*Y165609D01*
X156869D02*X156169Y166309D01*
Y168909D02*Y166309D01*
X156869Y169609D02*X156169Y168909D01*
X156869Y169609D02*X158669D01*
X156869Y165609D02*X158669D01*
X154969Y168109D02*X152969Y165609D01*
X152469Y168109D02*X154969D01*
X152969Y169609D02*Y165609D01*
M02*
