G04 start of page 3 for group 1 idx 1 *
G04 Title: (unknown), 2PV *
G04 Creator: pcb 20110918 *
G04 CreationDate: Wed Nov 13 23:37:03 2013 UTC *
G04 For: fosse *
G04 Format: Gerber/RS-274X *
G04 PCB-Dimensions: 550000 2400000 *
G04 PCB-Coordinate-Origin: lower left *
%MOIN*%
%FSLAX25Y25*%
%LNGROUP1*%
%ADD237C,0.0354*%
%ADD236C,0.1090*%
%ADD235C,0.0200*%
%ADD234C,0.0350*%
%ADD233C,0.0150*%
%ADD232C,0.0360*%
%ADD231C,0.0600*%
%ADD230C,0.0300*%
%ADD229C,0.0550*%
%ADD228C,0.0001*%
%ADD227C,0.0394*%
%ADD226C,0.0544*%
%ADD225C,0.2500*%
%ADD224C,0.0100*%
G54D224*X223300Y1996900D02*Y1974700D01*
X220100Y1985500D02*Y1973900D01*
X217000Y1996900D02*Y1972000D01*
X213800Y1985500D02*Y1970700D01*
X223300Y1974700D02*X231000Y1967000D01*
X220100Y1973900D02*X224000Y1970000D01*
X217000Y1972000D02*X222000Y1967000D01*
X213800Y1970700D02*X217500Y1967000D01*
X231000D02*Y1959500D01*
X234500Y1956000D01*
Y1935400D01*
X233100Y1934000D01*
X229000Y1950000D02*Y1934100D01*
X229100Y1934000D01*
X225100D02*Y1948400D01*
X224000Y1970000D02*Y1958500D01*
X222000Y1967000D02*Y1958500D01*
X217500Y1967000D02*Y1962500D01*
X216500Y1961500D01*
Y1958000D01*
X218000Y1956500D01*
X224000Y1958500D02*X227000Y1955500D01*
Y1952000D01*
X229000Y1950000D01*
X222000Y1958500D02*X220000Y1956500D01*
Y1953500D01*
X225100Y1948400D01*
X218000Y1956500D02*Y1951500D01*
X221200Y1948300D02*X218000Y1951500D01*
X221200Y1934000D02*Y1948300D01*
X217300Y1934000D02*Y1945700D01*
X213300Y1934000D02*Y1943700D01*
X209413Y1934087D02*Y1944087D01*
X205000Y1948500D01*
Y1957000D01*
X206500Y1958500D01*
Y1962500D01*
X205500Y1943500D02*Y1934048D01*
X205476Y1934024D01*
X201539Y1934039D02*Y1944961D01*
X197500Y1944000D02*Y1934000D01*
X210700Y1964800D02*X214250Y1961250D01*
X208500Y1964000D02*Y1958500D01*
X210250Y1956750D01*
X214250Y1961250D02*Y1958250D01*
X212500Y1956500D01*
Y1950500D01*
X217300Y1945700D01*
X210250Y1956750D02*Y1946750D01*
X213300Y1943700D01*
X200500Y1963500D02*Y1958500D01*
X202500Y1956500D01*
Y1946500D01*
X205500Y1943500D01*
X201539Y1944961D02*X196000Y1950500D01*
Y1965000D02*Y1950500D01*
X192500Y1965500D02*Y1949000D01*
X197500Y1944000D01*
X210700Y1996900D02*Y1964800D01*
X204400Y1996900D02*Y1964600D01*
X207550Y1986550D02*Y1964950D01*
X206500Y1962500D02*X204400Y1964600D01*
X207550Y1964950D02*X208500Y1964000D01*
X201200Y1964200D02*X200500Y1963500D01*
X198100Y1967100D02*X196000Y1965000D01*
X201200Y1985500D02*Y1964200D01*
X198100Y1996900D02*Y1967100D01*
X194900Y1985500D02*Y1967900D01*
X192500Y1965500D01*
X223525Y2143700D02*Y2162125D01*
X224500Y2163100D01*
X227570Y2138230D02*Y2162030D01*
X226500Y2163100D01*
X231399Y2143700D02*Y2162599D01*
X232250Y2163450D01*
X224500Y2163100D02*Y2167700D01*
X222100Y2170100D01*
Y2199020D01*
X223570Y2200490D01*
X228400Y2169400D02*Y2188600D01*
X230500Y2169300D02*Y2189400D01*
X226500Y2167500D02*X228400Y2169400D01*
Y2188600D02*X227500Y2189500D01*
X230500Y2189400D02*X231500Y2190400D01*
X227500Y2189500D02*Y2200460D01*
X227470Y2200490D01*
X231500Y2190400D02*Y2200460D01*
X231470Y2200490D01*
X235300Y2181800D02*Y2200420D01*
X238400Y2169300D02*Y2190900D01*
X239200Y2191700D01*
Y2200500D01*
X235300Y2200420D02*X235370Y2200490D01*
X239300Y2200460D02*X239270Y2200490D01*
X239200Y2200500D02*X239230Y2200530D01*
X243200Y2191700D02*Y2200420D01*
X243270Y2200490D01*
X226500Y2163100D02*Y2167500D01*
X232250Y2163450D02*Y2167550D01*
X230500Y2169300D01*
X235410Y2162590D02*X234500Y2163500D01*
X239316Y2163416D02*X240300Y2164400D01*
Y2167400D01*
X238400Y2169300D01*
X234500Y2163500D02*Y2167500D01*
X236300Y2169300D01*
Y2180800D01*
X235300Y2181800D01*
X242500Y2164300D02*Y2167300D01*
X244050Y2168850D01*
X235410Y2138230D02*Y2162590D01*
X239316Y2143718D02*Y2163416D01*
X243320Y2138230D02*Y2163480D01*
X242500Y2164300D01*
X247199Y2143700D02*Y2163399D01*
X247900Y2164100D01*
Y2167500D01*
X246600Y2168800D01*
X251040Y2138230D02*Y2163960D01*
X255000Y2163200D02*Y2143799D01*
X255099Y2143700D01*
X259000Y2162500D02*Y2138270D01*
X258960Y2138230D01*
X251040Y2163960D02*X250600Y2164400D01*
Y2167300D01*
X251900Y2168600D01*
Y2182000D01*
X251100Y2182800D01*
Y2200420D01*
X251170Y2200490D01*
X244050Y2168850D02*Y2190850D01*
X243200Y2191700D01*
X246600Y2168800D02*Y2191000D01*
X247170Y2200490D02*Y2191570D01*
X246600Y2191000D01*
X255064Y2200000D02*Y2181764D01*
X259044Y2200490D02*Y2182056D01*
X255064Y2181764D02*X254200Y2180900D01*
X259044Y2182056D02*X260200Y2180900D01*
X254200D02*Y2168900D01*
X260200Y2180900D02*Y2163700D01*
X259000Y2162500D01*
X254200Y2168900D02*X256100Y2167000D01*
Y2164300D01*
X255000Y2163200D01*
G54D225*X396700Y2196100D03*
Y1946100D03*
X316700D03*
X36700Y2196100D03*
X116700D03*
X316700D03*
X36700Y1946100D03*
X116700D03*
G54D226*X190166Y2149966D03*
X137016D03*
G54D227*X190425Y1974204D03*
X243575D03*
G54D228*G36*
X480434Y1958715D02*Y1953215D01*
X485934D01*
Y1958715D01*
X480434D01*
G37*
G54D229*X503184Y1955965D03*
G54D230*X197500Y1934000D03*
X201539Y1934039D03*
X205476Y1934024D03*
X209500Y1934000D03*
X213300D03*
X217300D03*
X221200D03*
X225100D03*
X229100D03*
X233100D03*
X199500Y1955200D03*
X203500Y1959700D03*
X207500Y1955200D03*
X211500Y1959700D03*
X215300Y1955200D03*
X219300Y1959700D03*
X223200Y1955200D03*
X227200Y1959700D03*
X231100Y1955200D03*
X235100Y1959700D03*
X238700Y1963200D03*
X243300Y1965600D03*
X194900Y1985500D03*
X198100Y1996900D03*
X201200Y1985500D03*
X204400Y1996900D03*
X207500Y1985500D03*
X210700Y1996900D03*
X213800Y1985500D03*
X217000Y1996900D03*
X220100Y1985500D03*
X226500Y1977900D03*
X232800D03*
X239100D03*
X223300Y1996900D03*
X229600D03*
X235900D03*
X226400Y1985500D03*
X232700D03*
X239000D03*
X144720Y2161450D03*
X163520D03*
X157320D03*
X151020D03*
X144620Y2141850D03*
X163620D03*
X157320D03*
X151020D03*
X160423Y2136223D03*
X154123D03*
X147823D03*
X141500Y2136200D03*
X160392Y2155308D03*
X154092D03*
X147792D03*
X141500Y2155300D03*
X223570Y2200490D03*
X227470D03*
X231470D03*
X235370D03*
X239270D03*
X243270D03*
X247170D03*
X251170D03*
X255044D03*
X259044D03*
X258960Y2138230D03*
X255099Y2143700D03*
X251040Y2138230D03*
X247199Y2143700D03*
X243320Y2138230D03*
X239316Y2143718D03*
X235410Y2138230D03*
X231399Y2143700D03*
X227570Y2138230D03*
X223525Y2143700D03*
X237300Y2165900D03*
X233400Y2170200D03*
X229500Y2165900D03*
X225500Y2170200D03*
X221600Y2165900D03*
X253048D03*
X249200Y2170100D03*
X257000Y2170400D03*
X245248Y2165900D03*
X241248Y2170148D03*
G54D231*X499500Y2284000D03*
X482500Y2285500D03*
X509500Y2287500D03*
X503500Y2313500D03*
X453000Y2299500D03*
Y2286000D03*
X489000Y2230500D03*
X480256Y2249756D03*
X489000Y2250500D03*
X464500Y2244500D03*
X468000Y2275000D03*
X461000Y2264500D03*
X497500Y2275500D03*
X506500Y2264500D03*
X491000Y2265000D03*
G54D230*X146000Y2200500D03*
G54D231*X39500Y2254000D03*
G54D230*X149900Y2200500D03*
G54D231*X148000Y2269500D03*
Y2284500D03*
G54D230*X153900Y2200500D03*
X157800D03*
X161700D03*
X165700D03*
X169600D03*
X173600D03*
G54D231*X83500Y2272000D03*
X97500Y2264000D03*
X84500Y2285500D03*
G54D232*X112000Y2334000D03*
X94500Y2329000D03*
X92500Y2335000D03*
X107500Y2338500D03*
X99500D03*
G54D231*X165000Y2349000D03*
X145000D03*
G54D232*X103500Y2334000D03*
X107000Y2363500D03*
X93847Y2342153D03*
G54D231*X77500Y2362000D03*
X36000Y2359500D03*
G54D232*X48000Y2353000D03*
X67500D03*
X61000D03*
X54500D03*
X83000Y2345500D03*
G54D231*X31000Y2304500D03*
G54D232*X67000Y2308000D03*
X69000Y2314000D03*
X75000D03*
X98000Y2323500D03*
X97000Y2312000D03*
X91500Y2315500D03*
X98000Y2303500D03*
X91279Y2303721D03*
X91406Y2323406D03*
G54D233*G54D234*G54D233*G54D234*G54D233*G54D234*G54D233*G54D234*G54D235*G54D234*G54D235*G54D234*G54D235*G54D234*G54D235*G54D236*G54D237*G54D230*M02*
