M48
INCH
T87C0.035
T86C0.020
T85C0.109
T84C0.030
T83C0.038
%
T86
X010125Y017765
X009990Y017050
X009040Y018100
X009881Y015891
X009868Y013922
X010540Y013900
X009890Y015100
X010440Y014750
X010190Y016450
X010540Y015900
X011440Y019900
X010690Y017400
X011090Y016950
X011490Y017400
X011940Y016950
X019440Y019100
X021390Y019100
X008240Y014950
X007640Y014950
X007440Y014350
X006190Y018850
X006840Y018850
X007490Y018850
X005540Y018850
X020590Y036550
T84
X023940Y012600
X025940Y012600
T87
X010490Y009950
X015540Y012000
X015240Y018450
X017240Y018450
X015540Y010500
X032280Y009510
X030280Y009510
X035630Y008460
X035780Y010160
X034780Y008660
X033730Y009310
X035980Y007460
X033680Y007760
X038580Y008060
X032206Y010384
X031680Y011960
X034730Y011610
X033680Y012310
X037180Y013110
X035830Y013110
X030280Y011160
X009190Y012100
X009090Y010750
X008490Y019750
X004340Y019500
X003840Y014000
X004690Y008950
X020690Y038500
X025990Y038700
X024290Y037350
T83
X009440Y038250
X010440Y038250
X009440Y037250
X010440Y037250
X009440Y036250
X010440Y036250
X009440Y035250
X010440Y035250
X013290Y038000
X013290Y037000
X013290Y036000
X013290Y035000
X014290Y038000
X014290Y037000
X014290Y036000
X014290Y035000
T85
X039670Y004610
X031670Y004610
X003670Y029610
X003670Y004610
X011670Y004610
X039670Y029610
X011670Y029610
X031670Y029610
M30
