G04 start of page 2 for group 0 idx 0 *
G04 Title: (unknown), 1top *
G04 Creator: pcb 20110918 *
G04 CreationDate: Wed Oct  9 22:18:47 2013 UTC *
G04 For: fosse *
G04 Format: Gerber/RS-274X *
G04 PCB-Dimensions: 455000 500000 *
G04 PCB-Coordinate-Origin: lower left *
%MOIN*%
%FSLAX25Y25*%
%LNTOP*%
%ADD42C,0.1090*%
%ADD41C,0.0300*%
%ADD40C,0.0380*%
%ADD39C,0.0350*%
%ADD38C,0.0200*%
%ADD37C,0.0360*%
%ADD36R,0.0098X0.0098*%
%ADD35R,0.0142X0.0142*%
%ADD34R,0.0669X0.0669*%
%ADD33C,0.0039*%
%ADD32R,0.0160X0.0160*%
%ADD31C,0.0160*%
%ADD30R,0.0197X0.0197*%
%ADD29R,0.0600X0.0600*%
%ADD28R,0.0098X0.0098*%
%ADD27R,0.1450X0.1450*%
%ADD26R,0.0236X0.0236*%
%ADD25R,0.0157X0.0157*%
%ADD24R,0.0158X0.0158*%
%ADD23R,0.0590X0.0590*%
%ADD22R,0.0591X0.0591*%
%ADD21R,0.0295X0.0295*%
%ADD20R,0.0110X0.0110*%
%ADD19R,0.0512X0.0512*%
%ADD18R,0.0340X0.0340*%
%ADD17C,0.2500*%
%ADD16C,0.0550*%
%ADD15C,0.0600*%
%ADD14C,0.0400*%
%ADD13C,0.0100*%
%ADD12C,0.0250*%
%ADD11C,0.0001*%
G54D11*G36*
X212900Y368500D02*X205400D01*
Y378000D01*
X212900D01*
Y368500D01*
G37*
G36*
X223900Y365000D02*Y359000D01*
X227400Y355500D01*
Y344500D01*
X201900D01*
Y359000D01*
X216400D01*
Y365000D01*
X223900D01*
G37*
G36*
X11300Y340600D02*Y390600D01*
X61300D01*
Y340600D01*
X11300D01*
G37*
G54D12*X391800Y130100D02*Y75100D01*
X384800Y137100D02*X391800Y130100D01*
X386300Y124057D02*X386343Y124100D01*
X386300Y120100D02*Y124057D01*
X384300Y118100D02*X386300Y120100D01*
X376800Y101600D02*X379800Y98600D01*
X385800Y80600D02*Y75100D01*
X361800Y137100D02*X384800D01*
X371757Y131143D02*X371800Y131100D01*
X365300Y131143D02*X371757D01*
X356800Y118100D02*X384300D01*
X379214Y124057D02*X379257Y124100D01*
X365300Y124057D02*X379214D01*
X364343Y123100D02*X365300Y124057D01*
X358300Y133600D02*X361800Y137100D01*
X358300Y131100D02*Y133600D01*
X358100Y131300D02*X358300Y131100D01*
X351300Y131300D02*X358100D01*
X349300Y110600D02*X356800Y118100D01*
X344800Y110600D02*X349300D01*
X351300Y123100D02*X364343D01*
X336800D02*X344350D01*
X351300Y118600D02*Y123100D01*
X348800Y116100D02*X351300Y118600D01*
X347300Y116100D02*X348800D01*
X343800Y111600D02*X344800Y110600D01*
X316843Y111600D02*X343800D01*
X316800Y111557D02*X316843Y111600D01*
X316800Y108100D02*Y111557D01*
X314800Y106100D02*X316800Y108100D01*
X314800Y101600D02*Y106100D01*
X316800Y99600D02*X314800Y101600D01*
X316800Y95100D02*Y99600D01*
Y95100D02*X322800D01*
X309757Y111600D02*X302800D01*
X303193Y95493D02*X302800Y95100D01*
X309714Y95493D02*X303193D01*
X379800Y98600D02*Y75100D01*
X374300Y89600D02*Y75100D01*
X370800Y93100D02*X374300Y89600D01*
X351200Y93100D02*X370800D01*
X337300D02*X344250D01*
X347800Y86600D02*X351200Y93100D01*
X351500Y101600D02*X376800D01*
X351500D02*X351200Y101300D01*
X339200Y80000D02*X336800Y77600D01*
X343100Y80000D02*X339200D01*
X368800Y80600D02*Y75100D01*
X364800Y84600D02*X368800Y80600D01*
X355900Y84600D02*X364800D01*
X358250Y73050D02*X359800Y74600D01*
X351300Y73050D02*X358250D01*
X355900Y84600D02*X351300Y80000D01*
G54D13*X222400Y187000D02*X223900Y188500D01*
Y195750D01*
X227350Y199200D01*
X227400Y188000D02*X224400Y185000D01*
X227400Y188000D02*Y190950D01*
X227350Y191000D01*
X184150Y195000D02*X188350Y199200D01*
X185900Y170000D02*X188400Y172500D01*
X186900Y168000D02*X190400Y171500D01*
X187900Y166000D02*X192150Y170250D01*
X188900Y164000D02*X193900Y169000D01*
X188400Y172500D02*Y190950D01*
X188350Y191000D01*
X190400Y183000D02*X194400Y187000D01*
X192150Y181750D02*X195400Y185000D01*
X190400Y171500D02*Y183000D01*
X192150Y170250D02*Y181750D01*
X193900Y169000D02*Y180500D01*
X195900Y168000D02*Y179500D01*
X193900Y180500D02*X196400Y183000D01*
X195900Y179500D02*X197400Y181000D01*
X189900Y162000D02*X195900Y168000D01*
X194400Y187000D02*X203400D01*
X195400Y185000D02*X204900D01*
X196400Y183000D02*X205900D01*
X197400Y181000D02*X206900D01*
X203400Y187000D02*X204400Y188000D01*
X209900Y187000D02*X222400D01*
X210900Y185000D02*X224400D01*
X207900Y190950D02*X207850Y191000D01*
X204400Y195750D02*X207850Y199200D01*
X207900Y190950D02*X207875Y190975D01*
X204400Y188000D02*Y195750D01*
X204900Y185000D02*X207900Y188000D01*
Y190950D01*
X205900Y183000D02*X209900Y187000D01*
X206900Y181000D02*X210900Y185000D01*
G54D12*X200900Y191000D02*X194400D01*
X220400D02*X213900D01*
G54D13*X90341Y174654D02*X86746D01*
X85900Y175500D01*
X90341Y172685D02*X85715D01*
X90341Y170717D02*X84683D01*
X85715Y172685D02*X83900Y174500D01*
X84683Y170717D02*X81900Y173500D01*
Y177000D01*
X80900Y178000D01*
X83652Y168748D02*X79900Y172500D01*
X103215Y180685D02*X106900Y177000D01*
Y174000D01*
X105184Y181216D02*X110900Y175500D01*
Y169500D01*
X119400Y175500D02*Y169500D01*
X107152Y181748D02*X114900Y174000D01*
X109121Y182279D02*X113400Y178000D01*
X90341Y168748D02*X83652D01*
X90341Y166780D02*X96180D01*
X99900Y170500D01*
X101900Y164500D02*X97900D01*
X90341Y164811D02*X97589D01*
X97900Y164500D01*
X79443Y164000D02*X73443Y170000D01*
X83900Y164500D02*X77900Y170500D01*
X77959Y158500D02*X82400D01*
X83900Y157000D01*
X84994Y158906D02*X83400Y160500D01*
X81900D01*
X80400Y162000D01*
X82900Y162500D02*X81400Y164000D01*
X79443D01*
X80400Y162000D02*X73900D01*
X72900Y161000D01*
Y158559D01*
X72841Y158500D01*
X83900Y157000D02*X90278D01*
X89900Y158906D02*X84994D01*
X90341Y160874D02*X86026D01*
X84400Y162500D01*
X82900D01*
X90341Y162843D02*X87057D01*
X85400Y164500D01*
X83900D01*
X101247Y177653D02*Y192196D01*
X99443Y194000D01*
X99278Y185559D02*Y188622D01*
X98400Y189500D02*X93400D01*
X92400Y190500D01*
Y193957D01*
X92357Y194000D01*
X107400Y192457D02*X108443D01*
X111089Y185559D02*Y189811D01*
X108443Y192457D02*X111089Y189811D01*
X79900Y172500D02*Y175500D01*
X77900Y174000D02*Y170500D01*
X79900Y175500D02*X78400Y177000D01*
Y185000D01*
X74900Y188500D01*
X80900Y178000D02*Y187000D01*
X73443Y182000D02*Y178457D01*
X77900Y174000D01*
X90341Y176622D02*Y180941D01*
X90400Y181000D01*
X83900Y174500D02*Y187000D01*
X85900Y175500D02*Y188000D01*
X70400Y192000D02*X75900D01*
X67400Y194000D02*X76900D01*
X75900Y192000D02*X80900Y187000D01*
X76900Y194000D02*X83900Y187000D01*
X77900Y196000D02*X85900Y188000D01*
G54D12*X84900Y197500D02*X88857D01*
X92357Y194000D01*
G54D13*X90341Y158906D02*X98806D01*
X90278Y157000D02*X90341Y156937D01*
X95463D01*
X96900Y155500D01*
X101900D01*
X105400Y159000D01*
X90341Y139221D02*X98679D01*
X90341Y141189D02*X95589D01*
X96900Y142500D01*
X90341Y135284D02*X101684D01*
X96900Y142500D02*X101900D01*
X105400Y139000D01*
X101684Y135284D02*X105400Y139000D01*
X90341Y151032D02*X98868D01*
X98900Y151000D01*
X90341Y143158D02*X94558D01*
X96900Y145500D01*
X102400D01*
X104400Y147500D01*
X89679Y139221D02*X83180D01*
X81459Y137500D01*
X90089Y141189D02*X77589D01*
X90341Y137252D02*X85652D01*
X90341Y133315D02*X85715D01*
X84400Y132000D01*
X90341Y131347D02*X86747D01*
X85652Y137252D02*X84400Y136000D01*
Y135000D01*
X83400Y134000D01*
X86747Y131347D02*X85400Y130000D01*
X78900D01*
X86400Y128000D02*X80900D01*
X90341Y129378D02*X87778D01*
X90341Y149063D02*X82837D01*
X90341Y145126D02*X87026D01*
X84900Y143000D01*
X90341Y147095D02*X85495D01*
X83900Y145500D01*
X82837Y149063D02*X82400Y149500D01*
X83900Y145500D02*X80400D01*
X76400Y149500D01*
X71900Y150500D02*Y147500D01*
X84900Y143000D02*X74900D01*
X90341Y153000D02*X74400D01*
X71900Y150500D01*
X90341Y154969D02*X71912D01*
X67443Y150500D01*
X74900Y143000D02*X74400Y143500D01*
X71900Y147500D02*X67400Y143000D01*
Y138543D01*
X67443Y138500D01*
X60357Y150500D02*X58357Y148500D01*
X58378Y148522D02*X57900Y149000D01*
X41459D01*
X39959Y147500D01*
G54D12*X34841D02*Y143559D01*
X38400Y140000D01*
G54D13*X60357Y138500D02*X55900D01*
X52900Y135500D01*
Y116000D01*
X47900Y111000D01*
X46400D01*
G54D12*X38400Y140000D02*Y121500D01*
G54D13*X34400Y94559D02*X34459Y94500D01*
X46400D01*
G54D12*X34400Y89441D02*X46841D01*
X46900Y89500D01*
G54D13*X69443Y102500D02*Y111543D01*
X71900Y114000D01*
Y120905D01*
X75900Y130000D02*Y112500D01*
X77900Y129000D02*Y112500D01*
X79900Y127000D02*Y112500D01*
X77589Y141189D02*X76400Y140000D01*
Y137559D01*
X76341Y137500D01*
X75400Y134000D02*X71900Y130500D01*
Y121095D01*
X71995Y121000D01*
X71900Y120905D02*X71995Y121000D01*
X83400Y134000D02*X75400D01*
X84400Y132000D02*X77900D01*
X75900Y130000D01*
X78900D02*X77900Y129000D01*
X80900Y128000D02*X79900Y127000D01*
X87778Y129378D02*X86400Y128000D01*
G54D12*X83805Y121000D02*X91900D01*
G54D13*X101246Y120500D02*Y115346D01*
X103215Y120441D02*Y113185D01*
X99278Y120441D02*Y117378D01*
X95900Y114000D01*
X83400D01*
X81900Y112500D01*
X104900Y108086D02*X104986Y108000D01*
G54D12*X104900Y107500D02*Y99500D01*
X97900Y107500D02*X90900D01*
G54D13*X101246Y115346D02*X97900Y112000D01*
Y108000D01*
X103215Y113185D02*X104900Y111500D01*
Y108086D01*
X146522Y120441D02*Y117835D01*
X151857Y112500D01*
G54D12*X158943D02*Y116457D01*
X155400Y120000D01*
X151857Y112500D02*Y108543D01*
X155400Y105000D01*
G54D13*X48526Y182000D02*X47699Y182827D01*
X50400Y185528D02*X47699Y182827D01*
X48400Y170000D02*X41400Y177000D01*
X66357Y182000D02*X48526D01*
X48400Y170000D02*X66357D01*
X41400Y177000D02*Y180500D01*
X39400Y182500D01*
X35427D01*
X35100Y182827D01*
X33900Y193441D02*Y184027D01*
X34664Y183264D01*
G54D12*X50400Y197559D02*X45959D01*
X43400Y195000D01*
X39841Y198559D02*X43400Y195000D01*
X33900Y198559D02*X39841D01*
G54D13*X50400Y192441D02*Y185528D01*
X68400Y188500D02*Y190000D01*
X70400Y192000D01*
X61900Y188500D02*X67400Y194000D01*
X55400Y188500D02*X62900Y196000D01*
X77900D01*
X158522Y176622D02*X159900Y178000D01*
Y183457D02*X158857Y184500D01*
G54D12*X152400D01*
G54D13*X146522Y185559D02*Y189122D01*
X148400Y191000D01*
X171400D01*
X161553Y174653D02*X162400Y175500D01*
G54D12*X165900Y179000D01*
Y184457D01*
X165943Y184500D01*
X159900Y178000D02*Y183457D01*
X159128Y184228D01*
G54D13*X99278Y188622D02*X98400Y189500D01*
X107443Y192500D02*X107400Y192457D01*
Y199543D02*X113857D01*
X114400Y199000D01*
X103215Y185559D02*Y180685D01*
X105184Y185559D02*Y181216D01*
X107152Y185559D02*Y181748D01*
X109121Y185559D02*Y182279D01*
X113400Y178000D02*X116900D01*
X119400Y175500D01*
G54D12*X165900Y184500D02*X174305D01*
X182805Y176000D01*
X172400Y184500D02*X174900D01*
G54D13*X171400Y191000D02*X175400Y195000D01*
X184150D01*
G54D12*X174900Y184500D02*X181400Y191000D01*
G54D13*X163900Y170000D02*X185900D01*
X163400Y168000D02*X186900D01*
X162400Y166000D02*X187900D01*
X161900Y164000D02*X188900D01*
X161400Y162000D02*X189900D01*
X155459Y176622D02*X158522D01*
X155459Y174653D02*X161553D01*
X155459Y172685D02*X165085D01*
G54D12*X164900D02*X167680D01*
X170995Y176000D01*
G54D13*X155459Y170716D02*X163184D01*
X163900Y170000D01*
X155459Y168748D02*X162652D01*
X163400Y168000D01*
X155459Y166779D02*X161621D01*
X162400Y166000D01*
X155459Y164811D02*X161089D01*
X161900Y164000D01*
X155459Y162842D02*X160558D01*
X161400Y162000D01*
G54D14*X206900Y385000D02*X213495D01*
X210678Y372778D02*X213400Y375500D01*
X222400D01*
X220126Y369240D02*X226660D01*
X230900Y365000D01*
X232710Y349000D02*Y355690D01*
X230900Y357500D01*
Y364500D01*
X231150Y364750D01*
X225305Y385000D02*X227900D01*
X232400Y380500D01*
X238857D01*
X238900Y380457D01*
X222400Y375500D02*X225400Y378500D01*
Y385000D01*
G54D12*X210678Y365500D02*X205900D01*
G54D13*X210678Y361760D02*X203140D01*
X201900Y363000D01*
Y393500D01*
G54D14*X259900Y377500D02*Y387000D01*
X232710Y347500D02*X244943D01*
X245400Y347957D01*
Y355043D02*X249443D01*
X259900Y365500D01*
X242900Y365000D02*Y373500D01*
G54D11*G36*
X91400Y385500D02*Y379500D01*
X97400D01*
Y385500D01*
X91400D01*
G37*
G54D15*X104400Y382500D03*
X94400Y372500D03*
X104400D03*
X94400Y362500D03*
X104400D03*
G54D11*G36*
X236650Y128750D02*Y123250D01*
X242150D01*
Y128750D01*
X236650D01*
G37*
G54D16*X259400Y126000D03*
G54D17*X396700Y46100D03*
X316700D03*
G54D15*X94400Y352500D03*
G54D17*X36700Y296100D03*
Y46100D03*
X116700D03*
G54D15*X104400Y352500D03*
G54D17*X396700Y296100D03*
X116700D03*
X316700D03*
G54D11*G36*
X129900Y383000D02*Y377000D01*
X135900D01*
Y383000D01*
X129900D01*
G37*
G54D15*X132900Y370000D03*
Y360000D03*
Y350000D03*
X142900Y380000D03*
Y370000D03*
Y360000D03*
Y350000D03*
G54D18*X344100Y93100D02*X344400D01*
X351200Y93400D02*Y92800D01*
Y101600D02*Y101000D01*
X343800Y101600D02*Y101000D01*
G54D19*X379257Y124493D02*Y123707D01*
X364907Y131143D02*X365693D01*
X364907Y124057D02*X365693D01*
X386343Y124493D02*Y123707D01*
G54D18*X344200Y123100D02*X344500D01*
X351300Y123400D02*Y122800D01*
Y131600D02*Y131000D01*
X343900Y131600D02*Y131000D01*
G54D19*X309757Y111993D02*Y111207D01*
X309714Y95493D02*Y94707D01*
X316800Y95493D02*Y94707D01*
X316843Y111993D02*Y111207D01*
G54D18*X351300Y73200D02*Y72900D01*
X342800Y72600D02*X343400D01*
X351000Y80000D02*X351600D01*
X342800D02*X343400D01*
X65750Y207000D02*X66050D01*
X72850Y207300D02*Y206700D01*
Y215500D02*Y214900D01*
X65450Y215500D02*Y214900D01*
G54D19*X92357Y194393D02*Y193607D01*
G54D18*X87750Y207500D02*X88050D01*
X94850Y207800D02*Y207200D01*
Y216000D02*Y215400D01*
X87450Y216000D02*Y215400D01*
G54D19*X99443Y194393D02*Y193607D01*
X107007Y199543D02*X107793D01*
X107007Y192457D02*X107793D01*
G54D20*X87892Y176622D02*X92790D01*
X87892Y174654D02*X92790D01*
G54D19*X66357Y182393D02*Y181607D01*
X73443Y182393D02*Y181607D01*
G54D21*X33408Y198559D02*X34392D01*
X49908Y197559D02*X50892D01*
G54D18*X42300Y207000D02*X42600D01*
X49400Y207300D02*Y206700D01*
Y215500D02*Y214900D01*
X42000Y215500D02*Y214900D01*
G54D21*X33408Y193441D02*X34392D01*
X49908Y192441D02*X50892D01*
G54D19*X46518Y182827D02*X48880D01*
X33919D02*X36281D01*
G54D20*X87892Y172685D02*X92790D01*
X87892Y170717D02*X92790D01*
X87892Y168748D02*X92790D01*
X87892Y166780D02*X92790D01*
G54D19*X66357Y170393D02*Y169607D01*
X73443Y170393D02*Y169607D01*
G54D20*X87892Y164811D02*X92790D01*
X87892Y162843D02*X92790D01*
X87892Y160874D02*X92790D01*
X87892Y158906D02*X92790D01*
X87892Y156937D02*X92790D01*
X87892Y154969D02*X92790D01*
X87892Y153000D02*X92790D01*
X87892Y151032D02*X92790D01*
X87892Y149063D02*X92790D01*
X87892Y147095D02*X92790D01*
G54D21*X72841Y158992D02*Y158008D01*
X77959Y158992D02*Y158008D01*
G54D20*X87892Y145126D02*X92790D01*
X87892Y143158D02*X92790D01*
X87892Y141189D02*X92790D01*
X87892Y139221D02*X92790D01*
X87892Y137252D02*X92790D01*
X87892Y135284D02*X92790D01*
X87892Y133315D02*X92790D01*
X87892Y131347D02*X92790D01*
X87892Y129378D02*X92790D01*
G54D21*X81459Y137992D02*Y137008D01*
G54D20*X99278Y122890D02*Y117992D01*
G54D19*X71995Y122181D02*Y119819D01*
X83805Y122181D02*Y119819D01*
G54D22*X36978Y122000D02*X46821D01*
G54D20*X101246Y122890D02*Y117992D01*
X103215Y122890D02*Y117992D01*
X105183Y122890D02*Y117992D01*
X107152Y122890D02*Y117992D01*
X109120Y122890D02*Y117992D01*
X111089Y122890D02*Y117992D01*
X113057Y122890D02*Y117992D01*
G54D19*X97900Y108393D02*Y107607D01*
X104986Y108393D02*Y107607D01*
X62357Y102893D02*Y102107D01*
X69443Y102893D02*Y102107D01*
G54D23*X46821Y110386D02*Y96606D01*
G54D21*X33908Y94559D02*X34892D01*
X33908Y89441D02*X34892D01*
X76341Y137992D02*Y137008D01*
G54D19*X60357Y138893D02*Y138107D01*
X67443Y138893D02*Y138107D01*
X60357Y150893D02*Y150107D01*
X67443Y150893D02*Y150107D01*
G54D23*X46821Y147393D02*Y133613D01*
G54D21*X34841Y147992D02*Y147008D01*
X39959Y147992D02*Y147008D01*
G54D19*X46518Y161173D02*X48880D01*
X33919D02*X36281D01*
G54D20*X115026Y122890D02*Y117992D01*
X116994Y122890D02*Y117992D01*
X118963Y122890D02*Y117992D01*
X120931Y122890D02*Y117992D01*
X122900Y122890D02*Y117992D01*
G54D19*X118495Y79181D02*Y76819D01*
X130305Y79181D02*Y76819D01*
G54D20*X124868Y122890D02*Y117992D01*
X126837Y122890D02*Y117992D01*
X128805Y122890D02*Y117992D01*
X130774Y122890D02*Y117992D01*
X132742Y122890D02*Y117992D01*
X134711Y122890D02*Y117992D01*
X136679Y122890D02*Y117992D01*
X138648Y122890D02*Y117992D01*
X140616Y122890D02*Y117992D01*
X142585Y122890D02*Y117992D01*
X144553Y122890D02*Y117992D01*
X146522Y122890D02*Y117992D01*
G54D19*X145090Y97681D02*Y95319D01*
G54D20*X153010Y129378D02*X157908D01*
X153010Y131346D02*X157908D01*
X153010Y133315D02*X157908D01*
X153010Y135283D02*X157908D01*
X153010Y137252D02*X157908D01*
X153010Y139220D02*X157908D01*
X153010Y141189D02*X157908D01*
X153010Y143157D02*X157908D01*
G54D19*X156900Y97681D02*Y95319D01*
X151857Y112893D02*Y112107D01*
X158943Y112893D02*Y112107D01*
G54D20*X153010Y145126D02*X157908D01*
X153010Y147094D02*X157908D01*
X153010Y149063D02*X157908D01*
X153010Y151031D02*X157908D01*
X153010Y153000D02*X157908D01*
G54D19*X194400Y134893D02*Y134107D01*
X201486Y134893D02*Y134107D01*
G54D20*X153010Y154968D02*X157908D01*
X153010Y156937D02*X157908D01*
X153010Y158905D02*X157908D01*
X153010Y160874D02*X157908D01*
X153010Y162842D02*X157908D01*
X153010Y164811D02*X157908D01*
X153010Y166779D02*X157908D01*
X153010Y168748D02*X157908D01*
X153010Y170716D02*X157908D01*
X153010Y172685D02*X157908D01*
X153010Y174653D02*X157908D01*
X153010Y176622D02*X157908D01*
G54D19*X170995Y177181D02*Y174819D01*
X182805Y177181D02*Y174819D01*
G54D20*X146522Y188008D02*Y183110D01*
X144554Y188008D02*Y183110D01*
X142585Y188008D02*Y183110D01*
X140617Y188008D02*Y183110D01*
X138648Y188008D02*Y183110D01*
X136680Y188008D02*Y183110D01*
X134711Y188008D02*Y183110D01*
X132743Y188008D02*Y183110D01*
G54D19*X158857Y184893D02*Y184107D01*
X165943Y184893D02*Y184107D01*
G54D18*X220250Y191000D02*X220550D01*
X227350Y191300D02*Y190700D01*
Y199500D02*Y198900D01*
X219950Y199500D02*Y198900D01*
G54D20*X130774Y188008D02*Y183110D01*
X128806Y188008D02*Y183110D01*
X126837Y188008D02*Y183110D01*
X124869Y188008D02*Y183110D01*
X122900Y188008D02*Y183110D01*
X120932Y188008D02*Y183110D01*
X118963Y188008D02*Y183110D01*
X116995Y188008D02*Y183110D01*
X115026Y188008D02*Y183110D01*
X113058Y188008D02*Y183110D01*
X111089Y188008D02*Y183110D01*
X109121Y188008D02*Y183110D01*
X107152Y188008D02*Y183110D01*
X105184Y188008D02*Y183110D01*
X103215Y188008D02*Y183110D01*
X101247Y188008D02*Y183110D01*
X99278Y188008D02*Y183110D01*
G54D19*X287800Y124493D02*Y123707D01*
X294886Y124493D02*Y123707D01*
X286800Y134993D02*Y134207D01*
X293886Y134993D02*Y134207D01*
G54D18*X268650Y121600D02*X268950D01*
X275750Y121900D02*Y121300D01*
Y130100D02*Y129500D01*
X268350Y130100D02*Y129500D01*
G54D19*X238914Y114293D02*Y113507D01*
X246000Y114293D02*Y113507D01*
G54D24*X202683Y47752D02*Y43028D01*
X206620Y47752D02*Y43028D01*
G54D25*X200715Y38303D02*Y33578D01*
G54D26*X196778Y47358D02*Y43421D01*
Y37909D02*Y33972D01*
G54D24*X210557Y47752D02*Y43028D01*
X214494Y47752D02*Y43028D01*
X218431Y47752D02*Y43028D01*
G54D25*X204652Y38303D02*Y33578D01*
X208589Y38303D02*Y33578D01*
X212526Y38303D02*Y33578D01*
X216463Y38303D02*Y33578D01*
G54D24*X220400Y38303D02*Y33579D01*
X224337Y38303D02*Y33579D01*
X228274Y38303D02*Y33579D01*
X232211Y38303D02*Y33579D01*
X236148Y38303D02*Y33579D01*
G54D26*X242054Y37909D02*Y33972D01*
G54D24*X222368Y47752D02*Y43028D01*
X226305Y47752D02*Y43028D01*
X230242Y47752D02*Y43028D01*
X234179Y47752D02*Y43028D01*
X238116Y47752D02*Y43028D01*
G54D26*X242054Y47358D02*Y43421D01*
G54D19*X416214Y157069D02*Y156283D01*
X423300Y157069D02*Y156283D01*
G54D18*X405650Y179176D02*X405950D01*
X412750Y179476D02*Y178876D01*
Y187676D02*Y187076D01*
X405350Y187676D02*Y187076D01*
G54D19*X375800Y229993D02*Y229207D01*
X382886Y229993D02*Y229207D01*
G54D18*X366250Y234900D02*Y234300D01*
G54D19*X375714Y244493D02*Y243707D01*
X382800Y244493D02*Y243707D01*
G54D18*X366250Y243100D02*Y242500D01*
G54D19*X398400Y384181D02*Y381819D01*
X410210Y384181D02*Y381819D01*
G54D21*X391841Y418492D02*Y417508D01*
X396959Y418492D02*Y417508D01*
G54D19*X402900Y344181D02*Y341819D01*
X414710Y344181D02*Y341819D01*
G54D27*X330900Y417500D02*Y413500D01*
X352700Y417500D02*Y413500D01*
G54D19*X339257Y303993D02*Y303207D01*
X346343Y303993D02*Y303207D01*
X360926Y299569D02*Y298783D01*
G54D18*X359150Y234600D02*X359450D01*
G54D19*X368012Y299569D02*Y298783D01*
G54D18*X356750Y281500D02*X357050D01*
X356450Y290000D02*Y289400D01*
X363850Y281800D02*Y281200D01*
Y290000D02*Y289400D01*
X358850Y243100D02*Y242500D01*
G54D11*G36*
X259577Y260323D02*Y250677D01*
X269223D01*
Y260323D01*
X259577D01*
G37*
G54D28*X256034Y260421D02*X257805D01*
X256034Y258453D02*X257805D01*
X256034Y256484D02*X257805D01*
X256034Y254516D02*X257805D01*
X256034Y252547D02*X257805D01*
X256034Y250579D02*X257805D01*
X267353Y263866D02*Y262094D01*
X265384Y263866D02*Y262094D01*
X263416Y263866D02*Y262094D01*
X261447Y263866D02*Y262094D01*
X259479Y263866D02*Y262094D01*
X270994Y260421D02*X272766D01*
X270994Y258453D02*X272766D01*
X269321Y263866D02*Y262094D01*
X270994Y256484D02*X272766D01*
X270994Y254516D02*X272766D01*
X270994Y252547D02*X272766D01*
X270994Y250579D02*X272766D01*
X269321Y248905D02*Y247133D01*
X267353Y248905D02*Y247133D01*
X265384Y248905D02*Y247133D01*
X263416Y248905D02*Y247133D01*
X261447Y248905D02*Y247133D01*
X259479Y248905D02*Y247133D01*
G54D19*X17452Y444393D02*Y443607D01*
X24538Y444393D02*Y443607D01*
X41452Y444393D02*Y443607D01*
X48538Y444393D02*Y443607D01*
X65590Y444181D02*Y441819D01*
X77400Y444181D02*Y441819D01*
X17452Y421393D02*Y420607D01*
X24538Y421393D02*Y420607D01*
X41452Y421393D02*Y420607D01*
X48538Y421393D02*Y420607D01*
X65952Y421393D02*Y420607D01*
X123452Y444393D02*Y443607D01*
X130538Y444393D02*Y443607D01*
G54D21*X146936Y445492D02*Y444508D01*
X152054Y445492D02*Y444508D01*
G54D19*X167952Y444393D02*Y443607D01*
X175038Y444393D02*Y443607D01*
X192452Y444393D02*Y443607D01*
X199538Y444393D02*Y443607D01*
X216452Y444393D02*Y443607D01*
X223538Y444393D02*Y443607D01*
X240452Y444393D02*Y443607D01*
X247538Y444393D02*Y443607D01*
X264952Y444393D02*Y443607D01*
X272038Y444393D02*Y443607D01*
X288952Y444393D02*Y443607D01*
X296038Y444393D02*Y443607D01*
X313452Y444393D02*Y443607D01*
X320538Y444393D02*Y443607D01*
X337452Y444393D02*Y443607D01*
X344538Y444393D02*Y443607D01*
X361952Y444393D02*Y443607D01*
X369038Y444393D02*Y443607D01*
X385952Y444393D02*Y443607D01*
X393038Y444393D02*Y443607D01*
X410452Y444393D02*Y443607D01*
X417538Y444393D02*Y443607D01*
X434452Y444393D02*Y443607D01*
X441538Y444393D02*Y443607D01*
X94590Y444255D02*Y438745D01*
X106400Y444255D02*Y438745D01*
X73038Y421393D02*Y420607D01*
X89952Y421393D02*Y420607D01*
X97038Y421393D02*Y420607D01*
X114452Y421393D02*Y420607D01*
X121538Y421393D02*Y420607D01*
X138452Y421393D02*Y420607D01*
X145538Y421393D02*Y420607D01*
X162452Y421393D02*Y420607D01*
X169538Y421393D02*Y420607D01*
G54D21*X185936Y422492D02*Y421508D01*
X191054Y422492D02*Y421508D01*
G54D19*X213495Y386181D02*Y383819D01*
X225305Y386181D02*Y383819D01*
G54D29*X230900Y365500D02*Y364500D01*
G54D30*X219535Y361760D02*X220716D01*
X219535Y369240D02*X220716D01*
G54D29*X242900Y365500D02*Y364500D01*
G54D19*X238507Y380457D02*X239293D01*
X238507Y387543D02*X239293D01*
G54D30*X210087Y365500D02*X211268D01*
X210087Y369240D02*X211268D01*
X210087Y361760D02*X211268D01*
G54D19*X220900Y350181D02*Y347819D01*
X232710Y350181D02*Y347819D01*
X245007Y347957D02*X245793D01*
X245007Y355043D02*X245793D01*
G54D29*X259400Y365500D02*X260400D01*
X259400Y377500D02*X260400D01*
G54D31*X279600Y363000D02*Y360800D01*
G54D32*X282200Y363000D02*Y360800D01*
X284700Y363000D02*Y360800D01*
X287300Y363000D02*Y360800D01*
X289900Y363000D02*Y360800D01*
X292400Y363000D02*Y360800D01*
X295000Y363000D02*Y360800D01*
X297500Y363000D02*Y360800D01*
X297600Y384200D02*Y382000D01*
X295000Y384200D02*Y382000D01*
X292500Y384200D02*Y382000D01*
X289900Y384200D02*Y382000D01*
X287300Y384200D02*Y382000D01*
X284800Y384200D02*Y382000D01*
X282200Y384200D02*Y382000D01*
X279700Y384200D02*Y382000D01*
G54D33*X192912Y250110D02*X194172Y248850D01*
X193424Y250110D02*X194172Y249362D01*
G54D34*X197439Y252000D02*X202361D01*
G54D35*X193424Y254638D02*Y250740D01*
G54D33*X193896Y250150D02*X194211Y249835D01*
G54D28*X194290Y247178D02*Y245406D01*
G54D36*X196258Y247178D02*Y245407D01*
G54D28*X198227Y247178D02*Y245406D01*
G54D36*X200195Y247178D02*Y245407D01*
G54D28*X202164Y247178D02*Y245406D01*
G54D36*X204132Y247178D02*Y245407D01*
G54D28*X194290Y258594D02*Y256822D01*
G54D36*X196258Y258594D02*Y256823D01*
G54D28*X198227Y258594D02*Y256822D01*
G54D36*X200195Y258594D02*Y256823D01*
G54D28*X202164Y258594D02*Y256822D01*
G54D36*X204132Y258594D02*Y256823D01*
G54D24*X233877Y306362D02*Y301638D01*
X237814Y306362D02*Y301638D01*
X241751Y306362D02*Y301638D01*
X245688Y306362D02*Y301638D01*
X249625Y306362D02*Y301638D01*
X253562Y306362D02*Y301638D01*
G54D26*X257500Y305968D02*Y302031D01*
G54D24*X218129Y306362D02*Y301638D01*
X222066Y306362D02*Y301638D01*
G54D25*X216161Y296913D02*Y292188D01*
G54D26*X212224Y305968D02*Y302031D01*
Y296519D02*Y292582D01*
G54D24*X229940Y306362D02*Y301638D01*
X226003Y306362D02*Y301638D01*
G54D25*X220098Y296913D02*Y292188D01*
X224035Y296913D02*Y292188D01*
X227972Y296913D02*Y292188D01*
X231909Y296913D02*Y292188D01*
G54D24*X235846Y296913D02*Y292189D01*
X239783Y296913D02*Y292189D01*
X243720Y296913D02*Y292189D01*
X247657Y296913D02*Y292189D01*
X251594Y296913D02*Y292189D01*
G54D26*X257500Y296519D02*Y292582D01*
G54D24*X143129Y306362D02*Y301638D01*
X147066Y306362D02*Y301638D01*
X151003Y306362D02*Y301638D01*
G54D25*X141161Y296913D02*Y292188D01*
X145098Y296913D02*Y292188D01*
X149035Y296913D02*Y292188D01*
G54D26*X137224Y305968D02*Y302031D01*
Y296519D02*Y292582D01*
G54D24*X154940Y306362D02*Y301638D01*
X158877Y306362D02*Y301638D01*
X162814Y306362D02*Y301638D01*
X166751Y306362D02*Y301638D01*
X170688Y306362D02*Y301638D01*
X174625Y306362D02*Y301638D01*
X178562Y306362D02*Y301638D01*
G54D26*X182500Y305968D02*Y302031D01*
G54D25*X152972Y296913D02*Y292188D01*
X156909Y296913D02*Y292188D01*
G54D24*X160846Y296913D02*Y292189D01*
X164783Y296913D02*Y292189D01*
X168720Y296913D02*Y292189D01*
X172657Y296913D02*Y292189D01*
X176594Y296913D02*Y292189D01*
G54D26*X182500Y296519D02*Y292582D01*
G54D37*X101247Y177653D03*
X99900Y170500D03*
X90400Y181000D03*
X98806Y158906D03*
X98679Y139221D03*
X105400Y139000D03*
X98900Y151000D03*
X104400Y147500D03*
G54D15*X104900Y99500D03*
G54D37*X101900Y164500D03*
X105400Y159000D03*
X114400Y199000D03*
X106900Y174000D03*
X110900Y169500D03*
X114900Y174000D03*
X119400Y169500D03*
G54D15*X155400Y120000D03*
X152400Y184500D03*
X172400D03*
G54D37*X194400Y191000D03*
X213900D03*
G54D15*X155400Y105000D03*
X322800Y95100D03*
X302800D03*
X356300Y84600D03*
X357800Y101600D03*
X347800Y86600D03*
X337300Y93100D03*
X359800Y74600D03*
X336800Y77600D03*
X385800Y80600D03*
X322056Y103844D03*
X316800Y119600D03*
X347300Y116100D03*
X336800Y123100D03*
X371800Y131100D03*
X358300D03*
X302800Y111600D03*
G54D37*X82400Y149500D03*
G54D15*X91900Y121000D03*
X90900Y107500D03*
G54D37*X76400Y149500D03*
X74400Y143500D03*
X61900Y188500D03*
X68400D03*
X74900D03*
X55400D03*
G54D15*X84900Y197500D03*
X43400Y195000D03*
X38400Y140000D03*
X46900Y89500D03*
X206900Y385000D03*
X259900Y387000D03*
G54D37*X205900Y365500D03*
G54D15*X242900Y373500D03*
G54D38*G54D39*G54D38*G54D39*G54D38*G54D39*G54D38*G54D39*G54D38*G54D39*G54D38*G54D39*G54D40*G54D41*G54D42*G54D40*G54D42*G54D40*G54D42*G54D40*M02*
