G04 start of page 11 for group -4078 idx -4078 *
G04 Title: (unknown), bottomsilk *
G04 Creator: pcb 20110918 *
G04 CreationDate: Thu Oct 25 16:57:25 2012 UTC *
G04 For: fosse *
G04 Format: Gerber/RS-274X *
G04 PCB-Dimensions: 455000 353500 *
G04 PCB-Coordinate-Origin: lower left *
%MOIN*%
%FSLAX25Y25*%
%LNBOTTOMSILK*%
%ADD100C,0.0100*%
G54D100*X383311Y308311D02*Y284689D01*
X359689Y308311D02*X383311D01*
X359689D02*Y284689D01*
X383311D01*
X372185Y57023D02*Y33401D01*
X348563Y57023D02*X372185D01*
X348563D02*Y33401D01*
X372185D01*
X407437Y131599D02*Y107977D01*
X383815Y131599D02*X407437D01*
X383815D02*Y107977D01*
X407437D01*
X365437Y226599D02*Y202977D01*
X341815Y226599D02*X365437D01*
X341815D02*Y202977D01*
X365437D01*
X406937Y223099D02*Y199477D01*
X383315Y223099D02*X406937D01*
X383315D02*Y199477D01*
X406937D01*
X441311Y176811D02*Y153189D01*
X417689Y176811D02*X441311D01*
X417689D02*Y153189D01*
X441311D01*
X407311Y176811D02*Y153189D01*
X383689Y176811D02*X407311D01*
X383689D02*Y153189D01*
X407311D01*
X366185Y175523D02*Y151901D01*
X342563Y175523D02*X366185D01*
X342563D02*Y151901D01*
X366185D01*
X179000Y326001D02*Y257891D01*
X243961Y326001D02*X179000Y326000D01*
X194945Y329937D02*X238252D01*
X194945Y333874D02*X238252D01*
X194945Y326000D02*Y345685D01*
X238252D01*
Y326000D02*Y345685D01*
X179000Y257891D02*X243961D01*
Y326001D01*
Y321080D02*X282150D01*
Y282596D01*
X261578Y262024D02*X243961D01*
X282150Y282596D02*X261578Y262024D01*
X378075Y44259D02*X377575Y44759D01*
X378075Y42759D02*Y44259D01*
X377575Y42259D02*X378075Y42759D01*
X376575Y42259D02*X377575D01*
X376575D02*X376075Y42759D01*
Y44259D01*
X375575Y44759D01*
X374575D02*X375575D01*
X374075Y44259D02*X374575Y44759D01*
X374075Y42759D02*Y44259D01*
X374575Y42259D02*X374075Y42759D01*
X378075Y47459D02*X377575Y47959D01*
X378075Y46459D02*Y47459D01*
X377575Y45959D02*X378075Y46459D01*
X374575Y45959D02*X377575D01*
X374575D02*X374075Y46459D01*
X376275Y47459D02*X375775Y47959D01*
X376275Y45959D02*Y47459D01*
X374075Y46459D02*Y47459D01*
X374575Y47959D01*
X375775D01*
X374575Y49159D02*X374075Y49659D01*
X374575Y49159D02*X377575D01*
X378075Y49659D01*
Y50659D01*
X377575Y51159D01*
X374575D02*X377575D01*
X374075Y50659D02*X374575Y51159D01*
X374075Y49659D02*Y50659D01*
X375075Y49159D02*X377075Y51159D01*
X377275Y52359D02*X378075Y53159D01*
X374075D02*X378075D01*
X374075Y52359D02*Y53859D01*
X413327Y118835D02*X412827Y119335D01*
X413327Y117335D02*Y118835D01*
X412827Y116835D02*X413327Y117335D01*
X411827Y116835D02*X412827D01*
X411827D02*X411327Y117335D01*
Y118835D01*
X410827Y119335D01*
X409827D02*X410827D01*
X409327Y118835D02*X409827Y119335D01*
X409327Y117335D02*Y118835D01*
X409827Y116835D02*X409327Y117335D01*
X413327Y122035D02*X412827Y122535D01*
X413327Y121035D02*Y122035D01*
X412827Y120535D02*X413327Y121035D01*
X409827Y120535D02*X412827D01*
X409827D02*X409327Y121035D01*
X411527Y122035D02*X411027Y122535D01*
X411527Y120535D02*Y122035D01*
X409327Y121035D02*Y122035D01*
X409827Y122535D01*
X411027D01*
X409827Y123735D02*X409327Y124235D01*
X409827Y123735D02*X412827D01*
X413327Y124235D01*
Y125235D01*
X412827Y125735D01*
X409827D02*X412827D01*
X409327Y125235D02*X409827Y125735D01*
X409327Y124235D02*Y125235D01*
X410327Y123735D02*X412327Y125735D01*
X413327Y126935D02*Y128935D01*
X411327Y126935D02*X413327D01*
X411327D02*X411827Y127435D01*
Y128435D01*
X411327Y128935D01*
X409827D02*X411327D01*
X409327Y128435D02*X409827Y128935D01*
X409327Y127435D02*Y128435D01*
X409827Y126935D02*X409327Y127435D01*
X412827Y210335D02*X412327Y210835D01*
X412827Y208835D02*Y210335D01*
X412327Y208335D02*X412827Y208835D01*
X411327Y208335D02*X412327D01*
X411327D02*X410827Y208835D01*
Y210335D01*
X410327Y210835D01*
X409327D02*X410327D01*
X408827Y210335D02*X409327Y210835D01*
X408827Y208835D02*Y210335D01*
X409327Y208335D02*X408827Y208835D01*
X412827Y213535D02*X412327Y214035D01*
X412827Y212535D02*Y213535D01*
X412327Y212035D02*X412827Y212535D01*
X409327Y212035D02*X412327D01*
X409327D02*X408827Y212535D01*
X411027Y213535D02*X410527Y214035D01*
X411027Y212035D02*Y213535D01*
X408827Y212535D02*Y213535D01*
X409327Y214035D01*
X410527D01*
X409327Y215235D02*X408827Y215735D01*
X409327Y215235D02*X412327D01*
X412827Y215735D01*
Y216735D01*
X412327Y217235D01*
X409327D02*X412327D01*
X408827Y216735D02*X409327Y217235D01*
X408827Y215735D02*Y216735D01*
X409827Y215235D02*X411827Y217235D01*
X412327Y218435D02*X412827Y218935D01*
Y220435D01*
X412327Y220935D01*
X411327D02*X412327D01*
X408827Y218435D02*X411327Y220935D01*
X408827Y218435D02*Y220935D01*
X413201Y164047D02*X412701Y164547D01*
X413201Y162547D02*Y164047D01*
X412701Y162047D02*X413201Y162547D01*
X411701Y162047D02*X412701D01*
X411701D02*X411201Y162547D01*
Y164047D01*
X410701Y164547D01*
X409701D02*X410701D01*
X409201Y164047D02*X409701Y164547D01*
X409201Y162547D02*Y164047D01*
X409701Y162047D02*X409201Y162547D01*
X413201Y167247D02*X412701Y167747D01*
X413201Y166247D02*Y167247D01*
X412701Y165747D02*X413201Y166247D01*
X409701Y165747D02*X412701D01*
X409701D02*X409201Y166247D01*
X411401Y167247D02*X410901Y167747D01*
X411401Y165747D02*Y167247D01*
X409201Y166247D02*Y167247D01*
X409701Y167747D01*
X410901D01*
X409701Y168947D02*X409201Y169447D01*
X409701Y168947D02*X412701D01*
X413201Y169447D01*
Y170447D01*
X412701Y170947D01*
X409701D02*X412701D01*
X409201Y170447D02*X409701Y170947D01*
X409201Y169447D02*Y170447D01*
X410201Y168947D02*X412201Y170947D01*
X413201Y173647D02*X412701Y174147D01*
X413201Y172647D02*Y173647D01*
X412701Y172147D02*X413201Y172647D01*
X409701Y172147D02*X412701D01*
X409701D02*X409201Y172647D01*
X411401Y173647D02*X410901Y174147D01*
X411401Y172147D02*Y173647D01*
X409201Y172647D02*Y173647D01*
X409701Y174147D01*
X410901D01*
X447201Y164047D02*X446701Y164547D01*
X447201Y162547D02*Y164047D01*
X446701Y162047D02*X447201Y162547D01*
X445701Y162047D02*X446701D01*
X445701D02*X445201Y162547D01*
Y164047D01*
X444701Y164547D01*
X443701D02*X444701D01*
X443201Y164047D02*X443701Y164547D01*
X443201Y162547D02*Y164047D01*
X443701Y162047D02*X443201Y162547D01*
X447201Y167247D02*X446701Y167747D01*
X447201Y166247D02*Y167247D01*
X446701Y165747D02*X447201Y166247D01*
X443701Y165747D02*X446701D01*
X443701D02*X443201Y166247D01*
X445401Y167247D02*X444901Y167747D01*
X445401Y165747D02*Y167247D01*
X443201Y166247D02*Y167247D01*
X443701Y167747D01*
X444901D01*
X443701Y168947D02*X443201Y169447D01*
X443701Y168947D02*X446701D01*
X447201Y169447D01*
Y170447D01*
X446701Y170947D01*
X443701D02*X446701D01*
X443201Y170447D02*X443701Y170947D01*
X443201Y169447D02*Y170447D01*
X444201Y168947D02*X446201Y170947D01*
X446701Y172147D02*X447201Y172647D01*
Y173647D01*
X446701Y174147D01*
X443201Y173647D02*X443701Y174147D01*
X443201Y172647D02*Y173647D01*
X443701Y172147D02*X443201Y172647D01*
X445401D02*Y173647D01*
X445901Y174147D02*X446701D01*
X443701D02*X444901D01*
X445401Y173647D01*
X445901Y174147D02*X445401Y173647D01*
X372075Y162759D02*X371575Y163259D01*
X372075Y161259D02*Y162759D01*
X371575Y160759D02*X372075Y161259D01*
X370575Y160759D02*X371575D01*
X370575D02*X370075Y161259D01*
Y162759D01*
X369575Y163259D01*
X368575D02*X369575D01*
X368075Y162759D02*X368575Y163259D01*
X368075Y161259D02*Y162759D01*
X368575Y160759D02*X368075Y161259D01*
X372075Y165959D02*X371575Y166459D01*
X372075Y164959D02*Y165959D01*
X371575Y164459D02*X372075Y164959D01*
X368575Y164459D02*X371575D01*
X368575D02*X368075Y164959D01*
X370275Y165959D02*X369775Y166459D01*
X370275Y164459D02*Y165959D01*
X368075Y164959D02*Y165959D01*
X368575Y166459D01*
X369775D01*
X368575Y167659D02*X368075Y168159D01*
X368575Y167659D02*X371575D01*
X372075Y168159D01*
Y169159D01*
X371575Y169659D01*
X368575D02*X371575D01*
X368075Y169159D02*X368575Y169659D01*
X368075Y168159D02*Y169159D01*
X369075Y167659D02*X371075Y169659D01*
X368075Y171359D02*X372075Y173359D01*
Y170859D02*Y173359D01*
X389201Y295547D02*X388701Y296047D01*
X389201Y294047D02*Y295547D01*
X388701Y293547D02*X389201Y294047D01*
X387701Y293547D02*X388701D01*
X387701D02*X387201Y294047D01*
Y295547D01*
X386701Y296047D01*
X385701D02*X386701D01*
X385201Y295547D02*X385701Y296047D01*
X385201Y294047D02*Y295547D01*
X385701Y293547D02*X385201Y294047D01*
X389201Y298747D02*X388701Y299247D01*
X389201Y297747D02*Y298747D01*
X388701Y297247D02*X389201Y297747D01*
X385701Y297247D02*X388701D01*
X385701D02*X385201Y297747D01*
X387401Y298747D02*X386901Y299247D01*
X387401Y297247D02*Y298747D01*
X385201Y297747D02*Y298747D01*
X385701Y299247D01*
X386901D01*
X385701Y300447D02*X385201Y300947D01*
X385701Y300447D02*X388701D01*
X389201Y300947D01*
Y301947D01*
X388701Y302447D01*
X385701D02*X388701D01*
X385201Y301947D02*X385701Y302447D01*
X385201Y300947D02*Y301947D01*
X386201Y300447D02*X388201Y302447D01*
X385701Y303647D02*X385201Y304147D01*
X385701Y303647D02*X388701D01*
X389201Y304147D01*
Y305147D01*
X388701Y305647D01*
X385701D02*X388701D01*
X385201Y305147D02*X385701Y305647D01*
X385201Y304147D02*Y305147D01*
X386201Y303647D02*X388201Y305647D01*
X371327Y213835D02*X370827Y214335D01*
X371327Y212335D02*Y213835D01*
X370827Y211835D02*X371327Y212335D01*
X369827Y211835D02*X370827D01*
X369827D02*X369327Y212335D01*
Y213835D01*
X368827Y214335D01*
X367827D02*X368827D01*
X367327Y213835D02*X367827Y214335D01*
X367327Y212335D02*Y213835D01*
X367827Y211835D02*X367327Y212335D01*
X371327Y217035D02*X370827Y217535D01*
X371327Y216035D02*Y217035D01*
X370827Y215535D02*X371327Y216035D01*
X367827Y215535D02*X370827D01*
X367827D02*X367327Y216035D01*
X369527Y217035D02*X369027Y217535D01*
X369527Y215535D02*Y217035D01*
X367327Y216035D02*Y217035D01*
X367827Y217535D01*
X369027D01*
X367827Y218735D02*X367327Y219235D01*
X367827Y218735D02*X370827D01*
X371327Y219235D01*
Y220235D01*
X370827Y220735D01*
X367827D02*X370827D01*
X367327Y220235D02*X367827Y220735D01*
X367327Y219235D02*Y220235D01*
X368327Y218735D02*X370327Y220735D01*
X368827Y221935D02*X371327Y223935D01*
X368827Y221935D02*Y224435D01*
X367327Y223935D02*X371327D01*
X181272Y255937D02*X182572D01*
X180572Y255237D02*X181272Y255937D01*
X180572Y252637D02*Y255237D01*
Y252637D02*X181272Y251937D01*
X182572D01*
X183772Y252437D02*Y255437D01*
Y252437D02*X184272Y251937D01*
X185272D01*
X185772Y252437D01*
Y255437D01*
X185272Y255937D02*X185772Y255437D01*
X184272Y255937D02*X185272D01*
X183772Y255437D02*X184272Y255937D01*
X186972Y251937D02*Y255937D01*
Y251937D02*X189472Y255937D01*
Y251937D02*Y255937D01*
X190672Y251937D02*Y255937D01*
Y251937D02*X193172Y255937D01*
Y251937D02*Y255937D01*
X194372Y252437D02*X194872Y251937D01*
X195872D01*
X196372Y252437D01*
X195872Y255937D02*X196372Y255437D01*
X194872Y255937D02*X195872D01*
X194372Y255437D02*X194872Y255937D01*
Y253737D02*X195872D01*
X196372Y252437D02*Y253237D01*
Y254237D02*Y255437D01*
Y254237D02*X195872Y253737D01*
X196372Y253237D02*X195872Y253737D01*
X197572Y255437D02*X198072Y255937D01*
X197572Y252437D02*Y255437D01*
Y252437D02*X198072Y251937D01*
X199072D01*
X199572Y252437D01*
Y255437D01*
X199072Y255937D02*X199572Y255437D01*
X198072Y255937D02*X199072D01*
X197572Y254937D02*X199572Y252937D01*
X200772Y255437D02*X201272Y255937D01*
X200772Y252437D02*Y255437D01*
Y252437D02*X201272Y251937D01*
X202272D01*
X202772Y252437D01*
Y255437D01*
X202272Y255937D02*X202772Y255437D01*
X201272Y255937D02*X202272D01*
X200772Y254937D02*X202772Y252937D01*
M02*
