G04 start of page 13 for group -4014 idx -4014 *
G04 Title: (unknown), bottompaste *
G04 Creator: pcb 20110918 *
G04 CreationDate: Wed Nov 13 23:37:03 2013 UTC *
G04 For: fosse *
G04 Format: Gerber/RS-274X *
G04 PCB-Dimensions: 550000 2400000 *
G04 PCB-Coordinate-Origin: lower left *
%MOIN*%
%FSLAX25Y25*%
%LNBOTTOMPASTE*%
%ADD367R,0.0177X0.0177*%
%ADD366R,0.0551X0.0551*%
%ADD365R,0.0236X0.0236*%
%ADD364R,0.0354X0.0354*%
%ADD363R,0.0551X0.0551*%
%ADD362R,0.0236X0.0236*%
%ADD361R,0.0157X0.0157*%
%ADD360R,0.0158X0.0158*%
%ADD359R,0.0197X0.0197*%
%ADD358R,0.0197X0.0197*%
G54D358*X185638Y2169218D02*Y2165162D01*
X182488Y2169218D02*Y2165162D01*
X179338Y2169218D02*Y2165162D01*
X176189Y2169218D02*Y2165162D01*
X141543Y2169218D02*Y2165162D01*
X144693Y2169218D02*Y2165162D01*
X147842Y2169218D02*Y2165162D01*
X150992Y2169218D02*Y2165162D01*
X154141Y2169218D02*Y2165162D01*
G54D359*X157292Y2169218D02*Y2165163D01*
G54D358*X160441Y2169218D02*Y2165162D01*
X163590Y2169218D02*Y2165162D01*
X166740Y2169218D02*Y2165162D01*
X169889Y2169218D02*Y2165162D01*
G54D359*X173040Y2169218D02*Y2165163D01*
G54D358*X185638Y2150123D02*Y2146068D01*
X182488Y2150123D02*Y2146068D01*
X179338Y2150123D02*Y2146068D01*
X176189Y2150123D02*Y2146068D01*
X141543Y2150123D02*Y2146068D01*
X144693Y2150123D02*Y2146068D01*
X147842Y2150123D02*Y2146068D01*
X150992Y2150123D02*Y2146068D01*
X154141Y2150123D02*Y2146068D01*
G54D359*X157292Y2150123D02*Y2146069D01*
G54D358*X160441Y2150123D02*Y2146068D01*
X163590Y2150123D02*Y2146068D01*
X166740Y2150123D02*Y2146068D01*
X169889Y2150123D02*Y2146068D01*
G54D359*X173040Y2150123D02*Y2146069D01*
G54D360*X257033Y2161162D02*Y2156438D01*
X253096Y2161162D02*Y2156438D01*
X249159Y2161162D02*Y2156438D01*
X245222Y2161162D02*Y2156438D01*
X241285Y2161162D02*Y2156438D01*
X237348Y2161162D02*Y2156438D01*
X233411Y2161162D02*Y2156438D01*
X229474Y2161162D02*Y2156438D01*
X225537Y2161162D02*Y2156438D01*
X221600Y2161162D02*Y2156438D01*
G54D361*X259001Y2151713D02*Y2146988D01*
X255064Y2151713D02*Y2146988D01*
X251127Y2151713D02*Y2146988D01*
X247190Y2151713D02*Y2146988D01*
X243253Y2151713D02*Y2146988D01*
G54D360*X239316Y2151713D02*Y2146989D01*
X235379Y2151713D02*Y2146989D01*
X231442Y2151713D02*Y2146989D01*
X227505Y2151713D02*Y2146989D01*
X223568Y2151713D02*Y2146989D01*
G54D362*X217662Y2160768D02*Y2156831D01*
Y2151319D02*Y2147382D01*
X262938Y2160768D02*Y2156831D01*
Y2151319D02*Y2147382D01*
G54D358*X239047Y1993456D02*Y1989400D01*
X235897Y1993456D02*Y1989400D01*
X232747Y1993456D02*Y1989400D01*
X229598Y1993456D02*Y1989400D01*
X194952Y1993456D02*Y1989400D01*
X198102Y1993456D02*Y1989400D01*
X201251Y1993456D02*Y1989400D01*
X204401Y1993456D02*Y1989400D01*
X207550Y1993456D02*Y1989400D01*
G54D359*X210701Y1993456D02*Y1989401D01*
G54D358*X213850Y1993456D02*Y1989400D01*
X216999Y1993456D02*Y1989400D01*
X220149Y1993456D02*Y1989400D01*
X223298Y1993456D02*Y1989400D01*
G54D359*X226449Y1993456D02*Y1989401D01*
G54D358*X239047Y1974361D02*Y1970306D01*
X235897Y1974361D02*Y1970306D01*
X232747Y1974361D02*Y1970306D01*
X229598Y1974361D02*Y1970306D01*
X194952Y1974361D02*Y1970306D01*
X198102Y1974361D02*Y1970306D01*
X201251Y1974361D02*Y1970306D01*
X204401Y1974361D02*Y1970306D01*
X207550Y1974361D02*Y1970306D01*
G54D359*X210701Y1974361D02*Y1970307D01*
G54D358*X213850Y1974361D02*Y1970306D01*
X216999Y1974361D02*Y1970306D01*
X220149Y1974361D02*Y1970306D01*
X223298Y1974361D02*Y1970306D01*
G54D359*X226449Y1974361D02*Y1970307D01*
G54D363*X221174Y1859545D02*Y1854230D01*
X213300Y1859545D02*Y1854230D01*
X205426Y1859545D02*Y1854230D01*
X221174Y1832970D02*Y1827655D01*
X205426Y1832970D02*Y1827655D01*
X127548Y1867757D02*Y1862442D01*
X119674Y1867757D02*Y1862442D01*
X111800Y1867757D02*Y1862442D01*
X127548Y1841182D02*Y1835867D01*
X111800Y1841182D02*Y1835867D01*
X168674Y1869045D02*Y1863730D01*
X160800Y1869045D02*Y1863730D01*
X152926Y1869045D02*Y1863730D01*
X168674Y1842470D02*Y1837155D01*
X152926Y1842470D02*Y1837155D01*
X70850Y1863633D02*Y1858318D01*
X62976Y1863633D02*Y1858318D01*
X55102Y1863633D02*Y1858318D01*
X70850Y1837058D02*Y1831743D01*
X55102Y1837058D02*Y1831743D01*
X375548Y1878833D02*Y1873518D01*
X367674Y1878833D02*Y1873518D01*
X359800Y1878833D02*Y1873518D01*
X375548Y1852258D02*Y1846943D01*
X359800Y1852258D02*Y1846943D01*
X327800Y1890333D02*Y1885018D01*
X319926Y1890333D02*Y1885018D01*
X312052Y1890333D02*Y1885018D01*
X327800Y1863758D02*Y1858443D01*
X312052Y1863758D02*Y1858443D01*
X275800Y1878833D02*Y1873518D01*
X267926Y1878833D02*Y1873518D01*
X260052Y1878833D02*Y1873518D01*
X275800Y1852258D02*Y1846943D01*
X260052Y1852258D02*Y1846943D01*
X351760Y1849045D02*Y1843730D01*
X343886Y1849045D02*Y1843730D01*
X336012Y1849045D02*Y1843730D01*
X351760Y1822470D02*Y1817155D01*
X336012Y1822470D02*Y1817155D01*
X529692Y2170342D02*Y2165027D01*
X521818Y2170342D02*Y2165027D01*
X513944Y2170342D02*Y2165027D01*
X529692Y2143767D02*Y2138452D01*
X513944Y2143767D02*Y2138452D01*
G54D364*X518190Y2287650D02*X518937D01*
X518190Y2292650D02*X518937D01*
X518190Y2297650D02*X518937D01*
X518190Y2302650D02*X518937D01*
X518190Y2307650D02*X518937D01*
X518190Y2312650D02*X518937D01*
G54D362*X464902Y2257925D02*Y2255169D01*
G54D365*X468248Y2257924D02*Y2255170D01*
G54D362*X471595Y2257925D02*Y2255169D01*
X475926Y2257925D02*Y2255169D01*
X480256Y2257925D02*Y2255169D01*
X484587Y2257925D02*Y2255169D01*
X488918Y2257925D02*Y2255169D01*
G54D365*X493248Y2257924D02*Y2255170D01*
G54D362*X497579Y2257925D02*Y2255169D01*
X501910Y2257925D02*Y2255169D01*
G54D359*X507342Y2258515D02*X515216D01*
G54D363*X517973Y2321922D02*Y2318772D01*
G54D366*X444744Y2321922D02*Y2318772D01*
G54D359*X446712Y2258515D02*X454390D01*
G54D367*X446614Y2267079D02*Y2258417D01*
M02*
