G04 start of page 3 for group 1 idx 1 *
G04 Title: (unknown), 2PV *
G04 Creator: pcb 20110918 *
G04 CreationDate: Tue Nov 12 20:42:01 2013 UTC *
G04 For: fosse *
G04 Format: Gerber/RS-274X *
G04 PCB-Dimensions: 455000 500000 *
G04 PCB-Coordinate-Origin: lower left *
%MOIN*%
%FSLAX25Y25*%
%LNGROUP1*%
%ADD59C,0.0354*%
%ADD58C,0.1090*%
%ADD57C,0.0150*%
%ADD56C,0.0350*%
%ADD55C,0.0200*%
%ADD54C,0.0300*%
%ADD53C,0.0600*%
%ADD52C,0.0360*%
%ADD51C,0.0544*%
%ADD50C,0.0550*%
%ADD49C,0.0394*%
%ADD48C,0.2500*%
%ADD47C,0.0001*%
G54D47*G36*
X396679Y314000D02*X416100D01*
Y28200D01*
X396679D01*
Y32560D01*
X396700Y32558D01*
X398818Y32725D01*
X400885Y33221D01*
X402848Y34034D01*
X404660Y35145D01*
X406275Y36525D01*
X407655Y38140D01*
X408766Y39952D01*
X409579Y41915D01*
X410075Y43982D01*
X410200Y46100D01*
X410075Y48218D01*
X409579Y50285D01*
X408766Y52248D01*
X407655Y54060D01*
X406275Y55675D01*
X404660Y57055D01*
X402848Y58166D01*
X400885Y58979D01*
X398818Y59475D01*
X396700Y59642D01*
X396679Y59640D01*
Y282560D01*
X396700Y282558D01*
X398818Y282725D01*
X400885Y283221D01*
X402848Y284034D01*
X404660Y285145D01*
X406275Y286525D01*
X407655Y288140D01*
X408766Y289952D01*
X409579Y291915D01*
X410075Y293982D01*
X410200Y296100D01*
X410075Y298218D01*
X409579Y300285D01*
X408766Y302248D01*
X407655Y304060D01*
X406275Y305675D01*
X404660Y307055D01*
X402848Y308166D01*
X400885Y308979D01*
X398818Y309475D01*
X396700Y309642D01*
X396679Y309640D01*
Y314000D01*
G37*
G36*
X316679D02*X396679D01*
Y309640D01*
X394582Y309475D01*
X392515Y308979D01*
X390552Y308166D01*
X388740Y307055D01*
X387125Y305675D01*
X385745Y304060D01*
X384634Y302248D01*
X383821Y300285D01*
X383325Y298218D01*
X383158Y296100D01*
X383325Y293982D01*
X383821Y291915D01*
X384634Y289952D01*
X385745Y288140D01*
X387125Y286525D01*
X388740Y285145D01*
X390552Y284034D01*
X392515Y283221D01*
X394582Y282725D01*
X396679Y282560D01*
Y59640D01*
X394582Y59475D01*
X392515Y58979D01*
X390552Y58166D01*
X388740Y57055D01*
X387125Y55675D01*
X385745Y54060D01*
X384634Y52248D01*
X383821Y50285D01*
X383325Y48218D01*
X383158Y46100D01*
X383325Y43982D01*
X383821Y41915D01*
X384634Y39952D01*
X385745Y38140D01*
X387125Y36525D01*
X388740Y35145D01*
X390552Y34034D01*
X392515Y33221D01*
X394582Y32725D01*
X396679Y32560D01*
Y28200D01*
X316679D01*
Y32560D01*
X316700Y32558D01*
X318818Y32725D01*
X320885Y33221D01*
X322848Y34034D01*
X324660Y35145D01*
X326275Y36525D01*
X327655Y38140D01*
X328766Y39952D01*
X329579Y41915D01*
X330075Y43982D01*
X330200Y46100D01*
X330075Y48218D01*
X329579Y50285D01*
X328766Y52248D01*
X327655Y54060D01*
X326275Y55675D01*
X324660Y57055D01*
X322848Y58166D01*
X320885Y58979D01*
X318818Y59475D01*
X316700Y59642D01*
X316679Y59640D01*
Y282560D01*
X316700Y282558D01*
X318818Y282725D01*
X320885Y283221D01*
X322848Y284034D01*
X324660Y285145D01*
X326275Y286525D01*
X327655Y288140D01*
X328766Y289952D01*
X329579Y291915D01*
X330075Y293982D01*
X330200Y296100D01*
X330075Y298218D01*
X329579Y300285D01*
X328766Y302248D01*
X327655Y304060D01*
X326275Y305675D01*
X324660Y307055D01*
X322848Y308166D01*
X320885Y308979D01*
X318818Y309475D01*
X316700Y309642D01*
X316679Y309640D01*
Y314000D01*
G37*
G36*
X306470Y37291D02*X307125Y36525D01*
X308740Y35145D01*
X310552Y34034D01*
X312515Y33221D01*
X314582Y32725D01*
X316679Y32560D01*
Y28200D01*
X306470D01*
Y37291D01*
G37*
G36*
Y287291D02*X307125Y286525D01*
X308740Y285145D01*
X310552Y284034D01*
X312515Y283221D01*
X314582Y282725D01*
X316679Y282560D01*
Y59640D01*
X314582Y59475D01*
X312515Y58979D01*
X310552Y58166D01*
X308740Y57055D01*
X307125Y55675D01*
X306470Y54909D01*
Y71964D01*
X306475Y71963D01*
X306941Y72000D01*
X307396Y72109D01*
X307828Y72288D01*
X308227Y72533D01*
X308583Y72836D01*
X308886Y73192D01*
X309131Y73591D01*
X309310Y74023D01*
X309419Y74478D01*
X309446Y74944D01*
X309419Y75410D01*
X309310Y75865D01*
X309131Y76297D01*
X308886Y76696D01*
X308583Y77052D01*
X308227Y77355D01*
X307828Y77600D01*
X307396Y77779D01*
X306941Y77888D01*
X306475Y77925D01*
X306470Y77924D01*
Y287291D01*
G37*
G36*
Y314000D02*X316679D01*
Y309640D01*
X314582Y309475D01*
X312515Y308979D01*
X310552Y308166D01*
X308740Y307055D01*
X307125Y305675D01*
X306470Y304909D01*
Y314000D01*
G37*
G36*
X280337D02*X306470D01*
Y304909D01*
X305745Y304060D01*
X304634Y302248D01*
X303821Y300285D01*
X303325Y298218D01*
X303158Y296100D01*
X303325Y293982D01*
X303821Y291915D01*
X304634Y289952D01*
X305745Y288140D01*
X306470Y287291D01*
Y77924D01*
X306009Y77888D01*
X305554Y77779D01*
X305122Y77600D01*
X304723Y77355D01*
X304367Y77052D01*
X304064Y76696D01*
X303819Y76297D01*
X303640Y75865D01*
X303531Y75410D01*
X303494Y74944D01*
X303531Y74478D01*
X303640Y74023D01*
X303819Y73591D01*
X304064Y73192D01*
X304367Y72836D01*
X304723Y72533D01*
X305122Y72288D01*
X305554Y72109D01*
X306009Y72000D01*
X306470Y71964D01*
Y54909D01*
X305745Y54060D01*
X304634Y52248D01*
X303821Y50285D01*
X303325Y48218D01*
X303158Y46100D01*
X303325Y43982D01*
X303821Y41915D01*
X304634Y39952D01*
X305745Y38140D01*
X306470Y37291D01*
Y28200D01*
X280337D01*
Y180845D01*
X280341Y180844D01*
X280780Y180879D01*
X281209Y180982D01*
X281616Y181150D01*
X281992Y181381D01*
X282327Y181667D01*
X282613Y182002D01*
X282844Y182378D01*
X283012Y182785D01*
X283115Y183214D01*
X283141Y183653D01*
X283115Y184092D01*
X283012Y184521D01*
X282844Y184928D01*
X282613Y185304D01*
X282327Y185639D01*
X281992Y185925D01*
X281616Y186156D01*
X281209Y186324D01*
X280780Y186427D01*
X280341Y186462D01*
X280337Y186461D01*
Y314000D01*
G37*
G36*
X266129D02*X280337D01*
Y186461D01*
X279902Y186427D01*
X279473Y186324D01*
X279066Y186156D01*
X278690Y185925D01*
X278355Y185639D01*
X278069Y185304D01*
X277838Y184928D01*
X277670Y184521D01*
X277567Y184092D01*
X277532Y183653D01*
X277567Y183214D01*
X277670Y182785D01*
X277838Y182378D01*
X278069Y182002D01*
X278355Y181667D01*
X278690Y181381D01*
X279066Y181150D01*
X279473Y180982D01*
X279902Y180879D01*
X280337Y180845D01*
Y28200D01*
X266129D01*
Y270493D01*
X266133Y270492D01*
X266525Y270523D01*
X266908Y270615D01*
X267271Y270766D01*
X267607Y270971D01*
X267906Y271227D01*
X268162Y271526D01*
X268367Y271862D01*
X268518Y272225D01*
X268610Y272608D01*
X268633Y273000D01*
X268610Y273392D01*
X268518Y273775D01*
X268367Y274138D01*
X268162Y274474D01*
X267906Y274773D01*
X267607Y275029D01*
X267271Y275234D01*
X266908Y275385D01*
X266525Y275477D01*
X266133Y275508D01*
X266129Y275507D01*
Y314000D01*
G37*
G36*
X260837D02*X266129D01*
Y275507D01*
X265741Y275477D01*
X265358Y275385D01*
X264995Y275234D01*
X264659Y275029D01*
X264360Y274773D01*
X264104Y274474D01*
X263899Y274138D01*
X263748Y273775D01*
X263656Y273392D01*
X263625Y273000D01*
X263656Y272608D01*
X263748Y272225D01*
X263899Y271862D01*
X264104Y271526D01*
X264360Y271227D01*
X264659Y270971D01*
X264995Y270766D01*
X265358Y270615D01*
X265741Y270523D01*
X266129Y270493D01*
Y28200D01*
X260837D01*
Y180845D01*
X260841Y180844D01*
X261280Y180879D01*
X261709Y180982D01*
X262116Y181150D01*
X262492Y181381D01*
X262827Y181667D01*
X263113Y182002D01*
X263344Y182378D01*
X263512Y182785D01*
X263615Y183214D01*
X263641Y183653D01*
X263615Y184092D01*
X263512Y184521D01*
X263344Y184928D01*
X263113Y185304D01*
X262827Y185639D01*
X262492Y185925D01*
X262116Y186156D01*
X261709Y186324D01*
X261280Y186427D01*
X260841Y186462D01*
X260837Y186461D01*
Y242002D01*
X261028Y242226D01*
X261233Y242562D01*
X261384Y242925D01*
X261476Y243308D01*
X261499Y243700D01*
X261476Y244092D01*
X261384Y244475D01*
X261233Y244838D01*
X261028Y245174D01*
X260837Y245398D01*
Y263167D01*
X260906Y263227D01*
X261162Y263526D01*
X261367Y263862D01*
X261518Y264225D01*
X261610Y264608D01*
X261633Y265000D01*
X261610Y265392D01*
X261518Y265775D01*
X261367Y266138D01*
X261162Y266474D01*
X260906Y266773D01*
X260837Y266833D01*
Y267254D01*
X260860Y267227D01*
X261159Y266971D01*
X261495Y266766D01*
X261858Y266615D01*
X262241Y266523D01*
X262633Y266492D01*
X263025Y266523D01*
X263408Y266615D01*
X263771Y266766D01*
X264107Y266971D01*
X264406Y267227D01*
X264662Y267526D01*
X264867Y267862D01*
X265018Y268225D01*
X265110Y268608D01*
X265133Y269000D01*
X265110Y269392D01*
X265018Y269775D01*
X264867Y270138D01*
X264662Y270474D01*
X264406Y270773D01*
X264107Y271029D01*
X263771Y271234D01*
X263408Y271385D01*
X263025Y271477D01*
X262633Y271508D01*
X262241Y271477D01*
X261858Y271385D01*
X261495Y271234D01*
X261159Y271029D01*
X260860Y270773D01*
X260837Y270746D01*
Y271667D01*
X260906Y271727D01*
X261162Y272026D01*
X261367Y272362D01*
X261518Y272725D01*
X261610Y273108D01*
X261633Y273500D01*
X261610Y273892D01*
X261518Y274275D01*
X261367Y274638D01*
X261162Y274974D01*
X260906Y275273D01*
X260837Y275333D01*
Y275754D01*
X260860Y275727D01*
X261159Y275471D01*
X261495Y275266D01*
X261858Y275115D01*
X262241Y275023D01*
X262633Y274992D01*
X263025Y275023D01*
X263408Y275115D01*
X263771Y275266D01*
X264107Y275471D01*
X264406Y275727D01*
X264662Y276026D01*
X264867Y276362D01*
X265018Y276725D01*
X265110Y277108D01*
X265133Y277500D01*
X265110Y277892D01*
X265018Y278275D01*
X264867Y278638D01*
X264662Y278974D01*
X264406Y279273D01*
X264107Y279529D01*
X263771Y279734D01*
X263408Y279885D01*
X263025Y279977D01*
X262633Y280008D01*
X262241Y279977D01*
X261858Y279885D01*
X261495Y279734D01*
X261159Y279529D01*
X260860Y279273D01*
X260837Y279246D01*
Y298740D01*
X261073Y299016D01*
X261278Y299352D01*
X261429Y299715D01*
X261521Y300098D01*
X261544Y300490D01*
X261521Y300882D01*
X261429Y301265D01*
X261278Y301628D01*
X261073Y301964D01*
X260837Y302240D01*
Y314000D01*
G37*
G36*
Y245398D02*X260772Y245473D01*
X260473Y245729D01*
X260137Y245934D01*
X259774Y246085D01*
X259391Y246177D01*
X258999Y246208D01*
X258607Y246177D01*
X258224Y246085D01*
X257861Y245934D01*
X257525Y245729D01*
X257226Y245473D01*
X257049Y245266D01*
X256872Y245473D01*
X256573Y245729D01*
X256237Y245934D01*
X255874Y246085D01*
X255491Y246177D01*
X255099Y246208D01*
X254707Y246177D01*
X254324Y246085D01*
X253961Y245934D01*
X253625Y245729D01*
X253326Y245473D01*
X253320Y245467D01*
Y298674D01*
X253570Y298461D01*
X253906Y298256D01*
X254269Y298105D01*
X254652Y298013D01*
X255044Y297982D01*
X255436Y298013D01*
X255819Y298105D01*
X256182Y298256D01*
X256518Y298461D01*
X256817Y298717D01*
X257044Y298982D01*
X257271Y298717D01*
X257570Y298461D01*
X257906Y298256D01*
X258269Y298105D01*
X258652Y298013D01*
X259044Y297982D01*
X259436Y298013D01*
X259819Y298105D01*
X260182Y298256D01*
X260518Y298461D01*
X260817Y298717D01*
X260837Y298740D01*
Y279246D01*
X260604Y278974D01*
X260399Y278638D01*
X260248Y278275D01*
X260156Y277892D01*
X260125Y277500D01*
X260156Y277108D01*
X260248Y276725D01*
X260399Y276362D01*
X260604Y276026D01*
X260837Y275754D01*
Y275333D01*
X260607Y275529D01*
X260271Y275734D01*
X259908Y275885D01*
X259525Y275977D01*
X259133Y276008D01*
X258741Y275977D01*
X258358Y275885D01*
X257995Y275734D01*
X257659Y275529D01*
X257360Y275273D01*
X257104Y274974D01*
X256899Y274638D01*
X256748Y274275D01*
X256656Y273892D01*
X256625Y273500D01*
X256656Y273108D01*
X256748Y272725D01*
X256899Y272362D01*
X257104Y272026D01*
X257360Y271727D01*
X257659Y271471D01*
X257995Y271266D01*
X258358Y271115D01*
X258741Y271023D01*
X259133Y270992D01*
X259525Y271023D01*
X259908Y271115D01*
X260271Y271266D01*
X260607Y271471D01*
X260837Y271667D01*
Y270746D01*
X260604Y270474D01*
X260399Y270138D01*
X260248Y269775D01*
X260156Y269392D01*
X260125Y269000D01*
X260156Y268608D01*
X260248Y268225D01*
X260399Y267862D01*
X260604Y267526D01*
X260837Y267254D01*
Y266833D01*
X260607Y267029D01*
X260271Y267234D01*
X259908Y267385D01*
X259525Y267477D01*
X259133Y267508D01*
X258741Y267477D01*
X258358Y267385D01*
X257995Y267234D01*
X257659Y267029D01*
X257360Y266773D01*
X257104Y266474D01*
X256899Y266138D01*
X256748Y265775D01*
X256656Y265392D01*
X256625Y265000D01*
X256656Y264608D01*
X256748Y264225D01*
X256899Y263862D01*
X257104Y263526D01*
X257360Y263227D01*
X257659Y262971D01*
X257995Y262766D01*
X258358Y262615D01*
X258741Y262523D01*
X259133Y262492D01*
X259525Y262523D01*
X259908Y262615D01*
X260271Y262766D01*
X260607Y262971D01*
X260837Y263167D01*
Y245398D01*
G37*
G36*
Y28200D02*X253320D01*
Y71964D01*
X253325Y71963D01*
X253791Y72000D01*
X254246Y72109D01*
X254678Y72288D01*
X255077Y72533D01*
X255433Y72836D01*
X255736Y73192D01*
X255981Y73591D01*
X256160Y74023D01*
X256269Y74478D01*
X256296Y74944D01*
X256269Y75410D01*
X256160Y75865D01*
X255981Y76297D01*
X255736Y76696D01*
X255433Y77052D01*
X255077Y77355D01*
X254678Y77600D01*
X254246Y77779D01*
X253791Y77888D01*
X253325Y77925D01*
X253320Y77924D01*
Y241933D01*
X253326Y241927D01*
X253625Y241671D01*
X253961Y241466D01*
X254324Y241315D01*
X254707Y241223D01*
X255099Y241192D01*
X255491Y241223D01*
X255874Y241315D01*
X256237Y241466D01*
X256573Y241671D01*
X256872Y241927D01*
X257049Y242134D01*
X257226Y241927D01*
X257525Y241671D01*
X257861Y241466D01*
X258224Y241315D01*
X258607Y241223D01*
X258999Y241192D01*
X259391Y241223D01*
X259774Y241315D01*
X260137Y241466D01*
X260473Y241671D01*
X260772Y241927D01*
X260837Y242002D01*
Y186461D01*
X260402Y186427D01*
X259973Y186324D01*
X259566Y186156D01*
X259190Y185925D01*
X258855Y185639D01*
X258569Y185304D01*
X258338Y184928D01*
X258170Y184521D01*
X258067Y184092D01*
X258032Y183653D01*
X258067Y183214D01*
X258170Y182785D01*
X258338Y182378D01*
X258569Y182002D01*
X258855Y181667D01*
X259190Y181381D01*
X259566Y181150D01*
X259973Y180982D01*
X260402Y180879D01*
X260837Y180845D01*
Y28200D01*
G37*
G36*
X253320Y314000D02*X260837D01*
Y302240D01*
X260817Y302263D01*
X260518Y302519D01*
X260182Y302724D01*
X259819Y302875D01*
X259436Y302967D01*
X259044Y302998D01*
X258652Y302967D01*
X258269Y302875D01*
X257906Y302724D01*
X257570Y302519D01*
X257271Y302263D01*
X257044Y301998D01*
X256817Y302263D01*
X256518Y302519D01*
X256182Y302724D01*
X255819Y302875D01*
X255436Y302967D01*
X255044Y302998D01*
X254652Y302967D01*
X254269Y302875D01*
X253906Y302724D01*
X253570Y302519D01*
X253320Y302306D01*
Y314000D01*
G37*
G36*
X221835Y177323D02*X221838Y177289D01*
Y177017D01*
X221835Y176983D01*
Y177323D01*
G37*
G36*
X238835Y241240D02*X238907Y241223D01*
X239299Y241192D01*
X239691Y241223D01*
X240074Y241315D01*
X240437Y241466D01*
X240773Y241671D01*
X241072Y241927D01*
X241299Y242192D01*
X241526Y241927D01*
X241825Y241671D01*
X242161Y241466D01*
X242524Y241315D01*
X242907Y241223D01*
X243299Y241192D01*
X243691Y241223D01*
X244074Y241315D01*
X244437Y241466D01*
X244773Y241671D01*
X245072Y241927D01*
X245249Y242134D01*
X245426Y241927D01*
X245725Y241671D01*
X246061Y241466D01*
X246424Y241315D01*
X246807Y241223D01*
X247199Y241192D01*
X247591Y241223D01*
X247974Y241315D01*
X248337Y241466D01*
X248673Y241671D01*
X248972Y241927D01*
X249149Y242134D01*
X249326Y241927D01*
X249625Y241671D01*
X249961Y241466D01*
X250324Y241315D01*
X250707Y241223D01*
X251099Y241192D01*
X251491Y241223D01*
X251874Y241315D01*
X252237Y241466D01*
X252573Y241671D01*
X252872Y241927D01*
X253099Y242192D01*
X253320Y241933D01*
Y77924D01*
X252859Y77888D01*
X252404Y77779D01*
X251972Y77600D01*
X251573Y77355D01*
X251217Y77052D01*
X250914Y76696D01*
X250669Y76297D01*
X250490Y75865D01*
X250381Y75410D01*
X250344Y74944D01*
X250381Y74478D01*
X250490Y74023D01*
X250669Y73591D01*
X250914Y73192D01*
X251217Y72836D01*
X251573Y72533D01*
X251972Y72288D01*
X252404Y72109D01*
X252859Y72000D01*
X253320Y71964D01*
Y28200D01*
X238835D01*
Y173141D01*
X238841Y173141D01*
X239469Y173190D01*
X240081Y173337D01*
X240663Y173578D01*
X241199Y173907D01*
X241678Y174316D01*
X242087Y174795D01*
X242416Y175331D01*
X242657Y175913D01*
X242804Y176525D01*
X242841Y177153D01*
X242804Y177781D01*
X242657Y178393D01*
X242416Y178975D01*
X242087Y179511D01*
X241678Y179990D01*
X241199Y180399D01*
X240663Y180728D01*
X240081Y180969D01*
X239469Y181116D01*
X238841Y181165D01*
X238835Y181165D01*
Y241240D01*
G37*
G36*
X225125Y241779D02*X225298Y241927D01*
X225525Y242192D01*
X225752Y241927D01*
X226051Y241671D01*
X226387Y241466D01*
X226750Y241315D01*
X227133Y241223D01*
X227525Y241192D01*
X227917Y241223D01*
X228300Y241315D01*
X228663Y241466D01*
X228999Y241671D01*
X229298Y241927D01*
X229462Y242119D01*
X229626Y241927D01*
X229925Y241671D01*
X230261Y241466D01*
X230624Y241315D01*
X231007Y241223D01*
X231399Y241192D01*
X231791Y241223D01*
X232174Y241315D01*
X232537Y241466D01*
X232873Y241671D01*
X233172Y241927D01*
X233399Y242192D01*
X233626Y241927D01*
X233925Y241671D01*
X234261Y241466D01*
X234624Y241315D01*
X235007Y241223D01*
X235399Y241192D01*
X235791Y241223D01*
X236174Y241315D01*
X236537Y241466D01*
X236873Y241671D01*
X237172Y241927D01*
X237349Y242134D01*
X237526Y241927D01*
X237825Y241671D01*
X238161Y241466D01*
X238524Y241315D01*
X238835Y241240D01*
Y181165D01*
X238213Y181116D01*
X237601Y180969D01*
X237019Y180728D01*
X236483Y180399D01*
X236004Y179990D01*
X235595Y179511D01*
X235266Y178975D01*
X235025Y178393D01*
X234878Y177781D01*
X234829Y177153D01*
X234878Y176525D01*
X235025Y175913D01*
X235266Y175331D01*
X235595Y174795D01*
X236004Y174316D01*
X236483Y173907D01*
X237019Y173578D01*
X237601Y173337D01*
X238213Y173190D01*
X238835Y173141D01*
Y28200D01*
X225125D01*
Y95522D01*
X225128Y95523D01*
X225196Y95562D01*
X225257Y95611D01*
X225310Y95670D01*
X225352Y95736D01*
X225515Y96061D01*
X225644Y96401D01*
X225742Y96751D01*
X225808Y97109D01*
X225841Y97471D01*
Y97835D01*
X225808Y98197D01*
X225742Y98555D01*
X225644Y98905D01*
X225515Y99245D01*
X225356Y99572D01*
X225313Y99638D01*
X225260Y99697D01*
X225198Y99747D01*
X225129Y99786D01*
X225125Y99788D01*
Y110356D01*
X225416Y110831D01*
X225657Y111413D01*
X225804Y112025D01*
X225841Y112653D01*
X225804Y113281D01*
X225657Y113893D01*
X225416Y114475D01*
X225125Y114950D01*
Y241779D01*
G37*
G36*
Y28200D02*X221835D01*
Y93653D01*
X222023D01*
X222385Y93686D01*
X222743Y93752D01*
X223093Y93850D01*
X223433Y93979D01*
X223760Y94138D01*
X223826Y94181D01*
X223885Y94234D01*
X223935Y94296D01*
X223974Y94365D01*
X224002Y94439D01*
X224018Y94516D01*
X224022Y94595D01*
X224014Y94674D01*
X223993Y94750D01*
X223961Y94823D01*
X223918Y94889D01*
X223865Y94948D01*
X223803Y94997D01*
X223734Y95037D01*
X223660Y95065D01*
X223583Y95081D01*
X223504Y95085D01*
X223425Y95077D01*
X223348Y95056D01*
X223277Y95023D01*
X223034Y94900D01*
X222779Y94803D01*
X222517Y94730D01*
X222249Y94681D01*
X221977Y94656D01*
X221835D01*
Y100650D01*
X221977D01*
X222249Y100625D01*
X222517Y100576D01*
X222779Y100503D01*
X223034Y100406D01*
X223278Y100286D01*
X223350Y100253D01*
X223426Y100232D01*
X223504Y100224D01*
X223582Y100228D01*
X223659Y100244D01*
X223733Y100272D01*
X223801Y100311D01*
X223862Y100360D01*
X223915Y100419D01*
X223958Y100485D01*
X223990Y100557D01*
X224011Y100633D01*
X224019Y100711D01*
X224015Y100789D01*
X223999Y100866D01*
X223971Y100940D01*
X223932Y101008D01*
X223883Y101069D01*
X223824Y101122D01*
X223758Y101164D01*
X223433Y101327D01*
X223093Y101456D01*
X222743Y101554D01*
X222385Y101620D01*
X222023Y101653D01*
X221835D01*
Y108641D01*
X221841Y108641D01*
X222469Y108690D01*
X223081Y108837D01*
X223663Y109078D01*
X224199Y109407D01*
X224678Y109816D01*
X225087Y110295D01*
X225125Y110356D01*
Y99788D01*
X225055Y99814D01*
X224978Y99830D01*
X224899Y99834D01*
X224820Y99826D01*
X224744Y99805D01*
X224671Y99773D01*
X224605Y99730D01*
X224546Y99677D01*
X224497Y99615D01*
X224457Y99546D01*
X224429Y99472D01*
X224413Y99395D01*
X224409Y99316D01*
X224417Y99237D01*
X224438Y99160D01*
X224471Y99089D01*
X224594Y98846D01*
X224691Y98591D01*
X224764Y98329D01*
X224813Y98061D01*
X224838Y97789D01*
Y97517D01*
X224813Y97245D01*
X224764Y96977D01*
X224691Y96715D01*
X224594Y96460D01*
X224474Y96216D01*
X224441Y96144D01*
X224420Y96068D01*
X224412Y95990D01*
X224416Y95912D01*
X224432Y95835D01*
X224460Y95761D01*
X224499Y95693D01*
X224548Y95632D01*
X224607Y95579D01*
X224673Y95536D01*
X224745Y95504D01*
X224821Y95483D01*
X224899Y95475D01*
X224977Y95479D01*
X225054Y95495D01*
X225125Y95522D01*
Y28200D01*
G37*
G36*
X221835Y241856D02*X222051Y241671D01*
X222387Y241466D01*
X222750Y241315D01*
X223133Y241223D01*
X223525Y241192D01*
X223917Y241223D01*
X224300Y241315D01*
X224663Y241466D01*
X224999Y241671D01*
X225125Y241779D01*
Y114950D01*
X225087Y115011D01*
X224678Y115490D01*
X224199Y115899D01*
X223663Y116228D01*
X223081Y116469D01*
X222469Y116616D01*
X221841Y116665D01*
X221835Y116665D01*
Y174982D01*
X221899Y174975D01*
X221977Y174979D01*
X222054Y174995D01*
X222128Y175023D01*
X222196Y175062D01*
X222257Y175111D01*
X222310Y175170D01*
X222352Y175236D01*
X222515Y175561D01*
X222644Y175901D01*
X222742Y176251D01*
X222808Y176609D01*
X222841Y176971D01*
Y177335D01*
X222808Y177697D01*
X222742Y178055D01*
X222644Y178405D01*
X222515Y178745D01*
X222356Y179072D01*
X222313Y179138D01*
X222260Y179197D01*
X222198Y179247D01*
X222129Y179286D01*
X222055Y179314D01*
X221978Y179330D01*
X221899Y179334D01*
X221835Y179328D01*
Y241856D01*
G37*
G36*
Y298684D02*X222096Y298461D01*
X222432Y298256D01*
X222795Y298105D01*
X223178Y298013D01*
X223570Y297982D01*
X223962Y298013D01*
X224345Y298105D01*
X224708Y298256D01*
X225044Y298461D01*
X225343Y298717D01*
X225520Y298924D01*
X225697Y298717D01*
X225996Y298461D01*
X226332Y298256D01*
X226695Y298105D01*
X227078Y298013D01*
X227470Y297982D01*
X227862Y298013D01*
X228245Y298105D01*
X228608Y298256D01*
X228944Y298461D01*
X229243Y298717D01*
X229470Y298982D01*
X229697Y298717D01*
X229996Y298461D01*
X230332Y298256D01*
X230695Y298105D01*
X231078Y298013D01*
X231470Y297982D01*
X231862Y298013D01*
X232245Y298105D01*
X232608Y298256D01*
X232944Y298461D01*
X233243Y298717D01*
X233420Y298924D01*
X233597Y298717D01*
X233896Y298461D01*
X234232Y298256D01*
X234595Y298105D01*
X234978Y298013D01*
X235370Y297982D01*
X235762Y298013D01*
X236145Y298105D01*
X236508Y298256D01*
X236844Y298461D01*
X237143Y298717D01*
X237320Y298924D01*
X237497Y298717D01*
X237796Y298461D01*
X238132Y298256D01*
X238495Y298105D01*
X238878Y298013D01*
X239270Y297982D01*
X239662Y298013D01*
X240045Y298105D01*
X240408Y298256D01*
X240744Y298461D01*
X241043Y298717D01*
X241270Y298982D01*
X241497Y298717D01*
X241796Y298461D01*
X242132Y298256D01*
X242495Y298105D01*
X242878Y298013D01*
X243270Y297982D01*
X243662Y298013D01*
X244045Y298105D01*
X244408Y298256D01*
X244744Y298461D01*
X245043Y298717D01*
X245220Y298924D01*
X245397Y298717D01*
X245696Y298461D01*
X246032Y298256D01*
X246395Y298105D01*
X246778Y298013D01*
X247170Y297982D01*
X247562Y298013D01*
X247945Y298105D01*
X248308Y298256D01*
X248644Y298461D01*
X248943Y298717D01*
X249170Y298982D01*
X249397Y298717D01*
X249696Y298461D01*
X250032Y298256D01*
X250395Y298105D01*
X250778Y298013D01*
X251170Y297982D01*
X251562Y298013D01*
X251945Y298105D01*
X252308Y298256D01*
X252644Y298461D01*
X252943Y298717D01*
X253107Y298909D01*
X253271Y298717D01*
X253320Y298674D01*
Y245467D01*
X253099Y245208D01*
X252872Y245473D01*
X252573Y245729D01*
X252237Y245934D01*
X251874Y246085D01*
X251491Y246177D01*
X251099Y246208D01*
X250707Y246177D01*
X250324Y246085D01*
X249961Y245934D01*
X249625Y245729D01*
X249326Y245473D01*
X249149Y245266D01*
X248972Y245473D01*
X248673Y245729D01*
X248337Y245934D01*
X247974Y246085D01*
X247591Y246177D01*
X247199Y246208D01*
X246807Y246177D01*
X246424Y246085D01*
X246061Y245934D01*
X245725Y245729D01*
X245426Y245473D01*
X245249Y245266D01*
X245072Y245473D01*
X244773Y245729D01*
X244437Y245934D01*
X244074Y246085D01*
X243691Y246177D01*
X243299Y246208D01*
X242907Y246177D01*
X242524Y246085D01*
X242161Y245934D01*
X241825Y245729D01*
X241526Y245473D01*
X241299Y245208D01*
X241072Y245473D01*
X240773Y245729D01*
X240437Y245934D01*
X240074Y246085D01*
X239691Y246177D01*
X239299Y246208D01*
X238907Y246177D01*
X238524Y246085D01*
X238161Y245934D01*
X237825Y245729D01*
X237526Y245473D01*
X237349Y245266D01*
X237172Y245473D01*
X236873Y245729D01*
X236537Y245934D01*
X236174Y246085D01*
X235791Y246177D01*
X235399Y246208D01*
X235007Y246177D01*
X234624Y246085D01*
X234261Y245934D01*
X233925Y245729D01*
X233626Y245473D01*
X233399Y245208D01*
X233172Y245473D01*
X232873Y245729D01*
X232537Y245934D01*
X232174Y246085D01*
X231791Y246177D01*
X231399Y246208D01*
X231007Y246177D01*
X230624Y246085D01*
X230261Y245934D01*
X229925Y245729D01*
X229626Y245473D01*
X229462Y245281D01*
X229298Y245473D01*
X228999Y245729D01*
X228663Y245934D01*
X228300Y246085D01*
X227917Y246177D01*
X227525Y246208D01*
X227133Y246177D01*
X226750Y246085D01*
X226387Y245934D01*
X226051Y245729D01*
X225752Y245473D01*
X225525Y245208D01*
X225298Y245473D01*
X224999Y245729D01*
X224663Y245934D01*
X224300Y246085D01*
X223917Y246177D01*
X223525Y246208D01*
X223133Y246177D01*
X222750Y246085D01*
X222387Y245934D01*
X222051Y245729D01*
X221835Y245544D01*
Y264104D01*
X221885Y264225D01*
X221977Y264608D01*
X222000Y265000D01*
X221977Y265392D01*
X221885Y265775D01*
X221835Y265896D01*
Y272604D01*
X221885Y272725D01*
X221977Y273108D01*
X222000Y273500D01*
X221977Y273892D01*
X221885Y274275D01*
X221835Y274396D01*
Y298684D01*
G37*
G36*
Y314000D02*X253320D01*
Y302306D01*
X253271Y302263D01*
X253107Y302071D01*
X252943Y302263D01*
X252644Y302519D01*
X252308Y302724D01*
X251945Y302875D01*
X251562Y302967D01*
X251170Y302998D01*
X250778Y302967D01*
X250395Y302875D01*
X250032Y302724D01*
X249696Y302519D01*
X249397Y302263D01*
X249170Y301998D01*
X248943Y302263D01*
X248644Y302519D01*
X248308Y302724D01*
X247945Y302875D01*
X247562Y302967D01*
X247170Y302998D01*
X246778Y302967D01*
X246395Y302875D01*
X246032Y302724D01*
X245696Y302519D01*
X245397Y302263D01*
X245220Y302056D01*
X245043Y302263D01*
X244744Y302519D01*
X244408Y302724D01*
X244045Y302875D01*
X243662Y302967D01*
X243270Y302998D01*
X242878Y302967D01*
X242495Y302875D01*
X242132Y302724D01*
X241796Y302519D01*
X241497Y302263D01*
X241270Y301998D01*
X241043Y302263D01*
X240744Y302519D01*
X240408Y302724D01*
X240045Y302875D01*
X239662Y302967D01*
X239270Y302998D01*
X238878Y302967D01*
X238495Y302875D01*
X238132Y302724D01*
X237796Y302519D01*
X237497Y302263D01*
X237320Y302056D01*
X237143Y302263D01*
X236844Y302519D01*
X236508Y302724D01*
X236145Y302875D01*
X235762Y302967D01*
X235370Y302998D01*
X234978Y302967D01*
X234595Y302875D01*
X234232Y302724D01*
X233896Y302519D01*
X233597Y302263D01*
X233420Y302056D01*
X233243Y302263D01*
X232944Y302519D01*
X232608Y302724D01*
X232245Y302875D01*
X231862Y302967D01*
X231470Y302998D01*
X231078Y302967D01*
X230695Y302875D01*
X230332Y302724D01*
X229996Y302519D01*
X229697Y302263D01*
X229470Y301998D01*
X229243Y302263D01*
X228944Y302519D01*
X228608Y302724D01*
X228245Y302875D01*
X227862Y302967D01*
X227470Y302998D01*
X227078Y302967D01*
X226695Y302875D01*
X226332Y302724D01*
X225996Y302519D01*
X225697Y302263D01*
X225520Y302056D01*
X225343Y302263D01*
X225044Y302519D01*
X224708Y302724D01*
X224345Y302875D01*
X223962Y302967D01*
X223570Y302998D01*
X223178Y302967D01*
X222795Y302875D01*
X222432Y302724D01*
X222096Y302519D01*
X221835Y302296D01*
Y314000D01*
G37*
G36*
X218557Y110356D02*X218595Y110295D01*
X219004Y109816D01*
X219483Y109407D01*
X220019Y109078D01*
X220601Y108837D01*
X221213Y108690D01*
X221835Y108641D01*
Y101653D01*
X221659D01*
X221297Y101620D01*
X220939Y101554D01*
X220589Y101456D01*
X220249Y101327D01*
X219922Y101168D01*
X219856Y101125D01*
X219797Y101072D01*
X219747Y101010D01*
X219708Y100941D01*
X219680Y100867D01*
X219664Y100790D01*
X219660Y100711D01*
X219668Y100632D01*
X219689Y100556D01*
X219721Y100483D01*
X219764Y100417D01*
X219817Y100358D01*
X219879Y100309D01*
X219948Y100269D01*
X220022Y100241D01*
X220099Y100225D01*
X220178Y100221D01*
X220257Y100229D01*
X220334Y100250D01*
X220405Y100283D01*
X220648Y100406D01*
X220903Y100503D01*
X221165Y100576D01*
X221433Y100625D01*
X221705Y100650D01*
X221835D01*
Y94656D01*
X221705D01*
X221433Y94681D01*
X221165Y94730D01*
X220903Y94803D01*
X220648Y94900D01*
X220404Y95020D01*
X220332Y95053D01*
X220256Y95074D01*
X220178Y95082D01*
X220100Y95078D01*
X220023Y95062D01*
X219949Y95034D01*
X219881Y94995D01*
X219820Y94946D01*
X219767Y94887D01*
X219724Y94821D01*
X219692Y94749D01*
X219671Y94673D01*
X219663Y94595D01*
X219667Y94517D01*
X219683Y94440D01*
X219711Y94366D01*
X219750Y94298D01*
X219799Y94237D01*
X219858Y94184D01*
X219924Y94142D01*
X220249Y93979D01*
X220589Y93850D01*
X220939Y93752D01*
X221297Y93686D01*
X221659Y93653D01*
X221835D01*
Y28200D01*
X218557D01*
Y95518D01*
X218627Y95492D01*
X218704Y95476D01*
X218783Y95472D01*
X218862Y95480D01*
X218938Y95501D01*
X219011Y95533D01*
X219077Y95576D01*
X219136Y95629D01*
X219185Y95691D01*
X219225Y95760D01*
X219253Y95834D01*
X219269Y95911D01*
X219273Y95990D01*
X219265Y96069D01*
X219244Y96146D01*
X219211Y96217D01*
X219088Y96460D01*
X218991Y96715D01*
X218918Y96977D01*
X218869Y97245D01*
X218844Y97517D01*
Y97789D01*
X218869Y98061D01*
X218918Y98329D01*
X218991Y98591D01*
X219088Y98846D01*
X219208Y99090D01*
X219241Y99162D01*
X219262Y99238D01*
X219270Y99316D01*
X219266Y99394D01*
X219250Y99471D01*
X219222Y99545D01*
X219183Y99613D01*
X219134Y99674D01*
X219075Y99727D01*
X219009Y99770D01*
X218937Y99802D01*
X218861Y99823D01*
X218783Y99831D01*
X218705Y99827D01*
X218628Y99811D01*
X218557Y99784D01*
Y110356D01*
G37*
G36*
Y262685D02*X218725Y262615D01*
X219108Y262523D01*
X219500Y262492D01*
X219892Y262523D01*
X220275Y262615D01*
X220638Y262766D01*
X220974Y262971D01*
X221273Y263227D01*
X221529Y263526D01*
X221734Y263862D01*
X221835Y264104D01*
Y245544D01*
X221752Y245473D01*
X221496Y245174D01*
X221291Y244838D01*
X221140Y244475D01*
X221048Y244092D01*
X221017Y243700D01*
X221048Y243308D01*
X221140Y242925D01*
X221291Y242562D01*
X221496Y242226D01*
X221752Y241927D01*
X221835Y241856D01*
Y179328D01*
X221820Y179326D01*
X221744Y179305D01*
X221671Y179273D01*
X221605Y179230D01*
X221546Y179177D01*
X221497Y179115D01*
X221457Y179046D01*
X221429Y178972D01*
X221413Y178895D01*
X221409Y178816D01*
X221417Y178737D01*
X221438Y178660D01*
X221471Y178589D01*
X221594Y178346D01*
X221691Y178091D01*
X221764Y177829D01*
X221813Y177561D01*
X221835Y177323D01*
Y176983D01*
X221813Y176745D01*
X221764Y176477D01*
X221691Y176215D01*
X221594Y175960D01*
X221474Y175716D01*
X221441Y175644D01*
X221420Y175568D01*
X221412Y175490D01*
X221416Y175412D01*
X221432Y175335D01*
X221460Y175261D01*
X221499Y175193D01*
X221548Y175132D01*
X221607Y175079D01*
X221673Y175036D01*
X221745Y175004D01*
X221821Y174983D01*
X221835Y174982D01*
Y116665D01*
X221213Y116616D01*
X220601Y116469D01*
X220019Y116228D01*
X219483Y115899D01*
X219004Y115490D01*
X218595Y115011D01*
X218557Y114950D01*
Y173162D01*
X218659Y173153D01*
X219023D01*
X219385Y173186D01*
X219743Y173252D01*
X220093Y173350D01*
X220433Y173479D01*
X220760Y173638D01*
X220826Y173681D01*
X220885Y173734D01*
X220935Y173796D01*
X220974Y173865D01*
X221002Y173939D01*
X221018Y174016D01*
X221022Y174095D01*
X221014Y174174D01*
X220993Y174250D01*
X220961Y174323D01*
X220918Y174389D01*
X220865Y174448D01*
X220803Y174497D01*
X220734Y174537D01*
X220660Y174565D01*
X220583Y174581D01*
X220504Y174585D01*
X220425Y174577D01*
X220348Y174556D01*
X220277Y174523D01*
X220034Y174400D01*
X219779Y174303D01*
X219517Y174230D01*
X219249Y174181D01*
X218977Y174156D01*
X218705D01*
X218557Y174170D01*
Y180136D01*
X218705Y180150D01*
X218977D01*
X219249Y180125D01*
X219517Y180076D01*
X219779Y180003D01*
X220034Y179906D01*
X220278Y179786D01*
X220350Y179753D01*
X220426Y179732D01*
X220504Y179724D01*
X220582Y179728D01*
X220659Y179744D01*
X220733Y179772D01*
X220801Y179811D01*
X220862Y179860D01*
X220915Y179919D01*
X220958Y179985D01*
X220990Y180057D01*
X221011Y180133D01*
X221019Y180211D01*
X221015Y180289D01*
X220999Y180366D01*
X220971Y180440D01*
X220932Y180508D01*
X220883Y180569D01*
X220824Y180622D01*
X220758Y180664D01*
X220433Y180827D01*
X220093Y180956D01*
X219743Y181054D01*
X219385Y181120D01*
X219023Y181153D01*
X218659D01*
X218557Y181144D01*
Y262685D01*
G37*
G36*
Y271185D02*X218725Y271115D01*
X219108Y271023D01*
X219500Y270992D01*
X219892Y271023D01*
X220275Y271115D01*
X220638Y271266D01*
X220974Y271471D01*
X221273Y271727D01*
X221529Y272026D01*
X221734Y272362D01*
X221835Y272604D01*
Y265896D01*
X221734Y266138D01*
X221529Y266474D01*
X221273Y266773D01*
X220974Y267029D01*
X220638Y267234D01*
X220275Y267385D01*
X219892Y267477D01*
X219500Y267508D01*
X219108Y267477D01*
X218725Y267385D01*
X218557Y267315D01*
Y271185D01*
G37*
G36*
Y314000D02*X221835D01*
Y302296D01*
X221797Y302263D01*
X221541Y301964D01*
X221336Y301628D01*
X221185Y301265D01*
X221093Y300882D01*
X221062Y300490D01*
X221093Y300098D01*
X221185Y299715D01*
X221336Y299352D01*
X221541Y299016D01*
X221797Y298717D01*
X221835Y298684D01*
Y274396D01*
X221734Y274638D01*
X221529Y274974D01*
X221273Y275273D01*
X220974Y275529D01*
X220638Y275734D01*
X220275Y275885D01*
X219892Y275977D01*
X219500Y276008D01*
X219108Y275977D01*
X218725Y275885D01*
X218557Y275815D01*
Y314000D01*
G37*
G36*
X215557D02*X218557D01*
Y275815D01*
X218362Y275734D01*
X218026Y275529D01*
X217727Y275273D01*
X217471Y274974D01*
X217266Y274638D01*
X217115Y274275D01*
X217023Y273892D01*
X216992Y273500D01*
X217023Y273108D01*
X217115Y272725D01*
X217266Y272362D01*
X217471Y272026D01*
X217727Y271727D01*
X218026Y271471D01*
X218362Y271266D01*
X218557Y271185D01*
Y267315D01*
X218362Y267234D01*
X218026Y267029D01*
X217727Y266773D01*
X217471Y266474D01*
X217266Y266138D01*
X217115Y265775D01*
X217023Y265392D01*
X216992Y265000D01*
X217023Y264608D01*
X217115Y264225D01*
X217266Y263862D01*
X217471Y263526D01*
X217727Y263227D01*
X218026Y262971D01*
X218362Y262766D01*
X218557Y262685D01*
Y181144D01*
X218297Y181120D01*
X217939Y181054D01*
X217589Y180956D01*
X217249Y180827D01*
X216922Y180668D01*
X216856Y180625D01*
X216797Y180572D01*
X216747Y180510D01*
X216708Y180441D01*
X216680Y180367D01*
X216664Y180290D01*
X216660Y180211D01*
X216668Y180132D01*
X216689Y180056D01*
X216721Y179983D01*
X216764Y179917D01*
X216817Y179858D01*
X216879Y179809D01*
X216948Y179769D01*
X217022Y179741D01*
X217099Y179725D01*
X217178Y179721D01*
X217257Y179729D01*
X217334Y179750D01*
X217405Y179783D01*
X217648Y179906D01*
X217903Y180003D01*
X218165Y180076D01*
X218433Y180125D01*
X218557Y180136D01*
Y174170D01*
X218433Y174181D01*
X218165Y174230D01*
X217903Y174303D01*
X217648Y174400D01*
X217404Y174520D01*
X217332Y174553D01*
X217256Y174574D01*
X217178Y174582D01*
X217100Y174578D01*
X217023Y174562D01*
X216949Y174534D01*
X216881Y174495D01*
X216820Y174446D01*
X216767Y174387D01*
X216724Y174321D01*
X216692Y174249D01*
X216671Y174173D01*
X216663Y174095D01*
X216667Y174017D01*
X216683Y173940D01*
X216711Y173866D01*
X216750Y173798D01*
X216799Y173737D01*
X216858Y173684D01*
X216924Y173642D01*
X217249Y173479D01*
X217589Y173350D01*
X217939Y173252D01*
X218297Y173186D01*
X218557Y173162D01*
Y114950D01*
X218266Y114475D01*
X218025Y113893D01*
X217878Y113281D01*
X217829Y112653D01*
X217878Y112025D01*
X218025Y111413D01*
X218266Y110831D01*
X218557Y110356D01*
Y99784D01*
X218554Y99783D01*
X218486Y99744D01*
X218425Y99695D01*
X218372Y99636D01*
X218330Y99570D01*
X218167Y99245D01*
X218038Y98905D01*
X217940Y98555D01*
X217874Y98197D01*
X217841Y97835D01*
Y97471D01*
X217874Y97109D01*
X217940Y96751D01*
X218038Y96401D01*
X218167Y96061D01*
X218326Y95734D01*
X218369Y95668D01*
X218422Y95609D01*
X218484Y95559D01*
X218553Y95520D01*
X218557Y95518D01*
Y28200D01*
X215557D01*
Y175018D01*
X215627Y174992D01*
X215704Y174976D01*
X215783Y174972D01*
X215862Y174980D01*
X215938Y175001D01*
X216011Y175033D01*
X216077Y175076D01*
X216136Y175129D01*
X216185Y175191D01*
X216225Y175260D01*
X216253Y175334D01*
X216269Y175411D01*
X216273Y175490D01*
X216265Y175569D01*
X216244Y175646D01*
X216211Y175717D01*
X216088Y175960D01*
X215991Y176215D01*
X215918Y176477D01*
X215869Y176745D01*
X215844Y177017D01*
Y177289D01*
X215869Y177561D01*
X215918Y177829D01*
X215991Y178091D01*
X216088Y178346D01*
X216208Y178590D01*
X216241Y178662D01*
X216262Y178738D01*
X216270Y178816D01*
X216266Y178894D01*
X216250Y178971D01*
X216222Y179045D01*
X216183Y179113D01*
X216134Y179174D01*
X216075Y179227D01*
X216009Y179270D01*
X215937Y179302D01*
X215861Y179323D01*
X215783Y179331D01*
X215705Y179327D01*
X215628Y179311D01*
X215557Y179284D01*
Y266535D01*
X215608Y266523D01*
X216000Y266492D01*
X216392Y266523D01*
X216775Y266615D01*
X217138Y266766D01*
X217474Y266971D01*
X217773Y267227D01*
X218029Y267526D01*
X218234Y267862D01*
X218385Y268225D01*
X218477Y268608D01*
X218500Y269000D01*
X218477Y269392D01*
X218385Y269775D01*
X218234Y270138D01*
X218029Y270474D01*
X217773Y270773D01*
X217474Y271029D01*
X217138Y271234D01*
X216775Y271385D01*
X216392Y271477D01*
X216000Y271508D01*
X215608Y271477D01*
X215557Y271465D01*
Y275035D01*
X215608Y275023D01*
X216000Y274992D01*
X216392Y275023D01*
X216775Y275115D01*
X217138Y275266D01*
X217474Y275471D01*
X217773Y275727D01*
X218029Y276026D01*
X218234Y276362D01*
X218385Y276725D01*
X218477Y277108D01*
X218500Y277500D01*
X218477Y277892D01*
X218385Y278275D01*
X218234Y278638D01*
X218029Y278974D01*
X217773Y279273D01*
X217474Y279529D01*
X217138Y279734D01*
X216775Y279885D01*
X216392Y279977D01*
X216000Y280008D01*
X215608Y279977D01*
X215557Y279965D01*
Y314000D01*
G37*
G36*
X212496D02*X215557D01*
Y279965D01*
X215225Y279885D01*
X214862Y279734D01*
X214526Y279529D01*
X214227Y279273D01*
X213971Y278974D01*
X213766Y278638D01*
X213615Y278275D01*
X213523Y277892D01*
X213492Y277500D01*
X213523Y277108D01*
X213615Y276725D01*
X213766Y276362D01*
X213971Y276026D01*
X214227Y275727D01*
X214526Y275471D01*
X214862Y275266D01*
X215225Y275115D01*
X215557Y275035D01*
Y271465D01*
X215225Y271385D01*
X214862Y271234D01*
X214526Y271029D01*
X214227Y270773D01*
X213971Y270474D01*
X213766Y270138D01*
X213615Y269775D01*
X213523Y269392D01*
X213492Y269000D01*
X213523Y268608D01*
X213615Y268225D01*
X213766Y267862D01*
X213971Y267526D01*
X214227Y267227D01*
X214526Y266971D01*
X214862Y266766D01*
X215225Y266615D01*
X215557Y266535D01*
Y179284D01*
X215554Y179283D01*
X215486Y179244D01*
X215425Y179195D01*
X215372Y179136D01*
X215330Y179070D01*
X215167Y178745D01*
X215038Y178405D01*
X214940Y178055D01*
X214874Y177697D01*
X214841Y177335D01*
Y176971D01*
X214874Y176609D01*
X214940Y176251D01*
X215038Y175901D01*
X215167Y175561D01*
X215326Y175234D01*
X215369Y175168D01*
X215422Y175109D01*
X215484Y175059D01*
X215553Y175020D01*
X215557Y175018D01*
Y28200D01*
X212496D01*
Y270493D01*
X212500Y270492D01*
X212892Y270523D01*
X213275Y270615D01*
X213638Y270766D01*
X213974Y270971D01*
X214273Y271227D01*
X214529Y271526D01*
X214734Y271862D01*
X214885Y272225D01*
X214977Y272608D01*
X215000Y273000D01*
X214977Y273392D01*
X214885Y273775D01*
X214734Y274138D01*
X214529Y274474D01*
X214273Y274773D01*
X213974Y275029D01*
X213638Y275234D01*
X213275Y275385D01*
X212892Y275477D01*
X212500Y275508D01*
X212496Y275507D01*
Y314000D01*
G37*
G36*
X190160D02*X212496D01*
Y275507D01*
X212108Y275477D01*
X211725Y275385D01*
X211362Y275234D01*
X211026Y275029D01*
X210727Y274773D01*
X210471Y274474D01*
X210266Y274138D01*
X210115Y273775D01*
X210023Y273392D01*
X209992Y273000D01*
X210023Y272608D01*
X210115Y272225D01*
X210266Y271862D01*
X210471Y271526D01*
X210727Y271227D01*
X211026Y270971D01*
X211362Y270766D01*
X211725Y270615D01*
X212108Y270523D01*
X212496Y270493D01*
Y28200D01*
X190160D01*
Y246233D01*
X190166Y246233D01*
X190750Y246279D01*
X191320Y246416D01*
X191861Y246640D01*
X192360Y246946D01*
X192806Y247326D01*
X193186Y247772D01*
X193492Y248271D01*
X193716Y248812D01*
X193853Y249382D01*
X193888Y249966D01*
X193853Y250550D01*
X193716Y251120D01*
X193492Y251661D01*
X193186Y252160D01*
X192806Y252606D01*
X192360Y252986D01*
X191861Y253292D01*
X191320Y253516D01*
X190750Y253653D01*
X190166Y253699D01*
X190160Y253699D01*
Y314000D01*
G37*
G36*
X174071Y93391D02*X174094Y93346D01*
X174191Y93091D01*
X174264Y92829D01*
X174313Y92561D01*
X174338Y92289D01*
Y92017D01*
X174313Y91745D01*
X174264Y91477D01*
X174191Y91215D01*
X174094Y90960D01*
X174071Y90914D01*
Y93391D01*
G37*
G36*
X183071Y314000D02*X190160D01*
Y253699D01*
X189582Y253653D01*
X189012Y253516D01*
X188471Y253292D01*
X187972Y252986D01*
X187526Y252606D01*
X187146Y252160D01*
X186840Y251661D01*
X186616Y251120D01*
X186479Y250550D01*
X186433Y249966D01*
X186479Y249382D01*
X186616Y248812D01*
X186840Y248271D01*
X187146Y247772D01*
X187526Y247326D01*
X187972Y246946D01*
X188471Y246640D01*
X189012Y246416D01*
X189582Y246279D01*
X190160Y246233D01*
Y28200D01*
X183071D01*
Y161697D01*
X183170Y161285D01*
X183338Y160878D01*
X183569Y160502D01*
X183855Y160167D01*
X184190Y159881D01*
X184566Y159650D01*
X184973Y159482D01*
X185402Y159379D01*
X185841Y159344D01*
X186280Y159379D01*
X186709Y159482D01*
X187116Y159650D01*
X187492Y159881D01*
X187827Y160167D01*
X188113Y160502D01*
X188344Y160878D01*
X188512Y161285D01*
X188615Y161714D01*
X188641Y162153D01*
X188615Y162592D01*
X188512Y163021D01*
X188344Y163428D01*
X188113Y163804D01*
X187827Y164139D01*
X187492Y164425D01*
X187116Y164656D01*
X186709Y164824D01*
X186280Y164927D01*
X185841Y164962D01*
X185402Y164927D01*
X184973Y164824D01*
X184566Y164656D01*
X184190Y164425D01*
X183855Y164139D01*
X183569Y163804D01*
X183338Y163428D01*
X183170Y163021D01*
X183071Y162609D01*
Y164448D01*
X183327Y164667D01*
X183613Y165002D01*
X183844Y165378D01*
X184012Y165785D01*
X184115Y166214D01*
X184141Y166653D01*
X184115Y167092D01*
X184012Y167521D01*
X183844Y167928D01*
X183613Y168304D01*
X183327Y168639D01*
X183071Y168858D01*
Y190367D01*
X183139Y190381D01*
X183212Y190408D01*
X183281Y190447D01*
X183343Y190496D01*
X183396Y190554D01*
X183439Y190619D01*
X183471Y190691D01*
X183547Y190924D01*
X183601Y191164D01*
X183633Y191408D01*
X183644Y191653D01*
X183633Y191898D01*
X183601Y192142D01*
X183547Y192382D01*
X183473Y192616D01*
X183441Y192688D01*
X183397Y192753D01*
X183344Y192812D01*
X183282Y192861D01*
X183213Y192899D01*
X183139Y192927D01*
X183071Y192941D01*
Y314000D01*
G37*
G36*
Y28200D02*X181337D01*
Y163845D01*
X181341Y163844D01*
X181780Y163879D01*
X182209Y163982D01*
X182616Y164150D01*
X182992Y164381D01*
X183071Y164448D01*
Y162609D01*
X183067Y162592D01*
X183032Y162153D01*
X183067Y161714D01*
X183071Y161697D01*
Y28200D01*
G37*
G36*
X181337Y314000D02*X183071D01*
Y192941D01*
X183062Y192943D01*
X182983Y192946D01*
X182904Y192937D01*
X182828Y192916D01*
X182756Y192883D01*
X182691Y192839D01*
X182632Y192786D01*
X182583Y192724D01*
X182545Y192655D01*
X182517Y192581D01*
X182501Y192504D01*
X182498Y192425D01*
X182507Y192346D01*
X182530Y192271D01*
X182579Y192121D01*
X182613Y191967D01*
X182634Y191811D01*
X182641Y191653D01*
X182634Y191495D01*
X182613Y191339D01*
X182579Y191185D01*
X182531Y191035D01*
X182509Y190959D01*
X182500Y190881D01*
X182503Y190803D01*
X182519Y190726D01*
X182546Y190652D01*
X182585Y190583D01*
X182634Y190522D01*
X182692Y190468D01*
X182757Y190425D01*
X182829Y190392D01*
X182905Y190371D01*
X182983Y190362D01*
X183061Y190365D01*
X183071Y190367D01*
Y168858D01*
X182992Y168925D01*
X182616Y169156D01*
X182209Y169324D01*
X181780Y169427D01*
X181341Y169462D01*
X181337Y169461D01*
Y188895D01*
X181570Y188947D01*
X181804Y189021D01*
X181876Y189053D01*
X181941Y189097D01*
X182000Y189150D01*
X182049Y189212D01*
X182087Y189281D01*
X182115Y189355D01*
X182131Y189432D01*
X182134Y189511D01*
X182125Y189590D01*
X182104Y189666D01*
X182071Y189738D01*
X182027Y189803D01*
X181974Y189862D01*
X181912Y189911D01*
X181843Y189949D01*
X181769Y189977D01*
X181692Y189993D01*
X181613Y189996D01*
X181534Y189987D01*
X181459Y189964D01*
X181337Y189924D01*
Y193382D01*
X181459Y193343D01*
X181535Y193321D01*
X181613Y193312D01*
X181691Y193315D01*
X181768Y193331D01*
X181842Y193358D01*
X181911Y193397D01*
X181972Y193446D01*
X182026Y193504D01*
X182069Y193569D01*
X182102Y193641D01*
X182123Y193717D01*
X182132Y193795D01*
X182129Y193873D01*
X182113Y193951D01*
X182086Y194024D01*
X182047Y194093D01*
X181998Y194155D01*
X181940Y194208D01*
X181875Y194251D01*
X181803Y194283D01*
X181570Y194359D01*
X181337Y194411D01*
Y314000D01*
G37*
G36*
X178611Y166030D02*X178670Y165785D01*
X178838Y165378D01*
X179069Y165002D01*
X179355Y164667D01*
X179690Y164381D01*
X180066Y164150D01*
X180473Y163982D01*
X180902Y163879D01*
X181337Y163845D01*
Y28200D01*
X178611D01*
Y159648D01*
X178616Y159650D01*
X178992Y159881D01*
X179327Y160167D01*
X179613Y160502D01*
X179844Y160878D01*
X180012Y161285D01*
X180115Y161714D01*
X180141Y162153D01*
X180115Y162592D01*
X180012Y163021D01*
X179844Y163428D01*
X179613Y163804D01*
X179327Y164139D01*
X178992Y164425D01*
X178616Y164656D01*
X178611Y164658D01*
Y166030D01*
G37*
G36*
Y314000D02*X181337D01*
Y194411D01*
X181330Y194413D01*
X181086Y194445D01*
X180841Y194456D01*
X180596Y194445D01*
X180352Y194413D01*
X180112Y194359D01*
X179878Y194285D01*
X179806Y194253D01*
X179741Y194209D01*
X179682Y194156D01*
X179633Y194094D01*
X179595Y194025D01*
X179567Y193951D01*
X179551Y193874D01*
X179548Y193795D01*
X179557Y193716D01*
X179578Y193640D01*
X179611Y193568D01*
X179655Y193503D01*
X179708Y193444D01*
X179770Y193395D01*
X179839Y193357D01*
X179913Y193329D01*
X179990Y193313D01*
X180069Y193310D01*
X180148Y193319D01*
X180223Y193342D01*
X180373Y193391D01*
X180527Y193425D01*
X180683Y193446D01*
X180841Y193453D01*
X180999Y193446D01*
X181155Y193425D01*
X181309Y193391D01*
X181337Y193382D01*
Y189924D01*
X181309Y189915D01*
X181155Y189881D01*
X180999Y189860D01*
X180841Y189853D01*
X180683Y189860D01*
X180527Y189881D01*
X180373Y189915D01*
X180223Y189963D01*
X180147Y189985D01*
X180069Y189994D01*
X179991Y189991D01*
X179914Y189975D01*
X179840Y189948D01*
X179771Y189909D01*
X179710Y189860D01*
X179656Y189802D01*
X179613Y189737D01*
X179580Y189665D01*
X179559Y189589D01*
X179550Y189511D01*
X179553Y189433D01*
X179569Y189355D01*
X179596Y189282D01*
X179635Y189213D01*
X179684Y189151D01*
X179742Y189098D01*
X179807Y189055D01*
X179879Y189023D01*
X180112Y188947D01*
X180352Y188893D01*
X180596Y188861D01*
X180841Y188850D01*
X181086Y188861D01*
X181330Y188893D01*
X181337Y188895D01*
Y169461D01*
X180902Y169427D01*
X180473Y169324D01*
X180066Y169156D01*
X179690Y168925D01*
X179355Y168639D01*
X179069Y168304D01*
X178838Y167928D01*
X178670Y167521D01*
X178611Y167276D01*
Y190365D01*
X178620Y190363D01*
X178699Y190360D01*
X178778Y190369D01*
X178854Y190390D01*
X178926Y190423D01*
X178991Y190467D01*
X179050Y190520D01*
X179099Y190582D01*
X179137Y190651D01*
X179165Y190725D01*
X179181Y190802D01*
X179184Y190881D01*
X179175Y190960D01*
X179152Y191035D01*
X179103Y191185D01*
X179069Y191339D01*
X179048Y191495D01*
X179041Y191653D01*
X179048Y191811D01*
X179069Y191967D01*
X179103Y192121D01*
X179151Y192271D01*
X179173Y192347D01*
X179182Y192425D01*
X179179Y192503D01*
X179163Y192580D01*
X179136Y192654D01*
X179097Y192723D01*
X179048Y192784D01*
X178990Y192838D01*
X178925Y192881D01*
X178853Y192914D01*
X178777Y192935D01*
X178699Y192944D01*
X178621Y192941D01*
X178611Y192939D01*
Y314000D01*
G37*
G36*
Y28200D02*X177337D01*
Y159345D01*
X177341Y159344D01*
X177780Y159379D01*
X178209Y159482D01*
X178611Y159648D01*
Y28200D01*
G37*
G36*
X177337Y314000D02*X178611D01*
Y192939D01*
X178543Y192925D01*
X178470Y192898D01*
X178401Y192859D01*
X178339Y192810D01*
X178286Y192752D01*
X178243Y192687D01*
X178211Y192615D01*
X178135Y192382D01*
X178081Y192142D01*
X178049Y191898D01*
X178038Y191653D01*
X178049Y191408D01*
X178081Y191164D01*
X178135Y190924D01*
X178209Y190690D01*
X178241Y190618D01*
X178285Y190553D01*
X178338Y190494D01*
X178400Y190445D01*
X178469Y190407D01*
X178543Y190379D01*
X178611Y190365D01*
Y167276D01*
X178567Y167092D01*
X178532Y166653D01*
X178567Y166214D01*
X178611Y166030D01*
Y164658D01*
X178209Y164824D01*
X177780Y164927D01*
X177341Y164962D01*
X177337Y164961D01*
Y314000D01*
G37*
G36*
X174071D02*X177337D01*
Y164961D01*
X176902Y164927D01*
X176473Y164824D01*
X176066Y164656D01*
X175690Y164425D01*
X175355Y164139D01*
X175069Y163804D01*
X174838Y163428D01*
X174670Y163021D01*
X174567Y162592D01*
X174532Y162153D01*
X174567Y161714D01*
X174670Y161285D01*
X174838Y160878D01*
X175069Y160502D01*
X175355Y160167D01*
X175690Y159881D01*
X176066Y159650D01*
X176473Y159482D01*
X176902Y159379D01*
X177337Y159345D01*
Y28200D01*
X174071D01*
Y90111D01*
X174107Y90079D01*
X174173Y90036D01*
X174245Y90004D01*
X174321Y89983D01*
X174399Y89975D01*
X174477Y89979D01*
X174554Y89995D01*
X174628Y90023D01*
X174696Y90062D01*
X174757Y90111D01*
X174810Y90170D01*
X174852Y90236D01*
X175015Y90561D01*
X175144Y90901D01*
X175242Y91251D01*
X175308Y91609D01*
X175341Y91971D01*
Y92335D01*
X175308Y92697D01*
X175242Y93055D01*
X175144Y93405D01*
X175015Y93745D01*
X174856Y94072D01*
X174813Y94138D01*
X174760Y94197D01*
X174698Y94247D01*
X174629Y94286D01*
X174555Y94314D01*
X174478Y94330D01*
X174399Y94334D01*
X174320Y94326D01*
X174244Y94305D01*
X174171Y94273D01*
X174105Y94230D01*
X174071Y94199D01*
Y130367D01*
X174139Y130381D01*
X174212Y130408D01*
X174281Y130447D01*
X174343Y130496D01*
X174396Y130554D01*
X174439Y130619D01*
X174471Y130691D01*
X174547Y130924D01*
X174601Y131164D01*
X174633Y131408D01*
X174644Y131653D01*
X174633Y131898D01*
X174601Y132142D01*
X174547Y132382D01*
X174473Y132616D01*
X174441Y132688D01*
X174397Y132753D01*
X174344Y132812D01*
X174282Y132861D01*
X174213Y132899D01*
X174139Y132927D01*
X174071Y132941D01*
Y150367D01*
X174139Y150381D01*
X174212Y150408D01*
X174281Y150447D01*
X174343Y150496D01*
X174396Y150554D01*
X174439Y150619D01*
X174471Y150691D01*
X174547Y150924D01*
X174601Y151164D01*
X174633Y151408D01*
X174644Y151653D01*
X174633Y151898D01*
X174601Y152142D01*
X174547Y152382D01*
X174473Y152616D01*
X174441Y152688D01*
X174397Y152753D01*
X174344Y152812D01*
X174282Y152861D01*
X174213Y152899D01*
X174139Y152927D01*
X174071Y152941D01*
Y163949D01*
X174209Y163982D01*
X174616Y164150D01*
X174992Y164381D01*
X175327Y164667D01*
X175613Y165002D01*
X175844Y165378D01*
X176012Y165785D01*
X176115Y166214D01*
X176141Y166653D01*
X176115Y167092D01*
X176012Y167521D01*
X175844Y167928D01*
X175613Y168304D01*
X175327Y168639D01*
X174992Y168925D01*
X174616Y169156D01*
X174209Y169324D01*
X174071Y169357D01*
Y298042D01*
X174375Y298115D01*
X174738Y298266D01*
X175074Y298471D01*
X175373Y298727D01*
X175629Y299026D01*
X175834Y299362D01*
X175985Y299725D01*
X176077Y300108D01*
X176100Y300500D01*
X176077Y300892D01*
X175985Y301275D01*
X175834Y301638D01*
X175629Y301974D01*
X175373Y302273D01*
X175074Y302529D01*
X174738Y302734D01*
X174375Y302885D01*
X174071Y302958D01*
Y314000D01*
G37*
G36*
Y169357D02*X173780Y169427D01*
X173341Y169462D01*
X172902Y169427D01*
X172473Y169324D01*
X172066Y169156D01*
X171842Y169018D01*
Y298714D01*
X172126Y298471D01*
X172462Y298266D01*
X172825Y298115D01*
X173208Y298023D01*
X173600Y297992D01*
X173992Y298023D01*
X174071Y298042D01*
Y169357D01*
G37*
G36*
Y28200D02*X171842D01*
Y88182D01*
X171885Y88186D01*
X172243Y88252D01*
X172593Y88350D01*
X172933Y88479D01*
X173260Y88638D01*
X173326Y88681D01*
X173385Y88734D01*
X173435Y88796D01*
X173474Y88865D01*
X173502Y88939D01*
X173518Y89016D01*
X173522Y89095D01*
X173514Y89174D01*
X173493Y89250D01*
X173461Y89323D01*
X173418Y89389D01*
X173365Y89448D01*
X173303Y89497D01*
X173234Y89537D01*
X173160Y89565D01*
X173083Y89581D01*
X173004Y89585D01*
X172925Y89577D01*
X172848Y89556D01*
X172777Y89523D01*
X172534Y89400D01*
X172279Y89303D01*
X172017Y89230D01*
X171842Y89198D01*
Y95108D01*
X172017Y95076D01*
X172279Y95003D01*
X172534Y94906D01*
X172778Y94786D01*
X172850Y94753D01*
X172926Y94732D01*
X173004Y94724D01*
X173082Y94728D01*
X173159Y94744D01*
X173233Y94772D01*
X173301Y94811D01*
X173362Y94860D01*
X173415Y94919D01*
X173458Y94985D01*
X173490Y95057D01*
X173511Y95133D01*
X173519Y95211D01*
X173515Y95289D01*
X173499Y95366D01*
X173471Y95440D01*
X173432Y95508D01*
X173383Y95569D01*
X173324Y95622D01*
X173258Y95664D01*
X172933Y95827D01*
X172593Y95956D01*
X172243Y96054D01*
X171885Y96120D01*
X171842Y96124D01*
Y128850D01*
X172086Y128861D01*
X172330Y128893D01*
X172570Y128947D01*
X172804Y129021D01*
X172876Y129053D01*
X172941Y129097D01*
X173000Y129150D01*
X173049Y129212D01*
X173087Y129281D01*
X173115Y129355D01*
X173131Y129432D01*
X173134Y129511D01*
X173125Y129590D01*
X173104Y129666D01*
X173071Y129738D01*
X173027Y129803D01*
X172974Y129862D01*
X172912Y129911D01*
X172843Y129949D01*
X172769Y129977D01*
X172692Y129993D01*
X172613Y129996D01*
X172534Y129987D01*
X172459Y129964D01*
X172309Y129915D01*
X172155Y129881D01*
X171999Y129860D01*
X171842Y129853D01*
Y133453D01*
X171999Y133446D01*
X172155Y133425D01*
X172309Y133391D01*
X172459Y133343D01*
X172535Y133321D01*
X172613Y133312D01*
X172691Y133315D01*
X172768Y133331D01*
X172842Y133358D01*
X172911Y133397D01*
X172972Y133446D01*
X173026Y133504D01*
X173069Y133569D01*
X173102Y133641D01*
X173123Y133717D01*
X173132Y133795D01*
X173129Y133873D01*
X173113Y133951D01*
X173086Y134024D01*
X173047Y134093D01*
X172998Y134155D01*
X172940Y134208D01*
X172875Y134251D01*
X172803Y134283D01*
X172570Y134359D01*
X172330Y134413D01*
X172086Y134445D01*
X171842Y134456D01*
Y137537D01*
X172116Y137650D01*
X172492Y137881D01*
X172827Y138167D01*
X173113Y138502D01*
X173344Y138878D01*
X173512Y139285D01*
X173615Y139714D01*
X173641Y140153D01*
X173615Y140592D01*
X173512Y141021D01*
X173344Y141428D01*
X173113Y141804D01*
X172827Y142139D01*
X172492Y142425D01*
X172116Y142656D01*
X171842Y142769D01*
Y148850D01*
X172086Y148861D01*
X172330Y148893D01*
X172570Y148947D01*
X172804Y149021D01*
X172876Y149053D01*
X172941Y149097D01*
X173000Y149150D01*
X173049Y149212D01*
X173087Y149281D01*
X173115Y149355D01*
X173131Y149432D01*
X173134Y149511D01*
X173125Y149590D01*
X173104Y149666D01*
X173071Y149738D01*
X173027Y149803D01*
X172974Y149862D01*
X172912Y149911D01*
X172843Y149949D01*
X172769Y149977D01*
X172692Y149993D01*
X172613Y149996D01*
X172534Y149987D01*
X172459Y149964D01*
X172309Y149915D01*
X172155Y149881D01*
X171999Y149860D01*
X171842Y149853D01*
Y153453D01*
X171999Y153446D01*
X172155Y153425D01*
X172309Y153391D01*
X172459Y153343D01*
X172535Y153321D01*
X172613Y153312D01*
X172691Y153315D01*
X172768Y153331D01*
X172842Y153358D01*
X172911Y153397D01*
X172972Y153446D01*
X173026Y153504D01*
X173069Y153569D01*
X173102Y153641D01*
X173123Y153717D01*
X173132Y153795D01*
X173129Y153873D01*
X173113Y153951D01*
X173086Y154024D01*
X173047Y154093D01*
X172998Y154155D01*
X172940Y154208D01*
X172875Y154251D01*
X172803Y154283D01*
X172570Y154359D01*
X172330Y154413D01*
X172086Y154445D01*
X171842Y154456D01*
Y164288D01*
X172066Y164150D01*
X172473Y163982D01*
X172902Y163879D01*
X173341Y163844D01*
X173780Y163879D01*
X174071Y163949D01*
Y152941D01*
X174062Y152943D01*
X173983Y152946D01*
X173904Y152937D01*
X173828Y152916D01*
X173756Y152883D01*
X173691Y152839D01*
X173632Y152786D01*
X173583Y152724D01*
X173545Y152655D01*
X173517Y152581D01*
X173501Y152504D01*
X173498Y152425D01*
X173507Y152346D01*
X173530Y152271D01*
X173579Y152121D01*
X173613Y151967D01*
X173634Y151811D01*
X173641Y151653D01*
X173634Y151495D01*
X173613Y151339D01*
X173579Y151185D01*
X173531Y151035D01*
X173509Y150959D01*
X173500Y150881D01*
X173503Y150803D01*
X173519Y150726D01*
X173546Y150652D01*
X173585Y150583D01*
X173634Y150522D01*
X173692Y150468D01*
X173757Y150425D01*
X173829Y150392D01*
X173905Y150371D01*
X173983Y150362D01*
X174061Y150365D01*
X174071Y150367D01*
Y132941D01*
X174062Y132943D01*
X173983Y132946D01*
X173904Y132937D01*
X173828Y132916D01*
X173756Y132883D01*
X173691Y132839D01*
X173632Y132786D01*
X173583Y132724D01*
X173545Y132655D01*
X173517Y132581D01*
X173501Y132504D01*
X173498Y132425D01*
X173507Y132346D01*
X173530Y132271D01*
X173579Y132121D01*
X173613Y131967D01*
X173634Y131811D01*
X173641Y131653D01*
X173634Y131495D01*
X173613Y131339D01*
X173579Y131185D01*
X173531Y131035D01*
X173509Y130959D01*
X173500Y130881D01*
X173503Y130803D01*
X173519Y130726D01*
X173546Y130652D01*
X173585Y130583D01*
X173634Y130522D01*
X173692Y130468D01*
X173757Y130425D01*
X173829Y130392D01*
X173905Y130371D01*
X173983Y130362D01*
X174061Y130365D01*
X174071Y130367D01*
Y94199D01*
X174046Y94177D01*
X173997Y94115D01*
X173957Y94046D01*
X173929Y93972D01*
X173913Y93895D01*
X173909Y93816D01*
X173917Y93737D01*
X173938Y93660D01*
X173971Y93589D01*
X174071Y93391D01*
Y90914D01*
X173974Y90716D01*
X173941Y90644D01*
X173920Y90568D01*
X173912Y90490D01*
X173916Y90412D01*
X173932Y90335D01*
X173960Y90261D01*
X173999Y90193D01*
X174048Y90132D01*
X174071Y90111D01*
Y28200D01*
G37*
G36*
X171842Y314000D02*X174071D01*
Y302958D01*
X173992Y302977D01*
X173600Y303008D01*
X173208Y302977D01*
X172825Y302885D01*
X172462Y302734D01*
X172126Y302529D01*
X171842Y302286D01*
Y314000D01*
G37*
G36*
X169611Y88548D02*X169749Y88479D01*
X170089Y88350D01*
X170439Y88252D01*
X170797Y88186D01*
X171159Y88153D01*
X171523D01*
X171842Y88182D01*
Y28200D01*
X169611D01*
Y88548D01*
G37*
G36*
Y94724D02*X169678Y94721D01*
X169757Y94729D01*
X169834Y94750D01*
X169905Y94783D01*
X170148Y94906D01*
X170403Y95003D01*
X170665Y95076D01*
X170933Y95125D01*
X171205Y95150D01*
X171477D01*
X171749Y95125D01*
X171842Y95108D01*
Y89198D01*
X171749Y89181D01*
X171477Y89156D01*
X171205D01*
X170933Y89181D01*
X170665Y89230D01*
X170403Y89303D01*
X170148Y89400D01*
X169904Y89520D01*
X169832Y89553D01*
X169756Y89574D01*
X169678Y89582D01*
X169611Y89579D01*
Y94724D01*
G37*
G36*
Y137632D02*X169973Y137482D01*
X170402Y137379D01*
X170841Y137344D01*
X171280Y137379D01*
X171709Y137482D01*
X171842Y137537D01*
Y134456D01*
X171841Y134456D01*
X171596Y134445D01*
X171352Y134413D01*
X171112Y134359D01*
X170878Y134285D01*
X170806Y134253D01*
X170741Y134209D01*
X170682Y134156D01*
X170633Y134094D01*
X170595Y134025D01*
X170567Y133951D01*
X170551Y133874D01*
X170548Y133795D01*
X170557Y133716D01*
X170578Y133640D01*
X170611Y133568D01*
X170655Y133503D01*
X170708Y133444D01*
X170770Y133395D01*
X170839Y133357D01*
X170913Y133329D01*
X170990Y133313D01*
X171069Y133310D01*
X171148Y133319D01*
X171223Y133342D01*
X171373Y133391D01*
X171527Y133425D01*
X171683Y133446D01*
X171841Y133453D01*
X171842Y133453D01*
Y129853D01*
X171841Y129853D01*
X171683Y129860D01*
X171527Y129881D01*
X171373Y129915D01*
X171223Y129963D01*
X171147Y129985D01*
X171069Y129994D01*
X170991Y129991D01*
X170914Y129975D01*
X170840Y129948D01*
X170771Y129909D01*
X170710Y129860D01*
X170656Y129802D01*
X170613Y129737D01*
X170580Y129665D01*
X170559Y129589D01*
X170550Y129511D01*
X170553Y129433D01*
X170569Y129355D01*
X170596Y129282D01*
X170635Y129213D01*
X170684Y129151D01*
X170742Y129098D01*
X170807Y129055D01*
X170879Y129023D01*
X171112Y128947D01*
X171352Y128893D01*
X171596Y128861D01*
X171841Y128850D01*
X171842Y128850D01*
Y96124D01*
X171523Y96153D01*
X171159D01*
X170797Y96120D01*
X170439Y96054D01*
X170089Y95956D01*
X169749Y95827D01*
X169611Y95760D01*
Y130365D01*
X169620Y130363D01*
X169699Y130360D01*
X169778Y130369D01*
X169854Y130390D01*
X169926Y130423D01*
X169991Y130467D01*
X170050Y130520D01*
X170099Y130582D01*
X170137Y130651D01*
X170165Y130725D01*
X170181Y130802D01*
X170184Y130881D01*
X170175Y130960D01*
X170152Y131035D01*
X170103Y131185D01*
X170069Y131339D01*
X170048Y131495D01*
X170041Y131653D01*
X170048Y131811D01*
X170069Y131967D01*
X170103Y132121D01*
X170151Y132271D01*
X170173Y132347D01*
X170182Y132425D01*
X170179Y132503D01*
X170163Y132580D01*
X170136Y132654D01*
X170097Y132723D01*
X170048Y132784D01*
X169990Y132838D01*
X169925Y132881D01*
X169853Y132914D01*
X169777Y132935D01*
X169699Y132944D01*
X169621Y132941D01*
X169611Y132939D01*
Y137632D01*
G37*
G36*
Y297993D02*X169992Y298023D01*
X170375Y298115D01*
X170738Y298266D01*
X171074Y298471D01*
X171373Y298727D01*
X171600Y298992D01*
X171827Y298727D01*
X171842Y298714D01*
Y169018D01*
X171690Y168925D01*
X171355Y168639D01*
X171069Y168304D01*
X170838Y167928D01*
X170670Y167521D01*
X170567Y167092D01*
X170532Y166653D01*
X170567Y166214D01*
X170670Y165785D01*
X170838Y165378D01*
X171069Y165002D01*
X171355Y164667D01*
X171690Y164381D01*
X171842Y164288D01*
Y154456D01*
X171841Y154456D01*
X171596Y154445D01*
X171352Y154413D01*
X171112Y154359D01*
X170878Y154285D01*
X170806Y154253D01*
X170741Y154209D01*
X170682Y154156D01*
X170633Y154094D01*
X170595Y154025D01*
X170567Y153951D01*
X170551Y153874D01*
X170548Y153795D01*
X170557Y153716D01*
X170578Y153640D01*
X170611Y153568D01*
X170655Y153503D01*
X170708Y153444D01*
X170770Y153395D01*
X170839Y153357D01*
X170913Y153329D01*
X170990Y153313D01*
X171069Y153310D01*
X171148Y153319D01*
X171223Y153342D01*
X171373Y153391D01*
X171527Y153425D01*
X171683Y153446D01*
X171841Y153453D01*
X171842Y153453D01*
Y149853D01*
X171841Y149853D01*
X171683Y149860D01*
X171527Y149881D01*
X171373Y149915D01*
X171223Y149963D01*
X171147Y149985D01*
X171069Y149994D01*
X170991Y149991D01*
X170914Y149975D01*
X170840Y149948D01*
X170771Y149909D01*
X170710Y149860D01*
X170656Y149802D01*
X170613Y149737D01*
X170580Y149665D01*
X170559Y149589D01*
X170550Y149511D01*
X170553Y149433D01*
X170569Y149355D01*
X170596Y149282D01*
X170635Y149213D01*
X170684Y149151D01*
X170742Y149098D01*
X170807Y149055D01*
X170879Y149023D01*
X171112Y148947D01*
X171352Y148893D01*
X171596Y148861D01*
X171841Y148850D01*
X171842Y148850D01*
Y142769D01*
X171709Y142824D01*
X171280Y142927D01*
X170841Y142962D01*
X170402Y142927D01*
X169973Y142824D01*
X169611Y142674D01*
Y150365D01*
X169620Y150363D01*
X169699Y150360D01*
X169778Y150369D01*
X169854Y150390D01*
X169926Y150423D01*
X169991Y150467D01*
X170050Y150520D01*
X170099Y150582D01*
X170137Y150651D01*
X170165Y150725D01*
X170181Y150802D01*
X170184Y150881D01*
X170175Y150960D01*
X170152Y151035D01*
X170103Y151185D01*
X170069Y151339D01*
X170048Y151495D01*
X170041Y151653D01*
X170048Y151811D01*
X170069Y151967D01*
X170103Y152121D01*
X170151Y152271D01*
X170173Y152347D01*
X170182Y152425D01*
X170179Y152503D01*
X170163Y152580D01*
X170136Y152654D01*
X170097Y152723D01*
X170048Y152784D01*
X169990Y152838D01*
X169925Y152881D01*
X169853Y152914D01*
X169777Y152935D01*
X169699Y152944D01*
X169621Y152941D01*
X169611Y152939D01*
Y154648D01*
X169616Y154650D01*
X169992Y154881D01*
X170327Y155167D01*
X170613Y155502D01*
X170844Y155878D01*
X171012Y156285D01*
X171115Y156714D01*
X171141Y157153D01*
X171115Y157592D01*
X171012Y158021D01*
X170844Y158428D01*
X170613Y158804D01*
X170327Y159139D01*
X169992Y159425D01*
X169616Y159656D01*
X169611Y159658D01*
Y168266D01*
X169674Y168320D01*
X169960Y168655D01*
X170191Y169031D01*
X170359Y169438D01*
X170462Y169867D01*
X170488Y170306D01*
X170462Y170745D01*
X170359Y171174D01*
X170191Y171581D01*
X169960Y171957D01*
X169674Y172292D01*
X169611Y172346D01*
Y297993D01*
G37*
G36*
Y314000D02*X171842D01*
Y302286D01*
X171827Y302273D01*
X171600Y302008D01*
X171373Y302273D01*
X171074Y302529D01*
X170738Y302734D01*
X170375Y302885D01*
X169992Y302977D01*
X169611Y303007D01*
Y314000D01*
G37*
G36*
X168057Y139838D02*X168067Y139714D01*
X168170Y139285D01*
X168338Y138878D01*
X168569Y138502D01*
X168855Y138167D01*
X169190Y137881D01*
X169566Y137650D01*
X169611Y137632D01*
Y132939D01*
X169543Y132925D01*
X169470Y132898D01*
X169401Y132859D01*
X169339Y132810D01*
X169286Y132752D01*
X169243Y132687D01*
X169211Y132615D01*
X169135Y132382D01*
X169081Y132142D01*
X169049Y131898D01*
X169038Y131653D01*
X169049Y131408D01*
X169081Y131164D01*
X169135Y130924D01*
X169209Y130690D01*
X169241Y130618D01*
X169285Y130553D01*
X169338Y130494D01*
X169400Y130445D01*
X169469Y130407D01*
X169543Y130379D01*
X169611Y130365D01*
Y95760D01*
X169422Y95668D01*
X169356Y95625D01*
X169297Y95572D01*
X169247Y95510D01*
X169208Y95441D01*
X169180Y95367D01*
X169164Y95290D01*
X169160Y95211D01*
X169168Y95132D01*
X169189Y95056D01*
X169221Y94983D01*
X169264Y94917D01*
X169317Y94858D01*
X169379Y94809D01*
X169448Y94769D01*
X169522Y94741D01*
X169599Y94725D01*
X169611Y94724D01*
Y89579D01*
X169600Y89578D01*
X169523Y89562D01*
X169449Y89534D01*
X169381Y89495D01*
X169320Y89446D01*
X169267Y89387D01*
X169224Y89321D01*
X169192Y89249D01*
X169171Y89173D01*
X169163Y89095D01*
X169167Y89017D01*
X169183Y88940D01*
X169211Y88866D01*
X169250Y88798D01*
X169299Y88737D01*
X169358Y88684D01*
X169424Y88642D01*
X169611Y88548D01*
Y28200D01*
X168057D01*
Y90018D01*
X168127Y89992D01*
X168204Y89976D01*
X168283Y89972D01*
X168362Y89980D01*
X168438Y90001D01*
X168511Y90033D01*
X168577Y90076D01*
X168636Y90129D01*
X168685Y90191D01*
X168725Y90260D01*
X168753Y90334D01*
X168769Y90411D01*
X168773Y90490D01*
X168765Y90569D01*
X168744Y90646D01*
X168711Y90717D01*
X168588Y90960D01*
X168491Y91215D01*
X168418Y91477D01*
X168369Y91745D01*
X168344Y92017D01*
Y92289D01*
X168369Y92561D01*
X168418Y92829D01*
X168491Y93091D01*
X168588Y93346D01*
X168708Y93590D01*
X168741Y93662D01*
X168762Y93738D01*
X168770Y93816D01*
X168766Y93894D01*
X168750Y93971D01*
X168722Y94045D01*
X168683Y94113D01*
X168634Y94174D01*
X168575Y94227D01*
X168509Y94270D01*
X168437Y94302D01*
X168361Y94323D01*
X168283Y94331D01*
X168205Y94327D01*
X168128Y94311D01*
X168057Y94284D01*
Y139838D01*
G37*
G36*
Y154367D02*X168341Y154344D01*
X168780Y154379D01*
X169209Y154482D01*
X169611Y154648D01*
Y152939D01*
X169543Y152925D01*
X169470Y152898D01*
X169401Y152859D01*
X169339Y152810D01*
X169286Y152752D01*
X169243Y152687D01*
X169211Y152615D01*
X169135Y152382D01*
X169081Y152142D01*
X169049Y151898D01*
X169038Y151653D01*
X169049Y151408D01*
X169081Y151164D01*
X169135Y150924D01*
X169209Y150690D01*
X169241Y150618D01*
X169285Y150553D01*
X169338Y150494D01*
X169400Y150445D01*
X169469Y150407D01*
X169543Y150379D01*
X169611Y150365D01*
Y142674D01*
X169566Y142656D01*
X169190Y142425D01*
X168855Y142139D01*
X168569Y141804D01*
X168338Y141428D01*
X168170Y141021D01*
X168067Y140592D01*
X168057Y140468D01*
Y142973D01*
X168115Y143214D01*
X168141Y143653D01*
X168115Y144092D01*
X168057Y144333D01*
Y154367D01*
G37*
G36*
Y167526D02*X168127Y167532D01*
X168556Y167635D01*
X168963Y167803D01*
X169339Y168034D01*
X169611Y168266D01*
Y159658D01*
X169209Y159824D01*
X168780Y159927D01*
X168341Y159962D01*
X168057Y159939D01*
Y160937D01*
X168327Y161167D01*
X168613Y161502D01*
X168844Y161878D01*
X169012Y162285D01*
X169115Y162714D01*
X169141Y163153D01*
X169115Y163592D01*
X169012Y164021D01*
X168844Y164428D01*
X168613Y164804D01*
X168327Y165139D01*
X168057Y165369D01*
Y167526D01*
G37*
G36*
Y298530D02*X168126Y298471D01*
X168462Y298266D01*
X168825Y298115D01*
X169208Y298023D01*
X169600Y297992D01*
X169611Y297993D01*
Y172346D01*
X169339Y172578D01*
X168963Y172809D01*
X168556Y172977D01*
X168127Y173080D01*
X168057Y173086D01*
Y298530D01*
G37*
G36*
X165243Y140852D02*X165341Y140844D01*
X165780Y140879D01*
X166209Y140982D01*
X166616Y141150D01*
X166992Y141381D01*
X167327Y141667D01*
X167613Y142002D01*
X167844Y142378D01*
X168012Y142785D01*
X168057Y142973D01*
Y140468D01*
X168032Y140153D01*
X168057Y139838D01*
Y94284D01*
X168054Y94283D01*
X167986Y94244D01*
X167925Y94195D01*
X167872Y94136D01*
X167830Y94070D01*
X167667Y93745D01*
X167538Y93405D01*
X167440Y93055D01*
X167374Y92697D01*
X167341Y92335D01*
Y91971D01*
X167374Y91609D01*
X167440Y91251D01*
X167538Y90901D01*
X167667Y90561D01*
X167826Y90234D01*
X167869Y90168D01*
X167922Y90109D01*
X167984Y90059D01*
X168053Y90020D01*
X168057Y90018D01*
Y28200D01*
X165243D01*
Y129075D01*
X165559Y129100D01*
X165988Y129203D01*
X166395Y129371D01*
X166771Y129602D01*
X167106Y129888D01*
X167392Y130223D01*
X167623Y130599D01*
X167791Y131006D01*
X167894Y131435D01*
X167920Y131874D01*
X167894Y132313D01*
X167791Y132742D01*
X167623Y133149D01*
X167392Y133525D01*
X167106Y133860D01*
X166771Y134146D01*
X166395Y134377D01*
X165988Y134545D01*
X165559Y134648D01*
X165243Y134673D01*
Y140852D01*
G37*
G36*
Y160577D02*X165473Y160482D01*
X165902Y160379D01*
X166341Y160344D01*
X166780Y160379D01*
X167209Y160482D01*
X167616Y160650D01*
X167992Y160881D01*
X168057Y160937D01*
Y159939D01*
X167902Y159927D01*
X167473Y159824D01*
X167066Y159656D01*
X166690Y159425D01*
X166355Y159139D01*
X166069Y158804D01*
X165838Y158428D01*
X165670Y158021D01*
X165567Y157592D01*
X165532Y157153D01*
X165567Y156714D01*
X165670Y156285D01*
X165838Y155878D01*
X166069Y155502D01*
X166355Y155167D01*
X166690Y154881D01*
X167066Y154650D01*
X167473Y154482D01*
X167902Y154379D01*
X168057Y154367D01*
Y144333D01*
X168012Y144521D01*
X167844Y144928D01*
X167613Y145304D01*
X167327Y145639D01*
X166992Y145925D01*
X166616Y146156D01*
X166209Y146324D01*
X165780Y146427D01*
X165341Y146462D01*
X165243Y146454D01*
Y148751D01*
X165247Y148750D01*
X165686Y148785D01*
X166115Y148888D01*
X166522Y149056D01*
X166898Y149287D01*
X167233Y149573D01*
X167519Y149908D01*
X167750Y150284D01*
X167918Y150691D01*
X168021Y151120D01*
X168047Y151559D01*
X168021Y151998D01*
X167918Y152427D01*
X167750Y152834D01*
X167519Y153210D01*
X167233Y153545D01*
X166898Y153831D01*
X166522Y154062D01*
X166115Y154230D01*
X165686Y154333D01*
X165247Y154368D01*
X165243Y154367D01*
Y160577D01*
G37*
G36*
Y168938D02*X165416Y168655D01*
X165702Y168320D01*
X166037Y168034D01*
X166413Y167803D01*
X166820Y167635D01*
X167249Y167532D01*
X167688Y167497D01*
X168057Y167526D01*
Y165369D01*
X167992Y165425D01*
X167616Y165656D01*
X167209Y165824D01*
X166780Y165927D01*
X166341Y165962D01*
X165902Y165927D01*
X165473Y165824D01*
X165243Y165729D01*
Y168938D01*
G37*
G36*
Y298039D02*X165308Y298023D01*
X165700Y297992D01*
X166092Y298023D01*
X166475Y298115D01*
X166838Y298266D01*
X167174Y298471D01*
X167473Y298727D01*
X167650Y298934D01*
X167827Y298727D01*
X168057Y298530D01*
Y173086D01*
X167688Y173115D01*
X167249Y173080D01*
X166820Y172977D01*
X166413Y172809D01*
X166037Y172578D01*
X165702Y172292D01*
X165416Y171957D01*
X165243Y171674D01*
Y239948D01*
X165393Y240077D01*
X165649Y240376D01*
X165854Y240712D01*
X166005Y241075D01*
X166097Y241458D01*
X166120Y241850D01*
X166097Y242242D01*
X166005Y242625D01*
X165854Y242988D01*
X165649Y243324D01*
X165393Y243623D01*
X165243Y243752D01*
Y259634D01*
X165293Y259677D01*
X165549Y259976D01*
X165754Y260312D01*
X165905Y260675D01*
X165997Y261058D01*
X166020Y261450D01*
X165997Y261842D01*
X165905Y262225D01*
X165754Y262588D01*
X165549Y262924D01*
X165293Y263223D01*
X165243Y263266D01*
Y298039D01*
G37*
G36*
X158335Y298057D02*X158575Y298115D01*
X158938Y298266D01*
X159274Y298471D01*
X159573Y298727D01*
X159750Y298934D01*
X159927Y298727D01*
X160226Y298471D01*
X160562Y298266D01*
X160925Y298115D01*
X161308Y298023D01*
X161700Y297992D01*
X162092Y298023D01*
X162475Y298115D01*
X162838Y298266D01*
X163174Y298471D01*
X163473Y298727D01*
X163700Y298992D01*
X163927Y298727D01*
X164226Y298471D01*
X164562Y298266D01*
X164925Y298115D01*
X165243Y298039D01*
Y263266D01*
X164994Y263479D01*
X164658Y263684D01*
X164295Y263835D01*
X163912Y263927D01*
X163520Y263958D01*
X163128Y263927D01*
X162745Y263835D01*
X162382Y263684D01*
X162046Y263479D01*
X161747Y263223D01*
X161491Y262924D01*
X161286Y262588D01*
X161135Y262225D01*
X161043Y261842D01*
X161012Y261450D01*
X161043Y261058D01*
X161135Y260675D01*
X161286Y260312D01*
X161491Y259976D01*
X161747Y259677D01*
X162046Y259421D01*
X162382Y259216D01*
X162745Y259065D01*
X163128Y258973D01*
X163520Y258942D01*
X163912Y258973D01*
X164295Y259065D01*
X164658Y259216D01*
X164994Y259421D01*
X165243Y259634D01*
Y243752D01*
X165094Y243879D01*
X164758Y244084D01*
X164395Y244235D01*
X164012Y244327D01*
X163620Y244358D01*
X163228Y244327D01*
X162845Y244235D01*
X162482Y244084D01*
X162146Y243879D01*
X161847Y243623D01*
X161591Y243324D01*
X161386Y242988D01*
X161235Y242625D01*
X161143Y242242D01*
X161112Y241850D01*
X161143Y241458D01*
X161235Y241075D01*
X161386Y240712D01*
X161591Y240376D01*
X161847Y240077D01*
X162146Y239821D01*
X162482Y239616D01*
X162845Y239465D01*
X163228Y239373D01*
X163620Y239342D01*
X164012Y239373D01*
X164395Y239465D01*
X164758Y239616D01*
X165094Y239821D01*
X165243Y239948D01*
Y171674D01*
X165185Y171581D01*
X165017Y171174D01*
X164914Y170745D01*
X164879Y170306D01*
X164914Y169867D01*
X165017Y169438D01*
X165185Y169031D01*
X165243Y168938D01*
Y165729D01*
X165066Y165656D01*
X164690Y165425D01*
X164355Y165139D01*
X164069Y164804D01*
X163838Y164428D01*
X163670Y164021D01*
X163567Y163592D01*
X163532Y163153D01*
X163567Y162714D01*
X163670Y162285D01*
X163838Y161878D01*
X164069Y161502D01*
X164355Y161167D01*
X164690Y160881D01*
X165066Y160650D01*
X165243Y160577D01*
Y154367D01*
X164808Y154333D01*
X164379Y154230D01*
X163972Y154062D01*
X163596Y153831D01*
X163261Y153545D01*
X162975Y153210D01*
X162744Y152834D01*
X162576Y152427D01*
X162473Y151998D01*
X162438Y151559D01*
X162473Y151120D01*
X162576Y150691D01*
X162744Y150284D01*
X162975Y149908D01*
X163261Y149573D01*
X163596Y149287D01*
X163972Y149056D01*
X164379Y148888D01*
X164808Y148785D01*
X165243Y148751D01*
Y146454D01*
X164902Y146427D01*
X164473Y146324D01*
X164066Y146156D01*
X163690Y145925D01*
X163355Y145639D01*
X163069Y145304D01*
X162838Y144928D01*
X162670Y144521D01*
X162567Y144092D01*
X162532Y143653D01*
X162567Y143214D01*
X162670Y142785D01*
X162838Y142378D01*
X163069Y142002D01*
X163355Y141667D01*
X163690Y141381D01*
X164066Y141150D01*
X164473Y140982D01*
X164902Y140879D01*
X165243Y140852D01*
Y134673D01*
X165120Y134683D01*
X164681Y134648D01*
X164252Y134545D01*
X163845Y134377D01*
X163469Y134146D01*
X163134Y133860D01*
X162848Y133525D01*
X162617Y133149D01*
X162449Y132742D01*
X162346Y132313D01*
X162311Y131874D01*
X162346Y131435D01*
X162449Y131006D01*
X162617Y130599D01*
X162848Y130223D01*
X163134Y129888D01*
X163469Y129602D01*
X163845Y129371D01*
X164252Y129203D01*
X164681Y129100D01*
X165120Y129065D01*
X165243Y129075D01*
Y28200D01*
X158335D01*
Y96278D01*
X158581Y96337D01*
X159163Y96578D01*
X159699Y96907D01*
X160178Y97316D01*
X160587Y97795D01*
X160916Y98331D01*
X161157Y98913D01*
X161304Y99525D01*
X161341Y100153D01*
X161304Y100781D01*
X161157Y101393D01*
X160916Y101975D01*
X160587Y102511D01*
X160178Y102990D01*
X159699Y103399D01*
X159163Y103728D01*
X158581Y103969D01*
X158335Y104028D01*
Y109641D01*
X158341Y109641D01*
X158969Y109690D01*
X159581Y109837D01*
X160163Y110078D01*
X160699Y110407D01*
X161178Y110816D01*
X161587Y111295D01*
X161916Y111831D01*
X162157Y112413D01*
X162304Y113025D01*
X162341Y113653D01*
X162304Y114281D01*
X162157Y114893D01*
X161916Y115475D01*
X161587Y116011D01*
X161178Y116490D01*
X160699Y116899D01*
X160163Y117228D01*
X159581Y117469D01*
X158969Y117616D01*
X158341Y117665D01*
X158335Y117665D01*
Y171285D01*
X158492Y171381D01*
X158827Y171667D01*
X159113Y172002D01*
X159344Y172378D01*
X159512Y172785D01*
X159615Y173214D01*
X159641Y173653D01*
X159615Y174092D01*
X159512Y174521D01*
X159344Y174928D01*
X159113Y175304D01*
X158827Y175639D01*
X158492Y175925D01*
X158335Y176021D01*
Y234846D01*
X158394Y234749D01*
X158650Y234450D01*
X158949Y234194D01*
X159285Y233989D01*
X159648Y233838D01*
X160031Y233746D01*
X160423Y233715D01*
X160815Y233746D01*
X161198Y233838D01*
X161561Y233989D01*
X161897Y234194D01*
X162196Y234450D01*
X162452Y234749D01*
X162657Y235085D01*
X162808Y235448D01*
X162900Y235831D01*
X162923Y236223D01*
X162900Y236615D01*
X162808Y236998D01*
X162657Y237361D01*
X162452Y237697D01*
X162196Y237996D01*
X161897Y238252D01*
X161561Y238457D01*
X161198Y238608D01*
X160815Y238700D01*
X160423Y238731D01*
X160031Y238700D01*
X159648Y238608D01*
X159285Y238457D01*
X158949Y238252D01*
X158650Y237996D01*
X158394Y237697D01*
X158335Y237600D01*
Y239564D01*
X158458Y239616D01*
X158794Y239821D01*
X159093Y240077D01*
X159349Y240376D01*
X159554Y240712D01*
X159705Y241075D01*
X159797Y241458D01*
X159820Y241850D01*
X159797Y242242D01*
X159705Y242625D01*
X159554Y242988D01*
X159349Y243324D01*
X159093Y243623D01*
X158794Y243879D01*
X158458Y244084D01*
X158335Y244136D01*
Y253880D01*
X158363Y253834D01*
X158619Y253535D01*
X158918Y253279D01*
X159254Y253074D01*
X159617Y252923D01*
X160000Y252831D01*
X160392Y252800D01*
X160784Y252831D01*
X161167Y252923D01*
X161530Y253074D01*
X161866Y253279D01*
X162165Y253535D01*
X162421Y253834D01*
X162626Y254170D01*
X162777Y254533D01*
X162869Y254916D01*
X162892Y255308D01*
X162869Y255700D01*
X162777Y256083D01*
X162626Y256446D01*
X162421Y256782D01*
X162165Y257081D01*
X161866Y257337D01*
X161530Y257542D01*
X161167Y257693D01*
X160784Y257785D01*
X160392Y257816D01*
X160000Y257785D01*
X159617Y257693D01*
X159254Y257542D01*
X158918Y257337D01*
X158619Y257081D01*
X158363Y256782D01*
X158335Y256736D01*
Y259164D01*
X158458Y259216D01*
X158794Y259421D01*
X159093Y259677D01*
X159349Y259976D01*
X159554Y260312D01*
X159705Y260675D01*
X159797Y261058D01*
X159820Y261450D01*
X159797Y261842D01*
X159705Y262225D01*
X159554Y262588D01*
X159349Y262924D01*
X159093Y263223D01*
X158794Y263479D01*
X158458Y263684D01*
X158335Y263736D01*
Y298057D01*
G37*
G36*
Y314000D02*X169611D01*
Y303007D01*
X169600Y303008D01*
X169208Y302977D01*
X168825Y302885D01*
X168462Y302734D01*
X168126Y302529D01*
X167827Y302273D01*
X167650Y302066D01*
X167473Y302273D01*
X167174Y302529D01*
X166838Y302734D01*
X166475Y302885D01*
X166092Y302977D01*
X165700Y303008D01*
X165308Y302977D01*
X164925Y302885D01*
X164562Y302734D01*
X164226Y302529D01*
X163927Y302273D01*
X163700Y302008D01*
X163473Y302273D01*
X163174Y302529D01*
X162838Y302734D01*
X162475Y302885D01*
X162092Y302977D01*
X161700Y303008D01*
X161308Y302977D01*
X160925Y302885D01*
X160562Y302734D01*
X160226Y302529D01*
X159927Y302273D01*
X159750Y302066D01*
X159573Y302273D01*
X159274Y302529D01*
X158938Y302734D01*
X158575Y302885D01*
X158335Y302943D01*
Y314000D01*
G37*
G36*
X154625Y97213D02*X154983Y96907D01*
X155519Y96578D01*
X156101Y96337D01*
X156713Y96190D01*
X157341Y96141D01*
X157969Y96190D01*
X158335Y96278D01*
Y28200D01*
X154625D01*
Y97213D01*
G37*
G36*
Y112172D02*X154766Y111831D01*
X155095Y111295D01*
X155504Y110816D01*
X155983Y110407D01*
X156519Y110078D01*
X157101Y109837D01*
X157713Y109690D01*
X158335Y109641D01*
Y104028D01*
X157969Y104116D01*
X157341Y104165D01*
X156713Y104116D01*
X156101Y103969D01*
X155519Y103728D01*
X154983Y103399D01*
X154625Y103093D01*
Y112172D01*
G37*
G36*
Y171937D02*X154855Y171667D01*
X155190Y171381D01*
X155566Y171150D01*
X155973Y170982D01*
X156402Y170879D01*
X156841Y170844D01*
X157280Y170879D01*
X157709Y170982D01*
X158116Y171150D01*
X158335Y171285D01*
Y117665D01*
X157713Y117616D01*
X157101Y117469D01*
X156519Y117228D01*
X155983Y116899D01*
X155504Y116490D01*
X155095Y116011D01*
X154766Y115475D01*
X154625Y115134D01*
Y171937D01*
G37*
G36*
Y298103D02*X154675Y298115D01*
X155038Y298266D01*
X155374Y298471D01*
X155673Y298727D01*
X155850Y298934D01*
X156027Y298727D01*
X156326Y298471D01*
X156662Y298266D01*
X157025Y298115D01*
X157408Y298023D01*
X157800Y297992D01*
X158192Y298023D01*
X158335Y298057D01*
Y263736D01*
X158095Y263835D01*
X157712Y263927D01*
X157320Y263958D01*
X156928Y263927D01*
X156545Y263835D01*
X156182Y263684D01*
X155846Y263479D01*
X155547Y263223D01*
X155291Y262924D01*
X155086Y262588D01*
X154935Y262225D01*
X154843Y261842D01*
X154812Y261450D01*
X154843Y261058D01*
X154935Y260675D01*
X155086Y260312D01*
X155291Y259976D01*
X155547Y259677D01*
X155846Y259421D01*
X156182Y259216D01*
X156545Y259065D01*
X156928Y258973D01*
X157320Y258942D01*
X157712Y258973D01*
X158095Y259065D01*
X158335Y259164D01*
Y256736D01*
X158158Y256446D01*
X158007Y256083D01*
X157915Y255700D01*
X157884Y255308D01*
X157915Y254916D01*
X158007Y254533D01*
X158158Y254170D01*
X158335Y253880D01*
Y244136D01*
X158095Y244235D01*
X157712Y244327D01*
X157320Y244358D01*
X156928Y244327D01*
X156545Y244235D01*
X156182Y244084D01*
X155846Y243879D01*
X155547Y243623D01*
X155291Y243324D01*
X155086Y242988D01*
X154935Y242625D01*
X154843Y242242D01*
X154812Y241850D01*
X154843Y241458D01*
X154935Y241075D01*
X155086Y240712D01*
X155291Y240376D01*
X155547Y240077D01*
X155846Y239821D01*
X156182Y239616D01*
X156545Y239465D01*
X156928Y239373D01*
X157320Y239342D01*
X157712Y239373D01*
X158095Y239465D01*
X158335Y239564D01*
Y237600D01*
X158189Y237361D01*
X158038Y236998D01*
X157946Y236615D01*
X157915Y236223D01*
X157946Y235831D01*
X158038Y235448D01*
X158189Y235085D01*
X158335Y234846D01*
Y176021D01*
X158116Y176156D01*
X157709Y176324D01*
X157280Y176427D01*
X156841Y176462D01*
X156402Y176427D01*
X155973Y176324D01*
X155566Y176156D01*
X155190Y175925D01*
X154855Y175639D01*
X154625Y175369D01*
Y188022D01*
X154628Y188023D01*
X154696Y188062D01*
X154757Y188111D01*
X154810Y188170D01*
X154852Y188236D01*
X155015Y188561D01*
X155144Y188901D01*
X155242Y189251D01*
X155308Y189609D01*
X155341Y189971D01*
Y190335D01*
X155308Y190697D01*
X155242Y191055D01*
X155144Y191405D01*
X155015Y191745D01*
X154856Y192072D01*
X154813Y192138D01*
X154760Y192197D01*
X154698Y192247D01*
X154629Y192286D01*
X154625Y192288D01*
Y233772D01*
X154898Y233838D01*
X155261Y233989D01*
X155597Y234194D01*
X155896Y234450D01*
X156152Y234749D01*
X156357Y235085D01*
X156508Y235448D01*
X156600Y235831D01*
X156623Y236223D01*
X156600Y236615D01*
X156508Y236998D01*
X156357Y237361D01*
X156152Y237697D01*
X155896Y237996D01*
X155597Y238252D01*
X155261Y238457D01*
X154898Y238608D01*
X154625Y238674D01*
Y252865D01*
X154867Y252923D01*
X155230Y253074D01*
X155566Y253279D01*
X155865Y253535D01*
X156121Y253834D01*
X156326Y254170D01*
X156477Y254533D01*
X156569Y254916D01*
X156592Y255308D01*
X156569Y255700D01*
X156477Y256083D01*
X156326Y256446D01*
X156121Y256782D01*
X155865Y257081D01*
X155566Y257337D01*
X155230Y257542D01*
X154867Y257693D01*
X154625Y257751D01*
Y298103D01*
G37*
G36*
X151343Y298452D02*X151374Y298471D01*
X151673Y298727D01*
X151900Y298992D01*
X152127Y298727D01*
X152426Y298471D01*
X152762Y298266D01*
X153125Y298115D01*
X153508Y298023D01*
X153900Y297992D01*
X154292Y298023D01*
X154625Y298103D01*
Y257751D01*
X154484Y257785D01*
X154092Y257816D01*
X153700Y257785D01*
X153317Y257693D01*
X152954Y257542D01*
X152618Y257337D01*
X152319Y257081D01*
X152063Y256782D01*
X151858Y256446D01*
X151707Y256083D01*
X151615Y255700D01*
X151584Y255308D01*
X151615Y254916D01*
X151707Y254533D01*
X151858Y254170D01*
X152063Y253834D01*
X152319Y253535D01*
X152618Y253279D01*
X152954Y253074D01*
X153317Y252923D01*
X153700Y252831D01*
X154092Y252800D01*
X154484Y252831D01*
X154625Y252865D01*
Y238674D01*
X154515Y238700D01*
X154123Y238731D01*
X153731Y238700D01*
X153348Y238608D01*
X152985Y238457D01*
X152649Y238252D01*
X152350Y237996D01*
X152094Y237697D01*
X151889Y237361D01*
X151738Y236998D01*
X151646Y236615D01*
X151615Y236223D01*
X151646Y235831D01*
X151738Y235448D01*
X151889Y235085D01*
X152094Y234749D01*
X152350Y234450D01*
X152649Y234194D01*
X152985Y233989D01*
X153348Y233838D01*
X153731Y233746D01*
X154123Y233715D01*
X154515Y233746D01*
X154625Y233772D01*
Y192288D01*
X154555Y192314D01*
X154478Y192330D01*
X154399Y192334D01*
X154320Y192326D01*
X154244Y192305D01*
X154171Y192273D01*
X154105Y192230D01*
X154046Y192177D01*
X153997Y192115D01*
X153957Y192046D01*
X153929Y191972D01*
X153913Y191895D01*
X153909Y191816D01*
X153917Y191737D01*
X153938Y191660D01*
X153971Y191589D01*
X154094Y191346D01*
X154191Y191091D01*
X154264Y190829D01*
X154313Y190561D01*
X154338Y190289D01*
Y190017D01*
X154313Y189745D01*
X154264Y189477D01*
X154191Y189215D01*
X154094Y188960D01*
X153974Y188716D01*
X153941Y188644D01*
X153920Y188568D01*
X153912Y188490D01*
X153916Y188412D01*
X153932Y188335D01*
X153960Y188261D01*
X153999Y188193D01*
X154048Y188132D01*
X154107Y188079D01*
X154173Y188036D01*
X154245Y188004D01*
X154321Y187983D01*
X154399Y187975D01*
X154477Y187979D01*
X154554Y187995D01*
X154625Y188022D01*
Y175369D01*
X154569Y175304D01*
X154338Y174928D01*
X154170Y174521D01*
X154067Y174092D01*
X154032Y173653D01*
X154067Y173214D01*
X154170Y172785D01*
X154338Y172378D01*
X154569Y172002D01*
X154625Y171937D01*
Y115134D01*
X154525Y114893D01*
X154378Y114281D01*
X154329Y113653D01*
X154378Y113025D01*
X154525Y112413D01*
X154625Y112172D01*
Y103093D01*
X154504Y102990D01*
X154095Y102511D01*
X153766Y101975D01*
X153525Y101393D01*
X153378Y100781D01*
X153329Y100153D01*
X153378Y99525D01*
X153525Y98913D01*
X153766Y98331D01*
X154095Y97795D01*
X154504Y97316D01*
X154625Y97213D01*
Y28200D01*
X151343D01*
Y140876D01*
X151344Y140878D01*
X151512Y141285D01*
X151615Y141714D01*
X151641Y142153D01*
X151615Y142592D01*
X151512Y143021D01*
X151344Y143428D01*
X151343Y143430D01*
Y186153D01*
X151523D01*
X151885Y186186D01*
X152243Y186252D01*
X152593Y186350D01*
X152933Y186479D01*
X153260Y186638D01*
X153326Y186681D01*
X153385Y186734D01*
X153435Y186796D01*
X153474Y186865D01*
X153502Y186939D01*
X153518Y187016D01*
X153522Y187095D01*
X153514Y187174D01*
X153493Y187250D01*
X153461Y187323D01*
X153418Y187389D01*
X153365Y187448D01*
X153303Y187497D01*
X153234Y187537D01*
X153160Y187565D01*
X153083Y187581D01*
X153004Y187585D01*
X152925Y187577D01*
X152848Y187556D01*
X152777Y187523D01*
X152534Y187400D01*
X152279Y187303D01*
X152017Y187230D01*
X151749Y187181D01*
X151477Y187156D01*
X151343D01*
Y193150D01*
X151477D01*
X151749Y193125D01*
X152017Y193076D01*
X152279Y193003D01*
X152534Y192906D01*
X152778Y192786D01*
X152850Y192753D01*
X152926Y192732D01*
X153004Y192724D01*
X153082Y192728D01*
X153159Y192744D01*
X153233Y192772D01*
X153301Y192811D01*
X153362Y192860D01*
X153415Y192919D01*
X153458Y192985D01*
X153490Y193057D01*
X153511Y193133D01*
X153519Y193211D01*
X153515Y193289D01*
X153499Y193366D01*
X153471Y193440D01*
X153432Y193508D01*
X153383Y193569D01*
X153324Y193622D01*
X153258Y193664D01*
X152933Y193827D01*
X152593Y193956D01*
X152243Y194054D01*
X151885Y194120D01*
X151523Y194153D01*
X151343D01*
Y239368D01*
X151412Y239373D01*
X151795Y239465D01*
X152158Y239616D01*
X152494Y239821D01*
X152793Y240077D01*
X153049Y240376D01*
X153254Y240712D01*
X153405Y241075D01*
X153497Y241458D01*
X153520Y241850D01*
X153497Y242242D01*
X153405Y242625D01*
X153254Y242988D01*
X153049Y243324D01*
X152793Y243623D01*
X152494Y243879D01*
X152158Y244084D01*
X151795Y244235D01*
X151412Y244327D01*
X151343Y244332D01*
Y258968D01*
X151412Y258973D01*
X151795Y259065D01*
X152158Y259216D01*
X152494Y259421D01*
X152793Y259677D01*
X153049Y259976D01*
X153254Y260312D01*
X153405Y260675D01*
X153497Y261058D01*
X153520Y261450D01*
X153497Y261842D01*
X153405Y262225D01*
X153254Y262588D01*
X153049Y262924D01*
X152793Y263223D01*
X152494Y263479D01*
X152158Y263684D01*
X151795Y263835D01*
X151412Y263927D01*
X151343Y263932D01*
Y298452D01*
G37*
G36*
Y244332D02*X151020Y244358D01*
X150628Y244327D01*
X150245Y244235D01*
X149882Y244084D01*
X149546Y243879D01*
X149247Y243623D01*
X148991Y243324D01*
X148837Y243072D01*
Y253035D01*
X148930Y253074D01*
X149266Y253279D01*
X149565Y253535D01*
X149821Y253834D01*
X150026Y254170D01*
X150177Y254533D01*
X150269Y254916D01*
X150292Y255308D01*
X150269Y255700D01*
X150177Y256083D01*
X150026Y256446D01*
X149821Y256782D01*
X149565Y257081D01*
X149266Y257337D01*
X148930Y257542D01*
X148837Y257581D01*
Y260228D01*
X148991Y259976D01*
X149247Y259677D01*
X149546Y259421D01*
X149882Y259216D01*
X150245Y259065D01*
X150628Y258973D01*
X151020Y258942D01*
X151343Y258968D01*
Y244332D01*
G37*
G36*
Y143430D02*X151113Y143804D01*
X150827Y144139D01*
X150492Y144425D01*
X150116Y144656D01*
X149709Y144824D01*
X149280Y144927D01*
X148841Y144962D01*
X148837Y144961D01*
Y233937D01*
X148961Y233989D01*
X149297Y234194D01*
X149596Y234450D01*
X149852Y234749D01*
X150057Y235085D01*
X150208Y235448D01*
X150300Y235831D01*
X150323Y236223D01*
X150300Y236615D01*
X150208Y236998D01*
X150057Y237361D01*
X149852Y237697D01*
X149596Y237996D01*
X149297Y238252D01*
X148961Y238457D01*
X148837Y238509D01*
Y240628D01*
X148991Y240376D01*
X149247Y240077D01*
X149546Y239821D01*
X149882Y239616D01*
X150245Y239465D01*
X150628Y239373D01*
X151020Y239342D01*
X151343Y239368D01*
Y194153D01*
X151159D01*
X150797Y194120D01*
X150439Y194054D01*
X150089Y193956D01*
X149749Y193827D01*
X149422Y193668D01*
X149356Y193625D01*
X149297Y193572D01*
X149247Y193510D01*
X149208Y193441D01*
X149180Y193367D01*
X149164Y193290D01*
X149160Y193211D01*
X149168Y193132D01*
X149189Y193056D01*
X149221Y192983D01*
X149264Y192917D01*
X149317Y192858D01*
X149379Y192809D01*
X149448Y192769D01*
X149522Y192741D01*
X149599Y192725D01*
X149678Y192721D01*
X149757Y192729D01*
X149834Y192750D01*
X149905Y192783D01*
X150148Y192906D01*
X150403Y193003D01*
X150665Y193076D01*
X150933Y193125D01*
X151205Y193150D01*
X151343D01*
Y187156D01*
X151205D01*
X150933Y187181D01*
X150665Y187230D01*
X150403Y187303D01*
X150148Y187400D01*
X149904Y187520D01*
X149832Y187553D01*
X149756Y187574D01*
X149678Y187582D01*
X149600Y187578D01*
X149523Y187562D01*
X149449Y187534D01*
X149381Y187495D01*
X149320Y187446D01*
X149267Y187387D01*
X149224Y187321D01*
X149192Y187249D01*
X149171Y187173D01*
X149163Y187095D01*
X149167Y187017D01*
X149183Y186940D01*
X149211Y186866D01*
X149250Y186798D01*
X149299Y186737D01*
X149358Y186684D01*
X149424Y186642D01*
X149749Y186479D01*
X150089Y186350D01*
X150439Y186252D01*
X150797Y186186D01*
X151159Y186153D01*
X151343D01*
Y143430D01*
G37*
G36*
Y28200D02*X148837D01*
Y139345D01*
X148841Y139344D01*
X149280Y139379D01*
X149709Y139482D01*
X150116Y139650D01*
X150492Y139881D01*
X150827Y140167D01*
X151113Y140502D01*
X151343Y140876D01*
Y28200D01*
G37*
G36*
X148837Y298234D02*X149125Y298115D01*
X149508Y298023D01*
X149900Y297992D01*
X150292Y298023D01*
X150675Y298115D01*
X151038Y298266D01*
X151343Y298452D01*
Y263932D01*
X151020Y263958D01*
X150628Y263927D01*
X150245Y263835D01*
X149882Y263684D01*
X149546Y263479D01*
X149247Y263223D01*
X148991Y262924D01*
X148837Y262672D01*
Y298234D01*
G37*
G36*
Y314000D02*X158335D01*
Y302943D01*
X158192Y302977D01*
X157800Y303008D01*
X157408Y302977D01*
X157025Y302885D01*
X156662Y302734D01*
X156326Y302529D01*
X156027Y302273D01*
X155850Y302066D01*
X155673Y302273D01*
X155374Y302529D01*
X155038Y302734D01*
X154675Y302885D01*
X154292Y302977D01*
X153900Y303008D01*
X153508Y302977D01*
X153125Y302885D01*
X152762Y302734D01*
X152426Y302529D01*
X152127Y302273D01*
X151900Y302008D01*
X151673Y302273D01*
X151374Y302529D01*
X151038Y302734D01*
X150675Y302885D01*
X150292Y302977D01*
X149900Y303008D01*
X149508Y302977D01*
X149125Y302885D01*
X148837Y302766D01*
Y314000D01*
G37*
G36*
X148057Y139462D02*X148402Y139379D01*
X148837Y139345D01*
Y28200D01*
X148057D01*
Y139462D01*
G37*
G36*
Y233734D02*X148215Y233746D01*
X148598Y233838D01*
X148837Y233937D01*
Y144961D01*
X148402Y144927D01*
X148057Y144844D01*
Y188018D01*
X148127Y187992D01*
X148204Y187976D01*
X148283Y187972D01*
X148362Y187980D01*
X148438Y188001D01*
X148511Y188033D01*
X148577Y188076D01*
X148636Y188129D01*
X148685Y188191D01*
X148725Y188260D01*
X148753Y188334D01*
X148769Y188411D01*
X148773Y188490D01*
X148765Y188569D01*
X148744Y188646D01*
X148711Y188717D01*
X148588Y188960D01*
X148491Y189215D01*
X148418Y189477D01*
X148369Y189745D01*
X148344Y190017D01*
Y190289D01*
X148369Y190561D01*
X148418Y190829D01*
X148491Y191091D01*
X148588Y191346D01*
X148708Y191590D01*
X148741Y191662D01*
X148762Y191738D01*
X148770Y191816D01*
X148766Y191894D01*
X148750Y191971D01*
X148722Y192045D01*
X148683Y192113D01*
X148634Y192174D01*
X148575Y192227D01*
X148509Y192270D01*
X148437Y192302D01*
X148361Y192323D01*
X148283Y192331D01*
X148205Y192327D01*
X148128Y192311D01*
X148057Y192284D01*
Y233734D01*
G37*
G36*
Y252821D02*X148184Y252831D01*
X148567Y252923D01*
X148837Y253035D01*
Y243072D01*
X148786Y242988D01*
X148635Y242625D01*
X148543Y242242D01*
X148512Y241850D01*
X148543Y241458D01*
X148635Y241075D01*
X148786Y240712D01*
X148837Y240628D01*
Y238509D01*
X148598Y238608D01*
X148215Y238700D01*
X148057Y238712D01*
Y252821D01*
G37*
G36*
Y298808D02*X148127Y298727D01*
X148426Y298471D01*
X148762Y298266D01*
X148837Y298234D01*
Y262672D01*
X148786Y262588D01*
X148635Y262225D01*
X148543Y261842D01*
X148512Y261450D01*
X148543Y261058D01*
X148635Y260675D01*
X148786Y260312D01*
X148837Y260228D01*
Y257581D01*
X148567Y257693D01*
X148184Y257785D01*
X148057Y257795D01*
Y298808D01*
G37*
G36*
Y314000D02*X148837D01*
Y302766D01*
X148762Y302734D01*
X148426Y302529D01*
X148127Y302273D01*
X148057Y302192D01*
Y314000D01*
G37*
G36*
X142837D02*X148057D01*
Y302192D01*
X147950Y302066D01*
X147773Y302273D01*
X147474Y302529D01*
X147138Y302734D01*
X146775Y302885D01*
X146392Y302977D01*
X146000Y303008D01*
X145608Y302977D01*
X145225Y302885D01*
X144862Y302734D01*
X144526Y302529D01*
X144227Y302273D01*
X143971Y301974D01*
X143766Y301638D01*
X143615Y301275D01*
X143523Y300892D01*
X143492Y300500D01*
X143523Y300108D01*
X143615Y299725D01*
X143766Y299362D01*
X143971Y299026D01*
X144227Y298727D01*
X144526Y298471D01*
X144862Y298266D01*
X145225Y298115D01*
X145608Y298023D01*
X146000Y297992D01*
X146392Y298023D01*
X146775Y298115D01*
X147138Y298266D01*
X147474Y298471D01*
X147773Y298727D01*
X147950Y298934D01*
X148057Y298808D01*
Y257795D01*
X147792Y257816D01*
X147400Y257785D01*
X147017Y257693D01*
X146654Y257542D01*
X146318Y257337D01*
X146019Y257081D01*
X145763Y256782D01*
X145558Y256446D01*
X145407Y256083D01*
X145315Y255700D01*
X145284Y255308D01*
X145315Y254916D01*
X145407Y254533D01*
X145558Y254170D01*
X145763Y253834D01*
X146019Y253535D01*
X146318Y253279D01*
X146654Y253074D01*
X147017Y252923D01*
X147400Y252831D01*
X147792Y252800D01*
X148057Y252821D01*
Y238712D01*
X147823Y238731D01*
X147431Y238700D01*
X147048Y238608D01*
X146685Y238457D01*
X146349Y238252D01*
X146050Y237996D01*
X145794Y237697D01*
X145589Y237361D01*
X145438Y236998D01*
X145346Y236615D01*
X145315Y236223D01*
X145346Y235831D01*
X145438Y235448D01*
X145589Y235085D01*
X145794Y234749D01*
X146050Y234450D01*
X146349Y234194D01*
X146685Y233989D01*
X147048Y233838D01*
X147431Y233746D01*
X147823Y233715D01*
X148057Y233734D01*
Y192284D01*
X148054Y192283D01*
X147986Y192244D01*
X147925Y192195D01*
X147872Y192136D01*
X147830Y192070D01*
X147667Y191745D01*
X147538Y191405D01*
X147440Y191055D01*
X147374Y190697D01*
X147341Y190335D01*
Y189971D01*
X147374Y189609D01*
X147440Y189251D01*
X147538Y188901D01*
X147667Y188561D01*
X147826Y188234D01*
X147869Y188168D01*
X147922Y188109D01*
X147984Y188059D01*
X148053Y188020D01*
X148057Y188018D01*
Y144844D01*
X147973Y144824D01*
X147566Y144656D01*
X147190Y144425D01*
X146855Y144139D01*
X146569Y143804D01*
X146338Y143428D01*
X146170Y143021D01*
X146067Y142592D01*
X146032Y142153D01*
X146067Y141714D01*
X146170Y141285D01*
X146338Y140878D01*
X146569Y140502D01*
X146855Y140167D01*
X147190Y139881D01*
X147566Y139650D01*
X147973Y139482D01*
X148057Y139462D01*
Y28200D01*
X142837D01*
Y134178D01*
X143113Y134502D01*
X143344Y134878D01*
X143512Y135285D01*
X143615Y135714D01*
X143641Y136153D01*
X143615Y136592D01*
X143512Y137021D01*
X143344Y137428D01*
X143113Y137804D01*
X142837Y138128D01*
Y139345D01*
X142841Y139344D01*
X143280Y139379D01*
X143709Y139482D01*
X144116Y139650D01*
X144492Y139881D01*
X144827Y140167D01*
X145113Y140502D01*
X145344Y140878D01*
X145512Y141285D01*
X145615Y141714D01*
X145641Y142153D01*
X145615Y142592D01*
X145512Y143021D01*
X145344Y143428D01*
X145113Y143804D01*
X144827Y144139D01*
X144492Y144425D01*
X144116Y144656D01*
X143709Y144824D01*
X143280Y144927D01*
X142841Y144962D01*
X142837Y144961D01*
Y178786D01*
X142992Y178881D01*
X143327Y179167D01*
X143613Y179502D01*
X143844Y179878D01*
X144012Y180285D01*
X144115Y180714D01*
X144141Y181153D01*
X144115Y181592D01*
X144012Y182021D01*
X143844Y182428D01*
X143613Y182804D01*
X143327Y183139D01*
X142992Y183425D01*
X142837Y183520D01*
Y234087D01*
X142974Y234171D01*
X143273Y234427D01*
X143529Y234726D01*
X143734Y235062D01*
X143885Y235425D01*
X143977Y235808D01*
X144000Y236200D01*
X143977Y236592D01*
X143885Y236975D01*
X143734Y237338D01*
X143529Y237674D01*
X143273Y237973D01*
X142974Y238229D01*
X142837Y238313D01*
Y240089D01*
X142847Y240077D01*
X143146Y239821D01*
X143482Y239616D01*
X143845Y239465D01*
X144228Y239373D01*
X144620Y239342D01*
X145012Y239373D01*
X145395Y239465D01*
X145758Y239616D01*
X146094Y239821D01*
X146393Y240077D01*
X146649Y240376D01*
X146854Y240712D01*
X147005Y241075D01*
X147097Y241458D01*
X147120Y241850D01*
X147097Y242242D01*
X147005Y242625D01*
X146854Y242988D01*
X146649Y243324D01*
X146393Y243623D01*
X146094Y243879D01*
X145758Y244084D01*
X145395Y244235D01*
X145012Y244327D01*
X144620Y244358D01*
X144228Y244327D01*
X143845Y244235D01*
X143482Y244084D01*
X143146Y243879D01*
X142847Y243623D01*
X142837Y243611D01*
Y253187D01*
X142974Y253271D01*
X143273Y253527D01*
X143529Y253826D01*
X143734Y254162D01*
X143885Y254525D01*
X143977Y254908D01*
X144000Y255300D01*
X143977Y255692D01*
X143885Y256075D01*
X143734Y256438D01*
X143529Y256774D01*
X143273Y257073D01*
X142974Y257329D01*
X142837Y257413D01*
Y259806D01*
X142947Y259677D01*
X143246Y259421D01*
X143582Y259216D01*
X143945Y259065D01*
X144328Y258973D01*
X144720Y258942D01*
X145112Y258973D01*
X145495Y259065D01*
X145858Y259216D01*
X146194Y259421D01*
X146493Y259677D01*
X146749Y259976D01*
X146954Y260312D01*
X147105Y260675D01*
X147197Y261058D01*
X147220Y261450D01*
X147197Y261842D01*
X147105Y262225D01*
X146954Y262588D01*
X146749Y262924D01*
X146493Y263223D01*
X146194Y263479D01*
X145858Y263684D01*
X145495Y263835D01*
X145112Y263927D01*
X144720Y263958D01*
X144328Y263927D01*
X143945Y263835D01*
X143582Y263684D01*
X143246Y263479D01*
X142947Y263223D01*
X142837Y263094D01*
Y314000D01*
G37*
G36*
X137010D02*X142837D01*
Y263094D01*
X142691Y262924D01*
X142486Y262588D01*
X142335Y262225D01*
X142243Y261842D01*
X142212Y261450D01*
X142243Y261058D01*
X142335Y260675D01*
X142486Y260312D01*
X142691Y259976D01*
X142837Y259806D01*
Y257413D01*
X142638Y257534D01*
X142275Y257685D01*
X141892Y257777D01*
X141500Y257808D01*
X141108Y257777D01*
X140725Y257685D01*
X140362Y257534D01*
X140026Y257329D01*
X139727Y257073D01*
X139471Y256774D01*
X139266Y256438D01*
X139115Y256075D01*
X139023Y255692D01*
X138992Y255300D01*
X139023Y254908D01*
X139115Y254525D01*
X139266Y254162D01*
X139471Y253826D01*
X139727Y253527D01*
X140026Y253271D01*
X140362Y253066D01*
X140725Y252915D01*
X141108Y252823D01*
X141500Y252792D01*
X141892Y252823D01*
X142275Y252915D01*
X142638Y253066D01*
X142837Y253187D01*
Y243611D01*
X142591Y243324D01*
X142386Y242988D01*
X142235Y242625D01*
X142143Y242242D01*
X142112Y241850D01*
X142143Y241458D01*
X142235Y241075D01*
X142386Y240712D01*
X142591Y240376D01*
X142837Y240089D01*
Y238313D01*
X142638Y238434D01*
X142275Y238585D01*
X141892Y238677D01*
X141500Y238708D01*
X141108Y238677D01*
X140725Y238585D01*
X140362Y238434D01*
X140026Y238229D01*
X139727Y237973D01*
X139471Y237674D01*
X139266Y237338D01*
X139115Y236975D01*
X139023Y236592D01*
X138992Y236200D01*
X139023Y235808D01*
X139115Y235425D01*
X139266Y235062D01*
X139471Y234726D01*
X139727Y234427D01*
X140026Y234171D01*
X140362Y233966D01*
X140725Y233815D01*
X141108Y233723D01*
X141500Y233692D01*
X141892Y233723D01*
X142275Y233815D01*
X142638Y233966D01*
X142837Y234087D01*
Y183520D01*
X142616Y183656D01*
X142209Y183824D01*
X141780Y183927D01*
X141341Y183962D01*
X140902Y183927D01*
X140473Y183824D01*
X140066Y183656D01*
X139690Y183425D01*
X139355Y183139D01*
X139069Y182804D01*
X138838Y182428D01*
X138670Y182021D01*
X138567Y181592D01*
X138532Y181153D01*
X138567Y180714D01*
X138670Y180285D01*
X138838Y179878D01*
X139069Y179502D01*
X139355Y179167D01*
X139690Y178881D01*
X140066Y178650D01*
X140473Y178482D01*
X140902Y178379D01*
X141341Y178344D01*
X141780Y178379D01*
X142209Y178482D01*
X142616Y178650D01*
X142837Y178786D01*
Y144961D01*
X142402Y144927D01*
X141973Y144824D01*
X141566Y144656D01*
X141190Y144425D01*
X140855Y144139D01*
X140569Y143804D01*
X140338Y143428D01*
X140170Y143021D01*
X140067Y142592D01*
X140032Y142153D01*
X140067Y141714D01*
X140170Y141285D01*
X140338Y140878D01*
X140569Y140502D01*
X140855Y140167D01*
X141190Y139881D01*
X141566Y139650D01*
X141973Y139482D01*
X142402Y139379D01*
X142837Y139345D01*
Y138128D01*
X142827Y138139D01*
X142492Y138425D01*
X142116Y138656D01*
X141709Y138824D01*
X141280Y138927D01*
X140841Y138962D01*
X140402Y138927D01*
X139973Y138824D01*
X139566Y138656D01*
X139190Y138425D01*
X138855Y138139D01*
X138569Y137804D01*
X138338Y137428D01*
X138170Y137021D01*
X138067Y136592D01*
X138032Y136153D01*
X138067Y135714D01*
X138170Y135285D01*
X138338Y134878D01*
X138569Y134502D01*
X138855Y134167D01*
X139190Y133881D01*
X139566Y133650D01*
X139973Y133482D01*
X140402Y133379D01*
X140841Y133344D01*
X141280Y133379D01*
X141709Y133482D01*
X142116Y133650D01*
X142492Y133881D01*
X142827Y134167D01*
X142837Y134178D01*
Y28200D01*
X137010D01*
Y179382D01*
X137113Y179502D01*
X137344Y179878D01*
X137512Y180285D01*
X137615Y180714D01*
X137641Y181153D01*
X137615Y181592D01*
X137512Y182021D01*
X137344Y182428D01*
X137113Y182804D01*
X137010Y182924D01*
Y246233D01*
X137016Y246233D01*
X137600Y246279D01*
X138170Y246416D01*
X138711Y246640D01*
X139210Y246946D01*
X139656Y247326D01*
X140036Y247772D01*
X140342Y248271D01*
X140566Y248812D01*
X140703Y249382D01*
X140738Y249966D01*
X140703Y250550D01*
X140566Y251120D01*
X140342Y251661D01*
X140036Y252160D01*
X139656Y252606D01*
X139210Y252986D01*
X138711Y253292D01*
X138170Y253516D01*
X137600Y253653D01*
X137016Y253699D01*
X137010Y253699D01*
Y314000D01*
G37*
G36*
X128337D02*X137010D01*
Y253699D01*
X136432Y253653D01*
X135862Y253516D01*
X135321Y253292D01*
X134822Y252986D01*
X134376Y252606D01*
X133996Y252160D01*
X133690Y251661D01*
X133466Y251120D01*
X133329Y250550D01*
X133283Y249966D01*
X133329Y249382D01*
X133466Y248812D01*
X133690Y248271D01*
X133996Y247772D01*
X134376Y247326D01*
X134822Y246946D01*
X135321Y246640D01*
X135862Y246416D01*
X136432Y246279D01*
X137010Y246233D01*
Y182924D01*
X136827Y183139D01*
X136492Y183425D01*
X136116Y183656D01*
X135709Y183824D01*
X135280Y183927D01*
X134841Y183962D01*
X134402Y183927D01*
X133973Y183824D01*
X133566Y183656D01*
X133190Y183425D01*
X132855Y183139D01*
X132569Y182804D01*
X132338Y182428D01*
X132170Y182021D01*
X132067Y181592D01*
X132032Y181153D01*
X132067Y180714D01*
X132170Y180285D01*
X132338Y179878D01*
X132569Y179502D01*
X132855Y179167D01*
X133190Y178881D01*
X133566Y178650D01*
X133973Y178482D01*
X134402Y178379D01*
X134841Y178344D01*
X135280Y178379D01*
X135709Y178482D01*
X136116Y178650D01*
X136492Y178881D01*
X136827Y179167D01*
X137010Y179382D01*
Y28200D01*
X128337D01*
Y39252D01*
X128766Y39952D01*
X129579Y41915D01*
X130075Y43982D01*
X130200Y46100D01*
X130075Y48218D01*
X129579Y50285D01*
X128766Y52248D01*
X128337Y52948D01*
Y178345D01*
X128341Y178344D01*
X128780Y178379D01*
X129209Y178482D01*
X129616Y178650D01*
X129992Y178881D01*
X130327Y179167D01*
X130613Y179502D01*
X130844Y179878D01*
X131012Y180285D01*
X131115Y180714D01*
X131141Y181153D01*
X131115Y181592D01*
X131012Y182021D01*
X130844Y182428D01*
X130613Y182804D01*
X130327Y183139D01*
X129992Y183425D01*
X129616Y183656D01*
X129209Y183824D01*
X128780Y183927D01*
X128341Y183962D01*
X128337Y183961D01*
Y289252D01*
X128766Y289952D01*
X129579Y291915D01*
X130075Y293982D01*
X130200Y296100D01*
X130075Y298218D01*
X129579Y300285D01*
X128766Y302248D01*
X128337Y302948D01*
Y314000D01*
G37*
G36*
Y52948D02*X127655Y54060D01*
X126275Y55675D01*
X124660Y57055D01*
X122848Y58166D01*
X121837Y58584D01*
Y178345D01*
X121841Y178344D01*
X122280Y178379D01*
X122709Y178482D01*
X123116Y178650D01*
X123492Y178881D01*
X123827Y179167D01*
X124113Y179502D01*
X124344Y179878D01*
X124512Y180285D01*
X124615Y180714D01*
X124641Y181153D01*
X124615Y181592D01*
X124512Y182021D01*
X124344Y182428D01*
X124113Y182804D01*
X123827Y183139D01*
X123492Y183425D01*
X123116Y183656D01*
X122709Y183824D01*
X122280Y183927D01*
X121841Y183962D01*
X121837Y183961D01*
Y283616D01*
X122848Y284034D01*
X124660Y285145D01*
X126275Y286525D01*
X127655Y288140D01*
X128337Y289252D01*
Y183961D01*
X127902Y183927D01*
X127473Y183824D01*
X127066Y183656D01*
X126690Y183425D01*
X126355Y183139D01*
X126069Y182804D01*
X125838Y182428D01*
X125670Y182021D01*
X125567Y181592D01*
X125532Y181153D01*
X125567Y180714D01*
X125670Y180285D01*
X125838Y179878D01*
X126069Y179502D01*
X126355Y179167D01*
X126690Y178881D01*
X127066Y178650D01*
X127473Y178482D01*
X127902Y178379D01*
X128337Y178345D01*
Y52948D01*
G37*
G36*
X121837Y58584D02*X120885Y58979D01*
X118818Y59475D01*
X116700Y59642D01*
X114582Y59475D01*
X113335Y59176D01*
Y78141D01*
X113341Y78141D01*
X113969Y78190D01*
X114581Y78337D01*
X115163Y78578D01*
X115699Y78907D01*
X116178Y79316D01*
X116587Y79795D01*
X116916Y80331D01*
X117157Y80913D01*
X117304Y81525D01*
X117341Y82153D01*
X117304Y82781D01*
X117157Y83393D01*
X116916Y83975D01*
X116587Y84511D01*
X116178Y84990D01*
X115699Y85399D01*
X115163Y85728D01*
X114581Y85969D01*
X113969Y86116D01*
X113341Y86165D01*
X113335Y86165D01*
Y185699D01*
X113416Y185831D01*
X113657Y186413D01*
X113804Y187025D01*
X113841Y187653D01*
X113804Y188281D01*
X113657Y188893D01*
X113416Y189475D01*
X113335Y189607D01*
Y283024D01*
X114582Y282725D01*
X116700Y282558D01*
X118818Y282725D01*
X120885Y283221D01*
X121837Y283616D01*
Y183961D01*
X121402Y183927D01*
X120973Y183824D01*
X120566Y183656D01*
X120190Y183425D01*
X119855Y183139D01*
X119569Y182804D01*
X119338Y182428D01*
X119170Y182021D01*
X119067Y181592D01*
X119032Y181153D01*
X119067Y180714D01*
X119170Y180285D01*
X119338Y179878D01*
X119569Y179502D01*
X119855Y179167D01*
X120190Y178881D01*
X120566Y178650D01*
X120973Y178482D01*
X121402Y178379D01*
X121837Y178345D01*
Y58584D01*
G37*
G36*
X128337Y28200D02*X113335D01*
Y33024D01*
X114582Y32725D01*
X116700Y32558D01*
X118818Y32725D01*
X120885Y33221D01*
X122848Y34034D01*
X124660Y35145D01*
X126275Y36525D01*
X127655Y38140D01*
X128337Y39252D01*
Y28200D01*
G37*
G36*
X113335Y314000D02*X128337D01*
Y302948D01*
X127655Y304060D01*
X126275Y305675D01*
X124660Y307055D01*
X122848Y308166D01*
X120885Y308979D01*
X118818Y309475D01*
X116700Y309642D01*
X114582Y309475D01*
X113335Y309176D01*
Y314000D01*
G37*
G36*
Y59176D02*X112515Y58979D01*
X110552Y58166D01*
X108740Y57055D01*
X107125Y55675D01*
X105745Y54060D01*
X104835Y52575D01*
Y128641D01*
X104841Y128641D01*
X105469Y128690D01*
X106081Y128837D01*
X106663Y129078D01*
X107199Y129407D01*
X107678Y129816D01*
X108087Y130295D01*
X108416Y130831D01*
X108657Y131413D01*
X108804Y132025D01*
X108841Y132653D01*
X108804Y133281D01*
X108657Y133893D01*
X108416Y134475D01*
X108087Y135011D01*
X107678Y135490D01*
X107199Y135899D01*
X106663Y136228D01*
X106081Y136469D01*
X105469Y136616D01*
X104841Y136665D01*
X104835Y136665D01*
Y289625D01*
X105745Y288140D01*
X107125Y286525D01*
X108740Y285145D01*
X110552Y284034D01*
X112515Y283221D01*
X113335Y283024D01*
Y189607D01*
X113087Y190011D01*
X112678Y190490D01*
X112199Y190899D01*
X111663Y191228D01*
X111081Y191469D01*
X110469Y191616D01*
X109841Y191665D01*
X109213Y191616D01*
X108601Y191469D01*
X108019Y191228D01*
X107483Y190899D01*
X107004Y190490D01*
X106595Y190011D01*
X106266Y189475D01*
X106025Y188893D01*
X105878Y188281D01*
X105829Y187653D01*
X105878Y187025D01*
X106025Y186413D01*
X106266Y185831D01*
X106595Y185295D01*
X107004Y184816D01*
X107483Y184407D01*
X108019Y184078D01*
X108601Y183837D01*
X109213Y183690D01*
X109841Y183641D01*
X110469Y183690D01*
X111081Y183837D01*
X111663Y184078D01*
X112199Y184407D01*
X112678Y184816D01*
X113087Y185295D01*
X113335Y185699D01*
Y86165D01*
X112713Y86116D01*
X112101Y85969D01*
X111519Y85728D01*
X110983Y85399D01*
X110504Y84990D01*
X110095Y84511D01*
X109766Y83975D01*
X109525Y83393D01*
X109378Y82781D01*
X109329Y82153D01*
X109378Y81525D01*
X109525Y80913D01*
X109766Y80331D01*
X110095Y79795D01*
X110504Y79316D01*
X110983Y78907D01*
X111519Y78578D01*
X112101Y78337D01*
X112713Y78190D01*
X113335Y78141D01*
Y59176D01*
G37*
G36*
Y28200D02*X104835D01*
Y39625D01*
X105745Y38140D01*
X107125Y36525D01*
X108740Y35145D01*
X110552Y34034D01*
X112515Y33221D01*
X113335Y33024D01*
Y28200D01*
G37*
G36*
X104835Y314000D02*X113335D01*
Y309176D01*
X112515Y308979D01*
X110552Y308166D01*
X108740Y307055D01*
X107125Y305675D01*
X105745Y304060D01*
X104835Y302575D01*
Y314000D01*
G37*
G36*
X78493D02*X104835D01*
Y302575D01*
X104634Y302248D01*
X103821Y300285D01*
X103325Y298218D01*
X103158Y296100D01*
X103325Y293982D01*
X103821Y291915D01*
X104634Y289952D01*
X104835Y289625D01*
Y136665D01*
X104213Y136616D01*
X103601Y136469D01*
X103019Y136228D01*
X102483Y135899D01*
X102004Y135490D01*
X101595Y135011D01*
X101266Y134475D01*
X101025Y133893D01*
X100878Y133281D01*
X100829Y132653D01*
X100878Y132025D01*
X101025Y131413D01*
X101266Y130831D01*
X101595Y130295D01*
X102004Y129816D01*
X102483Y129407D01*
X103019Y129078D01*
X103601Y128837D01*
X104213Y128690D01*
X104835Y128641D01*
Y52575D01*
X104634Y52248D01*
X103821Y50285D01*
X103325Y48218D01*
X103158Y46100D01*
X103325Y43982D01*
X103821Y41915D01*
X104634Y39952D01*
X104835Y39625D01*
Y28200D01*
X78493D01*
Y50737D01*
X78500Y50737D01*
X79167Y50789D01*
X79817Y50946D01*
X80435Y51202D01*
X81006Y51551D01*
X81514Y51986D01*
X81949Y52494D01*
X82298Y53065D01*
X82554Y53683D01*
X82711Y54333D01*
X82750Y55000D01*
X82711Y55667D01*
X82554Y56317D01*
X82298Y56935D01*
X81949Y57506D01*
X81514Y58014D01*
X81006Y58449D01*
X80435Y58798D01*
X79817Y59054D01*
X79167Y59211D01*
X78500Y59263D01*
X78493Y59263D01*
Y314000D01*
G37*
G36*
X58500D02*X78493D01*
Y59263D01*
X77833Y59211D01*
X77183Y59054D01*
X76565Y58798D01*
X75994Y58449D01*
X75486Y58014D01*
X75051Y57506D01*
X74702Y56935D01*
X74446Y56317D01*
X74289Y55667D01*
X74237Y55000D01*
X74289Y54333D01*
X74446Y53683D01*
X74702Y53065D01*
X75051Y52494D01*
X75486Y51986D01*
X75994Y51551D01*
X76565Y51202D01*
X77183Y50946D01*
X77833Y50789D01*
X78493Y50737D01*
Y28200D01*
X58500D01*
Y50757D01*
X61485Y50764D01*
X61715Y50819D01*
X61933Y50909D01*
X62134Y51033D01*
X62314Y51186D01*
X62467Y51366D01*
X62591Y51567D01*
X62681Y51785D01*
X62736Y52015D01*
X62750Y52250D01*
X62736Y57985D01*
X62681Y58215D01*
X62591Y58433D01*
X62467Y58634D01*
X62314Y58814D01*
X62134Y58967D01*
X61933Y59091D01*
X61715Y59181D01*
X61485Y59236D01*
X61250Y59250D01*
X58500Y59243D01*
Y314000D01*
G37*
G36*
X36679D02*X58500D01*
Y59243D01*
X55515Y59236D01*
X55285Y59181D01*
X55067Y59091D01*
X54866Y58967D01*
X54686Y58814D01*
X54533Y58634D01*
X54409Y58433D01*
X54319Y58215D01*
X54264Y57985D01*
X54250Y57750D01*
X54264Y52015D01*
X54319Y51785D01*
X54409Y51567D01*
X54533Y51366D01*
X54686Y51186D01*
X54866Y51033D01*
X55067Y50909D01*
X55285Y50819D01*
X55515Y50764D01*
X55750Y50750D01*
X58500Y50757D01*
Y28200D01*
X36679D01*
Y32560D01*
X36700Y32558D01*
X38818Y32725D01*
X40885Y33221D01*
X42848Y34034D01*
X44660Y35145D01*
X46275Y36525D01*
X47655Y38140D01*
X48766Y39952D01*
X49579Y41915D01*
X50075Y43982D01*
X50200Y46100D01*
X50075Y48218D01*
X49579Y50285D01*
X48766Y52248D01*
X47655Y54060D01*
X46275Y55675D01*
X44660Y57055D01*
X42848Y58166D01*
X40885Y58979D01*
X38818Y59475D01*
X36700Y59642D01*
X36679Y59640D01*
Y282560D01*
X36700Y282558D01*
X38818Y282725D01*
X40885Y283221D01*
X42848Y284034D01*
X44660Y285145D01*
X46275Y286525D01*
X47655Y288140D01*
X48766Y289952D01*
X49579Y291915D01*
X50075Y293982D01*
X50200Y296100D01*
X50075Y298218D01*
X49579Y300285D01*
X48766Y302248D01*
X47655Y304060D01*
X46275Y305675D01*
X44660Y307055D01*
X42848Y308166D01*
X40885Y308979D01*
X38818Y309475D01*
X36700Y309642D01*
X36679Y309640D01*
Y314000D01*
G37*
G36*
X17300D02*X36679D01*
Y309640D01*
X34582Y309475D01*
X32515Y308979D01*
X30552Y308166D01*
X28740Y307055D01*
X27125Y305675D01*
X25745Y304060D01*
X24634Y302248D01*
X23821Y300285D01*
X23325Y298218D01*
X23158Y296100D01*
X23325Y293982D01*
X23821Y291915D01*
X24634Y289952D01*
X25745Y288140D01*
X27125Y286525D01*
X28740Y285145D01*
X30552Y284034D01*
X32515Y283221D01*
X34582Y282725D01*
X36679Y282560D01*
Y59640D01*
X34582Y59475D01*
X32515Y58979D01*
X30552Y58166D01*
X28740Y57055D01*
X27125Y55675D01*
X25745Y54060D01*
X24634Y52248D01*
X23821Y50285D01*
X23325Y48218D01*
X23158Y46100D01*
X23325Y43982D01*
X23821Y41915D01*
X24634Y39952D01*
X25745Y38140D01*
X27125Y36525D01*
X28740Y35145D01*
X30552Y34034D01*
X32515Y33221D01*
X34582Y32725D01*
X36679Y32560D01*
Y28200D01*
X17300D01*
Y314000D01*
G37*
G54D48*X396700Y296100D03*
Y46100D03*
X316700D03*
G54D49*X306475Y74944D03*
G54D48*X36700Y296100D03*
X116700D03*
X316700D03*
X36700Y46100D03*
X116700D03*
G54D47*G36*
X55750Y57750D02*Y52250D01*
X61250D01*
Y57750D01*
X55750D01*
G37*
G54D50*X78500Y55000D03*
G54D49*X253325Y74944D03*
G54D51*X190166Y249966D03*
X137016D03*
G54D52*X171841Y131653D03*
G54D53*X158341Y113653D03*
X157341Y100153D03*
X221841Y112653D03*
Y97653D03*
G54D52*X170841Y140153D03*
G54D53*X171341Y92153D03*
G54D52*X171841Y151653D03*
X148841Y142153D03*
X142841D03*
X140841Y136153D03*
G54D53*X104841Y132653D03*
X113341Y82153D03*
G54D52*X167688Y170306D03*
X165247Y151559D03*
X165120Y131874D03*
X166341Y163153D03*
X165341Y143653D03*
X168341Y157153D03*
X156841Y173653D03*
X173341Y166653D03*
X177341Y162153D03*
X181341Y166653D03*
X128341Y181153D03*
X134841D03*
X121841D03*
G54D53*X109841Y187653D03*
G54D52*X141341Y181153D03*
G54D53*X151341Y190153D03*
G54D52*X180841Y191653D03*
X185841Y162153D03*
G54D53*X218841Y177153D03*
X238841D03*
G54D52*X260841Y183653D03*
X280341D03*
G54D54*X163520Y261450D03*
X157320D03*
X160392Y255308D03*
X154092D03*
X151020Y261450D03*
X144720D03*
X147792Y255308D03*
X141500Y255300D03*
X163620Y241850D03*
X157320D03*
X151020D03*
X144620D03*
X160423Y236223D03*
X154123D03*
X147823D03*
X141500Y236200D03*
X258999Y243700D03*
X255099D03*
X251099D03*
X247199D03*
X243299D03*
X235399D03*
X239299D03*
X259133Y265000D03*
X262633Y269000D03*
Y277500D03*
X266133Y273000D03*
X259133Y273500D03*
X231399Y243700D03*
X227525D03*
X223525D03*
X219500Y265000D03*
X216000Y269000D03*
X212500Y273000D03*
X219500Y273500D03*
X216000Y277500D03*
G54D53*X205900Y370500D03*
X258900Y372500D03*
G54D52*X204900Y351000D03*
G54D53*X241900Y359000D03*
X362800Y359100D03*
X392300Y355100D03*
X309300Y369600D03*
X323300Y394100D03*
X329300Y369600D03*
X364300Y376100D03*
X328556Y378344D03*
X353800Y390600D03*
X343300Y397600D03*
X378300Y405600D03*
X364800D03*
X354300Y361100D03*
X343300Y352100D03*
X343800Y367600D03*
X366300Y349100D03*
G54D54*X146000Y300500D03*
X149900D03*
X153900D03*
X157800D03*
X161700D03*
X165700D03*
X169600D03*
X173600D03*
X223570Y300490D03*
X227470D03*
X231470D03*
X235370D03*
X239270D03*
X243270D03*
X247170D03*
X251170D03*
X255044D03*
X259044D03*
G54D55*G54D56*G54D55*G54D56*G54D55*G54D56*G54D55*G54D56*G54D55*G54D56*G54D55*G54D56*G54D55*G54D57*G54D56*G54D55*G54D56*G54D57*G54D58*G54D59*G54D58*G54D54*G54D59*M02*
