M48
INCH
T292C0.020
T291C0.035
T290C0.015
T289C0.030
T288C0.035
T287C0.109
%
T290
X019750Y193400
X020154Y193404
X020548Y193402
X020950Y193400
X021330Y193400
X021730Y193400
X022120Y193400
X022510Y193400
X022910Y193400
X023310Y193400
X019950Y195520
X020350Y195970
X020750Y195520
X021150Y195970
X021530Y195520
X021930Y195970
X022320Y195520
X022720Y195970
X023110Y195520
X023510Y195970
X023870Y196320
X024330Y196560
X019490Y198550
X019810Y199690
X020120Y198550
X020440Y199690
X020750Y198550
X021070Y199690
X021380Y198550
X021700Y199690
X022010Y198550
X022650Y197790
X023280Y197790
X023910Y197790
X022330Y199690
X022960Y199690
X023590Y199690
X022640Y198550
X023270Y198550
X023900Y198550
X014472Y216145
X016352Y216145
X015732Y216145
X015102Y216145
X014462Y214185
X016362Y214185
X015732Y214185
X015102Y214185
X016042Y213622
X015412Y213622
X014782Y213622
X014150Y213620
X016039Y215531
X015409Y215531
X014779Y215531
X014150Y215530
X022357Y220049
X022747Y220049
X023147Y220049
X023537Y220049
X023927Y220049
X024327Y220049
X024717Y220049
X025117Y220049
X025504Y220049
X025904Y220049
X025896Y213823
X025510Y214370
X025104Y213823
X024720Y214370
X024332Y213823
X023932Y214372
X023541Y213823
X023140Y214370
X022757Y213823
X022352Y214370
X023730Y216590
X023340Y217020
X022950Y216590
X022550Y217020
X022160Y216590
X025305Y216590
X024920Y217010
X025700Y217040
X024525Y216590
X024125Y217015
X014600Y220050
X014990Y220050
X015390Y220050
X015780Y220050
X016170Y220050
X016570Y220050
X016960Y220050
X017360Y220050
T292
X011200Y233400
X009450Y232900
X009250Y233500
X010750Y233850
X009950Y233850
X010350Y233400
X010700Y236350
X009385Y234215
X004800Y235300
X006750Y235300
X006100Y235300
X005450Y235300
X008300Y234550
X006700Y230800
X006900Y231400
X007500Y231400
X009800Y232350
X009700Y231200
X009150Y231550
X009800Y230350
X009128Y230372
X009141Y232341
T289
X048318Y195596
X050318Y195596
T291
X049950Y228400
X048250Y228550
X050950Y228750
X050350Y231350
X045300Y229950
X045300Y228600
X048900Y223050
X048026Y224976
X048900Y225050
X046450Y224450
X046800Y227500
X046100Y226450
X049750Y227550
X050650Y226450
X049100Y226500
X003950Y225400
X014800Y226950
X014800Y228450
X008350Y227200
X009750Y226400
X008450Y228550
X016500Y234900
X014500Y234900
X007750Y236200
X003600Y235950
X003100Y230450
T288
X019017Y214997
X013702Y214997
X019042Y197420
X024358Y197420
T287
X039670Y219610
X039670Y194610
X031670Y194610
X003670Y219610
X011670Y219610
X031670Y219610
X003670Y194610
X011670Y194610
M30
