G04 start of page 6 for group 4 idx 4 *
G04 Title: (unknown), outline *
G04 Creator: pcb 20110918 *
G04 CreationDate: Tue Nov 19 22:18:25 2013 UTC *
G04 For: fosse *
G04 Format: Gerber/RS-274X *
G04 PCB-Dimensions: 550000 700000 *
G04 PCB-Coordinate-Origin: lower left *
%MOIN*%
%FSLAX25Y25*%
%LNOUTLINE*%
%ADD128C,0.0000*%
%ADD127C,0.0100*%
%ADD126C,0.0050*%
%ADD125C,0.0101*%
%ADD124C,0.0080*%
%ADD123C,0.0079*%
%ADD122C,0.0100*%
%ADD121C,0.0070*%
%ADD120C,0.0060*%
%ADD119C,0.0001*%
G54D119*G36*
X221946Y398001D02*X198443D01*
Y426701D01*
X221946D01*
Y398001D01*
G37*
G36*
X218919D01*
Y398716D01*
X218923Y398715D01*
X219315Y398746D01*
X219698Y398838D01*
X220061Y398989D01*
X220397Y399194D01*
X220696Y399450D01*
X220952Y399749D01*
X221157Y400085D01*
X221308Y400448D01*
X221400Y400831D01*
X221423Y401223D01*
X221400Y401615D01*
X221308Y401998D01*
X221157Y402361D01*
X220952Y402697D01*
X220696Y402996D01*
X220397Y403252D01*
X220061Y403457D01*
X219698Y403608D01*
X219315Y403700D01*
X218923Y403731D01*
X218919Y403730D01*
Y417802D01*
X219284Y417831D01*
X219667Y417923D01*
X220030Y418074D01*
X220366Y418279D01*
X220665Y418535D01*
X220921Y418834D01*
X221126Y419170D01*
X221277Y419533D01*
X221369Y419916D01*
X221392Y420308D01*
X221369Y420700D01*
X221277Y421083D01*
X221126Y421446D01*
X220921Y421782D01*
X220665Y422081D01*
X220366Y422337D01*
X220030Y422542D01*
X219667Y422693D01*
X219284Y422785D01*
X218919Y422814D01*
Y426701D01*
X219532D01*
X219512Y426450D01*
X219543Y426058D01*
X219635Y425675D01*
X219786Y425312D01*
X219991Y424976D01*
X220247Y424677D01*
X220546Y424421D01*
X220882Y424216D01*
X221245Y424065D01*
X221628Y423973D01*
X221946Y423948D01*
Y409344D01*
X221728Y409327D01*
X221345Y409235D01*
X220982Y409084D01*
X220646Y408879D01*
X220347Y408623D01*
X220091Y408324D01*
X219886Y407988D01*
X219735Y407625D01*
X219643Y407242D01*
X219612Y406850D01*
X219643Y406458D01*
X219735Y406075D01*
X219886Y405712D01*
X220091Y405376D01*
X220347Y405077D01*
X220646Y404821D01*
X220982Y404616D01*
X221345Y404465D01*
X221728Y404373D01*
X221946Y404356D01*
Y398001D01*
G37*
G36*
X218919D02*X215816D01*
Y404343D01*
X215820Y404342D01*
X216212Y404373D01*
X216595Y404465D01*
X216958Y404616D01*
X217294Y404821D01*
X217593Y405077D01*
X217849Y405376D01*
X218054Y405712D01*
X218205Y406075D01*
X218297Y406458D01*
X218320Y406850D01*
X218297Y407242D01*
X218205Y407625D01*
X218054Y407988D01*
X217849Y408324D01*
X217593Y408623D01*
X217294Y408879D01*
X216958Y409084D01*
X216595Y409235D01*
X216212Y409327D01*
X215820Y409358D01*
X215816Y409357D01*
Y423943D01*
X215820Y423942D01*
X216212Y423973D01*
X216595Y424065D01*
X216958Y424216D01*
X217294Y424421D01*
X217593Y424677D01*
X217849Y424976D01*
X218054Y425312D01*
X218205Y425675D01*
X218297Y426058D01*
X218320Y426450D01*
X218305Y426701D01*
X218919D01*
Y422814D01*
X218892Y422816D01*
X218500Y422785D01*
X218117Y422693D01*
X217754Y422542D01*
X217418Y422337D01*
X217119Y422081D01*
X216863Y421782D01*
X216658Y421446D01*
X216507Y421083D01*
X216415Y420700D01*
X216384Y420308D01*
X216415Y419916D01*
X216507Y419533D01*
X216658Y419170D01*
X216863Y418834D01*
X217119Y418535D01*
X217418Y418279D01*
X217754Y418074D01*
X218117Y417923D01*
X218500Y417831D01*
X218892Y417800D01*
X218919Y417802D01*
Y403730D01*
X218531Y403700D01*
X218148Y403608D01*
X217785Y403457D01*
X217449Y403252D01*
X217150Y402996D01*
X216894Y402697D01*
X216689Y402361D01*
X216538Y401998D01*
X216446Y401615D01*
X216415Y401223D01*
X216446Y400831D01*
X216538Y400448D01*
X216689Y400085D01*
X216894Y399749D01*
X217150Y399450D01*
X217449Y399194D01*
X217785Y398989D01*
X218148Y398838D01*
X218531Y398746D01*
X218919Y398716D01*
Y398001D01*
G37*
G36*
X215816D02*X212619D01*
Y398716D01*
X212623Y398715D01*
X213015Y398746D01*
X213398Y398838D01*
X213761Y398989D01*
X214097Y399194D01*
X214396Y399450D01*
X214652Y399749D01*
X214857Y400085D01*
X215008Y400448D01*
X215100Y400831D01*
X215123Y401223D01*
X215100Y401615D01*
X215008Y401998D01*
X214857Y402361D01*
X214652Y402697D01*
X214396Y402996D01*
X214097Y403252D01*
X213761Y403457D01*
X213398Y403608D01*
X213015Y403700D01*
X212623Y403731D01*
X212619Y403730D01*
Y417802D01*
X212984Y417831D01*
X213367Y417923D01*
X213730Y418074D01*
X214066Y418279D01*
X214365Y418535D01*
X214621Y418834D01*
X214826Y419170D01*
X214977Y419533D01*
X215069Y419916D01*
X215092Y420308D01*
X215069Y420700D01*
X214977Y421083D01*
X214826Y421446D01*
X214621Y421782D01*
X214365Y422081D01*
X214066Y422337D01*
X213730Y422542D01*
X213367Y422693D01*
X212984Y422785D01*
X212619Y422814D01*
Y426701D01*
X213332D01*
X213312Y426450D01*
X213343Y426058D01*
X213435Y425675D01*
X213586Y425312D01*
X213791Y424976D01*
X214047Y424677D01*
X214346Y424421D01*
X214682Y424216D01*
X215045Y424065D01*
X215428Y423973D01*
X215816Y423943D01*
Y409357D01*
X215428Y409327D01*
X215045Y409235D01*
X214682Y409084D01*
X214346Y408879D01*
X214047Y408623D01*
X213791Y408324D01*
X213586Y407988D01*
X213435Y407625D01*
X213343Y407242D01*
X213312Y406850D01*
X213343Y406458D01*
X213435Y406075D01*
X213586Y405712D01*
X213791Y405376D01*
X214047Y405077D01*
X214346Y404821D01*
X214682Y404616D01*
X215045Y404465D01*
X215428Y404373D01*
X215816Y404343D01*
Y398001D01*
G37*
G36*
X212619D02*X209516D01*
Y404343D01*
X209520Y404342D01*
X209912Y404373D01*
X210295Y404465D01*
X210658Y404616D01*
X210994Y404821D01*
X211293Y405077D01*
X211549Y405376D01*
X211754Y405712D01*
X211905Y406075D01*
X211997Y406458D01*
X212020Y406850D01*
X211997Y407242D01*
X211905Y407625D01*
X211754Y407988D01*
X211549Y408324D01*
X211293Y408623D01*
X210994Y408879D01*
X210658Y409084D01*
X210295Y409235D01*
X209912Y409327D01*
X209520Y409358D01*
X209516Y409357D01*
Y423943D01*
X209520Y423942D01*
X209912Y423973D01*
X210295Y424065D01*
X210658Y424216D01*
X210994Y424421D01*
X211293Y424677D01*
X211549Y424976D01*
X211754Y425312D01*
X211905Y425675D01*
X211997Y426058D01*
X212020Y426450D01*
X212005Y426701D01*
X212619D01*
Y422814D01*
X212592Y422816D01*
X212200Y422785D01*
X211817Y422693D01*
X211454Y422542D01*
X211118Y422337D01*
X210819Y422081D01*
X210563Y421782D01*
X210358Y421446D01*
X210207Y421083D01*
X210115Y420700D01*
X210084Y420308D01*
X210115Y419916D01*
X210207Y419533D01*
X210358Y419170D01*
X210563Y418834D01*
X210819Y418535D01*
X211118Y418279D01*
X211454Y418074D01*
X211817Y417923D01*
X212200Y417831D01*
X212592Y417800D01*
X212619Y417802D01*
Y403730D01*
X212231Y403700D01*
X211848Y403608D01*
X211485Y403457D01*
X211149Y403252D01*
X210850Y402996D01*
X210594Y402697D01*
X210389Y402361D01*
X210238Y401998D01*
X210146Y401615D01*
X210115Y401223D01*
X210146Y400831D01*
X210238Y400448D01*
X210389Y400085D01*
X210594Y399749D01*
X210850Y399450D01*
X211149Y399194D01*
X211485Y398989D01*
X211848Y398838D01*
X212231Y398746D01*
X212619Y398716D01*
Y398001D01*
G37*
G36*
X209516D02*X206319D01*
Y398716D01*
X206323Y398715D01*
X206715Y398746D01*
X207098Y398838D01*
X207461Y398989D01*
X207797Y399194D01*
X208096Y399450D01*
X208352Y399749D01*
X208557Y400085D01*
X208708Y400448D01*
X208800Y400831D01*
X208823Y401223D01*
X208800Y401615D01*
X208708Y401998D01*
X208557Y402361D01*
X208352Y402697D01*
X208096Y402996D01*
X207797Y403252D01*
X207461Y403457D01*
X207098Y403608D01*
X206715Y403700D01*
X206323Y403731D01*
X206319Y403730D01*
Y417802D01*
X206684Y417831D01*
X207067Y417923D01*
X207430Y418074D01*
X207766Y418279D01*
X208065Y418535D01*
X208321Y418834D01*
X208526Y419170D01*
X208677Y419533D01*
X208769Y419916D01*
X208792Y420308D01*
X208769Y420700D01*
X208677Y421083D01*
X208526Y421446D01*
X208321Y421782D01*
X208065Y422081D01*
X207766Y422337D01*
X207430Y422542D01*
X207067Y422693D01*
X206684Y422785D01*
X206319Y422814D01*
Y426701D01*
X207032D01*
X207012Y426450D01*
X207043Y426058D01*
X207135Y425675D01*
X207286Y425312D01*
X207491Y424976D01*
X207747Y424677D01*
X208046Y424421D01*
X208382Y424216D01*
X208745Y424065D01*
X209128Y423973D01*
X209516Y423943D01*
Y409357D01*
X209128Y409327D01*
X208745Y409235D01*
X208382Y409084D01*
X208046Y408879D01*
X207747Y408623D01*
X207491Y408324D01*
X207286Y407988D01*
X207135Y407625D01*
X207043Y407242D01*
X207012Y406850D01*
X207043Y406458D01*
X207135Y406075D01*
X207286Y405712D01*
X207491Y405376D01*
X207747Y405077D01*
X208046Y404821D01*
X208382Y404616D01*
X208745Y404465D01*
X209128Y404373D01*
X209516Y404343D01*
Y398001D01*
G37*
G36*
X206319D02*X203116D01*
Y404343D01*
X203120Y404342D01*
X203512Y404373D01*
X203895Y404465D01*
X204258Y404616D01*
X204594Y404821D01*
X204893Y405077D01*
X205149Y405376D01*
X205354Y405712D01*
X205505Y406075D01*
X205597Y406458D01*
X205620Y406850D01*
X205597Y407242D01*
X205505Y407625D01*
X205354Y407988D01*
X205149Y408324D01*
X204893Y408623D01*
X204594Y408879D01*
X204258Y409084D01*
X203895Y409235D01*
X203512Y409327D01*
X203120Y409358D01*
X203116Y409357D01*
Y423950D01*
X203220Y423942D01*
X203612Y423973D01*
X203995Y424065D01*
X204358Y424216D01*
X204694Y424421D01*
X204993Y424677D01*
X205249Y424976D01*
X205454Y425312D01*
X205605Y425675D01*
X205697Y426058D01*
X205720Y426450D01*
X205705Y426701D01*
X206319D01*
Y422814D01*
X206292Y422816D01*
X205900Y422785D01*
X205517Y422693D01*
X205154Y422542D01*
X204818Y422337D01*
X204519Y422081D01*
X204263Y421782D01*
X204058Y421446D01*
X203907Y421083D01*
X203815Y420700D01*
X203784Y420308D01*
X203815Y419916D01*
X203907Y419533D01*
X204058Y419170D01*
X204263Y418834D01*
X204519Y418535D01*
X204818Y418279D01*
X205154Y418074D01*
X205517Y417923D01*
X205900Y417831D01*
X206292Y417800D01*
X206319Y417802D01*
Y403730D01*
X205931Y403700D01*
X205548Y403608D01*
X205185Y403457D01*
X204849Y403252D01*
X204550Y402996D01*
X204294Y402697D01*
X204089Y402361D01*
X203938Y401998D01*
X203846Y401615D01*
X203815Y401223D01*
X203846Y400831D01*
X203938Y400448D01*
X204089Y400085D01*
X204294Y399749D01*
X204550Y399450D01*
X204849Y399194D01*
X205185Y398989D01*
X205548Y398838D01*
X205931Y398746D01*
X206319Y398716D01*
Y398001D01*
G37*
G36*
X203116D02*X198443D01*
Y399242D01*
X198526Y399171D01*
X198862Y398966D01*
X199225Y398815D01*
X199608Y398723D01*
X200000Y398692D01*
X200392Y398723D01*
X200775Y398815D01*
X201138Y398966D01*
X201474Y399171D01*
X201773Y399427D01*
X202029Y399726D01*
X202234Y400062D01*
X202385Y400425D01*
X202477Y400808D01*
X202500Y401200D01*
X202477Y401592D01*
X202385Y401975D01*
X202234Y402338D01*
X202029Y402674D01*
X201773Y402973D01*
X201474Y403229D01*
X201138Y403434D01*
X200775Y403585D01*
X200392Y403677D01*
X200000Y403708D01*
X199608Y403677D01*
X199225Y403585D01*
X198862Y403434D01*
X198526Y403229D01*
X198443Y403158D01*
Y412663D01*
X198536Y412772D01*
X198842Y413271D01*
X199066Y413812D01*
X199203Y414382D01*
X199238Y414966D01*
X199203Y415550D01*
X199066Y416120D01*
X198842Y416661D01*
X198536Y417160D01*
X198443Y417269D01*
Y418342D01*
X198526Y418271D01*
X198862Y418066D01*
X199225Y417915D01*
X199608Y417823D01*
X200000Y417792D01*
X200392Y417823D01*
X200775Y417915D01*
X201138Y418066D01*
X201474Y418271D01*
X201773Y418527D01*
X202029Y418826D01*
X202234Y419162D01*
X202385Y419525D01*
X202477Y419908D01*
X202500Y420300D01*
X202477Y420692D01*
X202385Y421075D01*
X202234Y421438D01*
X202029Y421774D01*
X201773Y422073D01*
X201474Y422329D01*
X201138Y422534D01*
X200775Y422685D01*
X200392Y422777D01*
X200000Y422808D01*
X199608Y422777D01*
X199225Y422685D01*
X198862Y422534D01*
X198526Y422329D01*
X198443Y422258D01*
Y426701D01*
X200732D01*
X200712Y426450D01*
X200743Y426058D01*
X200835Y425675D01*
X200986Y425312D01*
X201191Y424976D01*
X201447Y424677D01*
X201746Y424421D01*
X202082Y424216D01*
X202445Y424065D01*
X202828Y423973D01*
X203116Y423950D01*
Y409357D01*
X202728Y409327D01*
X202345Y409235D01*
X201982Y409084D01*
X201646Y408879D01*
X201347Y408623D01*
X201091Y408324D01*
X200886Y407988D01*
X200735Y407625D01*
X200643Y407242D01*
X200612Y406850D01*
X200643Y406458D01*
X200735Y406075D01*
X200886Y405712D01*
X201091Y405376D01*
X201347Y405077D01*
X201646Y404821D01*
X201982Y404616D01*
X202345Y404465D01*
X202728Y404373D01*
X203116Y404343D01*
Y398001D01*
G37*
G36*
X249446D02*X225945D01*
Y426701D01*
X249446D01*
Y398001D01*
G37*
G36*
X225945D01*
Y426701D01*
X249446D01*
Y418606D01*
X249250Y418653D01*
X248666Y418699D01*
X248082Y418653D01*
X247512Y418516D01*
X246971Y418292D01*
X246472Y417986D01*
X246026Y417606D01*
X245646Y417160D01*
X245340Y416661D01*
X245116Y416120D01*
X244979Y415550D01*
X244933Y414966D01*
X244979Y414382D01*
X245116Y413812D01*
X245340Y413271D01*
X245646Y412772D01*
X246026Y412326D01*
X246472Y411946D01*
X246971Y411640D01*
X247512Y411416D01*
X248082Y411279D01*
X248666Y411233D01*
X249250Y411279D01*
X249446Y411326D01*
Y398001D01*
G37*
G36*
X165842Y438099D02*Y461596D01*
X194542D01*
Y438099D01*
X165842D01*
G37*
G36*
X168446Y402998D02*Y431698D01*
X191943D01*
Y416025D01*
X191829Y415550D01*
X191783Y414966D01*
X191829Y414382D01*
X191943Y413907D01*
Y402998D01*
X168446D01*
G37*
G36*
X165842Y438099D02*Y451339D01*
X167240Y450145D01*
X169052Y449034D01*
X171015Y448221D01*
X173082Y447725D01*
X175200Y447558D01*
X177318Y447725D01*
X179385Y448221D01*
X181348Y449034D01*
X183160Y450145D01*
X184775Y451525D01*
X186155Y453140D01*
X187266Y454952D01*
X188079Y456915D01*
X188183Y457350D01*
X194542D01*
Y438099D01*
X165842D01*
G37*
G36*
X168446Y402998D02*Y431698D01*
X191943D01*
Y416025D01*
X191829Y415550D01*
X191783Y414966D01*
X191829Y414382D01*
X191943Y413907D01*
Y402998D01*
X168446D01*
G37*
G36*
X186192Y280346D02*X196198D01*
Y270348D01*
X186192D01*
Y280346D01*
G37*
G36*
X196198D01*
Y270348D01*
X186192D01*
Y280346D01*
G37*
G36*
X130843Y363099D02*Y386596D01*
X159543D01*
Y363099D01*
X130843D01*
G37*
G36*
X159543Y390601D02*X130843D01*
Y414098D01*
X159543D01*
Y390601D01*
G37*
G36*
X130843Y363099D02*Y386596D01*
X159543D01*
Y363099D01*
X130843D01*
G37*
G36*
X159543Y390601D02*X130843D01*
Y414098D01*
X159543D01*
Y390601D01*
G37*
G36*
X130843Y418102D02*Y436838D01*
X131012Y436784D01*
X132385Y436480D01*
X133779Y436296D01*
X135183Y436235D01*
X135358Y436248D01*
X135399Y436258D01*
X136588Y436297D01*
X137982Y436480D01*
X139354Y436784D01*
X140695Y437207D01*
X141994Y437745D01*
X143241Y438394D01*
X144427Y439150D01*
X145543Y440006D01*
X146579Y440956D01*
X147169Y441599D01*
X159543D01*
Y418102D01*
X130843D01*
G37*
G36*
Y441599D01*
X159543D01*
Y418102D01*
X130843D01*
G37*
G36*
X404942Y431498D02*X381446D01*
Y460198D01*
X404942D01*
Y431498D01*
G37*
G36*
X381446D01*
Y460198D01*
X404942D01*
Y431498D01*
G37*
G36*
X359945Y398501D02*X336442D01*
Y427201D01*
X344718D01*
X344793Y427170D01*
X344961Y427130D01*
X344962Y427130D01*
X345134Y427116D01*
X345177Y427120D01*
X350364D01*
X350407Y427116D01*
X350579Y427130D01*
X350580Y427130D01*
X350748Y427170D01*
X350823Y427201D01*
X359945D01*
Y398501D01*
G37*
G36*
X386442D02*X362945D01*
Y427201D01*
X386442D01*
Y398501D01*
G37*
G36*
X414442D02*X390945D01*
Y427201D01*
X414442D01*
Y398501D01*
G37*
G36*
X359945D02*X336442D01*
Y427201D01*
X344718D01*
X344793Y427170D01*
X344961Y427130D01*
X344962Y427130D01*
X345134Y427116D01*
X345177Y427120D01*
X350364D01*
X350407Y427116D01*
X350579Y427130D01*
X350580Y427130D01*
X350748Y427170D01*
X350823Y427201D01*
X359945D01*
Y398501D01*
G37*
G36*
X386442D02*X362945D01*
Y427201D01*
X386442D01*
Y398501D01*
G37*
G36*
X414442D02*X390945D01*
Y427201D01*
X414442D01*
Y398501D01*
G37*
G36*
X409446Y350502D02*X385943D01*
Y379202D01*
X409446D01*
Y350502D01*
G37*
G36*
X381945D02*X358442D01*
Y379202D01*
X381945D01*
Y350502D01*
G37*
G36*
X409446D02*X385943D01*
Y379202D01*
X409446D01*
Y350502D01*
G37*
G36*
X381945D02*X358442D01*
Y379202D01*
X381945D01*
Y350502D01*
G37*
G36*
X417661Y209265D02*X415228Y210153D01*
X414522Y211849D01*
X417661D01*
Y209265D01*
G37*
G36*
X416211Y222873D02*X415793Y221871D01*
X414040Y221231D01*
X412282Y221871D01*
X411867Y222873D01*
X416211D01*
G37*
G36*
X393874Y211849D02*X393164Y210153D01*
X390736Y209265D01*
Y211849D01*
X393874D01*
G37*
G36*
X396528Y222873D02*X396110Y221871D01*
X394357Y221231D01*
X392599Y221871D01*
X392184Y222873D01*
X396528D01*
G37*
G36*
X369400Y230352D02*X368928Y229228D01*
X367897Y228855D01*
X366867Y229228D01*
X366400Y230352D01*
X366867Y231474D01*
X367897Y231849D01*
X368928Y231474D01*
X369400Y230352D01*
G37*
G36*
X329996D02*X329524Y229228D01*
X328493Y228855D01*
X327463Y229228D01*
X326996Y230352D01*
X327463Y231474D01*
X328493Y231849D01*
X329524Y231474D01*
X329996Y230352D01*
G37*
G36*
X274599Y398001D02*X253445D01*
Y426701D01*
X274599D01*
Y398001D01*
G37*
G36*
X253445D01*
Y426701D01*
X274599D01*
Y398001D01*
G37*
G36*
X304443D02*X280946D01*
Y426701D01*
X304443D01*
Y398001D01*
G37*
G36*
X333442D02*X309945D01*
Y426701D01*
X333442D01*
Y398001D01*
G37*
G36*
X304443D02*X301816D01*
Y400723D01*
X301820Y400722D01*
X302212Y400753D01*
X302595Y400845D01*
X302958Y400996D01*
X303294Y401201D01*
X303593Y401457D01*
X303849Y401756D01*
X304054Y402092D01*
X304205Y402455D01*
X304297Y402838D01*
X304320Y403230D01*
X304297Y403622D01*
X304205Y404005D01*
X304054Y404368D01*
X303849Y404704D01*
X303593Y405003D01*
X303294Y405259D01*
X302958Y405464D01*
X302595Y405615D01*
X302212Y405707D01*
X301820Y405738D01*
X301816Y405737D01*
Y426701D01*
X304443D01*
Y410862D01*
X304225Y410729D01*
X303926Y410473D01*
X303670Y410174D01*
X303465Y409838D01*
X303314Y409475D01*
X303222Y409092D01*
X303191Y408700D01*
X303222Y408308D01*
X303314Y407925D01*
X303465Y407562D01*
X303670Y407226D01*
X303926Y406927D01*
X304225Y406671D01*
X304443Y406538D01*
Y398001D01*
G37*
G36*
X301816D02*X297812D01*
Y406211D01*
X297816Y406210D01*
X298208Y406241D01*
X298591Y406333D01*
X298954Y406484D01*
X299290Y406689D01*
X299589Y406945D01*
X299845Y407244D01*
X300050Y407580D01*
X300201Y407943D01*
X300293Y408326D01*
X300316Y408718D01*
X300293Y409110D01*
X300201Y409493D01*
X300050Y409856D01*
X299845Y410192D01*
X299589Y410491D01*
X299290Y410747D01*
X298954Y410952D01*
X298591Y411103D01*
X298208Y411195D01*
X297816Y411226D01*
X297812Y411225D01*
Y426701D01*
X301816D01*
Y405737D01*
X301428Y405707D01*
X301045Y405615D01*
X300682Y405464D01*
X300346Y405259D01*
X300047Y405003D01*
X299791Y404704D01*
X299586Y404368D01*
X299435Y404005D01*
X299343Y403622D01*
X299312Y403230D01*
X299343Y402838D01*
X299435Y402455D01*
X299586Y402092D01*
X299791Y401756D01*
X300047Y401457D01*
X300346Y401201D01*
X300682Y400996D01*
X301045Y400845D01*
X301428Y400753D01*
X301816Y400723D01*
Y398001D01*
G37*
G36*
X297812D02*X293906D01*
Y400723D01*
X293910Y400722D01*
X294302Y400753D01*
X294685Y400845D01*
X295048Y400996D01*
X295384Y401201D01*
X295683Y401457D01*
X295939Y401756D01*
X296144Y402092D01*
X296295Y402455D01*
X296387Y402838D01*
X296410Y403230D01*
X296387Y403622D01*
X296295Y404005D01*
X296144Y404368D01*
X295939Y404704D01*
X295683Y405003D01*
X295384Y405259D01*
X295048Y405464D01*
X294685Y405615D01*
X294302Y405707D01*
X293910Y405738D01*
X293906Y405737D01*
Y426701D01*
X297812D01*
Y411225D01*
X297424Y411195D01*
X297041Y411103D01*
X296678Y410952D01*
X296342Y410747D01*
X296043Y410491D01*
X295787Y410192D01*
X295582Y409856D01*
X295431Y409493D01*
X295339Y409110D01*
X295308Y408718D01*
X295339Y408326D01*
X295431Y407943D01*
X295582Y407580D01*
X295787Y407244D01*
X296043Y406945D01*
X296342Y406689D01*
X296678Y406484D01*
X297041Y406333D01*
X297424Y406241D01*
X297812Y406211D01*
Y398001D01*
G37*
G36*
X293906D02*X289895D01*
Y406193D01*
X289899Y406192D01*
X290291Y406223D01*
X290674Y406315D01*
X291037Y406466D01*
X291373Y406671D01*
X291672Y406927D01*
X291928Y407226D01*
X292133Y407562D01*
X292284Y407925D01*
X292376Y408308D01*
X292399Y408700D01*
X292376Y409092D01*
X292284Y409475D01*
X292133Y409838D01*
X291928Y410174D01*
X291672Y410473D01*
X291373Y410729D01*
X291037Y410934D01*
X290674Y411085D01*
X290291Y411177D01*
X289899Y411208D01*
X289895Y411207D01*
Y426701D01*
X293906D01*
Y405737D01*
X293518Y405707D01*
X293135Y405615D01*
X292772Y405464D01*
X292436Y405259D01*
X292137Y405003D01*
X291881Y404704D01*
X291676Y404368D01*
X291525Y404005D01*
X291433Y403622D01*
X291402Y403230D01*
X291433Y402838D01*
X291525Y402455D01*
X291676Y402092D01*
X291881Y401756D01*
X292137Y401457D01*
X292436Y401201D01*
X292772Y400996D01*
X293135Y400845D01*
X293518Y400753D01*
X293906Y400723D01*
Y398001D01*
G37*
G36*
X289895D02*X286066D01*
Y400723D01*
X286070Y400722D01*
X286462Y400753D01*
X286845Y400845D01*
X287208Y400996D01*
X287544Y401201D01*
X287843Y401457D01*
X288099Y401756D01*
X288304Y402092D01*
X288455Y402455D01*
X288547Y402838D01*
X288570Y403230D01*
X288547Y403622D01*
X288455Y404005D01*
X288304Y404368D01*
X288099Y404704D01*
X287843Y405003D01*
X287544Y405259D01*
X287208Y405464D01*
X286845Y405615D01*
X286462Y405707D01*
X286070Y405738D01*
X286066Y405737D01*
Y426701D01*
X289895D01*
Y411207D01*
X289507Y411177D01*
X289124Y411085D01*
X288761Y410934D01*
X288425Y410729D01*
X288126Y410473D01*
X287870Y410174D01*
X287665Y409838D01*
X287514Y409475D01*
X287422Y409092D01*
X287391Y408700D01*
X287422Y408308D01*
X287514Y407925D01*
X287665Y407562D01*
X287870Y407226D01*
X288126Y406927D01*
X288425Y406671D01*
X288761Y406466D01*
X289124Y406315D01*
X289507Y406223D01*
X289895Y406193D01*
Y398001D01*
G37*
G36*
X286066D02*X280946D01*
Y406441D01*
X281250Y406315D01*
X281633Y406223D01*
X282025Y406192D01*
X282417Y406223D01*
X282800Y406315D01*
X283163Y406466D01*
X283499Y406671D01*
X283798Y406927D01*
X284054Y407226D01*
X284259Y407562D01*
X284410Y407925D01*
X284502Y408308D01*
X284525Y408700D01*
X284502Y409092D01*
X284410Y409475D01*
X284259Y409838D01*
X284054Y410174D01*
X283798Y410473D01*
X283499Y410729D01*
X283163Y410934D01*
X282800Y411085D01*
X282417Y411177D01*
X282025Y411208D01*
X281633Y411177D01*
X281250Y411085D01*
X280946Y410959D01*
Y426701D01*
X286066D01*
Y405737D01*
X285678Y405707D01*
X285295Y405615D01*
X284932Y405464D01*
X284596Y405259D01*
X284297Y405003D01*
X284041Y404704D01*
X283836Y404368D01*
X283685Y404005D01*
X283593Y403622D01*
X283562Y403230D01*
X283593Y402838D01*
X283685Y402455D01*
X283836Y402092D01*
X284041Y401756D01*
X284297Y401457D01*
X284596Y401201D01*
X284932Y400996D01*
X285295Y400845D01*
X285678Y400753D01*
X286066Y400723D01*
Y398001D01*
G37*
G36*
X333442D02*X317456D01*
Y400723D01*
X317460Y400722D01*
X317852Y400753D01*
X318235Y400845D01*
X318598Y400996D01*
X318934Y401201D01*
X319233Y401457D01*
X319489Y401756D01*
X319694Y402092D01*
X319845Y402455D01*
X319937Y402838D01*
X319960Y403230D01*
X319937Y403622D01*
X319845Y404005D01*
X319694Y404368D01*
X319489Y404704D01*
X319233Y405003D01*
X318934Y405259D01*
X318598Y405464D01*
X318235Y405615D01*
X317852Y405707D01*
X317460Y405738D01*
X317456Y405737D01*
Y426701D01*
X333442D01*
Y398001D01*
G37*
G36*
X317456D02*X313595D01*
Y406193D01*
X313599Y406192D01*
X313991Y406223D01*
X314374Y406315D01*
X314737Y406466D01*
X315073Y406671D01*
X315372Y406927D01*
X315628Y407226D01*
X315833Y407562D01*
X315984Y407925D01*
X316076Y408308D01*
X316099Y408700D01*
X316076Y409092D01*
X315984Y409475D01*
X315833Y409838D01*
X315628Y410174D01*
X315372Y410473D01*
X315073Y410729D01*
X314737Y410934D01*
X314374Y411085D01*
X313991Y411177D01*
X313599Y411208D01*
X313595Y411207D01*
Y426701D01*
X317456D01*
Y405737D01*
X317068Y405707D01*
X316685Y405615D01*
X316322Y405464D01*
X315986Y405259D01*
X315687Y405003D01*
X315431Y404704D01*
X315226Y404368D01*
X315075Y404005D01*
X314983Y403622D01*
X314952Y403230D01*
X314983Y402838D01*
X315075Y402455D01*
X315226Y402092D01*
X315431Y401756D01*
X315687Y401457D01*
X315986Y401201D01*
X316322Y400996D01*
X316685Y400845D01*
X317068Y400753D01*
X317456Y400723D01*
Y398001D01*
G37*
G36*
X313595D02*X309945D01*
Y400756D01*
X310315Y400845D01*
X310678Y400996D01*
X311014Y401201D01*
X311313Y401457D01*
X311569Y401756D01*
X311774Y402092D01*
X311925Y402455D01*
X312017Y402838D01*
X312040Y403230D01*
X312017Y403622D01*
X311925Y404005D01*
X311774Y404368D01*
X311569Y404704D01*
X311313Y405003D01*
X311014Y405259D01*
X310678Y405464D01*
X310315Y405615D01*
X309945Y405704D01*
Y426701D01*
X313595D01*
Y411207D01*
X313207Y411177D01*
X312824Y411085D01*
X312461Y410934D01*
X312125Y410729D01*
X311826Y410473D01*
X311570Y410174D01*
X311365Y409838D01*
X311214Y409475D01*
X311122Y409092D01*
X311091Y408700D01*
X311122Y408308D01*
X311214Y407925D01*
X311365Y407562D01*
X311570Y407226D01*
X311826Y406927D01*
X312125Y406671D01*
X312461Y406466D01*
X312824Y406315D01*
X313207Y406223D01*
X313595Y406193D01*
Y398001D01*
G37*
G54D120*X476500Y191300D02*Y480900D01*
G54D121*X427696Y458451D02*Y263648D01*
G54D122*Y213349D02*Y458352D01*
G54D123*X427646Y458651D02*Y263769D01*
G54D121*X427630Y213358D02*Y458356D01*
G54D124*X427639Y458519D02*Y213419D01*
G54D121*X427696Y458548D02*X427198Y461001D01*
G54D122*X427381Y460527D02*X427582Y459763D01*
X427685Y458981D01*
X427696Y458552D01*
X421701Y213349D02*Y458850D01*
G54D121*X425786Y209208D02*X423784Y207857D01*
Y464362D02*X425786Y463016D01*
X425765Y463005D02*X423762Y464355D01*
X425786Y463016D02*X427132Y461015D01*
X427115Y461002D02*X425765Y463005D01*
X427132Y461015D02*X427630Y458556D01*
X427615Y458555D02*X427115Y461002D01*
X425846Y463002D02*X423845Y464353D01*
G54D122*X424424Y464075D02*X425086Y463657D01*
X425699Y463153D01*
X421397Y464852D02*X422183Y464802D01*
X415835Y451564D02*X415048Y451171D01*
G54D125*Y453533D02*Y451171D01*
X413867Y452352D02*X416229D01*
G54D122*X422183Y464802D02*X422960Y464656D01*
X423708Y464412D01*
G54D121*X421332Y464855D02*X423784Y464362D01*
X423762Y464355D02*X421316Y464855D01*
G54D122*X423708Y464412D02*X424424Y464075D01*
G54D121*X427198Y461001D02*X425846Y463002D01*
G54D122*X425699Y463153D02*X426236Y462584D01*
X426703Y461949D01*
X427088Y461260D01*
X427381Y460527D01*
X427696Y213652D02*X427647Y212866D01*
X427500Y212089D01*
X416384Y269858D02*X415988Y270796D01*
X415130Y271111D01*
X414273Y270796D01*
X415109Y271105D02*X415966Y270790D01*
X416362Y269856D01*
G54D125*X416384Y269858D02*X413883D01*
G54D122*X414273Y270796D02*X413883Y269858D01*
X414273Y268924D01*
X414252Y268917D02*X413861Y269856D01*
X414252Y270790D01*
G54D125*X415130Y271111D02*Y268610D01*
G54D122*X415988Y268924D02*X416384Y269858D01*
X416362Y269856D02*X415966Y268917D01*
X414273Y268924D02*X415130Y268610D01*
X415988Y268924D01*
X415966Y268917D02*X415109Y268603D01*
X414252Y268917D01*
Y270790D02*X415109Y271105D01*
G54D121*X421316Y257356D02*X423762Y257851D01*
X425765Y259201D01*
X427115Y261203D01*
X427615Y263655D01*
X427630Y213656D02*X427132Y211210D01*
X425786Y209208D01*
X423784Y207857D02*X421332Y207358D01*
G54D126*X310247Y218150D02*Y221248D01*
X309786Y220630D01*
Y218150D02*X310710D01*
X310150D02*Y221248D01*
G54D122*X308181Y232777D02*Y215453D01*
G54D126*X310150Y221248D02*X309689Y220630D01*
Y218150D02*X310606D01*
X310351Y239650D02*Y242749D01*
X309890Y242130D01*
Y239650D02*X310807D01*
X302349Y234952D02*Y238050D01*
X301888Y237431D01*
Y234952D02*X302810D01*
X301888Y234849D02*X302810D01*
X302349D02*Y237952D01*
X301888Y237328D01*
X313488Y239650D02*X313790Y239699D01*
X314100Y239960D01*
X314290Y240268D01*
X314328Y240578D01*
X314251Y240942D01*
X313986Y241202D01*
X313715Y241305D01*
X312603Y240268D02*X312836Y239912D01*
X313140Y239699D01*
X313488Y239650D01*
X313715Y241305D02*X313372D01*
X313715D02*X313949Y241457D01*
X314138Y241717D01*
X314214Y242027D01*
X314138Y242336D01*
X313949Y242596D01*
X313601Y242749D01*
X313258Y242699D01*
X312911Y242493D01*
X313807Y218150D02*Y221248D01*
X312390Y219028D01*
X314306D01*
X313710Y218150D02*Y221248D01*
X312288Y219028D01*
X314208D01*
G54D122*X405858Y219728D02*Y227828D01*
X403299Y219728D02*Y227828D01*
X405099D01*
Y219728D01*
X402539Y227828D02*Y219728D01*
X405858Y227828D02*X407654D01*
X400738D02*X402539D01*
G54D126*X418804Y227074D02*X418463Y226868D01*
X418576Y228214D01*
G54D122*X407654Y227828D02*Y219728D01*
X405186Y217098D02*X411083D01*
X408414Y219728D02*Y227828D01*
X410215D01*
Y219728D01*
X400738D02*Y227828D01*
X398182Y219728D02*Y227828D01*
X399978D01*
Y219728D01*
G54D120*X389436Y224173D02*X418961D01*
G54D126*X389860Y224936D02*Y228035D01*
X389399Y227416D01*
Y224936D02*X390321D01*
G54D122*X427500Y212089D02*X427261Y211341D01*
X426925Y210625D01*
X426503Y209957D01*
X426003Y209350D01*
X425433Y208807D01*
X424793Y208346D01*
X424104Y207961D01*
X423378Y207668D01*
X422613Y207467D01*
X421831Y207364D01*
X421397Y207348D01*
X388058Y207441D02*X420339D01*
G54D120*X418961Y204489D02*X389436D01*
G54D122*X405186Y209198D02*Y217098D01*
X397314Y209198D02*Y217098D01*
X403211D01*
Y209198D01*
X411083Y217098D02*Y209198D01*
G54D120*X418961Y224173D02*Y204489D01*
G54D126*X418190Y225577D02*X418424Y225317D01*
X418690Y225164D01*
X419038Y225110D01*
X419379Y225214D01*
X419650Y225420D01*
X419840Y225784D01*
X419878Y226196D01*
X419801Y226607D01*
X419613Y226868D01*
X419340Y227074D01*
X419075Y227128D01*
X418804Y227074D01*
X418576Y228214D02*X419613D01*
X383447Y242949D02*Y246052D01*
X382990Y245428D01*
Y242949D02*X383908D01*
X382720Y217932D02*X382947Y218242D01*
X383219Y218399D01*
X383522Y218448D01*
X383908Y218345D01*
X384179Y218091D01*
X384256Y217781D01*
X384217Y217466D01*
G54D120*X389436Y204489D02*Y224173D01*
G54D126*X384217Y217466D02*X384060Y217211D01*
X383295Y216696D01*
X382947Y216332D01*
X382720Y215817D01*
X382643Y215350D01*
X384256D01*
G54D120*X388357Y233150D02*X388036Y233352D01*
X387663Y233482D01*
X387233D01*
X386756Y233281D01*
X386382Y232950D01*
X386115Y232549D01*
X385899Y231881D01*
X385850Y231285D01*
X385953Y230682D01*
X386115Y230281D01*
X386436Y229885D01*
X386810Y229618D01*
X387179Y229484D01*
X387554D01*
X387928Y229618D01*
X388249Y229814D01*
X388514Y230085D01*
X389957Y229484D02*Y233482D01*
X392410Y229484D01*
Y233482D01*
X395182Y229484D02*Y233482D01*
X394542Y229484D02*X395822D01*
X395182Y233482D02*X394542Y232684D01*
G54D127*X320500Y321848D02*X320546D01*
X320500D02*X316346Y326002D01*
G54D122*X322574Y216582D02*Y227384D01*
X326578D01*
Y216582D01*
X315196Y244349D02*Y216349D01*
G54D126*X310449Y239650D02*Y242749D01*
X309988Y242130D01*
Y239650D02*X310910D01*
X312706Y240268D02*X312933Y239912D01*
X313243Y239699D01*
X313585Y239650D01*
X313893Y239699D01*
X314197Y239960D01*
X314393Y240268D01*
X314431Y240578D01*
X314354Y240942D01*
X314083Y241202D01*
X313818Y241305D01*
X313471D01*
X313818D02*X314046Y241457D01*
X314240Y241717D01*
X314317Y242027D01*
X314240Y242336D01*
X314046Y242596D01*
X313704Y242749D01*
X313357Y242699D01*
X313010Y242493D01*
G54D122*X369818Y216582D02*Y227384D01*
X373822D01*
Y216582D01*
Y244116D02*Y233314D01*
X369818D02*Y244116D01*
X361946D02*X365945D01*
Y233314D01*
X369818Y244116D02*X373822D01*
X361946Y233314D02*Y244116D01*
X354074D02*X358072D01*
Y233314D01*
X354074Y216582D02*Y227384D01*
X358072D01*
Y216582D01*
X361946D02*Y227384D01*
X365945D02*Y216582D01*
X361946Y227384D02*X365945D01*
X354074Y233314D02*Y244116D01*
X346196Y233314D02*Y244116D01*
X350200D01*
Y233314D01*
X342322Y244116D02*Y233314D01*
X338324D02*Y244116D01*
X330451D02*X334450D01*
Y233314D01*
X338324Y244116D02*X342322D01*
X330451Y233314D02*Y244116D01*
X322574Y233314D02*Y244116D01*
X326578D01*
Y233314D01*
X330451Y216582D02*Y227384D01*
X334450D01*
Y216582D01*
X338324D02*Y227384D01*
X315196Y216349D02*X381200D01*
X316699Y217852D02*X379697D01*
X342322Y227384D02*Y216582D01*
X346196D02*Y227384D01*
X350200D02*Y216582D01*
X338324Y227384D02*X342322D01*
X346196D02*X350200D01*
X316699Y242852D02*Y217852D01*
X379697D02*Y242852D01*
X381200Y216349D02*Y244349D01*
G54D126*X382817Y217932D02*X383050Y218242D01*
X383317Y218399D01*
X383393Y216696D02*X383050Y216332D01*
X382817Y215817D01*
X382742Y215350D01*
X383550Y242949D02*Y246052D01*
X383089Y242949D02*X384006D01*
X383550Y246052D02*X383089Y245428D01*
X383317Y218399D02*X383626Y218448D01*
X384011Y218345D01*
X384276Y218091D01*
X384353Y217781D01*
X384315Y217466D01*
X384163Y217211D01*
X383393Y216696D01*
X382742Y215350D02*X384353D01*
G54D122*X381200Y244349D02*X315196D01*
G54D120*X344200D02*Y242852D01*
X351697D02*Y244349D01*
G54D122*X379697Y242852D02*X316699D01*
X287793Y232202D02*Y236499D01*
X289192D02*Y232202D01*
X289761D02*Y236499D01*
X223820Y180800D02*X293820D01*
X285824Y232202D02*Y236499D01*
X287222D01*
Y232202D01*
X291731D02*Y236499D01*
X293131D01*
Y232202D01*
X289761Y236499D02*X291161D01*
Y232202D01*
X293820Y180800D02*Y30800D01*
X223820Y180800D02*Y30800D01*
X293820D01*
X287793Y236499D02*X289192D01*
X295897Y232771D02*X305501D01*
X293700Y236499D02*X295100D01*
X295897Y220575D02*Y232771D01*
X305501D02*Y220575D01*
X293700Y232202D02*Y236499D01*
X295100D02*Y232202D01*
G54D120*X73900Y191300D02*X476500D01*
G54D122*X128997Y207348D02*X421397D01*
G54D121*X244135Y207358D02*X421332D01*
G54D123*X129025Y207331D02*X243985D01*
G54D122*X128700Y213349D02*X421701D01*
X308181Y215453D02*X243218D01*
X207796Y215448D02*X207840D01*
G54D121*X123128Y211210D02*X122634Y213656D01*
G54D124*X128529Y207309D02*X421329D01*
G54D121*X421392Y257349D02*X128993D01*
G54D120*X209250Y246703D02*X209570Y246367D01*
X211647Y246166D02*X211968Y246568D01*
X212342Y246768D01*
X212765Y246834D01*
X213303Y246703D01*
X213676Y246367D01*
X213779Y245971D01*
X213725Y245570D01*
X213514Y245234D01*
X212450Y244566D01*
X211968Y244099D01*
X211647Y243438D01*
X211539Y242835D01*
X213779D01*
X278043Y244452D02*X277674Y244582D01*
X277192D01*
X277674D02*X277994Y244782D01*
X278260Y245120D01*
X278363Y245516D01*
X278260Y245917D01*
X277994Y246248D01*
X277511Y246449D01*
X277033Y246384D01*
X276551Y246117D01*
G54D122*X260232Y232202D02*Y236499D01*
X258268D02*X259668D01*
Y232202D01*
X255501Y232771D02*Y220575D01*
X258268Y232202D02*Y236499D01*
X256299Y232202D02*Y236499D01*
X257699D01*
Y232202D01*
X245897Y232771D02*X255501D01*
G54D126*X249853Y237578D02*X250238Y237475D01*
X250504Y237220D01*
X250585Y236910D01*
X249896Y237518D02*X250276Y237416D01*
X250547Y237160D01*
X250624Y236850D01*
X250585Y236910D02*X250547Y236596D01*
X250624Y236850D02*X250585Y236536D01*
X249050Y237063D02*X249278Y237371D01*
X249549Y237530D01*
X249853Y237578D01*
X249088Y237003D02*X249321Y237313D01*
X249588Y237470D01*
X249896Y237518D01*
X252881Y237578D02*X252571Y237475D01*
X253185D02*X252881Y237578D01*
X252918Y237518D02*X252608Y237416D01*
X253683Y236493D02*X253569Y236910D01*
X253418Y237220D01*
X253185Y237475D01*
X253721Y236434D02*X253607Y236850D01*
X253456Y237160D01*
X253228Y237416D01*
X252571Y237475D02*X252343Y237220D01*
X252186Y236910D01*
X252072Y236493D01*
X252608Y237416D02*X252381Y237160D01*
X252229Y236850D01*
X252115Y236434D01*
X253607Y235093D02*X253721Y235506D01*
X253760Y235973D01*
X253721Y236434D01*
X253228Y237416D02*X252918Y237518D01*
G54D122*X260232Y236499D02*X261636D01*
X262201D02*X263601D01*
X261636D02*Y232202D01*
X262201D02*Y236499D01*
X264171Y232202D02*Y236499D01*
X265571D02*Y232202D01*
X263601Y236499D02*Y232202D01*
X266140D02*Y236499D01*
X264171D02*X265571D01*
X266140D02*X267539D01*
X268110Y232202D02*Y236499D01*
X269508D01*
X267539D02*Y232202D01*
X269508Y236499D02*Y232202D01*
X270079D02*Y236499D01*
X271478D01*
Y232202D01*
X272043D02*Y236499D01*
X275982Y232202D02*Y236499D01*
X277381D01*
Y232202D01*
X277951D02*Y236499D01*
X275411D02*Y232202D01*
X272043Y236499D02*X273447D01*
X274013D02*X275411D01*
X273447D02*Y232202D01*
X274013D02*Y236499D01*
G54D120*X272232Y243248D02*X272499Y242852D01*
X272818Y242585D01*
X273193Y242450D01*
X273615Y242585D01*
X273936Y242852D01*
X274256Y243248D02*X274365Y243785D01*
Y246449D01*
X273936Y242852D02*X274256Y243248D01*
X276122D02*X276443Y242781D01*
X276871Y242516D01*
X277354Y242450D01*
X277778Y242516D01*
X278206Y242852D01*
X278472Y243248D01*
X278526Y243649D01*
X278418Y244116D01*
X278043Y244452D01*
G54D122*X283854Y232202D02*Y236499D01*
X285258D01*
Y232202D01*
X283289Y236499D02*Y232202D01*
X279921D02*Y236499D01*
X277951D02*X279350D01*
Y232202D01*
X279921Y236499D02*X281320D01*
X281890D02*X283289D01*
X281320D02*Y232202D01*
X281890D02*Y236499D01*
X243218Y232777D02*X308181D01*
X243218Y215453D02*Y232777D01*
G54D126*X250547Y236596D02*X250390Y236341D01*
X249625Y235825D01*
X249278Y235461D01*
X249050Y234946D01*
X248974Y234480D01*
X250585D01*
X252072Y236493D02*X252033Y236032D01*
X252072Y235566D01*
X252186Y235153D01*
X252343Y234843D01*
X252571Y234584D01*
X252881Y234480D01*
X253185Y234584D01*
X253418Y234843D01*
X253569Y235153D01*
X253683Y235566D01*
X253721Y236032D01*
X253683Y236493D01*
X250585Y236536D02*X250433Y236281D01*
X249663Y235766D01*
X249321Y235402D01*
X249088Y234886D01*
X249013Y234420D01*
X250624D01*
X252115Y236434D02*X252078Y235973D01*
X252115Y235506D01*
X252229Y235093D01*
X252381Y234784D01*
X252608Y234524D01*
X252918Y234420D01*
X253228Y234524D01*
X253456Y234784D01*
X253607Y235093D01*
G54D122*X245897Y220575D02*Y232771D01*
X180799Y230748D02*Y218948D01*
X154801Y230748D02*X168597Y218948D01*
X154801D02*X168597Y230748D01*
X180799Y218948D02*X194596D01*
X180799Y230748D02*X194596Y218948D01*
X180799D02*X194596Y230748D01*
Y218948D02*Y230748D01*
X207796Y240252D02*X232600Y215448D01*
X207840D02*X232600Y240208D01*
X194596Y230748D02*X180799D01*
G54D126*X194699Y226348D02*X180696D01*
G54D120*X181472Y241723D02*Y237724D01*
X183604D01*
X187603D02*X185471D01*
Y241723D01*
X186751Y239792D02*X185471D01*
Y241723D02*X187603D01*
X189365D02*X190429D01*
X189365Y237724D02*Y241723D01*
X190429D02*X190858Y241523D01*
X191178Y238191D02*X190858Y237925D01*
X190429Y237724D01*
X189365D01*
X190858Y241523D02*X191178Y241256D01*
X191443Y240855D01*
X191656Y240388D01*
X191710Y239727D01*
X191656Y239059D01*
X191443Y238592D01*
X191178Y238191D01*
X193521Y241056D02*X193842Y241457D01*
X194215Y241657D01*
X194645Y241723D01*
X195176Y241593D01*
X195550Y241256D01*
X195660Y240855D01*
X195604Y240459D01*
X195388Y240123D01*
G54D122*X207796Y240253D02*Y240252D01*
G54D120*X195388Y240123D02*X194325Y239455D01*
X193842Y238989D01*
X193521Y238321D01*
X193418Y237724D01*
X195660D01*
G54D127*X287411Y303855D02*X305407Y321851D01*
X291411Y303855D02*X309407Y321851D01*
X295411Y303855D02*X312696Y321140D01*
X299411Y303855D02*X312696Y317140D01*
X303411Y303855D02*X312696Y313140D01*
X307411Y303855D02*X312696Y309140D01*
X311411Y303855D02*X312696Y305140D01*
X311146Y326002D02*Y321848D01*
X311100D02*X306946Y326002D01*
X306000Y321848D02*X301846Y326002D01*
X279700Y303855D02*X312696D01*
X314699D02*X347695D01*
X312696Y321851D02*Y303855D01*
X314699Y321851D02*Y303855D01*
X285500Y321848D02*X285546D01*
X346100D02*X346146D01*
X330800D02*X330846D01*
X325600D02*X325646D01*
X284946Y287152D02*Y282552D01*
X296446D01*
Y287152D01*
X284946D01*
X281346Y303852D02*Y299802D01*
Y303852D02*Y303802D01*
X285346Y299802D01*
X286496Y303852D02*X290546Y299802D01*
X281346D02*X311146D01*
X291596Y303852D02*X295546Y299902D01*
X296746Y303852D02*X296796D01*
X300846Y299802D01*
X306946Y303852D02*X307096D01*
X311146Y299802D01*
Y303852D02*Y299802D01*
X301846Y303852D02*X301896D01*
X305946Y299802D01*
X279700Y321851D02*Y303855D01*
Y304144D02*X297407Y321851D01*
X279700Y308144D02*X293407Y321851D01*
X281346Y326002D02*X311146D01*
X283411Y303855D02*X301407Y321851D01*
X300892Y321856D02*Y321848D01*
X281346Y326002D02*Y321848D01*
Y321902D02*Y321848D01*
X290600D02*X286446Y326002D01*
X285500Y321848D02*X281346Y326002D01*
X279700Y321851D02*X312696D01*
X311100Y321848D02*X311146D01*
X295800D02*X295846D01*
X290600D02*X290646D01*
X300892Y321856D02*X296746Y326002D01*
X295800Y321848D02*X291646Y326002D01*
X279700Y312144D02*X289407Y321851D01*
X279700Y316144D02*X285407Y321851D01*
X279700Y320144D02*X281407Y321851D01*
X347695D02*Y303855D01*
X330410D02*X347695Y321140D01*
X334410Y303855D02*X347695Y317140D01*
X338410Y303855D02*X347695Y313140D01*
X342410Y303855D02*X347695Y309140D01*
X346410Y303855D02*X347695Y305140D01*
X314699Y321851D02*X347695D01*
X314699Y304144D02*X332406Y321851D01*
X318410Y303855D02*X336406Y321851D01*
X322410Y303855D02*X340406Y321851D01*
X316346Y303852D02*Y299802D01*
X346146D01*
Y303852D02*Y299802D01*
X337446Y287152D02*Y282552D01*
X348946D01*
X361046D02*X356346D01*
X348946D02*Y287152D01*
X356346Y282552D02*Y294152D01*
X361046D01*
Y282552D01*
X348946Y287152D02*X337446D01*
X326410Y303855D02*X344406Y321851D01*
X331746Y303852D02*X331796D01*
X336846D02*X336896D01*
X341946D02*X342096D01*
X335892Y321856D02*Y321848D01*
X346146Y326002D02*Y321848D01*
X346100D02*X341946Y326002D01*
X341000Y321848D02*X336846Y326002D01*
X335892Y321856D02*X331746Y326002D01*
X330800Y321848D02*X326646Y326002D01*
X316346Y303802D02*X320346Y299802D01*
X321496Y303852D02*X325546Y299802D01*
X326596Y303852D02*X330546Y299902D01*
X331796Y303852D02*X335846Y299802D01*
X336896Y303852D02*X340946Y299802D01*
X342096Y303852D02*X346146Y299802D01*
X316346Y326002D02*X346146D01*
X314699Y308144D02*X328406Y321851D01*
X314699Y312144D02*X324406Y321851D01*
X316346Y303852D02*Y303802D01*
X314699Y316144D02*X320406Y321851D01*
X314699Y320144D02*X316406Y321851D01*
X316346Y326002D02*Y321848D01*
Y321902D02*Y321848D01*
X325600D02*X321446Y326002D01*
X284885Y464948D02*Y436948D01*
X306885D02*X303885D01*
X290885Y449948D01*
Y446948D01*
X300885Y436948D01*
X297885D01*
X290885Y443948D01*
Y440948D01*
X294885Y436948D01*
X291885D02*X290885Y437948D01*
Y436948D01*
Y464948D02*X318885Y436948D01*
X315885D02*X290885Y461948D01*
X291885Y436948D02*X290885D01*
Y464948D01*
Y461948D02*Y458948D01*
X312885Y436948D01*
X309885D02*X290885Y455948D01*
Y452948D01*
X306885Y436948D01*
X294885D02*X290885D01*
X321885D02*X293981Y464852D01*
X296981D02*X324885Y436948D01*
X327885D02*X299981Y464852D01*
X359885Y436948D02*X290885D01*
X342885D02*X344885D01*
X332885D02*X327885D01*
X290885D02*X324885D01*
X302981Y464852D02*X330885Y436948D01*
X333885D02*X305981Y464852D01*
X308981D02*X336885Y436948D01*
X339885D02*X311981Y464852D01*
X314981D02*X342885Y436948D01*
X345885D02*X317981Y464852D01*
X320981D02*X348885Y436948D01*
G54D123*X129025Y464812D02*X421544D01*
X128827Y464950D02*X421347D01*
G54D124*X129049Y464949D02*X421199D01*
G54D122*X416229Y452352D02*X415835Y451564D01*
X135129Y451108D02*X135986Y451422D01*
X136382Y452355D01*
G54D125*X133881D02*X136382D01*
X135129Y453609D02*Y451108D01*
G54D122*X415048Y451171D02*X414261Y451564D01*
X413867Y452352D01*
X414261Y453139D01*
X415048Y453533D01*
X415835Y453139D01*
X416229Y452352D01*
X136308D02*X135914Y451564D01*
X135127Y451171D01*
X134339Y451564D01*
X133946Y452352D01*
X134339Y453139D01*
X135127Y453533D01*
X135914Y453139D01*
X136308Y452352D01*
G54D121*X122634Y458556D02*X123128Y461015D01*
X123107Y461002D02*X122612Y458555D01*
X123128Y461015D02*X124479Y463016D01*
X124457Y463005D02*X123107Y461002D01*
X124479Y463016D02*X126481Y464362D01*
X128933Y464855D01*
X128911D02*X126459Y464355D01*
X124457Y463005D01*
G54D122*X136382Y452355D02*X135986Y453299D01*
X135129Y453609D01*
X134271Y453299D01*
X133881Y452355D01*
X134271Y451422D01*
X135129Y451108D01*
G54D121*X421392Y257349D02*X423845Y257842D01*
X425846Y259194D01*
X427198Y261195D01*
X427696Y263648D01*
G54D123*X128827Y257470D02*X421347D01*
G54D122*X169114Y267355D02*X168641Y266227D01*
X167611Y265852D01*
X166579Y266227D01*
X166114Y267355D01*
X166579Y268478D01*
X167611Y268853D01*
X168641Y268478D01*
X169114Y267355D01*
G54D125*X167611Y268853D02*Y265852D01*
X166114Y267355D02*X169114D01*
G54D128*X122689Y336100D02*X427696D01*
G54D123*X122528Y458651D02*Y263769D01*
G54D121*X122612Y263655D02*X123107Y261203D01*
G54D123*X122725Y458906D02*Y213237D01*
G54D124*X122539Y458659D02*Y213309D01*
G54D122*X136382Y269858D02*X135986Y270796D01*
X135129Y271111D01*
X135112Y271105D02*X135969Y270790D01*
X136366Y269856D01*
X135986Y268924D02*X136382Y269858D01*
G54D128*X275200Y464852D02*Y207392D01*
G54D122*X136366Y269856D02*X135969Y268917D01*
X135112Y268603D01*
X134271Y270796D02*X133881Y269858D01*
X134271Y268924D01*
X134255Y268917D02*X133865Y269856D01*
X134255Y270790D01*
G54D125*X135129Y271111D02*Y268610D01*
G54D122*Y271111D02*X134271Y270796D01*
X134255Y270790D02*X135112Y271105D01*
G54D125*X133881Y269858D02*X136382D01*
G54D121*X128933Y207358D02*X126481Y207857D01*
X124479Y209208D01*
X123128Y211210D01*
G54D122*X134271Y268924D02*X135129Y268610D01*
X135986Y268924D01*
X135112Y268603D02*X134255Y268917D01*
G54D121*X123107Y261203D02*X124457Y259201D01*
X126459Y257851D01*
X128911Y257356D01*
G54D120*X73900Y480900D02*Y191300D01*
G54D121*X122695Y263648D02*Y458548D01*
X123188Y461001D02*X122695Y458548D01*
G54D122*X122699Y458850D02*Y213349D01*
Y458552D02*X122747Y459339D01*
X122894Y460110D01*
X123014Y211673D02*X122818Y212436D01*
X122715Y213218D01*
X122699Y213652D01*
X128700Y458850D02*Y213349D01*
G54D121*X126541Y257842D02*X128993Y257349D01*
G54D128*X135195Y284838D02*X135185Y284848D01*
X150184Y269849D02*X150185Y269848D01*
G54D121*X122695Y263648D02*X123188Y261195D01*
X124539Y259194D01*
X126541Y257842D01*
G54D128*X120186Y269849D02*X120185Y269848D01*
X135195Y254858D02*X135185Y254848D01*
G54D122*X128997Y207348D02*X128211Y207396D01*
X127435Y207549D01*
X126686Y207788D01*
X125976Y208124D01*
X125308Y208542D01*
X124701Y209046D01*
X124158Y209616D01*
X123692Y210250D01*
X123313Y210939D01*
X123014Y211673D01*
X122894Y460110D02*X123139Y460859D01*
X123470Y461574D01*
X123893Y462242D01*
X124392Y462849D01*
X124967Y463392D01*
X125601Y463859D01*
X126290Y464238D01*
X127024Y464531D01*
X127782Y464732D01*
X128564Y464835D01*
X128997Y464852D01*
G54D120*X476500Y480900D02*X73900D01*
G54D121*X128993Y464852D02*X126541Y464353D01*
X124539Y463002D01*
X123188Y461001D01*
G54D127*X281981Y464852D02*X284885Y461948D01*
G54D121*X128993Y464852D02*X421392D01*
G54D127*X236981D02*X239981D01*
X242981D02*X245981D01*
X248981D02*X254981D01*
X257981D02*X260981D01*
X332981D02*X335981D01*
X356981D02*X359885Y461948D01*
G54D122*X421500Y464852D02*X129199D01*
X421701Y458850D02*X128700D01*
G54D127*X215885Y464948D02*X243885Y436948D01*
X240885D02*X215885Y461948D01*
X216885Y436948D02*X215885D01*
Y464948D01*
X243885Y436948D02*X240885D01*
X215885Y461948D02*Y458948D01*
X237885Y436948D01*
X234885D02*X215885Y455948D01*
X219885Y436948D02*X215885D01*
X246885D02*X218981Y464852D01*
X221981D02*X249885Y436948D01*
X252885D02*X224981Y464852D01*
X227981D02*X255885Y436948D01*
X258885D02*X230981Y464852D01*
X237885Y436948D02*X234885D01*
X215885Y455948D02*Y452948D01*
X231885Y436948D01*
X228885D01*
X215885Y449948D01*
X284885Y436948D02*X215885D01*
X233981Y464852D02*X261885Y436948D01*
X264885D02*X236981Y464852D01*
X239981D02*X267885Y436948D01*
X278981Y464852D02*X284885Y458948D01*
X270885Y436948D02*X242981Y464852D01*
X245981D02*X273885Y436948D01*
X276885D02*X248981Y464852D01*
X251981D02*X279885Y436948D01*
X254981Y464852D02*X282885Y436948D01*
X284885Y437948D02*X257981Y464852D01*
X260981D02*X284885Y440948D01*
X263981Y464852D02*X284885Y443948D01*
X266981Y464852D02*X284885Y446948D01*
X269981Y464852D02*X284885Y449948D01*
X272981Y464852D02*X284885Y452948D01*
X275981Y464852D02*X284885Y455948D01*
G54D121*X423845Y464353D02*X421392Y464852D01*
G54D127*X215885Y464948D02*X284885D01*
X218981Y464852D02*X221981D01*
X224981D02*X227981D01*
X230981D02*X233981D01*
X290885Y464948D02*X359885D01*
X293981Y464852D02*X296981D01*
X299981D02*X302981D01*
X305981D02*X308981D01*
X311981D02*X314981D01*
X317981D02*X320981D01*
X323981D02*X329981D01*
X348885Y436948D02*X351885D01*
X354885D02*X356885D01*
X345885D02*X321885D01*
X351885D02*X323981Y464852D01*
X339885Y436948D02*X336885D01*
X326981Y464852D02*X354885Y436948D01*
X329981Y464852D02*X357885Y436948D01*
X359885Y437948D02*X332981Y464852D01*
X335981D02*X359885Y440948D01*
X338981Y464852D02*X359885Y443948D01*
X350981Y464852D02*X359885Y455948D01*
X353981Y464852D02*X359885Y458948D01*
Y464948D02*Y436948D01*
X341981Y464852D02*X359885Y446948D01*
X344981Y464852D02*X359885Y449948D01*
X347981Y464852D02*X359885Y452948D01*
X215885Y449948D02*Y446948D01*
X225885Y436948D01*
X222885D01*
X215885Y443948D01*
Y440948D01*
X219885Y436948D01*
X216885D02*X215885Y437948D01*
Y436948D01*
X267885D02*X269885D01*
X273885D02*X276885D01*
X279885D02*X281885D01*
X264885D02*X261885D01*
X215885D02*X249885D01*
X257885D02*X252885D01*
X270885D02*X246885D01*
X267648Y427921D02*X270275Y430548D01*
X270279D01*
X272906Y427921D01*
X267632D02*X272906D01*
X318885Y436948D02*X315885D01*
X312885D02*X309885D01*
X350407Y428220D02*X347775Y430852D01*
X347766D01*
X345134Y428220D01*
X350407D01*
X221696Y388848D02*Y355852D01*
X217646Y387252D02*Y357452D01*
X221696Y377002D02*X217746Y373052D01*
X221696Y371852D02*Y371802D01*
Y381137D02*X239692Y363141D01*
X221696Y377137D02*X239692Y359141D01*
Y367706D02*X239700D01*
X217646Y357452D02*X221696D01*
Y371802D02*X217646Y367752D01*
X221696Y366752D02*Y366702D01*
X217646Y362652D01*
X221696Y361652D02*Y361502D01*
X217646Y357452D01*
X239692Y387252D02*X239746D01*
X239692Y372752D02*Y372798D01*
Y377952D02*Y377998D01*
Y383052D02*Y383098D01*
X229985Y388848D02*X239692Y379141D01*
X233985Y388848D02*X239692Y383141D01*
X237985Y388848D02*X239692Y387141D01*
X243846Y387252D02*X239692D01*
Y383098D02*X243846Y387252D01*
X239692Y388848D02*X221696D01*
X221985D02*X239692Y371141D01*
X221696Y385137D02*X239692Y367141D01*
X225985Y388848D02*X239692Y375141D01*
X221696Y387252D02*X217646D01*
X221696D02*X221646D01*
X217646Y383252D01*
X221696Y382102D02*X217646Y378052D01*
X239692Y355852D02*Y388848D01*
X243846Y357452D02*Y387252D01*
X239700Y367706D02*X243846Y371852D01*
X239692Y372798D02*X243846Y376952D01*
X239692Y377998D02*X243846Y382152D01*
X221696Y355852D02*X239692D01*
Y357452D02*X243846D01*
X239692D02*Y357498D01*
X221696Y373137D02*X238981Y355852D01*
X221696Y369137D02*X234981Y355852D01*
X221696Y365137D02*X230981Y355852D01*
X221696Y361137D02*X226981Y355852D01*
X221696Y357137D02*X222981Y355852D01*
X239692Y357498D02*X243846Y361652D01*
X239692Y362598D02*X243846Y366752D01*
G54D122*X232600Y240253D02*Y215448D01*
X207796D01*
Y240253D01*
X232600D01*
G54D120*X207540Y243367D02*X207969Y243037D01*
X208447Y242835D01*
X208875D01*
X209304Y243037D01*
X209618Y243367D01*
X209782Y243834D01*
X209672Y244300D01*
X209407Y244702D01*
X208929Y244967D01*
X208289Y245103D01*
X207915Y245368D01*
X207753Y245835D01*
X207861Y246302D01*
X208126Y246632D01*
X208501Y246834D01*
X208875D01*
X209250Y246703D01*
G54D122*X154801Y230748D02*Y218948D01*
X168597D01*
G54D126*X168700Y226348D02*X154697D01*
G54D122*X168597Y218948D02*Y230748D01*
X154801D01*
G54D120*X156086Y242255D02*Y238250D01*
X158220D01*
X162217D02*X160085D01*
Y242255D01*
X162217D01*
X161365Y240318D02*X160085D01*
X163981Y238250D02*Y242255D01*
X165045D01*
X165472Y242055D01*
X165793Y241788D01*
X166058Y241387D01*
X166269Y240920D01*
X166324Y240253D01*
X166269Y239585D01*
X166058Y239118D01*
X165793Y238717D01*
X165472Y238452D01*
X165045Y238250D01*
X163981D01*
X169151D02*Y242255D01*
X168511Y241452D01*
Y238250D02*X169792D01*
G54D127*X400182Y269846D02*G75*G03X415180Y254848I14998J0D01*G01*
X415192Y284838D02*G75*G03X400182Y269828I0J-15010D01*G01*
X415180Y254848D02*G75*G03X430181Y269849I0J15001D01*G01*
X120185Y269846D02*G75*G03X135183Y254848I14998J0D01*G01*
X135195Y284838D02*G75*G03X120185Y269828I0J-15010D01*G01*
X135183Y254848D02*G75*G03X150184Y269849I0J15001D01*G01*
X150185Y269848D02*G75*G03X135195Y284838I-14990J0D01*G01*
G54D124*X122539Y213319D02*G75*G03X128549Y207309I6010J0D01*G01*
G54D127*X430182Y269848D02*G75*G03X415192Y284838I-14990J0D01*G01*
G54D124*X421609Y207309D02*G75*G03X427639Y213339I0J6030D01*G01*
G54D127*X400182Y452349D02*G75*G03X415180Y437351I14998J0D01*G01*
X120185Y452349D02*G75*G03X135183Y437351I14998J0D01*G01*
X135195Y467341D02*G75*G03X120185Y452331I0J-15010D01*G01*
X135183Y437351D02*G75*G03X150184Y452352I0J15001D01*G01*
X150185Y452351D02*G75*G03X135195Y467341I-14990J0D01*G01*
G54D124*X129049Y464949D02*G75*G03X122539Y458439I0J-6510D01*G01*
G54D127*X415192Y467341D02*G75*G03X400182Y452331I0J-15010D01*G01*
X415180Y437351D02*G75*G03X430181Y452352I0J15001D01*G01*
X430182Y452351D02*G75*G03X415192Y467341I-14990J0D01*G01*
G54D124*X421199Y464949D02*G75*G02X427639Y458509I0J-6440D01*G01*
G54D122*X313385Y447948D02*Y443948D01*
X312885Y447948D02*X314885D01*
X315385Y447448D01*
Y446448D01*
X314885Y445948D02*X315385Y446448D01*
X313385Y445948D02*X314885D01*
X316585Y447148D02*X317385Y447948D01*
Y443948D01*
X316585D02*X318085D01*
X313385Y447948D02*Y443948D01*
X312885Y447948D02*X314885D01*
X315385Y447448D01*
Y446448D01*
X314885Y445948D02*X315385Y446448D01*
X313385Y445948D02*X314885D01*
X316585Y447148D02*X317385Y447948D01*
Y443948D01*
X316585D02*X318085D01*
X241749Y447029D02*Y443029D01*
X241249Y447029D02*X243249D01*
X243749Y446529D01*
Y445529D01*
X243249Y445029D02*X243749Y445529D01*
X241749Y445029D02*X243249D01*
X244949Y446529D02*X245449Y447029D01*
X246949D01*
X247449Y446529D01*
Y445529D01*
X244949Y443029D02*X247449Y445529D01*
X244949Y443029D02*X247449D01*
X248649Y445029D02*X250649D01*
X251849Y447029D02*X252849D01*
X252349D02*Y443029D01*
X251849D02*X252849D01*
X254049Y443529D02*X257049Y446529D01*
X258249D02*Y443529D01*
Y446529D02*X258749Y447029D01*
X259749D01*
X260249Y446529D01*
Y443529D01*
X259749Y443029D02*X260249Y443529D01*
X258749Y443029D02*X259749D01*
X258249Y443529D02*X258749Y443029D01*
X312919Y447869D02*Y443869D01*
X312419Y447869D02*X314419D01*
X314919Y447369D01*
Y446369D01*
X314419Y445869D02*X314919Y446369D01*
X312919Y445869D02*X314419D01*
X316119Y447069D02*X316919Y447869D01*
Y443869D01*
X316119D02*X317619D01*
X318819Y445869D02*X320819D01*
X322019Y443869D02*X324019D01*
X324519Y444369D01*
Y445569D02*Y444369D01*
X324019Y446069D02*X324519Y445569D01*
X322519Y446069D02*X324019D01*
X322519Y447869D02*Y443869D01*
X322019Y447869D02*X324019D01*
X324519Y447369D01*
Y446569D01*
X324019Y446069D02*X324519Y446569D01*
X325719Y447869D02*X326719D01*
X326219D02*Y443869D01*
X325719D02*X326719D01*
X329919Y447869D02*X330419Y447369D01*
X328419Y447869D02*X329919D01*
X327919Y447369D02*X328419Y447869D01*
X327919Y447369D02*Y446369D01*
X328419Y445869D01*
X329919D01*
X330419Y445369D01*
Y444369D01*
X329919Y443869D02*X330419Y444369D01*
X328419Y443869D02*X329919D01*
X327919Y444369D02*X328419Y443869D01*
X331619Y447869D02*X333619D01*
X332619D02*Y443869D01*
X334819Y447869D02*Y443869D01*
Y447869D02*X336319Y445869D01*
X337819Y447869D01*
Y443869D01*
X335929Y250069D02*X336729D01*
Y246569D01*
X336229Y246069D02*X336729Y246569D01*
X335729Y246069D02*X336229D01*
X335229Y246569D02*X335729Y246069D01*
X335229Y247069D02*Y246569D01*
X337929Y249269D02*X338729Y250069D01*
Y246069D01*
X337929D02*X339429D01*
X340629Y249269D02*X341429Y250069D01*
Y246069D01*
X340629D02*X342129D01*
X343329Y248069D02*X345329D01*
X347229Y250069D02*X348029D01*
Y246569D01*
X347529Y246069D02*X348029Y246569D01*
X347029Y246069D02*X347529D01*
X346529Y246569D02*X347029Y246069D01*
X346529Y247069D02*Y246569D01*
X349229Y250069D02*X351229D01*
X350229D02*Y246069D01*
X352429Y249069D02*Y246069D01*
Y249069D02*X353129Y250069D01*
X354229D01*
X354929Y249069D01*
Y246069D01*
X352429Y248069D02*X354929D01*
X358129Y250069D02*X358629Y249569D01*
X356629Y250069D02*X358129D01*
X356129Y249569D02*X356629Y250069D01*
X356129Y249569D02*Y246569D01*
X356629Y246069D01*
X358129D01*
X358629Y246569D01*
Y247569D02*Y246569D01*
X358129Y248069D02*X358629Y247569D01*
X357129Y248069D02*X358129D01*
X164069Y269609D02*Y265609D01*
X162069D02*X164069D01*
X162569Y267409D02*X164069D01*
X159869Y265609D02*X160869D01*
X160369Y269609D02*Y265609D01*
X159869Y269609D02*X160869D01*
X158169D02*Y265609D01*
X156869D02*X156169Y266309D01*
Y268909D02*Y266309D01*
X156869Y269609D02*X156169Y268909D01*
X156869Y269609D02*X158669D01*
X156869Y265609D02*X158669D01*
X154969Y268109D02*X152969Y265609D01*
X152469Y268109D02*X154969D01*
X152969Y269609D02*Y265609D01*
M02*
