G04 start of page 3 for group 1 idx 1 *
G04 Title: (unknown), 2PV *
G04 Creator: pcb 20110918 *
G04 CreationDate: Tue Nov 12 23:37:41 2013 UTC *
G04 For: fosse *
G04 Format: Gerber/RS-274X *
G04 PCB-Dimensions: 455000 500000 *
G04 PCB-Coordinate-Origin: lower left *
%MOIN*%
%FSLAX25Y25*%
%LNGROUP1*%
%ADD59C,0.0354*%
%ADD58C,0.1090*%
%ADD57C,0.0200*%
%ADD56C,0.0350*%
%ADD55C,0.0150*%
%ADD54C,0.0360*%
%ADD53C,0.0600*%
%ADD52C,0.0300*%
%ADD51C,0.0394*%
%ADD50C,0.0544*%
%ADD49C,0.0550*%
%ADD48C,0.0001*%
%ADD47C,0.2500*%
%ADD46C,0.0100*%
G54D46*X223525Y243700D02*Y262125D01*
X224500Y263100D01*
X227570Y238230D02*Y262030D01*
X226500Y263100D01*
X231399Y243700D02*Y262599D01*
X232250Y263450D01*
X224500Y263100D02*Y267700D01*
X222100Y270100D01*
Y299020D01*
X223570Y300490D01*
X228400Y269400D02*Y288600D01*
X230500Y269300D02*Y289400D01*
X226500Y267500D02*X228400Y269400D01*
Y288600D02*X227500Y289500D01*
X230500Y289400D02*X231500Y290400D01*
X227500Y289500D02*Y300460D01*
X227470Y300490D01*
X231500Y290400D02*Y300460D01*
X231470Y300490D01*
X235300Y281800D02*Y300420D01*
X238400Y269300D02*Y290900D01*
X239200Y291700D01*
Y300500D01*
X235300Y300420D02*X235370Y300490D01*
X239300Y300460D02*X239270Y300490D01*
X239200Y300500D02*X239230Y300530D01*
X243200Y291700D02*Y300420D01*
X243270Y300490D01*
X226500Y263100D02*Y267500D01*
X232250Y263450D02*Y267550D01*
X230500Y269300D01*
X235410Y262590D02*X234500Y263500D01*
X239316Y263416D02*X240300Y264400D01*
Y267400D01*
X238400Y269300D01*
X234500Y263500D02*Y267500D01*
X236300Y269300D01*
Y280800D01*
X235300Y281800D01*
X242500Y264300D02*Y267300D01*
X244050Y268850D01*
X235410Y238230D02*Y262590D01*
X239316Y243718D02*Y263416D01*
X243320Y238230D02*Y263480D01*
X242500Y264300D01*
X247199Y243700D02*Y263399D01*
X247900Y264100D01*
Y267500D01*
X246600Y268800D01*
X251040Y238230D02*Y263960D01*
X255000Y263200D02*Y243799D01*
X255099Y243700D01*
X259000Y262500D02*Y238270D01*
X258960Y238230D01*
X251040Y263960D02*X250600Y264400D01*
Y267300D01*
X251900Y268600D01*
Y282000D01*
X251100Y282800D01*
Y300420D01*
X251170Y300490D01*
X244050Y268850D02*Y290850D01*
X243200Y291700D01*
X246600Y268800D02*Y291000D01*
X247170Y300490D02*Y291570D01*
X246600Y291000D01*
X255064Y300000D02*Y281764D01*
X259044Y300490D02*Y282056D01*
X255064Y281764D02*X254200Y280900D01*
X259044Y282056D02*X260200Y280900D01*
X254200D02*Y268900D01*
X260200Y280900D02*Y263700D01*
X259000Y262500D01*
X254200Y268900D02*X256100Y267000D01*
Y264300D01*
X255000Y263200D01*
X223300Y96900D02*Y74700D01*
X220100Y85500D02*Y73900D01*
X217000Y96900D02*Y72000D01*
X213800Y85500D02*Y70700D01*
X223300Y74700D02*X231000Y67000D01*
X220100Y73900D02*X224000Y70000D01*
X217000Y72000D02*X222000Y67000D01*
X213800Y70700D02*X217500Y67000D01*
X210700Y96900D02*Y64800D01*
X208500Y58500D02*X210250Y56750D01*
X207550Y86550D02*Y64950D01*
X208500Y64000D02*Y58500D01*
X207550Y64950D02*X208500Y64000D01*
X204400Y96900D02*Y64600D01*
X206500Y62500D02*X204400Y64600D01*
X198100Y67100D02*X196000Y65000D01*
X194900Y67900D02*X192500Y65500D01*
X201200Y85500D02*Y64200D01*
X200500Y63500D01*
Y58500D01*
X202500Y56500D01*
X198100Y96900D02*Y67100D01*
X194900Y85500D02*Y67900D01*
X231000Y67000D02*Y59500D01*
X234500Y56000D01*
Y35400D01*
X233100Y34000D01*
X229000Y50000D02*Y34100D01*
X229100Y34000D01*
X225100D02*Y48400D01*
X224000Y70000D02*Y58500D01*
X222000Y67000D02*Y58500D01*
X217500Y67000D02*Y62500D01*
X216500Y61500D01*
Y58000D01*
X218000Y56500D01*
X224000Y58500D02*X227000Y55500D01*
Y52000D01*
X229000Y50000D01*
X222000Y58500D02*X220000Y56500D01*
Y53500D01*
X225100Y48400D01*
X218000Y56500D02*Y51500D01*
X221200Y48300D02*X218000Y51500D01*
X210700Y64800D02*X214250Y61250D01*
Y58250D01*
X205000Y57000D02*X206500Y58500D01*
Y62500D01*
X214250Y58250D02*X212500Y56500D01*
Y50500D01*
X217300Y45700D01*
X210250Y56750D02*Y46750D01*
X213300Y43700D01*
X209413Y44087D02*X205000Y48500D01*
Y57000D01*
X202500Y56500D02*Y46500D01*
X205500Y43500D01*
X201539Y44961D02*X196000Y50500D01*
X192500Y49000D02*X197500Y44000D01*
X196000Y65000D02*Y50500D01*
X192500Y65500D02*Y49000D01*
X221200Y34000D02*Y48300D01*
X217300Y34000D02*Y45700D01*
X213300Y34000D02*Y43700D01*
X209413Y34087D02*Y44087D01*
X205500Y43500D02*Y34048D01*
X205476Y34024D01*
X201539Y34039D02*Y44961D01*
X197500Y44000D02*Y34000D01*
G54D47*X396700Y296100D03*
Y46100D03*
X316700D03*
X36700Y296100D03*
X116700D03*
X316700D03*
X36700Y46100D03*
X116700D03*
G54D48*G36*
X55750Y57750D02*Y52250D01*
X61250D01*
Y57750D01*
X55750D01*
G37*
G54D49*X78500Y55000D03*
G54D50*X190166Y249966D03*
X137016D03*
G54D51*X243575Y74204D03*
X190425D03*
G54D52*X146000Y300500D03*
X149900D03*
X153900D03*
X157800D03*
X161700D03*
X165700D03*
X169600D03*
X173600D03*
G54D53*X142041Y386553D03*
Y371553D03*
X139041Y451053D03*
X159041D03*
G54D54*X181041Y457553D03*
X200541D03*
X87888Y444206D03*
X86541Y437053D03*
X77041Y447553D03*
X48541Y455053D03*
X55041D03*
X61541D03*
G54D53*X71541Y464053D03*
G54D54*X101041Y465553D03*
X92041Y425553D03*
X88541Y431053D03*
X93541Y440553D03*
X97541Y436053D03*
X101541Y440553D03*
X106041Y436053D03*
X85447Y425459D03*
X85541Y417553D03*
X69041Y416053D03*
X63041D03*
X61041Y410053D03*
G54D53*X25041Y406553D03*
G54D54*X85320Y405774D03*
X92041Y405553D03*
X91041Y414053D03*
G54D53*X78541Y387553D03*
X91541Y366053D03*
X77541Y374053D03*
G54D54*X42041Y455053D03*
G54D53*X30041Y461553D03*
X33541Y356053D03*
G54D52*X197500Y34000D03*
X201539Y34039D03*
X205476Y34024D03*
X209500Y34000D03*
X213300D03*
X217300D03*
X221200D03*
X225100D03*
X229100D03*
X233100D03*
X199500Y55200D03*
X203500Y59700D03*
X207500Y55200D03*
X211500Y59700D03*
X215300Y55200D03*
X219300Y59700D03*
X223200Y55200D03*
X227200Y59700D03*
X231100Y55200D03*
X235100Y59700D03*
X243300Y65600D03*
X238700Y63200D03*
X194900Y85500D03*
X198100Y96900D03*
X201200Y85500D03*
X204400Y96900D03*
X207500Y85500D03*
X210700Y96900D03*
X213800Y85500D03*
X217000Y96900D03*
X220100Y85500D03*
X226500Y77900D03*
X232800D03*
X239100D03*
X223300Y96900D03*
X229600D03*
X235900D03*
X226400Y85500D03*
X232700D03*
X239000D03*
X163520Y261450D03*
X157320D03*
X151020D03*
X160392Y255308D03*
X154092D03*
X147792D03*
X144720Y261450D03*
X141500Y255300D03*
X163620Y241850D03*
X157320D03*
X160423Y236223D03*
X154123D03*
X151020Y241850D03*
X147823Y236223D03*
X144620Y241850D03*
X141500Y236200D03*
G54D53*X362800Y359100D03*
X309300Y369600D03*
X364300Y376100D03*
X354300Y361100D03*
X329300Y369600D03*
X343800Y367600D03*
X205900Y370500D03*
X258900Y372500D03*
G54D54*X204900Y351000D03*
G54D53*X241900Y359000D03*
X366300Y349100D03*
X392300Y355100D03*
X343300Y352100D03*
X328556Y378344D03*
X323300Y394100D03*
X353800Y390600D03*
X343300Y397600D03*
X378300Y405600D03*
X364800D03*
G54D52*X223570Y300490D03*
X227470D03*
X231470D03*
X235370D03*
X239270D03*
X243270D03*
X247170D03*
X251170D03*
X255044D03*
X259044D03*
X258960Y238230D03*
X255099Y243700D03*
X251040Y238230D03*
X247199Y243700D03*
X243320Y238230D03*
X239316Y243718D03*
X235410Y238230D03*
X231399Y243700D03*
X227570Y238230D03*
X223525Y243700D03*
X237300Y265900D03*
X233400Y270200D03*
X229500Y265900D03*
X225500Y270200D03*
X221600Y265900D03*
X253048D03*
X249200Y270100D03*
X257000Y270400D03*
X245248Y265900D03*
X241248Y270148D03*
G54D55*G54D56*G54D57*G54D56*G54D57*G54D56*G54D57*G54D56*G54D57*G54D56*G54D55*G54D56*G54D57*G54D56*G54D55*G54D58*G54D52*G54D59*M02*
