G04 start of page 9 for group -4063 idx -4063 *
G04 Title: (unknown), componentmask *
G04 Creator: pcb 20110918 *
G04 CreationDate: Mon Nov 11 23:32:46 2013 UTC *
G04 For: fosse *
G04 Format: Gerber/RS-274X *
G04 PCB-Dimensions: 455000 500000 *
G04 PCB-Coordinate-Origin: lower left *
%MOIN*%
%FSLAX25Y25*%
%LNTOPMASK*%
%ADD304C,0.0239*%
%ADD303R,0.0242X0.0242*%
%ADD302R,0.0769X0.0769*%
%ADD301R,0.0199X0.0199*%
%ADD300R,0.0198X0.0198*%
%ADD299R,0.0297X0.0297*%
%ADD298R,0.0297X0.0297*%
%ADD297R,0.0257X0.0257*%
%ADD296R,0.0660X0.0660*%
%ADD295R,0.0220X0.0220*%
%ADD294C,0.0220*%
%ADD293R,0.0158X0.0158*%
%ADD292R,0.0612X0.0612*%
%ADD291R,0.0691X0.0691*%
%ADD290R,0.0691X0.0691*%
%ADD289R,0.0140X0.0140*%
%ADD288R,0.0336X0.0336*%
%ADD287R,0.0257X0.0257*%
%ADD286R,0.0258X0.0258*%
%ADD285R,0.0355X0.0355*%
%ADD284R,0.1510X0.1510*%
%ADD283R,0.0572X0.0572*%
%ADD282R,0.0400X0.0400*%
%ADD281C,0.0610*%
%ADD280C,0.0001*%
%ADD279C,0.0454*%
%ADD278C,0.2560*%
G54D278*X396700Y296100D03*
Y46100D03*
X316700D03*
X36700Y296100D03*
X116700D03*
X316700D03*
X36700Y46100D03*
X116700D03*
G54D279*X122925Y254204D03*
X176075D03*
G54D280*G36*
X61850Y53050D02*Y46950D01*
X67950D01*
Y53050D01*
X61850D01*
G37*
G54D281*X84900Y50000D03*
G54D282*X344100Y93100D02*X344400D01*
X351200Y93400D02*Y92800D01*
Y101600D02*Y101000D01*
X343800Y101600D02*Y101000D01*
G54D283*X379257Y124493D02*Y123707D01*
X364907Y131143D02*X365693D01*
X364907Y124057D02*X365693D01*
X386343Y124493D02*Y123707D01*
G54D282*X344200Y123100D02*X344500D01*
X351300Y123400D02*Y122800D01*
Y131600D02*Y131000D01*
X343900Y131600D02*Y131000D01*
G54D283*X309757Y111993D02*Y111207D01*
X309714Y95493D02*Y94707D01*
X316800Y95493D02*Y94707D01*
X316843Y111993D02*Y111207D01*
G54D282*X351300Y73200D02*Y72900D01*
X342800Y72600D02*X343400D01*
X351000Y80000D02*X351600D01*
X342800D02*X343400D01*
G54D284*X67900Y75500D02*Y71500D01*
X89700Y75500D02*Y71500D01*
G54D283*X175495Y84181D02*Y81819D01*
X187305Y84181D02*Y81819D01*
G54D285*X39000Y75492D02*Y74508D01*
X44118Y75492D02*Y74508D01*
G54D286*X202683Y47752D02*Y43028D01*
X206620Y47752D02*Y43028D01*
G54D287*X200715Y38303D02*Y33578D01*
G54D288*X196778Y47358D02*Y43421D01*
Y37909D02*Y33972D01*
G54D286*X210557Y47752D02*Y43028D01*
X214494Y47752D02*Y43028D01*
X218431Y47752D02*Y43028D01*
G54D287*X204652Y38303D02*Y33578D01*
X208589Y38303D02*Y33578D01*
X212526Y38303D02*Y33578D01*
X216463Y38303D02*Y33578D01*
G54D283*X64414Y38293D02*Y37507D01*
X71500Y38293D02*Y37507D01*
G54D286*X220400Y38303D02*Y33579D01*
X224337Y38303D02*Y33579D01*
X228274Y38303D02*Y33579D01*
X232211Y38303D02*Y33579D01*
X236148Y38303D02*Y33579D01*
G54D288*X242054Y37909D02*Y33972D01*
G54D286*X222368Y47752D02*Y43028D01*
X226305Y47752D02*Y43028D01*
X230242Y47752D02*Y43028D01*
X234179Y47752D02*Y43028D01*
X238116Y47752D02*Y43028D01*
G54D288*X242054Y47358D02*Y43421D01*
G54D289*X144892Y136347D02*X149790D01*
G54D285*X133341Y142992D02*Y142008D01*
X138459Y142992D02*Y142008D01*
G54D289*X144892Y134378D02*X149790D01*
X156278Y127890D02*Y122992D01*
X158246Y127890D02*Y122992D01*
X160215Y127890D02*Y122992D01*
G54D283*X128995Y127181D02*Y124819D01*
X140805Y127181D02*Y124819D01*
G54D290*X93978Y127000D02*X103821D01*
G54D283*X154900Y113393D02*Y112607D01*
X161986Y113393D02*Y112607D01*
G54D289*X162183Y127890D02*Y122992D01*
X164152Y127890D02*Y122992D01*
X166120Y127890D02*Y122992D01*
X168089Y127890D02*Y122992D01*
X170057Y127890D02*Y122992D01*
X172026Y127890D02*Y122992D01*
X173994Y127890D02*Y122992D01*
X175963Y127890D02*Y122992D01*
X177931Y127890D02*Y122992D01*
X179900Y127890D02*Y122992D01*
X181868Y127890D02*Y122992D01*
X183837Y127890D02*Y122992D01*
X185805Y127890D02*Y122992D01*
X187774Y127890D02*Y122992D01*
X189742Y127890D02*Y122992D01*
X191711Y127890D02*Y122992D01*
X193679Y127890D02*Y122992D01*
X195648Y127890D02*Y122992D01*
X197616Y127890D02*Y122992D01*
X199585Y127890D02*Y122992D01*
X201553Y127890D02*Y122992D01*
X203522Y127890D02*Y122992D01*
G54D283*X208857Y117893D02*Y117107D01*
X215943Y117893D02*Y117107D01*
X202090Y102681D02*Y100319D01*
X213900Y102681D02*Y100319D01*
X119357Y107893D02*Y107107D01*
X126443Y107893D02*Y107107D01*
G54D291*X103821Y115386D02*Y101606D01*
G54D285*X90908Y94441D02*X91892D01*
X90908Y99559D02*X91892D01*
X48500Y104492D02*Y103508D01*
X53618Y104492D02*Y103508D01*
G54D283*X38000Y95681D02*Y93319D01*
X49810Y95681D02*Y93319D01*
X48500Y115893D02*Y115107D01*
X46414Y131393D02*Y130607D01*
X53500Y131393D02*Y130607D01*
X55586Y115893D02*Y115107D01*
X40000Y116893D02*Y116107D01*
G54D289*X210010Y134378D02*X214908D01*
X210010Y136346D02*X214908D01*
X210010Y138315D02*X214908D01*
X210010Y140283D02*X214908D01*
X210010Y142252D02*X214908D01*
X210010Y144220D02*X214908D01*
X210010Y146189D02*X214908D01*
X210010Y148157D02*X214908D01*
X210010Y150126D02*X214908D01*
X210010Y152094D02*X214908D01*
X210010Y154063D02*X214908D01*
X210010Y156031D02*X214908D01*
X210010Y158000D02*X214908D01*
X210010Y159968D02*X214908D01*
X210010Y161937D02*X214908D01*
X210010Y163905D02*X214908D01*
X210010Y165874D02*X214908D01*
X210010Y167842D02*X214908D01*
X210010Y169811D02*X214908D01*
X210010Y171779D02*X214908D01*
X210010Y173748D02*X214908D01*
X210010Y175716D02*X214908D01*
X210010Y177685D02*X214908D01*
X210010Y179653D02*X214908D01*
X210010Y181622D02*X214908D01*
G54D283*X227995Y182181D02*Y179819D01*
X239805Y182181D02*Y179819D01*
G54D289*X203522Y193008D02*Y188110D01*
X201554Y193008D02*Y188110D01*
X199585Y193008D02*Y188110D01*
X197617Y193008D02*Y188110D01*
X195648Y193008D02*Y188110D01*
X193680Y193008D02*Y188110D01*
X191711Y193008D02*Y188110D01*
X189743Y193008D02*Y188110D01*
G54D283*X215857Y189893D02*Y189107D01*
X222943Y189893D02*Y189107D01*
G54D289*X187774Y193008D02*Y188110D01*
X185806Y193008D02*Y188110D01*
X183837Y193008D02*Y188110D01*
X181869Y193008D02*Y188110D01*
X179900Y193008D02*Y188110D01*
X177932Y193008D02*Y188110D01*
X175963Y193008D02*Y188110D01*
X173995Y193008D02*Y188110D01*
X172026Y193008D02*Y188110D01*
X170058Y193008D02*Y188110D01*
X168089Y193008D02*Y188110D01*
X166121Y193008D02*Y188110D01*
X164152Y193008D02*Y188110D01*
X162184Y193008D02*Y188110D01*
X160215Y193008D02*Y188110D01*
X158247Y193008D02*Y188110D01*
X156278Y193008D02*Y188110D01*
G54D283*X123357Y187393D02*Y186607D01*
Y175393D02*Y174607D01*
G54D292*X103518Y187827D02*X105880D01*
X90919D02*X93281D01*
G54D283*X130443Y187393D02*Y186607D01*
Y175393D02*Y174607D01*
G54D285*X129841Y163992D02*Y163008D01*
X134959Y163992D02*Y163008D01*
G54D283*X117357Y143893D02*Y143107D01*
X124443Y143893D02*Y143107D01*
X117357Y155893D02*Y155107D01*
X124443Y155893D02*Y155107D01*
G54D291*X103821Y152393D02*Y138613D01*
G54D285*X91841Y152992D02*Y152008D01*
X96959Y152992D02*Y152008D01*
G54D292*X103518Y166173D02*X105880D01*
X90919D02*X93281D01*
G54D293*X69594Y149921D02*X71366D01*
X69594Y147953D02*X71366D01*
X69594Y145984D02*X71366D01*
X69594Y144016D02*X71366D01*
G54D283*X69500Y167393D02*Y166607D01*
X76586Y167393D02*Y166607D01*
G54D293*X69594Y142047D02*X71366D01*
X69594Y140079D02*X71366D01*
X67921Y153366D02*Y151594D01*
X65953Y153366D02*Y151594D01*
X63984Y153366D02*Y151594D01*
X62016Y153366D02*Y151594D01*
X67921Y138405D02*Y136633D01*
X65953Y138405D02*Y136633D01*
X63984Y138405D02*Y136633D01*
X62016Y138405D02*Y136633D01*
G54D282*X405650Y179176D02*X405950D01*
X412750Y179476D02*Y178876D01*
Y187676D02*Y187076D01*
X405350Y187676D02*Y187076D01*
G54D283*X377414Y195893D02*Y195107D01*
X384500Y195893D02*Y195107D01*
X375800Y229993D02*Y229207D01*
X382886Y229993D02*Y229207D01*
X382800Y244493D02*Y243707D01*
G54D282*X359150Y234600D02*X359450D01*
X366250Y234900D02*Y234300D01*
Y243100D02*Y242500D01*
X358850Y243100D02*Y242500D01*
G54D283*X375714Y244493D02*Y243707D01*
G54D282*X356750Y281500D02*X357050D01*
X363850Y281800D02*Y281200D01*
Y290000D02*Y289400D01*
X356450Y290000D02*Y289400D01*
G54D283*X360926Y299569D02*Y298783D01*
X368012Y299569D02*Y298783D01*
X339257Y303993D02*Y303207D01*
X346343Y303993D02*Y303207D01*
X337500Y167393D02*Y166607D01*
X336914Y181893D02*Y181107D01*
X344000Y181893D02*Y181107D01*
G54D282*X337150Y149100D02*X337450D01*
X344250Y149400D02*Y148800D01*
Y157600D02*Y157000D01*
X336850Y157600D02*Y157000D01*
G54D283*X330414Y167393D02*Y166607D01*
X321000Y148393D02*Y147607D01*
X328086Y148393D02*Y147607D01*
G54D282*X277250Y196000D02*X277550D01*
X284350Y196300D02*Y195700D01*
Y204500D02*Y203900D01*
X276950Y204500D02*Y203900D01*
G54D294*X279600Y363000D02*Y360800D01*
G54D295*X282200Y363000D02*Y360800D01*
X284700Y363000D02*Y360800D01*
X287300Y363000D02*Y360800D01*
X289900Y363000D02*Y360800D01*
X292400Y363000D02*Y360800D01*
X295000Y363000D02*Y360800D01*
X297500Y363000D02*Y360800D01*
X297600Y384200D02*Y382000D01*
X295000Y384200D02*Y382000D01*
X292500Y384200D02*Y382000D01*
X289900Y384200D02*Y382000D01*
X287300Y384200D02*Y382000D01*
X284800Y384200D02*Y382000D01*
X282200Y384200D02*Y382000D01*
X279700Y384200D02*Y382000D01*
G54D283*X244007Y333457D02*X244793D01*
X244007Y340543D02*X244793D01*
G54D296*X241900Y351000D02*Y350000D01*
X258400Y351000D02*X259400D01*
X258400Y363000D02*X259400D01*
G54D283*X237507Y365957D02*X238293D01*
X237507Y373043D02*X238293D01*
G54D286*X218129Y306362D02*Y301638D01*
G54D287*X216161Y296913D02*Y292188D01*
X220098Y296913D02*Y292188D01*
G54D286*X222066Y306362D02*Y301638D01*
G54D283*X224305Y371681D02*Y369319D01*
G54D297*X218535Y347260D02*X219716D01*
X218535Y354740D02*X219716D01*
G54D283*X219900Y335681D02*Y333319D01*
G54D286*X226003Y306362D02*Y301638D01*
G54D287*X224035Y296913D02*Y292188D01*
X227972Y296913D02*Y292188D01*
G54D286*X229940Y306362D02*Y301638D01*
G54D296*X229900Y351000D02*Y350000D01*
G54D283*X231710Y335681D02*Y333319D01*
G54D288*X212224Y305968D02*Y302031D01*
G54D283*X212495Y371681D02*Y369319D01*
G54D297*X209087Y351000D02*X210268D01*
X209087Y354740D02*X210268D01*
X209087Y347260D02*X210268D01*
G54D288*X212224Y296519D02*Y292582D01*
G54D286*X233877Y306362D02*Y301638D01*
G54D287*X231909Y296913D02*Y292188D01*
G54D286*X235846Y296913D02*Y292189D01*
X237814Y306362D02*Y301638D01*
X241751Y306362D02*Y301638D01*
X245688Y306362D02*Y301638D01*
X249625Y306362D02*Y301638D01*
X253562Y306362D02*Y301638D01*
X239783Y296913D02*Y292189D01*
X243720Y296913D02*Y292189D01*
X247657Y296913D02*Y292189D01*
X251594Y296913D02*Y292189D01*
G54D288*X257500Y305968D02*Y302031D01*
Y296519D02*Y292582D01*
G54D286*X230657Y274752D02*Y270028D01*
X234594Y274752D02*Y270028D01*
X238531Y274752D02*Y270028D01*
X242468Y274752D02*Y270028D01*
X246405Y274752D02*Y270028D01*
X250342Y274752D02*Y270028D01*
X254279Y274752D02*Y270028D01*
X258216Y274752D02*Y270028D01*
G54D288*X262154Y274358D02*Y270421D01*
G54D286*X226720Y274752D02*Y270028D01*
G54D287*X224752Y265303D02*Y260578D01*
X228689Y265303D02*Y260578D01*
X232626Y265303D02*Y260578D01*
G54D286*X222783Y274752D02*Y270028D01*
G54D287*X220815Y265303D02*Y260578D01*
G54D288*X216878Y274358D02*Y270421D01*
Y264909D02*Y260972D01*
G54D287*X236563Y265303D02*Y260578D01*
G54D286*X240500Y265303D02*Y260579D01*
X244437Y265303D02*Y260579D01*
X248374Y265303D02*Y260579D01*
X252311Y265303D02*Y260579D01*
X256248Y265303D02*Y260579D01*
G54D288*X262154Y264909D02*Y260972D01*
G54D286*X143129Y306362D02*Y301638D01*
X147066Y306362D02*Y301638D01*
X151003Y306362D02*Y301638D01*
X154940Y306362D02*Y301638D01*
X158877Y306362D02*Y301638D01*
X162814Y306362D02*Y301638D01*
G54D287*X141161Y296913D02*Y292188D01*
X145098Y296913D02*Y292188D01*
X149035Y296913D02*Y292188D01*
G54D288*X137224Y305968D02*Y302031D01*
Y296519D02*Y292582D01*
G54D286*X166751Y306362D02*Y301638D01*
X170688Y306362D02*Y301638D01*
X174625Y306362D02*Y301638D01*
X178562Y306362D02*Y301638D01*
G54D288*X182500Y305968D02*Y302031D01*
G54D287*X152972Y296913D02*Y292188D01*
X156909Y296913D02*Y292188D01*
G54D286*X160846Y296913D02*Y292189D01*
X164783Y296913D02*Y292189D01*
X168720Y296913D02*Y292189D01*
X172657Y296913D02*Y292189D01*
X176594Y296913D02*Y292189D01*
G54D288*X182500Y296519D02*Y292582D01*
G54D298*X127453Y273456D02*Y269400D01*
Y254361D02*Y250306D01*
X130603Y254361D02*Y250306D01*
X133753Y254361D02*Y250306D01*
X136902Y254361D02*Y250306D01*
X130603Y273456D02*Y269400D01*
X133753Y273456D02*Y269400D01*
X136902Y273456D02*Y269400D01*
G54D299*X140051Y273456D02*Y269401D01*
G54D298*X152650Y273456D02*Y269400D01*
X149501Y273456D02*Y269400D01*
X146351Y273456D02*Y269400D01*
X143202Y273456D02*Y269400D01*
X152650Y254361D02*Y250306D01*
X149501Y254361D02*Y250306D01*
X146351Y254361D02*Y250306D01*
X143202Y254361D02*Y250306D01*
G54D299*X140051Y254361D02*Y250307D01*
G54D298*X171548Y273456D02*Y269400D01*
X168398Y273456D02*Y269400D01*
X165249Y273456D02*Y269400D01*
X162099Y273456D02*Y269400D01*
X158950Y273456D02*Y269400D01*
G54D299*X155799Y273456D02*Y269401D01*
G54D298*X171548Y254361D02*Y250306D01*
X168398Y254361D02*Y250306D01*
X165249Y254361D02*Y250306D01*
X162099Y254361D02*Y250306D01*
X158950Y254361D02*Y250306D01*
G54D299*X155799Y254361D02*Y250307D01*
G54D283*X61914Y257393D02*Y256607D01*
X69000Y257393D02*Y256607D01*
X64000Y228893D02*Y228107D01*
X71086Y228893D02*Y228107D01*
X59500Y280681D02*Y278319D01*
X71310Y280681D02*Y278319D01*
G54D300*X44390Y245594D02*Y243822D01*
G54D301*X46358Y245594D02*Y243823D01*
G54D300*X48327Y245594D02*Y243822D01*
G54D301*X50295Y245594D02*Y243823D01*
G54D283*X52586Y258393D02*Y257607D01*
G54D300*X52264Y245594D02*Y243822D01*
G54D301*X54232Y245594D02*Y243823D01*
G54D302*X47539Y239000D02*X52461D01*
G54D283*X32414Y270393D02*Y269607D01*
X34000Y254755D02*Y249245D01*
X39500Y270393D02*Y269607D01*
G54D285*X46882Y268992D02*Y268008D01*
X52000Y268992D02*Y268008D01*
G54D283*X23414Y235893D02*Y235107D01*
X22190Y254755D02*Y249245D01*
X30500Y235893D02*Y235107D01*
G54D303*X43524Y241638D02*Y237740D01*
G54D283*X45500Y258393D02*Y257607D01*
X24914Y220893D02*Y220107D01*
X32000Y220893D02*Y220107D01*
X42500Y221393D02*Y220607D01*
X49586Y221393D02*Y220607D01*
X61000Y214893D02*Y214107D01*
X68086Y214893D02*Y214107D01*
G54D304*X43012Y237110D02*X44272Y235850D01*
X43524Y237110D02*X44272Y236362D01*
X43996Y237150D02*X44311Y236835D01*
G54D300*X44390Y234178D02*Y232406D01*
G54D301*X46358Y234178D02*Y232407D01*
G54D300*X48327Y234178D02*Y232406D01*
G54D301*X50295Y234178D02*Y232407D01*
G54D300*X52264Y234178D02*Y232406D01*
G54D301*X54232Y234178D02*Y232407D01*
G54D283*X64000Y111893D02*Y111107D01*
X71086Y111893D02*Y111107D01*
X30414Y130393D02*Y129607D01*
X37500Y130393D02*Y129607D01*
X31000Y104893D02*Y104107D01*
X32914Y116893D02*Y116107D01*
X38086Y104893D02*Y104107D01*
G54D282*X122750Y212000D02*X123050D01*
X129850Y212300D02*Y211700D01*
Y220500D02*Y219900D01*
X122450Y220500D02*Y219900D01*
G54D285*X90408Y203559D02*X91392D01*
X90408Y198441D02*X91392D01*
X106908Y202559D02*X107892D01*
X106908Y197441D02*X107892D01*
G54D282*X99300Y212000D02*X99600D01*
X106400Y212300D02*Y211700D01*
Y220500D02*Y219900D01*
X99000Y220500D02*Y219900D01*
G54D289*X144892Y181622D02*X149790D01*
X144892Y179654D02*X149790D01*
X144892Y177685D02*X149790D01*
X144892Y175717D02*X149790D01*
X144892Y173748D02*X149790D01*
X144892Y171780D02*X149790D01*
G54D283*X149357Y199393D02*Y198607D01*
G54D282*X144750Y212500D02*X145050D01*
X151850Y212800D02*Y212200D01*
Y221000D02*Y220400D01*
X144450Y221000D02*Y220400D01*
G54D283*X156443Y199393D02*Y198607D01*
X164007Y204543D02*X164793D01*
X164007Y197457D02*X164793D01*
G54D289*X144892Y169811D02*X149790D01*
X144892Y167843D02*X149790D01*
X144892Y165874D02*X149790D01*
X144892Y163906D02*X149790D01*
X144892Y161937D02*X149790D01*
X144892Y159969D02*X149790D01*
X144892Y158000D02*X149790D01*
X144892Y156032D02*X149790D01*
X144892Y154063D02*X149790D01*
X144892Y152095D02*X149790D01*
X144892Y150126D02*X149790D01*
X144892Y148158D02*X149790D01*
X144892Y146189D02*X149790D01*
X144892Y144221D02*X149790D01*
X144892Y142252D02*X149790D01*
X144892Y140284D02*X149790D01*
X144892Y138315D02*X149790D01*
G54D280*G36*
X57877Y150123D02*Y139877D01*
X68123D01*
Y150123D01*
X57877D01*
G37*
G54D293*X54634Y149921D02*X56405D01*
X54634Y147953D02*X56405D01*
X54634Y145984D02*X56405D01*
X54634Y144016D02*X56405D01*
X54634Y142047D02*X56405D01*
X54634Y140079D02*X56405D01*
X60047Y153366D02*Y151594D01*
Y138405D02*Y136633D01*
X58079Y138405D02*Y136633D01*
G54D283*X22414Y143393D02*Y142607D01*
X29500Y143393D02*Y142607D01*
G54D293*X58079Y153366D02*Y151594D01*
G54D283*X26190Y161681D02*Y159319D01*
X38000Y161681D02*Y159319D01*
X51500Y167893D02*Y167107D01*
X58586Y167893D02*Y167107D01*
X53914Y192893D02*Y192107D01*
X61000Y192893D02*Y192107D01*
X39914Y183893D02*Y183107D01*
X25000Y188393D02*Y187607D01*
X32086Y188393D02*Y187607D01*
X37914Y174893D02*Y174107D01*
X47000Y183893D02*Y183107D01*
X45000Y174893D02*Y174107D01*
X40500Y195893D02*Y195107D01*
X47586Y195893D02*Y195107D01*
M02*
