G04 start of page 2 for group 0 idx 0 *
G04 Title: (unknown), component *
G04 Creator: pcb 20110918 *
G04 CreationDate: Thu Oct  4 18:59:29 2012 UTC *
G04 For: fosse *
G04 Format: Gerber/RS-274X *
G04 PCB-Dimensions: 600000 500000 *
G04 PCB-Coordinate-Origin: lower left *
%MOIN*%
%FSLAX25Y25*%
%LNTOP*%
%ADD14R,0.0530X0.0530*%
%ADD13R,0.0110X0.0110*%
%ADD12R,0.0295X0.0295*%
%ADD11R,0.0512X0.0512*%
G54D11*X184095Y481181D02*Y478819D01*
X195905Y481181D02*Y478819D01*
X214095Y481181D02*Y478819D01*
X225905Y481181D02*Y478819D01*
X244095Y481181D02*Y478819D01*
X255905Y481181D02*Y478819D01*
X274095Y481181D02*Y478819D01*
X285905Y481181D02*Y478819D01*
G54D12*X297441Y480492D02*Y479508D01*
X302559Y480492D02*Y479508D01*
X317441Y480492D02*Y479508D01*
X322559Y480492D02*Y479508D01*
X337441Y480492D02*Y479508D01*
X342559Y480492D02*Y479508D01*
X357441Y480492D02*Y479508D01*
X362559Y480492D02*Y479508D01*
G54D13*X384992Y473622D02*X389890D01*
X384992Y471654D02*X389890D01*
X384992Y469685D02*X389890D01*
X384992Y467717D02*X389890D01*
X384992Y465748D02*X389890D01*
X384992Y463780D02*X389890D01*
X384992Y461811D02*X389890D01*
X384992Y459843D02*X389890D01*
X384992Y457874D02*X389890D01*
X384992Y455906D02*X389890D01*
X384992Y453937D02*X389890D01*
X384992Y451969D02*X389890D01*
X384992Y450000D02*X389890D01*
X384992Y448032D02*X389890D01*
X384992Y446063D02*X389890D01*
X384992Y444095D02*X389890D01*
X384992Y442126D02*X389890D01*
X384992Y440158D02*X389890D01*
X384992Y438189D02*X389890D01*
X384992Y436221D02*X389890D01*
X384992Y434252D02*X389890D01*
X384992Y432284D02*X389890D01*
X384992Y430315D02*X389890D01*
X384992Y428347D02*X389890D01*
X384992Y426378D02*X389890D01*
X396378Y419890D02*Y414992D01*
X398346Y419890D02*Y414992D01*
X400315Y419890D02*Y414992D01*
X402283Y419890D02*Y414992D01*
X404252Y419890D02*Y414992D01*
X406220Y419890D02*Y414992D01*
X408189Y419890D02*Y414992D01*
X410157Y419890D02*Y414992D01*
X412126Y419890D02*Y414992D01*
X414094Y419890D02*Y414992D01*
X416063Y419890D02*Y414992D01*
X418031Y419890D02*Y414992D01*
X420000Y419890D02*Y414992D01*
X421968Y419890D02*Y414992D01*
X423937Y419890D02*Y414992D01*
X425905Y419890D02*Y414992D01*
X427874Y419890D02*Y414992D01*
X429842Y419890D02*Y414992D01*
X431811Y419890D02*Y414992D01*
X433779Y419890D02*Y414992D01*
X435748Y419890D02*Y414992D01*
X437716Y419890D02*Y414992D01*
X439685Y419890D02*Y414992D01*
X441653Y419890D02*Y414992D01*
X443622Y419890D02*Y414992D01*
X450110Y426378D02*X455008D01*
X450110Y428346D02*X455008D01*
X450110Y430315D02*X455008D01*
X450110Y432283D02*X455008D01*
X450110Y434252D02*X455008D01*
X450110Y436220D02*X455008D01*
X450110Y438189D02*X455008D01*
X450110Y440157D02*X455008D01*
X450110Y442126D02*X455008D01*
X450110Y444094D02*X455008D01*
X450110Y446063D02*X455008D01*
X450110Y448031D02*X455008D01*
X450110Y450000D02*X455008D01*
X450110Y451968D02*X455008D01*
X450110Y453937D02*X455008D01*
X450110Y455905D02*X455008D01*
X450110Y457874D02*X455008D01*
X450110Y459842D02*X455008D01*
X450110Y461811D02*X455008D01*
X450110Y463779D02*X455008D01*
X450110Y465748D02*X455008D01*
X450110Y467716D02*X455008D01*
X450110Y469685D02*X455008D01*
X450110Y471653D02*X455008D01*
X450110Y473622D02*X455008D01*
X443622Y485008D02*Y480110D01*
X441654Y485008D02*Y480110D01*
X439685Y485008D02*Y480110D01*
X437717Y485008D02*Y480110D01*
X435748Y485008D02*Y480110D01*
X433780Y485008D02*Y480110D01*
X431811Y485008D02*Y480110D01*
G54D11*X464095Y481181D02*Y478819D01*
X475905Y481181D02*Y478819D01*
X494095Y481181D02*Y478819D01*
X505905Y481181D02*Y478819D01*
G54D13*X429843Y485008D02*Y480110D01*
X427874Y485008D02*Y480110D01*
X425906Y485008D02*Y480110D01*
X423937Y485008D02*Y480110D01*
X421969Y485008D02*Y480110D01*
X420000Y485008D02*Y480110D01*
X418032Y485008D02*Y480110D01*
X416063Y485008D02*Y480110D01*
X414095Y485008D02*Y480110D01*
X412126Y485008D02*Y480110D01*
X410158Y485008D02*Y480110D01*
X408189Y485008D02*Y480110D01*
X406221Y485008D02*Y480110D01*
X404252Y485008D02*Y480110D01*
X402284Y485008D02*Y480110D01*
X400315Y485008D02*Y480110D01*
X398347Y485008D02*Y480110D01*
X396378Y485008D02*Y480110D01*
G54D11*X16457Y480393D02*Y479607D01*
X23543Y480393D02*Y479607D01*
G54D14*X44200Y481600D02*Y478400D01*
X55800Y481600D02*Y478400D01*
G54D11*X74095Y481181D02*Y478819D01*
X85905Y481181D02*Y478819D01*
X104095Y481181D02*Y478819D01*
X115905Y481181D02*Y478819D01*
X136457Y480393D02*Y479607D01*
X143543Y480393D02*Y479607D01*
X154095Y481181D02*Y478819D01*
X165905Y481181D02*Y478819D01*
M02*
