G04 start of page 3 for group 1 idx 1 *
G04 Title: (unknown), 2PV *
G04 Creator: pcb 20110918 *
G04 CreationDate: Tue Nov 19 22:18:25 2013 UTC *
G04 For: fosse *
G04 Format: Gerber/RS-274X *
G04 PCB-Dimensions: 550000 700000 *
G04 PCB-Coordinate-Origin: lower left *
%MOIN*%
%FSLAX25Y25*%
%LNGROUP1*%
%ADD68C,0.1160*%
%ADD67C,0.1150*%
%ADD66C,0.0354*%
%ADD65C,0.1090*%
%ADD64C,0.0350*%
%ADD63C,0.0150*%
%ADD62C,0.0360*%
%ADD61C,0.0600*%
%ADD60C,0.0300*%
%ADD59C,0.0550*%
%ADD58C,0.0001*%
%ADD57C,0.0494*%
%ADD56C,0.0544*%
%ADD55C,0.2700*%
%ADD54C,0.1300*%
%ADD53C,0.0394*%
%ADD52C,0.2500*%
%ADD51C,0.0200*%
%ADD50C,0.0100*%
G54D50*X281800Y261900D02*Y239700D01*
X278600Y250500D02*Y238900D01*
X275500Y261900D02*Y237000D01*
X272300Y250500D02*Y235700D01*
X281800Y239700D02*X289500Y232000D01*
X278600Y238900D02*X282500Y235000D01*
X275500Y237000D02*X280500Y232000D01*
X272300Y235700D02*X276000Y232000D01*
X289500D02*Y224500D01*
X293000Y221000D01*
Y200400D01*
X291600Y199000D01*
X287500Y215000D02*Y199100D01*
X287600Y199000D01*
X283600D02*Y213400D01*
X282500Y235000D02*Y223500D01*
X280500Y232000D02*Y223500D01*
X276000Y232000D02*Y227500D01*
X275000Y226500D01*
Y223000D01*
X276500Y221500D01*
X282500Y223500D02*X285500Y220500D01*
Y217000D01*
X287500Y215000D01*
X280500Y223500D02*X278500Y221500D01*
Y218500D01*
X283600Y213400D01*
X276500Y221500D02*Y216500D01*
X279700Y213300D02*X276500Y216500D01*
X279700Y199000D02*Y213300D01*
X275800Y199000D02*Y210700D01*
X271800Y199000D02*Y208700D01*
X267913Y199087D02*Y209087D01*
X263500Y213500D01*
Y222000D01*
X265000Y223500D01*
Y227500D01*
X264000Y208500D02*Y199048D01*
X263976Y199024D01*
X260039Y199039D02*Y209961D01*
X256000Y209000D02*Y199000D01*
X269200Y229800D02*X272750Y226250D01*
X267000Y229000D02*Y223500D01*
X268750Y221750D01*
X272750Y226250D02*Y223250D01*
X271000Y221500D01*
Y215500D01*
X275800Y210700D01*
X268750Y221750D02*Y211750D01*
X271800Y208700D01*
X259000Y228500D02*Y223500D01*
X261000Y221500D01*
Y211500D01*
X264000Y208500D01*
X260039Y209961D02*X254500Y215500D01*
Y230000D02*Y215500D01*
X251000Y230500D02*Y214000D01*
X256000Y209000D01*
X269200Y261900D02*Y229800D01*
X262900Y261900D02*Y229600D01*
X266050Y251550D02*Y229950D01*
X265000Y227500D02*X262900Y229600D01*
X266050Y229950D02*X267000Y229000D01*
X259700Y229200D02*X259000Y228500D01*
X256600Y232100D02*X254500Y230000D01*
X259700Y250500D02*Y229200D01*
X256600Y261900D02*Y232100D01*
X253400Y250500D02*Y232900D01*
X251000Y230500D01*
X282025Y408700D02*Y427125D01*
X283000Y428100D01*
X286070Y403230D02*Y427030D01*
X285000Y428100D01*
X289899Y408700D02*Y427599D01*
X290750Y428450D01*
X283000Y428100D02*Y432700D01*
X280600Y435100D01*
Y464020D01*
X282070Y465490D01*
X286900Y434400D02*Y453600D01*
X289000Y434300D02*Y454400D01*
X285000Y432500D02*X286900Y434400D01*
Y453600D02*X286000Y454500D01*
X289000Y454400D02*X290000Y455400D01*
X286000Y454500D02*Y465460D01*
X285970Y465490D01*
X290000Y455400D02*Y465460D01*
X289970Y465490D01*
X293800Y446800D02*Y465420D01*
X296900Y434300D02*Y455900D01*
X297700Y456700D01*
Y465500D01*
X293800Y465420D02*X293870Y465490D01*
X297800Y465460D02*X297770Y465490D01*
X297700Y465500D02*X297730Y465530D01*
X301700Y456700D02*Y465420D01*
X301770Y465490D01*
X285000Y428100D02*Y432500D01*
X290750Y428450D02*Y432550D01*
X289000Y434300D01*
X293910Y427590D02*X293000Y428500D01*
X297816Y428416D02*X298800Y429400D01*
Y432400D01*
X296900Y434300D01*
X293000Y428500D02*Y432500D01*
X294800Y434300D01*
Y445800D01*
X293800Y446800D01*
X301000Y429300D02*Y432300D01*
X302550Y433850D01*
X293910Y403230D02*Y427590D01*
X297816Y408718D02*Y428416D01*
X301820Y403230D02*Y428480D01*
X301000Y429300D01*
X305699Y408700D02*Y428399D01*
X306400Y429100D01*
Y432500D01*
X305100Y433800D01*
X309540Y403230D02*Y428960D01*
X313500Y428200D02*Y408799D01*
X313599Y408700D01*
X317500Y427500D02*Y403270D01*
X317460Y403230D01*
X309540Y428960D02*X309100Y429400D01*
Y432300D01*
X310400Y433600D01*
Y447000D01*
X309600Y447800D01*
Y465420D01*
X309670Y465490D01*
X302550Y433850D02*Y455850D01*
X301700Y456700D01*
X305100Y433800D02*Y456000D01*
X305670Y465490D02*Y456570D01*
X305100Y456000D01*
X313564Y465000D02*Y446764D01*
X317544Y465490D02*Y447056D01*
X313564Y446764D02*X312700Y445900D01*
X317544Y447056D02*X318700Y445900D01*
X312700D02*Y433900D01*
X318700Y445900D02*Y428700D01*
X317500Y427500D01*
X312700Y433900D02*X314600Y432000D01*
Y429300D01*
X313500Y428200D01*
G54D51*X251620Y129400D02*X256020Y133800D01*
Y139800D02*Y133800D01*
Y139800D02*X261520Y145300D01*
X248620Y134700D02*X251420D01*
X260620Y137300D02*X262920Y139600D01*
X265420Y135000D02*Y132100D01*
X260620Y137300D02*Y133100D01*
X261520Y145300D02*X263220D01*
X264720Y146800D01*
Y156300D02*Y146800D01*
Y156300D02*X266420Y158000D01*
X267520D01*
X272820Y163300D01*
X250520Y157000D02*X256820Y163300D01*
X248620Y134700D02*X244820Y138500D01*
X241720Y135800D02*Y132400D01*
Y135800D02*X233120Y144400D01*
X230120Y127300D02*X248020D01*
X244820Y152300D02*Y138500D01*
X238320Y151600D02*Y149000D01*
Y151600D02*X243720Y157000D01*
X250520D01*
X233120Y156300D02*Y144400D01*
X226720Y123900D02*X230120Y127300D01*
X226720Y123900D02*Y116500D01*
X229520Y113700D01*
X233120Y156300D02*X234220Y157400D01*
X262920Y139600D02*X282120D01*
X266620Y136200D02*X278920D01*
X266620D02*X265420Y135000D01*
X282120Y139600D02*X285020Y136700D01*
X288520Y127300D02*X289920D01*
X288520D02*X285720Y130100D01*
X285020D02*X285720D01*
X285020D02*X278920Y136200D01*
X265420Y132100D02*X267620Y129900D01*
Y127300D01*
X265120Y124800D01*
X264420D02*X265120D01*
X264420D02*X261020Y121400D01*
X275920Y129400D02*X277720D01*
X280720Y126400D01*
X248020Y127300D02*X249420Y125900D01*
X253420D01*
X260620Y133100D01*
X243120Y121400D02*X261020D01*
X243120D02*X241620Y119900D01*
Y110100D01*
X247020Y113200D02*X249620Y110600D01*
Y104400D01*
X231320Y73300D02*X233820D01*
X231320D02*X226420Y78200D01*
X249620Y104400D02*X247020Y101800D01*
X232920D02*X247020D01*
X265120Y104600D02*X269420Y100300D01*
X226420Y101800D02*X237520Y112900D01*
X241620Y110100D02*X237820Y106300D01*
X232920Y101800D02*X229720Y98600D01*
X226420Y101800D02*Y78200D01*
X229720Y98600D02*Y92800D01*
X233720Y88800D01*
Y81300D01*
X236520Y78500D01*
X244120D01*
X251120Y71500D01*
X274020D01*
X275820Y73300D01*
X280720Y126400D02*Y120500D01*
X287620Y113600D01*
X289420D01*
X291820Y111200D01*
Y96900D01*
X285520Y90600D01*
X280520D02*X285520D01*
X281820Y100300D02*X287820Y106300D01*
X280520Y90600D02*X275820Y95300D01*
X269420Y100300D02*X281720D01*
G54D52*X95200Y461100D03*
X175200D03*
X375200D03*
X95200Y211100D03*
X175200D03*
G54D53*X248925Y239204D03*
G54D54*X187700Y224850D03*
X161700D03*
G54D55*X275500Y279000D03*
G54D56*X248666Y414966D03*
X195516D03*
G54D55*X222090Y379760D03*
X258820Y87800D03*
G54D57*X285395Y123005D03*
X232245D03*
G54D52*X455200Y461100D03*
Y211100D03*
X375200D03*
G54D53*X302075Y239204D03*
G54D58*G36*
X499270Y298330D02*Y292830D01*
X504770D01*
Y298330D01*
X499270D01*
G37*
G54D59*X522020Y295580D03*
G54D60*X256000Y199000D03*
X260039Y199039D03*
X263976Y199024D03*
X268000Y199000D03*
X271800D03*
X275800D03*
X279700D03*
X283600D03*
X287600D03*
X291600D03*
X258000Y220200D03*
X262000Y224700D03*
X266000Y220200D03*
X270000Y224700D03*
X273800Y220200D03*
X277800Y224700D03*
X281700Y220200D03*
X285700Y224700D03*
X289600Y220200D03*
X293600Y224700D03*
X297200Y228200D03*
X301800Y230600D03*
X253400Y250500D03*
X256600Y261900D03*
X259700Y250500D03*
X262900Y261900D03*
X266000Y250500D03*
X269200Y261900D03*
X272300Y250500D03*
X275500Y261900D03*
X278600Y250500D03*
X285000Y242900D03*
X291300D03*
X297600D03*
X281800Y261900D03*
X288100D03*
X294400D03*
X284900Y250500D03*
X291200D03*
X297500D03*
X203220Y426450D03*
X222020D03*
X215820D03*
X209520D03*
X203120Y406850D03*
X222120D03*
X215820D03*
X209520D03*
X218923Y401223D03*
X212623D03*
X206323D03*
X200000Y401200D03*
X218892Y420308D03*
X212592D03*
X206292D03*
X200000Y420300D03*
X204500Y465500D03*
X208400D03*
X212400D03*
X216300D03*
X220200D03*
X224200D03*
X228100D03*
X232100D03*
X282070Y465490D03*
X285970D03*
X289970D03*
X293870D03*
X297770D03*
X301770D03*
X305670D03*
X309670D03*
X313544D03*
X317544D03*
G54D61*X274890Y504660D03*
G54D60*X317460Y403230D03*
X313599Y408700D03*
X309540Y403230D03*
X305699Y408700D03*
X301820Y403230D03*
X297816Y408718D03*
X293910Y403230D03*
X289899Y408700D03*
X286070Y403230D03*
X282025Y408700D03*
X295800Y430900D03*
X291900Y435200D03*
X288000Y430900D03*
X284000Y435200D03*
X280100Y430900D03*
X311548D03*
X307700Y435100D03*
X315500Y435400D03*
X303748Y430900D03*
X299748Y435148D03*
G54D61*X266390Y555160D03*
G54D62*X302390Y558660D03*
G54D61*X271390Y610160D03*
G54D62*X283390Y603660D03*
X302890D03*
X296390D03*
X289890D03*
X304390Y564660D03*
X310390D03*
G54D61*X440500Y643500D03*
X457500Y642000D03*
X430500Y640000D03*
X436500Y614000D03*
X487000Y628000D03*
Y641500D03*
X451000Y697000D03*
X459744Y677744D03*
X451000Y677000D03*
X475500Y683000D03*
X472000Y652500D03*
X479000Y663000D03*
X442500Y652000D03*
X433500Y663000D03*
X449000Y662500D03*
G54D62*X347390Y584660D03*
G54D61*X400390Y599660D03*
X380390D03*
G54D62*X342890Y589160D03*
X342390Y614160D03*
X338890Y584660D03*
X333390Y574160D03*
X334890Y589160D03*
G54D61*X312890Y612660D03*
G54D62*X318390Y596160D03*
X329237Y592813D03*
G54D61*X383390Y520160D03*
Y535160D03*
X318890Y522660D03*
X332890Y514660D03*
X319890Y536160D03*
G54D62*X329890Y579660D03*
X327890Y585660D03*
X326796Y574066D03*
X332390Y562660D03*
X326890Y566160D03*
X333390Y554160D03*
X326669Y554381D03*
X252820Y152300D03*
X256820Y163300D03*
X248820D03*
X260820Y152300D03*
X268820D03*
X276820D03*
X272820Y163300D03*
X264820D03*
X232420Y132500D03*
X237220Y132600D03*
X246220Y131400D03*
X241720Y132400D03*
X251620Y129400D03*
X251420Y134700D03*
X240820Y163300D03*
X244820Y152300D03*
X238320Y149000D03*
X234220Y157400D03*
X288820Y141400D03*
X285020Y136700D03*
X289620Y133100D03*
X287420Y147000D03*
X289920Y118000D03*
Y127300D03*
X270320Y132700D03*
X263420Y128500D03*
X259420Y125600D03*
X275920Y129400D03*
X273520Y125000D03*
X265119Y104601D03*
X233820Y95300D03*
X237820Y84300D03*
X229820D03*
X233820Y73300D03*
X241820Y95300D03*
Y73300D03*
X237820Y106300D03*
X237520Y112900D03*
X229520Y113700D03*
X247020Y113200D03*
X245820Y106300D03*
X287820D03*
X283820Y95300D03*
X275820D03*
X279820Y106300D03*
Y84300D03*
X287820D03*
X275820Y73300D03*
X283820D03*
X285720Y66500D03*
G54D63*G54D64*G54D63*G54D64*G54D51*G54D64*G54D51*G54D64*G54D51*G54D64*G54D51*G54D64*G54D51*G54D64*G54D51*G54D65*G54D66*G54D67*G54D68*G54D66*G54D68*G54D66*G54D65*G54D66*G54D60*M02*
