G04 start of page 10 for group -4079 idx -4079 *
G04 Title: (unknown), topsilk *
G04 Creator: pcb 20110918 *
G04 CreationDate: Mon Nov 25 22:54:25 2013 UTC *
G04 For: fosse *
G04 Format: Gerber/RS-274X *
G04 PCB-Dimensions: 550000 550000 *
G04 PCB-Coordinate-Origin: lower left *
%MOIN*%
%FSLAX25Y25*%
%LNTOPSILK*%
%ADD174C,0.0200*%
%ADD173C,0.0079*%
%ADD172C,0.0100*%
%ADD171C,0.0080*%
%ADD170C,0.0060*%
G54D170*X343000Y82500D02*Y78500D01*
Y82500D02*X344500Y80500D01*
X346000Y82500D01*
Y78500D01*
X347200Y82000D02*Y79000D01*
Y82000D02*X347700Y82500D01*
X348700D01*
X349200Y82000D01*
Y79000D01*
X348700Y78500D02*X349200Y79000D01*
X347700Y78500D02*X348700D01*
X347200Y79000D02*X347700Y78500D01*
X350900Y82500D02*Y78500D01*
X352200Y82500D02*X352900Y81800D01*
Y79200D01*
X352200Y78500D02*X352900Y79200D01*
X350400Y78500D02*X352200D01*
X350400Y82500D02*X352200D01*
X354100Y80700D02*X355600D01*
X354100Y78500D02*X356100D01*
X354100Y82500D02*Y78500D01*
Y82500D02*X356100D01*
X315900D02*X316400Y82000D01*
X314400Y82500D02*X315900D01*
X313900Y82000D02*X314400Y82500D01*
X313900Y82000D02*Y81000D01*
X314400Y80500D01*
X315900D01*
X316400Y80000D01*
Y79000D01*
X315900Y78500D02*X316400Y79000D01*
X314400Y78500D02*X315900D01*
X313900Y79000D02*X314400Y78500D01*
X317600Y82500D02*X319600D01*
X318600D02*Y78500D01*
X320800Y81500D02*Y78500D01*
Y81500D02*X321500Y82500D01*
X322600D01*
X323300Y81500D01*
Y78500D01*
X320800Y80500D02*X323300D01*
X324500Y82500D02*X326500D01*
X325500D02*Y78500D01*
X327700Y82500D02*Y79000D01*
X328200Y78500D01*
X329200D01*
X329700Y79000D01*
Y82500D02*Y79000D01*
X332900Y82500D02*X333400Y82000D01*
X331400Y82500D02*X332900D01*
X330900Y82000D02*X331400Y82500D01*
X330900Y82000D02*Y81000D01*
X331400Y80500D01*
X332900D01*
X333400Y80000D01*
Y79000D01*
X332900Y78500D02*X333400Y79000D01*
X331400Y78500D02*X332900D01*
X330900Y79000D02*X331400Y78500D01*
G54D171*X342165Y237633D02*Y236847D01*
X336655Y237633D02*Y236847D01*
X325017Y227495D02*X325803D01*
X325017Y221985D02*X325803D01*
X325017Y239995D02*X325803D01*
X325017Y234485D02*X325803D01*
G54D172*X280240Y233090D02*Y219190D01*
X292640D01*
Y233090D02*Y219190D01*
X280240Y233090D02*X292640D01*
X366243Y355407D02*X384156D01*
Y343793D01*
X366243D01*
Y355407D01*
X299740Y223090D02*Y209190D01*
X312140D01*
Y223090D02*Y209190D01*
X299740Y223090D02*X312140D01*
X280290Y213090D02*Y199190D01*
X292690D01*
Y213090D02*Y199190D01*
X280290Y213090D02*X292690D01*
G54D171*X513150Y252755D02*X513936D01*
X513150Y247245D02*X513936D01*
X513064Y235755D02*X513850D01*
X513064Y230245D02*X513850D01*
X513150Y273755D02*X513936D01*
X513150Y268245D02*X513936D01*
G54D173*X487921Y252913D02*Y253701D01*
X486543Y252913D02*X487921D01*
X486543Y266299D02*Y252913D01*
Y253701D02*X503078D01*
Y266299D02*Y253701D01*
X486543Y266299D02*X503078D01*
G54D171*X494150Y281755D02*X494936D01*
X494150Y276245D02*X494936D01*
X482064Y235255D02*X482850D01*
X482064Y229745D02*X482850D01*
X488564Y207255D02*X489350D01*
X488564Y201745D02*X489350D01*
X489150Y219255D02*X489936D01*
X489150Y213745D02*X489936D01*
X473650Y211755D02*X474436D01*
X473650Y206245D02*X474436D01*
X491150Y244755D02*X491936D01*
X491150Y239245D02*X491936D01*
X473353Y249461D02*X478077D01*
X473353Y241981D02*X478077D01*
X460880Y260790D02*X461666D01*
X460880Y255280D02*X461666D01*
X481064Y293755D02*X481850D01*
X481064Y288245D02*X481850D01*
X471627Y278314D02*X475563D01*
X471627Y267686D02*X475563D01*
X514650Y193755D02*X515436D01*
X514650Y188245D02*X515436D01*
X500150Y191255D02*X500936D01*
X500150Y185745D02*X500936D01*
X502564Y216255D02*X503350D01*
X502564Y210745D02*X503350D01*
X486564Y198255D02*X487350D01*
X486564Y192745D02*X487350D01*
X458043Y185240D02*X462767D01*
X458043Y177760D02*X462767D01*
X479064Y153755D02*X479850D01*
X479064Y148245D02*X479850D01*
X471064Y166755D02*X471850D01*
X471064Y161245D02*X471850D01*
G54D172*X500000Y96000D02*X505000D01*
X515000D02*X520000D01*
X505000Y97600D02*X515000D01*
Y94400D01*
X505000D01*
Y97600D01*
X500000Y103700D02*Y99700D01*
X498000Y101700D02*X502000D01*
X518000D02*X522000D01*
G54D174*X464640Y82060D02*Y63660D01*
G54D172*X471840Y61060D01*
X507040D01*
Y84660D01*
X471840D01*
X464640Y82060D01*
G54D171*X487043Y119240D02*X491767D01*
X487043Y111760D02*X491767D01*
G54D172*X273500Y126300D02*Y112400D01*
X285900D01*
Y126300D01*
X273500D01*
X294000D02*Y112400D01*
X306400D01*
Y126300D01*
X294000D01*
G54D171*X479650Y128255D02*X480436D01*
X479650Y122745D02*X480436D01*
X515150Y145255D02*X515936D01*
X515150Y139745D02*X515936D01*
G54D173*X509768Y176839D02*Y163509D01*
Y178268D02*Y162126D01*
Y162125D02*X493232D01*
Y178268D01*
X509768D02*X491463D01*
Y176771D01*
X493232D01*
Y162125D02*Y177520D01*
X491463D01*
G54D171*X497150Y139255D02*X497936D01*
X497150Y133745D02*X497936D01*
X495064Y154755D02*X495850D01*
X495064Y149245D02*X495850D01*
X481564Y140255D02*X482350D01*
X481564Y134745D02*X482350D01*
G54D172*X153597Y308739D02*Y297124D01*
X210684D02*Y308739D01*
X207731Y297124D02*X210684D01*
X153597D02*X156550D01*
X153597Y308739D02*X156550D01*
X207731D02*X210684D01*
X163439Y291022D02*Y286888D01*
Y291022D02*X164621Y289841D01*
X163439Y291022D02*X162258Y289841D01*
X164621D02*X162258D01*
X231167Y308729D02*Y297114D01*
X288254D02*Y308729D01*
X285301Y297114D02*X288254D01*
X231167D02*X234120D01*
X231167Y308729D02*X234120D01*
X285301D02*X288254D01*
X241009Y291012D02*Y286878D01*
Y291012D02*X242191Y289831D01*
X241009Y291012D02*X239828Y289831D01*
X242191D02*X239828D01*
G54D171*X175517Y176995D02*X176303D01*
X175517Y171485D02*X176303D01*
X188048Y169480D02*X192772D01*
X188048Y162000D02*X192772D01*
G54D172*X177000Y207800D02*Y193900D01*
X189400D01*
Y207800D01*
X177000D01*
G54D171*X162643Y85480D02*X167367D01*
X162643Y78000D02*X167367D01*
X268564Y227755D02*X269350D01*
X268564Y222245D02*X269350D01*
G54D172*X205000Y229500D02*Y215600D01*
X217400D01*
Y229500D01*
X205000D01*
G54D170*X35410Y326040D02*Y37640D01*
Y326040D02*X436810D01*
Y37640D01*
X35410D02*X436810D01*
G54D171*X92564Y95255D02*X93350D01*
X92564Y89745D02*X93350D01*
X89048Y114480D02*X93772D01*
X89048Y107000D02*X93772D01*
X112151Y169899D02*X163569D01*
Y115581D01*
X109251D01*
Y166999D01*
X112151Y169899D01*
X111151Y166999D02*G75*G03X111151Y166999I1000J0D01*G01*
X114560Y100495D02*X115346D01*
X114560Y94985D02*X115346D01*
X136412Y96427D02*X141136D01*
X136412Y88947D02*X141136D01*
G54D172*X61209Y177488D02*Y145992D01*
X48610D02*X61209D01*
X48610Y177488D02*Y145992D01*
Y177488D02*X61209D01*
X53714Y178233D02*X56066D01*
X53714Y176861D02*X56066D01*
X56231Y177636D02*G75*G03X54859Y179008I-1372J0D01*G01*
G75*G03X53487Y177636I0J-1372D01*G01*
X54890Y176077D02*G75*G03X56262Y177449I0J1372D01*G01*
X53518D02*G75*G03X54890Y176077I1372J0D01*G01*
G54D171*X51974Y201995D02*X52760D01*
X51974Y196485D02*X52760D01*
X73874Y80995D02*X74660D01*
X73874Y75485D02*X74660D01*
X79017Y94995D02*X79803D01*
X79017Y89485D02*X79803D01*
X77017Y130995D02*X77803D01*
X77017Y125485D02*X77803D01*
X77017Y142995D02*X77803D01*
X77017Y137485D02*X77803D01*
X109017Y186495D02*X109803D01*
X109017Y180985D02*X109803D01*
X83017Y174495D02*X83803D01*
X83017Y168985D02*X83803D01*
X83017Y162495D02*X83803D01*
X83017Y156985D02*X83803D01*
G54D172*X68992Y134181D02*Y89299D01*
X50488D02*X68992D01*
X50488Y134181D02*Y89299D01*
Y134181D02*X68992D01*
X13960Y108528D02*Y94628D01*
X26360D01*
Y108528D01*
X13960D01*
G54D171*X123665Y186133D02*Y185347D01*
X118155Y186133D02*Y185347D01*
X82974Y297995D02*X83760D01*
X82974Y292485D02*X83760D01*
G54D172*X55460Y287240D02*Y273340D01*
X67860D01*
Y287240D02*Y273340D01*
X55460Y287240D02*X67860D01*
X75010Y287040D02*Y273140D01*
X87410D01*
Y287040D02*Y273140D01*
X75010Y287040D02*X87410D01*
X45460Y266240D02*Y252340D01*
X57860D01*
Y266240D02*Y252340D01*
X45460Y266240D02*X57860D01*
X45460Y224740D02*Y210840D01*
X57860D01*
Y224740D02*Y210840D01*
X45460Y224740D02*X57860D01*
X45460Y246740D02*Y232840D01*
X57860D01*
Y246740D02*Y232840D01*
X45460Y246740D02*X57860D01*
X88500Y346500D02*Y332600D01*
X100900D01*
Y346500D01*
X88500D01*
X79010Y232740D02*Y218840D01*
X91410D01*
Y232740D01*
X79010D01*
Y212540D02*Y198640D01*
X91410D01*
Y212540D02*Y198640D01*
X79010Y212540D02*X91410D01*
X207169Y63345D02*Y51730D01*
X264256Y63345D02*Y51730D01*
X261303D02*X264256D01*
X207169D02*X210122D01*
X207169Y63345D02*X210122D01*
X261303D02*X264256D01*
X217011Y45628D02*Y41494D01*
Y45628D02*X218193Y44447D01*
X217011Y45628D02*X215830Y44447D01*
X218193D01*
G54D171*X292517Y51495D02*X293303D01*
X292517Y45985D02*X293303D01*
X274330Y51495D02*X275116D01*
X274330Y45985D02*X275116D01*
X273017Y93495D02*X273803D01*
X273017Y87985D02*X273803D01*
X292517Y93495D02*X293303D01*
X292517Y87985D02*X293303D01*
X168517Y104995D02*X169303D01*
X168517Y99485D02*X169303D01*
G54D170*X240208Y45313D02*X241508D01*
X242208Y44613D02*X241508Y45313D01*
X242208Y44613D02*Y42013D01*
X241508Y41313D01*
X240208D02*X241508D01*
X239008Y44813D02*Y41813D01*
X238508Y41313D01*
X237508D02*X238508D01*
X237508D02*X237008Y41813D01*
Y44813D02*Y41813D01*
X237508Y45313D02*X237008Y44813D01*
X237508Y45313D02*X238508D01*
X239008Y44813D02*X238508Y45313D01*
X235808D02*Y41313D01*
X233308Y45313D01*
Y41313D01*
X232108Y45313D02*Y41313D01*
X229608Y45313D01*
Y41313D01*
X227908Y45313D02*X225908Y41313D01*
X228408D01*
X224708Y44813D02*X224208Y45313D01*
X224708Y44813D02*Y41813D01*
X224208Y41313D01*
X223208D02*X224208D01*
X223208D02*X222708Y41813D01*
Y44813D02*Y41813D01*
X223208Y45313D02*X222708Y44813D01*
X223208Y45313D02*X224208D01*
X224708Y44313D02*X222708Y42313D01*
X221508Y41813D02*X221008Y41313D01*
X220008D02*X221008D01*
X220008D02*X219508Y41813D01*
X220008Y45313D02*X219508Y44813D01*
X220008Y45313D02*X221008D01*
X221508Y44813D02*X221008Y45313D01*
X220008Y43113D02*X221008D01*
X219508Y42613D02*Y41813D01*
Y44813D02*Y43613D01*
X220008Y43113D01*
X219508Y42613D02*X220008Y43113D01*
X200000Y229000D02*X204000D01*
Y227700D02*X203300Y227000D01*
X200700D02*X203300D01*
X200000Y227700D02*X200700Y227000D01*
X200000Y229500D02*Y227700D01*
X204000Y229500D02*Y227700D01*
X203500Y225800D02*X204000Y225300D01*
Y224300D01*
X203500Y223800D01*
X200000Y224300D02*X200500Y223800D01*
X200000Y225300D02*Y224300D01*
X200500Y225800D02*X200000Y225300D01*
X202200D02*Y224300D01*
X202700Y223800D02*X203500D01*
X200500D02*X201700D01*
X202200Y224300D01*
X202700Y223800D02*X202200Y224300D01*
X200500Y222600D02*X200000Y222100D01*
X200500Y222600D02*X203500D01*
X204000Y222100D01*
Y221100D01*
X203500Y220600D01*
X200500D02*X203500D01*
X200000Y221100D02*X200500Y220600D01*
X200000Y222100D02*Y221100D01*
X201000Y222600D02*X203000Y220600D01*
X201500Y219400D02*X204000Y217400D01*
X201500Y219400D02*Y216900D01*
X200000Y217400D02*X204000D01*
X294140Y232090D02*X298140D01*
Y230790D02*X297440Y230090D01*
X294840D02*X297440D01*
X294140Y230790D02*X294840Y230090D01*
X294140Y232590D02*Y230790D01*
X298140Y232590D02*Y230790D01*
X297640Y228890D02*X298140Y228390D01*
Y227390D01*
X297640Y226890D01*
X294140Y227390D02*X294640Y226890D01*
X294140Y228390D02*Y227390D01*
X294640Y228890D02*X294140Y228390D01*
X296340D02*Y227390D01*
X296840Y226890D02*X297640D01*
X294640D02*X295840D01*
X296340Y227390D01*
X296840Y226890D02*X296340Y227390D01*
X294640Y225690D02*X294140Y225190D01*
X294640Y225690D02*X297640D01*
X298140Y225190D01*
Y224190D01*
X297640Y223690D01*
X294640D02*X297640D01*
X294140Y224190D02*X294640Y223690D01*
X294140Y225190D02*Y224190D01*
X295140Y225690D02*X297140Y223690D01*
X297640Y222490D02*X298140Y221990D01*
Y220490D01*
X297640Y219990D01*
X296640D02*X297640D01*
X294140Y222490D02*X296640Y219990D01*
X294140Y222490D02*Y219990D01*
X313640Y221590D02*X317640D01*
Y220290D02*X316940Y219590D01*
X314340D02*X316940D01*
X313640Y220290D02*X314340Y219590D01*
X313640Y222090D02*Y220290D01*
X317640Y222090D02*Y220290D01*
X317140Y218390D02*X317640Y217890D01*
Y216890D01*
X317140Y216390D01*
X313640Y216890D02*X314140Y216390D01*
X313640Y217890D02*Y216890D01*
X314140Y218390D02*X313640Y217890D01*
X315840D02*Y216890D01*
X316340Y216390D02*X317140D01*
X314140D02*X315340D01*
X315840Y216890D01*
X316340Y216390D02*X315840Y216890D01*
X314140Y215190D02*X313640Y214690D01*
X314140Y215190D02*X317140D01*
X317640Y214690D01*
Y213690D01*
X317140Y213190D01*
X314140D02*X317140D01*
X313640Y213690D02*X314140Y213190D01*
X313640Y214690D02*Y213690D01*
X314640Y215190D02*X316640Y213190D01*
X316840Y211990D02*X317640Y211190D01*
X313640D02*X317640D01*
X313640Y211990D02*Y210490D01*
X294290Y211390D02*X298290D01*
Y210090D02*X297590Y209390D01*
X294990D02*X297590D01*
X294290Y210090D02*X294990Y209390D01*
X294290Y211890D02*Y210090D01*
X298290Y211890D02*Y210090D01*
X297790Y208190D02*X298290Y207690D01*
Y206690D01*
X297790Y206190D01*
X294290Y206690D02*X294790Y206190D01*
X294290Y207690D02*Y206690D01*
X294790Y208190D02*X294290Y207690D01*
X296490D02*Y206690D01*
X296990Y206190D02*X297790D01*
X294790D02*X295990D01*
X296490Y206690D01*
X296990Y206190D02*X296490Y206690D01*
X294790Y204990D02*X294290Y204490D01*
X294790Y204990D02*X297790D01*
X298290Y204490D01*
Y203490D01*
X297790Y202990D01*
X294790D02*X297790D01*
X294290Y203490D02*X294790Y202990D01*
X294290Y204490D02*Y203490D01*
X295290Y204990D02*X297290Y202990D01*
X294790Y201790D02*X294290Y201290D01*
X294790Y201790D02*X297790D01*
X298290Y201290D01*
Y200290D01*
X297790Y199790D01*
X294790D02*X297790D01*
X294290Y200290D02*X294790Y199790D01*
X294290Y201290D02*Y200290D01*
X295290Y201790D02*X297290Y199790D01*
X172000Y207300D02*X176000D01*
Y206000D02*X175300Y205300D01*
X172700D02*X175300D01*
X172000Y206000D02*X172700Y205300D01*
X172000Y207800D02*Y206000D01*
X176000Y207800D02*Y206000D01*
X175500Y204100D02*X176000Y203600D01*
Y202600D01*
X175500Y202100D01*
X172000Y202600D02*X172500Y202100D01*
X172000Y203600D02*Y202600D01*
X172500Y204100D02*X172000Y203600D01*
X174200D02*Y202600D01*
X174700Y202100D02*X175500D01*
X172500D02*X173700D01*
X174200Y202600D01*
X174700Y202100D02*X174200Y202600D01*
X172500Y200900D02*X172000Y200400D01*
X172500Y200900D02*X175500D01*
X176000Y200400D01*
Y199400D01*
X175500Y198900D01*
X172500D02*X175500D01*
X172000Y199400D02*X172500Y198900D01*
X172000Y200400D02*Y199400D01*
X173000Y200900D02*X175000Y198900D01*
X175500Y197700D02*X176000Y197200D01*
Y196200D01*
X175500Y195700D01*
X172000Y196200D02*X172500Y195700D01*
X172000Y197200D02*Y196200D01*
X172500Y197700D02*X172000Y197200D01*
X174200D02*Y196200D01*
X174700Y195700D02*X175500D01*
X172500D02*X173700D01*
X174200Y196200D01*
X174700Y195700D02*X174200Y196200D01*
X370456Y361612D02*X372456D01*
X371456D02*Y357612D01*
X374156Y361612D02*Y357612D01*
X373656Y361612D02*X375656D01*
X376156Y361112D01*
Y360112D01*
X375656Y359612D02*X376156Y360112D01*
X374156Y359612D02*X375656D01*
X377356Y358112D02*X377856Y357612D01*
X377356Y358912D02*Y358112D01*
Y358912D02*X378056Y359612D01*
X378656D01*
X379356Y358912D01*
Y358112D01*
X378856Y357612D02*X379356Y358112D01*
X377856Y357612D02*X378856D01*
X377356Y360312D02*X378056Y359612D01*
X377356Y361112D02*Y360312D01*
Y361112D02*X377856Y361612D01*
X378856D01*
X379356Y361112D01*
Y360312D01*
X378656Y359612D02*X379356Y360312D01*
X380556Y358112D02*X381056Y357612D01*
X380556Y361112D02*Y358112D01*
Y361112D02*X381056Y361612D01*
X382056D01*
X382556Y361112D01*
Y358112D01*
X382056Y357612D02*X382556Y358112D01*
X381056Y357612D02*X382056D01*
X380556Y358612D02*X382556Y360612D01*
X383756Y358112D02*X384256Y357612D01*
X383756Y361112D02*Y358112D01*
Y361112D02*X384256Y361612D01*
X385256D01*
X385756Y361112D01*
Y358112D01*
X385256Y357612D02*X385756Y358112D01*
X384256Y357612D02*X385256D01*
X383756Y358612D02*X385756Y360612D01*
X386956Y359612D02*X388956D01*
X390656D02*X392156D01*
X390156Y359112D02*X390656Y359612D01*
X390156Y359112D02*Y358112D01*
X390656Y357612D01*
X392156D01*
X393356Y361612D02*Y357612D01*
Y359112D02*X393856Y359612D01*
X394856D01*
X395356Y359112D01*
Y357612D01*
X398056Y359612D02*X398556Y359112D01*
X397056Y359612D02*X398056D01*
X396556Y359112D02*X397056Y359612D01*
X396556Y359112D02*Y358112D01*
X397056Y357612D01*
X398556Y359612D02*Y358112D01*
X399056Y357612D01*
X397056D02*X398056D01*
X398556Y358112D01*
X400756Y357612D02*X402256D01*
X402756Y358112D01*
X402256Y358612D02*X402756Y358112D01*
X400756Y358612D02*X402256D01*
X400256Y359112D02*X400756Y358612D01*
X400256Y359112D02*X400756Y359612D01*
X402256D01*
X402756Y359112D01*
X400256Y358112D02*X400756Y357612D01*
X404456D02*X405956D01*
X406456Y358112D01*
X405956Y358612D02*X406456Y358112D01*
X404456Y358612D02*X405956D01*
X403956Y359112D02*X404456Y358612D01*
X403956Y359112D02*X404456Y359612D01*
X405956D01*
X406456Y359112D01*
X403956Y358112D02*X404456Y357612D01*
X407656Y360612D02*Y360512D01*
Y359112D02*Y357612D01*
X409156D02*X410656D01*
X411156Y358112D01*
X410656Y358612D02*X411156Y358112D01*
X409156Y358612D02*X410656D01*
X408656Y359112D02*X409156Y358612D01*
X408656Y359112D02*X409156Y359612D01*
X410656D01*
X411156Y359112D01*
X408656Y358112D02*X409156Y357612D01*
X510257Y278185D02*X512257D01*
X512757Y277685D01*
Y276685D01*
X512257Y276185D02*X512757Y276685D01*
X510757Y276185D02*X512257D01*
X510757Y278185D02*Y274185D01*
X511557Y276185D02*X512757Y274185D01*
X513957Y278185D02*X515957D01*
X513957D02*Y276185D01*
X514457Y276685D01*
X515457D01*
X515957Y276185D01*
Y274685D01*
X515457Y274185D02*X515957Y274685D01*
X514457Y274185D02*X515457D01*
X513957Y274685D02*X514457Y274185D01*
X517157Y277385D02*X517957Y278185D01*
Y274185D01*
X517157D02*X518657D01*
X519857Y277385D02*X520657Y278185D01*
Y274185D01*
X519857D02*X521357D01*
X476269Y299650D02*X478269D01*
X478769Y299150D01*
Y298150D01*
X478269Y297650D02*X478769Y298150D01*
X476769Y297650D02*X478269D01*
X476769Y299650D02*Y295650D01*
X477569Y297650D02*X478769Y295650D01*
X479969Y299650D02*X481969D01*
X479969D02*Y297650D01*
X480469Y298150D01*
X481469D01*
X481969Y297650D01*
Y296150D01*
X481469Y295650D02*X481969Y296150D01*
X480469Y295650D02*X481469D01*
X479969Y296150D02*X480469Y295650D01*
X483169Y298850D02*X483969Y299650D01*
Y295650D01*
X483169D02*X484669D01*
X485869Y296150D02*X486369Y295650D01*
X485869Y296950D02*Y296150D01*
Y296950D02*X486569Y297650D01*
X487169D01*
X487869Y296950D01*
Y296150D01*
X487369Y295650D02*X487869Y296150D01*
X486369Y295650D02*X487369D01*
X485869Y298350D02*X486569Y297650D01*
X485869Y299150D02*Y298350D01*
Y299150D02*X486369Y299650D01*
X487369D01*
X487869Y299150D01*
Y298350D01*
X487169Y297650D02*X487869Y298350D01*
X489937Y293150D02*X491237D01*
X489237Y293850D02*X489937Y293150D01*
X489237Y296450D02*Y293850D01*
Y296450D02*X489937Y297150D01*
X491237D01*
X492437D02*X494437D01*
X492437D02*Y295150D01*
X492937Y295650D01*
X493937D01*
X494437Y295150D01*
Y293650D01*
X493937Y293150D02*X494437Y293650D01*
X492937Y293150D02*X493937D01*
X492437Y293650D02*X492937Y293150D01*
X495637Y296350D02*X496437Y297150D01*
Y293150D01*
X495637D02*X497137D01*
X498337Y296350D02*X499137Y297150D01*
Y293150D01*
X498337D02*X499837D01*
X492093Y282150D02*X493393D01*
X491393Y282850D02*X492093Y282150D01*
X491393Y285450D02*Y282850D01*
Y285450D02*X492093Y286150D01*
X493393D01*
X494593D02*X496593D01*
X494593D02*Y284150D01*
X495093Y284650D01*
X496093D01*
X496593Y284150D01*
Y282650D01*
X496093Y282150D02*X496593Y282650D01*
X495093Y282150D02*X496093D01*
X494593Y282650D02*X495093Y282150D01*
X497793Y282650D02*X498293Y282150D01*
X497793Y285650D02*Y282650D01*
Y285650D02*X498293Y286150D01*
X499293D01*
X499793Y285650D01*
Y282650D01*
X499293Y282150D02*X499793Y282650D01*
X498293Y282150D02*X499293D01*
X497793Y283150D02*X499793Y285150D01*
X501493Y282150D02*X502993Y284150D01*
Y285650D02*Y284150D01*
X502493Y286150D02*X502993Y285650D01*
X501493Y286150D02*X502493D01*
X500993Y285650D02*X501493Y286150D01*
X500993Y285650D02*Y284650D01*
X501493Y284150D01*
X502993D01*
X469645Y280150D02*X470945D01*
X468945Y280850D02*X469645Y280150D01*
X468945Y283450D02*Y280850D01*
Y283450D02*X469645Y284150D01*
X470945D01*
X472145D02*X474145D01*
X472145D02*Y282150D01*
X472645Y282650D01*
X473645D01*
X474145Y282150D01*
Y280650D01*
X473645Y280150D02*X474145Y280650D01*
X472645Y280150D02*X473645D01*
X472145Y280650D02*X472645Y280150D01*
X475345Y283350D02*X476145Y284150D01*
Y280150D01*
X475345D02*X476845D01*
X478045Y280650D02*X478545Y280150D01*
X478045Y283650D02*Y280650D01*
Y283650D02*X478545Y284150D01*
X479545D01*
X480045Y283650D01*
Y280650D01*
X479545Y280150D02*X480045Y280650D01*
X478545Y280150D02*X479545D01*
X478045Y281150D02*X480045Y283150D01*
X83500Y346000D02*X87500D01*
Y344700D02*X86800Y344000D01*
X84200D02*X86800D01*
X83500Y344700D02*X84200Y344000D01*
X83500Y346500D02*Y344700D01*
X87500Y346500D02*Y344700D01*
Y342800D02*Y340800D01*
X85500Y342800D02*X87500D01*
X85500D02*X86000Y342300D01*
Y341300D01*
X85500Y340800D01*
X84000D02*X85500D01*
X83500Y341300D02*X84000Y340800D01*
X83500Y342300D02*Y341300D01*
X84000Y342800D02*X83500Y342300D01*
X84000Y339600D02*X83500Y339100D01*
X84000Y339600D02*X87000D01*
X87500Y339100D01*
Y338100D01*
X87000Y337600D01*
X84000D02*X87000D01*
X83500Y338100D02*X84000Y337600D01*
X83500Y339100D02*Y338100D01*
X84500Y339600D02*X86500Y337600D01*
X87500Y336400D02*Y334400D01*
X85500Y336400D02*X87500D01*
X85500D02*X86000Y335900D01*
Y334900D01*
X85500Y334400D01*
X84000D02*X85500D01*
X83500Y334900D02*X84000Y334400D01*
X83500Y335900D02*Y334900D01*
X84000Y336400D02*X83500Y335900D01*
X509355Y258650D02*X511355D01*
X511855Y258150D01*
Y257150D01*
X511355Y256650D02*X511855Y257150D01*
X509855Y256650D02*X511355D01*
X509855Y258650D02*Y254650D01*
X510655Y256650D02*X511855Y254650D01*
X513055Y258650D02*X515055D01*
X513055D02*Y256650D01*
X513555Y257150D01*
X514555D01*
X515055Y256650D01*
Y255150D01*
X514555Y254650D02*X515055Y255150D01*
X513555Y254650D02*X514555D01*
X513055Y255150D02*X513555Y254650D01*
X516255Y257850D02*X517055Y258650D01*
Y254650D01*
X516255D02*X517755D01*
X519455D02*X521455Y258650D01*
X518955D02*X521455D01*
X507807Y240150D02*X509807D01*
X510307Y239650D01*
Y238650D01*
X509807Y238150D02*X510307Y238650D01*
X508307Y238150D02*X509807D01*
X508307Y240150D02*Y236150D01*
X509107Y238150D02*X510307Y236150D01*
X511507Y240150D02*X513507D01*
X511507D02*Y238150D01*
X512007Y238650D01*
X513007D01*
X513507Y238150D01*
Y236650D01*
X513007Y236150D02*X513507Y236650D01*
X512007Y236150D02*X513007D01*
X511507Y236650D02*X512007Y236150D01*
X514707Y239350D02*X515507Y240150D01*
Y236150D01*
X514707D02*X516207D01*
X518907Y240150D02*X519407Y239650D01*
X517907Y240150D02*X518907D01*
X517407Y239650D02*X517907Y240150D01*
X517407Y239650D02*Y236650D01*
X517907Y236150D01*
X518907Y238350D02*X519407Y237850D01*
X517407Y238350D02*X518907D01*
X517907Y236150D02*X518907D01*
X519407Y236650D01*
Y237850D02*Y236650D01*
X456823Y262685D02*X458123D01*
X456123Y263385D02*X456823Y262685D01*
X456123Y265985D02*Y263385D01*
Y265985D02*X456823Y266685D01*
X458123D01*
X459323D02*X461323D01*
X459323D02*Y264685D01*
X459823Y265185D01*
X460823D01*
X461323Y264685D01*
Y263185D01*
X460823Y262685D02*X461323Y263185D01*
X459823Y262685D02*X460823D01*
X459323Y263185D02*X459823Y262685D01*
X462523Y263185D02*X463023Y262685D01*
X462523Y266185D02*Y263185D01*
Y266185D02*X463023Y266685D01*
X464023D01*
X464523Y266185D01*
Y263185D01*
X464023Y262685D02*X464523Y263185D01*
X463023Y262685D02*X464023D01*
X462523Y263685D02*X464523Y265685D01*
X465723Y266185D02*X466223Y266685D01*
X467723D01*
X468223Y266185D01*
Y265185D01*
X465723Y262685D02*X468223Y265185D01*
X465723Y262685D02*X468223D01*
X489122Y250500D02*Y247000D01*
X489622Y246500D01*
X490622D01*
X491122Y247000D01*
Y250500D02*Y247000D01*
X492322Y250500D02*X494322D01*
X492322D02*Y248500D01*
X492822Y249000D01*
X493822D01*
X494322Y248500D01*
Y247000D01*
X493822Y246500D02*X494322Y247000D01*
X492822Y246500D02*X493822D01*
X492322Y247000D02*X492822Y246500D01*
X495522Y247000D02*X496022Y246500D01*
X495522Y250000D02*Y247000D01*
Y250000D02*X496022Y250500D01*
X497022D01*
X497522Y250000D01*
Y247000D01*
X497022Y246500D02*X497522Y247000D01*
X496022Y246500D02*X497022D01*
X495522Y247500D02*X497522Y249500D01*
X498722Y250000D02*X499222Y250500D01*
X500722D01*
X501222Y250000D01*
Y249000D01*
X498722Y246500D02*X501222Y249000D01*
X498722Y246500D02*X501222D01*
X488941Y248650D02*X490941D01*
X491441Y248150D01*
Y247150D01*
X490941Y246650D02*X491441Y247150D01*
X489441Y246650D02*X490941D01*
X489441Y248650D02*Y244650D01*
X490241Y246650D02*X491441Y244650D01*
X492641Y248650D02*X494641D01*
X492641D02*Y246650D01*
X493141Y247150D01*
X494141D01*
X494641Y246650D01*
Y245150D01*
X494141Y244650D02*X494641Y245150D01*
X493141Y244650D02*X494141D01*
X492641Y245150D02*X493141Y244650D01*
X495841Y248150D02*X496341Y248650D01*
X497841D01*
X498341Y248150D01*
Y247150D01*
X495841Y244650D02*X498341Y247150D01*
X495841Y244650D02*X498341D01*
X499541Y245150D02*X500041Y244650D01*
X499541Y248150D02*Y245150D01*
Y248150D02*X500041Y248650D01*
X501041D01*
X501541Y248150D01*
Y245150D01*
X501041Y244650D02*X501541Y245150D01*
X500041Y244650D02*X501041D01*
X499541Y245650D02*X501541Y247650D01*
X472455Y248871D02*X473755D01*
X471755Y249571D02*X472455Y248871D01*
X471755Y252171D02*Y249571D01*
Y252171D02*X472455Y252871D01*
X473755D01*
X474955D02*X476955D01*
X474955D02*Y250871D01*
X475455Y251371D01*
X476455D01*
X476955Y250871D01*
Y249371D01*
X476455Y248871D02*X476955Y249371D01*
X475455Y248871D02*X476455D01*
X474955Y249371D02*X475455Y248871D01*
X478155Y252071D02*X478955Y252871D01*
Y248871D01*
X478155D02*X479655D01*
X480855Y252371D02*X481355Y252871D01*
X482855D01*
X483355Y252371D01*
Y251371D01*
X480855Y248871D02*X483355Y251371D01*
X480855Y248871D02*X483355D01*
X453455Y186150D02*X454755D01*
X452755Y186850D02*X453455Y186150D01*
X452755Y189450D02*Y186850D01*
Y189450D02*X453455Y190150D01*
X454755D01*
X455955D02*X457955D01*
X455955D02*Y188150D01*
X456455Y188650D01*
X457455D01*
X457955Y188150D01*
Y186650D01*
X457455Y186150D02*X457955Y186650D01*
X456455Y186150D02*X457455D01*
X455955Y186650D02*X456455Y186150D01*
X459155Y186650D02*X459655Y186150D01*
X459155Y189650D02*Y186650D01*
Y189650D02*X459655Y190150D01*
X460655D01*
X461155Y189650D01*
Y186650D01*
X460655Y186150D02*X461155Y186650D01*
X459655Y186150D02*X460655D01*
X459155Y187150D02*X461155Y189150D01*
X462855Y186150D02*X464855Y190150D01*
X462355D02*X464855D01*
X467355Y172650D02*X469355D01*
X469855Y172150D01*
Y171150D01*
X469355Y170650D02*X469855Y171150D01*
X467855Y170650D02*X469355D01*
X467855Y172650D02*Y168650D01*
X468655Y170650D02*X469855Y168650D01*
X471055Y172650D02*X473055D01*
X471055D02*Y170650D01*
X471555Y171150D01*
X472555D01*
X473055Y170650D01*
Y169150D01*
X472555Y168650D02*X473055Y169150D01*
X471555Y168650D02*X472555D01*
X471055Y169150D02*X471555Y168650D01*
X474255Y171850D02*X475055Y172650D01*
Y168650D01*
X474255D02*X475755D01*
X476955Y170150D02*X478955Y172650D01*
X476955Y170150D02*X479455D01*
X478955Y172650D02*Y168650D01*
X491769Y162150D02*X493769D01*
X494269Y161650D01*
Y160650D01*
X493769Y160150D02*X494269Y160650D01*
X492269Y160150D02*X493769D01*
X492269Y162150D02*Y158150D01*
X493069Y160150D02*X494269Y158150D01*
X495469Y162150D02*X497469D01*
X495469D02*Y160150D01*
X495969Y160650D01*
X496969D01*
X497469Y160150D01*
Y158650D01*
X496969Y158150D02*X497469Y158650D01*
X495969Y158150D02*X496969D01*
X495469Y158650D02*X495969Y158150D01*
X498669Y161350D02*X499469Y162150D01*
Y158150D01*
X498669D02*X500169D01*
X501369Y161650D02*X501869Y162150D01*
X503369D01*
X503869Y161650D01*
Y160650D01*
X501369Y158150D02*X503869Y160650D01*
X501369Y158150D02*X503869D01*
X508355Y197650D02*X510355D01*
X510855Y197150D01*
Y196150D01*
X510355Y195650D02*X510855Y196150D01*
X508855Y195650D02*X510355D01*
X508855Y197650D02*Y193650D01*
X509655Y195650D02*X510855Y193650D01*
X512055Y197650D02*X514055D01*
X512055D02*Y195650D01*
X512555Y196150D01*
X513555D01*
X514055Y195650D01*
Y194150D01*
X513555Y193650D02*X514055Y194150D01*
X512555Y193650D02*X513555D01*
X512055Y194150D02*X512555Y193650D01*
X515255Y194150D02*X515755Y193650D01*
X515255Y197150D02*Y194150D01*
Y197150D02*X515755Y197650D01*
X516755D01*
X517255Y197150D01*
Y194150D01*
X516755Y193650D02*X517255Y194150D01*
X515755Y193650D02*X516755D01*
X515255Y194650D02*X517255Y196650D01*
X518455Y196850D02*X519255Y197650D01*
Y193650D01*
X518455D02*X519955D01*
X499055Y194650D02*X500355D01*
X498355Y195350D02*X499055Y194650D01*
X498355Y197950D02*Y195350D01*
Y197950D02*X499055Y198650D01*
X500355D01*
X501555D02*X503555D01*
X501555D02*Y196650D01*
X502055Y197150D01*
X503055D01*
X503555Y196650D01*
Y195150D01*
X503055Y194650D02*X503555Y195150D01*
X502055Y194650D02*X503055D01*
X501555Y195150D02*X502055Y194650D01*
X504755Y195150D02*X505255Y194650D01*
X504755Y198150D02*Y195150D01*
Y198150D02*X505255Y198650D01*
X506255D01*
X506755Y198150D01*
Y195150D01*
X506255Y194650D02*X506755Y195150D01*
X505255Y194650D02*X506255D01*
X504755Y195650D02*X506755Y197650D01*
X507955Y197850D02*X508755Y198650D01*
Y194650D01*
X507955D02*X509455D01*
X498307Y221150D02*X500307D01*
X500807Y220650D01*
Y219650D01*
X500307Y219150D02*X500807Y219650D01*
X498807Y219150D02*X500307D01*
X498807Y221150D02*Y217150D01*
X499607Y219150D02*X500807Y217150D01*
X502007Y221150D02*X504007D01*
X502007D02*Y219150D01*
X502507Y219650D01*
X503507D01*
X504007Y219150D01*
Y217650D01*
X503507Y217150D02*X504007Y217650D01*
X502507Y217150D02*X503507D01*
X502007Y217650D02*X502507Y217150D01*
X505207Y217650D02*X505707Y217150D01*
X505207Y220650D02*Y217650D01*
Y220650D02*X505707Y221150D01*
X506707D01*
X507207Y220650D01*
Y217650D01*
X506707Y217150D02*X507207Y217650D01*
X505707Y217150D02*X506707D01*
X505207Y218150D02*X507207Y220150D01*
X509907Y221150D02*X510407Y220650D01*
X508907Y221150D02*X509907D01*
X508407Y220650D02*X508907Y221150D01*
X508407Y220650D02*Y217650D01*
X508907Y217150D01*
X509907Y219350D02*X510407Y218850D01*
X508407Y219350D02*X509907D01*
X508907Y217150D02*X509907D01*
X510407Y217650D01*
Y218850D02*Y217650D01*
X477769Y239650D02*X479769D01*
X480269Y239150D01*
Y238150D01*
X479769Y237650D02*X480269Y238150D01*
X478269Y237650D02*X479769D01*
X478269Y239650D02*Y235650D01*
X479069Y237650D02*X480269Y235650D01*
X481469Y239650D02*X483469D01*
X481469D02*Y237650D01*
X481969Y238150D01*
X482969D01*
X483469Y237650D01*
Y236150D01*
X482969Y235650D02*X483469Y236150D01*
X481969Y235650D02*X482969D01*
X481469Y236150D02*X481969Y235650D01*
X484669Y238850D02*X485469Y239650D01*
Y235650D01*
X484669D02*X486169D01*
X487869D02*X489369Y237650D01*
Y239150D02*Y237650D01*
X488869Y239650D02*X489369Y239150D01*
X487869Y239650D02*X488869D01*
X487369Y239150D02*X487869Y239650D01*
X487369Y239150D02*Y238150D01*
X487869Y237650D01*
X489369D01*
X485807Y214150D02*X487807D01*
X488307Y213650D01*
Y212650D01*
X487807Y212150D02*X488307Y212650D01*
X486307Y212150D02*X487807D01*
X486307Y214150D02*Y210150D01*
X487107Y212150D02*X488307Y210150D01*
X489507Y214150D02*X491507D01*
X489507D02*Y212150D01*
X490007Y212650D01*
X491007D01*
X491507Y212150D01*
Y210650D01*
X491007Y210150D02*X491507Y210650D01*
X490007Y210150D02*X491007D01*
X489507Y210650D02*X490007Y210150D01*
X492707Y210650D02*X493207Y210150D01*
X492707Y213650D02*Y210650D01*
Y213650D02*X493207Y214150D01*
X494207D01*
X494707Y213650D01*
Y210650D01*
X494207Y210150D02*X494707Y210650D01*
X493207Y210150D02*X494207D01*
X492707Y211150D02*X494707Y213150D01*
X495907Y214150D02*X497907D01*
X495907D02*Y212150D01*
X496407Y212650D01*
X497407D01*
X497907Y212150D01*
Y210650D01*
X497407Y210150D02*X497907Y210650D01*
X496407Y210150D02*X497407D01*
X495907Y210650D02*X496407Y210150D01*
X485941Y226650D02*X487941D01*
X488441Y226150D01*
Y225150D01*
X487941Y224650D02*X488441Y225150D01*
X486441Y224650D02*X487941D01*
X486441Y226650D02*Y222650D01*
X487241Y224650D02*X488441Y222650D01*
X489641Y226650D02*X491641D01*
X489641D02*Y224650D01*
X490141Y225150D01*
X491141D01*
X491641Y224650D01*
Y223150D01*
X491141Y222650D02*X491641Y223150D01*
X490141Y222650D02*X491141D01*
X489641Y223150D02*X490141Y222650D01*
X492841Y225850D02*X493641Y226650D01*
Y222650D01*
X492841D02*X494341D01*
X495541Y226650D02*X497541D01*
X495541D02*Y224650D01*
X496041Y225150D01*
X497041D01*
X497541Y224650D01*
Y223150D01*
X497041Y222650D02*X497541Y223150D01*
X496041Y222650D02*X497041D01*
X495541Y223150D02*X496041Y222650D01*
X469355Y218650D02*X471355D01*
X471855Y218150D01*
Y217150D01*
X471355Y216650D02*X471855Y217150D01*
X469855Y216650D02*X471355D01*
X469855Y218650D02*Y214650D01*
X470655Y216650D02*X471855Y214650D01*
X473055Y218650D02*X475055D01*
X473055D02*Y216650D01*
X473555Y217150D01*
X474555D01*
X475055Y216650D01*
Y215150D01*
X474555Y214650D02*X475055Y215150D01*
X473555Y214650D02*X474555D01*
X473055Y215150D02*X473555Y214650D01*
X476255Y215150D02*X476755Y214650D01*
X476255Y218150D02*Y215150D01*
Y218150D02*X476755Y218650D01*
X477755D01*
X478255Y218150D01*
Y215150D01*
X477755Y214650D02*X478255Y215150D01*
X476755Y214650D02*X477755D01*
X476255Y215650D02*X478255Y217650D01*
X479455Y218150D02*X479955Y218650D01*
X480955D01*
X481455Y218150D01*
X480955Y214650D02*X481455Y215150D01*
X479955Y214650D02*X480955D01*
X479455Y215150D02*X479955Y214650D01*
Y216850D02*X480955D01*
X481455Y218150D02*Y217350D01*
Y216350D02*Y215150D01*
Y216350D02*X480955Y216850D01*
X481455Y217350D02*X480955Y216850D01*
X482307Y203150D02*X484307D01*
X484807Y202650D01*
Y201650D01*
X484307Y201150D02*X484807Y201650D01*
X482807Y201150D02*X484307D01*
X482807Y203150D02*Y199150D01*
X483607Y201150D02*X484807Y199150D01*
X486007Y203150D02*X488007D01*
X486007D02*Y201150D01*
X486507Y201650D01*
X487507D01*
X488007Y201150D01*
Y199650D01*
X487507Y199150D02*X488007Y199650D01*
X486507Y199150D02*X487507D01*
X486007Y199650D02*X486507Y199150D01*
X489207Y199650D02*X489707Y199150D01*
X489207Y202650D02*Y199650D01*
Y202650D02*X489707Y203150D01*
X490707D01*
X491207Y202650D01*
Y199650D01*
X490707Y199150D02*X491207Y199650D01*
X489707Y199150D02*X490707D01*
X489207Y200150D02*X491207Y202150D01*
X492407Y200650D02*X494407Y203150D01*
X492407Y200650D02*X494907D01*
X494407Y203150D02*Y199150D01*
X219910Y143740D02*X220410Y143240D01*
X218410Y143740D02*X219910D01*
X217910Y143240D02*X218410Y143740D01*
X217910Y143240D02*Y142240D01*
X218410Y141740D01*
X219910D01*
X220410Y141240D01*
Y140240D01*
X219910Y139740D02*X220410Y140240D01*
X218410Y139740D02*X219910D01*
X217910Y140240D02*X218410Y139740D01*
X222310D02*X223610D01*
X221610Y140440D02*X222310Y139740D01*
X221610Y143040D02*Y140440D01*
Y143040D02*X222310Y143740D01*
X223610D01*
X224810D02*X226810D01*
X227310Y143240D01*
Y142240D01*
X226810Y141740D02*X227310Y142240D01*
X225310Y141740D02*X226810D01*
X225310Y143740D02*Y139740D01*
X226110Y141740D02*X227310Y139740D01*
X228510Y141940D02*X230010D01*
X228510Y139740D02*X230510D01*
X228510Y143740D02*Y139740D01*
Y143740D02*X230510D01*
X231710D02*Y141740D01*
X232210Y139740D01*
X233210Y141740D01*
X234210Y139740D01*
X234710Y141740D01*
Y143740D02*Y141740D01*
X235910Y141240D02*X237910Y143740D01*
X235910Y141240D02*X238410D01*
X237910Y143740D02*Y139740D01*
X239610Y141740D02*X241610D01*
X242810Y141240D02*X244810Y143740D01*
X242810Y141240D02*X245310D01*
X244810Y143740D02*Y139740D01*
X246510Y140240D02*X247010Y139740D01*
X246510Y143240D02*Y140240D01*
Y143240D02*X247010Y143740D01*
X248010D01*
X248510Y143240D01*
Y140240D01*
X248010Y139740D02*X248510Y140240D01*
X247010Y139740D02*X248010D01*
X246510Y140740D02*X248510Y142740D01*
X249710Y139740D02*X251710D01*
X252910Y142940D02*X253710Y143740D01*
Y139740D01*
X252910D02*X254410D01*
X267260Y98890D02*X269260D01*
X269760Y98390D01*
Y97390D01*
X269260Y96890D02*X269760Y97390D01*
X267760Y96890D02*X269260D01*
X267760Y98890D02*Y94890D01*
X268560Y96890D02*X269760Y94890D01*
X271460D02*X273460Y98890D01*
X270960D02*X273460D01*
X274660Y95390D02*X275160Y94890D01*
X274660Y98390D02*Y95390D01*
Y98390D02*X275160Y98890D01*
X276160D01*
X276660Y98390D01*
Y95390D01*
X276160Y94890D02*X276660Y95390D01*
X275160Y94890D02*X276160D01*
X274660Y95890D02*X276660Y97890D01*
X277860Y98090D02*X278660Y98890D01*
Y94890D01*
X277860D02*X279360D01*
X286260Y98890D02*X288260D01*
X288760Y98390D01*
Y97390D01*
X288260Y96890D02*X288760Y97390D01*
X286760Y96890D02*X288260D01*
X286760Y98890D02*Y94890D01*
X287560Y96890D02*X288760Y94890D01*
X290460D02*X292460Y98890D01*
X289960D02*X292460D01*
X293660Y95390D02*X294160Y94890D01*
X293660Y98390D02*Y95390D01*
Y98390D02*X294160Y98890D01*
X295160D01*
X295660Y98390D01*
Y95390D01*
X295160Y94890D02*X295660Y95390D01*
X294160Y94890D02*X295160D01*
X293660Y95890D02*X295660Y97890D01*
X296860Y96390D02*X298860Y98890D01*
X296860Y96390D02*X299360D01*
X298860Y98890D02*Y94890D01*
X287500Y124800D02*X291500D01*
Y123500D02*X290800Y122800D01*
X288200D02*X290800D01*
X287500Y123500D02*X288200Y122800D01*
X287500Y125300D02*Y123500D01*
X291500Y125300D02*Y123500D01*
X291000Y121600D02*X291500Y121100D01*
Y120100D01*
X291000Y119600D01*
X287500Y120100D02*X288000Y119600D01*
X287500Y121100D02*Y120100D01*
X288000Y121600D02*X287500Y121100D01*
X289700D02*Y120100D01*
X290200Y119600D02*X291000D01*
X288000D02*X289200D01*
X289700Y120100D01*
X290200Y119600D02*X289700Y120100D01*
X288000Y118400D02*X287500Y117900D01*
X288000Y118400D02*X291000D01*
X291500Y117900D01*
Y116900D01*
X291000Y116400D01*
X288000D02*X291000D01*
X287500Y116900D02*X288000Y116400D01*
X287500Y117900D02*Y116900D01*
X288500Y118400D02*X290500Y116400D01*
X291500Y113700D02*X291000Y113200D01*
X291500Y114700D02*Y113700D01*
X291000Y115200D02*X291500Y114700D01*
X288000Y115200D02*X291000D01*
X288000D02*X287500Y114700D01*
X289700Y113700D02*X289200Y113200D01*
X289700Y115200D02*Y113700D01*
X287500Y114700D02*Y113700D01*
X288000Y113200D01*
X289200D01*
X308000Y124800D02*X312000D01*
Y123500D02*X311300Y122800D01*
X308700D02*X311300D01*
X308000Y123500D02*X308700Y122800D01*
X308000Y125300D02*Y123500D01*
X312000Y125300D02*Y123500D01*
X311500Y121600D02*X312000Y121100D01*
Y120100D01*
X311500Y119600D01*
X308000Y120100D02*X308500Y119600D01*
X308000Y121100D02*Y120100D01*
X308500Y121600D02*X308000Y121100D01*
X310200D02*Y120100D01*
X310700Y119600D02*X311500D01*
X308500D02*X309700D01*
X310200Y120100D01*
X310700Y119600D02*X310200Y120100D01*
X308500Y118400D02*X308000Y117900D01*
X308500Y118400D02*X311500D01*
X312000Y117900D01*
Y116900D01*
X311500Y116400D01*
X308500D02*X311500D01*
X308000Y116900D02*X308500Y116400D01*
X308000Y117900D02*Y116900D01*
X309000Y118400D02*X311000Y116400D01*
X312000Y115200D02*Y113200D01*
X310000Y115200D02*X312000D01*
X310000D02*X310500Y114700D01*
Y113700D01*
X310000Y113200D01*
X308500D02*X310000D01*
X308000Y113700D02*X308500Y113200D01*
X308000Y114700D02*Y113700D01*
X308500Y115200D02*X308000Y114700D01*
X506393Y150150D02*X508393D01*
X508893Y149650D01*
Y148650D01*
X508393Y148150D02*X508893Y148650D01*
X506893Y148150D02*X508393D01*
X506893Y150150D02*Y146150D01*
X507693Y148150D02*X508893Y146150D01*
X510093Y150150D02*X512093D01*
X510093D02*Y148150D01*
X510593Y148650D01*
X511593D01*
X512093Y148150D01*
Y146650D01*
X511593Y146150D02*X512093Y146650D01*
X510593Y146150D02*X511593D01*
X510093Y146650D02*X510593Y146150D01*
X513293Y146650D02*X513793Y146150D01*
X513293Y149650D02*Y146650D01*
Y149650D02*X513793Y150150D01*
X514793D01*
X515293Y149650D01*
Y146650D01*
X514793Y146150D02*X515293Y146650D01*
X513793Y146150D02*X514793D01*
X513293Y147150D02*X515293Y149150D01*
X516993Y146150D02*X518493Y148150D01*
Y149650D02*Y148150D01*
X517993Y150150D02*X518493Y149650D01*
X516993Y150150D02*X517993D01*
X516493Y149650D02*X516993Y150150D01*
X516493Y149650D02*Y148650D01*
X516993Y148150D01*
X518493D01*
X509040Y77360D02*X513040D01*
Y76060D02*X512340Y75360D01*
X509740D02*X512340D01*
X509040Y76060D02*X509740Y75360D01*
X509040Y77860D02*Y76060D01*
X513040Y77860D02*Y76060D01*
Y74160D02*Y72160D01*
X511040Y74160D02*X513040D01*
X511040D02*X511540Y73660D01*
Y72660D01*
X511040Y72160D01*
X509540D02*X511040D01*
X509040Y72660D02*X509540Y72160D01*
X509040Y73660D02*Y72660D01*
X509540Y74160D02*X509040Y73660D01*
X509540Y70960D02*X509040Y70460D01*
X509540Y70960D02*X512540D01*
X513040Y70460D01*
Y69460D01*
X512540Y68960D01*
X509540D02*X512540D01*
X509040Y69460D02*X509540Y68960D01*
X509040Y70460D02*Y69460D01*
X510040Y70960D02*X512040Y68960D01*
X512240Y67760D02*X513040Y66960D01*
X509040D02*X513040D01*
X509040Y67760D02*Y66260D01*
X497500Y156500D02*Y153000D01*
X498000Y152500D01*
X499000D01*
X499500Y153000D01*
Y156500D02*Y153000D01*
X500700Y156500D02*X502700D01*
X500700D02*Y154500D01*
X501200Y155000D01*
X502200D01*
X502700Y154500D01*
Y153000D01*
X502200Y152500D02*X502700Y153000D01*
X501200Y152500D02*X502200D01*
X500700Y153000D02*X501200Y152500D01*
X503900Y153000D02*X504400Y152500D01*
X503900Y156000D02*Y153000D01*
Y156000D02*X504400Y156500D01*
X505400D01*
X505900Y156000D01*
Y153000D01*
X505400Y152500D02*X505900Y153000D01*
X504400Y152500D02*X505400D01*
X503900Y153500D02*X505900Y155500D01*
X507100Y155700D02*X507900Y156500D01*
Y152500D01*
X507100D02*X508600D01*
X491609Y128650D02*X492909D01*
X490909Y129350D02*X491609Y128650D01*
X490909Y131950D02*Y129350D01*
Y131950D02*X491609Y132650D01*
X492909D01*
X494109D02*X496109D01*
X494109D02*Y130650D01*
X494609Y131150D01*
X495609D01*
X496109Y130650D01*
Y129150D01*
X495609Y128650D02*X496109Y129150D01*
X494609Y128650D02*X495609D01*
X494109Y129150D02*X494609Y128650D01*
X497309Y129150D02*X497809Y128650D01*
X497309Y132150D02*Y129150D01*
Y132150D02*X497809Y132650D01*
X498809D01*
X499309Y132150D01*
Y129150D01*
X498809Y128650D02*X499309Y129150D01*
X497809Y128650D02*X498809D01*
X497309Y129650D02*X499309Y131650D01*
X500509Y130150D02*X502509Y132650D01*
X500509Y130150D02*X503009D01*
X502509Y132650D02*Y128650D01*
X494355Y145650D02*X496355D01*
X496855Y145150D01*
Y144150D01*
X496355Y143650D02*X496855Y144150D01*
X494855Y143650D02*X496355D01*
X494855Y145650D02*Y141650D01*
X495655Y143650D02*X496855Y141650D01*
X498055Y145650D02*X500055D01*
X498055D02*Y143650D01*
X498555Y144150D01*
X499555D01*
X500055Y143650D01*
Y142150D01*
X499555Y141650D02*X500055Y142150D01*
X498555Y141650D02*X499555D01*
X498055Y142150D02*X498555Y141650D01*
X501255Y142150D02*X501755Y141650D01*
X501255Y145150D02*Y142150D01*
Y145150D02*X501755Y145650D01*
X502755D01*
X503255Y145150D01*
Y142150D01*
X502755Y141650D02*X503255Y142150D01*
X501755Y141650D02*X502755D01*
X501255Y142650D02*X503255Y144650D01*
X504455Y142150D02*X504955Y141650D01*
X504455Y142950D02*Y142150D01*
Y142950D02*X505155Y143650D01*
X505755D01*
X506455Y142950D01*
Y142150D01*
X505955Y141650D02*X506455Y142150D01*
X504955Y141650D02*X505955D01*
X504455Y144350D02*X505155Y143650D01*
X504455Y145150D02*Y144350D01*
Y145150D02*X504955Y145650D01*
X505955D01*
X506455Y145150D01*
Y144350D01*
X505755Y143650D02*X506455Y144350D01*
X473269Y159650D02*X475269D01*
X475769Y159150D01*
Y158150D01*
X475269Y157650D02*X475769Y158150D01*
X473769Y157650D02*X475269D01*
X473769Y159650D02*Y155650D01*
X474569Y157650D02*X475769Y155650D01*
X476969Y159650D02*X478969D01*
X476969D02*Y157650D01*
X477469Y158150D01*
X478469D01*
X478969Y157650D01*
Y156150D01*
X478469Y155650D02*X478969Y156150D01*
X477469Y155650D02*X478469D01*
X476969Y156150D02*X477469Y155650D01*
X480169Y158850D02*X480969Y159650D01*
Y155650D01*
X480169D02*X481669D01*
X482869Y159150D02*X483369Y159650D01*
X484369D01*
X484869Y159150D01*
X484369Y155650D02*X484869Y156150D01*
X483369Y155650D02*X484369D01*
X482869Y156150D02*X483369Y155650D01*
Y157850D02*X484369D01*
X484869Y159150D02*Y158350D01*
Y157350D02*Y156150D01*
Y157350D02*X484369Y157850D01*
X484869Y158350D02*X484369Y157850D01*
X474355Y133150D02*X476355D01*
X476855Y132650D01*
Y131650D01*
X476355Y131150D02*X476855Y131650D01*
X474855Y131150D02*X476355D01*
X474855Y133150D02*Y129150D01*
X475655Y131150D02*X476855Y129150D01*
X478055Y133150D02*X480055D01*
X478055D02*Y131150D01*
X478555Y131650D01*
X479555D01*
X480055Y131150D01*
Y129650D01*
X479555Y129150D02*X480055Y129650D01*
X478555Y129150D02*X479555D01*
X478055Y129650D02*X478555Y129150D01*
X481255Y129650D02*X481755Y129150D01*
X481255Y132650D02*Y129650D01*
Y132650D02*X481755Y133150D01*
X482755D01*
X483255Y132650D01*
Y129650D01*
X482755Y129150D02*X483255Y129650D01*
X481755Y129150D02*X482755D01*
X481255Y130150D02*X483255Y132150D01*
X484455Y132650D02*X484955Y133150D01*
X486455D01*
X486955Y132650D01*
Y131650D01*
X484455Y129150D02*X486955Y131650D01*
X484455Y129150D02*X486955D01*
X477307Y145650D02*X479307D01*
X479807Y145150D01*
Y144150D01*
X479307Y143650D02*X479807Y144150D01*
X477807Y143650D02*X479307D01*
X477807Y145650D02*Y141650D01*
X478607Y143650D02*X479807Y141650D01*
X481007Y145650D02*X483007D01*
X481007D02*Y143650D01*
X481507Y144150D01*
X482507D01*
X483007Y143650D01*
Y142150D01*
X482507Y141650D02*X483007Y142150D01*
X481507Y141650D02*X482507D01*
X481007Y142150D02*X481507Y141650D01*
X484207Y142150D02*X484707Y141650D01*
X484207Y145150D02*Y142150D01*
Y145150D02*X484707Y145650D01*
X485707D01*
X486207Y145150D01*
Y142150D01*
X485707Y141650D02*X486207Y142150D01*
X484707Y141650D02*X485707D01*
X484207Y142650D02*X486207Y144650D01*
X487907Y141650D02*X489907Y145650D01*
X487407D02*X489907D01*
X479066Y104707D02*X480366D01*
X478366Y105407D02*X479066Y104707D01*
X478366Y108007D02*Y105407D01*
Y108007D02*X479066Y108707D01*
X480366D01*
X481566D02*X483566D01*
X481566D02*Y106707D01*
X482066Y107207D01*
X483066D01*
X483566Y106707D01*
Y105207D01*
X483066Y104707D02*X483566Y105207D01*
X482066Y104707D02*X483066D01*
X481566Y105207D02*X482066Y104707D01*
X484766Y105207D02*X485266Y104707D01*
X484766Y108207D02*Y105207D01*
Y108207D02*X485266Y108707D01*
X486266D01*
X486766Y108207D01*
Y105207D01*
X486266Y104707D02*X486766Y105207D01*
X485266Y104707D02*X486266D01*
X484766Y105707D02*X486766Y107707D01*
X487966Y108207D02*X488466Y108707D01*
X489466D01*
X489966Y108207D01*
X489466Y104707D02*X489966Y105207D01*
X488466Y104707D02*X489466D01*
X487966Y105207D02*X488466Y104707D01*
Y106907D02*X489466D01*
X489966Y108207D02*Y107407D01*
Y106407D02*Y105207D01*
Y106407D02*X489466Y106907D01*
X489966Y107407D02*X489466Y106907D01*
X486955Y113650D02*X488255D01*
X486255Y114350D02*X486955Y113650D01*
X486255Y116950D02*Y114350D01*
Y116950D02*X486955Y117650D01*
X488255D01*
X489455D02*X491455D01*
X489455D02*Y115650D01*
X489955Y116150D01*
X490955D01*
X491455Y115650D01*
Y114150D01*
X490955Y113650D02*X491455Y114150D01*
X489955Y113650D02*X490955D01*
X489455Y114150D02*X489955Y113650D01*
X492655Y114150D02*X493155Y113650D01*
X492655Y117150D02*Y114150D01*
Y117150D02*X493155Y117650D01*
X494155D01*
X494655Y117150D01*
Y114150D01*
X494155Y113650D02*X494655Y114150D01*
X493155Y113650D02*X494155D01*
X492655Y114650D02*X494655Y116650D01*
X495855Y114150D02*X496355Y113650D01*
X495855Y114950D02*Y114150D01*
Y114950D02*X496555Y115650D01*
X497155D01*
X497855Y114950D01*
Y114150D01*
X497355Y113650D02*X497855Y114150D01*
X496355Y113650D02*X497355D01*
X495855Y116350D02*X496555Y115650D01*
X495855Y117150D02*Y116350D01*
Y117150D02*X496355Y117650D01*
X497355D01*
X497855Y117150D01*
Y116350D01*
X497155Y115650D02*X497855Y116350D01*
X517000Y87400D02*X519000D01*
X519500Y87900D01*
Y89100D02*Y87900D01*
X519000Y89600D02*X519500Y89100D01*
X517500Y89600D02*X519000D01*
X517500Y91400D02*Y87400D01*
X517000Y91400D02*X519000D01*
X519500Y90900D01*
Y90100D01*
X519000Y89600D02*X519500Y90100D01*
X520700Y91400D02*X522700D01*
X520700D02*Y89400D01*
X521200Y89900D01*
X522200D01*
X522700Y89400D01*
Y87900D01*
X522200Y87400D02*X522700Y87900D01*
X521200Y87400D02*X522200D01*
X520700Y87900D02*X521200Y87400D01*
X523900Y87900D02*X524400Y87400D01*
X523900Y90900D02*Y87900D01*
Y90900D02*X524400Y91400D01*
X525400D01*
X525900Y90900D01*
Y87900D01*
X525400Y87400D02*X525900Y87900D01*
X524400Y87400D02*X525400D01*
X523900Y88400D02*X525900Y90400D01*
X527100Y87900D02*X527600Y87400D01*
X527100Y90900D02*Y87900D01*
Y90900D02*X527600Y91400D01*
X528600D01*
X529100Y90900D01*
Y87900D01*
X528600Y87400D02*X529100Y87900D01*
X527600Y87400D02*X528600D01*
X527100Y88400D02*X529100Y90400D01*
X430910Y71940D02*X431410Y72440D01*
X430910Y71940D02*Y70440D01*
X431410Y69940D02*X430910Y70440D01*
X431410Y69940D02*X432410D01*
X432910Y70440D01*
Y71940D02*Y70440D01*
Y71940D02*X433410Y72440D01*
X434410D01*
X434910Y71940D02*X434410Y72440D01*
X434910Y71940D02*Y70440D01*
X434410Y69940D02*X434910Y70440D01*
X432710Y75140D02*Y73640D01*
X434910Y75640D02*Y73640D01*
X430910D02*X434910D01*
X430910Y75640D02*Y73640D01*
Y78840D02*Y76840D01*
Y78840D02*X431410Y79340D01*
X432410D01*
X432910Y78840D02*X432410Y79340D01*
X432910Y78840D02*Y77340D01*
X430910D02*X434910D01*
X432910Y78140D02*X434910Y79340D01*
X430910Y81040D02*X434910D01*
X430910Y82540D02*Y80540D01*
Y82540D02*X431410Y83040D01*
X432410D01*
X432910Y82540D02*X432410Y83040D01*
X432910Y82540D02*Y81040D01*
X431910Y84240D02*X434910D01*
X431910D02*X430910Y84940D01*
Y86040D02*Y84940D01*
Y86040D02*X431910Y86740D01*
X434910D01*
X432910D02*Y84240D01*
X434910Y89940D02*Y88640D01*
X434210Y87940D02*X434910Y88640D01*
X431610Y87940D02*X434210D01*
X431610D02*X430910Y88640D01*
Y89940D02*Y88640D01*
X434410Y91140D02*X434910Y91640D01*
X431410Y91140D02*X434410D01*
X431410D02*X430910Y91640D01*
Y92640D02*Y91640D01*
Y92640D02*X431410Y93140D01*
X434410D01*
X434910Y92640D02*X434410Y93140D01*
X434910Y92640D02*Y91640D01*
X433910Y91140D02*X431910Y93140D01*
X431410Y94340D02*X430910Y94840D01*
Y95840D02*Y94840D01*
Y95840D02*X431410Y96340D01*
X434910Y95840D02*X434410Y96340D01*
X434910Y95840D02*Y94840D01*
X434410Y94340D02*X434910Y94840D01*
X432710Y95840D02*Y94840D01*
X431410Y96340D02*X432210D01*
X433210D02*X434410D01*
X433210D02*X432710Y95840D01*
X432210Y96340D02*X432710Y95840D01*
X431710Y97540D02*X430910Y98340D01*
X434910D01*
Y99040D02*Y97540D01*
X430910Y101240D02*Y100240D01*
Y100740D02*X434910D01*
Y101240D02*Y100240D01*
X430910Y104440D02*X431410Y104940D01*
X430910Y104440D02*Y102940D01*
X431410Y102440D02*X430910Y102940D01*
X431410Y102440D02*X434410D01*
X434910Y102940D01*
Y104440D02*Y102940D01*
Y104440D02*X434410Y104940D01*
X433410D02*X434410D01*
X432910Y104440D02*X433410Y104940D01*
X432910Y104440D02*Y103440D01*
Y106140D02*X434910Y108140D01*
Y106140D02*X432910Y108140D01*
X286260Y56890D02*X288260D01*
X288760Y56390D01*
Y55390D01*
X288260Y54890D02*X288760Y55390D01*
X286760Y54890D02*X288260D01*
X286760Y56890D02*Y52890D01*
X287560Y54890D02*X288760Y52890D01*
X290460D02*X292460Y56890D01*
X289960D02*X292460D01*
X293660Y53390D02*X294160Y52890D01*
X293660Y56390D02*Y53390D01*
Y56390D02*X294160Y56890D01*
X295160D01*
X295660Y56390D01*
Y53390D01*
X295160Y52890D02*X295660Y53390D01*
X294160Y52890D02*X295160D01*
X293660Y53890D02*X295660Y55890D01*
X296860Y56390D02*X297360Y56890D01*
X298360D01*
X298860Y56390D01*
X298360Y52890D02*X298860Y53390D01*
X297360Y52890D02*X298360D01*
X296860Y53390D02*X297360Y52890D01*
Y55090D02*X298360D01*
X298860Y56390D02*Y55590D01*
Y54590D02*Y53390D01*
Y54590D02*X298360Y55090D01*
X298860Y55590D02*X298360Y55090D01*
X268073Y56890D02*X270073D01*
X270573Y56390D01*
Y55390D01*
X270073Y54890D02*X270573Y55390D01*
X268573Y54890D02*X270073D01*
X268573Y56890D02*Y52890D01*
X269373Y54890D02*X270573Y52890D01*
X272273D02*X274273Y56890D01*
X271773D02*X274273D01*
X275473Y53390D02*X275973Y52890D01*
X275473Y56390D02*Y53390D01*
Y56390D02*X275973Y56890D01*
X276973D01*
X277473Y56390D01*
Y53390D01*
X276973Y52890D02*X277473Y53390D01*
X275973Y52890D02*X276973D01*
X275473Y53890D02*X277473Y55890D01*
X278673Y56390D02*X279173Y56890D01*
X280673D01*
X281173Y56390D01*
Y55390D01*
X278673Y52890D02*X281173Y55390D01*
X278673Y52890D02*X281173D01*
X172436Y311631D02*X173736D01*
X171736Y312331D02*X172436Y311631D01*
X171736Y314931D02*Y312331D01*
Y314931D02*X172436Y315631D01*
X173736D01*
X174936Y315131D02*Y312131D01*
Y315131D02*X175436Y315631D01*
X176436D01*
X176936Y315131D01*
Y312131D01*
X176436Y311631D02*X176936Y312131D01*
X175436Y311631D02*X176436D01*
X174936Y312131D02*X175436Y311631D01*
X178136Y315631D02*Y311631D01*
Y315631D02*X180636Y311631D01*
Y315631D02*Y311631D01*
X181836Y315631D02*Y311631D01*
Y315631D02*X184336Y311631D01*
Y315631D02*Y311631D01*
X186036D02*X188036Y315631D01*
X185536D02*X188036D01*
X189236Y312131D02*X189736Y311631D01*
X189236Y315131D02*Y312131D01*
Y315131D02*X189736Y315631D01*
X190736D01*
X191236Y315131D01*
Y312131D01*
X190736Y311631D02*X191236Y312131D01*
X189736Y311631D02*X190736D01*
X189236Y312631D02*X191236Y314631D01*
X192436Y314831D02*X193236Y315631D01*
Y311631D01*
X192436D02*X193936D01*
X250046Y312611D02*X251346D01*
X249346Y313311D02*X250046Y312611D01*
X249346Y315911D02*Y313311D01*
Y315911D02*X250046Y316611D01*
X251346D01*
X252546Y316111D02*Y313111D01*
Y316111D02*X253046Y316611D01*
X254046D01*
X254546Y316111D01*
Y313111D01*
X254046Y312611D02*X254546Y313111D01*
X253046Y312611D02*X254046D01*
X252546Y313111D02*X253046Y312611D01*
X255746Y316611D02*Y312611D01*
Y316611D02*X258246Y312611D01*
Y316611D02*Y312611D01*
X259446Y316611D02*Y312611D01*
Y316611D02*X261946Y312611D01*
Y316611D02*Y312611D01*
X263646D02*X265646Y316611D01*
X263146D02*X265646D01*
X266846Y313111D02*X267346Y312611D01*
X266846Y316111D02*Y313111D01*
Y316111D02*X267346Y316611D01*
X268346D01*
X268846Y316111D01*
Y313111D01*
X268346Y312611D02*X268846Y313111D01*
X267346Y312611D02*X268346D01*
X266846Y313611D02*X268846Y315611D01*
X270046Y316111D02*X270546Y316611D01*
X272046D01*
X272546Y316111D01*
Y315111D01*
X270046Y312611D02*X272546Y315111D01*
X270046Y312611D02*X272546D01*
X165850Y244480D02*X166350Y243980D01*
X164350Y244480D02*X165850D01*
X163850Y243980D02*X164350Y244480D01*
X163850Y243980D02*Y242980D01*
X164350Y242480D01*
X165850D01*
X166350Y241980D01*
Y240980D01*
X165850Y240480D02*X166350Y240980D01*
X164350Y240480D02*X165850D01*
X163850Y240980D02*X164350Y240480D01*
X168250D02*X169550D01*
X167550Y241180D02*X168250Y240480D01*
X167550Y243780D02*Y241180D01*
Y243780D02*X168250Y244480D01*
X169550D01*
X170750D02*X172750D01*
X173250Y243980D01*
Y242980D01*
X172750Y242480D02*X173250Y242980D01*
X171250Y242480D02*X172750D01*
X171250Y244480D02*Y240480D01*
X172050Y242480D02*X173250Y240480D01*
X174450Y242680D02*X175950D01*
X174450Y240480D02*X176450D01*
X174450Y244480D02*Y240480D01*
Y244480D02*X176450D01*
X177650D02*Y242480D01*
X178150Y240480D01*
X179150Y242480D01*
X180150Y240480D01*
X180650Y242480D01*
Y244480D02*Y242480D01*
X181850Y241980D02*X183850Y244480D01*
X181850Y241980D02*X184350D01*
X183850Y244480D02*Y240480D01*
X185550Y242480D02*X187550D01*
X188750Y241980D02*X190750Y244480D01*
X188750Y241980D02*X191250D01*
X190750Y244480D02*Y240480D01*
X192450Y240980D02*X192950Y240480D01*
X192450Y243980D02*Y240980D01*
Y243980D02*X192950Y244480D01*
X193950D01*
X194450Y243980D01*
Y240980D01*
X193950Y240480D02*X194450Y240980D01*
X192950Y240480D02*X193950D01*
X192450Y241480D02*X194450Y243480D01*
X195650Y240480D02*X197650D01*
X198850Y243980D02*X199350Y244480D01*
X200850D01*
X201350Y243980D01*
Y242980D01*
X198850Y240480D02*X201350Y242980D01*
X198850Y240480D02*X201350D01*
X69173Y286266D02*X73173D01*
Y284966D02*X72473Y284266D01*
X69873D02*X72473D01*
X69173Y284966D02*X69873Y284266D01*
X69173Y286766D02*Y284966D01*
X73173Y286766D02*Y284966D01*
X70673Y283066D02*X73173Y281066D01*
X70673Y283066D02*Y280566D01*
X69173Y281066D02*X73173D01*
X69673Y279366D02*X69173Y278866D01*
X69673Y279366D02*X72673D01*
X73173Y278866D01*
Y277866D01*
X72673Y277366D01*
X69673D02*X72673D01*
X69173Y277866D02*X69673Y277366D01*
X69173Y278866D02*Y277866D01*
X70173Y279366D02*X72173Y277366D01*
X73173Y276166D02*Y274166D01*
X71173Y276166D02*X73173D01*
X71173D02*X71673Y275666D01*
Y274666D01*
X71173Y274166D01*
X69673D02*X71173D01*
X69173Y274666D02*X69673Y274166D01*
X69173Y275666D02*Y274666D01*
X69673Y276166D02*X69173Y275666D01*
X59252Y265345D02*X63252D01*
Y264045D02*X62552Y263345D01*
X59952D02*X62552D01*
X59252Y264045D02*X59952Y263345D01*
X59252Y265845D02*Y264045D01*
X63252Y265845D02*Y264045D01*
X60752Y262145D02*X63252Y260145D01*
X60752Y262145D02*Y259645D01*
X59252Y260145D02*X63252D01*
X59752Y258445D02*X59252Y257945D01*
X59752Y258445D02*X62752D01*
X63252Y257945D01*
Y256945D01*
X62752Y256445D01*
X59752D02*X62752D01*
X59252Y256945D02*X59752Y256445D01*
X59252Y257945D02*Y256945D01*
X60252Y258445D02*X62252Y256445D01*
X62752Y255245D02*X63252Y254745D01*
Y253245D01*
X62752Y252745D01*
X61752D02*X62752D01*
X59252Y255245D02*X61752Y252745D01*
X59252Y255245D02*Y252745D01*
X59420Y245543D02*X63420D01*
Y244243D02*X62720Y243543D01*
X60120D02*X62720D01*
X59420Y244243D02*X60120Y243543D01*
X59420Y246043D02*Y244243D01*
X63420Y246043D02*Y244243D01*
X60920Y242343D02*X63420Y240343D01*
X60920Y242343D02*Y239843D01*
X59420Y240343D02*X63420D01*
X59920Y238643D02*X59420Y238143D01*
X59920Y238643D02*X62920D01*
X63420Y238143D01*
Y237143D01*
X62920Y236643D01*
X59920D02*X62920D01*
X59420Y237143D02*X59920Y236643D01*
X59420Y238143D02*Y237143D01*
X60420Y238643D02*X62420Y236643D01*
X62920Y235443D02*X63420Y234943D01*
Y233943D01*
X62920Y233443D01*
X59420Y233943D02*X59920Y233443D01*
X59420Y234943D02*Y233943D01*
X59920Y235443D02*X59420Y234943D01*
X61620D02*Y233943D01*
X62120Y233443D02*X62920D01*
X59920D02*X61120D01*
X61620Y233943D01*
X62120Y233443D02*X61620Y233943D01*
X93010Y231740D02*X97010D01*
Y230440D02*X96310Y229740D01*
X93710D02*X96310D01*
X93010Y230440D02*X93710Y229740D01*
X93010Y232240D02*Y230440D01*
X97010Y232240D02*Y230440D01*
X94510Y228540D02*X97010Y226540D01*
X94510Y228540D02*Y226040D01*
X93010Y226540D02*X97010D01*
X93510Y224840D02*X93010Y224340D01*
X93510Y224840D02*X96510D01*
X97010Y224340D01*
Y223340D01*
X96510Y222840D01*
X93510D02*X96510D01*
X93010Y223340D02*X93510Y222840D01*
X93010Y224340D02*Y223340D01*
X94010Y224840D02*X96010Y222840D01*
X97010Y220140D02*X96510Y219640D01*
X97010Y221140D02*Y220140D01*
X96510Y221640D02*X97010Y221140D01*
X93510Y221640D02*X96510D01*
X93510D02*X93010Y221140D01*
X95210Y220140D02*X94710Y219640D01*
X95210Y221640D02*Y220140D01*
X93010Y221140D02*Y220140D01*
X93510Y219640D01*
X94710D01*
X77492Y303339D02*Y299339D01*
Y303339D02*X79492D01*
X77492Y301539D02*X78992D01*
X80692Y300839D02*X82692Y303339D01*
X80692Y300839D02*X83192D01*
X82692Y303339D02*Y299339D01*
X84392Y299839D02*X84892Y299339D01*
X84392Y302839D02*Y299839D01*
Y302839D02*X84892Y303339D01*
X85892D01*
X86392Y302839D01*
Y299839D01*
X85892Y299339D02*X86392Y299839D01*
X84892Y299339D02*X85892D01*
X84392Y300339D02*X86392Y302339D01*
X87592Y302539D02*X88392Y303339D01*
Y299339D01*
X87592D02*X89092D01*
X88881Y286145D02*X92881D01*
Y284845D02*X92181Y284145D01*
X89581D02*X92181D01*
X88881Y284845D02*X89581Y284145D01*
X88881Y286645D02*Y284845D01*
X92881Y286645D02*Y284845D01*
X90381Y282945D02*X92881Y280945D01*
X90381Y282945D02*Y280445D01*
X88881Y280945D02*X92881D01*
X89381Y279245D02*X88881Y278745D01*
X89381Y279245D02*X92381D01*
X92881Y278745D01*
Y277745D01*
X92381Y277245D01*
X89381D02*X92381D01*
X88881Y277745D02*X89381Y277245D01*
X88881Y278745D02*Y277745D01*
X89881Y279245D02*X91881Y277245D01*
X90381Y276045D02*X92881Y274045D01*
X90381Y276045D02*Y273545D01*
X88881Y274045D02*X92881D01*
X347560Y242976D02*Y240976D01*
X347060Y240476D01*
X346060D02*X347060D01*
X345560Y240976D02*X346060Y240476D01*
X345560Y242476D02*Y240976D01*
X343560Y242476D02*X347560D01*
X345560Y241676D02*X343560Y240476D01*
X347060Y239276D02*X347560Y238776D01*
Y237776D01*
X347060Y237276D01*
X343560Y237776D02*X344060Y237276D01*
X343560Y238776D02*Y237776D01*
X344060Y239276D02*X343560Y238776D01*
X345760D02*Y237776D01*
X346260Y237276D02*X347060D01*
X344060D02*X345260D01*
X345760Y237776D01*
X346260Y237276D02*X345760Y237776D01*
X344060Y236076D02*X343560Y235576D01*
X344060Y236076D02*X347060D01*
X347560Y235576D01*
Y234576D01*
X347060Y234076D01*
X344060D02*X347060D01*
X343560Y234576D02*X344060Y234076D01*
X343560Y235576D02*Y234576D01*
X344560Y236076D02*X346560Y234076D01*
X344060Y232876D02*X343560Y232376D01*
X344060Y232876D02*X347060D01*
X347560Y232376D01*
Y231376D01*
X347060Y230876D01*
X344060D02*X347060D01*
X343560Y231376D02*X344060Y230876D01*
X343560Y232376D02*Y231376D01*
X344560Y232876D02*X346560Y230876D01*
X320874Y228890D02*X322174D01*
X320174Y229590D02*X320874Y228890D01*
X320174Y232190D02*Y229590D01*
Y232190D02*X320874Y232890D01*
X322174D01*
X323374Y232390D02*X323874Y232890D01*
X324874D01*
X325374Y232390D01*
X324874Y228890D02*X325374Y229390D01*
X323874Y228890D02*X324874D01*
X323374Y229390D02*X323874Y228890D01*
Y231090D02*X324874D01*
X325374Y232390D02*Y231590D01*
Y230590D02*Y229390D01*
Y230590D02*X324874Y231090D01*
X325374Y231590D02*X324874Y231090D01*
X326574Y229390D02*X327074Y228890D01*
X326574Y232390D02*Y229390D01*
Y232390D02*X327074Y232890D01*
X328074D01*
X328574Y232390D01*
Y229390D01*
X328074Y228890D02*X328574Y229390D01*
X327074Y228890D02*X328074D01*
X326574Y229890D02*X328574Y231890D01*
X329774Y229390D02*X330274Y228890D01*
X329774Y232390D02*Y229390D01*
Y232390D02*X330274Y232890D01*
X331274D01*
X331774Y232390D01*
Y229390D01*
X331274Y228890D02*X331774Y229390D01*
X330274Y228890D02*X331274D01*
X329774Y229890D02*X331774Y231890D01*
X319760Y245390D02*Y241390D01*
Y245390D02*X321760D01*
X319760Y243590D02*X321260D01*
X322960Y244890D02*X323460Y245390D01*
X324460D01*
X324960Y244890D01*
X324460Y241390D02*X324960Y241890D01*
X323460Y241390D02*X324460D01*
X322960Y241890D02*X323460Y241390D01*
Y243590D02*X324460D01*
X324960Y244890D02*Y244090D01*
Y243090D02*Y241890D01*
Y243090D02*X324460Y243590D01*
X324960Y244090D02*X324460Y243590D01*
X326160Y241890D02*X326660Y241390D01*
X326160Y244890D02*Y241890D01*
Y244890D02*X326660Y245390D01*
X327660D01*
X328160Y244890D01*
Y241890D01*
X327660Y241390D02*X328160Y241890D01*
X326660Y241390D02*X327660D01*
X326160Y242390D02*X328160Y244390D01*
X329360Y241890D02*X329860Y241390D01*
X329360Y244890D02*Y241890D01*
Y244890D02*X329860Y245390D01*
X330860D01*
X331360Y244890D01*
Y241890D01*
X330860Y241390D02*X331360Y241890D01*
X329860Y241390D02*X330860D01*
X329360Y242390D02*X331360Y244390D01*
X264421Y229150D02*X265721D01*
X263721Y229850D02*X264421Y229150D01*
X263721Y232450D02*Y229850D01*
Y232450D02*X264421Y233150D01*
X265721D01*
X266921Y232650D02*X267421Y233150D01*
X268421D01*
X268921Y232650D01*
X268421Y229150D02*X268921Y229650D01*
X267421Y229150D02*X268421D01*
X266921Y229650D02*X267421Y229150D01*
Y231350D02*X268421D01*
X268921Y232650D02*Y231850D01*
Y230850D02*Y229650D01*
Y230850D02*X268421Y231350D01*
X268921Y231850D02*X268421Y231350D01*
X270121Y229650D02*X270621Y229150D01*
X270121Y232650D02*Y229650D01*
Y232650D02*X270621Y233150D01*
X271621D01*
X272121Y232650D01*
Y229650D01*
X271621Y229150D02*X272121Y229650D01*
X270621Y229150D02*X271621D01*
X270121Y230150D02*X272121Y232150D01*
X273321Y232350D02*X274121Y233150D01*
Y229150D01*
X273321D02*X274821D01*
X88507Y97150D02*X89807D01*
X87807Y97850D02*X88507Y97150D01*
X87807Y100450D02*Y97850D01*
Y100450D02*X88507Y101150D01*
X89807D01*
X92507D02*X93007Y100650D01*
X91507Y101150D02*X92507D01*
X91007Y100650D02*X91507Y101150D01*
X91007Y100650D02*Y97650D01*
X91507Y97150D01*
X92507Y99350D02*X93007Y98850D01*
X91007Y99350D02*X92507D01*
X91507Y97150D02*X92507D01*
X93007Y97650D01*
Y98850D02*Y97650D01*
X94207D02*X94707Y97150D01*
X94207Y100650D02*Y97650D01*
Y100650D02*X94707Y101150D01*
X95707D01*
X96207Y100650D01*
Y97650D01*
X95707Y97150D02*X96207Y97650D01*
X94707Y97150D02*X95707D01*
X94207Y98150D02*X96207Y100150D01*
X97407Y97650D02*X97907Y97150D01*
X97407Y100650D02*Y97650D01*
Y100650D02*X97907Y101150D01*
X98907D01*
X99407Y100650D01*
Y97650D01*
X98907Y97150D02*X99407Y97650D01*
X97907Y97150D02*X98907D01*
X97407Y98150D02*X99407Y100150D01*
X68260Y86190D02*X70260D01*
X70760Y85690D01*
Y84690D01*
X70260Y84190D02*X70760Y84690D01*
X68760Y84190D02*X70260D01*
X68760Y86190D02*Y82190D01*
X69560Y84190D02*X70760Y82190D01*
X73460Y86190D02*X73960Y85690D01*
X72460Y86190D02*X73460D01*
X71960Y85690D02*X72460Y86190D01*
X71960Y85690D02*Y82690D01*
X72460Y82190D01*
X73460Y84390D02*X73960Y83890D01*
X71960Y84390D02*X73460D01*
X72460Y82190D02*X73460D01*
X73960Y82690D01*
Y83890D02*Y82690D01*
X75160D02*X75660Y82190D01*
X75160Y85690D02*Y82690D01*
Y85690D02*X75660Y86190D01*
X76660D01*
X77160Y85690D01*
Y82690D01*
X76660Y82190D02*X77160Y82690D01*
X75660Y82190D02*X76660D01*
X75160Y83190D02*X77160Y85190D01*
X78360Y85390D02*X79160Y86190D01*
Y82190D01*
X78360D02*X79860D01*
X73260Y100390D02*X75260D01*
X75760Y99890D01*
Y98890D01*
X75260Y98390D02*X75760Y98890D01*
X73760Y98390D02*X75260D01*
X73760Y100390D02*Y96390D01*
X74560Y98390D02*X75760Y96390D01*
X76960Y99590D02*X77760Y100390D01*
Y96390D01*
X76960D02*X78460D01*
X79660Y96890D02*X80160Y96390D01*
X79660Y99890D02*Y96890D01*
Y99890D02*X80160Y100390D01*
X81160D01*
X81660Y99890D01*
Y96890D01*
X81160Y96390D02*X81660Y96890D01*
X80160Y96390D02*X81160D01*
X79660Y97390D02*X81660Y99390D01*
X82860Y100390D02*X84860D01*
X82860D02*Y98390D01*
X83360Y98890D01*
X84360D01*
X84860Y98390D01*
Y96890D01*
X84360Y96390D02*X84860Y96890D01*
X83360Y96390D02*X84360D01*
X82860Y96890D02*X83360Y96390D01*
X51060Y86308D02*Y85008D01*
X51760Y87008D02*X51060Y86308D01*
X51760Y87008D02*X54360D01*
X55060Y86308D01*
Y85008D01*
X54260Y83808D02*X55060Y83008D01*
X51060D02*X55060D01*
X51060Y83808D02*Y82308D01*
X51560Y81108D02*X51060Y80608D01*
X51560Y81108D02*X54560D01*
X55060Y80608D01*
Y79608D01*
X54560Y79108D01*
X51560D02*X54560D01*
X51060Y79608D02*X51560Y79108D01*
X51060Y80608D02*Y79608D01*
X52060Y81108D02*X54060Y79108D01*
X55060Y76408D02*X54560Y75908D01*
X55060Y77408D02*Y76408D01*
X54560Y77908D02*X55060Y77408D01*
X51560Y77908D02*X54560D01*
X51560D02*X51060Y77408D01*
X53260Y76408D02*X52760Y75908D01*
X53260Y77908D02*Y76408D01*
X51060Y77408D02*Y76408D01*
X51560Y75908D01*
X52760D01*
X27860Y107028D02*X31860D01*
Y105728D02*X31160Y105028D01*
X28560D02*X31160D01*
X27860Y105728D02*X28560Y105028D01*
X27860Y107528D02*Y105728D01*
X31860Y107528D02*Y105728D01*
Y102328D02*X31360Y101828D01*
X31860Y103328D02*Y102328D01*
X31360Y103828D02*X31860Y103328D01*
X28360Y103828D02*X31360D01*
X28360D02*X27860Y103328D01*
X30060Y102328D02*X29560Y101828D01*
X30060Y103828D02*Y102328D01*
X27860Y103328D02*Y102328D01*
X28360Y101828D01*
X29560D01*
X28360Y100628D02*X27860Y100128D01*
X28360Y100628D02*X31360D01*
X31860Y100128D01*
Y99128D01*
X31360Y98628D01*
X28360D02*X31360D01*
X27860Y99128D02*X28360Y98628D01*
X27860Y100128D02*Y99128D01*
X28860Y100628D02*X30860Y98628D01*
X29360Y97428D02*X31860Y95428D01*
X29360Y97428D02*Y94928D01*
X27860Y95428D02*X31860D01*
X160607Y86890D02*X161907D01*
X159907Y87590D02*X160607Y86890D01*
X159907Y90190D02*Y87590D01*
Y90190D02*X160607Y90890D01*
X161907D01*
X163107Y90090D02*X163907Y90890D01*
Y86890D01*
X163107D02*X164607D01*
X165807Y87390D02*X166307Y86890D01*
X165807Y90390D02*Y87390D01*
Y90390D02*X166307Y90890D01*
X167307D01*
X167807Y90390D01*
Y87390D01*
X167307Y86890D02*X167807Y87390D01*
X166307Y86890D02*X167307D01*
X165807Y87890D02*X167807Y89890D01*
X169007Y90090D02*X169807Y90890D01*
Y86890D01*
X169007D02*X170507D01*
X111046Y100890D02*X112346D01*
X110346Y101590D02*X111046Y100890D01*
X110346Y104190D02*Y101590D01*
Y104190D02*X111046Y104890D01*
X112346D01*
X113546Y104090D02*X114346Y104890D01*
Y100890D01*
X113546D02*X115046D01*
X116246Y104090D02*X117046Y104890D01*
Y100890D01*
X116246D02*X117746D01*
X118946Y104390D02*X119446Y104890D01*
X120446D01*
X120946Y104390D01*
X120446Y100890D02*X120946Y101390D01*
X119446Y100890D02*X120446D01*
X118946Y101390D02*X119446Y100890D01*
Y103090D02*X120446D01*
X120946Y104390D02*Y103590D01*
Y102590D02*Y101390D01*
Y102590D02*X120446Y103090D01*
X120946Y103590D02*X120446Y103090D01*
X164003Y106390D02*X165303D01*
X163303Y107090D02*X164003Y106390D01*
X163303Y109690D02*Y107090D01*
Y109690D02*X164003Y110390D01*
X165303D01*
X166503Y109590D02*X167303Y110390D01*
Y106390D01*
X166503D02*X168003D01*
X169203Y109590D02*X170003Y110390D01*
Y106390D01*
X169203D02*X170703D01*
X171903Y109890D02*X172403Y110390D01*
X173903D01*
X174403Y109890D01*
Y108890D01*
X171903Y106390D02*X174403Y108890D01*
X171903Y106390D02*X174403D01*
X134324Y98337D02*X135624D01*
X133624Y99037D02*X134324Y98337D01*
X133624Y101637D02*Y99037D01*
Y101637D02*X134324Y102337D01*
X135624D01*
X136824Y101537D02*X137624Y102337D01*
Y98337D01*
X136824D02*X138324D01*
X139524Y101537D02*X140324Y102337D01*
Y98337D01*
X139524D02*X141024D01*
X143724Y102337D02*X144224Y101837D01*
X142724Y102337D02*X143724D01*
X142224Y101837D02*X142724Y102337D01*
X142224Y101837D02*Y98837D01*
X142724Y98337D01*
X143724Y100537D02*X144224Y100037D01*
X142224Y100537D02*X143724D01*
X142724Y98337D02*X143724D01*
X144224Y98837D01*
Y100037D02*Y98837D01*
X83901Y151390D02*X85201D01*
X83201Y152090D02*X83901Y151390D01*
X83201Y154690D02*Y152090D01*
Y154690D02*X83901Y155390D01*
X85201D01*
X86401Y154590D02*X87201Y155390D01*
Y151390D01*
X86401D02*X87901D01*
X89101Y154890D02*X89601Y155390D01*
X91101D01*
X91601Y154890D01*
Y153890D01*
X89101Y151390D02*X91601Y153890D01*
X89101Y151390D02*X91601D01*
X92801Y151890D02*X93301Y151390D01*
X92801Y154890D02*Y151890D01*
Y154890D02*X93301Y155390D01*
X94301D01*
X94801Y154890D01*
Y151890D01*
X94301Y151390D02*X94801Y151890D01*
X93301Y151390D02*X94301D01*
X92801Y152390D02*X94801Y154390D01*
X45960Y140390D02*X47260D01*
X45260Y141090D02*X45960Y140390D01*
X45260Y143690D02*Y141090D01*
Y143690D02*X45960Y144390D01*
X47260D01*
X48460Y143590D02*X49260Y144390D01*
Y140390D01*
X48460D02*X49960D01*
X51160Y140890D02*X51660Y140390D01*
X51160Y143890D02*Y140890D01*
Y143890D02*X51660Y144390D01*
X52660D01*
X53160Y143890D01*
Y140890D01*
X52660Y140390D02*X53160Y140890D01*
X51660Y140390D02*X52660D01*
X51160Y141390D02*X53160Y143390D01*
X54360Y144390D02*X56360D01*
X54360D02*Y142390D01*
X54860Y142890D01*
X55860D01*
X56360Y142390D01*
Y140890D01*
X55860Y140390D02*X56360Y140890D01*
X54860Y140390D02*X55860D01*
X54360Y140890D02*X54860Y140390D01*
X87960Y130390D02*X89260D01*
X87260Y131090D02*X87960Y130390D01*
X87260Y133690D02*Y131090D01*
Y133690D02*X87960Y134390D01*
X89260D01*
X90460Y133590D02*X91260Y134390D01*
Y130390D01*
X90460D02*X91960D01*
X93160Y133590D02*X93960Y134390D01*
Y130390D01*
X93160D02*X94660D01*
X96360D02*X97860Y132390D01*
Y133890D02*Y132390D01*
X97360Y134390D02*X97860Y133890D01*
X96360Y134390D02*X97360D01*
X95860Y133890D02*X96360Y134390D01*
X95860Y133890D02*Y132890D01*
X96360Y132390D01*
X97860D01*
X87460Y115890D02*X88760D01*
X86760Y116590D02*X87460Y115890D01*
X86760Y119190D02*Y116590D01*
Y119190D02*X87460Y119890D01*
X88760D01*
X89960Y119090D02*X90760Y119890D01*
Y115890D01*
X89960D02*X91460D01*
X92660Y119090D02*X93460Y119890D01*
Y115890D01*
X92660D02*X94160D01*
X95360Y116390D02*X95860Y115890D01*
X95360Y117190D02*Y116390D01*
Y117190D02*X96060Y117890D01*
X96660D01*
X97360Y117190D01*
Y116390D01*
X96860Y115890D02*X97360Y116390D01*
X95860Y115890D02*X96860D01*
X95360Y118590D02*X96060Y117890D01*
X95360Y119390D02*Y118590D01*
Y119390D02*X95860Y119890D01*
X96860D01*
X97360Y119390D01*
Y118590D01*
X96660Y117890D02*X97360Y118590D01*
X70579Y123311D02*X74579Y120811D01*
Y123311D02*X70579Y120811D01*
X74579Y119611D02*Y117611D01*
X70579Y118611D02*X74579D01*
X70579Y116411D02*X73579D01*
X74579Y115711D01*
Y114611D01*
X73579Y113911D01*
X70579D02*X73579D01*
X72579Y116411D02*Y113911D01*
X70579Y112711D02*X74579D01*
X70579D02*Y110711D01*
X73779Y109511D02*X74579Y108711D01*
X70579D02*X74579D01*
X70579Y109511D02*Y108011D01*
X71079Y106811D02*X70579Y106311D01*
X71079Y106811D02*X74079D01*
X74579Y106311D01*
Y105311D01*
X74079Y104811D01*
X71079D02*X74079D01*
X70579Y105311D02*X71079Y104811D01*
X70579Y106311D02*Y105311D01*
X71579Y106811D02*X73579Y104811D01*
X73779Y103611D02*X74579Y102811D01*
X70579D02*X74579D01*
X70579Y103611D02*Y102111D01*
X71260Y136390D02*X73260D01*
X73760Y135890D01*
Y134890D01*
X73260Y134390D02*X73760Y134890D01*
X71760Y134390D02*X73260D01*
X71760Y136390D02*Y132390D01*
X72560Y134390D02*X73760Y132390D01*
X74960Y135590D02*X75760Y136390D01*
Y132390D01*
X74960D02*X76460D01*
X77660Y132890D02*X78160Y132390D01*
X77660Y135890D02*Y132890D01*
Y135890D02*X78160Y136390D01*
X79160D01*
X79660Y135890D01*
Y132890D01*
X79160Y132390D02*X79660Y132890D01*
X78160Y132390D02*X79160D01*
X77660Y133390D02*X79660Y135390D01*
X80860Y133890D02*X82860Y136390D01*
X80860Y133890D02*X83360D01*
X82860Y136390D02*Y132390D01*
X71260Y148390D02*X73260D01*
X73760Y147890D01*
Y146890D01*
X73260Y146390D02*X73760Y146890D01*
X71760Y146390D02*X73260D01*
X71760Y148390D02*Y144390D01*
X72560Y146390D02*X73760Y144390D01*
X74960Y147590D02*X75760Y148390D01*
Y144390D01*
X74960D02*X76460D01*
X77660Y144890D02*X78160Y144390D01*
X77660Y147890D02*Y144890D01*
Y147890D02*X78160Y148390D01*
X79160D01*
X79660Y147890D01*
Y144890D01*
X79160Y144390D02*X79660Y144890D01*
X78160Y144390D02*X79160D01*
X77660Y145390D02*X79660Y147390D01*
X80860Y147890D02*X81360Y148390D01*
X82360D01*
X82860Y147890D01*
X82360Y144390D02*X82860Y144890D01*
X81360Y144390D02*X82360D01*
X80860Y144890D02*X81360Y144390D01*
Y146590D02*X82360D01*
X82860Y147890D02*Y147090D01*
Y146090D02*Y144890D01*
Y146090D02*X82360Y146590D01*
X82860Y147090D02*X82360Y146590D01*
X66536Y173114D02*X70536Y170614D01*
Y173114D02*X66536Y170614D01*
X70536Y169414D02*Y167414D01*
X66536Y168414D02*X70536D01*
X66536Y166214D02*X69536D01*
X70536Y165514D01*
Y164414D01*
X69536Y163714D01*
X66536D02*X69536D01*
X68536Y166214D02*Y163714D01*
X66536Y162514D02*X70536D01*
X66536D02*Y160514D01*
X69736Y159314D02*X70536Y158514D01*
X66536D02*X70536D01*
X66536Y159314D02*Y157814D01*
X67036Y156614D02*X66536Y156114D01*
X67036Y156614D02*X70036D01*
X70536Y156114D01*
Y155114D01*
X70036Y154614D01*
X67036D02*X70036D01*
X66536Y155114D02*X67036Y154614D01*
X66536Y156114D02*Y155114D01*
X67536Y156614D02*X69536Y154614D01*
X70036Y153414D02*X70536Y152914D01*
Y151414D01*
X70036Y150914D01*
X69036D02*X70036D01*
X66536Y153414D02*X69036Y150914D01*
X66536Y153414D02*Y150914D01*
X97910Y174240D02*Y170740D01*
X98410Y170240D01*
X99410D01*
X99910Y170740D01*
Y174240D02*Y170740D01*
X101110Y173440D02*X101910Y174240D01*
Y170240D01*
X101110D02*X102610D01*
X103810Y170740D02*X104310Y170240D01*
X103810Y173740D02*Y170740D01*
Y173740D02*X104310Y174240D01*
X105310D01*
X105810Y173740D01*
Y170740D01*
X105310Y170240D02*X105810Y170740D01*
X104310Y170240D02*X105310D01*
X103810Y171240D02*X105810Y173240D01*
X107010Y170740D02*X107510Y170240D01*
X107010Y173740D02*Y170740D01*
Y173740D02*X107510Y174240D01*
X108510D01*
X109010Y173740D01*
Y170740D01*
X108510Y170240D02*X109010Y170740D01*
X107510Y170240D02*X108510D01*
X107010Y171240D02*X109010Y173240D01*
X105503Y187890D02*X106803D01*
X104803Y188590D02*X105503Y187890D01*
X104803Y191190D02*Y188590D01*
Y191190D02*X105503Y191890D01*
X106803D01*
X108003Y191090D02*X108803Y191890D01*
Y187890D01*
X108003D02*X109503D01*
X110703Y191090D02*X111503Y191890D01*
Y187890D01*
X110703D02*X112203D01*
X113403Y188390D02*X113903Y187890D01*
X113403Y191390D02*Y188390D01*
Y191390D02*X113903Y191890D01*
X114903D01*
X115403Y191390D01*
Y188390D01*
X114903Y187890D02*X115403Y188390D01*
X113903Y187890D02*X114903D01*
X113403Y188890D02*X115403Y190890D01*
X77217Y179890D02*X79217D01*
X79717Y179390D01*
Y178390D01*
X79217Y177890D02*X79717Y178390D01*
X77717Y177890D02*X79217D01*
X77717Y179890D02*Y175890D01*
X78517Y177890D02*X79717Y175890D01*
X80917Y179090D02*X81717Y179890D01*
Y175890D01*
X80917D02*X82417D01*
X83617Y176390D02*X84117Y175890D01*
X83617Y179390D02*Y176390D01*
Y179390D02*X84117Y179890D01*
X85117D01*
X85617Y179390D01*
Y176390D01*
X85117Y175890D02*X85617Y176390D01*
X84117Y175890D02*X85117D01*
X83617Y176890D02*X85617Y178890D01*
X86817Y179090D02*X87617Y179890D01*
Y175890D01*
X86817D02*X88317D01*
X92516Y211462D02*X96516D01*
Y210162D02*X95816Y209462D01*
X93216D02*X95816D01*
X92516Y210162D02*X93216Y209462D01*
X92516Y211962D02*Y210162D01*
X96516Y211962D02*Y210162D01*
X94016Y208262D02*X96516Y206262D01*
X94016Y208262D02*Y205762D01*
X92516Y206262D02*X96516D01*
X93016Y204562D02*X92516Y204062D01*
X93016Y204562D02*X96016D01*
X96516Y204062D01*
Y203062D01*
X96016Y202562D01*
X93016D02*X96016D01*
X92516Y203062D02*X93016Y202562D01*
X92516Y204062D02*Y203062D01*
X93516Y204562D02*X95516Y202562D01*
X93016Y201362D02*X92516Y200862D01*
X93016Y201362D02*X96016D01*
X96516Y200862D01*
Y199862D01*
X96016Y199362D01*
X93016D02*X96016D01*
X92516Y199862D02*X93016Y199362D01*
X92516Y200862D02*Y199862D01*
X93516Y201362D02*X95516Y199362D01*
X77260Y167890D02*X79260D01*
X79760Y167390D01*
Y166390D01*
X79260Y165890D02*X79760Y166390D01*
X77760Y165890D02*X79260D01*
X77760Y167890D02*Y163890D01*
X78560Y165890D02*X79760Y163890D01*
X80960Y167090D02*X81760Y167890D01*
Y163890D01*
X80960D02*X82460D01*
X83660Y164390D02*X84160Y163890D01*
X83660Y167390D02*Y164390D01*
Y167390D02*X84160Y167890D01*
X85160D01*
X85660Y167390D01*
Y164390D01*
X85160Y163890D02*X85660Y164390D01*
X84160Y163890D02*X85160D01*
X83660Y164890D02*X85660Y166890D01*
X86860Y167390D02*X87360Y167890D01*
X88860D01*
X89360Y167390D01*
Y166390D01*
X86860Y163890D02*X89360Y166390D01*
X86860Y163890D02*X89360D01*
X50560Y190631D02*Y189331D01*
X51260Y191331D02*X50560Y190631D01*
X51260Y191331D02*X53860D01*
X54560Y190631D01*
Y189331D01*
X53760Y188131D02*X54560Y187331D01*
X50560D02*X54560D01*
X50560Y188131D02*Y186631D01*
X51060Y185431D02*X50560Y184931D01*
X51060Y185431D02*X54060D01*
X54560Y184931D01*
Y183931D01*
X54060Y183431D01*
X51060D02*X54060D01*
X50560Y183931D02*X51060Y183431D01*
X50560Y184931D02*Y183931D01*
X51560Y185431D02*X53560Y183431D01*
X52060Y182231D02*X54560Y180231D01*
X52060Y182231D02*Y179731D01*
X50560Y180231D02*X54560D01*
X67060Y189749D02*Y188449D01*
X67760Y190449D02*X67060Y189749D01*
X67760Y190449D02*X70360D01*
X71060Y189749D01*
Y188449D01*
X70260Y187249D02*X71060Y186449D01*
X67060D02*X71060D01*
X67060Y187249D02*Y185749D01*
X67560Y184549D02*X67060Y184049D01*
X67560Y184549D02*X70560D01*
X71060Y184049D01*
Y183049D01*
X70560Y182549D01*
X67560D02*X70560D01*
X67060Y183049D02*X67560Y182549D01*
X67060Y184049D02*Y183049D01*
X68060Y184549D02*X70060Y182549D01*
X70560Y181349D02*X71060Y180849D01*
Y179849D01*
X70560Y179349D01*
X67060Y179849D02*X67560Y179349D01*
X67060Y180849D02*Y179849D01*
X67560Y181349D02*X67060Y180849D01*
X69260D02*Y179849D01*
X69760Y179349D02*X70560D01*
X67560D02*X68760D01*
X69260Y179849D01*
X69760Y179349D02*X69260Y179849D01*
X171503Y178390D02*X172803D01*
X170803Y179090D02*X171503Y178390D01*
X170803Y181690D02*Y179090D01*
Y181690D02*X171503Y182390D01*
X172803D01*
X174003Y181590D02*X174803Y182390D01*
Y178390D01*
X174003D02*X175503D01*
X176703Y181590D02*X177503Y182390D01*
Y178390D01*
X176703D02*X178203D01*
X179403Y181590D02*X180203Y182390D01*
Y178390D01*
X179403D02*X180903D01*
X185512Y170890D02*X186812D01*
X184812Y171590D02*X185512Y170890D01*
X184812Y174190D02*Y171590D01*
Y174190D02*X185512Y174890D01*
X186812D01*
X188012Y174090D02*X188812Y174890D01*
Y170890D01*
X188012D02*X189512D01*
X190712Y171390D02*X191212Y170890D01*
X190712Y174390D02*Y171390D01*
Y174390D02*X191212Y174890D01*
X192212D01*
X192712Y174390D01*
Y171390D01*
X192212Y170890D02*X192712Y171390D01*
X191212Y170890D02*X192212D01*
X190712Y171890D02*X192712Y173890D01*
X193912Y171390D02*X194412Y170890D01*
X193912Y174390D02*Y171390D01*
Y174390D02*X194412Y174890D01*
X195412D01*
X195912Y174390D01*
Y171390D01*
X195412Y170890D02*X195912Y171390D01*
X194412Y170890D02*X195412D01*
X193912Y171890D02*X195912Y173890D01*
X129060Y191890D02*Y189890D01*
X128560Y189390D01*
X127560D02*X128560D01*
X127060Y189890D02*X127560Y189390D01*
X127060Y191390D02*Y189890D01*
X125060Y191390D02*X129060D01*
X127060Y190590D02*X125060Y189390D01*
X128260Y188190D02*X129060Y187390D01*
X125060D02*X129060D01*
X125060Y188190D02*Y186690D01*
X125560Y185490D02*X125060Y184990D01*
X125560Y185490D02*X128560D01*
X129060Y184990D01*
Y183990D01*
X128560Y183490D01*
X125560D02*X128560D01*
X125060Y183990D02*X125560Y183490D01*
X125060Y184990D02*Y183990D01*
X126060Y185490D02*X128060Y183490D01*
X125560Y182290D02*X125060Y181790D01*
X125560Y182290D02*X128560D01*
X129060Y181790D01*
Y180790D01*
X128560Y180290D01*
X125560D02*X128560D01*
X125060Y180790D02*X125560Y180290D01*
X125060Y181790D02*Y180790D01*
X126060Y182290D02*X128060Y180290D01*
X47260Y206890D02*Y202890D01*
Y206890D02*X49260D01*
X47260Y205090D02*X48760D01*
X50460Y204390D02*X52460Y206890D01*
X50460Y204390D02*X52960D01*
X52460Y206890D02*Y202890D01*
X54160Y203390D02*X54660Y202890D01*
X54160Y206390D02*Y203390D01*
Y206390D02*X54660Y206890D01*
X55660D01*
X56160Y206390D01*
Y203390D01*
X55660Y202890D02*X56160Y203390D01*
X54660Y202890D02*X55660D01*
X54160Y203890D02*X56160Y205890D01*
X57360Y203390D02*X57860Y202890D01*
X57360Y206390D02*Y203390D01*
Y206390D02*X57860Y206890D01*
X58860D01*
X59360Y206390D01*
Y203390D01*
X58860Y202890D02*X59360Y203390D01*
X57860Y202890D02*X58860D01*
X57360Y203890D02*X59360Y205890D01*
X59252Y223292D02*X63252D01*
Y221992D02*X62552Y221292D01*
X59952D02*X62552D01*
X59252Y221992D02*X59952Y221292D01*
X59252Y223792D02*Y221992D01*
X63252Y223792D02*Y221992D01*
X60752Y220092D02*X63252Y218092D01*
X60752Y220092D02*Y217592D01*
X59252Y218092D02*X63252D01*
X59752Y216392D02*X59252Y215892D01*
X59752Y216392D02*X62752D01*
X63252Y215892D01*
Y214892D01*
X62752Y214392D01*
X59752D02*X62752D01*
X59252Y214892D02*X59752Y214392D01*
X59252Y215892D02*Y214892D01*
X60252Y216392D02*X62252Y214392D01*
X62452Y213192D02*X63252Y212392D01*
X59252D02*X63252D01*
X59252Y213192D02*Y211692D01*
M02*
