G04 start of page 5 for group 3 idx 3 *
G04 Title: (unknown), 3GND *
G04 Creator: pcb 20110918 *
G04 CreationDate: Tue Nov 19 22:18:25 2013 UTC *
G04 For: fosse *
G04 Format: Gerber/RS-274X *
G04 PCB-Dimensions: 550000 700000 *
G04 PCB-Coordinate-Origin: lower left *
%MOIN*%
%FSLAX25Y25*%
%LNBOTTOM*%
%ADD118C,0.1160*%
%ADD117C,0.1150*%
%ADD116C,0.0354*%
%ADD115C,0.1090*%
%ADD114C,0.0350*%
%ADD113C,0.0360*%
%ADD112C,0.0600*%
%ADD111C,0.0300*%
%ADD110R,0.0236X0.0236*%
%ADD109R,0.0177X0.0177*%
%ADD108R,0.0551X0.0551*%
%ADD107R,0.0354X0.0354*%
%ADD106R,0.0236X0.0236*%
%ADD105R,0.0157X0.0157*%
%ADD104R,0.0158X0.0158*%
%ADD103R,0.0197X0.0197*%
%ADD102R,0.0197X0.0197*%
%ADD101R,0.0197X0.0197*%
%ADD100R,0.0551X0.0551*%
%ADD99C,0.0550*%
%ADD98C,0.0494*%
%ADD97C,0.0544*%
%ADD96C,0.2700*%
%ADD95C,0.1300*%
%ADD94C,0.0394*%
%ADD93C,0.2500*%
%ADD92C,0.0150*%
%ADD91C,0.0200*%
%ADD90C,0.0100*%
%ADD89C,0.0001*%
G54D89*G36*
X225820Y178800D02*X291820D01*
Y169300D01*
X225820D01*
Y178800D01*
G37*
G54D90*X253452Y237334D02*Y224748D01*
X258000Y220200D01*
X256602Y230098D02*X262000Y224700D01*
X259751Y231949D02*X266000Y225700D01*
X256602Y237334D02*Y230098D01*
X259751Y237334D02*Y231949D01*
X262901Y237334D02*Y231799D01*
X266050Y237334D02*Y233250D01*
X269201Y237334D02*Y233299D01*
X266000Y225700D02*Y220200D01*
X262901Y231799D02*X270000Y224700D01*
X266050Y233250D02*X273800Y225500D01*
Y220200D01*
X269201Y233299D02*X277800Y224700D01*
X272350Y234150D02*X277900Y228600D01*
X278300D01*
X275499Y233801D02*X278200Y231100D01*
X253400Y256376D02*X253452Y256428D01*
X256602D02*Y261898D01*
X262901Y256428D02*Y261899D01*
X262900Y261900D01*
X256602Y261898D02*X256600Y261900D01*
X253400Y250500D02*Y256376D01*
X272350Y237334D02*Y234150D01*
X275499Y237334D02*Y233801D01*
X278649Y237334D02*Y234051D01*
X279900Y232800D01*
X280700D01*
X281798Y237334D02*Y234302D01*
X278300Y228600D02*X281700Y225200D01*
X278200Y231100D02*X279300D01*
X285700Y224700D01*
X280700Y232800D02*X285400Y228100D01*
X284949Y237334D02*Y242849D01*
X285000Y242900D01*
X291247Y237334D02*Y242847D01*
X291300Y242900D01*
X281700Y225200D02*Y220200D01*
X285400Y228100D02*X288200D01*
X289600Y226700D01*
Y220200D01*
X281798Y234302D02*X285900Y230200D01*
X288098Y237334D02*Y233402D01*
X288900Y232600D01*
X285900Y230200D02*X289700D01*
X288900Y232600D02*X290700D01*
X289700Y230200D02*X293600Y226300D01*
Y224700D01*
X290700Y232600D02*X294000Y229300D01*
X296100D01*
X297200Y228200D01*
X294397Y237334D02*Y233303D01*
X296200Y231500D01*
X300900D01*
X301800Y230600D01*
X297547Y237334D02*Y242847D01*
X297600Y242900D01*
X259751Y256428D02*Y250551D01*
X259700Y250500D01*
X266050Y256428D02*Y250550D01*
X266000Y250500D01*
X269201Y256428D02*Y261899D01*
X275499Y256428D02*Y261899D01*
X275500Y261900D01*
X269201Y261899D02*X269200Y261900D01*
X272350Y256428D02*Y250550D01*
X272300Y250500D01*
X278649Y256428D02*Y250549D01*
X278600Y250500D01*
X281798Y256428D02*Y261898D01*
X288098Y256428D02*Y261898D01*
X288100Y261900D01*
X281798Y261898D02*X281800Y261900D01*
X284949Y256428D02*Y250549D01*
X284900Y250500D01*
X291247Y256428D02*Y250547D01*
X291200Y250500D01*
X297547Y256428D02*Y250547D01*
X297500Y250500D01*
X294397Y256428D02*Y261897D01*
X294400Y261900D01*
G54D91*X243111Y145791D02*Y142138D01*
X235120Y136400D02*X247120D01*
X235120D02*X233120Y138400D01*
Y150700D02*Y138500D01*
X236812Y146192D02*Y142138D01*
X239962Y146058D02*Y142138D01*
Y146058D02*X238320Y147700D01*
X236812Y146200D02*X236820D01*
X238320Y147700D01*
X239120Y146900D01*
X227520Y169800D02*Y120700D01*
Y169800D02*X230520Y172800D01*
X246261Y145659D02*Y142138D01*
X249410D02*X249420Y138700D01*
X247120Y136400D02*X249420Y138700D01*
X252560Y142138D02*Y135840D01*
X255670Y142098D02*X255710Y142138D01*
X241720Y132400D02*Y129101D01*
X237220Y132600D02*Y129400D01*
X232520Y132400D02*Y129800D01*
Y132400D02*X232420Y132500D01*
X241720Y129101D02*X246221Y124600D01*
X243071Y123549D02*X237220Y129400D01*
X239922Y122398D02*X232520Y129800D01*
X274568Y123952D02*X273520Y125000D01*
X272220Y129400D02*X275920D01*
X272220D02*X271220Y128400D01*
X269120D02*X271220D01*
X255720Y149300D02*Y142148D01*
Y149300D02*X256620Y150200D01*
Y154500D02*Y150200D01*
Y154500D02*X260720Y158600D01*
Y165200D02*Y158600D01*
X239920Y157500D02*X243520D01*
X260720Y165200D02*X258820Y167100D01*
X244620D02*X258820D01*
X244620D02*X240820Y163300D01*
X243520Y157500D02*X247620Y161600D01*
X248820Y163300D02*Y162800D01*
X246920Y160900D01*
X230520Y172800D02*X276720D01*
X243111Y145791D02*X244620Y147300D01*
X246261Y145659D02*X244620Y147300D01*
X247820D01*
X252820Y152300D01*
X233120Y150700D02*X239920Y157500D01*
X238320Y149000D02*Y147700D01*
X276720Y172800D02*X281020Y168500D01*
Y156500D01*
X276820Y152300D01*
X281645Y141400D02*X288820D01*
X281645D02*X280907Y142138D01*
X277757Y145737D02*Y142138D01*
Y145737D02*X279020Y147000D01*
X287420D01*
X274607Y142138D02*X274620Y139200D01*
X277120Y136700D01*
X271458Y137362D02*X275720Y133100D01*
X271458Y142138D02*Y137362D01*
X268308Y142138D02*Y134712D01*
X265159Y142138D02*Y132361D01*
X268308Y134712D02*X270320Y132700D01*
X265159Y132361D02*X269120Y128400D01*
X262009Y142138D02*Y129911D01*
X263420Y128500D01*
X277120Y136700D02*X285020D01*
X275720Y133100D02*X289620D01*
X281896Y118000D02*X289920D01*
X281896D02*X280867Y119028D01*
X277717Y122797D02*Y119028D01*
Y122797D02*X279220Y124300D01*
X280920D01*
X283920Y127300D01*
X289920D01*
X274568Y123952D02*Y119028D01*
X252560Y135840D02*X251420Y134700D01*
X255670Y142098D02*Y119028D01*
X252520Y128500D02*X251620Y129400D01*
X258859Y142138D02*Y126161D01*
X252520Y128500D02*Y119028D01*
X249371Y124949D02*Y119028D01*
X246221Y124599D02*Y119028D01*
X246220Y131400D02*Y129151D01*
X249371Y126000D01*
Y120600D01*
X243071Y123549D02*Y119028D01*
X239922Y122398D02*Y119028D01*
X258859Y126161D02*X259420Y125600D01*
X236748Y119028D02*X236773D01*
X236748D02*X235220Y117500D01*
X230720D02*X235220D01*
X230720D02*X227520Y120700D01*
X230820Y101800D02*X239220D01*
X230820D02*X228220Y99200D01*
Y92800D01*
X249620Y102900D02*X245820Y99100D01*
X239620D02*X245820D01*
X239620D02*X237720Y97200D01*
Y91600D01*
X242220Y87100D01*
Y81100D01*
X251120Y72200D01*
X241820Y104400D02*X239220Y101800D01*
X229320Y76200D02*Y70700D01*
X231520Y68500D01*
X277720D01*
X228220Y92800D02*X233520Y87500D01*
Y80400D01*
X229320Y76200D01*
X277720Y68500D02*X279620Y70400D01*
X251120Y72200D02*X268020D01*
X279620Y84100D02*Y70400D01*
X268020Y72200D02*X275220Y79400D01*
Y87000D02*Y79400D01*
X279620Y84100D02*X279820Y84300D01*
X275220Y87000D02*X277620Y89400D01*
X281420D01*
X283920Y86900D01*
X278120Y101000D02*X283820Y95300D01*
X283920Y86900D02*Y73400D01*
X283820Y73300D01*
X285720Y66500D02*X286320D01*
X289920Y70100D01*
Y78500D02*Y70100D01*
Y78500D02*X291320Y79900D01*
Y100700D02*Y79900D01*
Y100700D02*X291920Y101300D01*
Y110600D02*Y101300D01*
Y110600D02*X289920Y112600D01*
X272818D02*X289920D01*
X272818D02*X271418Y114000D01*
Y119028D02*Y114000D01*
X268268Y107652D02*X274920Y101000D01*
X278120D01*
X253020Y113400D02*X257520D01*
X253520Y110200D02*X258920D01*
X253020Y113400D02*X249320Y109700D01*
X242920D02*X249320D01*
X242920D02*X241820Y108600D01*
Y104400D01*
X253520Y110200D02*X249620Y106300D01*
Y102900D01*
X258820Y119028D02*Y114700D01*
X257520Y113400D01*
X261970Y119028D02*Y113250D01*
X258920Y110200D01*
X265119Y119028D02*Y111199D01*
X268268Y119028D02*Y107652D01*
X265119Y111200D02*Y104601D01*
X265120Y104600D01*
G54D92*X317501Y414352D02*X317462Y403232D01*
X317460Y403230D01*
X313564Y414352D02*Y408736D01*
X313599Y408700D01*
X309627Y414352D02*X309568Y403258D01*
X309540Y403230D01*
X305690Y414352D02*Y408709D01*
X305699Y408700D01*
X301753Y414352D02*X301774Y403276D01*
X301820Y403230D01*
X297816Y414351D02*X297833Y408736D01*
X297816Y408718D01*
X293879Y414351D02*X293890Y403250D01*
X293910Y403230D01*
X289942Y414351D02*Y408744D01*
X289899Y408700D01*
X286005Y414351D02*X286050Y403250D01*
X286070Y403230D01*
X282068Y408744D02*X282025Y408700D01*
X282068Y414351D02*Y408744D01*
G54D90*X280100Y423800D02*Y430900D01*
X284037Y423800D02*Y435163D01*
X284000Y435200D01*
X287974Y423800D02*Y430874D01*
X288000Y430900D01*
X291911Y423800D02*Y435189D01*
X291900Y435200D01*
X295848Y423800D02*Y430852D01*
X295800Y430900D01*
X299700Y435100D02*X299748Y435148D01*
X299785Y423800D02*Y435111D01*
X299748Y435148D01*
X303748Y430900D02*Y423826D01*
X303722Y423800D01*
X311548Y430900D02*Y423848D01*
X311596Y423800D01*
X307659D02*X307711Y435089D01*
X307700Y435100D01*
X315533Y423800D02*X315537Y435363D01*
X315500Y435400D01*
G54D92*X222020Y426450D02*Y432120D01*
X222090Y432190D01*
X218941D02*Y423171D01*
X218892Y420308D01*
X215820Y426450D02*Y432162D01*
X215792Y432191D01*
G54D90*X225240Y413096D02*Y432190D01*
G54D92*X206320Y413074D02*X206342Y413096D01*
X209520Y406850D02*Y413068D01*
X209492Y413096D01*
X212623Y401223D02*X212620Y413074D01*
X203193Y413096D02*Y406923D01*
X203120Y406850D01*
X206323Y401223D02*X206320Y413074D01*
X200043Y413096D02*Y401243D01*
X200000Y401200D01*
X212620Y413074D02*X212641Y413096D01*
X215792D02*Y406878D01*
X215820Y406850D01*
X218923Y401223D02*X218920Y413074D01*
X218941Y413096D01*
X222090D02*Y406880D01*
X222120Y406850D01*
X212641Y432190D02*X212592Y420308D01*
X212620Y423150D01*
X209520Y426450D02*Y432162D01*
X209492Y432190D01*
X206342D02*X206292Y420308D01*
X206320Y423150D01*
X203220Y426450D02*Y432163D01*
X203193Y432190D01*
X200043D02*X200000Y420300D01*
X200028Y423142D01*
G54D90*X234689Y432190D02*Y436089D01*
X236300Y437700D01*
X237838Y432190D02*Y436162D01*
X236300Y437700D01*
X244138Y432190D02*Y436162D01*
X242600Y437700D01*
X240988Y432190D02*Y436088D01*
X242600Y437700D01*
G54D93*X95200Y461100D03*
X175200D03*
X375200D03*
X95200Y211100D03*
X175200D03*
G54D94*X248925Y239204D03*
G54D95*X187700Y224850D03*
X161700D03*
G54D96*X275500Y279000D03*
G54D97*X248666Y414966D03*
X195516D03*
G54D96*X222090Y379760D03*
X258820Y87800D03*
G54D98*X285395Y123005D03*
X232245D03*
G54D93*X455200Y461100D03*
Y211100D03*
X375200D03*
G54D94*X302075Y239204D03*
G54D89*G36*
X499270Y298330D02*Y292830D01*
X504770D01*
Y298330D01*
X499270D01*
G37*
G54D99*X522020Y295580D03*
G54D100*X40300Y564545D02*Y559230D01*
X32426Y564545D02*Y559230D01*
X48174Y537970D02*Y532655D01*
X80300Y537258D02*Y531943D01*
X64552Y537258D02*Y531943D01*
X32426Y537970D02*Y532655D01*
X80300Y563833D02*Y558518D01*
X72426Y563833D02*Y558518D01*
X64552Y563833D02*Y558518D01*
X48174Y564545D02*Y559230D01*
X48350Y577558D02*Y572243D01*
X32602Y577558D02*Y572243D01*
X64052Y578258D02*Y572943D01*
X64926Y645045D02*Y639730D01*
X48548Y643833D02*Y638518D01*
X40674Y643833D02*Y638518D01*
X32800Y643833D02*Y638518D01*
X64926Y618470D02*Y613155D01*
X48548Y617258D02*Y611943D01*
X32800Y617258D02*Y611943D01*
X48350Y604133D02*Y598818D01*
X40476Y604133D02*Y598818D01*
X32602Y604133D02*Y598818D01*
X71926Y604833D02*Y599518D01*
X64052Y604833D02*Y599518D01*
X111048Y605257D02*Y599942D01*
X103174Y605257D02*Y599942D01*
X95300Y605257D02*Y599942D01*
X80674Y645045D02*Y639730D01*
Y618470D02*Y613155D01*
X79800Y604833D02*Y599518D01*
X72800Y645045D02*Y639730D01*
X72444Y657767D02*Y652452D01*
X111048Y578682D02*Y573367D01*
X95300Y578682D02*Y573367D01*
X79800Y578258D02*Y572943D01*
X88192Y684342D02*Y679027D01*
Y657767D02*Y652452D01*
X80318Y684342D02*Y679027D01*
X72444Y684342D02*Y679027D01*
G54D101*X200043Y434218D02*Y430162D01*
X203193Y434218D02*Y430162D01*
X206342Y434218D02*Y430162D01*
X209492Y434218D02*Y430162D01*
X212641Y434218D02*Y430162D01*
G54D102*X215792Y434218D02*Y430163D01*
G54D101*X218941Y434218D02*Y430162D01*
X200043Y415123D02*Y411068D01*
X203193Y415123D02*Y411068D01*
X206342Y415123D02*Y411068D01*
X209492Y415123D02*Y411068D01*
X212641Y415123D02*Y411068D01*
G54D102*X215792Y415123D02*Y411069D01*
G54D101*X218941Y415123D02*Y411068D01*
X244138Y434218D02*Y430162D01*
X240988Y434218D02*Y430162D01*
X244138Y415123D02*Y411068D01*
X240988Y415123D02*Y411068D01*
X237838Y434218D02*Y430162D01*
Y415123D02*Y411068D01*
X234689Y415123D02*Y411068D01*
Y434218D02*Y430162D01*
X222090Y434218D02*Y430162D01*
X225240Y434218D02*Y430162D01*
X228389Y434218D02*Y430162D01*
G54D102*X231540Y434218D02*Y430163D01*
G54D101*X222090Y415123D02*Y411068D01*
X225240Y415123D02*Y411068D01*
X228389Y415123D02*Y411068D01*
G54D102*X231540Y415123D02*Y411069D01*
G54D101*X297547Y258456D02*Y254400D01*
X294397Y258456D02*Y254400D01*
X291247Y258456D02*Y254400D01*
X288098Y258456D02*Y254400D01*
G54D102*X284949Y258456D02*Y254401D01*
G54D101*X253452Y258456D02*Y254400D01*
X256602Y258456D02*Y254400D01*
X259751Y258456D02*Y254400D01*
X262901Y258456D02*Y254400D01*
X266050Y258456D02*Y254400D01*
G54D102*X269201Y258456D02*Y254401D01*
G54D101*X272350Y258456D02*Y254400D01*
X275499Y258456D02*Y254400D01*
X278649Y258456D02*Y254400D01*
X281798Y258456D02*Y254400D01*
X297547Y239361D02*Y235306D01*
X294397Y239361D02*Y235306D01*
X291247Y239361D02*Y235306D01*
X288098Y239361D02*Y235306D01*
G54D102*X284949Y239361D02*Y235307D01*
G54D101*X253452Y239361D02*Y235306D01*
X256602Y239361D02*Y235306D01*
X259751Y239361D02*Y235306D01*
X262901Y239361D02*Y235306D01*
X266050Y239361D02*Y235306D01*
G54D102*X269201Y239361D02*Y235307D01*
G54D101*X272350Y239361D02*Y235306D01*
X275499Y239361D02*Y235306D01*
X278649Y239361D02*Y235306D01*
X281798Y239361D02*Y235306D01*
G54D100*X142874Y230945D02*Y225630D01*
X135000Y230945D02*Y225630D01*
X127126Y230945D02*Y225630D01*
X142874Y204370D02*Y199055D01*
X127126Y204370D02*Y199055D01*
G54D102*X236773Y120839D02*Y117217D01*
G54D101*X236812Y143950D02*Y140327D01*
G54D102*X239962Y143949D02*Y140327D01*
G54D103*X243111Y143950D02*Y140326D01*
G54D102*X246261Y143949D02*Y140327D01*
X249410Y143949D02*Y140327D01*
X239922Y120839D02*Y117217D01*
G54D101*X243071Y120840D02*Y117217D01*
X246221Y120840D02*Y117217D01*
G54D102*X249371Y120839D02*Y117217D01*
G54D101*X258859Y143950D02*Y140327D01*
X262009Y143950D02*Y140327D01*
G54D102*X265159Y143949D02*Y140327D01*
G54D103*X268308Y143950D02*Y140326D01*
G54D102*X271458Y143949D02*Y140327D01*
X255710Y143949D02*Y140327D01*
X274607Y143949D02*Y140327D01*
G54D103*X277757Y143950D02*Y140326D01*
G54D102*X280907Y143949D02*Y140327D01*
G54D103*X252560Y143950D02*Y140326D01*
X258820Y120840D02*Y117216D01*
G54D101*X252520Y120840D02*Y117217D01*
X255670Y120840D02*Y117217D01*
G54D102*X261970Y120839D02*Y117217D01*
X265119Y120839D02*Y117217D01*
G54D101*X268268Y120840D02*Y117217D01*
X271418Y120840D02*Y117217D01*
G54D102*X274568Y120839D02*Y117217D01*
G54D101*X277717Y120840D02*Y117217D01*
X280867Y120840D02*Y117217D01*
G54D104*X315533Y426162D02*Y421438D01*
X311596Y426162D02*Y421438D01*
X307659Y426162D02*Y421438D01*
X303722Y426162D02*Y421438D01*
G54D105*X317501Y416713D02*Y411988D01*
X313564Y416713D02*Y411988D01*
X309627Y416713D02*Y411988D01*
G54D106*X321438Y425768D02*Y421831D01*
Y416319D02*Y412382D01*
G54D104*X299785Y426162D02*Y421438D01*
X295848Y426162D02*Y421438D01*
X291911Y426162D02*Y421438D01*
X287974Y426162D02*Y421438D01*
X284037Y426162D02*Y421438D01*
X280100Y426162D02*Y421438D01*
G54D106*X276162Y425768D02*Y421831D01*
G54D105*X305690Y416713D02*Y411988D01*
X301753Y416713D02*Y411988D01*
G54D104*X297816Y416713D02*Y411989D01*
X293879Y416713D02*Y411989D01*
X289942Y416713D02*Y411989D01*
X286005Y416713D02*Y411989D01*
X282068Y416713D02*Y411989D01*
G54D106*X276162Y416319D02*Y412382D01*
G54D107*X421063Y639850D02*X421810D01*
G54D106*X475098Y672331D02*Y669575D01*
G54D108*X495256Y608728D02*Y605578D01*
G54D102*X485610Y668985D02*X493288D01*
G54D109*X493386Y669083D02*Y660421D01*
G54D106*X455413Y672331D02*Y669575D01*
X451082Y672331D02*Y669575D01*
G54D110*X471752Y672330D02*Y669576D01*
G54D106*X468405Y672331D02*Y669575D01*
X464074Y672331D02*Y669575D01*
X459744Y672331D02*Y669575D01*
G54D110*X446752Y672330D02*Y669576D01*
G54D106*X442421Y672331D02*Y669575D01*
X438090Y672331D02*Y669575D01*
G54D102*X424784Y668985D02*X432658D01*
G54D107*X421063Y634850D02*X421810D01*
X421063Y629850D02*X421810D01*
X421063Y624850D02*X421810D01*
X421063Y619850D02*X421810D01*
X421063Y614850D02*X421810D01*
G54D100*X422027Y608728D02*Y605578D01*
G54D111*X256000Y199000D03*
X260039Y199039D03*
X263976Y199024D03*
X268000Y199000D03*
X271800D03*
X275800D03*
X279700D03*
X283600D03*
X287600D03*
X291600D03*
X258000Y220200D03*
X262000Y224700D03*
X266000Y220200D03*
X270000Y224700D03*
X273800Y220200D03*
X277800Y224700D03*
X281700Y220200D03*
X285700Y224700D03*
X289600Y220200D03*
X293600Y224700D03*
X297200Y228200D03*
X301800Y230600D03*
X253400Y250500D03*
X256600Y261900D03*
X259700Y250500D03*
X262900Y261900D03*
X266000Y250500D03*
X269200Y261900D03*
X272300Y250500D03*
X275500Y261900D03*
X278600Y250500D03*
X285000Y242900D03*
X291300D03*
X297600D03*
X281800Y261900D03*
X288100D03*
X294400D03*
X284900Y250500D03*
X291200D03*
X297500D03*
X203220Y426450D03*
X222020D03*
X215820D03*
X209520D03*
X203120Y406850D03*
X222120D03*
X215820D03*
X209520D03*
X218923Y401223D03*
X212623D03*
X206323D03*
X200000Y401200D03*
X218892Y420308D03*
X212592D03*
X206292D03*
X200000Y420300D03*
X204500Y465500D03*
X208400D03*
X212400D03*
X216300D03*
X220200D03*
X224200D03*
X228100D03*
X232100D03*
X282070Y465490D03*
X285970D03*
X289970D03*
X293870D03*
X297770D03*
X301770D03*
X305670D03*
X309670D03*
X313544D03*
X317544D03*
G54D112*X274890Y504660D03*
G54D111*X317460Y403230D03*
X313599Y408700D03*
X309540Y403230D03*
X305699Y408700D03*
X301820Y403230D03*
X297816Y408718D03*
X293910Y403230D03*
X289899Y408700D03*
X286070Y403230D03*
X282025Y408700D03*
X295800Y430900D03*
X291900Y435200D03*
X288000Y430900D03*
X284000Y435200D03*
X280100Y430900D03*
X311548D03*
X307700Y435100D03*
X315500Y435400D03*
X303748Y430900D03*
X299748Y435148D03*
G54D112*X266390Y555160D03*
G54D113*X302390Y558660D03*
G54D112*X271390Y610160D03*
G54D113*X283390Y603660D03*
X302890D03*
X296390D03*
X289890D03*
X304390Y564660D03*
X310390D03*
G54D112*X440500Y643500D03*
X457500Y642000D03*
X430500Y640000D03*
X436500Y614000D03*
X487000Y628000D03*
Y641500D03*
X451000Y697000D03*
X459744Y677744D03*
X451000Y677000D03*
X475500Y683000D03*
X472000Y652500D03*
X479000Y663000D03*
X442500Y652000D03*
X433500Y663000D03*
X449000Y662500D03*
G54D113*X347390Y584660D03*
G54D112*X400390Y599660D03*
X380390D03*
G54D113*X342890Y589160D03*
X342390Y614160D03*
X338890Y584660D03*
X333390Y574160D03*
X334890Y589160D03*
G54D112*X312890Y612660D03*
G54D113*X318390Y596160D03*
X329237Y592813D03*
G54D112*X383390Y520160D03*
Y535160D03*
X318890Y522660D03*
X332890Y514660D03*
X319890Y536160D03*
G54D113*X329890Y579660D03*
X327890Y585660D03*
X326796Y574066D03*
X332390Y562660D03*
X326890Y566160D03*
X333390Y554160D03*
X326669Y554381D03*
X252820Y152300D03*
X256820Y163300D03*
X248820D03*
X260820Y152300D03*
X268820D03*
X276820D03*
X272820Y163300D03*
X264820D03*
X232420Y132500D03*
X237220Y132600D03*
X246220Y131400D03*
X241720Y132400D03*
X251620Y129400D03*
X251420Y134700D03*
X240820Y163300D03*
X244820Y152300D03*
X238320Y149000D03*
X234220Y157400D03*
X288820Y141400D03*
X285020Y136700D03*
X289620Y133100D03*
X287420Y147000D03*
X289920Y118000D03*
Y127300D03*
X270320Y132700D03*
X263420Y128500D03*
X259420Y125600D03*
X275920Y129400D03*
X273520Y125000D03*
X265119Y104601D03*
X233820Y95300D03*
X237820Y84300D03*
X229820D03*
X233820Y73300D03*
X241820Y95300D03*
Y73300D03*
X237820Y106300D03*
X237520Y112900D03*
X229520Y113700D03*
X247020Y113200D03*
X245820Y106300D03*
X287820D03*
X283820Y95300D03*
X275820D03*
X279820Y106300D03*
Y84300D03*
X287820D03*
X275820Y73300D03*
X283820D03*
X285720Y66500D03*
G54D92*G54D114*G54D92*G54D114*G54D91*G54D114*G54D91*G54D114*G54D91*G54D114*G54D91*G54D114*G54D91*G54D114*G54D91*G54D115*G54D116*G54D117*G54D118*G54D116*G54D118*G54D116*G54D115*G54D116*G54D111*M02*
