G04 start of page 2 for group 0 idx 0 *
G04 Title: (unknown), 1top *
G04 Creator: pcb 20110918 *
G04 CreationDate: Tue Nov 19 22:18:25 2013 UTC *
G04 For: fosse *
G04 Format: Gerber/RS-274X *
G04 PCB-Dimensions: 550000 700000 *
G04 PCB-Coordinate-Origin: lower left *
%MOIN*%
%FSLAX25Y25*%
%LNTOP*%
%ADD49C,0.1160*%
%ADD48C,0.1150*%
%ADD47C,0.0354*%
%ADD46C,0.1090*%
%ADD45C,0.0350*%
%ADD44C,0.0360*%
%ADD43C,0.0600*%
%ADD42C,0.0300*%
%ADD41R,0.0142X0.0142*%
%ADD40R,0.0669X0.0669*%
%ADD39R,0.0098X0.0098*%
%ADD38R,0.0098X0.0098*%
%ADD37C,0.0039*%
%ADD36R,0.0110X0.0110*%
%ADD35R,0.0591X0.0591*%
%ADD34R,0.0590X0.0590*%
%ADD33R,0.0400X0.0400*%
%ADD32R,0.0157X0.0157*%
%ADD31R,0.0158X0.0158*%
%ADD30R,0.0295X0.0295*%
%ADD29R,0.1450X0.1450*%
%ADD28R,0.0866X0.0866*%
%ADD27R,0.0335X0.0335*%
%ADD26R,0.0236X0.0236*%
%ADD25R,0.0118X0.0118*%
%ADD24R,0.0512X0.0512*%
%ADD23R,0.0340X0.0340*%
%ADD22C,0.0550*%
%ADD21C,0.0494*%
%ADD20C,0.0544*%
%ADD19C,0.2700*%
%ADD18C,0.1300*%
%ADD17C,0.0394*%
%ADD16C,0.2500*%
%ADD15C,0.0200*%
%ADD14C,0.0100*%
%ADD13C,0.0150*%
%ADD12C,0.0250*%
%ADD11C,0.0001*%
G54D11*G36*
X293920Y641140D02*Y691140D01*
X343920D01*
Y641140D01*
X293920D01*
G37*
G36*
X225820Y178800D02*X291820D01*
Y169300D01*
X225820D01*
Y178800D01*
G37*
G54D12*X431000Y608000D02*X486000D01*
X493000Y615000D02*X486000Y608000D01*
X479957Y613500D02*X480000Y613457D01*
X476000Y613500D02*X479957D01*
X474000Y615500D02*X476000Y613500D01*
X440500Y643900D02*Y635000D01*
X428950Y641550D02*X430500Y640000D01*
X428950Y648500D02*Y641550D01*
X440500Y643900D02*X435900Y648500D01*
X431000Y614000D02*X436500D01*
X431000Y620000D02*X454500D01*
X431000Y625500D02*X445500D01*
X431000Y631000D02*X436500D01*
X440500Y635000D02*X436500Y631000D01*
X449000Y629000D02*X445500Y625500D01*
X457500Y623000D02*X454500Y620000D01*
X479957Y620586D02*X480000Y620543D01*
X487043Y628043D02*X487000Y628000D01*
X487043Y634500D02*Y628043D01*
X479957Y634500D02*Y620586D01*
X479000Y635457D02*X479957Y634500D01*
X449000Y648600D02*Y629000D01*
X457500Y648300D02*Y623000D01*
X466500Y650500D02*X474000Y643000D01*
X472000Y651000D02*X474500Y648500D01*
X472000Y652500D02*Y651000D01*
X457500Y648300D02*X457200Y648600D01*
X493000Y638000D02*Y615000D01*
X489500Y641500D02*X493000Y638000D01*
X487000Y641500D02*X489500D01*
X487200Y641700D02*X487000Y641500D01*
X487200Y648500D02*Y641700D01*
X479000Y663000D02*Y655450D01*
X474000Y643000D02*Y615500D01*
X479000Y648500D02*Y635457D01*
X474500Y648500D02*X479000D01*
X466500Y655000D02*Y650500D01*
X467500Y697000D02*Y690043D01*
Y682957D02*Y656000D01*
X466500Y655000D01*
X467457Y683000D02*X467500Y682957D01*
X457500Y685000D02*X462000D01*
X455500Y683000D02*X457500Y685000D01*
X451000Y683000D02*X455500D01*
X451000D02*Y677000D01*
X462000Y685000D02*X464000Y683000D01*
X451393Y696607D02*X451000Y697000D01*
X451393Y696607D02*Y690086D01*
X464000Y683000D02*X467457D01*
X449000Y662500D02*Y655550D01*
X442500Y652000D02*X449000Y648600D01*
X435900Y660600D02*X433500Y663000D01*
X435900Y660600D02*Y656700D01*
G54D13*X282068Y459839D02*Y465488D01*
X282070Y465490D01*
X286005Y459839D02*Y465455D01*
X285970Y465490D01*
X289942Y459839D02*Y465462D01*
X289970Y465490D01*
G54D12*X274831Y504601D02*X274890Y504660D01*
X262390Y504601D02*X274831D01*
G54D14*X262449Y509660D02*X274390D01*
X262390Y509719D02*X262449Y509660D01*
G54D13*X293879Y459839D02*Y465481D01*
X293870Y465490D01*
X297816Y459839D02*Y465444D01*
X297770Y465490D01*
X301753Y459840D02*Y465473D01*
X301770Y465490D01*
X305690Y459840D02*Y465470D01*
X305670Y465490D01*
X309627Y459840D02*Y465447D01*
X309670Y465490D01*
X313564Y459840D02*Y465470D01*
X317501Y459840D02*Y465447D01*
X317544Y465490D01*
X313564Y465470D02*X313544Y465490D01*
G54D14*X280100Y450390D02*Y430900D01*
X284037Y450390D02*Y435237D01*
X284000Y435200D01*
X287974Y450390D02*Y430926D01*
X288000Y430900D01*
X295848Y450390D02*Y430948D01*
X295800Y430900D01*
X291911Y450390D02*Y435211D01*
X291900Y435200D01*
X299748Y435148D02*Y450353D01*
X299785Y450390D01*
X303722D02*Y430926D01*
X307659Y450390D02*X307711Y435111D01*
X303722Y430926D02*X303748Y430900D01*
X307711Y435111D02*X307700Y435100D01*
X311596Y450390D02*Y430948D01*
X311548Y430900D01*
X315533Y450390D02*X315537Y435437D01*
X315500Y435400D01*
G54D13*X210404Y444404D02*X206320Y440320D01*
X214341Y443841D02*X209520Y439020D01*
X218278Y443278D02*X212620Y437620D01*
X214341Y450400D02*Y443841D01*
X218278Y450400D02*Y443278D01*
X209520Y426450D02*Y439020D01*
X212592Y420308D02*X212620Y437620D01*
X215820Y426450D02*Y436320D01*
X218871Y420287D02*X218920Y434920D01*
X222020Y426450D02*Y433520D01*
X222215Y450400D02*Y442715D01*
X226152Y450400D02*Y442152D01*
X218920Y434920D01*
X230089Y450400D02*Y441589D01*
X222020Y433520D01*
X215820Y436320D02*X222215Y442715D01*
X200000Y420300D02*X200028Y443028D01*
X203220Y426450D02*Y441720D01*
X202530Y450400D02*Y445530D01*
X200028Y443028D01*
X206467Y450400D02*Y444967D01*
X203220Y441720D02*X206467Y444967D01*
X210404Y450400D02*Y444404D01*
X206292Y420308D02*X206320Y440320D01*
X204498Y459849D02*Y465498D01*
X204500Y465500D01*
X208435Y459849D02*Y465465D01*
X208400Y465500D01*
X212372Y459849D02*Y465472D01*
X212400Y465500D01*
X216309Y459849D02*Y465491D01*
X216300Y465500D01*
X220246Y459849D02*Y465454D01*
X220200Y465500D01*
X224183Y459850D02*Y465483D01*
X228120Y459850D02*Y465480D01*
X228100Y465500D01*
X232057Y459850D02*Y465457D01*
X232100Y465500D01*
X224183Y465483D02*X224200Y465500D01*
G54D14*X256102Y205006D02*Y199102D01*
X256000Y199000D01*
X260039Y205006D02*Y199039D01*
X260000Y199000D01*
X263976Y205006D02*Y199024D01*
X264000Y199000D01*
X267913Y205006D02*Y199087D01*
X268000Y199000D01*
X271850Y205006D02*Y199050D01*
X271800Y199000D01*
X275787Y205006D02*Y199013D01*
X275800Y199000D01*
X279724Y205006D02*Y199024D01*
X279700Y199000D01*
X283661Y205006D02*Y199061D01*
X283600Y199000D01*
X287598Y205006D02*Y199002D01*
X287600Y199000D01*
X291535Y205006D02*Y199065D01*
X291600Y199000D01*
X258070Y214454D02*Y220130D01*
X258000Y220200D01*
X262007Y214454D02*Y224693D01*
X262000Y224700D01*
X265944Y214454D02*Y220144D01*
X266000Y220200D01*
X269881Y214454D02*Y224581D01*
X270000Y224700D01*
X273818Y214454D02*Y220182D01*
X273800Y220200D01*
X277755Y214455D02*Y224655D01*
X281692Y214455D02*Y220192D01*
X281700Y220200D01*
X277755Y224655D02*X277800Y224700D01*
X285629Y214455D02*Y224629D01*
X285700Y224700D01*
X289566Y214455D02*Y220166D01*
X289600Y220200D01*
X293503Y214455D02*Y224603D01*
X293600Y224700D01*
G54D15*X270420Y115000D02*X263420Y122000D01*
Y128500D02*Y122000D01*
X232520Y141500D02*X274020D01*
X264820Y136900D02*X273820D01*
X255220Y127300D02*X264820Y136900D01*
X255220Y127300D02*Y126500D01*
X241820Y113100D02*X255220Y126500D01*
X241820Y113100D02*Y95300D01*
X259420Y125600D02*X247020Y113200D01*
X232220Y118200D02*X237520Y112900D01*
X230520Y118200D02*X232220D01*
X227520Y121200D02*X230520Y118200D01*
X227520Y136500D02*Y121200D01*
X232520Y141500D02*X227520Y136500D01*
X270420Y115000D02*X273920D01*
X275620Y113300D02*X273920Y115000D01*
X275620Y113300D02*Y103200D01*
Y109800D02*Y102100D01*
X286020Y86100D02*X287820Y84300D01*
X286020Y88300D02*Y86100D01*
X284620Y89700D02*X286020Y88300D01*
X281020Y89700D02*X284620D01*
X279920Y90800D02*X281020Y89700D01*
X279920Y98900D02*Y90800D01*
Y99400D02*Y98200D01*
X278320Y101000D02*X279920Y99400D01*
X276720Y101000D02*X278320D01*
X275620Y102100D02*X276720Y101000D01*
X283920Y118000D02*X289920D01*
X280620Y121300D02*X283920Y118000D01*
X280620Y130100D02*Y121300D01*
X289520Y133200D02*X289620Y133100D01*
X282320Y133200D02*X289520D01*
X274020Y141500D02*X282320Y133200D01*
X273820Y136900D02*X280620Y130100D01*
G54D14*X399390Y606160D02*X403390Y610160D01*
X376390Y606160D02*X399390D01*
X374512Y604282D02*X376390Y606160D01*
X374512Y600719D02*Y604282D01*
G54D12*X386847Y599660D02*X380390D01*
G54D14*X383449Y587845D02*X393075D01*
X389543Y589813D02*X390390Y590660D01*
X383449Y589813D02*X389543D01*
X383449Y591782D02*X386512D01*
G54D12*X387890Y598617D02*X387118Y599388D01*
X393890Y599617D02*X393933Y599660D01*
X393890Y594160D02*Y599617D01*
G54D14*X387890Y598617D02*X386847Y599660D01*
G54D12*X387890Y593160D02*Y598617D01*
X390390Y590660D02*X393890Y594160D01*
G54D14*X386512Y591782D02*X387890Y593160D01*
X336433Y607617D02*X339079Y604971D01*
X335390Y607617D02*X336433D01*
X347390Y590660D02*Y584660D01*
X337111Y597439D02*X341390Y593160D01*
X335142Y596908D02*X342890Y589160D01*
X338890Y590660D02*Y584660D01*
X333174Y596376D02*X338890Y590660D01*
X334890Y592160D02*Y589160D01*
X331205Y595845D02*X334890Y592160D01*
X337111Y600719D02*Y597439D01*
X335142Y600719D02*Y596908D01*
X333174Y600719D02*Y596376D01*
X331205Y600719D02*Y595845D01*
G54D12*X395670Y587845D02*X398985Y591160D01*
X392890Y587845D02*X395670D01*
X402295Y599660D02*X410795Y591160D01*
X393890Y599660D02*X402295D01*
G54D14*X339079Y600719D02*Y604971D01*
X341847Y614703D02*X342390Y614160D01*
X335390Y614703D02*X341847D01*
X335433Y607660D02*X335390Y607617D01*
X344890Y593160D02*X347390Y590660D01*
X341390Y593160D02*X344890D01*
G54D12*X316847Y612660D02*X320347Y609160D01*
X312890Y612660D02*X316847D01*
G54D14*X320390Y609117D02*X320347Y609160D01*
X320390Y605660D02*Y609117D01*
X321390Y604660D02*X320390Y605660D01*
X326390Y604660D02*X321390D01*
X327268Y603782D02*X326390Y604660D01*
X327268Y600719D02*Y603782D01*
X329237Y607356D02*X327433Y609160D01*
X329237Y592813D02*Y607356D01*
X313890Y590660D02*Y603160D01*
X308890Y593160D02*Y602160D01*
X309890Y592160D02*X308890Y593160D01*
X305890Y611160D02*X313890Y603160D01*
X304890Y609160D02*X311890Y602160D01*
X303890Y607160D02*X308890Y602160D01*
X290890Y611160D02*X305890D01*
X295390Y609160D02*X304890D01*
X298390Y607160D02*X303890D01*
X296390Y605160D02*X298390Y607160D01*
X296390Y603660D02*Y605160D01*
X306390Y600160D02*X302890Y603660D01*
X306390Y592160D02*Y600160D01*
X301433Y597160D02*Y593617D01*
X307890Y590660D02*X306390Y592160D01*
G54D12*X379847Y523703D02*X383390Y520160D01*
X379847Y527660D02*Y523703D01*
X386933Y531617D02*X383390Y535160D01*
X386933Y527660D02*Y531617D01*
G54D14*X374512Y532995D02*X379847Y527660D01*
X374512Y535601D02*Y532995D01*
X327268Y532538D02*X323890Y529160D01*
X327268Y535601D02*Y532538D01*
X331205Y535601D02*Y528345D01*
X329236Y530506D02*X325890Y527160D01*
X329236Y535660D02*Y530506D01*
G54D12*X325890Y522660D02*X318890D01*
X332890D02*Y514660D01*
G54D14*Y523246D02*X332976Y523160D01*
X332890Y526660D02*Y523246D01*
X331205Y528345D02*X332890Y526660D01*
X325890Y527160D02*Y523160D01*
X283390Y603660D02*X290890Y611160D01*
X289890Y603660D02*X295390Y609160D01*
X276390Y585160D02*X294347D01*
Y597160D02*X276516D01*
X278390Y607601D02*Y600688D01*
X276390Y585160D02*X269390Y592160D01*
X278390Y600688D02*X275689Y597987D01*
X276516Y597160D02*X275689Y597987D01*
X261890Y599187D02*X262654Y598424D01*
X261890Y608601D02*Y599187D01*
X263417Y597660D02*X263090Y597987D01*
X267390Y597660D02*X263417D01*
X269390Y595660D02*X267390Y597660D01*
X269390Y592160D02*Y595660D01*
G54D12*X261890Y613719D02*X267831D01*
X273949Y612719D02*X271390Y610160D01*
X278390Y612719D02*X273949D01*
X267831Y613719D02*X271390Y610160D01*
G54D14*X323890Y529160D02*X311390D01*
G54D12*X311795Y536160D02*X319890D01*
G54D14*X311390Y529160D02*X309890Y527660D01*
X307890Y542160D02*Y527660D01*
X305890Y544160D02*Y527660D01*
X306890Y545160D02*X305890Y544160D01*
X303890Y545160D02*Y527660D01*
X299890Y529160D02*Y536065D01*
X297433Y526703D02*X299890Y529160D01*
X297433Y517660D02*Y526703D01*
X308890Y543160D02*X307890Y542160D01*
X314390Y543160D02*X308890D01*
X313390Y545160D02*X306890D01*
X315768Y544538D02*X314390Y543160D01*
X318331Y544538D02*X315768D01*
X314737Y546507D02*X313390Y545160D01*
X318331Y546507D02*X314737D01*
X312390Y550160D02*X311390Y549160D01*
X312390Y551160D02*Y550160D01*
X313642Y552412D02*X312390Y551160D01*
X318331Y552412D02*X313642D01*
X311170Y554381D02*X309449Y552660D01*
X317669Y554381D02*X311170D01*
X302890Y558160D02*X302390Y558660D01*
X308390Y560660D02*X304390Y564660D01*
X310827Y564223D02*X310390Y564660D01*
X312890Y558160D02*X302890D01*
X311890Y560660D02*X308390D01*
X318079Y556349D02*X305579D01*
X313485Y562255D02*X311890Y560660D01*
X318331Y562255D02*X313485D01*
X315016Y560286D02*X312890Y558160D01*
X318331Y560286D02*X315016D01*
X318331Y564223D02*X310827D01*
X304390Y552719D02*X304331Y552660D01*
X304390Y555160D02*Y552719D01*
X305579Y556349D02*X304390Y555160D01*
X330390Y560660D02*X332390Y562660D01*
X324890Y560660D02*X330390D01*
X326858Y566192D02*X326890Y566160D01*
X318331Y566192D02*X326858D01*
X322548Y558318D02*X324890Y560660D01*
X318331Y558318D02*X322548D01*
X329674Y550444D02*X333390Y554160D01*
X329890Y557660D02*X333390Y554160D01*
X318331Y550444D02*X329674D01*
X324890Y557660D02*X329890D01*
X323579Y556349D02*X324890Y557660D01*
X318331Y556349D02*X323579D01*
X318331Y554381D02*X326669D01*
G54D12*X266390Y555160D02*Y536660D01*
G54D14*X275890Y526160D02*X274390D01*
X280890Y531160D02*X275890Y526160D01*
X280890Y550660D02*Y531160D01*
X283890Y553660D02*X280890Y550660D01*
G54D12*X262831Y558719D02*X266390Y555160D01*
X262831Y562660D02*Y558719D01*
G54D14*X269449Y564160D02*X267949Y562660D01*
X285890Y564160D02*X269449D01*
X286368Y563682D02*X285890Y564160D01*
X288347Y553660D02*X283890D01*
X288347Y565660D02*X286347Y563660D01*
X299890Y536065D02*X299985Y536160D01*
X299890Y536255D02*X299985Y536160D01*
X299890Y545660D02*Y536255D01*
X295390Y553703D02*X295433Y553660D01*
X295390Y558160D02*Y553703D01*
X313705Y548475D02*X312390Y547160D01*
X318331Y548475D02*X313705D01*
X305890Y547160D02*X303890Y545160D01*
X312390Y547160D02*X305890D01*
X303390Y549160D02*X299890Y545660D01*
X311390Y549160D02*X303390D01*
X299890Y562660D02*X295390Y558160D01*
X299902Y570129D02*X295433Y565660D01*
X299890D02*Y562660D01*
X302390Y568160D02*X299890Y565660D01*
X301890Y577160D02*X300890Y576160D01*
X313390Y579660D02*X311890D01*
X310890Y577660D02*X309390Y579160D01*
X312390Y577660D02*X310890D01*
X314016Y576034D02*X312390Y577660D01*
X309890Y575660D02*X308390Y577160D01*
X311390Y575660D02*X309890D01*
X315047Y578003D02*X313390Y579660D01*
X318331Y578003D02*X315047D01*
X318331Y576034D02*X314016D01*
X318331Y570129D02*X299902D01*
X300890Y573719D02*X300831Y573660D01*
X300890Y576160D02*Y573719D01*
X308390Y577160D02*X301890D01*
X312984Y574066D02*X311390Y575660D01*
X317890Y574066D02*X312984D01*
X318268Y572160D02*X318331Y572097D01*
X311890Y572160D02*X318268D01*
X329890Y570660D02*X333390Y574160D01*
X324890Y570660D02*X329890D01*
X323453Y572097D02*X324890Y570660D01*
X325579Y579971D02*X325890Y579660D01*
X329890D02*X325890D01*
X311890Y589660D02*Y602160D01*
X301433Y593617D02*X305890Y589160D01*
X311890Y579660D02*X305890Y585660D01*
X307433Y579160D02*X301433Y585160D01*
X309390Y579160D02*X307433D01*
X305890Y589160D02*Y585660D01*
X307890Y587660D02*Y590660D01*
X309890Y588660D02*Y592160D01*
X311642Y583908D02*X307890Y587660D01*
X312673Y585877D02*X309890Y588660D01*
X318331Y596101D02*X318390Y596160D01*
X318331Y591782D02*Y596101D01*
Y585877D02*X312673D01*
X313705Y587845D02*X311890Y589660D01*
X318331Y587845D02*X313705D01*
X314736Y589814D02*X313890Y590660D01*
X318331Y589814D02*X314736D01*
X318331Y568160D02*X302390D01*
X310390Y573660D02*X311890Y572160D01*
X305949Y573660D02*X310390D01*
X324170Y581940D02*X327890Y585660D01*
X318331Y583908D02*X311642D01*
X318331Y572097D02*X323453D01*
X318331Y579971D02*X325579D01*
X318331Y581940D02*X324170D01*
X318331Y574066D02*X326796D01*
G54D16*X95200Y461100D03*
X175200D03*
X375200D03*
X95200Y211100D03*
X175200D03*
G54D17*X248925Y239204D03*
G54D18*X187700Y224850D03*
X161700D03*
G54D19*X275500Y279000D03*
G54D20*X248666Y414966D03*
X195516D03*
G54D19*X222090Y379760D03*
X258820Y87800D03*
G54D21*X285395Y123005D03*
X232245D03*
G54D16*X455200Y461100D03*
Y211100D03*
X375200D03*
G54D17*X302075Y239204D03*
G54D11*G36*
X499270Y298330D02*Y292830D01*
X504770D01*
Y298330D01*
X499270D01*
G37*
G54D22*X522020Y295580D03*
G54D23*X509513Y137228D02*X509813D01*
X509213Y145728D02*Y145128D01*
X516613Y137528D02*Y136928D01*
Y145728D02*Y145128D01*
G54D24*X516627Y158621D02*Y157835D01*
X523713Y158621D02*Y157835D01*
G54D23*X500013Y160728D02*X500313D01*
X507113Y161028D02*Y160428D01*
X497513Y196228D02*X497813D01*
X504613Y196528D02*Y195928D01*
Y204728D02*Y204128D01*
X497213Y204728D02*Y204128D01*
G54D25*X517110Y183965D02*X519078D01*
X517110Y185933D02*X519078D01*
X517110Y187902D02*X519078D01*
X517110Y189870D02*X519078D01*
X517110Y191839D02*X519078D01*
X517110Y193807D02*X519078D01*
X517110Y195776D02*X519078D01*
X517110Y197744D02*X519078D01*
X517110Y199713D02*X519078D01*
X517110Y201681D02*X519078D01*
X517110Y203650D02*X519078D01*
X517110Y205618D02*X519078D01*
X517110Y207587D02*X519078D01*
X517110Y209555D02*X519078D01*
G54D24*X497713Y182121D02*Y181335D01*
X504799Y182121D02*Y181335D01*
G54D23*X507113Y169228D02*Y168628D01*
X499713Y169228D02*Y168628D01*
G54D25*X517110Y180028D02*X519078D01*
X517110Y181996D02*X519078D01*
G54D26*X526126Y180225D02*Y179437D01*
G54D27*X530004Y176583D02*Y174811D01*
G54D28*X524001Y173925D02*Y169988D01*
G54D23*X500013Y214228D02*X500313D01*
X507113Y214528D02*Y213928D01*
Y222728D02*Y222128D01*
X499713Y222728D02*Y222128D01*
X500013Y233728D02*X500313D01*
G54D27*X530004Y222646D02*Y220874D01*
G54D26*X526126Y218020D02*Y217232D01*
G54D25*X517110Y213492D02*X519078D01*
X517110Y211524D02*X519078D01*
X517110Y217429D02*X519078D01*
X517110Y215461D02*X519078D01*
G54D28*X524000Y227468D02*Y223531D01*
G54D23*X499513Y247728D02*X499813D01*
X506613Y248028D02*Y247428D01*
Y256228D02*Y255628D01*
X499213Y256228D02*Y255628D01*
X507113Y234028D02*Y233428D01*
Y242228D02*Y241628D01*
G54D29*X516320Y328080D02*Y324080D01*
G54D23*X499713Y242228D02*Y241628D01*
G54D29*X494520Y328080D02*Y324080D01*
G54D30*X497477Y351129D02*Y350145D01*
X502595Y351129D02*Y350145D01*
G54D24*X502520Y368761D02*Y366399D01*
X531020Y394973D02*Y394187D01*
X494934Y403473D02*Y402687D01*
X502020Y403473D02*Y402687D01*
X518020Y404473D02*Y403687D01*
X538106Y394973D02*Y394187D01*
G54D30*X513020Y377572D02*Y376588D01*
X518138Y377572D02*Y376588D01*
G54D24*X514330Y368761D02*Y366399D01*
X513020Y388973D02*Y388187D01*
X520106Y388973D02*Y388187D01*
X510934Y404473D02*Y403687D01*
X495520Y377973D02*Y377187D01*
X502606Y377973D02*Y377187D01*
X497434Y389973D02*Y389187D01*
X504520Y389973D02*Y389187D01*
X67964Y506943D02*Y506157D01*
X75050Y506943D02*Y506157D01*
X50534Y555683D02*Y554897D01*
X57620Y555683D02*Y554897D01*
X63034Y530683D02*Y529897D01*
X70120Y530683D02*Y529897D01*
X58120Y638683D02*Y637897D01*
X51948Y622183D02*Y621397D01*
X59034Y622183D02*Y621397D01*
X46448Y592683D02*Y591897D01*
X53534Y592683D02*Y591897D01*
X50534Y675183D02*Y674397D01*
X57620Y675183D02*Y674397D01*
X50034Y658183D02*Y657397D01*
X57120Y658183D02*Y657397D01*
X51034Y638683D02*Y637897D01*
G54D31*X237963Y452762D02*Y448038D01*
X234026Y452762D02*Y448038D01*
G54D32*X239931Y462212D02*Y457487D01*
G54D26*X243868Y452369D02*Y448432D01*
Y461818D02*Y457881D01*
G54D31*X230089Y452762D02*Y448038D01*
X226152Y452762D02*Y448038D01*
X222215Y452762D02*Y448038D01*
G54D32*X235994Y462212D02*Y457487D01*
X232057Y462212D02*Y457487D01*
X228120Y462212D02*Y457487D01*
X224183Y462212D02*Y457487D01*
G54D31*X218278Y452762D02*Y448038D01*
X214341Y452762D02*Y448038D01*
X210404Y452762D02*Y448038D01*
X206467Y452762D02*Y448038D01*
X202530Y452762D02*Y448038D01*
X220246Y462211D02*Y457487D01*
X216309Y462211D02*Y457487D01*
X212372Y462211D02*Y457487D01*
X208435Y462211D02*Y457487D01*
X204498Y462211D02*Y457487D01*
G54D26*X198592Y461818D02*Y457881D01*
Y452369D02*Y448432D01*
G54D31*X291535Y207368D02*Y202644D01*
X287598Y207368D02*Y202644D01*
X283661Y207368D02*Y202644D01*
X279724Y207368D02*Y202644D01*
X275787Y207368D02*Y202644D01*
X271850Y207368D02*Y202644D01*
G54D32*X293503Y216818D02*Y212093D01*
X289566Y216818D02*Y212093D01*
X285629Y216818D02*Y212093D01*
G54D26*X297440Y206975D02*Y203038D01*
Y216424D02*Y212487D01*
G54D31*X267913Y207368D02*Y202644D01*
X263976Y207368D02*Y202644D01*
X260039Y207368D02*Y202644D01*
X256102Y207368D02*Y202644D01*
G54D26*X252164Y206975D02*Y203038D01*
G54D32*X281692Y216818D02*Y212093D01*
X277755Y216818D02*Y212093D01*
G54D31*X273818Y216817D02*Y212093D01*
X269881Y216817D02*Y212093D01*
X265944Y216817D02*Y212093D01*
X262007Y216817D02*Y212093D01*
X258070Y216817D02*Y212093D01*
G54D26*X252164Y216424D02*Y212487D01*
G54D33*X287820Y107800D02*Y104800D01*
Y85800D02*Y82800D01*
X283820Y74800D02*Y71800D01*
X279820Y107800D02*Y104800D01*
Y85800D02*Y82800D01*
X275820Y74800D02*Y71800D01*
X271820Y107800D02*Y104800D01*
X283820Y96800D02*Y93800D01*
X275820Y96800D02*Y93800D01*
X240820Y164800D02*Y161800D01*
X248820Y164800D02*Y161800D01*
X244820Y153800D02*Y150800D01*
X229820Y107800D02*Y104800D01*
Y85800D02*Y82800D01*
X233820Y74800D02*Y71800D01*
X237820Y107800D02*Y104800D01*
Y85800D02*Y82800D01*
X241820Y74800D02*Y71800D01*
X245820Y107800D02*Y104800D01*
X233820Y96800D02*Y93800D01*
X241820Y96800D02*Y93800D01*
X252820Y153800D02*Y150800D01*
X256820Y164800D02*Y161800D01*
X264820Y164800D02*Y161800D01*
X272820Y164800D02*Y161800D01*
X260820Y153800D02*Y150800D01*
X268820Y153800D02*Y150800D01*
X276820Y153800D02*Y150800D01*
G54D31*X315533Y452752D02*Y448028D01*
X311596Y452752D02*Y448028D01*
X307659Y452752D02*Y448028D01*
G54D26*X321438Y452359D02*Y448422D01*
Y461808D02*Y457871D01*
G54D31*X303722Y452752D02*Y448028D01*
X299785Y452752D02*Y448028D01*
X295848Y452752D02*Y448028D01*
X291911Y452752D02*Y448028D01*
X284037Y452752D02*Y448028D01*
X280100Y452752D02*Y448028D01*
G54D26*X276162Y452359D02*Y448422D01*
G54D32*X305690Y462202D02*Y457477D01*
X301753Y462202D02*Y457477D01*
G54D31*X297816Y462201D02*Y457477D01*
X293879Y462201D02*Y457477D01*
X289942Y462201D02*Y457477D01*
X286005Y462201D02*Y457477D01*
X282068Y462201D02*Y457477D01*
G54D26*X276162Y461808D02*Y457871D01*
G54D31*X287974Y452752D02*Y448028D01*
G54D24*X288347Y554053D02*Y553267D01*
X295433Y554053D02*Y553267D01*
X290347Y518053D02*Y517267D01*
G54D30*X261898Y509719D02*X262882D01*
X261898Y504601D02*X262882D01*
X262831Y563152D02*Y562168D01*
X267949Y563152D02*Y562168D01*
G54D34*X274811Y562553D02*Y548773D01*
Y525546D02*Y511766D01*
G54D24*X299985Y537341D02*Y534979D01*
X297433Y518053D02*Y517267D01*
G54D35*X264968Y537160D02*X274811D01*
G54D30*X304331Y553152D02*Y552168D01*
X309449Y553152D02*Y552168D01*
G54D36*X315882Y564223D02*X320780D01*
X315882Y562255D02*X320780D01*
X315882Y560286D02*X320780D01*
X315882Y558318D02*X320780D01*
X315882Y556349D02*X320780D01*
X315882Y554381D02*X320780D01*
X315882Y552412D02*X320780D01*
X315882Y550444D02*X320780D01*
X315882Y548475D02*X320780D01*
X315882Y546507D02*X320780D01*
X315882Y544538D02*X320780D01*
G54D32*X317501Y462202D02*Y457477D01*
X313564Y462202D02*Y457477D01*
X309627Y462202D02*Y457477D01*
G54D24*X311795Y537341D02*Y534979D01*
G54D36*X368606Y538050D02*Y533152D01*
X370575Y538050D02*Y533152D01*
X372543Y538050D02*Y533152D01*
X374512Y538050D02*Y533152D01*
X381000Y544538D02*X385898D01*
X381000Y546506D02*X385898D01*
X381000Y548475D02*X385898D01*
G54D24*X496934Y543473D02*Y542687D01*
X504020Y543473D02*Y542687D01*
G54D30*X511402Y542072D02*Y541088D01*
X516520Y542072D02*Y541088D01*
G54D24*X529020Y502473D02*Y501687D01*
X536106Y502473D02*Y501687D01*
Y523473D02*Y522687D01*
X528934Y485473D02*Y484687D01*
X536020Y485473D02*Y484687D01*
X529020Y523473D02*Y522687D01*
X476750Y510508D02*Y509722D01*
X483836Y510508D02*Y509722D01*
X488830Y498982D02*Y496620D01*
X486710Y527835D02*Y522325D01*
X498520Y527835D02*Y522325D01*
G54D37*X507532Y510190D02*X508792Y508930D01*
X508044Y510190D02*X508792Y509442D01*
X508516Y510230D02*X508831Y509915D01*
G54D38*X508910Y507258D02*Y505486D01*
G54D39*X510878Y507258D02*Y505487D01*
G54D38*X512847Y507258D02*Y505486D01*
G54D39*X514815Y507258D02*Y505487D01*
G54D38*X516784Y507258D02*Y505486D01*
G54D39*X518752Y507258D02*Y505487D01*
G54D38*X508910Y518674D02*Y516902D01*
G54D39*X510878Y518674D02*Y516903D01*
G54D38*X512847Y518674D02*Y516902D01*
G54D24*X510020Y531473D02*Y530687D01*
X517106Y531473D02*Y530687D01*
G54D39*X514815Y518674D02*Y516903D01*
G54D38*X516784Y518674D02*Y516902D01*
G54D39*X518752Y518674D02*Y516903D01*
G54D40*X512059Y512080D02*X516981D01*
G54D41*X508044Y514718D02*Y510820D01*
G54D24*X497934Y484973D02*Y484187D01*
X505020Y484973D02*Y484187D01*
X507020Y494473D02*Y493687D01*
X514106Y494473D02*Y493687D01*
X500640Y498982D02*Y496620D01*
G54D11*G36*
X515697Y426903D02*Y417257D01*
X525343D01*
Y426903D01*
X515697D01*
G37*
G54D38*X512154Y427001D02*X513925D01*
X512154Y425033D02*X513925D01*
X512154Y423064D02*X513925D01*
X512154Y421096D02*X513925D01*
X512154Y419127D02*X513925D01*
X512154Y417159D02*X513925D01*
X527114Y421096D02*X528886D01*
X527114Y419127D02*X528886D01*
X527114Y417159D02*X528886D01*
X525441Y415485D02*Y413713D01*
X523473Y415485D02*Y413713D01*
G54D24*X486934Y416473D02*Y415687D01*
X494020Y416473D02*Y415687D01*
G54D38*X527114Y427001D02*X528886D01*
X525441Y430446D02*Y428674D01*
X523473Y430446D02*Y428674D01*
X527114Y425033D02*X528886D01*
X527114Y423064D02*X528886D01*
X521504Y430446D02*Y428674D01*
X519536Y430446D02*Y428674D01*
X517567Y430446D02*Y428674D01*
X515599Y430446D02*Y428674D01*
G54D24*X490710Y434761D02*Y432399D01*
X502520Y434761D02*Y432399D01*
X530520Y443473D02*Y442687D01*
X516020Y440973D02*Y440187D01*
X523106Y440973D02*Y440187D01*
X537606Y443473D02*Y442687D01*
G54D38*X521504Y415485D02*Y413713D01*
X519536Y415485D02*Y413713D01*
X517567Y415485D02*Y413713D01*
X515599Y415485D02*Y413713D01*
G54D24*X518434Y465973D02*Y465187D01*
X525520Y465973D02*Y465187D01*
X504434Y456973D02*Y456187D01*
X502434Y447973D02*Y447187D01*
X509520Y447973D02*Y447187D01*
X511520Y456973D02*Y456187D01*
X505020Y468973D02*Y468187D01*
X512106Y468973D02*Y468187D01*
X489520Y461473D02*Y460687D01*
X496606Y461473D02*Y460687D01*
G54D23*X215450Y621300D02*Y620700D01*
Y629500D02*Y628900D01*
X208350Y621000D02*X208650D01*
X208050Y629500D02*Y628900D01*
X187650Y643676D02*X187950D01*
X194750Y643976D02*Y643376D01*
Y652176D02*Y651576D01*
X187350Y652176D02*Y651576D01*
X191800Y579800D02*X192100D01*
X198900Y580100D02*Y579500D01*
Y588300D02*Y587700D01*
X191500Y588300D02*Y587700D01*
X240650Y580600D02*X240950D01*
X247750Y580900D02*Y580300D01*
Y589100D02*Y588500D01*
X240350Y589100D02*Y588500D01*
G54D24*X261909Y576333D02*X264271D01*
X274508Y597987D02*X276870D01*
X261909D02*X264271D01*
G54D30*X277898Y612719D02*X278882D01*
X277898Y607601D02*X278882D01*
X261398Y613719D02*X262382D01*
X261398Y608601D02*X262382D01*
G54D24*X274508Y576333D02*X276870D01*
X288347Y566053D02*Y565267D01*
X295433Y566053D02*Y565267D01*
G54D30*X300831Y574152D02*Y573168D01*
X305949Y574152D02*Y573168D01*
G54D24*X294347Y585553D02*Y584767D01*
X301433Y585553D02*Y584767D01*
X294347Y597553D02*Y596767D01*
X301433Y597553D02*Y596767D01*
G54D36*X315882Y587845D02*X320780D01*
X315882Y585877D02*X320780D01*
X315882Y583908D02*X320780D01*
X315882Y581940D02*X320780D01*
X315882Y579971D02*X320780D01*
X315882Y578003D02*X320780D01*
X315882Y576034D02*X320780D01*
X315882Y574066D02*X320780D01*
X315882Y572097D02*X320780D01*
X315882Y570129D02*X320780D01*
X315882Y568160D02*X320780D01*
X315882Y566192D02*X320780D01*
G54D24*X320347Y609553D02*Y608767D01*
X327433Y609553D02*Y608767D01*
G54D36*X315882Y591782D02*X320780D01*
X327268Y603168D02*Y598270D01*
X315882Y589814D02*X320780D01*
X329237Y603168D02*Y598270D01*
G54D23*X449000Y655700D02*Y655400D01*
X448700Y648600D02*X449300D01*
X456900D02*X457500D01*
X456900Y656000D02*X457500D01*
X428800Y648500D02*X429100D01*
X428500Y657000D02*Y656400D01*
X435900Y648800D02*Y648200D01*
Y657000D02*Y656400D01*
G54D24*X479607Y620543D02*X480393D01*
X487043Y634893D02*Y634107D01*
X479957Y634893D02*Y634107D01*
X479607Y613457D02*X480393D01*
G54D23*X479000Y655600D02*Y655300D01*
X478700Y648500D02*X479300D01*
X486900D02*X487500D01*
X486900Y655900D02*X487500D01*
G54D24*X467107Y690043D02*X467893D01*
X467107Y682957D02*X467893D01*
X450607Y690086D02*X451393D01*
X450607Y683000D02*X451393D01*
X347349Y519288D02*Y516926D01*
X325890Y523553D02*Y522767D01*
X332976Y523553D02*Y522767D01*
G54D36*X327268Y538050D02*Y533152D01*
X329236Y538050D02*Y533152D01*
X331205Y538050D02*Y533152D01*
X333173Y538050D02*Y533152D01*
X335142Y538050D02*Y533152D01*
X337110Y538050D02*Y533152D01*
X339079Y538050D02*Y533152D01*
X341047Y538050D02*Y533152D01*
X343016Y538050D02*Y533152D01*
X344984Y538050D02*Y533152D01*
X346953Y538050D02*Y533152D01*
G54D24*X359159Y519288D02*Y516926D01*
X379847Y528053D02*Y527267D01*
X386933Y528053D02*Y527267D01*
X373080Y512841D02*Y510479D01*
X384890Y512841D02*Y510479D01*
G54D36*X348921Y538050D02*Y533152D01*
X350890Y538050D02*Y533152D01*
X352858Y538050D02*Y533152D01*
X354827Y538050D02*Y533152D01*
X356795Y538050D02*Y533152D01*
X358764Y538050D02*Y533152D01*
X360732Y538050D02*Y533152D01*
X362701Y538050D02*Y533152D01*
X364669Y538050D02*Y533152D01*
X366638Y538050D02*Y533152D01*
X381000Y550443D02*X385898D01*
X381000Y552412D02*X385898D01*
X381000Y554380D02*X385898D01*
X381000Y556349D02*X385898D01*
X381000Y558317D02*X385898D01*
X381000Y560286D02*X385898D01*
X381000Y562254D02*X385898D01*
X381000Y564223D02*X385898D01*
X381000Y566191D02*X385898D01*
X381000Y568160D02*X385898D01*
X381000Y570128D02*X385898D01*
X381000Y572097D02*X385898D01*
X381000Y574065D02*X385898D01*
X381000Y576034D02*X385898D01*
X381000Y578002D02*X385898D01*
X381000Y579971D02*X385898D01*
X381000Y581939D02*X385898D01*
X381000Y583908D02*X385898D01*
X381000Y585876D02*X385898D01*
G54D24*X334997Y614703D02*X335783D01*
X334997Y607617D02*X335783D01*
G54D36*X374512Y603168D02*Y598270D01*
X372544Y603168D02*Y598270D01*
X370575Y603168D02*Y598270D01*
X343016Y603168D02*Y598270D01*
X341048Y603168D02*Y598270D01*
X339079Y603168D02*Y598270D01*
X337111Y603168D02*Y598270D01*
X335142Y603168D02*Y598270D01*
X333174Y603168D02*Y598270D01*
X331205Y603168D02*Y598270D01*
G54D24*X398985Y592341D02*Y589979D01*
X410795Y592341D02*Y589979D01*
X386847Y600053D02*Y599267D01*
X393933Y600053D02*Y599267D01*
G54D36*X381000Y587845D02*X385898D01*
X381000Y589813D02*X385898D01*
X381000Y591782D02*X385898D01*
X368607Y603168D02*Y598270D01*
X366638Y603168D02*Y598270D01*
X364670Y603168D02*Y598270D01*
X362701Y603168D02*Y598270D01*
X360733Y603168D02*Y598270D01*
X358764Y603168D02*Y598270D01*
X356796Y603168D02*Y598270D01*
X354827Y603168D02*Y598270D01*
X352859Y603168D02*Y598270D01*
X350890Y603168D02*Y598270D01*
X348922Y603168D02*Y598270D01*
X346953Y603168D02*Y598270D01*
X344985Y603168D02*Y598270D01*
G54D42*X256000Y199000D03*
X260039Y199039D03*
X263976Y199024D03*
X268000Y199000D03*
X271800D03*
X275800D03*
X279700D03*
X283600D03*
X287600D03*
X291600D03*
X258000Y220200D03*
X262000Y224700D03*
X266000Y220200D03*
X270000Y224700D03*
X273800Y220200D03*
X277800Y224700D03*
X281700Y220200D03*
X285700Y224700D03*
X289600Y220200D03*
X293600Y224700D03*
X297200Y228200D03*
X301800Y230600D03*
X253400Y250500D03*
X256600Y261900D03*
X259700Y250500D03*
X262900Y261900D03*
X266000Y250500D03*
X269200Y261900D03*
X272300Y250500D03*
X275500Y261900D03*
X278600Y250500D03*
X285000Y242900D03*
X291300D03*
X297600D03*
X281800Y261900D03*
X288100D03*
X294400D03*
X284900Y250500D03*
X291200D03*
X297500D03*
X203220Y426450D03*
X222020D03*
X215820D03*
X209520D03*
X203120Y406850D03*
X222120D03*
X215820D03*
X209520D03*
X218923Y401223D03*
X212623D03*
X206323D03*
X200000Y401200D03*
X218892Y420308D03*
X212592D03*
X206292D03*
X200000Y420300D03*
X204500Y465500D03*
X208400D03*
X212400D03*
X216300D03*
X220200D03*
X224200D03*
X228100D03*
X232100D03*
X282070Y465490D03*
X285970D03*
X289970D03*
X293870D03*
X297770D03*
X301770D03*
X305670D03*
X309670D03*
X313544D03*
X317544D03*
G54D43*X274890Y504660D03*
G54D42*X317460Y403230D03*
X313599Y408700D03*
X309540Y403230D03*
X305699Y408700D03*
X301820Y403230D03*
X297816Y408718D03*
X293910Y403230D03*
X289899Y408700D03*
X286070Y403230D03*
X282025Y408700D03*
X295800Y430900D03*
X291900Y435200D03*
X288000Y430900D03*
X284000Y435200D03*
X280100Y430900D03*
X311548D03*
X307700Y435100D03*
X315500Y435400D03*
X303748Y430900D03*
X299748Y435148D03*
G54D43*X266390Y555160D03*
G54D44*X302390Y558660D03*
G54D43*X271390Y610160D03*
G54D44*X283390Y603660D03*
X302890D03*
X296390D03*
X289890D03*
X304390Y564660D03*
X310390D03*
G54D43*X440500Y643500D03*
X457500Y642000D03*
X430500Y640000D03*
X436500Y614000D03*
X487000Y628000D03*
Y641500D03*
X451000Y697000D03*
X459744Y677744D03*
X451000Y677000D03*
X475500Y683000D03*
X472000Y652500D03*
X479000Y663000D03*
X442500Y652000D03*
X433500Y663000D03*
X449000Y662500D03*
G54D44*X347390Y584660D03*
G54D43*X400390Y599660D03*
X380390D03*
G54D44*X342890Y589160D03*
X342390Y614160D03*
X338890Y584660D03*
X333390Y574160D03*
X334890Y589160D03*
G54D43*X312890Y612660D03*
G54D44*X318390Y596160D03*
X329237Y592813D03*
G54D43*X383390Y520160D03*
Y535160D03*
X318890Y522660D03*
X332890Y514660D03*
X319890Y536160D03*
G54D44*X329890Y579660D03*
X327890Y585660D03*
X326796Y574066D03*
X332390Y562660D03*
X326890Y566160D03*
X333390Y554160D03*
X326669Y554381D03*
X252820Y152300D03*
X256820Y163300D03*
X248820D03*
X260820Y152300D03*
X268820D03*
X276820D03*
X272820Y163300D03*
X264820D03*
X232420Y132500D03*
X237220Y132600D03*
X246220Y131400D03*
X241720Y132400D03*
X251620Y129400D03*
X251420Y134700D03*
X240820Y163300D03*
X244820Y152300D03*
X238320Y149000D03*
X234220Y157400D03*
X288820Y141400D03*
X285020Y136700D03*
X289620Y133100D03*
X287420Y147000D03*
X289920Y118000D03*
Y127300D03*
X270320Y132700D03*
X263420Y128500D03*
X259420Y125600D03*
X275920Y129400D03*
X273520Y125000D03*
X265119Y104601D03*
X233820Y95300D03*
X237820Y84300D03*
X229820D03*
X233820Y73300D03*
X241820Y95300D03*
Y73300D03*
X237820Y106300D03*
X237520Y112900D03*
X229520Y113700D03*
X247020Y113200D03*
X245820Y106300D03*
X287820D03*
X283820Y95300D03*
X275820D03*
X279820Y106300D03*
Y84300D03*
X287820D03*
X275820Y73300D03*
X283820D03*
X285720Y66500D03*
G54D13*G54D45*G54D13*G54D45*G54D15*G54D45*G54D15*G54D45*G54D15*G54D45*G54D15*G54D45*G54D15*G54D45*G54D15*G54D46*G54D47*G54D48*G54D49*G54D47*G54D49*G54D47*G54D46*G54D47*G54D42*M02*
