G04 start of page 12 for group -4015 idx -4015 *
G04 Title: (unknown), toppaste *
G04 Creator: pcb 20110918 *
G04 CreationDate: Thu Dec 19 20:41:18 2013 UTC *
G04 For: fosse *
G04 Format: Gerber/RS-274X *
G04 PCB-Dimensions: 550000 350000 *
G04 PCB-Coordinate-Origin: lower left *
%MOIN*%
%FSLAX25Y25*%
%LNTOPPASTE*%
%ADD227R,0.4400X0.4400*%
%ADD226R,0.1400X0.1400*%
%ADD225R,0.0748X0.0748*%
%ADD224R,0.0827X0.0827*%
%ADD223R,0.1220X0.1220*%
%ADD222R,0.0560X0.0560*%
%ADD221R,0.0394X0.0394*%
%ADD220R,0.0630X0.0630*%
%ADD219R,0.0807X0.0807*%
%ADD218R,0.0433X0.0433*%
%ADD217R,0.0433X0.0433*%
%ADD216R,0.0236X0.0236*%
%ADD215R,0.0157X0.0157*%
%ADD214R,0.0158X0.0158*%
%ADD213R,0.0110X0.0110*%
%ADD212R,0.0591X0.0591*%
%ADD211R,0.0590X0.0590*%
%ADD210R,0.0345X0.0345*%
%ADD209R,0.0340X0.0340*%
%ADD208R,0.0295X0.0295*%
%ADD207R,0.0160X0.0160*%
%ADD206C,0.0160*%
%ADD205R,0.0512X0.0512*%
G54D205*X180190Y65181D02*Y62819D01*
X192000Y65181D02*Y62819D01*
X198957Y61893D02*Y61107D01*
X206043Y61893D02*Y61107D01*
X203957Y83393D02*Y82607D01*
X211043Y83393D02*Y82607D01*
X360457Y33393D02*Y32607D01*
X367543Y33393D02*Y32607D01*
X336457Y33393D02*Y32607D01*
X343543Y33393D02*Y32607D01*
X204257Y95193D02*Y94407D01*
X211343Y95193D02*Y94407D01*
X262157Y75493D02*Y74707D01*
X269243Y75493D02*Y74707D01*
X217690Y167181D02*Y164819D01*
X229500Y167181D02*Y164819D01*
X266690Y159681D02*Y157319D01*
X278500Y159681D02*Y157319D01*
X266500Y142181D02*Y139819D01*
X278310Y142181D02*Y139819D01*
X344319Y96905D02*X346681D01*
X344319Y85095D02*X346681D01*
X291095Y88181D02*Y85819D01*
X302905Y88181D02*Y85819D01*
X319095Y88181D02*Y85819D01*
X330905Y88181D02*Y85819D01*
X314500Y102181D02*Y99819D01*
X326310Y102181D02*Y99819D01*
X291457Y101393D02*Y100607D01*
X298543Y101393D02*Y100607D01*
X300595Y163681D02*Y161319D01*
X312405Y163681D02*Y161319D01*
X293457Y129393D02*Y128607D01*
X300543Y129393D02*Y128607D01*
G54D206*X311800Y151800D02*X314000D01*
G54D207*X311800Y149200D02*X314000D01*
X311800Y146700D02*X314000D01*
X311800Y144100D02*X314000D01*
X311800Y141500D02*X314000D01*
X311800Y139000D02*X314000D01*
X311800Y136400D02*X314000D01*
X311800Y133900D02*X314000D01*
X333000Y133800D02*X335200D01*
X333000Y136400D02*X335200D01*
X333000Y138900D02*X335200D01*
X333000Y141500D02*X335200D01*
X333000Y144100D02*X335200D01*
X333000Y146600D02*X335200D01*
X333000Y149200D02*X335200D01*
X333000Y151700D02*X335200D01*
G54D205*X293457Y150393D02*Y149607D01*
X300543Y150393D02*Y149607D01*
X342457Y131893D02*Y131107D01*
X349543Y131893D02*Y131107D01*
X342595Y119681D02*Y117319D01*
X354405Y119681D02*Y117319D01*
X327000Y164893D02*Y164107D01*
X334086Y164893D02*Y164107D01*
X342500Y154393D02*Y153607D01*
X349586Y154393D02*Y153607D01*
X342595Y168681D02*Y166319D01*
X354405Y168681D02*Y166319D01*
X291095Y116181D02*Y113819D01*
X302905Y116181D02*Y113819D01*
G54D208*X313000Y123492D02*Y122508D01*
X318118Y123492D02*Y122508D01*
X328882Y123492D02*Y122508D01*
X334000Y123492D02*Y122508D01*
X313000Y113492D02*Y112508D01*
X318118Y113492D02*Y112508D01*
X328882Y113492D02*Y112508D01*
X334000Y113492D02*Y112508D01*
G54D205*X346957Y105893D02*Y105107D01*
X354043Y105893D02*Y105107D01*
X241000Y180893D02*Y180107D01*
X248086Y180893D02*Y180107D01*
X240957Y193893D02*Y193107D01*
X248043Y193893D02*Y193107D01*
X114319Y47405D02*X116681D01*
X114319Y35595D02*X116681D01*
X121595Y57681D02*Y55319D01*
X133405Y57681D02*Y55319D01*
X103095Y61181D02*Y58819D01*
X114905Y61181D02*Y58819D01*
X80595Y37181D02*Y34819D01*
X92405Y37181D02*Y34819D01*
X99457Y36393D02*Y35607D01*
X106543Y36393D02*Y35607D01*
X76319Y98905D02*X78681D01*
X76319Y87095D02*X78681D01*
X301957Y263393D02*Y262607D01*
X309043Y263393D02*Y262607D01*
X180457Y36893D02*Y36107D01*
X187543Y36893D02*Y36107D01*
G54D209*X183300Y178300D02*X183600D01*
X190400Y178600D02*Y178000D01*
Y186800D02*Y186200D01*
X183000Y186800D02*Y186200D01*
X286590Y183590D02*X286890D01*
X293690Y183890D02*Y183290D01*
Y192090D02*Y191490D01*
X286290Y192090D02*Y191490D01*
X306040Y193590D02*X306340D01*
X313140Y193890D02*Y193290D01*
Y202090D02*Y201490D01*
X305740Y202090D02*Y201490D01*
X286540Y203590D02*X286840D01*
X293640Y203890D02*Y203290D01*
Y212090D02*Y211490D01*
X286240Y212090D02*Y211490D01*
X83260Y50028D02*X83560D01*
X90360Y50328D02*Y49728D01*
Y58528D02*Y57928D01*
X82960Y58528D02*Y57928D01*
X160800Y29800D02*X161100D01*
X167900Y30100D02*Y29500D01*
Y38300D02*Y37700D01*
X160500Y38300D02*Y37700D01*
X160800Y49300D02*X161100D01*
X167900Y49600D02*Y49000D01*
Y57800D02*Y57200D01*
X160500Y57800D02*Y57200D01*
X211300Y200000D02*X211600D01*
X218400Y200300D02*Y199700D01*
Y208500D02*Y207900D01*
X211000Y208500D02*Y207900D01*
X85310Y183040D02*X85610D01*
X92410Y183340D02*Y182740D01*
Y191540D02*Y190940D01*
X85010Y191540D02*Y190940D01*
X85310Y203240D02*X85610D01*
X92410Y203540D02*Y202940D01*
Y211740D02*Y211140D01*
X85010Y211740D02*Y211140D01*
G54D205*X268914Y206893D02*Y206107D01*
X276000Y206893D02*Y206107D01*
X325367Y219133D02*Y218347D01*
X332453Y219133D02*Y218347D01*
X325367Y206633D02*Y205847D01*
X332453Y206633D02*Y205847D01*
G54D209*X51760Y217240D02*X52060D01*
X58860Y217540D02*Y216940D01*
Y225740D02*Y225140D01*
X51460Y225740D02*Y225140D01*
X51760Y195240D02*X52060D01*
X58860Y195540D02*Y194940D01*
Y203740D02*Y203140D01*
X51460Y203740D02*Y203140D01*
X51760Y236740D02*X52060D01*
X58860Y237040D02*Y236440D01*
Y245240D02*Y244640D01*
X51460Y245240D02*Y244640D01*
X81310Y257540D02*X81610D01*
X88410Y257840D02*Y257240D01*
Y266040D02*Y265440D01*
X81010Y266040D02*Y265440D01*
X61760Y257740D02*X62060D01*
X68860Y258040D02*Y257440D01*
Y266240D02*Y265640D01*
X61460Y266240D02*Y265640D01*
G54D205*X342517Y222283D02*X343303D01*
X342517Y215197D02*X343303D01*
X83324Y277133D02*Y276347D01*
X90410Y277133D02*Y276347D01*
X52324Y181133D02*Y180347D01*
X59410Y181133D02*Y180347D01*
X124017Y170783D02*X124803D01*
X124017Y163697D02*X124803D01*
G54D210*X50918Y65799D02*X51902D01*
X50918Y60681D02*X51902D01*
G54D205*X63528Y132413D02*X65890D01*
X50929D02*X53291D01*
X63528Y154067D02*X65890D01*
X50929D02*X53291D01*
G54D210*X66918Y168799D02*X67902D01*
X66918Y163681D02*X67902D01*
X50418Y169799D02*X51402D01*
X50418Y164681D02*X51402D01*
G54D205*X77367Y122133D02*Y121347D01*
X84453Y122133D02*Y121347D01*
X77367Y110133D02*Y109347D01*
X84453Y110133D02*Y109347D01*
G54D210*X51851Y119232D02*Y118248D01*
X56969Y119232D02*Y118248D01*
G54D211*X63831Y118633D02*Y104853D01*
Y81626D02*Y67846D01*
G54D212*X53988Y93240D02*X63831D01*
G54D205*X83367Y141633D02*Y140847D01*
X90453Y141633D02*Y140847D01*
X83367Y153633D02*Y152847D01*
X90453Y153633D02*Y152847D01*
X89005Y93421D02*Y91059D01*
X100815Y93421D02*Y91059D01*
G54D208*X89851Y130232D02*Y129248D01*
X94969Y130232D02*Y129248D01*
X90851Y109291D02*Y108307D01*
X95969Y109291D02*Y108307D01*
G54D205*X79367Y74133D02*Y73347D01*
X86453Y74133D02*Y73347D01*
X188005Y148421D02*Y146059D01*
X199815Y148421D02*Y146059D01*
X109367Y165633D02*Y164847D01*
X116453Y165633D02*Y164847D01*
X175867Y156133D02*Y155347D01*
X182953Y156133D02*Y155347D01*
X168867Y84133D02*Y83347D01*
X175953Y84133D02*Y83347D01*
X114910Y79633D02*Y78847D01*
X121996Y79633D02*Y78847D01*
X185095Y85681D02*Y83319D01*
X196905Y85681D02*Y83319D01*
G54D213*X104902Y147862D02*X109800D01*
X104902Y145894D02*X109800D01*
X104902Y143925D02*X109800D01*
X104902Y141957D02*X109800D01*
X104902Y139988D02*X109800D01*
X104902Y138020D02*X109800D01*
X104902Y136051D02*X109800D01*
X104902Y134083D02*X109800D01*
X104902Y132114D02*X109800D01*
X104902Y130146D02*X109800D01*
X104902Y128177D02*X109800D01*
X104902Y126209D02*X109800D01*
X104902Y124240D02*X109800D01*
X104902Y122272D02*X109800D01*
X104902Y120303D02*X109800D01*
X104902Y118335D02*X109800D01*
X104902Y116366D02*X109800D01*
X104902Y114398D02*X109800D01*
X104902Y112429D02*X109800D01*
X104902Y110461D02*X109800D01*
X104902Y108492D02*X109800D01*
X104902Y106524D02*X109800D01*
X104902Y104555D02*X109800D01*
X104902Y102587D02*X109800D01*
X104902Y100618D02*X109800D01*
X116288Y94130D02*Y89232D01*
X118256Y94130D02*Y89232D01*
X120225Y94130D02*Y89232D01*
X122193Y94130D02*Y89232D01*
X124162Y94130D02*Y89232D01*
X126130Y94130D02*Y89232D01*
X128099Y94130D02*Y89232D01*
X130067Y94130D02*Y89232D01*
X132036Y94130D02*Y89232D01*
X134004Y94130D02*Y89232D01*
X135973Y94130D02*Y89232D01*
X137941Y94130D02*Y89232D01*
X139910Y94130D02*Y89232D01*
X141878Y94130D02*Y89232D01*
X143847Y94130D02*Y89232D01*
X145815Y94130D02*Y89232D01*
X147784Y94130D02*Y89232D01*
X149752Y94130D02*Y89232D01*
X151721Y94130D02*Y89232D01*
X153689Y94130D02*Y89232D01*
X155658Y94130D02*Y89232D01*
X157626Y94130D02*Y89232D01*
X159595Y94130D02*Y89232D01*
X161563Y94130D02*Y89232D01*
X163532Y94130D02*Y89232D01*
X170020Y100618D02*X174918D01*
X170020Y102586D02*X174918D01*
X170020Y104555D02*X174918D01*
X170020Y106523D02*X174918D01*
X170020Y108492D02*X174918D01*
X170020Y110460D02*X174918D01*
X170020Y112429D02*X174918D01*
X170020Y114397D02*X174918D01*
X170020Y116366D02*X174918D01*
X170020Y118334D02*X174918D01*
X170020Y120303D02*X174918D01*
X170020Y122271D02*X174918D01*
X170020Y124240D02*X174918D01*
X170020Y126208D02*X174918D01*
X170020Y128177D02*X174918D01*
X170020Y130145D02*X174918D01*
X170020Y132114D02*X174918D01*
X170020Y134082D02*X174918D01*
X170020Y136051D02*X174918D01*
X170020Y138019D02*X174918D01*
X170020Y139988D02*X174918D01*
X170020Y141956D02*X174918D01*
X170020Y143925D02*X174918D01*
X170020Y145893D02*X174918D01*
X170020Y147862D02*X174918D01*
X163532Y159248D02*Y154350D01*
X161564Y159248D02*Y154350D01*
X159595Y159248D02*Y154350D01*
X157627Y159248D02*Y154350D01*
X155658Y159248D02*Y154350D01*
X153690Y159248D02*Y154350D01*
X151721Y159248D02*Y154350D01*
X149753Y159248D02*Y154350D01*
X147784Y159248D02*Y154350D01*
X145816Y159248D02*Y154350D01*
X143847Y159248D02*Y154350D01*
X141879Y159248D02*Y154350D01*
X139910Y159248D02*Y154350D01*
X137942Y159248D02*Y154350D01*
X135973Y159248D02*Y154350D01*
X134005Y159248D02*Y154350D01*
X132036Y159248D02*Y154350D01*
X130068Y159248D02*Y154350D01*
X128099Y159248D02*Y154350D01*
X126131Y159248D02*Y154350D01*
X124162Y159248D02*Y154350D01*
X122194Y159248D02*Y154350D01*
X120225Y159248D02*Y154350D01*
X118257Y159248D02*Y154350D01*
X116288Y159248D02*Y154350D01*
G54D205*X180367Y49633D02*Y48847D01*
X187453Y49633D02*Y48847D01*
X196457Y49893D02*Y49107D01*
X203543Y49893D02*Y49107D01*
X196457Y36893D02*Y36107D01*
X203543Y36893D02*Y36107D01*
X78457Y167393D02*Y166607D01*
X85543Y167393D02*Y166607D01*
X92914Y74393D02*Y73607D01*
X100000Y74393D02*Y73607D01*
G54D214*X255945Y34608D02*Y29884D01*
X252008Y34608D02*Y29884D01*
X248071Y34608D02*Y29884D01*
X244134Y34608D02*Y29884D01*
X240197Y34608D02*Y29884D01*
X236260Y34608D02*Y29884D01*
X232323Y34608D02*Y29884D01*
X228386Y34608D02*Y29884D01*
X224449Y34608D02*Y29884D01*
X220512Y34608D02*Y29884D01*
G54D215*X257913Y44058D02*Y39333D01*
X253976Y44058D02*Y39333D01*
X250039Y44058D02*Y39333D01*
X246102Y44058D02*Y39333D01*
X242165Y44058D02*Y39333D01*
G54D214*X238228Y44057D02*Y39333D01*
X234291Y44057D02*Y39333D01*
X230354Y44057D02*Y39333D01*
X226417Y44057D02*Y39333D01*
X222480Y44057D02*Y39333D01*
G54D216*X216574Y34215D02*Y30278D01*
Y43664D02*Y39727D01*
X261850Y34215D02*Y30278D01*
Y43664D02*Y39727D01*
G54D214*X279943Y279992D02*Y275268D01*
X276006Y279992D02*Y275268D01*
X272069Y279992D02*Y275268D01*
X268132Y279992D02*Y275268D01*
X264195Y279992D02*Y275268D01*
X260258Y279992D02*Y275268D01*
X256321Y279992D02*Y275268D01*
X252384Y279992D02*Y275268D01*
X248447Y279992D02*Y275268D01*
X244510Y279992D02*Y275268D01*
G54D215*X281911Y289442D02*Y284717D01*
X277974Y289442D02*Y284717D01*
X274037Y289442D02*Y284717D01*
X270100Y289442D02*Y284717D01*
X266163Y289442D02*Y284717D01*
G54D214*X262226Y289441D02*Y284717D01*
X258289Y289441D02*Y284717D01*
X254352Y289441D02*Y284717D01*
X250415Y289441D02*Y284717D01*
X246478Y289441D02*Y284717D01*
G54D216*X240572Y279599D02*Y275662D01*
Y289048D02*Y285111D01*
X285848Y279599D02*Y275662D01*
Y289048D02*Y285111D01*
G54D214*X202373Y280002D02*Y275278D01*
X198436Y280002D02*Y275278D01*
X194499Y280002D02*Y275278D01*
X190562Y280002D02*Y275278D01*
X186625Y280002D02*Y275278D01*
X182688Y280002D02*Y275278D01*
X178751Y280002D02*Y275278D01*
X174814Y280002D02*Y275278D01*
X170877Y280002D02*Y275278D01*
X166940Y280002D02*Y275278D01*
G54D215*X204341Y289452D02*Y284727D01*
X200404Y289452D02*Y284727D01*
X196467Y289452D02*Y284727D01*
X192530Y289452D02*Y284727D01*
X188593Y289452D02*Y284727D01*
G54D214*X184656Y289451D02*Y284727D01*
X180719Y289451D02*Y284727D01*
X176782Y289451D02*Y284727D01*
X172845Y289451D02*Y284727D01*
X168908Y289451D02*Y284727D01*
G54D216*X163002Y279609D02*Y275672D01*
Y289058D02*Y285121D01*
X208278Y279609D02*Y275672D01*
Y289058D02*Y285121D01*
G54D217*X387070Y49548D02*X388646D01*
G54D218*X387070Y55453D02*X388646D01*
G54D217*X369354Y49548D02*X370928D01*
G54D218*X369354Y55453D02*X370929D01*
G54D219*X365600Y287250D02*X371899D01*
X388100D02*X394399D01*
G54D220*X363678Y102184D02*Y96672D01*
G54D221*X381002Y99428D02*Y81712D01*
X373128Y99428D02*Y81712D01*
G54D220*X390450Y102184D02*Y96672D01*
G54D222*X397000Y200300D02*Y193700D01*
X406000Y200300D02*Y193700D01*
X415100Y200300D02*Y193700D01*
G54D223*X401500Y221400D02*X410500D01*
G54D205*X421819Y182905D02*X424181D01*
X421819Y171095D02*X424181D01*
X390595Y177681D02*Y175319D01*
X402405Y177681D02*Y175319D01*
X371095Y136181D02*Y133819D01*
X382905Y136181D02*Y133819D01*
X371095Y122181D02*Y119819D01*
X382905Y122181D02*Y119819D01*
G54D224*X402571Y76311D02*X402965D01*
G54D225*X423043Y73949D02*X425799D01*
G54D224*X400996Y93240D02*X401390D01*
G54D225*X423043Y105051D02*X425799D01*
G54D224*X411626Y101902D02*X412020D01*
G54D205*X418457Y60893D02*Y60107D01*
X425543Y60893D02*Y60107D01*
G54D226*X429000Y224500D02*Y202500D01*
G54D227*X410000Y249000D02*X414000D01*
M02*
