G04 start of page 11 for group -4079 idx -4079 *
G04 Title: (unknown), topsilk *
G04 Creator: pcb 20110918 *
G04 CreationDate: Mon Nov 11 23:32:46 2013 UTC *
G04 For: fosse *
G04 Format: Gerber/RS-274X *
G04 PCB-Dimensions: 455000 500000 *
G04 PCB-Coordinate-Origin: lower left *
%MOIN*%
%FSLAX25Y25*%
%LNTOPSILK*%
%ADD320C,0.0079*%
%ADD319C,0.0200*%
%ADD318C,0.0060*%
%ADD317C,0.0080*%
%ADD316C,0.0100*%
G54D316*X199400Y328500D02*X266900D01*
X199400Y381000D02*X266900D01*
X199400D02*Y328500D01*
X266900Y381000D02*Y328500D01*
X223400Y387000D02*Y383000D01*
Y387000D02*X224900Y385000D01*
X226400Y387000D01*
Y383000D01*
X227600Y386000D02*Y385900D01*
Y384500D02*Y383000D01*
X229100Y385000D02*X230600D01*
X228600Y384500D02*X229100Y385000D01*
X228600Y384500D02*Y383500D01*
X229100Y383000D01*
X230600D01*
X231800D02*X232300D01*
X235300D02*X237300D01*
X237800Y383500D01*
Y384700D02*Y383500D01*
X237300Y385200D02*X237800Y384700D01*
X235800Y385200D02*X237300D01*
X235800Y387000D02*Y383000D01*
X235300Y387000D02*X237300D01*
X237800Y386500D01*
Y385700D01*
X237300Y385200D02*X237800Y385700D01*
X239000Y386000D02*Y385900D01*
Y384500D02*Y383000D01*
X241500Y385000D02*X242000Y384500D01*
X240500Y385000D02*X241500D01*
X240000Y384500D02*X240500Y385000D01*
X240000Y384500D02*Y383500D01*
X240500Y383000D01*
X242000Y385000D02*Y383500D01*
X242500Y383000D01*
X240500D02*X241500D01*
X242000Y383500D01*
X244200Y383000D02*X245700D01*
X246200Y383500D01*
X245700Y384000D02*X246200Y383500D01*
X244200Y384000D02*X245700D01*
X243700Y384500D02*X244200Y384000D01*
X243700Y384500D02*X244200Y385000D01*
X245700D01*
X246200Y384500D01*
X243700Y383500D02*X244200Y383000D01*
X249900D02*X251200D01*
X249200Y383700D02*X249900Y383000D01*
X249200Y386300D02*Y383700D01*
Y386300D02*X249900Y387000D01*
X251200D01*
X252400Y386000D02*Y385900D01*
Y384500D02*Y383000D01*
X253900Y384500D02*Y383000D01*
Y384500D02*X254400Y385000D01*
X255400D01*
X253400D02*X253900Y384500D01*
X257100Y385000D02*X258600D01*
X256600Y384500D02*X257100Y385000D01*
X256600Y384500D02*Y383500D01*
X257100Y383000D01*
X258600D01*
X259800Y385000D02*Y383500D01*
X260300Y383000D01*
X261300D01*
X261800Y383500D01*
Y385000D02*Y383500D01*
X263000Y386000D02*Y385900D01*
Y384500D02*Y383000D01*
X264500Y387000D02*Y383500D01*
X265000Y383000D01*
X264000Y385500D02*X265000D01*
X277400Y370000D02*Y359000D01*
Y386000D02*Y375000D01*
Y386000D02*X299800D01*
Y359000D01*
X277400D02*X299800D01*
X277400Y370000D02*G75*G03X277400Y375000I0J2500D01*G01*
G54D317*X342407Y306355D02*X343193D01*
X342407Y300845D02*X343193D01*
G54D316*X188405Y291401D02*Y303016D01*
X131318D02*Y291401D01*
X134271Y303016D02*X131318D01*
X188405D02*X185452D01*
X188405Y291401D02*X185452D01*
X134271D02*X131318D01*
X178563Y309118D02*Y313252D01*
Y309118D02*X177381Y310299D01*
X178563Y309118D02*X179744Y310299D01*
X177381D02*X179744D01*
X120760Y252156D02*X178240D01*
X178241Y267669D01*
X174304Y271606D02*X124698D01*
X120761Y267669D02*X120760Y252156D01*
X120761Y267669D02*X124698Y271606D01*
X178241Y267669D02*X174304Y271606D01*
X119068Y269402D02*X123398Y273732D01*
X176390D01*
X180327Y269795D01*
Y250267D01*
X119068D01*
X119067Y269402D01*
G54D317*X216038Y374240D02*X220762D01*
X216038Y366760D02*X220762D01*
G54D316*X263405Y291401D02*Y303016D01*
X206318D02*Y291401D01*
X209271Y303016D02*X206318D01*
X263405D02*X260452D01*
X263405Y291401D02*X260452D01*
X209271D02*X206318D01*
X253563Y309118D02*Y313252D01*
Y309118D02*X252381Y310299D01*
X253563Y309118D02*X254744Y310299D01*
X252381D02*X254744D01*
G54D317*X241645Y337393D02*Y336607D01*
X247155Y337393D02*Y336607D01*
X225400Y355500D02*Y345500D01*
X246400D01*
Y355500D02*Y345500D01*
X225400Y355500D02*X246400D01*
X226400D02*Y345500D01*
G54D318*X211840Y356708D02*X216958D01*
X211840Y345291D02*X216958D01*
Y356708D02*Y345291D01*
X211840Y356708D02*Y345291D01*
G54D317*X223443Y338240D02*X228167D01*
X223443Y330760D02*X228167D01*
X253900Y346500D02*X263900D01*
Y367500D02*Y346500D01*
X253900Y367500D02*X263900D01*
X253900D02*Y346500D01*
Y347500D02*X263900D01*
X235145Y369893D02*Y369107D01*
X240655Y369893D02*Y369107D01*
G54D319*X57100Y82700D02*Y64300D01*
G54D316*X64300Y61700D01*
X99500D01*
Y85300D01*
X64300D01*
X57100Y82700D01*
G54D317*X67150Y114255D02*X67936D01*
X67150Y108745D02*X67936D01*
X33564Y132755D02*X34350D01*
X33564Y127245D02*X34350D01*
X25564Y145755D02*X26350D01*
X25564Y140245D02*X26350D01*
X51650Y118255D02*X52436D01*
X51650Y112745D02*X52436D01*
X49564Y133755D02*X50350D01*
X49564Y128245D02*X50350D01*
X36064Y119255D02*X36850D01*
X36064Y113745D02*X36850D01*
G54D320*X71268Y151839D02*Y138509D01*
Y153268D02*Y137126D01*
Y137125D02*X54732D01*
Y153268D01*
X71268D02*X52963D01*
Y151771D01*
X54732D01*
Y137125D02*Y152520D01*
X52963D01*
G54D317*X54650Y170255D02*X55436D01*
X54650Y164745D02*X55436D01*
X72650Y169755D02*X73436D01*
X72650Y164245D02*X73436D01*
X43650Y198255D02*X44436D01*
X43650Y192745D02*X44436D01*
X29733Y164240D02*X34457D01*
X29733Y156760D02*X34457D01*
X57064Y195255D02*X57850D01*
X57064Y189745D02*X57850D01*
X43064Y186255D02*X43850D01*
X43064Y180745D02*X43850D01*
X28150Y190755D02*X28936D01*
X28150Y185245D02*X28936D01*
X41064Y177255D02*X41850D01*
X41064Y171745D02*X41850D01*
X34150Y107255D02*X34936D01*
X34150Y101745D02*X34936D01*
X41543Y98240D02*X46267D01*
X41543Y90760D02*X46267D01*
G54D318*X16000Y315300D02*Y26900D01*
Y315300D02*X417400D01*
Y26900D01*
X16000D02*X417400D01*
G54D317*X179038Y86740D02*X183762D01*
X179038Y79260D02*X183762D01*
G54D316*X274450Y207000D02*Y193100D01*
X286850D01*
Y207000D01*
X274450D01*
G54D317*X67564Y40655D02*X68350D01*
X67564Y35145D02*X68350D01*
G54D316*X64900Y50000D02*X69900D01*
X79900D02*X84900D01*
X69900Y51600D02*X79900D01*
Y48400D01*
X69900D01*
Y51600D01*
X64900Y57700D02*Y53700D01*
X62900Y55700D02*X66900D01*
X82900D02*X86900D01*
G54D317*X155641Y185159D02*X207059D01*
Y130841D01*
X152741D01*
Y182259D01*
X155641Y185159D01*
X154641Y182259D02*G75*G03X154641Y182259I1000J0D01*G01*
X158050Y115755D02*X158836D01*
X158050Y110245D02*X158836D01*
X152507Y201755D02*X153293D01*
X152507Y196245D02*X153293D01*
X122507Y110255D02*X123293D01*
X122507Y104745D02*X123293D01*
X132538Y129740D02*X137262D01*
X132538Y122260D02*X137262D01*
X126507Y189755D02*X127293D01*
X126507Y184245D02*X127293D01*
X126507Y177755D02*X127293D01*
X126507Y172245D02*X127293D01*
G54D316*X112482Y149441D02*Y104559D01*
X93978D02*X112482D01*
X93978Y149441D02*Y104559D01*
Y149441D02*X112482D01*
G54D317*X120507Y146255D02*X121293D01*
X120507Y140745D02*X121293D01*
X120507Y158255D02*X121293D01*
X120507Y152745D02*X121293D01*
G54D316*X104699Y192748D02*Y161252D01*
X92100D02*X104699D01*
X92100Y192748D02*Y161252D01*
Y192748D02*X104699D01*
X97204Y193493D02*X99556D01*
X97204Y192121D02*X99556D01*
X99721Y192896D02*G75*G03X98349Y194268I-1372J0D01*G01*
G75*G03X96977Y192896I0J-1372D01*G01*
X98380Y191337D02*G75*G03X99752Y192709I0J1372D01*G01*
X97008D02*G75*G03X98380Y191337I1372J0D01*G01*
G54D317*X167155Y201393D02*Y200607D01*
X161645Y201393D02*Y200607D01*
G54D316*X141950Y223500D02*Y209600D01*
X154350D01*
Y223500D01*
X141950D01*
X96500Y223000D02*Y209100D01*
X108900D01*
Y223000D01*
X96500D01*
X268059Y259791D02*Y271406D01*
X210972D02*Y259791D01*
X213925Y271406D02*X210972D01*
X268059D02*X265106D01*
X268059Y259791D02*X265106D01*
X213925D02*X210972D01*
X258217Y277508D02*Y281642D01*
Y277508D02*X257035Y278689D01*
X258217Y277508D02*X259398Y278689D01*
X257035D02*X259398D01*
G54D317*X26564Y238255D02*X27350D01*
X26564Y232745D02*X27350D01*
X64150Y217255D02*X64936D01*
X64150Y211745D02*X64936D01*
X26127Y257314D02*X30063D01*
X26127Y246686D02*X30063D01*
X48650Y260755D02*X49436D01*
X48650Y255245D02*X49436D01*
G54D316*X119950Y223000D02*Y209100D01*
X132350D01*
Y223000D01*
X119950D01*
G54D317*X65064Y259755D02*X65850D01*
X65064Y254245D02*X65850D01*
X67150Y231255D02*X67936D01*
X67150Y225745D02*X67936D01*
X35564Y272755D02*X36350D01*
X35564Y267245D02*X36350D01*
G54D320*X42421Y231913D02*Y232701D01*
X41043Y231913D02*X42421D01*
X41043Y245299D02*Y231913D01*
Y232701D02*X57578D01*
Y245299D02*Y232701D01*
X41043Y245299D02*X57578D01*
G54D317*X28064Y223255D02*X28850D01*
X28064Y217745D02*X28850D01*
X45650Y223755D02*X46436D01*
X45650Y218245D02*X46436D01*
X63043Y283240D02*X67767D01*
X63043Y275760D02*X67767D01*
X380564Y198255D02*X381350D01*
X380564Y192745D02*X381350D01*
X378950Y232355D02*X379736D01*
X378950Y226845D02*X379736D01*
X378864Y246855D02*X379650D01*
X378864Y241345D02*X379650D01*
G54D316*X356350Y245600D02*Y231700D01*
X368750D01*
Y245600D01*
X356350D01*
X402850Y190176D02*Y176276D01*
X415250D01*
Y190176D01*
X402850D01*
G54D317*X340064Y184255D02*X340850D01*
X340064Y178745D02*X340850D01*
X364076Y301931D02*X364862D01*
X364076Y296421D02*X364862D01*
G54D316*X353950Y292500D02*Y278600D01*
X366350D01*
Y292500D01*
X353950D01*
G54D317*X382407Y126855D02*X383193D01*
X382407Y121345D02*X383193D01*
X368055Y127993D02*Y127207D01*
X362545Y127993D02*Y127207D01*
G54D316*X247959Y32791D02*Y44406D01*
X190872D02*Y32791D01*
X193825Y44406D02*X190872D01*
X247959D02*X245006D01*
X247959Y32791D02*X245006D01*
X193825D02*X190872D01*
X238117Y50508D02*Y54642D01*
Y50508D02*X236935Y51689D01*
X238117Y50508D02*X239298Y51689D01*
X236935D02*X239298D01*
G54D317*X205633Y105240D02*X210357D01*
X205633Y97760D02*X210357D01*
X212007Y120255D02*X212793D01*
X212007Y114745D02*X212793D01*
G54D316*X341300Y104100D02*Y90200D01*
X353700D01*
Y104100D01*
X341300D01*
G54D317*X312907Y114355D02*X313693D01*
X312907Y108845D02*X313693D01*
X312864Y97855D02*X313650D01*
X312864Y92345D02*X313650D01*
G54D316*X340300Y70100D02*X354200D01*
Y82500D02*Y70100D01*
X340300Y82500D02*X354200D01*
X340300D02*Y70100D01*
G54D317*X324150Y150755D02*X324936D01*
X324150Y145245D02*X324936D01*
G54D316*X334350Y160100D02*Y146200D01*
X346750D01*
Y160100D01*
X334350D01*
G54D317*X219007Y192255D02*X219793D01*
X219007Y186745D02*X219793D01*
X231538Y184740D02*X236262D01*
X231538Y177260D02*X236262D01*
X333564Y169755D02*X334350D01*
X333564Y164245D02*X334350D01*
G54D316*X341400Y134100D02*Y120200D01*
X353800D01*
Y134100D01*
X341400D01*
X154066Y309433D02*X155366D01*
X153366Y310133D02*X154066Y309433D01*
X153366Y312733D02*Y310133D01*
Y312733D02*X154066Y313433D01*
X155366D01*
X156566Y312933D02*Y309933D01*
Y312933D02*X157066Y313433D01*
X158066D01*
X158566Y312933D01*
Y309933D01*
X158066Y309433D02*X158566Y309933D01*
X157066Y309433D02*X158066D01*
X156566Y309933D02*X157066Y309433D01*
X159766Y313433D02*Y309433D01*
Y313433D02*X162266Y309433D01*
Y313433D02*Y309433D01*
X163466Y313433D02*Y309433D01*
Y313433D02*X165966Y309433D01*
Y313433D02*Y309433D01*
X167666D02*X169666Y313433D01*
X167166D02*X169666D01*
X170866Y309933D02*X171366Y309433D01*
X170866Y312933D02*Y309933D01*
Y312933D02*X171366Y313433D01*
X172366D01*
X172866Y312933D01*
Y309933D01*
X172366Y309433D02*X172866Y309933D01*
X171366Y309433D02*X172366D01*
X170866Y310433D02*X172866Y312433D01*
X174066Y312633D02*X174866Y313433D01*
Y309433D01*
X174066D02*X175566D01*
X61007Y261650D02*X62307D01*
X60307Y262350D02*X61007Y261650D01*
X60307Y264950D02*Y262350D01*
Y264950D02*X61007Y265650D01*
X62307D01*
X63507D02*X65507D01*
X63507D02*Y263650D01*
X64007Y264150D01*
X65007D01*
X65507Y263650D01*
Y262150D01*
X65007Y261650D02*X65507Y262150D01*
X64007Y261650D02*X65007D01*
X63507Y262150D02*X64007Y261650D01*
X66707Y262150D02*X67207Y261650D01*
X66707Y265150D02*Y262150D01*
Y265150D02*X67207Y265650D01*
X68207D01*
X68707Y265150D01*
Y262150D01*
X68207Y261650D02*X68707Y262150D01*
X67207Y261650D02*X68207D01*
X66707Y262650D02*X68707Y264650D01*
X69907Y265150D02*X70407Y265650D01*
X71907D01*
X72407Y265150D01*
Y264150D01*
X69907Y261650D02*X72407Y264150D01*
X69907Y261650D02*X72407D01*
X62145Y282650D02*X63445D01*
X61445Y283350D02*X62145Y282650D01*
X61445Y285950D02*Y283350D01*
Y285950D02*X62145Y286650D01*
X63445D01*
X64645D02*X66645D01*
X64645D02*Y284650D01*
X65145Y285150D01*
X66145D01*
X66645Y284650D01*
Y283150D01*
X66145Y282650D02*X66645Y283150D01*
X65145Y282650D02*X66145D01*
X64645Y283150D02*X65145Y282650D01*
X67845Y285850D02*X68645Y286650D01*
Y282650D01*
X67845D02*X69345D01*
X70545Y286150D02*X71045Y286650D01*
X72545D01*
X73045Y286150D01*
Y285150D01*
X70545Y282650D02*X73045Y285150D01*
X70545Y282650D02*X73045D01*
X30769Y278650D02*X32769D01*
X33269Y278150D01*
Y277150D01*
X32769Y276650D02*X33269Y277150D01*
X31269Y276650D02*X32769D01*
X31269Y278650D02*Y274650D01*
X32069Y276650D02*X33269Y274650D01*
X34469Y278650D02*X36469D01*
X34469D02*Y276650D01*
X34969Y277150D01*
X35969D01*
X36469Y276650D01*
Y275150D01*
X35969Y274650D02*X36469Y275150D01*
X34969Y274650D02*X35969D01*
X34469Y275150D02*X34969Y274650D01*
X37669Y277850D02*X38469Y278650D01*
Y274650D01*
X37669D02*X39169D01*
X40369Y275150D02*X40869Y274650D01*
X40369Y275950D02*Y275150D01*
Y275950D02*X41069Y276650D01*
X41669D01*
X42369Y275950D01*
Y275150D01*
X41869Y274650D02*X42369Y275150D01*
X40869Y274650D02*X41869D01*
X40369Y277350D02*X41069Y276650D01*
X40369Y278150D02*Y277350D01*
Y278150D02*X40869Y278650D01*
X41869D01*
X42369Y278150D01*
Y277350D01*
X41669Y276650D02*X42369Y277350D01*
X44437Y272150D02*X45737D01*
X43737Y272850D02*X44437Y272150D01*
X43737Y275450D02*Y272850D01*
Y275450D02*X44437Y276150D01*
X45737D01*
X46937D02*X48937D01*
X46937D02*Y274150D01*
X47437Y274650D01*
X48437D01*
X48937Y274150D01*
Y272650D01*
X48437Y272150D02*X48937Y272650D01*
X47437Y272150D02*X48437D01*
X46937Y272650D02*X47437Y272150D01*
X50137Y275350D02*X50937Y276150D01*
Y272150D01*
X50137D02*X51637D01*
X52837Y275350D02*X53637Y276150D01*
Y272150D01*
X52837D02*X54337D01*
X46593Y261150D02*X47893D01*
X45893Y261850D02*X46593Y261150D01*
X45893Y264450D02*Y261850D01*
Y264450D02*X46593Y265150D01*
X47893D01*
X49093D02*X51093D01*
X49093D02*Y263150D01*
X49593Y263650D01*
X50593D01*
X51093Y263150D01*
Y261650D01*
X50593Y261150D02*X51093Y261650D01*
X49593Y261150D02*X50593D01*
X49093Y261650D02*X49593Y261150D01*
X52293Y261650D02*X52793Y261150D01*
X52293Y264650D02*Y261650D01*
Y264650D02*X52793Y265150D01*
X53793D01*
X54293Y264650D01*
Y261650D01*
X53793Y261150D02*X54293Y261650D01*
X52793Y261150D02*X53793D01*
X52293Y262150D02*X54293Y264150D01*
X55993Y261150D02*X57493Y263150D01*
Y264650D02*Y263150D01*
X56993Y265150D02*X57493Y264650D01*
X55993Y265150D02*X56993D01*
X55493Y264650D02*X55993Y265150D01*
X55493Y264650D02*Y263650D01*
X55993Y263150D01*
X57493D01*
X101500Y78000D02*X105500D01*
Y76700D02*X104800Y76000D01*
X102200D02*X104800D01*
X101500Y76700D02*X102200Y76000D01*
X101500Y78500D02*Y76700D01*
X105500Y78500D02*Y76700D01*
Y74800D02*Y72800D01*
X103500Y74800D02*X105500D01*
X103500D02*X104000Y74300D01*
Y73300D01*
X103500Y72800D01*
X102000D02*X103500D01*
X101500Y73300D02*X102000Y72800D01*
X101500Y74300D02*Y73300D01*
X102000Y74800D02*X101500Y74300D01*
X102000Y71600D02*X101500Y71100D01*
X102000Y71600D02*X105000D01*
X105500Y71100D01*
Y70100D01*
X105000Y69600D01*
X102000D02*X105000D01*
X101500Y70100D02*X102000Y69600D01*
X101500Y71100D02*Y70100D01*
X102500Y71600D02*X104500Y69600D01*
X104700Y68400D02*X105500Y67600D01*
X101500D02*X105500D01*
X101500Y68400D02*Y66900D01*
X213620Y50823D02*X214920D01*
X212920Y51523D02*X213620Y50823D01*
X212920Y54123D02*Y51523D01*
Y54123D02*X213620Y54823D01*
X214920D01*
X216120Y54323D02*Y51323D01*
Y54323D02*X216620Y54823D01*
X217620D01*
X218120Y54323D01*
Y51323D01*
X217620Y50823D02*X218120Y51323D01*
X216620Y50823D02*X217620D01*
X216120Y51323D02*X216620Y50823D01*
X219320Y54823D02*Y50823D01*
Y54823D02*X221820Y50823D01*
Y54823D02*Y50823D01*
X223020Y54823D02*Y50823D01*
Y54823D02*X225520Y50823D01*
Y54823D02*Y50823D01*
X227220D02*X229220Y54823D01*
X226720D02*X229220D01*
X230420Y51323D02*X230920Y50823D01*
X230420Y54323D02*Y51323D01*
Y54323D02*X230920Y54823D01*
X231920D01*
X232420Y54323D01*
Y51323D01*
X231920Y50823D02*X232420Y51323D01*
X230920Y50823D02*X231920D01*
X230420Y51823D02*X232420Y53823D01*
X233620Y54323D02*X234120Y54823D01*
X235120D01*
X235620Y54323D01*
X235120Y50823D02*X235620Y51323D01*
X234120Y50823D02*X235120D01*
X233620Y51323D02*X234120Y50823D01*
Y53023D02*X235120D01*
X235620Y54323D02*Y53523D01*
Y52523D02*Y51323D01*
Y52523D02*X235120Y53023D01*
X235620Y53523D02*X235120Y53023D01*
X203597Y106650D02*X204897D01*
X202897Y107350D02*X203597Y106650D01*
X202897Y109950D02*Y107350D01*
Y109950D02*X203597Y110650D01*
X204897D01*
X206097Y109850D02*X206897Y110650D01*
Y106650D01*
X206097D02*X207597D01*
X208797Y107150D02*X209297Y106650D01*
X208797Y110150D02*Y107150D01*
Y110150D02*X209297Y110650D01*
X210297D01*
X210797Y110150D01*
Y107150D01*
X210297Y106650D02*X210797Y107150D01*
X209297Y106650D02*X210297D01*
X208797Y107650D02*X210797Y109650D01*
X211997Y109850D02*X212797Y110650D01*
Y106650D01*
X211997D02*X213497D01*
X154536Y116150D02*X155836D01*
X153836Y116850D02*X154536Y116150D01*
X153836Y119450D02*Y116850D01*
Y119450D02*X154536Y120150D01*
X155836D01*
X157036Y119350D02*X157836Y120150D01*
Y116150D01*
X157036D02*X158536D01*
X159736Y119350D02*X160536Y120150D01*
Y116150D01*
X159736D02*X161236D01*
X162436Y119650D02*X162936Y120150D01*
X163936D01*
X164436Y119650D01*
X163936Y116150D02*X164436Y116650D01*
X162936Y116150D02*X163936D01*
X162436Y116650D02*X162936Y116150D01*
Y118350D02*X163936D01*
X164436Y119650D02*Y118850D01*
Y117850D02*Y116650D01*
Y117850D02*X163936Y118350D01*
X164436Y118850D02*X163936Y118350D01*
X116750Y115650D02*X118750D01*
X119250Y115150D01*
Y114150D01*
X118750Y113650D02*X119250Y114150D01*
X117250Y113650D02*X118750D01*
X117250Y115650D02*Y111650D01*
X118050Y113650D02*X119250Y111650D01*
X120450Y114850D02*X121250Y115650D01*
Y111650D01*
X120450D02*X121950D01*
X123150Y112150D02*X123650Y111650D01*
X123150Y115150D02*Y112150D01*
Y115150D02*X123650Y115650D01*
X124650D01*
X125150Y115150D01*
Y112150D01*
X124650Y111650D02*X125150Y112150D01*
X123650Y111650D02*X124650D01*
X123150Y112650D02*X125150Y114650D01*
X126350Y115650D02*X128350D01*
X126350D02*Y113650D01*
X126850Y114150D01*
X127850D01*
X128350Y113650D01*
Y112150D01*
X127850Y111650D02*X128350Y112150D01*
X126850Y111650D02*X127850D01*
X126350Y112150D02*X126850Y111650D01*
X207493Y121650D02*X208793D01*
X206793Y122350D02*X207493Y121650D01*
X206793Y124950D02*Y122350D01*
Y124950D02*X207493Y125650D01*
X208793D01*
X209993Y124850D02*X210793Y125650D01*
Y121650D01*
X209993D02*X211493D01*
X212693Y124850D02*X213493Y125650D01*
Y121650D01*
X212693D02*X214193D01*
X215393Y125150D02*X215893Y125650D01*
X217393D01*
X217893Y125150D01*
Y124150D01*
X215393Y121650D02*X217893Y124150D01*
X215393Y121650D02*X217893D01*
X176950Y88650D02*X178250D01*
X176250Y89350D02*X176950Y88650D01*
X176250Y91950D02*Y89350D01*
Y91950D02*X176950Y92650D01*
X178250D01*
X179450Y91850D02*X180250Y92650D01*
Y88650D01*
X179450D02*X180950D01*
X182150Y91850D02*X182950Y92650D01*
Y88650D01*
X182150D02*X183650D01*
X186350Y92650D02*X186850Y92150D01*
X185350Y92650D02*X186350D01*
X184850Y92150D02*X185350Y92650D01*
X184850Y92150D02*Y89150D01*
X185350Y88650D01*
X186350Y90850D02*X186850Y90350D01*
X184850Y90850D02*X186350D01*
X185350Y88650D02*X186350D01*
X186850Y89150D01*
Y90350D02*Y89150D01*
X150200Y257000D02*X151500D01*
X149500Y257700D02*X150200Y257000D01*
X149500Y260300D02*Y257700D01*
Y260300D02*X150200Y261000D01*
X151500D01*
X152700Y260500D02*Y257500D01*
Y260500D02*X153200Y261000D01*
X154200D01*
X154700Y260500D01*
Y257500D01*
X154200Y257000D02*X154700Y257500D01*
X153200Y257000D02*X154200D01*
X152700Y257500D02*X153200Y257000D01*
X155900Y261000D02*Y257000D01*
Y261000D02*X158400Y257000D01*
Y261000D02*Y257000D01*
X159600Y261000D02*Y257000D01*
Y261000D02*X162100Y257000D01*
Y261000D02*Y257000D01*
X163800D02*X165800Y261000D01*
X163300D02*X165800D01*
X167000Y257500D02*X167500Y257000D01*
X167000Y260500D02*Y257500D01*
Y260500D02*X167500Y261000D01*
X168500D01*
X169000Y260500D01*
Y257500D01*
X168500Y257000D02*X169000Y257500D01*
X167500Y257000D02*X168500D01*
X167000Y258000D02*X169000Y260000D01*
X170200Y258500D02*X172200Y261000D01*
X170200Y258500D02*X172700D01*
X172200Y261000D02*Y257000D01*
X134350Y222500D02*X138350D01*
Y221200D02*X137650Y220500D01*
X135050D02*X137650D01*
X134350Y221200D02*X135050Y220500D01*
X134350Y223000D02*Y221200D01*
X138350Y223000D02*Y221200D01*
Y219300D02*Y217300D01*
X136350Y219300D02*X138350D01*
X136350D02*X136850Y218800D01*
Y217800D01*
X136350Y217300D01*
X134850D02*X136350D01*
X134350Y217800D02*X134850Y217300D01*
X134350Y218800D02*Y217800D01*
X134850Y219300D02*X134350Y218800D01*
X134850Y216100D02*X134350Y215600D01*
X134850Y216100D02*X137850D01*
X138350Y215600D01*
Y214600D01*
X137850Y214100D01*
X134850D02*X137850D01*
X134350Y214600D02*X134850Y214100D01*
X134350Y215600D02*Y214600D01*
X135350Y216100D02*X137350Y214100D01*
X138350Y212900D02*Y210900D01*
X136350Y212900D02*X138350D01*
X136350D02*X136850Y212400D01*
Y211400D01*
X136350Y210900D01*
X134850D02*X136350D01*
X134350Y211400D02*X134850Y210900D01*
X134350Y212400D02*Y211400D01*
X134850Y212900D02*X134350Y212400D01*
X148993Y203150D02*X150293D01*
X148293Y203850D02*X148993Y203150D01*
X148293Y206450D02*Y203850D01*
Y206450D02*X148993Y207150D01*
X150293D01*
X151493Y206350D02*X152293Y207150D01*
Y203150D01*
X151493D02*X152993D01*
X154193Y206350D02*X154993Y207150D01*
Y203150D01*
X154193D02*X155693D01*
X156893Y203650D02*X157393Y203150D01*
X156893Y206650D02*Y203650D01*
Y206650D02*X157393Y207150D01*
X158393D01*
X158893Y206650D01*
Y203650D01*
X158393Y203150D02*X158893Y203650D01*
X157393Y203150D02*X158393D01*
X156893Y204150D02*X158893Y206150D01*
X156950Y225500D02*X160950D01*
Y224200D02*X160250Y223500D01*
X157650D02*X160250D01*
X156950Y224200D02*X157650Y223500D01*
X156950Y226000D02*Y224200D01*
X160950Y226000D02*Y224200D01*
Y222300D02*Y220300D01*
X158950Y222300D02*X160950D01*
X158950D02*X159450Y221800D01*
Y220800D01*
X158950Y220300D01*
X157450D02*X158950D01*
X156950Y220800D02*X157450Y220300D01*
X156950Y221800D02*Y220800D01*
X157450Y222300D02*X156950Y221800D01*
X157450Y219100D02*X156950Y218600D01*
X157450Y219100D02*X160450D01*
X160950Y218600D01*
Y217600D01*
X160450Y217100D01*
X157450D02*X160450D01*
X156950Y217600D02*X157450Y217100D01*
X156950Y218600D02*Y217600D01*
X157950Y219100D02*X159950Y217100D01*
X160450Y215900D02*X160950Y215400D01*
Y214400D01*
X160450Y213900D01*
X156950Y214400D02*X157450Y213900D01*
X156950Y215400D02*Y214400D01*
X157450Y215900D02*X156950Y215400D01*
X159150D02*Y214400D01*
X159650Y213900D02*X160450D01*
X157450D02*X158650D01*
X159150Y214400D01*
X159650Y213900D02*X159150Y214400D01*
X22769Y243150D02*X24769D01*
X25269Y242650D01*
Y241650D01*
X24769Y241150D02*X25269Y241650D01*
X23269Y241150D02*X24769D01*
X23269Y243150D02*Y239150D01*
X24069Y241150D02*X25269Y239150D01*
X26469Y243150D02*X28469D01*
X26469D02*Y241150D01*
X26969Y241650D01*
X27969D01*
X28469Y241150D01*
Y239650D01*
X27969Y239150D02*X28469Y239650D01*
X26969Y239150D02*X27969D01*
X26469Y239650D02*X26969Y239150D01*
X29669Y242350D02*X30469Y243150D01*
Y239150D01*
X29669D02*X31169D01*
X32369Y242350D02*X33169Y243150D01*
Y239150D01*
X32369D02*X33869D01*
X23769Y227650D02*X25769D01*
X26269Y227150D01*
Y226150D01*
X25769Y225650D02*X26269Y226150D01*
X24269Y225650D02*X25769D01*
X24269Y227650D02*Y223650D01*
X25069Y225650D02*X26269Y223650D01*
X27469Y227650D02*X29469D01*
X27469D02*Y225650D01*
X27969Y226150D01*
X28969D01*
X29469Y225650D01*
Y224150D01*
X28969Y223650D02*X29469Y224150D01*
X27969Y223650D02*X28969D01*
X27469Y224150D02*X27969Y223650D01*
X30669Y226850D02*X31469Y227650D01*
Y223650D01*
X30669D02*X32169D01*
X33869D02*X35369Y225650D01*
Y227150D02*Y225650D01*
X34869Y227650D02*X35369Y227150D01*
X33869Y227650D02*X34869D01*
X33369Y227150D02*X33869Y227650D01*
X33369Y227150D02*Y226150D01*
X33869Y225650D01*
X35369D01*
X24145Y259150D02*X25445D01*
X23445Y259850D02*X24145Y259150D01*
X23445Y262450D02*Y259850D01*
Y262450D02*X24145Y263150D01*
X25445D01*
X26645D02*X28645D01*
X26645D02*Y261150D01*
X27145Y261650D01*
X28145D01*
X28645Y261150D01*
Y259650D01*
X28145Y259150D02*X28645Y259650D01*
X27145Y259150D02*X28145D01*
X26645Y259650D02*X27145Y259150D01*
X29845Y262350D02*X30645Y263150D01*
Y259150D01*
X29845D02*X31345D01*
X32545Y259650D02*X33045Y259150D01*
X32545Y262650D02*Y259650D01*
Y262650D02*X33045Y263150D01*
X34045D01*
X34545Y262650D01*
Y259650D01*
X34045Y259150D02*X34545Y259650D01*
X33045Y259150D02*X34045D01*
X32545Y260150D02*X34545Y262150D01*
X172550Y207150D02*Y205150D01*
X172050Y204650D01*
X171050D02*X172050D01*
X170550Y205150D02*X171050Y204650D01*
X170550Y206650D02*Y205150D01*
X168550Y206650D02*X172550D01*
X170550Y205850D02*X168550Y204650D01*
X171750Y203450D02*X172550Y202650D01*
X168550D02*X172550D01*
X168550Y203450D02*Y201950D01*
X169050Y200750D02*X168550Y200250D01*
X169050Y200750D02*X172050D01*
X172550Y200250D01*
Y199250D01*
X172050Y198750D01*
X169050D02*X172050D01*
X168550Y199250D02*X169050Y198750D01*
X168550Y200250D02*Y199250D01*
X169550Y200750D02*X171550Y198750D01*
X169050Y197550D02*X168550Y197050D01*
X169050Y197550D02*X172050D01*
X172550Y197050D01*
Y196050D01*
X172050Y195550D01*
X169050D02*X172050D01*
X168550Y196050D02*X169050Y195550D01*
X168550Y197050D02*Y196050D01*
X169550Y197550D02*X171550Y195550D01*
X288350Y206000D02*X292350D01*
Y204700D02*X291650Y204000D01*
X289050D02*X291650D01*
X288350Y204700D02*X289050Y204000D01*
X288350Y206500D02*Y204700D01*
X292350Y206500D02*Y204700D01*
Y202800D02*Y200800D01*
X290350Y202800D02*X292350D01*
X290350D02*X290850Y202300D01*
Y201300D01*
X290350Y200800D01*
X288850D02*X290350D01*
X288350Y201300D02*X288850Y200800D01*
X288350Y202300D02*Y201300D01*
X288850Y202800D02*X288350Y202300D01*
X288850Y199600D02*X288350Y199100D01*
X288850Y199600D02*X291850D01*
X292350Y199100D01*
Y198100D01*
X291850Y197600D01*
X288850D02*X291850D01*
X288350Y198100D02*X288850Y197600D01*
X288350Y199100D02*Y198100D01*
X289350Y199600D02*X291350Y197600D01*
X288850Y196400D02*X288350Y195900D01*
X288850Y196400D02*X291850D01*
X292350Y195900D01*
Y194900D01*
X291850Y194400D01*
X288850D02*X291850D01*
X288350Y194900D02*X288850Y194400D01*
X288350Y195900D02*Y194900D01*
X289350Y196400D02*X291350Y194400D01*
X111400Y221500D02*X115400D01*
Y220200D02*X114700Y219500D01*
X112100D02*X114700D01*
X111400Y220200D02*X112100Y219500D01*
X111400Y222000D02*Y220200D01*
X115400Y222000D02*Y220200D01*
Y218300D02*Y216300D01*
X113400Y218300D02*X115400D01*
X113400D02*X113900Y217800D01*
Y216800D01*
X113400Y216300D01*
X111900D02*X113400D01*
X111400Y216800D02*X111900Y216300D01*
X111400Y217800D02*Y216800D01*
X111900Y218300D02*X111400Y217800D01*
X111900Y215100D02*X111400Y214600D01*
X111900Y215100D02*X114900D01*
X115400Y214600D01*
Y213600D01*
X114900Y213100D01*
X111900D02*X114900D01*
X111400Y213600D02*X111900Y213100D01*
X111400Y214600D02*Y213600D01*
X112400Y215100D02*X114400Y213100D01*
X112900Y211900D02*X115400Y209900D01*
X112900Y211900D02*Y209400D01*
X111400Y209900D02*X115400D01*
X52807Y200150D02*X54807D01*
X55307Y199650D01*
Y198650D01*
X54807Y198150D02*X55307Y198650D01*
X53307Y198150D02*X54807D01*
X53307Y200150D02*Y196150D01*
X54107Y198150D02*X55307Y196150D01*
X56507Y200150D02*X58507D01*
X56507D02*Y198150D01*
X57007Y198650D01*
X58007D01*
X58507Y198150D01*
Y196650D01*
X58007Y196150D02*X58507Y196650D01*
X57007Y196150D02*X58007D01*
X56507Y196650D02*X57007Y196150D01*
X59707Y196650D02*X60207Y196150D01*
X59707Y199650D02*Y196650D01*
Y199650D02*X60207Y200150D01*
X61207D01*
X61707Y199650D01*
Y196650D01*
X61207Y196150D02*X61707Y196650D01*
X60207Y196150D02*X61207D01*
X59707Y197150D02*X61707Y199150D01*
X64407Y200150D02*X64907Y199650D01*
X63407Y200150D02*X64407D01*
X62907Y199650D02*X63407Y200150D01*
X62907Y199650D02*Y196650D01*
X63407Y196150D01*
X64407Y198350D02*X64907Y197850D01*
X62907Y198350D02*X64407D01*
X63407Y196150D02*X64407D01*
X64907Y196650D01*
Y197850D02*Y196650D01*
X40441Y205650D02*X42441D01*
X42941Y205150D01*
Y204150D01*
X42441Y203650D02*X42941Y204150D01*
X40941Y203650D02*X42441D01*
X40941Y205650D02*Y201650D01*
X41741Y203650D02*X42941Y201650D01*
X44141Y205650D02*X46141D01*
X44141D02*Y203650D01*
X44641Y204150D01*
X45641D01*
X46141Y203650D01*
Y202150D01*
X45641Y201650D02*X46141Y202150D01*
X44641Y201650D02*X45641D01*
X44141Y202150D02*X44641Y201650D01*
X47341Y204850D02*X48141Y205650D01*
Y201650D01*
X47341D02*X48841D01*
X50041Y205650D02*X52041D01*
X50041D02*Y203650D01*
X50541Y204150D01*
X51541D01*
X52041Y203650D01*
Y202150D01*
X51541Y201650D02*X52041Y202150D01*
X50541Y201650D02*X51541D01*
X50041Y202150D02*X50541Y201650D01*
X23855Y197650D02*X25855D01*
X26355Y197150D01*
Y196150D01*
X25855Y195650D02*X26355Y196150D01*
X24355Y195650D02*X25855D01*
X24355Y197650D02*Y193650D01*
X25155Y195650D02*X26355Y193650D01*
X27555Y197650D02*X29555D01*
X27555D02*Y195650D01*
X28055Y196150D01*
X29055D01*
X29555Y195650D01*
Y194150D01*
X29055Y193650D02*X29555Y194150D01*
X28055Y193650D02*X29055D01*
X27555Y194150D02*X28055Y193650D01*
X30755Y194150D02*X31255Y193650D01*
X30755Y197150D02*Y194150D01*
Y197150D02*X31255Y197650D01*
X32255D01*
X32755Y197150D01*
Y194150D01*
X32255Y193650D02*X32755Y194150D01*
X31255Y193650D02*X32255D01*
X30755Y194650D02*X32755Y196650D01*
X33955Y197150D02*X34455Y197650D01*
X35455D01*
X35955Y197150D01*
X35455Y193650D02*X35955Y194150D01*
X34455Y193650D02*X35455D01*
X33955Y194150D02*X34455Y193650D01*
Y195850D02*X35455D01*
X35955Y197150D02*Y196350D01*
Y195350D02*Y194150D01*
Y195350D02*X35455Y195850D01*
X35955Y196350D02*X35455Y195850D01*
X63355Y237150D02*X65355D01*
X65855Y236650D01*
Y235650D01*
X65355Y235150D02*X65855Y235650D01*
X63855Y235150D02*X65355D01*
X63855Y237150D02*Y233150D01*
X64655Y235150D02*X65855Y233150D01*
X67055Y237150D02*X69055D01*
X67055D02*Y235150D01*
X67555Y235650D01*
X68555D01*
X69055Y235150D01*
Y233650D01*
X68555Y233150D02*X69055Y233650D01*
X67555Y233150D02*X68555D01*
X67055Y233650D02*X67555Y233150D01*
X70255Y236350D02*X71055Y237150D01*
Y233150D01*
X70255D02*X71755D01*
X73455D02*X75455Y237150D01*
X72955D02*X75455D01*
X58893Y221650D02*X60893D01*
X61393Y221150D01*
Y220150D01*
X60893Y219650D02*X61393Y220150D01*
X59393Y219650D02*X60893D01*
X59393Y221650D02*Y217650D01*
X60193Y219650D02*X61393Y217650D01*
X62593Y221650D02*X64593D01*
X62593D02*Y219650D01*
X63093Y220150D01*
X64093D01*
X64593Y219650D01*
Y218150D01*
X64093Y217650D02*X64593Y218150D01*
X63093Y217650D02*X64093D01*
X62593Y218150D02*X63093Y217650D01*
X65793Y220850D02*X66593Y221650D01*
Y217650D01*
X65793D02*X67293D01*
X69993Y221650D02*X70493Y221150D01*
X68993Y221650D02*X69993D01*
X68493Y221150D02*X68993Y221650D01*
X68493Y221150D02*Y218150D01*
X68993Y217650D01*
X69993Y219850D02*X70493Y219350D01*
X68493Y219850D02*X69993D01*
X68993Y217650D02*X69993D01*
X70493Y218150D01*
Y219350D02*Y218150D01*
X43622Y229500D02*Y226000D01*
X44122Y225500D01*
X45122D01*
X45622Y226000D01*
Y229500D02*Y226000D01*
X46822Y229500D02*X48822D01*
X46822D02*Y227500D01*
X47322Y228000D01*
X48322D01*
X48822Y227500D01*
Y226000D01*
X48322Y225500D02*X48822Y226000D01*
X47322Y225500D02*X48322D01*
X46822Y226000D02*X47322Y225500D01*
X50022Y226000D02*X50522Y225500D01*
X50022Y229000D02*Y226000D01*
Y229000D02*X50522Y229500D01*
X51522D01*
X52022Y229000D01*
Y226000D01*
X51522Y225500D02*X52022Y226000D01*
X50522Y225500D02*X51522D01*
X50022Y226500D02*X52022Y228500D01*
X53222Y229000D02*X53722Y229500D01*
X55222D01*
X55722Y229000D01*
Y228000D01*
X53222Y225500D02*X55722Y228000D01*
X53222Y225500D02*X55722D01*
X43441Y227650D02*X45441D01*
X45941Y227150D01*
Y226150D01*
X45441Y225650D02*X45941Y226150D01*
X43941Y225650D02*X45441D01*
X43941Y227650D02*Y223650D01*
X44741Y225650D02*X45941Y223650D01*
X47141Y227650D02*X49141D01*
X47141D02*Y225650D01*
X47641Y226150D01*
X48641D01*
X49141Y225650D01*
Y224150D01*
X48641Y223650D02*X49141Y224150D01*
X47641Y223650D02*X48641D01*
X47141Y224150D02*X47641Y223650D01*
X50341Y227150D02*X50841Y227650D01*
X52341D01*
X52841Y227150D01*
Y226150D01*
X50341Y223650D02*X52841Y226150D01*
X50341Y223650D02*X52841D01*
X54041Y224150D02*X54541Y223650D01*
X54041Y227150D02*Y224150D01*
Y227150D02*X54541Y227650D01*
X55541D01*
X56041Y227150D01*
Y224150D01*
X55541Y223650D02*X56041Y224150D01*
X54541Y223650D02*X55541D01*
X54041Y224650D02*X56041Y226650D01*
X94050Y205891D02*Y204591D01*
X94750Y206591D02*X94050Y205891D01*
X94750Y206591D02*X97350D01*
X98050Y205891D01*
Y204591D01*
X97250Y203391D02*X98050Y202591D01*
X94050D02*X98050D01*
X94050Y203391D02*Y201891D01*
X94550Y200691D02*X94050Y200191D01*
X94550Y200691D02*X97550D01*
X98050Y200191D01*
Y199191D01*
X97550Y198691D01*
X94550D02*X97550D01*
X94050Y199191D02*X94550Y198691D01*
X94050Y200191D02*Y199191D01*
X95050Y200691D02*X97050Y198691D01*
X95550Y197491D02*X98050Y195491D01*
X95550Y197491D02*Y194991D01*
X94050Y195491D02*X98050D01*
X110550Y205009D02*Y203709D01*
X111250Y205709D02*X110550Y205009D01*
X111250Y205709D02*X113850D01*
X114550Y205009D01*
Y203709D01*
X113750Y202509D02*X114550Y201709D01*
X110550D02*X114550D01*
X110550Y202509D02*Y201009D01*
X111050Y199809D02*X110550Y199309D01*
X111050Y199809D02*X114050D01*
X114550Y199309D01*
Y198309D01*
X114050Y197809D01*
X111050D02*X114050D01*
X110550Y198309D02*X111050Y197809D01*
X110550Y199309D02*Y198309D01*
X111550Y199809D02*X113550Y197809D01*
X114050Y196609D02*X114550Y196109D01*
Y195109D01*
X114050Y194609D01*
X110550Y195109D02*X111050Y194609D01*
X110550Y196109D02*Y195109D01*
X111050Y196609D02*X110550Y196109D01*
X112750D02*Y195109D01*
X113250Y194609D02*X114050D01*
X111050D02*X112250D01*
X112750Y195109D01*
X113250Y194609D02*X112750Y195109D01*
X141400Y189500D02*Y186000D01*
X141900Y185500D01*
X142900D01*
X143400Y186000D01*
Y189500D02*Y186000D01*
X144600Y188700D02*X145400Y189500D01*
Y185500D01*
X144600D02*X146100D01*
X147300Y186000D02*X147800Y185500D01*
X147300Y189000D02*Y186000D01*
Y189000D02*X147800Y189500D01*
X148800D01*
X149300Y189000D01*
Y186000D01*
X148800Y185500D02*X149300Y186000D01*
X147800Y185500D02*X148800D01*
X147300Y186500D02*X149300Y188500D01*
X150500Y186000D02*X151000Y185500D01*
X150500Y189000D02*Y186000D01*
Y189000D02*X151000Y189500D01*
X152000D01*
X152500Y189000D01*
Y186000D01*
X152000Y185500D02*X152500Y186000D01*
X151000Y185500D02*X152000D01*
X150500Y186500D02*X152500Y188500D01*
X120707Y195150D02*X122707D01*
X123207Y194650D01*
Y193650D01*
X122707Y193150D02*X123207Y193650D01*
X121207Y193150D02*X122707D01*
X121207Y195150D02*Y191150D01*
X122007Y193150D02*X123207Y191150D01*
X124407Y194350D02*X125207Y195150D01*
Y191150D01*
X124407D02*X125907D01*
X127107Y191650D02*X127607Y191150D01*
X127107Y194650D02*Y191650D01*
Y194650D02*X127607Y195150D01*
X128607D01*
X129107Y194650D01*
Y191650D01*
X128607Y191150D02*X129107Y191650D01*
X127607Y191150D02*X128607D01*
X127107Y192150D02*X129107Y194150D01*
X130307Y194350D02*X131107Y195150D01*
Y191150D01*
X130307D02*X131807D01*
X40307Y193150D02*X42307D01*
X42807Y192650D01*
Y191650D01*
X42307Y191150D02*X42807Y191650D01*
X40807Y191150D02*X42307D01*
X40807Y193150D02*Y189150D01*
X41607Y191150D02*X42807Y189150D01*
X44007Y193150D02*X46007D01*
X44007D02*Y191150D01*
X44507Y191650D01*
X45507D01*
X46007Y191150D01*
Y189650D01*
X45507Y189150D02*X46007Y189650D01*
X44507Y189150D02*X45507D01*
X44007Y189650D02*X44507Y189150D01*
X47207Y189650D02*X47707Y189150D01*
X47207Y192650D02*Y189650D01*
Y192650D02*X47707Y193150D01*
X48707D01*
X49207Y192650D01*
Y189650D01*
X48707Y189150D02*X49207Y189650D01*
X47707Y189150D02*X48707D01*
X47207Y190150D02*X49207Y192150D01*
X50407Y193150D02*X52407D01*
X50407D02*Y191150D01*
X50907Y191650D01*
X51907D01*
X52407Y191150D01*
Y189650D01*
X51907Y189150D02*X52407Y189650D01*
X50907Y189150D02*X51907D01*
X50407Y189650D02*X50907Y189150D01*
X120750Y183150D02*X122750D01*
X123250Y182650D01*
Y181650D01*
X122750Y181150D02*X123250Y181650D01*
X121250Y181150D02*X122750D01*
X121250Y183150D02*Y179150D01*
X122050Y181150D02*X123250Y179150D01*
X124450Y182350D02*X125250Y183150D01*
Y179150D01*
X124450D02*X125950D01*
X127150Y179650D02*X127650Y179150D01*
X127150Y182650D02*Y179650D01*
Y182650D02*X127650Y183150D01*
X128650D01*
X129150Y182650D01*
Y179650D01*
X128650Y179150D02*X129150Y179650D01*
X127650Y179150D02*X128650D01*
X127150Y180150D02*X129150Y182150D01*
X130350Y182650D02*X130850Y183150D01*
X132350D01*
X132850Y182650D01*
Y181650D01*
X130350Y179150D02*X132850Y181650D01*
X130350Y179150D02*X132850D01*
X89450Y155650D02*X90750D01*
X88750Y156350D02*X89450Y155650D01*
X88750Y158950D02*Y156350D01*
Y158950D02*X89450Y159650D01*
X90750D01*
X91950Y158850D02*X92750Y159650D01*
Y155650D01*
X91950D02*X93450D01*
X94650Y156150D02*X95150Y155650D01*
X94650Y159150D02*Y156150D01*
Y159150D02*X95150Y159650D01*
X96150D01*
X96650Y159150D01*
Y156150D01*
X96150Y155650D02*X96650Y156150D01*
X95150Y155650D02*X96150D01*
X94650Y156650D02*X96650Y158650D01*
X97850Y159650D02*X99850D01*
X97850D02*Y157650D01*
X98350Y158150D01*
X99350D01*
X99850Y157650D01*
Y156150D01*
X99350Y155650D02*X99850Y156150D01*
X98350Y155650D02*X99350D01*
X97850Y156150D02*X98350Y155650D01*
X110026Y188374D02*X114026Y185874D01*
Y188374D02*X110026Y185874D01*
X114026Y184674D02*Y182674D01*
X110026Y183674D02*X114026D01*
X110026Y181474D02*X113026D01*
X114026Y180774D01*
Y179674D01*
X113026Y178974D01*
X110026D02*X113026D01*
X112026Y181474D02*Y178974D01*
X110026Y177774D02*X114026D01*
X110026D02*Y175774D01*
X113226Y174574D02*X114026Y173774D01*
X110026D02*X114026D01*
X110026Y174574D02*Y173074D01*
X110526Y171874D02*X110026Y171374D01*
X110526Y171874D02*X113526D01*
X114026Y171374D01*
Y170374D01*
X113526Y169874D01*
X110526D02*X113526D01*
X110026Y170374D02*X110526Y169874D01*
X110026Y171374D02*Y170374D01*
X111026Y171874D02*X113026Y169874D01*
X113526Y168674D02*X114026Y168174D01*
Y166674D01*
X113526Y166174D01*
X112526D02*X113526D01*
X110026Y168674D02*X112526Y166174D01*
X110026Y168674D02*Y166174D01*
X131450Y145650D02*X132750D01*
X130750Y146350D02*X131450Y145650D01*
X130750Y148950D02*Y146350D01*
Y148950D02*X131450Y149650D01*
X132750D01*
X133950Y148850D02*X134750Y149650D01*
Y145650D01*
X133950D02*X135450D01*
X136650Y148850D02*X137450Y149650D01*
Y145650D01*
X136650D02*X138150D01*
X139850D02*X141350Y147650D01*
Y149150D02*Y147650D01*
X140850Y149650D02*X141350Y149150D01*
X139850Y149650D02*X140850D01*
X139350Y149150D02*X139850Y149650D01*
X139350Y149150D02*Y148150D01*
X139850Y147650D01*
X141350D01*
X127391Y166650D02*X128691D01*
X126691Y167350D02*X127391Y166650D01*
X126691Y169950D02*Y167350D01*
Y169950D02*X127391Y170650D01*
X128691D01*
X129891Y169850D02*X130691Y170650D01*
Y166650D01*
X129891D02*X131391D01*
X132591Y170150D02*X133091Y170650D01*
X134591D01*
X135091Y170150D01*
Y169150D01*
X132591Y166650D02*X135091Y169150D01*
X132591Y166650D02*X135091D01*
X136291Y167150D02*X136791Y166650D01*
X136291Y170150D02*Y167150D01*
Y170150D02*X136791Y170650D01*
X137791D01*
X138291Y170150D01*
Y167150D01*
X137791Y166650D02*X138291Y167150D01*
X136791Y166650D02*X137791D01*
X136291Y167650D02*X138291Y169650D01*
X130950Y131150D02*X132250D01*
X130250Y131850D02*X130950Y131150D01*
X130250Y134450D02*Y131850D01*
Y134450D02*X130950Y135150D01*
X132250D01*
X133450Y134350D02*X134250Y135150D01*
Y131150D01*
X133450D02*X134950D01*
X136150Y134350D02*X136950Y135150D01*
Y131150D01*
X136150D02*X137650D01*
X138850Y131650D02*X139350Y131150D01*
X138850Y132450D02*Y131650D01*
Y132450D02*X139550Y133150D01*
X140150D01*
X140850Y132450D01*
Y131650D01*
X140350Y131150D02*X140850Y131650D01*
X139350Y131150D02*X140350D01*
X138850Y133850D02*X139550Y133150D01*
X138850Y134650D02*Y133850D01*
Y134650D02*X139350Y135150D01*
X140350D01*
X140850Y134650D01*
Y133850D01*
X140150Y133150D02*X140850Y133850D01*
X114069Y138571D02*X118069Y136071D01*
Y138571D02*X114069Y136071D01*
X118069Y134871D02*Y132871D01*
X114069Y133871D02*X118069D01*
X114069Y131671D02*X117069D01*
X118069Y130971D01*
Y129871D01*
X117069Y129171D01*
X114069D02*X117069D01*
X116069Y131671D02*Y129171D01*
X114069Y127971D02*X118069D01*
X114069D02*Y125971D01*
X117269Y124771D02*X118069Y123971D01*
X114069D02*X118069D01*
X114069Y124771D02*Y123271D01*
X114569Y122071D02*X114069Y121571D01*
X114569Y122071D02*X117569D01*
X118069Y121571D01*
Y120571D01*
X117569Y120071D01*
X114569D02*X117569D01*
X114069Y120571D02*X114569Y120071D01*
X114069Y121571D02*Y120571D01*
X115069Y122071D02*X117069Y120071D01*
X117269Y118871D02*X118069Y118071D01*
X114069D02*X118069D01*
X114069Y118871D02*Y117371D01*
X114750Y151650D02*X116750D01*
X117250Y151150D01*
Y150150D01*
X116750Y149650D02*X117250Y150150D01*
X115250Y149650D02*X116750D01*
X115250Y151650D02*Y147650D01*
X116050Y149650D02*X117250Y147650D01*
X118450Y150850D02*X119250Y151650D01*
Y147650D01*
X118450D02*X119950D01*
X121150Y148150D02*X121650Y147650D01*
X121150Y151150D02*Y148150D01*
Y151150D02*X121650Y151650D01*
X122650D01*
X123150Y151150D01*
Y148150D01*
X122650Y147650D02*X123150Y148150D01*
X121650Y147650D02*X122650D01*
X121150Y148650D02*X123150Y150650D01*
X124350Y149150D02*X126350Y151650D01*
X124350Y149150D02*X126850D01*
X126350Y151650D02*Y147650D01*
X114750Y163650D02*X116750D01*
X117250Y163150D01*
Y162150D01*
X116750Y161650D02*X117250Y162150D01*
X115250Y161650D02*X116750D01*
X115250Y163650D02*Y159650D01*
X116050Y161650D02*X117250Y159650D01*
X118450Y162850D02*X119250Y163650D01*
Y159650D01*
X118450D02*X119950D01*
X121150Y160150D02*X121650Y159650D01*
X121150Y163150D02*Y160150D01*
Y163150D02*X121650Y163650D01*
X122650D01*
X123150Y163150D01*
Y160150D01*
X122650Y159650D02*X123150Y160150D01*
X121650Y159650D02*X122650D01*
X121150Y160650D02*X123150Y162650D01*
X124350Y163150D02*X124850Y163650D01*
X125850D01*
X126350Y163150D01*
X125850Y159650D02*X126350Y160150D01*
X124850Y159650D02*X125850D01*
X124350Y160150D02*X124850Y159650D01*
Y161850D02*X125850D01*
X126350Y163150D02*Y162350D01*
Y161350D02*Y160150D01*
Y161350D02*X125850Y161850D01*
X126350Y162350D02*X125850Y161850D01*
X59000Y131500D02*Y128000D01*
X59500Y127500D01*
X60500D01*
X61000Y128000D01*
Y131500D02*Y128000D01*
X62200Y131500D02*X64200D01*
X62200D02*Y129500D01*
X62700Y130000D01*
X63700D01*
X64200Y129500D01*
Y128000D01*
X63700Y127500D02*X64200Y128000D01*
X62700Y127500D02*X63700D01*
X62200Y128000D02*X62700Y127500D01*
X65400Y128000D02*X65900Y127500D01*
X65400Y131000D02*Y128000D01*
Y131000D02*X65900Y131500D01*
X66900D01*
X67400Y131000D01*
Y128000D01*
X66900Y127500D02*X67400Y128000D01*
X65900Y127500D02*X66900D01*
X65400Y128500D02*X67400Y130500D01*
X68600Y130700D02*X69400Y131500D01*
Y127500D01*
X68600D02*X70100D01*
X27769Y138650D02*X29769D01*
X30269Y138150D01*
Y137150D01*
X29769Y136650D02*X30269Y137150D01*
X28269Y136650D02*X29769D01*
X28269Y138650D02*Y134650D01*
X29069Y136650D02*X30269Y134650D01*
X31469Y138650D02*X33469D01*
X31469D02*Y136650D01*
X31969Y137150D01*
X32969D01*
X33469Y136650D01*
Y135150D01*
X32969Y134650D02*X33469Y135150D01*
X31969Y134650D02*X32969D01*
X31469Y135150D02*X31969Y134650D01*
X34669Y137850D02*X35469Y138650D01*
Y134650D01*
X34669D02*X36169D01*
X37369Y138150D02*X37869Y138650D01*
X38869D01*
X39369Y138150D01*
X38869Y134650D02*X39369Y135150D01*
X37869Y134650D02*X38869D01*
X37369Y135150D02*X37869Y134650D01*
Y136850D02*X38869D01*
X39369Y138150D02*Y137350D01*
Y136350D02*Y135150D01*
Y136350D02*X38869Y136850D01*
X39369Y137350D02*X38869Y136850D01*
X21855Y151650D02*X23855D01*
X24355Y151150D01*
Y150150D01*
X23855Y149650D02*X24355Y150150D01*
X22355Y149650D02*X23855D01*
X22355Y151650D02*Y147650D01*
X23155Y149650D02*X24355Y147650D01*
X25555Y151650D02*X27555D01*
X25555D02*Y149650D01*
X26055Y150150D01*
X27055D01*
X27555Y149650D01*
Y148150D01*
X27055Y147650D02*X27555Y148150D01*
X26055Y147650D02*X27055D01*
X25555Y148150D02*X26055Y147650D01*
X28755Y150850D02*X29555Y151650D01*
Y147650D01*
X28755D02*X30255D01*
X31455Y149150D02*X33455Y151650D01*
X31455Y149150D02*X33955D01*
X33455Y151650D02*Y147650D01*
X46269Y141150D02*X48269D01*
X48769Y140650D01*
Y139650D01*
X48269Y139150D02*X48769Y139650D01*
X46769Y139150D02*X48269D01*
X46769Y141150D02*Y137150D01*
X47569Y139150D02*X48769Y137150D01*
X49969Y141150D02*X51969D01*
X49969D02*Y139150D01*
X50469Y139650D01*
X51469D01*
X51969Y139150D01*
Y137650D01*
X51469Y137150D02*X51969Y137650D01*
X50469Y137150D02*X51469D01*
X49969Y137650D02*X50469Y137150D01*
X53169Y140350D02*X53969Y141150D01*
Y137150D01*
X53169D02*X54669D01*
X55869Y140650D02*X56369Y141150D01*
X57869D01*
X58369Y140650D01*
Y139650D01*
X55869Y137150D02*X58369Y139650D01*
X55869Y137150D02*X58369D01*
X31807Y124650D02*X33807D01*
X34307Y124150D01*
Y123150D01*
X33807Y122650D02*X34307Y123150D01*
X32307Y122650D02*X33807D01*
X32307Y124650D02*Y120650D01*
X33107Y122650D02*X34307Y120650D01*
X35507Y124650D02*X37507D01*
X35507D02*Y122650D01*
X36007Y123150D01*
X37007D01*
X37507Y122650D01*
Y121150D01*
X37007Y120650D02*X37507Y121150D01*
X36007Y120650D02*X37007D01*
X35507Y121150D02*X36007Y120650D01*
X38707Y121150D02*X39207Y120650D01*
X38707Y124150D02*Y121150D01*
Y124150D02*X39207Y124650D01*
X40207D01*
X40707Y124150D01*
Y121150D01*
X40207Y120650D02*X40707Y121150D01*
X39207Y120650D02*X40207D01*
X38707Y121650D02*X40707Y123650D01*
X42407Y120650D02*X44407Y124650D01*
X41907D02*X44407D01*
X25145Y165150D02*X26445D01*
X24445Y165850D02*X25145Y165150D01*
X24445Y168450D02*Y165850D01*
Y168450D02*X25145Y169150D01*
X26445D01*
X27645D02*X29645D01*
X27645D02*Y167150D01*
X28145Y167650D01*
X29145D01*
X29645Y167150D01*
Y165650D01*
X29145Y165150D02*X29645Y165650D01*
X28145Y165150D02*X29145D01*
X27645Y165650D02*X28145Y165150D01*
X30845Y165650D02*X31345Y165150D01*
X30845Y168650D02*Y165650D01*
Y168650D02*X31345Y169150D01*
X32345D01*
X32845Y168650D01*
Y165650D01*
X32345Y165150D02*X32845Y165650D01*
X31345Y165150D02*X32345D01*
X30845Y166150D02*X32845Y168150D01*
X34545Y165150D02*X36545Y169150D01*
X34045D02*X36545D01*
X53555Y173650D02*X54855D01*
X52855Y174350D02*X53555Y173650D01*
X52855Y176950D02*Y174350D01*
Y176950D02*X53555Y177650D01*
X54855D01*
X56055D02*X58055D01*
X56055D02*Y175650D01*
X56555Y176150D01*
X57555D01*
X58055Y175650D01*
Y174150D01*
X57555Y173650D02*X58055Y174150D01*
X56555Y173650D02*X57555D01*
X56055Y174150D02*X56555Y173650D01*
X59255Y174150D02*X59755Y173650D01*
X59255Y177150D02*Y174150D01*
Y177150D02*X59755Y177650D01*
X60755D01*
X61255Y177150D01*
Y174150D01*
X60755Y173650D02*X61255Y174150D01*
X59755Y173650D02*X60755D01*
X59255Y174650D02*X61255Y176650D01*
X62455Y176850D02*X63255Y177650D01*
Y173650D01*
X62455D02*X63955D01*
X70855Y174650D02*X72855D01*
X73355Y174150D01*
Y173150D01*
X72855Y172650D02*X73355Y173150D01*
X71355Y172650D02*X72855D01*
X71355Y174650D02*Y170650D01*
X72155Y172650D02*X73355Y170650D01*
X74555Y174650D02*X76555D01*
X74555D02*Y172650D01*
X75055Y173150D01*
X76055D01*
X76555Y172650D01*
Y171150D01*
X76055Y170650D02*X76555Y171150D01*
X75055Y170650D02*X76055D01*
X74555Y171150D02*X75055Y170650D01*
X77755Y171150D02*X78255Y170650D01*
X77755Y174150D02*Y171150D01*
Y174150D02*X78255Y174650D01*
X79255D01*
X79755Y174150D01*
Y171150D01*
X79255Y170650D02*X79755Y171150D01*
X78255Y170650D02*X79255D01*
X77755Y171650D02*X79755Y173650D01*
X80955Y173850D02*X81755Y174650D01*
Y170650D01*
X80955D02*X82455D01*
X36807Y182150D02*X38807D01*
X39307Y181650D01*
Y180650D01*
X38807Y180150D02*X39307Y180650D01*
X37307Y180150D02*X38807D01*
X37307Y182150D02*Y178150D01*
X38107Y180150D02*X39307Y178150D01*
X40507Y182150D02*X42507D01*
X40507D02*Y180150D01*
X41007Y180650D01*
X42007D01*
X42507Y180150D01*
Y178650D01*
X42007Y178150D02*X42507Y178650D01*
X41007Y178150D02*X42007D01*
X40507Y178650D02*X41007Y178150D01*
X43707Y178650D02*X44207Y178150D01*
X43707Y181650D02*Y178650D01*
Y181650D02*X44207Y182150D01*
X45207D01*
X45707Y181650D01*
Y178650D01*
X45207Y178150D02*X45707Y178650D01*
X44207Y178150D02*X45207D01*
X43707Y179150D02*X45707Y181150D01*
X46907Y179650D02*X48907Y182150D01*
X46907Y179650D02*X49407D01*
X48907Y182150D02*Y178150D01*
X94550Y101568D02*Y100268D01*
X95250Y102268D02*X94550Y101568D01*
X95250Y102268D02*X97850D01*
X98550Y101568D01*
Y100268D01*
X97750Y99068D02*X98550Y98268D01*
X94550D02*X98550D01*
X94550Y99068D02*Y97568D01*
X95050Y96368D02*X94550Y95868D01*
X95050Y96368D02*X98050D01*
X98550Y95868D01*
Y94868D01*
X98050Y94368D01*
X95050D02*X98050D01*
X94550Y94868D02*X95050Y94368D01*
X94550Y95868D02*Y94868D01*
X95550Y96368D02*X97550Y94368D01*
X98550Y91668D02*X98050Y91168D01*
X98550Y92668D02*Y91668D01*
X98050Y93168D02*X98550Y92668D01*
X95050Y93168D02*X98050D01*
X95050D02*X94550Y92668D01*
X96750Y91668D02*X96250Y91168D01*
X96750Y93168D02*Y91668D01*
X94550Y92668D02*Y91668D01*
X95050Y91168D01*
X96250D01*
X39609Y81150D02*X40909D01*
X38909Y81850D02*X39609Y81150D01*
X38909Y84450D02*Y81850D01*
Y84450D02*X39609Y85150D01*
X40909D01*
X42109D02*X44109D01*
X42109D02*Y83150D01*
X42609Y83650D01*
X43609D01*
X44109Y83150D01*
Y81650D01*
X43609Y81150D02*X44109Y81650D01*
X42609Y81150D02*X43609D01*
X42109Y81650D02*X42609Y81150D01*
X45309Y81650D02*X45809Y81150D01*
X45309Y84650D02*Y81650D01*
Y84650D02*X45809Y85150D01*
X46809D01*
X47309Y84650D01*
Y81650D01*
X46809Y81150D02*X47309Y81650D01*
X45809Y81150D02*X46809D01*
X45309Y82150D02*X47309Y84150D01*
X48509Y84650D02*X49009Y85150D01*
X50009D01*
X50509Y84650D01*
X50009Y81150D02*X50509Y81650D01*
X49009Y81150D02*X50009D01*
X48509Y81650D02*X49009Y81150D01*
Y83350D02*X50009D01*
X50509Y84650D02*Y83850D01*
Y82850D02*Y81650D01*
Y82850D02*X50009Y83350D01*
X50509Y83850D02*X50009Y83350D01*
X41455Y92650D02*X42755D01*
X40755Y93350D02*X41455Y92650D01*
X40755Y95950D02*Y93350D01*
Y95950D02*X41455Y96650D01*
X42755D01*
X43955D02*X45955D01*
X43955D02*Y94650D01*
X44455Y95150D01*
X45455D01*
X45955Y94650D01*
Y93150D01*
X45455Y92650D02*X45955Y93150D01*
X44455Y92650D02*X45455D01*
X43955Y93150D02*X44455Y92650D01*
X47155Y93150D02*X47655Y92650D01*
X47155Y96150D02*Y93150D01*
Y96150D02*X47655Y96650D01*
X48655D01*
X49155Y96150D01*
Y93150D01*
X48655Y92650D02*X49155Y93150D01*
X47655Y92650D02*X48655D01*
X47155Y93650D02*X49155Y95650D01*
X50355Y93150D02*X50855Y92650D01*
X50355Y93950D02*Y93150D01*
Y93950D02*X51055Y94650D01*
X51655D01*
X52355Y93950D01*
Y93150D01*
X51855Y92650D02*X52355Y93150D01*
X50855Y92650D02*X51855D01*
X50355Y95350D02*X51055Y94650D01*
X50355Y96150D02*Y95350D01*
Y96150D02*X50855Y96650D01*
X51855D01*
X52355Y96150D01*
Y95350D01*
X51655Y94650D02*X52355Y95350D01*
X63393Y117650D02*X65393D01*
X65893Y117150D01*
Y116150D01*
X65393Y115650D02*X65893Y116150D01*
X63893Y115650D02*X65393D01*
X63893Y117650D02*Y113650D01*
X64693Y115650D02*X65893Y113650D01*
X67093Y117650D02*X69093D01*
X67093D02*Y115650D01*
X67593Y116150D01*
X68593D01*
X69093Y115650D01*
Y114150D01*
X68593Y113650D02*X69093Y114150D01*
X67593Y113650D02*X68593D01*
X67093Y114150D02*X67593Y113650D01*
X70293Y114150D02*X70793Y113650D01*
X70293Y117150D02*Y114150D01*
Y117150D02*X70793Y117650D01*
X71793D01*
X72293Y117150D01*
Y114150D01*
X71793Y113650D02*X72293Y114150D01*
X70793Y113650D02*X71793D01*
X70293Y114650D02*X72293Y116650D01*
X73993Y113650D02*X75493Y115650D01*
Y117150D02*Y115650D01*
X74993Y117650D02*X75493Y117150D01*
X73993Y117650D02*X74993D01*
X73493Y117150D02*X73993Y117650D01*
X73493Y117150D02*Y116150D01*
X73993Y115650D01*
X75493D01*
X46109Y107650D02*X47409D01*
X45409Y108350D02*X46109Y107650D01*
X45409Y110950D02*Y108350D01*
Y110950D02*X46109Y111650D01*
X47409D01*
X48609D02*X50609D01*
X48609D02*Y109650D01*
X49109Y110150D01*
X50109D01*
X50609Y109650D01*
Y108150D01*
X50109Y107650D02*X50609Y108150D01*
X49109Y107650D02*X50109D01*
X48609Y108150D02*X49109Y107650D01*
X51809Y108150D02*X52309Y107650D01*
X51809Y111150D02*Y108150D01*
Y111150D02*X52309Y111650D01*
X53309D01*
X53809Y111150D01*
Y108150D01*
X53309Y107650D02*X53809Y108150D01*
X52309Y107650D02*X53309D01*
X51809Y108650D02*X53809Y110650D01*
X55009Y109150D02*X57009Y111650D01*
X55009Y109150D02*X57509D01*
X57009Y111650D02*Y107650D01*
X28855Y112150D02*X30855D01*
X31355Y111650D01*
Y110650D01*
X30855Y110150D02*X31355Y110650D01*
X29355Y110150D02*X30855D01*
X29355Y112150D02*Y108150D01*
X30155Y110150D02*X31355Y108150D01*
X32555Y112150D02*X34555D01*
X32555D02*Y110150D01*
X33055Y110650D01*
X34055D01*
X34555Y110150D01*
Y108650D01*
X34055Y108150D02*X34555Y108650D01*
X33055Y108150D02*X34055D01*
X32555Y108650D02*X33055Y108150D01*
X35755Y108650D02*X36255Y108150D01*
X35755Y111650D02*Y108650D01*
Y111650D02*X36255Y112150D01*
X37255D01*
X37755Y111650D01*
Y108650D01*
X37255Y108150D02*X37755Y108650D01*
X36255Y108150D02*X37255D01*
X35755Y109150D02*X37755Y111150D01*
X38955Y111650D02*X39455Y112150D01*
X40955D01*
X41455Y111650D01*
Y110650D01*
X38955Y108150D02*X41455Y110650D01*
X38955Y108150D02*X41455D01*
X48855Y124650D02*X50855D01*
X51355Y124150D01*
Y123150D01*
X50855Y122650D02*X51355Y123150D01*
X49355Y122650D02*X50855D01*
X49355Y124650D02*Y120650D01*
X50155Y122650D02*X51355Y120650D01*
X52555Y124650D02*X54555D01*
X52555D02*Y122650D01*
X53055Y123150D01*
X54055D01*
X54555Y122650D01*
Y121150D01*
X54055Y120650D02*X54555Y121150D01*
X53055Y120650D02*X54055D01*
X52555Y121150D02*X53055Y120650D01*
X55755Y121150D02*X56255Y120650D01*
X55755Y124150D02*Y121150D01*
Y124150D02*X56255Y124650D01*
X57255D01*
X57755Y124150D01*
Y121150D01*
X57255Y120650D02*X57755Y121150D01*
X56255Y120650D02*X57255D01*
X55755Y121650D02*X57755Y123650D01*
X58955Y121150D02*X59455Y120650D01*
X58955Y121950D02*Y121150D01*
Y121950D02*X59655Y122650D01*
X60255D01*
X60955Y121950D01*
Y121150D01*
X60455Y120650D02*X60955Y121150D01*
X59455Y120650D02*X60455D01*
X58955Y123350D02*X59655Y122650D01*
X58955Y124150D02*Y123350D01*
Y124150D02*X59455Y124650D01*
X60455D01*
X60955Y124150D01*
Y123350D01*
X60255Y122650D02*X60955Y123350D01*
X63850Y46050D02*Y42050D01*
Y46050D02*X65850D01*
X63850Y44250D02*X65350D01*
X67050Y46050D02*X69050D01*
X67050D02*Y44050D01*
X67550Y44550D01*
X68550D01*
X69050Y44050D01*
Y42550D01*
X68550Y42050D02*X69050Y42550D01*
X67550Y42050D02*X68550D01*
X67050Y42550D02*X67550Y42050D01*
X70250Y42550D02*X70750Y42050D01*
X70250Y45550D02*Y42550D01*
Y45550D02*X70750Y46050D01*
X71750D01*
X72250Y45550D01*
Y42550D01*
X71750Y42050D02*X72250Y42550D01*
X70750Y42050D02*X71750D01*
X70250Y43050D02*X72250Y45050D01*
X73450Y45250D02*X74250Y46050D01*
Y42050D01*
X73450D02*X74950D01*
X81900Y41400D02*X83900D01*
X84400Y41900D01*
Y43100D02*Y41900D01*
X83900Y43600D02*X84400Y43100D01*
X82400Y43600D02*X83900D01*
X82400Y45400D02*Y41400D01*
X81900Y45400D02*X83900D01*
X84400Y44900D01*
Y44100D01*
X83900Y43600D02*X84400Y44100D01*
X85600Y45400D02*X87600D01*
X85600D02*Y43400D01*
X86100Y43900D01*
X87100D01*
X87600Y43400D01*
Y41900D01*
X87100Y41400D02*X87600Y41900D01*
X86100Y41400D02*X87100D01*
X85600Y41900D02*X86100Y41400D01*
X88800Y41900D02*X89300Y41400D01*
X88800Y44900D02*Y41900D01*
Y44900D02*X89300Y45400D01*
X90300D01*
X90800Y44900D01*
Y41900D01*
X90300Y41400D02*X90800Y41900D01*
X89300Y41400D02*X90300D01*
X88800Y42400D02*X90800Y44400D01*
X92000Y41900D02*X92500Y41400D01*
X92000Y44900D02*Y41900D01*
Y44900D02*X92500Y45400D01*
X93500D01*
X94000Y44900D01*
Y41900D01*
X93500Y41400D02*X94000Y41900D01*
X92500Y41400D02*X93500D01*
X92000Y42400D02*X94000Y44400D01*
X377350Y204150D02*X379350D01*
X379850Y203650D01*
Y202650D01*
X379350Y202150D02*X379850Y202650D01*
X377850Y202150D02*X379350D01*
X377850Y204150D02*Y200150D01*
X378650Y202150D02*X379850Y200150D01*
X382550Y204150D02*X383050Y203650D01*
X381550Y204150D02*X382550D01*
X381050Y203650D02*X381550Y204150D01*
X381050Y203650D02*Y200650D01*
X381550Y200150D01*
X382550Y202350D02*X383050Y201850D01*
X381050Y202350D02*X382550D01*
X381550Y200150D02*X382550D01*
X383050Y200650D01*
Y201850D02*Y200650D01*
X384250D02*X384750Y200150D01*
X384250Y203650D02*Y200650D01*
Y203650D02*X384750Y204150D01*
X385750D01*
X386250Y203650D01*
Y200650D01*
X385750Y200150D02*X386250Y200650D01*
X384750Y200150D02*X385750D01*
X384250Y201150D02*X386250Y203150D01*
X387450Y203350D02*X388250Y204150D01*
Y200150D01*
X387450D02*X388950D01*
X374607Y237750D02*X376607D01*
X377107Y237250D01*
Y236250D01*
X376607Y235750D02*X377107Y236250D01*
X375107Y235750D02*X376607D01*
X375107Y237750D02*Y233750D01*
X375907Y235750D02*X377107Y233750D01*
X379807Y237750D02*X380307Y237250D01*
X378807Y237750D02*X379807D01*
X378307Y237250D02*X378807Y237750D01*
X378307Y237250D02*Y234250D01*
X378807Y233750D01*
X379807Y235950D02*X380307Y235450D01*
X378307Y235950D02*X379807D01*
X378807Y233750D02*X379807D01*
X380307Y234250D01*
Y235450D02*Y234250D01*
X381507D02*X382007Y233750D01*
X381507Y237250D02*Y234250D01*
Y237250D02*X382007Y237750D01*
X383007D01*
X383507Y237250D01*
Y234250D01*
X383007Y233750D02*X383507Y234250D01*
X382007Y233750D02*X383007D01*
X381507Y234750D02*X383507Y236750D01*
X386207Y237750D02*X386707Y237250D01*
X385207Y237750D02*X386207D01*
X384707Y237250D02*X385207Y237750D01*
X384707Y237250D02*Y234250D01*
X385207Y233750D01*
X386207Y235950D02*X386707Y235450D01*
X384707Y235950D02*X386207D01*
X385207Y233750D02*X386207D01*
X386707Y234250D01*
Y235450D02*Y234250D01*
X412250Y189676D02*X416250D01*
Y188376D02*X415550Y187676D01*
X412950D02*X415550D01*
X412250Y188376D02*X412950Y187676D01*
X412250Y190176D02*Y188376D01*
X416250Y190176D02*Y188376D01*
Y184976D02*X415750Y184476D01*
X416250Y185976D02*Y184976D01*
X415750Y186476D02*X416250Y185976D01*
X412750Y186476D02*X415750D01*
X412750D02*X412250Y185976D01*
X414450Y184976D02*X413950Y184476D01*
X414450Y186476D02*Y184976D01*
X412250Y185976D02*Y184976D01*
X412750Y184476D01*
X413950D01*
X412750Y183276D02*X412250Y182776D01*
X412750Y183276D02*X415750D01*
X416250Y182776D01*
Y181776D01*
X415750Y181276D01*
X412750D02*X415750D01*
X412250Y181776D02*X412750Y181276D01*
X412250Y182776D02*Y181776D01*
X413250Y183276D02*X415250Y181276D01*
X413750Y180076D02*X416250Y178076D01*
X413750Y180076D02*Y177576D01*
X412250Y178076D02*X416250D01*
X331807Y175150D02*X333807D01*
X334307Y174650D01*
Y173650D01*
X333807Y173150D02*X334307Y173650D01*
X332307Y173150D02*X333807D01*
X332307Y175150D02*Y171150D01*
X333107Y173150D02*X334307Y171150D01*
X337007Y175150D02*X337507Y174650D01*
X336007Y175150D02*X337007D01*
X335507Y174650D02*X336007Y175150D01*
X335507Y174650D02*Y171650D01*
X336007Y171150D01*
X337007Y173350D02*X337507Y172850D01*
X335507Y173350D02*X337007D01*
X336007Y171150D02*X337007D01*
X337507Y171650D01*
Y172850D02*Y171650D01*
X338707D02*X339207Y171150D01*
X338707Y174650D02*Y171650D01*
Y174650D02*X339207Y175150D01*
X340207D01*
X340707Y174650D01*
Y171650D01*
X340207Y171150D02*X340707Y171650D01*
X339207Y171150D02*X340207D01*
X338707Y172150D02*X340707Y174150D01*
X341907Y172650D02*X343907Y175150D01*
X341907Y172650D02*X344407D01*
X343907Y175150D02*Y171150D01*
X336007Y186150D02*X337307D01*
X335307Y186850D02*X336007Y186150D01*
X335307Y189450D02*Y186850D01*
Y189450D02*X336007Y190150D01*
X337307D01*
X340007D02*X340507Y189650D01*
X339007Y190150D02*X340007D01*
X338507Y189650D02*X339007Y190150D01*
X338507Y189650D02*Y186650D01*
X339007Y186150D01*
X340007Y188350D02*X340507Y187850D01*
X338507Y188350D02*X340007D01*
X339007Y186150D02*X340007D01*
X340507Y186650D01*
Y187850D02*Y186650D01*
X341707D02*X342207Y186150D01*
X341707Y189650D02*Y186650D01*
Y189650D02*X342207Y190150D01*
X343207D01*
X343707Y189650D01*
Y186650D01*
X343207Y186150D02*X343707Y186650D01*
X342207Y186150D02*X343207D01*
X341707Y187150D02*X343707Y189150D01*
X344907Y186650D02*X345407Y186150D01*
X344907Y189650D02*Y186650D01*
Y189650D02*X345407Y190150D01*
X346407D01*
X346907Y189650D01*
Y186650D01*
X346407Y186150D02*X346907Y186650D01*
X345407Y186150D02*X346407D01*
X344907Y187150D02*X346907Y189150D01*
X357319Y300902D02*X359319D01*
X359819Y300402D01*
Y299402D01*
X359319Y298902D02*X359819Y299402D01*
X357819Y298902D02*X359319D01*
X357819Y300902D02*Y296902D01*
X358619Y298902D02*X359819Y296902D01*
X362519Y300902D02*X363019Y300402D01*
X361519Y300902D02*X362519D01*
X361019Y300402D02*X361519Y300902D01*
X361019Y300402D02*Y297402D01*
X361519Y296902D01*
X362519Y299102D02*X363019Y298602D01*
X361019Y299102D02*X362519D01*
X361519Y296902D02*X362519D01*
X363019Y297402D01*
Y298602D02*Y297402D01*
X364219D02*X364719Y296902D01*
X364219Y300402D02*Y297402D01*
Y300402D02*X364719Y300902D01*
X365719D01*
X366219Y300402D01*
Y297402D01*
X365719Y296902D02*X366219Y297402D01*
X364719Y296902D02*X365719D01*
X364219Y297902D02*X366219Y299902D01*
X367419Y300402D02*X367919Y300902D01*
X369419D01*
X369919Y300402D01*
Y299402D01*
X367419Y296902D02*X369919Y299402D01*
X367419Y296902D02*X369919D01*
X363350Y292000D02*X367350D01*
Y290700D02*X366650Y290000D01*
X364050D02*X366650D01*
X363350Y290700D02*X364050Y290000D01*
X363350Y292500D02*Y290700D01*
X367350Y292500D02*Y290700D01*
Y287300D02*X366850Y286800D01*
X367350Y288300D02*Y287300D01*
X366850Y288800D02*X367350Y288300D01*
X363850Y288800D02*X366850D01*
X363850D02*X363350Y288300D01*
X365550Y287300D02*X365050Y286800D01*
X365550Y288800D02*Y287300D01*
X363350Y288300D02*Y287300D01*
X363850Y286800D01*
X365050D01*
X363850Y285600D02*X363350Y285100D01*
X363850Y285600D02*X366850D01*
X367350Y285100D01*
Y284100D01*
X366850Y283600D01*
X363850D02*X366850D01*
X363350Y284100D02*X363850Y283600D01*
X363350Y285100D02*Y284100D01*
X364350Y285600D02*X366350Y283600D01*
X366850Y282400D02*X367350Y281900D01*
Y280900D01*
X366850Y280400D01*
X363350Y280900D02*X363850Y280400D01*
X363350Y281900D02*Y280900D01*
X363850Y282400D02*X363350Y281900D01*
X365550D02*Y280900D01*
X366050Y280400D02*X366850D01*
X363850D02*X365050D01*
X365550Y280900D01*
X366050Y280400D02*X365550Y280900D01*
X341150Y310750D02*X343150D01*
X343650Y310250D01*
Y309250D01*
X343150Y308750D02*X343650Y309250D01*
X341650Y308750D02*X343150D01*
X341650Y310750D02*Y306750D01*
X342450Y308750D02*X343650Y306750D01*
X346350Y310750D02*X346850Y310250D01*
X345350Y310750D02*X346350D01*
X344850Y310250D02*X345350Y310750D01*
X344850Y310250D02*Y307250D01*
X345350Y306750D01*
X346350Y308950D02*X346850Y308450D01*
X344850Y308950D02*X346350D01*
X345350Y306750D02*X346350D01*
X346850Y307250D01*
Y308450D02*Y307250D01*
X348050D02*X348550Y306750D01*
X348050Y310250D02*Y307250D01*
Y310250D02*X348550Y310750D01*
X349550D01*
X350050Y310250D01*
Y307250D01*
X349550Y306750D02*X350050Y307250D01*
X348550Y306750D02*X349550D01*
X348050Y307750D02*X350050Y309750D01*
X351250Y310250D02*X351750Y310750D01*
X352750D01*
X353250Y310250D01*
X352750Y306750D02*X353250Y307250D01*
X351750Y306750D02*X352750D01*
X351250Y307250D02*X351750Y306750D01*
Y308950D02*X352750D01*
X353250Y310250D02*Y309450D01*
Y308450D02*Y307250D01*
Y308450D02*X352750Y308950D01*
X353250Y309450D02*X352750Y308950D01*
X377021Y252750D02*X379021D01*
X379521Y252250D01*
Y251250D01*
X379021Y250750D02*X379521Y251250D01*
X377521Y250750D02*X379021D01*
X377521Y252750D02*Y248750D01*
X378321Y250750D02*X379521Y248750D01*
X382221Y252750D02*X382721Y252250D01*
X381221Y252750D02*X382221D01*
X380721Y252250D02*X381221Y252750D01*
X380721Y252250D02*Y249250D01*
X381221Y248750D01*
X382221Y250950D02*X382721Y250450D01*
X380721Y250950D02*X382221D01*
X381221Y248750D02*X382221D01*
X382721Y249250D01*
Y250450D02*Y249250D01*
X383921D02*X384421Y248750D01*
X383921Y252250D02*Y249250D01*
Y252250D02*X384421Y252750D01*
X385421D01*
X385921Y252250D01*
Y249250D01*
X385421Y248750D02*X385921Y249250D01*
X384421Y248750D02*X385421D01*
X383921Y249750D02*X385921Y251750D01*
X387621Y248750D02*X389621Y252750D01*
X387121D02*X389621D01*
X365750Y245100D02*X369750D01*
Y243800D02*X369050Y243100D01*
X366450D02*X369050D01*
X365750Y243800D02*X366450Y243100D01*
X365750Y245600D02*Y243800D01*
X369750Y245600D02*Y243800D01*
Y240400D02*X369250Y239900D01*
X369750Y241400D02*Y240400D01*
X369250Y241900D02*X369750Y241400D01*
X366250Y241900D02*X369250D01*
X366250D02*X365750Y241400D01*
X367950Y240400D02*X367450Y239900D01*
X367950Y241900D02*Y240400D01*
X365750Y241400D02*Y240400D01*
X366250Y239900D01*
X367450D01*
X366250Y238700D02*X365750Y238200D01*
X366250Y238700D02*X369250D01*
X369750Y238200D01*
Y237200D01*
X369250Y236700D01*
X366250D02*X369250D01*
X365750Y237200D02*X366250Y236700D01*
X365750Y238200D02*Y237200D01*
X366750Y238700D02*X368750Y236700D01*
X368950Y235500D02*X369750Y234700D01*
X365750D02*X369750D01*
X365750Y235500D02*Y234000D01*
X377064Y132250D02*X379064D01*
X379564Y131750D01*
Y130750D01*
X379064Y130250D02*X379564Y130750D01*
X377564Y130250D02*X379064D01*
X377564Y132250D02*Y128250D01*
X378364Y130250D02*X379564Y128250D01*
X380764Y131750D02*X381264Y132250D01*
X382264D01*
X382764Y131750D01*
X382264Y128250D02*X382764Y128750D01*
X381264Y128250D02*X382264D01*
X380764Y128750D02*X381264Y128250D01*
Y130450D02*X382264D01*
X382764Y131750D02*Y130950D01*
Y129950D02*Y128750D01*
Y129950D02*X382264Y130450D01*
X382764Y130950D02*X382264Y130450D01*
X383964Y128750D02*X384464Y128250D01*
X383964Y131750D02*Y128750D01*
Y131750D02*X384464Y132250D01*
X385464D01*
X385964Y131750D01*
Y128750D01*
X385464Y128250D02*X385964Y128750D01*
X384464Y128250D02*X385464D01*
X383964Y129250D02*X385964Y131250D01*
X387164Y128750D02*X387664Y128250D01*
X387164Y131750D02*Y128750D01*
Y131750D02*X387664Y132250D01*
X388664D01*
X389164Y131750D01*
Y128750D01*
X388664Y128250D02*X389164Y128750D01*
X387664Y128250D02*X388664D01*
X387164Y129250D02*X389164Y131250D01*
X355300Y133100D02*X359300D01*
Y131800D02*X358600Y131100D01*
X356000D02*X358600D01*
X355300Y131800D02*X356000Y131100D01*
X355300Y133600D02*Y131800D01*
X359300Y133600D02*Y131800D01*
X358800Y129900D02*X359300Y129400D01*
Y128400D01*
X358800Y127900D01*
X355300Y128400D02*X355800Y127900D01*
X355300Y129400D02*Y128400D01*
X355800Y129900D02*X355300Y129400D01*
X357500D02*Y128400D01*
X358000Y127900D02*X358800D01*
X355800D02*X357000D01*
X357500Y128400D01*
X358000Y127900D02*X357500Y128400D01*
X355800Y126700D02*X355300Y126200D01*
X355800Y126700D02*X358800D01*
X359300Y126200D01*
Y125200D01*
X358800Y124700D01*
X355800D02*X358800D01*
X355300Y125200D02*X355800Y124700D01*
X355300Y126200D02*Y125200D01*
X356300Y126700D02*X358300Y124700D01*
X358800Y123500D02*X359300Y123000D01*
Y121500D01*
X358800Y121000D01*
X357800D02*X358800D01*
X355300Y123500D02*X357800Y121000D01*
X355300Y123500D02*Y121000D01*
X369450Y132136D02*Y130836D01*
X370150Y132836D02*X369450Y132136D01*
X370150Y132836D02*X372750D01*
X373450Y132136D01*
Y130836D01*
X372950Y129636D02*X373450Y129136D01*
Y128136D01*
X372950Y127636D01*
X369450Y128136D02*X369950Y127636D01*
X369450Y129136D02*Y128136D01*
X369950Y129636D02*X369450Y129136D01*
X371650D02*Y128136D01*
X372150Y127636D02*X372950D01*
X369950D02*X371150D01*
X371650Y128136D01*
X372150Y127636D02*X371650Y128136D01*
X369950Y126436D02*X369450Y125936D01*
X369950Y126436D02*X372950D01*
X373450Y125936D01*
Y124936D01*
X372950Y124436D01*
X369950D02*X372950D01*
X369450Y124936D02*X369950Y124436D01*
X369450Y125936D02*Y124936D01*
X370450Y126436D02*X372450Y124436D01*
X372650Y123236D02*X373450Y122436D01*
X369450D02*X373450D01*
X369450Y123236D02*Y121736D01*
X411500Y61200D02*X412000Y61700D01*
X411500Y61200D02*Y59700D01*
X412000Y59200D02*X411500Y59700D01*
X412000Y59200D02*X413000D01*
X413500Y59700D01*
Y61200D02*Y59700D01*
Y61200D02*X414000Y61700D01*
X415000D01*
X415500Y61200D02*X415000Y61700D01*
X415500Y61200D02*Y59700D01*
X415000Y59200D02*X415500Y59700D01*
X413300Y64400D02*Y62900D01*
X415500Y64900D02*Y62900D01*
X411500D02*X415500D01*
X411500Y64900D02*Y62900D01*
Y68100D02*Y66100D01*
Y68100D02*X412000Y68600D01*
X413000D01*
X413500Y68100D02*X413000Y68600D01*
X413500Y68100D02*Y66600D01*
X411500D02*X415500D01*
X413500Y67400D02*X415500Y68600D01*
X411500Y70300D02*X415500D01*
X411500Y71800D02*Y69800D01*
Y71800D02*X412000Y72300D01*
X413000D01*
X413500Y71800D02*X413000Y72300D01*
X413500Y71800D02*Y70300D01*
X412500Y73500D02*X415500D01*
X412500D02*X411500Y74200D01*
Y75300D02*Y74200D01*
Y75300D02*X412500Y76000D01*
X415500D01*
X413500D02*Y73500D01*
X415500Y79200D02*Y77900D01*
X414800Y77200D02*X415500Y77900D01*
X412200Y77200D02*X414800D01*
X412200D02*X411500Y77900D01*
Y79200D02*Y77900D01*
X415500Y82400D02*Y80400D01*
X415000Y83600D02*X415500Y84100D01*
X412000Y83600D02*X415000D01*
X412000D02*X411500Y84100D01*
Y85100D02*Y84100D01*
Y85100D02*X412000Y85600D01*
X415000D01*
X415500Y85100D02*X415000Y85600D01*
X415500Y85100D02*Y84100D01*
X414500Y83600D02*X412500Y85600D01*
X412000Y86800D02*X411500Y87300D01*
Y88300D02*Y87300D01*
Y88300D02*X412000Y88800D01*
X415500Y88300D02*X415000Y88800D01*
X415500Y88300D02*Y87300D01*
X415000Y86800D02*X415500Y87300D01*
X413300Y88300D02*Y87300D01*
X412000Y88800D02*X412800D01*
X413800D02*X415000D01*
X413800D02*X413300Y88300D01*
X412800Y88800D02*X413300Y88300D01*
X412300Y90000D02*X411500Y90800D01*
X415500D01*
Y91500D02*Y90000D01*
X411500Y93700D02*Y92700D01*
Y93200D02*X415500D01*
Y93700D02*Y92700D01*
Y95400D02*Y94900D01*
X411500Y98600D02*X412000Y99100D01*
X411500Y98600D02*Y97100D01*
X412000Y96600D02*X411500Y97100D01*
X412000Y96600D02*X415000D01*
X415500Y97100D01*
Y98600D02*Y97100D01*
Y98600D02*X415000Y99100D01*
X414000D02*X415000D01*
X413500Y98600D02*X414000Y99100D01*
X413500Y98600D02*Y97600D01*
Y100300D02*X415500Y102300D01*
Y100300D02*X413500Y102300D01*
X415500Y105500D02*Y103500D01*
X412500Y106700D02*X412600D01*
X414000D02*X415500D01*
X414000Y108200D02*X415500D01*
X414000D02*X413500Y108700D01*
Y109200D02*Y108700D01*
Y109200D02*X414000Y109700D01*
X415500D01*
X413500Y107700D02*X414000Y108200D01*
X415500Y112900D02*Y111400D01*
Y112900D02*X415000Y113400D01*
X414500Y112900D02*X415000Y113400D01*
X414500Y112900D02*Y111400D01*
X414000Y110900D02*X414500Y111400D01*
X414000Y110900D02*X413500Y111400D01*
Y112900D02*Y111400D01*
Y112900D02*X414000Y113400D01*
X415000Y110900D02*X415500Y111400D01*
Y116600D02*Y115100D01*
X415000Y114600D02*X415500Y115100D01*
X414000Y114600D02*X415000D01*
X414000D02*X413500Y115100D01*
Y116100D02*Y115100D01*
Y116100D02*X414000Y116600D01*
X414500D02*Y114600D01*
X414000Y116600D02*X414500D01*
X414000Y118300D02*X415500D01*
X414000D02*X413500Y118800D01*
Y119800D02*Y118800D01*
Y117800D02*X414000Y118300D01*
X411500Y121500D02*X415000D01*
X415500Y122000D01*
X413000D02*Y121000D01*
X355300Y102400D02*X359300D01*
Y101100D02*X358600Y100400D01*
X356000D02*X358600D01*
X355300Y101100D02*X356000Y100400D01*
X355300Y102900D02*Y101100D01*
X359300Y102900D02*Y101100D01*
X358800Y99200D02*X359300Y98700D01*
Y97700D01*
X358800Y97200D01*
X355300Y97700D02*X355800Y97200D01*
X355300Y98700D02*Y97700D01*
X355800Y99200D02*X355300Y98700D01*
X357500D02*Y97700D01*
X358000Y97200D02*X358800D01*
X355800D02*X357000D01*
X357500Y97700D01*
X358000Y97200D02*X357500Y97700D01*
X355800Y96000D02*X355300Y95500D01*
X355800Y96000D02*X358800D01*
X359300Y95500D01*
Y94500D01*
X358800Y94000D01*
X355800D02*X358800D01*
X355300Y94500D02*X355800Y94000D01*
X355300Y95500D02*Y94500D01*
X356300Y96000D02*X358300Y94000D01*
X355800Y92800D02*X355300Y92300D01*
X355800Y92800D02*X358800D01*
X359300Y92300D01*
Y91300D01*
X358800Y90800D01*
X355800D02*X358800D01*
X355300Y91300D02*X355800Y90800D01*
X355300Y92300D02*Y91300D01*
X356300Y92800D02*X358300Y90800D01*
X307650Y119750D02*Y115750D01*
Y119750D02*X309650D01*
X307650Y117950D02*X309150D01*
X310850Y119250D02*X311350Y119750D01*
X312350D01*
X312850Y119250D01*
X312350Y115750D02*X312850Y116250D01*
X311350Y115750D02*X312350D01*
X310850Y116250D02*X311350Y115750D01*
Y117950D02*X312350D01*
X312850Y119250D02*Y118450D01*
Y117450D02*Y116250D01*
Y117450D02*X312350Y117950D01*
X312850Y118450D02*X312350Y117950D01*
X314050Y116250D02*X314550Y115750D01*
X314050Y119250D02*Y116250D01*
Y119250D02*X314550Y119750D01*
X315550D01*
X316050Y119250D01*
Y116250D01*
X315550Y115750D02*X316050Y116250D01*
X314550Y115750D02*X315550D01*
X314050Y116750D02*X316050Y118750D01*
X317250Y116250D02*X317750Y115750D01*
X317250Y119250D02*Y116250D01*
Y119250D02*X317750Y119750D01*
X318750D01*
X319250Y119250D01*
Y116250D01*
X318750Y115750D02*X319250Y116250D01*
X317750Y115750D02*X318750D01*
X317250Y116750D02*X319250Y118750D01*
X308721Y99250D02*X310021D01*
X308021Y99950D02*X308721Y99250D01*
X308021Y102550D02*Y99950D01*
Y102550D02*X308721Y103250D01*
X310021D01*
X311221Y102750D02*X311721Y103250D01*
X312721D01*
X313221Y102750D01*
X312721Y99250D02*X313221Y99750D01*
X311721Y99250D02*X312721D01*
X311221Y99750D02*X311721Y99250D01*
Y101450D02*X312721D01*
X313221Y102750D02*Y101950D01*
Y100950D02*Y99750D01*
Y100950D02*X312721Y101450D01*
X313221Y101950D02*X312721Y101450D01*
X314421Y99750D02*X314921Y99250D01*
X314421Y102750D02*Y99750D01*
Y102750D02*X314921Y103250D01*
X315921D01*
X316421Y102750D01*
Y99750D01*
X315921Y99250D02*X316421Y99750D01*
X314921Y99250D02*X315921D01*
X314421Y100250D02*X316421Y102250D01*
X317621Y99750D02*X318121Y99250D01*
X317621Y102750D02*Y99750D01*
Y102750D02*X318121Y103250D01*
X319121D01*
X319621Y102750D01*
Y99750D01*
X319121Y99250D02*X319621Y99750D01*
X318121Y99250D02*X319121D01*
X317621Y100250D02*X319621Y102250D01*
X341800Y88000D02*Y84000D01*
X343100Y88000D02*X343800Y87300D01*
Y84700D01*
X343100Y84000D02*X343800Y84700D01*
X341300Y84000D02*X343100D01*
X341300Y88000D02*X343100D01*
X345000Y87500D02*X345500Y88000D01*
X346500D01*
X347000Y87500D01*
X346500Y84000D02*X347000Y84500D01*
X345500Y84000D02*X346500D01*
X345000Y84500D02*X345500Y84000D01*
Y86200D02*X346500D01*
X347000Y87500D02*Y86700D01*
Y85700D02*Y84500D01*
Y85700D02*X346500Y86200D01*
X347000Y86700D02*X346500Y86200D01*
X348200Y84500D02*X348700Y84000D01*
X348200Y87500D02*Y84500D01*
Y87500D02*X348700Y88000D01*
X349700D01*
X350200Y87500D01*
Y84500D01*
X349700Y84000D02*X350200Y84500D01*
X348700Y84000D02*X349700D01*
X348200Y85000D02*X350200Y87000D01*
X351400Y87200D02*X352200Y88000D01*
Y84000D01*
X351400D02*X352900D01*
X320893Y155150D02*X322893D01*
X323393Y154650D01*
Y153650D01*
X322893Y153150D02*X323393Y153650D01*
X321393Y153150D02*X322893D01*
X321393Y155150D02*Y151150D01*
X322193Y153150D02*X323393Y151150D01*
X326093Y155150D02*X326593Y154650D01*
X325093Y155150D02*X326093D01*
X324593Y154650D02*X325093Y155150D01*
X324593Y154650D02*Y151650D01*
X325093Y151150D01*
X326093Y153350D02*X326593Y152850D01*
X324593Y153350D02*X326093D01*
X325093Y151150D02*X326093D01*
X326593Y151650D01*
Y152850D02*Y151650D01*
X327793D02*X328293Y151150D01*
X327793Y154650D02*Y151650D01*
Y154650D02*X328293Y155150D01*
X329293D01*
X329793Y154650D01*
Y151650D01*
X329293Y151150D02*X329793Y151650D01*
X328293Y151150D02*X329293D01*
X327793Y152150D02*X329793Y154150D01*
X330993Y155150D02*X332993D01*
X330993D02*Y153150D01*
X331493Y153650D01*
X332493D01*
X332993Y153150D01*
Y151650D01*
X332493Y151150D02*X332993Y151650D01*
X331493Y151150D02*X332493D01*
X330993Y151650D02*X331493Y151150D01*
X343750Y159600D02*X347750D01*
Y158300D02*X347050Y157600D01*
X344450D02*X347050D01*
X343750Y158300D02*X344450Y157600D01*
X343750Y160100D02*Y158300D01*
X347750Y160100D02*Y158300D01*
Y154900D02*X347250Y154400D01*
X347750Y155900D02*Y154900D01*
X347250Y156400D02*X347750Y155900D01*
X344250Y156400D02*X347250D01*
X344250D02*X343750Y155900D01*
X345950Y154900D02*X345450Y154400D01*
X345950Y156400D02*Y154900D01*
X343750Y155900D02*Y154900D01*
X344250Y154400D01*
X345450D01*
X344250Y153200D02*X343750Y152700D01*
X344250Y153200D02*X347250D01*
X347750Y152700D01*
Y151700D01*
X347250Y151200D01*
X344250D02*X347250D01*
X343750Y151700D02*X344250Y151200D01*
X343750Y152700D02*Y151700D01*
X344750Y153200D02*X346750Y151200D01*
X347250Y150000D02*X347750Y149500D01*
Y148000D01*
X347250Y147500D01*
X346250D02*X347250D01*
X343750Y150000D02*X346250Y147500D01*
X343750Y150000D02*Y147500D01*
X233720Y277823D02*X235020D01*
X233020Y278523D02*X233720Y277823D01*
X233020Y281123D02*Y278523D01*
Y281123D02*X233720Y281823D01*
X235020D01*
X236220Y281323D02*Y278323D01*
Y281323D02*X236720Y281823D01*
X237720D01*
X238220Y281323D01*
Y278323D01*
X237720Y277823D02*X238220Y278323D01*
X236720Y277823D02*X237720D01*
X236220Y278323D02*X236720Y277823D01*
X239420Y281823D02*Y277823D01*
Y281823D02*X241920Y277823D01*
Y281823D02*Y277823D01*
X243120Y281823D02*Y277823D01*
Y281823D02*X245620Y277823D01*
Y281823D02*Y277823D01*
X247320D02*X249320Y281823D01*
X246820D02*X249320D01*
X250520Y278323D02*X251020Y277823D01*
X250520Y281323D02*Y278323D01*
Y281323D02*X251020Y281823D01*
X252020D01*
X252520Y281323D01*
Y278323D01*
X252020Y277823D02*X252520Y278323D01*
X251020Y277823D02*X252020D01*
X250520Y278823D02*X252520Y280823D01*
X253720Y281823D02*X255720D01*
X253720D02*Y279823D01*
X254220Y280323D01*
X255220D01*
X255720Y279823D01*
Y278323D01*
X255220Y277823D02*X255720Y278323D01*
X254220Y277823D02*X255220D01*
X253720Y278323D02*X254220Y277823D01*
X282900Y392000D02*Y388500D01*
X283400Y388000D01*
X284400D01*
X284900Y388500D01*
Y392000D02*Y388500D01*
X286100Y391500D02*X286600Y392000D01*
X288100D01*
X288600Y391500D01*
Y390500D01*
X286100Y388000D02*X288600Y390500D01*
X286100Y388000D02*X288600D01*
X289800Y388500D02*X290300Y388000D01*
X289800Y391500D02*Y388500D01*
Y391500D02*X290300Y392000D01*
X291300D01*
X291800Y391500D01*
Y388500D01*
X291300Y388000D02*X291800Y388500D01*
X290300Y388000D02*X291300D01*
X289800Y389000D02*X291800Y391000D01*
X293000Y388500D02*X293500Y388000D01*
X293000Y391500D02*Y388500D01*
Y391500D02*X293500Y392000D01*
X294500D01*
X295000Y391500D01*
Y388500D01*
X294500Y388000D02*X295000Y388500D01*
X293500Y388000D02*X294500D01*
X293000Y389000D02*X295000Y391000D01*
X204038Y362402D02*X205038Y358402D01*
X206038Y362402D01*
X207238D02*X209238D01*
X209738Y361902D01*
Y360902D01*
X209238Y360402D02*X209738Y360902D01*
X207738Y360402D02*X209238D01*
X207738Y362402D02*Y358402D01*
X208538Y360402D02*X209738Y358402D01*
X210938Y360602D02*X212438D01*
X210938Y358402D02*X212938D01*
X210938Y362402D02*Y358402D01*
Y362402D02*X212938D01*
X216138D02*X216638Y361902D01*
X214638Y362402D02*X216138D01*
X214138Y361902D02*X214638Y362402D01*
X214138Y361902D02*Y358902D01*
X214638Y358402D01*
X216138D01*
X216638Y358902D01*
Y359902D02*Y358902D01*
X216138Y360402D02*X216638Y359902D01*
X215138Y360402D02*X216138D01*
X217838Y361902D02*X218338Y362402D01*
X219838D01*
X220338Y361902D01*
Y360902D01*
X217838Y358402D02*X220338Y360902D01*
X217838Y358402D02*X220338D01*
X221538Y358902D02*X222038Y358402D01*
X221538Y361902D02*Y358902D01*
Y361902D02*X222038Y362402D01*
X223038D01*
X223538Y361902D01*
Y358902D01*
X223038Y358402D02*X223538Y358902D01*
X222038Y358402D02*X223038D01*
X221538Y359402D02*X223538Y361402D01*
X224738Y358902D02*X225238Y358402D01*
X224738Y361902D02*Y358902D01*
Y361902D02*X225238Y362402D01*
X226238D01*
X226738Y361902D01*
Y358902D01*
X226238Y358402D02*X226738Y358902D01*
X225238Y358402D02*X226238D01*
X224738Y359402D02*X226738Y361402D01*
X229066Y309433D02*X230366D01*
X228366Y310133D02*X229066Y309433D01*
X228366Y312733D02*Y310133D01*
Y312733D02*X229066Y313433D01*
X230366D01*
X231566Y312933D02*Y309933D01*
Y312933D02*X232066Y313433D01*
X233066D01*
X233566Y312933D01*
Y309933D01*
X233066Y309433D02*X233566Y309933D01*
X232066Y309433D02*X233066D01*
X231566Y309933D02*X232066Y309433D01*
X234766Y313433D02*Y309433D01*
Y313433D02*X237266Y309433D01*
Y313433D02*Y309433D01*
X238466Y313433D02*Y309433D01*
Y313433D02*X240966Y309433D01*
Y313433D02*Y309433D01*
X242666D02*X244666Y313433D01*
X242166D02*X244666D01*
X245866Y309933D02*X246366Y309433D01*
X245866Y312933D02*Y309933D01*
Y312933D02*X246366Y313433D01*
X247366D01*
X247866Y312933D01*
Y309933D01*
X247366Y309433D02*X247866Y309933D01*
X246366Y309433D02*X247366D01*
X245866Y310433D02*X247866Y312433D01*
X249066Y312933D02*X249566Y313433D01*
X251066D01*
X251566Y312933D01*
Y311933D01*
X249066Y309433D02*X251566Y311933D01*
X249066Y309433D02*X251566D01*
X236250Y332393D02*Y330393D01*
Y332393D02*X236750Y332893D01*
X237750D01*
X238250Y332393D02*X237750Y332893D01*
X238250Y332393D02*Y330893D01*
X236250D02*X240250D01*
X238250Y331693D02*X240250Y332893D01*
X236750Y334093D02*X236250Y334593D01*
Y336093D02*Y334593D01*
Y336093D02*X236750Y336593D01*
X237750D01*
X240250Y334093D02*X237750Y336593D01*
X240250D02*Y334093D01*
X239750Y337793D02*X240250Y338293D01*
X236750Y337793D02*X239750D01*
X236750D02*X236250Y338293D01*
Y339293D02*Y338293D01*
Y339293D02*X236750Y339793D01*
X239750D01*
X240250Y339293D02*X239750Y339793D01*
X240250Y339293D02*Y338293D01*
X239250Y337793D02*X237250Y339793D01*
X236750Y340993D02*X236250Y341493D01*
Y342493D02*Y341493D01*
Y342493D02*X236750Y342993D01*
X240250Y342493D02*X239750Y342993D01*
X240250Y342493D02*Y341493D01*
X239750Y340993D02*X240250Y341493D01*
X238050Y342493D02*Y341493D01*
X236750Y342993D02*X237550D01*
X238550D02*X239750D01*
X238550D02*X238050Y342493D01*
X237550Y342993D02*X238050Y342493D01*
X213502Y375150D02*X214802D01*
X212802Y375850D02*X213502Y375150D01*
X212802Y378450D02*Y375850D01*
Y378450D02*X213502Y379150D01*
X214802D01*
X216002Y378650D02*X216502Y379150D01*
X218002D01*
X218502Y378650D01*
Y377650D01*
X216002Y375150D02*X218502Y377650D01*
X216002Y375150D02*X218502D01*
X219702Y375650D02*X220202Y375150D01*
X219702Y378650D02*Y375650D01*
Y378650D02*X220202Y379150D01*
X221202D01*
X221702Y378650D01*
Y375650D01*
X221202Y375150D02*X221702Y375650D01*
X220202Y375150D02*X221202D01*
X219702Y376150D02*X221702Y378150D01*
X222902Y378350D02*X223702Y379150D01*
Y375150D01*
X222902D02*X224402D01*
X230600Y357000D02*X231900D01*
X229900Y357700D02*X230600Y357000D01*
X229900Y360300D02*Y357700D01*
Y360300D02*X230600Y361000D01*
X231900D01*
X233100Y360500D02*X233600Y361000D01*
X235100D01*
X235600Y360500D01*
Y359500D01*
X233100Y357000D02*X235600Y359500D01*
X233100Y357000D02*X235600D01*
X236800Y357500D02*X237300Y357000D01*
X236800Y360500D02*Y357500D01*
Y360500D02*X237300Y361000D01*
X238300D01*
X238800Y360500D01*
Y357500D01*
X238300Y357000D02*X238800Y357500D01*
X237300Y357000D02*X238300D01*
X236800Y358000D02*X238800Y360000D01*
X240000Y360500D02*X240500Y361000D01*
X242000D01*
X242500Y360500D01*
Y359500D01*
X240000Y357000D02*X242500Y359500D01*
X240000Y357000D02*X242500D01*
X220355Y339650D02*X221655D01*
X219655Y340350D02*X220355Y339650D01*
X219655Y342950D02*Y340350D01*
Y342950D02*X220355Y343650D01*
X221655D01*
X222855Y343150D02*X223355Y343650D01*
X224855D01*
X225355Y343150D01*
Y342150D01*
X222855Y339650D02*X225355Y342150D01*
X222855Y339650D02*X225355D01*
X226555Y340150D02*X227055Y339650D01*
X226555Y343150D02*Y340150D01*
Y343150D02*X227055Y343650D01*
X228055D01*
X228555Y343150D01*
Y340150D01*
X228055Y339650D02*X228555Y340150D01*
X227055Y339650D02*X228055D01*
X226555Y340650D02*X228555Y342650D01*
X229755Y341150D02*X231755Y343650D01*
X229755Y341150D02*X232255D01*
X231755Y343650D02*Y339650D01*
X252400Y353000D02*Y351700D01*
X251700Y351000D02*X252400Y351700D01*
X249100Y351000D02*X251700D01*
X249100D02*X248400Y351700D01*
Y353000D02*Y351700D01*
X248900Y354200D02*X248400Y354700D01*
Y356200D02*Y354700D01*
Y356200D02*X248900Y356700D01*
X249900D01*
X252400Y354200D02*X249900Y356700D01*
X252400D02*Y354200D01*
X251900Y357900D02*X252400Y358400D01*
X248900Y357900D02*X251900D01*
X248900D02*X248400Y358400D01*
Y359400D02*Y358400D01*
Y359400D02*X248900Y359900D01*
X251900D01*
X252400Y359400D02*X251900Y359900D01*
X252400Y359400D02*Y358400D01*
X251400Y357900D02*X249400Y359900D01*
X248900Y361100D02*X248400Y361600D01*
Y362600D02*Y361600D01*
Y362600D02*X248900Y363100D01*
X252400Y362600D02*X251900Y363100D01*
X252400Y362600D02*Y361600D01*
X251900Y361100D02*X252400Y361600D01*
X250200Y362600D02*Y361600D01*
X248900Y363100D02*X249700D01*
X250700D02*X251900D01*
X250700D02*X250200Y362600D01*
X249700Y363100D02*X250200Y362600D01*
X229750Y365307D02*Y363307D01*
Y365307D02*X230250Y365807D01*
X231250D01*
X231750Y365307D02*X231250Y365807D01*
X231750Y365307D02*Y363807D01*
X229750D02*X233750D01*
X231750Y364607D02*X233750Y365807D01*
X230250Y367007D02*X229750Y367507D01*
Y369007D02*Y367507D01*
Y369007D02*X230250Y369507D01*
X231250D01*
X233750Y367007D02*X231250Y369507D01*
X233750D02*Y367007D01*
X233250Y370707D02*X233750Y371207D01*
X230250Y370707D02*X233250D01*
X230250D02*X229750Y371207D01*
Y372207D02*Y371207D01*
Y372207D02*X230250Y372707D01*
X233250D01*
X233750Y372207D02*X233250Y372707D01*
X233750Y372207D02*Y371207D01*
X232750Y370707D02*X230750Y372707D01*
X233250Y373907D02*X233750Y374407D01*
X230250Y373907D02*X233250D01*
X230250D02*X229750Y374407D01*
Y375407D02*Y374407D01*
Y375407D02*X230250Y375907D01*
X233250D01*
X233750Y375407D02*X233250Y375907D01*
X233750Y375407D02*Y374407D01*
X232750Y373907D02*X230750Y375907D01*
X214993Y193650D02*X216293D01*
X214293Y194350D02*X214993Y193650D01*
X214293Y196950D02*Y194350D01*
Y196950D02*X214993Y197650D01*
X216293D01*
X217493Y196850D02*X218293Y197650D01*
Y193650D01*
X217493D02*X218993D01*
X220193Y196850D02*X220993Y197650D01*
Y193650D01*
X220193D02*X221693D01*
X222893Y196850D02*X223693Y197650D01*
Y193650D01*
X222893D02*X224393D01*
X229002Y186150D02*X230302D01*
X228302Y186850D02*X229002Y186150D01*
X228302Y189450D02*Y186850D01*
Y189450D02*X229002Y190150D01*
X230302D01*
X231502Y189350D02*X232302Y190150D01*
Y186150D01*
X231502D02*X233002D01*
X234202Y186650D02*X234702Y186150D01*
X234202Y189650D02*Y186650D01*
Y189650D02*X234702Y190150D01*
X235702D01*
X236202Y189650D01*
Y186650D01*
X235702Y186150D02*X236202Y186650D01*
X234702Y186150D02*X235702D01*
X234202Y187150D02*X236202Y189150D01*
X237402Y186650D02*X237902Y186150D01*
X237402Y189650D02*Y186650D01*
Y189650D02*X237902Y190150D01*
X238902D01*
X239402Y189650D01*
Y186650D01*
X238902Y186150D02*X239402Y186650D01*
X237902Y186150D02*X238902D01*
X237402Y187150D02*X239402Y189150D01*
M02*
