M48
INCH
T72C0.035
T71C0.020
T70C0.030
T69C0.109
%
T71
X008885Y018765
X008750Y018050
X007800Y019100
X009450Y018400
X009850Y017950
X008950Y017450
X004950Y019850
X005600Y019850
X006250Y019850
X004300Y019850
X010200Y020900
X008641Y016891
X008628Y014922
X009300Y014900
X008650Y016100
X009200Y015750
X007000Y015950
X006400Y015950
X006200Y015350
X009300Y016900
X010250Y018400
X010700Y017950
X018200Y020100
X022800Y004100
X020150Y020100
T70
X035500Y025450
X037500Y025450
T72
X003100Y020500
X002600Y015000
X007250Y020750
X009250Y010950
X007950Y013100
X007850Y011750
X003450Y009950
X014300Y013000
X014300Y011500
X014000Y019450
X016000Y019450
X022900Y006050
X028200Y006250
X026500Y004900
X023300Y027000
X020550Y032050
X021900Y032050
X019450Y030550
X018400Y031250
X015000Y030100
X016400Y030900
X016926Y029324
X015000Y028450
X017000Y028450
X018400Y026700
X018450Y028250
X019500Y027600
X020700Y026400
X020500Y029100
X020350Y027400
T69
X040750Y029650
X004750Y029650
X012750Y029650
X032750Y029650
X004750Y004650
X040750Y004650
X012750Y004650
X032750Y004650
M30
