G04 start of page 8 for group -4063 idx -4063 *
G04 Title: (unknown), componentmask *
G04 Creator: pcb 20110918 *
G04 CreationDate: Tue Nov 12 20:42:01 2013 UTC *
G04 For: fosse *
G04 Format: Gerber/RS-274X *
G04 PCB-Dimensions: 455000 500000 *
G04 PCB-Coordinate-Origin: lower left *
%MOIN*%
%FSLAX25Y25*%
%LNTOPMASK*%
%ADD154R,0.0297X0.0297*%
%ADD153R,0.0297X0.0297*%
%ADD152R,0.0691X0.0691*%
%ADD151R,0.0691X0.0691*%
%ADD150R,0.0612X0.0612*%
%ADD149R,0.0140X0.0140*%
%ADD148R,0.0220X0.0220*%
%ADD147C,0.0220*%
%ADD146R,0.0336X0.0336*%
%ADD145R,0.0257X0.0257*%
%ADD144R,0.0258X0.0258*%
%ADD143R,0.0257X0.0257*%
%ADD142R,0.0660X0.0660*%
%ADD141R,0.0400X0.0400*%
%ADD140R,0.1510X0.1510*%
%ADD139R,0.0158X0.0158*%
%ADD138R,0.0242X0.0242*%
%ADD137R,0.0769X0.0769*%
%ADD136C,0.0239*%
%ADD135R,0.0355X0.0355*%
%ADD134R,0.0199X0.0199*%
%ADD133R,0.0198X0.0198*%
%ADD132R,0.0572X0.0572*%
%ADD131C,0.0604*%
%ADD130C,0.0610*%
%ADD129C,0.0001*%
%ADD128C,0.0454*%
%ADD127C,0.2560*%
G54D127*X396700Y296100D03*
Y46100D03*
X316700D03*
G54D128*X306475Y74944D03*
G54D127*X36700Y296100D03*
X116700D03*
X316700D03*
X36700Y46100D03*
X116700D03*
G54D129*G36*
X55450Y58050D02*Y51950D01*
X61550D01*
Y58050D01*
X55450D01*
G37*
G54D130*X78500Y55000D03*
G54D128*X253325Y74944D03*
G54D131*X190166Y249966D03*
X137016D03*
G54D132*X61914Y257393D02*Y256607D01*
X61000Y214893D02*Y214107D01*
X68086Y214893D02*Y214107D01*
X65310Y246402D02*Y244040D01*
X69000Y257393D02*Y256607D01*
G54D133*X48327Y234178D02*Y232406D01*
G54D134*X50295Y234178D02*Y232407D01*
G54D133*X52264Y234178D02*Y232406D01*
G54D134*X54232Y234178D02*Y232407D01*
G54D133*X52264Y245594D02*Y243822D01*
G54D134*X54232Y245594D02*Y243823D01*
G54D132*X77120Y246402D02*Y244040D01*
X32414Y270393D02*Y269607D01*
X39500Y270393D02*Y269607D01*
G54D135*X46882Y268992D02*Y268008D01*
X52000Y268992D02*Y268008D01*
G54D132*X23414Y235893D02*Y235107D01*
X30500Y235893D02*Y235107D01*
X24914Y220893D02*Y220107D01*
X22190Y254755D02*Y249245D01*
X34000Y254755D02*Y249245D01*
G54D136*X43996Y237150D02*X44311Y236835D01*
G54D133*X44390Y234178D02*Y232406D01*
G54D134*X46358Y234178D02*Y232407D01*
G54D133*X44390Y245594D02*Y243822D01*
G54D134*X46358Y245594D02*Y243823D01*
G54D133*X48327Y245594D02*Y243822D01*
G54D134*X50295Y245594D02*Y243823D01*
G54D132*X45500Y258393D02*Y257607D01*
X52586Y258393D02*Y257607D01*
G54D137*X47539Y239000D02*X52461D01*
G54D138*X43524Y241638D02*Y237740D01*
G54D136*X43012Y237110D02*X44272Y235850D01*
X43524Y237110D02*X44272Y236362D01*
G54D132*X32000Y220893D02*Y220107D01*
X42500Y221393D02*Y220607D01*
X49586Y221393D02*Y220607D01*
X64000Y228893D02*Y228107D01*
X71086Y228893D02*Y228107D01*
X53914Y192893D02*Y192107D01*
X61000Y192893D02*Y192107D01*
X40500Y195893D02*Y195107D01*
X47586Y195893D02*Y195107D01*
G54D129*G36*
X57877Y150123D02*Y139877D01*
X68123D01*
Y150123D01*
X57877D01*
G37*
G54D139*X60047Y138405D02*Y136633D01*
X58079Y138405D02*Y136633D01*
X54634Y145984D02*X56405D01*
X54634Y144016D02*X56405D01*
X54634Y142047D02*X56405D01*
X54634Y140079D02*X56405D01*
G54D132*X46414Y131393D02*Y130607D01*
X53500Y131393D02*Y130607D01*
X71086Y111893D02*Y111107D01*
X48500Y115893D02*Y115107D01*
X55586Y115893D02*Y115107D01*
X32914Y116893D02*Y116107D01*
X40000Y116893D02*Y116107D01*
G54D135*X32957Y78049D02*Y77065D01*
X38075Y78049D02*Y77065D01*
G54D132*X38000Y95681D02*Y93319D01*
X49810Y95681D02*Y93319D01*
G54D140*X55816Y75035D02*Y71035D01*
X77616Y75035D02*Y71035D01*
G54D135*X48500Y104492D02*Y103508D01*
X53618Y104492D02*Y103508D01*
G54D132*X31000Y104893D02*Y104107D01*
X38086Y104893D02*Y104107D01*
G54D139*X69594Y140079D02*X71366D01*
X67921Y153366D02*Y151594D01*
Y138405D02*Y136633D01*
G54D132*X64000Y111893D02*Y111107D01*
G54D139*X65953Y153366D02*Y151594D01*
X63984Y153366D02*Y151594D01*
X62016Y153366D02*Y151594D01*
X65953Y138405D02*Y136633D01*
X63984Y138405D02*Y136633D01*
X62016Y138405D02*Y136633D01*
G54D132*X64414Y38293D02*Y37507D01*
X71500Y38293D02*Y37507D01*
G54D139*X54634Y149921D02*X56405D01*
G54D132*X51500Y167893D02*Y167107D01*
X58586Y167893D02*Y167107D01*
G54D139*X54634Y147953D02*X56405D01*
G54D132*X30414Y130393D02*Y129607D01*
X37500Y130393D02*Y129607D01*
X22414Y143393D02*Y142607D01*
X29500Y143393D02*Y142607D01*
G54D139*X60047Y153366D02*Y151594D01*
X58079Y153366D02*Y151594D01*
G54D132*X26190Y161681D02*Y159319D01*
X38000Y161681D02*Y159319D01*
G54D139*X69594Y149921D02*X71366D01*
X69594Y147953D02*X71366D01*
X69594Y145984D02*X71366D01*
X69594Y144016D02*X71366D01*
X69594Y142047D02*X71366D01*
G54D132*X69500Y167393D02*Y166607D01*
X76586Y167393D02*Y166607D01*
X39914Y183893D02*Y183107D01*
X47000Y183893D02*Y183107D01*
X25000Y188393D02*Y187607D01*
X32086Y188393D02*Y187607D01*
X37914Y174893D02*Y174107D01*
X45000Y174893D02*Y174107D01*
X377414Y195893D02*Y195107D01*
X384500Y195893D02*Y195107D01*
X330414Y167393D02*Y166607D01*
X337500Y167393D02*Y166607D01*
G54D141*X344250Y157600D02*Y157000D01*
X336850Y157600D02*Y157000D01*
G54D132*X336914Y181893D02*Y181107D01*
X344000Y181893D02*Y181107D01*
X321000Y148393D02*Y147607D01*
X328086Y148393D02*Y147607D01*
G54D141*X337150Y149100D02*X337450D01*
X344250Y149400D02*Y148800D01*
G54D132*X360926Y299569D02*Y298783D01*
X368012Y299569D02*Y298783D01*
G54D141*X356750Y281500D02*X357050D01*
X356450Y290000D02*Y289400D01*
X363850Y281800D02*Y281200D01*
Y290000D02*Y289400D01*
G54D132*X339257Y303993D02*Y303207D01*
X346343Y303993D02*Y303207D01*
G54D141*X405650Y179176D02*X405950D01*
X412750Y179476D02*Y178876D01*
Y187676D02*Y187076D01*
X405350Y187676D02*Y187076D01*
X286691Y183653D02*X286991D01*
X293791Y183953D02*Y183353D01*
Y192153D02*Y191553D01*
X286391Y192153D02*Y191553D01*
G54D132*X375714Y244493D02*Y243707D01*
X382800Y244493D02*Y243707D01*
G54D141*X359150Y234600D02*X359450D01*
X366250Y234900D02*Y234300D01*
Y243100D02*Y242500D01*
X358850Y243100D02*Y242500D01*
G54D132*X375800Y229993D02*Y229207D01*
X382886Y229993D02*Y229207D01*
X244007Y333457D02*X244793D01*
X244007Y340543D02*X244793D01*
G54D142*X241900Y351000D02*Y350000D01*
G54D143*X209087Y351000D02*X210268D01*
X209087Y347260D02*X210268D01*
G54D132*X219900Y335681D02*Y333319D01*
X231710Y335681D02*Y333319D01*
X212495Y371681D02*Y369319D01*
X224305Y371681D02*Y369319D01*
G54D142*X229900Y351000D02*Y350000D01*
G54D143*X218535Y347260D02*X219716D01*
X218535Y354740D02*X219716D01*
X209087D02*X210268D01*
G54D142*X258400Y351000D02*X259400D01*
X258400Y363000D02*X259400D01*
G54D132*X237507Y365957D02*X238293D01*
X237507Y373043D02*X238293D01*
G54D141*X350600Y367600D02*X350900D01*
X357700Y367900D02*Y367300D01*
Y376100D02*Y375500D01*
X350300Y376100D02*Y375500D01*
G54D132*X385757Y398993D02*Y398207D01*
X392843Y398993D02*Y398207D01*
X371407Y398557D02*X372193D01*
G54D141*X350700Y397600D02*X351000D01*
X357800Y397900D02*Y397300D01*
Y406100D02*Y405500D01*
G54D132*X371407Y405643D02*X372193D01*
G54D141*X350400Y406100D02*Y405500D01*
G54D132*X316257Y386493D02*Y385707D01*
X323343Y386493D02*Y385707D01*
G54D141*X357800Y347700D02*Y347400D01*
X357500Y354500D02*X358100D01*
X349300D02*X349900D01*
X349300Y347100D02*X349900D01*
G54D132*X316214Y369993D02*Y369207D01*
X323300Y369993D02*Y369207D01*
X232384Y177546D02*Y176760D01*
X237436Y169834D02*Y167472D01*
X249246Y169834D02*Y167472D01*
G54D144*X257033Y287752D02*Y283028D01*
X253096Y287752D02*Y283028D01*
X249159Y287752D02*Y283028D01*
G54D145*X259001Y297202D02*Y292477D01*
X255064Y297202D02*Y292477D01*
X251127Y297202D02*Y292477D01*
G54D146*X262938Y287359D02*Y283422D01*
Y296808D02*Y292871D01*
G54D144*X245222Y287752D02*Y283028D01*
X241285Y287752D02*Y283028D01*
X237348Y287752D02*Y283028D01*
X233411Y287752D02*Y283028D01*
X229474Y287752D02*Y283028D01*
X225537Y287752D02*Y283028D01*
X221600Y287752D02*Y283028D01*
G54D146*X217662Y287359D02*Y283422D01*
G54D145*X247190Y297202D02*Y292477D01*
X243253Y297202D02*Y292477D01*
G54D144*X239316Y297201D02*Y292477D01*
X235379Y297201D02*Y292477D01*
X231442Y297201D02*Y292477D01*
X227505Y297201D02*Y292477D01*
X223568Y297201D02*Y292477D01*
G54D146*X217662Y296808D02*Y292871D01*
G54D144*X179463Y287762D02*Y283038D01*
X175526Y287762D02*Y283038D01*
X171589Y287762D02*Y283038D01*
G54D145*X181431Y297212D02*Y292487D01*
X177494Y297212D02*Y292487D01*
X173557Y297212D02*Y292487D01*
G54D144*X167652Y287762D02*Y283038D01*
X163715Y287762D02*Y283038D01*
X159778Y287762D02*Y283038D01*
G54D145*X169620Y297212D02*Y292487D01*
X165683Y297212D02*Y292487D01*
G54D144*X161746Y297211D02*Y292487D01*
G54D146*X185368Y287369D02*Y283432D01*
Y296818D02*Y292881D01*
G54D144*X155841Y287762D02*Y283038D01*
X151904Y287762D02*Y283038D01*
X147967Y287762D02*Y283038D01*
X144030Y287762D02*Y283038D01*
X157809Y297211D02*Y292487D01*
X153872Y297211D02*Y292487D01*
X149935Y297211D02*Y292487D01*
X145998Y297211D02*Y292487D01*
G54D146*X140092Y287369D02*Y283432D01*
Y296818D02*Y292881D01*
G54D147*X193292Y198216D02*Y196016D01*
G54D148*X195892Y198216D02*Y196016D01*
X198392Y198216D02*Y196016D01*
X200992Y198216D02*Y196016D01*
X203592Y198216D02*Y196016D01*
X206092Y198216D02*Y196016D01*
X208692Y198216D02*Y196016D01*
X211192Y198216D02*Y196016D01*
G54D132*X173448Y192196D02*X174234D01*
G54D141*X154191Y200153D02*X154491D01*
X161291Y200453D02*Y199853D01*
X132191Y199653D02*X132491D01*
X139291Y199953D02*Y199353D01*
Y208153D02*Y207553D01*
X131891Y208153D02*Y207553D01*
G54D135*X99849Y191212D02*X100833D01*
G54D141*X108741Y199653D02*X109041D01*
X108441Y208153D02*Y207553D01*
G54D135*X99849Y186094D02*X100833D01*
X116349Y190212D02*X117333D01*
G54D141*X115841Y199953D02*Y199353D01*
Y208153D02*Y207553D01*
G54D135*X116349Y185094D02*X117333D01*
G54D141*X153891Y208653D02*Y208053D01*
G54D149*X181467Y115543D02*Y110645D01*
X183435Y115543D02*Y110645D01*
X185404Y115543D02*Y110645D01*
X187372Y115543D02*Y110645D01*
X189341Y115543D02*Y110645D01*
X191309Y115543D02*Y110645D01*
X193278Y115543D02*Y110645D01*
X195246Y115543D02*Y110645D01*
X197215Y115543D02*Y110645D01*
X199183Y115543D02*Y110645D01*
X201152Y115543D02*Y110645D01*
X203120Y115543D02*Y110645D01*
X205089Y115543D02*Y110645D01*
X207057Y115543D02*Y110645D01*
X209026Y115543D02*Y110645D01*
X210994Y115543D02*Y110645D01*
X212963Y115543D02*Y110645D01*
G54D132*X211531Y90334D02*Y87972D01*
G54D149*X219451Y122031D02*X224349D01*
G54D132*X223341Y90334D02*Y87972D01*
X218298Y105546D02*Y104760D01*
X225384Y105546D02*Y104760D01*
G54D149*X219451Y123999D02*X224349D01*
X219451Y125968D02*X224349D01*
X219451Y127936D02*X224349D01*
X219451Y129905D02*X224349D01*
X219451Y131873D02*X224349D01*
X219451Y133842D02*X224349D01*
G54D148*X211292Y219416D02*Y217216D01*
X208692Y219416D02*Y217216D01*
X206192Y219416D02*Y217216D01*
X203592Y219416D02*Y217216D01*
X200992Y219416D02*Y217216D01*
X198492Y219416D02*Y217216D01*
X195892Y219416D02*Y217216D01*
X193392Y219416D02*Y217216D01*
G54D149*X219451Y135810D02*X224349D01*
X219451Y137779D02*X224349D01*
X219451Y139747D02*X224349D01*
X219451Y141716D02*X224349D01*
X219451Y143684D02*X224349D01*
X219451Y145653D02*X224349D01*
X219451Y147621D02*X224349D01*
X219451Y149590D02*X224349D01*
X219451Y151558D02*X224349D01*
X219451Y153527D02*X224349D01*
X219451Y155495D02*X224349D01*
X219451Y157464D02*X224349D01*
X219451Y159432D02*X224349D01*
X219451Y161401D02*X224349D01*
X219451Y163369D02*X224349D01*
X219451Y165338D02*X224349D01*
X219451Y167306D02*X224349D01*
X219451Y169275D02*X224349D01*
X212963Y180661D02*Y175763D01*
X210995Y180661D02*Y175763D01*
X209026Y180661D02*Y175763D01*
G54D132*X225298Y177546D02*Y176760D01*
G54D149*X207058Y180661D02*Y175763D01*
X205089Y180661D02*Y175763D01*
X203121Y180661D02*Y175763D01*
X201152Y180661D02*Y175763D01*
X199184Y180661D02*Y175763D01*
X197215Y180661D02*Y175763D01*
X195247Y180661D02*Y175763D01*
X193278Y180661D02*Y175763D01*
X191310Y180661D02*Y175763D01*
X189341Y180661D02*Y175763D01*
X187373Y180661D02*Y175763D01*
X185404Y180661D02*Y175763D01*
X183436Y180661D02*Y175763D01*
X181467Y180661D02*Y175763D01*
X179499Y180661D02*Y175763D01*
X177530Y180661D02*Y175763D01*
X175562Y180661D02*Y175763D01*
X173593Y180661D02*Y175763D01*
X171625Y180661D02*Y175763D01*
X169656Y180661D02*Y175763D01*
G54D132*X173448Y185110D02*X174234D01*
G54D149*X167688Y180661D02*Y175763D01*
X165719Y180661D02*Y175763D01*
G54D132*X158798Y187046D02*Y186260D01*
X165884Y187046D02*Y186260D01*
G54D141*X161291Y208653D02*Y208053D01*
G54D149*X154333Y169275D02*X159231D01*
X154333Y167307D02*X159231D01*
X154333Y165338D02*X159231D01*
X154333Y163370D02*X159231D01*
X154333Y161401D02*X159231D01*
X154333Y159433D02*X159231D01*
G54D132*X132798Y175046D02*Y174260D01*
Y163046D02*Y162260D01*
G54D150*X112959Y175480D02*X115321D01*
X100360D02*X102722D01*
G54D132*X139884Y175046D02*Y174260D01*
Y163046D02*Y162260D01*
G54D149*X154333Y157464D02*X159231D01*
X154333Y155496D02*X159231D01*
X154333Y153527D02*X159231D01*
X154333Y151559D02*X159231D01*
X154333Y149590D02*X159231D01*
X154333Y147622D02*X159231D01*
X154333Y145653D02*X159231D01*
X154333Y143685D02*X159231D01*
X154333Y141716D02*X159231D01*
X154333Y139748D02*X159231D01*
G54D135*X139282Y151645D02*Y150661D01*
X144400Y151645D02*Y150661D01*
G54D149*X154333Y137779D02*X159231D01*
X154333Y135811D02*X159231D01*
X154333Y133842D02*X159231D01*
X154333Y131874D02*X159231D01*
X154333Y129905D02*X159231D01*
X154333Y127937D02*X159231D01*
X154333Y125968D02*X159231D01*
X154333Y124000D02*X159231D01*
X154333Y122031D02*X159231D01*
G54D135*X147900Y130645D02*Y129661D01*
G54D149*X165719Y115543D02*Y110645D01*
G54D132*X138436Y114834D02*Y112472D01*
X150246Y114834D02*Y112472D01*
G54D151*X103419Y114653D02*X113262D01*
G54D149*X167687Y115543D02*Y110645D01*
X169656Y115543D02*Y110645D01*
X171624Y115543D02*Y110645D01*
X173593Y115543D02*Y110645D01*
X175561Y115543D02*Y110645D01*
X177530Y115543D02*Y110645D01*
X179498Y115543D02*Y110645D01*
G54D132*X164341Y101046D02*Y100260D01*
X171427Y101046D02*Y100260D01*
X128798Y95546D02*Y94760D01*
X135884Y95546D02*Y94760D01*
G54D152*X113262Y103039D02*Y89259D01*
G54D135*X100349Y87212D02*X101333D01*
X100349Y82094D02*X101333D01*
X142782Y130645D02*Y129661D01*
G54D132*X126798Y131546D02*Y130760D01*
X133884Y131546D02*Y130760D01*
X126798Y143546D02*Y142760D01*
X133884Y143546D02*Y142760D01*
G54D152*X113262Y140046D02*Y126266D01*
G54D135*X101282Y140645D02*Y139661D01*
X106400Y140645D02*Y139661D01*
G54D150*X112959Y153826D02*X115321D01*
X100360D02*X102722D01*
G54D132*X184936Y71834D02*Y69472D01*
X196746Y71834D02*Y69472D01*
G54D144*X199569Y51817D02*Y47093D01*
X203506Y51817D02*Y47093D01*
G54D145*X197601Y42368D02*Y37643D01*
G54D144*X207443Y51817D02*Y47093D01*
G54D145*X201538Y42368D02*Y37643D01*
X205475Y42368D02*Y37643D01*
X209412Y42368D02*Y37643D01*
G54D146*X193664Y51423D02*Y47486D01*
Y41974D02*Y38037D01*
G54D144*X211380Y51817D02*Y47093D01*
X215317Y51817D02*Y47093D01*
X219254Y51817D02*Y47093D01*
X223191Y51817D02*Y47093D01*
X227128Y51817D02*Y47093D01*
X231065Y51817D02*Y47093D01*
X235002Y51817D02*Y47093D01*
G54D146*X238940Y51423D02*Y47486D01*
G54D145*X213349Y42368D02*Y37643D01*
G54D144*X217286Y42368D02*Y37644D01*
X221223Y42368D02*Y37644D01*
X225160Y42368D02*Y37644D01*
X229097Y42368D02*Y37644D01*
X233034Y42368D02*Y37644D01*
G54D146*X238940Y41974D02*Y38037D01*
G54D153*X257853Y94196D02*Y90140D01*
X261003Y94196D02*Y90140D01*
X264153Y94196D02*Y90140D01*
X267302Y94196D02*Y90140D01*
G54D154*X270451Y94196D02*Y90141D01*
G54D153*X301948Y94196D02*Y90140D01*
X298798Y94196D02*Y90140D01*
X295649Y94196D02*Y90140D01*
X292499Y94196D02*Y90140D01*
X289350Y94196D02*Y90140D01*
G54D154*X286199Y94196D02*Y90141D01*
G54D153*X283050Y94196D02*Y90140D01*
X279901Y94196D02*Y90140D01*
X276751Y94196D02*Y90140D01*
X273602Y94196D02*Y90140D01*
X257853Y75101D02*Y71046D01*
X261003Y75101D02*Y71046D01*
X264153Y75101D02*Y71046D01*
X267302Y75101D02*Y71046D01*
G54D154*X270451Y75101D02*Y71047D01*
G54D153*X301948Y75101D02*Y71046D01*
X298798Y75101D02*Y71046D01*
X295649Y75101D02*Y71046D01*
X292499Y75101D02*Y71046D01*
X289350Y75101D02*Y71046D01*
G54D154*X286199Y75101D02*Y71047D01*
G54D153*X283050Y75101D02*Y71046D01*
X279901Y75101D02*Y71046D01*
X276751Y75101D02*Y71046D01*
X273602Y75101D02*Y71046D01*
M02*
