G04 start of page 11 for group -4078 idx -4078 *
G04 Title: (unknown), bottomsilk *
G04 Creator: pcb 20110918 *
G04 CreationDate: Wed Nov 13 23:37:03 2013 UTC *
G04 For: fosse *
G04 Format: Gerber/RS-274X *
G04 PCB-Dimensions: 550000 2400000 *
G04 PCB-Coordinate-Origin: lower left *
%MOIN*%
%FSLAX25Y25*%
%LNBOTTOMSILK*%
%ADD338C,0.0100*%
G54D338*X245740Y1972156D02*X188260D01*
X188259Y1987669D01*
X241802Y1991606D02*X192196D01*
X245739Y1987669D02*X245740Y1972156D01*
X245739Y1987669D02*X241802Y1991606D01*
X188259Y1987669D02*X192196Y1991606D01*
X247432Y1989402D02*X243102Y1993732D01*
X190110D01*
X186173Y1989795D01*
Y1970267D02*Y1989795D01*
X247432Y1970267D02*X186173D01*
X247432D02*X247433Y1989402D01*
X192331Y2147918D02*X134851D01*
X134850Y2163431D01*
X138787Y2167368D02*X188393D01*
X192330Y2163431D02*X192331Y2147918D01*
X192330Y2163431D02*X188393Y2167368D01*
X134850Y2163431D02*X138787Y2167368D01*
X194023Y2165164D02*X189693Y2169494D01*
X136701D01*
X132764Y2165557D01*
Y2146029D01*
X194023D01*
X194024Y2165164D01*
X211757Y2146201D02*Y2157816D01*
X268844D02*Y2146201D01*
X265891Y2157816D02*X268844D01*
X211757D02*X214710D01*
X211757Y2146201D02*X214710D01*
X265891D02*X268844D01*
X221599Y2163918D02*Y2168052D01*
Y2163918D02*X222781Y2165099D01*
X221599Y2163918D02*X220418Y2165099D01*
X222781D02*X220418D01*
X225111Y1855411D02*Y1831789D01*
X201489Y1855411D02*X225111D01*
X201489D02*Y1831789D01*
X225111D01*
X131485Y1863623D02*Y1840001D01*
X107863Y1863623D02*X131485D01*
X107863D02*Y1840001D01*
X131485D01*
X172611Y1864911D02*Y1841289D01*
X148989Y1864911D02*X172611D01*
X148989D02*Y1841289D01*
X172611D01*
X74787Y1859499D02*Y1835877D01*
X51165Y1859499D02*X74787D01*
X51165D02*Y1835877D01*
X74787D01*
X379485Y1874699D02*Y1851077D01*
X355863Y1874699D02*X379485D01*
X355863D02*Y1851077D01*
X379485D01*
X355697Y1844911D02*Y1821289D01*
X332075Y1844911D02*X355697D01*
X332075D02*Y1821289D01*
X355697D01*
X331737Y1886199D02*Y1862577D01*
X308115Y1886199D02*X331737D01*
X308115D02*Y1862577D01*
X331737D01*
X279737Y1874699D02*Y1851077D01*
X256115Y1874699D02*X279737D01*
X256115D02*Y1851077D01*
X279737D01*
X533629Y2166208D02*Y2142586D01*
X510007Y2166208D02*X533629D01*
X510007D02*Y2142586D01*
X533629D01*
X447499Y2259500D02*X515609D01*
X447499Y2324461D02*X447500Y2259500D01*
X443563Y2318752D02*Y2275445D01*
X439626Y2318752D02*Y2275445D01*
X427815D02*X447500D01*
X427815Y2318752D02*Y2275445D01*
Y2318752D02*X447500D01*
X515609Y2324461D02*Y2259500D01*
X447499Y2324461D02*X515609D01*
X452420Y2362650D02*Y2324461D01*
Y2362650D02*X490904D01*
X511476Y2342078D02*Y2324461D01*
X490904Y2362650D02*X511476Y2342078D01*
X151987Y2143606D02*X153287D01*
X151287Y2142906D02*X151987Y2143606D01*
X151287Y2140306D02*Y2142906D01*
Y2140306D02*X151987Y2139606D01*
X153287D01*
X154487Y2140106D02*Y2143106D01*
Y2140106D02*X154987Y2139606D01*
X155987D01*
X156487Y2140106D01*
Y2143106D01*
X155987Y2143606D02*X156487Y2143106D01*
X154987Y2143606D02*X155987D01*
X154487Y2143106D02*X154987Y2143606D01*
X157687Y2139606D02*Y2143606D01*
Y2139606D02*X160187Y2143606D01*
Y2139606D02*Y2143606D01*
X161387Y2139606D02*Y2143606D01*
Y2139606D02*X163887Y2143606D01*
Y2139606D02*Y2143606D01*
X165587D02*X167587Y2139606D01*
X165087D02*X167587D01*
X168787Y2143106D02*X169287Y2143606D01*
X168787Y2140106D02*Y2143106D01*
Y2140106D02*X169287Y2139606D01*
X170287D01*
X170787Y2140106D01*
Y2143106D01*
X170287Y2143606D02*X170787Y2143106D01*
X169287Y2143606D02*X170287D01*
X168787Y2142606D02*X170787Y2140606D01*
X171987Y2142106D02*X173987Y2139606D01*
X171987Y2142106D02*X174487D01*
X173987Y2139606D02*Y2143606D01*
X232536Y2134469D02*X233836D01*
X231836Y2133769D02*X232536Y2134469D01*
X231836Y2131169D02*Y2133769D01*
Y2131169D02*X232536Y2130469D01*
X233836D01*
X235036Y2130969D02*Y2133969D01*
Y2130969D02*X235536Y2130469D01*
X236536D01*
X237036Y2130969D01*
Y2133969D01*
X236536Y2134469D02*X237036Y2133969D01*
X235536Y2134469D02*X236536D01*
X235036Y2133969D02*X235536Y2134469D01*
X238236Y2130469D02*Y2134469D01*
Y2130469D02*X240736Y2134469D01*
Y2130469D02*Y2134469D01*
X241936Y2130469D02*Y2134469D01*
Y2130469D02*X244436Y2134469D01*
Y2130469D02*Y2134469D01*
X246136D02*X248136Y2130469D01*
X245636D02*X248136D01*
X249336Y2133969D02*X249836Y2134469D01*
X249336Y2130969D02*Y2133969D01*
Y2130969D02*X249836Y2130469D01*
X250836D01*
X251336Y2130969D01*
Y2133969D01*
X250836Y2134469D02*X251336Y2133969D01*
X249836Y2134469D02*X250836D01*
X249336Y2133469D02*X251336Y2131469D01*
X252536Y2130469D02*X254536D01*
X252536D02*Y2132469D01*
X253036Y2131969D01*
X254036D01*
X254536Y2132469D01*
Y2133969D01*
X254036Y2134469D02*X254536Y2133969D01*
X253036Y2134469D02*X254036D01*
X252536Y2133969D02*X253036Y2134469D01*
X231001Y1842647D02*X230501Y1843147D01*
X231001Y1841147D02*Y1842647D01*
X230501Y1840647D02*X231001Y1841147D01*
X229501Y1840647D02*X230501D01*
X229501D02*X229001Y1841147D01*
Y1842647D01*
X228501Y1843147D01*
X227501D02*X228501D01*
X227001Y1842647D02*X227501Y1843147D01*
X227001Y1841147D02*Y1842647D01*
X227501Y1840647D02*X227001Y1841147D01*
X231001Y1845847D02*X230501Y1846347D01*
X231001Y1844847D02*Y1845847D01*
X230501Y1844347D02*X231001Y1844847D01*
X227501Y1844347D02*X230501D01*
X227501D02*X227001Y1844847D01*
X229201Y1845847D02*X228701Y1846347D01*
X229201Y1844347D02*Y1845847D01*
X227001Y1844847D02*Y1845847D01*
X227501Y1846347D01*
X228701D01*
X227501Y1847547D02*X227001Y1848047D01*
X227501Y1847547D02*X230501D01*
X231001Y1848047D01*
Y1849047D01*
X230501Y1849547D01*
X227501D02*X230501D01*
X227001Y1849047D02*X227501Y1849547D01*
X227001Y1848047D02*Y1849047D01*
X228001Y1847547D02*X230001Y1849547D01*
X230501Y1850747D02*X231001Y1851247D01*
Y1852247D01*
X230501Y1852747D01*
X227001Y1852247D02*X227501Y1852747D01*
X227001Y1851247D02*Y1852247D01*
X227501Y1850747D02*X227001Y1851247D01*
X229201D02*Y1852247D01*
X229701Y1852747D02*X230501D01*
X227501D02*X228701D01*
X229201Y1852247D01*
X229701Y1852747D02*X229201Y1852247D01*
X361587Y1832147D02*X361087Y1832647D01*
X361587Y1830647D02*Y1832147D01*
X361087Y1830147D02*X361587Y1830647D01*
X360087Y1830147D02*X361087D01*
X360087D02*X359587Y1830647D01*
Y1832147D01*
X359087Y1832647D01*
X358087D02*X359087D01*
X357587Y1832147D02*X358087Y1832647D01*
X357587Y1830647D02*Y1832147D01*
X358087Y1830147D02*X357587Y1830647D01*
X361587Y1835347D02*X361087Y1835847D01*
X361587Y1834347D02*Y1835347D01*
X361087Y1833847D02*X361587Y1834347D01*
X358087Y1833847D02*X361087D01*
X358087D02*X357587Y1834347D01*
X359787Y1835347D02*X359287Y1835847D01*
X359787Y1833847D02*Y1835347D01*
X357587Y1834347D02*Y1835347D01*
X358087Y1835847D01*
X359287D01*
X358087Y1837047D02*X357587Y1837547D01*
X358087Y1837047D02*X361087D01*
X361587Y1837547D01*
Y1838547D01*
X361087Y1839047D01*
X358087D02*X361087D01*
X357587Y1838547D02*X358087Y1839047D01*
X357587Y1837547D02*Y1838547D01*
X358587Y1837047D02*X360587Y1839047D01*
X358087Y1840247D02*X357587Y1840747D01*
X358087Y1840247D02*X361087D01*
X361587Y1840747D01*
Y1841747D01*
X361087Y1842247D01*
X358087D02*X361087D01*
X357587Y1841747D02*X358087Y1842247D01*
X357587Y1840747D02*Y1841747D01*
X358587Y1840247D02*X360587Y1842247D01*
X137375Y1850859D02*X136875Y1851359D01*
X137375Y1849359D02*Y1850859D01*
X136875Y1848859D02*X137375Y1849359D01*
X135875Y1848859D02*X136875D01*
X135875D02*X135375Y1849359D01*
Y1850859D01*
X134875Y1851359D01*
X133875D02*X134875D01*
X133375Y1850859D02*X133875Y1851359D01*
X133375Y1849359D02*Y1850859D01*
X133875Y1848859D02*X133375Y1849359D01*
X137375Y1854059D02*X136875Y1854559D01*
X137375Y1853059D02*Y1854059D01*
X136875Y1852559D02*X137375Y1853059D01*
X133875Y1852559D02*X136875D01*
X133875D02*X133375Y1853059D01*
X135575Y1854059D02*X135075Y1854559D01*
X135575Y1852559D02*Y1854059D01*
X133375Y1853059D02*Y1854059D01*
X133875Y1854559D01*
X135075D01*
X133875Y1855759D02*X133375Y1856259D01*
X133875Y1855759D02*X136875D01*
X137375Y1856259D01*
Y1857259D01*
X136875Y1857759D01*
X133875D02*X136875D01*
X133375Y1857259D02*X133875Y1857759D01*
X133375Y1856259D02*Y1857259D01*
X134375Y1855759D02*X136375Y1857759D01*
X133375Y1859459D02*X137375Y1861459D01*
Y1858959D02*Y1861459D01*
X178501Y1852147D02*X178001Y1852647D01*
X178501Y1850647D02*Y1852147D01*
X178001Y1850147D02*X178501Y1850647D01*
X177001Y1850147D02*X178001D01*
X177001D02*X176501Y1850647D01*
Y1852147D01*
X176001Y1852647D01*
X175001D02*X176001D01*
X174501Y1852147D02*X175001Y1852647D01*
X174501Y1850647D02*Y1852147D01*
X175001Y1850147D02*X174501Y1850647D01*
X178501Y1855347D02*X178001Y1855847D01*
X178501Y1854347D02*Y1855347D01*
X178001Y1853847D02*X178501Y1854347D01*
X175001Y1853847D02*X178001D01*
X175001D02*X174501Y1854347D01*
X176701Y1855347D02*X176201Y1855847D01*
X176701Y1853847D02*Y1855347D01*
X174501Y1854347D02*Y1855347D01*
X175001Y1855847D01*
X176201D01*
X175001Y1857047D02*X174501Y1857547D01*
X175001Y1857047D02*X178001D01*
X178501Y1857547D01*
Y1858547D01*
X178001Y1859047D01*
X175001D02*X178001D01*
X174501Y1858547D02*X175001Y1859047D01*
X174501Y1857547D02*Y1858547D01*
X175501Y1857047D02*X177501Y1859047D01*
X178501Y1861747D02*X178001Y1862247D01*
X178501Y1860747D02*Y1861747D01*
X178001Y1860247D02*X178501Y1860747D01*
X175001Y1860247D02*X178001D01*
X175001D02*X174501Y1860747D01*
X176701Y1861747D02*X176201Y1862247D01*
X176701Y1860247D02*Y1861747D01*
X174501Y1860747D02*Y1861747D01*
X175001Y1862247D01*
X176201D01*
X80677Y1846735D02*X80177Y1847235D01*
X80677Y1845235D02*Y1846735D01*
X80177Y1844735D02*X80677Y1845235D01*
X79177Y1844735D02*X80177D01*
X79177D02*X78677Y1845235D01*
Y1846735D01*
X78177Y1847235D01*
X77177D02*X78177D01*
X76677Y1846735D02*X77177Y1847235D01*
X76677Y1845235D02*Y1846735D01*
X77177Y1844735D02*X76677Y1845235D01*
X80677Y1849935D02*X80177Y1850435D01*
X80677Y1848935D02*Y1849935D01*
X80177Y1848435D02*X80677Y1848935D01*
X77177Y1848435D02*X80177D01*
X77177D02*X76677Y1848935D01*
X78877Y1849935D02*X78377Y1850435D01*
X78877Y1848435D02*Y1849935D01*
X76677Y1848935D02*Y1849935D01*
X77177Y1850435D01*
X78377D01*
X77177Y1851635D02*X76677Y1852135D01*
X77177Y1851635D02*X80177D01*
X80677Y1852135D01*
Y1853135D01*
X80177Y1853635D01*
X77177D02*X80177D01*
X76677Y1853135D02*X77177Y1853635D01*
X76677Y1852135D02*Y1853135D01*
X77677Y1851635D02*X79677Y1853635D01*
X80177Y1854835D02*X80677Y1855335D01*
Y1856835D01*
X80177Y1857335D01*
X79177D02*X80177D01*
X76677Y1854835D02*X79177Y1857335D01*
X76677Y1854835D02*Y1857335D01*
X385375Y1861935D02*X384875Y1862435D01*
X385375Y1860435D02*Y1861935D01*
X384875Y1859935D02*X385375Y1860435D01*
X383875Y1859935D02*X384875D01*
X383875D02*X383375Y1860435D01*
Y1861935D01*
X382875Y1862435D01*
X381875D02*X382875D01*
X381375Y1861935D02*X381875Y1862435D01*
X381375Y1860435D02*Y1861935D01*
X381875Y1859935D02*X381375Y1860435D01*
X385375Y1865135D02*X384875Y1865635D01*
X385375Y1864135D02*Y1865135D01*
X384875Y1863635D02*X385375Y1864135D01*
X381875Y1863635D02*X384875D01*
X381875D02*X381375Y1864135D01*
X383575Y1865135D02*X383075Y1865635D01*
X383575Y1863635D02*Y1865135D01*
X381375Y1864135D02*Y1865135D01*
X381875Y1865635D01*
X383075D01*
X381875Y1866835D02*X381375Y1867335D01*
X381875Y1866835D02*X384875D01*
X385375Y1867335D01*
Y1868335D01*
X384875Y1868835D01*
X381875D02*X384875D01*
X381375Y1868335D02*X381875Y1868835D01*
X381375Y1867335D02*Y1868335D01*
X382375Y1866835D02*X384375Y1868835D01*
X384575Y1870035D02*X385375Y1870835D01*
X381375D02*X385375D01*
X381375Y1870035D02*Y1871535D01*
X337627Y1873435D02*X337127Y1873935D01*
X337627Y1871935D02*Y1873435D01*
X337127Y1871435D02*X337627Y1871935D01*
X336127Y1871435D02*X337127D01*
X336127D02*X335627Y1871935D01*
Y1873435D01*
X335127Y1873935D01*
X334127D02*X335127D01*
X333627Y1873435D02*X334127Y1873935D01*
X333627Y1871935D02*Y1873435D01*
X334127Y1871435D02*X333627Y1871935D01*
X337627Y1876635D02*X337127Y1877135D01*
X337627Y1875635D02*Y1876635D01*
X337127Y1875135D02*X337627Y1875635D01*
X334127Y1875135D02*X337127D01*
X334127D02*X333627Y1875635D01*
X335827Y1876635D02*X335327Y1877135D01*
X335827Y1875135D02*Y1876635D01*
X333627Y1875635D02*Y1876635D01*
X334127Y1877135D01*
X335327D01*
X334127Y1878335D02*X333627Y1878835D01*
X334127Y1878335D02*X337127D01*
X337627Y1878835D01*
Y1879835D01*
X337127Y1880335D01*
X334127D02*X337127D01*
X333627Y1879835D02*X334127Y1880335D01*
X333627Y1878835D02*Y1879835D01*
X334627Y1878335D02*X336627Y1880335D01*
X337627Y1881535D02*Y1883535D01*
X335627Y1881535D02*X337627D01*
X335627D02*X336127Y1882035D01*
Y1883035D01*
X335627Y1883535D01*
X334127D02*X335627D01*
X333627Y1883035D02*X334127Y1883535D01*
X333627Y1882035D02*Y1883035D01*
X334127Y1881535D02*X333627Y1882035D01*
X285627Y1861935D02*X285127Y1862435D01*
X285627Y1860435D02*Y1861935D01*
X285127Y1859935D02*X285627Y1860435D01*
X284127Y1859935D02*X285127D01*
X284127D02*X283627Y1860435D01*
Y1861935D01*
X283127Y1862435D01*
X282127D02*X283127D01*
X281627Y1861935D02*X282127Y1862435D01*
X281627Y1860435D02*Y1861935D01*
X282127Y1859935D02*X281627Y1860435D01*
X285627Y1865135D02*X285127Y1865635D01*
X285627Y1864135D02*Y1865135D01*
X285127Y1863635D02*X285627Y1864135D01*
X282127Y1863635D02*X285127D01*
X282127D02*X281627Y1864135D01*
X283827Y1865135D02*X283327Y1865635D01*
X283827Y1863635D02*Y1865135D01*
X281627Y1864135D02*Y1865135D01*
X282127Y1865635D01*
X283327D01*
X282127Y1866835D02*X281627Y1867335D01*
X282127Y1866835D02*X285127D01*
X285627Y1867335D01*
Y1868335D01*
X285127Y1868835D01*
X282127D02*X285127D01*
X281627Y1868335D02*X282127Y1868835D01*
X281627Y1867335D02*Y1868335D01*
X282627Y1866835D02*X284627Y1868835D01*
X283127Y1870035D02*X285627Y1872035D01*
X283127Y1870035D02*Y1872535D01*
X281627Y1872035D02*X285627D01*
X206500Y1968000D02*X207800D01*
X205800Y1967300D02*X206500Y1968000D01*
X205800Y1964700D02*Y1967300D01*
Y1964700D02*X206500Y1964000D01*
X207800D01*
X209000Y1964500D02*Y1967500D01*
Y1964500D02*X209500Y1964000D01*
X210500D01*
X211000Y1964500D01*
Y1967500D01*
X210500Y1968000D02*X211000Y1967500D01*
X209500Y1968000D02*X210500D01*
X209000Y1967500D02*X209500Y1968000D01*
X212200Y1964000D02*Y1968000D01*
Y1964000D02*X214700Y1968000D01*
Y1964000D02*Y1968000D01*
X215900Y1964000D02*Y1968000D01*
Y1964000D02*X218400Y1968000D01*
Y1964000D02*Y1968000D01*
X220100D02*X222100Y1964000D01*
X219600D02*X222100D01*
X223300Y1967500D02*X223800Y1968000D01*
X223300Y1964500D02*Y1967500D01*
Y1964500D02*X223800Y1964000D01*
X224800D01*
X225300Y1964500D01*
Y1967500D01*
X224800Y1968000D02*X225300Y1967500D01*
X223800Y1968000D02*X224800D01*
X223300Y1967000D02*X225300Y1965000D01*
X228000Y1964000D02*X228500Y1964500D01*
X227000Y1964000D02*X228000D01*
X226500Y1964500D02*X227000Y1964000D01*
X226500Y1964500D02*Y1967500D01*
X227000Y1968000D01*
X228000Y1965800D02*X228500Y1966300D01*
X226500Y1965800D02*X228000D01*
X227000Y1968000D02*X228000D01*
X228500Y1967500D01*
Y1966300D02*Y1967500D01*
X539519Y2153444D02*X539019Y2153944D01*
X539519Y2151944D02*Y2153444D01*
X539019Y2151444D02*X539519Y2151944D01*
X538019Y2151444D02*X539019D01*
X538019D02*X537519Y2151944D01*
Y2153444D01*
X537019Y2153944D01*
X536019D02*X537019D01*
X535519Y2153444D02*X536019Y2153944D01*
X535519Y2151944D02*Y2153444D01*
X536019Y2151444D02*X535519Y2151944D01*
X539519Y2155144D02*Y2157144D01*
X537519Y2155144D02*X539519D01*
X537519D02*X538019Y2155644D01*
Y2156644D01*
X537519Y2157144D01*
X536019D02*X537519D01*
X535519Y2156644D02*X536019Y2157144D01*
X535519Y2155644D02*Y2156644D01*
X536019Y2155144D02*X535519Y2155644D01*
X536019Y2158344D02*X535519Y2158844D01*
X536019Y2158344D02*X539019D01*
X539519Y2158844D01*
Y2159844D01*
X539019Y2160344D01*
X536019D02*X539019D01*
X535519Y2159844D02*X536019Y2160344D01*
X535519Y2158844D02*Y2159844D01*
X536519Y2158344D02*X538519Y2160344D01*
X538719Y2161544D02*X539519Y2162344D01*
X535519D02*X539519D01*
X535519Y2161544D02*Y2163044D01*
X517563Y2261772D02*Y2263072D01*
X518263Y2261072D02*X517563Y2261772D01*
X518263Y2261072D02*X520863D01*
X521563Y2261772D01*
Y2263072D01*
X518063Y2264272D02*X521063D01*
X521563Y2264772D01*
Y2265772D01*
X521063Y2266272D01*
X518063D02*X521063D01*
X517563Y2265772D02*X518063Y2266272D01*
X517563Y2264772D02*Y2265772D01*
X518063Y2264272D02*X517563Y2264772D01*
Y2267472D02*X521563D01*
X517563Y2269972D01*
X521563D01*
X517563Y2271172D02*X521563D01*
X517563Y2273672D01*
X521563D01*
X521063Y2274872D02*X521563Y2275372D01*
Y2276372D01*
X521063Y2276872D01*
X517563Y2276372D02*X518063Y2276872D01*
X517563Y2275372D02*Y2276372D01*
X518063Y2274872D02*X517563Y2275372D01*
X519763D02*Y2276372D01*
X520263Y2276872D02*X521063D01*
X518063D02*X519263D01*
X519763Y2276372D01*
X520263Y2276872D02*X519763Y2276372D01*
X518063Y2278072D02*X517563Y2278572D01*
X518063Y2278072D02*X521063D01*
X521563Y2278572D01*
Y2279572D01*
X521063Y2280072D01*
X518063D02*X521063D01*
X517563Y2279572D02*X518063Y2280072D01*
X517563Y2278572D02*Y2279572D01*
X518563Y2278072D02*X520563Y2280072D01*
X518063Y2281272D02*X517563Y2281772D01*
X518063Y2281272D02*X521063D01*
X521563Y2281772D01*
Y2282772D01*
X521063Y2283272D01*
X518063D02*X521063D01*
X517563Y2282772D02*X518063Y2283272D01*
X517563Y2281772D02*Y2282772D01*
X518563Y2281272D02*X520563Y2283272D01*
M02*
