M48
INCH
T277C0.020
T276C0.035
T275C0.030
T274C0.035
T273C0.109
%
T277
X020490Y035100
X015825Y018265
X015690Y017550
X014740Y018600
X015581Y016391
X015568Y014422
X016240Y014400
X015590Y015600
X016140Y015250
X015890Y016950
X016240Y016400
X017140Y020400
X016390Y017900
X016790Y017450
X017190Y017900
X017640Y017450
X025140Y019600
X027090Y019600
X013940Y015450
X013340Y015450
X013140Y014850
X011890Y019350
X012540Y019350
X013190Y019350
X011240Y019350
T275
X006490Y005000
X008490Y005000
T276
X020590Y037050
X025890Y037250
X024190Y035900
X032280Y009510
X030280Y009510
X035630Y008460
X035780Y010160
X034780Y008660
X033730Y009310
X035980Y007460
X033680Y007760
X038580Y008060
X032206Y010384
X031680Y011960
X034730Y011610
X033680Y012310
X037180Y013110
X035830Y013110
X030280Y011160
X016190Y010450
X021240Y012500
X020940Y018950
X022940Y018950
X021240Y011000
X014890Y012600
X014790Y011250
X014190Y020250
X010040Y020000
X009540Y014500
X010390Y009450
T274
X012292Y025420
X017608Y025420
T273
X039670Y029610
X039670Y004610
X031670Y004610
X003670Y029610
X011670Y029610
X031670Y029610
X003670Y004610
X011670Y004610
M30
