M48
INCH
T105C0.020
T104C0.035
T103C0.015
T102C0.035
T101C0.030
T100C0.109
%
T103
X014600Y030050
X014990Y030050
X015390Y030050
X015780Y030050
X016170Y030050
X016570Y030050
X016960Y030050
X017360Y030050
X019750Y003400
X020154Y003404
X020548Y003402
X020950Y003400
X021330Y003400
X021730Y003400
X022120Y003400
X022510Y003400
X022910Y003400
X023310Y003400
X019950Y005520
X020350Y005970
X020750Y005520
X021150Y005970
X021530Y005520
X021930Y005970
X022320Y005520
X022720Y005970
X023110Y005520
X023510Y005970
X024330Y006560
X023870Y006320
X019490Y008550
X019810Y009690
X020120Y008550
X020440Y009690
X020750Y008550
X021070Y009690
X021380Y008550
X021700Y009690
X022010Y008550
X022650Y007790
X023280Y007790
X023910Y007790
X022330Y009690
X022960Y009690
X023590Y009690
X022640Y008550
X023270Y008550
X023900Y008550
X016352Y026145
X015732Y026145
X015102Y026145
X016039Y025531
X015409Y025531
X014779Y025531
X014472Y026145
X014150Y025530
X016362Y024185
X015732Y024185
X016042Y023622
X015412Y023622
X015102Y024185
X014782Y023622
X014462Y024185
X014150Y023620
X022357Y030049
X022747Y030049
X023147Y030049
X023537Y030049
X023927Y030049
X024327Y030049
X024717Y030049
X025117Y030049
X025504Y030049
X025904Y030049
X025896Y023823
X025510Y024370
X025104Y023823
X024720Y024370
X024332Y023823
X023932Y024372
X023541Y023823
X023140Y024370
X022757Y023823
X022352Y024370
X023730Y026590
X023340Y027020
X022950Y026590
X022550Y027020
X022160Y026590
X025305Y026590
X024920Y027010
X025700Y027040
X024525Y026590
X024125Y027015
T105
X018104Y045755
X020054Y045755
X008789Y044421
X008654Y043705
X007704Y044755
X004854Y045505
X005504Y045505
X006154Y045505
X010104Y046555
X009204Y042555
X008854Y043105
X009354Y044055
X009754Y043605
X010154Y044055
X010604Y043605
X008545Y042546
X008554Y041755
X006904Y041605
X006304Y041605
X006104Y041005
X008532Y040577
X009204Y040555
X009104Y041405
X004204Y045505
X020490Y035100
T101
X005850Y005500
X007850Y005500
T104
X014204Y038655
X014204Y037155
X013904Y045105
X015904Y045105
X007154Y046405
X002504Y040655
X007854Y038755
X009154Y036605
X007754Y037405
X003004Y046155
X003354Y035605
X036280Y035910
X030930Y036960
X036430Y037610
X035430Y036110
X032930Y036960
X034380Y036760
X020590Y037050
X025890Y037250
X024190Y035900
X036630Y034910
X039230Y035510
X034330Y035210
X032856Y037834
X032330Y039410
X035380Y039060
X034330Y039760
X037830Y040560
X036480Y040560
T102
X019017Y024997
X013702Y024997
X024358Y007420
X019042Y007420
T100
X039670Y029610
X039670Y004610
X031670Y004610
X003670Y029610
X011670Y029610
X031670Y029610
X003670Y004610
X011670Y004610
M30
