M48
INCH
T124C0.020
T123C0.035
T122C0.015
T121C0.109
T120C0.115
T119C0.116
T118C0.035
T117C0.030
%
T122
X021691Y004474
X022095Y004478
X022489Y004476
X022891Y004474
X023271Y004474
X023671Y004474
X024061Y004474
X024451Y004474
X024851Y004474
X025251Y004474
X021891Y006594
X022291Y007044
X022691Y006594
X023091Y007044
X023471Y006594
X023871Y007044
X024261Y006594
X024661Y007044
X025051Y006594
X025451Y007044
X026271Y007634
X026380Y006830
X021431Y009624
X021751Y010764
X022061Y009624
X019000Y012550
X019700Y012700
X022381Y010764
X022691Y009624
X023011Y010764
X023321Y009624
X023641Y010764
X023951Y009624
X024271Y010764
X024901Y010764
X025531Y010764
X024581Y009624
X025221Y008864
X009650Y009900
X010100Y010350
X009000Y011900
X008950Y009900
X011900Y012300
X011300Y011900
X016413Y027219
X005141Y027074
X009141Y027424
X007691Y026774
X005591Y027074
X016403Y025259
X008041Y025174
X008491Y026074
X016541Y031124
X016931Y031124
X017331Y031124
X017721Y031124
X018111Y031124
X018511Y031124
X018901Y031124
X019301Y031124
X025088Y031123
X024298Y031123
X025480Y031620
X026270Y031620
X027060Y031620
X027850Y031620
X024690Y031620
X025868Y031123
X026658Y031123
X027445Y031123
X027837Y024897
X027451Y025444
X027045Y024897
X026661Y025444
X026273Y024897
X025873Y025446
X025482Y024897
X025081Y025444
X024698Y024897
X018615Y024685
X018930Y025270
X019245Y024705
X019875Y024725
X020190Y025310
X006191Y024874
X004300Y025000
X008391Y024574
X024294Y025444
X023100Y023200
X025671Y027664
X025280Y028470
X024891Y027664
X024490Y028470
X024101Y027664
X027246Y027664
X026860Y028470
X026466Y027664
X026070Y028470
X026000Y022500
X027640Y028470
X027850Y022200
X006041Y023574
X006241Y022924
X007691Y023974
X008191Y023624
X007641Y022624
X009141Y024174
X008841Y023724
X010541Y023524
X004291Y022924
X004300Y023550
X018293Y027219
X017673Y027219
X017043Y027219
X019721Y028344
X018303Y025259
X017673Y025259
X017043Y025259
X017983Y024696
X017353Y024696
X016723Y024696
X016091Y024694
X017980Y026605
X017350Y026605
X016720Y026605
X016091Y026604
X019560Y025290
X020351Y028344
X015525Y015475
X016250Y014700
X015000Y015450
X014450Y015450
X004891Y020474
X008891Y021574
X008291Y021624
X007650Y020150
X015750Y016400
X013450Y020350
X014900Y020000
X015300Y019500
X014100Y021100
X010900Y018950
X010750Y016950
X009750Y018850
X004300Y021000
X011000Y022050
X011050Y019800
X011050Y020650
X011900Y020400
X012600Y021100
X017950Y015650
X017950Y019030
X020750Y021200
X019200Y015550
X020350Y016000
X018550Y015600
X027900Y020200
X029800Y021200
X026250Y021100
X025950Y020100
X025000Y020650
X030450Y020600
X032200Y023050
X030550Y023050
X033550Y022550
X032300Y021450
X034200Y022750
X035950Y022450
X036350Y022850
X035500Y022850
X036800Y022450
T124
X009591Y013924
X008991Y013924
X008791Y013324
X011476Y016739
X011341Y016024
X011541Y015424
X012041Y016374
X012441Y015924
X012841Y016374
X013291Y015924
X011232Y014865
X011219Y012896
X011891Y012874
X011241Y014074
X011791Y013724
X011891Y014874
X011650Y019350
T117
X050000Y009600
X052000Y009600
T123
X016891Y010974
X016891Y009474
X011841Y008924
X010541Y011074
X010441Y009724
X006041Y007924
X007141Y029274
X011600Y029500
X005191Y012974
X005691Y018474
X016591Y017424
X018591Y017424
X033400Y024700
X033550Y020700
X035050Y020700
T118
X020958Y026071
X015643Y026071
X026298Y008494
X020984Y008494
T121
X041611Y005684
X005611Y005684
X013611Y005684
X033611Y005684
X005611Y030684
X041611Y030684
X013611Y030684
X033611Y030684
T120
X034961Y007059
X032361Y007059
T119
X023641Y012474
X018300Y022550
M30
