G04 start of page 4 for group 2 idx 2 *
G04 Title: (unknown), 4Sig *
G04 Creator: pcb 20110918 *
G04 CreationDate: Thu Nov 14 23:28:25 2013 UTC *
G04 For: fosse *
G04 Format: Gerber/RS-274X *
G04 PCB-Dimensions: 550000 600000 *
G04 PCB-Coordinate-Origin: lower left *
%MOIN*%
%FSLAX25Y25*%
%LNGROUP2*%
%ADD78C,0.0354*%
%ADD77C,0.1090*%
%ADD76C,0.0200*%
%ADD75C,0.0350*%
%ADD74C,0.1150*%
%ADD73C,0.0360*%
%ADD72C,0.0600*%
%ADD71C,0.1190*%
%ADD70C,0.0300*%
%ADD69C,0.0550*%
%ADD68C,0.0001*%
%ADD67C,0.0394*%
%ADD66C,0.0544*%
%ADD65C,0.2500*%
%ADD64C,0.0250*%
%ADD63C,0.0150*%
%ADD62C,0.0100*%
G54D62*X204500Y365500D02*Y334400D01*
X201800Y366700D02*Y335100D01*
X208400Y365500D02*X205300Y368600D01*
X203700D01*
X201800Y366700D01*
X212400Y365500D02*X207100Y370800D01*
X202000D01*
X199600Y368400D01*
Y336200D01*
G54D63*X297799Y365461D02*X297770Y365490D01*
X305699Y365461D02*X305670Y365490D01*
X282070Y308746D02*X282025Y308700D01*
X286015Y303285D02*X286070Y303230D01*
X289970Y308772D02*X289899Y308700D01*
X293881Y303260D02*X293910Y303230D01*
X301791Y303260D02*X301820Y303230D01*
X309611Y303302D02*X309540Y303230D01*
X313599Y365435D02*X313544Y365490D01*
X317505Y303276D02*X317460Y303230D01*
G54D62*X204500Y334400D02*X190900Y320800D01*
X206300Y332200D02*Y325000D01*
X203200Y321900D01*
Y313170D01*
X201800Y335100D02*X188600Y321900D01*
X199600Y336200D02*X186450Y323050D01*
X188600Y321900D02*Y308100D01*
X186450Y323050D02*Y307250D01*
X188600Y308100D02*X200000Y296700D01*
X203100Y297800D02*Y306830D01*
X186450Y307250D02*X199000Y294700D01*
X202900D01*
X200000Y296700D02*X202000D01*
X203100Y297800D01*
X202900Y294700D02*X206300Y298100D01*
Y301200D01*
X206323Y301223D01*
X190900Y320800D02*Y310300D01*
X200000Y301200D01*
X203100Y306830D02*X203120Y306850D01*
X203200Y313170D02*X209520Y306850D01*
X212600Y310700D02*Y301246D01*
X212623Y301223D01*
X215800Y321800D02*Y306870D01*
X215820Y306850D01*
X218900Y316400D02*Y301246D01*
X218923Y301223D01*
X216300Y365500D02*Y342200D01*
X220200Y365500D02*Y339800D01*
X224200Y365500D02*Y337500D01*
X228100Y365500D02*Y336500D01*
X216300Y342200D02*X206300Y332200D01*
X220200Y339800D02*X212600Y332200D01*
X224200Y337500D02*X218900Y332200D01*
X228100Y336500D02*X225000Y333400D01*
X232100Y365500D02*Y335700D01*
X227900Y331500D01*
X212600Y332200D02*Y324900D01*
X218900Y332200D02*Y324900D01*
X215800Y321800D01*
X212600Y324900D02*X209500Y321800D01*
Y313800D01*
X212600Y310700D01*
X225000Y333400D02*Y322500D01*
X218900Y316400D01*
X227900Y331500D02*Y319800D01*
X222200Y314100D01*
Y306930D01*
X222120Y306850D01*
G54D64*X436500Y514000D02*X466500D01*
X472000Y519500D02*X466500Y514000D01*
X472000Y552500D02*Y519500D01*
X442421Y552079D02*X442500Y552000D01*
X447500Y536500D02*X440500Y543500D01*
X447500Y536500D02*X461000D01*
X464074Y539574D02*X461000Y536500D01*
X455413Y544087D02*X457500Y542000D01*
X464074Y570953D02*Y539574D01*
X493386Y564752D02*Y509023D01*
X455413Y570953D02*Y544087D01*
X429180Y500000D02*X422340Y506840D01*
X421436Y507744D02*X422027Y507153D01*
X421436Y539850D02*Y507744D01*
X429180Y500000D02*X487000D01*
X494153Y507153D02*X487000Y500000D01*
X494153Y507153D02*X495256D01*
X493386Y509023D02*X495256Y507153D01*
X471752Y552748D02*X472000Y552500D01*
X471752Y570953D02*Y552748D01*
X475098Y582598D02*X475500Y583000D01*
X475098Y582598D02*Y570953D01*
X459744Y577744D02*Y570953D01*
X424500Y563000D02*X433500D01*
X420500Y567000D02*X424500Y563000D01*
X421500Y539914D02*X421436Y539850D01*
X420500Y574000D02*Y567000D01*
X424000Y577500D02*X420500Y574000D01*
X424000Y577500D02*X443500D01*
X446752Y574248D02*X443500Y577500D01*
X446752Y574248D02*Y570953D01*
X442421D02*Y552079D01*
X451082Y576918D02*X451000Y577000D01*
X451082Y576918D02*Y570953D01*
G54D65*X455200Y361100D03*
Y111100D03*
X375200D03*
X95200Y361100D03*
X175200D03*
X375200D03*
X95200Y111100D03*
X175200D03*
G54D66*X248666Y314966D03*
X195516D03*
G54D67*X248925Y139204D03*
X302075D03*
G54D68*G36*
X500336Y228750D02*Y223250D01*
X505836D01*
Y228750D01*
X500336D01*
G37*
G54D69*X523086Y226000D03*
G54D70*X256000Y99000D03*
X260039Y99039D03*
X263976Y99024D03*
X268000Y99000D03*
X271800D03*
X275800D03*
X279700D03*
X283600D03*
X287600D03*
X291600D03*
X258000Y120200D03*
X262000Y124700D03*
X266000Y120200D03*
X270000Y124700D03*
X273800Y120200D03*
X277800Y124700D03*
X281700Y120200D03*
X285700Y124700D03*
X289600Y120200D03*
X293600Y124700D03*
X297200Y128200D03*
X301800Y130600D03*
X253400Y150500D03*
X256600Y161900D03*
X259700Y150500D03*
X262900Y161900D03*
X266000Y150500D03*
X269200Y161900D03*
X272300Y150500D03*
X275500Y161900D03*
X278600Y150500D03*
X285000Y142900D03*
X291300D03*
X297600D03*
X281800Y161900D03*
X288100D03*
X294400D03*
X284900Y150500D03*
X291200D03*
X297500D03*
G54D71*X187700Y124850D03*
X161700D03*
G54D70*X282070Y365490D03*
X285970D03*
X289970D03*
X293870D03*
X297770D03*
X301770D03*
X305670D03*
X309670D03*
X313544D03*
X317544D03*
X317460Y303230D03*
X313599Y308700D03*
X309540Y303230D03*
X305699Y308700D03*
X301820Y303230D03*
X297816Y308718D03*
X293910Y303230D03*
X289899Y308700D03*
X286070Y303230D03*
X282025Y308700D03*
X295800Y330900D03*
X291900Y335200D03*
X288000Y330900D03*
X284000Y335200D03*
X280100Y330900D03*
X311548D03*
X307700Y335100D03*
X315500Y335400D03*
X303748Y330900D03*
X299748Y335148D03*
X203220Y326450D03*
X222020D03*
X215820D03*
X209520D03*
X218892Y320308D03*
X212592D03*
X206292D03*
X200000Y320300D03*
X204500Y365500D03*
X208400D03*
X212400D03*
X216300D03*
X220200D03*
X224200D03*
X228100D03*
X232100D03*
X203120Y306850D03*
X222120D03*
X215820D03*
X209520D03*
X218923Y301223D03*
X200000Y301200D03*
X212623Y301223D03*
X206323D03*
G54D72*X400000Y524500D03*
X380000D03*
X383000Y445000D03*
Y460000D03*
X274500Y429500D03*
X318500Y447500D03*
X332500Y439500D03*
X319500Y461000D03*
G54D73*X347000Y509500D03*
X342500Y514000D03*
X338500Y509500D03*
X334500Y514000D03*
X333000Y499000D03*
X342000Y539000D03*
G54D72*X312500Y537500D03*
G54D73*X318000Y521000D03*
X328847Y517653D03*
G54D72*X266000Y480000D03*
G54D73*X302000Y483500D03*
X304000Y489500D03*
X310000D03*
G54D72*X271000Y535000D03*
G54D73*X283000Y528500D03*
X302500D03*
X296000D03*
X289500D03*
X329500Y504500D03*
X327500Y510500D03*
X326406Y498906D03*
X332000Y487500D03*
X326500Y491000D03*
X333000Y479000D03*
X326279Y479221D03*
G54D72*X440500Y543500D03*
X457500Y542000D03*
X442500Y552000D03*
X430500Y540000D03*
X433500Y563000D03*
X449000Y562500D03*
X451000Y597000D03*
X459744Y577744D03*
X475500Y583000D03*
X451000Y577000D03*
X472000Y552500D03*
X479000Y563000D03*
X487000Y528000D03*
Y541500D03*
X436500Y514000D03*
G54D63*G54D74*G54D63*G54D75*G54D76*G54D75*G54D76*G54D75*G54D76*G54D75*G54D76*G54D75*G54D77*G54D78*G54D70*M02*
