G04 start of page 14 for group -3984 idx -3984 *
G04 Title: (unknown), fab *
G04 Creator: pcb 20110918 *
G04 CreationDate: Wed Nov 13 23:37:03 2013 UTC *
G04 For: fosse *
G04 Format: Gerber/RS-274X *
G04 PCB-Dimensions: 550000 2400000 *
G04 PCB-Coordinate-Origin: lower left *
%MOIN*%
%FSLAX25Y25*%
%LNFAB*%
%ADD372C,0.0040*%
%ADD371C,0.0100*%
%ADD370C,0.0075*%
%ADD369C,0.0060*%
%ADD368R,0.0080X0.0080*%
G54D368*X35100Y2197700D02*X38300D01*
X35100D02*Y2194500D01*
X38300D01*
Y2197700D02*Y2194500D01*
X395100Y2197700D02*X398300D01*
X395100D02*Y2194500D01*
X398300D01*
Y2197700D02*Y2194500D01*
X115100Y2197700D02*X118300D01*
X115100D02*Y2194500D01*
X118300D01*
Y2197700D02*Y2194500D01*
X315100Y2197700D02*X318300D01*
X315100D02*Y2194500D01*
X318300D01*
Y2197700D02*Y2194500D01*
X35100Y1947700D02*X38300D01*
X35100D02*Y1944500D01*
X38300D01*
Y1947700D02*Y1944500D01*
X395100Y1947700D02*X398300D01*
X395100D02*Y1944500D01*
X398300D01*
Y1947700D02*Y1944500D01*
X115100Y1947700D02*X118300D01*
X115100D02*Y1944500D01*
X118300D01*
Y1947700D02*Y1944500D01*
X315100Y1947700D02*X318300D01*
X315100D02*Y1944500D01*
X318300D01*
Y1947700D02*Y1944500D01*
X13400Y2412850D02*X16600D01*
X13400D02*Y2409650D01*
X16600D01*
Y2412850D02*Y2409650D01*
G54D369*X135000Y2413500D02*X136500Y2410500D01*
X138000Y2413500D01*
X136500Y2410500D02*Y2407500D01*
X139800Y2410800D02*X142050D01*
X139800Y2407500D02*X142800D01*
X139800Y2413500D02*Y2407500D01*
Y2413500D02*X142800D01*
X147600D02*X148350Y2412750D01*
X145350Y2413500D02*X147600D01*
X144600Y2412750D02*X145350Y2413500D01*
X144600Y2412750D02*Y2411250D01*
X145350Y2410500D01*
X147600D01*
X148350Y2409750D01*
Y2408250D01*
X147600Y2407500D02*X148350Y2408250D01*
X145350Y2407500D02*X147600D01*
X144600Y2408250D02*X145350Y2407500D01*
X98000Y2408250D02*X98750Y2407500D01*
X98000Y2409450D02*Y2408250D01*
Y2409450D02*X99050Y2410500D01*
X99950D01*
X101000Y2409450D01*
Y2408250D01*
X100250Y2407500D02*X101000Y2408250D01*
X98750Y2407500D02*X100250D01*
X98000Y2411550D02*X99050Y2410500D01*
X98000Y2412750D02*Y2411550D01*
Y2412750D02*X98750Y2413500D01*
X100250D01*
X101000Y2412750D01*
Y2411550D01*
X99950Y2410500D02*X101000Y2411550D01*
X45000Y2408250D02*X45750Y2407500D01*
X45000Y2412750D02*Y2408250D01*
Y2412750D02*X45750Y2413500D01*
X47250D01*
X48000Y2412750D01*
Y2408250D01*
X47250Y2407500D02*X48000Y2408250D01*
X45750Y2407500D02*X47250D01*
X45000Y2409000D02*X48000Y2412000D01*
X49800Y2407500D02*X50550D01*
X52350Y2412300D02*X53550Y2413500D01*
Y2407500D01*
X52350D02*X54600D01*
X56400Y2408250D02*X57150Y2407500D01*
X56400Y2412750D02*Y2408250D01*
Y2412750D02*X57150Y2413500D01*
X58650D01*
X59400Y2412750D01*
Y2408250D01*
X58650Y2407500D02*X59400Y2408250D01*
X57150Y2407500D02*X58650D01*
X56400Y2409000D02*X59400Y2412000D01*
X61950Y2407500D02*X64200Y2410500D01*
Y2412750D02*Y2410500D01*
X63450Y2413500D02*X64200Y2412750D01*
X61950Y2413500D02*X63450D01*
X61200Y2412750D02*X61950Y2413500D01*
X61200Y2412750D02*Y2411250D01*
X61950Y2410500D01*
X64200D01*
X76700Y2362000D02*G75*G03X78300Y2362000I800J0D01*G01*
G75*G03X76700Y2362000I-800J0D01*G01*
X164200Y2349000D02*G75*G03X165800Y2349000I800J0D01*G01*
G75*G03X164200Y2349000I-800J0D01*G01*
X144200D02*G75*G03X145800Y2349000I800J0D01*G01*
G75*G03X144200Y2349000I-800J0D01*G01*
X147200Y2269500D02*G75*G03X148800Y2269500I800J0D01*G01*
G75*G03X147200Y2269500I-800J0D01*G01*
Y2284500D02*G75*G03X148800Y2284500I800J0D01*G01*
G75*G03X147200Y2284500I-800J0D01*G01*
X38700Y2254000D02*G75*G03X40300Y2254000I800J0D01*G01*
G75*G03X38700Y2254000I-800J0D01*G01*
X30200Y2304500D02*G75*G03X31800Y2304500I800J0D01*G01*
G75*G03X30200Y2304500I-800J0D01*G01*
X35200Y2359500D02*G75*G03X36800Y2359500I800J0D01*G01*
G75*G03X35200Y2359500I-800J0D01*G01*
X82700Y2272000D02*G75*G03X84300Y2272000I800J0D01*G01*
G75*G03X82700Y2272000I-800J0D01*G01*
X96700Y2264000D02*G75*G03X98300Y2264000I800J0D01*G01*
G75*G03X96700Y2264000I-800J0D01*G01*
X83700Y2285500D02*G75*G03X85300Y2285500I800J0D01*G01*
G75*G03X83700Y2285500I-800J0D01*G01*
X498700Y2284000D02*G75*G03X500300Y2284000I800J0D01*G01*
G75*G03X498700Y2284000I-800J0D01*G01*
X488200Y2230500D02*G75*G03X489800Y2230500I800J0D01*G01*
G75*G03X488200Y2230500I-800J0D01*G01*
X481700Y2285500D02*G75*G03X483300Y2285500I800J0D01*G01*
G75*G03X481700Y2285500I-800J0D01*G01*
X496700Y2275500D02*G75*G03X498300Y2275500I800J0D01*G01*
G75*G03X496700Y2275500I-800J0D01*G01*
X508700Y2287500D02*G75*G03X510300Y2287500I800J0D01*G01*
G75*G03X508700Y2287500I-800J0D01*G01*
X505700Y2264500D02*G75*G03X507300Y2264500I800J0D01*G01*
G75*G03X505700Y2264500I-800J0D01*G01*
X479456Y2249756D02*G75*G03X481056Y2249756I800J0D01*G01*
G75*G03X479456Y2249756I-800J0D01*G01*
X463700Y2244500D02*G75*G03X465300Y2244500I800J0D01*G01*
G75*G03X463700Y2244500I-800J0D01*G01*
X467200Y2275000D02*G75*G03X468800Y2275000I800J0D01*G01*
G75*G03X467200Y2275000I-800J0D01*G01*
X460200Y2264500D02*G75*G03X461800Y2264500I800J0D01*G01*
G75*G03X460200Y2264500I-800J0D01*G01*
X452200Y2299500D02*G75*G03X453800Y2299500I800J0D01*G01*
G75*G03X452200Y2299500I-800J0D01*G01*
Y2286000D02*G75*G03X453800Y2286000I800J0D01*G01*
G75*G03X452200Y2286000I-800J0D01*G01*
X502700Y2313500D02*G75*G03X504300Y2313500I800J0D01*G01*
G75*G03X502700Y2313500I-800J0D01*G01*
X488200Y2250500D02*G75*G03X489800Y2250500I800J0D01*G01*
G75*G03X488200Y2250500I-800J0D01*G01*
X490200Y2265000D02*G75*G03X491800Y2265000I800J0D01*G01*
G75*G03X490200Y2265000I-800J0D01*G01*
X189366Y2149966D02*G75*G03X190966Y2149966I800J0D01*G01*
G75*G03X189366Y2149966I-800J0D01*G01*
X136216D02*G75*G03X137816Y2149966I800J0D01*G01*
G75*G03X136216Y2149966I-800J0D01*G01*
X242775Y1974204D02*G75*G03X244375Y1974204I800J0D01*G01*
G75*G03X242775Y1974204I-800J0D01*G01*
X189625D02*G75*G03X191225Y1974204I800J0D01*G01*
G75*G03X189625Y1974204I-800J0D01*G01*
X14200Y2426250D02*G75*G03X15800Y2426250I800J0D01*G01*
G75*G03X14200Y2426250I-800J0D01*G01*
X135000Y2428500D02*X136500Y2425500D01*
X138000Y2428500D01*
X136500Y2425500D02*Y2422500D01*
X139800Y2425800D02*X142050D01*
X139800Y2422500D02*X142800D01*
X139800Y2428500D02*Y2422500D01*
Y2428500D02*X142800D01*
X147600D02*X148350Y2427750D01*
X145350Y2428500D02*X147600D01*
X144600Y2427750D02*X145350Y2428500D01*
X144600Y2427750D02*Y2426250D01*
X145350Y2425500D01*
X147600D01*
X148350Y2424750D01*
Y2423250D01*
X147600Y2422500D02*X148350Y2423250D01*
X145350Y2422500D02*X147600D01*
X144600Y2423250D02*X145350Y2422500D01*
X98000Y2427750D02*X98750Y2428500D01*
X100250D01*
X101000Y2427750D01*
X100250Y2422500D02*X101000Y2423250D01*
X98750Y2422500D02*X100250D01*
X98000Y2423250D02*X98750Y2422500D01*
Y2425800D02*X100250D01*
X101000Y2427750D02*Y2426550D01*
Y2425050D02*Y2423250D01*
Y2425050D02*X100250Y2425800D01*
X101000Y2426550D02*X100250Y2425800D01*
X102800Y2423250D02*X103550Y2422500D01*
X102800Y2427750D02*Y2423250D01*
Y2427750D02*X103550Y2428500D01*
X105050D01*
X105800Y2427750D01*
Y2423250D01*
X105050Y2422500D02*X105800Y2423250D01*
X103550Y2422500D02*X105050D01*
X102800Y2424000D02*X105800Y2427000D01*
X45000Y2423250D02*X45750Y2422500D01*
X45000Y2427750D02*Y2423250D01*
Y2427750D02*X45750Y2428500D01*
X47250D01*
X48000Y2427750D01*
Y2423250D01*
X47250Y2422500D02*X48000Y2423250D01*
X45750Y2422500D02*X47250D01*
X45000Y2424000D02*X48000Y2427000D01*
X49800Y2422500D02*X50550D01*
X52350Y2423250D02*X53100Y2422500D01*
X52350Y2427750D02*Y2423250D01*
Y2427750D02*X53100Y2428500D01*
X54600D01*
X55350Y2427750D01*
Y2423250D01*
X54600Y2422500D02*X55350Y2423250D01*
X53100Y2422500D02*X54600D01*
X52350Y2424000D02*X55350Y2427000D01*
X57150Y2427750D02*X57900Y2428500D01*
X59400D01*
X60150Y2427750D01*
X59400Y2422500D02*X60150Y2423250D01*
X57900Y2422500D02*X59400D01*
X57150Y2423250D02*X57900Y2422500D01*
Y2425800D02*X59400D01*
X60150Y2427750D02*Y2426550D01*
Y2425050D02*Y2423250D01*
Y2425050D02*X59400Y2425800D01*
X60150Y2426550D02*X59400Y2425800D01*
X61950Y2428500D02*X64950D01*
X61950D02*Y2425500D01*
X62700Y2426250D01*
X64200D01*
X64950Y2425500D01*
Y2423250D01*
X64200Y2422500D02*X64950Y2423250D01*
X62700Y2422500D02*X64200D01*
X61950Y2423250D02*X62700Y2422500D01*
X481984Y1957165D02*X484384Y1954765D01*
X481984D02*X484384Y1957165D01*
X501984D02*X504384Y1954765D01*
X501984D02*X504384Y1957165D01*
X13800Y2442450D02*X16200Y2440050D01*
X13800D02*X16200Y2442450D01*
X135000Y2443500D02*X136500Y2440500D01*
X138000Y2443500D01*
X136500Y2440500D02*Y2437500D01*
X139800Y2440800D02*X142050D01*
X139800Y2437500D02*X142800D01*
X139800Y2443500D02*Y2437500D01*
Y2443500D02*X142800D01*
X147600D02*X148350Y2442750D01*
X145350Y2443500D02*X147600D01*
X144600Y2442750D02*X145350Y2443500D01*
X144600Y2442750D02*Y2441250D01*
X145350Y2440500D01*
X147600D01*
X148350Y2439750D01*
Y2438250D01*
X147600Y2437500D02*X148350Y2438250D01*
X145350Y2437500D02*X147600D01*
X144600Y2438250D02*X145350Y2437500D01*
X98000Y2442750D02*X98750Y2443500D01*
X101000D01*
X101750Y2442750D01*
Y2441250D01*
X98000Y2437500D02*X101750Y2441250D01*
X98000Y2437500D02*X101750D01*
X45000Y2438250D02*X45750Y2437500D01*
X45000Y2442750D02*Y2438250D01*
Y2442750D02*X45750Y2443500D01*
X47250D01*
X48000Y2442750D01*
Y2438250D01*
X47250Y2437500D02*X48000Y2438250D01*
X45750Y2437500D02*X47250D01*
X45000Y2439000D02*X48000Y2442000D01*
X49800Y2437500D02*X50550D01*
X52350Y2438250D02*X53100Y2437500D01*
X52350Y2442750D02*Y2438250D01*
Y2442750D02*X53100Y2443500D01*
X54600D01*
X55350Y2442750D01*
Y2438250D01*
X54600Y2437500D02*X55350Y2438250D01*
X53100Y2437500D02*X54600D01*
X52350Y2439000D02*X55350Y2442000D01*
X57150Y2442750D02*X57900Y2443500D01*
X59400D01*
X60150Y2442750D01*
X59400Y2437500D02*X60150Y2438250D01*
X57900Y2437500D02*X59400D01*
X57150Y2438250D02*X57900Y2437500D01*
Y2440800D02*X59400D01*
X60150Y2442750D02*Y2441550D01*
Y2440050D02*Y2438250D01*
Y2440050D02*X59400Y2440800D01*
X60150Y2441550D02*X59400Y2440800D01*
X61950Y2438250D02*X62700Y2437500D01*
X61950Y2442750D02*Y2438250D01*
Y2442750D02*X62700Y2443500D01*
X64200D01*
X64950Y2442750D01*
Y2438250D01*
X64200Y2437500D02*X64950Y2438250D01*
X62700Y2437500D02*X64200D01*
X61950Y2439000D02*X64950Y2442000D01*
X112000Y2335600D02*Y2332400D01*
X110400Y2334000D02*X113600D01*
X107500Y2340100D02*Y2336900D01*
X105900Y2338500D02*X109100D01*
X103500Y2335600D02*Y2332400D01*
X101900Y2334000D02*X105100D01*
X99500Y2340100D02*Y2336900D01*
X97900Y2338500D02*X101100D01*
X107000Y2365100D02*Y2361900D01*
X105400Y2363500D02*X108600D01*
X98000Y2325100D02*Y2321900D01*
X96400Y2323500D02*X99600D01*
X48000Y2354600D02*Y2351400D01*
X46400Y2353000D02*X49600D01*
X67500Y2354600D02*Y2351400D01*
X65900Y2353000D02*X69100D01*
X61000Y2354600D02*Y2351400D01*
X59400Y2353000D02*X62600D01*
X54500Y2354600D02*Y2351400D01*
X52900Y2353000D02*X56100D01*
X83000Y2347100D02*Y2343900D01*
X81400Y2345500D02*X84600D01*
X67000Y2309600D02*Y2306400D01*
X65400Y2308000D02*X68600D01*
X69000Y2315600D02*Y2312400D01*
X67400Y2314000D02*X70600D01*
X75000Y2315600D02*Y2312400D01*
X73400Y2314000D02*X76600D01*
X94500Y2330600D02*Y2327400D01*
X92900Y2329000D02*X96100D01*
X97000Y2313600D02*Y2310400D01*
X95400Y2312000D02*X98600D01*
X91500Y2317100D02*Y2313900D01*
X89900Y2315500D02*X93100D01*
X92500Y2336600D02*Y2333400D01*
X90900Y2335000D02*X94100D01*
X98000Y2305100D02*Y2301900D01*
X96400Y2303500D02*X99600D01*
X91279Y2305321D02*Y2302121D01*
X89679Y2303721D02*X92879D01*
X91406Y2325006D02*Y2321806D01*
X89806Y2323406D02*X93006D01*
X93847Y2343753D02*Y2340553D01*
X92247Y2342153D02*X95447D01*
X15000Y2457850D02*Y2454650D01*
X13400Y2456250D02*X16600D01*
X135000Y2458500D02*X136500Y2455500D01*
X138000Y2458500D01*
X136500Y2455500D02*Y2452500D01*
X139800Y2455800D02*X142050D01*
X139800Y2452500D02*X142800D01*
X139800Y2458500D02*Y2452500D01*
Y2458500D02*X142800D01*
X147600D02*X148350Y2457750D01*
X145350Y2458500D02*X147600D01*
X144600Y2457750D02*X145350Y2458500D01*
X144600Y2457750D02*Y2456250D01*
X145350Y2455500D01*
X147600D01*
X148350Y2454750D01*
Y2453250D01*
X147600Y2452500D02*X148350Y2453250D01*
X145350Y2452500D02*X147600D01*
X144600Y2453250D02*X145350Y2452500D01*
X98000Y2457750D02*X98750Y2458500D01*
X101000D01*
X101750Y2457750D01*
Y2456250D01*
X98000Y2452500D02*X101750Y2456250D01*
X98000Y2452500D02*X101750D01*
X103550Y2457750D02*X104300Y2458500D01*
X106550D01*
X107300Y2457750D01*
Y2456250D01*
X103550Y2452500D02*X107300Y2456250D01*
X103550Y2452500D02*X107300D01*
X45000Y2453250D02*X45750Y2452500D01*
X45000Y2457750D02*Y2453250D01*
Y2457750D02*X45750Y2458500D01*
X47250D01*
X48000Y2457750D01*
Y2453250D01*
X47250Y2452500D02*X48000Y2453250D01*
X45750Y2452500D02*X47250D01*
X45000Y2454000D02*X48000Y2457000D01*
X49800Y2452500D02*X50550D01*
X52350Y2453250D02*X53100Y2452500D01*
X52350Y2457750D02*Y2453250D01*
Y2457750D02*X53100Y2458500D01*
X54600D01*
X55350Y2457750D01*
Y2453250D01*
X54600Y2452500D02*X55350Y2453250D01*
X53100Y2452500D02*X54600D01*
X52350Y2454000D02*X55350Y2457000D01*
X57150Y2457750D02*X57900Y2458500D01*
X60150D01*
X60900Y2457750D01*
Y2456250D01*
X57150Y2452500D02*X60900Y2456250D01*
X57150Y2452500D02*X60900D01*
X62700Y2453250D02*X63450Y2452500D01*
X62700Y2457750D02*Y2453250D01*
Y2457750D02*X63450Y2458500D01*
X64950D01*
X65700Y2457750D01*
Y2453250D01*
X64950Y2452500D02*X65700Y2453250D01*
X63450Y2452500D02*X64950D01*
X62700Y2454000D02*X65700Y2457000D01*
X163520Y2161450D02*Y2159850D01*
Y2161450D02*X164907Y2162250D01*
X163520Y2161450D02*X162133Y2162250D01*
X157320Y2161450D02*Y2159850D01*
Y2161450D02*X158707Y2162250D01*
X157320Y2161450D02*X155933Y2162250D01*
X151020Y2161450D02*Y2159850D01*
Y2161450D02*X152407Y2162250D01*
X151020Y2161450D02*X149633Y2162250D01*
X144720Y2161450D02*Y2159850D01*
Y2161450D02*X146107Y2162250D01*
X144720Y2161450D02*X143333Y2162250D01*
X163620Y2141850D02*Y2140250D01*
Y2141850D02*X165007Y2142650D01*
X163620Y2141850D02*X162233Y2142650D01*
X157320Y2141850D02*Y2140250D01*
Y2141850D02*X158707Y2142650D01*
X157320Y2141850D02*X155933Y2142650D01*
X151020Y2141850D02*Y2140250D01*
Y2141850D02*X152407Y2142650D01*
X151020Y2141850D02*X149633Y2142650D01*
X144620Y2141850D02*Y2140250D01*
Y2141850D02*X146007Y2142650D01*
X144620Y2141850D02*X143233Y2142650D01*
X146000Y2200500D02*Y2198900D01*
Y2200500D02*X147387Y2201300D01*
X146000Y2200500D02*X144613Y2201300D01*
X149900Y2200500D02*Y2198900D01*
Y2200500D02*X151287Y2201300D01*
X149900Y2200500D02*X148513Y2201300D01*
X153900Y2200500D02*Y2198900D01*
Y2200500D02*X155287Y2201300D01*
X153900Y2200500D02*X152513Y2201300D01*
X157800Y2200500D02*Y2198900D01*
Y2200500D02*X159187Y2201300D01*
X157800Y2200500D02*X156413Y2201300D01*
X161700Y2200500D02*Y2198900D01*
Y2200500D02*X163087Y2201300D01*
X161700Y2200500D02*X160313Y2201300D01*
X165700Y2200500D02*Y2198900D01*
Y2200500D02*X167087Y2201300D01*
X165700Y2200500D02*X164313Y2201300D01*
X169600Y2200500D02*Y2198900D01*
Y2200500D02*X170987Y2201300D01*
X169600Y2200500D02*X168213Y2201300D01*
X173600Y2200500D02*Y2198900D01*
Y2200500D02*X174987Y2201300D01*
X173600Y2200500D02*X172213Y2201300D01*
X160423Y2136223D02*Y2134623D01*
Y2136223D02*X161810Y2137023D01*
X160423Y2136223D02*X159036Y2137023D01*
X154123Y2136223D02*Y2134623D01*
Y2136223D02*X155510Y2137023D01*
X154123Y2136223D02*X152736Y2137023D01*
X147823Y2136223D02*Y2134623D01*
Y2136223D02*X149210Y2137023D01*
X147823Y2136223D02*X146436Y2137023D01*
X141500Y2136200D02*Y2134600D01*
Y2136200D02*X142887Y2137000D01*
X141500Y2136200D02*X140113Y2137000D01*
X160392Y2155308D02*Y2153708D01*
Y2155308D02*X161779Y2156108D01*
X160392Y2155308D02*X159005Y2156108D01*
X154092Y2155308D02*Y2153708D01*
Y2155308D02*X155479Y2156108D01*
X154092Y2155308D02*X152705Y2156108D01*
X147792Y2155308D02*Y2153708D01*
Y2155308D02*X149179Y2156108D01*
X147792Y2155308D02*X146405Y2156108D01*
X141500Y2155300D02*Y2153700D01*
Y2155300D02*X142887Y2156100D01*
X141500Y2155300D02*X140113Y2156100D01*
X223570Y2200490D02*Y2198890D01*
Y2200490D02*X224957Y2201290D01*
X223570Y2200490D02*X222183Y2201290D01*
X227470Y2200490D02*Y2198890D01*
Y2200490D02*X228857Y2201290D01*
X227470Y2200490D02*X226083Y2201290D01*
X231470Y2200490D02*Y2198890D01*
Y2200490D02*X232857Y2201290D01*
X231470Y2200490D02*X230083Y2201290D01*
X235370Y2200490D02*Y2198890D01*
Y2200490D02*X236757Y2201290D01*
X235370Y2200490D02*X233983Y2201290D01*
X239270Y2200490D02*Y2198890D01*
Y2200490D02*X240657Y2201290D01*
X239270Y2200490D02*X237883Y2201290D01*
X243270Y2200490D02*Y2198890D01*
Y2200490D02*X244657Y2201290D01*
X243270Y2200490D02*X241883Y2201290D01*
X247170Y2200490D02*Y2198890D01*
Y2200490D02*X248557Y2201290D01*
X247170Y2200490D02*X245783Y2201290D01*
X251170Y2200490D02*Y2198890D01*
Y2200490D02*X252557Y2201290D01*
X251170Y2200490D02*X249783Y2201290D01*
X255044Y2200490D02*Y2198890D01*
Y2200490D02*X256431Y2201290D01*
X255044Y2200490D02*X253657Y2201290D01*
X259044Y2200490D02*Y2198890D01*
Y2200490D02*X260431Y2201290D01*
X259044Y2200490D02*X257657Y2201290D01*
X258960Y2138230D02*Y2136630D01*
Y2138230D02*X260347Y2139030D01*
X258960Y2138230D02*X257573Y2139030D01*
X255099Y2143700D02*Y2142100D01*
Y2143700D02*X256486Y2144500D01*
X255099Y2143700D02*X253712Y2144500D01*
X251040Y2138230D02*Y2136630D01*
Y2138230D02*X252427Y2139030D01*
X251040Y2138230D02*X249653Y2139030D01*
X247199Y2143700D02*Y2142100D01*
Y2143700D02*X248586Y2144500D01*
X247199Y2143700D02*X245812Y2144500D01*
X243320Y2138230D02*Y2136630D01*
Y2138230D02*X244707Y2139030D01*
X243320Y2138230D02*X241933Y2139030D01*
X239316Y2143718D02*Y2142118D01*
Y2143718D02*X240703Y2144518D01*
X239316Y2143718D02*X237929Y2144518D01*
X235410Y2138230D02*Y2136630D01*
Y2138230D02*X236797Y2139030D01*
X235410Y2138230D02*X234023Y2139030D01*
X231399Y2143700D02*Y2142100D01*
Y2143700D02*X232786Y2144500D01*
X231399Y2143700D02*X230012Y2144500D01*
X227570Y2138230D02*Y2136630D01*
Y2138230D02*X228957Y2139030D01*
X227570Y2138230D02*X226183Y2139030D01*
X223525Y2143700D02*Y2142100D01*
Y2143700D02*X224912Y2144500D01*
X223525Y2143700D02*X222138Y2144500D01*
X237300Y2165900D02*Y2164300D01*
Y2165900D02*X238687Y2166700D01*
X237300Y2165900D02*X235913Y2166700D01*
X233400Y2170200D02*Y2168600D01*
Y2170200D02*X234787Y2171000D01*
X233400Y2170200D02*X232013Y2171000D01*
X229500Y2165900D02*Y2164300D01*
Y2165900D02*X230887Y2166700D01*
X229500Y2165900D02*X228113Y2166700D01*
X225500Y2170200D02*Y2168600D01*
Y2170200D02*X226887Y2171000D01*
X225500Y2170200D02*X224113Y2171000D01*
X221600Y2165900D02*Y2164300D01*
Y2165900D02*X222987Y2166700D01*
X221600Y2165900D02*X220213Y2166700D01*
X253048Y2165900D02*Y2164300D01*
Y2165900D02*X254435Y2166700D01*
X253048Y2165900D02*X251661Y2166700D01*
X249200Y2170100D02*Y2168500D01*
Y2170100D02*X250587Y2170900D01*
X249200Y2170100D02*X247813Y2170900D01*
X245248Y2165900D02*Y2164300D01*
Y2165900D02*X246635Y2166700D01*
X245248Y2165900D02*X243861Y2166700D01*
X241248Y2170148D02*Y2168548D01*
Y2170148D02*X242635Y2170948D01*
X241248Y2170148D02*X239861Y2170948D01*
X257000Y2170400D02*Y2168800D01*
Y2170400D02*X258387Y2171200D01*
X257000Y2170400D02*X255613Y2171200D01*
X197500Y1934000D02*Y1932400D01*
Y1934000D02*X198887Y1934800D01*
X197500Y1934000D02*X196113Y1934800D01*
X201539Y1934039D02*Y1932439D01*
Y1934039D02*X202926Y1934839D01*
X201539Y1934039D02*X200152Y1934839D01*
X205476Y1934024D02*Y1932424D01*
Y1934024D02*X206863Y1934824D01*
X205476Y1934024D02*X204089Y1934824D01*
X209500Y1934000D02*Y1932400D01*
Y1934000D02*X210887Y1934800D01*
X209500Y1934000D02*X208113Y1934800D01*
X213300Y1934000D02*Y1932400D01*
Y1934000D02*X214687Y1934800D01*
X213300Y1934000D02*X211913Y1934800D01*
X217300Y1934000D02*Y1932400D01*
Y1934000D02*X218687Y1934800D01*
X217300Y1934000D02*X215913Y1934800D01*
X221200Y1934000D02*Y1932400D01*
Y1934000D02*X222587Y1934800D01*
X221200Y1934000D02*X219813Y1934800D01*
X225100Y1934000D02*Y1932400D01*
Y1934000D02*X226487Y1934800D01*
X225100Y1934000D02*X223713Y1934800D01*
X229100Y1934000D02*Y1932400D01*
Y1934000D02*X230487Y1934800D01*
X229100Y1934000D02*X227713Y1934800D01*
X233100Y1934000D02*Y1932400D01*
Y1934000D02*X234487Y1934800D01*
X233100Y1934000D02*X231713Y1934800D01*
X199500Y1955200D02*Y1953600D01*
Y1955200D02*X200887Y1956000D01*
X199500Y1955200D02*X198113Y1956000D01*
X203500Y1959700D02*Y1958100D01*
Y1959700D02*X204887Y1960500D01*
X203500Y1959700D02*X202113Y1960500D01*
X207500Y1955200D02*Y1953600D01*
Y1955200D02*X208887Y1956000D01*
X207500Y1955200D02*X206113Y1956000D01*
X211500Y1959700D02*Y1958100D01*
Y1959700D02*X212887Y1960500D01*
X211500Y1959700D02*X210113Y1960500D01*
X215300Y1955200D02*Y1953600D01*
Y1955200D02*X216687Y1956000D01*
X215300Y1955200D02*X213913Y1956000D01*
X219300Y1959700D02*Y1958100D01*
Y1959700D02*X220687Y1960500D01*
X219300Y1959700D02*X217913Y1960500D01*
X223200Y1955200D02*Y1953600D01*
Y1955200D02*X224587Y1956000D01*
X223200Y1955200D02*X221813Y1956000D01*
X227200Y1959700D02*Y1958100D01*
Y1959700D02*X228587Y1960500D01*
X227200Y1959700D02*X225813Y1960500D01*
X231100Y1955200D02*Y1953600D01*
Y1955200D02*X232487Y1956000D01*
X231100Y1955200D02*X229713Y1956000D01*
X235100Y1959700D02*Y1958100D01*
Y1959700D02*X236487Y1960500D01*
X235100Y1959700D02*X233713Y1960500D01*
X194900Y1985500D02*Y1983900D01*
Y1985500D02*X196287Y1986300D01*
X194900Y1985500D02*X193513Y1986300D01*
X198100Y1996900D02*Y1995300D01*
Y1996900D02*X199487Y1997700D01*
X198100Y1996900D02*X196713Y1997700D01*
X201200Y1985500D02*Y1983900D01*
Y1985500D02*X202587Y1986300D01*
X201200Y1985500D02*X199813Y1986300D01*
X204400Y1996900D02*Y1995300D01*
Y1996900D02*X205787Y1997700D01*
X204400Y1996900D02*X203013Y1997700D01*
X207500Y1985500D02*Y1983900D01*
Y1985500D02*X208887Y1986300D01*
X207500Y1985500D02*X206113Y1986300D01*
X210700Y1996900D02*Y1995300D01*
Y1996900D02*X212087Y1997700D01*
X210700Y1996900D02*X209313Y1997700D01*
X213800Y1985500D02*Y1983900D01*
Y1985500D02*X215187Y1986300D01*
X213800Y1985500D02*X212413Y1986300D01*
X217000Y1996900D02*Y1995300D01*
Y1996900D02*X218387Y1997700D01*
X217000Y1996900D02*X215613Y1997700D01*
X220100Y1985500D02*Y1983900D01*
Y1985500D02*X221487Y1986300D01*
X220100Y1985500D02*X218713Y1986300D01*
X223300Y1996900D02*Y1995300D01*
Y1996900D02*X224687Y1997700D01*
X223300Y1996900D02*X221913Y1997700D01*
X226400Y1985500D02*Y1983900D01*
Y1985500D02*X227787Y1986300D01*
X226400Y1985500D02*X225013Y1986300D01*
X229600Y1996900D02*Y1995300D01*
Y1996900D02*X230987Y1997700D01*
X229600Y1996900D02*X228213Y1997700D01*
X232700Y1985500D02*Y1983900D01*
Y1985500D02*X234087Y1986300D01*
X232700Y1985500D02*X231313Y1986300D01*
X235900Y1996900D02*Y1995300D01*
Y1996900D02*X237287Y1997700D01*
X235900Y1996900D02*X234513Y1997700D01*
X239000Y1985500D02*Y1983900D01*
Y1985500D02*X240387Y1986300D01*
X239000Y1985500D02*X237613Y1986300D01*
X226500Y1977900D02*Y1976300D01*
Y1977900D02*X227887Y1978700D01*
X226500Y1977900D02*X225113Y1978700D01*
X232800Y1977900D02*Y1976300D01*
Y1977900D02*X234187Y1978700D01*
X232800Y1977900D02*X231413Y1978700D01*
X239100Y1977900D02*Y1976300D01*
Y1977900D02*X240487Y1978700D01*
X239100Y1977900D02*X237713Y1978700D01*
X238700Y1963200D02*Y1961600D01*
Y1963200D02*X240087Y1964000D01*
X238700Y1963200D02*X237313Y1964000D01*
X243300Y1965600D02*Y1964000D01*
Y1965600D02*X244687Y1966400D01*
X243300Y1965600D02*X241913Y1966400D01*
X15000Y2471250D02*Y2469650D01*
Y2471250D02*X16387Y2472050D01*
X15000Y2471250D02*X13613Y2472050D01*
X135000Y2473500D02*X136500Y2470500D01*
X138000Y2473500D01*
X136500Y2470500D02*Y2467500D01*
X139800Y2470800D02*X142050D01*
X139800Y2467500D02*X142800D01*
X139800Y2473500D02*Y2467500D01*
Y2473500D02*X142800D01*
X147600D02*X148350Y2472750D01*
X145350Y2473500D02*X147600D01*
X144600Y2472750D02*X145350Y2473500D01*
X144600Y2472750D02*Y2471250D01*
X145350Y2470500D01*
X147600D01*
X148350Y2469750D01*
Y2468250D01*
X147600Y2467500D02*X148350Y2468250D01*
X145350Y2467500D02*X147600D01*
X144600Y2468250D02*X145350Y2467500D01*
X98750D02*X101000Y2470500D01*
Y2472750D02*Y2470500D01*
X100250Y2473500D02*X101000Y2472750D01*
X98750Y2473500D02*X100250D01*
X98000Y2472750D02*X98750Y2473500D01*
X98000Y2472750D02*Y2471250D01*
X98750Y2470500D01*
X101000D01*
X102800Y2469750D02*X105800Y2473500D01*
X102800Y2469750D02*X106550D01*
X105800Y2473500D02*Y2467500D01*
X45000Y2468250D02*X45750Y2467500D01*
X45000Y2472750D02*Y2468250D01*
Y2472750D02*X45750Y2473500D01*
X47250D01*
X48000Y2472750D01*
Y2468250D01*
X47250Y2467500D02*X48000Y2468250D01*
X45750Y2467500D02*X47250D01*
X45000Y2469000D02*X48000Y2472000D01*
X49800Y2467500D02*X50550D01*
X52350Y2468250D02*X53100Y2467500D01*
X52350Y2472750D02*Y2468250D01*
Y2472750D02*X53100Y2473500D01*
X54600D01*
X55350Y2472750D01*
Y2468250D01*
X54600Y2467500D02*X55350Y2468250D01*
X53100Y2467500D02*X54600D01*
X52350Y2469000D02*X55350Y2472000D01*
X57150Y2472300D02*X58350Y2473500D01*
Y2467500D01*
X57150D02*X59400D01*
X61200Y2473500D02*X64200D01*
X61200D02*Y2470500D01*
X61950Y2471250D01*
X63450D01*
X64200Y2470500D01*
Y2468250D01*
X63450Y2467500D02*X64200Y2468250D01*
X61950Y2467500D02*X63450D01*
X61200Y2468250D02*X61950Y2467500D01*
X3000Y2488500D02*X3750Y2487750D01*
X750Y2488500D02*X3000D01*
X0Y2487750D02*X750Y2488500D01*
X0Y2487750D02*Y2486250D01*
X750Y2485500D01*
X3000D01*
X3750Y2484750D01*
Y2483250D01*
X3000Y2482500D02*X3750Y2483250D01*
X750Y2482500D02*X3000D01*
X0Y2483250D02*X750Y2482500D01*
X5550Y2485500D02*Y2483250D01*
X6300Y2482500D01*
X8550Y2485500D02*Y2481000D01*
X7800Y2480250D02*X8550Y2481000D01*
X6300Y2480250D02*X7800D01*
X5550Y2481000D02*X6300Y2480250D01*
Y2482500D02*X7800D01*
X8550Y2483250D01*
X11100Y2484750D02*Y2482500D01*
Y2484750D02*X11850Y2485500D01*
X12600D01*
X13350Y2484750D01*
Y2482500D01*
Y2484750D02*X14100Y2485500D01*
X14850D01*
X15600Y2484750D01*
Y2482500D01*
X10350Y2485500D02*X11100Y2484750D01*
X17400Y2488500D02*Y2482500D01*
Y2483250D02*X18150Y2482500D01*
X19650D01*
X20400Y2483250D01*
Y2484750D02*Y2483250D01*
X19650Y2485500D02*X20400Y2484750D01*
X18150Y2485500D02*X19650D01*
X17400Y2484750D02*X18150Y2485500D01*
X22200Y2484750D02*Y2483250D01*
Y2484750D02*X22950Y2485500D01*
X24450D01*
X25200Y2484750D01*
Y2483250D01*
X24450Y2482500D02*X25200Y2483250D01*
X22950Y2482500D02*X24450D01*
X22200Y2483250D02*X22950Y2482500D01*
X27000Y2488500D02*Y2483250D01*
X27750Y2482500D01*
X0Y2479250D02*X29250D01*
X41750Y2488500D02*Y2482500D01*
X43700Y2488500D02*X44750Y2487450D01*
Y2483550D01*
X43700Y2482500D02*X44750Y2483550D01*
X41000Y2482500D02*X43700D01*
X41000Y2488500D02*X43700D01*
G54D370*X46550Y2487000D02*Y2486850D01*
G54D369*Y2484750D02*Y2482500D01*
X50300Y2485500D02*X51050Y2484750D01*
X48800Y2485500D02*X50300D01*
X48050Y2484750D02*X48800Y2485500D01*
X48050Y2484750D02*Y2483250D01*
X48800Y2482500D01*
X51050Y2485500D02*Y2483250D01*
X51800Y2482500D01*
X48800D02*X50300D01*
X51050Y2483250D01*
X54350Y2484750D02*Y2482500D01*
Y2484750D02*X55100Y2485500D01*
X55850D01*
X56600Y2484750D01*
Y2482500D01*
Y2484750D02*X57350Y2485500D01*
X58100D01*
X58850Y2484750D01*
Y2482500D01*
X53600Y2485500D02*X54350Y2484750D01*
X60650Y2482500D02*X61400D01*
X65900Y2483250D02*X66650Y2482500D01*
X65900Y2487750D02*X66650Y2488500D01*
X65900Y2487750D02*Y2483250D01*
X68450Y2488500D02*X69950D01*
X69200D02*Y2482500D01*
X68450D02*X69950D01*
X72500Y2484750D02*Y2482500D01*
Y2484750D02*X73250Y2485500D01*
X74000D01*
X74750Y2484750D01*
Y2482500D01*
X71750Y2485500D02*X72500Y2484750D01*
X77300Y2485500D02*X79550D01*
X76550Y2484750D02*X77300Y2485500D01*
X76550Y2484750D02*Y2483250D01*
X77300Y2482500D01*
X79550D01*
X81350Y2488500D02*Y2482500D01*
Y2484750D02*X82100Y2485500D01*
X83600D01*
X84350Y2484750D01*
Y2482500D01*
X86150Y2488500D02*X86900Y2487750D01*
Y2483250D01*
X86150Y2482500D02*X86900Y2483250D01*
X41000Y2479250D02*X88700D01*
X96050Y2482500D02*X98000D01*
X95000Y2483550D02*X96050Y2482500D01*
X95000Y2487450D02*Y2483550D01*
Y2487450D02*X96050Y2488500D01*
X98000D01*
X99800Y2484750D02*Y2483250D01*
Y2484750D02*X100550Y2485500D01*
X102050D01*
X102800Y2484750D01*
Y2483250D01*
X102050Y2482500D02*X102800Y2483250D01*
X100550Y2482500D02*X102050D01*
X99800Y2483250D02*X100550Y2482500D01*
X104600Y2485500D02*Y2483250D01*
X105350Y2482500D01*
X106850D01*
X107600Y2483250D01*
Y2485500D02*Y2483250D01*
X110150Y2484750D02*Y2482500D01*
Y2484750D02*X110900Y2485500D01*
X111650D01*
X112400Y2484750D01*
Y2482500D01*
X109400Y2485500D02*X110150Y2484750D01*
X114950Y2488500D02*Y2483250D01*
X115700Y2482500D01*
X114200Y2486250D02*X115700D01*
X95000Y2479250D02*X117200D01*
X130750Y2488500D02*Y2482500D01*
X130000Y2488500D02*X133000D01*
X133750Y2487750D01*
Y2486250D01*
X133000Y2485500D02*X133750Y2486250D01*
X130750Y2485500D02*X133000D01*
X135550Y2488500D02*Y2483250D01*
X136300Y2482500D01*
X140050Y2485500D02*X140800Y2484750D01*
X138550Y2485500D02*X140050D01*
X137800Y2484750D02*X138550Y2485500D01*
X137800Y2484750D02*Y2483250D01*
X138550Y2482500D01*
X140800Y2485500D02*Y2483250D01*
X141550Y2482500D01*
X138550D02*X140050D01*
X140800Y2483250D01*
X144100Y2488500D02*Y2483250D01*
X144850Y2482500D01*
X143350Y2486250D02*X144850D01*
X147100Y2482500D02*X149350D01*
X146350Y2483250D02*X147100Y2482500D01*
X146350Y2484750D02*Y2483250D01*
Y2484750D02*X147100Y2485500D01*
X148600D01*
X149350Y2484750D01*
X146350Y2484000D02*X149350D01*
Y2484750D02*Y2484000D01*
X154150Y2488500D02*Y2482500D01*
X153400D02*X154150Y2483250D01*
X151900Y2482500D02*X153400D01*
X151150Y2483250D02*X151900Y2482500D01*
X151150Y2484750D02*Y2483250D01*
Y2484750D02*X151900Y2485500D01*
X153400D01*
X154150Y2484750D01*
X157450Y2485500D02*Y2484750D01*
Y2483250D02*Y2482500D01*
X155950Y2487750D02*Y2487000D01*
Y2487750D02*X156700Y2488500D01*
X158200D01*
X158950Y2487750D01*
Y2487000D01*
X157450Y2485500D02*X158950Y2487000D01*
X130000Y2479250D02*X160750D01*
X0Y2503500D02*X3000D01*
X1500D02*Y2497500D01*
X4800Y2503500D02*Y2497500D01*
Y2499750D02*X5550Y2500500D01*
X7050D01*
X7800Y2499750D01*
Y2497500D01*
X10350D02*X12600D01*
X9600Y2498250D02*X10350Y2497500D01*
X9600Y2499750D02*Y2498250D01*
Y2499750D02*X10350Y2500500D01*
X11850D01*
X12600Y2499750D01*
X9600Y2499000D02*X12600D01*
Y2499750D02*Y2499000D01*
X15150Y2499750D02*Y2497500D01*
Y2499750D02*X15900Y2500500D01*
X17400D01*
X14400D02*X15150Y2499750D01*
X19950Y2497500D02*X22200D01*
X19200Y2498250D02*X19950Y2497500D01*
X19200Y2499750D02*Y2498250D01*
Y2499750D02*X19950Y2500500D01*
X21450D01*
X22200Y2499750D01*
X19200Y2499000D02*X22200D01*
Y2499750D02*Y2499000D01*
X28950Y2500500D02*X29700Y2499750D01*
X27450Y2500500D02*X28950D01*
X26700Y2499750D02*X27450Y2500500D01*
X26700Y2499750D02*Y2498250D01*
X27450Y2497500D01*
X29700Y2500500D02*Y2498250D01*
X30450Y2497500D01*
X27450D02*X28950D01*
X29700Y2498250D01*
X33000Y2499750D02*Y2497500D01*
Y2499750D02*X33750Y2500500D01*
X35250D01*
X32250D02*X33000Y2499750D01*
X37800Y2497500D02*X40050D01*
X37050Y2498250D02*X37800Y2497500D01*
X37050Y2499750D02*Y2498250D01*
Y2499750D02*X37800Y2500500D01*
X39300D01*
X40050Y2499750D01*
X37050Y2499000D02*X40050D01*
Y2499750D02*Y2499000D01*
X44550Y2503500D02*X47550D01*
X44550D02*Y2500500D01*
X45300Y2501250D01*
X46800D01*
X47550Y2500500D01*
Y2498250D01*
X46800Y2497500D02*X47550Y2498250D01*
X45300Y2497500D02*X46800D01*
X44550Y2498250D02*X45300Y2497500D01*
X55050Y2503500D02*Y2497500D01*
X54300D02*X55050Y2498250D01*
X52800Y2497500D02*X54300D01*
X52050Y2498250D02*X52800Y2497500D01*
X52050Y2499750D02*Y2498250D01*
Y2499750D02*X52800Y2500500D01*
X54300D01*
X55050Y2499750D01*
G54D370*X56850Y2502000D02*Y2501850D01*
G54D369*Y2499750D02*Y2497500D01*
X59100Y2502750D02*Y2497500D01*
Y2502750D02*X59850Y2503500D01*
X60600D01*
X58350Y2500500D02*X59850D01*
X62850Y2502750D02*Y2497500D01*
Y2502750D02*X63600Y2503500D01*
X64350D01*
X62100Y2500500D02*X63600D01*
X66600Y2497500D02*X68850D01*
X65850Y2498250D02*X66600Y2497500D01*
X65850Y2499750D02*Y2498250D01*
Y2499750D02*X66600Y2500500D01*
X68100D01*
X68850Y2499750D01*
X65850Y2499000D02*X68850D01*
Y2499750D02*Y2499000D01*
X71400Y2499750D02*Y2497500D01*
Y2499750D02*X72150Y2500500D01*
X73650D01*
X70650D02*X71400Y2499750D01*
X76200Y2497500D02*X78450D01*
X75450Y2498250D02*X76200Y2497500D01*
X75450Y2499750D02*Y2498250D01*
Y2499750D02*X76200Y2500500D01*
X77700D01*
X78450Y2499750D01*
X75450Y2499000D02*X78450D01*
Y2499750D02*Y2499000D01*
X81000Y2499750D02*Y2497500D01*
Y2499750D02*X81750Y2500500D01*
X82500D01*
X83250Y2499750D01*
Y2497500D01*
X80250Y2500500D02*X81000Y2499750D01*
X85800Y2503500D02*Y2498250D01*
X86550Y2497500D01*
X85050Y2501250D02*X86550D01*
X93750Y2503500D02*Y2497500D01*
X93000D02*X93750Y2498250D01*
X91500Y2497500D02*X93000D01*
X90750Y2498250D02*X91500Y2497500D01*
X90750Y2499750D02*Y2498250D01*
Y2499750D02*X91500Y2500500D01*
X93000D01*
X93750Y2499750D01*
X96300D02*Y2497500D01*
Y2499750D02*X97050Y2500500D01*
X98550D01*
X95550D02*X96300Y2499750D01*
G54D370*X100350Y2502000D02*Y2501850D01*
G54D369*Y2499750D02*Y2497500D01*
X101850Y2503500D02*Y2498250D01*
X102600Y2497500D01*
X104100Y2503500D02*Y2498250D01*
X104850Y2497500D01*
X109800D02*X112050D01*
X112800Y2498250D01*
X112050Y2499000D02*X112800Y2498250D01*
X109800Y2499000D02*X112050D01*
X109050Y2499750D02*X109800Y2499000D01*
X109050Y2499750D02*X109800Y2500500D01*
X112050D01*
X112800Y2499750D01*
X109050Y2498250D02*X109800Y2497500D01*
G54D370*X114600Y2502000D02*Y2501850D01*
G54D369*Y2499750D02*Y2497500D01*
X116100Y2500500D02*X119100D01*
X116100Y2497500D02*X119100Y2500500D01*
X116100Y2497500D02*X119100D01*
X121650D02*X123900D01*
X120900Y2498250D02*X121650Y2497500D01*
X120900Y2499750D02*Y2498250D01*
Y2499750D02*X121650Y2500500D01*
X123150D01*
X123900Y2499750D01*
X120900Y2499000D02*X123900D01*
Y2499750D02*Y2499000D01*
X126450Y2497500D02*X128700D01*
X129450Y2498250D01*
X128700Y2499000D02*X129450Y2498250D01*
X126450Y2499000D02*X128700D01*
X125700Y2499750D02*X126450Y2499000D01*
X125700Y2499750D02*X126450Y2500500D01*
X128700D01*
X129450Y2499750D01*
X125700Y2498250D02*X126450Y2497500D01*
X133950Y2500500D02*Y2498250D01*
X134700Y2497500D01*
X136200D01*
X136950Y2498250D01*
Y2500500D02*Y2498250D01*
X139500Y2497500D02*X141750D01*
X142500Y2498250D01*
X141750Y2499000D02*X142500Y2498250D01*
X139500Y2499000D02*X141750D01*
X138750Y2499750D02*X139500Y2499000D01*
X138750Y2499750D02*X139500Y2500500D01*
X141750D01*
X142500Y2499750D01*
X138750Y2498250D02*X139500Y2497500D01*
X145050D02*X147300D01*
X144300Y2498250D02*X145050Y2497500D01*
X144300Y2499750D02*Y2498250D01*
Y2499750D02*X145050Y2500500D01*
X146550D01*
X147300Y2499750D01*
X144300Y2499000D02*X147300D01*
Y2499750D02*Y2499000D01*
X152100Y2503500D02*Y2497500D01*
X151350D02*X152100Y2498250D01*
X149850Y2497500D02*X151350D01*
X149100Y2498250D02*X149850Y2497500D01*
X149100Y2499750D02*Y2498250D01*
Y2499750D02*X149850Y2500500D01*
X151350D01*
X152100Y2499750D01*
G54D370*X156600Y2502000D02*Y2501850D01*
G54D369*Y2499750D02*Y2497500D01*
X158850Y2499750D02*Y2497500D01*
Y2499750D02*X159600Y2500500D01*
X160350D01*
X161100Y2499750D01*
Y2497500D01*
X158100Y2500500D02*X158850Y2499750D01*
X166350Y2503500D02*Y2498250D01*
X167100Y2497500D01*
X165600Y2501250D02*X167100D01*
X168600Y2503500D02*Y2497500D01*
Y2499750D02*X169350Y2500500D01*
X170850D01*
X171600Y2499750D01*
Y2497500D01*
G54D370*X173400Y2502000D02*Y2501850D01*
G54D369*Y2499750D02*Y2497500D01*
X175650D02*X177900D01*
X178650Y2498250D01*
X177900Y2499000D02*X178650Y2498250D01*
X175650Y2499000D02*X177900D01*
X174900Y2499750D02*X175650Y2499000D01*
X174900Y2499750D02*X175650Y2500500D01*
X177900D01*
X178650Y2499750D01*
X174900Y2498250D02*X175650Y2497500D01*
X183150Y2503500D02*Y2498250D01*
X183900Y2497500D01*
X187650Y2500500D02*X188400Y2499750D01*
X186150Y2500500D02*X187650D01*
X185400Y2499750D02*X186150Y2500500D01*
X185400Y2499750D02*Y2498250D01*
X186150Y2497500D01*
X188400Y2500500D02*Y2498250D01*
X189150Y2497500D01*
X186150D02*X187650D01*
X188400Y2498250D01*
X190950Y2500500D02*Y2498250D01*
X191700Y2497500D01*
X193950Y2500500D02*Y2496000D01*
X193200Y2495250D02*X193950Y2496000D01*
X191700Y2495250D02*X193200D01*
X190950Y2496000D02*X191700Y2495250D01*
Y2497500D02*X193200D01*
X193950Y2498250D01*
X195750Y2499750D02*Y2498250D01*
Y2499750D02*X196500Y2500500D01*
X198000D01*
X198750Y2499750D01*
Y2498250D01*
X198000Y2497500D02*X198750Y2498250D01*
X196500Y2497500D02*X198000D01*
X195750Y2498250D02*X196500Y2497500D01*
X200550Y2500500D02*Y2498250D01*
X201300Y2497500D01*
X202800D01*
X203550Y2498250D01*
Y2500500D02*Y2498250D01*
X206100Y2503500D02*Y2498250D01*
X206850Y2497500D01*
X205350Y2501250D02*X206850D01*
X208350Y2496000D02*X209850Y2497500D01*
X214350Y2502300D02*X215550Y2503500D01*
Y2497500D01*
X214350D02*X216600D01*
X218400Y2503500D02*X221400D01*
X218400D02*Y2500500D01*
X219150Y2501250D01*
X220650D01*
X221400Y2500500D01*
Y2498250D01*
X220650Y2497500D02*X221400Y2498250D01*
X219150Y2497500D02*X220650D01*
X218400Y2498250D02*X219150Y2497500D01*
X225450Y2503500D02*X226200Y2502750D01*
X223950Y2503500D02*X225450D01*
X223200Y2502750D02*X223950Y2503500D01*
X223200Y2502750D02*Y2498250D01*
X223950Y2497500D01*
X225450Y2500800D02*X226200Y2500050D01*
X223200Y2500800D02*X225450D01*
X223950Y2497500D02*X225450D01*
X226200Y2498250D01*
Y2500050D02*Y2498250D01*
X230700Y2503500D02*Y2497500D01*
Y2499750D02*X231450Y2500500D01*
X232950D01*
X233700Y2499750D01*
Y2497500D01*
X235500Y2499750D02*Y2498250D01*
Y2499750D02*X236250Y2500500D01*
X237750D01*
X238500Y2499750D01*
Y2498250D01*
X237750Y2497500D02*X238500Y2498250D01*
X236250Y2497500D02*X237750D01*
X235500Y2498250D02*X236250Y2497500D01*
X240300Y2503500D02*Y2498250D01*
X241050Y2497500D01*
X243300D02*X245550D01*
X242550Y2498250D02*X243300Y2497500D01*
X242550Y2499750D02*Y2498250D01*
Y2499750D02*X243300Y2500500D01*
X244800D01*
X245550Y2499750D01*
X242550Y2499000D02*X245550D01*
Y2499750D02*Y2499000D01*
X248100Y2497500D02*X250350D01*
X251100Y2498250D01*
X250350Y2499000D02*X251100Y2498250D01*
X248100Y2499000D02*X250350D01*
X247350Y2499750D02*X248100Y2499000D01*
X247350Y2499750D02*X248100Y2500500D01*
X250350D01*
X251100Y2499750D01*
X247350Y2498250D02*X248100Y2497500D01*
X256350Y2503500D02*Y2498250D01*
X257100Y2497500D01*
X255600Y2501250D02*X257100D01*
X258600Y2499750D02*Y2498250D01*
Y2499750D02*X259350Y2500500D01*
X260850D01*
X261600Y2499750D01*
Y2498250D01*
X260850Y2497500D02*X261600Y2498250D01*
X259350Y2497500D02*X260850D01*
X258600Y2498250D02*X259350Y2497500D01*
X264150Y2503500D02*Y2498250D01*
X264900Y2497500D01*
X263400Y2501250D02*X264900D01*
X268650Y2500500D02*X269400Y2499750D01*
X267150Y2500500D02*X268650D01*
X266400Y2499750D02*X267150Y2500500D01*
X266400Y2499750D02*Y2498250D01*
X267150Y2497500D01*
X269400Y2500500D02*Y2498250D01*
X270150Y2497500D01*
X267150D02*X268650D01*
X269400Y2498250D01*
X271950Y2503500D02*Y2498250D01*
X272700Y2497500D01*
G54D371*X15400Y2215900D02*Y1926300D01*
X418000D02*Y2215900D01*
X15400D01*
Y1926300D02*X418000D01*
X70493Y2199852D02*X362892D01*
X64195Y1998648D02*Y2193548D01*
X369196Y2193451D02*Y1998648D01*
X70493Y2199852D02*X68041Y2199353D01*
X66039Y2198002D01*
X64688Y2196001D01*
X64195Y2193548D01*
Y1998648D02*X64688Y1996195D01*
X66039Y1994194D01*
X68041Y1992842D01*
X70493Y1992349D01*
X362892D02*X365345Y1992842D01*
X367346Y1994194D01*
X368698Y1996195D01*
X369196Y1998648D01*
Y2193548D02*X368698Y2196001D01*
X367346Y2198002D01*
X365345Y2199353D01*
X362892Y2199852D01*
Y1992349D02*X70493D01*
X157385Y2199948D02*X185385Y2171948D01*
X182385D01*
X157385Y2196948D01*
Y2193948D01*
X179385Y2171948D01*
X176385D01*
X157385Y2190948D01*
Y2187948D01*
X173385Y2171948D01*
X170385D01*
X157385Y2184948D01*
Y2181948D01*
X167385Y2171948D01*
X164385D01*
X157385Y2178948D01*
Y2175948D01*
X161385Y2171948D01*
X158385D02*X157385Y2172948D01*
Y2171948D01*
X161385D02*X157385D01*
X158385D02*X157385D01*
Y2199948D01*
X226385D01*
Y2171948D02*X157385D01*
X188385D02*X160481Y2199852D01*
X163481D01*
X191385Y2171948D01*
X194385D02*X166481Y2199852D01*
X169481D01*
X197385Y2171948D01*
X200385D02*X172481Y2199852D01*
X175481D01*
X203385Y2171948D01*
X206385D02*X178481Y2199852D01*
X181481D01*
X209385Y2171948D01*
X211385D01*
X199385D02*X194385D01*
X157385D02*X191385D01*
X212385D02*X184481Y2199852D01*
X187481D01*
X215385Y2171948D01*
X218385D01*
X190481Y2199852D01*
X193481D02*X221385Y2171948D01*
X223385D01*
X206385D02*X203385D01*
X212385D02*X188385D01*
X190481Y2199852D02*X196481D01*
X224385Y2171948D01*
X226385Y2172948D02*X199481Y2199852D01*
X202481D01*
X226385Y2175948D01*
Y2199948D02*Y2171948D01*
X205481Y2199852D02*X226385Y2178948D01*
X208481Y2199852D02*X226385Y2181948D01*
X211481Y2199852D02*X226385Y2184948D01*
X214481Y2199852D02*X226385Y2187948D01*
X217481Y2199852D02*X226385Y2190948D01*
X220481Y2199852D02*X226385Y2193948D01*
X223481Y2199852D02*X226385Y2196948D01*
X232385Y2199948D02*X260385Y2171948D01*
X257385D01*
X232385Y2196948D01*
Y2193948D01*
X254385Y2171948D01*
X251385D01*
X232385Y2190948D01*
Y2187948D01*
X248385Y2171948D01*
X245385D01*
X232385Y2184948D01*
Y2181948D01*
X242385Y2171948D01*
X239385D01*
X232385Y2178948D01*
Y2175948D01*
X236385Y2171948D01*
X233385D02*X232385Y2172948D01*
Y2171948D01*
X236385D02*X232385D01*
X233385D02*X232385D01*
Y2199948D01*
X301385D01*
Y2171948D02*X232385D01*
X263385D02*X235481Y2199852D01*
X238481D01*
X266385Y2171948D01*
X269385D02*X241481Y2199852D01*
X244481D01*
X272385Y2171948D01*
X275385D02*X247481Y2199852D01*
X250481D01*
X278385Y2171948D01*
X281385D02*X253481Y2199852D01*
X256481D01*
X284385Y2171948D01*
X286385D01*
X274385D02*X269385D01*
X232385D02*X266385D01*
X287385D02*X259481Y2199852D01*
X262481D01*
X290385Y2171948D01*
X293385D01*
X265481Y2199852D01*
X268481D02*X296385Y2171948D01*
X298385D01*
X281385D02*X278385D01*
X287385D02*X263385D01*
X265481Y2199852D02*X271481D01*
X299385Y2171948D01*
X301385Y2172948D02*X274481Y2199852D01*
X277481D01*
X301385Y2175948D01*
Y2199948D02*Y2171948D01*
X280481Y2199852D02*X301385Y2178948D01*
X283481Y2199852D02*X301385Y2181948D01*
X286481Y2199852D02*X301385Y2184948D01*
X289481Y2199852D02*X301385Y2187948D01*
X292481Y2199852D02*X301385Y2190948D01*
X295481Y2199852D02*X301385Y2193948D01*
X298481Y2199852D02*X301385Y2196948D01*
X209148Y2162921D02*X211775Y2165548D01*
X211779D01*
X214406Y2162921D01*
X209132D02*X214406D01*
X291907Y2163220D02*X289275Y2165852D01*
X289266D01*
X286634Y2163220D01*
X291907D01*
X163196Y2123848D02*Y2090852D01*
X181192D01*
Y2123848D01*
X163196D01*
X163485D02*X181192Y2106141D01*
X163196Y2120137D02*X181192Y2102141D01*
X163196Y2116137D02*X181192Y2098141D01*
X163196Y2112137D02*X181192Y2094141D01*
X167485Y2123848D02*X181192Y2110141D01*
X171485Y2123848D02*X181192Y2114141D01*
X175485Y2123848D02*X181192Y2118141D01*
X179485Y2123848D02*X181192Y2122141D01*
X163196Y2108137D02*X180481Y2090852D01*
X163196Y2104137D02*X176481Y2090852D01*
X163196Y2100137D02*X172481Y2090852D01*
X163196Y2096137D02*X168481Y2090852D01*
X163196Y2092137D02*X164481Y2090852D01*
X221200Y2038855D02*X254196D01*
Y2056851D02*Y2038855D01*
X221200Y2056851D02*X254196D01*
X221200D02*Y2038855D01*
Y2039144D02*X238907Y2056851D01*
X224911Y2038855D02*X242907Y2056851D01*
X228911Y2038855D02*X246907Y2056851D01*
X232911Y2038855D02*X250907Y2056851D01*
X221200Y2043144D02*X234907Y2056851D01*
X221200Y2047144D02*X230907Y2056851D01*
X221200Y2051144D02*X226907Y2056851D01*
X221200Y2055144D02*X222907Y2056851D01*
X236911Y2038855D02*X254196Y2056140D01*
X240911Y2038855D02*X254196Y2052140D01*
X244911Y2038855D02*X254196Y2048140D01*
X248911Y2038855D02*X254196Y2044140D01*
X252911Y2038855D02*X254196Y2040140D01*
X256199Y2038855D02*X289195D01*
Y2056851D02*Y2038855D01*
X256199Y2056851D02*X289195D01*
X256199D02*Y2038855D01*
Y2039144D02*X273906Y2056851D01*
X259910Y2038855D02*X277906Y2056851D01*
X263910Y2038855D02*X281906Y2056851D01*
X267910Y2038855D02*X285906Y2056851D01*
X256199Y2043144D02*X269906Y2056851D01*
X256199Y2047144D02*X265906Y2056851D01*
X256199Y2051144D02*X261906Y2056851D01*
X256199Y2055144D02*X257906Y2056851D01*
X271910Y2038855D02*X289195Y2056140D01*
X275910Y2038855D02*X289195Y2052140D01*
X279910Y2038855D02*X289195Y2048140D01*
X283910Y2038855D02*X289195Y2044140D01*
X287910Y2038855D02*X289195Y2040140D01*
X76695Y2019838D02*X76685Y2019848D01*
X91684Y2004849D02*X91685Y2004848D01*
X61686Y2004849D02*X61685Y2004848D01*
X76695Y1989858D02*X76685Y1989848D01*
X226446Y2022152D02*Y2017552D01*
X237946D01*
Y2022152D01*
X226446D01*
X278946D02*Y2017552D01*
X290446D01*
Y2022152D01*
X278946D01*
X302546Y2017552D02*X297846D01*
Y2029152D01*
X302546D01*
Y2017552D01*
X163196Y2122252D02*X159146D01*
Y2092452D01*
X163196D01*
X181192D02*X185346D01*
Y2122252D01*
X181192D01*
X163196D02*X163146D01*
X159146Y2118252D01*
X163196Y2117102D02*X159146Y2113052D01*
X163196Y2112002D02*X159246Y2108052D01*
X163196Y2106852D02*Y2106802D01*
X159146Y2102752D01*
X163196Y2101752D02*Y2101702D01*
X159146Y2097652D01*
X163196Y2096652D02*Y2096502D01*
X159146Y2092452D01*
X181192Y2122252D02*X181246D01*
X181192Y2092452D02*Y2092498D01*
X185346Y2096652D01*
X181192Y2097598D02*X185346Y2101752D01*
X181192Y2102706D02*X181200D01*
X185346Y2106852D01*
X181192Y2107752D02*Y2107798D01*
X185346Y2111952D01*
X181192Y2112952D02*Y2112998D01*
X185346Y2117152D01*
X181192Y2118052D02*Y2118098D01*
X185346Y2122252D01*
X222846Y2038852D02*Y2034802D01*
X252646D01*
Y2038852D02*Y2034802D01*
Y2061002D02*Y2056848D01*
X222846Y2061002D02*X252646D01*
X222846D02*Y2056848D01*
Y2038852D02*Y2038802D01*
X226846Y2034802D01*
X227996Y2038852D02*X232046Y2034802D01*
X233096Y2038852D02*X237046Y2034902D01*
X238246Y2038852D02*X238296D01*
X242346Y2034802D01*
X243346Y2038852D02*X243396D01*
X247446Y2034802D01*
X248446Y2038852D02*X248596D01*
X252646Y2034802D01*
X222846Y2056902D02*Y2056848D01*
X252600D02*X252646D01*
X252600D02*X248446Y2061002D01*
X247500Y2056848D02*X243346Y2061002D01*
X242392Y2056856D02*Y2056848D01*
Y2056856D02*X238246Y2061002D01*
X237300Y2056848D02*X237346D01*
X237300D02*X233146Y2061002D01*
X232100Y2056848D02*X232146D01*
X232100D02*X227946Y2061002D01*
X227000Y2056848D02*X227046D01*
X227000D02*X222846Y2061002D01*
X257846Y2038852D02*Y2034802D01*
X287646D01*
Y2038852D02*Y2034802D01*
Y2061002D02*Y2056848D01*
X257846Y2061002D02*X287646D01*
X257846D02*Y2056848D01*
Y2038852D02*Y2038802D01*
X261846Y2034802D01*
X262996Y2038852D02*X267046Y2034802D01*
X268096Y2038852D02*X272046Y2034902D01*
X273246Y2038852D02*X273296D01*
X277346Y2034802D01*
X278346Y2038852D02*X278396D01*
X282446Y2034802D01*
X283446Y2038852D02*X283596D01*
X287646Y2034802D01*
X257846Y2056902D02*Y2056848D01*
X287600D02*X287646D01*
X287600D02*X283446Y2061002D01*
X282500Y2056848D02*X278346Y2061002D01*
X277392Y2056856D02*Y2056848D01*
Y2056856D02*X273246Y2061002D01*
X272300Y2056848D02*X272346D01*
X272300D02*X268146Y2061002D01*
X267100Y2056848D02*X267146D01*
X267100D02*X262946Y2061002D01*
X262000Y2056848D02*X262046D01*
X262000D02*X257846Y2061002D01*
X347358Y1954728D02*Y1962828D01*
X349154D01*
Y1954728D01*
X264074Y1951582D02*Y1962384D01*
X268078D01*
Y1951582D01*
X271951D02*Y1962384D01*
X275950D01*
Y1951582D01*
X346686Y1944198D02*Y1952098D01*
X352583D01*
Y1944198D01*
X338814D02*Y1952098D01*
X344711D01*
Y1944198D01*
X344799Y1954728D02*Y1962828D01*
X346599D01*
Y1954728D01*
X342238D02*Y1962828D01*
X344039D01*
Y1954728D01*
X311318Y1951582D02*Y1962384D01*
X315322D01*
Y1951582D01*
X339682Y1954728D02*Y1962828D01*
X341478D01*
Y1954728D01*
X229293Y1967202D02*Y1971499D01*
X230692D01*
Y1967202D01*
X233231D02*Y1971499D01*
X234631D01*
Y1967202D01*
X201732D02*Y1971499D01*
X203136D01*
Y1967202D01*
X205671D02*Y1971499D01*
X207071D01*
Y1967202D01*
X225354D02*Y1971499D01*
X226758D01*
Y1967202D01*
X209610D02*Y1971499D01*
X211008D01*
Y1967202D01*
X237397Y1955575D02*Y1967771D01*
X247001D01*
Y1955575D01*
X187397D02*Y1967771D01*
X197001D01*
Y1955575D01*
X203701Y1967202D02*Y1971499D01*
X205101D01*
Y1967202D01*
X207640D02*Y1971499D01*
X209039D01*
Y1967202D01*
X211579D02*Y1971499D01*
X212978D01*
Y1967202D01*
X221421D02*Y1971499D01*
X222820D01*
Y1967202D01*
X223390D02*Y1971499D01*
X224789D01*
Y1967202D01*
X227324D02*Y1971499D01*
X228722D01*
Y1967202D01*
X231261D02*Y1971499D01*
X232661D01*
Y1967202D01*
X199768D02*Y1971499D01*
X201168D01*
Y1967202D01*
X197799D02*Y1971499D01*
X199199D01*
Y1967202D01*
X311318Y1968314D02*Y1979116D01*
X315322D01*
Y1968314D01*
X303446D02*Y1979116D01*
X307445D01*
Y1968314D01*
X295574D02*Y1979116D01*
X299572D01*
Y1968314D01*
X287696D02*Y1979116D01*
X291700D01*
Y1968314D01*
X279824D02*Y1979116D01*
X283822D01*
Y1968314D01*
X271951D02*Y1979116D01*
X275950D01*
Y1968314D01*
X264074D02*Y1979116D01*
X268078D01*
Y1968314D01*
X349914Y1954728D02*Y1962828D01*
X351715D01*
Y1954728D01*
X235200Y1967202D02*Y1971499D01*
X236600D01*
Y1967202D01*
X295574Y1951582D02*Y1962384D01*
X299572D01*
Y1951582D01*
X217482Y1967202D02*Y1971499D01*
X218881D01*
Y1967202D01*
X219451D02*Y1971499D01*
X220850D01*
Y1967202D01*
X213543D02*Y1971499D01*
X214947D01*
Y1967202D01*
X215513D02*Y1971499D01*
X216911D01*
Y1967202D01*
X303446Y1951582D02*Y1962384D01*
X307445D01*
Y1951582D01*
X279824D02*Y1962384D01*
X283822D01*
Y1951582D01*
X287696D02*Y1962384D01*
X291700D01*
Y1951582D01*
X64199Y2193850D02*Y1948349D01*
X369196D02*Y2193352D01*
X70497Y1942348D02*X69711Y1942396D01*
X68935Y1942549D01*
X68186Y1942788D01*
X67476Y1943124D01*
X66808Y1943542D01*
X66201Y1944046D01*
X65658Y1944616D01*
X65192Y1945250D01*
X64813Y1945939D01*
X64514Y1946673D01*
X64318Y1947436D01*
X64215Y1948218D01*
X64199Y1948652D01*
Y2193552D02*X64247Y2194339D01*
X64394Y2195110D01*
X64639Y2195859D01*
X64970Y2196574D01*
X65393Y2197242D01*
X65892Y2197849D01*
X66467Y2198392D01*
X67101Y2198859D01*
X67790Y2199238D01*
X68524Y2199531D01*
X69282Y2199732D01*
X70064Y2199835D01*
X70497Y2199852D01*
X362897D02*X363683Y2199802D01*
X364460Y2199656D01*
X365208Y2199412D01*
X365924Y2199075D01*
X366586Y2198657D01*
X367199Y2198153D01*
X367736Y2197584D01*
X368203Y2196949D01*
X368588Y2196260D01*
X368881Y2195527D01*
X369082Y2194763D01*
X369185Y2193981D01*
X369196Y2193552D01*
Y1948652D02*X369147Y1947866D01*
X369000Y1947089D01*
X368761Y1946341D01*
X368425Y1945625D01*
X368003Y1944957D01*
X367503Y1944350D01*
X366933Y1943807D01*
X366293Y1943346D01*
X365604Y1942961D01*
X364878Y1942668D01*
X364113Y1942467D01*
X363331Y1942364D01*
X362897Y1942348D01*
X70497D02*X362897D01*
X363000Y2199852D02*X70699D01*
X70200Y1948349D02*X363201D01*
Y2193850D01*
X70200D01*
Y1948349D01*
X256696Y1979349D02*Y1951349D01*
X322700D01*
Y1979349D01*
X256696D01*
X285700D02*Y1977852D01*
X293197D02*Y1979349D01*
X321197Y1977852D02*X258199D01*
Y1952852D01*
X321197D01*
Y1977852D01*
X325050Y1977949D02*Y1981052D01*
X324589Y1980428D01*
Y1977949D02*X325506D01*
X324317Y1952932D02*X324550Y1953242D01*
X324817Y1953399D01*
X325126Y1953448D01*
X325511Y1953345D01*
X325776Y1953091D01*
X325853Y1952781D01*
X325815Y1952466D01*
X325663Y1952211D01*
X324893Y1951696D01*
X324550Y1951332D01*
X324317Y1950817D01*
X324242Y1950350D01*
X325853D01*
X251949Y1974650D02*Y1977749D01*
X251488Y1977130D01*
Y1974650D02*X252410D01*
X254206Y1975268D02*X254433Y1974912D01*
X254743Y1974699D01*
X255085Y1974650D01*
X255393Y1974699D01*
X255697Y1974960D01*
X255893Y1975268D01*
X255931Y1975578D01*
X255854Y1975942D01*
X255583Y1976202D01*
X255318Y1976305D01*
X254971D01*
X255318D02*X255546Y1976457D01*
X255740Y1976717D01*
X255817Y1977027D01*
X255740Y1977336D01*
X255546Y1977596D01*
X255204Y1977749D01*
X254857Y1977699D01*
X254510Y1977493D01*
X251747Y1953150D02*Y1956248D01*
X251286Y1955630D01*
Y1953150D02*X252210D01*
X255307D02*Y1956248D01*
X253890Y1954028D01*
X255806D01*
X324947Y1977949D02*Y1981052D01*
X324490Y1980428D01*
Y1977949D02*X325408D01*
X324220Y1952932D02*X324447Y1953242D01*
X324719Y1953399D01*
X325022Y1953448D01*
X325408Y1953345D01*
X325679Y1953091D01*
X325756Y1952781D01*
X325717Y1952466D01*
X325560Y1952211D01*
X324795Y1951696D01*
X324447Y1951332D01*
X324220Y1950817D01*
X324143Y1950350D01*
X325756D01*
X251851Y1974650D02*Y1977749D01*
X251390Y1977130D01*
Y1974650D02*X252307D01*
X254103Y1975268D02*X254336Y1974912D01*
X254640Y1974699D01*
X254988Y1974650D01*
X255290Y1974699D01*
X255600Y1974960D01*
X255790Y1975268D01*
X255828Y1975578D01*
X255751Y1975942D01*
X255486Y1976202D01*
X255215Y1976305D01*
X254872D01*
X255215D02*X255449Y1976457D01*
X255638Y1976717D01*
X255714Y1977027D01*
X255638Y1977336D01*
X255449Y1977596D01*
X255101Y1977749D01*
X254758Y1977699D01*
X254411Y1977493D01*
X251650Y1953150D02*Y1956248D01*
X251189Y1955630D01*
Y1953150D02*X252106D01*
X255210D02*Y1956248D01*
X253788Y1954028D01*
X255708D01*
X149296Y1950448D02*Y1975253D01*
X174100D01*
Y1950448D01*
X149296D01*
X149040Y1978367D02*X149469Y1978037D01*
X149947Y1977835D01*
X150375D01*
X150804Y1978037D01*
X151118Y1978367D01*
X151282Y1978834D01*
X151172Y1979300D01*
X150907Y1979702D01*
X150429Y1979967D01*
X149789Y1980103D01*
X149415Y1980368D01*
X149253Y1980835D01*
X149361Y1981302D01*
X149626Y1981632D01*
X150001Y1981834D01*
X150375D01*
X150750Y1981703D01*
X151070Y1981367D01*
X153147Y1981166D02*X153468Y1981568D01*
X153842Y1981768D01*
X154265Y1981834D01*
X154803Y1981703D01*
X155176Y1981367D01*
X155279Y1980971D01*
X155225Y1980570D01*
X155014Y1980234D01*
X153950Y1979566D01*
X153468Y1979099D01*
X153147Y1978438D01*
X153039Y1977835D01*
X155279D01*
X329558Y1942441D02*X361839D01*
X330936Y1939489D02*Y1959173D01*
X360461D01*
Y1939489D01*
X330936D01*
X331360Y1959936D02*Y1963035D01*
X330899Y1962416D01*
Y1959936D02*X331821D01*
X359690Y1960577D02*X359924Y1960317D01*
X360190Y1960164D01*
X360538Y1960110D01*
X360879Y1960214D01*
X361150Y1960420D01*
X361340Y1960784D01*
X361378Y1961196D01*
X361301Y1961607D01*
X361113Y1961868D01*
X360840Y1962074D01*
X360575Y1962128D01*
X360304Y1962074D01*
X359963Y1961868D01*
X360076Y1963214D01*
X361113D01*
X329857Y1968150D02*X329536Y1968352D01*
X329163Y1968482D01*
X328733D01*
X328256Y1968281D01*
X327882Y1967950D01*
X327615Y1967549D01*
X327399Y1966881D01*
X327350Y1966285D01*
X327453Y1965682D01*
X327615Y1965281D01*
X327936Y1964885D01*
X328310Y1964618D01*
X328679Y1964484D01*
X329054D01*
X329428Y1964618D01*
X329749Y1964814D01*
X330014Y1965085D01*
X331457Y1964484D02*Y1968482D01*
X333910Y1964484D01*
Y1968482D01*
X336682Y1964484D02*Y1968482D01*
X336042Y1967684D01*
Y1964484D02*X337322D01*
X184718Y1967777D02*X249681D01*
Y1950453D01*
X184718D01*
Y1967777D01*
X213732Y1978248D02*X213999Y1977852D01*
X214318Y1977585D01*
X214693Y1977450D01*
X215115Y1977585D01*
X215436Y1977852D01*
X215756Y1978248D01*
X215865Y1978785D01*
Y1981449D01*
X217622Y1978248D02*X217943Y1977781D01*
X218371Y1977516D01*
X218854Y1977450D01*
X219278Y1977516D01*
X219706Y1977852D01*
X219972Y1978248D01*
X220026Y1978649D01*
X219918Y1979116D01*
X219543Y1979452D01*
X219174Y1979582D01*
X218692D01*
X219174D02*X219494Y1979782D01*
X219760Y1980120D01*
X219863Y1980516D01*
X219760Y1980917D01*
X219494Y1981248D01*
X219011Y1981449D01*
X218533Y1981384D01*
X218051Y1981117D01*
X243849Y1969952D02*Y1973050D01*
X243388Y1972431D01*
Y1969952D02*X244310D01*
X190550Y1972063D02*X190778Y1972371D01*
X191049Y1972530D01*
X191353Y1972578D01*
X191738Y1972475D01*
X192004Y1972220D01*
X192085Y1971910D01*
X192047Y1971596D01*
X191890Y1971341D01*
X191125Y1970825D01*
X190778Y1970461D01*
X190550Y1969946D01*
X190474Y1969480D01*
X192085D01*
X194381Y1972578D02*X194071Y1972475D01*
X193843Y1972220D01*
X193686Y1971910D01*
X193572Y1971493D01*
X193533Y1971032D01*
X193572Y1970566D01*
X193686Y1970153D01*
X193843Y1969843D01*
X194071Y1969584D01*
X194381Y1969480D01*
X194685Y1969584D01*
X194918Y1969843D01*
X195069Y1970153D01*
X195183Y1970566D01*
X195221Y1971032D01*
X195183Y1971493D01*
X195069Y1971910D01*
X194918Y1972220D01*
X194685Y1972475D01*
X194381Y1972578D01*
X243849Y1969849D02*Y1972952D01*
X243388Y1972328D01*
Y1969849D02*X244310D01*
X190588Y1972003D02*X190821Y1972313D01*
X191088Y1972470D01*
X191396Y1972518D01*
X191776Y1972416D01*
X192047Y1972160D01*
X192124Y1971850D01*
X192085Y1971536D01*
X191933Y1971281D01*
X191163Y1970766D01*
X190821Y1970402D01*
X190588Y1969886D01*
X190513Y1969420D01*
X192124D01*
X194418Y1972518D02*X194108Y1972416D01*
X193881Y1972160D01*
X193729Y1971850D01*
X193615Y1971434D01*
X193578Y1970973D01*
X193615Y1970506D01*
X193729Y1970093D01*
X193881Y1969784D01*
X194108Y1969524D01*
X194418Y1969420D01*
X194728Y1969524D01*
X194956Y1969784D01*
X195107Y1970093D01*
X195221Y1970506D01*
X195260Y1970973D01*
X195221Y1971434D01*
X195107Y1971850D01*
X194956Y1972160D01*
X194728Y1972416D01*
X194418Y1972518D01*
X96301Y1965748D02*Y1953948D01*
X110097D01*
Y1965748D01*
X96301D01*
X110200Y1961348D02*X96197D01*
X97586Y1977255D02*Y1973250D01*
X99720D01*
X103717D02*X101585D01*
Y1977255D01*
X103717D01*
X102865Y1975318D02*X101585D01*
X105481Y1973250D02*Y1977255D01*
X106545D01*
X106972Y1977055D01*
X107293Y1976788D01*
X107558Y1976387D01*
X107769Y1975920D01*
X107824Y1975253D01*
X107769Y1974585D01*
X107558Y1974118D01*
X107293Y1973717D01*
X106972Y1973452D01*
X106545Y1973250D01*
X105481D01*
X110651D02*Y1977255D01*
X110011Y1976452D01*
Y1973250D02*X111292D01*
X122299Y1965748D02*Y1953948D01*
X136096D01*
Y1965748D01*
X122299D01*
X136199Y1961348D02*X122196D01*
X122972Y1976723D02*Y1972724D01*
X125104D01*
X129103D02*X126971D01*
Y1976723D01*
X129103D01*
X128251Y1974792D02*X126971D01*
X130865Y1972724D02*Y1976723D01*
X131929D01*
X132358Y1976523D01*
X132678Y1976256D01*
X132943Y1975855D01*
X133156Y1975388D01*
X133210Y1974727D01*
X133156Y1974059D01*
X132943Y1973592D01*
X132678Y1973191D01*
X132358Y1972925D01*
X131929Y1972724D01*
X130865D01*
X135021Y1976056D02*X135342Y1976457D01*
X135715Y1976657D01*
X136145Y1976723D01*
X136676Y1976593D01*
X137050Y1976256D01*
X137160Y1975855D01*
X137104Y1975459D01*
X136888Y1975123D01*
X135825Y1974455D01*
X135342Y1973989D01*
X135021Y1973321D01*
X134918Y1972724D01*
X137160D01*
X70525Y2199812D02*X363044D01*
X77808Y2187352D02*X77414Y2186564D01*
X76627Y2186171D01*
X75839Y2186564D01*
X75446Y2187352D01*
X75839Y2188139D01*
X76627Y2188533D01*
X77414Y2188139D01*
X77808Y2187352D01*
X357729D02*X357335Y2186564D01*
X356548Y2186171D02*X355761Y2186564D01*
X355367Y2187352D01*
X355761Y2188139D01*
X356548Y2188533D01*
X357335Y2188139D01*
X357729Y2187352D01*
X64028Y2193651D02*Y1998769D01*
X70327Y2199950D02*X362847D01*
X70327Y1992470D02*X362847D01*
X369146Y2193651D02*Y1998769D01*
X77882Y2004858D02*X77486Y2005796D01*
X76629Y2006111D01*
X75771Y2005796D01*
X75381Y2004858D01*
X75771Y2003924D01*
X76629Y2003610D01*
X77486Y2003924D01*
X77882Y2004858D01*
Y2187355D02*X77486Y2188299D01*
X76629Y2188609D01*
X75771Y2188299D01*
X75381Y2187355D01*
X75771Y2186422D01*
X76629Y2186108D01*
X77486Y2186422D01*
X77882Y2187355D01*
X357884Y2004858D02*X357488Y2005796D01*
X356630Y2006111D01*
X355773Y2005796D01*
X355383Y2004858D01*
X355773Y2003924D01*
X356630Y2003610D01*
X357488Y2003924D01*
X357884Y2004858D01*
X64134Y2193556D02*X64628Y2196015D01*
X65979Y2198016D01*
X67981Y2199362D01*
X70433Y2199855D01*
X362832D02*X365284Y2199362D01*
X367286Y2198016D01*
X368632Y2196015D01*
X369130Y2193556D01*
X77866Y2004856D02*X77469Y2003917D01*
X76612Y2003603D01*
X75755Y2003917D01*
X75365Y2004856D01*
X75755Y2005790D01*
X76612Y2006105D01*
X77469Y2005790D01*
X77866Y2004856D01*
X357862D02*X357466Y2003917D01*
X356609Y2003603D01*
X355752Y2003917D01*
X355361Y2004856D01*
X355752Y2005790D01*
X356609Y2006105D01*
X357466Y2005790D01*
X357862Y2004856D01*
X70411Y2199855D02*X67959Y2199355D01*
X65957Y2198005D01*
X64607Y2196002D01*
X64112Y2193555D01*
Y1998655D02*X64607Y1996203D01*
X65957Y1994201D01*
X67959Y1992851D01*
X70411Y1992356D01*
X369115Y2193555D02*X368615Y2196002D01*
X367265Y2198005D01*
X365262Y2199355D01*
X362816Y2199855D01*
Y1992356D02*X365262Y1992851D01*
X367265Y1994201D01*
X368615Y1996203D01*
X369115Y1998655D01*
X357335Y2186564D02*X356548Y2186171D01*
X70433Y1942358D02*X67981Y1942857D01*
X65979Y1944208D01*
X64628Y1946210D01*
X64134Y1948656D01*
X185635Y1942358D02*X362832D01*
X369130Y1948656D02*X368632Y1946210D01*
X367286Y1944208D01*
X365284Y1942857D01*
X362832Y1942358D01*
X369130Y1948358D02*Y2193356D01*
X64225Y2193906D02*Y1948237D01*
X70525Y1942331D02*X185485D01*
X110614Y2002355D02*X110141Y2001227D01*
X109111Y2000852D01*
X108079Y2001227D01*
X107614Y2002355D01*
X108079Y2003478D01*
X109111Y2003853D01*
X110141Y2003478D01*
X110614Y2002355D01*
X76629Y2006111D02*Y2003610D01*
X75381Y2004858D02*X77882D01*
X356630Y2006111D02*Y2003610D01*
X357884Y2004858D02*X355383D01*
X356548Y2188533D02*Y2186171D01*
X355367Y2187352D02*X357729D01*
X75381Y2187355D02*X77882D01*
X76629Y2188609D02*Y2186108D01*
X109111Y2003853D02*Y2000852D01*
X107614Y2002355D02*X110614D01*
X70549Y2199949D02*X362699D01*
X64039Y2193659D02*Y1948309D01*
X369139Y2193519D02*Y1948419D01*
X70029Y1942309D02*X362829D01*
X149296Y1975253D02*Y1975252D01*
X174100Y1950448D01*
X149296D02*X149340D01*
X174100Y1975208D01*
X96301Y1965748D02*X110097Y1953948D01*
X96301D02*X110097Y1965748D01*
X122299D02*X136096Y1953948D01*
X122299D02*X136096Y1965748D01*
X216700Y2199852D02*Y1942392D01*
X64189Y2071100D02*X369196D01*
X61685Y2004846D02*G75*G03X76683Y1989848I14998J0D01*G01*
X76695Y2019838D02*G75*G03X61685Y2004828I0J-15010D01*G01*
X76683Y1989848D02*G75*G03X91684Y2004849I0J15001D01*G01*
X91685Y2004848D02*G75*G03X76695Y2019838I-14990J0D01*G01*
X341682Y2004846D02*G75*G03X356680Y1989848I14998J0D01*G01*
X356692Y2019838D02*G75*G03X341682Y2004828I0J-15010D01*G01*
X356680Y1989848D02*G75*G03X371681Y2004849I0J15001D01*G01*
X371682Y2004848D02*G75*G03X356692Y2019838I-14990J0D01*G01*
X341682Y2187349D02*G75*G03X356680Y2172351I14998J0D01*G01*
X356692Y2202341D02*G75*G03X341682Y2187331I0J-15010D01*G01*
X356680Y2172351D02*G75*G03X371681Y2187352I0J15001D01*G01*
X371682Y2187351D02*G75*G03X356692Y2202341I-14990J0D01*G01*
X61685Y2187349D02*G75*G03X76683Y2172351I14998J0D01*G01*
X76695Y2202341D02*G75*G03X61685Y2187331I0J-15010D01*G01*
X76683Y2172351D02*G75*G03X91684Y2187352I0J15001D01*G01*
X91685Y2187351D02*G75*G03X76695Y2202341I-14990J0D01*G01*
X70549Y2199949D02*G75*G03X64039Y2193439I0J-6510D01*G01*
X362699Y2199949D02*G75*G02X369139Y2193509I0J-6440D01*G01*
X64039Y1948319D02*G75*G03X70049Y1942309I6010J0D01*G01*
X363109D02*G75*G03X369139Y1948339I0J6030D01*G01*
G54D372*X254885Y2182948D02*Y2178948D01*
X254385Y2182948D02*X256385D01*
X256885Y2182448D01*
Y2181448D01*
X256385Y2180948D02*X256885Y2181448D01*
X254885Y2180948D02*X256385D01*
X258085Y2182148D02*X258885Y2182948D01*
Y2178948D01*
X258085D02*X259585D01*
X254885Y2182948D02*Y2178948D01*
X254385Y2182948D02*X256385D01*
X256885Y2182448D01*
Y2181448D01*
X256385Y2180948D02*X256885Y2181448D01*
X254885Y2180948D02*X256385D01*
X258085Y2182148D02*X258885Y2182948D01*
Y2178948D01*
X258085D02*X259585D01*
X183249Y2182029D02*Y2178029D01*
X182749Y2182029D02*X184749D01*
X185249Y2181529D01*
Y2180529D01*
X184749Y2180029D02*X185249Y2180529D01*
X183249Y2180029D02*X184749D01*
X186449Y2181529D02*X186949Y2182029D01*
X188449D01*
X188949Y2181529D01*
Y2180529D01*
X186449Y2178029D02*X188949Y2180529D01*
X186449Y2178029D02*X188949D01*
X190149Y2180029D02*X192149D01*
X193349Y2182029D02*X194349D01*
X193849D02*Y2178029D01*
X193349D02*X194349D01*
X195549Y2178529D02*X198549Y2181529D01*
X199749D02*Y2178529D01*
Y2181529D02*X200249Y2182029D01*
X201249D01*
X201749Y2181529D01*
Y2178529D01*
X201249Y2178029D02*X201749Y2178529D01*
X200249Y2178029D02*X201249D01*
X199749Y2178529D02*X200249Y2178029D01*
X254419Y2182869D02*Y2178869D01*
X253919Y2182869D02*X255919D01*
X256419Y2182369D01*
Y2181369D01*
X255919Y2180869D02*X256419Y2181369D01*
X254419Y2180869D02*X255919D01*
X257619Y2182069D02*X258419Y2182869D01*
Y2178869D01*
X257619D02*X259119D01*
X260319Y2180869D02*X262319D01*
X263519Y2178869D02*X265519D01*
X266019Y2179369D01*
Y2180569D02*Y2179369D01*
X265519Y2181069D02*X266019Y2180569D01*
X264019Y2181069D02*X265519D01*
X264019Y2182869D02*Y2178869D01*
X263519Y2182869D02*X265519D01*
X266019Y2182369D01*
Y2181569D01*
X265519Y2181069D02*X266019Y2181569D01*
X267219Y2182869D02*X268219D01*
X267719D02*Y2178869D01*
X267219D02*X268219D01*
X271419Y2182869D02*X271919Y2182369D01*
X269919Y2182869D02*X271419D01*
X269419Y2182369D02*X269919Y2182869D01*
X269419Y2182369D02*Y2181369D01*
X269919Y2180869D01*
X271419D01*
X271919Y2180369D01*
Y2179369D01*
X271419Y2178869D02*X271919Y2179369D01*
X269919Y2178869D02*X271419D01*
X269419Y2179369D02*X269919Y2178869D01*
X273119Y2182869D02*X275119D01*
X274119D02*Y2178869D01*
X276319Y2182869D02*Y2178869D01*
Y2182869D02*X277819Y2180869D01*
X279319Y2182869D01*
Y2178869D01*
X277429Y1985069D02*X278229D01*
Y1981569D01*
X277729Y1981069D02*X278229Y1981569D01*
X277229Y1981069D02*X277729D01*
X276729Y1981569D02*X277229Y1981069D01*
X276729Y1982069D02*Y1981569D01*
X279429Y1984269D02*X280229Y1985069D01*
Y1981069D01*
X279429D02*X280929D01*
X282129Y1984269D02*X282929Y1985069D01*
Y1981069D01*
X282129D02*X283629D01*
X284829Y1983069D02*X286829D01*
X288729Y1985069D02*X289529D01*
Y1981569D01*
X289029Y1981069D02*X289529Y1981569D01*
X288529Y1981069D02*X289029D01*
X288029Y1981569D02*X288529Y1981069D01*
X288029Y1982069D02*Y1981569D01*
X290729Y1985069D02*X292729D01*
X291729D02*Y1981069D01*
X293929Y1984069D02*Y1981069D01*
Y1984069D02*X294629Y1985069D01*
X295729D01*
X296429Y1984069D01*
Y1981069D01*
X293929Y1983069D02*X296429D01*
X299629Y1985069D02*X300129Y1984569D01*
X298129Y1985069D02*X299629D01*
X297629Y1984569D02*X298129Y1985069D01*
X297629Y1984569D02*Y1981569D01*
X298129Y1981069D01*
X299629D01*
X300129Y1981569D01*
Y1982569D02*Y1981569D01*
X299629Y1983069D02*X300129Y1982569D01*
X298629Y1983069D02*X299629D01*
X105569Y2004609D02*Y2000609D01*
X103569D02*X105569D01*
X104069Y2002409D02*X105569D01*
X101369Y2000609D02*X102369D01*
X101869Y2004609D02*Y2000609D01*
X101369Y2004609D02*X102369D01*
X99669D02*Y2000609D01*
X98369D02*X97669Y2001309D01*
Y2003909D02*Y2001309D01*
X98369Y2004609D02*X97669Y2003909D01*
X98369Y2004609D02*X100169D01*
X98369Y2000609D02*X100169D01*
X96469Y2003109D02*X94469Y2000609D01*
X93969Y2003109D02*X96469D01*
X94469Y2004609D02*Y2000609D01*
G54D369*X188675Y-9500D02*X191675D01*
X192425Y-8750D01*
Y-6950D02*Y-8750D01*
X191675Y-6200D02*X192425Y-6950D01*
X189425Y-6200D02*X191675D01*
X189425Y-3500D02*Y-9500D01*
X188675Y-3500D02*X191675D01*
X192425Y-4250D01*
Y-5450D01*
X191675Y-6200D02*X192425Y-5450D01*
X194225Y-7250D02*Y-8750D01*
Y-7250D02*X194975Y-6500D01*
X196475D01*
X197225Y-7250D01*
Y-8750D01*
X196475Y-9500D02*X197225Y-8750D01*
X194975Y-9500D02*X196475D01*
X194225Y-8750D02*X194975Y-9500D01*
X201275Y-6500D02*X202025Y-7250D01*
X199775Y-6500D02*X201275D01*
X199025Y-7250D02*X199775Y-6500D01*
X199025Y-7250D02*Y-8750D01*
X199775Y-9500D01*
X202025Y-6500D02*Y-8750D01*
X202775Y-9500D01*
X199775D02*X201275D01*
X202025Y-8750D01*
X205325Y-7250D02*Y-9500D01*
Y-7250D02*X206075Y-6500D01*
X207575D01*
X204575D02*X205325Y-7250D01*
X212375Y-3500D02*Y-9500D01*
X211625D02*X212375Y-8750D01*
X210125Y-9500D02*X211625D01*
X209375Y-8750D02*X210125Y-9500D01*
X209375Y-7250D02*Y-8750D01*
Y-7250D02*X210125Y-6500D01*
X211625D01*
X212375Y-7250D01*
X216875D02*Y-8750D01*
Y-7250D02*X217625Y-6500D01*
X219125D01*
X219875Y-7250D01*
Y-8750D01*
X219125Y-9500D02*X219875Y-8750D01*
X217625Y-9500D02*X219125D01*
X216875Y-8750D02*X217625Y-9500D01*
X221675Y-6500D02*Y-8750D01*
X222425Y-9500D01*
X223925D01*
X224675Y-8750D01*
Y-6500D02*Y-8750D01*
X227225Y-3500D02*Y-8750D01*
X227975Y-9500D01*
X226475Y-5750D02*X227975D01*
X229475Y-3500D02*Y-8750D01*
X230225Y-9500D01*
G54D370*X231725Y-5000D02*Y-5150D01*
G54D369*Y-7250D02*Y-9500D01*
X233975Y-7250D02*Y-9500D01*
Y-7250D02*X234725Y-6500D01*
X235475D01*
X236225Y-7250D01*
Y-9500D01*
X233225Y-6500D02*X233975Y-7250D01*
X238775Y-9500D02*X241025D01*
X238025Y-8750D02*X238775Y-9500D01*
X238025Y-7250D02*Y-8750D01*
Y-7250D02*X238775Y-6500D01*
X240275D01*
X241025Y-7250D01*
X238025Y-8000D02*X241025D01*
Y-7250D02*Y-8000D01*
G54D370*X245525Y-5000D02*Y-5150D01*
G54D369*Y-7250D02*Y-9500D01*
X247775D02*X250025D01*
X250775Y-8750D01*
X250025Y-8000D02*X250775Y-8750D01*
X247775Y-8000D02*X250025D01*
X247025Y-7250D02*X247775Y-8000D01*
X247025Y-7250D02*X247775Y-6500D01*
X250025D01*
X250775Y-7250D01*
X247025Y-8750D02*X247775Y-9500D01*
X256025Y-3500D02*Y-8750D01*
X256775Y-9500D01*
X255275Y-5750D02*X256775D01*
X258275Y-3500D02*Y-9500D01*
Y-7250D02*X259025Y-6500D01*
X260525D01*
X261275Y-7250D01*
Y-9500D01*
X263825D02*X266075D01*
X263075Y-8750D02*X263825Y-9500D01*
X263075Y-7250D02*Y-8750D01*
Y-7250D02*X263825Y-6500D01*
X265325D01*
X266075Y-7250D01*
X263075Y-8000D02*X266075D01*
Y-7250D02*Y-8000D01*
X271325Y-6500D02*X273575D01*
X270575Y-7250D02*X271325Y-6500D01*
X270575Y-7250D02*Y-8750D01*
X271325Y-9500D01*
X273575D01*
X276125D02*X278375D01*
X275375Y-8750D02*X276125Y-9500D01*
X275375Y-7250D02*Y-8750D01*
Y-7250D02*X276125Y-6500D01*
X277625D01*
X278375Y-7250D01*
X275375Y-8000D02*X278375D01*
Y-7250D02*Y-8000D01*
X280925Y-7250D02*Y-9500D01*
Y-7250D02*X281675Y-6500D01*
X282425D01*
X283175Y-7250D01*
Y-9500D01*
X280175Y-6500D02*X280925Y-7250D01*
X285725Y-3500D02*Y-8750D01*
X286475Y-9500D01*
X284975Y-5750D02*X286475D01*
X288725Y-9500D02*X290975D01*
X287975Y-8750D02*X288725Y-9500D01*
X287975Y-7250D02*Y-8750D01*
Y-7250D02*X288725Y-6500D01*
X290225D01*
X290975Y-7250D01*
X287975Y-8000D02*X290975D01*
Y-7250D02*Y-8000D01*
X293525Y-7250D02*Y-9500D01*
Y-7250D02*X294275Y-6500D01*
X295775D01*
X292775D02*X293525Y-7250D01*
X297575Y-3500D02*Y-8750D01*
X298325Y-9500D01*
G54D370*X299825Y-5000D02*Y-5150D01*
G54D369*Y-7250D02*Y-9500D01*
X302075Y-7250D02*Y-9500D01*
Y-7250D02*X302825Y-6500D01*
X303575D01*
X304325Y-7250D01*
Y-9500D01*
X301325Y-6500D02*X302075Y-7250D01*
X306875Y-9500D02*X309125D01*
X306125Y-8750D02*X306875Y-9500D01*
X306125Y-7250D02*Y-8750D01*
Y-7250D02*X306875Y-6500D01*
X308375D01*
X309125Y-7250D01*
X306125Y-8000D02*X309125D01*
Y-7250D02*Y-8000D01*
X313625Y-7250D02*Y-8750D01*
Y-7250D02*X314375Y-6500D01*
X315875D01*
X316625Y-7250D01*
Y-8750D01*
X315875Y-9500D02*X316625Y-8750D01*
X314375Y-9500D02*X315875D01*
X313625Y-8750D02*X314375Y-9500D01*
X319175Y-4250D02*Y-9500D01*
Y-4250D02*X319925Y-3500D01*
X320675D01*
X318425Y-6500D02*X319925D01*
X325625Y-3500D02*Y-8750D01*
X326375Y-9500D01*
X324875Y-5750D02*X326375D01*
X327875Y-3500D02*Y-9500D01*
Y-7250D02*X328625Y-6500D01*
X330125D01*
X330875Y-7250D01*
Y-9500D01*
G54D370*X332675Y-5000D02*Y-5150D01*
G54D369*Y-7250D02*Y-9500D01*
X334925D02*X337175D01*
X337925Y-8750D01*
X337175Y-8000D02*X337925Y-8750D01*
X334925Y-8000D02*X337175D01*
X334175Y-7250D02*X334925Y-8000D01*
X334175Y-7250D02*X334925Y-6500D01*
X337175D01*
X337925Y-7250D01*
X334175Y-8750D02*X334925Y-9500D01*
X343175Y-7250D02*Y-11750D01*
X342425Y-6500D02*X343175Y-7250D01*
X343925Y-6500D01*
X345425D01*
X346175Y-7250D01*
Y-8750D01*
X345425Y-9500D02*X346175Y-8750D01*
X343925Y-9500D02*X345425D01*
X343175Y-8750D02*X343925Y-9500D01*
X350225Y-6500D02*X350975Y-7250D01*
X348725Y-6500D02*X350225D01*
X347975Y-7250D02*X348725Y-6500D01*
X347975Y-7250D02*Y-8750D01*
X348725Y-9500D01*
X350975Y-6500D02*Y-8750D01*
X351725Y-9500D01*
X348725D02*X350225D01*
X350975Y-8750D01*
X354275Y-3500D02*Y-8750D01*
X355025Y-9500D01*
X353525Y-5750D02*X355025D01*
X356525Y-3500D02*Y-9500D01*
Y-7250D02*X357275Y-6500D01*
X358775D01*
X359525Y-7250D01*
Y-9500D01*
X200750Y2428500D02*Y2422500D01*
X202700Y2428500D02*X203750Y2427450D01*
Y2423550D01*
X202700Y2422500D02*X203750Y2423550D01*
X200000Y2422500D02*X202700D01*
X200000Y2428500D02*X202700D01*
X207800Y2425500D02*X208550Y2424750D01*
X206300Y2425500D02*X207800D01*
X205550Y2424750D02*X206300Y2425500D01*
X205550Y2424750D02*Y2423250D01*
X206300Y2422500D01*
X208550Y2425500D02*Y2423250D01*
X209300Y2422500D01*
X206300D02*X207800D01*
X208550Y2423250D01*
X211850Y2428500D02*Y2423250D01*
X212600Y2422500D01*
X211100Y2426250D02*X212600D01*
X214850Y2422500D02*X217100D01*
X214100Y2423250D02*X214850Y2422500D01*
X214100Y2424750D02*Y2423250D01*
Y2424750D02*X214850Y2425500D01*
X216350D01*
X217100Y2424750D01*
X214100Y2424000D02*X217100D01*
Y2424750D02*Y2424000D01*
X218900Y2426250D02*X219650D01*
X218900Y2424750D02*X219650D01*
X224150Y2428500D02*Y2425500D01*
X224900Y2422500D01*
X226400Y2425500D01*
X227900Y2422500D01*
X228650Y2425500D01*
Y2428500D02*Y2425500D01*
X231200Y2422500D02*X233450D01*
X230450Y2423250D02*X231200Y2422500D01*
X230450Y2424750D02*Y2423250D01*
Y2424750D02*X231200Y2425500D01*
X232700D01*
X233450Y2424750D01*
X230450Y2424000D02*X233450D01*
Y2424750D02*Y2424000D01*
X238250Y2428500D02*Y2422500D01*
X237500D02*X238250Y2423250D01*
X236000Y2422500D02*X237500D01*
X235250Y2423250D02*X236000Y2422500D01*
X235250Y2424750D02*Y2423250D01*
Y2424750D02*X236000Y2425500D01*
X237500D01*
X238250Y2424750D01*
X242750Y2428500D02*Y2422500D01*
Y2428500D02*X246500Y2422500D01*
Y2428500D02*Y2422500D01*
X248300Y2424750D02*Y2423250D01*
Y2424750D02*X249050Y2425500D01*
X250550D01*
X251300Y2424750D01*
Y2423250D01*
X250550Y2422500D02*X251300Y2423250D01*
X249050Y2422500D02*X250550D01*
X248300Y2423250D02*X249050Y2422500D01*
X253100Y2425500D02*X254600Y2422500D01*
X256100Y2425500D02*X254600Y2422500D01*
X260600Y2427300D02*X261800Y2428500D01*
Y2422500D01*
X260600D02*X262850D01*
X264650Y2427750D02*X265400Y2428500D01*
X266900D01*
X267650Y2427750D01*
X266900Y2422500D02*X267650Y2423250D01*
X265400Y2422500D02*X266900D01*
X264650Y2423250D02*X265400Y2422500D01*
Y2425800D02*X266900D01*
X267650Y2427750D02*Y2426550D01*
Y2425050D02*Y2423250D01*
Y2425050D02*X266900Y2425800D01*
X267650Y2426550D02*X266900Y2425800D01*
X272150Y2427750D02*X272900Y2428500D01*
X275150D01*
X275900Y2427750D01*
Y2426250D01*
X272150Y2422500D02*X275900Y2426250D01*
X272150Y2422500D02*X275900D01*
X277700Y2427750D02*X278450Y2428500D01*
X279950D01*
X280700Y2427750D01*
X279950Y2422500D02*X280700Y2423250D01*
X278450Y2422500D02*X279950D01*
X277700Y2423250D02*X278450Y2422500D01*
Y2425800D02*X279950D01*
X280700Y2427750D02*Y2426550D01*
Y2425050D02*Y2423250D01*
Y2425050D02*X279950Y2425800D01*
X280700Y2426550D02*X279950Y2425800D01*
X282500Y2426250D02*X283250D01*
X282500Y2424750D02*X283250D01*
X285050Y2427750D02*X285800Y2428500D01*
X287300D01*
X288050Y2427750D01*
X287300Y2422500D02*X288050Y2423250D01*
X285800Y2422500D02*X287300D01*
X285050Y2423250D02*X285800Y2422500D01*
Y2425800D02*X287300D01*
X288050Y2427750D02*Y2426550D01*
Y2425050D02*Y2423250D01*
Y2425050D02*X287300Y2425800D01*
X288050Y2426550D02*X287300Y2425800D01*
X290600Y2422500D02*X293600Y2428500D01*
X289850D02*X293600D01*
X295400Y2426250D02*X296150D01*
X295400Y2424750D02*X296150D01*
X297950Y2423250D02*X298700Y2422500D01*
X297950Y2427750D02*Y2423250D01*
Y2427750D02*X298700Y2428500D01*
X300200D01*
X300950Y2427750D01*
Y2423250D01*
X300200Y2422500D02*X300950Y2423250D01*
X298700Y2422500D02*X300200D01*
X297950Y2424000D02*X300950Y2427000D01*
X302750Y2427750D02*X303500Y2428500D01*
X305000D01*
X305750Y2427750D01*
X305000Y2422500D02*X305750Y2423250D01*
X303500Y2422500D02*X305000D01*
X302750Y2423250D02*X303500Y2422500D01*
Y2425800D02*X305000D01*
X305750Y2427750D02*Y2426550D01*
Y2425050D02*Y2423250D01*
Y2425050D02*X305000Y2425800D01*
X305750Y2426550D02*X305000Y2425800D01*
X310250Y2427750D02*X311000Y2428500D01*
X313250D01*
X314000Y2427750D01*
Y2426250D01*
X310250Y2422500D02*X314000Y2426250D01*
X310250Y2422500D02*X314000D01*
X315800Y2423250D02*X316550Y2422500D01*
X315800Y2427750D02*Y2423250D01*
Y2427750D02*X316550Y2428500D01*
X318050D01*
X318800Y2427750D01*
Y2423250D01*
X318050Y2422500D02*X318800Y2423250D01*
X316550Y2422500D02*X318050D01*
X315800Y2424000D02*X318800Y2427000D01*
X320600Y2427300D02*X321800Y2428500D01*
Y2422500D01*
X320600D02*X322850D01*
X324650Y2427750D02*X325400Y2428500D01*
X326900D01*
X327650Y2427750D01*
X326900Y2422500D02*X327650Y2423250D01*
X325400Y2422500D02*X326900D01*
X324650Y2423250D02*X325400Y2422500D01*
Y2425800D02*X326900D01*
X327650Y2427750D02*Y2426550D01*
Y2425050D02*Y2423250D01*
Y2425050D02*X326900Y2425800D01*
X327650Y2426550D02*X326900Y2425800D01*
X332150Y2428500D02*Y2423250D01*
X332900Y2422500D01*
X334400D01*
X335150Y2423250D01*
Y2428500D02*Y2423250D01*
X336950Y2428500D02*X339950D01*
X338450D02*Y2422500D01*
X342800D02*X344750D01*
X341750Y2423550D02*X342800Y2422500D01*
X341750Y2427450D02*Y2423550D01*
Y2427450D02*X342800Y2428500D01*
X344750D01*
X200000Y2442000D02*Y2437500D01*
Y2442000D02*X201050Y2443500D01*
X202700D01*
X203750Y2442000D01*
Y2437500D01*
X200000Y2440500D02*X203750D01*
X205550D02*Y2438250D01*
X206300Y2437500D01*
X207800D01*
X208550Y2438250D01*
Y2440500D02*Y2438250D01*
X211100Y2443500D02*Y2438250D01*
X211850Y2437500D01*
X210350Y2441250D02*X211850D01*
X213350Y2443500D02*Y2437500D01*
Y2439750D02*X214100Y2440500D01*
X215600D01*
X216350Y2439750D01*
Y2437500D01*
X218150Y2439750D02*Y2438250D01*
Y2439750D02*X218900Y2440500D01*
X220400D01*
X221150Y2439750D01*
Y2438250D01*
X220400Y2437500D02*X221150Y2438250D01*
X218900Y2437500D02*X220400D01*
X218150Y2438250D02*X218900Y2437500D01*
X223700Y2439750D02*Y2437500D01*
Y2439750D02*X224450Y2440500D01*
X225950D01*
X222950D02*X223700Y2439750D01*
X227750Y2441250D02*X228500D01*
X227750Y2439750D02*X228500D01*
X200000Y2458500D02*X203000D01*
X201500D02*Y2452500D01*
G54D370*X204800Y2457000D02*Y2456850D01*
G54D369*Y2454750D02*Y2452500D01*
X207050Y2458500D02*Y2453250D01*
X207800Y2452500D01*
X206300Y2456250D02*X207800D01*
X209300Y2458500D02*Y2453250D01*
X210050Y2452500D01*
X212300D02*X214550D01*
X211550Y2453250D02*X212300Y2452500D01*
X211550Y2454750D02*Y2453250D01*
Y2454750D02*X212300Y2455500D01*
X213800D01*
X214550Y2454750D01*
X211550Y2454000D02*X214550D01*
Y2454750D02*Y2454000D01*
X216350Y2456250D02*X217100D01*
X216350Y2454750D02*X217100D01*
X221600Y2453250D02*X222350Y2452500D01*
X221600Y2457750D02*X222350Y2458500D01*
X221600Y2457750D02*Y2453250D01*
X224150Y2455500D02*Y2453250D01*
X224900Y2452500D01*
X226400D01*
X227150Y2453250D01*
Y2455500D02*Y2453250D01*
X229700Y2454750D02*Y2452500D01*
Y2454750D02*X230450Y2455500D01*
X231200D01*
X231950Y2454750D01*
Y2452500D01*
X228950Y2455500D02*X229700Y2454750D01*
X233750Y2458500D02*Y2452500D01*
Y2454750D02*X236000Y2452500D01*
X233750Y2454750D02*X235250Y2456250D01*
X238550Y2454750D02*Y2452500D01*
Y2454750D02*X239300Y2455500D01*
X240050D01*
X240800Y2454750D01*
Y2452500D01*
X237800Y2455500D02*X238550Y2454750D01*
X242600D02*Y2453250D01*
Y2454750D02*X243350Y2455500D01*
X244850D01*
X245600Y2454750D01*
Y2453250D01*
X244850Y2452500D02*X245600Y2453250D01*
X243350Y2452500D02*X244850D01*
X242600Y2453250D02*X243350Y2452500D01*
X247400Y2455500D02*Y2453250D01*
X248150Y2452500D01*
X248900D01*
X249650Y2453250D01*
Y2455500D02*Y2453250D01*
X250400Y2452500D01*
X251150D01*
X251900Y2453250D01*
Y2455500D02*Y2453250D01*
X254450Y2454750D02*Y2452500D01*
Y2454750D02*X255200Y2455500D01*
X255950D01*
X256700Y2454750D01*
Y2452500D01*
X253700Y2455500D02*X254450Y2454750D01*
X258500Y2458500D02*X259250Y2457750D01*
Y2453250D01*
X258500Y2452500D02*X259250Y2453250D01*
X263750Y2455500D02*X266750D01*
X271250Y2458500D02*Y2452500D01*
Y2458500D02*X274250D01*
X271250Y2455800D02*X273500D01*
X278300Y2455500D02*X279050Y2454750D01*
X276800Y2455500D02*X278300D01*
X276050Y2454750D02*X276800Y2455500D01*
X276050Y2454750D02*Y2453250D01*
X276800Y2452500D01*
X279050Y2455500D02*Y2453250D01*
X279800Y2452500D01*
X276800D02*X278300D01*
X279050Y2453250D01*
X281600Y2458500D02*Y2452500D01*
Y2453250D02*X282350Y2452500D01*
X283850D01*
X284600Y2453250D01*
Y2454750D02*Y2453250D01*
X283850Y2455500D02*X284600Y2454750D01*
X282350Y2455500D02*X283850D01*
X281600Y2454750D02*X282350Y2455500D01*
X287150Y2454750D02*Y2452500D01*
Y2454750D02*X287900Y2455500D01*
X289400D01*
X286400D02*X287150Y2454750D01*
G54D370*X291200Y2457000D02*Y2456850D01*
G54D369*Y2454750D02*Y2452500D01*
X293450Y2455500D02*X295700D01*
X292700Y2454750D02*X293450Y2455500D01*
X292700Y2454750D02*Y2453250D01*
X293450Y2452500D01*
X295700D01*
X299750Y2455500D02*X300500Y2454750D01*
X298250Y2455500D02*X299750D01*
X297500Y2454750D02*X298250Y2455500D01*
X297500Y2454750D02*Y2453250D01*
X298250Y2452500D01*
X300500Y2455500D02*Y2453250D01*
X301250Y2452500D01*
X298250D02*X299750D01*
X300500Y2453250D01*
X303800Y2458500D02*Y2453250D01*
X304550Y2452500D01*
X303050Y2456250D02*X304550D01*
G54D370*X306050Y2457000D02*Y2456850D01*
G54D369*Y2454750D02*Y2452500D01*
X307550Y2454750D02*Y2453250D01*
Y2454750D02*X308300Y2455500D01*
X309800D01*
X310550Y2454750D01*
Y2453250D01*
X309800Y2452500D02*X310550Y2453250D01*
X308300Y2452500D02*X309800D01*
X307550Y2453250D02*X308300Y2452500D01*
X313100Y2454750D02*Y2452500D01*
Y2454750D02*X313850Y2455500D01*
X314600D01*
X315350Y2454750D01*
Y2452500D01*
X312350Y2455500D02*X313100Y2454750D01*
X320600Y2458500D02*Y2452500D01*
X322550Y2458500D02*X323600Y2457450D01*
Y2453550D01*
X322550Y2452500D02*X323600Y2453550D01*
X319850Y2452500D02*X322550D01*
X319850Y2458500D02*X322550D01*
X326150Y2454750D02*Y2452500D01*
Y2454750D02*X326900Y2455500D01*
X328400D01*
X325400D02*X326150Y2454750D01*
X332450Y2455500D02*X333200Y2454750D01*
X330950Y2455500D02*X332450D01*
X330200Y2454750D02*X330950Y2455500D01*
X330200Y2454750D02*Y2453250D01*
X330950Y2452500D01*
X333200Y2455500D02*Y2453250D01*
X333950Y2452500D01*
X330950D02*X332450D01*
X333200Y2453250D01*
X335750Y2455500D02*Y2453250D01*
X336500Y2452500D01*
X337250D01*
X338000Y2453250D01*
Y2455500D02*Y2453250D01*
X338750Y2452500D01*
X339500D01*
X340250Y2453250D01*
Y2455500D02*Y2453250D01*
G54D370*X342050Y2457000D02*Y2456850D01*
G54D369*Y2454750D02*Y2452500D01*
X344300Y2454750D02*Y2452500D01*
Y2454750D02*X345050Y2455500D01*
X345800D01*
X346550Y2454750D01*
Y2452500D01*
X343550Y2455500D02*X344300Y2454750D01*
X350600Y2455500D02*X351350Y2454750D01*
X349100Y2455500D02*X350600D01*
X348350Y2454750D02*X349100Y2455500D01*
X348350Y2454750D02*Y2453250D01*
X349100Y2452500D01*
X350600D01*
X351350Y2453250D01*
X348350Y2451000D02*X349100Y2450250D01*
X350600D01*
X351350Y2451000D01*
Y2455500D02*Y2451000D01*
M02*
