G04 start of page 9 for group -4062 idx -4062 *
G04 Title: (unknown), soldermask *
G04 Creator: pcb 20110918 *
G04 CreationDate: Thu Nov 14 23:28:25 2013 UTC *
G04 For: fosse *
G04 Format: Gerber/RS-274X *
G04 PCB-Dimensions: 550000 600000 *
G04 PCB-Coordinate-Origin: lower left *
%MOIN*%
%FSLAX25Y25*%
%LNBOTTOMMASK*%
%ADD161R,0.0277X0.0277*%
%ADD160R,0.0336X0.0336*%
%ADD159R,0.0651X0.0651*%
%ADD158R,0.0454X0.0454*%
%ADD157R,0.0336X0.0336*%
%ADD156R,0.0257X0.0257*%
%ADD155R,0.0258X0.0258*%
%ADD154R,0.0651X0.0651*%
%ADD153R,0.0297X0.0297*%
%ADD152R,0.0297X0.0297*%
%ADD151C,0.0610*%
%ADD150C,0.0001*%
%ADD149C,0.0454*%
%ADD148C,0.0604*%
%ADD147C,0.2560*%
G54D147*X455200Y361100D03*
Y111100D03*
X375200D03*
X95200Y361100D03*
X175200D03*
X375200D03*
X95200Y111100D03*
X175200D03*
G54D148*X248666Y314966D03*
X195516D03*
G54D149*X248925Y139204D03*
X302075D03*
G54D150*G36*
X500036Y229050D02*Y222950D01*
X506136D01*
Y229050D01*
X500036D01*
G37*
G54D151*X523086Y226000D03*
G54D152*X200043Y334218D02*Y330162D01*
X203193Y334218D02*Y330162D01*
X206342Y334218D02*Y330162D01*
X209492Y334218D02*Y330162D01*
X212641Y334218D02*Y330162D01*
G54D153*X215792Y334218D02*Y330163D01*
G54D152*X244138Y334218D02*Y330162D01*
X240988Y334218D02*Y330162D01*
X237838Y334218D02*Y330162D01*
X234689Y334218D02*Y330162D01*
X228389Y334218D02*Y330162D01*
G54D153*X231540Y334218D02*Y330163D01*
G54D152*X200043Y315123D02*Y311068D01*
X203193Y315123D02*Y311068D01*
X206342Y315123D02*Y311068D01*
X209492Y315123D02*Y311068D01*
X212641Y315123D02*Y311068D01*
G54D153*X215792Y315123D02*Y311069D01*
G54D152*X218941Y334218D02*Y330162D01*
X222090Y334218D02*Y330162D01*
X225240Y334218D02*Y330162D01*
X244138Y315123D02*Y311068D01*
X240988Y315123D02*Y311068D01*
X237838Y315123D02*Y311068D01*
X234689Y315123D02*Y311068D01*
X218941Y315123D02*Y311068D01*
X222090Y315123D02*Y311068D01*
X225240Y315123D02*Y311068D01*
X228389Y315123D02*Y311068D01*
G54D153*X231540Y315123D02*Y311069D01*
G54D154*X111048Y505257D02*Y499942D01*
X103174Y505257D02*Y499942D01*
X95300Y505257D02*Y499942D01*
Y478682D02*Y473367D01*
X111048Y478682D02*Y473367D01*
X88192Y584342D02*Y579027D01*
Y557767D02*Y552452D01*
X80318Y584342D02*Y579027D01*
X72444Y584342D02*Y579027D01*
Y557767D02*Y552452D01*
X80674Y545045D02*Y539730D01*
X72800Y545045D02*Y539730D01*
X64926Y545045D02*Y539730D01*
Y518470D02*Y513155D01*
X48548Y543833D02*Y538518D01*
X40674Y543833D02*Y538518D01*
X32800Y543833D02*Y538518D01*
X48350Y504133D02*Y498818D01*
X40476Y504133D02*Y498818D01*
X32602Y504133D02*Y498818D01*
X48350Y477558D02*Y472243D01*
X32602Y477558D02*Y472243D01*
X48548Y517258D02*Y511943D01*
X32800Y517258D02*Y511943D01*
X80674Y518470D02*Y513155D01*
X79800Y504833D02*Y499518D01*
X71926Y504833D02*Y499518D01*
X64052Y504833D02*Y499518D01*
X79800Y478258D02*Y472943D01*
X64052Y478258D02*Y472943D01*
X48174Y464545D02*Y459230D01*
X40300Y464545D02*Y459230D01*
X32426Y464545D02*Y459230D01*
Y437970D02*Y432655D01*
X48174Y437970D02*Y432655D01*
X80300Y463833D02*Y458518D01*
X72426Y463833D02*Y458518D01*
X64552Y463833D02*Y458518D01*
X80300Y437258D02*Y431943D01*
X64552Y437258D02*Y431943D01*
G54D152*X297547Y158456D02*Y154400D01*
X294397Y158456D02*Y154400D01*
X291247Y158456D02*Y154400D01*
X288098Y158456D02*Y154400D01*
G54D153*X284949Y158456D02*Y154401D01*
G54D152*X253452Y158456D02*Y154400D01*
X256602Y158456D02*Y154400D01*
X259751Y158456D02*Y154400D01*
X262901Y158456D02*Y154400D01*
X266050Y158456D02*Y154400D01*
G54D153*X269201Y158456D02*Y154401D01*
G54D152*X272350Y158456D02*Y154400D01*
X275499Y158456D02*Y154400D01*
X278649Y158456D02*Y154400D01*
X281798Y158456D02*Y154400D01*
X297547Y139361D02*Y135306D01*
X294397Y139361D02*Y135306D01*
X291247Y139361D02*Y135306D01*
X288098Y139361D02*Y135306D01*
G54D153*X284949Y139361D02*Y135307D01*
G54D152*X253452Y139361D02*Y135306D01*
X256602Y139361D02*Y135306D01*
X259751Y139361D02*Y135306D01*
X262901Y139361D02*Y135306D01*
X266050Y139361D02*Y135306D01*
G54D153*X269201Y139361D02*Y135307D01*
G54D152*X272350Y139361D02*Y135306D01*
X275499Y139361D02*Y135306D01*
X278649Y139361D02*Y135306D01*
X281798Y139361D02*Y135306D01*
G54D154*X142874Y130945D02*Y125630D01*
X135000Y130945D02*Y125630D01*
X127126Y130945D02*Y125630D01*
X142874Y104370D02*Y99055D01*
X127126Y104370D02*Y99055D01*
G54D155*X315533Y326162D02*Y321438D01*
X311596Y326162D02*Y321438D01*
X307659Y326162D02*Y321438D01*
X303722Y326162D02*Y321438D01*
G54D156*X317501Y316713D02*Y311988D01*
X313564Y316713D02*Y311988D01*
X309627Y316713D02*Y311988D01*
G54D157*X321438Y325768D02*Y321831D01*
Y316319D02*Y312382D01*
G54D155*X299785Y326162D02*Y321438D01*
X295848Y326162D02*Y321438D01*
X291911Y326162D02*Y321438D01*
X287974Y326162D02*Y321438D01*
X284037Y326162D02*Y321438D01*
X280100Y326162D02*Y321438D01*
G54D157*X276162Y325768D02*Y321831D01*
G54D156*X305690Y316713D02*Y311988D01*
X301753Y316713D02*Y311988D01*
G54D155*X297816Y316713D02*Y311989D01*
X293879Y316713D02*Y311989D01*
X289942Y316713D02*Y311989D01*
X286005Y316713D02*Y311989D01*
X282068Y316713D02*Y311989D01*
G54D157*X276162Y316319D02*Y312382D01*
G54D158*X421063Y519850D02*X421810D01*
X421063Y514850D02*X421810D01*
X421063Y539850D02*X421810D01*
X421063Y534850D02*X421810D01*
X421063Y529850D02*X421810D01*
X421063Y524850D02*X421810D01*
G54D154*X422027Y508728D02*Y505578D01*
G54D159*X495256Y508728D02*Y505578D01*
G54D157*X475098Y572331D02*Y569575D01*
G54D160*X471752Y572330D02*Y569576D01*
G54D157*X468405Y572331D02*Y569575D01*
X464074Y572331D02*Y569575D01*
X459744Y572331D02*Y569575D01*
X455413Y572331D02*Y569575D01*
X451082Y572331D02*Y569575D01*
G54D160*X446752Y572330D02*Y569576D01*
G54D157*X442421Y572331D02*Y569575D01*
X438090Y572331D02*Y569575D01*
G54D153*X424784Y568985D02*X432658D01*
X485610D02*X493288D01*
G54D161*X493386Y569083D02*Y560421D01*
M02*
