G04 start of page 4 for group 2 idx 2 *
G04 Title: (unknown), 3GND *
G04 Creator: pcb 20110918 *
G04 CreationDate: Mon Nov 11 23:28:41 2013 UTC *
G04 For: fosse *
G04 Format: Gerber/RS-274X *
G04 PCB-Dimensions: 455000 500000 *
G04 PCB-Coordinate-Origin: lower left *
%MOIN*%
%FSLAX25Y25*%
%LNGROUP2*%
%ADD57C,0.0200*%
%ADD56C,0.0350*%
%ADD55C,0.0360*%
%ADD54C,0.0600*%
%ADD53C,0.0550*%
%ADD52C,0.0394*%
%ADD51C,0.2500*%
%ADD50C,0.0001*%
G54D50*G36*
X416100Y28200D02*X385794D01*
Y38083D01*
X387125Y36525D01*
X388740Y35145D01*
X390552Y34034D01*
X392515Y33221D01*
X394582Y32725D01*
X396700Y32558D01*
X398818Y32725D01*
X400885Y33221D01*
X402848Y34034D01*
X404660Y35145D01*
X406275Y36525D01*
X407655Y38140D01*
X408766Y39952D01*
X409579Y41915D01*
X410075Y43982D01*
X410200Y46100D01*
X410075Y48218D01*
X409579Y50285D01*
X408766Y52248D01*
X407655Y54060D01*
X406275Y55675D01*
X404660Y57055D01*
X402848Y58166D01*
X400885Y58979D01*
X398818Y59475D01*
X396700Y59642D01*
X394582Y59475D01*
X392515Y58979D01*
X390552Y58166D01*
X388740Y57055D01*
X387125Y55675D01*
X385794Y54117D01*
Y76588D01*
X385800Y76588D01*
X386428Y76637D01*
X387040Y76784D01*
X387622Y77025D01*
X388158Y77354D01*
X388637Y77763D01*
X389046Y78242D01*
X389375Y78778D01*
X389616Y79360D01*
X389763Y79972D01*
X389800Y80600D01*
X389763Y81228D01*
X389616Y81840D01*
X389375Y82422D01*
X389046Y82958D01*
X388637Y83437D01*
X388158Y83846D01*
X387622Y84175D01*
X387040Y84416D01*
X386428Y84563D01*
X385800Y84612D01*
X385794Y84612D01*
Y288083D01*
X387125Y286525D01*
X388740Y285145D01*
X390552Y284034D01*
X392515Y283221D01*
X394582Y282725D01*
X396700Y282558D01*
X398818Y282725D01*
X400885Y283221D01*
X402848Y284034D01*
X404660Y285145D01*
X406275Y286525D01*
X407655Y288140D01*
X408766Y289952D01*
X409579Y291915D01*
X410075Y293982D01*
X410200Y296100D01*
X410075Y298218D01*
X409579Y300285D01*
X408766Y302248D01*
X407655Y304060D01*
X406275Y305675D01*
X404660Y307055D01*
X402848Y308166D01*
X400885Y308979D01*
X398818Y309475D01*
X396700Y309642D01*
X394582Y309475D01*
X392515Y308979D01*
X390552Y308166D01*
X388740Y307055D01*
X387125Y305675D01*
X385794Y304117D01*
Y314000D01*
X416100D01*
Y28200D01*
G37*
G36*
X385794D02*X375084D01*
Y128969D01*
X375087Y128970D01*
X375155Y129009D01*
X375216Y129058D01*
X375269Y129117D01*
X375311Y129183D01*
X375474Y129508D01*
X375603Y129848D01*
X375701Y130198D01*
X375767Y130556D01*
X375800Y130918D01*
Y131282D01*
X375767Y131644D01*
X375701Y132002D01*
X375603Y132352D01*
X375474Y132692D01*
X375315Y133019D01*
X375272Y133085D01*
X375219Y133144D01*
X375157Y133194D01*
X375088Y133233D01*
X375084Y133235D01*
Y314000D01*
X385794D01*
Y304117D01*
X385745Y304060D01*
X384634Y302248D01*
X383821Y300285D01*
X383325Y298218D01*
X383158Y296100D01*
X383325Y293982D01*
X383821Y291915D01*
X384634Y289952D01*
X385745Y288140D01*
X385794Y288083D01*
Y84612D01*
X385172Y84563D01*
X384560Y84416D01*
X383978Y84175D01*
X383442Y83846D01*
X382963Y83437D01*
X382554Y82958D01*
X382225Y82422D01*
X381984Y81840D01*
X381837Y81228D01*
X381788Y80600D01*
X381837Y79972D01*
X381984Y79360D01*
X382225Y78778D01*
X382554Y78242D01*
X382963Y77763D01*
X383442Y77354D01*
X383978Y77025D01*
X384560Y76784D01*
X385172Y76637D01*
X385794Y76588D01*
Y54117D01*
X385745Y54060D01*
X384634Y52248D01*
X383821Y50285D01*
X383325Y48218D01*
X383158Y46100D01*
X383325Y43982D01*
X383821Y41915D01*
X384634Y39952D01*
X385745Y38140D01*
X385794Y38083D01*
Y28200D01*
G37*
G36*
X375084D02*X371802D01*
Y127100D01*
X371982D01*
X372344Y127133D01*
X372702Y127199D01*
X373052Y127297D01*
X373392Y127426D01*
X373719Y127585D01*
X373785Y127628D01*
X373844Y127681D01*
X373894Y127743D01*
X373933Y127812D01*
X373961Y127886D01*
X373977Y127963D01*
X373981Y128042D01*
X373973Y128121D01*
X373952Y128197D01*
X373920Y128270D01*
X373877Y128336D01*
X373824Y128395D01*
X373762Y128444D01*
X373693Y128484D01*
X373619Y128512D01*
X373542Y128528D01*
X373463Y128532D01*
X373384Y128524D01*
X373307Y128503D01*
X373236Y128470D01*
X372993Y128347D01*
X372738Y128250D01*
X372476Y128177D01*
X372208Y128128D01*
X371936Y128103D01*
X371802D01*
Y134097D01*
X371936D01*
X372208Y134072D01*
X372476Y134023D01*
X372738Y133950D01*
X372993Y133853D01*
X373237Y133733D01*
X373309Y133700D01*
X373384Y133679D01*
X373463Y133671D01*
X373541Y133675D01*
X373618Y133691D01*
X373692Y133719D01*
X373760Y133758D01*
X373821Y133807D01*
X373874Y133866D01*
X373917Y133932D01*
X373949Y134004D01*
X373970Y134080D01*
X373978Y134158D01*
X373974Y134236D01*
X373958Y134313D01*
X373930Y134387D01*
X373891Y134455D01*
X373842Y134516D01*
X373783Y134569D01*
X373717Y134611D01*
X373392Y134774D01*
X373052Y134903D01*
X372702Y135001D01*
X372344Y135067D01*
X371982Y135100D01*
X371802D01*
Y314000D01*
X375084D01*
Y133235D01*
X375014Y133261D01*
X374937Y133277D01*
X374858Y133281D01*
X374779Y133273D01*
X374703Y133252D01*
X374630Y133220D01*
X374564Y133177D01*
X374505Y133124D01*
X374456Y133062D01*
X374416Y132993D01*
X374388Y132919D01*
X374372Y132842D01*
X374368Y132763D01*
X374376Y132684D01*
X374397Y132607D01*
X374430Y132536D01*
X374553Y132293D01*
X374650Y132038D01*
X374723Y131776D01*
X374772Y131508D01*
X374797Y131236D01*
Y130964D01*
X374772Y130692D01*
X374723Y130424D01*
X374650Y130162D01*
X374553Y129907D01*
X374433Y129663D01*
X374400Y129591D01*
X374379Y129516D01*
X374371Y129437D01*
X374375Y129359D01*
X374391Y129282D01*
X374419Y129208D01*
X374458Y129140D01*
X374507Y129079D01*
X374566Y129026D01*
X374632Y128983D01*
X374704Y128951D01*
X374780Y128930D01*
X374858Y128922D01*
X374936Y128926D01*
X375013Y128942D01*
X375084Y128969D01*
Y28200D01*
G37*
G36*
X371802D02*X368516D01*
Y128965D01*
X368586Y128939D01*
X368663Y128923D01*
X368742Y128919D01*
X368821Y128927D01*
X368897Y128948D01*
X368970Y128980D01*
X369036Y129023D01*
X369095Y129076D01*
X369144Y129138D01*
X369184Y129207D01*
X369212Y129281D01*
X369228Y129358D01*
X369232Y129437D01*
X369224Y129516D01*
X369203Y129593D01*
X369170Y129664D01*
X369047Y129907D01*
X368950Y130162D01*
X368877Y130424D01*
X368828Y130692D01*
X368803Y130964D01*
Y131236D01*
X368828Y131508D01*
X368877Y131776D01*
X368950Y132038D01*
X369047Y132293D01*
X369167Y132537D01*
X369200Y132609D01*
X369221Y132685D01*
X369229Y132763D01*
X369225Y132841D01*
X369209Y132918D01*
X369181Y132992D01*
X369142Y133060D01*
X369093Y133121D01*
X369034Y133174D01*
X368968Y133217D01*
X368896Y133249D01*
X368820Y133270D01*
X368742Y133278D01*
X368664Y133274D01*
X368587Y133258D01*
X368516Y133231D01*
Y314000D01*
X371802D01*
Y135100D01*
X371618D01*
X371256Y135067D01*
X370898Y135001D01*
X370548Y134903D01*
X370208Y134774D01*
X369881Y134615D01*
X369815Y134572D01*
X369756Y134519D01*
X369706Y134457D01*
X369667Y134388D01*
X369639Y134314D01*
X369623Y134237D01*
X369619Y134158D01*
X369627Y134079D01*
X369648Y134003D01*
X369680Y133930D01*
X369723Y133864D01*
X369776Y133805D01*
X369838Y133756D01*
X369907Y133716D01*
X369981Y133688D01*
X370058Y133672D01*
X370137Y133668D01*
X370216Y133676D01*
X370293Y133697D01*
X370364Y133730D01*
X370607Y133853D01*
X370862Y133950D01*
X371124Y134023D01*
X371392Y134072D01*
X371664Y134097D01*
X371802D01*
Y128103D01*
X371664D01*
X371392Y128128D01*
X371124Y128177D01*
X370862Y128250D01*
X370607Y128347D01*
X370363Y128467D01*
X370291Y128500D01*
X370215Y128521D01*
X370137Y128529D01*
X370059Y128525D01*
X369982Y128509D01*
X369908Y128481D01*
X369840Y128442D01*
X369779Y128393D01*
X369726Y128334D01*
X369683Y128268D01*
X369651Y128196D01*
X369630Y128120D01*
X369622Y128042D01*
X369626Y127964D01*
X369642Y127887D01*
X369670Y127813D01*
X369709Y127745D01*
X369758Y127684D01*
X369817Y127631D01*
X369883Y127589D01*
X370208Y127426D01*
X370548Y127297D01*
X370898Y127199D01*
X371256Y127133D01*
X371618Y127100D01*
X371802D01*
Y28200D01*
G37*
G36*
X368516D02*X363084D01*
Y72469D01*
X363087Y72470D01*
X363155Y72509D01*
X363216Y72558D01*
X363269Y72617D01*
X363311Y72683D01*
X363474Y73008D01*
X363603Y73348D01*
X363701Y73698D01*
X363767Y74056D01*
X363800Y74418D01*
Y74782D01*
X363767Y75144D01*
X363701Y75502D01*
X363603Y75852D01*
X363474Y76192D01*
X363315Y76519D01*
X363272Y76585D01*
X363219Y76644D01*
X363157Y76694D01*
X363088Y76733D01*
X363084Y76735D01*
Y314000D01*
X368516D01*
Y133231D01*
X368513Y133230D01*
X368445Y133191D01*
X368384Y133142D01*
X368331Y133083D01*
X368289Y133017D01*
X368126Y132692D01*
X367997Y132352D01*
X367899Y132002D01*
X367833Y131644D01*
X367800Y131282D01*
Y130918D01*
X367833Y130556D01*
X367899Y130198D01*
X367997Y129848D01*
X368126Y129508D01*
X368285Y129181D01*
X368328Y129115D01*
X368381Y129056D01*
X368443Y129006D01*
X368512Y128967D01*
X368516Y128965D01*
Y28200D01*
G37*
G36*
X363084D02*X359802D01*
Y70600D01*
X359982D01*
X360344Y70633D01*
X360702Y70699D01*
X361052Y70797D01*
X361392Y70926D01*
X361719Y71085D01*
X361785Y71128D01*
X361844Y71181D01*
X361894Y71243D01*
X361933Y71312D01*
X361961Y71386D01*
X361977Y71463D01*
X361981Y71542D01*
X361973Y71621D01*
X361952Y71697D01*
X361920Y71770D01*
X361877Y71836D01*
X361824Y71895D01*
X361762Y71944D01*
X361693Y71984D01*
X361619Y72012D01*
X361542Y72028D01*
X361463Y72032D01*
X361384Y72024D01*
X361307Y72003D01*
X361236Y71970D01*
X360993Y71847D01*
X360738Y71750D01*
X360476Y71677D01*
X360208Y71628D01*
X359936Y71603D01*
X359802D01*
Y77597D01*
X359936D01*
X360208Y77572D01*
X360476Y77523D01*
X360738Y77450D01*
X360993Y77353D01*
X361237Y77233D01*
X361309Y77200D01*
X361384Y77179D01*
X361463Y77171D01*
X361541Y77175D01*
X361618Y77191D01*
X361692Y77219D01*
X361760Y77258D01*
X361821Y77307D01*
X361874Y77366D01*
X361917Y77432D01*
X361949Y77504D01*
X361970Y77580D01*
X361978Y77658D01*
X361974Y77736D01*
X361958Y77813D01*
X361930Y77887D01*
X361891Y77955D01*
X361842Y78016D01*
X361783Y78069D01*
X361717Y78111D01*
X361392Y78274D01*
X361052Y78403D01*
X360702Y78501D01*
X360344Y78567D01*
X359982Y78600D01*
X359802D01*
Y82659D01*
X359875Y82778D01*
X360116Y83360D01*
X360263Y83972D01*
X360300Y84600D01*
X360263Y85228D01*
X360116Y85840D01*
X359875Y86422D01*
X359802Y86541D01*
Y98135D01*
X360158Y98354D01*
X360637Y98763D01*
X361046Y99242D01*
X361375Y99778D01*
X361616Y100360D01*
X361763Y100972D01*
X361800Y101600D01*
X361763Y102228D01*
X361616Y102840D01*
X361375Y103422D01*
X361046Y103958D01*
X360637Y104437D01*
X360158Y104846D01*
X359802Y105065D01*
Y127392D01*
X360122Y127525D01*
X360658Y127854D01*
X361137Y128263D01*
X361546Y128742D01*
X361875Y129278D01*
X362116Y129860D01*
X362263Y130472D01*
X362300Y131100D01*
X362263Y131728D01*
X362116Y132340D01*
X361875Y132922D01*
X361546Y133458D01*
X361137Y133937D01*
X360658Y134346D01*
X360122Y134675D01*
X359802Y134808D01*
Y314000D01*
X363084D01*
Y76735D01*
X363014Y76761D01*
X362937Y76777D01*
X362858Y76781D01*
X362779Y76773D01*
X362703Y76752D01*
X362630Y76720D01*
X362564Y76677D01*
X362505Y76624D01*
X362456Y76562D01*
X362416Y76493D01*
X362388Y76419D01*
X362372Y76342D01*
X362368Y76263D01*
X362376Y76184D01*
X362397Y76107D01*
X362430Y76036D01*
X362553Y75793D01*
X362650Y75538D01*
X362723Y75276D01*
X362772Y75008D01*
X362797Y74736D01*
Y74464D01*
X362772Y74192D01*
X362723Y73924D01*
X362650Y73662D01*
X362553Y73407D01*
X362433Y73163D01*
X362400Y73091D01*
X362379Y73016D01*
X362371Y72937D01*
X362375Y72859D01*
X362391Y72782D01*
X362419Y72708D01*
X362458Y72640D01*
X362507Y72579D01*
X362566Y72526D01*
X362632Y72483D01*
X362704Y72451D01*
X362780Y72430D01*
X362858Y72422D01*
X362936Y72426D01*
X363013Y72442D01*
X363084Y72469D01*
Y28200D01*
G37*
G36*
X359802Y134808D02*X359540Y134916D01*
X358928Y135063D01*
X358300Y135112D01*
X357672Y135063D01*
X357060Y134916D01*
X356478Y134675D01*
X356294Y134562D01*
Y314000D01*
X359802D01*
Y134808D01*
G37*
G36*
Y105065D02*X359622Y105175D01*
X359040Y105416D01*
X358428Y105563D01*
X357800Y105612D01*
X357172Y105563D01*
X356560Y105416D01*
X356294Y105306D01*
Y127638D01*
X356478Y127525D01*
X357060Y127284D01*
X357672Y127137D01*
X358300Y127088D01*
X358928Y127137D01*
X359540Y127284D01*
X359802Y127392D01*
Y105065D01*
G37*
G36*
Y86541D02*X359546Y86958D01*
X359137Y87437D01*
X358658Y87846D01*
X358122Y88175D01*
X357540Y88416D01*
X356928Y88563D01*
X356300Y88612D01*
X356294Y88612D01*
Y97894D01*
X356560Y97784D01*
X357172Y97637D01*
X357800Y97588D01*
X358428Y97637D01*
X359040Y97784D01*
X359622Y98025D01*
X359802Y98135D01*
Y86541D01*
G37*
G36*
Y28200D02*X356294D01*
Y72668D01*
X356328Y72615D01*
X356381Y72556D01*
X356443Y72506D01*
X356512Y72467D01*
X356586Y72439D01*
X356663Y72423D01*
X356742Y72419D01*
X356821Y72427D01*
X356897Y72448D01*
X356970Y72480D01*
X357036Y72523D01*
X357095Y72576D01*
X357144Y72638D01*
X357184Y72707D01*
X357212Y72781D01*
X357228Y72858D01*
X357232Y72937D01*
X357224Y73016D01*
X357203Y73093D01*
X357170Y73164D01*
X357047Y73407D01*
X356950Y73662D01*
X356877Y73924D01*
X356828Y74192D01*
X356803Y74464D01*
Y74736D01*
X356828Y75008D01*
X356877Y75276D01*
X356950Y75538D01*
X357047Y75793D01*
X357167Y76037D01*
X357200Y76109D01*
X357221Y76185D01*
X357229Y76263D01*
X357225Y76341D01*
X357209Y76418D01*
X357181Y76492D01*
X357142Y76560D01*
X357093Y76621D01*
X357034Y76674D01*
X356968Y76717D01*
X356896Y76749D01*
X356820Y76770D01*
X356742Y76778D01*
X356664Y76774D01*
X356587Y76758D01*
X356513Y76730D01*
X356445Y76691D01*
X356384Y76642D01*
X356331Y76583D01*
X356294Y76524D01*
Y80588D01*
X356300Y80588D01*
X356928Y80637D01*
X357540Y80784D01*
X358122Y81025D01*
X358658Y81354D01*
X359137Y81763D01*
X359546Y82242D01*
X359802Y82659D01*
Y78600D01*
X359618D01*
X359256Y78567D01*
X358898Y78501D01*
X358548Y78403D01*
X358208Y78274D01*
X357881Y78115D01*
X357815Y78072D01*
X357756Y78019D01*
X357706Y77957D01*
X357667Y77888D01*
X357639Y77814D01*
X357623Y77737D01*
X357619Y77658D01*
X357627Y77579D01*
X357648Y77503D01*
X357680Y77430D01*
X357723Y77364D01*
X357776Y77305D01*
X357838Y77256D01*
X357907Y77216D01*
X357981Y77188D01*
X358058Y77172D01*
X358137Y77168D01*
X358216Y77176D01*
X358293Y77197D01*
X358364Y77230D01*
X358607Y77353D01*
X358862Y77450D01*
X359124Y77523D01*
X359392Y77572D01*
X359664Y77597D01*
X359802D01*
Y71603D01*
X359664D01*
X359392Y71628D01*
X359124Y71677D01*
X358862Y71750D01*
X358607Y71847D01*
X358363Y71967D01*
X358291Y72000D01*
X358215Y72021D01*
X358137Y72029D01*
X358059Y72025D01*
X357982Y72009D01*
X357908Y71981D01*
X357840Y71942D01*
X357779Y71893D01*
X357726Y71834D01*
X357683Y71768D01*
X357651Y71696D01*
X357630Y71620D01*
X357622Y71542D01*
X357626Y71464D01*
X357642Y71387D01*
X357670Y71313D01*
X357709Y71245D01*
X357758Y71184D01*
X357817Y71131D01*
X357883Y71089D01*
X358208Y70926D01*
X358548Y70797D01*
X358898Y70699D01*
X359256Y70633D01*
X359618Y70600D01*
X359802D01*
Y28200D01*
G37*
G36*
X356294D02*X347794D01*
Y82588D01*
X347800Y82588D01*
X348428Y82637D01*
X349040Y82784D01*
X349622Y83025D01*
X350158Y83354D01*
X350637Y83763D01*
X351046Y84242D01*
X351375Y84778D01*
X351616Y85360D01*
X351763Y85972D01*
X351800Y86600D01*
X351763Y87228D01*
X351616Y87840D01*
X351375Y88422D01*
X351046Y88958D01*
X350637Y89437D01*
X350158Y89846D01*
X349622Y90175D01*
X349040Y90416D01*
X348428Y90563D01*
X347800Y90612D01*
X347794Y90612D01*
Y112127D01*
X347928Y112137D01*
X348540Y112284D01*
X349122Y112525D01*
X349658Y112854D01*
X350137Y113263D01*
X350546Y113742D01*
X350875Y114278D01*
X351116Y114860D01*
X351263Y115472D01*
X351300Y116100D01*
X351263Y116728D01*
X351116Y117340D01*
X350875Y117922D01*
X350546Y118458D01*
X350137Y118937D01*
X349658Y119346D01*
X349122Y119675D01*
X348540Y119916D01*
X347928Y120063D01*
X347794Y120073D01*
Y314000D01*
X356294D01*
Y134562D01*
X355942Y134346D01*
X355463Y133937D01*
X355054Y133458D01*
X354725Y132922D01*
X354484Y132340D01*
X354337Y131728D01*
X354288Y131100D01*
X354337Y130472D01*
X354484Y129860D01*
X354725Y129278D01*
X355054Y128742D01*
X355463Y128263D01*
X355942Y127854D01*
X356294Y127638D01*
Y105306D01*
X355978Y105175D01*
X355442Y104846D01*
X354963Y104437D01*
X354554Y103958D01*
X354225Y103422D01*
X353984Y102840D01*
X353837Y102228D01*
X353788Y101600D01*
X353837Y100972D01*
X353984Y100360D01*
X354225Y99778D01*
X354554Y99242D01*
X354963Y98763D01*
X355442Y98354D01*
X355978Y98025D01*
X356294Y97894D01*
Y88612D01*
X355672Y88563D01*
X355060Y88416D01*
X354478Y88175D01*
X353942Y87846D01*
X353463Y87437D01*
X353054Y86958D01*
X352725Y86422D01*
X352484Y85840D01*
X352337Y85228D01*
X352288Y84600D01*
X352337Y83972D01*
X352484Y83360D01*
X352725Y82778D01*
X353054Y82242D01*
X353463Y81763D01*
X353942Y81354D01*
X354478Y81025D01*
X355060Y80784D01*
X355672Y80637D01*
X356294Y80588D01*
Y76524D01*
X356289Y76517D01*
X356126Y76192D01*
X355997Y75852D01*
X355899Y75502D01*
X355833Y75144D01*
X355800Y74782D01*
Y74418D01*
X355833Y74056D01*
X355899Y73698D01*
X355997Y73348D01*
X356126Y73008D01*
X356285Y72681D01*
X356294Y72668D01*
Y28200D01*
G37*
G36*
X347794D02*X340584D01*
Y76283D01*
X340616Y76360D01*
X340763Y76972D01*
X340800Y77600D01*
X340763Y78228D01*
X340616Y78840D01*
X340584Y78917D01*
Y90969D01*
X340587Y90970D01*
X340655Y91009D01*
X340716Y91058D01*
X340769Y91117D01*
X340811Y91183D01*
X340974Y91508D01*
X341103Y91848D01*
X341201Y92198D01*
X341267Y92556D01*
X341300Y92918D01*
Y93282D01*
X341267Y93644D01*
X341201Y94002D01*
X341103Y94352D01*
X340974Y94692D01*
X340815Y95019D01*
X340772Y95085D01*
X340719Y95144D01*
X340657Y95194D01*
X340588Y95233D01*
X340584Y95235D01*
Y121797D01*
X340603Y121848D01*
X340701Y122198D01*
X340767Y122556D01*
X340800Y122918D01*
Y123282D01*
X340767Y123644D01*
X340701Y124002D01*
X340603Y124352D01*
X340584Y124403D01*
Y314000D01*
X347794D01*
Y120073D01*
X347300Y120112D01*
X346672Y120063D01*
X346060Y119916D01*
X345478Y119675D01*
X344942Y119346D01*
X344463Y118937D01*
X344054Y118458D01*
X343725Y117922D01*
X343484Y117340D01*
X343337Y116728D01*
X343288Y116100D01*
X343337Y115472D01*
X343484Y114860D01*
X343725Y114278D01*
X344054Y113742D01*
X344463Y113263D01*
X344942Y112854D01*
X345478Y112525D01*
X346060Y112284D01*
X346672Y112137D01*
X347300Y112088D01*
X347794Y112127D01*
Y90612D01*
X347172Y90563D01*
X346560Y90416D01*
X345978Y90175D01*
X345442Y89846D01*
X344963Y89437D01*
X344554Y88958D01*
X344225Y88422D01*
X343984Y87840D01*
X343837Y87228D01*
X343788Y86600D01*
X343837Y85972D01*
X343984Y85360D01*
X344225Y84778D01*
X344554Y84242D01*
X344963Y83763D01*
X345442Y83354D01*
X345978Y83025D01*
X346560Y82784D01*
X347172Y82637D01*
X347794Y82588D01*
Y28200D01*
G37*
G36*
X340584Y78917D02*X340375Y79422D01*
X340046Y79958D01*
X339637Y80437D01*
X339158Y80846D01*
X338622Y81175D01*
X338040Y81416D01*
X337428Y81563D01*
X337302Y81573D01*
Y89100D01*
X337482D01*
X337844Y89133D01*
X338202Y89199D01*
X338552Y89297D01*
X338892Y89426D01*
X339219Y89585D01*
X339285Y89628D01*
X339344Y89681D01*
X339394Y89743D01*
X339433Y89812D01*
X339461Y89886D01*
X339477Y89963D01*
X339481Y90042D01*
X339473Y90121D01*
X339452Y90197D01*
X339420Y90270D01*
X339377Y90336D01*
X339324Y90395D01*
X339262Y90444D01*
X339193Y90484D01*
X339119Y90512D01*
X339042Y90528D01*
X338963Y90532D01*
X338884Y90524D01*
X338807Y90503D01*
X338736Y90470D01*
X338493Y90347D01*
X338238Y90250D01*
X337976Y90177D01*
X337708Y90128D01*
X337436Y90103D01*
X337302D01*
Y96097D01*
X337436D01*
X337708Y96072D01*
X337976Y96023D01*
X338238Y95950D01*
X338493Y95853D01*
X338737Y95733D01*
X338809Y95700D01*
X338884Y95679D01*
X338963Y95671D01*
X339041Y95675D01*
X339118Y95691D01*
X339192Y95719D01*
X339260Y95758D01*
X339321Y95807D01*
X339374Y95866D01*
X339417Y95932D01*
X339449Y96004D01*
X339470Y96080D01*
X339478Y96158D01*
X339474Y96236D01*
X339458Y96313D01*
X339430Y96387D01*
X339391Y96455D01*
X339342Y96516D01*
X339283Y96569D01*
X339217Y96611D01*
X338892Y96774D01*
X338552Y96903D01*
X338202Y97001D01*
X337844Y97067D01*
X337482Y97100D01*
X337302D01*
Y119129D01*
X337344Y119133D01*
X337702Y119199D01*
X338052Y119297D01*
X338392Y119426D01*
X338719Y119585D01*
X338785Y119628D01*
X338844Y119681D01*
X338894Y119743D01*
X338933Y119812D01*
X338961Y119886D01*
X338977Y119963D01*
X338981Y120042D01*
X338973Y120121D01*
X338952Y120197D01*
X338920Y120270D01*
X338877Y120336D01*
X338824Y120395D01*
X338762Y120444D01*
X338693Y120484D01*
X338619Y120512D01*
X338542Y120528D01*
X338463Y120532D01*
X338384Y120524D01*
X338307Y120503D01*
X338236Y120470D01*
X337993Y120347D01*
X337738Y120250D01*
X337476Y120177D01*
X337302Y120145D01*
Y126055D01*
X337476Y126023D01*
X337738Y125950D01*
X337993Y125853D01*
X338237Y125733D01*
X338309Y125700D01*
X338384Y125679D01*
X338463Y125671D01*
X338541Y125675D01*
X338618Y125691D01*
X338692Y125719D01*
X338760Y125758D01*
X338821Y125807D01*
X338874Y125866D01*
X338917Y125932D01*
X338949Y126004D01*
X338970Y126080D01*
X338978Y126158D01*
X338974Y126236D01*
X338958Y126313D01*
X338930Y126387D01*
X338891Y126455D01*
X338842Y126516D01*
X338783Y126569D01*
X338717Y126611D01*
X338392Y126774D01*
X338052Y126903D01*
X337702Y127001D01*
X337344Y127067D01*
X337302Y127071D01*
Y314000D01*
X340584D01*
Y124403D01*
X340474Y124692D01*
X340315Y125019D01*
X340272Y125085D01*
X340219Y125144D01*
X340157Y125194D01*
X340088Y125233D01*
X340014Y125261D01*
X339937Y125277D01*
X339858Y125281D01*
X339779Y125273D01*
X339703Y125252D01*
X339630Y125220D01*
X339564Y125177D01*
X339505Y125124D01*
X339456Y125062D01*
X339416Y124993D01*
X339388Y124919D01*
X339372Y124842D01*
X339368Y124763D01*
X339376Y124684D01*
X339397Y124607D01*
X339430Y124536D01*
X339553Y124293D01*
X339650Y124038D01*
X339723Y123776D01*
X339772Y123508D01*
X339797Y123236D01*
Y122964D01*
X339772Y122692D01*
X339723Y122424D01*
X339650Y122162D01*
X339553Y121907D01*
X339433Y121663D01*
X339400Y121591D01*
X339379Y121516D01*
X339371Y121437D01*
X339375Y121359D01*
X339391Y121282D01*
X339419Y121208D01*
X339458Y121140D01*
X339507Y121079D01*
X339566Y121026D01*
X339632Y120983D01*
X339704Y120951D01*
X339780Y120930D01*
X339858Y120922D01*
X339936Y120926D01*
X340013Y120942D01*
X340087Y120970D01*
X340155Y121009D01*
X340216Y121058D01*
X340269Y121117D01*
X340311Y121183D01*
X340474Y121508D01*
X340584Y121797D01*
Y95235D01*
X340514Y95261D01*
X340437Y95277D01*
X340358Y95281D01*
X340279Y95273D01*
X340203Y95252D01*
X340130Y95220D01*
X340064Y95177D01*
X340005Y95124D01*
X339956Y95062D01*
X339916Y94993D01*
X339888Y94919D01*
X339872Y94842D01*
X339868Y94763D01*
X339876Y94684D01*
X339897Y94607D01*
X339930Y94536D01*
X340053Y94293D01*
X340150Y94038D01*
X340223Y93776D01*
X340272Y93508D01*
X340297Y93236D01*
Y92964D01*
X340272Y92692D01*
X340223Y92424D01*
X340150Y92162D01*
X340053Y91907D01*
X339933Y91663D01*
X339900Y91591D01*
X339879Y91516D01*
X339871Y91437D01*
X339875Y91359D01*
X339891Y91282D01*
X339919Y91208D01*
X339958Y91140D01*
X340007Y91079D01*
X340066Y91026D01*
X340132Y90983D01*
X340204Y90951D01*
X340280Y90930D01*
X340358Y90922D01*
X340436Y90926D01*
X340513Y90942D01*
X340584Y90969D01*
Y78917D01*
G37*
G36*
Y28200D02*X337302D01*
Y73627D01*
X337428Y73637D01*
X338040Y73784D01*
X338622Y74025D01*
X339158Y74354D01*
X339637Y74763D01*
X340046Y75242D01*
X340375Y75778D01*
X340584Y76283D01*
Y28200D01*
G37*
G36*
X334016Y314000D02*X337302D01*
Y127071D01*
X336982Y127100D01*
X336618D01*
X336256Y127067D01*
X335898Y127001D01*
X335548Y126903D01*
X335208Y126774D01*
X334881Y126615D01*
X334815Y126572D01*
X334756Y126519D01*
X334706Y126457D01*
X334667Y126388D01*
X334639Y126314D01*
X334623Y126237D01*
X334619Y126158D01*
X334627Y126079D01*
X334648Y126003D01*
X334680Y125930D01*
X334723Y125864D01*
X334776Y125805D01*
X334838Y125756D01*
X334907Y125716D01*
X334981Y125688D01*
X335058Y125672D01*
X335137Y125668D01*
X335216Y125676D01*
X335293Y125697D01*
X335364Y125730D01*
X335607Y125853D01*
X335862Y125950D01*
X336124Y126023D01*
X336392Y126072D01*
X336664Y126097D01*
X336936D01*
X337208Y126072D01*
X337302Y126055D01*
Y120145D01*
X337208Y120128D01*
X336936Y120103D01*
X336664D01*
X336392Y120128D01*
X336124Y120177D01*
X335862Y120250D01*
X335607Y120347D01*
X335363Y120467D01*
X335291Y120500D01*
X335215Y120521D01*
X335137Y120529D01*
X335059Y120525D01*
X334982Y120509D01*
X334908Y120481D01*
X334840Y120442D01*
X334779Y120393D01*
X334726Y120334D01*
X334683Y120268D01*
X334651Y120196D01*
X334630Y120120D01*
X334622Y120042D01*
X334626Y119964D01*
X334642Y119887D01*
X334670Y119813D01*
X334709Y119745D01*
X334758Y119684D01*
X334817Y119631D01*
X334883Y119589D01*
X335208Y119426D01*
X335548Y119297D01*
X335898Y119199D01*
X336256Y119133D01*
X336618Y119100D01*
X336982D01*
X337302Y119129D01*
Y97100D01*
X337118D01*
X336756Y97067D01*
X336398Y97001D01*
X336048Y96903D01*
X335708Y96774D01*
X335381Y96615D01*
X335315Y96572D01*
X335256Y96519D01*
X335206Y96457D01*
X335167Y96388D01*
X335139Y96314D01*
X335123Y96237D01*
X335119Y96158D01*
X335127Y96079D01*
X335148Y96003D01*
X335180Y95930D01*
X335223Y95864D01*
X335276Y95805D01*
X335338Y95756D01*
X335407Y95716D01*
X335481Y95688D01*
X335558Y95672D01*
X335637Y95668D01*
X335716Y95676D01*
X335793Y95697D01*
X335864Y95730D01*
X336107Y95853D01*
X336362Y95950D01*
X336624Y96023D01*
X336892Y96072D01*
X337164Y96097D01*
X337302D01*
Y90103D01*
X337164D01*
X336892Y90128D01*
X336624Y90177D01*
X336362Y90250D01*
X336107Y90347D01*
X335863Y90467D01*
X335791Y90500D01*
X335715Y90521D01*
X335637Y90529D01*
X335559Y90525D01*
X335482Y90509D01*
X335408Y90481D01*
X335340Y90442D01*
X335279Y90393D01*
X335226Y90334D01*
X335183Y90268D01*
X335151Y90196D01*
X335130Y90120D01*
X335122Y90042D01*
X335126Y89964D01*
X335142Y89887D01*
X335170Y89813D01*
X335209Y89745D01*
X335258Y89684D01*
X335317Y89631D01*
X335383Y89589D01*
X335708Y89426D01*
X336048Y89297D01*
X336398Y89199D01*
X336756Y89133D01*
X337118Y89100D01*
X337302D01*
Y81573D01*
X336800Y81612D01*
X336172Y81563D01*
X335560Y81416D01*
X334978Y81175D01*
X334442Y80846D01*
X334016Y80483D01*
Y90965D01*
X334086Y90939D01*
X334163Y90923D01*
X334242Y90919D01*
X334321Y90927D01*
X334397Y90948D01*
X334470Y90980D01*
X334536Y91023D01*
X334595Y91076D01*
X334644Y91138D01*
X334684Y91207D01*
X334712Y91281D01*
X334728Y91358D01*
X334732Y91437D01*
X334724Y91516D01*
X334703Y91593D01*
X334670Y91664D01*
X334547Y91907D01*
X334450Y92162D01*
X334377Y92424D01*
X334328Y92692D01*
X334303Y92964D01*
Y93236D01*
X334328Y93508D01*
X334377Y93776D01*
X334450Y94038D01*
X334547Y94293D01*
X334667Y94537D01*
X334700Y94609D01*
X334721Y94685D01*
X334729Y94763D01*
X334725Y94841D01*
X334709Y94918D01*
X334681Y94992D01*
X334642Y95060D01*
X334593Y95121D01*
X334534Y95174D01*
X334468Y95217D01*
X334396Y95249D01*
X334320Y95270D01*
X334242Y95278D01*
X334164Y95274D01*
X334087Y95258D01*
X334016Y95231D01*
Y121010D01*
X334036Y121023D01*
X334095Y121076D01*
X334144Y121138D01*
X334184Y121207D01*
X334212Y121281D01*
X334228Y121358D01*
X334232Y121437D01*
X334224Y121516D01*
X334203Y121593D01*
X334170Y121664D01*
X334047Y121907D01*
X334016Y121989D01*
Y124211D01*
X334047Y124293D01*
X334167Y124537D01*
X334200Y124609D01*
X334221Y124685D01*
X334229Y124763D01*
X334225Y124841D01*
X334209Y124918D01*
X334181Y124992D01*
X334142Y125060D01*
X334093Y125121D01*
X334034Y125174D01*
X334016Y125186D01*
Y314000D01*
G37*
G36*
X337302Y28200D02*X334016D01*
Y74717D01*
X334442Y74354D01*
X334978Y74025D01*
X335560Y73784D01*
X336172Y73637D01*
X336800Y73588D01*
X337302Y73627D01*
Y28200D01*
G37*
G36*
X334016Y121989D02*X333950Y122162D01*
X333877Y122424D01*
X333828Y122692D01*
X333803Y122964D01*
Y123236D01*
X333828Y123508D01*
X333877Y123776D01*
X333950Y124038D01*
X334016Y124211D01*
Y121989D01*
G37*
G36*
Y28200D02*X325340D01*
Y35726D01*
X326275Y36525D01*
X327655Y38140D01*
X328766Y39952D01*
X329579Y41915D01*
X330075Y43982D01*
X330200Y46100D01*
X330075Y48218D01*
X329579Y50285D01*
X328766Y52248D01*
X327655Y54060D01*
X326275Y55675D01*
X325340Y56474D01*
Y92009D01*
X325637Y92263D01*
X326046Y92742D01*
X326375Y93278D01*
X326616Y93860D01*
X326763Y94472D01*
X326800Y95100D01*
X326763Y95728D01*
X326616Y96340D01*
X326375Y96922D01*
X326046Y97458D01*
X325637Y97937D01*
X325340Y98191D01*
Y101713D01*
X325343Y101714D01*
X325411Y101753D01*
X325472Y101802D01*
X325525Y101861D01*
X325567Y101927D01*
X325730Y102252D01*
X325859Y102592D01*
X325957Y102942D01*
X326023Y103300D01*
X326056Y103662D01*
Y104026D01*
X326023Y104388D01*
X325957Y104746D01*
X325859Y105096D01*
X325730Y105436D01*
X325571Y105763D01*
X325528Y105829D01*
X325475Y105888D01*
X325413Y105938D01*
X325344Y105977D01*
X325340Y105979D01*
Y285726D01*
X326275Y286525D01*
X327655Y288140D01*
X328766Y289952D01*
X329579Y291915D01*
X330075Y293982D01*
X330200Y296100D01*
X330075Y298218D01*
X329579Y300285D01*
X328766Y302248D01*
X327655Y304060D01*
X326275Y305675D01*
X325340Y306474D01*
Y314000D01*
X334016D01*
Y125186D01*
X333968Y125217D01*
X333896Y125249D01*
X333820Y125270D01*
X333742Y125278D01*
X333664Y125274D01*
X333587Y125258D01*
X333513Y125230D01*
X333445Y125191D01*
X333384Y125142D01*
X333331Y125083D01*
X333289Y125017D01*
X333126Y124692D01*
X332997Y124352D01*
X332899Y124002D01*
X332833Y123644D01*
X332800Y123282D01*
Y122918D01*
X332833Y122556D01*
X332899Y122198D01*
X332997Y121848D01*
X333126Y121508D01*
X333285Y121181D01*
X333328Y121115D01*
X333381Y121056D01*
X333443Y121006D01*
X333512Y120967D01*
X333586Y120939D01*
X333663Y120923D01*
X333742Y120919D01*
X333821Y120927D01*
X333897Y120948D01*
X333970Y120980D01*
X334016Y121010D01*
Y95231D01*
X334013Y95230D01*
X333945Y95191D01*
X333884Y95142D01*
X333831Y95083D01*
X333789Y95017D01*
X333626Y94692D01*
X333497Y94352D01*
X333399Y94002D01*
X333333Y93644D01*
X333300Y93282D01*
Y92918D01*
X333333Y92556D01*
X333399Y92198D01*
X333497Y91848D01*
X333626Y91508D01*
X333785Y91181D01*
X333828Y91115D01*
X333881Y91056D01*
X333943Y91006D01*
X334012Y90967D01*
X334016Y90965D01*
Y80483D01*
X333963Y80437D01*
X333554Y79958D01*
X333225Y79422D01*
X332984Y78840D01*
X332837Y78228D01*
X332788Y77600D01*
X332837Y76972D01*
X332984Y76360D01*
X333225Y75778D01*
X333554Y75242D01*
X333963Y74763D01*
X334016Y74717D01*
Y28200D01*
G37*
G36*
X325340Y306474D02*X324660Y307055D01*
X322848Y308166D01*
X322794Y308188D01*
Y314000D01*
X325340D01*
Y306474D01*
G37*
G36*
Y98191D02*X325158Y98346D01*
X324622Y98675D01*
X324040Y98916D01*
X323428Y99063D01*
X322800Y99112D01*
X322794Y99112D01*
Y99913D01*
X322958Y99943D01*
X323308Y100041D01*
X323648Y100170D01*
X323975Y100329D01*
X324041Y100372D01*
X324100Y100425D01*
X324150Y100487D01*
X324189Y100556D01*
X324217Y100630D01*
X324233Y100707D01*
X324237Y100786D01*
X324229Y100865D01*
X324208Y100941D01*
X324176Y101014D01*
X324133Y101080D01*
X324080Y101139D01*
X324018Y101188D01*
X323949Y101228D01*
X323875Y101256D01*
X323798Y101272D01*
X323719Y101276D01*
X323640Y101268D01*
X323563Y101247D01*
X323492Y101214D01*
X323249Y101091D01*
X322994Y100994D01*
X322794Y100938D01*
Y106750D01*
X322994Y106694D01*
X323249Y106597D01*
X323493Y106477D01*
X323565Y106444D01*
X323640Y106423D01*
X323719Y106415D01*
X323797Y106419D01*
X323874Y106435D01*
X323948Y106463D01*
X324016Y106502D01*
X324077Y106551D01*
X324130Y106610D01*
X324173Y106676D01*
X324205Y106748D01*
X324226Y106824D01*
X324234Y106902D01*
X324230Y106980D01*
X324214Y107057D01*
X324186Y107131D01*
X324147Y107199D01*
X324098Y107260D01*
X324039Y107313D01*
X323973Y107355D01*
X323648Y107518D01*
X323308Y107647D01*
X322958Y107745D01*
X322794Y107775D01*
Y284012D01*
X322848Y284034D01*
X324660Y285145D01*
X325340Y285726D01*
Y105979D01*
X325270Y106005D01*
X325193Y106021D01*
X325114Y106025D01*
X325035Y106017D01*
X324959Y105996D01*
X324886Y105964D01*
X324820Y105921D01*
X324761Y105868D01*
X324712Y105806D01*
X324672Y105737D01*
X324644Y105663D01*
X324628Y105586D01*
X324624Y105507D01*
X324632Y105428D01*
X324653Y105351D01*
X324686Y105280D01*
X324809Y105037D01*
X324906Y104782D01*
X324979Y104520D01*
X325028Y104252D01*
X325053Y103980D01*
Y103708D01*
X325028Y103436D01*
X324979Y103168D01*
X324906Y102906D01*
X324809Y102651D01*
X324689Y102407D01*
X324656Y102335D01*
X324635Y102260D01*
X324627Y102181D01*
X324631Y102103D01*
X324647Y102026D01*
X324675Y101952D01*
X324714Y101884D01*
X324763Y101823D01*
X324822Y101770D01*
X324888Y101727D01*
X324960Y101695D01*
X325036Y101674D01*
X325114Y101666D01*
X325192Y101670D01*
X325269Y101686D01*
X325340Y101713D01*
Y98191D01*
G37*
G36*
Y56474D02*X324660Y57055D01*
X322848Y58166D01*
X322794Y58188D01*
Y91088D01*
X322800Y91088D01*
X323428Y91137D01*
X324040Y91284D01*
X324622Y91525D01*
X325158Y91854D01*
X325340Y92009D01*
Y56474D01*
G37*
G36*
Y28200D02*X322794D01*
Y34012D01*
X322848Y34034D01*
X324660Y35145D01*
X325340Y35726D01*
Y28200D01*
G37*
G36*
X306084Y314000D02*X322794D01*
Y308188D01*
X320885Y308979D01*
X318818Y309475D01*
X316700Y309642D01*
X314582Y309475D01*
X312515Y308979D01*
X310552Y308166D01*
X308740Y307055D01*
X307125Y305675D01*
X306084Y304457D01*
Y314000D01*
G37*
G36*
X320084Y92160D02*X320442Y91854D01*
X320978Y91525D01*
X321560Y91284D01*
X322172Y91137D01*
X322794Y91088D01*
Y58188D01*
X320885Y58979D01*
X320084Y59171D01*
Y92160D01*
G37*
G36*
Y100368D02*X320139Y100333D01*
X320464Y100170D01*
X320804Y100041D01*
X321154Y99943D01*
X321512Y99877D01*
X321874Y99844D01*
X322238D01*
X322600Y99877D01*
X322794Y99913D01*
Y99112D01*
X322172Y99063D01*
X321560Y98916D01*
X320978Y98675D01*
X320442Y98346D01*
X320084Y98040D01*
Y100368D01*
G37*
G36*
Y106508D02*X320094Y106500D01*
X320163Y106460D01*
X320237Y106432D01*
X320314Y106416D01*
X320393Y106412D01*
X320472Y106420D01*
X320549Y106441D01*
X320620Y106474D01*
X320863Y106597D01*
X321118Y106694D01*
X321380Y106767D01*
X321648Y106816D01*
X321920Y106841D01*
X322192D01*
X322464Y106816D01*
X322732Y106767D01*
X322794Y106750D01*
Y100938D01*
X322732Y100921D01*
X322464Y100872D01*
X322192Y100847D01*
X321920D01*
X321648Y100872D01*
X321380Y100921D01*
X321118Y100994D01*
X320863Y101091D01*
X320619Y101211D01*
X320547Y101244D01*
X320471Y101265D01*
X320393Y101273D01*
X320315Y101269D01*
X320238Y101253D01*
X320164Y101225D01*
X320096Y101186D01*
X320084Y101176D01*
Y106508D01*
G37*
G36*
Y283029D02*X320885Y283221D01*
X322794Y284012D01*
Y107775D01*
X322600Y107811D01*
X322238Y107844D01*
X321874D01*
X321512Y107811D01*
X321154Y107745D01*
X320804Y107647D01*
X320464Y107518D01*
X320137Y107359D01*
X320084Y107324D01*
Y117469D01*
X320087Y117470D01*
X320155Y117509D01*
X320216Y117558D01*
X320269Y117617D01*
X320311Y117683D01*
X320474Y118008D01*
X320603Y118348D01*
X320701Y118698D01*
X320767Y119056D01*
X320800Y119418D01*
Y119782D01*
X320767Y120144D01*
X320701Y120502D01*
X320603Y120852D01*
X320474Y121192D01*
X320315Y121519D01*
X320272Y121585D01*
X320219Y121644D01*
X320157Y121694D01*
X320088Y121733D01*
X320084Y121735D01*
Y283029D01*
G37*
G36*
X318772Y282721D02*X318818Y282725D01*
X320084Y283029D01*
Y121735D01*
X320014Y121761D01*
X319937Y121777D01*
X319858Y121781D01*
X319779Y121773D01*
X319703Y121752D01*
X319630Y121720D01*
X319564Y121677D01*
X319505Y121624D01*
X319456Y121562D01*
X319416Y121493D01*
X319388Y121419D01*
X319372Y121342D01*
X319368Y121263D01*
X319376Y121184D01*
X319397Y121107D01*
X319430Y121036D01*
X319553Y120793D01*
X319650Y120538D01*
X319723Y120276D01*
X319772Y120008D01*
X319797Y119736D01*
Y119464D01*
X319772Y119192D01*
X319723Y118924D01*
X319650Y118662D01*
X319553Y118407D01*
X319433Y118163D01*
X319400Y118091D01*
X319379Y118016D01*
X319371Y117937D01*
X319375Y117859D01*
X319391Y117782D01*
X319419Y117708D01*
X319458Y117640D01*
X319507Y117579D01*
X319566Y117526D01*
X319632Y117483D01*
X319704Y117451D01*
X319780Y117430D01*
X319858Y117422D01*
X319936Y117426D01*
X320013Y117442D01*
X320084Y117469D01*
Y107324D01*
X320071Y107316D01*
X320012Y107263D01*
X319962Y107201D01*
X319923Y107132D01*
X319895Y107058D01*
X319879Y106981D01*
X319875Y106902D01*
X319883Y106823D01*
X319904Y106747D01*
X319936Y106674D01*
X319979Y106608D01*
X320032Y106549D01*
X320084Y106508D01*
Y101176D01*
X320035Y101137D01*
X319982Y101078D01*
X319939Y101012D01*
X319907Y100940D01*
X319886Y100864D01*
X319878Y100786D01*
X319882Y100708D01*
X319898Y100631D01*
X319926Y100557D01*
X319965Y100489D01*
X320014Y100428D01*
X320073Y100375D01*
X320084Y100368D01*
Y98040D01*
X319963Y97937D01*
X319554Y97458D01*
X319225Y96922D01*
X318984Y96340D01*
X318837Y95728D01*
X318788Y95100D01*
X318837Y94472D01*
X318984Y93860D01*
X319225Y93278D01*
X319554Y92742D01*
X319963Y92263D01*
X320084Y92160D01*
Y59171D01*
X318818Y59475D01*
X318772Y59479D01*
Y101709D01*
X318842Y101683D01*
X318919Y101667D01*
X318998Y101663D01*
X319077Y101671D01*
X319153Y101692D01*
X319226Y101724D01*
X319292Y101767D01*
X319351Y101820D01*
X319400Y101882D01*
X319440Y101951D01*
X319468Y102025D01*
X319484Y102102D01*
X319488Y102181D01*
X319480Y102260D01*
X319459Y102337D01*
X319426Y102408D01*
X319303Y102651D01*
X319206Y102906D01*
X319133Y103168D01*
X319084Y103436D01*
X319059Y103708D01*
Y103980D01*
X319084Y104252D01*
X319133Y104520D01*
X319206Y104782D01*
X319303Y105037D01*
X319423Y105281D01*
X319456Y105353D01*
X319477Y105429D01*
X319485Y105507D01*
X319481Y105585D01*
X319465Y105662D01*
X319437Y105736D01*
X319398Y105804D01*
X319349Y105865D01*
X319290Y105918D01*
X319224Y105961D01*
X319152Y105993D01*
X319076Y106014D01*
X318998Y106022D01*
X318920Y106018D01*
X318843Y106002D01*
X318772Y105975D01*
Y116120D01*
X318785Y116128D01*
X318844Y116181D01*
X318894Y116243D01*
X318933Y116312D01*
X318961Y116386D01*
X318977Y116463D01*
X318981Y116542D01*
X318973Y116621D01*
X318952Y116697D01*
X318920Y116770D01*
X318877Y116836D01*
X318824Y116895D01*
X318772Y116936D01*
Y122268D01*
X318821Y122307D01*
X318874Y122366D01*
X318917Y122432D01*
X318949Y122504D01*
X318970Y122580D01*
X318978Y122658D01*
X318974Y122736D01*
X318958Y122813D01*
X318930Y122887D01*
X318891Y122955D01*
X318842Y123016D01*
X318783Y123069D01*
X318772Y123076D01*
Y282721D01*
G37*
G36*
X313516Y282981D02*X314582Y282725D01*
X316700Y282558D01*
X318772Y282721D01*
Y123076D01*
X318717Y123111D01*
X318392Y123274D01*
X318052Y123403D01*
X317702Y123501D01*
X317344Y123567D01*
X316982Y123600D01*
X316618D01*
X316256Y123567D01*
X315898Y123501D01*
X315548Y123403D01*
X315208Y123274D01*
X314881Y123115D01*
X314815Y123072D01*
X314756Y123019D01*
X314706Y122957D01*
X314667Y122888D01*
X314639Y122814D01*
X314623Y122737D01*
X314619Y122658D01*
X314627Y122579D01*
X314648Y122503D01*
X314680Y122430D01*
X314723Y122364D01*
X314776Y122305D01*
X314838Y122256D01*
X314907Y122216D01*
X314981Y122188D01*
X315058Y122172D01*
X315137Y122168D01*
X315216Y122176D01*
X315293Y122197D01*
X315364Y122230D01*
X315607Y122353D01*
X315862Y122450D01*
X316124Y122523D01*
X316392Y122572D01*
X316664Y122597D01*
X316936D01*
X317208Y122572D01*
X317476Y122523D01*
X317738Y122450D01*
X317993Y122353D01*
X318237Y122233D01*
X318309Y122200D01*
X318384Y122179D01*
X318463Y122171D01*
X318541Y122175D01*
X318618Y122191D01*
X318692Y122219D01*
X318760Y122258D01*
X318772Y122268D01*
Y116936D01*
X318762Y116944D01*
X318693Y116984D01*
X318619Y117012D01*
X318542Y117028D01*
X318463Y117032D01*
X318384Y117024D01*
X318307Y117003D01*
X318236Y116970D01*
X317993Y116847D01*
X317738Y116750D01*
X317476Y116677D01*
X317208Y116628D01*
X316936Y116603D01*
X316664D01*
X316392Y116628D01*
X316124Y116677D01*
X315862Y116750D01*
X315607Y116847D01*
X315363Y116967D01*
X315291Y117000D01*
X315215Y117021D01*
X315137Y117029D01*
X315059Y117025D01*
X314982Y117009D01*
X314908Y116981D01*
X314840Y116942D01*
X314779Y116893D01*
X314726Y116834D01*
X314683Y116768D01*
X314651Y116696D01*
X314630Y116620D01*
X314622Y116542D01*
X314626Y116464D01*
X314642Y116387D01*
X314670Y116313D01*
X314709Y116245D01*
X314758Y116184D01*
X314817Y116131D01*
X314883Y116089D01*
X315208Y115926D01*
X315548Y115797D01*
X315898Y115699D01*
X316256Y115633D01*
X316618Y115600D01*
X316982D01*
X317344Y115633D01*
X317702Y115699D01*
X318052Y115797D01*
X318392Y115926D01*
X318719Y116085D01*
X318772Y116120D01*
Y105975D01*
X318769Y105974D01*
X318701Y105935D01*
X318640Y105886D01*
X318587Y105827D01*
X318545Y105761D01*
X318382Y105436D01*
X318253Y105096D01*
X318155Y104746D01*
X318089Y104388D01*
X318056Y104026D01*
Y103662D01*
X318089Y103300D01*
X318155Y102942D01*
X318253Y102592D01*
X318382Y102252D01*
X318541Y101925D01*
X318584Y101859D01*
X318637Y101800D01*
X318699Y101750D01*
X318768Y101711D01*
X318772Y101709D01*
Y59479D01*
X316700Y59642D01*
X314582Y59475D01*
X313516Y59219D01*
Y117465D01*
X313586Y117439D01*
X313663Y117423D01*
X313742Y117419D01*
X313821Y117427D01*
X313897Y117448D01*
X313970Y117480D01*
X314036Y117523D01*
X314095Y117576D01*
X314144Y117638D01*
X314184Y117707D01*
X314212Y117781D01*
X314228Y117858D01*
X314232Y117937D01*
X314224Y118016D01*
X314203Y118093D01*
X314170Y118164D01*
X314047Y118407D01*
X313950Y118662D01*
X313877Y118924D01*
X313828Y119192D01*
X313803Y119464D01*
Y119736D01*
X313828Y120008D01*
X313877Y120276D01*
X313950Y120538D01*
X314047Y120793D01*
X314167Y121037D01*
X314200Y121109D01*
X314221Y121185D01*
X314229Y121263D01*
X314225Y121341D01*
X314209Y121418D01*
X314181Y121492D01*
X314142Y121560D01*
X314093Y121621D01*
X314034Y121674D01*
X313968Y121717D01*
X313896Y121749D01*
X313820Y121770D01*
X313742Y121778D01*
X313664Y121774D01*
X313587Y121758D01*
X313516Y121731D01*
Y282981D01*
G37*
G36*
X306084Y109303D02*X306375Y109778D01*
X306616Y110360D01*
X306763Y110972D01*
X306800Y111600D01*
X306763Y112228D01*
X306616Y112840D01*
X306375Y113422D01*
X306084Y113897D01*
Y287743D01*
X307125Y286525D01*
X308740Y285145D01*
X310552Y284034D01*
X312515Y283221D01*
X313516Y282981D01*
Y121731D01*
X313513Y121730D01*
X313445Y121691D01*
X313384Y121642D01*
X313331Y121583D01*
X313289Y121517D01*
X313126Y121192D01*
X312997Y120852D01*
X312899Y120502D01*
X312833Y120144D01*
X312800Y119782D01*
Y119418D01*
X312833Y119056D01*
X312899Y118698D01*
X312997Y118348D01*
X313126Y118008D01*
X313285Y117681D01*
X313328Y117615D01*
X313381Y117556D01*
X313443Y117506D01*
X313512Y117467D01*
X313516Y117465D01*
Y59219D01*
X312515Y58979D01*
X310552Y58166D01*
X308740Y57055D01*
X307125Y55675D01*
X306084Y54457D01*
Y92969D01*
X306087Y92970D01*
X306155Y93009D01*
X306216Y93058D01*
X306269Y93117D01*
X306311Y93183D01*
X306474Y93508D01*
X306603Y93848D01*
X306701Y94198D01*
X306767Y94556D01*
X306800Y94918D01*
Y95282D01*
X306767Y95644D01*
X306701Y96002D01*
X306603Y96352D01*
X306474Y96692D01*
X306315Y97019D01*
X306272Y97085D01*
X306219Y97144D01*
X306157Y97194D01*
X306088Y97233D01*
X306084Y97235D01*
Y109303D01*
G37*
G36*
X322794Y28200D02*X306084D01*
Y37743D01*
X307125Y36525D01*
X308740Y35145D01*
X310552Y34034D01*
X312515Y33221D01*
X314582Y32725D01*
X316700Y32558D01*
X318818Y32725D01*
X320885Y33221D01*
X322794Y34012D01*
Y28200D01*
G37*
G36*
X306084Y113897D02*X306046Y113958D01*
X305637Y114437D01*
X305158Y114846D01*
X304622Y115175D01*
X304040Y115416D01*
X303428Y115563D01*
X302802Y115612D01*
Y314000D01*
X306084D01*
Y304457D01*
X305745Y304060D01*
X304634Y302248D01*
X303821Y300285D01*
X303325Y298218D01*
X303158Y296100D01*
X303325Y293982D01*
X303821Y291915D01*
X304634Y289952D01*
X305745Y288140D01*
X306084Y287743D01*
Y113897D01*
G37*
G36*
Y28200D02*X302802D01*
Y91100D01*
X302982D01*
X303344Y91133D01*
X303702Y91199D01*
X304052Y91297D01*
X304392Y91426D01*
X304719Y91585D01*
X304785Y91628D01*
X304844Y91681D01*
X304894Y91743D01*
X304933Y91812D01*
X304961Y91886D01*
X304977Y91963D01*
X304981Y92042D01*
X304973Y92121D01*
X304952Y92197D01*
X304920Y92270D01*
X304877Y92336D01*
X304824Y92395D01*
X304762Y92444D01*
X304693Y92484D01*
X304619Y92512D01*
X304542Y92528D01*
X304463Y92532D01*
X304384Y92524D01*
X304307Y92503D01*
X304236Y92470D01*
X303993Y92347D01*
X303738Y92250D01*
X303476Y92177D01*
X303208Y92128D01*
X302936Y92103D01*
X302802D01*
Y98097D01*
X302936D01*
X303208Y98072D01*
X303476Y98023D01*
X303738Y97950D01*
X303993Y97853D01*
X304237Y97733D01*
X304309Y97700D01*
X304384Y97679D01*
X304463Y97671D01*
X304541Y97675D01*
X304618Y97691D01*
X304692Y97719D01*
X304760Y97758D01*
X304821Y97807D01*
X304874Y97866D01*
X304917Y97932D01*
X304949Y98004D01*
X304970Y98080D01*
X304978Y98158D01*
X304974Y98236D01*
X304958Y98313D01*
X304930Y98387D01*
X304891Y98455D01*
X304842Y98516D01*
X304783Y98569D01*
X304717Y98611D01*
X304392Y98774D01*
X304052Y98903D01*
X303702Y99001D01*
X303344Y99067D01*
X302982Y99100D01*
X302802D01*
Y107588D01*
X303428Y107637D01*
X304040Y107784D01*
X304622Y108025D01*
X305158Y108354D01*
X305637Y108763D01*
X306046Y109242D01*
X306084Y109303D01*
Y97235D01*
X306014Y97261D01*
X305937Y97277D01*
X305858Y97281D01*
X305779Y97273D01*
X305703Y97252D01*
X305630Y97220D01*
X305564Y97177D01*
X305505Y97124D01*
X305456Y97062D01*
X305416Y96993D01*
X305388Y96919D01*
X305372Y96842D01*
X305368Y96763D01*
X305376Y96684D01*
X305397Y96607D01*
X305430Y96536D01*
X305553Y96293D01*
X305650Y96038D01*
X305723Y95776D01*
X305772Y95508D01*
X305797Y95236D01*
Y94964D01*
X305772Y94692D01*
X305723Y94424D01*
X305650Y94162D01*
X305553Y93907D01*
X305433Y93663D01*
X305400Y93591D01*
X305379Y93516D01*
X305371Y93437D01*
X305375Y93359D01*
X305391Y93282D01*
X305419Y93208D01*
X305458Y93140D01*
X305507Y93079D01*
X305566Y93026D01*
X305632Y92983D01*
X305704Y92951D01*
X305780Y92930D01*
X305858Y92922D01*
X305936Y92926D01*
X306013Y92942D01*
X306084Y92969D01*
Y54457D01*
X305745Y54060D01*
X304634Y52248D01*
X303821Y50285D01*
X303325Y48218D01*
X303158Y46100D01*
X303325Y43982D01*
X303821Y41915D01*
X304634Y39952D01*
X305745Y38140D01*
X306084Y37743D01*
Y28200D01*
G37*
G36*
X299516Y314000D02*X302802D01*
Y115612D01*
X302800Y115612D01*
X302172Y115563D01*
X301560Y115416D01*
X300978Y115175D01*
X300442Y114846D01*
X299963Y114437D01*
X299554Y113958D01*
X299516Y113897D01*
Y314000D01*
G37*
G36*
X302802Y28200D02*X299516D01*
Y92965D01*
X299586Y92939D01*
X299663Y92923D01*
X299742Y92919D01*
X299821Y92927D01*
X299897Y92948D01*
X299970Y92980D01*
X300036Y93023D01*
X300095Y93076D01*
X300144Y93138D01*
X300184Y93207D01*
X300212Y93281D01*
X300228Y93358D01*
X300232Y93437D01*
X300224Y93516D01*
X300203Y93593D01*
X300170Y93664D01*
X300047Y93907D01*
X299950Y94162D01*
X299877Y94424D01*
X299828Y94692D01*
X299803Y94964D01*
Y95236D01*
X299828Y95508D01*
X299877Y95776D01*
X299950Y96038D01*
X300047Y96293D01*
X300167Y96537D01*
X300200Y96609D01*
X300221Y96685D01*
X300229Y96763D01*
X300225Y96841D01*
X300209Y96918D01*
X300181Y96992D01*
X300142Y97060D01*
X300093Y97121D01*
X300034Y97174D01*
X299968Y97217D01*
X299896Y97249D01*
X299820Y97270D01*
X299742Y97278D01*
X299664Y97274D01*
X299587Y97258D01*
X299516Y97231D01*
Y109303D01*
X299554Y109242D01*
X299963Y108763D01*
X300442Y108354D01*
X300978Y108025D01*
X301560Y107784D01*
X302172Y107637D01*
X302800Y107588D01*
X302802Y107588D01*
Y99100D01*
X302618D01*
X302256Y99067D01*
X301898Y99001D01*
X301548Y98903D01*
X301208Y98774D01*
X300881Y98615D01*
X300815Y98572D01*
X300756Y98519D01*
X300706Y98457D01*
X300667Y98388D01*
X300639Y98314D01*
X300623Y98237D01*
X300619Y98158D01*
X300627Y98079D01*
X300648Y98003D01*
X300680Y97930D01*
X300723Y97864D01*
X300776Y97805D01*
X300838Y97756D01*
X300907Y97716D01*
X300981Y97688D01*
X301058Y97672D01*
X301137Y97668D01*
X301216Y97676D01*
X301293Y97697D01*
X301364Y97730D01*
X301607Y97853D01*
X301862Y97950D01*
X302124Y98023D01*
X302392Y98072D01*
X302664Y98097D01*
X302802D01*
Y92103D01*
X302664D01*
X302392Y92128D01*
X302124Y92177D01*
X301862Y92250D01*
X301607Y92347D01*
X301363Y92467D01*
X301291Y92500D01*
X301215Y92521D01*
X301137Y92529D01*
X301059Y92525D01*
X300982Y92509D01*
X300908Y92481D01*
X300840Y92442D01*
X300779Y92393D01*
X300726Y92334D01*
X300683Y92268D01*
X300651Y92196D01*
X300630Y92120D01*
X300622Y92042D01*
X300626Y91964D01*
X300642Y91887D01*
X300670Y91813D01*
X300709Y91745D01*
X300758Y91684D01*
X300817Y91631D01*
X300883Y91589D01*
X301208Y91426D01*
X301548Y91297D01*
X301898Y91199D01*
X302256Y91133D01*
X302618Y91100D01*
X302802D01*
Y28200D01*
G37*
G36*
X299516D02*X273130D01*
Y194714D01*
X273198Y194728D01*
X273271Y194755D01*
X273340Y194794D01*
X273402Y194843D01*
X273455Y194901D01*
X273498Y194966D01*
X273530Y195038D01*
X273606Y195271D01*
X273660Y195511D01*
X273692Y195755D01*
X273703Y196000D01*
X273692Y196245D01*
X273660Y196489D01*
X273606Y196729D01*
X273532Y196963D01*
X273500Y197035D01*
X273456Y197100D01*
X273403Y197159D01*
X273341Y197208D01*
X273272Y197246D01*
X273198Y197274D01*
X273130Y197288D01*
Y314000D01*
X299516D01*
Y113897D01*
X299225Y113422D01*
X298984Y112840D01*
X298837Y112228D01*
X298788Y111600D01*
X298837Y110972D01*
X298984Y110360D01*
X299225Y109778D01*
X299516Y109303D01*
Y97231D01*
X299513Y97230D01*
X299445Y97191D01*
X299384Y97142D01*
X299331Y97083D01*
X299289Y97017D01*
X299126Y96692D01*
X298997Y96352D01*
X298899Y96002D01*
X298833Y95644D01*
X298800Y95282D01*
Y94918D01*
X298833Y94556D01*
X298899Y94198D01*
X298997Y93848D01*
X299126Y93508D01*
X299285Y93181D01*
X299328Y93115D01*
X299381Y93056D01*
X299443Y93006D01*
X299512Y92967D01*
X299516Y92965D01*
Y28200D01*
G37*
G36*
X273130D02*X270901D01*
Y193197D01*
X271145Y193208D01*
X271389Y193240D01*
X271629Y193294D01*
X271863Y193368D01*
X271935Y193400D01*
X272000Y193444D01*
X272059Y193497D01*
X272108Y193559D01*
X272146Y193628D01*
X272174Y193702D01*
X272190Y193779D01*
X272193Y193858D01*
X272184Y193937D01*
X272163Y194013D01*
X272130Y194085D01*
X272086Y194150D01*
X272033Y194209D01*
X271971Y194258D01*
X271902Y194296D01*
X271828Y194324D01*
X271751Y194340D01*
X271672Y194343D01*
X271593Y194334D01*
X271518Y194311D01*
X271368Y194262D01*
X271214Y194228D01*
X271058Y194207D01*
X270901Y194200D01*
Y197800D01*
X271058Y197793D01*
X271214Y197772D01*
X271368Y197738D01*
X271518Y197690D01*
X271594Y197668D01*
X271672Y197659D01*
X271750Y197662D01*
X271827Y197678D01*
X271901Y197705D01*
X271970Y197744D01*
X272031Y197793D01*
X272085Y197851D01*
X272128Y197916D01*
X272161Y197988D01*
X272182Y198064D01*
X272191Y198142D01*
X272188Y198220D01*
X272172Y198298D01*
X272145Y198371D01*
X272106Y198440D01*
X272057Y198502D01*
X271999Y198555D01*
X271934Y198598D01*
X271862Y198630D01*
X271629Y198706D01*
X271389Y198760D01*
X271145Y198792D01*
X270901Y198803D01*
Y314000D01*
X273130D01*
Y197288D01*
X273121Y197290D01*
X273042Y197293D01*
X272963Y197284D01*
X272887Y197263D01*
X272815Y197230D01*
X272750Y197186D01*
X272691Y197133D01*
X272642Y197071D01*
X272604Y197002D01*
X272576Y196928D01*
X272560Y196851D01*
X272557Y196772D01*
X272566Y196693D01*
X272589Y196618D01*
X272638Y196468D01*
X272672Y196314D01*
X272693Y196158D01*
X272700Y196000D01*
X272693Y195842D01*
X272672Y195686D01*
X272638Y195532D01*
X272590Y195382D01*
X272568Y195306D01*
X272559Y195228D01*
X272562Y195150D01*
X272578Y195073D01*
X272605Y194999D01*
X272644Y194930D01*
X272693Y194869D01*
X272751Y194815D01*
X272816Y194772D01*
X272888Y194739D01*
X272964Y194718D01*
X273042Y194709D01*
X273120Y194712D01*
X273130Y194714D01*
Y28200D01*
G37*
G36*
X270901D02*X268670D01*
Y194712D01*
X268679Y194710D01*
X268758Y194707D01*
X268837Y194716D01*
X268913Y194737D01*
X268985Y194770D01*
X269050Y194814D01*
X269109Y194867D01*
X269158Y194929D01*
X269196Y194998D01*
X269224Y195072D01*
X269240Y195149D01*
X269243Y195228D01*
X269234Y195307D01*
X269211Y195382D01*
X269162Y195532D01*
X269128Y195686D01*
X269107Y195842D01*
X269100Y196000D01*
X269107Y196158D01*
X269128Y196314D01*
X269162Y196468D01*
X269210Y196618D01*
X269232Y196694D01*
X269241Y196772D01*
X269238Y196850D01*
X269222Y196927D01*
X269195Y197001D01*
X269156Y197070D01*
X269107Y197131D01*
X269049Y197185D01*
X268984Y197228D01*
X268912Y197261D01*
X268836Y197282D01*
X268758Y197291D01*
X268680Y197288D01*
X268670Y197286D01*
Y314000D01*
X270901D01*
Y198803D01*
X270900Y198803D01*
X270655Y198792D01*
X270411Y198760D01*
X270171Y198706D01*
X269937Y198632D01*
X269865Y198600D01*
X269800Y198556D01*
X269741Y198503D01*
X269692Y198441D01*
X269654Y198372D01*
X269626Y198298D01*
X269610Y198221D01*
X269607Y198142D01*
X269616Y198063D01*
X269637Y197987D01*
X269670Y197915D01*
X269714Y197850D01*
X269767Y197791D01*
X269829Y197742D01*
X269898Y197704D01*
X269972Y197676D01*
X270049Y197660D01*
X270128Y197657D01*
X270207Y197666D01*
X270282Y197689D01*
X270432Y197738D01*
X270586Y197772D01*
X270742Y197793D01*
X270900Y197800D01*
X270901Y197800D01*
Y194200D01*
X270900Y194200D01*
X270742Y194207D01*
X270586Y194228D01*
X270432Y194262D01*
X270282Y194310D01*
X270206Y194332D01*
X270128Y194341D01*
X270050Y194338D01*
X269973Y194322D01*
X269899Y194295D01*
X269830Y194256D01*
X269769Y194207D01*
X269715Y194149D01*
X269672Y194084D01*
X269639Y194012D01*
X269618Y193936D01*
X269609Y193858D01*
X269612Y193780D01*
X269628Y193702D01*
X269655Y193629D01*
X269694Y193560D01*
X269743Y193498D01*
X269801Y193445D01*
X269866Y193402D01*
X269938Y193370D01*
X270171Y193294D01*
X270411Y193240D01*
X270655Y193208D01*
X270900Y193197D01*
X270901Y193197D01*
Y28200D01*
G37*
G36*
X268670D02*X253630D01*
Y194714D01*
X253698Y194728D01*
X253771Y194755D01*
X253840Y194794D01*
X253902Y194843D01*
X253955Y194901D01*
X253998Y194966D01*
X254030Y195038D01*
X254106Y195271D01*
X254160Y195511D01*
X254192Y195755D01*
X254203Y196000D01*
X254192Y196245D01*
X254160Y196489D01*
X254106Y196729D01*
X254032Y196963D01*
X254000Y197035D01*
X253956Y197100D01*
X253903Y197159D01*
X253841Y197208D01*
X253772Y197246D01*
X253698Y197274D01*
X253630Y197288D01*
Y314000D01*
X268670D01*
Y197286D01*
X268602Y197272D01*
X268529Y197245D01*
X268460Y197206D01*
X268398Y197157D01*
X268345Y197099D01*
X268302Y197034D01*
X268270Y196962D01*
X268194Y196729D01*
X268140Y196489D01*
X268108Y196245D01*
X268097Y196000D01*
X268108Y195755D01*
X268140Y195511D01*
X268194Y195271D01*
X268268Y195037D01*
X268300Y194965D01*
X268344Y194900D01*
X268397Y194841D01*
X268459Y194792D01*
X268528Y194754D01*
X268602Y194726D01*
X268670Y194712D01*
Y28200D01*
G37*
G36*
X253630D02*X251401D01*
Y193197D01*
X251645Y193208D01*
X251889Y193240D01*
X252129Y193294D01*
X252363Y193368D01*
X252435Y193400D01*
X252500Y193444D01*
X252559Y193497D01*
X252608Y193559D01*
X252646Y193628D01*
X252674Y193702D01*
X252690Y193779D01*
X252693Y193858D01*
X252684Y193937D01*
X252663Y194013D01*
X252630Y194085D01*
X252586Y194150D01*
X252533Y194209D01*
X252471Y194258D01*
X252402Y194296D01*
X252328Y194324D01*
X252251Y194340D01*
X252172Y194343D01*
X252093Y194334D01*
X252018Y194311D01*
X251868Y194262D01*
X251714Y194228D01*
X251558Y194207D01*
X251401Y194200D01*
Y197800D01*
X251558Y197793D01*
X251714Y197772D01*
X251868Y197738D01*
X252018Y197690D01*
X252094Y197668D01*
X252172Y197659D01*
X252250Y197662D01*
X252327Y197678D01*
X252401Y197705D01*
X252470Y197744D01*
X252531Y197793D01*
X252585Y197851D01*
X252628Y197916D01*
X252661Y197988D01*
X252682Y198064D01*
X252691Y198142D01*
X252688Y198220D01*
X252672Y198298D01*
X252645Y198371D01*
X252606Y198440D01*
X252557Y198502D01*
X252499Y198555D01*
X252434Y198598D01*
X252362Y198630D01*
X252129Y198706D01*
X251889Y198760D01*
X251645Y198792D01*
X251401Y198803D01*
Y314000D01*
X253630D01*
Y197288D01*
X253621Y197290D01*
X253542Y197293D01*
X253463Y197284D01*
X253387Y197263D01*
X253315Y197230D01*
X253250Y197186D01*
X253191Y197133D01*
X253142Y197071D01*
X253104Y197002D01*
X253076Y196928D01*
X253060Y196851D01*
X253057Y196772D01*
X253066Y196693D01*
X253089Y196618D01*
X253138Y196468D01*
X253172Y196314D01*
X253193Y196158D01*
X253200Y196000D01*
X253193Y195842D01*
X253172Y195686D01*
X253138Y195532D01*
X253090Y195382D01*
X253068Y195306D01*
X253059Y195228D01*
X253062Y195150D01*
X253078Y195073D01*
X253105Y194999D01*
X253144Y194930D01*
X253193Y194869D01*
X253251Y194815D01*
X253316Y194772D01*
X253388Y194739D01*
X253464Y194718D01*
X253542Y194709D01*
X253620Y194712D01*
X253630Y194714D01*
Y28200D01*
G37*
G36*
X251401D02*X249170D01*
Y194712D01*
X249179Y194710D01*
X249258Y194707D01*
X249337Y194716D01*
X249413Y194737D01*
X249485Y194770D01*
X249550Y194814D01*
X249609Y194867D01*
X249658Y194929D01*
X249696Y194998D01*
X249724Y195072D01*
X249740Y195149D01*
X249743Y195228D01*
X249734Y195307D01*
X249711Y195382D01*
X249662Y195532D01*
X249628Y195686D01*
X249607Y195842D01*
X249600Y196000D01*
X249607Y196158D01*
X249628Y196314D01*
X249662Y196468D01*
X249710Y196618D01*
X249732Y196694D01*
X249741Y196772D01*
X249738Y196850D01*
X249722Y196927D01*
X249695Y197001D01*
X249656Y197070D01*
X249607Y197131D01*
X249549Y197185D01*
X249484Y197228D01*
X249412Y197261D01*
X249336Y197282D01*
X249258Y197291D01*
X249180Y197288D01*
X249170Y197286D01*
Y314000D01*
X251401D01*
Y198803D01*
X251400Y198803D01*
X251155Y198792D01*
X250911Y198760D01*
X250671Y198706D01*
X250437Y198632D01*
X250365Y198600D01*
X250300Y198556D01*
X250241Y198503D01*
X250192Y198441D01*
X250154Y198372D01*
X250126Y198298D01*
X250110Y198221D01*
X250107Y198142D01*
X250116Y198063D01*
X250137Y197987D01*
X250170Y197915D01*
X250214Y197850D01*
X250267Y197791D01*
X250329Y197742D01*
X250398Y197704D01*
X250472Y197676D01*
X250549Y197660D01*
X250628Y197657D01*
X250707Y197666D01*
X250782Y197689D01*
X250932Y197738D01*
X251086Y197772D01*
X251242Y197793D01*
X251400Y197800D01*
X251401Y197800D01*
Y194200D01*
X251400Y194200D01*
X251242Y194207D01*
X251086Y194228D01*
X250932Y194262D01*
X250782Y194310D01*
X250706Y194332D01*
X250628Y194341D01*
X250550Y194338D01*
X250473Y194322D01*
X250399Y194295D01*
X250330Y194256D01*
X250269Y194207D01*
X250215Y194149D01*
X250172Y194084D01*
X250139Y194012D01*
X250118Y193936D01*
X250109Y193858D01*
X250112Y193780D01*
X250128Y193702D01*
X250155Y193629D01*
X250194Y193560D01*
X250243Y193498D01*
X250301Y193445D01*
X250366Y193402D01*
X250438Y193370D01*
X250671Y193294D01*
X250911Y193240D01*
X251155Y193208D01*
X251400Y193197D01*
X251401Y193197D01*
Y28200D01*
G37*
G36*
X249170D02*X232684D01*
Y187369D01*
X232687Y187370D01*
X232755Y187409D01*
X232816Y187458D01*
X232869Y187517D01*
X232911Y187583D01*
X233074Y187908D01*
X233203Y188248D01*
X233301Y188598D01*
X233367Y188956D01*
X233400Y189318D01*
Y189682D01*
X233367Y190044D01*
X233301Y190402D01*
X233203Y190752D01*
X233074Y191092D01*
X232915Y191419D01*
X232872Y191485D01*
X232819Y191544D01*
X232757Y191594D01*
X232688Y191633D01*
X232684Y191635D01*
Y314000D01*
X249170D01*
Y197286D01*
X249102Y197272D01*
X249029Y197245D01*
X248960Y197206D01*
X248898Y197157D01*
X248845Y197099D01*
X248802Y197034D01*
X248770Y196962D01*
X248694Y196729D01*
X248640Y196489D01*
X248608Y196245D01*
X248597Y196000D01*
X248608Y195755D01*
X248640Y195511D01*
X248694Y195271D01*
X248768Y195037D01*
X248800Y194965D01*
X248844Y194900D01*
X248897Y194841D01*
X248959Y194792D01*
X249028Y194754D01*
X249102Y194726D01*
X249170Y194712D01*
Y28200D01*
G37*
G36*
X232684D02*X229402D01*
Y185500D01*
X229582D01*
X229944Y185533D01*
X230302Y185599D01*
X230652Y185697D01*
X230992Y185826D01*
X231319Y185985D01*
X231385Y186028D01*
X231444Y186081D01*
X231494Y186143D01*
X231533Y186212D01*
X231561Y186286D01*
X231577Y186363D01*
X231581Y186442D01*
X231573Y186521D01*
X231552Y186597D01*
X231520Y186670D01*
X231477Y186736D01*
X231424Y186795D01*
X231362Y186844D01*
X231293Y186884D01*
X231219Y186912D01*
X231142Y186928D01*
X231063Y186932D01*
X230984Y186924D01*
X230907Y186903D01*
X230836Y186870D01*
X230593Y186747D01*
X230338Y186650D01*
X230076Y186577D01*
X229808Y186528D01*
X229536Y186503D01*
X229402D01*
Y192497D01*
X229536D01*
X229808Y192472D01*
X230076Y192423D01*
X230338Y192350D01*
X230593Y192253D01*
X230837Y192133D01*
X230909Y192100D01*
X230984Y192079D01*
X231063Y192071D01*
X231141Y192075D01*
X231218Y192091D01*
X231292Y192119D01*
X231360Y192158D01*
X231421Y192207D01*
X231474Y192266D01*
X231517Y192332D01*
X231549Y192404D01*
X231570Y192480D01*
X231578Y192558D01*
X231574Y192636D01*
X231558Y192713D01*
X231530Y192787D01*
X231491Y192855D01*
X231442Y192916D01*
X231383Y192969D01*
X231317Y193011D01*
X230992Y193174D01*
X230652Y193303D01*
X230302Y193401D01*
X229944Y193467D01*
X229582Y193500D01*
X229402D01*
Y314000D01*
X232684D01*
Y191635D01*
X232614Y191661D01*
X232537Y191677D01*
X232458Y191681D01*
X232379Y191673D01*
X232303Y191652D01*
X232230Y191620D01*
X232164Y191577D01*
X232105Y191524D01*
X232056Y191462D01*
X232016Y191393D01*
X231988Y191319D01*
X231972Y191242D01*
X231968Y191163D01*
X231976Y191084D01*
X231997Y191007D01*
X232030Y190936D01*
X232153Y190693D01*
X232250Y190438D01*
X232323Y190176D01*
X232372Y189908D01*
X232397Y189636D01*
Y189364D01*
X232372Y189092D01*
X232323Y188824D01*
X232250Y188562D01*
X232153Y188307D01*
X232033Y188063D01*
X232000Y187991D01*
X231979Y187916D01*
X231971Y187837D01*
X231975Y187759D01*
X231991Y187682D01*
X232019Y187608D01*
X232058Y187540D01*
X232107Y187479D01*
X232166Y187426D01*
X232232Y187383D01*
X232304Y187351D01*
X232380Y187330D01*
X232458Y187322D01*
X232536Y187326D01*
X232613Y187342D01*
X232684Y187369D01*
Y28200D01*
G37*
G36*
X229402D02*X226116D01*
Y187365D01*
X226186Y187339D01*
X226263Y187323D01*
X226342Y187319D01*
X226421Y187327D01*
X226497Y187348D01*
X226570Y187380D01*
X226636Y187423D01*
X226695Y187476D01*
X226744Y187538D01*
X226784Y187607D01*
X226812Y187681D01*
X226828Y187758D01*
X226832Y187837D01*
X226824Y187916D01*
X226803Y187993D01*
X226770Y188064D01*
X226647Y188307D01*
X226550Y188562D01*
X226477Y188824D01*
X226428Y189092D01*
X226403Y189364D01*
Y189636D01*
X226428Y189908D01*
X226477Y190176D01*
X226550Y190438D01*
X226647Y190693D01*
X226767Y190937D01*
X226800Y191009D01*
X226821Y191085D01*
X226829Y191163D01*
X226825Y191241D01*
X226809Y191318D01*
X226781Y191392D01*
X226742Y191460D01*
X226693Y191521D01*
X226634Y191574D01*
X226568Y191617D01*
X226496Y191649D01*
X226420Y191670D01*
X226342Y191678D01*
X226264Y191674D01*
X226187Y191658D01*
X226116Y191631D01*
Y314000D01*
X229402D01*
Y193500D01*
X229218D01*
X228856Y193467D01*
X228498Y193401D01*
X228148Y193303D01*
X227808Y193174D01*
X227481Y193015D01*
X227415Y192972D01*
X227356Y192919D01*
X227306Y192857D01*
X227267Y192788D01*
X227239Y192714D01*
X227223Y192637D01*
X227219Y192558D01*
X227227Y192479D01*
X227248Y192403D01*
X227280Y192330D01*
X227323Y192264D01*
X227376Y192205D01*
X227438Y192156D01*
X227507Y192116D01*
X227581Y192088D01*
X227658Y192072D01*
X227737Y192068D01*
X227816Y192076D01*
X227893Y192097D01*
X227964Y192130D01*
X228207Y192253D01*
X228462Y192350D01*
X228724Y192423D01*
X228992Y192472D01*
X229264Y192497D01*
X229402D01*
Y186503D01*
X229264D01*
X228992Y186528D01*
X228724Y186577D01*
X228462Y186650D01*
X228207Y186747D01*
X227963Y186867D01*
X227891Y186900D01*
X227815Y186921D01*
X227737Y186929D01*
X227659Y186925D01*
X227582Y186909D01*
X227508Y186881D01*
X227440Y186842D01*
X227379Y186793D01*
X227326Y186734D01*
X227283Y186668D01*
X227251Y186596D01*
X227230Y186520D01*
X227222Y186442D01*
X227226Y186364D01*
X227242Y186287D01*
X227270Y186213D01*
X227309Y186145D01*
X227358Y186084D01*
X227417Y186031D01*
X227483Y185989D01*
X227808Y185826D01*
X228148Y185697D01*
X228498Y185599D01*
X228856Y185533D01*
X229218Y185500D01*
X229402D01*
Y28200D01*
G37*
G36*
X226116D02*X215684D01*
Y107703D01*
X215975Y108178D01*
X216216Y108760D01*
X216363Y109372D01*
X216400Y110000D01*
X216363Y110628D01*
X216216Y111240D01*
X215975Y111822D01*
X215684Y112297D01*
Y122869D01*
X215687Y122870D01*
X215755Y122909D01*
X215816Y122958D01*
X215869Y123017D01*
X215911Y123083D01*
X216074Y123408D01*
X216203Y123748D01*
X216301Y124098D01*
X216367Y124456D01*
X216400Y124818D01*
Y125182D01*
X216367Y125544D01*
X216301Y125902D01*
X216203Y126252D01*
X216074Y126592D01*
X215915Y126919D01*
X215872Y126985D01*
X215819Y127044D01*
X215757Y127094D01*
X215688Y127133D01*
X215684Y127135D01*
Y314000D01*
X226116D01*
Y191631D01*
X226113Y191630D01*
X226045Y191591D01*
X225984Y191542D01*
X225931Y191483D01*
X225889Y191417D01*
X225726Y191092D01*
X225597Y190752D01*
X225499Y190402D01*
X225433Y190044D01*
X225400Y189682D01*
Y189318D01*
X225433Y188956D01*
X225499Y188598D01*
X225597Y188248D01*
X225726Y187908D01*
X225885Y187581D01*
X225928Y187515D01*
X225981Y187456D01*
X226043Y187406D01*
X226112Y187367D01*
X226116Y187365D01*
Y28200D01*
G37*
G36*
X215684Y112297D02*X215646Y112358D01*
X215237Y112837D01*
X214758Y113246D01*
X214222Y113575D01*
X213640Y113816D01*
X213028Y113963D01*
X212402Y114012D01*
Y121000D01*
X212582D01*
X212944Y121033D01*
X213302Y121099D01*
X213652Y121197D01*
X213992Y121326D01*
X214319Y121485D01*
X214385Y121528D01*
X214444Y121581D01*
X214494Y121643D01*
X214533Y121712D01*
X214561Y121786D01*
X214577Y121863D01*
X214581Y121942D01*
X214573Y122021D01*
X214552Y122097D01*
X214520Y122170D01*
X214477Y122236D01*
X214424Y122295D01*
X214362Y122344D01*
X214293Y122384D01*
X214219Y122412D01*
X214142Y122428D01*
X214063Y122432D01*
X213984Y122424D01*
X213907Y122403D01*
X213836Y122370D01*
X213593Y122247D01*
X213338Y122150D01*
X213076Y122077D01*
X212808Y122028D01*
X212536Y122003D01*
X212402D01*
Y127997D01*
X212536D01*
X212808Y127972D01*
X213076Y127923D01*
X213338Y127850D01*
X213593Y127753D01*
X213837Y127633D01*
X213909Y127600D01*
X213984Y127579D01*
X214063Y127571D01*
X214141Y127575D01*
X214218Y127591D01*
X214292Y127619D01*
X214360Y127658D01*
X214421Y127707D01*
X214474Y127766D01*
X214517Y127832D01*
X214549Y127904D01*
X214570Y127980D01*
X214578Y128058D01*
X214574Y128136D01*
X214558Y128213D01*
X214530Y128287D01*
X214491Y128355D01*
X214442Y128416D01*
X214383Y128469D01*
X214317Y128511D01*
X213992Y128674D01*
X213652Y128803D01*
X213302Y128901D01*
X212944Y128967D01*
X212582Y129000D01*
X212402D01*
Y186855D01*
X212646Y187142D01*
X212975Y187678D01*
X213216Y188260D01*
X213363Y188872D01*
X213400Y189500D01*
X213363Y190128D01*
X213216Y190740D01*
X212975Y191322D01*
X212646Y191858D01*
X212402Y192145D01*
Y314000D01*
X215684D01*
Y127135D01*
X215614Y127161D01*
X215537Y127177D01*
X215458Y127181D01*
X215379Y127173D01*
X215303Y127152D01*
X215230Y127120D01*
X215164Y127077D01*
X215105Y127024D01*
X215056Y126962D01*
X215016Y126893D01*
X214988Y126819D01*
X214972Y126742D01*
X214968Y126663D01*
X214976Y126584D01*
X214997Y126507D01*
X215030Y126436D01*
X215153Y126193D01*
X215250Y125938D01*
X215323Y125676D01*
X215372Y125408D01*
X215397Y125136D01*
Y124864D01*
X215372Y124592D01*
X215323Y124324D01*
X215250Y124062D01*
X215153Y123807D01*
X215033Y123563D01*
X215000Y123491D01*
X214979Y123416D01*
X214971Y123337D01*
X214975Y123259D01*
X214991Y123182D01*
X215019Y123108D01*
X215058Y123040D01*
X215107Y122979D01*
X215166Y122926D01*
X215232Y122883D01*
X215304Y122851D01*
X215380Y122830D01*
X215458Y122822D01*
X215536Y122826D01*
X215613Y122842D01*
X215684Y122869D01*
Y112297D01*
G37*
G36*
Y28200D02*X212402D01*
Y105988D01*
X213028Y106037D01*
X213640Y106184D01*
X214222Y106425D01*
X214758Y106754D01*
X215237Y107163D01*
X215646Y107642D01*
X215684Y107703D01*
Y28200D01*
G37*
G36*
X209116Y185510D02*X209400Y185488D01*
X210028Y185537D01*
X210640Y185684D01*
X211222Y185925D01*
X211758Y186254D01*
X212237Y186663D01*
X212402Y186855D01*
Y129000D01*
X212218D01*
X211856Y128967D01*
X211498Y128901D01*
X211148Y128803D01*
X210808Y128674D01*
X210481Y128515D01*
X210415Y128472D01*
X210356Y128419D01*
X210306Y128357D01*
X210267Y128288D01*
X210239Y128214D01*
X210223Y128137D01*
X210219Y128058D01*
X210227Y127979D01*
X210248Y127903D01*
X210280Y127830D01*
X210323Y127764D01*
X210376Y127705D01*
X210438Y127656D01*
X210507Y127616D01*
X210581Y127588D01*
X210658Y127572D01*
X210737Y127568D01*
X210816Y127576D01*
X210893Y127597D01*
X210964Y127630D01*
X211207Y127753D01*
X211462Y127850D01*
X211724Y127923D01*
X211992Y127972D01*
X212264Y127997D01*
X212402D01*
Y122003D01*
X212264D01*
X211992Y122028D01*
X211724Y122077D01*
X211462Y122150D01*
X211207Y122247D01*
X210963Y122367D01*
X210891Y122400D01*
X210815Y122421D01*
X210737Y122429D01*
X210659Y122425D01*
X210582Y122409D01*
X210508Y122381D01*
X210440Y122342D01*
X210379Y122293D01*
X210326Y122234D01*
X210283Y122168D01*
X210251Y122096D01*
X210230Y122020D01*
X210222Y121942D01*
X210226Y121864D01*
X210242Y121787D01*
X210270Y121713D01*
X210309Y121645D01*
X210358Y121584D01*
X210417Y121531D01*
X210483Y121489D01*
X210808Y121326D01*
X211148Y121197D01*
X211498Y121099D01*
X211856Y121033D01*
X212218Y121000D01*
X212402D01*
Y114012D01*
X212400Y114012D01*
X211772Y113963D01*
X211160Y113816D01*
X210578Y113575D01*
X210042Y113246D01*
X209563Y112837D01*
X209154Y112358D01*
X209116Y112297D01*
Y122865D01*
X209186Y122839D01*
X209263Y122823D01*
X209342Y122819D01*
X209421Y122827D01*
X209497Y122848D01*
X209570Y122880D01*
X209636Y122923D01*
X209695Y122976D01*
X209744Y123038D01*
X209784Y123107D01*
X209812Y123181D01*
X209828Y123258D01*
X209832Y123337D01*
X209824Y123416D01*
X209803Y123493D01*
X209770Y123564D01*
X209647Y123807D01*
X209550Y124062D01*
X209477Y124324D01*
X209428Y124592D01*
X209403Y124864D01*
Y125136D01*
X209428Y125408D01*
X209477Y125676D01*
X209550Y125938D01*
X209647Y126193D01*
X209767Y126437D01*
X209800Y126509D01*
X209821Y126585D01*
X209829Y126663D01*
X209825Y126741D01*
X209809Y126818D01*
X209781Y126892D01*
X209742Y126960D01*
X209693Y127021D01*
X209634Y127074D01*
X209568Y127117D01*
X209496Y127149D01*
X209420Y127170D01*
X209342Y127178D01*
X209264Y127174D01*
X209187Y127158D01*
X209116Y127131D01*
Y185510D01*
G37*
G36*
Y314000D02*X212402D01*
Y192145D01*
X212237Y192337D01*
X211758Y192746D01*
X211222Y193075D01*
X210640Y193316D01*
X210028Y193463D01*
X209400Y193512D01*
X209116Y193490D01*
Y314000D01*
G37*
G36*
X212402Y28200D02*X209116D01*
Y107703D01*
X209154Y107642D01*
X209563Y107163D01*
X210042Y106754D01*
X210578Y106425D01*
X211160Y106184D01*
X211772Y106037D01*
X212400Y105988D01*
X212402Y105988D01*
Y28200D01*
G37*
G36*
X209116D02*X176396D01*
Y171692D01*
X176400Y171691D01*
X176839Y171726D01*
X177268Y171829D01*
X177675Y171997D01*
X178051Y172228D01*
X178386Y172514D01*
X178672Y172849D01*
X178903Y173225D01*
X179071Y173632D01*
X179174Y174061D01*
X179200Y174500D01*
X179174Y174939D01*
X179071Y175368D01*
X178903Y175775D01*
X178672Y176151D01*
X178386Y176486D01*
X178051Y176772D01*
X177675Y177003D01*
X177268Y177171D01*
X176839Y177274D01*
X176400Y177309D01*
X176396Y177308D01*
Y251249D01*
X176541Y251260D01*
X176996Y251369D01*
X177428Y251548D01*
X177827Y251793D01*
X178183Y252096D01*
X178486Y252452D01*
X178731Y252851D01*
X178910Y253283D01*
X179019Y253738D01*
X179046Y254204D01*
X179019Y254670D01*
X178910Y255125D01*
X178731Y255557D01*
X178486Y255956D01*
X178183Y256312D01*
X177827Y256615D01*
X177428Y256860D01*
X176996Y257039D01*
X176541Y257148D01*
X176396Y257159D01*
Y314000D01*
X209116D01*
Y193490D01*
X208772Y193463D01*
X208160Y193316D01*
X207578Y193075D01*
X207042Y192746D01*
X206563Y192337D01*
X206154Y191858D01*
X205825Y191322D01*
X205584Y190740D01*
X205437Y190128D01*
X205388Y189500D01*
X205437Y188872D01*
X205584Y188260D01*
X205825Y187678D01*
X206154Y187142D01*
X206563Y186663D01*
X207042Y186254D01*
X207578Y185925D01*
X208160Y185684D01*
X208772Y185537D01*
X209116Y185510D01*
Y127131D01*
X209113Y127130D01*
X209045Y127091D01*
X208984Y127042D01*
X208931Y126983D01*
X208889Y126917D01*
X208726Y126592D01*
X208597Y126252D01*
X208499Y125902D01*
X208433Y125544D01*
X208400Y125182D01*
Y124818D01*
X208433Y124456D01*
X208499Y124098D01*
X208597Y123748D01*
X208726Y123408D01*
X208885Y123081D01*
X208928Y123015D01*
X208981Y122956D01*
X209043Y122906D01*
X209112Y122867D01*
X209116Y122865D01*
Y112297D01*
X208825Y111822D01*
X208584Y111240D01*
X208437Y110628D01*
X208388Y110000D01*
X208437Y109372D01*
X208584Y108760D01*
X208825Y108178D01*
X209116Y107703D01*
Y28200D01*
G37*
G36*
X176396D02*X171396D01*
Y176242D01*
X171461Y176226D01*
X171900Y176191D01*
X172339Y176226D01*
X172768Y176329D01*
X173175Y176497D01*
X173551Y176728D01*
X173886Y177014D01*
X174172Y177349D01*
X174403Y177725D01*
X174571Y178132D01*
X174674Y178561D01*
X174700Y179000D01*
X174674Y179439D01*
X174571Y179868D01*
X174403Y180275D01*
X174172Y180651D01*
X173886Y180986D01*
X173551Y181272D01*
X173175Y181503D01*
X172768Y181671D01*
X172339Y181774D01*
X171900Y181809D01*
X171461Y181774D01*
X171396Y181758D01*
Y201192D01*
X171400Y201191D01*
X171839Y201226D01*
X172268Y201329D01*
X172675Y201497D01*
X173051Y201728D01*
X173386Y202014D01*
X173672Y202349D01*
X173903Y202725D01*
X174071Y203132D01*
X174174Y203561D01*
X174200Y204000D01*
X174174Y204439D01*
X174071Y204868D01*
X173903Y205275D01*
X173672Y205651D01*
X173386Y205986D01*
X173051Y206272D01*
X172675Y206503D01*
X172268Y206671D01*
X171839Y206774D01*
X171400Y206809D01*
X171396Y206808D01*
Y314000D01*
X176396D01*
Y257159D01*
X176075Y257185D01*
X175609Y257148D01*
X175154Y257039D01*
X174722Y256860D01*
X174323Y256615D01*
X173967Y256312D01*
X173664Y255956D01*
X173419Y255557D01*
X173240Y255125D01*
X173131Y254670D01*
X173094Y254204D01*
X173131Y253738D01*
X173240Y253283D01*
X173419Y252851D01*
X173664Y252452D01*
X173967Y252096D01*
X174323Y251793D01*
X174722Y251548D01*
X175154Y251369D01*
X175609Y251260D01*
X176075Y251223D01*
X176396Y251249D01*
Y177308D01*
X175961Y177274D01*
X175532Y177171D01*
X175125Y177003D01*
X174749Y176772D01*
X174414Y176486D01*
X174128Y176151D01*
X173897Y175775D01*
X173729Y175368D01*
X173626Y174939D01*
X173591Y174500D01*
X173626Y174061D01*
X173729Y173632D01*
X173897Y173225D01*
X174128Y172849D01*
X174414Y172514D01*
X174749Y172228D01*
X175125Y171997D01*
X175532Y171829D01*
X175961Y171726D01*
X176396Y171692D01*
Y28200D01*
G37*
G36*
X171396D02*X167896D01*
Y171692D01*
X167900Y171691D01*
X168339Y171726D01*
X168768Y171829D01*
X169175Y171997D01*
X169551Y172228D01*
X169886Y172514D01*
X170172Y172849D01*
X170403Y173225D01*
X170571Y173632D01*
X170674Y174061D01*
X170700Y174500D01*
X170674Y174939D01*
X170571Y175368D01*
X170403Y175775D01*
X170172Y176151D01*
X169886Y176486D01*
X169551Y176772D01*
X169175Y177003D01*
X168768Y177171D01*
X168339Y177274D01*
X167900Y177309D01*
X167896Y177308D01*
Y314000D01*
X171396D01*
Y206808D01*
X170961Y206774D01*
X170532Y206671D01*
X170125Y206503D01*
X169749Y206272D01*
X169414Y205986D01*
X169128Y205651D01*
X168897Y205275D01*
X168729Y204868D01*
X168626Y204439D01*
X168591Y204000D01*
X168626Y203561D01*
X168729Y203132D01*
X168897Y202725D01*
X169128Y202349D01*
X169414Y202014D01*
X169749Y201728D01*
X170125Y201497D01*
X170532Y201329D01*
X170961Y201226D01*
X171396Y201192D01*
Y181758D01*
X171032Y181671D01*
X170625Y181503D01*
X170249Y181272D01*
X169914Y180986D01*
X169628Y180651D01*
X169397Y180275D01*
X169229Y179868D01*
X169126Y179439D01*
X169091Y179000D01*
X169126Y178561D01*
X169229Y178132D01*
X169397Y177725D01*
X169628Y177349D01*
X169914Y177014D01*
X170249Y176728D01*
X170625Y176497D01*
X171032Y176329D01*
X171396Y176242D01*
Y28200D01*
G37*
G36*
X167896D02*X163896D01*
Y101032D01*
X164258Y101254D01*
X164737Y101663D01*
X165146Y102142D01*
X165475Y102678D01*
X165716Y103260D01*
X165863Y103872D01*
X165900Y104500D01*
X165863Y105128D01*
X165716Y105740D01*
X165475Y106322D01*
X165146Y106858D01*
X164737Y107337D01*
X164258Y107746D01*
X163896Y107968D01*
Y141633D01*
X164051Y141728D01*
X164386Y142014D01*
X164672Y142349D01*
X164903Y142725D01*
X165071Y143132D01*
X165174Y143561D01*
X165200Y144000D01*
X165174Y144439D01*
X165071Y144868D01*
X164903Y145275D01*
X164672Y145651D01*
X164386Y145986D01*
X164051Y146272D01*
X163896Y146367D01*
Y151214D01*
X163903Y151225D01*
X164071Y151632D01*
X164174Y152061D01*
X164200Y152500D01*
X164174Y152939D01*
X164071Y153368D01*
X163903Y153775D01*
X163896Y153786D01*
Y161633D01*
X164051Y161728D01*
X164386Y162014D01*
X164672Y162349D01*
X164903Y162725D01*
X165071Y163132D01*
X165174Y163561D01*
X165200Y164000D01*
X165174Y164439D01*
X165071Y164868D01*
X164903Y165275D01*
X164672Y165651D01*
X164386Y165986D01*
X164051Y166272D01*
X163896Y166367D01*
Y176192D01*
X163900Y176191D01*
X164339Y176226D01*
X164768Y176329D01*
X165175Y176497D01*
X165551Y176728D01*
X165886Y177014D01*
X166172Y177349D01*
X166403Y177725D01*
X166571Y178132D01*
X166674Y178561D01*
X166700Y179000D01*
X166674Y179439D01*
X166571Y179868D01*
X166403Y180275D01*
X166172Y180651D01*
X165886Y180986D01*
X165551Y181272D01*
X165175Y181503D01*
X164768Y181671D01*
X164339Y181774D01*
X163900Y181809D01*
X163896Y181808D01*
Y314000D01*
X167896D01*
Y177308D01*
X167461Y177274D01*
X167032Y177171D01*
X166625Y177003D01*
X166249Y176772D01*
X165914Y176486D01*
X165628Y176151D01*
X165397Y175775D01*
X165229Y175368D01*
X165126Y174939D01*
X165091Y174500D01*
X165126Y174061D01*
X165229Y173632D01*
X165397Y173225D01*
X165628Y172849D01*
X165914Y172514D01*
X166249Y172228D01*
X166625Y171997D01*
X167032Y171829D01*
X167461Y171726D01*
X167896Y171692D01*
Y28200D01*
G37*
G36*
X163896Y166367D02*X163675Y166503D01*
X163268Y166671D01*
X162839Y166774D01*
X162400Y166809D01*
X161961Y166774D01*
X161532Y166671D01*
X161125Y166503D01*
X160749Y166272D01*
X160477Y166040D01*
Y167182D01*
X160551Y167228D01*
X160886Y167514D01*
X161172Y167849D01*
X161403Y168225D01*
X161571Y168632D01*
X161674Y169061D01*
X161700Y169500D01*
X161674Y169939D01*
X161571Y170368D01*
X161403Y170775D01*
X161172Y171151D01*
X160886Y171486D01*
X160551Y171772D01*
X160477Y171818D01*
Y181367D01*
X160545Y181381D01*
X160618Y181408D01*
X160687Y181447D01*
X160749Y181496D01*
X160802Y181554D01*
X160845Y181619D01*
X160877Y181691D01*
X160953Y181924D01*
X161007Y182164D01*
X161039Y182408D01*
X161050Y182653D01*
X161039Y182898D01*
X161007Y183142D01*
X160953Y183382D01*
X160879Y183616D01*
X160847Y183688D01*
X160803Y183753D01*
X160750Y183812D01*
X160688Y183861D01*
X160619Y183899D01*
X160545Y183927D01*
X160477Y183941D01*
Y314000D01*
X163896D01*
Y181808D01*
X163461Y181774D01*
X163032Y181671D01*
X162625Y181503D01*
X162249Y181272D01*
X161914Y180986D01*
X161628Y180651D01*
X161397Y180275D01*
X161229Y179868D01*
X161126Y179439D01*
X161091Y179000D01*
X161126Y178561D01*
X161229Y178132D01*
X161397Y177725D01*
X161628Y177349D01*
X161914Y177014D01*
X162249Y176728D01*
X162625Y176497D01*
X163032Y176329D01*
X163461Y176226D01*
X163896Y176192D01*
Y166367D01*
G37*
G36*
Y153786D02*X163672Y154151D01*
X163386Y154486D01*
X163051Y154772D01*
X162675Y155003D01*
X162268Y155171D01*
X161839Y155274D01*
X161400Y155309D01*
X160961Y155274D01*
X160532Y155171D01*
X160477Y155148D01*
Y161960D01*
X160749Y161728D01*
X161125Y161497D01*
X161532Y161329D01*
X161961Y161226D01*
X162400Y161191D01*
X162839Y161226D01*
X163268Y161329D01*
X163675Y161497D01*
X163896Y161633D01*
Y153786D01*
G37*
G36*
Y146367D02*X163675Y146503D01*
X163268Y146671D01*
X162839Y146774D01*
X162400Y146809D01*
X161961Y146774D01*
X161532Y146671D01*
X161125Y146503D01*
X160749Y146272D01*
X160477Y146040D01*
Y149852D01*
X160532Y149829D01*
X160961Y149726D01*
X161400Y149691D01*
X161839Y149726D01*
X162268Y149829D01*
X162675Y149997D01*
X163051Y150228D01*
X163386Y150514D01*
X163672Y150849D01*
X163896Y151214D01*
Y146367D01*
G37*
G36*
Y107968D02*X163722Y108075D01*
X163140Y108316D01*
X162528Y108463D01*
X161900Y108512D01*
X161272Y108463D01*
X160660Y108316D01*
X160477Y108240D01*
Y141960D01*
X160749Y141728D01*
X161125Y141497D01*
X161532Y141329D01*
X161961Y141226D01*
X162400Y141191D01*
X162839Y141226D01*
X163268Y141329D01*
X163675Y141497D01*
X163896Y141633D01*
Y107968D01*
G37*
G36*
Y28200D02*X160477D01*
Y100760D01*
X160660Y100684D01*
X161272Y100537D01*
X161900Y100488D01*
X162528Y100537D01*
X163140Y100684D01*
X163722Y100925D01*
X163896Y101032D01*
Y28200D01*
G37*
G36*
X160477Y171818D02*X160175Y172003D01*
X159768Y172171D01*
X159339Y172274D01*
X158900Y172309D01*
X158461Y172274D01*
X158248Y172223D01*
Y173042D01*
X158551Y173228D01*
X158886Y173514D01*
X159172Y173849D01*
X159403Y174225D01*
X159571Y174632D01*
X159674Y175061D01*
X159700Y175500D01*
X159674Y175939D01*
X159571Y176368D01*
X159403Y176775D01*
X159172Y177151D01*
X158886Y177486D01*
X158551Y177772D01*
X158248Y177958D01*
Y179850D01*
X158492Y179861D01*
X158736Y179893D01*
X158976Y179947D01*
X159210Y180021D01*
X159282Y180053D01*
X159347Y180097D01*
X159406Y180150D01*
X159455Y180212D01*
X159493Y180281D01*
X159521Y180355D01*
X159537Y180432D01*
X159540Y180511D01*
X159531Y180590D01*
X159510Y180666D01*
X159477Y180738D01*
X159433Y180803D01*
X159380Y180862D01*
X159318Y180911D01*
X159249Y180949D01*
X159175Y180977D01*
X159098Y180993D01*
X159019Y180996D01*
X158940Y180987D01*
X158865Y180964D01*
X158715Y180915D01*
X158561Y180881D01*
X158405Y180860D01*
X158248Y180853D01*
Y184453D01*
X158405Y184446D01*
X158561Y184425D01*
X158715Y184391D01*
X158865Y184343D01*
X158941Y184321D01*
X159019Y184312D01*
X159097Y184315D01*
X159174Y184331D01*
X159248Y184358D01*
X159317Y184397D01*
X159378Y184446D01*
X159432Y184504D01*
X159475Y184569D01*
X159508Y184641D01*
X159529Y184717D01*
X159538Y184795D01*
X159535Y184873D01*
X159519Y184951D01*
X159492Y185024D01*
X159453Y185093D01*
X159404Y185155D01*
X159346Y185208D01*
X159281Y185251D01*
X159209Y185283D01*
X158976Y185359D01*
X158736Y185413D01*
X158492Y185445D01*
X158248Y185456D01*
Y314000D01*
X160477D01*
Y183941D01*
X160468Y183943D01*
X160389Y183946D01*
X160310Y183937D01*
X160234Y183916D01*
X160162Y183883D01*
X160097Y183839D01*
X160038Y183786D01*
X159989Y183724D01*
X159951Y183655D01*
X159923Y183581D01*
X159907Y183504D01*
X159904Y183425D01*
X159913Y183346D01*
X159936Y183271D01*
X159985Y183121D01*
X160019Y182967D01*
X160040Y182811D01*
X160047Y182653D01*
X160040Y182495D01*
X160019Y182339D01*
X159985Y182185D01*
X159937Y182035D01*
X159915Y181959D01*
X159906Y181881D01*
X159909Y181803D01*
X159925Y181726D01*
X159952Y181652D01*
X159991Y181583D01*
X160040Y181522D01*
X160098Y181468D01*
X160163Y181425D01*
X160235Y181392D01*
X160311Y181371D01*
X160389Y181362D01*
X160467Y181365D01*
X160477Y181367D01*
Y171818D01*
G37*
G36*
Y108240D02*X160078Y108075D01*
X159542Y107746D01*
X159063Y107337D01*
X158654Y106858D01*
X158325Y106322D01*
X158248Y106135D01*
Y143143D01*
X158277Y143187D01*
X158309Y143259D01*
X158385Y143492D01*
X158439Y143732D01*
X158471Y143976D01*
X158482Y144221D01*
X158471Y144466D01*
X158439Y144710D01*
X158385Y144950D01*
X158311Y145184D01*
X158279Y145256D01*
X158248Y145302D01*
Y154473D01*
X158403Y154725D01*
X158571Y155132D01*
X158674Y155561D01*
X158700Y156000D01*
X158674Y156439D01*
X158571Y156868D01*
X158403Y157275D01*
X158248Y157527D01*
Y162701D01*
X158308Y162749D01*
X158361Y162807D01*
X158404Y162872D01*
X158436Y162944D01*
X158512Y163177D01*
X158566Y163417D01*
X158598Y163661D01*
X158609Y163906D01*
X158598Y164151D01*
X158566Y164395D01*
X158512Y164635D01*
X158438Y164869D01*
X158406Y164941D01*
X158362Y165006D01*
X158309Y165065D01*
X158248Y165113D01*
Y166777D01*
X158461Y166726D01*
X158900Y166691D01*
X159339Y166726D01*
X159768Y166829D01*
X160175Y166997D01*
X160477Y167182D01*
Y166040D01*
X160414Y165986D01*
X160128Y165651D01*
X159897Y165275D01*
X159729Y164868D01*
X159626Y164439D01*
X159591Y164000D01*
X159626Y163561D01*
X159729Y163132D01*
X159897Y162725D01*
X160128Y162349D01*
X160414Y162014D01*
X160477Y161960D01*
Y155148D01*
X160125Y155003D01*
X159749Y154772D01*
X159414Y154486D01*
X159128Y154151D01*
X158897Y153775D01*
X158729Y153368D01*
X158626Y152939D01*
X158591Y152500D01*
X158626Y152061D01*
X158729Y151632D01*
X158897Y151225D01*
X159128Y150849D01*
X159414Y150514D01*
X159749Y150228D01*
X160125Y149997D01*
X160477Y149852D01*
Y146040D01*
X160414Y145986D01*
X160128Y145651D01*
X159897Y145275D01*
X159729Y144868D01*
X159626Y144439D01*
X159591Y144000D01*
X159626Y143561D01*
X159729Y143132D01*
X159897Y142725D01*
X160128Y142349D01*
X160414Y142014D01*
X160477Y141960D01*
Y108240D01*
G37*
G36*
Y28200D02*X158248D01*
Y102865D01*
X158325Y102678D01*
X158654Y102142D01*
X159063Y101663D01*
X159542Y101254D01*
X160078Y100925D01*
X160477Y100760D01*
Y28200D01*
G37*
G36*
X156017Y172835D02*X156032Y172829D01*
X156461Y172726D01*
X156900Y172691D01*
X157339Y172726D01*
X157768Y172829D01*
X158175Y172997D01*
X158248Y173042D01*
Y172223D01*
X158032Y172171D01*
X157625Y172003D01*
X157249Y171772D01*
X156914Y171486D01*
X156628Y171151D01*
X156397Y170775D01*
X156229Y170368D01*
X156126Y169939D01*
X156091Y169500D01*
X156126Y169061D01*
X156229Y168632D01*
X156397Y168225D01*
X156628Y167849D01*
X156914Y167514D01*
X157249Y167228D01*
X157625Y166997D01*
X158032Y166829D01*
X158248Y166777D01*
Y165113D01*
X158247Y165114D01*
X158178Y165152D01*
X158104Y165180D01*
X158027Y165196D01*
X157948Y165199D01*
X157869Y165190D01*
X157793Y165169D01*
X157721Y165136D01*
X157656Y165092D01*
X157597Y165039D01*
X157548Y164977D01*
X157510Y164908D01*
X157482Y164834D01*
X157466Y164757D01*
X157463Y164678D01*
X157472Y164599D01*
X157495Y164524D01*
X157544Y164374D01*
X157578Y164220D01*
X157599Y164064D01*
X157606Y163906D01*
X157599Y163748D01*
X157578Y163592D01*
X157544Y163438D01*
X157496Y163288D01*
X157474Y163212D01*
X157465Y163134D01*
X157468Y163056D01*
X157484Y162979D01*
X157511Y162905D01*
X157550Y162836D01*
X157599Y162775D01*
X157657Y162721D01*
X157722Y162678D01*
X157794Y162645D01*
X157870Y162624D01*
X157948Y162615D01*
X158026Y162618D01*
X158104Y162634D01*
X158177Y162661D01*
X158246Y162700D01*
X158248Y162701D01*
Y157527D01*
X158172Y157651D01*
X157886Y157986D01*
X157551Y158272D01*
X157175Y158503D01*
X156768Y158671D01*
X156339Y158774D01*
X156017Y158799D01*
Y161113D01*
X156051Y161114D01*
X156295Y161146D01*
X156535Y161200D01*
X156769Y161274D01*
X156841Y161306D01*
X156906Y161350D01*
X156965Y161403D01*
X157014Y161465D01*
X157052Y161534D01*
X157080Y161608D01*
X157096Y161685D01*
X157099Y161764D01*
X157090Y161843D01*
X157069Y161919D01*
X157036Y161991D01*
X156992Y162056D01*
X156939Y162115D01*
X156877Y162164D01*
X156808Y162202D01*
X156734Y162230D01*
X156657Y162246D01*
X156578Y162249D01*
X156499Y162240D01*
X156424Y162217D01*
X156274Y162168D01*
X156120Y162134D01*
X156017Y162120D01*
Y165692D01*
X156120Y165678D01*
X156274Y165644D01*
X156424Y165596D01*
X156500Y165574D01*
X156578Y165565D01*
X156656Y165568D01*
X156733Y165584D01*
X156807Y165611D01*
X156876Y165650D01*
X156937Y165699D01*
X156991Y165757D01*
X157034Y165822D01*
X157067Y165894D01*
X157088Y165970D01*
X157097Y166048D01*
X157094Y166126D01*
X157078Y166204D01*
X157051Y166277D01*
X157012Y166346D01*
X156963Y166408D01*
X156905Y166461D01*
X156840Y166504D01*
X156768Y166536D01*
X156535Y166612D01*
X156295Y166666D01*
X156051Y166698D01*
X156017Y166699D01*
Y172835D01*
G37*
G36*
Y314000D02*X158248D01*
Y185456D01*
X158247Y185456D01*
X158002Y185445D01*
X157758Y185413D01*
X157518Y185359D01*
X157284Y185285D01*
X157212Y185253D01*
X157147Y185209D01*
X157088Y185156D01*
X157039Y185094D01*
X157001Y185025D01*
X156973Y184951D01*
X156957Y184874D01*
X156954Y184795D01*
X156963Y184716D01*
X156984Y184640D01*
X157017Y184568D01*
X157061Y184503D01*
X157114Y184444D01*
X157176Y184395D01*
X157245Y184357D01*
X157319Y184329D01*
X157396Y184313D01*
X157475Y184310D01*
X157554Y184319D01*
X157629Y184342D01*
X157779Y184391D01*
X157933Y184425D01*
X158089Y184446D01*
X158247Y184453D01*
X158248Y184453D01*
Y180853D01*
X158247Y180853D01*
X158089Y180860D01*
X157933Y180881D01*
X157779Y180915D01*
X157629Y180963D01*
X157553Y180985D01*
X157475Y180994D01*
X157397Y180991D01*
X157320Y180975D01*
X157246Y180948D01*
X157177Y180909D01*
X157116Y180860D01*
X157062Y180802D01*
X157019Y180737D01*
X156986Y180665D01*
X156965Y180589D01*
X156956Y180511D01*
X156959Y180433D01*
X156975Y180355D01*
X157002Y180282D01*
X157041Y180213D01*
X157090Y180151D01*
X157148Y180098D01*
X157213Y180055D01*
X157285Y180023D01*
X157518Y179947D01*
X157758Y179893D01*
X158002Y179861D01*
X158247Y179850D01*
X158248Y179850D01*
Y177958D01*
X158175Y178003D01*
X157768Y178171D01*
X157339Y178274D01*
X156900Y178309D01*
X156461Y178274D01*
X156032Y178171D01*
X156017Y178165D01*
Y181365D01*
X156026Y181363D01*
X156105Y181360D01*
X156184Y181369D01*
X156260Y181390D01*
X156332Y181423D01*
X156397Y181467D01*
X156456Y181520D01*
X156505Y181582D01*
X156543Y181651D01*
X156571Y181725D01*
X156587Y181802D01*
X156590Y181881D01*
X156581Y181960D01*
X156558Y182035D01*
X156509Y182185D01*
X156475Y182339D01*
X156454Y182495D01*
X156447Y182653D01*
X156454Y182811D01*
X156475Y182967D01*
X156509Y183121D01*
X156557Y183271D01*
X156579Y183347D01*
X156588Y183425D01*
X156585Y183503D01*
X156569Y183580D01*
X156542Y183654D01*
X156503Y183723D01*
X156454Y183784D01*
X156396Y183838D01*
X156331Y183881D01*
X156259Y183914D01*
X156183Y183935D01*
X156105Y183944D01*
X156027Y183941D01*
X156017Y183939D01*
Y314000D01*
G37*
G36*
X158248Y28200D02*X156017D01*
Y141441D01*
X156168Y141461D01*
X156408Y141515D01*
X156642Y141589D01*
X156714Y141621D01*
X156779Y141665D01*
X156838Y141718D01*
X156887Y141780D01*
X156925Y141849D01*
X156953Y141923D01*
X156969Y142000D01*
X156972Y142079D01*
X156963Y142158D01*
X156942Y142234D01*
X156909Y142306D01*
X156865Y142371D01*
X156812Y142430D01*
X156750Y142479D01*
X156681Y142517D01*
X156607Y142545D01*
X156530Y142561D01*
X156451Y142564D01*
X156372Y142555D01*
X156297Y142532D01*
X156147Y142483D01*
X156017Y142454D01*
Y145988D01*
X156147Y145959D01*
X156297Y145911D01*
X156373Y145889D01*
X156451Y145880D01*
X156529Y145883D01*
X156606Y145899D01*
X156680Y145926D01*
X156749Y145965D01*
X156810Y146014D01*
X156864Y146072D01*
X156907Y146137D01*
X156940Y146209D01*
X156961Y146285D01*
X156970Y146363D01*
X156967Y146441D01*
X156951Y146519D01*
X156924Y146592D01*
X156885Y146661D01*
X156836Y146723D01*
X156778Y146776D01*
X156713Y146819D01*
X156641Y146851D01*
X156408Y146927D01*
X156168Y146981D01*
X156017Y147001D01*
Y153201D01*
X156339Y153226D01*
X156768Y153329D01*
X157175Y153497D01*
X157551Y153728D01*
X157886Y154014D01*
X158172Y154349D01*
X158248Y154473D01*
Y145302D01*
X158235Y145321D01*
X158182Y145380D01*
X158120Y145429D01*
X158051Y145467D01*
X157977Y145495D01*
X157900Y145511D01*
X157821Y145514D01*
X157742Y145505D01*
X157666Y145484D01*
X157594Y145451D01*
X157529Y145407D01*
X157470Y145354D01*
X157421Y145292D01*
X157383Y145223D01*
X157355Y145149D01*
X157339Y145072D01*
X157336Y144993D01*
X157345Y144914D01*
X157368Y144839D01*
X157417Y144689D01*
X157451Y144535D01*
X157472Y144379D01*
X157479Y144221D01*
X157472Y144063D01*
X157451Y143907D01*
X157417Y143753D01*
X157369Y143603D01*
X157347Y143527D01*
X157338Y143449D01*
X157341Y143371D01*
X157357Y143294D01*
X157384Y143220D01*
X157423Y143151D01*
X157472Y143090D01*
X157530Y143036D01*
X157595Y142993D01*
X157667Y142960D01*
X157743Y142939D01*
X157821Y142930D01*
X157899Y142933D01*
X157977Y142949D01*
X158050Y142976D01*
X158119Y143015D01*
X158181Y143064D01*
X158234Y143122D01*
X158248Y143143D01*
Y106135D01*
X158084Y105740D01*
X157937Y105128D01*
X157888Y104500D01*
X157937Y103872D01*
X158084Y103260D01*
X158248Y102865D01*
Y28200D01*
G37*
G36*
X153576Y314000D02*X156017D01*
Y183939D01*
X155949Y183925D01*
X155876Y183898D01*
X155807Y183859D01*
X155745Y183810D01*
X155692Y183752D01*
X155649Y183687D01*
X155617Y183615D01*
X155541Y183382D01*
X155487Y183142D01*
X155455Y182898D01*
X155444Y182653D01*
X155455Y182408D01*
X155487Y182164D01*
X155541Y181924D01*
X155615Y181690D01*
X155647Y181618D01*
X155691Y181553D01*
X155744Y181494D01*
X155806Y181445D01*
X155875Y181407D01*
X155949Y181379D01*
X156017Y181365D01*
Y178165D01*
X155625Y178003D01*
X155249Y177772D01*
X154914Y177486D01*
X154628Y177151D01*
X154397Y176775D01*
X154229Y176368D01*
X154126Y175939D01*
X154091Y175500D01*
X154126Y175061D01*
X154229Y174632D01*
X154397Y174225D01*
X154628Y173849D01*
X154914Y173514D01*
X155249Y173228D01*
X155625Y172997D01*
X156017Y172835D01*
Y166699D01*
X155806Y166709D01*
X155561Y166698D01*
X155317Y166666D01*
X155077Y166612D01*
X154843Y166538D01*
X154771Y166506D01*
X154706Y166462D01*
X154647Y166409D01*
X154598Y166347D01*
X154560Y166278D01*
X154532Y166204D01*
X154516Y166127D01*
X154513Y166048D01*
X154522Y165969D01*
X154543Y165893D01*
X154576Y165821D01*
X154620Y165756D01*
X154673Y165697D01*
X154735Y165648D01*
X154804Y165610D01*
X154878Y165582D01*
X154955Y165566D01*
X155034Y165563D01*
X155113Y165572D01*
X155188Y165595D01*
X155338Y165644D01*
X155492Y165678D01*
X155648Y165699D01*
X155806Y165706D01*
X155964Y165699D01*
X156017Y165692D01*
Y162120D01*
X155964Y162113D01*
X155806Y162106D01*
X155648Y162113D01*
X155492Y162134D01*
X155338Y162168D01*
X155188Y162216D01*
X155112Y162238D01*
X155034Y162247D01*
X154956Y162244D01*
X154879Y162228D01*
X154805Y162201D01*
X154736Y162162D01*
X154675Y162113D01*
X154621Y162055D01*
X154578Y161990D01*
X154545Y161918D01*
X154524Y161842D01*
X154515Y161764D01*
X154518Y161686D01*
X154534Y161608D01*
X154561Y161535D01*
X154600Y161466D01*
X154649Y161404D01*
X154707Y161351D01*
X154772Y161308D01*
X154844Y161276D01*
X155077Y161200D01*
X155317Y161146D01*
X155561Y161114D01*
X155806Y161103D01*
X156017Y161113D01*
Y158799D01*
X155900Y158809D01*
X155461Y158774D01*
X155032Y158671D01*
X154625Y158503D01*
X154249Y158272D01*
X153914Y157986D01*
X153628Y157651D01*
X153576Y157567D01*
Y162618D01*
X153585Y162616D01*
X153664Y162613D01*
X153743Y162622D01*
X153819Y162643D01*
X153891Y162676D01*
X153956Y162720D01*
X154015Y162773D01*
X154064Y162835D01*
X154102Y162904D01*
X154130Y162978D01*
X154146Y163055D01*
X154149Y163134D01*
X154140Y163213D01*
X154117Y163288D01*
X154068Y163438D01*
X154034Y163592D01*
X154013Y163748D01*
X154006Y163906D01*
X154013Y164064D01*
X154034Y164220D01*
X154068Y164374D01*
X154116Y164524D01*
X154138Y164600D01*
X154147Y164678D01*
X154144Y164756D01*
X154128Y164833D01*
X154101Y164907D01*
X154062Y164976D01*
X154013Y165037D01*
X153955Y165091D01*
X153890Y165134D01*
X153818Y165167D01*
X153742Y165188D01*
X153664Y165197D01*
X153586Y165194D01*
X153576Y165192D01*
Y314000D01*
G37*
G36*
X156017Y28200D02*X153576D01*
Y142933D01*
X153616Y142937D01*
X153692Y142958D01*
X153764Y142991D01*
X153829Y143035D01*
X153888Y143088D01*
X153937Y143150D01*
X153975Y143219D01*
X154003Y143293D01*
X154019Y143370D01*
X154022Y143449D01*
X154013Y143528D01*
X153990Y143603D01*
X153941Y143753D01*
X153907Y143907D01*
X153886Y144063D01*
X153879Y144221D01*
X153886Y144379D01*
X153907Y144535D01*
X153941Y144689D01*
X153989Y144839D01*
X154011Y144915D01*
X154020Y144993D01*
X154017Y145071D01*
X154001Y145148D01*
X153974Y145222D01*
X153935Y145291D01*
X153886Y145352D01*
X153828Y145406D01*
X153763Y145449D01*
X153691Y145482D01*
X153615Y145503D01*
X153576Y145508D01*
Y154433D01*
X153628Y154349D01*
X153914Y154014D01*
X154249Y153728D01*
X154625Y153497D01*
X155032Y153329D01*
X155461Y153226D01*
X155900Y153191D01*
X156017Y153201D01*
Y147001D01*
X155924Y147013D01*
X155679Y147024D01*
X155434Y147013D01*
X155190Y146981D01*
X154950Y146927D01*
X154716Y146853D01*
X154644Y146821D01*
X154579Y146777D01*
X154520Y146724D01*
X154471Y146662D01*
X154433Y146593D01*
X154405Y146519D01*
X154389Y146442D01*
X154386Y146363D01*
X154395Y146284D01*
X154416Y146208D01*
X154449Y146136D01*
X154493Y146071D01*
X154546Y146012D01*
X154608Y145963D01*
X154677Y145925D01*
X154751Y145897D01*
X154828Y145881D01*
X154907Y145878D01*
X154986Y145887D01*
X155061Y145910D01*
X155211Y145959D01*
X155365Y145993D01*
X155521Y146014D01*
X155679Y146021D01*
X155837Y146014D01*
X155993Y145993D01*
X156017Y145988D01*
Y142454D01*
X155993Y142449D01*
X155837Y142428D01*
X155679Y142421D01*
X155521Y142428D01*
X155365Y142449D01*
X155211Y142483D01*
X155061Y142531D01*
X154985Y142553D01*
X154907Y142562D01*
X154829Y142559D01*
X154752Y142543D01*
X154678Y142516D01*
X154609Y142477D01*
X154548Y142428D01*
X154494Y142370D01*
X154451Y142305D01*
X154418Y142233D01*
X154397Y142157D01*
X154388Y142079D01*
X154391Y142001D01*
X154407Y141923D01*
X154434Y141850D01*
X154473Y141781D01*
X154522Y141719D01*
X154580Y141666D01*
X154645Y141623D01*
X154717Y141591D01*
X154950Y141515D01*
X155190Y141461D01*
X155434Y141429D01*
X155679Y141418D01*
X155924Y141429D01*
X156017Y141441D01*
Y28200D01*
G37*
G36*
X153576D02*X152184D01*
Y123869D01*
X152187Y123870D01*
X152255Y123909D01*
X152316Y123958D01*
X152369Y124017D01*
X152411Y124083D01*
X152574Y124408D01*
X152703Y124748D01*
X152801Y125098D01*
X152867Y125456D01*
X152900Y125818D01*
Y126182D01*
X152867Y126544D01*
X152801Y126902D01*
X152703Y127252D01*
X152574Y127592D01*
X152415Y127919D01*
X152372Y127985D01*
X152319Y128044D01*
X152257Y128094D01*
X152188Y128133D01*
X152184Y128135D01*
Y314000D01*
X153576D01*
Y165192D01*
X153508Y165178D01*
X153435Y165151D01*
X153366Y165112D01*
X153304Y165063D01*
X153251Y165005D01*
X153208Y164940D01*
X153176Y164868D01*
X153100Y164635D01*
X153046Y164395D01*
X153014Y164151D01*
X153003Y163906D01*
X153014Y163661D01*
X153046Y163417D01*
X153100Y163177D01*
X153174Y162943D01*
X153206Y162871D01*
X153250Y162806D01*
X153303Y162747D01*
X153365Y162698D01*
X153434Y162660D01*
X153508Y162632D01*
X153576Y162618D01*
Y157567D01*
X153397Y157275D01*
X153229Y156868D01*
X153126Y156439D01*
X153091Y156000D01*
X153126Y155561D01*
X153229Y155132D01*
X153397Y154725D01*
X153576Y154433D01*
Y145508D01*
X153537Y145512D01*
X153459Y145509D01*
X153381Y145493D01*
X153308Y145466D01*
X153239Y145427D01*
X153177Y145378D01*
X153124Y145320D01*
X153081Y145255D01*
X153049Y145183D01*
X152973Y144950D01*
X152919Y144710D01*
X152887Y144466D01*
X152876Y144221D01*
X152887Y143976D01*
X152919Y143732D01*
X152973Y143492D01*
X153047Y143258D01*
X153079Y143186D01*
X153123Y143121D01*
X153176Y143062D01*
X153238Y143013D01*
X153307Y142975D01*
X153381Y142947D01*
X153458Y142931D01*
X153537Y142928D01*
X153576Y142933D01*
Y28200D01*
G37*
G36*
X152184D02*X151184D01*
Y110369D01*
X151187Y110370D01*
X151255Y110409D01*
X151316Y110458D01*
X151369Y110517D01*
X151411Y110583D01*
X151574Y110908D01*
X151703Y111248D01*
X151801Y111598D01*
X151867Y111956D01*
X151900Y112318D01*
Y112682D01*
X151867Y113044D01*
X151801Y113402D01*
X151703Y113752D01*
X151574Y114092D01*
X151415Y114419D01*
X151372Y114485D01*
X151319Y114544D01*
X151257Y114594D01*
X151188Y114633D01*
X151184Y114635D01*
Y314000D01*
X152184D01*
Y128135D01*
X152114Y128161D01*
X152037Y128177D01*
X151958Y128181D01*
X151879Y128173D01*
X151803Y128152D01*
X151730Y128120D01*
X151664Y128077D01*
X151605Y128024D01*
X151556Y127962D01*
X151516Y127893D01*
X151488Y127819D01*
X151472Y127742D01*
X151468Y127663D01*
X151476Y127584D01*
X151497Y127507D01*
X151530Y127436D01*
X151653Y127193D01*
X151750Y126938D01*
X151823Y126676D01*
X151872Y126408D01*
X151897Y126136D01*
Y125864D01*
X151872Y125592D01*
X151823Y125324D01*
X151750Y125062D01*
X151653Y124807D01*
X151533Y124563D01*
X151500Y124491D01*
X151479Y124416D01*
X151471Y124337D01*
X151475Y124259D01*
X151491Y124182D01*
X151519Y124108D01*
X151558Y124040D01*
X151607Y123979D01*
X151666Y123926D01*
X151732Y123883D01*
X151804Y123851D01*
X151880Y123830D01*
X151958Y123822D01*
X152036Y123826D01*
X152113Y123842D01*
X152184Y123869D01*
Y28200D01*
G37*
G36*
X151184D02*X147396D01*
Y108529D01*
X147718Y108500D01*
X148082D01*
X148444Y108533D01*
X148802Y108599D01*
X149152Y108697D01*
X149492Y108826D01*
X149819Y108985D01*
X149885Y109028D01*
X149944Y109081D01*
X149994Y109143D01*
X150033Y109212D01*
X150061Y109286D01*
X150077Y109363D01*
X150081Y109442D01*
X150073Y109521D01*
X150052Y109597D01*
X150020Y109670D01*
X149977Y109736D01*
X149924Y109795D01*
X149862Y109844D01*
X149793Y109884D01*
X149719Y109912D01*
X149642Y109928D01*
X149563Y109932D01*
X149484Y109924D01*
X149407Y109903D01*
X149336Y109870D01*
X149093Y109747D01*
X148838Y109650D01*
X148576Y109577D01*
X148308Y109528D01*
X148036Y109503D01*
X147764D01*
X147492Y109528D01*
X147396Y109546D01*
Y115454D01*
X147492Y115472D01*
X147764Y115497D01*
X148036D01*
X148308Y115472D01*
X148576Y115423D01*
X148838Y115350D01*
X149093Y115253D01*
X149337Y115133D01*
X149409Y115100D01*
X149484Y115079D01*
X149563Y115071D01*
X149641Y115075D01*
X149718Y115091D01*
X149792Y115119D01*
X149860Y115158D01*
X149921Y115207D01*
X149974Y115266D01*
X150017Y115332D01*
X150049Y115404D01*
X150070Y115480D01*
X150078Y115558D01*
X150074Y115636D01*
X150058Y115713D01*
X150030Y115787D01*
X149991Y115855D01*
X149942Y115916D01*
X149883Y115969D01*
X149817Y116011D01*
X149492Y116174D01*
X149152Y116303D01*
X148802Y116401D01*
X148444Y116467D01*
X148082Y116500D01*
X147718D01*
X147396Y116471D01*
Y122293D01*
X147648Y122197D01*
X147998Y122099D01*
X148356Y122033D01*
X148718Y122000D01*
X149082D01*
X149444Y122033D01*
X149802Y122099D01*
X150152Y122197D01*
X150492Y122326D01*
X150819Y122485D01*
X150885Y122528D01*
X150944Y122581D01*
X150994Y122643D01*
X151033Y122712D01*
X151061Y122786D01*
X151077Y122863D01*
X151081Y122942D01*
X151073Y123021D01*
X151052Y123097D01*
X151020Y123170D01*
X150977Y123236D01*
X150924Y123295D01*
X150862Y123344D01*
X150793Y123384D01*
X150719Y123412D01*
X150642Y123428D01*
X150563Y123432D01*
X150484Y123424D01*
X150407Y123403D01*
X150336Y123370D01*
X150093Y123247D01*
X149838Y123150D01*
X149576Y123077D01*
X149308Y123028D01*
X149036Y123003D01*
X148764D01*
X148492Y123028D01*
X148224Y123077D01*
X147962Y123150D01*
X147707Y123247D01*
X147463Y123367D01*
X147396Y123398D01*
Y128598D01*
X147464Y128630D01*
X147707Y128753D01*
X147962Y128850D01*
X148224Y128923D01*
X148492Y128972D01*
X148764Y128997D01*
X149036D01*
X149308Y128972D01*
X149576Y128923D01*
X149838Y128850D01*
X150093Y128753D01*
X150337Y128633D01*
X150409Y128600D01*
X150484Y128579D01*
X150563Y128571D01*
X150641Y128575D01*
X150718Y128591D01*
X150792Y128619D01*
X150860Y128658D01*
X150921Y128707D01*
X150974Y128766D01*
X151017Y128832D01*
X151049Y128904D01*
X151070Y128980D01*
X151078Y129058D01*
X151074Y129136D01*
X151058Y129213D01*
X151030Y129287D01*
X150991Y129355D01*
X150942Y129416D01*
X150883Y129469D01*
X150817Y129511D01*
X150492Y129674D01*
X150152Y129803D01*
X149802Y129901D01*
X149444Y129967D01*
X149082Y130000D01*
X148718D01*
X148356Y129967D01*
X147998Y129901D01*
X147648Y129803D01*
X147396Y129707D01*
Y183192D01*
X147400Y183191D01*
X147839Y183226D01*
X148268Y183329D01*
X148675Y183497D01*
X149051Y183728D01*
X149386Y184014D01*
X149672Y184349D01*
X149903Y184725D01*
X150071Y185132D01*
X150174Y185561D01*
X150200Y186000D01*
X150174Y186439D01*
X150071Y186868D01*
X149903Y187275D01*
X149672Y187651D01*
X149386Y187986D01*
X149051Y188272D01*
X148675Y188503D01*
X148268Y188671D01*
X147839Y188774D01*
X147400Y188809D01*
X147396Y188808D01*
Y314000D01*
X151184D01*
Y114635D01*
X151114Y114661D01*
X151037Y114677D01*
X150958Y114681D01*
X150879Y114673D01*
X150803Y114652D01*
X150730Y114620D01*
X150664Y114577D01*
X150605Y114524D01*
X150556Y114462D01*
X150516Y114393D01*
X150488Y114319D01*
X150472Y114242D01*
X150468Y114163D01*
X150476Y114084D01*
X150497Y114007D01*
X150530Y113936D01*
X150653Y113693D01*
X150750Y113438D01*
X150823Y113176D01*
X150872Y112908D01*
X150897Y112636D01*
Y112364D01*
X150872Y112092D01*
X150823Y111824D01*
X150750Y111562D01*
X150653Y111307D01*
X150533Y111063D01*
X150500Y110991D01*
X150479Y110916D01*
X150471Y110837D01*
X150475Y110759D01*
X150491Y110682D01*
X150519Y110608D01*
X150558Y110540D01*
X150607Y110479D01*
X150666Y110426D01*
X150732Y110383D01*
X150804Y110351D01*
X150880Y110330D01*
X150958Y110322D01*
X151036Y110326D01*
X151113Y110342D01*
X151184Y110369D01*
Y28200D01*
G37*
G36*
X145616Y201019D02*X145716Y201260D01*
X145863Y201872D01*
X145900Y202500D01*
X145863Y203128D01*
X145716Y203740D01*
X145616Y203981D01*
Y314000D01*
X147396D01*
Y188808D01*
X146961Y188774D01*
X146532Y188671D01*
X146125Y188503D01*
X145749Y188272D01*
X145616Y188159D01*
Y201019D01*
G37*
G36*
X147396Y28200D02*X145616D01*
Y123865D01*
X145686Y123839D01*
X145763Y123823D01*
X145842Y123819D01*
X145921Y123827D01*
X145997Y123848D01*
X146070Y123880D01*
X146136Y123923D01*
X146195Y123976D01*
X146244Y124038D01*
X146284Y124107D01*
X146312Y124181D01*
X146328Y124258D01*
X146332Y124337D01*
X146324Y124416D01*
X146303Y124493D01*
X146270Y124564D01*
X146147Y124807D01*
X146050Y125062D01*
X145977Y125324D01*
X145928Y125592D01*
X145903Y125864D01*
Y126136D01*
X145928Y126408D01*
X145977Y126676D01*
X146050Y126938D01*
X146147Y127193D01*
X146267Y127437D01*
X146300Y127509D01*
X146321Y127585D01*
X146329Y127663D01*
X146325Y127741D01*
X146309Y127818D01*
X146281Y127892D01*
X146242Y127960D01*
X146193Y128021D01*
X146134Y128074D01*
X146068Y128117D01*
X145996Y128149D01*
X145920Y128170D01*
X145842Y128178D01*
X145764Y128174D01*
X145687Y128158D01*
X145616Y128131D01*
Y183841D01*
X145749Y183728D01*
X146125Y183497D01*
X146532Y183329D01*
X146961Y183226D01*
X147396Y183192D01*
Y129707D01*
X147308Y129674D01*
X146981Y129515D01*
X146915Y129472D01*
X146856Y129419D01*
X146806Y129357D01*
X146767Y129288D01*
X146739Y129214D01*
X146723Y129137D01*
X146719Y129058D01*
X146727Y128979D01*
X146748Y128903D01*
X146780Y128830D01*
X146823Y128764D01*
X146876Y128705D01*
X146938Y128656D01*
X147007Y128616D01*
X147081Y128588D01*
X147158Y128572D01*
X147237Y128568D01*
X147316Y128576D01*
X147393Y128597D01*
X147396Y128598D01*
Y123398D01*
X147391Y123400D01*
X147315Y123421D01*
X147237Y123429D01*
X147159Y123425D01*
X147082Y123409D01*
X147008Y123381D01*
X146940Y123342D01*
X146879Y123293D01*
X146826Y123234D01*
X146783Y123168D01*
X146751Y123096D01*
X146730Y123020D01*
X146722Y122942D01*
X146726Y122864D01*
X146742Y122787D01*
X146770Y122713D01*
X146809Y122645D01*
X146858Y122584D01*
X146917Y122531D01*
X146983Y122489D01*
X147308Y122326D01*
X147396Y122293D01*
Y116471D01*
X147356Y116467D01*
X146998Y116401D01*
X146648Y116303D01*
X146308Y116174D01*
X145981Y116015D01*
X145915Y115972D01*
X145856Y115919D01*
X145806Y115857D01*
X145767Y115788D01*
X145739Y115714D01*
X145723Y115637D01*
X145719Y115558D01*
X145727Y115479D01*
X145748Y115403D01*
X145780Y115330D01*
X145823Y115264D01*
X145876Y115205D01*
X145938Y115156D01*
X146007Y115116D01*
X146081Y115088D01*
X146158Y115072D01*
X146237Y115068D01*
X146316Y115076D01*
X146393Y115097D01*
X146464Y115130D01*
X146707Y115253D01*
X146962Y115350D01*
X147224Y115423D01*
X147396Y115454D01*
Y109546D01*
X147224Y109577D01*
X146962Y109650D01*
X146707Y109747D01*
X146463Y109867D01*
X146391Y109900D01*
X146315Y109921D01*
X146237Y109929D01*
X146159Y109925D01*
X146082Y109909D01*
X146008Y109881D01*
X145940Y109842D01*
X145879Y109793D01*
X145826Y109734D01*
X145783Y109668D01*
X145751Y109596D01*
X145730Y109520D01*
X145722Y109442D01*
X145726Y109364D01*
X145742Y109287D01*
X145770Y109213D01*
X145809Y109145D01*
X145858Y109084D01*
X145917Y109031D01*
X145983Y108989D01*
X146308Y108826D01*
X146648Y108697D01*
X146998Y108599D01*
X147356Y108533D01*
X147396Y108529D01*
Y28200D01*
G37*
G36*
X145616Y203981D02*X145475Y204322D01*
X145146Y204858D01*
X144737Y205337D01*
X144258Y205746D01*
X143722Y206075D01*
X143140Y206316D01*
X142528Y206463D01*
X141900Y206512D01*
X141272Y206463D01*
X140660Y206316D01*
X140078Y206075D01*
X139542Y205746D01*
X139396Y205621D01*
Y314000D01*
X145616D01*
Y203981D01*
G37*
G36*
X144616Y199560D02*X144737Y199663D01*
X145146Y200142D01*
X145475Y200678D01*
X145616Y201019D01*
Y188159D01*
X145414Y187986D01*
X145128Y187651D01*
X144897Y187275D01*
X144729Y186868D01*
X144626Y186439D01*
X144616Y186315D01*
Y199560D01*
G37*
G36*
X145616Y28200D02*X144616D01*
Y110365D01*
X144686Y110339D01*
X144763Y110323D01*
X144842Y110319D01*
X144921Y110327D01*
X144997Y110348D01*
X145070Y110380D01*
X145136Y110423D01*
X145195Y110476D01*
X145244Y110538D01*
X145284Y110607D01*
X145312Y110681D01*
X145328Y110758D01*
X145332Y110837D01*
X145324Y110916D01*
X145303Y110993D01*
X145270Y111064D01*
X145147Y111307D01*
X145050Y111562D01*
X144977Y111824D01*
X144928Y112092D01*
X144903Y112364D01*
Y112636D01*
X144928Y112908D01*
X144977Y113176D01*
X145050Y113438D01*
X145147Y113693D01*
X145267Y113937D01*
X145300Y114009D01*
X145321Y114085D01*
X145329Y114163D01*
X145325Y114241D01*
X145309Y114318D01*
X145281Y114392D01*
X145242Y114460D01*
X145193Y114521D01*
X145134Y114574D01*
X145068Y114617D01*
X144996Y114649D01*
X144920Y114670D01*
X144842Y114678D01*
X144764Y114674D01*
X144687Y114658D01*
X144616Y114631D01*
Y185685D01*
X144626Y185561D01*
X144729Y185132D01*
X144897Y184725D01*
X145128Y184349D01*
X145414Y184014D01*
X145616Y183841D01*
Y128131D01*
X145613Y128130D01*
X145545Y128091D01*
X145484Y128042D01*
X145431Y127983D01*
X145389Y127917D01*
X145226Y127592D01*
X145097Y127252D01*
X144999Y126902D01*
X144933Y126544D01*
X144900Y126182D01*
Y125818D01*
X144933Y125456D01*
X144999Y125098D01*
X145097Y124748D01*
X145226Y124408D01*
X145385Y124081D01*
X145428Y124015D01*
X145481Y123956D01*
X145543Y123906D01*
X145612Y123867D01*
X145616Y123865D01*
Y28200D01*
G37*
G36*
X144616D02*X139396D01*
Y151692D01*
X139400Y151691D01*
X139839Y151726D01*
X140268Y151829D01*
X140675Y151997D01*
X141051Y152228D01*
X141386Y152514D01*
X141672Y152849D01*
X141903Y153225D01*
X142071Y153632D01*
X142174Y154061D01*
X142200Y154500D01*
X142174Y154939D01*
X142071Y155368D01*
X141903Y155775D01*
X141672Y156151D01*
X141386Y156486D01*
X141051Y156772D01*
X140675Y157003D01*
X140268Y157171D01*
X139839Y157274D01*
X139400Y157309D01*
X139396Y157308D01*
Y199379D01*
X139542Y199254D01*
X140078Y198925D01*
X140660Y198684D01*
X141272Y198537D01*
X141900Y198488D01*
X142528Y198537D01*
X143140Y198684D01*
X143722Y198925D01*
X144258Y199254D01*
X144616Y199560D01*
Y186315D01*
X144591Y186000D01*
X144616Y185685D01*
Y114631D01*
X144613Y114630D01*
X144545Y114591D01*
X144484Y114542D01*
X144431Y114483D01*
X144389Y114417D01*
X144226Y114092D01*
X144097Y113752D01*
X143999Y113402D01*
X143933Y113044D01*
X143900Y112682D01*
Y112318D01*
X143933Y111956D01*
X143999Y111598D01*
X144097Y111248D01*
X144226Y110908D01*
X144385Y110581D01*
X144428Y110515D01*
X144481Y110456D01*
X144543Y110406D01*
X144612Y110367D01*
X144616Y110365D01*
Y28200D01*
G37*
G36*
X139396D02*X133396D01*
Y146525D01*
X133672Y146849D01*
X133903Y147225D01*
X134071Y147632D01*
X134174Y148061D01*
X134200Y148500D01*
X134174Y148939D01*
X134071Y149368D01*
X133903Y149775D01*
X133672Y150151D01*
X133396Y150475D01*
Y151692D01*
X133400Y151691D01*
X133839Y151726D01*
X134268Y151829D01*
X134675Y151997D01*
X135051Y152228D01*
X135386Y152514D01*
X135672Y152849D01*
X135903Y153225D01*
X136071Y153632D01*
X136174Y154061D01*
X136200Y154500D01*
X136174Y154939D01*
X136071Y155368D01*
X135903Y155775D01*
X135672Y156151D01*
X135386Y156486D01*
X135051Y156772D01*
X134675Y157003D01*
X134268Y157171D01*
X133839Y157274D01*
X133400Y157309D01*
X133396Y157308D01*
Y191133D01*
X133551Y191228D01*
X133886Y191514D01*
X134172Y191849D01*
X134403Y192225D01*
X134571Y192632D01*
X134674Y193061D01*
X134700Y193500D01*
X134674Y193939D01*
X134571Y194368D01*
X134403Y194775D01*
X134172Y195151D01*
X133886Y195486D01*
X133551Y195772D01*
X133396Y195867D01*
Y314000D01*
X139396D01*
Y205621D01*
X139063Y205337D01*
X138654Y204858D01*
X138325Y204322D01*
X138084Y203740D01*
X137937Y203128D01*
X137888Y202500D01*
X137937Y201872D01*
X138084Y201260D01*
X138325Y200678D01*
X138654Y200142D01*
X139063Y199663D01*
X139396Y199379D01*
Y157308D01*
X138961Y157274D01*
X138532Y157171D01*
X138125Y157003D01*
X137749Y156772D01*
X137414Y156486D01*
X137128Y156151D01*
X136897Y155775D01*
X136729Y155368D01*
X136626Y154939D01*
X136591Y154500D01*
X136626Y154061D01*
X136729Y153632D01*
X136897Y153225D01*
X137128Y152849D01*
X137414Y152514D01*
X137749Y152228D01*
X138125Y151997D01*
X138532Y151829D01*
X138961Y151726D01*
X139396Y151692D01*
Y28200D01*
G37*
G36*
X133396D02*X125396D01*
Y35773D01*
X126275Y36525D01*
X127655Y38140D01*
X128766Y39952D01*
X129579Y41915D01*
X130075Y43982D01*
X130200Y46100D01*
X130075Y48218D01*
X129579Y50285D01*
X128766Y52248D01*
X127655Y54060D01*
X126275Y55675D01*
X125396Y56427D01*
Y190692D01*
X125400Y190691D01*
X125839Y190726D01*
X126268Y190829D01*
X126675Y190997D01*
X127051Y191228D01*
X127386Y191514D01*
X127672Y191849D01*
X127903Y192225D01*
X128071Y192632D01*
X128174Y193061D01*
X128200Y193500D01*
X128174Y193939D01*
X128071Y194368D01*
X127903Y194775D01*
X127672Y195151D01*
X127386Y195486D01*
X127051Y195772D01*
X126675Y196003D01*
X126268Y196171D01*
X125839Y196274D01*
X125400Y196309D01*
X125396Y196308D01*
Y252549D01*
X125581Y252851D01*
X125760Y253283D01*
X125869Y253738D01*
X125896Y254204D01*
X125869Y254670D01*
X125760Y255125D01*
X125581Y255557D01*
X125396Y255859D01*
Y285773D01*
X126275Y286525D01*
X127655Y288140D01*
X128766Y289952D01*
X129579Y291915D01*
X130075Y293982D01*
X130200Y296100D01*
X130075Y298218D01*
X129579Y300285D01*
X128766Y302248D01*
X127655Y304060D01*
X126275Y305675D01*
X125396Y306427D01*
Y314000D01*
X133396D01*
Y195867D01*
X133175Y196003D01*
X132768Y196171D01*
X132339Y196274D01*
X131900Y196309D01*
X131461Y196274D01*
X131032Y196171D01*
X130625Y196003D01*
X130249Y195772D01*
X129914Y195486D01*
X129628Y195151D01*
X129397Y194775D01*
X129229Y194368D01*
X129126Y193939D01*
X129091Y193500D01*
X129126Y193061D01*
X129229Y192632D01*
X129397Y192225D01*
X129628Y191849D01*
X129914Y191514D01*
X130249Y191228D01*
X130625Y190997D01*
X131032Y190829D01*
X131461Y190726D01*
X131900Y190691D01*
X132339Y190726D01*
X132768Y190829D01*
X133175Y190997D01*
X133396Y191133D01*
Y157308D01*
X132961Y157274D01*
X132532Y157171D01*
X132125Y157003D01*
X131749Y156772D01*
X131414Y156486D01*
X131128Y156151D01*
X130897Y155775D01*
X130729Y155368D01*
X130626Y154939D01*
X130591Y154500D01*
X130626Y154061D01*
X130729Y153632D01*
X130897Y153225D01*
X131128Y152849D01*
X131414Y152514D01*
X131749Y152228D01*
X132125Y151997D01*
X132532Y151829D01*
X132961Y151726D01*
X133396Y151692D01*
Y150475D01*
X133386Y150486D01*
X133051Y150772D01*
X132675Y151003D01*
X132268Y151171D01*
X131839Y151274D01*
X131400Y151309D01*
X130961Y151274D01*
X130532Y151171D01*
X130125Y151003D01*
X129749Y150772D01*
X129414Y150486D01*
X129128Y150151D01*
X128897Y149775D01*
X128729Y149368D01*
X128626Y148939D01*
X128591Y148500D01*
X128626Y148061D01*
X128729Y147632D01*
X128897Y147225D01*
X129128Y146849D01*
X129414Y146514D01*
X129749Y146228D01*
X130125Y145997D01*
X130532Y145829D01*
X130961Y145726D01*
X131400Y145691D01*
X131839Y145726D01*
X132268Y145829D01*
X132675Y145997D01*
X133051Y146228D01*
X133386Y146514D01*
X133396Y146525D01*
Y28200D01*
G37*
G36*
X125396Y306427D02*X124660Y307055D01*
X122848Y308166D01*
X120885Y308979D01*
X118896Y309456D01*
Y314000D01*
X125396D01*
Y306427D01*
G37*
G36*
Y56427D02*X124660Y57055D01*
X122848Y58166D01*
X120885Y58979D01*
X118896Y59456D01*
Y190692D01*
X118900Y190691D01*
X119339Y190726D01*
X119768Y190829D01*
X120175Y190997D01*
X120551Y191228D01*
X120886Y191514D01*
X121172Y191849D01*
X121403Y192225D01*
X121571Y192632D01*
X121674Y193061D01*
X121700Y193500D01*
X121674Y193939D01*
X121571Y194368D01*
X121403Y194775D01*
X121172Y195151D01*
X120886Y195486D01*
X120551Y195772D01*
X120175Y196003D01*
X119768Y196171D01*
X119339Y196274D01*
X118900Y196309D01*
X118896Y196308D01*
Y282744D01*
X120885Y283221D01*
X122848Y284034D01*
X124660Y285145D01*
X125396Y285773D01*
Y255859D01*
X125336Y255956D01*
X125033Y256312D01*
X124677Y256615D01*
X124278Y256860D01*
X123846Y257039D01*
X123391Y257148D01*
X122925Y257185D01*
X122459Y257148D01*
X122004Y257039D01*
X121572Y256860D01*
X121173Y256615D01*
X120817Y256312D01*
X120514Y255956D01*
X120269Y255557D01*
X120090Y255125D01*
X119981Y254670D01*
X119944Y254204D01*
X119981Y253738D01*
X120090Y253283D01*
X120269Y252851D01*
X120514Y252452D01*
X120817Y252096D01*
X121173Y251793D01*
X121572Y251548D01*
X122004Y251369D01*
X122459Y251260D01*
X122925Y251223D01*
X123391Y251260D01*
X123846Y251369D01*
X124278Y251548D01*
X124677Y251793D01*
X125033Y252096D01*
X125336Y252452D01*
X125396Y252549D01*
Y196308D01*
X124961Y196274D01*
X124532Y196171D01*
X124125Y196003D01*
X123749Y195772D01*
X123414Y195486D01*
X123128Y195151D01*
X122897Y194775D01*
X122729Y194368D01*
X122626Y193939D01*
X122591Y193500D01*
X122626Y193061D01*
X122729Y192632D01*
X122897Y192225D01*
X123128Y191849D01*
X123414Y191514D01*
X123749Y191228D01*
X124125Y190997D01*
X124532Y190829D01*
X124961Y190726D01*
X125396Y190692D01*
Y56427D01*
G37*
G36*
Y28200D02*X118896D01*
Y32744D01*
X120885Y33221D01*
X122848Y34034D01*
X124660Y35145D01*
X125396Y35773D01*
Y28200D01*
G37*
G36*
X112396Y283271D02*X112515Y283221D01*
X114582Y282725D01*
X116700Y282558D01*
X118818Y282725D01*
X118896Y282744D01*
Y196308D01*
X118461Y196274D01*
X118032Y196171D01*
X117625Y196003D01*
X117249Y195772D01*
X116914Y195486D01*
X116628Y195151D01*
X116397Y194775D01*
X116229Y194368D01*
X116126Y193939D01*
X116091Y193500D01*
X116126Y193061D01*
X116229Y192632D01*
X116397Y192225D01*
X116628Y191849D01*
X116914Y191514D01*
X117249Y191228D01*
X117625Y190997D01*
X118032Y190829D01*
X118461Y190726D01*
X118896Y190692D01*
Y59456D01*
X118818Y59475D01*
X116700Y59642D01*
X114582Y59475D01*
X112515Y58979D01*
X112396Y58929D01*
Y190692D01*
X112400Y190691D01*
X112839Y190726D01*
X113268Y190829D01*
X113675Y190997D01*
X114051Y191228D01*
X114386Y191514D01*
X114672Y191849D01*
X114903Y192225D01*
X115071Y192632D01*
X115174Y193061D01*
X115200Y193500D01*
X115174Y193939D01*
X115071Y194368D01*
X114903Y194775D01*
X114672Y195151D01*
X114386Y195486D01*
X114051Y195772D01*
X113675Y196003D01*
X113268Y196171D01*
X112839Y196274D01*
X112400Y196309D01*
X112396Y196308D01*
Y283271D01*
G37*
G36*
Y314000D02*X118896D01*
Y309456D01*
X118818Y309475D01*
X116700Y309642D01*
X114582Y309475D01*
X112515Y308979D01*
X112396Y308929D01*
Y314000D01*
G37*
G36*
X118896Y28200D02*X112396D01*
Y33271D01*
X112515Y33221D01*
X114582Y32725D01*
X116700Y32558D01*
X118818Y32725D01*
X118896Y32744D01*
Y28200D01*
G37*
G36*
X107184Y286474D02*X108740Y285145D01*
X110552Y284034D01*
X112396Y283271D01*
Y196308D01*
X111961Y196274D01*
X111532Y196171D01*
X111125Y196003D01*
X110749Y195772D01*
X110414Y195486D01*
X110128Y195151D01*
X109897Y194775D01*
X109729Y194368D01*
X109626Y193939D01*
X109591Y193500D01*
X109626Y193061D01*
X109729Y192632D01*
X109897Y192225D01*
X110128Y191849D01*
X110414Y191514D01*
X110749Y191228D01*
X111125Y190997D01*
X111532Y190829D01*
X111961Y190726D01*
X112396Y190692D01*
Y58929D01*
X110552Y58166D01*
X108740Y57055D01*
X107184Y55726D01*
Y92369D01*
X107187Y92370D01*
X107255Y92409D01*
X107316Y92458D01*
X107369Y92517D01*
X107411Y92583D01*
X107574Y92908D01*
X107703Y93248D01*
X107801Y93598D01*
X107867Y93956D01*
X107900Y94318D01*
Y94682D01*
X107867Y95044D01*
X107801Y95402D01*
X107703Y95752D01*
X107574Y96092D01*
X107415Y96419D01*
X107372Y96485D01*
X107319Y96544D01*
X107257Y96594D01*
X107188Y96633D01*
X107184Y96635D01*
Y286474D01*
G37*
G36*
X103684Y292487D02*X103821Y291915D01*
X104634Y289952D01*
X105745Y288140D01*
X107125Y286525D01*
X107184Y286474D01*
Y96635D01*
X107114Y96661D01*
X107037Y96677D01*
X106958Y96681D01*
X106879Y96673D01*
X106803Y96652D01*
X106730Y96620D01*
X106664Y96577D01*
X106605Y96524D01*
X106556Y96462D01*
X106516Y96393D01*
X106488Y96319D01*
X106472Y96242D01*
X106468Y96163D01*
X106476Y96084D01*
X106497Y96007D01*
X106530Y95936D01*
X106653Y95693D01*
X106750Y95438D01*
X106823Y95176D01*
X106872Y94908D01*
X106897Y94636D01*
Y94364D01*
X106872Y94092D01*
X106823Y93824D01*
X106750Y93562D01*
X106653Y93307D01*
X106533Y93063D01*
X106500Y92991D01*
X106479Y92916D01*
X106471Y92837D01*
X106475Y92759D01*
X106491Y92682D01*
X106519Y92608D01*
X106558Y92540D01*
X106607Y92479D01*
X106666Y92426D01*
X106732Y92383D01*
X106804Y92351D01*
X106880Y92330D01*
X106958Y92322D01*
X107036Y92326D01*
X107113Y92342D01*
X107184Y92369D01*
Y55726D01*
X107125Y55675D01*
X105745Y54060D01*
X104634Y52248D01*
X103821Y50285D01*
X103684Y49713D01*
Y90503D01*
X103718Y90500D01*
X104082D01*
X104444Y90533D01*
X104802Y90599D01*
X105152Y90697D01*
X105492Y90826D01*
X105819Y90985D01*
X105885Y91028D01*
X105944Y91081D01*
X105994Y91143D01*
X106033Y91212D01*
X106061Y91286D01*
X106077Y91363D01*
X106081Y91442D01*
X106073Y91521D01*
X106052Y91597D01*
X106020Y91670D01*
X105977Y91736D01*
X105924Y91795D01*
X105862Y91844D01*
X105793Y91884D01*
X105719Y91912D01*
X105642Y91928D01*
X105563Y91932D01*
X105484Y91924D01*
X105407Y91903D01*
X105336Y91870D01*
X105093Y91747D01*
X104838Y91650D01*
X104576Y91577D01*
X104308Y91528D01*
X104036Y91503D01*
X103764D01*
X103684Y91510D01*
Y97490D01*
X103764Y97497D01*
X104036D01*
X104308Y97472D01*
X104576Y97423D01*
X104838Y97350D01*
X105093Y97253D01*
X105337Y97133D01*
X105409Y97100D01*
X105484Y97079D01*
X105563Y97071D01*
X105641Y97075D01*
X105718Y97091D01*
X105792Y97119D01*
X105860Y97158D01*
X105921Y97207D01*
X105974Y97266D01*
X106017Y97332D01*
X106049Y97404D01*
X106070Y97480D01*
X106078Y97558D01*
X106074Y97636D01*
X106058Y97713D01*
X106030Y97787D01*
X105991Y97855D01*
X105942Y97916D01*
X105883Y97969D01*
X105817Y98011D01*
X105492Y98174D01*
X105152Y98303D01*
X104802Y98401D01*
X104444Y98467D01*
X104082Y98500D01*
X103718D01*
X103684Y98497D01*
Y197869D01*
X103687Y197870D01*
X103755Y197909D01*
X103816Y197958D01*
X103869Y198017D01*
X103911Y198083D01*
X104074Y198408D01*
X104203Y198748D01*
X104301Y199098D01*
X104367Y199456D01*
X104400Y199818D01*
Y200182D01*
X104367Y200544D01*
X104301Y200902D01*
X104203Y201252D01*
X104074Y201592D01*
X103915Y201919D01*
X103872Y201985D01*
X103819Y202044D01*
X103757Y202094D01*
X103688Y202133D01*
X103684Y202135D01*
Y292487D01*
G37*
G36*
Y314000D02*X112396D01*
Y308929D01*
X110552Y308166D01*
X108740Y307055D01*
X107125Y305675D01*
X105745Y304060D01*
X104634Y302248D01*
X103821Y300285D01*
X103684Y299713D01*
Y314000D01*
G37*
G36*
X112396Y28200D02*X103684D01*
Y42487D01*
X103821Y41915D01*
X104634Y39952D01*
X105745Y38140D01*
X107125Y36525D01*
X108740Y35145D01*
X110552Y34034D01*
X112396Y33271D01*
Y28200D01*
G37*
G36*
X103684D02*X100402D01*
Y92556D01*
X100428Y92515D01*
X100481Y92456D01*
X100543Y92406D01*
X100612Y92367D01*
X100686Y92339D01*
X100763Y92323D01*
X100842Y92319D01*
X100921Y92327D01*
X100997Y92348D01*
X101070Y92380D01*
X101136Y92423D01*
X101195Y92476D01*
X101244Y92538D01*
X101284Y92607D01*
X101312Y92681D01*
X101328Y92758D01*
X101332Y92837D01*
X101324Y92916D01*
X101303Y92993D01*
X101270Y93064D01*
X101147Y93307D01*
X101050Y93562D01*
X100977Y93824D01*
X100928Y94092D01*
X100903Y94364D01*
Y94636D01*
X100928Y94908D01*
X100977Y95176D01*
X101050Y95438D01*
X101147Y95693D01*
X101267Y95937D01*
X101300Y96009D01*
X101321Y96085D01*
X101329Y96163D01*
X101325Y96241D01*
X101309Y96318D01*
X101281Y96392D01*
X101242Y96460D01*
X101193Y96521D01*
X101134Y96574D01*
X101068Y96617D01*
X100996Y96649D01*
X100920Y96670D01*
X100842Y96678D01*
X100764Y96674D01*
X100687Y96658D01*
X100613Y96630D01*
X100545Y96591D01*
X100484Y96542D01*
X100431Y96483D01*
X100402Y96437D01*
Y196000D01*
X100582D01*
X100944Y196033D01*
X101302Y196099D01*
X101652Y196197D01*
X101992Y196326D01*
X102319Y196485D01*
X102385Y196528D01*
X102444Y196581D01*
X102494Y196643D01*
X102533Y196712D01*
X102561Y196786D01*
X102577Y196863D01*
X102581Y196942D01*
X102573Y197021D01*
X102552Y197097D01*
X102520Y197170D01*
X102477Y197236D01*
X102424Y197295D01*
X102362Y197344D01*
X102293Y197384D01*
X102219Y197412D01*
X102142Y197428D01*
X102063Y197432D01*
X101984Y197424D01*
X101907Y197403D01*
X101836Y197370D01*
X101593Y197247D01*
X101338Y197150D01*
X101076Y197077D01*
X100808Y197028D01*
X100536Y197003D01*
X100402D01*
Y202997D01*
X100536D01*
X100808Y202972D01*
X101076Y202923D01*
X101338Y202850D01*
X101593Y202753D01*
X101837Y202633D01*
X101909Y202600D01*
X101984Y202579D01*
X102063Y202571D01*
X102141Y202575D01*
X102218Y202591D01*
X102292Y202619D01*
X102360Y202658D01*
X102421Y202707D01*
X102474Y202766D01*
X102517Y202832D01*
X102549Y202904D01*
X102570Y202980D01*
X102578Y203058D01*
X102574Y203136D01*
X102558Y203213D01*
X102530Y203287D01*
X102491Y203355D01*
X102442Y203416D01*
X102383Y203469D01*
X102317Y203511D01*
X101992Y203674D01*
X101652Y203803D01*
X101302Y203901D01*
X100944Y203967D01*
X100582Y204000D01*
X100402D01*
Y314000D01*
X103684D01*
Y299713D01*
X103325Y298218D01*
X103158Y296100D01*
X103325Y293982D01*
X103684Y292487D01*
Y202135D01*
X103614Y202161D01*
X103537Y202177D01*
X103458Y202181D01*
X103379Y202173D01*
X103303Y202152D01*
X103230Y202120D01*
X103164Y202077D01*
X103105Y202024D01*
X103056Y201962D01*
X103016Y201893D01*
X102988Y201819D01*
X102972Y201742D01*
X102968Y201663D01*
X102976Y201584D01*
X102997Y201507D01*
X103030Y201436D01*
X103153Y201193D01*
X103250Y200938D01*
X103323Y200676D01*
X103372Y200408D01*
X103397Y200136D01*
Y199864D01*
X103372Y199592D01*
X103323Y199324D01*
X103250Y199062D01*
X103153Y198807D01*
X103033Y198563D01*
X103000Y198491D01*
X102979Y198416D01*
X102971Y198337D01*
X102975Y198259D01*
X102991Y198182D01*
X103019Y198108D01*
X103058Y198040D01*
X103107Y197979D01*
X103166Y197926D01*
X103232Y197883D01*
X103304Y197851D01*
X103380Y197830D01*
X103458Y197822D01*
X103536Y197826D01*
X103613Y197842D01*
X103684Y197869D01*
Y98497D01*
X103356Y98467D01*
X102998Y98401D01*
X102648Y98303D01*
X102308Y98174D01*
X101981Y98015D01*
X101915Y97972D01*
X101856Y97919D01*
X101806Y97857D01*
X101767Y97788D01*
X101739Y97714D01*
X101723Y97637D01*
X101719Y97558D01*
X101727Y97479D01*
X101748Y97403D01*
X101780Y97330D01*
X101823Y97264D01*
X101876Y97205D01*
X101938Y97156D01*
X102007Y97116D01*
X102081Y97088D01*
X102158Y97072D01*
X102237Y97068D01*
X102316Y97076D01*
X102393Y97097D01*
X102464Y97130D01*
X102707Y97253D01*
X102962Y97350D01*
X103224Y97423D01*
X103492Y97472D01*
X103684Y97490D01*
Y91510D01*
X103492Y91528D01*
X103224Y91577D01*
X102962Y91650D01*
X102707Y91747D01*
X102463Y91867D01*
X102391Y91900D01*
X102315Y91921D01*
X102237Y91929D01*
X102159Y91925D01*
X102082Y91909D01*
X102008Y91881D01*
X101940Y91842D01*
X101879Y91793D01*
X101826Y91734D01*
X101783Y91668D01*
X101751Y91596D01*
X101730Y91520D01*
X101722Y91442D01*
X101726Y91364D01*
X101742Y91287D01*
X101770Y91213D01*
X101809Y91145D01*
X101858Y91084D01*
X101917Y91031D01*
X101983Y90989D01*
X102308Y90826D01*
X102648Y90697D01*
X102998Y90599D01*
X103356Y90533D01*
X103684Y90503D01*
Y49713D01*
X103325Y48218D01*
X103158Y46100D01*
X103325Y43982D01*
X103684Y42487D01*
Y28200D01*
G37*
G36*
X98684Y202570D02*X98737Y202568D01*
X98816Y202576D01*
X98893Y202597D01*
X98964Y202630D01*
X99207Y202753D01*
X99462Y202850D01*
X99724Y202923D01*
X99992Y202972D01*
X100264Y202997D01*
X100402D01*
Y197003D01*
X100264D01*
X99992Y197028D01*
X99724Y197077D01*
X99462Y197150D01*
X99207Y197247D01*
X98963Y197367D01*
X98891Y197400D01*
X98815Y197421D01*
X98737Y197429D01*
X98684Y197427D01*
Y202570D01*
G37*
G36*
Y314000D02*X100402D01*
Y204000D01*
X100218D01*
X99856Y203967D01*
X99498Y203901D01*
X99148Y203803D01*
X98808Y203674D01*
X98684Y203613D01*
Y314000D01*
G37*
G36*
X100402Y28200D02*X98684D01*
Y142869D01*
X98687Y142870D01*
X98755Y142909D01*
X98816Y142958D01*
X98869Y143017D01*
X98911Y143083D01*
X99074Y143408D01*
X99203Y143748D01*
X99301Y144098D01*
X99367Y144456D01*
X99400Y144818D01*
Y145182D01*
X99367Y145544D01*
X99301Y145902D01*
X99203Y146252D01*
X99074Y146592D01*
X98915Y146919D01*
X98872Y146985D01*
X98819Y147044D01*
X98757Y147094D01*
X98688Y147133D01*
X98684Y147135D01*
Y196388D01*
X98808Y196326D01*
X99148Y196197D01*
X99498Y196099D01*
X99856Y196033D01*
X100218Y196000D01*
X100402D01*
Y96437D01*
X100389Y96417D01*
X100226Y96092D01*
X100097Y95752D01*
X99999Y95402D01*
X99933Y95044D01*
X99900Y94682D01*
Y94318D01*
X99933Y93956D01*
X99999Y93598D01*
X100097Y93248D01*
X100226Y92908D01*
X100385Y92581D01*
X100402Y92556D01*
Y28200D01*
G37*
G36*
X98684D02*X97116D01*
Y141387D01*
X97319Y141485D01*
X97385Y141528D01*
X97444Y141581D01*
X97494Y141643D01*
X97533Y141712D01*
X97561Y141786D01*
X97577Y141863D01*
X97581Y141942D01*
X97573Y142021D01*
X97552Y142097D01*
X97520Y142170D01*
X97477Y142236D01*
X97424Y142295D01*
X97362Y142344D01*
X97293Y142384D01*
X97219Y142412D01*
X97142Y142428D01*
X97116Y142430D01*
Y147573D01*
X97141Y147575D01*
X97218Y147591D01*
X97292Y147619D01*
X97360Y147658D01*
X97421Y147707D01*
X97474Y147766D01*
X97517Y147832D01*
X97549Y147904D01*
X97570Y147980D01*
X97578Y148058D01*
X97574Y148136D01*
X97558Y148213D01*
X97530Y148287D01*
X97491Y148355D01*
X97442Y148416D01*
X97383Y148469D01*
X97317Y148511D01*
X97116Y148612D01*
Y197865D01*
X97186Y197839D01*
X97263Y197823D01*
X97342Y197819D01*
X97421Y197827D01*
X97497Y197848D01*
X97570Y197880D01*
X97636Y197923D01*
X97695Y197976D01*
X97744Y198038D01*
X97784Y198107D01*
X97812Y198181D01*
X97828Y198258D01*
X97832Y198337D01*
X97824Y198416D01*
X97803Y198493D01*
X97770Y198564D01*
X97647Y198807D01*
X97550Y199062D01*
X97477Y199324D01*
X97428Y199592D01*
X97403Y199864D01*
Y200136D01*
X97428Y200408D01*
X97477Y200676D01*
X97550Y200938D01*
X97647Y201193D01*
X97767Y201437D01*
X97800Y201509D01*
X97821Y201585D01*
X97829Y201663D01*
X97825Y201741D01*
X97809Y201818D01*
X97781Y201892D01*
X97742Y201960D01*
X97693Y202021D01*
X97634Y202074D01*
X97568Y202117D01*
X97496Y202149D01*
X97420Y202170D01*
X97342Y202178D01*
X97264Y202174D01*
X97187Y202158D01*
X97116Y202131D01*
Y314000D01*
X98684D01*
Y203613D01*
X98481Y203515D01*
X98415Y203472D01*
X98356Y203419D01*
X98306Y203357D01*
X98267Y203288D01*
X98239Y203214D01*
X98223Y203137D01*
X98219Y203058D01*
X98227Y202979D01*
X98248Y202903D01*
X98280Y202830D01*
X98323Y202764D01*
X98376Y202705D01*
X98438Y202656D01*
X98507Y202616D01*
X98581Y202588D01*
X98658Y202572D01*
X98684Y202570D01*
Y197427D01*
X98659Y197425D01*
X98582Y197409D01*
X98508Y197381D01*
X98440Y197342D01*
X98379Y197293D01*
X98326Y197234D01*
X98283Y197168D01*
X98251Y197096D01*
X98230Y197020D01*
X98222Y196942D01*
X98226Y196864D01*
X98242Y196787D01*
X98270Y196713D01*
X98309Y196645D01*
X98358Y196584D01*
X98417Y196531D01*
X98483Y196489D01*
X98684Y196388D01*
Y147135D01*
X98614Y147161D01*
X98537Y147177D01*
X98458Y147181D01*
X98379Y147173D01*
X98303Y147152D01*
X98230Y147120D01*
X98164Y147077D01*
X98105Y147024D01*
X98056Y146962D01*
X98016Y146893D01*
X97988Y146819D01*
X97972Y146742D01*
X97968Y146663D01*
X97976Y146584D01*
X97997Y146507D01*
X98030Y146436D01*
X98153Y146193D01*
X98250Y145938D01*
X98323Y145676D01*
X98372Y145408D01*
X98397Y145136D01*
Y144864D01*
X98372Y144592D01*
X98323Y144324D01*
X98250Y144062D01*
X98153Y143807D01*
X98033Y143563D01*
X98000Y143491D01*
X97979Y143416D01*
X97971Y143337D01*
X97975Y143259D01*
X97991Y143182D01*
X98019Y143108D01*
X98058Y143040D01*
X98107Y142979D01*
X98166Y142926D01*
X98232Y142883D01*
X98304Y142851D01*
X98380Y142830D01*
X98458Y142822D01*
X98536Y142826D01*
X98613Y142842D01*
X98684Y142869D01*
Y28200D01*
G37*
G36*
X97116D02*X92116D01*
Y142865D01*
X92186Y142839D01*
X92263Y142823D01*
X92342Y142819D01*
X92421Y142827D01*
X92497Y142848D01*
X92570Y142880D01*
X92636Y142923D01*
X92695Y142976D01*
X92744Y143038D01*
X92784Y143107D01*
X92812Y143181D01*
X92828Y143258D01*
X92832Y143337D01*
X92824Y143416D01*
X92803Y143493D01*
X92770Y143564D01*
X92647Y143807D01*
X92550Y144062D01*
X92477Y144324D01*
X92428Y144592D01*
X92403Y144864D01*
Y145136D01*
X92428Y145408D01*
X92477Y145676D01*
X92550Y145938D01*
X92647Y146193D01*
X92767Y146437D01*
X92800Y146509D01*
X92821Y146585D01*
X92829Y146663D01*
X92825Y146741D01*
X92809Y146818D01*
X92781Y146892D01*
X92742Y146960D01*
X92693Y147021D01*
X92634Y147074D01*
X92568Y147117D01*
X92496Y147149D01*
X92420Y147170D01*
X92342Y147178D01*
X92264Y147174D01*
X92187Y147158D01*
X92116Y147131D01*
Y314000D01*
X97116D01*
Y202131D01*
X97113Y202130D01*
X97045Y202091D01*
X96984Y202042D01*
X96931Y201983D01*
X96889Y201917D01*
X96726Y201592D01*
X96597Y201252D01*
X96499Y200902D01*
X96433Y200544D01*
X96400Y200182D01*
Y199818D01*
X96433Y199456D01*
X96499Y199098D01*
X96597Y198748D01*
X96726Y198408D01*
X96885Y198081D01*
X96928Y198015D01*
X96981Y197956D01*
X97043Y197906D01*
X97112Y197867D01*
X97116Y197865D01*
Y148612D01*
X96992Y148674D01*
X96652Y148803D01*
X96302Y148901D01*
X95944Y148967D01*
X95582Y149000D01*
X95218D01*
X94856Y148967D01*
X94498Y148901D01*
X94148Y148803D01*
X93808Y148674D01*
X93481Y148515D01*
X93415Y148472D01*
X93356Y148419D01*
X93306Y148357D01*
X93267Y148288D01*
X93239Y148214D01*
X93223Y148137D01*
X93219Y148058D01*
X93227Y147979D01*
X93248Y147903D01*
X93280Y147830D01*
X93323Y147764D01*
X93376Y147705D01*
X93438Y147656D01*
X93507Y147616D01*
X93581Y147588D01*
X93658Y147572D01*
X93737Y147568D01*
X93816Y147576D01*
X93893Y147597D01*
X93964Y147630D01*
X94207Y147753D01*
X94462Y147850D01*
X94724Y147923D01*
X94992Y147972D01*
X95264Y147997D01*
X95536D01*
X95808Y147972D01*
X96076Y147923D01*
X96338Y147850D01*
X96593Y147753D01*
X96837Y147633D01*
X96909Y147600D01*
X96984Y147579D01*
X97063Y147571D01*
X97116Y147573D01*
Y142430D01*
X97063Y142432D01*
X96984Y142424D01*
X96907Y142403D01*
X96836Y142370D01*
X96593Y142247D01*
X96338Y142150D01*
X96076Y142077D01*
X95808Y142028D01*
X95536Y142003D01*
X95264D01*
X94992Y142028D01*
X94724Y142077D01*
X94462Y142150D01*
X94207Y142247D01*
X93963Y142367D01*
X93891Y142400D01*
X93815Y142421D01*
X93737Y142429D01*
X93659Y142425D01*
X93582Y142409D01*
X93508Y142381D01*
X93440Y142342D01*
X93379Y142293D01*
X93326Y142234D01*
X93283Y142168D01*
X93251Y142096D01*
X93230Y142020D01*
X93222Y141942D01*
X93226Y141864D01*
X93242Y141787D01*
X93270Y141713D01*
X93309Y141645D01*
X93358Y141584D01*
X93417Y141531D01*
X93483Y141489D01*
X93808Y141326D01*
X94148Y141197D01*
X94498Y141099D01*
X94856Y141033D01*
X95218Y141000D01*
X95582D01*
X95944Y141033D01*
X96302Y141099D01*
X96652Y141197D01*
X96992Y141326D01*
X97116Y141387D01*
Y28200D01*
G37*
G36*
X92116D02*X84893D01*
Y45737D01*
X84900Y45737D01*
X85567Y45789D01*
X86217Y45946D01*
X86835Y46202D01*
X87406Y46551D01*
X87914Y46986D01*
X88349Y47494D01*
X88698Y48065D01*
X88954Y48683D01*
X89111Y49333D01*
X89150Y50000D01*
X89111Y50667D01*
X88954Y51317D01*
X88698Y51935D01*
X88349Y52506D01*
X87914Y53014D01*
X87406Y53449D01*
X86835Y53798D01*
X86217Y54054D01*
X85567Y54211D01*
X84900Y54263D01*
X84893Y54263D01*
Y314000D01*
X92116D01*
Y147131D01*
X92113Y147130D01*
X92045Y147091D01*
X91984Y147042D01*
X91931Y146983D01*
X91889Y146917D01*
X91726Y146592D01*
X91597Y146252D01*
X91499Y145902D01*
X91433Y145544D01*
X91400Y145182D01*
Y144818D01*
X91433Y144456D01*
X91499Y144098D01*
X91597Y143748D01*
X91726Y143408D01*
X91885Y143081D01*
X91928Y143015D01*
X91981Y142956D01*
X92043Y142906D01*
X92112Y142867D01*
X92116Y142865D01*
Y28200D01*
G37*
G36*
X84893D02*X64900D01*
Y45757D01*
X67885Y45764D01*
X68115Y45819D01*
X68333Y45909D01*
X68534Y46033D01*
X68714Y46186D01*
X68867Y46366D01*
X68991Y46567D01*
X69081Y46785D01*
X69136Y47015D01*
X69150Y47250D01*
X69136Y52985D01*
X69081Y53215D01*
X68991Y53433D01*
X68867Y53634D01*
X68714Y53814D01*
X68534Y53967D01*
X68333Y54091D01*
X68115Y54181D01*
X67885Y54236D01*
X67650Y54250D01*
X64900Y54243D01*
Y314000D01*
X84893D01*
Y54263D01*
X84233Y54211D01*
X83583Y54054D01*
X82965Y53798D01*
X82394Y53449D01*
X81886Y53014D01*
X81451Y52506D01*
X81102Y51935D01*
X80846Y51317D01*
X80689Y50667D01*
X80637Y50000D01*
X80689Y49333D01*
X80846Y48683D01*
X81102Y48065D01*
X81451Y47494D01*
X81886Y46986D01*
X82394Y46551D01*
X82965Y46202D01*
X83583Y45946D01*
X84233Y45789D01*
X84893Y45737D01*
Y28200D01*
G37*
G36*
X64900D02*X36679D01*
Y32560D01*
X36700Y32558D01*
X38818Y32725D01*
X40885Y33221D01*
X42848Y34034D01*
X44660Y35145D01*
X46275Y36525D01*
X47655Y38140D01*
X48766Y39952D01*
X49579Y41915D01*
X50075Y43982D01*
X50200Y46100D01*
X50075Y48218D01*
X49579Y50285D01*
X48766Y52248D01*
X47655Y54060D01*
X46275Y55675D01*
X44660Y57055D01*
X42848Y58166D01*
X40885Y58979D01*
X38818Y59475D01*
X36700Y59642D01*
X36679Y59640D01*
Y282560D01*
X36700Y282558D01*
X38818Y282725D01*
X40885Y283221D01*
X42848Y284034D01*
X44660Y285145D01*
X46275Y286525D01*
X47655Y288140D01*
X48766Y289952D01*
X49579Y291915D01*
X50075Y293982D01*
X50200Y296100D01*
X50075Y298218D01*
X49579Y300285D01*
X48766Y302248D01*
X47655Y304060D01*
X46275Y305675D01*
X44660Y307055D01*
X42848Y308166D01*
X40885Y308979D01*
X38818Y309475D01*
X36700Y309642D01*
X36679Y309640D01*
Y314000D01*
X64900D01*
Y54243D01*
X61915Y54236D01*
X61685Y54181D01*
X61467Y54091D01*
X61266Y53967D01*
X61086Y53814D01*
X60933Y53634D01*
X60809Y53433D01*
X60719Y53215D01*
X60664Y52985D01*
X60650Y52750D01*
X60664Y47015D01*
X60719Y46785D01*
X60809Y46567D01*
X60933Y46366D01*
X61086Y46186D01*
X61266Y46033D01*
X61467Y45909D01*
X61685Y45819D01*
X61915Y45764D01*
X62150Y45750D01*
X64900Y45757D01*
Y28200D01*
G37*
G36*
X36679D02*X17300D01*
Y314000D01*
X36679D01*
Y309640D01*
X34582Y309475D01*
X32515Y308979D01*
X30552Y308166D01*
X28740Y307055D01*
X27125Y305675D01*
X25745Y304060D01*
X24634Y302248D01*
X23821Y300285D01*
X23325Y298218D01*
X23158Y296100D01*
X23325Y293982D01*
X23821Y291915D01*
X24634Y289952D01*
X25745Y288140D01*
X27125Y286525D01*
X28740Y285145D01*
X30552Y284034D01*
X32515Y283221D01*
X34582Y282725D01*
X36679Y282560D01*
Y59640D01*
X34582Y59475D01*
X32515Y58979D01*
X30552Y58166D01*
X28740Y57055D01*
X27125Y55675D01*
X25745Y54060D01*
X24634Y52248D01*
X23821Y50285D01*
X23325Y48218D01*
X23158Y46100D01*
X23325Y43982D01*
X23821Y41915D01*
X24634Y39952D01*
X25745Y38140D01*
X27125Y36525D01*
X28740Y35145D01*
X30552Y34034D01*
X32515Y33221D01*
X34582Y32725D01*
X36679Y32560D01*
Y28200D01*
G37*
G54D51*X396700Y296100D03*
Y46100D03*
X316700D03*
X36700Y296100D03*
X116700D03*
X316700D03*
X36700Y46100D03*
X116700D03*
G54D52*X122925Y254204D03*
X176075D03*
G54D50*G36*
X62150Y52750D02*Y47250D01*
X67650D01*
Y52750D01*
X62150D01*
G37*
G54D53*X84900Y50000D03*
G54D54*X205900Y370500D03*
X258900Y372500D03*
G54D55*X204900Y351000D03*
G54D54*X241900Y359000D03*
X322800Y95100D03*
X302800D03*
X356300Y84600D03*
X357800Y101600D03*
X347800Y86600D03*
X337300Y93100D03*
X359800Y74600D03*
X336800Y77600D03*
X385800Y80600D03*
X322056Y103844D03*
X316800Y119600D03*
X347300Y116100D03*
X336800Y123100D03*
X371800Y131100D03*
X358300D03*
X302800Y111600D03*
G54D55*X158247Y182653D03*
X156900Y175500D03*
X147400Y186000D03*
X155806Y163906D03*
X155679Y144221D03*
X162400Y144000D03*
X155900Y156000D03*
X161400Y152500D03*
G54D54*X161900Y104500D03*
G54D55*X158900Y169500D03*
X162400Y164000D03*
X171400Y204000D03*
X163900Y179000D03*
X167900Y174500D03*
X171900Y179000D03*
X176400Y174500D03*
G54D54*X212400Y125000D03*
X209400Y189500D03*
X229400D03*
G54D55*X251400Y196000D03*
X270900D03*
G54D54*X212400Y110000D03*
G54D55*X139400Y154500D03*
G54D54*X148900Y126000D03*
X147900Y112500D03*
G54D55*X133400Y154500D03*
X131400Y148500D03*
X118900Y193500D03*
X125400D03*
X131900D03*
X112400D03*
G54D54*X141900Y202500D03*
X100400Y200000D03*
X95400Y145000D03*
X103900Y94500D03*
G54D56*G54D57*G54D56*G54D57*G54D56*G54D57*G54D56*G54D57*G54D56*G54D57*G54D56*G54D57*G54D56*M02*
