G04 start of page 13 for group -4014 idx -4014 *
G04 Title: (unknown), bottompaste *
G04 Creator: pcb 20110918 *
G04 CreationDate: Tue Nov 19 22:18:25 2013 UTC *
G04 For: fosse *
G04 Format: Gerber/RS-274X *
G04 PCB-Dimensions: 550000 700000 *
G04 PCB-Coordinate-Origin: lower left *
%MOIN*%
%FSLAX25Y25*%
%LNBOTTOMPASTE*%
%ADD221R,0.0197X0.0197*%
%ADD220R,0.0177X0.0177*%
%ADD219R,0.0551X0.0551*%
%ADD218R,0.0236X0.0236*%
%ADD217R,0.0354X0.0354*%
%ADD216R,0.0551X0.0551*%
%ADD215R,0.0236X0.0236*%
%ADD214R,0.0157X0.0157*%
%ADD213R,0.0158X0.0158*%
%ADD212R,0.0197X0.0197*%
%ADD211R,0.0197X0.0197*%
G54D211*X244138Y434218D02*Y430162D01*
X240988Y434218D02*Y430162D01*
X237838Y434218D02*Y430162D01*
X234689Y434218D02*Y430162D01*
X200043Y434218D02*Y430162D01*
X203193Y434218D02*Y430162D01*
X206342Y434218D02*Y430162D01*
X209492Y434218D02*Y430162D01*
X212641Y434218D02*Y430162D01*
G54D212*X215792Y434218D02*Y430163D01*
G54D211*X218941Y434218D02*Y430162D01*
X222090Y434218D02*Y430162D01*
X225240Y434218D02*Y430162D01*
X228389Y434218D02*Y430162D01*
G54D212*X231540Y434218D02*Y430163D01*
G54D211*X244138Y415123D02*Y411068D01*
X240988Y415123D02*Y411068D01*
X237838Y415123D02*Y411068D01*
X234689Y415123D02*Y411068D01*
X200043Y415123D02*Y411068D01*
X203193Y415123D02*Y411068D01*
X206342Y415123D02*Y411068D01*
X209492Y415123D02*Y411068D01*
X212641Y415123D02*Y411068D01*
G54D212*X215792Y415123D02*Y411069D01*
G54D211*X218941Y415123D02*Y411068D01*
X222090Y415123D02*Y411068D01*
X225240Y415123D02*Y411068D01*
X228389Y415123D02*Y411068D01*
G54D212*X231540Y415123D02*Y411069D01*
G54D213*X315533Y426162D02*Y421438D01*
X311596Y426162D02*Y421438D01*
X307659Y426162D02*Y421438D01*
X303722Y426162D02*Y421438D01*
X299785Y426162D02*Y421438D01*
X295848Y426162D02*Y421438D01*
X291911Y426162D02*Y421438D01*
X287974Y426162D02*Y421438D01*
X284037Y426162D02*Y421438D01*
X280100Y426162D02*Y421438D01*
G54D214*X317501Y416713D02*Y411988D01*
X313564Y416713D02*Y411988D01*
X309627Y416713D02*Y411988D01*
X305690Y416713D02*Y411988D01*
X301753Y416713D02*Y411988D01*
G54D213*X297816Y416713D02*Y411989D01*
X293879Y416713D02*Y411989D01*
X289942Y416713D02*Y411989D01*
X286005Y416713D02*Y411989D01*
X282068Y416713D02*Y411989D01*
G54D215*X276162Y425768D02*Y421831D01*
Y416319D02*Y412382D01*
X321438Y425768D02*Y421831D01*
Y416319D02*Y412382D01*
G54D211*X297547Y258456D02*Y254400D01*
X294397Y258456D02*Y254400D01*
X291247Y258456D02*Y254400D01*
X288098Y258456D02*Y254400D01*
X253452Y258456D02*Y254400D01*
X256602Y258456D02*Y254400D01*
X259751Y258456D02*Y254400D01*
X262901Y258456D02*Y254400D01*
X266050Y258456D02*Y254400D01*
G54D212*X269201Y258456D02*Y254401D01*
G54D211*X272350Y258456D02*Y254400D01*
X275499Y258456D02*Y254400D01*
X278649Y258456D02*Y254400D01*
X281798Y258456D02*Y254400D01*
G54D212*X284949Y258456D02*Y254401D01*
G54D211*X297547Y239361D02*Y235306D01*
X294397Y239361D02*Y235306D01*
X291247Y239361D02*Y235306D01*
X288098Y239361D02*Y235306D01*
X253452Y239361D02*Y235306D01*
X256602Y239361D02*Y235306D01*
X259751Y239361D02*Y235306D01*
X262901Y239361D02*Y235306D01*
X266050Y239361D02*Y235306D01*
G54D212*X269201Y239361D02*Y235307D01*
G54D211*X272350Y239361D02*Y235306D01*
X275499Y239361D02*Y235306D01*
X278649Y239361D02*Y235306D01*
X281798Y239361D02*Y235306D01*
G54D212*X284949Y239361D02*Y235307D01*
G54D216*X142874Y230945D02*Y225630D01*
X135000Y230945D02*Y225630D01*
X127126Y230945D02*Y225630D01*
X142874Y204370D02*Y199055D01*
X127126Y204370D02*Y199055D01*
X48174Y564545D02*Y559230D01*
X40300Y564545D02*Y559230D01*
X32426Y564545D02*Y559230D01*
X48174Y537970D02*Y532655D01*
X32426Y537970D02*Y532655D01*
X111048Y605257D02*Y599942D01*
X103174Y605257D02*Y599942D01*
X95300Y605257D02*Y599942D01*
X111048Y578682D02*Y573367D01*
X95300Y578682D02*Y573367D01*
X80674Y645045D02*Y639730D01*
X72800Y645045D02*Y639730D01*
X64926Y645045D02*Y639730D01*
X80674Y618470D02*Y613155D01*
X64926Y618470D02*Y613155D01*
X48350Y604133D02*Y598818D01*
X40476Y604133D02*Y598818D01*
X32602Y604133D02*Y598818D01*
X48350Y577558D02*Y572243D01*
X32602Y577558D02*Y572243D01*
X48548Y643833D02*Y638518D01*
X40674Y643833D02*Y638518D01*
X32800Y643833D02*Y638518D01*
X48548Y617258D02*Y611943D01*
X32800Y617258D02*Y611943D01*
X79800Y604833D02*Y599518D01*
X71926Y604833D02*Y599518D01*
X64052Y604833D02*Y599518D01*
X79800Y578258D02*Y572943D01*
X64052Y578258D02*Y572943D01*
X80300Y563833D02*Y558518D01*
X72426Y563833D02*Y558518D01*
X64552Y563833D02*Y558518D01*
X80300Y537258D02*Y531943D01*
X64552Y537258D02*Y531943D01*
X88192Y684342D02*Y679027D01*
X80318Y684342D02*Y679027D01*
X72444Y684342D02*Y679027D01*
X88192Y657767D02*Y652452D01*
X72444Y657767D02*Y652452D01*
G54D217*X421063Y639850D02*X421810D01*
X421063Y634850D02*X421810D01*
X421063Y629850D02*X421810D01*
X421063Y624850D02*X421810D01*
X421063Y619850D02*X421810D01*
X421063Y614850D02*X421810D01*
G54D215*X475098Y672331D02*Y669575D01*
G54D218*X471752Y672330D02*Y669576D01*
G54D215*X468405Y672331D02*Y669575D01*
X464074Y672331D02*Y669575D01*
X459744Y672331D02*Y669575D01*
X455413Y672331D02*Y669575D01*
X451082Y672331D02*Y669575D01*
G54D218*X446752Y672330D02*Y669576D01*
G54D215*X442421Y672331D02*Y669575D01*
X438090Y672331D02*Y669575D01*
G54D212*X424784Y668985D02*X432658D01*
G54D216*X422027Y608728D02*Y605578D01*
G54D219*X495256Y608728D02*Y605578D01*
G54D212*X485610Y668985D02*X493288D01*
G54D220*X493386Y669083D02*Y660421D01*
G54D221*X258820Y120840D02*Y117216D01*
G54D212*X261970Y120839D02*Y117217D01*
X265119Y120839D02*Y117217D01*
G54D211*X268268Y120840D02*Y117217D01*
X271418Y120840D02*Y117217D01*
G54D212*X274568Y120839D02*Y117217D01*
G54D211*X277717Y120840D02*Y117217D01*
X280867Y120840D02*Y117217D01*
G54D212*X236773Y120839D02*Y117217D01*
X239922Y120839D02*Y117217D01*
G54D211*X243071Y120840D02*Y117217D01*
X246221Y120840D02*Y117217D01*
G54D212*X249371Y120839D02*Y117217D01*
G54D211*X252520Y120840D02*Y117217D01*
X255670Y120840D02*Y117217D01*
X258859Y143950D02*Y140327D01*
X262009Y143950D02*Y140327D01*
G54D212*X265159Y143949D02*Y140327D01*
G54D221*X268308Y143950D02*Y140326D01*
G54D212*X271458Y143949D02*Y140327D01*
X274607Y143949D02*Y140327D01*
G54D221*X277757Y143950D02*Y140326D01*
G54D212*X280907Y143949D02*Y140327D01*
G54D211*X236812Y143950D02*Y140327D01*
G54D212*X239962Y143949D02*Y140327D01*
G54D221*X243111Y143950D02*Y140326D01*
G54D212*X246261Y143949D02*Y140327D01*
X249410Y143949D02*Y140327D01*
G54D221*X252560Y143950D02*Y140326D01*
G54D212*X255710Y143949D02*Y140327D01*
M02*
