G04 start of page 12 for group -4015 idx -4015 *
G04 Title: (unknown), toppaste *
G04 Creator: pcb 20110918 *
G04 CreationDate: Fri Dec  6 03:47:07 2013 UTC *
G04 For: user1 *
G04 Format: Gerber/RS-274X *
G04 PCB-Dimensions: 550000 550000 *
G04 PCB-Coordinate-Origin: lower left *
%MOIN*%
%FSLAX25Y25*%
%LNTOPPASTE*%
%ADD164R,0.0160X0.0160*%
%ADD163C,0.0160*%
%ADD162R,0.0340X0.0340*%
%ADD161R,0.0591X0.0591*%
%ADD160R,0.0590X0.0590*%
%ADD159R,0.0295X0.0295*%
%ADD158R,0.0110X0.0110*%
%ADD157R,0.0512X0.0512*%
%ADD156R,0.0236X0.0236*%
%ADD155R,0.0157X0.0157*%
%ADD154R,0.0158X0.0158*%
G54D154*X198873Y298502D02*Y293778D01*
X194936Y298502D02*Y293778D01*
X190999Y298502D02*Y293778D01*
X187062Y298502D02*Y293778D01*
X183125Y298502D02*Y293778D01*
X179188Y298502D02*Y293778D01*
X175251Y298502D02*Y293778D01*
X171314Y298502D02*Y293778D01*
X167377Y298502D02*Y293778D01*
X163440Y298502D02*Y293778D01*
G54D155*X200841Y307952D02*Y303227D01*
X196904Y307952D02*Y303227D01*
X192967Y307952D02*Y303227D01*
X189030Y307952D02*Y303227D01*
X185093Y307952D02*Y303227D01*
G54D154*X181156Y307951D02*Y303227D01*
X177219Y307951D02*Y303227D01*
X173282Y307951D02*Y303227D01*
X169345Y307951D02*Y303227D01*
X165408Y307951D02*Y303227D01*
G54D156*X159502Y298109D02*Y294172D01*
Y307558D02*Y303621D01*
X204778Y298109D02*Y294172D01*
Y307558D02*Y303621D01*
G54D154*X276443Y298492D02*Y293768D01*
X272506Y298492D02*Y293768D01*
X268569Y298492D02*Y293768D01*
X264632Y298492D02*Y293768D01*
X260695Y298492D02*Y293768D01*
X256758Y298492D02*Y293768D01*
X252821Y298492D02*Y293768D01*
X248884Y298492D02*Y293768D01*
X244947Y298492D02*Y293768D01*
X241010Y298492D02*Y293768D01*
G54D155*X278411Y307942D02*Y303217D01*
X274474Y307942D02*Y303217D01*
X270537Y307942D02*Y303217D01*
X266600Y307942D02*Y303217D01*
X262663Y307942D02*Y303217D01*
G54D154*X258726Y307941D02*Y303217D01*
X254789Y307941D02*Y303217D01*
X250852Y307941D02*Y303217D01*
X246915Y307941D02*Y303217D01*
X242978Y307941D02*Y303217D01*
G54D156*X237072Y298099D02*Y294162D01*
Y307548D02*Y303611D01*
X282348Y298099D02*Y294162D01*
Y307548D02*Y303611D01*
G54D154*X252445Y53108D02*Y48384D01*
X248508Y53108D02*Y48384D01*
X244571Y53108D02*Y48384D01*
X240634Y53108D02*Y48384D01*
X236697Y53108D02*Y48384D01*
X232760Y53108D02*Y48384D01*
X228823Y53108D02*Y48384D01*
X224886Y53108D02*Y48384D01*
X220949Y53108D02*Y48384D01*
X217012Y53108D02*Y48384D01*
G54D155*X254413Y62558D02*Y57833D01*
X250476Y62558D02*Y57833D01*
X246539Y62558D02*Y57833D01*
X242602Y62558D02*Y57833D01*
X238665Y62558D02*Y57833D01*
G54D154*X234728Y62557D02*Y57833D01*
X230791Y62557D02*Y57833D01*
X226854Y62557D02*Y57833D01*
X222917Y62557D02*Y57833D01*
X218980Y62557D02*Y57833D01*
G54D156*X213074Y52715D02*Y48778D01*
Y62164D02*Y58227D01*
X258350Y52715D02*Y48778D01*
Y62164D02*Y58227D01*
G54D157*X89414Y92893D02*Y92107D01*
X96500Y92893D02*Y92107D01*
X74957Y185893D02*Y185107D01*
X82043Y185893D02*Y185107D01*
X192957Y55393D02*Y54607D01*
X200043Y55393D02*Y54607D01*
X192957Y68393D02*Y67607D01*
X200043Y68393D02*Y67607D01*
X176867Y68133D02*Y67347D01*
X183953Y68133D02*Y67347D01*
G54D158*X101402Y166362D02*X106300D01*
X101402Y164394D02*X106300D01*
X101402Y162425D02*X106300D01*
X101402Y160457D02*X106300D01*
X101402Y158488D02*X106300D01*
X101402Y156520D02*X106300D01*
X101402Y154551D02*X106300D01*
X101402Y152583D02*X106300D01*
X101402Y150614D02*X106300D01*
X101402Y148646D02*X106300D01*
X101402Y146677D02*X106300D01*
X101402Y144709D02*X106300D01*
X101402Y142740D02*X106300D01*
X101402Y140772D02*X106300D01*
X101402Y138803D02*X106300D01*
X101402Y136835D02*X106300D01*
X101402Y134866D02*X106300D01*
X101402Y132898D02*X106300D01*
X101402Y130929D02*X106300D01*
X101402Y128961D02*X106300D01*
X101402Y126992D02*X106300D01*
X101402Y125024D02*X106300D01*
X101402Y123055D02*X106300D01*
X101402Y121087D02*X106300D01*
X101402Y119118D02*X106300D01*
X112788Y112630D02*Y107732D01*
X114756Y112630D02*Y107732D01*
X116725Y112630D02*Y107732D01*
X118693Y112630D02*Y107732D01*
X120662Y112630D02*Y107732D01*
X122630Y112630D02*Y107732D01*
X124599Y112630D02*Y107732D01*
X126567Y112630D02*Y107732D01*
X128536Y112630D02*Y107732D01*
X130504Y112630D02*Y107732D01*
X132473Y112630D02*Y107732D01*
X134441Y112630D02*Y107732D01*
X136410Y112630D02*Y107732D01*
X138378Y112630D02*Y107732D01*
X140347Y112630D02*Y107732D01*
X142315Y112630D02*Y107732D01*
X144284Y112630D02*Y107732D01*
X146252Y112630D02*Y107732D01*
X148221Y112630D02*Y107732D01*
X150189Y112630D02*Y107732D01*
X152158Y112630D02*Y107732D01*
X154126Y112630D02*Y107732D01*
X156095Y112630D02*Y107732D01*
X158063Y112630D02*Y107732D01*
X160032Y112630D02*Y107732D01*
X166520Y119118D02*X171418D01*
X166520Y121086D02*X171418D01*
X166520Y123055D02*X171418D01*
X166520Y125023D02*X171418D01*
X166520Y126992D02*X171418D01*
X166520Y128960D02*X171418D01*
X166520Y130929D02*X171418D01*
X166520Y132897D02*X171418D01*
X166520Y134866D02*X171418D01*
X166520Y136834D02*X171418D01*
X166520Y138803D02*X171418D01*
X166520Y140771D02*X171418D01*
X166520Y142740D02*X171418D01*
X166520Y144708D02*X171418D01*
X166520Y146677D02*X171418D01*
X166520Y148645D02*X171418D01*
X166520Y150614D02*X171418D01*
X166520Y152582D02*X171418D01*
X166520Y154551D02*X171418D01*
X166520Y156519D02*X171418D01*
X166520Y158488D02*X171418D01*
X166520Y160456D02*X171418D01*
X166520Y162425D02*X171418D01*
X166520Y164393D02*X171418D01*
X166520Y166362D02*X171418D01*
X160032Y177748D02*Y172850D01*
X158064Y177748D02*Y172850D01*
X156095Y177748D02*Y172850D01*
X154127Y177748D02*Y172850D01*
X152158Y177748D02*Y172850D01*
X150190Y177748D02*Y172850D01*
X148221Y177748D02*Y172850D01*
X146253Y177748D02*Y172850D01*
X144284Y177748D02*Y172850D01*
X142316Y177748D02*Y172850D01*
X140347Y177748D02*Y172850D01*
X138379Y177748D02*Y172850D01*
X136410Y177748D02*Y172850D01*
X134442Y177748D02*Y172850D01*
X132473Y177748D02*Y172850D01*
X130505Y177748D02*Y172850D01*
X128536Y177748D02*Y172850D01*
X126568Y177748D02*Y172850D01*
X124599Y177748D02*Y172850D01*
X122631Y177748D02*Y172850D01*
X120662Y177748D02*Y172850D01*
X118694Y177748D02*Y172850D01*
X116725Y177748D02*Y172850D01*
X114757Y177748D02*Y172850D01*
X112788Y177748D02*Y172850D01*
G54D157*X181595Y104181D02*Y101819D01*
X193405Y104181D02*Y101819D01*
X111410Y98133D02*Y97347D01*
X118496Y98133D02*Y97347D01*
X165367Y102633D02*Y101847D01*
X172453Y102633D02*Y101847D01*
X172367Y174633D02*Y173847D01*
X179453Y174633D02*Y173847D01*
X105867Y184133D02*Y183347D01*
X112953Y184133D02*Y183347D01*
X184505Y166921D02*Y164559D01*
X196315Y166921D02*Y164559D01*
X75867Y92633D02*Y91847D01*
X82953Y92633D02*Y91847D01*
G54D159*X87351Y127791D02*Y126807D01*
X92469Y127791D02*Y126807D01*
X86351Y148732D02*Y147748D01*
X91469Y148732D02*Y147748D01*
G54D157*X85505Y111921D02*Y109559D01*
X97315Y111921D02*Y109559D01*
X79867Y172133D02*Y171347D01*
X86953Y172133D02*Y171347D01*
X79867Y160133D02*Y159347D01*
X86953Y160133D02*Y159347D01*
G54D160*X60331Y137133D02*Y123353D01*
Y100126D02*Y86346D01*
G54D161*X50488Y111740D02*X60331D01*
G54D159*X48351Y137732D02*Y136748D01*
X53469Y137732D02*Y136748D01*
G54D157*X73867Y128633D02*Y127847D01*
X80953Y128633D02*Y127847D01*
X73867Y140633D02*Y139847D01*
X80953Y140633D02*Y139847D01*
G54D159*X46918Y188299D02*X47902D01*
X46918Y183181D02*X47902D01*
X63418Y187299D02*X64402D01*
X63418Y182181D02*X64402D01*
G54D157*X60028Y150913D02*X62390D01*
X47429D02*X49791D01*
X60028Y172567D02*X62390D01*
X47429D02*X49791D01*
G54D159*X47418Y84299D02*X48402D01*
X47418Y79181D02*X48402D01*
G54D157*X120517Y189283D02*X121303D01*
X120517Y182197D02*X121303D01*
X48824Y199633D02*Y198847D01*
X55910Y199633D02*Y198847D01*
X79824Y295633D02*Y294847D01*
X86910Y295633D02*Y294847D01*
X339017Y240783D02*X339803D01*
X339017Y233697D02*X339803D01*
G54D162*X58260Y276240D02*X58560D01*
X65360Y276540D02*Y275940D01*
Y284740D02*Y284140D01*
X57960Y284740D02*Y284140D01*
X77810Y276040D02*X78110D01*
X84910Y276340D02*Y275740D01*
Y284540D02*Y283940D01*
X77510Y284540D02*Y283940D01*
X48260Y255240D02*X48560D01*
X55360Y255540D02*Y254940D01*
Y263740D02*Y263140D01*
X47960Y263740D02*Y263140D01*
X48260Y213740D02*X48560D01*
X55360Y214040D02*Y213440D01*
Y222240D02*Y221640D01*
X47960Y222240D02*Y221640D01*
X48260Y235740D02*X48560D01*
X55360Y236040D02*Y235440D01*
Y244240D02*Y243640D01*
X47960Y244240D02*Y243640D01*
G54D157*X321867Y225133D02*Y224347D01*
X328953Y225133D02*Y224347D01*
X321867Y237633D02*Y236847D01*
X328953Y237633D02*Y236847D01*
X265414Y225393D02*Y224607D01*
X272500Y225393D02*Y224607D01*
G54D162*X81810Y221740D02*X82110D01*
X88910Y222040D02*Y221440D01*
Y230240D02*Y229640D01*
X81510Y230240D02*Y229640D01*
X81810Y201540D02*X82110D01*
X88910Y201840D02*Y201240D01*
Y210040D02*Y209440D01*
X81510Y210040D02*Y209440D01*
X207800Y218500D02*X208100D01*
X214900Y218800D02*Y218200D01*
Y227000D02*Y226400D01*
X207500Y227000D02*Y226400D01*
X157300Y67800D02*X157600D01*
X164400Y68100D02*Y67500D01*
Y76300D02*Y75700D01*
X157000Y76300D02*Y75700D01*
X157300Y48300D02*X157600D01*
X164400Y48600D02*Y48000D01*
Y56800D02*Y56200D01*
X157000Y56800D02*Y56200D01*
X79760Y68528D02*X80060D01*
X86860Y68828D02*Y68228D01*
Y77028D02*Y76428D01*
X79460Y77028D02*Y76428D01*
X283040Y222090D02*X283340D01*
X290140Y222390D02*Y221790D01*
Y230590D02*Y229990D01*
X282740Y230590D02*Y229990D01*
X302540Y212090D02*X302840D01*
X309640Y212390D02*Y211790D01*
Y220590D02*Y219990D01*
X302240Y220590D02*Y219990D01*
X283090Y202090D02*X283390D01*
X290190Y202390D02*Y201790D01*
Y210590D02*Y209990D01*
X282790Y210590D02*Y209990D01*
X179800Y196800D02*X180100D01*
X186900Y197100D02*Y196500D01*
Y205300D02*Y204700D01*
X179500Y205300D02*Y204700D01*
G54D157*X176957Y55393D02*Y54607D01*
X184043Y55393D02*Y54607D01*
X298457Y281893D02*Y281107D01*
X305543Y281893D02*Y281107D01*
X72819Y117405D02*X75181D01*
X72819Y105595D02*X75181D01*
X95957Y54893D02*Y54107D01*
X103043Y54893D02*Y54107D01*
X77095Y55681D02*Y53319D01*
X88905Y55681D02*Y53319D01*
X178095Y83681D02*Y81319D01*
X189905Y83681D02*Y81319D01*
X99595Y79681D02*Y77319D01*
X111405Y79681D02*Y77319D01*
X118095Y76181D02*Y73819D01*
X129905Y76181D02*Y73819D01*
X110819Y65905D02*X113181D01*
X110819Y54095D02*X113181D01*
X237457Y212393D02*Y211607D01*
X244543Y212393D02*Y211607D01*
X237500Y199393D02*Y198607D01*
X244586Y199393D02*Y198607D01*
X343457Y124393D02*Y123607D01*
X350543Y124393D02*Y123607D01*
G54D159*X325382Y131992D02*Y131008D01*
X330500Y131992D02*Y131008D01*
X309500Y131992D02*Y131008D01*
X314618Y131992D02*Y131008D01*
X325382Y141992D02*Y141008D01*
X330500Y141992D02*Y141008D01*
X309500Y141992D02*Y141008D01*
X314618Y141992D02*Y141008D01*
G54D157*X287595Y134681D02*Y132319D01*
X299405Y134681D02*Y132319D01*
X339095Y187181D02*Y184819D01*
X350905Y187181D02*Y184819D01*
X339000Y172893D02*Y172107D01*
X346086Y172893D02*Y172107D01*
X323500Y183393D02*Y182607D01*
X330586Y183393D02*Y182607D01*
X339095Y138181D02*Y135819D01*
X350905Y138181D02*Y135819D01*
X338957Y150393D02*Y149607D01*
X346043Y150393D02*Y149607D01*
X289957Y168893D02*Y168107D01*
X297043Y168893D02*Y168107D01*
G54D163*X308300Y170300D02*X310500D01*
G54D164*X308300Y167700D02*X310500D01*
X308300Y165200D02*X310500D01*
X308300Y162600D02*X310500D01*
X308300Y160000D02*X310500D01*
X308300Y157500D02*X310500D01*
X308300Y154900D02*X310500D01*
X308300Y152400D02*X310500D01*
X329500Y152300D02*X331700D01*
X329500Y154900D02*X331700D01*
X329500Y157400D02*X331700D01*
X329500Y160000D02*X331700D01*
X329500Y162600D02*X331700D01*
X329500Y165100D02*X331700D01*
X329500Y167700D02*X331700D01*
X329500Y170200D02*X331700D01*
G54D157*X289957Y147893D02*Y147107D01*
X297043Y147893D02*Y147107D01*
X297095Y182181D02*Y179819D01*
X308905Y182181D02*Y179819D01*
X287957Y119893D02*Y119107D01*
X295043Y119893D02*Y119107D01*
X311000Y120681D02*Y118319D01*
X322810Y120681D02*Y118319D01*
X315595Y106681D02*Y104319D01*
X327405Y106681D02*Y104319D01*
X287595Y106681D02*Y104319D01*
X299405Y106681D02*Y104319D01*
X340819Y115405D02*X343181D01*
X340819Y103595D02*X343181D01*
X263000Y160681D02*Y158319D01*
X274810Y160681D02*Y158319D01*
X263190Y178181D02*Y175819D01*
X275000Y178181D02*Y175819D01*
X214190Y185681D02*Y183319D01*
X226000Y185681D02*Y183319D01*
M02*
