G04 start of page 2 for group 0 idx 0 *
G04 Title: (unknown), 1top *
G04 Creator: pcb 20110918 *
G04 CreationDate: Thu Dec  5 20:42:17 2013 UTC *
G04 For: fosse *
G04 Format: Gerber/RS-274X *
G04 PCB-Dimensions: 550000 550000 *
G04 PCB-Coordinate-Origin: lower left *
%MOIN*%
%FSLAX25Y25*%
%LNTOP*%
%ADD41C,0.1090*%
%ADD40C,0.1150*%
%ADD39C,0.1160*%
%ADD38C,0.0354*%
%ADD37C,0.0350*%
%ADD36C,0.0360*%
%ADD35C,0.0600*%
%ADD34C,0.0160*%
%ADD33R,0.0807X0.0807*%
%ADD32R,0.0160X0.0160*%
%ADD31R,0.0590X0.0590*%
%ADD30R,0.0340X0.0340*%
%ADD29R,0.0295X0.0295*%
%ADD28R,0.0591X0.0591*%
%ADD27R,0.0512X0.0512*%
%ADD26R,0.0110X0.0110*%
%ADD25R,0.0236X0.0236*%
%ADD24R,0.0157X0.0157*%
%ADD23R,0.0158X0.0158*%
%ADD22C,0.2500*%
%ADD21C,0.0544*%
%ADD20C,0.1300*%
%ADD19C,0.2700*%
%ADD18C,0.0494*%
%ADD17C,0.0200*%
%ADD16C,0.0300*%
%ADD15C,0.0250*%
%ADD14C,0.0400*%
%ADD13C,0.0100*%
%ADD12C,0.0150*%
%ADD11C,0.0001*%
G54D11*G36*
X319320Y383730D02*Y433730D01*
X369320D01*
Y383730D01*
X319320D01*
G37*
G54D12*X171314Y290144D02*X167230Y286060D01*
X175251Y289581D02*X170430Y284760D01*
X179188Y289018D02*X173530Y283360D01*
X175251Y296140D02*Y289581D01*
X179188Y296140D02*Y289018D01*
X170430Y272190D02*Y284760D01*
X173502Y266048D02*X173530Y283360D01*
X176730Y272190D02*Y282060D01*
X179781Y266027D02*X179830Y280660D01*
X182930Y272190D02*Y279260D01*
X183125Y296140D02*Y288455D01*
X187062Y296140D02*Y287892D01*
X179830Y280660D01*
X190999Y296140D02*Y287329D01*
X182930Y279260D01*
X176730Y282060D02*X183125Y288455D01*
X203510Y283440D02*X215060D01*
X224500Y274000D01*
X160910Y266040D02*X160938Y288768D01*
X164130Y272190D02*Y287460D01*
X163440Y296140D02*Y291270D01*
X160938Y288768D01*
X167377Y296140D02*Y290707D01*
X164130Y287460D02*X167377Y290707D01*
X171314Y296140D02*Y290144D01*
X167202Y266048D02*X167230Y286060D01*
X165408Y305589D02*Y311238D01*
X165410Y311240D01*
X169345Y305589D02*Y311205D01*
X169310Y311240D01*
X173282Y305589D02*Y311212D01*
X173310Y311240D01*
X177219Y305589D02*Y311231D01*
X177210Y311240D01*
X181156Y305589D02*Y311194D01*
X181110Y311240D01*
X185093Y305590D02*Y311223D01*
X189030Y305590D02*Y311220D01*
X189010Y311240D01*
X192967Y305590D02*Y311197D01*
X193010Y311240D01*
X185093Y311223D02*X185110Y311240D01*
G54D13*X200000Y213500D02*X192000Y205500D01*
X187400D01*
X186900Y205000D01*
X203500Y233500D02*Y211000D01*
X190500Y198000D02*X203500Y211000D01*
X182400Y200500D02*X186450Y204550D01*
X170000Y196500D02*X174000Y200500D01*
X182400D01*
X186800Y196700D02*Y189300D01*
X184000Y186500D01*
X174000D01*
X172500Y188000D01*
X167500D01*
G54D14*X226000Y184500D02*X232000D01*
X214190D02*X205500D01*
G54D13*X213500Y211000D02*X215000Y212500D01*
Y218400D01*
X211000Y222400D02*X215000Y218400D01*
X217000Y210500D02*X219000Y212500D01*
Y222500D01*
X215000Y226500D01*
G54D12*X224500Y274000D02*Y219500D01*
G54D13*X213500Y205500D02*Y211000D01*
X220500Y230500D02*Y226500D01*
X221500Y225500D01*
Y218000D01*
X228500Y227500D02*Y219500D01*
X221500Y218000D02*X226500Y213000D01*
X236457D01*
X228500Y219500D02*X230500Y217500D01*
Y205500D02*Y203000D01*
X234500Y199000D01*
G54D12*X242978Y305579D02*Y311228D01*
X242980Y311230D01*
X246915Y305579D02*X246935Y316165D01*
X246900Y316200D01*
X250852Y305579D02*Y311202D01*
X250880Y311230D01*
X254789Y305579D02*X254809Y316191D01*
X254800Y316200D01*
X258726Y305579D02*Y311184D01*
X258680Y311230D01*
X262663Y305580D02*X262683Y316183D01*
X262700Y316200D01*
X266600Y305580D02*Y311210D01*
X266580Y311230D01*
X270537Y305580D02*X270557Y316157D01*
X270600Y316200D01*
X274474Y305580D02*Y311210D01*
X278411Y305580D02*X278457Y316157D01*
X278500Y316200D01*
X274474Y311210D02*X274454Y311230D01*
G54D13*X244937Y284737D02*X244900Y284700D01*
X248884Y276666D02*X248910Y276640D01*
X252811Y284711D02*X252800Y284700D01*
X256758Y276688D02*X256710Y276640D01*
X264632Y276666D02*X264658Y276640D01*
X268611Y284711D02*X268600Y284700D01*
X272506Y276688D02*X272458Y276640D01*
X276437Y284737D02*X276400Y284700D01*
G54D12*X256758Y277312D02*X257070Y277000D01*
X298500Y274500D02*Y281457D01*
X298457Y281500D01*
X305543D02*Y278457D01*
X309500Y274500D01*
X241010Y296130D02*Y276640D01*
X244947Y296130D02*Y284747D01*
X244900Y284700D01*
X248884Y296130D02*Y276666D01*
X252821Y296130D02*Y284721D01*
X252800Y284700D01*
X256758Y296130D02*Y277312D01*
X260695Y296130D02*Y284705D01*
X260700Y284700D01*
X264632Y296130D02*Y276666D01*
X268569Y296130D02*Y284731D01*
X268600Y284700D01*
X272506Y296130D02*Y276688D01*
X272500Y276682D01*
X276443Y296130D02*Y284743D01*
X276437Y284737D01*
G54D13*X217012Y50746D02*Y44842D01*
X216910Y44740D01*
X220949Y50746D02*Y44779D01*
X220910Y44740D01*
X224886Y50746D02*Y44764D01*
X224910Y44740D01*
X228823Y50746D02*Y44827D01*
X228910Y44740D01*
X232760Y50746D02*Y44790D01*
X232710Y44740D01*
X236697Y50746D02*Y44753D01*
X236710Y44740D01*
X240634Y50746D02*Y44764D01*
X240610Y44740D01*
X244571Y50746D02*Y44801D01*
X244510Y44740D01*
X248508Y50746D02*Y44742D01*
X248510Y44740D01*
X252445Y50746D02*Y44805D01*
X252510Y44740D01*
X218980Y60194D02*Y65870D01*
X218910Y65940D01*
X222917Y70433D02*X222910Y70440D01*
X226854Y60194D02*Y65884D01*
X226910Y65940D01*
X230791Y60194D02*Y70321D01*
X230910Y70440D01*
X234728Y60194D02*Y65922D01*
X234710Y65940D01*
X222917Y60194D02*Y70433D01*
X238665Y60195D02*Y70395D01*
X242602Y60195D02*Y65932D01*
X242610Y65940D01*
X238665Y70395D02*X238710Y70440D01*
X246610Y73890D02*X229000Y91500D01*
X242602Y72898D02*X226250Y89250D01*
X226854Y65854D02*Y72146D01*
X246539Y60195D02*Y70369D01*
X246610Y70440D01*
X250476Y60195D02*Y65906D01*
X250510Y65940D01*
X246610Y70440D02*Y73890D01*
X254413Y60195D02*Y70343D01*
X254510Y70440D01*
X242602Y65898D02*Y72898D01*
X229000Y91500D02*X188500D01*
X226250Y89250D02*X205250D01*
X200000Y84000D01*
X222910Y70440D02*X213940D01*
X209000Y65500D01*
X213500Y75500D02*X206000Y68000D01*
X226854Y72146D02*X223500Y75500D01*
X209000Y65500D02*Y60000D01*
X204000Y55000D01*
X200043D01*
X206000Y68000D02*Y62500D01*
X204000Y60500D01*
X189543D01*
X184043Y55000D01*
X192957Y68000D02*Y65457D01*
X190500Y63000D01*
X184000Y87000D02*Y67787D01*
X200000Y84000D02*Y68043D01*
X200043Y68000D01*
G54D14*X190000Y74500D02*Y82405D01*
X189905Y82500D01*
G54D13*X223500Y75500D02*X213500D01*
X164400Y76000D02*X168607D01*
X184000Y67787D02*X183953Y67740D01*
X168607Y76000D02*X176867Y67740D01*
X190500Y63000D02*X169200D01*
X164400Y67800D01*
G54D14*X178000Y74500D02*Y82405D01*
X178095Y82500D01*
G54D13*X164400Y56500D02*X175457D01*
X164400Y48300D02*X186257D01*
X192957Y55000D01*
X175457Y56500D02*X176957Y55000D01*
X164500Y48300D02*Y48500D01*
X161000Y52000D01*
X154000D01*
X152000Y54000D01*
X157450Y48300D02*X152300D01*
X152000Y48000D01*
Y54000D02*Y62000D01*
X164400Y56500D02*Y58600D01*
X161000Y62000D01*
X164350Y67850D02*Y70150D01*
X157000Y67800D02*X152700D01*
X150500Y70000D01*
X164350Y70150D02*X160500Y74000D01*
Y78500D01*
X159000Y80000D01*
X151500D01*
D03*
X144500Y75500D02*Y69500D01*
X152000Y62000D01*
X148000Y83500D02*X159500D01*
X164000Y79000D01*
Y76500D01*
X164500Y76000D01*
X151500Y80000D02*X133500D01*
X134500Y83500D02*X141500D01*
X133500Y80000D02*X125500Y88000D01*
X127500Y90500D02*X134500Y83500D01*
X123500Y92000D02*Y84500D01*
X125500Y82500D01*
G54D12*X125000Y75000D02*X129905D01*
G54D13*X103851Y130929D02*X109099D01*
X103851Y132898D02*X108068D01*
X103851Y134866D02*X100536D01*
X98410Y132740D01*
X109099Y130929D02*X110410Y132240D01*
X108068Y132898D02*X110410Y135240D01*
Y132240D02*X115410D01*
X110410Y135240D02*X115910D01*
X115410Y132240D02*X118910Y128740D01*
X115910Y135240D02*X117910Y137240D01*
X103851Y140772D02*X112378D01*
X112410Y140740D01*
X103851Y128961D02*X112189D01*
X103189D02*X94190Y129020D01*
X92469Y127299D01*
X103599Y130929D02*X91099D01*
X89910Y129740D01*
X87410Y127358D01*
X87351Y127299D01*
X103851Y126992D02*X97162D01*
X95910Y124740D02*X94760Y123740D01*
X96000Y122000D02*X93500D01*
X96000D02*X92500D01*
X90000Y119500D01*
X94760Y123740D02*X88910D01*
X95910Y125740D02*Y124740D01*
X103851Y121087D02*X99087D01*
X96000Y118000D01*
X97162Y126992D02*X95910Y125740D01*
X103851Y125024D02*X99024D01*
X96000Y122000D01*
X103851Y138803D02*X96347D01*
X95910Y139240D01*
X103851Y136835D02*X99005D01*
X97410Y135240D01*
X93910D01*
X89910Y139240D01*
X98410Y132740D02*X88410D01*
X103851Y142740D02*X87910D01*
X103851Y144709D02*X85422D01*
X103851Y123055D02*X119000Y123000D01*
X103851Y119118D02*X112882D01*
X113000Y119000D01*
X112788Y110181D02*Y107788D01*
X108500Y103500D01*
X101000D01*
X118693Y110181D02*Y103807D01*
X62036Y171740D02*X61209Y172567D01*
X63910Y182181D02*Y175268D01*
X61209Y172567D01*
G54D15*X63910Y187299D02*X59469D01*
X56910Y184740D01*
X47410Y188299D02*X53351D01*
X56910Y184740D01*
G54D13*X47410Y183181D02*Y173767D01*
G54D12*X48910Y204740D02*Y199326D01*
X48824Y199240D01*
G54D13*X47410Y173767D02*X48174Y173004D01*
X61910Y159740D02*X54910Y166740D01*
Y170240D01*
X52910Y172240D01*
X48937D01*
X48610Y172567D01*
G54D12*X55910Y199240D02*Y207590D01*
X54500Y209000D01*
X48000D01*
G54D13*X85410Y225240D02*X88910Y221740D01*
Y215740D02*Y209740D01*
X82910Y216240D02*X85160Y213990D01*
Y205290D01*
X88910Y201540D01*
X81510Y221740D02*X80910D01*
X76410Y226240D01*
X99910Y196740D02*X97910Y194740D01*
X95410D01*
G54D12*X81960Y201540D02*X76540D01*
X82043Y193457D02*X79000Y196500D01*
G54D13*X95410Y194740D02*X91410Y190740D01*
X89410Y192240D02*X94410Y197240D01*
X86410Y192240D02*X94410Y200240D01*
X91410Y190740D02*Y183740D01*
X89410Y181740D02*Y192240D01*
X86410Y179740D02*Y192240D01*
X91410Y183740D02*X97410Y177740D01*
Y164240D02*Y177740D01*
X94410Y197240D02*X95910D01*
X97410Y198740D01*
X91910Y174740D02*X87410Y179240D01*
X86910D01*
X86410Y179740D01*
G54D12*X76540Y201540D02*X76500Y201500D01*
X74957Y185500D02*Y191957D01*
X75000Y192000D01*
G54D13*X79867Y171740D02*X62036D01*
X61910Y159740D02*X79867D01*
G54D12*X74500Y178000D02*X78500D01*
X82000Y181500D01*
Y185457D01*
X82043Y185500D01*
Y193457D01*
X79000Y196500D02*X71500D01*
X67000Y192000D01*
X79824Y295240D02*X73910D01*
X71410Y292740D01*
G54D13*X91410Y274240D02*Y277740D01*
X84910Y284240D01*
Y260740D02*Y276040D01*
X76910Y267740D02*Y274990D01*
X77960Y276040D01*
G54D12*X116000Y295000D02*X87150D01*
X86910Y295240D01*
G54D13*X61860Y279740D02*X65360Y276240D01*
X61910Y259740D02*X58410Y263240D01*
X55560D01*
X55360Y263440D01*
X62410Y267740D02*X49410D01*
X46910Y270240D01*
X49000Y273150D02*X51410Y270740D01*
X46910Y270240D02*Y283740D01*
G54D12*X48410Y255240D02*X48240D01*
X43000Y250000D01*
G54D13*X49000Y278500D02*Y273150D01*
X46910Y283740D02*X52910Y289740D01*
X60060D01*
X65360Y284440D01*
G54D12*X52000Y276000D02*X58170D01*
X58410Y276240D01*
G54D13*X61860Y279740D02*X50240D01*
X49000Y278500D01*
X61910Y248740D02*Y259740D01*
X55410Y250740D02*Y255190D01*
X55360Y255240D01*
X83910Y245740D02*X60410D01*
X55410Y250740D01*
X59560Y239740D02*X55360Y243940D01*
X65910Y251740D02*X64410Y253240D01*
X60410Y235740D02*X55360D01*
X76910Y239740D02*X59560D01*
X88410Y237240D02*Y236740D01*
X88910Y236240D01*
X65910Y251740D02*X93410D01*
X81910Y236240D02*X82910D01*
X85410Y233740D01*
Y225240D01*
X84910Y260740D02*X94910D01*
X94410Y238740D02*X91410Y241740D01*
X88910Y236240D02*Y229940D01*
X102410Y193440D02*Y243840D01*
Y193440D02*Y263240D01*
X99910Y255740D02*Y196740D01*
X97410Y198740D02*Y247740D01*
X102410Y263240D02*X91410Y274240D01*
X94910Y260740D02*X99910Y255740D01*
X97410Y247740D02*X93410Y251740D01*
X94410Y200240D02*Y238740D01*
X105410Y235240D02*X105400Y191300D01*
X113000Y198000D02*X110500Y200500D01*
X64410Y253240D02*Y265740D01*
X62410Y267740D01*
Y229240D02*Y220790D01*
X55360Y213740D01*
X42910Y229240D02*Y219240D01*
X44410Y217740D01*
X51160D01*
X55360Y221940D01*
G54D12*X48410Y213740D02*X46740D01*
X67000Y192000D02*X45000D01*
X42500Y189500D01*
X48000Y209000D02*X42500Y203500D01*
X46740Y213740D02*X43000Y210000D01*
X48260Y235740D02*X43240D01*
X43000Y235500D01*
G54D13*X66410Y125240D02*Y105740D01*
X61410Y100740D01*
X59910D01*
X88410Y132740D02*X87910Y133240D01*
X73867Y128240D02*X69410D01*
X66410Y125240D01*
X88910Y123740D02*X85410Y120240D01*
G54D12*X74048Y117452D02*X79452D01*
X81500Y119500D01*
G54D15*X51910Y129740D02*Y111240D01*
G54D12*X42500Y189500D02*Y77500D01*
X76064Y89936D02*X81500Y84500D01*
X87000D01*
G54D13*X85410Y120240D02*Y110835D01*
X85505Y110740D01*
X85410Y103740D02*Y110645D01*
X85505Y110740D01*
X82953Y92240D02*Y101283D01*
X85410Y103740D01*
G54D12*X96500Y92500D02*Y99000D01*
X89414Y98914D02*X89500Y99000D01*
Y92586D01*
X89414Y92500D01*
X90500Y87500D02*X93000Y85000D01*
G54D13*X47910Y84299D02*X47969Y84240D01*
X59910D01*
G54D15*X47910Y79181D02*X60351D01*
X60410Y79240D01*
G54D12*X42500Y77500D02*X47500Y72500D01*
X82888D01*
X86860Y68528D01*
X74000Y81500D02*X85500D01*
X87000Y80000D01*
Y76868D01*
X86860Y76728D01*
G54D14*X99798Y78298D02*Y71702D01*
G54D13*X76000Y92373D02*X75867Y92240D01*
G54D12*X80000Y100000D02*X76000Y96000D01*
Y93000D01*
X76314Y92686D01*
X76064Y92436D02*Y89936D01*
X80000Y111500D02*Y100000D01*
X74000Y105595D02*Y101000D01*
X75000Y100000D01*
X80000Y68500D02*X75000Y63500D01*
X70500Y68000D02*Y61500D01*
X77000Y55000D01*
X77500D01*
X77250Y54750D02*Y49250D01*
X79000Y47500D01*
X93000D01*
X96000Y50500D01*
Y54457D01*
X95957Y54500D01*
X103043D02*Y60957D01*
X99500Y64500D01*
X88905Y54500D02*Y56595D01*
X84000Y61500D01*
G54D13*X87910Y142740D02*X85410Y140240D01*
X85422Y144709D02*X80953Y140240D01*
X73867D02*X71867Y138240D01*
X71888Y138262D02*X71410Y138740D01*
X85410Y140240D02*Y137240D01*
X80910Y132740D01*
Y128283D01*
X80953Y128240D01*
X71410Y138740D02*X54969D01*
X53469Y137240D01*
G54D15*X48351D02*Y133299D01*
X51910Y129740D01*
G54D13*X76095Y119500D02*X74000Y117405D01*
G54D12*X75000Y118405D02*Y116500D01*
X80000Y111500D01*
X111405Y78500D02*Y90335D01*
X98595Y79500D02*X99595Y78500D01*
X102000Y85000D02*X105500Y81500D01*
X111405Y90335D02*X104500Y97240D01*
X87000Y84500D02*X92000Y79500D01*
X98595D01*
X82953Y91500D02*Y89547D01*
X85000Y87500D01*
X90500D01*
X93000Y85000D02*X102000D01*
X105500Y81500D02*Y74500D01*
G54D14*X99798Y71702D02*X105500Y66000D01*
G54D12*Y74500D02*X108000Y72000D01*
X116500D01*
X118095Y75000D01*
G54D14*X105500Y66000D02*X111905D01*
X112000Y65905D01*
Y54095D02*X113405D01*
X119500Y48000D01*
G54D13*X103851Y148646D02*X112316D01*
X103851Y154551D02*X111099D01*
X103851Y146677D02*X108973D01*
X97410Y146740D02*X103788D01*
X103851Y146677D01*
X103410Y148646D02*X98504D01*
X96910Y150240D01*
X103851Y150614D02*X99536D01*
X97910Y152240D01*
X103851Y152583D02*X100567D01*
X98910Y154240D01*
X97410D01*
X108973Y146677D02*X110410Y145240D01*
X115410D01*
X118910Y148740D01*
X91469Y148240D02*X95910D01*
X97410Y146740D01*
X93910Y151740D02*X87410D01*
X86410Y150740D01*
Y148299D01*
X86351Y148240D01*
X96910Y150240D02*X95410D01*
X93910Y151740D01*
X97910Y152240D02*X96410D01*
X94910Y153740D01*
X92953D01*
X86953Y159740D01*
X97410Y154240D02*X91410Y160240D01*
X103851Y158488D02*X97162D01*
X103851Y164394D02*X100256D01*
X99410Y165240D01*
X103851Y162425D02*X99225D01*
X97410Y164240D01*
X103851Y160457D02*X98193D01*
X103851Y156520D02*X109690D01*
X113410Y160240D01*
X115410Y154240D02*X111410D01*
X111099Y154551D02*X111410Y154240D01*
X124410Y165240D02*Y159240D01*
X132910Y165240D02*Y159240D01*
X157500Y164000D02*Y163500D01*
X160500Y160500D01*
X168969Y154551D02*X155449D01*
X155250Y154750D01*
X168969Y156519D02*X158481D01*
X157000Y158000D01*
X168969Y152582D02*X158582D01*
X157500Y151500D01*
X153000D01*
X150000Y154500D01*
X148000Y158000D02*X144500Y154500D01*
X150190Y175299D02*Y188810D01*
X147500Y191500D01*
X172032Y166362D02*X173410Y167740D01*
Y173197D02*X172367Y174240D01*
G54D15*X165910D01*
X179410D02*X187815D01*
G54D13*X168969Y164393D02*X175063D01*
X168969Y162425D02*X178595D01*
G54D15*X178410D02*X181190D01*
X184505Y165740D01*
G54D13*X175063Y164393D02*X175910Y165240D01*
G54D15*X179410Y168740D01*
Y174197D01*
X179453Y174240D01*
X187815D02*X196315Y165740D01*
X173410Y167740D02*Y173197D01*
X172638Y173968D01*
G54D13*X179500Y190300D02*Y196350D01*
X188100Y198000D02*X186900Y196800D01*
X188100Y198000D02*X190500D01*
X209500Y171000D02*X191000Y189500D01*
X212000Y173500D02*X208500Y177000D01*
X198748Y247252D02*X215000Y231000D01*
X195599Y245901D02*X211000Y230500D01*
X192450Y244550D02*X203500Y233500D01*
X215000Y231000D02*Y226800D01*
X214900Y226700D01*
X211000Y230500D02*Y222400D01*
X207500Y212000D02*Y218050D01*
X207950Y218500D01*
X195599Y252901D02*Y245901D01*
X189299Y252701D02*Y243299D01*
X192450Y247050D02*Y244550D01*
X189299Y243500D02*Y242701D01*
X200000Y232000D01*
Y213500D01*
X168969Y166362D02*X172032D01*
X160500Y160500D02*X168925D01*
X168969Y160456D01*
X179500Y156500D02*X177500Y158500D01*
X183177Y146677D02*X192000Y155500D01*
X180114Y150614D02*X185500Y156000D01*
X168969Y142740D02*X210260D01*
X168981Y158500D02*X168969Y158488D01*
X177500Y158500D02*X168981D01*
X168969Y146677D02*X183177D01*
X168969Y150614D02*X180114D01*
X168969Y148645D02*X164145D01*
X162500Y147000D01*
X204500Y148500D02*Y155500D01*
X207500Y158500D01*
X98193Y160457D02*X95410Y163240D01*
X99410Y165240D02*X99400Y179400D01*
X95410Y163240D02*Y166740D01*
X93410Y162240D02*Y165240D01*
X91910Y166740D01*
X95410D02*X94410Y167740D01*
X97162Y158488D02*X93410Y162240D01*
X86953Y171740D02*Y168197D01*
X91410Y163740D02*Y160240D01*
X91910Y166740D02*Y174740D01*
X94410Y167740D02*Y176740D01*
X86953Y168197D02*X91410Y163740D01*
X116725Y170425D02*X120410Y166740D01*
Y163740D01*
X118694Y170956D02*X124410Y165240D01*
X120662Y171488D02*X128410Y163740D01*
X122631Y175299D02*Y172019D01*
X126910Y167740D01*
X130410D01*
X132910Y165240D01*
X103851Y166362D02*Y170681D01*
X101410Y173240D02*X103910Y170740D01*
X89410Y181740D02*X94410Y176740D01*
X99400Y179400D02*X94010Y184740D01*
Y189540D01*
X96310Y191840D01*
X100810D01*
X102410Y193440D01*
Y189740D02*X101380Y188740D01*
X103910Y189740D02*X102410D01*
X101380Y188740D02*X101410Y173240D01*
G54D15*X97315Y110740D02*X105410D01*
X111410Y97240D02*X104410D01*
G54D13*X168969Y125023D02*X184023D01*
X168969Y123055D02*X187555D01*
X190000Y125500D01*
X168969Y121086D02*X191086D01*
X197000Y127000D01*
X168969Y134866D02*X145134D01*
X145000Y135000D01*
X184023Y125023D02*X193500Y134500D01*
X196500D01*
X160032Y110181D02*Y107575D01*
X165367Y102240D01*
G54D15*X172453D02*Y106197D01*
X168910Y109740D01*
X165367Y102240D02*Y98283D01*
X168910Y94740D01*
G54D13*X188500Y91500D02*X184000Y87000D01*
X158063Y110181D02*Y114063D01*
X154126Y110181D02*Y116626D01*
X155500Y118000D01*
X158063Y114063D02*X159500Y115500D01*
G54D12*X175000D01*
X181500Y109000D01*
Y103095D01*
X181595Y103000D01*
X193405D02*X188000D01*
G54D13*X114756Y110240D02*Y105086D01*
X111410Y101740D01*
Y97740D01*
X116725Y110181D02*Y102925D01*
X118410Y101240D01*
Y97826D01*
X120662Y110181D02*Y105338D01*
X118410Y97826D02*X118496Y97740D01*
G54D15*X118410Y97240D02*Y89240D01*
G54D13*X125500Y93000D02*Y88000D01*
X123000Y92500D02*X123500Y92000D01*
X125000Y93500D02*X125500Y93000D01*
X127000Y94000D02*X127500Y93500D01*
Y90500D01*
X118693Y103807D02*X119500Y103000D01*
X121500D01*
X123000Y101500D01*
X120662Y105338D02*X121000Y105000D01*
X122500D01*
X125000Y102500D01*
X124599Y110181D02*Y105901D01*
X127000Y103500D01*
X123000Y101500D02*Y92500D01*
X125000Y102500D02*Y93500D01*
X127000Y103500D02*Y94000D01*
X122630Y110181D02*Y117130D01*
X114757Y167393D02*Y181936D01*
X115957Y194043D02*X116500Y193500D01*
X116725Y175299D02*Y170425D01*
X118694Y175299D02*Y170956D01*
X120662Y175299D02*Y171488D01*
X112788Y175299D02*Y178362D01*
X124599Y175299D02*Y179551D01*
X121953Y182197D02*X124599Y179551D01*
X134500Y175357D02*X134442Y175299D01*
X132500Y175326D02*X132473Y175299D01*
X112788Y178362D02*X111910Y179240D01*
X106910D01*
X105910Y180240D01*
Y183697D01*
X103851Y170681D02*X103910Y170740D01*
G54D14*X121000Y189373D02*X120910Y189283D01*
G54D13*X126568Y175299D02*Y191932D01*
X128536Y175299D02*Y193464D01*
X134500Y203500D02*Y175357D01*
X149000Y200000D02*X156000D01*
X160000Y196000D01*
X153000Y195000D02*X155000D01*
X158000Y192000D01*
Y175363D01*
X160000Y196000D02*Y175331D01*
X160032Y175299D01*
X158000Y175363D02*X158064Y175299D01*
X157000Y158000D02*X148000D01*
X114757Y181936D02*X112953Y183740D01*
X120953Y182240D02*X120910Y182197D01*
X121953D01*
X105910Y183697D02*X105867Y183740D01*
X105400Y191300D02*X103910Y189740D01*
G54D12*X105867Y183740D02*Y186367D01*
X109000Y189500D01*
G54D13*X130505Y175299D02*Y195495D01*
X132500Y198000D02*Y175326D01*
G54D14*X116500Y193500D02*X121000Y189373D01*
G54D13*X126568Y191932D02*X120500Y198000D01*
X113000D01*
X110000Y220500D02*X132500Y198000D01*
X122000Y200000D02*X117000D01*
X110500Y206500D01*
X122000Y204000D02*X119000D01*
G54D12*X141000Y211000D02*X126000D01*
G54D13*X128536Y193464D02*X122000Y200000D01*
X130505Y195495D02*X122000Y204000D01*
G54D12*X290140Y222090D02*Y218640D01*
Y221860D02*X294360D01*
X299000Y226500D01*
X290140Y218640D02*X287500Y216000D01*
X275500D01*
X283190Y222090D02*X278590D01*
X278500Y222000D01*
X282790Y202090D02*X279090D01*
G54D13*X276000Y196500D02*X285500D01*
X290640Y201640D01*
G54D12*X298980Y201500D02*X290190Y210290D01*
X294280Y198000D02*X290190Y202090D01*
G54D13*X286400Y206500D02*X290190Y210290D01*
G54D12*X279090Y202090D02*X279000Y202000D01*
G54D13*X262000Y202500D02*X270000D01*
G54D12*X275500Y216000D02*X272500Y219000D01*
Y225000D01*
X265414D02*X260000D01*
G54D13*X270000Y202500D02*X276000Y196500D01*
X286400Y206500D02*X267500D01*
G54D12*X275000Y230500D02*X279500Y235000D01*
X285430D01*
X290140Y230290D01*
X237000Y230500D02*X275000D01*
G54D13*X248000Y217000D02*X251500Y213500D01*
G54D12*X244543Y212393D02*Y205543D01*
G54D13*X236457Y213000D02*X237457Y212000D01*
Y214957D01*
X239500Y217000D01*
X248000D01*
X251500Y213500D02*Y188690D01*
G54D12*X244543Y205543D02*X244500Y205500D01*
Y199086D01*
X244586Y199000D01*
G54D13*X234500D02*X237500D01*
Y195000D01*
X257000Y175500D01*
X342000Y227500D02*X343000D01*
X346500Y231000D01*
Y242500D01*
X310500Y238000D02*Y221150D01*
X309640Y220290D01*
G54D12*X322000Y230500D02*Y224873D01*
G54D13*X339410Y233697D02*X337197D01*
G54D12*X335500Y225500D02*Y220500D01*
Y225000D02*Y229787D01*
X339410Y233697D01*
X328953Y237240D02*Y220453D01*
G54D13*X305500Y230500D02*X310500D01*
X346500Y242500D02*X343000Y246000D01*
G54D12*X339410Y240783D02*X332496D01*
X328953Y237240D01*
G54D13*X318500Y246000D02*X310500Y238000D01*
G54D12*X321867Y237240D02*Y241367D01*
X327500Y247000D01*
G54D13*X318250Y245750D02*X326500Y254000D01*
G54D12*X327500Y247000D02*X330000D01*
G54D13*X326500Y254000D02*X335000D01*
X342750Y246250D01*
G54D12*X299000Y226500D02*X304000D01*
X306000Y224500D01*
Y217000D01*
X307000Y216000D01*
X314500D01*
X322000Y224873D02*X321867Y224740D01*
X302690Y212090D02*X298090D01*
X298000Y212000D01*
X314500Y216000D02*X320000Y210500D01*
X325500D01*
X328953Y220453D02*X323000Y214500D01*
X363500Y228500D02*Y206500D01*
X368000Y224500D02*Y203500D01*
X362500Y198000D01*
X355000Y228500D02*Y218000D01*
X350000Y213000D01*
X363500Y206500D02*X358500Y201500D01*
X298980D01*
X362500Y198000D02*X294280D01*
X325500Y210500D02*X326000Y211000D01*
X335500Y220500D02*X325500Y210500D01*
X350000Y213000D02*X332500D01*
X326000Y206500D01*
X315230D01*
G54D13*X304500Y206000D02*Y206500D01*
G54D12*X315230D02*X309640Y212090D01*
G54D13*X304500Y206500D02*X309865Y211865D01*
G54D12*X335900Y157400D02*X340000Y157500D01*
X330600Y157400D02*X335900D01*
X330600Y160000D02*X325000D01*
X330600Y154900D02*X327900D01*
X325000Y152000D01*
X334600Y162600D02*X337500Y165500D01*
X330600Y162600D02*X334600D01*
X330600Y152300D02*X336657D01*
X338957Y150000D01*
X330600Y170200D02*X336700D01*
X330600Y167700D02*X326800D01*
X325500Y169000D01*
X330600Y165100D02*X322100D01*
X320500Y163500D01*
Y149000D01*
X330600Y152300D02*Y141600D01*
X330500Y141500D01*
X325500Y141618D02*X325382Y141500D01*
X325500Y141382D02*X325382Y141500D01*
X320500Y149000D02*X325500Y144000D01*
Y139000D02*X328000Y136500D01*
X325500Y139000D02*Y144000D01*
X321500Y134500D02*Y140500D01*
X320000Y142000D01*
G54D14*X339000Y172500D02*Y185905D01*
X339095Y186000D01*
G54D12*X336700Y170200D02*X339000Y172500D01*
G54D14*X351000Y178500D02*Y185905D01*
X350905Y186000D01*
X346086Y172500D02*Y173586D01*
X351000Y178500D01*
X339000Y185905D02*X333491D01*
X330586Y183000D01*
X319000Y187500D02*X323500Y183000D01*
X338957Y150393D02*Y137138D01*
X339095Y137000D01*
G54D12*X330600Y141500D02*X331500D01*
X334500Y138500D01*
Y130000D01*
X332500Y128000D01*
G54D14*X339000Y130500D02*Y135000D01*
X351000Y144500D02*Y137095D01*
X350905Y137000D01*
X346043Y150000D02*Y149457D01*
X351000Y144500D01*
X343457Y124000D02*Y126043D01*
X339000Y130500D01*
X337905Y119500D02*X342000Y115405D01*
X346905D01*
X350500Y119000D01*
Y123957D01*
X350543Y124000D01*
G54D12*X328000Y136500D02*X329000D01*
X330500Y135000D01*
Y131500D01*
X332500Y128000D02*X319500D01*
X318000Y129500D01*
Y138118D01*
X325382Y131500D02*X324500D01*
X321500Y134500D01*
G54D14*X322810Y119500D02*X337905D01*
X327405Y105500D02*X332000D01*
X334500Y108000D01*
X342000Y103595D02*X338905D01*
X334500Y108000D01*
G54D12*X314618Y131500D02*Y133882D01*
X312000Y136500D01*
X311000D01*
X309500Y138000D01*
Y131500D02*Y132000D01*
Y138000D02*Y141500D01*
X318000Y138118D02*X314618Y141500D01*
X309500Y132000D02*X305500Y136000D01*
G54D14*X303500Y119500D02*X311000D01*
G54D12*X309400Y157500D02*X306000D01*
X304500Y156000D01*
X309400Y154900D02*X312900D01*
X316500Y159000D01*
X309400Y170300D02*X314800D01*
X315500Y171000D01*
X309400Y165200D02*X314800D01*
X317500Y166000D01*
X309400Y152400D02*X315100D01*
X315500Y152000D01*
G54D14*X308905Y181000D02*X315500D01*
X289957Y147500D02*Y135862D01*
X290000Y147543D02*X289957Y147500D01*
G54D12*X304500Y156000D02*Y146500D01*
X309500Y141500D01*
G54D16*X300000Y156500D02*X293000D01*
G54D14*X297043Y147500D02*Y142957D01*
X299500Y140500D01*
G54D16*X290000Y153500D02*Y149500D01*
G54D12*X290979Y148522D01*
G54D14*X299500Y140500D02*Y133595D01*
G54D12*X309400Y160000D02*X303500D01*
G54D17*X300000Y156500D01*
G54D12*X309400Y162600D02*X300100D01*
G54D16*X293000Y156500D02*X290000Y153500D01*
G54D13*X262000Y129500D02*Y136000D01*
G54D12*X300100Y162600D02*X298500Y161000D01*
X309400Y167700D02*X297843D01*
X297043Y168500D01*
G54D14*X303000Y167700D02*X297300D01*
X297000D02*Y180905D01*
G54D12*X275000Y177000D02*Y169000D01*
X276500Y167500D01*
G54D13*X257000Y175500D02*Y165500D01*
X263000Y159500D01*
G54D14*X297000Y180905D02*X297095Y181000D01*
X289000Y187500D02*X319000D01*
G54D13*X251500Y188690D02*X263190Y177000D01*
G54D14*X289957Y168500D02*Y174457D01*
X290000Y174500D01*
X282000Y124000D02*Y180500D01*
X289000Y187500D01*
X289957Y135862D02*X287595Y133500D01*
Y105500D02*Y119138D01*
X287957Y119500D01*
X299405Y105500D02*X307000D01*
X313000Y112500D02*X315500Y110000D01*
Y105595D01*
X315595Y105500D01*
X299500Y133595D02*X299405Y133500D01*
X287595Y112500D02*X313000D01*
X287548Y133452D02*Y131952D01*
X295000Y124500D01*
Y119543D01*
X295043Y119500D01*
X287595Y119138D02*X286862D01*
X282000Y124000D01*
G54D12*X274810Y159500D02*X269000D01*
G54D13*X250500Y135000D02*X256500D01*
X246000Y139000D02*X250500Y135000D01*
X246000Y139000D02*Y147000D01*
X243500Y149500D01*
X262000Y136000D02*X244500Y153500D01*
X243500Y149500D02*X230000D01*
X217000Y162500D01*
X231000Y153500D02*X219500Y165000D01*
X236500Y153500D02*X230500Y159500D01*
X228500D01*
X221500Y166500D01*
X213500Y161000D02*X229000Y145500D01*
X231000D01*
X207618Y119118D02*X231000Y142500D01*
Y145000D01*
X231500Y145500D01*
X210240Y142740D02*X219760D01*
X222000Y140500D01*
X244500Y153500D02*X236500D01*
X168969Y119118D02*X207618D01*
X213500Y167000D02*Y161000D01*
X219500Y165000D02*Y167000D01*
X221500Y166500D02*Y168000D01*
X219500Y167000D02*X215500Y171000D01*
X209500D01*
X221500Y168000D02*X216000Y173500D01*
X212000D01*
G54D18*X262985Y84944D03*
X209835D03*
G54D19*X236410Y124740D03*
G54D20*X349610Y70590D03*
X323610D03*
G54D21*X209576Y260706D03*
X156426D03*
G54D19*X183000Y225500D03*
G54D22*X56110Y306840D03*
X416110D03*
X56110Y56840D03*
X416110D03*
G54D23*X252445Y53108D02*Y48384D01*
X248508Y53108D02*Y48384D01*
X244571Y53108D02*Y48384D01*
X240634Y53108D02*Y48384D01*
X236697Y53108D02*Y48384D01*
X232760Y53108D02*Y48384D01*
G54D24*X254413Y62558D02*Y57833D01*
X250476Y62558D02*Y57833D01*
X246539Y62558D02*Y57833D01*
G54D25*X258350Y52715D02*Y48778D01*
Y62164D02*Y58227D01*
G54D23*X228823Y53108D02*Y48384D01*
X224886Y53108D02*Y48384D01*
X220949Y53108D02*Y48384D01*
G54D24*X242602Y62558D02*Y57833D01*
X238665Y62558D02*Y57833D01*
G54D23*X234728Y62557D02*Y57833D01*
X230791Y62557D02*Y57833D01*
X226854Y62557D02*Y57833D01*
X222917Y62557D02*Y57833D01*
X218980Y62557D02*Y57833D01*
G54D25*X213074Y62164D02*Y58227D01*
G54D26*X112788Y112630D02*Y107732D01*
X114756Y112630D02*Y107732D01*
X116725Y112630D02*Y107732D01*
X118693Y112630D02*Y107732D01*
X120662Y112630D02*Y107732D01*
X122630Y112630D02*Y107732D01*
X124599Y112630D02*Y107732D01*
G54D27*X85505Y111921D02*Y109559D01*
G54D28*X50488Y111740D02*X60331D01*
G54D27*X97315Y111921D02*Y109559D01*
G54D26*X126567Y112630D02*Y107732D01*
X128536Y112630D02*Y107732D01*
X130504Y112630D02*Y107732D01*
X132473Y112630D02*Y107732D01*
X134441Y112630D02*Y107732D01*
X136410Y112630D02*Y107732D01*
X138378Y112630D02*Y107732D01*
X140347Y112630D02*Y107732D01*
X142315Y112630D02*Y107732D01*
X144284Y112630D02*Y107732D01*
X146252Y112630D02*Y107732D01*
X148221Y112630D02*Y107732D01*
X150189Y112630D02*Y107732D01*
X152158Y112630D02*Y107732D01*
X154126Y112630D02*Y107732D01*
X156095Y112630D02*Y107732D01*
X158063Y112630D02*Y107732D01*
X160032Y112630D02*Y107732D01*
G54D27*X343457Y124393D02*Y123607D01*
X350543Y124393D02*Y123607D01*
G54D29*X325382Y131992D02*Y131008D01*
X330500Y131992D02*Y131008D01*
X325382Y141992D02*Y141008D01*
X330500Y141992D02*Y141008D01*
G54D27*X339095Y138181D02*Y135819D01*
X340819Y115405D02*X343181D01*
X340819Y103595D02*X343181D01*
G54D29*X309500Y131992D02*Y131008D01*
X314618Y131992D02*Y131008D01*
X309500Y141992D02*Y141008D01*
X314618Y141992D02*Y141008D01*
G54D27*X287595Y134681D02*Y132319D01*
X287957Y119893D02*Y119107D01*
X295043Y119893D02*Y119107D01*
X299405Y134681D02*Y132319D01*
X311000Y120681D02*Y118319D01*
X322810Y120681D02*Y118319D01*
X315595Y106681D02*Y104319D01*
X327405Y106681D02*Y104319D01*
X287595Y106681D02*Y104319D01*
X299405Y106681D02*Y104319D01*
G54D30*X86860Y77028D02*Y76428D01*
X79460Y77028D02*Y76428D01*
G54D27*X77095Y55681D02*Y53319D01*
X88905Y55681D02*Y53319D01*
G54D30*X79760Y68528D02*X80060D01*
X86860Y68828D02*Y68228D01*
G54D23*X217012Y53108D02*Y48384D01*
G54D25*X213074Y52715D02*Y48778D01*
G54D27*X200043Y55393D02*Y54607D01*
X192957Y55393D02*Y54607D01*
Y68393D02*Y67607D01*
X200043Y68393D02*Y67607D01*
X181595Y104181D02*Y101819D01*
X193405Y104181D02*Y101819D01*
X165367Y102633D02*Y101847D01*
X172453Y102633D02*Y101847D01*
X89414Y92893D02*Y92107D01*
X75867Y92633D02*Y91847D01*
X82953Y92633D02*Y91847D01*
G54D31*X60331Y100126D02*Y86346D01*
G54D29*X47418Y84299D02*X48402D01*
X47418Y79181D02*X48402D01*
G54D27*X72819Y105595D02*X75181D01*
G54D30*X157300Y67800D02*X157600D01*
X157300Y48300D02*X157600D01*
X157000Y56800D02*Y56200D01*
X164400Y68100D02*Y67500D01*
Y48600D02*Y48000D01*
Y56800D02*Y56200D01*
Y76300D02*Y75700D01*
X157000Y76300D02*Y75700D01*
G54D27*X176867Y68133D02*Y67347D01*
X183953Y68133D02*Y67347D01*
X176957Y55393D02*Y54607D01*
X184043Y55393D02*Y54607D01*
X178095Y83681D02*Y81319D01*
X189905Y83681D02*Y81319D01*
X95957Y54893D02*Y54107D01*
X103043Y54893D02*Y54107D01*
X110819Y54095D02*X113181D01*
X96500Y92893D02*Y92107D01*
X111410Y98133D02*Y97347D01*
X118496Y98133D02*Y97347D01*
X99595Y79681D02*Y77319D01*
X111405Y79681D02*Y77319D01*
X118095Y76181D02*Y73819D01*
X110819Y65905D02*X113181D01*
X129905Y76181D02*Y73819D01*
G54D23*X198873Y298502D02*Y293778D01*
X194936Y298502D02*Y293778D01*
X190999Y298502D02*Y293778D01*
G54D25*X204778Y298109D02*Y294172D01*
G54D24*X200841Y307952D02*Y303227D01*
X196904Y307952D02*Y303227D01*
X192967Y307952D02*Y303227D01*
G54D25*X204778Y307558D02*Y303621D01*
G54D23*X187062Y298502D02*Y293778D01*
X183125Y298502D02*Y293778D01*
X179188Y298502D02*Y293778D01*
X175251Y298502D02*Y293778D01*
X171314Y298502D02*Y293778D01*
X167377Y298502D02*Y293778D01*
G54D24*X189030Y307952D02*Y303227D01*
X185093Y307952D02*Y303227D01*
G54D23*X181156Y307951D02*Y303227D01*
X177219Y307951D02*Y303227D01*
X173282Y307951D02*Y303227D01*
X169345Y307951D02*Y303227D01*
X165408Y307951D02*Y303227D01*
G54D25*X159502Y307558D02*Y303621D01*
G54D23*X276443Y298492D02*Y293768D01*
X272506Y298492D02*Y293768D01*
X268569Y298492D02*Y293768D01*
G54D24*X278411Y307942D02*Y303217D01*
X274474Y307942D02*Y303217D01*
X270537Y307942D02*Y303217D01*
G54D25*X282348Y298099D02*Y294162D01*
Y307548D02*Y303611D01*
G54D23*X264632Y298492D02*Y293768D01*
X260695Y298492D02*Y293768D01*
X256758Y298492D02*Y293768D01*
X252821Y298492D02*Y293768D01*
X248884Y298492D02*Y293768D01*
X244947Y298492D02*Y293768D01*
X241010Y298492D02*Y293768D01*
G54D25*X237072Y298099D02*Y294162D01*
G54D24*X266600Y307942D02*Y303217D01*
X262663Y307942D02*Y303217D01*
G54D23*X258726Y307941D02*Y303217D01*
X254789Y307941D02*Y303217D01*
X250852Y307941D02*Y303217D01*
X246915Y307941D02*Y303217D01*
X242978Y307941D02*Y303217D01*
G54D25*X237072Y307548D02*Y303611D01*
G54D27*X298457Y281893D02*Y281107D01*
X305543Y281893D02*Y281107D01*
X265414Y225393D02*Y224607D01*
X272500Y225393D02*Y224607D01*
G54D30*X283040Y222090D02*X283340D01*
X290140Y222390D02*Y221790D01*
X290190Y202390D02*Y201790D01*
Y210590D02*Y209990D01*
X290140Y230590D02*Y229990D01*
X282740Y230590D02*Y229990D01*
X283090Y202090D02*X283390D01*
X282790Y210590D02*Y209990D01*
X302540Y212090D02*X302840D01*
X302240Y220590D02*Y219990D01*
X309640Y212390D02*Y211790D01*
Y220590D02*Y219990D01*
G54D27*X321867Y225133D02*Y224347D01*
X328953Y225133D02*Y224347D01*
X321867Y237633D02*Y236847D01*
X328953Y237633D02*Y236847D01*
X339017Y240783D02*X339803D01*
X339017Y233697D02*X339803D01*
G54D23*X163440Y298502D02*Y293778D01*
G54D25*X159502Y298109D02*Y294172D01*
G54D27*X79824Y295633D02*Y294847D01*
X86910Y295633D02*Y294847D01*
G54D30*X55360Y263740D02*Y263140D01*
X58260Y276240D02*X58560D01*
X47960Y263740D02*Y263140D01*
X65360Y276540D02*Y275940D01*
X77810Y276040D02*X78110D01*
X84910Y276340D02*Y275740D01*
X65360Y284740D02*Y284140D01*
X84910Y284540D02*Y283940D01*
X77510Y284540D02*Y283940D01*
X57960Y284740D02*Y284140D01*
G54D29*X63418Y187299D02*X64402D01*
X63418Y182181D02*X64402D01*
G54D27*X47429Y172567D02*X49791D01*
X74957Y185893D02*Y185107D01*
G54D29*X46918Y188299D02*X47902D01*
X46918Y183181D02*X47902D01*
G54D27*X48824Y199633D02*Y198847D01*
X55910Y199633D02*Y198847D01*
X60028Y172567D02*X62390D01*
X82043Y185893D02*Y185107D01*
G54D30*X81810Y201540D02*X82110D01*
X81510Y210040D02*Y209440D01*
G54D27*X79867Y172133D02*Y171347D01*
Y160133D02*Y159347D01*
X80953Y128633D02*Y127847D01*
Y140633D02*Y139847D01*
G54D30*X81810Y221740D02*X82110D01*
G54D31*X60331Y137133D02*Y123353D01*
G54D27*X73867Y128633D02*Y127847D01*
Y140633D02*Y139847D01*
G54D29*X48351Y137732D02*Y136748D01*
X53469Y137732D02*Y136748D01*
G54D27*X60028Y150913D02*X62390D01*
X47429D02*X49791D01*
X72819Y117405D02*X75181D01*
G54D30*X88910Y230240D02*Y229640D01*
X81510Y230240D02*Y229640D01*
X88910Y222040D02*Y221440D01*
Y201840D02*Y201240D01*
Y210040D02*Y209440D01*
X48260Y213740D02*X48560D01*
X55360Y214040D02*Y213440D01*
Y222240D02*Y221640D01*
X47960Y222240D02*Y221640D01*
X48260Y235740D02*X48560D01*
X55360Y236040D02*Y235440D01*
X48260Y255240D02*X48560D01*
X55360Y255540D02*Y254940D01*
Y244240D02*Y243640D01*
X47960Y244240D02*Y243640D01*
G54D26*X101402Y166362D02*X106300D01*
X101402Y164394D02*X106300D01*
X101402Y162425D02*X106300D01*
X101402Y160457D02*X106300D01*
X101402Y158488D02*X106300D01*
X101402Y156520D02*X106300D01*
X101402Y154551D02*X106300D01*
X101402Y152583D02*X106300D01*
G54D27*X105867Y184133D02*Y183347D01*
X112953Y184133D02*Y183347D01*
X120517Y189283D02*X121303D01*
X120517Y182197D02*X121303D01*
G54D26*X101402Y150614D02*X106300D01*
X101402Y148646D02*X106300D01*
X101402Y146677D02*X106300D01*
X101402Y144709D02*X106300D01*
X101402Y142740D02*X106300D01*
X101402Y140772D02*X106300D01*
X101402Y138803D02*X106300D01*
X101402Y136835D02*X106300D01*
X101402Y134866D02*X106300D01*
X101402Y132898D02*X106300D01*
X101402Y130929D02*X106300D01*
G54D29*X86351Y148732D02*Y147748D01*
G54D27*X86953Y172133D02*Y171347D01*
Y160133D02*Y159347D01*
G54D29*X91469Y148732D02*Y147748D01*
G54D26*X101402Y128961D02*X106300D01*
X101402Y126992D02*X106300D01*
X101402Y125024D02*X106300D01*
X101402Y123055D02*X106300D01*
X101402Y121087D02*X106300D01*
X101402Y119118D02*X106300D01*
G54D29*X87351Y127791D02*Y126807D01*
X92469Y127791D02*Y126807D01*
G54D26*X166520Y119118D02*X171418D01*
X166520Y121086D02*X171418D01*
X166520Y123055D02*X171418D01*
X166520Y125023D02*X171418D01*
X166520Y126992D02*X171418D01*
X166520Y128960D02*X171418D01*
X166520Y130929D02*X171418D01*
X166520Y132897D02*X171418D01*
X166520Y134866D02*X171418D01*
X166520Y136834D02*X171418D01*
X166520Y138803D02*X171418D01*
X166520Y140771D02*X171418D01*
X166520Y142740D02*X171418D01*
X166520Y144708D02*X171418D01*
X166520Y146677D02*X171418D01*
X166520Y148645D02*X171418D01*
X166520Y150614D02*X171418D01*
X166520Y152582D02*X171418D01*
X166520Y154551D02*X171418D01*
X166520Y156519D02*X171418D01*
X166520Y158488D02*X171418D01*
X166520Y160456D02*X171418D01*
X166520Y162425D02*X171418D01*
X166520Y164393D02*X171418D01*
G54D30*X179800Y196800D02*X180100D01*
X186900Y197100D02*Y196500D01*
Y205300D02*Y204700D01*
X179500Y205300D02*Y204700D01*
G54D26*X166520Y166362D02*X171418D01*
X160032Y177748D02*Y172850D01*
X158064Y177748D02*Y172850D01*
X156095Y177748D02*Y172850D01*
X154127Y177748D02*Y172850D01*
X152158Y177748D02*Y172850D01*
X150190Y177748D02*Y172850D01*
G54D27*X172367Y174633D02*Y173847D01*
X179453Y174633D02*Y173847D01*
X184505Y166921D02*Y164559D01*
X196315Y166921D02*Y164559D01*
G54D26*X148221Y177748D02*Y172850D01*
X146253Y177748D02*Y172850D01*
X144284Y177748D02*Y172850D01*
X142316Y177748D02*Y172850D01*
X140347Y177748D02*Y172850D01*
X138379Y177748D02*Y172850D01*
X136410Y177748D02*Y172850D01*
X134442Y177748D02*Y172850D01*
X132473Y177748D02*Y172850D01*
X130505Y177748D02*Y172850D01*
X128536Y177748D02*Y172850D01*
X126568Y177748D02*Y172850D01*
X124599Y177748D02*Y172850D01*
X122631Y177748D02*Y172850D01*
X120662Y177748D02*Y172850D01*
X118694Y177748D02*Y172850D01*
X116725Y177748D02*Y172850D01*
X114757Y177748D02*Y172850D01*
X112788Y177748D02*Y172850D01*
G54D30*X207800Y218500D02*X208100D01*
X214900Y218800D02*Y218200D01*
Y227000D02*Y226400D01*
X207500Y227000D02*Y226400D01*
G54D27*X237457Y212393D02*Y211607D01*
X244543Y212393D02*Y211607D01*
X237500Y199393D02*Y198607D01*
X244586Y199393D02*Y198607D01*
X214190Y185681D02*Y183319D01*
X226000Y185681D02*Y183319D01*
X339095Y187181D02*Y184819D01*
X350905Y187181D02*Y184819D01*
X339000Y172893D02*Y172107D01*
X346086Y172893D02*Y172107D01*
X323500Y183393D02*Y182607D01*
X330586Y183393D02*Y182607D01*
X297095Y182181D02*Y179819D01*
X308905Y182181D02*Y179819D01*
X350905Y138181D02*Y135819D01*
X338957Y150393D02*Y149607D01*
X346043Y150393D02*Y149607D01*
G54D32*X329500Y152300D02*X331700D01*
X329500Y154900D02*X331700D01*
X329500Y157400D02*X331700D01*
X329500Y160000D02*X331700D01*
X329500Y162600D02*X331700D01*
X329500Y165100D02*X331700D01*
X329500Y167700D02*X331700D01*
G54D33*X392500Y158150D02*Y151850D01*
G54D27*X289957Y168893D02*Y168107D01*
X297043Y168893D02*Y168107D01*
X263190Y178181D02*Y175819D01*
X275000Y178181D02*Y175819D01*
G54D32*X308300Y160000D02*X310500D01*
G54D27*X263000Y160681D02*Y158319D01*
X274810Y160681D02*Y158319D01*
G54D32*X308300Y157500D02*X310500D01*
X308300Y154900D02*X310500D01*
X308300Y152400D02*X310500D01*
G54D27*X289957Y147893D02*Y147107D01*
X297043Y147893D02*Y147107D01*
G54D34*X308300Y170300D02*X310500D01*
G54D32*X308300Y167700D02*X310500D01*
X308300Y165200D02*X310500D01*
X308300Y162600D02*X310500D01*
X329500Y170200D02*X331700D01*
G54D16*X216910Y44740D03*
X220949Y44779D03*
X224886Y44764D03*
X228910Y44740D03*
X232710D03*
X236710D03*
X240610D03*
X244510D03*
X248510D03*
X252510D03*
X218910Y65940D03*
X222910Y70440D03*
X226910Y65940D03*
X230910Y70440D03*
X234710Y65940D03*
X238710Y70440D03*
X242610Y65940D03*
X246610Y70440D03*
X250510Y65940D03*
X254510Y70440D03*
X262710Y76340D03*
X263800Y68300D03*
X214310Y96240D03*
X217510Y107640D03*
X220610Y96240D03*
X190000Y125500D03*
X197000Y127000D03*
X223810Y107640D03*
X226910Y96240D03*
X230110Y107640D03*
X233210Y96240D03*
X236410Y107640D03*
X242710D03*
X249010D03*
X255310D03*
X245810Y96240D03*
X161000Y62000D03*
X150500Y70000D03*
X152000Y48000D03*
X190000Y74500D03*
X178000D03*
X125000Y75000D03*
X125500Y82500D03*
X144500Y75500D03*
G54D35*X119500Y48000D03*
G54D16*X164130Y272190D03*
X51410Y270740D03*
X91410Y274240D03*
X52000Y276000D03*
X76910Y267740D03*
X182930Y272190D03*
X176730D03*
X170430D03*
G54D35*X116000Y295000D03*
X71410Y292740D03*
G54D16*X164030Y252590D03*
X80410Y251740D03*
X84910Y260740D03*
X183030Y252590D03*
X176730D03*
X170430D03*
X179833Y246963D03*
X173533D03*
X167233D03*
X160910Y246940D03*
X179802Y266048D03*
X173502D03*
X167202D03*
X160910Y266040D03*
X165410Y311240D03*
X169310D03*
X173310D03*
X177210D03*
X181110D03*
X185110D03*
X189010D03*
X193010D03*
X250880Y311230D03*
X242980D03*
X254800Y316200D03*
X262700D03*
X270600D03*
X278500D03*
X246900D03*
X258680Y311230D03*
X266580D03*
X274454D03*
X278370Y248970D03*
X274509Y254440D03*
X270450Y248970D03*
X266609Y254440D03*
X262730Y248970D03*
X258726Y254458D03*
X254820Y248970D03*
X250809Y254440D03*
X246980Y248970D03*
X278500Y222000D03*
X228500Y227500D03*
X220500Y230500D03*
X231000Y232000D03*
X242935Y254440D03*
X256710Y276640D03*
X252800Y284700D03*
X248910Y276640D03*
X244900Y284700D03*
X241010Y276640D03*
X272458D03*
X268600Y284700D03*
X264658Y276640D03*
G54D35*X298500Y274500D03*
X309500D03*
G54D16*X203500Y270000D03*
X200500Y265500D03*
X260700Y284700D03*
X203510Y283440D03*
X197210D03*
X276400Y284700D03*
X60410Y235740D03*
X62410Y229240D03*
X76910Y239740D03*
X81910Y236240D03*
X76410Y226240D03*
X91410Y241740D03*
X88410Y237240D03*
X105410Y235240D03*
X42910Y229240D03*
X43000Y235500D03*
X61910Y248740D03*
X43000Y250000D03*
X83910Y245740D03*
X186150Y246850D03*
X189299Y252701D03*
X192450Y247050D03*
X195599Y252901D03*
X198748Y247252D03*
X201898Y253102D03*
G54D35*X330000Y247000D03*
G54D36*X112189Y128961D03*
X118910Y128740D03*
X112410Y140740D03*
X118910Y148740D03*
G54D16*X109000Y189500D03*
X110500Y206500D03*
X119000Y204000D03*
X76500Y201500D03*
X97500Y188500D03*
X95910Y139240D03*
X89910D03*
X87910Y133240D03*
X83500Y166000D03*
G54D35*X165910Y174240D03*
G54D16*X157500Y164000D03*
X167500Y188000D03*
G54D35*X185910Y174240D03*
G54D16*X207500Y212000D03*
X179500Y190300D03*
X191000Y189500D03*
X184000Y186500D03*
G54D36*X116500Y193500D03*
G54D16*X134500Y203500D03*
X149000Y200000D03*
X153000Y195000D03*
X170000Y196500D03*
X88910Y215740D03*
X82910Y216240D03*
X110000Y220500D03*
X155250Y154750D03*
X179500Y156500D03*
X192000Y155500D03*
X185500Y156000D03*
X204500Y148500D03*
X150000Y154500D03*
X144500D03*
X162500Y147000D03*
G54D35*X60410Y79240D03*
G54D16*X74000Y81500D03*
X75000Y63500D03*
X69000Y77000D03*
X70500Y68000D03*
G54D35*X105410Y110740D03*
G54D16*X96000Y118000D03*
X90000Y119500D03*
X81500D03*
X89500Y99000D03*
X96500D03*
X101000Y103500D03*
X75000Y100000D03*
X84000Y61500D03*
X99500Y64500D03*
G54D35*X51910Y129740D03*
G54D16*X48910Y204740D03*
X43000Y210000D03*
X69000Y204000D03*
X42500Y203500D03*
G54D35*X56910Y184740D03*
G54D16*X74957Y191957D03*
X74500Y178000D03*
X55000Y158000D03*
X279000Y202000D03*
X298000Y212000D03*
G54D35*X335500Y207000D03*
G54D16*X304500Y206000D03*
X342000Y227500D03*
X260000Y225000D03*
X335500Y225500D03*
X359500Y224500D03*
X363500Y228500D03*
X368000Y224500D03*
X355000Y228500D03*
X323000Y214500D03*
G54D35*X350500Y207000D03*
G54D16*X351000Y178500D03*
X325500Y169000D03*
X315500Y171000D03*
G54D35*Y181000D03*
G54D16*X317500Y166000D03*
X340000Y157500D03*
X337500Y165500D03*
G54D35*X334500Y108000D03*
G54D16*X351000Y144500D03*
X298500Y161000D03*
X299500Y140500D03*
G54D35*X303500Y119500D03*
X307000Y105500D03*
G54D16*X325000Y160000D03*
X320000Y142000D03*
X305500Y136000D03*
X315500Y152000D03*
X325000D03*
X316500Y159000D03*
X290000Y174500D03*
X269000Y159500D03*
X276500Y167500D03*
X254000Y130000D03*
X256500Y135000D03*
X231000Y153500D03*
X262000Y129500D03*
X253000Y158000D03*
X322000Y230500D03*
X305500D03*
X237000D03*
X262000Y202500D03*
X267500Y206500D03*
X272500Y219000D03*
X224500Y219500D03*
X244500Y205500D03*
X230500Y217500D03*
Y205500D03*
X239510Y96240D03*
G54D35*X118410Y89240D03*
X104410Y97240D03*
X168910Y94740D03*
G54D16*X141500Y83500D03*
X148000D03*
G54D35*X168910Y109740D03*
G54D16*X188000Y103000D03*
X196500Y134500D03*
X207500Y158500D03*
X217000Y162500D03*
X213500Y167000D03*
X224500Y170000D03*
X222000Y140500D03*
X231000Y145500D03*
X126000Y211000D03*
X141000D03*
X147500Y191500D03*
X110500Y200500D03*
Y195000D03*
G54D35*X205500Y184500D03*
X232500D03*
G54D16*X213500Y205500D03*
X217000Y210500D03*
X208500Y177000D03*
X114757Y167393D03*
X119000Y123000D03*
X113000Y119000D03*
X122630Y117130D03*
X155500Y118000D03*
X120410Y163740D03*
X124410Y159240D03*
X132910D03*
X113410Y160240D03*
X115410Y154240D03*
X128410Y163740D03*
X112316Y148646D03*
X117910Y137240D03*
X145000Y135000D03*
G54D12*G54D37*G54D12*G54D37*G54D12*G54D37*G54D12*G54D37*G54D17*G54D12*G54D37*G54D12*G54D37*G54D12*G54D17*G54D12*G54D37*G54D12*G54D37*G54D12*G54D37*G54D12*G54D37*G54D12*G54D37*G54D12*G54D37*G54D12*G54D37*G54D12*G54D37*G54D12*G54D37*G54D12*G54D37*G54D12*G54D37*G54D12*G54D37*G54D12*G54D38*G54D39*G54D40*G54D38*G54D39*G54D41*M02*
