M48
INCH
T121C0.020
T120C0.035
T119C0.115
T118C0.015
T117C0.030
T116C0.035
T115C0.109
%
T118
X025600Y009900
X026004Y009904
X026398Y009902
X026800Y009900
X027180Y009900
X027580Y009900
X027970Y009900
X028360Y009900
X028760Y009900
X029160Y009900
X025800Y012020
X026200Y012470
X026600Y012020
X027000Y012470
X027380Y012020
X027780Y012470
X028170Y012020
X028570Y012470
X028960Y012020
X029360Y012470
X029720Y012820
X030180Y013060
X025340Y015050
X025660Y016190
X025970Y015050
X026290Y016190
X026600Y015050
X026920Y016190
X027230Y015050
X027550Y016190
X027860Y015050
X028500Y014290
X029130Y014290
X029760Y014290
X028180Y016190
X028810Y016190
X029440Y016190
X028490Y015050
X029120Y015050
X029750Y015050
X028207Y036549
X028597Y036549
X028997Y036549
X029387Y036549
X029777Y036549
X030177Y036549
X030567Y036549
X030967Y036549
X031354Y036549
X031754Y036549
X031746Y030323
X031360Y030870
X030954Y030323
X030570Y030870
X030182Y030323
X029782Y030872
X029391Y030323
X028990Y030870
X028607Y030323
X028202Y030870
X029580Y033090
X029190Y033520
X028800Y033090
X028400Y033520
X028010Y033090
X031155Y033090
X030770Y033510
X031550Y033540
X030375Y033090
X029975Y033515
X020322Y032645
X022202Y032645
X021582Y032645
X020952Y032645
X021889Y032031
X021259Y032031
X020629Y032031
X020000Y032030
X020450Y036550
X020840Y036550
X021240Y036550
X021630Y036550
X022020Y036550
X022420Y036550
X022810Y036550
X023210Y036550
X020312Y030685
X022212Y030685
X021582Y030685
X020952Y030685
X021892Y030122
X020000Y030120
X021262Y030122
X020632Y030122
T121
X034700Y050950
X034250Y051400
X033850Y050950
X033450Y051400
X033300Y049900
X034200Y053900
X031800Y052100
X032885Y051765
X030200Y048350
X030400Y048950
X031000Y048950
X028300Y052850
X030250Y052850
X029600Y052850
X028950Y052850
X032950Y050450
X032750Y051050
X032641Y049891
X033200Y048750
X032650Y049100
X033300Y047900
X032628Y047922
T117
X050309Y022600
X052309Y022600
T120
X040000Y052450
X038000Y052450
X038300Y044500
X038300Y046000
X027450Y042950
X031850Y044750
X033250Y043950
X031950Y046100
X031250Y053750
X026600Y048000
X027100Y053500
X044050Y054350
X045750Y054200
X044250Y055200
X043050Y054000
X043350Y056300
X044900Y056250
X045100Y059700
X045974Y057774
X047550Y058300
X045100Y057700
X047200Y055250
X047900Y056300
X048700Y052800
X048700Y054150
X043650Y051400
T116
X024867Y031497
X019552Y031497
X024892Y013920
X030208Y013920
T115
X045520Y036110
X045520Y011110
X037520Y011110
X009520Y036110
X017520Y036110
X037520Y036110
X009520Y011110
X017520Y011110
T119
X018770Y012485
X016170Y012485
M30
