G04 start of page 5 for group 3 idx 3 *
G04 Title: (unknown), 4Sig *
G04 Creator: pcb 20110918 *
G04 CreationDate: Wed Oct  9 22:18:47 2013 UTC *
G04 For: fosse *
G04 Format: Gerber/RS-274X *
G04 PCB-Dimensions: 455000 500000 *
G04 PCB-Coordinate-Origin: lower left *
%MOIN*%
%FSLAX25Y25*%
%LNBOTTOM*%
%ADD80C,0.1090*%
%ADD79C,0.0300*%
%ADD78C,0.0380*%
%ADD77C,0.0350*%
%ADD76C,0.0200*%
%ADD75C,0.0360*%
%ADD74R,0.0551X0.0551*%
%ADD73R,0.0551X0.0551*%
%ADD72R,0.0354X0.0354*%
%ADD71R,0.0177X0.0177*%
%ADD70R,0.0197X0.0197*%
%ADD69R,0.0236X0.0236*%
%ADD68R,0.0236X0.0236*%
%ADD67C,0.2500*%
%ADD66C,0.0550*%
%ADD65C,0.0600*%
%ADD64C,0.0250*%
%ADD63C,0.0001*%
G54D63*G36*
X371794Y113850D02*X379368D01*
X383550Y109668D01*
Y83912D01*
X383442Y83846D01*
X382963Y83437D01*
X382554Y82958D01*
X382225Y82422D01*
X381984Y81840D01*
X381837Y81228D01*
X381788Y80600D01*
X381837Y79972D01*
X381984Y79360D01*
X382225Y78778D01*
X382554Y78242D01*
X382963Y77763D01*
X383442Y77354D01*
X383978Y77025D01*
X384560Y76784D01*
X385172Y76637D01*
X385800Y76588D01*
X386428Y76637D01*
X387040Y76784D01*
X387622Y77025D01*
X388158Y77354D01*
X388637Y77763D01*
X389046Y78242D01*
X389375Y78778D01*
X389616Y79360D01*
X389763Y79972D01*
X389800Y80600D01*
X389763Y81228D01*
X389616Y81840D01*
X389375Y82422D01*
X389046Y82958D01*
X388637Y83437D01*
X388158Y83846D01*
X388050Y83912D01*
Y110512D01*
X388057Y110600D01*
X388029Y110953D01*
X387946Y111297D01*
X387907Y111393D01*
X387811Y111625D01*
X387696Y111812D01*
X387626Y111927D01*
X387626Y111927D01*
X387396Y112196D01*
X387329Y112253D01*
X381953Y117629D01*
X381896Y117696D01*
X381627Y117926D01*
X381325Y118111D01*
X380997Y118246D01*
X380653Y118329D01*
X380653Y118329D01*
X380300Y118357D01*
X380212Y118350D01*
X371794D01*
Y127088D01*
X371800Y127088D01*
X372428Y127137D01*
X373040Y127284D01*
X373622Y127525D01*
X374158Y127854D01*
X374637Y128263D01*
X375046Y128742D01*
X375375Y129278D01*
X375616Y129860D01*
X375763Y130472D01*
X375800Y131100D01*
X375763Y131728D01*
X375616Y132340D01*
X375375Y132922D01*
X375046Y133458D01*
X374637Y133937D01*
X374158Y134346D01*
X373622Y134675D01*
X373040Y134916D01*
X372428Y135063D01*
X371800Y135112D01*
X371794Y135112D01*
Y135236D01*
X390689D01*
X390777Y135229D01*
X391130Y135257D01*
X391130Y135257D01*
X391474Y135340D01*
X391802Y135475D01*
X392013Y135604D01*
X392114Y135604D01*
X397550Y130168D01*
Y74212D01*
X393217Y69879D01*
X388159Y69874D01*
X388006Y69837D01*
X387861Y69777D01*
X387726Y69695D01*
X387607Y69592D01*
X387504Y69473D01*
X387422Y69338D01*
X387362Y69193D01*
X387325Y69040D01*
X387316Y68883D01*
X387317Y68489D01*
X387312Y68494D01*
X387177Y68576D01*
X387032Y68636D01*
X386879Y68673D01*
X386722Y68682D01*
X383021Y68673D01*
X382868Y68636D01*
X382723Y68576D01*
X382588Y68494D01*
X382469Y68391D01*
X382450Y68369D01*
X382431Y68391D01*
X382312Y68494D01*
X382177Y68576D01*
X382032Y68636D01*
X381879Y68673D01*
X381722Y68682D01*
X378021Y68673D01*
X377868Y68636D01*
X377723Y68576D01*
X377588Y68494D01*
X377469Y68391D01*
X377450Y68369D01*
X377431Y68391D01*
X377312Y68494D01*
X377177Y68576D01*
X377032Y68636D01*
X376879Y68673D01*
X376722Y68682D01*
X373021Y68673D01*
X372868Y68636D01*
X372723Y68576D01*
X372588Y68494D01*
X372469Y68391D01*
X372450Y68369D01*
X372431Y68391D01*
X372312Y68494D01*
X372177Y68576D01*
X372032Y68636D01*
X371879Y68673D01*
X371794Y68678D01*
Y113850D01*
G37*
G36*
Y118350D02*X359794D01*
Y127389D01*
X360122Y127525D01*
X360658Y127854D01*
X361137Y128263D01*
X361546Y128742D01*
X361875Y129278D01*
X362116Y129860D01*
X362263Y130472D01*
X362300Y131100D01*
X362263Y131728D01*
X362116Y132340D01*
X361875Y132922D01*
X361546Y133458D01*
X361137Y133937D01*
X360658Y134346D01*
X360122Y134675D01*
X359794Y134811D01*
Y135236D01*
X371794D01*
Y135112D01*
X371172Y135063D01*
X370560Y134916D01*
X369978Y134675D01*
X369442Y134346D01*
X368963Y133937D01*
X368554Y133458D01*
X368225Y132922D01*
X367984Y132340D01*
X367837Y131728D01*
X367788Y131100D01*
X367837Y130472D01*
X367984Y129860D01*
X368225Y129278D01*
X368554Y128742D01*
X368963Y128263D01*
X369442Y127854D01*
X369978Y127525D01*
X370560Y127284D01*
X371172Y127137D01*
X371794Y127088D01*
Y118350D01*
G37*
G36*
X359794Y82646D02*X359875Y82778D01*
X360116Y83360D01*
X360263Y83972D01*
X360300Y84600D01*
X360263Y85228D01*
X360233Y85351D01*
X364829Y89947D01*
X364896Y90004D01*
X365126Y90273D01*
X365126Y90273D01*
X365311Y90575D01*
X365446Y90903D01*
X365529Y91247D01*
X365557Y91600D01*
X365550Y91688D01*
Y105012D01*
X365557Y105100D01*
X365529Y105453D01*
X365446Y105797D01*
X365407Y105893D01*
X365311Y106125D01*
X365196Y106312D01*
X365126Y106427D01*
X365126Y106427D01*
X364896Y106696D01*
X364829Y106753D01*
X361879Y109703D01*
X361822Y109770D01*
X361553Y110000D01*
X361553Y110000D01*
X361438Y110070D01*
X361251Y110185D01*
X361019Y110281D01*
X360923Y110320D01*
X360579Y110403D01*
X360226Y110431D01*
X360138Y110424D01*
X359794D01*
Y113850D01*
X371794D01*
Y68678D01*
X371722Y68682D01*
X368021Y68673D01*
X367868Y68636D01*
X367723Y68576D01*
X367588Y68494D01*
X367469Y68391D01*
X367450Y68369D01*
X367431Y68391D01*
X367312Y68494D01*
X367177Y68576D01*
X367032Y68636D01*
X366879Y68673D01*
X366722Y68682D01*
X363021Y68673D01*
X362868Y68636D01*
X362723Y68576D01*
X362588Y68494D01*
X362469Y68391D01*
X362450Y68369D01*
X362431Y68391D01*
X362312Y68494D01*
X362177Y68576D01*
X362032Y68636D01*
X361879Y68673D01*
X361722Y68682D01*
X359794Y68677D01*
Y70588D01*
X359800Y70588D01*
X360428Y70637D01*
X361040Y70784D01*
X361622Y71025D01*
X362158Y71354D01*
X362637Y71763D01*
X363046Y72242D01*
X363375Y72778D01*
X363616Y73360D01*
X363763Y73972D01*
X363800Y74600D01*
X363763Y75228D01*
X363616Y75840D01*
X363375Y76422D01*
X363046Y76958D01*
X362637Y77437D01*
X362158Y77846D01*
X361622Y78175D01*
X361040Y78416D01*
X360428Y78563D01*
X359800Y78612D01*
X359794Y78612D01*
Y82646D01*
G37*
G36*
Y98131D02*X360158Y98354D01*
X360637Y98763D01*
X361046Y99242D01*
X361050Y99248D01*
Y92532D01*
X359794Y91276D01*
Y98131D01*
G37*
G36*
X409174Y314000D02*X416100D01*
Y202583D01*
X414135Y202580D01*
X413982Y202543D01*
X413837Y202483D01*
X413702Y202401D01*
X413583Y202298D01*
X413480Y202179D01*
X413398Y202044D01*
X413338Y201899D01*
X413301Y201746D01*
X413292Y201589D01*
X413301Y190605D01*
X413338Y190452D01*
X413398Y190307D01*
X413480Y190172D01*
X413583Y190053D01*
X413702Y189950D01*
X413837Y189868D01*
X413982Y189808D01*
X414135Y189771D01*
X414292Y189762D01*
X416100Y189765D01*
Y176008D01*
X414135Y176005D01*
X413982Y175968D01*
X413837Y175908D01*
X413702Y175826D01*
X413583Y175723D01*
X413480Y175604D01*
X413398Y175469D01*
X413338Y175324D01*
X413301Y175171D01*
X413292Y175014D01*
X413301Y164030D01*
X413338Y163877D01*
X413398Y163732D01*
X413480Y163597D01*
X413583Y163478D01*
X413702Y163375D01*
X413837Y163293D01*
X413982Y163233D01*
X414135Y163196D01*
X414292Y163187D01*
X416100Y163190D01*
Y28200D01*
X409174D01*
Y40938D01*
X409579Y41915D01*
X410075Y43982D01*
X410200Y46100D01*
X410075Y48218D01*
X409579Y50285D01*
X409174Y51262D01*
Y189767D01*
X412087Y189771D01*
X412240Y189808D01*
X412385Y189868D01*
X412520Y189950D01*
X412639Y190053D01*
X412742Y190172D01*
X412824Y190307D01*
X412884Y190452D01*
X412921Y190605D01*
X412930Y190762D01*
X412921Y201746D01*
X412884Y201899D01*
X412824Y202044D01*
X412742Y202179D01*
X412639Y202298D01*
X412520Y202401D01*
X412385Y202483D01*
X412240Y202543D01*
X412087Y202580D01*
X411930Y202589D01*
X409174Y202584D01*
Y290938D01*
X409579Y291915D01*
X410075Y293982D01*
X410200Y296100D01*
X410075Y298218D01*
X409579Y300285D01*
X409174Y301262D01*
Y314000D01*
G37*
G36*
Y51262D02*X408766Y52248D01*
X407655Y54060D01*
X406275Y55675D01*
X404660Y57055D01*
X403174Y57966D01*
Y163195D01*
X404213Y163196D01*
X404366Y163233D01*
X404511Y163293D01*
X404646Y163375D01*
X404765Y163478D01*
X404868Y163597D01*
X404950Y163732D01*
X405010Y163877D01*
X405047Y164030D01*
X405056Y164187D01*
X405047Y175171D01*
X405010Y175324D01*
X404950Y175469D01*
X404868Y175604D01*
X404765Y175723D01*
X404646Y175826D01*
X404511Y175908D01*
X404366Y175968D01*
X404213Y176005D01*
X404056Y176014D01*
X403174Y176013D01*
Y189770D01*
X404213Y189771D01*
X404366Y189808D01*
X404511Y189868D01*
X404646Y189950D01*
X404765Y190053D01*
X404868Y190172D01*
X404950Y190307D01*
X405010Y190452D01*
X405047Y190605D01*
X405056Y190762D01*
X405047Y201746D01*
X405010Y201899D01*
X404950Y202044D01*
X404868Y202179D01*
X404765Y202298D01*
X404646Y202401D01*
X404511Y202483D01*
X404366Y202543D01*
X404213Y202580D01*
X404056Y202589D01*
X403174Y202588D01*
Y219904D01*
X406087Y219908D01*
X406240Y219945D01*
X406385Y220005D01*
X406520Y220087D01*
X406639Y220190D01*
X406742Y220309D01*
X406824Y220444D01*
X406884Y220589D01*
X406921Y220742D01*
X406930Y220899D01*
X406921Y231883D01*
X406884Y232036D01*
X406824Y232181D01*
X406742Y232316D01*
X406639Y232435D01*
X406520Y232538D01*
X406385Y232620D01*
X406240Y232680D01*
X406087Y232717D01*
X405930Y232726D01*
X403174Y232721D01*
Y246479D01*
X406087Y246483D01*
X406240Y246520D01*
X406385Y246580D01*
X406520Y246662D01*
X406639Y246765D01*
X406742Y246884D01*
X406824Y247019D01*
X406884Y247164D01*
X406921Y247317D01*
X406930Y247474D01*
X406921Y258458D01*
X406884Y258611D01*
X406824Y258756D01*
X406742Y258891D01*
X406639Y259010D01*
X406520Y259113D01*
X406385Y259195D01*
X406240Y259255D01*
X406087Y259292D01*
X405930Y259301D01*
X403174Y259296D01*
Y284234D01*
X404660Y285145D01*
X406275Y286525D01*
X407655Y288140D01*
X408766Y289952D01*
X409174Y290938D01*
Y202584D01*
X406261Y202580D01*
X406108Y202543D01*
X405963Y202483D01*
X405828Y202401D01*
X405709Y202298D01*
X405606Y202179D01*
X405524Y202044D01*
X405464Y201899D01*
X405427Y201746D01*
X405418Y201589D01*
X405427Y190605D01*
X405464Y190452D01*
X405524Y190307D01*
X405606Y190172D01*
X405709Y190053D01*
X405828Y189950D01*
X405963Y189868D01*
X406108Y189808D01*
X406261Y189771D01*
X406418Y189762D01*
X409174Y189767D01*
Y51262D01*
G37*
G36*
Y28200D02*X403174D01*
Y34234D01*
X404660Y35145D01*
X406275Y36525D01*
X407655Y38140D01*
X408766Y39952D01*
X409174Y40938D01*
Y28200D01*
G37*
G36*
X403174Y314000D02*X409174D01*
Y301262D01*
X408766Y302248D01*
X407655Y304060D01*
X406275Y305675D01*
X404660Y307055D01*
X403174Y307966D01*
Y314000D01*
G37*
G36*
Y57966D02*X402848Y58166D01*
X400885Y58979D01*
X398818Y59475D01*
X396700Y59642D01*
X396679Y59640D01*
Y62380D01*
X397135Y62380D01*
X397288Y62417D01*
X397433Y62477D01*
X397568Y62559D01*
X397687Y62662D01*
X397790Y62781D01*
X397872Y62916D01*
X397932Y63061D01*
X397969Y63214D01*
X397978Y63371D01*
X397970Y68268D01*
X401329Y71627D01*
X401396Y71684D01*
X401626Y71953D01*
X401626Y71953D01*
X401811Y72255D01*
X401946Y72583D01*
X402029Y72927D01*
X402057Y73280D01*
X402050Y73368D01*
Y131012D01*
X402057Y131100D01*
X402029Y131453D01*
X402029Y131453D01*
X401946Y131797D01*
X401811Y132125D01*
X401626Y132427D01*
X401396Y132696D01*
X401329Y132753D01*
X397890Y136192D01*
X397931Y136291D01*
X397968Y136444D01*
X397977Y136601D01*
X397968Y142268D01*
X397931Y142421D01*
X397871Y142567D01*
X397789Y142701D01*
X397687Y142821D01*
X397567Y142923D01*
X397433Y143005D01*
X397287Y143065D01*
X397134Y143102D01*
X396977Y143112D01*
X396679Y143111D01*
Y246481D01*
X398213Y246483D01*
X398366Y246520D01*
X398511Y246580D01*
X398646Y246662D01*
X398765Y246765D01*
X398868Y246884D01*
X398950Y247019D01*
X399010Y247164D01*
X399047Y247317D01*
X399056Y247474D01*
X399047Y258458D01*
X399010Y258611D01*
X398950Y258756D01*
X398868Y258891D01*
X398765Y259010D01*
X398646Y259113D01*
X398511Y259195D01*
X398366Y259255D01*
X398213Y259292D01*
X398056Y259301D01*
X396679Y259299D01*
Y282560D01*
X396700Y282558D01*
X398818Y282725D01*
X400885Y283221D01*
X402848Y284034D01*
X403174Y284234D01*
Y259296D01*
X400261Y259292D01*
X400108Y259255D01*
X399963Y259195D01*
X399828Y259113D01*
X399709Y259010D01*
X399606Y258891D01*
X399524Y258756D01*
X399464Y258611D01*
X399427Y258458D01*
X399418Y258301D01*
X399427Y247317D01*
X399464Y247164D01*
X399524Y247019D01*
X399606Y246884D01*
X399709Y246765D01*
X399828Y246662D01*
X399963Y246580D01*
X400108Y246520D01*
X400261Y246483D01*
X400418Y246474D01*
X403174Y246479D01*
Y232721D01*
X400261Y232717D01*
X400108Y232680D01*
X399963Y232620D01*
X399828Y232538D01*
X399709Y232435D01*
X399606Y232316D01*
X399524Y232181D01*
X399464Y232036D01*
X399427Y231883D01*
X399418Y231726D01*
X399427Y220742D01*
X399464Y220589D01*
X399524Y220444D01*
X399606Y220309D01*
X399709Y220190D01*
X399828Y220087D01*
X399963Y220005D01*
X400108Y219945D01*
X400261Y219908D01*
X400418Y219899D01*
X403174Y219904D01*
Y202588D01*
X398387Y202580D01*
X398234Y202543D01*
X398089Y202483D01*
X397954Y202401D01*
X397835Y202298D01*
X397732Y202179D01*
X397650Y202044D01*
X397590Y201899D01*
X397553Y201746D01*
X397544Y201589D01*
X397553Y190605D01*
X397590Y190452D01*
X397650Y190307D01*
X397732Y190172D01*
X397835Y190053D01*
X397954Y189950D01*
X398089Y189868D01*
X398234Y189808D01*
X398387Y189771D01*
X398544Y189762D01*
X403174Y189770D01*
Y176013D01*
X398387Y176005D01*
X398234Y175968D01*
X398089Y175908D01*
X397954Y175826D01*
X397835Y175723D01*
X397732Y175604D01*
X397650Y175469D01*
X397590Y175324D01*
X397553Y175171D01*
X397544Y175014D01*
X397553Y164030D01*
X397590Y163877D01*
X397650Y163732D01*
X397732Y163597D01*
X397835Y163478D01*
X397954Y163375D01*
X398089Y163293D01*
X398234Y163233D01*
X398387Y163196D01*
X398544Y163187D01*
X403174Y163195D01*
Y57966D01*
G37*
G36*
Y28200D02*X396679D01*
Y32560D01*
X396700Y32558D01*
X398818Y32725D01*
X400885Y33221D01*
X402848Y34034D01*
X403174Y34234D01*
Y28200D01*
G37*
G36*
X396679Y314000D02*X403174D01*
Y307966D01*
X402848Y308166D01*
X400885Y308979D01*
X398818Y309475D01*
X396700Y309642D01*
X396679Y309640D01*
Y314000D01*
G37*
G36*
Y28200D02*X365760D01*
Y38979D01*
X368673Y38983D01*
X368826Y39020D01*
X368971Y39080D01*
X369106Y39162D01*
X369225Y39265D01*
X369328Y39384D01*
X369410Y39519D01*
X369470Y39664D01*
X369507Y39817D01*
X369516Y39974D01*
X369507Y50958D01*
X369470Y51111D01*
X369410Y51256D01*
X369328Y51391D01*
X369225Y51510D01*
X369106Y51613D01*
X368971Y51695D01*
X368826Y51755D01*
X368673Y51792D01*
X368516Y51801D01*
X365760Y51796D01*
Y62397D01*
X366879Y62400D01*
X367032Y62437D01*
X367177Y62497D01*
X367312Y62579D01*
X367431Y62682D01*
X367450Y62704D01*
X367469Y62682D01*
X367588Y62579D01*
X367723Y62497D01*
X367868Y62437D01*
X368021Y62400D01*
X368178Y62391D01*
X371879Y62400D01*
X372032Y62437D01*
X372177Y62497D01*
X372312Y62579D01*
X372431Y62682D01*
X372450Y62704D01*
X372469Y62682D01*
X372588Y62579D01*
X372723Y62497D01*
X372868Y62437D01*
X373021Y62400D01*
X373178Y62391D01*
X376879Y62400D01*
X377032Y62437D01*
X377177Y62497D01*
X377312Y62579D01*
X377431Y62682D01*
X377450Y62704D01*
X377469Y62682D01*
X377588Y62579D01*
X377723Y62497D01*
X377868Y62437D01*
X378021Y62400D01*
X378178Y62391D01*
X381879Y62400D01*
X382032Y62437D01*
X382177Y62497D01*
X382312Y62579D01*
X382431Y62682D01*
X382450Y62704D01*
X382469Y62682D01*
X382588Y62579D01*
X382723Y62497D01*
X382868Y62437D01*
X383021Y62400D01*
X383178Y62391D01*
X386879Y62400D01*
X387032Y62437D01*
X387177Y62497D01*
X387312Y62579D01*
X387431Y62682D01*
X387510Y62774D01*
X387607Y62662D01*
X387726Y62559D01*
X387861Y62477D01*
X388006Y62417D01*
X388159Y62380D01*
X388316Y62371D01*
X396679Y62380D01*
Y59640D01*
X394582Y59475D01*
X392515Y58979D01*
X390552Y58166D01*
X388740Y57055D01*
X387125Y55675D01*
X385745Y54060D01*
X384634Y52248D01*
X383821Y50285D01*
X383325Y48218D01*
X383158Y46100D01*
X383325Y43982D01*
X383821Y41915D01*
X384634Y39952D01*
X385745Y38140D01*
X387125Y36525D01*
X388740Y35145D01*
X390552Y34034D01*
X392515Y33221D01*
X394582Y32725D01*
X396679Y32560D01*
Y28200D01*
G37*
G36*
X365760D02*X359794D01*
Y38982D01*
X360799Y38983D01*
X360952Y39020D01*
X361097Y39080D01*
X361232Y39162D01*
X361351Y39265D01*
X361454Y39384D01*
X361536Y39519D01*
X361596Y39664D01*
X361633Y39817D01*
X361642Y39974D01*
X361633Y50958D01*
X361596Y51111D01*
X361536Y51256D01*
X361454Y51391D01*
X361351Y51510D01*
X361232Y51613D01*
X361097Y51695D01*
X360952Y51755D01*
X360799Y51792D01*
X360642Y51801D01*
X359794Y51800D01*
Y62395D01*
X361879Y62400D01*
X362032Y62437D01*
X362177Y62497D01*
X362312Y62579D01*
X362431Y62682D01*
X362450Y62704D01*
X362469Y62682D01*
X362588Y62579D01*
X362723Y62497D01*
X362868Y62437D01*
X363021Y62400D01*
X363178Y62391D01*
X365760Y62397D01*
Y51796D01*
X362847Y51792D01*
X362694Y51755D01*
X362549Y51695D01*
X362414Y51613D01*
X362295Y51510D01*
X362192Y51391D01*
X362110Y51256D01*
X362050Y51111D01*
X362013Y50958D01*
X362004Y50801D01*
X362013Y39817D01*
X362050Y39664D01*
X362110Y39519D01*
X362192Y39384D01*
X362295Y39265D01*
X362414Y39162D01*
X362549Y39080D01*
X362694Y39020D01*
X362847Y38983D01*
X363004Y38974D01*
X365760Y38979D01*
Y28200D01*
G37*
G36*
X387426Y286267D02*X388740Y285145D01*
X390552Y284034D01*
X392515Y283221D01*
X394582Y282725D01*
X396679Y282560D01*
Y259299D01*
X392387Y259292D01*
X392234Y259255D01*
X392089Y259195D01*
X391954Y259113D01*
X391835Y259010D01*
X391732Y258891D01*
X391650Y258756D01*
X391590Y258611D01*
X391553Y258458D01*
X391544Y258301D01*
X391553Y247317D01*
X391590Y247164D01*
X391650Y247019D01*
X391732Y246884D01*
X391835Y246765D01*
X391954Y246662D01*
X392089Y246580D01*
X392234Y246520D01*
X392387Y246483D01*
X392544Y246474D01*
X396679Y246481D01*
Y143111D01*
X388160Y143102D01*
X388007Y143065D01*
X387861Y143005D01*
X387727Y142923D01*
X387607Y142821D01*
X387505Y142701D01*
X387426Y142572D01*
Y219904D01*
X390339Y219908D01*
X390492Y219945D01*
X390637Y220005D01*
X390772Y220087D01*
X390891Y220190D01*
X390994Y220309D01*
X391076Y220444D01*
X391136Y220589D01*
X391173Y220742D01*
X391182Y220899D01*
X391173Y231883D01*
X391136Y232036D01*
X391076Y232181D01*
X390994Y232316D01*
X390891Y232435D01*
X390772Y232538D01*
X390637Y232620D01*
X390492Y232680D01*
X390339Y232717D01*
X390182Y232726D01*
X387426Y232721D01*
Y246479D01*
X390339Y246483D01*
X390492Y246520D01*
X390637Y246580D01*
X390772Y246662D01*
X390891Y246765D01*
X390994Y246884D01*
X391076Y247019D01*
X391136Y247164D01*
X391173Y247317D01*
X391182Y247474D01*
X391173Y258458D01*
X391136Y258611D01*
X391076Y258756D01*
X390994Y258891D01*
X390891Y259010D01*
X390772Y259113D01*
X390637Y259195D01*
X390492Y259255D01*
X390339Y259292D01*
X390182Y259301D01*
X387426Y259296D01*
Y286267D01*
G37*
G36*
Y314000D02*X396679D01*
Y309640D01*
X394582Y309475D01*
X392515Y308979D01*
X390552Y308166D01*
X388740Y307055D01*
X387426Y305933D01*
Y314000D01*
G37*
G36*
X369300D02*X387426D01*
Y305933D01*
X387125Y305675D01*
X385745Y304060D01*
X384634Y302248D01*
X383821Y300285D01*
X383325Y298218D01*
X383158Y296100D01*
X383325Y293982D01*
X383821Y291915D01*
X384634Y289952D01*
X385745Y288140D01*
X387125Y286525D01*
X387426Y286267D01*
Y259296D01*
X384513Y259292D01*
X384360Y259255D01*
X384215Y259195D01*
X384080Y259113D01*
X383961Y259010D01*
X383858Y258891D01*
X383776Y258756D01*
X383716Y258611D01*
X383679Y258458D01*
X383670Y258301D01*
X383679Y247317D01*
X383716Y247164D01*
X383776Y247019D01*
X383858Y246884D01*
X383961Y246765D01*
X384080Y246662D01*
X384215Y246580D01*
X384360Y246520D01*
X384513Y246483D01*
X384670Y246474D01*
X387426Y246479D01*
Y232721D01*
X384513Y232717D01*
X384360Y232680D01*
X384215Y232620D01*
X384080Y232538D01*
X383961Y232435D01*
X383858Y232316D01*
X383776Y232181D01*
X383716Y232036D01*
X383679Y231883D01*
X383670Y231726D01*
X383679Y220742D01*
X383716Y220589D01*
X383776Y220444D01*
X383858Y220309D01*
X383961Y220190D01*
X384080Y220087D01*
X384215Y220005D01*
X384360Y219945D01*
X384513Y219908D01*
X384670Y219899D01*
X387426Y219904D01*
Y142572D01*
X387423Y142567D01*
X387363Y142421D01*
X387326Y142268D01*
X387316Y142112D01*
X387320Y139736D01*
X369300D01*
Y174692D01*
X372213Y174696D01*
X372366Y174733D01*
X372511Y174793D01*
X372646Y174875D01*
X372765Y174978D01*
X372868Y175097D01*
X372950Y175232D01*
X373010Y175377D01*
X373047Y175530D01*
X373056Y175687D01*
X373047Y186671D01*
X373010Y186824D01*
X372950Y186969D01*
X372868Y187104D01*
X372765Y187223D01*
X372646Y187326D01*
X372511Y187408D01*
X372366Y187468D01*
X372213Y187505D01*
X372056Y187514D01*
X369300Y187509D01*
Y201267D01*
X372213Y201271D01*
X372366Y201308D01*
X372511Y201368D01*
X372646Y201450D01*
X372765Y201553D01*
X372868Y201672D01*
X372950Y201807D01*
X373010Y201952D01*
X373047Y202105D01*
X373056Y202262D01*
X373047Y213246D01*
X373010Y213399D01*
X372950Y213544D01*
X372868Y213679D01*
X372765Y213798D01*
X372646Y213901D01*
X372511Y213983D01*
X372366Y214043D01*
X372213Y214080D01*
X372056Y214089D01*
X369300Y214084D01*
Y219904D01*
X372087Y219908D01*
X372240Y219945D01*
X372385Y220005D01*
X372520Y220087D01*
X372639Y220190D01*
X372742Y220309D01*
X372824Y220444D01*
X372884Y220589D01*
X372921Y220742D01*
X372930Y220899D01*
X372921Y231883D01*
X372884Y232036D01*
X372824Y232181D01*
X372742Y232316D01*
X372639Y232435D01*
X372520Y232538D01*
X372385Y232620D01*
X372240Y232680D01*
X372087Y232717D01*
X371930Y232726D01*
X369300Y232722D01*
Y246479D01*
X372087Y246483D01*
X372240Y246520D01*
X372385Y246580D01*
X372520Y246662D01*
X372639Y246765D01*
X372742Y246884D01*
X372824Y247019D01*
X372884Y247164D01*
X372921Y247317D01*
X372930Y247474D01*
X372921Y258458D01*
X372884Y258611D01*
X372824Y258756D01*
X372742Y258891D01*
X372639Y259010D01*
X372520Y259113D01*
X372385Y259195D01*
X372240Y259255D01*
X372087Y259292D01*
X371930Y259301D01*
X369300Y259297D01*
Y266192D01*
X371713Y266196D01*
X371866Y266233D01*
X372011Y266293D01*
X372146Y266375D01*
X372265Y266478D01*
X372368Y266597D01*
X372450Y266732D01*
X372510Y266877D01*
X372547Y267030D01*
X372556Y267187D01*
X372547Y278171D01*
X372510Y278324D01*
X372450Y278469D01*
X372368Y278604D01*
X372265Y278723D01*
X372146Y278826D01*
X372011Y278908D01*
X371866Y278968D01*
X371713Y279005D01*
X371556Y279014D01*
X369300Y279010D01*
Y292767D01*
X371713Y292771D01*
X371866Y292808D01*
X372011Y292868D01*
X372146Y292950D01*
X372265Y293053D01*
X372368Y293172D01*
X372450Y293307D01*
X372510Y293452D01*
X372547Y293605D01*
X372556Y293762D01*
X372547Y304746D01*
X372510Y304899D01*
X372450Y305044D01*
X372368Y305179D01*
X372265Y305298D01*
X372146Y305401D01*
X372011Y305483D01*
X371866Y305543D01*
X371713Y305580D01*
X371556Y305589D01*
X369300Y305585D01*
Y314000D01*
G37*
G36*
X359794D02*X369300D01*
Y305585D01*
X365887Y305580D01*
X365734Y305543D01*
X365589Y305483D01*
X365454Y305401D01*
X365335Y305298D01*
X365232Y305179D01*
X365150Y305044D01*
X365090Y304899D01*
X365053Y304746D01*
X365044Y304589D01*
X365053Y293605D01*
X365090Y293452D01*
X365150Y293307D01*
X365232Y293172D01*
X365335Y293053D01*
X365454Y292950D01*
X365589Y292868D01*
X365734Y292808D01*
X365887Y292771D01*
X366044Y292762D01*
X369300Y292767D01*
Y279010D01*
X365887Y279005D01*
X365734Y278968D01*
X365589Y278908D01*
X365454Y278826D01*
X365335Y278723D01*
X365232Y278604D01*
X365150Y278469D01*
X365090Y278324D01*
X365053Y278171D01*
X365044Y278014D01*
X365053Y267030D01*
X365090Y266877D01*
X365150Y266732D01*
X365232Y266597D01*
X365335Y266478D01*
X365454Y266375D01*
X365589Y266293D01*
X365734Y266233D01*
X365887Y266196D01*
X366044Y266187D01*
X369300Y266192D01*
Y259297D01*
X366261Y259292D01*
X366108Y259255D01*
X365963Y259195D01*
X365828Y259113D01*
X365709Y259010D01*
X365606Y258891D01*
X365524Y258756D01*
X365464Y258611D01*
X365427Y258458D01*
X365418Y258301D01*
X365427Y247317D01*
X365464Y247164D01*
X365524Y247019D01*
X365606Y246884D01*
X365709Y246765D01*
X365828Y246662D01*
X365963Y246580D01*
X366108Y246520D01*
X366261Y246483D01*
X366418Y246474D01*
X369300Y246479D01*
Y232722D01*
X366261Y232717D01*
X366108Y232680D01*
X365963Y232620D01*
X365828Y232538D01*
X365709Y232435D01*
X365606Y232316D01*
X365524Y232181D01*
X365464Y232036D01*
X365427Y231883D01*
X365418Y231726D01*
X365427Y220742D01*
X365464Y220589D01*
X365524Y220444D01*
X365606Y220309D01*
X365709Y220190D01*
X365828Y220087D01*
X365963Y220005D01*
X366108Y219945D01*
X366261Y219908D01*
X366418Y219899D01*
X369300Y219904D01*
Y214084D01*
X366387Y214080D01*
X366234Y214043D01*
X366089Y213983D01*
X365954Y213901D01*
X365835Y213798D01*
X365732Y213679D01*
X365650Y213544D01*
X365590Y213399D01*
X365553Y213246D01*
X365544Y213089D01*
X365553Y202105D01*
X365590Y201952D01*
X365650Y201807D01*
X365732Y201672D01*
X365835Y201553D01*
X365954Y201450D01*
X366089Y201368D01*
X366234Y201308D01*
X366387Y201271D01*
X366544Y201262D01*
X369300Y201267D01*
Y187509D01*
X366387Y187505D01*
X366234Y187468D01*
X366089Y187408D01*
X365954Y187326D01*
X365835Y187223D01*
X365732Y187104D01*
X365650Y186969D01*
X365590Y186824D01*
X365553Y186671D01*
X365544Y186514D01*
X365553Y175530D01*
X365590Y175377D01*
X365650Y175232D01*
X365732Y175097D01*
X365835Y174978D01*
X365954Y174875D01*
X366089Y174793D01*
X366234Y174733D01*
X366387Y174696D01*
X366544Y174687D01*
X369300Y174692D01*
Y139736D01*
X359794D01*
Y201264D01*
X364339Y201271D01*
X364492Y201308D01*
X364637Y201368D01*
X364772Y201450D01*
X364891Y201553D01*
X364994Y201672D01*
X365076Y201807D01*
X365136Y201952D01*
X365173Y202105D01*
X365182Y202262D01*
X365173Y213246D01*
X365136Y213399D01*
X365076Y213544D01*
X364994Y213679D01*
X364891Y213798D01*
X364772Y213901D01*
X364637Y213983D01*
X364492Y214043D01*
X364339Y214080D01*
X364182Y214089D01*
X359794Y214082D01*
Y246476D01*
X364213Y246483D01*
X364366Y246520D01*
X364511Y246580D01*
X364646Y246662D01*
X364765Y246765D01*
X364868Y246884D01*
X364950Y247019D01*
X365010Y247164D01*
X365047Y247317D01*
X365056Y247474D01*
X365047Y258458D01*
X365010Y258611D01*
X364950Y258756D01*
X364868Y258891D01*
X364765Y259010D01*
X364646Y259113D01*
X364511Y259195D01*
X364366Y259255D01*
X364213Y259292D01*
X364056Y259301D01*
X359794Y259294D01*
Y292765D01*
X363839Y292771D01*
X363992Y292808D01*
X364137Y292868D01*
X364272Y292950D01*
X364391Y293053D01*
X364494Y293172D01*
X364576Y293307D01*
X364636Y293452D01*
X364673Y293605D01*
X364682Y293762D01*
X364673Y304746D01*
X364636Y304899D01*
X364576Y305044D01*
X364494Y305179D01*
X364391Y305298D01*
X364272Y305401D01*
X364137Y305483D01*
X363992Y305543D01*
X363839Y305580D01*
X363682Y305589D01*
X359794Y305583D01*
Y314000D01*
G37*
G36*
Y118350D02*X351294D01*
Y135236D01*
X359794D01*
Y134811D01*
X359540Y134916D01*
X358928Y135063D01*
X358300Y135112D01*
X357672Y135063D01*
X357060Y134916D01*
X356478Y134675D01*
X355942Y134346D01*
X355463Y133937D01*
X355054Y133458D01*
X354725Y132922D01*
X354484Y132340D01*
X354337Y131728D01*
X354288Y131100D01*
X354337Y130472D01*
X354484Y129860D01*
X354725Y129278D01*
X355054Y128742D01*
X355463Y128263D01*
X355942Y127854D01*
X356478Y127525D01*
X357060Y127284D01*
X357672Y127137D01*
X358300Y127088D01*
X358928Y127137D01*
X359540Y127284D01*
X359794Y127389D01*
Y118350D01*
G37*
G36*
Y110424D02*X351294D01*
Y113850D01*
X359794D01*
Y110424D01*
G37*
G36*
Y28200D02*X351294D01*
Y38981D01*
X352925Y38983D01*
X353078Y39020D01*
X353223Y39080D01*
X353358Y39162D01*
X353477Y39265D01*
X353580Y39384D01*
X353662Y39519D01*
X353722Y39664D01*
X353759Y39817D01*
X353768Y39974D01*
X353759Y50958D01*
X353722Y51111D01*
X353662Y51256D01*
X353580Y51391D01*
X353477Y51510D01*
X353358Y51613D01*
X353223Y51695D01*
X353078Y51755D01*
X352925Y51792D01*
X352768Y51801D01*
X351294Y51799D01*
Y84646D01*
X351375Y84778D01*
X351616Y85360D01*
X351763Y85972D01*
X351800Y86600D01*
X351763Y87228D01*
X351616Y87840D01*
X351375Y88422D01*
X351294Y88554D01*
Y97263D01*
X355625D01*
X355713Y97256D01*
X356066Y97284D01*
X356066Y97284D01*
X356410Y97367D01*
X356738Y97502D01*
X357018Y97674D01*
X357172Y97637D01*
X357800Y97588D01*
X358428Y97637D01*
X359040Y97784D01*
X359622Y98025D01*
X359794Y98131D01*
Y91276D01*
X357051Y88533D01*
X356928Y88563D01*
X356300Y88612D01*
X355672Y88563D01*
X355060Y88416D01*
X354478Y88175D01*
X353942Y87846D01*
X353463Y87437D01*
X353054Y86958D01*
X352725Y86422D01*
X352484Y85840D01*
X352337Y85228D01*
X352288Y84600D01*
X352337Y83972D01*
X352484Y83360D01*
X352725Y82778D01*
X353054Y82242D01*
X353463Y81763D01*
X353942Y81354D01*
X354478Y81025D01*
X355060Y80784D01*
X355672Y80637D01*
X356300Y80588D01*
X356928Y80637D01*
X357540Y80784D01*
X358122Y81025D01*
X358658Y81354D01*
X359137Y81763D01*
X359546Y82242D01*
X359794Y82646D01*
Y78612D01*
X359172Y78563D01*
X358560Y78416D01*
X357978Y78175D01*
X357442Y77846D01*
X356963Y77437D01*
X356554Y76958D01*
X356225Y76422D01*
X355984Y75840D01*
X355837Y75228D01*
X355788Y74600D01*
X355837Y73972D01*
X355984Y73360D01*
X356225Y72778D01*
X356554Y72242D01*
X356963Y71763D01*
X357442Y71354D01*
X357978Y71025D01*
X358560Y70784D01*
X359172Y70637D01*
X359794Y70588D01*
Y68677D01*
X358021Y68673D01*
X357868Y68636D01*
X357723Y68576D01*
X357588Y68494D01*
X357469Y68391D01*
X357366Y68272D01*
X357284Y68137D01*
X357224Y67992D01*
X357187Y67839D01*
X357178Y67682D01*
X357187Y63234D01*
X357224Y63081D01*
X357284Y62936D01*
X357366Y62801D01*
X357469Y62682D01*
X357588Y62579D01*
X357723Y62497D01*
X357868Y62437D01*
X358021Y62400D01*
X358178Y62391D01*
X359794Y62395D01*
Y51800D01*
X354973Y51792D01*
X354820Y51755D01*
X354675Y51695D01*
X354540Y51613D01*
X354421Y51510D01*
X354318Y51391D01*
X354236Y51256D01*
X354176Y51111D01*
X354139Y50958D01*
X354130Y50801D01*
X354139Y39817D01*
X354176Y39664D01*
X354236Y39519D01*
X354318Y39384D01*
X354421Y39265D01*
X354540Y39162D01*
X354675Y39080D01*
X354820Y39020D01*
X354973Y38983D01*
X355130Y38974D01*
X359794Y38982D01*
Y28200D01*
G37*
G36*
X351294Y314000D02*X359794D01*
Y305583D01*
X358013Y305580D01*
X357860Y305543D01*
X357715Y305483D01*
X357580Y305401D01*
X357461Y305298D01*
X357358Y305179D01*
X357276Y305044D01*
X357216Y304899D01*
X357179Y304746D01*
X357170Y304589D01*
X357179Y293605D01*
X357216Y293452D01*
X357276Y293307D01*
X357358Y293172D01*
X357461Y293053D01*
X357580Y292950D01*
X357715Y292868D01*
X357860Y292808D01*
X358013Y292771D01*
X358170Y292762D01*
X359794Y292765D01*
Y259294D01*
X358387Y259292D01*
X358234Y259255D01*
X358089Y259195D01*
X357954Y259113D01*
X357835Y259010D01*
X357732Y258891D01*
X357650Y258756D01*
X357590Y258611D01*
X357553Y258458D01*
X357544Y258301D01*
X357553Y247317D01*
X357590Y247164D01*
X357650Y247019D01*
X357732Y246884D01*
X357835Y246765D01*
X357954Y246662D01*
X358089Y246580D01*
X358234Y246520D01*
X358387Y246483D01*
X358544Y246474D01*
X359794Y246476D01*
Y214082D01*
X358513Y214080D01*
X358360Y214043D01*
X358215Y213983D01*
X358080Y213901D01*
X357961Y213798D01*
X357858Y213679D01*
X357776Y213544D01*
X357716Y213399D01*
X357679Y213246D01*
X357670Y213089D01*
X357679Y202105D01*
X357716Y201952D01*
X357776Y201807D01*
X357858Y201672D01*
X357961Y201553D01*
X358080Y201450D01*
X358215Y201368D01*
X358360Y201308D01*
X358513Y201271D01*
X358670Y201262D01*
X359794Y201264D01*
Y139736D01*
X351294D01*
Y174688D01*
X356465Y174696D01*
X356618Y174733D01*
X356763Y174793D01*
X356898Y174875D01*
X357017Y174978D01*
X357120Y175097D01*
X357202Y175232D01*
X357262Y175377D01*
X357299Y175530D01*
X357308Y175687D01*
X357299Y186671D01*
X357262Y186824D01*
X357202Y186969D01*
X357120Y187104D01*
X357017Y187223D01*
X356898Y187326D01*
X356763Y187408D01*
X356618Y187468D01*
X356465Y187505D01*
X356308Y187514D01*
X351294Y187506D01*
Y201263D01*
X356465Y201271D01*
X356618Y201308D01*
X356763Y201368D01*
X356898Y201450D01*
X357017Y201553D01*
X357120Y201672D01*
X357202Y201807D01*
X357262Y201952D01*
X357299Y202105D01*
X357308Y202262D01*
X357299Y213246D01*
X357262Y213399D01*
X357202Y213544D01*
X357120Y213679D01*
X357017Y213798D01*
X356898Y213901D01*
X356763Y213983D01*
X356618Y214043D01*
X356465Y214080D01*
X356308Y214089D01*
X351294Y214081D01*
Y219900D01*
X356339Y219908D01*
X356492Y219945D01*
X356637Y220005D01*
X356772Y220087D01*
X356891Y220190D01*
X356994Y220309D01*
X357076Y220444D01*
X357136Y220589D01*
X357173Y220742D01*
X357182Y220899D01*
X357173Y231883D01*
X357136Y232036D01*
X357076Y232181D01*
X356994Y232316D01*
X356891Y232435D01*
X356772Y232538D01*
X356637Y232620D01*
X356492Y232680D01*
X356339Y232717D01*
X356182Y232726D01*
X351294Y232718D01*
Y246475D01*
X356339Y246483D01*
X356492Y246520D01*
X356637Y246580D01*
X356772Y246662D01*
X356891Y246765D01*
X356994Y246884D01*
X357076Y247019D01*
X357136Y247164D01*
X357173Y247317D01*
X357182Y247474D01*
X357173Y258458D01*
X357136Y258611D01*
X357076Y258756D01*
X356994Y258891D01*
X356891Y259010D01*
X356772Y259113D01*
X356637Y259195D01*
X356492Y259255D01*
X356339Y259292D01*
X356182Y259301D01*
X351294Y259293D01*
Y266189D01*
X355965Y266196D01*
X356118Y266233D01*
X356263Y266293D01*
X356398Y266375D01*
X356517Y266478D01*
X356620Y266597D01*
X356702Y266732D01*
X356762Y266877D01*
X356799Y267030D01*
X356808Y267187D01*
X356799Y278171D01*
X356762Y278324D01*
X356702Y278469D01*
X356620Y278604D01*
X356517Y278723D01*
X356398Y278826D01*
X356263Y278908D01*
X356118Y278968D01*
X355965Y279005D01*
X355808Y279014D01*
X351294Y279007D01*
Y292764D01*
X355965Y292771D01*
X356118Y292808D01*
X356263Y292868D01*
X356398Y292950D01*
X356517Y293053D01*
X356620Y293172D01*
X356702Y293307D01*
X356762Y293452D01*
X356799Y293605D01*
X356808Y293762D01*
X356799Y304746D01*
X356762Y304899D01*
X356702Y305044D01*
X356620Y305179D01*
X356517Y305298D01*
X356398Y305401D01*
X356263Y305483D01*
X356118Y305543D01*
X355965Y305580D01*
X355808Y305589D01*
X351294Y305582D01*
Y314000D01*
G37*
G36*
Y110424D02*X331846D01*
X331861Y110430D01*
X331996Y110512D01*
X332115Y110615D01*
X332218Y110734D01*
X332300Y110869D01*
X332360Y111014D01*
X332397Y111167D01*
X332406Y111324D01*
X332398Y113602D01*
X344173D01*
X344463Y113263D01*
X344942Y112854D01*
X345478Y112525D01*
X346060Y112284D01*
X346672Y112137D01*
X347300Y112088D01*
X347928Y112137D01*
X348540Y112284D01*
X349122Y112525D01*
X349658Y112854D01*
X350137Y113263D01*
X350546Y113742D01*
X350612Y113850D01*
X351294D01*
Y110424D01*
G37*
G36*
Y88554D02*X351046Y88958D01*
X350637Y89437D01*
X350158Y89846D01*
X349622Y90175D01*
X349040Y90416D01*
X348428Y90563D01*
X347800Y90612D01*
X347172Y90563D01*
X346560Y90416D01*
X345978Y90175D01*
X345442Y89846D01*
X344963Y89437D01*
X344554Y88958D01*
X344439Y88771D01*
X337294D01*
Y89088D01*
X337300Y89088D01*
X337928Y89137D01*
X338540Y89284D01*
X339122Y89525D01*
X339658Y89854D01*
X340137Y90263D01*
X340546Y90742D01*
X340875Y91278D01*
X341116Y91860D01*
X341263Y92472D01*
X341300Y93100D01*
X341263Y93728D01*
X341116Y94340D01*
X340875Y94922D01*
X340546Y95458D01*
X340137Y95937D01*
X339658Y96346D01*
X339122Y96675D01*
X338540Y96916D01*
X337928Y97063D01*
X337300Y97112D01*
X337294Y97112D01*
Y97263D01*
X351294D01*
Y88554D01*
G37*
G36*
X337294Y88771D02*X331847D01*
X331861Y88777D01*
X331995Y88859D01*
X332115Y88961D01*
X332217Y89081D01*
X332299Y89215D01*
X332359Y89361D01*
X332396Y89514D01*
X332405Y89671D01*
X332396Y92190D01*
X332359Y92343D01*
X332299Y92489D01*
X332217Y92623D01*
X332115Y92743D01*
X331995Y92845D01*
X331861Y92927D01*
X331715Y92987D01*
X331592Y93017D01*
X331716Y93047D01*
X331861Y93107D01*
X331996Y93189D01*
X332115Y93292D01*
X332218Y93411D01*
X332300Y93546D01*
X332360Y93691D01*
X332397Y93844D01*
X332406Y94001D01*
X332397Y96520D01*
X332360Y96673D01*
X332300Y96818D01*
X332218Y96953D01*
X332115Y97072D01*
X331996Y97175D01*
X331861Y97257D01*
X331846Y97263D01*
X337294D01*
Y97112D01*
X336672Y97063D01*
X336060Y96916D01*
X335478Y96675D01*
X334942Y96346D01*
X334463Y95937D01*
X334054Y95458D01*
X333725Y94922D01*
X333484Y94340D01*
X333337Y93728D01*
X333288Y93100D01*
X333337Y92472D01*
X333484Y91860D01*
X333725Y91278D01*
X334054Y90742D01*
X334463Y90263D01*
X334942Y89854D01*
X335478Y89525D01*
X336060Y89284D01*
X336672Y89137D01*
X337294Y89088D01*
Y88771D01*
G37*
G36*
X336794Y65412D02*X338329Y66947D01*
X338396Y67004D01*
X338626Y67273D01*
X338626Y67273D01*
X338811Y67575D01*
X338946Y67903D01*
X339029Y68247D01*
X339057Y68600D01*
X339050Y68688D01*
Y74288D01*
X339158Y74354D01*
X339637Y74763D01*
X340046Y75242D01*
X340375Y75778D01*
X340616Y76360D01*
X340763Y76972D01*
X340800Y77600D01*
X340763Y78228D01*
X340616Y78840D01*
X340375Y79422D01*
X340046Y79958D01*
X339637Y80437D01*
X339158Y80846D01*
X338622Y81175D01*
X338040Y81416D01*
X337428Y81563D01*
X336800Y81612D01*
X336794Y81612D01*
Y84271D01*
X344536D01*
X344554Y84242D01*
X344963Y83763D01*
X345442Y83354D01*
X345978Y83025D01*
X346560Y82784D01*
X347172Y82637D01*
X347800Y82588D01*
X348428Y82637D01*
X349040Y82784D01*
X349622Y83025D01*
X350158Y83354D01*
X350637Y83763D01*
X351046Y84242D01*
X351294Y84646D01*
Y51799D01*
X347099Y51792D01*
X346946Y51755D01*
X346801Y51695D01*
X346666Y51613D01*
X346547Y51510D01*
X346444Y51391D01*
X346362Y51256D01*
X346302Y51111D01*
X346265Y50958D01*
X346256Y50801D01*
X346265Y39817D01*
X346302Y39664D01*
X346362Y39519D01*
X346444Y39384D01*
X346547Y39265D01*
X346666Y39162D01*
X346801Y39080D01*
X346946Y39020D01*
X347099Y38983D01*
X347256Y38974D01*
X351294Y38981D01*
Y28200D01*
X336794D01*
Y65412D01*
G37*
G36*
Y135236D02*X351294D01*
Y118350D01*
X350612D01*
X350546Y118458D01*
X350137Y118937D01*
X349658Y119346D01*
X349122Y119675D01*
X348540Y119916D01*
X347928Y120063D01*
X347300Y120112D01*
X346672Y120063D01*
X346060Y119916D01*
X345478Y119675D01*
X344942Y119346D01*
X344463Y118937D01*
X344054Y118458D01*
X343836Y118102D01*
X336794D01*
Y119088D01*
X336800Y119088D01*
X337428Y119137D01*
X338040Y119284D01*
X338622Y119525D01*
X339158Y119854D01*
X339637Y120263D01*
X340046Y120742D01*
X340375Y121278D01*
X340616Y121860D01*
X340763Y122472D01*
X340800Y123100D01*
X340763Y123728D01*
X340616Y124340D01*
X340375Y124922D01*
X340046Y125458D01*
X339637Y125937D01*
X339158Y126346D01*
X338622Y126675D01*
X338040Y126916D01*
X337428Y127063D01*
X336800Y127112D01*
X336794Y127112D01*
Y135236D01*
G37*
G36*
Y314000D02*X351294D01*
Y305582D01*
X350139Y305580D01*
X349986Y305543D01*
X349841Y305483D01*
X349706Y305401D01*
X349587Y305298D01*
X349484Y305179D01*
X349402Y305044D01*
X349342Y304899D01*
X349305Y304746D01*
X349296Y304589D01*
X349305Y293605D01*
X349342Y293452D01*
X349402Y293307D01*
X349484Y293172D01*
X349587Y293053D01*
X349706Y292950D01*
X349841Y292868D01*
X349986Y292808D01*
X350139Y292771D01*
X350296Y292762D01*
X351294Y292764D01*
Y279007D01*
X350139Y279005D01*
X349986Y278968D01*
X349841Y278908D01*
X349706Y278826D01*
X349587Y278723D01*
X349484Y278604D01*
X349402Y278469D01*
X349342Y278324D01*
X349305Y278171D01*
X349296Y278014D01*
X349305Y267030D01*
X349342Y266877D01*
X349402Y266732D01*
X349484Y266597D01*
X349587Y266478D01*
X349706Y266375D01*
X349841Y266293D01*
X349986Y266233D01*
X350139Y266196D01*
X350296Y266187D01*
X351294Y266189D01*
Y259293D01*
X350513Y259292D01*
X350360Y259255D01*
X350215Y259195D01*
X350080Y259113D01*
X349961Y259010D01*
X349858Y258891D01*
X349776Y258756D01*
X349716Y258611D01*
X349679Y258458D01*
X349670Y258301D01*
X349679Y247317D01*
X349716Y247164D01*
X349776Y247019D01*
X349858Y246884D01*
X349961Y246765D01*
X350080Y246662D01*
X350215Y246580D01*
X350360Y246520D01*
X350513Y246483D01*
X350670Y246474D01*
X351294Y246475D01*
Y232718D01*
X350513Y232717D01*
X350360Y232680D01*
X350215Y232620D01*
X350080Y232538D01*
X349961Y232435D01*
X349858Y232316D01*
X349776Y232181D01*
X349716Y232036D01*
X349679Y231883D01*
X349670Y231726D01*
X349679Y220742D01*
X349716Y220589D01*
X349776Y220444D01*
X349858Y220309D01*
X349961Y220190D01*
X350080Y220087D01*
X350215Y220005D01*
X350360Y219945D01*
X350513Y219908D01*
X350670Y219899D01*
X351294Y219900D01*
Y214081D01*
X350639Y214080D01*
X350486Y214043D01*
X350341Y213983D01*
X350206Y213901D01*
X350087Y213798D01*
X349984Y213679D01*
X349902Y213544D01*
X349842Y213399D01*
X349805Y213246D01*
X349796Y213089D01*
X349805Y202105D01*
X349842Y201952D01*
X349902Y201807D01*
X349984Y201672D01*
X350087Y201553D01*
X350206Y201450D01*
X350341Y201368D01*
X350486Y201308D01*
X350639Y201271D01*
X350796Y201262D01*
X351294Y201263D01*
Y187506D01*
X350639Y187505D01*
X350486Y187468D01*
X350341Y187408D01*
X350206Y187326D01*
X350087Y187223D01*
X349984Y187104D01*
X349902Y186969D01*
X349842Y186824D01*
X349805Y186671D01*
X349796Y186514D01*
X349805Y175530D01*
X349842Y175377D01*
X349902Y175232D01*
X349984Y175097D01*
X350087Y174978D01*
X350206Y174875D01*
X350341Y174793D01*
X350486Y174733D01*
X350639Y174696D01*
X350796Y174687D01*
X351294Y174688D01*
Y139736D01*
X336794D01*
Y314000D01*
G37*
G36*
Y81612D02*X336172Y81563D01*
X335560Y81416D01*
X334978Y81175D01*
X334442Y80846D01*
X333963Y80437D01*
X333554Y79958D01*
X333225Y79422D01*
X332984Y78840D01*
X332837Y78228D01*
X332790Y77636D01*
X332790Y77899D01*
X332753Y78052D01*
X332693Y78198D01*
X332611Y78332D01*
X332509Y78452D01*
X332389Y78554D01*
X332255Y78636D01*
X332109Y78696D01*
X331956Y78733D01*
X331800Y78743D01*
X329674Y78733D01*
X329521Y78696D01*
X329375Y78636D01*
X329241Y78554D01*
X329121Y78452D01*
X329019Y78332D01*
X328937Y78198D01*
X328877Y78052D01*
X328840Y77899D01*
X328830Y77743D01*
X328840Y67743D01*
X328877Y67590D01*
X328937Y67444D01*
X329019Y67310D01*
X329121Y67190D01*
X329241Y67088D01*
X329375Y67006D01*
X329521Y66946D01*
X329674Y66909D01*
X329830Y66900D01*
X331927Y66909D01*
X331868Y66850D01*
X326732D01*
X324550Y69032D01*
Y86668D01*
X325289Y87407D01*
X325297Y85183D01*
X325334Y85030D01*
X325394Y84885D01*
X325476Y84750D01*
X325579Y84631D01*
X325698Y84528D01*
X325833Y84446D01*
X325978Y84386D01*
X326105Y84356D01*
X325978Y84325D01*
X325833Y84265D01*
X325698Y84183D01*
X325579Y84080D01*
X325476Y83961D01*
X325394Y83826D01*
X325334Y83681D01*
X325297Y83528D01*
X325288Y83371D01*
X325297Y80852D01*
X325334Y80699D01*
X325394Y80554D01*
X325476Y80419D01*
X325579Y80300D01*
X325698Y80197D01*
X325833Y80115D01*
X325978Y80055D01*
X326131Y80018D01*
X326288Y80009D01*
X331563Y80018D01*
X331716Y80055D01*
X331861Y80115D01*
X331996Y80197D01*
X332115Y80300D01*
X332218Y80419D01*
X332300Y80554D01*
X332360Y80699D01*
X332397Y80852D01*
X332406Y81009D01*
X332397Y83528D01*
X332360Y83681D01*
X332300Y83826D01*
X332218Y83961D01*
X332115Y84080D01*
X331996Y84183D01*
X331861Y84265D01*
X331846Y84271D01*
X336794D01*
Y81612D01*
G37*
G36*
X316679Y115597D02*X316800Y115588D01*
X317428Y115637D01*
X318040Y115784D01*
X318622Y116025D01*
X319158Y116354D01*
X319637Y116763D01*
X319795Y116948D01*
X325289D01*
X325298Y114514D01*
X325335Y114361D01*
X325395Y114215D01*
X325417Y114179D01*
X325394Y114141D01*
X325334Y113996D01*
X325297Y113843D01*
X325288Y113686D01*
X325297Y111167D01*
X325334Y111014D01*
X325394Y110869D01*
X325476Y110734D01*
X325579Y110615D01*
X325698Y110512D01*
X325833Y110430D01*
X325978Y110370D01*
X326105Y110340D01*
X325978Y110309D01*
X325833Y110249D01*
X325698Y110167D01*
X325579Y110064D01*
X325476Y109945D01*
X325394Y109810D01*
X325334Y109665D01*
X325297Y109512D01*
X325288Y109355D01*
X325297Y106836D01*
X325334Y106683D01*
X325394Y106538D01*
X325476Y106403D01*
X325579Y106284D01*
X325698Y106181D01*
X325833Y106099D01*
X325845Y106094D01*
X325368D01*
X325302Y106202D01*
X324893Y106681D01*
X324414Y107090D01*
X323878Y107419D01*
X323296Y107660D01*
X322684Y107807D01*
X322056Y107856D01*
X321428Y107807D01*
X320816Y107660D01*
X320234Y107419D01*
X319698Y107090D01*
X319219Y106681D01*
X318810Y106202D01*
X318481Y105666D01*
X318240Y105084D01*
X318093Y104472D01*
X318044Y103844D01*
X318093Y103216D01*
X318240Y102604D01*
X318481Y102022D01*
X318810Y101486D01*
X319219Y101007D01*
X319698Y100598D01*
X320234Y100269D01*
X320816Y100028D01*
X321428Y99881D01*
X322056Y99832D01*
X322684Y99881D01*
X323296Y100028D01*
X323878Y100269D01*
X324414Y100598D01*
X324893Y101007D01*
X325302Y101486D01*
X325368Y101594D01*
X325848D01*
X325833Y101588D01*
X325698Y101506D01*
X325579Y101403D01*
X325476Y101284D01*
X325394Y101149D01*
X325334Y101004D01*
X325297Y100851D01*
X325288Y100694D01*
X325297Y98228D01*
X325158Y98346D01*
X324622Y98675D01*
X324040Y98916D01*
X323428Y99063D01*
X322800Y99112D01*
X322172Y99063D01*
X321560Y98916D01*
X320978Y98675D01*
X320442Y98346D01*
X319963Y97937D01*
X319554Y97458D01*
X319225Y96922D01*
X318984Y96340D01*
X318837Y95728D01*
X318788Y95100D01*
X318837Y94472D01*
X318984Y93860D01*
X319225Y93278D01*
X319554Y92742D01*
X319963Y92263D01*
X320442Y91854D01*
X320978Y91525D01*
X321560Y91284D01*
X322172Y91137D01*
X322620Y91102D01*
X320771Y89253D01*
X320704Y89196D01*
X320474Y88927D01*
X320289Y88625D01*
X320154Y88297D01*
X320071Y87953D01*
X320071Y87953D01*
X320043Y87600D01*
X320050Y87512D01*
Y68188D01*
X320043Y68100D01*
X320071Y67747D01*
X320154Y67403D01*
X320289Y67075D01*
X320474Y66773D01*
X320474Y66773D01*
X320704Y66504D01*
X320771Y66447D01*
X324147Y63071D01*
X324204Y63004D01*
X324473Y62774D01*
X324473Y62774D01*
X324661Y62659D01*
X324775Y62589D01*
X325103Y62454D01*
X325447Y62371D01*
X325447D01*
X325800Y62343D01*
X325888Y62350D01*
X332712D01*
X332800Y62343D01*
X333153Y62371D01*
X333153Y62371D01*
X333497Y62454D01*
X333825Y62589D01*
X334127Y62774D01*
X334396Y63004D01*
X334453Y63071D01*
X336794Y65412D01*
Y28200D01*
X316679D01*
Y32560D01*
X316700Y32558D01*
X318818Y32725D01*
X320885Y33221D01*
X322848Y34034D01*
X324660Y35145D01*
X326275Y36525D01*
X327655Y38140D01*
X328766Y39952D01*
X329579Y41915D01*
X330075Y43982D01*
X330200Y46100D01*
X330075Y48218D01*
X329579Y50285D01*
X328766Y52248D01*
X327655Y54060D01*
X326275Y55675D01*
X324660Y57055D01*
X322848Y58166D01*
X320885Y58979D01*
X318818Y59475D01*
X316700Y59642D01*
X316679Y59640D01*
Y115597D01*
G37*
G36*
X328048Y314000D02*X336794D01*
Y139736D01*
X335048D01*
X334695Y139715D01*
X334351Y139632D01*
X334023Y139497D01*
X333810Y139366D01*
X331931Y139365D01*
X331799Y139372D01*
X329674Y139363D01*
X329521Y139326D01*
X329375Y139266D01*
X329241Y139184D01*
X329121Y139082D01*
X329019Y138962D01*
X328937Y138828D01*
X328877Y138682D01*
X328840Y138529D01*
X328830Y138372D01*
X328840Y128569D01*
X328877Y128416D01*
X328937Y128270D01*
X329019Y128136D01*
X329121Y128016D01*
X329241Y127914D01*
X329375Y127832D01*
X329521Y127772D01*
X329674Y127735D01*
X329830Y127726D01*
X331956Y127735D01*
X332109Y127772D01*
X332255Y127832D01*
X332389Y127914D01*
X332509Y128016D01*
X332611Y128136D01*
X332693Y128270D01*
X332753Y128416D01*
X332790Y128569D01*
X332799Y128726D01*
X332793Y135603D01*
X333814Y135603D01*
X334023Y135475D01*
X334351Y135340D01*
X334695Y135257D01*
X335048Y135236D01*
X336794D01*
Y127112D01*
X336172Y127063D01*
X335560Y126916D01*
X334978Y126675D01*
X334442Y126346D01*
X333963Y125937D01*
X333554Y125458D01*
X333225Y124922D01*
X332984Y124340D01*
X332837Y123728D01*
X332788Y123100D01*
X332837Y122472D01*
X332984Y121860D01*
X333225Y121278D01*
X333554Y120742D01*
X333963Y120263D01*
X334442Y119854D01*
X334978Y119525D01*
X335560Y119284D01*
X336172Y119137D01*
X336794Y119088D01*
Y118102D01*
X332406D01*
X332397Y120536D01*
X332360Y120689D01*
X332300Y120834D01*
X332218Y120969D01*
X332115Y121088D01*
X331996Y121191D01*
X331861Y121273D01*
X331716Y121333D01*
X331563Y121370D01*
X331406Y121379D01*
X329415Y121376D01*
X329200Y121427D01*
X328847Y121448D01*
X328048D01*
Y218616D01*
X330961Y218620D01*
X331114Y218657D01*
X331259Y218717D01*
X331394Y218799D01*
X331513Y218902D01*
X331616Y219021D01*
X331698Y219156D01*
X331758Y219301D01*
X331795Y219454D01*
X331804Y219611D01*
X331795Y230595D01*
X331758Y230748D01*
X331698Y230893D01*
X331616Y231028D01*
X331513Y231147D01*
X331394Y231250D01*
X331259Y231332D01*
X331114Y231392D01*
X330961Y231429D01*
X330804Y231438D01*
X328048Y231433D01*
Y245191D01*
X330961Y245195D01*
X331114Y245232D01*
X331259Y245292D01*
X331394Y245374D01*
X331513Y245477D01*
X331616Y245596D01*
X331698Y245731D01*
X331758Y245876D01*
X331795Y246029D01*
X331804Y246186D01*
X331795Y257170D01*
X331758Y257323D01*
X331698Y257468D01*
X331616Y257603D01*
X331513Y257722D01*
X331394Y257825D01*
X331259Y257907D01*
X331114Y257967D01*
X330961Y258004D01*
X330804Y258013D01*
X328048Y258008D01*
Y288781D01*
X328766Y289952D01*
X329579Y291915D01*
X330075Y293982D01*
X330200Y296100D01*
X330075Y298218D01*
X329579Y300285D01*
X328766Y302248D01*
X328048Y303419D01*
Y314000D01*
G37*
G36*
Y121448D02*X320359D01*
X320046Y121958D01*
X319637Y122437D01*
X319158Y122846D01*
X318622Y123175D01*
X318040Y123416D01*
X317428Y123563D01*
X316800Y123612D01*
X316679Y123603D01*
Y163190D01*
X320213Y163196D01*
X320366Y163233D01*
X320511Y163293D01*
X320646Y163375D01*
X320765Y163478D01*
X320868Y163597D01*
X320950Y163732D01*
X321010Y163877D01*
X321047Y164030D01*
X321056Y164187D01*
X321047Y175171D01*
X321010Y175324D01*
X320950Y175469D01*
X320868Y175604D01*
X320765Y175723D01*
X320646Y175826D01*
X320511Y175908D01*
X320366Y175968D01*
X320213Y176005D01*
X320056Y176014D01*
X316679Y176008D01*
Y189765D01*
X320213Y189771D01*
X320366Y189808D01*
X320511Y189868D01*
X320646Y189950D01*
X320765Y190053D01*
X320868Y190172D01*
X320950Y190307D01*
X321010Y190452D01*
X321047Y190605D01*
X321056Y190762D01*
X321047Y201746D01*
X321010Y201899D01*
X320950Y202044D01*
X320868Y202179D01*
X320765Y202298D01*
X320646Y202401D01*
X320511Y202483D01*
X320366Y202543D01*
X320213Y202580D01*
X320056Y202589D01*
X316679Y202583D01*
Y245511D01*
X316709Y245477D01*
X316828Y245374D01*
X316963Y245292D01*
X317108Y245232D01*
X317261Y245195D01*
X317418Y245186D01*
X323087Y245195D01*
X323240Y245232D01*
X323385Y245292D01*
X323520Y245374D01*
X323639Y245477D01*
X323742Y245596D01*
X323824Y245731D01*
X323884Y245876D01*
X323921Y246029D01*
X323930Y246186D01*
X323921Y257170D01*
X323884Y257323D01*
X323824Y257468D01*
X323742Y257603D01*
X323639Y257722D01*
X323520Y257825D01*
X323385Y257907D01*
X323240Y257967D01*
X323087Y258004D01*
X322930Y258013D01*
X317261Y258004D01*
X317108Y257967D01*
X316963Y257907D01*
X316828Y257825D01*
X316709Y257722D01*
X316679Y257688D01*
Y282560D01*
X316700Y282558D01*
X318818Y282725D01*
X320885Y283221D01*
X322848Y284034D01*
X324660Y285145D01*
X326275Y286525D01*
X327655Y288140D01*
X328048Y288781D01*
Y258008D01*
X325135Y258004D01*
X324982Y257967D01*
X324837Y257907D01*
X324702Y257825D01*
X324583Y257722D01*
X324480Y257603D01*
X324398Y257468D01*
X324338Y257323D01*
X324301Y257170D01*
X324292Y257013D01*
X324301Y246029D01*
X324338Y245876D01*
X324398Y245731D01*
X324480Y245596D01*
X324583Y245477D01*
X324702Y245374D01*
X324837Y245292D01*
X324982Y245232D01*
X325135Y245195D01*
X325292Y245186D01*
X328048Y245191D01*
Y231433D01*
X325135Y231429D01*
X324982Y231392D01*
X324837Y231332D01*
X324702Y231250D01*
X324583Y231147D01*
X324480Y231028D01*
X324398Y230893D01*
X324338Y230748D01*
X324301Y230595D01*
X324292Y230438D01*
X324301Y219454D01*
X324338Y219301D01*
X324398Y219156D01*
X324480Y219021D01*
X324583Y218902D01*
X324702Y218799D01*
X324837Y218717D01*
X324982Y218657D01*
X325135Y218620D01*
X325292Y218611D01*
X328048Y218616D01*
Y121448D01*
G37*
G36*
X316679Y314000D02*X328048D01*
Y303419D01*
X327655Y304060D01*
X326275Y305675D01*
X324660Y307055D01*
X322848Y308166D01*
X320885Y308979D01*
X318818Y309475D01*
X316700Y309642D01*
X316679Y309640D01*
Y314000D01*
G37*
G36*
X309426Y34724D02*X310552Y34034D01*
X312515Y33221D01*
X314582Y32725D01*
X316679Y32560D01*
Y28200D01*
X309426D01*
Y34724D01*
G37*
G36*
Y284724D02*X310552Y284034D01*
X312515Y283221D01*
X314582Y282725D01*
X316679Y282560D01*
Y257688D01*
X316606Y257603D01*
X316524Y257468D01*
X316464Y257323D01*
X316427Y257170D01*
X316418Y257013D01*
X316427Y246029D01*
X316464Y245876D01*
X316524Y245731D01*
X316606Y245596D01*
X316679Y245511D01*
Y202583D01*
X314387Y202580D01*
X314234Y202543D01*
X314089Y202483D01*
X313954Y202401D01*
X313835Y202298D01*
X313732Y202179D01*
X313650Y202044D01*
X313590Y201899D01*
X313553Y201746D01*
X313544Y201589D01*
X313553Y190605D01*
X313590Y190452D01*
X313650Y190307D01*
X313732Y190172D01*
X313835Y190053D01*
X313954Y189950D01*
X314089Y189868D01*
X314234Y189808D01*
X314387Y189771D01*
X314544Y189762D01*
X316679Y189765D01*
Y176008D01*
X314387Y176005D01*
X314234Y175968D01*
X314089Y175908D01*
X313954Y175826D01*
X313835Y175723D01*
X313732Y175604D01*
X313650Y175469D01*
X313590Y175324D01*
X313553Y175171D01*
X313544Y175014D01*
X313553Y164030D01*
X313590Y163877D01*
X313650Y163732D01*
X313732Y163597D01*
X313835Y163478D01*
X313954Y163375D01*
X314089Y163293D01*
X314234Y163233D01*
X314387Y163196D01*
X314544Y163187D01*
X316679Y163190D01*
Y123603D01*
X316172Y123563D01*
X315560Y123416D01*
X314978Y123175D01*
X314442Y122846D01*
X313963Y122437D01*
X313554Y121958D01*
X313225Y121422D01*
X312984Y120840D01*
X312837Y120228D01*
X312788Y119600D01*
X312837Y118972D01*
X312984Y118360D01*
X313225Y117778D01*
X313554Y117242D01*
X313963Y116763D01*
X314442Y116354D01*
X314978Y116025D01*
X315560Y115784D01*
X316172Y115637D01*
X316679Y115597D01*
Y59640D01*
X314582Y59475D01*
X312515Y58979D01*
X310552Y58166D01*
X309426Y57476D01*
Y189767D01*
X312339Y189771D01*
X312492Y189808D01*
X312637Y189868D01*
X312772Y189950D01*
X312891Y190053D01*
X312994Y190172D01*
X313076Y190307D01*
X313136Y190452D01*
X313173Y190605D01*
X313182Y190762D01*
X313173Y201746D01*
X313136Y201899D01*
X313076Y202044D01*
X312994Y202179D01*
X312891Y202298D01*
X312772Y202401D01*
X312637Y202483D01*
X312492Y202543D01*
X312339Y202580D01*
X312182Y202589D01*
X309426Y202584D01*
Y218618D01*
X309544Y218611D01*
X315213Y218620D01*
X315366Y218657D01*
X315511Y218717D01*
X315646Y218799D01*
X315765Y218902D01*
X315868Y219021D01*
X315950Y219156D01*
X316010Y219301D01*
X316047Y219454D01*
X316056Y219611D01*
X316047Y230595D01*
X316010Y230748D01*
X315950Y230893D01*
X315868Y231028D01*
X315765Y231147D01*
X315646Y231250D01*
X315511Y231332D01*
X315366Y231392D01*
X315213Y231429D01*
X315056Y231438D01*
X309426Y231429D01*
Y245193D01*
X309544Y245186D01*
X315213Y245195D01*
X315366Y245232D01*
X315511Y245292D01*
X315646Y245374D01*
X315765Y245477D01*
X315868Y245596D01*
X315950Y245731D01*
X316010Y245876D01*
X316047Y246029D01*
X316056Y246186D01*
X316047Y257170D01*
X316010Y257323D01*
X315950Y257468D01*
X315868Y257603D01*
X315765Y257722D01*
X315646Y257825D01*
X315511Y257907D01*
X315366Y257967D01*
X315213Y258004D01*
X315056Y258013D01*
X309426Y258004D01*
Y284724D01*
G37*
G36*
Y314000D02*X316679D01*
Y309640D01*
X314582Y309475D01*
X312515Y308979D01*
X310552Y308166D01*
X309426Y307476D01*
Y314000D01*
G37*
G36*
X302794D02*X309426D01*
Y307476D01*
X308740Y307055D01*
X307125Y305675D01*
X305745Y304060D01*
X304634Y302248D01*
X303821Y300285D01*
X303325Y298218D01*
X303158Y296100D01*
X303325Y293982D01*
X303821Y291915D01*
X304634Y289952D01*
X305745Y288140D01*
X307125Y286525D01*
X308740Y285145D01*
X309426Y284724D01*
Y258004D01*
X309387Y258004D01*
X309234Y257967D01*
X309089Y257907D01*
X308954Y257825D01*
X308835Y257722D01*
X308732Y257603D01*
X308650Y257468D01*
X308590Y257323D01*
X308553Y257170D01*
X308544Y257013D01*
X308553Y246029D01*
X308590Y245876D01*
X308650Y245731D01*
X308732Y245596D01*
X308835Y245477D01*
X308954Y245374D01*
X309089Y245292D01*
X309234Y245232D01*
X309387Y245195D01*
X309426Y245193D01*
Y231429D01*
X309387Y231429D01*
X309234Y231392D01*
X309089Y231332D01*
X308954Y231250D01*
X308835Y231147D01*
X308732Y231028D01*
X308650Y230893D01*
X308590Y230748D01*
X308553Y230595D01*
X308544Y230438D01*
X308553Y219454D01*
X308590Y219301D01*
X308650Y219156D01*
X308732Y219021D01*
X308835Y218902D01*
X308954Y218799D01*
X309089Y218717D01*
X309234Y218657D01*
X309387Y218620D01*
X309426Y218618D01*
Y202584D01*
X306513Y202580D01*
X306360Y202543D01*
X306215Y202483D01*
X306080Y202401D01*
X305961Y202298D01*
X305858Y202179D01*
X305776Y202044D01*
X305716Y201899D01*
X305679Y201746D01*
X305670Y201589D01*
X305679Y190605D01*
X305716Y190452D01*
X305776Y190307D01*
X305858Y190172D01*
X305961Y190053D01*
X306080Y189950D01*
X306215Y189868D01*
X306360Y189808D01*
X306513Y189771D01*
X306670Y189762D01*
X309426Y189767D01*
Y57476D01*
X308740Y57055D01*
X307125Y55675D01*
X305745Y54060D01*
X304634Y52248D01*
X303821Y50285D01*
X303325Y48218D01*
X303158Y46100D01*
X303325Y43982D01*
X303821Y41915D01*
X304634Y39952D01*
X305745Y38140D01*
X307125Y36525D01*
X308740Y35145D01*
X309426Y34724D01*
Y28200D01*
X302794D01*
Y91088D01*
X302800Y91088D01*
X303428Y91137D01*
X304040Y91284D01*
X304622Y91525D01*
X305158Y91854D01*
X305637Y92263D01*
X306046Y92742D01*
X306375Y93278D01*
X306616Y93860D01*
X306763Y94472D01*
X306800Y95100D01*
X306763Y95728D01*
X306616Y96340D01*
X306375Y96922D01*
X306046Y97458D01*
X305637Y97937D01*
X305158Y98346D01*
X304622Y98675D01*
X304040Y98916D01*
X303428Y99063D01*
X302800Y99112D01*
X302794Y99112D01*
Y107588D01*
X302800Y107588D01*
X303428Y107637D01*
X304040Y107784D01*
X304622Y108025D01*
X305158Y108354D01*
X305637Y108763D01*
X306046Y109242D01*
X306375Y109778D01*
X306616Y110360D01*
X306763Y110972D01*
X306800Y111600D01*
X306763Y112228D01*
X306616Y112840D01*
X306375Y113422D01*
X306046Y113958D01*
X305637Y114437D01*
X305158Y114846D01*
X304622Y115175D01*
X304040Y115416D01*
X303428Y115563D01*
X302800Y115612D01*
X302794Y115612D01*
Y163194D01*
X304465Y163196D01*
X304618Y163233D01*
X304763Y163293D01*
X304898Y163375D01*
X305017Y163478D01*
X305120Y163597D01*
X305202Y163732D01*
X305262Y163877D01*
X305299Y164030D01*
X305308Y164187D01*
X305299Y175171D01*
X305262Y175324D01*
X305202Y175469D01*
X305120Y175604D01*
X305017Y175723D01*
X304898Y175826D01*
X304763Y175908D01*
X304618Y175968D01*
X304465Y176005D01*
X304308Y176014D01*
X302794Y176012D01*
Y189769D01*
X304465Y189771D01*
X304618Y189808D01*
X304763Y189868D01*
X304898Y189950D01*
X305017Y190053D01*
X305120Y190172D01*
X305202Y190307D01*
X305262Y190452D01*
X305299Y190605D01*
X305308Y190762D01*
X305299Y201746D01*
X305262Y201899D01*
X305202Y202044D01*
X305120Y202179D01*
X305017Y202298D01*
X304898Y202401D01*
X304763Y202483D01*
X304618Y202543D01*
X304465Y202580D01*
X304308Y202589D01*
X302794Y202587D01*
Y314000D01*
G37*
G36*
X259393D02*X302794D01*
Y202587D01*
X298639Y202580D01*
X298486Y202543D01*
X298341Y202483D01*
X298206Y202401D01*
X298087Y202298D01*
X297984Y202179D01*
X297902Y202044D01*
X297842Y201899D01*
X297805Y201746D01*
X297796Y201589D01*
X297805Y190605D01*
X297842Y190452D01*
X297902Y190307D01*
X297984Y190172D01*
X298087Y190053D01*
X298206Y189950D01*
X298341Y189868D01*
X298486Y189808D01*
X298639Y189771D01*
X298796Y189762D01*
X302794Y189769D01*
Y176012D01*
X298639Y176005D01*
X298486Y175968D01*
X298341Y175908D01*
X298206Y175826D01*
X298087Y175723D01*
X297984Y175604D01*
X297902Y175469D01*
X297842Y175324D01*
X297805Y175171D01*
X297796Y175014D01*
X297805Y164030D01*
X297842Y163877D01*
X297902Y163732D01*
X297984Y163597D01*
X298087Y163478D01*
X298206Y163375D01*
X298341Y163293D01*
X298486Y163233D01*
X298639Y163196D01*
X298796Y163187D01*
X302794Y163194D01*
Y115612D01*
X302172Y115563D01*
X301560Y115416D01*
X300978Y115175D01*
X300442Y114846D01*
X299963Y114437D01*
X299554Y113958D01*
X299225Y113422D01*
X298984Y112840D01*
X298837Y112228D01*
X298788Y111600D01*
X298837Y110972D01*
X298984Y110360D01*
X299225Y109778D01*
X299554Y109242D01*
X299963Y108763D01*
X300442Y108354D01*
X300978Y108025D01*
X301560Y107784D01*
X302172Y107637D01*
X302794Y107588D01*
Y99112D01*
X302172Y99063D01*
X301560Y98916D01*
X300978Y98675D01*
X300442Y98346D01*
X299963Y97937D01*
X299554Y97458D01*
X299225Y96922D01*
X298984Y96340D01*
X298837Y95728D01*
X298788Y95100D01*
X298837Y94472D01*
X298984Y93860D01*
X299225Y93278D01*
X299554Y92742D01*
X299963Y92263D01*
X300442Y91854D01*
X300978Y91525D01*
X301560Y91284D01*
X302172Y91137D01*
X302794Y91088D01*
Y28200D01*
X259393D01*
Y121737D01*
X259400Y121737D01*
X260067Y121789D01*
X260717Y121946D01*
X261335Y122202D01*
X261906Y122551D01*
X262414Y122986D01*
X262849Y123494D01*
X263198Y124065D01*
X263454Y124683D01*
X263611Y125333D01*
X263650Y126000D01*
X263611Y126667D01*
X263454Y127317D01*
X263198Y127935D01*
X262849Y128506D01*
X262414Y129014D01*
X261906Y129449D01*
X261335Y129798D01*
X260717Y130054D01*
X260067Y130211D01*
X259400Y130263D01*
X259393Y130263D01*
Y314000D01*
G37*
G36*
X239400D02*X259393D01*
Y130263D01*
X258733Y130211D01*
X258083Y130054D01*
X257465Y129798D01*
X256894Y129449D01*
X256386Y129014D01*
X255951Y128506D01*
X255602Y127935D01*
X255346Y127317D01*
X255189Y126667D01*
X255137Y126000D01*
X255189Y125333D01*
X255346Y124683D01*
X255602Y124065D01*
X255951Y123494D01*
X256386Y122986D01*
X256894Y122551D01*
X257465Y122202D01*
X258083Y121946D01*
X258733Y121789D01*
X259393Y121737D01*
Y28200D01*
X239400D01*
Y121757D01*
X242385Y121764D01*
X242615Y121819D01*
X242833Y121909D01*
X243034Y122033D01*
X243214Y122186D01*
X243367Y122366D01*
X243491Y122567D01*
X243581Y122785D01*
X243636Y123015D01*
X243650Y123250D01*
X243636Y128985D01*
X243581Y129215D01*
X243491Y129433D01*
X243367Y129634D01*
X243214Y129814D01*
X243034Y129967D01*
X242833Y130091D01*
X242615Y130181D01*
X242385Y130236D01*
X242150Y130250D01*
X239400Y130243D01*
Y314000D01*
G37*
G36*
X213896D02*X239400D01*
Y130243D01*
X236415Y130236D01*
X236185Y130181D01*
X235967Y130091D01*
X235766Y129967D01*
X235586Y129814D01*
X235433Y129634D01*
X235309Y129433D01*
X235219Y129215D01*
X235164Y128985D01*
X235150Y128750D01*
X235164Y123015D01*
X235219Y122785D01*
X235309Y122567D01*
X235433Y122366D01*
X235586Y122186D01*
X235766Y122033D01*
X235967Y121909D01*
X236185Y121819D01*
X236415Y121764D01*
X236650Y121750D01*
X239400Y121757D01*
Y28200D01*
X213896D01*
Y188192D01*
X213900Y188191D01*
X214339Y188226D01*
X214768Y188329D01*
X215175Y188497D01*
X215551Y188728D01*
X215886Y189014D01*
X216172Y189349D01*
X216403Y189725D01*
X216571Y190132D01*
X216674Y190561D01*
X216700Y191000D01*
X216674Y191439D01*
X216571Y191868D01*
X216403Y192275D01*
X216172Y192651D01*
X215886Y192986D01*
X215551Y193272D01*
X215175Y193503D01*
X214768Y193671D01*
X214339Y193774D01*
X213900Y193809D01*
X213896Y193808D01*
Y314000D01*
G37*
G36*
X194396D02*X213896D01*
Y193808D01*
X213461Y193774D01*
X213032Y193671D01*
X212625Y193503D01*
X212249Y193272D01*
X211914Y192986D01*
X211628Y192651D01*
X211397Y192275D01*
X211229Y191868D01*
X211126Y191439D01*
X211091Y191000D01*
X211126Y190561D01*
X211229Y190132D01*
X211397Y189725D01*
X211628Y189349D01*
X211914Y189014D01*
X212249Y188728D01*
X212625Y188497D01*
X213032Y188329D01*
X213461Y188226D01*
X213896Y188192D01*
Y28200D01*
X194396D01*
Y188192D01*
X194400Y188191D01*
X194839Y188226D01*
X195268Y188329D01*
X195675Y188497D01*
X196051Y188728D01*
X196386Y189014D01*
X196672Y189349D01*
X196903Y189725D01*
X197071Y190132D01*
X197174Y190561D01*
X197200Y191000D01*
X197174Y191439D01*
X197071Y191868D01*
X196903Y192275D01*
X196672Y192651D01*
X196386Y192986D01*
X196051Y193272D01*
X195675Y193503D01*
X195268Y193671D01*
X194839Y193774D01*
X194400Y193809D01*
X194396Y193808D01*
Y314000D01*
G37*
G36*
X172394D02*X194396D01*
Y193808D01*
X193961Y193774D01*
X193532Y193671D01*
X193125Y193503D01*
X192749Y193272D01*
X192414Y192986D01*
X192128Y192651D01*
X191897Y192275D01*
X191729Y191868D01*
X191626Y191439D01*
X191591Y191000D01*
X191626Y190561D01*
X191729Y190132D01*
X191897Y189725D01*
X192128Y189349D01*
X192414Y189014D01*
X192749Y188728D01*
X193125Y188497D01*
X193532Y188329D01*
X193961Y188226D01*
X194396Y188192D01*
Y28200D01*
X172394D01*
Y180488D01*
X172400Y180488D01*
X173028Y180537D01*
X173640Y180684D01*
X174222Y180925D01*
X174758Y181254D01*
X175237Y181663D01*
X175646Y182142D01*
X175975Y182678D01*
X176216Y183260D01*
X176363Y183872D01*
X176400Y184500D01*
X176363Y185128D01*
X176216Y185740D01*
X175975Y186322D01*
X175646Y186858D01*
X175237Y187337D01*
X174758Y187746D01*
X174222Y188075D01*
X173640Y188316D01*
X173028Y188463D01*
X172400Y188512D01*
X172394Y188512D01*
Y314000D01*
G37*
G36*
X155394D02*X172394D01*
Y188512D01*
X171772Y188463D01*
X171160Y188316D01*
X170578Y188075D01*
X170042Y187746D01*
X169563Y187337D01*
X169154Y186858D01*
X168825Y186322D01*
X168584Y185740D01*
X168437Y185128D01*
X168388Y184500D01*
X168437Y183872D01*
X168584Y183260D01*
X168825Y182678D01*
X169154Y182142D01*
X169563Y181663D01*
X170042Y181254D01*
X170578Y180925D01*
X171160Y180684D01*
X171772Y180537D01*
X172394Y180488D01*
Y28200D01*
X155394D01*
Y100988D01*
X155400Y100988D01*
X156028Y101037D01*
X156640Y101184D01*
X157222Y101425D01*
X157758Y101754D01*
X158237Y102163D01*
X158646Y102642D01*
X158975Y103178D01*
X159216Y103760D01*
X159363Y104372D01*
X159400Y105000D01*
X159363Y105628D01*
X159216Y106240D01*
X158975Y106822D01*
X158646Y107358D01*
X158237Y107837D01*
X157758Y108246D01*
X157222Y108575D01*
X156640Y108816D01*
X156028Y108963D01*
X155400Y109012D01*
X155394Y109012D01*
Y115988D01*
X155400Y115988D01*
X156028Y116037D01*
X156640Y116184D01*
X157222Y116425D01*
X157758Y116754D01*
X158237Y117163D01*
X158646Y117642D01*
X158975Y118178D01*
X159216Y118760D01*
X159363Y119372D01*
X159400Y120000D01*
X159363Y120628D01*
X159216Y121240D01*
X158975Y121822D01*
X158646Y122358D01*
X158237Y122837D01*
X157758Y123246D01*
X157222Y123575D01*
X156640Y123816D01*
X156028Y123963D01*
X155400Y124012D01*
X155394Y124012D01*
Y181846D01*
X155646Y182142D01*
X155975Y182678D01*
X156216Y183260D01*
X156363Y183872D01*
X156400Y184500D01*
X156363Y185128D01*
X156216Y185740D01*
X155975Y186322D01*
X155646Y186858D01*
X155394Y187154D01*
Y314000D01*
G37*
G36*
X119396D02*X155394D01*
Y187154D01*
X155237Y187337D01*
X154758Y187746D01*
X154222Y188075D01*
X153640Y188316D01*
X153028Y188463D01*
X152400Y188512D01*
X151772Y188463D01*
X151160Y188316D01*
X150578Y188075D01*
X150042Y187746D01*
X149563Y187337D01*
X149154Y186858D01*
X148825Y186322D01*
X148584Y185740D01*
X148437Y185128D01*
X148388Y184500D01*
X148437Y183872D01*
X148584Y183260D01*
X148825Y182678D01*
X149154Y182142D01*
X149563Y181663D01*
X150042Y181254D01*
X150578Y180925D01*
X151160Y180684D01*
X151772Y180537D01*
X152400Y180488D01*
X153028Y180537D01*
X153640Y180684D01*
X154222Y180925D01*
X154758Y181254D01*
X155237Y181663D01*
X155394Y181846D01*
Y124012D01*
X154772Y123963D01*
X154160Y123816D01*
X153578Y123575D01*
X153042Y123246D01*
X152563Y122837D01*
X152154Y122358D01*
X151825Y121822D01*
X151584Y121240D01*
X151437Y120628D01*
X151388Y120000D01*
X151437Y119372D01*
X151584Y118760D01*
X151825Y118178D01*
X152154Y117642D01*
X152563Y117163D01*
X153042Y116754D01*
X153578Y116425D01*
X154160Y116184D01*
X154772Y116037D01*
X155394Y115988D01*
Y109012D01*
X154772Y108963D01*
X154160Y108816D01*
X153578Y108575D01*
X153042Y108246D01*
X152563Y107837D01*
X152154Y107358D01*
X151825Y106822D01*
X151584Y106240D01*
X151437Y105628D01*
X151388Y105000D01*
X151437Y104372D01*
X151584Y103760D01*
X151825Y103178D01*
X152154Y102642D01*
X152563Y102163D01*
X153042Y101754D01*
X153578Y101425D01*
X154160Y101184D01*
X154772Y101037D01*
X155394Y100988D01*
Y28200D01*
X119396D01*
Y32864D01*
X120885Y33221D01*
X122848Y34034D01*
X124660Y35145D01*
X126275Y36525D01*
X127655Y38140D01*
X128766Y39952D01*
X129579Y41915D01*
X130075Y43982D01*
X130200Y46100D01*
X130075Y48218D01*
X129579Y50285D01*
X128766Y52248D01*
X127655Y54060D01*
X126275Y55675D01*
X124660Y57055D01*
X122848Y58166D01*
X120885Y58979D01*
X119396Y59336D01*
Y166692D01*
X119400Y166691D01*
X119839Y166726D01*
X120268Y166829D01*
X120675Y166997D01*
X121051Y167228D01*
X121386Y167514D01*
X121672Y167849D01*
X121903Y168225D01*
X122071Y168632D01*
X122174Y169061D01*
X122200Y169500D01*
X122174Y169939D01*
X122071Y170368D01*
X121903Y170775D01*
X121672Y171151D01*
X121386Y171486D01*
X121051Y171772D01*
X120675Y172003D01*
X120268Y172171D01*
X119839Y172274D01*
X119400Y172309D01*
X119396Y172308D01*
Y282864D01*
X120885Y283221D01*
X122848Y284034D01*
X124660Y285145D01*
X126275Y286525D01*
X127655Y288140D01*
X128766Y289952D01*
X129579Y291915D01*
X130075Y293982D01*
X130200Y296100D01*
X130075Y298218D01*
X129579Y300285D01*
X128766Y302248D01*
X127655Y304060D01*
X126275Y305675D01*
X124660Y307055D01*
X122848Y308166D01*
X120885Y308979D01*
X119396Y309336D01*
Y314000D01*
G37*
G36*
Y59336D02*X118818Y59475D01*
X116700Y59642D01*
X114582Y59475D01*
X114396Y59430D01*
Y171242D01*
X114461Y171226D01*
X114900Y171191D01*
X115339Y171226D01*
X115768Y171329D01*
X116175Y171497D01*
X116551Y171728D01*
X116886Y172014D01*
X117172Y172349D01*
X117403Y172725D01*
X117571Y173132D01*
X117674Y173561D01*
X117700Y174000D01*
X117674Y174439D01*
X117571Y174868D01*
X117403Y175275D01*
X117172Y175651D01*
X116886Y175986D01*
X116551Y176272D01*
X116175Y176503D01*
X115768Y176671D01*
X115339Y176774D01*
X114900Y176809D01*
X114461Y176774D01*
X114396Y176758D01*
Y196192D01*
X114400Y196191D01*
X114839Y196226D01*
X115268Y196329D01*
X115675Y196497D01*
X116051Y196728D01*
X116386Y197014D01*
X116672Y197349D01*
X116903Y197725D01*
X117071Y198132D01*
X117174Y198561D01*
X117200Y199000D01*
X117174Y199439D01*
X117071Y199868D01*
X116903Y200275D01*
X116672Y200651D01*
X116386Y200986D01*
X116051Y201272D01*
X115675Y201503D01*
X115268Y201671D01*
X114839Y201774D01*
X114400Y201809D01*
X114396Y201808D01*
Y282770D01*
X114582Y282725D01*
X116700Y282558D01*
X118818Y282725D01*
X119396Y282864D01*
Y172308D01*
X118961Y172274D01*
X118532Y172171D01*
X118125Y172003D01*
X117749Y171772D01*
X117414Y171486D01*
X117128Y171151D01*
X116897Y170775D01*
X116729Y170368D01*
X116626Y169939D01*
X116591Y169500D01*
X116626Y169061D01*
X116729Y168632D01*
X116897Y168225D01*
X117128Y167849D01*
X117414Y167514D01*
X117749Y167228D01*
X118125Y166997D01*
X118532Y166829D01*
X118961Y166726D01*
X119396Y166692D01*
Y59336D01*
G37*
G36*
Y28200D02*X114396D01*
Y32770D01*
X114582Y32725D01*
X116700Y32558D01*
X118818Y32725D01*
X119396Y32864D01*
Y28200D01*
G37*
G36*
X114396Y314000D02*X119396D01*
Y309336D01*
X118818Y309475D01*
X116700Y309642D01*
X114582Y309475D01*
X114396Y309430D01*
Y314000D01*
G37*
G36*
Y59430D02*X112515Y58979D01*
X110896Y58308D01*
Y166692D01*
X110900Y166691D01*
X111339Y166726D01*
X111768Y166829D01*
X112175Y166997D01*
X112551Y167228D01*
X112886Y167514D01*
X113172Y167849D01*
X113403Y168225D01*
X113571Y168632D01*
X113674Y169061D01*
X113700Y169500D01*
X113674Y169939D01*
X113571Y170368D01*
X113403Y170775D01*
X113172Y171151D01*
X112886Y171486D01*
X112551Y171772D01*
X112175Y172003D01*
X111768Y172171D01*
X111339Y172274D01*
X110900Y172309D01*
X110896Y172308D01*
Y283892D01*
X112515Y283221D01*
X114396Y282770D01*
Y201808D01*
X113961Y201774D01*
X113532Y201671D01*
X113125Y201503D01*
X112749Y201272D01*
X112414Y200986D01*
X112128Y200651D01*
X111897Y200275D01*
X111729Y199868D01*
X111626Y199439D01*
X111591Y199000D01*
X111626Y198561D01*
X111729Y198132D01*
X111897Y197725D01*
X112128Y197349D01*
X112414Y197014D01*
X112749Y196728D01*
X113125Y196497D01*
X113532Y196329D01*
X113961Y196226D01*
X114396Y196192D01*
Y176758D01*
X114032Y176671D01*
X113625Y176503D01*
X113249Y176272D01*
X112914Y175986D01*
X112628Y175651D01*
X112397Y175275D01*
X112229Y174868D01*
X112126Y174439D01*
X112091Y174000D01*
X112126Y173561D01*
X112229Y173132D01*
X112397Y172725D01*
X112628Y172349D01*
X112914Y172014D01*
X113249Y171728D01*
X113625Y171497D01*
X114032Y171329D01*
X114396Y171242D01*
Y59430D01*
G37*
G36*
X110896Y58308D02*X110552Y58166D01*
X108740Y57055D01*
X107125Y55675D01*
X105745Y54060D01*
X105396Y53490D01*
Y95527D01*
X105528Y95537D01*
X106140Y95684D01*
X106722Y95925D01*
X107258Y96254D01*
X107737Y96663D01*
X108146Y97142D01*
X108475Y97678D01*
X108716Y98260D01*
X108863Y98872D01*
X108900Y99500D01*
X108863Y100128D01*
X108716Y100740D01*
X108475Y101322D01*
X108146Y101858D01*
X107737Y102337D01*
X107258Y102746D01*
X106722Y103075D01*
X106140Y103316D01*
X105528Y103463D01*
X105396Y103473D01*
Y136192D01*
X105400Y136191D01*
X105839Y136226D01*
X106268Y136329D01*
X106675Y136497D01*
X107051Y136728D01*
X107386Y137014D01*
X107672Y137349D01*
X107903Y137725D01*
X108071Y138132D01*
X108174Y138561D01*
X108200Y139000D01*
X108174Y139439D01*
X108071Y139868D01*
X107903Y140275D01*
X107672Y140651D01*
X107386Y140986D01*
X107051Y141272D01*
X106675Y141503D01*
X106268Y141671D01*
X105839Y141774D01*
X105400Y141809D01*
X105396Y141808D01*
Y144882D01*
X105675Y144997D01*
X106051Y145228D01*
X106386Y145514D01*
X106672Y145849D01*
X106903Y146225D01*
X107071Y146632D01*
X107174Y147061D01*
X107200Y147500D01*
X107174Y147939D01*
X107071Y148368D01*
X106903Y148775D01*
X106672Y149151D01*
X106386Y149486D01*
X106051Y149772D01*
X105675Y150003D01*
X105396Y150118D01*
Y156192D01*
X105400Y156191D01*
X105839Y156226D01*
X106268Y156329D01*
X106675Y156497D01*
X107051Y156728D01*
X107386Y157014D01*
X107672Y157349D01*
X107903Y157725D01*
X108071Y158132D01*
X108174Y158561D01*
X108200Y159000D01*
X108174Y159439D01*
X108071Y159868D01*
X107903Y160275D01*
X107672Y160651D01*
X107386Y160986D01*
X107051Y161272D01*
X106675Y161503D01*
X106268Y161671D01*
X105839Y161774D01*
X105400Y161809D01*
X105396Y161808D01*
Y171638D01*
X105625Y171497D01*
X106032Y171329D01*
X106461Y171226D01*
X106900Y171191D01*
X107339Y171226D01*
X107768Y171329D01*
X108175Y171497D01*
X108551Y171728D01*
X108886Y172014D01*
X109172Y172349D01*
X109403Y172725D01*
X109571Y173132D01*
X109674Y173561D01*
X109700Y174000D01*
X109674Y174439D01*
X109571Y174868D01*
X109403Y175275D01*
X109172Y175651D01*
X108886Y175986D01*
X108551Y176272D01*
X108175Y176503D01*
X107768Y176671D01*
X107339Y176774D01*
X106900Y176809D01*
X106461Y176774D01*
X106032Y176671D01*
X105625Y176503D01*
X105396Y176362D01*
Y288710D01*
X105745Y288140D01*
X107125Y286525D01*
X108740Y285145D01*
X110552Y284034D01*
X110896Y283892D01*
Y172308D01*
X110461Y172274D01*
X110032Y172171D01*
X109625Y172003D01*
X109249Y171772D01*
X108914Y171486D01*
X108628Y171151D01*
X108397Y170775D01*
X108229Y170368D01*
X108126Y169939D01*
X108091Y169500D01*
X108126Y169061D01*
X108229Y168632D01*
X108397Y168225D01*
X108628Y167849D01*
X108914Y167514D01*
X109249Y167228D01*
X109625Y166997D01*
X110032Y166829D01*
X110461Y166726D01*
X110896Y166692D01*
Y58308D01*
G37*
G36*
X114396Y28200D02*X105396D01*
Y38710D01*
X105745Y38140D01*
X107125Y36525D01*
X108740Y35145D01*
X110552Y34034D01*
X112515Y33221D01*
X114396Y32770D01*
Y28200D01*
G37*
G36*
X105396Y314000D02*X114396D01*
Y309430D01*
X112515Y308979D01*
X110552Y308166D01*
X108740Y307055D01*
X107125Y305675D01*
X105745Y304060D01*
X105396Y303490D01*
Y314000D01*
G37*
G36*
Y28200D02*X101243D01*
Y97877D01*
X101325Y97678D01*
X101654Y97142D01*
X102063Y96663D01*
X102542Y96254D01*
X103078Y95925D01*
X103660Y95684D01*
X104272Y95537D01*
X104900Y95488D01*
X105396Y95527D01*
Y53490D01*
X104634Y52248D01*
X103821Y50285D01*
X103325Y48218D01*
X103158Y46100D01*
X103325Y43982D01*
X103821Y41915D01*
X104634Y39952D01*
X105396Y38710D01*
Y28200D01*
G37*
G36*
X101243Y314000D02*X105396D01*
Y303490D01*
X104634Y302248D01*
X103821Y300285D01*
X103325Y298218D01*
X103158Y296100D01*
X103325Y293982D01*
X103821Y291915D01*
X104634Y289952D01*
X105396Y288710D01*
Y176362D01*
X105249Y176272D01*
X104914Y175986D01*
X104628Y175651D01*
X104397Y175275D01*
X104229Y174868D01*
X104126Y174439D01*
X104091Y174000D01*
X104126Y173561D01*
X104229Y173132D01*
X104397Y172725D01*
X104628Y172349D01*
X104914Y172014D01*
X105249Y171728D01*
X105396Y171638D01*
Y161808D01*
X104961Y161774D01*
X104532Y161671D01*
X104125Y161503D01*
X103749Y161272D01*
X103414Y160986D01*
X103128Y160651D01*
X102897Y160275D01*
X102729Y159868D01*
X102626Y159439D01*
X102591Y159000D01*
X102626Y158561D01*
X102729Y158132D01*
X102897Y157725D01*
X103128Y157349D01*
X103414Y157014D01*
X103749Y156728D01*
X104125Y156497D01*
X104532Y156329D01*
X104961Y156226D01*
X105396Y156192D01*
Y150118D01*
X105268Y150171D01*
X104839Y150274D01*
X104400Y150309D01*
X103961Y150274D01*
X103532Y150171D01*
X103125Y150003D01*
X102749Y149772D01*
X102414Y149486D01*
X102128Y149151D01*
X101897Y148775D01*
X101729Y148368D01*
X101626Y147939D01*
X101591Y147500D01*
X101626Y147061D01*
X101729Y146632D01*
X101897Y146225D01*
X102128Y145849D01*
X102414Y145514D01*
X102749Y145228D01*
X103125Y144997D01*
X103532Y144829D01*
X103961Y144726D01*
X104400Y144691D01*
X104839Y144726D01*
X105268Y144829D01*
X105396Y144882D01*
Y141808D01*
X104961Y141774D01*
X104532Y141671D01*
X104125Y141503D01*
X103749Y141272D01*
X103414Y140986D01*
X103128Y140651D01*
X102897Y140275D01*
X102729Y139868D01*
X102626Y139439D01*
X102591Y139000D01*
X102626Y138561D01*
X102729Y138132D01*
X102897Y137725D01*
X103128Y137349D01*
X103414Y137014D01*
X103749Y136728D01*
X104125Y136497D01*
X104532Y136329D01*
X104961Y136226D01*
X105396Y136192D01*
Y103473D01*
X104900Y103512D01*
X104272Y103463D01*
X103660Y103316D01*
X103078Y103075D01*
X102542Y102746D01*
X102063Y102337D01*
X101654Y101858D01*
X101325Y101322D01*
X101243Y101123D01*
Y138094D01*
X101350Y138353D01*
X101453Y138782D01*
X101479Y139221D01*
X101453Y139660D01*
X101350Y140089D01*
X101243Y140348D01*
Y149464D01*
X101403Y149725D01*
X101571Y150132D01*
X101674Y150561D01*
X101700Y151000D01*
X101674Y151439D01*
X101571Y151868D01*
X101403Y152275D01*
X101243Y152536D01*
Y157523D01*
X101309Y157631D01*
X101477Y158038D01*
X101580Y158467D01*
X101606Y158906D01*
X101580Y159345D01*
X101477Y159774D01*
X101309Y160181D01*
X101243Y160289D01*
Y161778D01*
X101461Y161726D01*
X101900Y161691D01*
X102339Y161726D01*
X102768Y161829D01*
X103175Y161997D01*
X103551Y162228D01*
X103886Y162514D01*
X104172Y162849D01*
X104403Y163225D01*
X104571Y163632D01*
X104674Y164061D01*
X104700Y164500D01*
X104674Y164939D01*
X104571Y165368D01*
X104403Y165775D01*
X104172Y166151D01*
X103886Y166486D01*
X103551Y166772D01*
X103175Y167003D01*
X102768Y167171D01*
X102339Y167274D01*
X101900Y167309D01*
X101461Y167274D01*
X101243Y167222D01*
Y168039D01*
X101551Y168228D01*
X101886Y168514D01*
X102172Y168849D01*
X102403Y169225D01*
X102571Y169632D01*
X102674Y170061D01*
X102700Y170500D01*
X102674Y170939D01*
X102571Y171368D01*
X102403Y171775D01*
X102172Y172151D01*
X101886Y172486D01*
X101551Y172772D01*
X101243Y172961D01*
Y174845D01*
X101247Y174844D01*
X101686Y174879D01*
X102115Y174982D01*
X102522Y175150D01*
X102898Y175381D01*
X103233Y175667D01*
X103519Y176002D01*
X103750Y176378D01*
X103918Y176785D01*
X104021Y177214D01*
X104047Y177653D01*
X104021Y178092D01*
X103918Y178521D01*
X103750Y178928D01*
X103519Y179304D01*
X103233Y179639D01*
X102898Y179925D01*
X102522Y180156D01*
X102115Y180324D01*
X101686Y180427D01*
X101247Y180462D01*
X101243Y180461D01*
Y314000D01*
G37*
G36*
X90396D02*X101243D01*
Y180461D01*
X100808Y180427D01*
X100379Y180324D01*
X99972Y180156D01*
X99596Y179925D01*
X99261Y179639D01*
X98975Y179304D01*
X98744Y178928D01*
X98576Y178521D01*
X98473Y178092D01*
X98438Y177653D01*
X98473Y177214D01*
X98576Y176785D01*
X98744Y176378D01*
X98975Y176002D01*
X99261Y175667D01*
X99596Y175381D01*
X99972Y175150D01*
X100379Y174982D01*
X100808Y174879D01*
X101243Y174845D01*
Y172961D01*
X101175Y173003D01*
X100768Y173171D01*
X100339Y173274D01*
X99900Y173309D01*
X99461Y173274D01*
X99032Y173171D01*
X98625Y173003D01*
X98249Y172772D01*
X97914Y172486D01*
X97628Y172151D01*
X97397Y171775D01*
X97229Y171368D01*
X97126Y170939D01*
X97091Y170500D01*
X97126Y170061D01*
X97229Y169632D01*
X97397Y169225D01*
X97628Y168849D01*
X97914Y168514D01*
X98249Y168228D01*
X98625Y167997D01*
X99032Y167829D01*
X99461Y167726D01*
X99900Y167691D01*
X100339Y167726D01*
X100768Y167829D01*
X101175Y167997D01*
X101243Y168039D01*
Y167222D01*
X101032Y167171D01*
X100625Y167003D01*
X100249Y166772D01*
X99914Y166486D01*
X99628Y166151D01*
X99397Y165775D01*
X99229Y165368D01*
X99126Y164939D01*
X99091Y164500D01*
X99126Y164061D01*
X99229Y163632D01*
X99397Y163225D01*
X99628Y162849D01*
X99914Y162514D01*
X100249Y162228D01*
X100625Y161997D01*
X101032Y161829D01*
X101243Y161778D01*
Y160289D01*
X101078Y160557D01*
X100792Y160892D01*
X100457Y161178D01*
X100081Y161409D01*
X99674Y161577D01*
X99245Y161680D01*
X98806Y161715D01*
X98367Y161680D01*
X97938Y161577D01*
X97531Y161409D01*
X97155Y161178D01*
X96820Y160892D01*
X96534Y160557D01*
X96303Y160181D01*
X96135Y159774D01*
X96032Y159345D01*
X95997Y158906D01*
X96032Y158467D01*
X96135Y158038D01*
X96303Y157631D01*
X96534Y157255D01*
X96820Y156920D01*
X97155Y156634D01*
X97531Y156403D01*
X97938Y156235D01*
X98367Y156132D01*
X98806Y156097D01*
X99245Y156132D01*
X99674Y156235D01*
X100081Y156403D01*
X100457Y156634D01*
X100792Y156920D01*
X101078Y157255D01*
X101243Y157523D01*
Y152536D01*
X101172Y152651D01*
X100886Y152986D01*
X100551Y153272D01*
X100175Y153503D01*
X99768Y153671D01*
X99339Y153774D01*
X98900Y153809D01*
X98461Y153774D01*
X98032Y153671D01*
X97625Y153503D01*
X97249Y153272D01*
X96914Y152986D01*
X96628Y152651D01*
X96397Y152275D01*
X96229Y151868D01*
X96126Y151439D01*
X96091Y151000D01*
X96126Y150561D01*
X96229Y150132D01*
X96397Y149725D01*
X96628Y149349D01*
X96914Y149014D01*
X97249Y148728D01*
X97625Y148497D01*
X98032Y148329D01*
X98461Y148226D01*
X98900Y148191D01*
X99339Y148226D01*
X99768Y148329D01*
X100175Y148497D01*
X100551Y148728D01*
X100886Y149014D01*
X101172Y149349D01*
X101243Y149464D01*
Y140348D01*
X101182Y140496D01*
X100951Y140872D01*
X100665Y141207D01*
X100330Y141493D01*
X99954Y141724D01*
X99547Y141892D01*
X99118Y141995D01*
X98679Y142030D01*
X98240Y141995D01*
X97811Y141892D01*
X97404Y141724D01*
X97028Y141493D01*
X96693Y141207D01*
X96407Y140872D01*
X96176Y140496D01*
X96008Y140089D01*
X95905Y139660D01*
X95870Y139221D01*
X95905Y138782D01*
X96008Y138353D01*
X96176Y137946D01*
X96407Y137570D01*
X96693Y137235D01*
X97028Y136949D01*
X97404Y136718D01*
X97811Y136550D01*
X98240Y136447D01*
X98679Y136412D01*
X99118Y136447D01*
X99547Y136550D01*
X99954Y136718D01*
X100330Y136949D01*
X100665Y137235D01*
X100951Y137570D01*
X101182Y137946D01*
X101243Y138094D01*
Y101123D01*
X101084Y100740D01*
X100937Y100128D01*
X100888Y99500D01*
X100937Y98872D01*
X101084Y98260D01*
X101243Y97877D01*
Y28200D01*
X90396D01*
Y103527D01*
X90900Y103488D01*
X91528Y103537D01*
X92140Y103684D01*
X92722Y103925D01*
X93258Y104254D01*
X93737Y104663D01*
X94146Y105142D01*
X94475Y105678D01*
X94716Y106260D01*
X94863Y106872D01*
X94900Y107500D01*
X94863Y108128D01*
X94716Y108740D01*
X94475Y109322D01*
X94146Y109858D01*
X93737Y110337D01*
X93258Y110746D01*
X92722Y111075D01*
X92140Y111316D01*
X91528Y111463D01*
X90900Y111512D01*
X90396Y111473D01*
Y117294D01*
X90660Y117184D01*
X91272Y117037D01*
X91900Y116988D01*
X92528Y117037D01*
X93140Y117184D01*
X93722Y117425D01*
X94258Y117754D01*
X94737Y118163D01*
X95146Y118642D01*
X95475Y119178D01*
X95716Y119760D01*
X95863Y120372D01*
X95900Y121000D01*
X95863Y121628D01*
X95716Y122240D01*
X95475Y122822D01*
X95146Y123358D01*
X94737Y123837D01*
X94258Y124246D01*
X93722Y124575D01*
X93140Y124816D01*
X92528Y124963D01*
X91900Y125012D01*
X91272Y124963D01*
X90660Y124816D01*
X90396Y124706D01*
Y178192D01*
X90400Y178191D01*
X90839Y178226D01*
X91268Y178329D01*
X91675Y178497D01*
X92051Y178728D01*
X92386Y179014D01*
X92672Y179349D01*
X92903Y179725D01*
X93071Y180132D01*
X93174Y180561D01*
X93200Y181000D01*
X93174Y181439D01*
X93071Y181868D01*
X92903Y182275D01*
X92672Y182651D01*
X92386Y182986D01*
X92051Y183272D01*
X91675Y183503D01*
X91268Y183671D01*
X90839Y183774D01*
X90400Y183809D01*
X90396Y183808D01*
Y314000D01*
G37*
G36*
X82396D02*X90396D01*
Y183808D01*
X89961Y183774D01*
X89532Y183671D01*
X89125Y183503D01*
X88749Y183272D01*
X88414Y182986D01*
X88128Y182651D01*
X87897Y182275D01*
X87729Y181868D01*
X87626Y181439D01*
X87591Y181000D01*
X87626Y180561D01*
X87729Y180132D01*
X87897Y179725D01*
X88128Y179349D01*
X88414Y179014D01*
X88749Y178728D01*
X89125Y178497D01*
X89532Y178329D01*
X89961Y178226D01*
X90396Y178192D01*
Y124706D01*
X90078Y124575D01*
X89542Y124246D01*
X89063Y123837D01*
X88654Y123358D01*
X88325Y122822D01*
X88084Y122240D01*
X87937Y121628D01*
X87888Y121000D01*
X87937Y120372D01*
X88084Y119760D01*
X88325Y119178D01*
X88654Y118642D01*
X89063Y118163D01*
X89542Y117754D01*
X90078Y117425D01*
X90396Y117294D01*
Y111473D01*
X90272Y111463D01*
X89660Y111316D01*
X89078Y111075D01*
X88542Y110746D01*
X88063Y110337D01*
X87654Y109858D01*
X87325Y109322D01*
X87084Y108740D01*
X86937Y108128D01*
X86888Y107500D01*
X86937Y106872D01*
X87084Y106260D01*
X87325Y105678D01*
X87654Y105142D01*
X88063Y104663D01*
X88542Y104254D01*
X89078Y103925D01*
X89660Y103684D01*
X90272Y103537D01*
X90396Y103527D01*
Y28200D01*
X82396D01*
Y146692D01*
X82400Y146691D01*
X82839Y146726D01*
X83268Y146829D01*
X83675Y146997D01*
X84051Y147228D01*
X84386Y147514D01*
X84672Y147849D01*
X84903Y148225D01*
X85071Y148632D01*
X85174Y149061D01*
X85200Y149500D01*
X85174Y149939D01*
X85071Y150368D01*
X84903Y150775D01*
X84672Y151151D01*
X84386Y151486D01*
X84051Y151772D01*
X83675Y152003D01*
X83268Y152171D01*
X82839Y152274D01*
X82400Y152309D01*
X82396Y152308D01*
Y194379D01*
X82542Y194254D01*
X83078Y193925D01*
X83660Y193684D01*
X84272Y193537D01*
X84900Y193488D01*
X85528Y193537D01*
X86140Y193684D01*
X86722Y193925D01*
X87258Y194254D01*
X87737Y194663D01*
X88146Y195142D01*
X88475Y195678D01*
X88716Y196260D01*
X88863Y196872D01*
X88900Y197500D01*
X88863Y198128D01*
X88716Y198740D01*
X88475Y199322D01*
X88146Y199858D01*
X87737Y200337D01*
X87258Y200746D01*
X86722Y201075D01*
X86140Y201316D01*
X85528Y201463D01*
X84900Y201512D01*
X84272Y201463D01*
X83660Y201316D01*
X83078Y201075D01*
X82542Y200746D01*
X82396Y200621D01*
Y314000D01*
G37*
G36*
X76396D02*X82396D01*
Y200621D01*
X82063Y200337D01*
X81654Y199858D01*
X81325Y199322D01*
X81084Y198740D01*
X80937Y198128D01*
X80888Y197500D01*
X80937Y196872D01*
X81084Y196260D01*
X81325Y195678D01*
X81654Y195142D01*
X82063Y194663D01*
X82396Y194379D01*
Y152308D01*
X81961Y152274D01*
X81532Y152171D01*
X81125Y152003D01*
X80749Y151772D01*
X80414Y151486D01*
X80128Y151151D01*
X79897Y150775D01*
X79729Y150368D01*
X79626Y149939D01*
X79591Y149500D01*
X79626Y149061D01*
X79729Y148632D01*
X79897Y148225D01*
X80128Y147849D01*
X80414Y147514D01*
X80749Y147228D01*
X81125Y146997D01*
X81532Y146829D01*
X81961Y146726D01*
X82396Y146692D01*
Y28200D01*
X76396D01*
Y141525D01*
X76672Y141849D01*
X76903Y142225D01*
X77071Y142632D01*
X77174Y143061D01*
X77200Y143500D01*
X77174Y143939D01*
X77071Y144368D01*
X76903Y144775D01*
X76672Y145151D01*
X76396Y145475D01*
Y146692D01*
X76400Y146691D01*
X76839Y146726D01*
X77268Y146829D01*
X77675Y146997D01*
X78051Y147228D01*
X78386Y147514D01*
X78672Y147849D01*
X78903Y148225D01*
X79071Y148632D01*
X79174Y149061D01*
X79200Y149500D01*
X79174Y149939D01*
X79071Y150368D01*
X78903Y150775D01*
X78672Y151151D01*
X78386Y151486D01*
X78051Y151772D01*
X77675Y152003D01*
X77268Y152171D01*
X76839Y152274D01*
X76400Y152309D01*
X76396Y152308D01*
Y186133D01*
X76551Y186228D01*
X76886Y186514D01*
X77172Y186849D01*
X77403Y187225D01*
X77571Y187632D01*
X77674Y188061D01*
X77700Y188500D01*
X77674Y188939D01*
X77571Y189368D01*
X77403Y189775D01*
X77172Y190151D01*
X76886Y190486D01*
X76551Y190772D01*
X76396Y190867D01*
Y314000D01*
G37*
G36*
X68396D02*X76396D01*
Y190867D01*
X76175Y191003D01*
X75768Y191171D01*
X75339Y191274D01*
X74900Y191309D01*
X74461Y191274D01*
X74032Y191171D01*
X73625Y191003D01*
X73249Y190772D01*
X72914Y190486D01*
X72628Y190151D01*
X72397Y189775D01*
X72229Y189368D01*
X72126Y188939D01*
X72091Y188500D01*
X72126Y188061D01*
X72229Y187632D01*
X72397Y187225D01*
X72628Y186849D01*
X72914Y186514D01*
X73249Y186228D01*
X73625Y185997D01*
X74032Y185829D01*
X74461Y185726D01*
X74900Y185691D01*
X75339Y185726D01*
X75768Y185829D01*
X76175Y185997D01*
X76396Y186133D01*
Y152308D01*
X75961Y152274D01*
X75532Y152171D01*
X75125Y152003D01*
X74749Y151772D01*
X74414Y151486D01*
X74128Y151151D01*
X73897Y150775D01*
X73729Y150368D01*
X73626Y149939D01*
X73591Y149500D01*
X73626Y149061D01*
X73729Y148632D01*
X73897Y148225D01*
X74128Y147849D01*
X74414Y147514D01*
X74749Y147228D01*
X75125Y146997D01*
X75532Y146829D01*
X75961Y146726D01*
X76396Y146692D01*
Y145475D01*
X76386Y145486D01*
X76051Y145772D01*
X75675Y146003D01*
X75268Y146171D01*
X74839Y146274D01*
X74400Y146309D01*
X73961Y146274D01*
X73532Y146171D01*
X73125Y146003D01*
X72749Y145772D01*
X72414Y145486D01*
X72128Y145151D01*
X71897Y144775D01*
X71729Y144368D01*
X71626Y143939D01*
X71591Y143500D01*
X71626Y143061D01*
X71729Y142632D01*
X71897Y142225D01*
X72128Y141849D01*
X72414Y141514D01*
X72749Y141228D01*
X73125Y140997D01*
X73532Y140829D01*
X73961Y140726D01*
X74400Y140691D01*
X74839Y140726D01*
X75268Y140829D01*
X75675Y140997D01*
X76051Y141228D01*
X76386Y141514D01*
X76396Y141525D01*
Y28200D01*
X68396D01*
Y185692D01*
X68400Y185691D01*
X68839Y185726D01*
X69268Y185829D01*
X69675Y185997D01*
X70051Y186228D01*
X70386Y186514D01*
X70672Y186849D01*
X70903Y187225D01*
X71071Y187632D01*
X71174Y188061D01*
X71200Y188500D01*
X71174Y188939D01*
X71071Y189368D01*
X70903Y189775D01*
X70672Y190151D01*
X70386Y190486D01*
X70051Y190772D01*
X69675Y191003D01*
X69268Y191171D01*
X68839Y191274D01*
X68400Y191309D01*
X68396Y191308D01*
Y314000D01*
G37*
G36*
X61896D02*X68396D01*
Y191308D01*
X67961Y191274D01*
X67532Y191171D01*
X67125Y191003D01*
X66749Y190772D01*
X66414Y190486D01*
X66128Y190151D01*
X65897Y189775D01*
X65729Y189368D01*
X65626Y188939D01*
X65591Y188500D01*
X65626Y188061D01*
X65729Y187632D01*
X65897Y187225D01*
X66128Y186849D01*
X66414Y186514D01*
X66749Y186228D01*
X67125Y185997D01*
X67532Y185829D01*
X67961Y185726D01*
X68396Y185692D01*
Y28200D01*
X61896D01*
Y185692D01*
X61900Y185691D01*
X62339Y185726D01*
X62768Y185829D01*
X63175Y185997D01*
X63551Y186228D01*
X63886Y186514D01*
X64172Y186849D01*
X64403Y187225D01*
X64571Y187632D01*
X64674Y188061D01*
X64700Y188500D01*
X64674Y188939D01*
X64571Y189368D01*
X64403Y189775D01*
X64172Y190151D01*
X63886Y190486D01*
X63551Y190772D01*
X63175Y191003D01*
X62768Y191171D01*
X62339Y191274D01*
X61900Y191309D01*
X61896Y191308D01*
Y314000D01*
G37*
G36*
X55396D02*X61896D01*
Y191308D01*
X61461Y191274D01*
X61032Y191171D01*
X60625Y191003D01*
X60249Y190772D01*
X59914Y190486D01*
X59628Y190151D01*
X59397Y189775D01*
X59229Y189368D01*
X59126Y188939D01*
X59091Y188500D01*
X59126Y188061D01*
X59229Y187632D01*
X59397Y187225D01*
X59628Y186849D01*
X59914Y186514D01*
X60249Y186228D01*
X60625Y185997D01*
X61032Y185829D01*
X61461Y185726D01*
X61896Y185692D01*
Y28200D01*
X55396D01*
Y185692D01*
X55400Y185691D01*
X55839Y185726D01*
X56268Y185829D01*
X56675Y185997D01*
X57051Y186228D01*
X57386Y186514D01*
X57672Y186849D01*
X57903Y187225D01*
X58071Y187632D01*
X58174Y188061D01*
X58200Y188500D01*
X58174Y188939D01*
X58071Y189368D01*
X57903Y189775D01*
X57672Y190151D01*
X57386Y190486D01*
X57051Y190772D01*
X56675Y191003D01*
X56268Y191171D01*
X55839Y191274D01*
X55400Y191309D01*
X55396Y191308D01*
Y314000D01*
G37*
G36*
X43394D02*X55396D01*
Y191308D01*
X54961Y191274D01*
X54532Y191171D01*
X54125Y191003D01*
X53749Y190772D01*
X53414Y190486D01*
X53128Y190151D01*
X52897Y189775D01*
X52729Y189368D01*
X52626Y188939D01*
X52591Y188500D01*
X52626Y188061D01*
X52729Y187632D01*
X52897Y187225D01*
X53128Y186849D01*
X53414Y186514D01*
X53749Y186228D01*
X54125Y185997D01*
X54532Y185829D01*
X54961Y185726D01*
X55396Y185692D01*
Y28200D01*
X43394D01*
Y34369D01*
X44660Y35145D01*
X46275Y36525D01*
X47655Y38140D01*
X48766Y39952D01*
X49579Y41915D01*
X50075Y43982D01*
X50200Y46100D01*
X50075Y48218D01*
X49579Y50285D01*
X48766Y52248D01*
X47655Y54060D01*
X46275Y55675D01*
X44660Y57055D01*
X43394Y57831D01*
Y87566D01*
X43654Y87142D01*
X44063Y86663D01*
X44542Y86254D01*
X45078Y85925D01*
X45660Y85684D01*
X46272Y85537D01*
X46900Y85488D01*
X47528Y85537D01*
X48140Y85684D01*
X48722Y85925D01*
X49258Y86254D01*
X49737Y86663D01*
X50146Y87142D01*
X50475Y87678D01*
X50716Y88260D01*
X50863Y88872D01*
X50900Y89500D01*
X50863Y90128D01*
X50716Y90740D01*
X50475Y91322D01*
X50146Y91858D01*
X49737Y92337D01*
X49258Y92746D01*
X48722Y93075D01*
X48140Y93316D01*
X47528Y93463D01*
X46900Y93512D01*
X46272Y93463D01*
X45660Y93316D01*
X45078Y93075D01*
X44542Y92746D01*
X44063Y92337D01*
X43654Y91858D01*
X43394Y91434D01*
Y190988D01*
X43400Y190988D01*
X44028Y191037D01*
X44640Y191184D01*
X45222Y191425D01*
X45758Y191754D01*
X46237Y192163D01*
X46646Y192642D01*
X46975Y193178D01*
X47216Y193760D01*
X47363Y194372D01*
X47400Y195000D01*
X47363Y195628D01*
X47216Y196240D01*
X46975Y196822D01*
X46646Y197358D01*
X46237Y197837D01*
X45758Y198246D01*
X45222Y198575D01*
X44640Y198816D01*
X44028Y198963D01*
X43400Y199012D01*
X43394Y199012D01*
Y284369D01*
X44660Y285145D01*
X46275Y286525D01*
X47655Y288140D01*
X48766Y289952D01*
X49579Y291915D01*
X50075Y293982D01*
X50200Y296100D01*
X50075Y298218D01*
X49579Y300285D01*
X48766Y302248D01*
X47655Y304060D01*
X46275Y305675D01*
X44660Y307055D01*
X43394Y307831D01*
Y314000D01*
G37*
G36*
X38394Y32692D02*X38818Y32725D01*
X40885Y33221D01*
X42848Y34034D01*
X43394Y34369D01*
Y28200D01*
X38394D01*
Y32692D01*
G37*
G36*
Y282692D02*X38818Y282725D01*
X40885Y283221D01*
X42848Y284034D01*
X43394Y284369D01*
Y199012D01*
X42772Y198963D01*
X42160Y198816D01*
X41578Y198575D01*
X41042Y198246D01*
X40563Y197837D01*
X40154Y197358D01*
X39825Y196822D01*
X39584Y196240D01*
X39437Y195628D01*
X39388Y195000D01*
X39437Y194372D01*
X39584Y193760D01*
X39825Y193178D01*
X40154Y192642D01*
X40563Y192163D01*
X41042Y191754D01*
X41578Y191425D01*
X42160Y191184D01*
X42772Y191037D01*
X43394Y190988D01*
Y91434D01*
X43325Y91322D01*
X43084Y90740D01*
X42937Y90128D01*
X42888Y89500D01*
X42937Y88872D01*
X43084Y88260D01*
X43325Y87678D01*
X43394Y87566D01*
Y57831D01*
X42848Y58166D01*
X40885Y58979D01*
X38818Y59475D01*
X38394Y59508D01*
Y135988D01*
X38400Y135988D01*
X39028Y136037D01*
X39640Y136184D01*
X40222Y136425D01*
X40758Y136754D01*
X41237Y137163D01*
X41646Y137642D01*
X41975Y138178D01*
X42216Y138760D01*
X42363Y139372D01*
X42400Y140000D01*
X42363Y140628D01*
X42216Y141240D01*
X41975Y141822D01*
X41646Y142358D01*
X41237Y142837D01*
X40758Y143246D01*
X40222Y143575D01*
X39640Y143816D01*
X39028Y143963D01*
X38400Y144012D01*
X38394Y144012D01*
Y282692D01*
G37*
G36*
Y314000D02*X43394D01*
Y307831D01*
X42848Y308166D01*
X40885Y308979D01*
X38818Y309475D01*
X38394Y309508D01*
Y314000D01*
G37*
G36*
X17300D02*X38394D01*
Y309508D01*
X36700Y309642D01*
X34582Y309475D01*
X32515Y308979D01*
X30552Y308166D01*
X28740Y307055D01*
X27125Y305675D01*
X25745Y304060D01*
X24634Y302248D01*
X23821Y300285D01*
X23325Y298218D01*
X23158Y296100D01*
X23325Y293982D01*
X23821Y291915D01*
X24634Y289952D01*
X25745Y288140D01*
X27125Y286525D01*
X28740Y285145D01*
X30552Y284034D01*
X32515Y283221D01*
X34582Y282725D01*
X36700Y282558D01*
X38394Y282692D01*
Y144012D01*
X37772Y143963D01*
X37160Y143816D01*
X36578Y143575D01*
X36042Y143246D01*
X35563Y142837D01*
X35154Y142358D01*
X34825Y141822D01*
X34584Y141240D01*
X34437Y140628D01*
X34388Y140000D01*
X34437Y139372D01*
X34584Y138760D01*
X34825Y138178D01*
X35154Y137642D01*
X35563Y137163D01*
X36042Y136754D01*
X36578Y136425D01*
X37160Y136184D01*
X37772Y136037D01*
X38394Y135988D01*
Y59508D01*
X36700Y59642D01*
X34582Y59475D01*
X32515Y58979D01*
X30552Y58166D01*
X28740Y57055D01*
X27125Y55675D01*
X25745Y54060D01*
X24634Y52248D01*
X23821Y50285D01*
X23325Y48218D01*
X23158Y46100D01*
X23325Y43982D01*
X23821Y41915D01*
X24634Y39952D01*
X25745Y38140D01*
X27125Y36525D01*
X28740Y35145D01*
X30552Y34034D01*
X32515Y33221D01*
X34582Y32725D01*
X36700Y32558D01*
X38394Y32692D01*
Y28200D01*
X17300D01*
Y314000D01*
G37*
G54D64*X385800Y110600D02*Y80600D01*
X380300Y116100D02*X385800Y110600D01*
X347300Y116100D02*X380300D01*
X347721Y86521D02*X347800Y86600D01*
X363300Y91600D02*X356300Y84600D01*
X363300Y105100D02*Y91600D01*
X360226Y108174D02*X363300Y105100D01*
X355713Y99513D02*X357800Y101600D01*
X328847Y108174D02*X360226D01*
X335048Y137486D02*X390777D01*
X328847Y99513D02*X355713D01*
X399800Y73280D02*X392960Y66440D01*
X392056Y65536D02*X392647Y66127D01*
X359950Y65536D02*X392056D01*
X399800Y131100D02*Y73280D01*
X392647Y138253D02*X399800Y131100D01*
X392647Y139356D02*Y138253D01*
X390777Y137486D02*X392647Y139356D01*
X347052Y115852D02*X347300Y116100D01*
X328847Y115852D02*X347052D01*
X317202Y119198D02*X316800Y119600D01*
X328847Y119198D02*X317202D01*
X328847Y103844D02*X322056D01*
X336800Y68600D02*Y77600D01*
X332800Y64600D02*X336800Y68600D01*
X359886Y65600D02*X359950Y65536D01*
X325800Y64600D02*X332800D01*
X322300Y68100D02*X325800Y64600D01*
X322300Y87600D02*Y68100D01*
X325552Y90852D02*X322300Y87600D01*
X328847Y90852D02*X325552D01*
X328847Y86521D02*X347721D01*
X322882Y95182D02*X322800Y95100D01*
X328847Y95182D02*X322882D01*
G54D63*G36*
X91400Y385500D02*Y379500D01*
X97400D01*
Y385500D01*
X91400D01*
G37*
G54D65*X104400Y382500D03*
X94400Y372500D03*
X104400D03*
X94400Y362500D03*
X104400D03*
G54D63*G36*
X236650Y128750D02*Y123250D01*
X242150D01*
Y128750D01*
X236650D01*
G37*
G54D66*X259400Y126000D03*
G54D67*X396700Y46100D03*
X316700D03*
G54D65*X94400Y352500D03*
G54D67*X36700Y296100D03*
Y46100D03*
X116700D03*
G54D65*X104400Y352500D03*
G54D67*X396700Y296100D03*
X116700D03*
X316700D03*
G54D63*G36*
X129900Y383000D02*Y377000D01*
X135900D01*
Y383000D01*
X129900D01*
G37*
G54D65*X132900Y370000D03*
Y360000D03*
Y350000D03*
X142900Y380000D03*
Y370000D03*
Y360000D03*
Y350000D03*
G54D68*X327469Y119198D02*X330225D01*
G54D69*X327470Y115852D02*X330224D01*
G54D68*X327469Y112505D02*X330225D01*
X327469Y108174D02*X330225D01*
G54D70*X330815Y137388D02*Y129710D01*
G54D71*X330717Y137486D02*X339379D01*
G54D68*X327469Y103844D02*X330225D01*
X327469Y99513D02*X330225D01*
X327469Y95182D02*X330225D01*
G54D69*X327470Y90852D02*X330224D01*
G54D68*X327469Y86521D02*X330225D01*
X327469Y82190D02*X330225D01*
G54D72*X359950Y65910D02*Y65163D01*
G54D73*X357886Y48045D02*Y42730D01*
X350012Y48045D02*Y42730D01*
Y21470D02*Y16155D01*
G54D72*X364950Y65910D02*Y65163D01*
G54D73*X365760Y48045D02*Y42730D01*
Y21470D02*Y16155D01*
G54D72*X369950Y65910D02*Y65163D01*
X374950Y65910D02*Y65163D01*
X379950Y65910D02*Y65163D01*
X384950Y65910D02*Y65163D01*
G54D73*X391072Y66127D02*X394222D01*
G54D70*X330815Y76758D02*Y68884D01*
G54D74*X391072Y139356D02*X394222D01*
G54D73*X417048Y198833D02*Y193518D01*
X409174Y198833D02*Y193518D01*
X401300Y198833D02*Y193518D01*
X417048Y172258D02*Y166943D01*
X401300Y172258D02*Y166943D01*
X369174Y255545D02*Y250230D01*
Y228970D02*Y223655D01*
X403174Y255545D02*Y250230D01*
X395300Y255545D02*Y250230D01*
X387426Y255545D02*Y250230D01*
X403174Y228970D02*Y223655D01*
X387426Y228970D02*Y223655D01*
X359274Y373945D02*Y368630D01*
Y347370D02*Y342055D01*
X351400Y373945D02*Y368630D01*
X343526Y373945D02*Y368630D01*
Y347370D02*Y342055D01*
X360926Y301833D02*Y296518D01*
X361426Y210333D02*Y205018D01*
X353552Y210333D02*Y205018D01*
Y183758D02*Y178443D01*
X353052Y301833D02*Y296518D01*
Y275258D02*Y269943D01*
X361300Y255545D02*Y250230D01*
X368800Y301833D02*Y296518D01*
Y275258D02*Y269943D01*
X369300Y210333D02*Y205018D01*
Y183758D02*Y178443D01*
X328048Y254257D02*Y248942D01*
X320174Y254257D02*Y248942D01*
X353426Y255545D02*Y250230D01*
X312300Y254257D02*Y248942D01*
X328048Y227682D02*Y222367D01*
X312300Y227682D02*Y222367D01*
X353426Y228970D02*Y223655D01*
X317300Y198833D02*Y193518D01*
Y172258D02*Y166943D01*
X309426Y198833D02*Y193518D01*
X301552Y198833D02*Y193518D01*
Y172258D02*Y166943D01*
G54D75*X101247Y177653D03*
X99900Y170500D03*
X90400Y181000D03*
X98806Y158906D03*
X98679Y139221D03*
X105400Y139000D03*
X98900Y151000D03*
X104400Y147500D03*
G54D65*X104900Y99500D03*
G54D75*X101900Y164500D03*
X105400Y159000D03*
X114400Y199000D03*
X106900Y174000D03*
X110900Y169500D03*
X114900Y174000D03*
X119400Y169500D03*
G54D65*X155400Y120000D03*
X152400Y184500D03*
X172400D03*
G54D75*X194400Y191000D03*
X213900D03*
G54D65*X155400Y105000D03*
X322800Y95100D03*
X302800D03*
X356300Y84600D03*
X357800Y101600D03*
X347800Y86600D03*
X337300Y93100D03*
X359800Y74600D03*
X336800Y77600D03*
X385800Y80600D03*
X322056Y103844D03*
X316800Y119600D03*
X347300Y116100D03*
X336800Y123100D03*
X371800Y131100D03*
X358300D03*
X302800Y111600D03*
G54D75*X82400Y149500D03*
G54D65*X91900Y121000D03*
X90900Y107500D03*
G54D75*X76400Y149500D03*
X74400Y143500D03*
X61900Y188500D03*
X68400D03*
X74900D03*
X55400D03*
G54D65*X84900Y197500D03*
X43400Y195000D03*
X38400Y140000D03*
X46900Y89500D03*
X206900Y385000D03*
X259900Y387000D03*
G54D75*X205900Y365500D03*
G54D65*X242900Y373500D03*
G54D76*G54D77*G54D76*G54D77*G54D76*G54D77*G54D76*G54D77*G54D76*G54D77*G54D76*G54D77*G54D78*G54D79*G54D80*G54D78*G54D80*G54D78*G54D80*G54D78*M02*
