G04 start of page 10 for group -4079 idx -4079 *
G04 Title: (unknown), topsilk *
G04 Creator: pcb 20110918 *
G04 CreationDate: Wed Oct  9 22:18:47 2013 UTC *
G04 For: fosse *
G04 Format: Gerber/RS-274X *
G04 PCB-Dimensions: 455000 500000 *
G04 PCB-Coordinate-Origin: lower left *
%MOIN*%
%FSLAX25Y25*%
%LNTOPSILK*%
%ADD128C,0.0060*%
%ADD127C,0.0079*%
%ADD126C,0.0200*%
%ADD125C,0.0080*%
%ADD124C,0.0100*%
G54D124*X200400Y343000D02*X267900D01*
X200400Y395500D02*X267900D01*
X200400D02*Y343000D01*
X267900Y395500D02*Y343000D01*
X224400Y401500D02*Y397500D01*
Y401500D02*X225900Y399500D01*
X227400Y401500D01*
Y397500D01*
X228600Y400500D02*Y400400D01*
Y399000D02*Y397500D01*
X230100Y399500D02*X231600D01*
X229600Y399000D02*X230100Y399500D01*
X229600Y399000D02*Y398000D01*
X230100Y397500D01*
X231600D01*
X232800D02*X233300D01*
X236300D02*X238300D01*
X238800Y398000D01*
Y399200D02*Y398000D01*
X238300Y399700D02*X238800Y399200D01*
X236800Y399700D02*X238300D01*
X236800Y401500D02*Y397500D01*
X236300Y401500D02*X238300D01*
X238800Y401000D01*
Y400200D01*
X238300Y399700D02*X238800Y400200D01*
X240000Y400500D02*Y400400D01*
Y399000D02*Y397500D01*
X242500Y399500D02*X243000Y399000D01*
X241500Y399500D02*X242500D01*
X241000Y399000D02*X241500Y399500D01*
X241000Y399000D02*Y398000D01*
X241500Y397500D01*
X243000Y399500D02*Y398000D01*
X243500Y397500D01*
X241500D02*X242500D01*
X243000Y398000D01*
X245200Y397500D02*X246700D01*
X247200Y398000D01*
X246700Y398500D02*X247200Y398000D01*
X245200Y398500D02*X246700D01*
X244700Y399000D02*X245200Y398500D01*
X244700Y399000D02*X245200Y399500D01*
X246700D01*
X247200Y399000D01*
X244700Y398000D02*X245200Y397500D01*
X250900D02*X252200D01*
X250200Y398200D02*X250900Y397500D01*
X250200Y400800D02*Y398200D01*
Y400800D02*X250900Y401500D01*
X252200D01*
X253400Y400500D02*Y400400D01*
Y399000D02*Y397500D01*
X254900Y399000D02*Y397500D01*
Y399000D02*X255400Y399500D01*
X256400D01*
X254400D02*X254900Y399000D01*
X258100Y399500D02*X259600D01*
X257600Y399000D02*X258100Y399500D01*
X257600Y399000D02*Y398000D01*
X258100Y397500D01*
X259600D01*
X260800Y399500D02*Y398000D01*
X261300Y397500D01*
X262300D01*
X262800Y398000D01*
Y399500D02*Y398000D01*
X264000Y400500D02*Y400400D01*
Y399000D02*Y397500D01*
X265500Y401500D02*Y398000D01*
X266000Y397500D01*
X265000Y400000D02*X266000D01*
X62950Y218000D02*Y204100D01*
X75350D01*
Y218000D01*
X62950D01*
G54D125*X95507Y196755D02*X96293D01*
X95507Y191245D02*X96293D01*
X69507Y184755D02*X70293D01*
X69507Y179245D02*X70293D01*
X69507Y172755D02*X70293D01*
X69507Y167245D02*X70293D01*
G54D124*X84950Y218500D02*Y204600D01*
X97350D01*
Y218500D01*
X84950D01*
X39500Y218000D02*Y204100D01*
X51900D01*
Y218000D01*
X39500D01*
G54D125*X364076Y301931D02*X364862D01*
X364076Y296421D02*X364862D01*
X378864Y246855D02*X379650D01*
X378864Y241345D02*X379650D01*
G54D124*X356350Y245600D02*Y231700D01*
X368750D01*
Y245600D01*
X356350D01*
X353950Y292500D02*Y278600D01*
X366350D01*
Y292500D01*
X353950D01*
G54D125*X342407Y306355D02*X343193D01*
X342407Y300845D02*X343193D01*
G54D124*X89400Y387500D02*Y347500D01*
X109400D01*
Y387500D01*
X89400D01*
Y377500D02*X99400D01*
Y387500D01*
X127900Y385000D02*Y345000D01*
X147900D01*
Y385000D01*
X127900D01*
Y375000D02*X137900D01*
Y385000D01*
X188405Y291401D02*Y303016D01*
X131318D02*Y291401D01*
X134271Y303016D02*X131318D01*
X188405D02*X185452D01*
X188405Y291401D02*X185452D01*
X134271D02*X131318D01*
X178563Y309118D02*Y313252D01*
Y309118D02*X177381Y310299D01*
X178563Y309118D02*X179744Y310299D01*
X177381D02*X179744D01*
G54D125*X401943Y386740D02*X406667D01*
X401943Y379260D02*X406667D01*
X406443Y346740D02*X411167D01*
X406443Y339260D02*X411167D01*
G54D126*X320100Y424700D02*Y406300D01*
G54D124*X327300Y403700D01*
X362500D01*
Y427300D01*
X327300D01*
X320100Y424700D01*
G54D125*X316602Y446755D02*X317388D01*
X316602Y441245D02*X317388D01*
X340602Y446755D02*X341388D01*
X340602Y441245D02*X341388D01*
X365102Y446755D02*X365888D01*
X365102Y441245D02*X365888D01*
X389102Y446755D02*X389888D01*
X389102Y441245D02*X389888D01*
X413602Y446755D02*X414388D01*
X413602Y441245D02*X414388D01*
X437602Y446755D02*X438388D01*
X437602Y441245D02*X438388D01*
X126602Y446755D02*X127388D01*
X126602Y441245D02*X127388D01*
X171102Y446755D02*X171888D01*
X171102Y441245D02*X171888D01*
X195602Y446755D02*X196388D01*
X195602Y441245D02*X196388D01*
X219602Y446755D02*X220388D01*
X219602Y441245D02*X220388D01*
X243602Y446755D02*X244388D01*
X243602Y441245D02*X244388D01*
X268102Y446755D02*X268888D01*
X268102Y441245D02*X268888D01*
X292102Y446755D02*X292888D01*
X292102Y441245D02*X292888D01*
X20602Y446755D02*X21388D01*
X20602Y441245D02*X21388D01*
X44602Y446755D02*X45388D01*
X44602Y441245D02*X45388D01*
X20602Y423755D02*X21388D01*
X20602Y418245D02*X21388D01*
X44602Y423755D02*X45388D01*
X44602Y418245D02*X45388D01*
X69133Y446740D02*X73857D01*
X69133Y439260D02*X73857D01*
X98527Y446814D02*X102463D01*
X98527Y436186D02*X102463D01*
X69102Y423755D02*X69888D01*
X69102Y418245D02*X69888D01*
X93102Y423755D02*X93888D01*
X93102Y418245D02*X93888D01*
X117602Y423755D02*X118388D01*
X117602Y418245D02*X118388D01*
X141602Y423755D02*X142388D01*
X141602Y418245D02*X142388D01*
X165602Y423755D02*X166388D01*
X165602Y418245D02*X166388D01*
G54D127*X272668Y262339D02*Y249009D01*
Y263768D02*Y247626D01*
Y247625D02*X256132D01*
Y263768D01*
X272668D02*X254363D01*
Y262271D01*
X256132D01*
Y247625D02*Y263020D01*
X254363D01*
X192321Y244913D02*Y245701D01*
X190943Y244913D02*X192321D01*
X190943Y258299D02*Y244913D01*
Y245701D02*X207478D01*
Y258299D02*Y245701D01*
X190943Y258299D02*X207478D01*
G54D125*X242645Y351893D02*Y351107D01*
X248155Y351893D02*Y351107D01*
X226400Y370000D02*Y360000D01*
X247400D01*
Y370000D02*Y360000D01*
X226400Y370000D02*X247400D01*
X227400D02*Y360000D01*
X224443Y352740D02*X229167D01*
X224443Y345260D02*X229167D01*
X254900Y361000D02*X264900D01*
Y382000D02*Y361000D01*
X254900Y382000D02*X264900D01*
X254900D02*Y361000D01*
Y362000D02*X264900D01*
X236145Y384393D02*Y383607D01*
X241655Y384393D02*Y383607D01*
X217038Y388740D02*X221762D01*
X217038Y381260D02*X221762D01*
G54D128*X212840Y371208D02*X217958D01*
X212840Y359791D02*X217958D01*
Y371208D02*Y359791D01*
X212840Y371208D02*Y359791D01*
G54D124*X277400Y370000D02*Y359000D01*
Y386000D02*Y375000D01*
Y386000D02*X299800D01*
Y359000D01*
X277400D02*X299800D01*
X277400Y370000D02*G75*G03X277400Y375000I0J2500D01*G01*
X263405Y291401D02*Y303016D01*
X206318D02*Y291401D01*
X209271Y303016D02*X206318D01*
X263405D02*X260452D01*
X263405Y291401D02*X260452D01*
X209271D02*X206318D01*
X253563Y309118D02*Y313252D01*
Y309118D02*X252381Y310299D01*
X253563Y309118D02*X254744Y310299D01*
X252381D02*X254744D01*
X402850Y190176D02*Y176276D01*
X415250D01*
Y190176D01*
X402850D01*
G54D125*X378950Y232355D02*X379736D01*
X378950Y226845D02*X379736D01*
X382407Y126855D02*X383193D01*
X382407Y121345D02*X383193D01*
G54D124*X341400Y134100D02*Y120200D01*
X353800D01*
Y134100D01*
X341400D01*
G54D125*X368055Y127993D02*Y127207D01*
X362545Y127993D02*Y127207D01*
G54D124*X341300Y104100D02*Y90200D01*
X353700D01*
Y104100D01*
X341300D01*
G54D125*X312907Y114355D02*X313693D01*
X312907Y108845D02*X313693D01*
X312864Y97855D02*X313650D01*
X312864Y92345D02*X313650D01*
G54D124*X340300Y70100D02*X354200D01*
Y82500D02*Y70100D01*
X340300Y82500D02*X354200D01*
X340300D02*Y70100D01*
G54D125*X419364Y159431D02*X420150D01*
X419364Y153921D02*X420150D01*
X290950Y126855D02*X291736D01*
X290950Y121345D02*X291736D01*
G54D124*X265850Y132600D02*Y118700D01*
X278250D01*
Y132600D01*
X265850D01*
G54D125*X242064Y116655D02*X242850D01*
X242064Y111145D02*X242850D01*
G54D124*X239400Y126000D02*X244400D01*
X254400D02*X259400D01*
X244400Y127600D02*X254400D01*
Y124400D01*
X244400D01*
Y127600D01*
X239400Y133700D02*Y129700D01*
X237400Y131700D02*X241400D01*
X257400D02*X261400D01*
X247959Y32791D02*Y44406D01*
X190872D02*Y32791D01*
X193825Y44406D02*X190872D01*
X247959D02*X245006D01*
X247959Y32791D02*X245006D01*
X193825D02*X190872D01*
X238117Y50508D02*Y54642D01*
Y50508D02*X236935Y51689D01*
X238117Y50508D02*X239298Y51689D01*
X236935D02*X239298D01*
G54D125*X289950Y137355D02*X290736D01*
X289950Y131845D02*X290736D01*
X162007Y187255D02*X162793D01*
X162007Y181745D02*X162793D01*
G54D124*X217450Y202000D02*Y188100D01*
X229850D01*
Y202000D01*
X217450D01*
G54D125*X174538Y179740D02*X179262D01*
X174538Y172260D02*X179262D01*
X197550Y137255D02*X198336D01*
X197550Y131745D02*X198336D01*
X65507Y105255D02*X66293D01*
X65507Y99745D02*X66293D01*
X63507Y141255D02*X64293D01*
X63507Y135745D02*X64293D01*
X63507Y153255D02*X64293D01*
X63507Y147745D02*X64293D01*
X98641Y180159D02*X150059D01*
Y125841D01*
X95741D01*
Y177259D01*
X98641Y180159D01*
X97641Y177259D02*G75*G03X97641Y177259I1000J0D01*G01*
X75538Y124740D02*X80262D01*
X75538Y117260D02*X80262D01*
X110155Y196393D02*Y195607D01*
X104645Y196393D02*Y195607D01*
G54D128*X16000Y315300D02*Y26900D01*
Y315300D02*X417400D01*
Y26900D01*
X16000D02*X417400D01*
G54D125*X148633Y100240D02*X153357D01*
X148633Y92760D02*X153357D01*
X101050Y110755D02*X101836D01*
X101050Y105245D02*X101836D01*
X155007Y115255D02*X155793D01*
X155007Y109745D02*X155793D01*
X122038Y81740D02*X126762D01*
X122038Y74260D02*X126762D01*
G54D124*X55482Y144441D02*Y99559D01*
X36978D02*X55482D01*
X36978Y144441D02*Y99559D01*
Y144441D02*X55482D01*
X47699Y187748D02*Y156252D01*
X35100D02*X47699D01*
X35100Y187748D02*Y156252D01*
Y187748D02*X47699D01*
X40204Y188493D02*X42556D01*
X40204Y187121D02*X42556D01*
X42721Y187896D02*G75*G03X41349Y189268I-1372J0D01*G01*
G75*G03X39977Y187896I0J-1372D01*G01*
X41380Y186337D02*G75*G03X42752Y187709I0J1372D01*G01*
X40008D02*G75*G03X41380Y186337I1372J0D01*G01*
X286693Y141750D02*X288693D01*
X289193Y141250D01*
Y140250D01*
X288693Y139750D02*X289193Y140250D01*
X287193Y139750D02*X288693D01*
X287193Y141750D02*Y137750D01*
X287993Y139750D02*X289193Y137750D01*
X291893Y141750D02*X292393Y141250D01*
X290893Y141750D02*X291893D01*
X290393Y141250D02*X290893Y141750D01*
X290393Y141250D02*Y138250D01*
X290893Y137750D01*
X291893Y139950D02*X292393Y139450D01*
X290393Y139950D02*X291893D01*
X290893Y137750D02*X291893D01*
X292393Y138250D01*
Y139450D02*Y138250D01*
X293593D02*X294093Y137750D01*
X293593Y141250D02*Y138250D01*
Y141250D02*X294093Y141750D01*
X295093D01*
X295593Y141250D01*
Y138250D01*
X295093Y137750D02*X295593Y138250D01*
X294093Y137750D02*X295093D01*
X293593Y138750D02*X295593Y140750D01*
X296793Y141750D02*X298793D01*
X296793D02*Y139750D01*
X297293Y140250D01*
X298293D01*
X298793Y139750D01*
Y138250D01*
X298293Y137750D02*X298793Y138250D01*
X297293Y137750D02*X298293D01*
X296793Y138250D02*X297293Y137750D01*
X74450Y140650D02*X75750D01*
X73750Y141350D02*X74450Y140650D01*
X73750Y143950D02*Y141350D01*
Y143950D02*X74450Y144650D01*
X75750D01*
X76950Y143850D02*X77750Y144650D01*
Y140650D01*
X76950D02*X78450D01*
X79650Y143850D02*X80450Y144650D01*
Y140650D01*
X79650D02*X81150D01*
X82850D02*X84350Y142650D01*
Y144150D02*Y142650D01*
X83850Y144650D02*X84350Y144150D01*
X82850Y144650D02*X83850D01*
X82350Y144150D02*X82850Y144650D01*
X82350Y144150D02*Y143150D01*
X82850Y142650D01*
X84350D01*
X193493Y139150D02*X194793D01*
X192793Y139850D02*X193493Y139150D01*
X192793Y142450D02*Y139850D01*
Y142450D02*X193493Y143150D01*
X194793D01*
X197493D02*X197993Y142650D01*
X196493Y143150D02*X197493D01*
X195993Y142650D02*X196493Y143150D01*
X195993Y142650D02*Y139650D01*
X196493Y139150D01*
X197493Y141350D02*X197993Y140850D01*
X195993Y141350D02*X197493D01*
X196493Y139150D02*X197493D01*
X197993Y139650D01*
Y140850D02*Y139650D01*
X199193D02*X199693Y139150D01*
X199193Y142650D02*Y139650D01*
Y142650D02*X199693Y143150D01*
X200693D01*
X201193Y142650D01*
Y139650D01*
X200693Y139150D02*X201193Y139650D01*
X199693Y139150D02*X200693D01*
X199193Y140150D02*X201193Y142150D01*
X202393Y139650D02*X202893Y139150D01*
X202393Y142650D02*Y139650D01*
Y142650D02*X202893Y143150D01*
X203893D01*
X204393Y142650D01*
Y139650D01*
X203893Y139150D02*X204393Y139650D01*
X202893Y139150D02*X203893D01*
X202393Y140150D02*X204393Y142150D01*
X275250Y132100D02*X279250D01*
Y130800D02*X278550Y130100D01*
X275950D02*X278550D01*
X275250Y130800D02*X275950Y130100D01*
X275250Y132600D02*Y130800D01*
X279250Y132600D02*Y130800D01*
Y127400D02*X278750Y126900D01*
X279250Y128400D02*Y127400D01*
X278750Y128900D02*X279250Y128400D01*
X275750Y128900D02*X278750D01*
X275750D02*X275250Y128400D01*
X277450Y127400D02*X276950Y126900D01*
X277450Y128900D02*Y127400D01*
X275250Y128400D02*Y127400D01*
X275750Y126900D01*
X276950D01*
X275750Y125700D02*X275250Y125200D01*
X275750Y125700D02*X278750D01*
X279250Y125200D01*
Y124200D01*
X278750Y123700D01*
X275750D02*X278750D01*
X275250Y124200D02*X275750Y123700D01*
X275250Y125200D02*Y124200D01*
X276250Y125700D02*X278250Y123700D01*
X278750Y122500D02*X279250Y122000D01*
Y120500D01*
X278750Y120000D01*
X277750D02*X278750D01*
X275250Y122500D02*X277750Y120000D01*
X275250Y122500D02*Y120000D01*
X238350Y122050D02*Y118050D01*
Y122050D02*X240350D01*
X238350Y120250D02*X239850D01*
X241550Y122050D02*X243550D01*
X241550D02*Y120050D01*
X242050Y120550D01*
X243050D01*
X243550Y120050D01*
Y118550D01*
X243050Y118050D02*X243550Y118550D01*
X242050Y118050D02*X243050D01*
X241550Y118550D02*X242050Y118050D01*
X244750Y118550D02*X245250Y118050D01*
X244750Y121550D02*Y118550D01*
Y121550D02*X245250Y122050D01*
X246250D01*
X246750Y121550D01*
Y118550D01*
X246250Y118050D02*X246750Y118550D01*
X245250Y118050D02*X246250D01*
X244750Y119050D02*X246750Y121050D01*
X247950Y121250D02*X248750Y122050D01*
Y118050D01*
X247950D02*X249450D01*
X256400Y117400D02*X258400D01*
X258900Y117900D01*
Y119100D02*Y117900D01*
X258400Y119600D02*X258900Y119100D01*
X256900Y119600D02*X258400D01*
X256900Y121400D02*Y117400D01*
X256400Y121400D02*X258400D01*
X258900Y120900D01*
Y120100D01*
X258400Y119600D02*X258900Y120100D01*
X260100Y121400D02*X262100D01*
X260100D02*Y119400D01*
X260600Y119900D01*
X261600D01*
X262100Y119400D01*
Y117900D01*
X261600Y117400D02*X262100Y117900D01*
X260600Y117400D02*X261600D01*
X260100Y117900D02*X260600Y117400D01*
X263300Y117900D02*X263800Y117400D01*
X263300Y120900D02*Y117900D01*
Y120900D02*X263800Y121400D01*
X264800D01*
X265300Y120900D01*
Y117900D01*
X264800Y117400D02*X265300Y117900D01*
X263800Y117400D02*X264800D01*
X263300Y118400D02*X265300Y120400D01*
X266500Y117900D02*X267000Y117400D01*
X266500Y120900D02*Y117900D01*
Y120900D02*X267000Y121400D01*
X268000D01*
X268500Y120900D01*
Y117900D01*
X268000Y117400D02*X268500Y117900D01*
X267000Y117400D02*X268000D01*
X266500Y118400D02*X268500Y120400D01*
X146597Y101650D02*X147897D01*
X145897Y102350D02*X146597Y101650D01*
X145897Y104950D02*Y102350D01*
Y104950D02*X146597Y105650D01*
X147897D01*
X149097Y104850D02*X149897Y105650D01*
Y101650D01*
X149097D02*X150597D01*
X151797Y102150D02*X152297Y101650D01*
X151797Y105150D02*Y102150D01*
Y105150D02*X152297Y105650D01*
X153297D01*
X153797Y105150D01*
Y102150D01*
X153297Y101650D02*X153797Y102150D01*
X152297Y101650D02*X153297D01*
X151797Y102650D02*X153797Y104650D01*
X154997Y104850D02*X155797Y105650D01*
Y101650D01*
X154997D02*X156497D01*
X97536Y111150D02*X98836D01*
X96836Y111850D02*X97536Y111150D01*
X96836Y114450D02*Y111850D01*
Y114450D02*X97536Y115150D01*
X98836D01*
X100036Y114350D02*X100836Y115150D01*
Y111150D01*
X100036D02*X101536D01*
X102736Y114350D02*X103536Y115150D01*
Y111150D01*
X102736D02*X104236D01*
X105436Y114650D02*X105936Y115150D01*
X106936D01*
X107436Y114650D01*
X106936Y111150D02*X107436Y111650D01*
X105936Y111150D02*X106936D01*
X105436Y111650D02*X105936Y111150D01*
Y113350D02*X106936D01*
X107436Y114650D02*Y113850D01*
Y112850D02*Y111650D01*
Y112850D02*X106936Y113350D01*
X107436Y113850D02*X106936Y113350D01*
X150493Y116650D02*X151793D01*
X149793Y117350D02*X150493Y116650D01*
X149793Y119950D02*Y117350D01*
Y119950D02*X150493Y120650D01*
X151793D01*
X152993Y119850D02*X153793Y120650D01*
Y116650D01*
X152993D02*X154493D01*
X155693Y119850D02*X156493Y120650D01*
Y116650D01*
X155693D02*X157193D01*
X158393Y120150D02*X158893Y120650D01*
X160393D01*
X160893Y120150D01*
Y119150D01*
X158393Y116650D02*X160893Y119150D01*
X158393Y116650D02*X160893D01*
X59750Y110650D02*X61750D01*
X62250Y110150D01*
Y109150D01*
X61750Y108650D02*X62250Y109150D01*
X60250Y108650D02*X61750D01*
X60250Y110650D02*Y106650D01*
X61050Y108650D02*X62250Y106650D01*
X63450Y109850D02*X64250Y110650D01*
Y106650D01*
X63450D02*X64950D01*
X66150Y107150D02*X66650Y106650D01*
X66150Y110150D02*Y107150D01*
Y110150D02*X66650Y110650D01*
X67650D01*
X68150Y110150D01*
Y107150D01*
X67650Y106650D02*X68150Y107150D01*
X66650Y106650D02*X67650D01*
X66150Y107650D02*X68150Y109650D01*
X69350Y110650D02*X71350D01*
X69350D02*Y108650D01*
X69850Y109150D01*
X70850D01*
X71350Y108650D01*
Y107150D01*
X70850Y106650D02*X71350Y107150D01*
X69850Y106650D02*X70850D01*
X69350Y107150D02*X69850Y106650D01*
X73950Y126150D02*X75250D01*
X73250Y126850D02*X73950Y126150D01*
X73250Y129450D02*Y126850D01*
Y129450D02*X73950Y130150D01*
X75250D01*
X76450Y129350D02*X77250Y130150D01*
Y126150D01*
X76450D02*X77950D01*
X79150Y129350D02*X79950Y130150D01*
Y126150D01*
X79150D02*X80650D01*
X81850Y126650D02*X82350Y126150D01*
X81850Y127450D02*Y126650D01*
Y127450D02*X82550Y128150D01*
X83150D01*
X83850Y127450D01*
Y126650D01*
X83350Y126150D02*X83850Y126650D01*
X82350Y126150D02*X83350D01*
X81850Y128850D02*X82550Y128150D01*
X81850Y129650D02*Y128850D01*
Y129650D02*X82350Y130150D01*
X83350D01*
X83850Y129650D01*
Y128850D01*
X83150Y128150D02*X83850Y128850D01*
X119950Y83650D02*X121250D01*
X119250Y84350D02*X119950Y83650D01*
X119250Y86950D02*Y84350D01*
Y86950D02*X119950Y87650D01*
X121250D01*
X122450Y86850D02*X123250Y87650D01*
Y83650D01*
X122450D02*X123950D01*
X125150Y86850D02*X125950Y87650D01*
Y83650D01*
X125150D02*X126650D01*
X129350Y87650D02*X129850Y87150D01*
X128350Y87650D02*X129350D01*
X127850Y87150D02*X128350Y87650D01*
X127850Y87150D02*Y84150D01*
X128350Y83650D01*
X129350Y85850D02*X129850Y85350D01*
X127850Y85850D02*X129350D01*
X128350Y83650D02*X129350D01*
X129850Y84150D01*
Y85350D02*Y84150D01*
X57069Y133571D02*X61069Y131071D01*
Y133571D02*X57069Y131071D01*
X61069Y129871D02*Y127871D01*
X57069Y128871D02*X61069D01*
X57069Y126671D02*X60069D01*
X61069Y125971D01*
Y124871D01*
X60069Y124171D01*
X57069D02*X60069D01*
X59069Y126671D02*Y124171D01*
X57069Y122971D02*X61069D01*
X57069D02*Y120971D01*
X60269Y119771D02*X61069Y118971D01*
X57069D02*X61069D01*
X57069Y119771D02*Y118271D01*
X57569Y117071D02*X57069Y116571D01*
X57569Y117071D02*X60569D01*
X61069Y116571D01*
Y115571D01*
X60569Y115071D01*
X57569D02*X60569D01*
X57069Y115571D02*X57569Y115071D01*
X57069Y116571D02*Y115571D01*
X58069Y117071D02*X60069Y115071D01*
X60269Y113871D02*X61069Y113071D01*
X57069D02*X61069D01*
X57069Y113871D02*Y112371D01*
X57750Y146650D02*X59750D01*
X60250Y146150D01*
Y145150D01*
X59750Y144650D02*X60250Y145150D01*
X58250Y144650D02*X59750D01*
X58250Y146650D02*Y142650D01*
X59050Y144650D02*X60250Y142650D01*
X61450Y145850D02*X62250Y146650D01*
Y142650D01*
X61450D02*X62950D01*
X64150Y143150D02*X64650Y142650D01*
X64150Y146150D02*Y143150D01*
Y146150D02*X64650Y146650D01*
X65650D01*
X66150Y146150D01*
Y143150D01*
X65650Y142650D02*X66150Y143150D01*
X64650Y142650D02*X65650D01*
X64150Y143650D02*X66150Y145650D01*
X67350Y144150D02*X69350Y146650D01*
X67350Y144150D02*X69850D01*
X69350Y146650D02*Y142650D01*
X57750Y158650D02*X59750D01*
X60250Y158150D01*
Y157150D01*
X59750Y156650D02*X60250Y157150D01*
X58250Y156650D02*X59750D01*
X58250Y158650D02*Y154650D01*
X59050Y156650D02*X60250Y154650D01*
X61450Y157850D02*X62250Y158650D01*
Y154650D01*
X61450D02*X62950D01*
X64150Y155150D02*X64650Y154650D01*
X64150Y158150D02*Y155150D01*
Y158150D02*X64650Y158650D01*
X65650D01*
X66150Y158150D01*
Y155150D01*
X65650Y154650D02*X66150Y155150D01*
X64650Y154650D02*X65650D01*
X64150Y155650D02*X66150Y157650D01*
X67350Y158150D02*X67850Y158650D01*
X68850D01*
X69350Y158150D01*
X68850Y154650D02*X69350Y155150D01*
X67850Y154650D02*X68850D01*
X67350Y155150D02*X67850Y154650D01*
Y156850D02*X68850D01*
X69350Y158150D02*Y157350D01*
Y156350D02*Y155150D01*
Y156350D02*X68850Y156850D01*
X69350Y157350D02*X68850Y156850D01*
X32450Y150650D02*X33750D01*
X31750Y151350D02*X32450Y150650D01*
X31750Y153950D02*Y151350D01*
Y153950D02*X32450Y154650D01*
X33750D01*
X34950Y153850D02*X35750Y154650D01*
Y150650D01*
X34950D02*X36450D01*
X37650Y151150D02*X38150Y150650D01*
X37650Y154150D02*Y151150D01*
Y154150D02*X38150Y154650D01*
X39150D01*
X39650Y154150D01*
Y151150D01*
X39150Y150650D02*X39650Y151150D01*
X38150Y150650D02*X39150D01*
X37650Y151650D02*X39650Y153650D01*
X40850Y154650D02*X42850D01*
X40850D02*Y152650D01*
X41350Y153150D01*
X42350D01*
X42850Y152650D01*
Y151150D01*
X42350Y150650D02*X42850Y151150D01*
X41350Y150650D02*X42350D01*
X40850Y151150D02*X41350Y150650D01*
X37550Y96568D02*Y95268D01*
X38250Y97268D02*X37550Y96568D01*
X38250Y97268D02*X40850D01*
X41550Y96568D01*
Y95268D01*
X40750Y94068D02*X41550Y93268D01*
X37550D02*X41550D01*
X37550Y94068D02*Y92568D01*
X38050Y91368D02*X37550Y90868D01*
X38050Y91368D02*X41050D01*
X41550Y90868D01*
Y89868D01*
X41050Y89368D01*
X38050D02*X41050D01*
X37550Y89868D02*X38050Y89368D01*
X37550Y90868D02*Y89868D01*
X38550Y91368D02*X40550Y89368D01*
X41550Y86668D02*X41050Y86168D01*
X41550Y87668D02*Y86668D01*
X41050Y88168D02*X41550Y87668D01*
X38050Y88168D02*X41050D01*
X38050D02*X37550Y87668D01*
X39750Y86668D02*X39250Y86168D01*
X39750Y88168D02*Y86668D01*
X37550Y87668D02*Y86668D01*
X38050Y86168D01*
X39250D01*
X157993Y188650D02*X159293D01*
X157293Y189350D02*X157993Y188650D01*
X157293Y191950D02*Y189350D01*
Y191950D02*X157993Y192650D01*
X159293D01*
X160493Y191850D02*X161293Y192650D01*
Y188650D01*
X160493D02*X161993D01*
X163193Y191850D02*X163993Y192650D01*
Y188650D01*
X163193D02*X164693D01*
X165893Y191850D02*X166693Y192650D01*
Y188650D01*
X165893D02*X167393D01*
X172002Y181150D02*X173302D01*
X171302Y181850D02*X172002Y181150D01*
X171302Y184450D02*Y181850D01*
Y184450D02*X172002Y185150D01*
X173302D01*
X174502Y184350D02*X175302Y185150D01*
Y181150D01*
X174502D02*X176002D01*
X177202Y181650D02*X177702Y181150D01*
X177202Y184650D02*Y181650D01*
Y184650D02*X177702Y185150D01*
X178702D01*
X179202Y184650D01*
Y181650D01*
X178702Y181150D02*X179202Y181650D01*
X177702Y181150D02*X178702D01*
X177202Y182150D02*X179202Y184150D01*
X180402Y181650D02*X180902Y181150D01*
X180402Y184650D02*Y181650D01*
Y184650D02*X180902Y185150D01*
X181902D01*
X182402Y184650D01*
Y181650D01*
X181902Y181150D02*X182402Y181650D01*
X180902Y181150D02*X181902D01*
X180402Y182150D02*X182402Y184150D01*
X231350Y201000D02*X235350D01*
Y199700D02*X234650Y199000D01*
X232050D02*X234650D01*
X231350Y199700D02*X232050Y199000D01*
X231350Y201500D02*Y199700D01*
X235350Y201500D02*Y199700D01*
Y197800D02*Y195800D01*
X233350Y197800D02*X235350D01*
X233350D02*X233850Y197300D01*
Y196300D01*
X233350Y195800D01*
X231850D02*X233350D01*
X231350Y196300D02*X231850Y195800D01*
X231350Y197300D02*Y196300D01*
X231850Y197800D02*X231350Y197300D01*
X231850Y194600D02*X231350Y194100D01*
X231850Y194600D02*X234850D01*
X235350Y194100D01*
Y193100D01*
X234850Y192600D01*
X231850D02*X234850D01*
X231350Y193100D02*X231850Y192600D01*
X231350Y194100D02*Y193100D01*
X232350Y194600D02*X234350Y192600D01*
X231850Y191400D02*X231350Y190900D01*
X231850Y191400D02*X234850D01*
X235350Y190900D01*
Y189900D01*
X234850Y189400D01*
X231850D02*X234850D01*
X231350Y189900D02*X231850Y189400D01*
X231350Y190900D02*Y189900D01*
X232350Y191400D02*X234350Y189400D01*
X77350Y217500D02*X81350D01*
Y216200D02*X80650Y215500D01*
X78050D02*X80650D01*
X77350Y216200D02*X78050Y215500D01*
X77350Y218000D02*Y216200D01*
X81350Y218000D02*Y216200D01*
Y214300D02*Y212300D01*
X79350Y214300D02*X81350D01*
X79350D02*X79850Y213800D01*
Y212800D01*
X79350Y212300D01*
X77850D02*X79350D01*
X77350Y212800D02*X77850Y212300D01*
X77350Y213800D02*Y212800D01*
X77850Y214300D02*X77350Y213800D01*
X77850Y211100D02*X77350Y210600D01*
X77850Y211100D02*X80850D01*
X81350Y210600D01*
Y209600D01*
X80850Y209100D01*
X77850D02*X80850D01*
X77350Y209600D02*X77850Y209100D01*
X77350Y210600D02*Y209600D01*
X78350Y211100D02*X80350Y209100D01*
X81350Y207900D02*Y205900D01*
X79350Y207900D02*X81350D01*
X79350D02*X79850Y207400D01*
Y206400D01*
X79350Y205900D01*
X77850D02*X79350D01*
X77350Y206400D02*X77850Y205900D01*
X77350Y207400D02*Y206400D01*
X77850Y207900D02*X77350Y207400D01*
X84400Y184500D02*Y181000D01*
X84900Y180500D01*
X85900D01*
X86400Y181000D01*
Y184500D02*Y181000D01*
X87600Y183700D02*X88400Y184500D01*
Y180500D01*
X87600D02*X89100D01*
X90300Y181000D02*X90800Y180500D01*
X90300Y184000D02*Y181000D01*
Y184000D02*X90800Y184500D01*
X91800D01*
X92300Y184000D01*
Y181000D01*
X91800Y180500D02*X92300Y181000D01*
X90800Y180500D02*X91800D01*
X90300Y181500D02*X92300Y183500D01*
X93500Y181000D02*X94000Y180500D01*
X93500Y184000D02*Y181000D01*
Y184000D02*X94000Y184500D01*
X95000D01*
X95500Y184000D01*
Y181000D01*
X95000Y180500D02*X95500Y181000D01*
X94000Y180500D02*X95000D01*
X93500Y181500D02*X95500Y183500D01*
X91993Y198150D02*X93293D01*
X91293Y198850D02*X91993Y198150D01*
X91293Y201450D02*Y198850D01*
Y201450D02*X91993Y202150D01*
X93293D01*
X94493Y201350D02*X95293Y202150D01*
Y198150D01*
X94493D02*X95993D01*
X97193Y201350D02*X97993Y202150D01*
Y198150D01*
X97193D02*X98693D01*
X99893Y198650D02*X100393Y198150D01*
X99893Y201650D02*Y198650D01*
Y201650D02*X100393Y202150D01*
X101393D01*
X101893Y201650D01*
Y198650D01*
X101393Y198150D02*X101893Y198650D01*
X100393Y198150D02*X101393D01*
X99893Y199150D02*X101893Y201150D01*
X70391Y161650D02*X71691D01*
X69691Y162350D02*X70391Y161650D01*
X69691Y164950D02*Y162350D01*
Y164950D02*X70391Y165650D01*
X71691D01*
X72891Y164850D02*X73691Y165650D01*
Y161650D01*
X72891D02*X74391D01*
X75591Y165150D02*X76091Y165650D01*
X77591D01*
X78091Y165150D01*
Y164150D01*
X75591Y161650D02*X78091Y164150D01*
X75591Y161650D02*X78091D01*
X79291Y162150D02*X79791Y161650D01*
X79291Y165150D02*Y162150D01*
Y165150D02*X79791Y165650D01*
X80791D01*
X81291Y165150D01*
Y162150D01*
X80791Y161650D02*X81291Y162150D01*
X79791Y161650D02*X80791D01*
X79291Y162650D02*X81291Y164650D01*
X63707Y190150D02*X65707D01*
X66207Y189650D01*
Y188650D01*
X65707Y188150D02*X66207Y188650D01*
X64207Y188150D02*X65707D01*
X64207Y190150D02*Y186150D01*
X65007Y188150D02*X66207Y186150D01*
X67407Y189350D02*X68207Y190150D01*
Y186150D01*
X67407D02*X68907D01*
X70107Y186650D02*X70607Y186150D01*
X70107Y189650D02*Y186650D01*
Y189650D02*X70607Y190150D01*
X71607D01*
X72107Y189650D01*
Y186650D01*
X71607Y186150D02*X72107Y186650D01*
X70607Y186150D02*X71607D01*
X70107Y187150D02*X72107Y189150D01*
X73307Y189350D02*X74107Y190150D01*
Y186150D01*
X73307D02*X74807D01*
X63750Y178150D02*X65750D01*
X66250Y177650D01*
Y176650D01*
X65750Y176150D02*X66250Y176650D01*
X64250Y176150D02*X65750D01*
X64250Y178150D02*Y174150D01*
X65050Y176150D02*X66250Y174150D01*
X67450Y177350D02*X68250Y178150D01*
Y174150D01*
X67450D02*X68950D01*
X70150Y174650D02*X70650Y174150D01*
X70150Y177650D02*Y174650D01*
Y177650D02*X70650Y178150D01*
X71650D01*
X72150Y177650D01*
Y174650D01*
X71650Y174150D02*X72150Y174650D01*
X70650Y174150D02*X71650D01*
X70150Y175150D02*X72150Y177150D01*
X73350Y177650D02*X73850Y178150D01*
X75350D01*
X75850Y177650D01*
Y176650D01*
X73350Y174150D02*X75850Y176650D01*
X73350Y174150D02*X75850D01*
X37050Y200891D02*Y199591D01*
X37750Y201591D02*X37050Y200891D01*
X37750Y201591D02*X40350D01*
X41050Y200891D01*
Y199591D01*
X40250Y198391D02*X41050Y197591D01*
X37050D02*X41050D01*
X37050Y198391D02*Y196891D01*
X37550Y195691D02*X37050Y195191D01*
X37550Y195691D02*X40550D01*
X41050Y195191D01*
Y194191D01*
X40550Y193691D01*
X37550D02*X40550D01*
X37050Y194191D02*X37550Y193691D01*
X37050Y195191D02*Y194191D01*
X38050Y195691D02*X40050Y193691D01*
X38550Y192491D02*X41050Y190491D01*
X38550Y192491D02*Y189991D01*
X37050Y190491D02*X41050D01*
X53550Y200009D02*Y198709D01*
X54250Y200709D02*X53550Y200009D01*
X54250Y200709D02*X56850D01*
X57550Y200009D01*
Y198709D01*
X56750Y197509D02*X57550Y196709D01*
X53550D02*X57550D01*
X53550Y197509D02*Y196009D01*
X54050Y194809D02*X53550Y194309D01*
X54050Y194809D02*X57050D01*
X57550Y194309D01*
Y193309D01*
X57050Y192809D01*
X54050D02*X57050D01*
X53550Y193309D02*X54050Y192809D01*
X53550Y194309D02*Y193309D01*
X54550Y194809D02*X56550Y192809D01*
X57050Y191609D02*X57550Y191109D01*
Y190109D01*
X57050Y189609D01*
X53550Y190109D02*X54050Y189609D01*
X53550Y191109D02*Y190109D01*
X54050Y191609D02*X53550Y191109D01*
X55750D02*Y190109D01*
X56250Y189609D02*X57050D01*
X54050D02*X55250D01*
X55750Y190109D01*
X56250Y189609D02*X55750Y190109D01*
X53026Y183374D02*X57026Y180874D01*
Y183374D02*X53026Y180874D01*
X57026Y179674D02*Y177674D01*
X53026Y178674D02*X57026D01*
X53026Y176474D02*X56026D01*
X57026Y175774D01*
Y174674D01*
X56026Y173974D01*
X53026D02*X56026D01*
X55026Y176474D02*Y173974D01*
X53026Y172774D02*X57026D01*
X53026D02*Y170774D01*
X56226Y169574D02*X57026Y168774D01*
X53026D02*X57026D01*
X53026Y169574D02*Y168074D01*
X53526Y166874D02*X53026Y166374D01*
X53526Y166874D02*X56526D01*
X57026Y166374D01*
Y165374D01*
X56526Y164874D01*
X53526D02*X56526D01*
X53026Y165374D02*X53526Y164874D01*
X53026Y166374D02*Y165374D01*
X54026Y166874D02*X56026Y164874D01*
X56526Y163674D02*X57026Y163174D01*
Y161674D01*
X56526Y161174D01*
X55526D02*X56526D01*
X53026Y163674D02*X55526Y161174D01*
X53026Y163674D02*Y161174D01*
X54400Y216500D02*X58400D01*
Y215200D02*X57700Y214500D01*
X55100D02*X57700D01*
X54400Y215200D02*X55100Y214500D01*
X54400Y217000D02*Y215200D01*
X58400Y217000D02*Y215200D01*
Y213300D02*Y211300D01*
X56400Y213300D02*X58400D01*
X56400D02*X56900Y212800D01*
Y211800D01*
X56400Y211300D01*
X54900D02*X56400D01*
X54400Y211800D02*X54900Y211300D01*
X54400Y212800D02*Y211800D01*
X54900Y213300D02*X54400Y212800D01*
X54900Y210100D02*X54400Y209600D01*
X54900Y210100D02*X57900D01*
X58400Y209600D01*
Y208600D01*
X57900Y208100D01*
X54900D02*X57900D01*
X54400Y208600D02*X54900Y208100D01*
X54400Y209600D02*Y208600D01*
X55400Y210100D02*X57400Y208100D01*
X55900Y206900D02*X58400Y204900D01*
X55900Y206900D02*Y204400D01*
X54400Y204900D02*X58400D01*
X115550Y202150D02*Y200150D01*
X115050Y199650D01*
X114050D02*X115050D01*
X113550Y200150D02*X114050Y199650D01*
X113550Y201650D02*Y200150D01*
X111550Y201650D02*X115550D01*
X113550Y200850D02*X111550Y199650D01*
X114750Y198450D02*X115550Y197650D01*
X111550D02*X115550D01*
X111550Y198450D02*Y196950D01*
X112050Y195750D02*X111550Y195250D01*
X112050Y195750D02*X115050D01*
X115550Y195250D01*
Y194250D01*
X115050Y193750D01*
X112050D02*X115050D01*
X111550Y194250D02*X112050Y193750D01*
X111550Y195250D02*Y194250D01*
X112550Y195750D02*X114550Y193750D01*
X112050Y192550D02*X111550Y192050D01*
X112050Y192550D02*X115050D01*
X115550Y192050D01*
Y191050D01*
X115050Y190550D01*
X112050D02*X115050D01*
X111550Y191050D02*X112050Y190550D01*
X111550Y192050D02*Y191050D01*
X112550Y192550D02*X114550Y190550D01*
X99950Y220500D02*X103950D01*
Y219200D02*X103250Y218500D01*
X100650D02*X103250D01*
X99950Y219200D02*X100650Y218500D01*
X99950Y221000D02*Y219200D01*
X103950Y221000D02*Y219200D01*
Y217300D02*Y215300D01*
X101950Y217300D02*X103950D01*
X101950D02*X102450Y216800D01*
Y215800D01*
X101950Y215300D01*
X100450D02*X101950D01*
X99950Y215800D02*X100450Y215300D01*
X99950Y216800D02*Y215800D01*
X100450Y217300D02*X99950Y216800D01*
X100450Y214100D02*X99950Y213600D01*
X100450Y214100D02*X103450D01*
X103950Y213600D01*
Y212600D01*
X103450Y212100D01*
X100450D02*X103450D01*
X99950Y212600D02*X100450Y212100D01*
X99950Y213600D02*Y212600D01*
X100950Y214100D02*X102950Y212100D01*
X103450Y210900D02*X103950Y210400D01*
Y209400D01*
X103450Y208900D01*
X99950Y209400D02*X100450Y208900D01*
X99950Y210400D02*Y209400D01*
X100450Y210900D02*X99950Y210400D01*
X102150D02*Y209400D01*
X102650Y208900D02*X103450D01*
X100450D02*X101650D01*
X102150Y209400D01*
X102650Y208900D02*X102150Y209400D01*
X84400Y387500D02*X88400D01*
X84400D02*Y385500D01*
X86600Y384300D02*Y382800D01*
X84400Y384300D02*Y382300D01*
Y384300D02*X88400D01*
Y382300D01*
X84400Y381100D02*X88400D01*
Y379100D01*
X86600Y381100D02*Y379600D01*
X88400Y377900D02*Y375900D01*
X84400Y376900D02*X88400D01*
X84400Y374700D02*Y372700D01*
X88400Y371500D02*Y370500D01*
X84400Y371000D02*X88400D01*
X84400Y371500D02*Y370500D01*
Y369300D02*X88400D01*
X86400Y367800D01*
X88400Y366300D01*
X84400D02*X88400D01*
X84400Y364600D02*X88400D01*
Y365100D02*Y363100D01*
X87900Y362600D01*
X86900D02*X87900D01*
X86400Y363100D02*X86900Y362600D01*
X86400Y364600D02*Y363100D01*
X84400Y361400D02*X88400D01*
X84400D02*Y359400D01*
Y358200D02*X87400D01*
X88400Y357500D01*
Y356400D01*
X87400Y355700D01*
X84400D02*X87400D01*
X86400Y358200D02*Y355700D01*
X84400Y354500D02*X88400D01*
X84400Y352000D01*
X88400D01*
Y350800D02*Y348800D01*
X84400Y349800D02*X88400D01*
X126900Y385000D02*Y383000D01*
X126400Y382500D01*
X125400D02*X126400D01*
X124900Y383000D02*X125400Y382500D01*
X124900Y384500D02*Y383000D01*
X122900Y384500D02*X126900D01*
X124900Y383700D02*X122900Y382500D01*
X126900Y381300D02*Y380300D01*
X122900Y380800D02*X126900D01*
X122900Y381300D02*Y380300D01*
X126900Y377100D02*X126400Y376600D01*
X126900Y378600D02*Y377100D01*
X126400Y379100D02*X126900Y378600D01*
X123400Y379100D02*X126400D01*
X123400D02*X122900Y378600D01*
Y377100D01*
X123400Y376600D01*
X124400D01*
X124900Y377100D02*X124400Y376600D01*
X124900Y378100D02*Y377100D01*
X122900Y375400D02*X126900D01*
X122900Y372900D02*X126900D01*
X124900Y375400D02*Y372900D01*
X126900Y371700D02*Y369700D01*
X122900Y370700D02*X126900D01*
X122900Y368500D02*Y366500D01*
X126900Y365300D02*Y364300D01*
X122900Y364800D02*X126900D01*
X122900Y365300D02*Y364300D01*
Y363100D02*X126900D01*
X124900Y361600D01*
X126900Y360100D01*
X122900D02*X126900D01*
X122900Y358400D02*X126900D01*
Y358900D02*Y356900D01*
X126400Y356400D01*
X125400D02*X126400D01*
X124900Y356900D02*X125400Y356400D01*
X124900Y358400D02*Y356900D01*
X122900Y355200D02*X126900D01*
X122900D02*Y353200D01*
Y352000D02*X125900D01*
X126900Y351300D01*
Y350200D01*
X125900Y349500D01*
X122900D02*X125900D01*
X124900Y352000D02*Y349500D01*
X122900Y348300D02*X126900D01*
X122900Y345800D01*
X126900D01*
Y344600D02*Y342600D01*
X122900Y343600D02*X126900D01*
X17845Y446150D02*X19845D01*
X20345Y445650D01*
Y444650D01*
X19845Y444150D02*X20345Y444650D01*
X18345Y444150D02*X19845D01*
X18345Y446150D02*Y442150D01*
X19145Y444150D02*X20345Y442150D01*
X21545Y446150D02*X23545D01*
X21545D02*Y444150D01*
X22045Y444650D01*
X23045D01*
X23545Y444150D01*
Y442650D01*
X23045Y442150D02*X23545Y442650D01*
X22045Y442150D02*X23045D01*
X21545Y442650D02*X22045Y442150D01*
X24745Y445350D02*X25545Y446150D01*
Y442150D01*
X24745D02*X26245D01*
X27945D02*X29445Y444150D01*
Y445650D02*Y444150D01*
X28945Y446150D02*X29445Y445650D01*
X27945Y446150D02*X28945D01*
X27445Y445650D02*X27945Y446150D01*
X27445Y445650D02*Y444650D01*
X27945Y444150D01*
X29445D01*
X41845Y446150D02*X43845D01*
X44345Y445650D01*
Y444650D01*
X43845Y444150D02*X44345Y444650D01*
X42345Y444150D02*X43845D01*
X42345Y446150D02*Y442150D01*
X43145Y444150D02*X44345Y442150D01*
X45545Y446150D02*X47545D01*
X45545D02*Y444150D01*
X46045Y444650D01*
X47045D01*
X47545Y444150D01*
Y442650D01*
X47045Y442150D02*X47545Y442650D01*
X46045Y442150D02*X47045D01*
X45545Y442650D02*X46045Y442150D01*
X48745Y445650D02*X49245Y446150D01*
X50745D01*
X51245Y445650D01*
Y444650D01*
X48745Y442150D02*X51245Y444650D01*
X48745Y442150D02*X51245D01*
X52445Y442650D02*X52945Y442150D01*
X52445Y445650D02*Y442650D01*
Y445650D02*X52945Y446150D01*
X53945D01*
X54445Y445650D01*
Y442650D01*
X53945Y442150D02*X54445Y442650D01*
X52945Y442150D02*X53945D01*
X52445Y443150D02*X54445Y445150D01*
X69045Y441150D02*X70345D01*
X68345Y441850D02*X69045Y441150D01*
X68345Y444450D02*Y441850D01*
Y444450D02*X69045Y445150D01*
X70345D01*
X71545D02*X73545D01*
X71545D02*Y443150D01*
X72045Y443650D01*
X73045D01*
X73545Y443150D01*
Y441650D01*
X73045Y441150D02*X73545Y441650D01*
X72045Y441150D02*X73045D01*
X71545Y441650D02*X72045Y441150D01*
X74745Y444350D02*X75545Y445150D01*
Y441150D01*
X74745D02*X76245D01*
X77445Y444650D02*X77945Y445150D01*
X79445D01*
X79945Y444650D01*
Y443650D01*
X77445Y441150D02*X79945Y443650D01*
X77445Y441150D02*X79945D01*
X98045Y439650D02*X99345D01*
X97345Y440350D02*X98045Y439650D01*
X97345Y442950D02*Y440350D01*
Y442950D02*X98045Y443650D01*
X99345D01*
X100545D02*X102545D01*
X100545D02*Y441650D01*
X101045Y442150D01*
X102045D01*
X102545Y441650D01*
Y440150D01*
X102045Y439650D02*X102545Y440150D01*
X101045Y439650D02*X102045D01*
X100545Y440150D02*X101045Y439650D01*
X103745Y442850D02*X104545Y443650D01*
Y439650D01*
X103745D02*X105245D01*
X106445Y440150D02*X106945Y439650D01*
X106445Y443150D02*Y440150D01*
Y443150D02*X106945Y443650D01*
X107945D01*
X108445Y443150D01*
Y440150D01*
X107945Y439650D02*X108445Y440150D01*
X106945Y439650D02*X107945D01*
X106445Y440650D02*X108445Y442650D01*
X17845Y423150D02*X19845D01*
X20345Y422650D01*
Y421650D01*
X19845Y421150D02*X20345Y421650D01*
X18345Y421150D02*X19845D01*
X18345Y423150D02*Y419150D01*
X19145Y421150D02*X20345Y419150D01*
X21545Y423150D02*X23545D01*
X21545D02*Y421150D01*
X22045Y421650D01*
X23045D01*
X23545Y421150D01*
Y419650D01*
X23045Y419150D02*X23545Y419650D01*
X22045Y419150D02*X23045D01*
X21545Y419650D02*X22045Y419150D01*
X24745Y422350D02*X25545Y423150D01*
Y419150D01*
X24745D02*X26245D01*
X27445Y422650D02*X27945Y423150D01*
X29445D01*
X29945Y422650D01*
Y421650D01*
X27445Y419150D02*X29945Y421650D01*
X27445Y419150D02*X29945D01*
X41845Y423150D02*X43845D01*
X44345Y422650D01*
Y421650D01*
X43845Y421150D02*X44345Y421650D01*
X42345Y421150D02*X43845D01*
X42345Y423150D02*Y419150D01*
X43145Y421150D02*X44345Y419150D01*
X45545Y423150D02*X47545D01*
X45545D02*Y421150D01*
X46045Y421650D01*
X47045D01*
X47545Y421150D01*
Y419650D01*
X47045Y419150D02*X47545Y419650D01*
X46045Y419150D02*X47045D01*
X45545Y419650D02*X46045Y419150D01*
X48745Y422350D02*X49545Y423150D01*
Y419150D01*
X48745D02*X50245D01*
X51445Y422350D02*X52245Y423150D01*
Y419150D01*
X51445D02*X52945D01*
X66345Y423150D02*X68345D01*
X68845Y422650D01*
Y421650D01*
X68345Y421150D02*X68845Y421650D01*
X66845Y421150D02*X68345D01*
X66845Y423150D02*Y419150D01*
X67645Y421150D02*X68845Y419150D01*
X70045Y423150D02*X72045D01*
X70045D02*Y421150D01*
X70545Y421650D01*
X71545D01*
X72045Y421150D01*
Y419650D01*
X71545Y419150D02*X72045Y419650D01*
X70545Y419150D02*X71545D01*
X70045Y419650D02*X70545Y419150D01*
X73245Y419650D02*X73745Y419150D01*
X73245Y422650D02*Y419650D01*
Y422650D02*X73745Y423150D01*
X74745D01*
X75245Y422650D01*
Y419650D01*
X74745Y419150D02*X75245Y419650D01*
X73745Y419150D02*X74745D01*
X73245Y420150D02*X75245Y422150D01*
X76445Y422650D02*X76945Y423150D01*
X77945D01*
X78445Y422650D01*
X77945Y419150D02*X78445Y419650D01*
X76945Y419150D02*X77945D01*
X76445Y419650D02*X76945Y419150D01*
Y421350D02*X77945D01*
X78445Y422650D02*Y421850D01*
Y420850D02*Y419650D01*
Y420850D02*X77945Y421350D01*
X78445Y421850D02*X77945Y421350D01*
X90345Y423150D02*X92345D01*
X92845Y422650D01*
Y421650D01*
X92345Y421150D02*X92845Y421650D01*
X90845Y421150D02*X92345D01*
X90845Y423150D02*Y419150D01*
X91645Y421150D02*X92845Y419150D01*
X94045Y423150D02*X96045D01*
X94045D02*Y421150D01*
X94545Y421650D01*
X95545D01*
X96045Y421150D01*
Y419650D01*
X95545Y419150D02*X96045Y419650D01*
X94545Y419150D02*X95545D01*
X94045Y419650D02*X94545Y419150D01*
X97245Y419650D02*X97745Y419150D01*
X97245Y422650D02*Y419650D01*
Y422650D02*X97745Y423150D01*
X98745D01*
X99245Y422650D01*
Y419650D01*
X98745Y419150D02*X99245Y419650D01*
X97745Y419150D02*X98745D01*
X97245Y420150D02*X99245Y422150D01*
X100445Y422650D02*X100945Y423150D01*
X102445D01*
X102945Y422650D01*
Y421650D01*
X100445Y419150D02*X102945Y421650D01*
X100445Y419150D02*X102945D01*
X114845Y423150D02*X116845D01*
X117345Y422650D01*
Y421650D01*
X116845Y421150D02*X117345Y421650D01*
X115345Y421150D02*X116845D01*
X115345Y423150D02*Y419150D01*
X116145Y421150D02*X117345Y419150D01*
X118545Y423150D02*X120545D01*
X118545D02*Y421150D01*
X119045Y421650D01*
X120045D01*
X120545Y421150D01*
Y419650D01*
X120045Y419150D02*X120545Y419650D01*
X119045Y419150D02*X120045D01*
X118545Y419650D02*X119045Y419150D01*
X121745Y419650D02*X122245Y419150D01*
X121745Y422650D02*Y419650D01*
Y422650D02*X122245Y423150D01*
X123245D01*
X123745Y422650D01*
Y419650D01*
X123245Y419150D02*X123745Y419650D01*
X122245Y419150D02*X123245D01*
X121745Y420150D02*X123745Y422150D01*
X124945Y422350D02*X125745Y423150D01*
Y419150D01*
X124945D02*X126445D01*
X237250Y346893D02*Y344893D01*
Y346893D02*X237750Y347393D01*
X238750D01*
X239250Y346893D02*X238750Y347393D01*
X239250Y346893D02*Y345393D01*
X237250D02*X241250D01*
X239250Y346193D02*X241250Y347393D01*
X237750Y348593D02*X237250Y349093D01*
Y350593D02*Y349093D01*
Y350593D02*X237750Y351093D01*
X238750D01*
X241250Y348593D02*X238750Y351093D01*
X241250D02*Y348593D01*
X240750Y352293D02*X241250Y352793D01*
X237750Y352293D02*X240750D01*
X237750D02*X237250Y352793D01*
Y353793D02*Y352793D01*
Y353793D02*X237750Y354293D01*
X240750D01*
X241250Y353793D02*X240750Y354293D01*
X241250Y353793D02*Y352793D01*
X240250Y352293D02*X238250Y354293D01*
X237750Y355493D02*X237250Y355993D01*
Y356993D02*Y355993D01*
Y356993D02*X237750Y357493D01*
X241250Y356993D02*X240750Y357493D01*
X241250Y356993D02*Y355993D01*
X240750Y355493D02*X241250Y355993D01*
X239050Y356993D02*Y355993D01*
X237750Y357493D02*X238550D01*
X239550D02*X240750D01*
X239550D02*X239050Y356993D01*
X238550Y357493D02*X239050Y356993D01*
X221355Y354150D02*X222655D01*
X220655Y354850D02*X221355Y354150D01*
X220655Y357450D02*Y354850D01*
Y357450D02*X221355Y358150D01*
X222655D01*
X223855Y357650D02*X224355Y358150D01*
X225855D01*
X226355Y357650D01*
Y356650D01*
X223855Y354150D02*X226355Y356650D01*
X223855Y354150D02*X226355D01*
X227555Y354650D02*X228055Y354150D01*
X227555Y357650D02*Y354650D01*
Y357650D02*X228055Y358150D01*
X229055D01*
X229555Y357650D01*
Y354650D01*
X229055Y354150D02*X229555Y354650D01*
X228055Y354150D02*X229055D01*
X227555Y355150D02*X229555Y357150D01*
X230755Y355650D02*X232755Y358150D01*
X230755Y355650D02*X233255D01*
X232755Y358150D02*Y354150D01*
X253400Y367500D02*Y366200D01*
X252700Y365500D02*X253400Y366200D01*
X250100Y365500D02*X252700D01*
X250100D02*X249400Y366200D01*
Y367500D02*Y366200D01*
X249900Y368700D02*X249400Y369200D01*
Y370700D02*Y369200D01*
Y370700D02*X249900Y371200D01*
X250900D01*
X253400Y368700D02*X250900Y371200D01*
X253400D02*Y368700D01*
X252900Y372400D02*X253400Y372900D01*
X249900Y372400D02*X252900D01*
X249900D02*X249400Y372900D01*
Y373900D02*Y372900D01*
Y373900D02*X249900Y374400D01*
X252900D01*
X253400Y373900D02*X252900Y374400D01*
X253400Y373900D02*Y372900D01*
X252400Y372400D02*X250400Y374400D01*
X249900Y375600D02*X249400Y376100D01*
Y377100D02*Y376100D01*
Y377100D02*X249900Y377600D01*
X253400Y377100D02*X252900Y377600D01*
X253400Y377100D02*Y376100D01*
X252900Y375600D02*X253400Y376100D01*
X251200Y377100D02*Y376100D01*
X249900Y377600D02*X250700D01*
X251700D02*X252900D01*
X251700D02*X251200Y377100D01*
X250700Y377600D02*X251200Y377100D01*
X214502Y389650D02*X215802D01*
X213802Y390350D02*X214502Y389650D01*
X213802Y392950D02*Y390350D01*
Y392950D02*X214502Y393650D01*
X215802D01*
X217002Y393150D02*X217502Y393650D01*
X219002D01*
X219502Y393150D01*
Y392150D01*
X217002Y389650D02*X219502Y392150D01*
X217002Y389650D02*X219502D01*
X220702Y390150D02*X221202Y389650D01*
X220702Y393150D02*Y390150D01*
Y393150D02*X221202Y393650D01*
X222202D01*
X222702Y393150D01*
Y390150D01*
X222202Y389650D02*X222702Y390150D01*
X221202Y389650D02*X222202D01*
X220702Y390650D02*X222702Y392650D01*
X223902Y392850D02*X224702Y393650D01*
Y389650D01*
X223902D02*X225402D01*
X231600Y371500D02*X232900D01*
X230900Y372200D02*X231600Y371500D01*
X230900Y374800D02*Y372200D01*
Y374800D02*X231600Y375500D01*
X232900D01*
X234100Y375000D02*X234600Y375500D01*
X236100D01*
X236600Y375000D01*
Y374000D01*
X234100Y371500D02*X236600Y374000D01*
X234100Y371500D02*X236600D01*
X237800Y372000D02*X238300Y371500D01*
X237800Y375000D02*Y372000D01*
Y375000D02*X238300Y375500D01*
X239300D01*
X239800Y375000D01*
Y372000D01*
X239300Y371500D02*X239800Y372000D01*
X238300Y371500D02*X239300D01*
X237800Y372500D02*X239800Y374500D01*
X241000Y375000D02*X241500Y375500D01*
X243000D01*
X243500Y375000D01*
Y374000D01*
X241000Y371500D02*X243500Y374000D01*
X241000Y371500D02*X243500D01*
X205038Y376902D02*X206038Y372902D01*
X207038Y376902D01*
X208238D02*X210238D01*
X210738Y376402D01*
Y375402D01*
X210238Y374902D02*X210738Y375402D01*
X208738Y374902D02*X210238D01*
X208738Y376902D02*Y372902D01*
X209538Y374902D02*X210738Y372902D01*
X211938Y375102D02*X213438D01*
X211938Y372902D02*X213938D01*
X211938Y376902D02*Y372902D01*
Y376902D02*X213938D01*
X217138D02*X217638Y376402D01*
X215638Y376902D02*X217138D01*
X215138Y376402D02*X215638Y376902D01*
X215138Y376402D02*Y373402D01*
X215638Y372902D01*
X217138D01*
X217638Y373402D01*
Y374402D02*Y373402D01*
X217138Y374902D02*X217638Y374402D01*
X216138Y374902D02*X217138D01*
X218838Y376402D02*X219338Y376902D01*
X220838D01*
X221338Y376402D01*
Y375402D01*
X218838Y372902D02*X221338Y375402D01*
X218838Y372902D02*X221338D01*
X222538Y373402D02*X223038Y372902D01*
X222538Y376402D02*Y373402D01*
Y376402D02*X223038Y376902D01*
X224038D01*
X224538Y376402D01*
Y373402D01*
X224038Y372902D02*X224538Y373402D01*
X223038Y372902D02*X224038D01*
X222538Y373902D02*X224538Y375902D01*
X225738Y373402D02*X226238Y372902D01*
X225738Y376402D02*Y373402D01*
Y376402D02*X226238Y376902D01*
X227238D01*
X227738Y376402D01*
Y373402D01*
X227238Y372902D02*X227738Y373402D01*
X226238Y372902D02*X227238D01*
X225738Y373902D02*X227738Y375902D01*
X230750Y379807D02*Y377807D01*
Y379807D02*X231250Y380307D01*
X232250D01*
X232750Y379807D02*X232250Y380307D01*
X232750Y379807D02*Y378307D01*
X230750D02*X234750D01*
X232750Y379107D02*X234750Y380307D01*
X231250Y381507D02*X230750Y382007D01*
Y383507D02*Y382007D01*
Y383507D02*X231250Y384007D01*
X232250D01*
X234750Y381507D02*X232250Y384007D01*
X234750D02*Y381507D01*
X234250Y385207D02*X234750Y385707D01*
X231250Y385207D02*X234250D01*
X231250D02*X230750Y385707D01*
Y386707D02*Y385707D01*
Y386707D02*X231250Y387207D01*
X234250D01*
X234750Y386707D02*X234250Y387207D01*
X234750Y386707D02*Y385707D01*
X233750Y385207D02*X231750Y387207D01*
X234250Y388407D02*X234750Y388907D01*
X231250Y388407D02*X234250D01*
X231250D02*X230750Y388907D01*
Y389907D02*Y388907D01*
Y389907D02*X231250Y390407D01*
X234250D01*
X234750Y389907D02*X234250Y390407D01*
X234750Y389907D02*Y388907D01*
X233750Y388407D02*X231750Y390407D01*
X240845Y446150D02*X242845D01*
X243345Y445650D01*
Y444650D01*
X242845Y444150D02*X243345Y444650D01*
X241345Y444150D02*X242845D01*
X241345Y446150D02*Y442150D01*
X242145Y444150D02*X243345Y442150D01*
X244545Y446150D02*X246545D01*
X244545D02*Y444150D01*
X245045Y444650D01*
X246045D01*
X246545Y444150D01*
Y442650D01*
X246045Y442150D02*X246545Y442650D01*
X245045Y442150D02*X246045D01*
X244545Y442650D02*X245045Y442150D01*
X247745Y445350D02*X248545Y446150D01*
Y442150D01*
X247745D02*X249245D01*
X250445Y442650D02*X250945Y442150D01*
X250445Y443450D02*Y442650D01*
Y443450D02*X251145Y444150D01*
X251745D01*
X252445Y443450D01*
Y442650D01*
X251945Y442150D02*X252445Y442650D01*
X250945Y442150D02*X251945D01*
X250445Y444850D02*X251145Y444150D01*
X250445Y445650D02*Y444850D01*
Y445650D02*X250945Y446150D01*
X251945D01*
X252445Y445650D01*
Y444850D01*
X251745Y444150D02*X252445Y444850D01*
X265345Y446150D02*X267345D01*
X267845Y445650D01*
Y444650D01*
X267345Y444150D02*X267845Y444650D01*
X265845Y444150D02*X267345D01*
X265845Y446150D02*Y442150D01*
X266645Y444150D02*X267845Y442150D01*
X269045Y446150D02*X271045D01*
X269045D02*Y444150D01*
X269545Y444650D01*
X270545D01*
X271045Y444150D01*
Y442650D01*
X270545Y442150D02*X271045Y442650D01*
X269545Y442150D02*X270545D01*
X269045Y442650D02*X269545Y442150D01*
X272245Y442650D02*X272745Y442150D01*
X272245Y445650D02*Y442650D01*
Y445650D02*X272745Y446150D01*
X273745D01*
X274245Y445650D01*
Y442650D01*
X273745Y442150D02*X274245Y442650D01*
X272745Y442150D02*X273745D01*
X272245Y443150D02*X274245Y445150D01*
X275445Y443650D02*X277445Y446150D01*
X275445Y443650D02*X277945D01*
X277445Y446150D02*Y442150D01*
X289345Y446150D02*X291345D01*
X291845Y445650D01*
Y444650D01*
X291345Y444150D02*X291845Y444650D01*
X289845Y444150D02*X291345D01*
X289845Y446150D02*Y442150D01*
X290645Y444150D02*X291845Y442150D01*
X293045Y446150D02*X295045D01*
X293045D02*Y444150D01*
X293545Y444650D01*
X294545D01*
X295045Y444150D01*
Y442650D01*
X294545Y442150D02*X295045Y442650D01*
X293545Y442150D02*X294545D01*
X293045Y442650D02*X293545Y442150D01*
X296245Y442650D02*X296745Y442150D01*
X296245Y445650D02*Y442650D01*
Y445650D02*X296745Y446150D01*
X297745D01*
X298245Y445650D01*
Y442650D01*
X297745Y442150D02*X298245Y442650D01*
X296745Y442150D02*X297745D01*
X296245Y443150D02*X298245Y445150D01*
X300945Y446150D02*X301445Y445650D01*
X299945Y446150D02*X300945D01*
X299445Y445650D02*X299945Y446150D01*
X299445Y445650D02*Y442650D01*
X299945Y442150D01*
X300945Y444350D02*X301445Y443850D01*
X299445Y444350D02*X300945D01*
X299945Y442150D02*X300945D01*
X301445Y442650D01*
Y443850D02*Y442650D01*
X313845Y446150D02*X315845D01*
X316345Y445650D01*
Y444650D01*
X315845Y444150D02*X316345Y444650D01*
X314345Y444150D02*X315845D01*
X314345Y446150D02*Y442150D01*
X315145Y444150D02*X316345Y442150D01*
X317545Y446150D02*X319545D01*
X317545D02*Y444150D01*
X318045Y444650D01*
X319045D01*
X319545Y444150D01*
Y442650D01*
X319045Y442150D02*X319545Y442650D01*
X318045Y442150D02*X319045D01*
X317545Y442650D02*X318045Y442150D01*
X320745Y442650D02*X321245Y442150D01*
X320745Y445650D02*Y442650D01*
Y445650D02*X321245Y446150D01*
X322245D01*
X322745Y445650D01*
Y442650D01*
X322245Y442150D02*X322745Y442650D01*
X321245Y442150D02*X322245D01*
X320745Y443150D02*X322745Y445150D01*
X323945Y446150D02*X325945D01*
X323945D02*Y444150D01*
X324445Y444650D01*
X325445D01*
X325945Y444150D01*
Y442650D01*
X325445Y442150D02*X325945Y442650D01*
X324445Y442150D02*X325445D01*
X323945Y442650D02*X324445Y442150D01*
X229066Y309433D02*X230366D01*
X228366Y310133D02*X229066Y309433D01*
X228366Y312733D02*Y310133D01*
Y312733D02*X229066Y313433D01*
X230366D01*
X231566Y312933D02*Y309933D01*
Y312933D02*X232066Y313433D01*
X233066D01*
X233566Y312933D01*
Y309933D01*
X233066Y309433D02*X233566Y309933D01*
X232066Y309433D02*X233066D01*
X231566Y309933D02*X232066Y309433D01*
X234766Y313433D02*Y309433D01*
Y313433D02*X237266Y309433D01*
Y313433D02*Y309433D01*
X238466Y313433D02*Y309433D01*
Y313433D02*X240966Y309433D01*
Y313433D02*Y309433D01*
X242666D02*X244666Y313433D01*
X242166D02*X244666D01*
X245866Y309933D02*X246366Y309433D01*
X245866Y312933D02*Y309933D01*
Y312933D02*X246366Y313433D01*
X247366D01*
X247866Y312933D01*
Y309933D01*
X247366Y309433D02*X247866Y309933D01*
X246366Y309433D02*X247366D01*
X245866Y310433D02*X247866Y312433D01*
X249066Y312933D02*X249566Y313433D01*
X251066D01*
X251566Y312933D01*
Y311933D01*
X249066Y309433D02*X251566Y311933D01*
X249066Y309433D02*X251566D01*
X154066D02*X155366D01*
X153366Y310133D02*X154066Y309433D01*
X153366Y312733D02*Y310133D01*
Y312733D02*X154066Y313433D01*
X155366D01*
X156566Y312933D02*Y309933D01*
Y312933D02*X157066Y313433D01*
X158066D01*
X158566Y312933D01*
Y309933D01*
X158066Y309433D02*X158566Y309933D01*
X157066Y309433D02*X158066D01*
X156566Y309933D02*X157066Y309433D01*
X159766Y313433D02*Y309433D01*
Y313433D02*X162266Y309433D01*
Y313433D02*Y309433D01*
X163466Y313433D02*Y309433D01*
Y313433D02*X165966Y309433D01*
Y313433D02*Y309433D01*
X167666D02*X169666Y313433D01*
X167166D02*X169666D01*
X170866Y309933D02*X171366Y309433D01*
X170866Y312933D02*Y309933D01*
Y312933D02*X171366Y313433D01*
X172366D01*
X172866Y312933D01*
Y309933D01*
X172366Y309433D02*X172866Y309933D01*
X171366Y309433D02*X172366D01*
X170866Y310433D02*X172866Y312433D01*
X174066Y312633D02*X174866Y313433D01*
Y309433D01*
X174066D02*X175566D01*
X124545Y442150D02*X125845D01*
X123845Y442850D02*X124545Y442150D01*
X123845Y445450D02*Y442850D01*
Y445450D02*X124545Y446150D01*
X125845D01*
X127045D02*X129045D01*
X127045D02*Y444150D01*
X127545Y444650D01*
X128545D01*
X129045Y444150D01*
Y442650D01*
X128545Y442150D02*X129045Y442650D01*
X127545Y442150D02*X128545D01*
X127045Y442650D02*X127545Y442150D01*
X130245Y442650D02*X130745Y442150D01*
X130245Y445650D02*Y442650D01*
Y445650D02*X130745Y446150D01*
X131745D01*
X132245Y445650D01*
Y442650D01*
X131745Y442150D02*X132245Y442650D01*
X130745Y442150D02*X131745D01*
X130245Y443150D02*X132245Y445150D01*
X133945Y442150D02*X135445Y444150D01*
Y445650D02*Y444150D01*
X134945Y446150D02*X135445Y445650D01*
X133945Y446150D02*X134945D01*
X133445Y445650D02*X133945Y446150D01*
X133445Y445650D02*Y444650D01*
X133945Y444150D01*
X135445D01*
X147045Y443150D02*X148345D01*
X146345Y443850D02*X147045Y443150D01*
X146345Y446450D02*Y443850D01*
Y446450D02*X147045Y447150D01*
X148345D01*
X149545D02*X151545D01*
X149545D02*Y445150D01*
X150045Y445650D01*
X151045D01*
X151545Y445150D01*
Y443650D01*
X151045Y443150D02*X151545Y443650D01*
X150045Y443150D02*X151045D01*
X149545Y443650D02*X150045Y443150D01*
X152745Y443650D02*X153245Y443150D01*
X152745Y446650D02*Y443650D01*
Y446650D02*X153245Y447150D01*
X154245D01*
X154745Y446650D01*
Y443650D01*
X154245Y443150D02*X154745Y443650D01*
X153245Y443150D02*X154245D01*
X152745Y444150D02*X154745Y446150D01*
X155945Y444650D02*X157945Y447150D01*
X155945Y444650D02*X158445D01*
X157945Y447150D02*Y443150D01*
X138845Y423150D02*X140845D01*
X141345Y422650D01*
Y421650D01*
X140845Y421150D02*X141345Y421650D01*
X139345Y421150D02*X140845D01*
X139345Y423150D02*Y419150D01*
X140145Y421150D02*X141345Y419150D01*
X142545Y423150D02*X144545D01*
X142545D02*Y421150D01*
X143045Y421650D01*
X144045D01*
X144545Y421150D01*
Y419650D01*
X144045Y419150D02*X144545Y419650D01*
X143045Y419150D02*X144045D01*
X142545Y419650D02*X143045Y419150D01*
X145745Y422350D02*X146545Y423150D01*
Y419150D01*
X145745D02*X147245D01*
X149945Y423150D02*X150445Y422650D01*
X148945Y423150D02*X149945D01*
X148445Y422650D02*X148945Y423150D01*
X148445Y422650D02*Y419650D01*
X148945Y419150D01*
X149945Y421350D02*X150445Y420850D01*
X148445Y421350D02*X149945D01*
X148945Y419150D02*X149945D01*
X150445Y419650D01*
Y420850D02*Y419650D01*
X216845Y446150D02*X218845D01*
X219345Y445650D01*
Y444650D01*
X218845Y444150D02*X219345Y444650D01*
X217345Y444150D02*X218845D01*
X217345Y446150D02*Y442150D01*
X218145Y444150D02*X219345Y442150D01*
X220545Y446150D02*X222545D01*
X220545D02*Y444150D01*
X221045Y444650D01*
X222045D01*
X222545Y444150D01*
Y442650D01*
X222045Y442150D02*X222545Y442650D01*
X221045Y442150D02*X222045D01*
X220545Y442650D02*X221045Y442150D01*
X223745Y445350D02*X224545Y446150D01*
Y442150D01*
X223745D02*X225245D01*
X226945D02*X228945Y446150D01*
X226445D02*X228945D01*
X169045Y442150D02*X170345D01*
X168345Y442850D02*X169045Y442150D01*
X168345Y445450D02*Y442850D01*
Y445450D02*X169045Y446150D01*
X170345D01*
X171545D02*X173545D01*
X171545D02*Y444150D01*
X172045Y444650D01*
X173045D01*
X173545Y444150D01*
Y442650D01*
X173045Y442150D02*X173545Y442650D01*
X172045Y442150D02*X173045D01*
X171545Y442650D02*X172045Y442150D01*
X174745Y442650D02*X175245Y442150D01*
X174745Y445650D02*Y442650D01*
Y445650D02*X175245Y446150D01*
X176245D01*
X176745Y445650D01*
Y442650D01*
X176245Y442150D02*X176745Y442650D01*
X175245Y442150D02*X176245D01*
X174745Y443150D02*X176745Y445150D01*
X177945Y445650D02*X178445Y446150D01*
X179945D01*
X180445Y445650D01*
Y444650D01*
X177945Y442150D02*X180445Y444650D01*
X177945Y442150D02*X180445D01*
X193545D02*X194845D01*
X192845Y442850D02*X193545Y442150D01*
X192845Y445450D02*Y442850D01*
Y445450D02*X193545Y446150D01*
X194845D01*
X196045D02*X198045D01*
X196045D02*Y444150D01*
X196545Y444650D01*
X197545D01*
X198045Y444150D01*
Y442650D01*
X197545Y442150D02*X198045Y442650D01*
X196545Y442150D02*X197545D01*
X196045Y442650D02*X196545Y442150D01*
X199245Y442650D02*X199745Y442150D01*
X199245Y445650D02*Y442650D01*
Y445650D02*X199745Y446150D01*
X200745D01*
X201245Y445650D01*
Y442650D01*
X200745Y442150D02*X201245Y442650D01*
X199745Y442150D02*X200745D01*
X199245Y443150D02*X201245Y445150D01*
X202445Y445350D02*X203245Y446150D01*
Y442150D01*
X202445D02*X203945D01*
X162845Y423150D02*X164845D01*
X165345Y422650D01*
Y421650D01*
X164845Y421150D02*X165345Y421650D01*
X163345Y421150D02*X164845D01*
X163345Y423150D02*Y419150D01*
X164145Y421150D02*X165345Y419150D01*
X166545Y423150D02*X168545D01*
X166545D02*Y421150D01*
X167045Y421650D01*
X168045D01*
X168545Y421150D01*
Y419650D01*
X168045Y419150D02*X168545Y419650D01*
X167045Y419150D02*X168045D01*
X166545Y419650D02*X167045Y419150D01*
X169745Y419650D02*X170245Y419150D01*
X169745Y422650D02*Y419650D01*
Y422650D02*X170245Y423150D01*
X171245D01*
X171745Y422650D01*
Y419650D01*
X171245Y419150D02*X171745Y419650D01*
X170245Y419150D02*X171245D01*
X169745Y420150D02*X171745Y422150D01*
X173445Y419150D02*X175445Y423150D01*
X172945D02*X175445D01*
X186045Y420150D02*X187345D01*
X185345Y420850D02*X186045Y420150D01*
X185345Y423450D02*Y420850D01*
Y423450D02*X186045Y424150D01*
X187345D01*
X188545D02*X190545D01*
X188545D02*Y422150D01*
X189045Y422650D01*
X190045D01*
X190545Y422150D01*
Y420650D01*
X190045Y420150D02*X190545Y420650D01*
X189045Y420150D02*X190045D01*
X188545Y420650D02*X189045Y420150D01*
X191745Y423350D02*X192545Y424150D01*
Y420150D01*
X191745D02*X193245D01*
X194445Y423350D02*X195245Y424150D01*
Y420150D01*
X194445D02*X195945D01*
X416150Y165326D02*X418150D01*
X418650Y164826D01*
Y163826D01*
X418150Y163326D02*X418650Y163826D01*
X416650Y163326D02*X418150D01*
X416650Y165326D02*Y161326D01*
X417450Y163326D02*X418650Y161326D01*
X421350Y165326D02*X421850Y164826D01*
X420350Y165326D02*X421350D01*
X419850Y164826D02*X420350Y165326D01*
X419850Y164826D02*Y161826D01*
X420350Y161326D01*
X421350Y163526D02*X421850Y163026D01*
X419850Y163526D02*X421350D01*
X420350Y161326D02*X421350D01*
X421850Y161826D01*
Y163026D02*Y161826D01*
X423050D02*X423550Y161326D01*
X423050Y164826D02*Y161826D01*
Y164826D02*X423550Y165326D01*
X424550D01*
X425050Y164826D01*
Y161826D01*
X424550Y161326D02*X425050Y161826D01*
X423550Y161326D02*X424550D01*
X423050Y162326D02*X425050Y164326D01*
X426250Y164526D02*X427050Y165326D01*
Y161326D01*
X426250D02*X427750D01*
X412250Y189676D02*X416250D01*
Y188376D02*X415550Y187676D01*
X412950D02*X415550D01*
X412250Y188376D02*X412950Y187676D01*
X412250Y190176D02*Y188376D01*
X416250Y190176D02*Y188376D01*
Y184976D02*X415750Y184476D01*
X416250Y185976D02*Y184976D01*
X415750Y186476D02*X416250Y185976D01*
X412750Y186476D02*X415750D01*
X412750D02*X412250Y185976D01*
X414450Y184976D02*X413950Y184476D01*
X414450Y186476D02*Y184976D01*
X412250Y185976D02*Y184976D01*
X412750Y184476D01*
X413950D01*
X412750Y183276D02*X412250Y182776D01*
X412750Y183276D02*X415750D01*
X416250Y182776D01*
Y181776D01*
X415750Y181276D01*
X412750D02*X415750D01*
X412250Y181776D02*X412750Y181276D01*
X412250Y182776D02*Y181776D01*
X413250Y183276D02*X415250Y181276D01*
X413750Y180076D02*X416250Y178076D01*
X413750Y180076D02*Y177576D01*
X412250Y178076D02*X416250D01*
X377064Y132250D02*X379064D01*
X379564Y131750D01*
Y130750D01*
X379064Y130250D02*X379564Y130750D01*
X377564Y130250D02*X379064D01*
X377564Y132250D02*Y128250D01*
X378364Y130250D02*X379564Y128250D01*
X380764Y131750D02*X381264Y132250D01*
X382264D01*
X382764Y131750D01*
X382264Y128250D02*X382764Y128750D01*
X381264Y128250D02*X382264D01*
X380764Y128750D02*X381264Y128250D01*
Y130450D02*X382264D01*
X382764Y131750D02*Y130950D01*
Y129950D02*Y128750D01*
Y129950D02*X382264Y130450D01*
X382764Y130950D02*X382264Y130450D01*
X383964Y128750D02*X384464Y128250D01*
X383964Y131750D02*Y128750D01*
Y131750D02*X384464Y132250D01*
X385464D01*
X385964Y131750D01*
Y128750D01*
X385464Y128250D02*X385964Y128750D01*
X384464Y128250D02*X385464D01*
X383964Y129250D02*X385964Y131250D01*
X387164Y128750D02*X387664Y128250D01*
X387164Y131750D02*Y128750D01*
Y131750D02*X387664Y132250D01*
X388664D01*
X389164Y131750D01*
Y128750D01*
X388664Y128250D02*X389164Y128750D01*
X387664Y128250D02*X388664D01*
X387164Y129250D02*X389164Y131250D01*
X355300Y133100D02*X359300D01*
Y131800D02*X358600Y131100D01*
X356000D02*X358600D01*
X355300Y131800D02*X356000Y131100D01*
X355300Y133600D02*Y131800D01*
X359300Y133600D02*Y131800D01*
X358800Y129900D02*X359300Y129400D01*
Y128400D01*
X358800Y127900D01*
X355300Y128400D02*X355800Y127900D01*
X355300Y129400D02*Y128400D01*
X355800Y129900D02*X355300Y129400D01*
X357500D02*Y128400D01*
X358000Y127900D02*X358800D01*
X355800D02*X357000D01*
X357500Y128400D01*
X358000Y127900D02*X357500Y128400D01*
X355800Y126700D02*X355300Y126200D01*
X355800Y126700D02*X358800D01*
X359300Y126200D01*
Y125200D01*
X358800Y124700D01*
X355800D02*X358800D01*
X355300Y125200D02*X355800Y124700D01*
X355300Y126200D02*Y125200D01*
X356300Y126700D02*X358300Y124700D01*
X358800Y123500D02*X359300Y123000D01*
Y121500D01*
X358800Y121000D01*
X357800D02*X358800D01*
X355300Y123500D02*X357800Y121000D01*
X355300Y123500D02*Y121000D01*
X369450Y132136D02*Y130836D01*
X370150Y132836D02*X369450Y132136D01*
X370150Y132836D02*X372750D01*
X373450Y132136D01*
Y130836D01*
X372950Y129636D02*X373450Y129136D01*
Y128136D01*
X372950Y127636D01*
X369450Y128136D02*X369950Y127636D01*
X369450Y129136D02*Y128136D01*
X369950Y129636D02*X369450Y129136D01*
X371650D02*Y128136D01*
X372150Y127636D02*X372950D01*
X369950D02*X371150D01*
X371650Y128136D01*
X372150Y127636D02*X371650Y128136D01*
X369950Y126436D02*X369450Y125936D01*
X369950Y126436D02*X372950D01*
X373450Y125936D01*
Y124936D01*
X372950Y124436D01*
X369950D02*X372950D01*
X369450Y124936D02*X369950Y124436D01*
X369450Y125936D02*Y124936D01*
X370450Y126436D02*X372450Y124436D01*
X372650Y123236D02*X373450Y122436D01*
X369450D02*X373450D01*
X369450Y123236D02*Y121736D01*
X355300Y102400D02*X359300D01*
Y101100D02*X358600Y100400D01*
X356000D02*X358600D01*
X355300Y101100D02*X356000Y100400D01*
X355300Y102900D02*Y101100D01*
X359300Y102900D02*Y101100D01*
X358800Y99200D02*X359300Y98700D01*
Y97700D01*
X358800Y97200D01*
X355300Y97700D02*X355800Y97200D01*
X355300Y98700D02*Y97700D01*
X355800Y99200D02*X355300Y98700D01*
X357500D02*Y97700D01*
X358000Y97200D02*X358800D01*
X355800D02*X357000D01*
X357500Y97700D01*
X358000Y97200D02*X357500Y97700D01*
X355800Y96000D02*X355300Y95500D01*
X355800Y96000D02*X358800D01*
X359300Y95500D01*
Y94500D01*
X358800Y94000D01*
X355800D02*X358800D01*
X355300Y94500D02*X355800Y94000D01*
X355300Y95500D02*Y94500D01*
X356300Y96000D02*X358300Y94000D01*
X355800Y92800D02*X355300Y92300D01*
X355800Y92800D02*X358800D01*
X359300Y92300D01*
Y91300D01*
X358800Y90800D01*
X355800D02*X358800D01*
X355300Y91300D02*X355800Y90800D01*
X355300Y92300D02*Y91300D01*
X356300Y92800D02*X358300Y90800D01*
X307650Y119750D02*Y115750D01*
Y119750D02*X309650D01*
X307650Y117950D02*X309150D01*
X310850Y119250D02*X311350Y119750D01*
X312350D01*
X312850Y119250D01*
X312350Y115750D02*X312850Y116250D01*
X311350Y115750D02*X312350D01*
X310850Y116250D02*X311350Y115750D01*
Y117950D02*X312350D01*
X312850Y119250D02*Y118450D01*
Y117450D02*Y116250D01*
Y117450D02*X312350Y117950D01*
X312850Y118450D02*X312350Y117950D01*
X314050Y116250D02*X314550Y115750D01*
X314050Y119250D02*Y116250D01*
Y119250D02*X314550Y119750D01*
X315550D01*
X316050Y119250D01*
Y116250D01*
X315550Y115750D02*X316050Y116250D01*
X314550Y115750D02*X315550D01*
X314050Y116750D02*X316050Y118750D01*
X317250Y116250D02*X317750Y115750D01*
X317250Y119250D02*Y116250D01*
Y119250D02*X317750Y119750D01*
X318750D01*
X319250Y119250D01*
Y116250D01*
X318750Y115750D02*X319250Y116250D01*
X317750Y115750D02*X318750D01*
X317250Y116750D02*X319250Y118750D01*
X308721Y99250D02*X310021D01*
X308021Y99950D02*X308721Y99250D01*
X308021Y102550D02*Y99950D01*
Y102550D02*X308721Y103250D01*
X310021D01*
X311221Y102750D02*X311721Y103250D01*
X312721D01*
X313221Y102750D01*
X312721Y99250D02*X313221Y99750D01*
X311721Y99250D02*X312721D01*
X311221Y99750D02*X311721Y99250D01*
Y101450D02*X312721D01*
X313221Y102750D02*Y101950D01*
Y100950D02*Y99750D01*
Y100950D02*X312721Y101450D01*
X313221Y101950D02*X312721Y101450D01*
X314421Y99750D02*X314921Y99250D01*
X314421Y102750D02*Y99750D01*
Y102750D02*X314921Y103250D01*
X315921D01*
X316421Y102750D01*
Y99750D01*
X315921Y99250D02*X316421Y99750D01*
X314921Y99250D02*X315921D01*
X314421Y100250D02*X316421Y102250D01*
X317621Y99750D02*X318121Y99250D01*
X317621Y102750D02*Y99750D01*
Y102750D02*X318121Y103250D01*
X319121D01*
X319621Y102750D01*
Y99750D01*
X319121Y99250D02*X319621Y99750D01*
X318121Y99250D02*X319121D01*
X317621Y100250D02*X319621Y102250D01*
X341800Y88000D02*Y84000D01*
X343100Y88000D02*X343800Y87300D01*
Y84700D01*
X343100Y84000D02*X343800Y84700D01*
X341300Y84000D02*X343100D01*
X341300Y88000D02*X343100D01*
X345000Y87500D02*X345500Y88000D01*
X346500D01*
X347000Y87500D01*
X346500Y84000D02*X347000Y84500D01*
X345500Y84000D02*X346500D01*
X345000Y84500D02*X345500Y84000D01*
Y86200D02*X346500D01*
X347000Y87500D02*Y86700D01*
Y85700D02*Y84500D01*
Y85700D02*X346500Y86200D01*
X347000Y86700D02*X346500Y86200D01*
X348200Y84500D02*X348700Y84000D01*
X348200Y87500D02*Y84500D01*
Y87500D02*X348700Y88000D01*
X349700D01*
X350200Y87500D01*
Y84500D01*
X349700Y84000D02*X350200Y84500D01*
X348700Y84000D02*X349700D01*
X348200Y85000D02*X350200Y87000D01*
X351400Y87200D02*X352200Y88000D01*
Y84000D01*
X351400D02*X352900D01*
X289193Y132250D02*X291193D01*
X291693Y131750D01*
Y130750D01*
X291193Y130250D02*X291693Y130750D01*
X289693Y130250D02*X291193D01*
X289693Y132250D02*Y128250D01*
X290493Y130250D02*X291693Y128250D01*
X294393Y132250D02*X294893Y131750D01*
X293393Y132250D02*X294393D01*
X292893Y131750D02*X293393Y132250D01*
X292893Y131750D02*Y128750D01*
X293393Y128250D01*
X294393Y130450D02*X294893Y129950D01*
X292893Y130450D02*X294393D01*
X293393Y128250D02*X294393D01*
X294893Y128750D01*
Y129950D02*Y128750D01*
X296093D02*X296593Y128250D01*
X296093Y131750D02*Y128750D01*
Y131750D02*X296593Y132250D01*
X297593D01*
X298093Y131750D01*
Y128750D01*
X297593Y128250D02*X298093Y128750D01*
X296593Y128250D02*X297593D01*
X296093Y129250D02*X298093Y131250D01*
X299293Y129750D02*X301293Y132250D01*
X299293Y129750D02*X301793D01*
X301293Y132250D02*Y128250D01*
X213620Y50823D02*X214920D01*
X212920Y51523D02*X213620Y50823D01*
X212920Y54123D02*Y51523D01*
Y54123D02*X213620Y54823D01*
X214920D01*
X216120Y54323D02*Y51323D01*
Y54323D02*X216620Y54823D01*
X217620D01*
X218120Y54323D01*
Y51323D01*
X217620Y50823D02*X218120Y51323D01*
X216620Y50823D02*X217620D01*
X216120Y51323D02*X216620Y50823D01*
X219320Y54823D02*Y50823D01*
Y54823D02*X221820Y50823D01*
Y54823D02*Y50823D01*
X223020Y54823D02*Y50823D01*
Y54823D02*X225520Y50823D01*
Y54823D02*Y50823D01*
X227220D02*X229220Y54823D01*
X226720D02*X229220D01*
X230420Y51323D02*X230920Y50823D01*
X230420Y54323D02*Y51323D01*
Y54323D02*X230920Y54823D01*
X231920D01*
X232420Y54323D01*
Y51323D01*
X231920Y50823D02*X232420Y51323D01*
X230920Y50823D02*X231920D01*
X230420Y51823D02*X232420Y53823D01*
X233620Y54323D02*X234120Y54823D01*
X235120D01*
X235620Y54323D01*
X235120Y50823D02*X235620Y51323D01*
X234120Y50823D02*X235120D01*
X233620Y51323D02*X234120Y50823D01*
Y53023D02*X235120D01*
X235620Y54323D02*Y53523D01*
Y52523D02*Y51323D01*
Y52523D02*X235120Y53023D01*
X235620Y53523D02*X235120Y53023D01*
X411500Y61200D02*X412000Y61700D01*
X411500Y61200D02*Y59700D01*
X412000Y59200D02*X411500Y59700D01*
X412000Y59200D02*X413000D01*
X413500Y59700D01*
Y61200D02*Y59700D01*
Y61200D02*X414000Y61700D01*
X415000D01*
X415500Y61200D02*X415000Y61700D01*
X415500Y61200D02*Y59700D01*
X415000Y59200D02*X415500Y59700D01*
X413300Y64400D02*Y62900D01*
X415500Y64900D02*Y62900D01*
X411500D02*X415500D01*
X411500Y64900D02*Y62900D01*
Y68100D02*Y66100D01*
Y68100D02*X412000Y68600D01*
X413000D01*
X413500Y68100D02*X413000Y68600D01*
X413500Y68100D02*Y66600D01*
X411500D02*X415500D01*
X413500Y67400D02*X415500Y68600D01*
X411500Y70300D02*X415500D01*
X411500Y71800D02*Y69800D01*
Y71800D02*X412000Y72300D01*
X413000D01*
X413500Y71800D02*X413000Y72300D01*
X413500Y71800D02*Y70300D01*
X412500Y73500D02*X415500D01*
X412500D02*X411500Y74200D01*
Y75300D02*Y74200D01*
Y75300D02*X412500Y76000D01*
X415500D01*
X413500D02*Y73500D01*
X415500Y79200D02*Y77900D01*
X414800Y77200D02*X415500Y77900D01*
X412200Y77200D02*X414800D01*
X412200D02*X411500Y77900D01*
Y79200D02*Y77900D01*
X415500Y82400D02*Y80400D01*
X415000Y83600D02*X415500Y84100D01*
X412000Y83600D02*X415000D01*
X412000D02*X411500Y84100D01*
Y85100D02*Y84100D01*
Y85100D02*X412000Y85600D01*
X415000D01*
X415500Y85100D02*X415000Y85600D01*
X415500Y85100D02*Y84100D01*
X414500Y83600D02*X412500Y85600D01*
X412000Y86800D02*X411500Y87300D01*
Y88300D02*Y87300D01*
Y88300D02*X412000Y88800D01*
X415500Y88300D02*X415000Y88800D01*
X415500Y88300D02*Y87300D01*
X415000Y86800D02*X415500Y87300D01*
X413300Y88300D02*Y87300D01*
X412000Y88800D02*X412800D01*
X413800D02*X415000D01*
X413800D02*X413300Y88300D01*
X412800Y88800D02*X413300Y88300D01*
X412300Y90000D02*X411500Y90800D01*
X415500D01*
Y91500D02*Y90000D01*
X411500Y93700D02*Y92700D01*
Y93200D02*X415500D01*
Y93700D02*Y92700D01*
Y95400D02*Y94900D01*
X411500Y98600D02*X412000Y99100D01*
X411500Y98600D02*Y97100D01*
X412000Y96600D02*X411500Y97100D01*
X412000Y96600D02*X415000D01*
X415500Y97100D01*
Y98600D02*Y97100D01*
Y98600D02*X415000Y99100D01*
X414000D02*X415000D01*
X413500Y98600D02*X414000Y99100D01*
X413500Y98600D02*Y97600D01*
Y100300D02*X415500Y102300D01*
Y100300D02*X413500Y102300D01*
X415500Y105500D02*Y103500D01*
X412500Y106700D02*X412600D01*
X414000D02*X415500D01*
X414000Y108200D02*X415500D01*
X414000D02*X413500Y108700D01*
Y109200D02*Y108700D01*
Y109200D02*X414000Y109700D01*
X415500D01*
X413500Y107700D02*X414000Y108200D01*
X415500Y112900D02*Y111400D01*
Y112900D02*X415000Y113400D01*
X414500Y112900D02*X415000Y113400D01*
X414500Y112900D02*Y111400D01*
X414000Y110900D02*X414500Y111400D01*
X414000Y110900D02*X413500Y111400D01*
Y112900D02*Y111400D01*
Y112900D02*X414000Y113400D01*
X415000Y110900D02*X415500Y111400D01*
Y116600D02*Y115100D01*
X415000Y114600D02*X415500Y115100D01*
X414000Y114600D02*X415000D01*
X414000D02*X413500Y115100D01*
Y116100D02*Y115100D01*
Y116100D02*X414000Y116600D01*
X414500D02*Y114600D01*
X414000Y116600D02*X414500D01*
X414000Y118300D02*X415500D01*
X414000D02*X413500Y118800D01*
Y119800D02*Y118800D01*
Y117800D02*X414000Y118300D01*
X411500Y121500D02*X415000D01*
X415500Y122000D01*
X413000D02*Y121000D01*
X357319Y300902D02*X359319D01*
X359819Y300402D01*
Y299402D01*
X359319Y298902D02*X359819Y299402D01*
X357819Y298902D02*X359319D01*
X357819Y300902D02*Y296902D01*
X358619Y298902D02*X359819Y296902D01*
X362519Y300902D02*X363019Y300402D01*
X361519Y300902D02*X362519D01*
X361019Y300402D02*X361519Y300902D01*
X361019Y300402D02*Y297402D01*
X361519Y296902D01*
X362519Y299102D02*X363019Y298602D01*
X361019Y299102D02*X362519D01*
X361519Y296902D02*X362519D01*
X363019Y297402D01*
Y298602D02*Y297402D01*
X364219D02*X364719Y296902D01*
X364219Y300402D02*Y297402D01*
Y300402D02*X364719Y300902D01*
X365719D01*
X366219Y300402D01*
Y297402D01*
X365719Y296902D02*X366219Y297402D01*
X364719Y296902D02*X365719D01*
X364219Y297902D02*X366219Y299902D01*
X367419Y300402D02*X367919Y300902D01*
X369419D01*
X369919Y300402D01*
Y299402D01*
X367419Y296902D02*X369919Y299402D01*
X367419Y296902D02*X369919D01*
X363350Y292000D02*X367350D01*
Y290700D02*X366650Y290000D01*
X364050D02*X366650D01*
X363350Y290700D02*X364050Y290000D01*
X363350Y292500D02*Y290700D01*
X367350Y292500D02*Y290700D01*
Y287300D02*X366850Y286800D01*
X367350Y288300D02*Y287300D01*
X366850Y288800D02*X367350Y288300D01*
X363850Y288800D02*X366850D01*
X363850D02*X363350Y288300D01*
X365550Y287300D02*X365050Y286800D01*
X365550Y288800D02*Y287300D01*
X363350Y288300D02*Y287300D01*
X363850Y286800D01*
X365050D01*
X363850Y285600D02*X363350Y285100D01*
X363850Y285600D02*X366850D01*
X367350Y285100D01*
Y284100D01*
X366850Y283600D01*
X363850D02*X366850D01*
X363350Y284100D02*X363850Y283600D01*
X363350Y285100D02*Y284100D01*
X364350Y285600D02*X366350Y283600D01*
X366850Y282400D02*X367350Y281900D01*
Y280900D01*
X366850Y280400D01*
X363350Y280900D02*X363850Y280400D01*
X363350Y281900D02*Y280900D01*
X363850Y282400D02*X363350Y281900D01*
X365550D02*Y280900D01*
X366050Y280400D02*X366850D01*
X363850D02*X365050D01*
X365550Y280900D01*
X366050Y280400D02*X365550Y280900D01*
X267900Y232000D02*Y228500D01*
X268400Y228000D01*
X269400D01*
X269900Y228500D01*
Y232000D02*Y228500D01*
X271100Y232000D02*X273100D01*
X271100D02*Y230000D01*
X271600Y230500D01*
X272600D01*
X273100Y230000D01*
Y228500D01*
X272600Y228000D02*X273100Y228500D01*
X271600Y228000D02*X272600D01*
X271100Y228500D02*X271600Y228000D01*
X274300Y228500D02*X274800Y228000D01*
X274300Y231500D02*Y228500D01*
Y231500D02*X274800Y232000D01*
X275800D01*
X276300Y231500D01*
Y228500D01*
X275800Y228000D02*X276300Y228500D01*
X274800Y228000D02*X275800D01*
X274300Y229000D02*X276300Y231000D01*
X277500Y231200D02*X278300Y232000D01*
Y228000D01*
X277500D02*X279000D01*
X193522Y242500D02*Y239000D01*
X194022Y238500D01*
X195022D01*
X195522Y239000D01*
Y242500D02*Y239000D01*
X196722Y242500D02*X198722D01*
X196722D02*Y240500D01*
X197222Y241000D01*
X198222D01*
X198722Y240500D01*
Y239000D01*
X198222Y238500D02*X198722Y239000D01*
X197222Y238500D02*X198222D01*
X196722Y239000D02*X197222Y238500D01*
X199922Y239000D02*X200422Y238500D01*
X199922Y242000D02*Y239000D01*
Y242000D02*X200422Y242500D01*
X201422D01*
X201922Y242000D01*
Y239000D01*
X201422Y238500D02*X201922Y239000D01*
X200422Y238500D02*X201422D01*
X199922Y239500D02*X201922Y241500D01*
X203122Y242000D02*X203622Y242500D01*
X205122D01*
X205622Y242000D01*
Y241000D01*
X203122Y238500D02*X205622Y241000D01*
X203122Y238500D02*X205622D01*
X401855Y381150D02*X403155D01*
X401155Y381850D02*X401855Y381150D01*
X401155Y384450D02*Y381850D01*
Y384450D02*X401855Y385150D01*
X403155D01*
X404355D02*X406355D01*
X404355D02*Y383150D01*
X404855Y383650D01*
X405855D01*
X406355Y383150D01*
Y381650D01*
X405855Y381150D02*X406355Y381650D01*
X404855Y381150D02*X405855D01*
X404355Y381650D02*X404855Y381150D01*
X407555Y381650D02*X408055Y381150D01*
X407555Y384650D02*Y381650D01*
Y384650D02*X408055Y385150D01*
X409055D01*
X409555Y384650D01*
Y381650D01*
X409055Y381150D02*X409555Y381650D01*
X408055Y381150D02*X409055D01*
X407555Y382150D02*X409555Y384150D01*
X410755Y381650D02*X411255Y381150D01*
X410755Y382450D02*Y381650D01*
Y382450D02*X411455Y383150D01*
X412055D01*
X412755Y382450D01*
Y381650D01*
X412255Y381150D02*X412755Y381650D01*
X411255Y381150D02*X412255D01*
X410755Y383850D02*X411455Y383150D01*
X410755Y384650D02*Y383850D01*
Y384650D02*X411255Y385150D01*
X412255D01*
X412755Y384650D01*
Y383850D01*
X412055Y383150D02*X412755Y383850D01*
X374607Y237750D02*X376607D01*
X377107Y237250D01*
Y236250D01*
X376607Y235750D02*X377107Y236250D01*
X375107Y235750D02*X376607D01*
X375107Y237750D02*Y233750D01*
X375907Y235750D02*X377107Y233750D01*
X379807Y237750D02*X380307Y237250D01*
X378807Y237750D02*X379807D01*
X378307Y237250D02*X378807Y237750D01*
X378307Y237250D02*Y234250D01*
X378807Y233750D01*
X379807Y235950D02*X380307Y235450D01*
X378307Y235950D02*X379807D01*
X378807Y233750D02*X379807D01*
X380307Y234250D01*
Y235450D02*Y234250D01*
X381507D02*X382007Y233750D01*
X381507Y237250D02*Y234250D01*
Y237250D02*X382007Y237750D01*
X383007D01*
X383507Y237250D01*
Y234250D01*
X383007Y233750D02*X383507Y234250D01*
X382007Y233750D02*X383007D01*
X381507Y234750D02*X383507Y236750D01*
X386207Y237750D02*X386707Y237250D01*
X385207Y237750D02*X386207D01*
X384707Y237250D02*X385207Y237750D01*
X384707Y237250D02*Y234250D01*
X385207Y233750D01*
X386207Y235950D02*X386707Y235450D01*
X384707Y235950D02*X386207D01*
X385207Y233750D02*X386207D01*
X386707Y234250D01*
Y235450D02*Y234250D01*
X377021Y252750D02*X379021D01*
X379521Y252250D01*
Y251250D01*
X379021Y250750D02*X379521Y251250D01*
X377521Y250750D02*X379021D01*
X377521Y252750D02*Y248750D01*
X378321Y250750D02*X379521Y248750D01*
X382221Y252750D02*X382721Y252250D01*
X381221Y252750D02*X382221D01*
X380721Y252250D02*X381221Y252750D01*
X380721Y252250D02*Y249250D01*
X381221Y248750D01*
X382221Y250950D02*X382721Y250450D01*
X380721Y250950D02*X382221D01*
X381221Y248750D02*X382221D01*
X382721Y249250D01*
Y250450D02*Y249250D01*
X383921D02*X384421Y248750D01*
X383921Y252250D02*Y249250D01*
Y252250D02*X384421Y252750D01*
X385421D01*
X385921Y252250D01*
Y249250D01*
X385421Y248750D02*X385921Y249250D01*
X384421Y248750D02*X385421D01*
X383921Y249750D02*X385921Y251750D01*
X387621Y248750D02*X389621Y252750D01*
X387121D02*X389621D01*
X365750Y245100D02*X369750D01*
Y243800D02*X369050Y243100D01*
X366450D02*X369050D01*
X365750Y243800D02*X366450Y243100D01*
X365750Y245600D02*Y243800D01*
X369750Y245600D02*Y243800D01*
Y240400D02*X369250Y239900D01*
X369750Y241400D02*Y240400D01*
X369250Y241900D02*X369750Y241400D01*
X366250Y241900D02*X369250D01*
X366250D02*X365750Y241400D01*
X367950Y240400D02*X367450Y239900D01*
X367950Y241900D02*Y240400D01*
X365750Y241400D02*Y240400D01*
X366250Y239900D01*
X367450D01*
X366250Y238700D02*X365750Y238200D01*
X366250Y238700D02*X369250D01*
X369750Y238200D01*
Y237200D01*
X369250Y236700D01*
X366250D02*X369250D01*
X365750Y237200D02*X366250Y236700D01*
X365750Y238200D02*Y237200D01*
X366750Y238700D02*X368750Y236700D01*
X368950Y235500D02*X369750Y234700D01*
X365750D02*X369750D01*
X365750Y235500D02*Y234000D01*
X282900Y392000D02*Y388500D01*
X283400Y388000D01*
X284400D01*
X284900Y388500D01*
Y392000D02*Y388500D01*
X286100Y391500D02*X286600Y392000D01*
X288100D01*
X288600Y391500D01*
Y390500D01*
X286100Y388000D02*X288600Y390500D01*
X286100Y388000D02*X288600D01*
X289800Y388500D02*X290300Y388000D01*
X289800Y391500D02*Y388500D01*
Y391500D02*X290300Y392000D01*
X291300D01*
X291800Y391500D01*
Y388500D01*
X291300Y388000D02*X291800Y388500D01*
X290300Y388000D02*X291300D01*
X289800Y389000D02*X291800Y391000D01*
X293000Y388500D02*X293500Y388000D01*
X293000Y391500D02*Y388500D01*
Y391500D02*X293500Y392000D01*
X294500D01*
X295000Y391500D01*
Y388500D01*
X294500Y388000D02*X295000Y388500D01*
X293500Y388000D02*X294500D01*
X293000Y389000D02*X295000Y391000D01*
X341150Y310750D02*X343150D01*
X343650Y310250D01*
Y309250D01*
X343150Y308750D02*X343650Y309250D01*
X341650Y308750D02*X343150D01*
X341650Y310750D02*Y306750D01*
X342450Y308750D02*X343650Y306750D01*
X346350Y310750D02*X346850Y310250D01*
X345350Y310750D02*X346350D01*
X344850Y310250D02*X345350Y310750D01*
X344850Y310250D02*Y307250D01*
X345350Y306750D01*
X346350Y308950D02*X346850Y308450D01*
X344850Y308950D02*X346350D01*
X345350Y306750D02*X346350D01*
X346850Y307250D01*
Y308450D02*Y307250D01*
X348050D02*X348550Y306750D01*
X348050Y310250D02*Y307250D01*
Y310250D02*X348550Y310750D01*
X349550D01*
X350050Y310250D01*
Y307250D01*
X349550Y306750D02*X350050Y307250D01*
X348550Y306750D02*X349550D01*
X348050Y307750D02*X350050Y309750D01*
X351250Y310250D02*X351750Y310750D01*
X352750D01*
X353250Y310250D01*
X352750Y306750D02*X353250Y307250D01*
X351750Y306750D02*X352750D01*
X351250Y307250D02*X351750Y306750D01*
Y308950D02*X352750D01*
X353250Y310250D02*Y309450D01*
Y308450D02*Y307250D01*
Y308450D02*X352750Y308950D01*
X353250Y309450D02*X352750Y308950D01*
X392450Y424150D02*X393750D01*
X391750Y424850D02*X392450Y424150D01*
X391750Y427450D02*Y424850D01*
Y427450D02*X392450Y428150D01*
X393750D01*
X394950D02*X396950D01*
X394950D02*Y426150D01*
X395450Y426650D01*
X396450D01*
X396950Y426150D01*
Y424650D01*
X396450Y424150D02*X396950Y424650D01*
X395450Y424150D02*X396450D01*
X394950Y424650D02*X395450Y424150D01*
X398150Y424650D02*X398650Y424150D01*
X398150Y427650D02*Y424650D01*
Y427650D02*X398650Y428150D01*
X399650D01*
X400150Y427650D01*
Y424650D01*
X399650Y424150D02*X400150Y424650D01*
X398650Y424150D02*X399650D01*
X398150Y425150D02*X400150Y427150D01*
X401350Y427650D02*X401850Y428150D01*
X402850D01*
X403350Y427650D01*
X402850Y424150D02*X403350Y424650D01*
X401850Y424150D02*X402850D01*
X401350Y424650D02*X401850Y424150D01*
Y426350D02*X402850D01*
X403350Y427650D02*Y426850D01*
Y425850D02*Y424650D01*
Y425850D02*X402850Y426350D01*
X403350Y426850D02*X402850Y426350D01*
X359500Y415000D02*X363500D01*
Y413700D02*X362800Y413000D01*
X360200D02*X362800D01*
X359500Y413700D02*X360200Y413000D01*
X359500Y415500D02*Y413700D01*
X363500Y415500D02*Y413700D01*
Y411800D02*Y409800D01*
X361500Y411800D02*X363500D01*
X361500D02*X362000Y411300D01*
Y410300D01*
X361500Y409800D01*
X360000D02*X361500D01*
X359500Y410300D02*X360000Y409800D01*
X359500Y411300D02*Y410300D01*
X360000Y411800D02*X359500Y411300D01*
X360000Y408600D02*X359500Y408100D01*
X360000Y408600D02*X363000D01*
X363500Y408100D01*
Y407100D01*
X363000Y406600D01*
X360000D02*X363000D01*
X359500Y407100D02*X360000Y406600D01*
X359500Y408100D02*Y407100D01*
X360500Y408600D02*X362500Y406600D01*
X362700Y405400D02*X363500Y404600D01*
X359500D02*X363500D01*
X359500Y405400D02*Y403900D01*
X337845Y446150D02*X339845D01*
X340345Y445650D01*
Y444650D01*
X339845Y444150D02*X340345Y444650D01*
X338345Y444150D02*X339845D01*
X338345Y446150D02*Y442150D01*
X339145Y444150D02*X340345Y442150D01*
X341545Y446150D02*X343545D01*
X341545D02*Y444150D01*
X342045Y444650D01*
X343045D01*
X343545Y444150D01*
Y442650D01*
X343045Y442150D02*X343545Y442650D01*
X342045Y442150D02*X343045D01*
X341545Y442650D02*X342045Y442150D01*
X344745Y442650D02*X345245Y442150D01*
X344745Y445650D02*Y442650D01*
Y445650D02*X345245Y446150D01*
X346245D01*
X346745Y445650D01*
Y442650D01*
X346245Y442150D02*X346745Y442650D01*
X345245Y442150D02*X346245D01*
X344745Y443150D02*X346745Y445150D01*
X348445Y442150D02*X349945Y444150D01*
Y445650D02*Y444150D01*
X349445Y446150D02*X349945Y445650D01*
X348445Y446150D02*X349445D01*
X347945Y445650D02*X348445Y446150D01*
X347945Y445650D02*Y444650D01*
X348445Y444150D01*
X349945D01*
X362345Y446150D02*X364345D01*
X364845Y445650D01*
Y444650D01*
X364345Y444150D02*X364845Y444650D01*
X362845Y444150D02*X364345D01*
X362845Y446150D02*Y442150D01*
X363645Y444150D02*X364845Y442150D01*
X366045Y446150D02*X368045D01*
X366045D02*Y444150D01*
X366545Y444650D01*
X367545D01*
X368045Y444150D01*
Y442650D01*
X367545Y442150D02*X368045Y442650D01*
X366545Y442150D02*X367545D01*
X366045Y442650D02*X366545Y442150D01*
X369245Y445350D02*X370045Y446150D01*
Y442150D01*
X369245D02*X370745D01*
X371945Y445650D02*X372445Y446150D01*
X373445D01*
X373945Y445650D01*
X373445Y442150D02*X373945Y442650D01*
X372445Y442150D02*X373445D01*
X371945Y442650D02*X372445Y442150D01*
Y444350D02*X373445D01*
X373945Y445650D02*Y444850D01*
Y443850D02*Y442650D01*
Y443850D02*X373445Y444350D01*
X373945Y444850D02*X373445Y444350D01*
X386345Y446150D02*X388345D01*
X388845Y445650D01*
Y444650D01*
X388345Y444150D02*X388845Y444650D01*
X386845Y444150D02*X388345D01*
X386845Y446150D02*Y442150D01*
X387645Y444150D02*X388845Y442150D01*
X390045Y446150D02*X392045D01*
X390045D02*Y444150D01*
X390545Y444650D01*
X391545D01*
X392045Y444150D01*
Y442650D01*
X391545Y442150D02*X392045Y442650D01*
X390545Y442150D02*X391545D01*
X390045Y442650D02*X390545Y442150D01*
X393245Y445350D02*X394045Y446150D01*
Y442150D01*
X393245D02*X394745D01*
X395945Y443650D02*X397945Y446150D01*
X395945Y443650D02*X398445D01*
X397945Y446150D02*Y442150D01*
X406355Y341150D02*X407655D01*
X405655Y341850D02*X406355Y341150D01*
X405655Y344450D02*Y341850D01*
Y344450D02*X406355Y345150D01*
X407655D01*
X408855D02*X410855D01*
X408855D02*Y343150D01*
X409355Y343650D01*
X410355D01*
X410855Y343150D01*
Y341650D01*
X410355Y341150D02*X410855Y341650D01*
X409355Y341150D02*X410355D01*
X408855Y341650D02*X409355Y341150D01*
X412055Y341650D02*X412555Y341150D01*
X412055Y344650D02*Y341650D01*
Y344650D02*X412555Y345150D01*
X413555D01*
X414055Y344650D01*
Y341650D01*
X413555Y341150D02*X414055Y341650D01*
X412555Y341150D02*X413555D01*
X412055Y342150D02*X414055Y344150D01*
X415755Y341150D02*X417755Y345150D01*
X415255D02*X417755D01*
X410845Y446150D02*X412845D01*
X413345Y445650D01*
Y444650D01*
X412845Y444150D02*X413345Y444650D01*
X411345Y444150D02*X412845D01*
X411345Y446150D02*Y442150D01*
X412145Y444150D02*X413345Y442150D01*
X414545Y446150D02*X416545D01*
X414545D02*Y444150D01*
X415045Y444650D01*
X416045D01*
X416545Y444150D01*
Y442650D01*
X416045Y442150D02*X416545Y442650D01*
X415045Y442150D02*X416045D01*
X414545Y442650D02*X415045Y442150D01*
X417745Y442650D02*X418245Y442150D01*
X417745Y445650D02*Y442650D01*
Y445650D02*X418245Y446150D01*
X419245D01*
X419745Y445650D01*
Y442650D01*
X419245Y442150D02*X419745Y442650D01*
X418245Y442150D02*X419245D01*
X417745Y443150D02*X419745Y445150D01*
X420945Y442650D02*X421445Y442150D01*
X420945Y443450D02*Y442650D01*
Y443450D02*X421645Y444150D01*
X422245D01*
X422945Y443450D01*
Y442650D01*
X422445Y442150D02*X422945Y442650D01*
X421445Y442150D02*X422445D01*
X420945Y444850D02*X421645Y444150D01*
X420945Y445650D02*Y444850D01*
Y445650D02*X421445Y446150D01*
X422445D01*
X422945Y445650D01*
Y444850D01*
X422245Y444150D02*X422945Y444850D01*
X434845Y446150D02*X436845D01*
X437345Y445650D01*
Y444650D01*
X436845Y444150D02*X437345Y444650D01*
X435345Y444150D02*X436845D01*
X435345Y446150D02*Y442150D01*
X436145Y444150D02*X437345Y442150D01*
X438545Y446150D02*X440545D01*
X438545D02*Y444150D01*
X439045Y444650D01*
X440045D01*
X440545Y444150D01*
Y442650D01*
X440045Y442150D02*X440545Y442650D01*
X439045Y442150D02*X440045D01*
X438545Y442650D02*X439045Y442150D01*
X441745Y445350D02*X442545Y446150D01*
Y442150D01*
X441745D02*X443245D01*
X444445Y446150D02*X446445D01*
X444445D02*Y444150D01*
X444945Y444650D01*
X445945D01*
X446445Y444150D01*
Y442650D01*
X445945Y442150D02*X446445Y442650D01*
X444945Y442150D02*X445945D01*
X444445Y442650D02*X444945Y442150D01*
M02*
