G04 start of page 5 for group 3 idx 3 *
G04 Title: (unknown), 3GND *
G04 Creator: pcb 20110918 *
G04 CreationDate: Wed Nov 13 23:37:03 2013 UTC *
G04 For: fosse *
G04 Format: Gerber/RS-274X *
G04 PCB-Dimensions: 550000 2400000 *
G04 PCB-Coordinate-Origin: lower left *
%MOIN*%
%FSLAX25Y25*%
%LNBOTTOM*%
%ADD276C,0.0354*%
%ADD275C,0.1090*%
%ADD274C,0.0200*%
%ADD273C,0.0350*%
%ADD272C,0.0360*%
%ADD271C,0.0600*%
%ADD270C,0.0300*%
%ADD269R,0.0551X0.0551*%
%ADD268R,0.0236X0.0236*%
%ADD267R,0.0177X0.0177*%
%ADD266R,0.0354X0.0354*%
%ADD265R,0.0551X0.0551*%
%ADD264R,0.0236X0.0236*%
%ADD263R,0.0157X0.0157*%
%ADD262R,0.0158X0.0158*%
%ADD261R,0.0197X0.0197*%
%ADD260R,0.0197X0.0197*%
%ADD259C,0.0550*%
%ADD258C,0.0001*%
%ADD257C,0.0394*%
%ADD256C,0.0544*%
%ADD255C,0.2500*%
%ADD254C,0.0100*%
%ADD253C,0.0150*%
G54D253*X259001Y2149352D02*X258962Y2138232D01*
X258960Y2138230D01*
X255064Y2149352D02*Y2143736D01*
X255099Y2143700D01*
X251127Y2149352D02*X251068Y2138258D01*
X251040Y2138230D01*
X247190Y2149352D02*Y2143709D01*
X247199Y2143700D01*
X243253Y2149352D02*X243274Y2138276D01*
X243320Y2138230D01*
X239316Y2149351D02*X239333Y2143736D01*
X239316Y2143718D01*
X235379Y2149351D02*X235390Y2138250D01*
X235410Y2138230D01*
X231442Y2149351D02*Y2143744D01*
X231399Y2143700D01*
X227505Y2149351D02*X227550Y2138250D01*
X227570Y2138230D01*
X223568Y2143744D02*X223525Y2143700D01*
X223568Y2149351D02*Y2143744D01*
G54D254*X221600Y2158800D02*Y2165900D01*
X225537Y2158800D02*Y2170163D01*
X225500Y2170200D01*
X229474Y2158800D02*Y2165874D01*
X229500Y2165900D01*
X233411Y2158800D02*Y2170189D01*
X233400Y2170200D01*
X237348Y2158800D02*Y2165852D01*
X237300Y2165900D01*
X241200Y2170100D02*X241248Y2170148D01*
X241285Y2158800D02*Y2170111D01*
X241248Y2170148D01*
X245248Y2165900D02*Y2158826D01*
X245222Y2158800D01*
X253048Y2165900D02*Y2158848D01*
X253096Y2158800D01*
X249159D02*X249211Y2170089D01*
X249200Y2170100D01*
X257033Y2158800D02*X257037Y2170363D01*
X257000Y2170400D01*
G54D253*X163520Y2161450D02*Y2167120D01*
X163590Y2167190D01*
X160441D02*Y2158171D01*
X160392Y2155308D01*
X157320Y2161450D02*Y2167162D01*
X157292Y2167191D01*
G54D254*X166740Y2148096D02*Y2167190D01*
G54D253*X147820Y2148074D02*X147842Y2148096D01*
X151020Y2141850D02*Y2148068D01*
X150992Y2148096D01*
X154123Y2136223D02*X154120Y2148074D01*
X144693Y2148096D02*Y2141923D01*
X144620Y2141850D01*
X147823Y2136223D02*X147820Y2148074D01*
X141543Y2148096D02*Y2136243D01*
X141500Y2136200D01*
X154120Y2148074D02*X154141Y2148096D01*
X157292D02*Y2141878D01*
X157320Y2141850D01*
X160423Y2136223D02*X160420Y2148074D01*
X160441Y2148096D01*
X163590D02*Y2141880D01*
X163620Y2141850D01*
X154141Y2167190D02*X154092Y2155308D01*
X154120Y2158150D01*
X151020Y2161450D02*Y2167162D01*
X150992Y2167190D01*
X147842D02*X147792Y2155308D01*
X147820Y2158150D01*
X144720Y2161450D02*Y2167163D01*
X144693Y2167190D01*
X141543D02*X141500Y2155300D01*
X141528Y2158142D01*
G54D254*X176189Y2167190D02*Y2171089D01*
X177800Y2172700D01*
X179338Y2167190D02*Y2171162D01*
X177800Y2172700D01*
X185638Y2167190D02*Y2171162D01*
X184100Y2172700D01*
X182488Y2167190D02*Y2171088D01*
X184100Y2172700D01*
X194952Y1972334D02*Y1959748D01*
X199500Y1955200D01*
X198102Y1965098D02*X203500Y1959700D01*
X201251Y1966949D02*X207500Y1960700D01*
X198102Y1972334D02*Y1965098D01*
X201251Y1972334D02*Y1966949D01*
X204401Y1972334D02*Y1966799D01*
X207550Y1972334D02*Y1968250D01*
X210701Y1972334D02*Y1968299D01*
X207500Y1960700D02*Y1955200D01*
X204401Y1966799D02*X211500Y1959700D01*
X207550Y1968250D02*X215300Y1960500D01*
Y1955200D01*
X210701Y1968299D02*X219300Y1959700D01*
X213850Y1969150D02*X219400Y1963600D01*
X219800D01*
X216999Y1968801D02*X219700Y1966100D01*
X194900Y1991376D02*X194952Y1991428D01*
X198102D02*Y1996898D01*
X204401Y1991428D02*Y1996899D01*
X204400Y1996900D01*
X198102Y1996898D02*X198100Y1996900D01*
X194900Y1985500D02*Y1991376D01*
X213850Y1972334D02*Y1969150D01*
X216999Y1972334D02*Y1968801D01*
X220149Y1972334D02*Y1969051D01*
X221400Y1967800D01*
X222200D01*
X223298Y1972334D02*Y1969302D01*
X219800Y1963600D02*X223200Y1960200D01*
X219700Y1966100D02*X220800D01*
X227200Y1959700D01*
X222200Y1967800D02*X226900Y1963100D01*
X226449Y1972334D02*Y1977849D01*
X226500Y1977900D01*
X232747Y1972334D02*Y1977847D01*
X232800Y1977900D01*
X223200Y1960200D02*Y1955200D01*
X226900Y1963100D02*X229700D01*
X231100Y1961700D01*
Y1955200D01*
X223298Y1969302D02*X227400Y1965200D01*
X229598Y1972334D02*Y1968402D01*
X230400Y1967600D01*
X227400Y1965200D02*X231200D01*
X230400Y1967600D02*X232200D01*
X231200Y1965200D02*X235100Y1961300D01*
Y1959700D01*
X232200Y1967600D02*X235500Y1964300D01*
X237600D01*
X238700Y1963200D01*
X235897Y1972334D02*Y1968303D01*
X237700Y1966500D01*
X242400D01*
X243300Y1965600D01*
X239047Y1972334D02*Y1977847D01*
X239100Y1977900D01*
X201251Y1991428D02*Y1985551D01*
X201200Y1985500D01*
X207550Y1991428D02*Y1985550D01*
X207500Y1985500D01*
X210701Y1991428D02*Y1996899D01*
X216999Y1991428D02*Y1996899D01*
X217000Y1996900D01*
X210701Y1996899D02*X210700Y1996900D01*
X213850Y1991428D02*Y1985550D01*
X213800Y1985500D01*
X220149Y1991428D02*Y1985549D01*
X220100Y1985500D01*
X223298Y1991428D02*Y1996898D01*
X229598Y1991428D02*Y1996898D01*
X229600Y1996900D01*
X223298Y1996898D02*X223300Y1996900D01*
X226449Y1991428D02*Y1985549D01*
X226400Y1985500D01*
X232747Y1991428D02*Y1985547D01*
X232700Y1985500D01*
X239047Y1991428D02*Y1985547D01*
X239000Y1985500D01*
X235897Y1991428D02*Y1996897D01*
X235900Y1996900D01*
G54D255*X396700Y2196100D03*
Y1946100D03*
X316700D03*
X36700Y2196100D03*
X116700D03*
X316700D03*
X36700Y1946100D03*
X116700D03*
G54D256*X190166Y2149966D03*
X137016D03*
G54D257*X190425Y1974204D03*
X243575D03*
G54D258*G36*
X480434Y1958715D02*Y1953215D01*
X485934D01*
Y1958715D01*
X480434D01*
G37*
G54D259*X503184Y1955965D03*
G54D260*X185638Y2169218D02*Y2165162D01*
X182488Y2169218D02*Y2165162D01*
X179338Y2169218D02*Y2165162D01*
X185638Y2150123D02*Y2146068D01*
X182488Y2150123D02*Y2146068D01*
X179338Y2150123D02*Y2146068D01*
X176189Y2169218D02*Y2165162D01*
Y2150123D02*Y2146068D01*
X169889Y2169218D02*Y2165162D01*
Y2150123D02*Y2146068D01*
G54D261*X173040Y2169218D02*Y2165163D01*
Y2150123D02*Y2146069D01*
G54D260*X141543Y2169218D02*Y2165162D01*
X144693Y2169218D02*Y2165162D01*
X147842Y2169218D02*Y2165162D01*
X150992Y2169218D02*Y2165162D01*
X154141Y2169218D02*Y2165162D01*
G54D261*X157292Y2169218D02*Y2165163D01*
G54D260*X160441Y2169218D02*Y2165162D01*
X163590Y2169218D02*Y2165162D01*
X166740Y2169218D02*Y2165162D01*
X141543Y2150123D02*Y2146068D01*
X144693Y2150123D02*Y2146068D01*
X147842Y2150123D02*Y2146068D01*
X150992Y2150123D02*Y2146068D01*
X154141Y2150123D02*Y2146068D01*
G54D261*X157292Y2150123D02*Y2146069D01*
G54D260*X160441Y2150123D02*Y2146068D01*
X163590Y2150123D02*Y2146068D01*
X166740Y2150123D02*Y2146068D01*
G54D262*X257033Y2161162D02*Y2156438D01*
X253096Y2161162D02*Y2156438D01*
X249159Y2161162D02*Y2156438D01*
X245222Y2161162D02*Y2156438D01*
G54D263*X259001Y2151713D02*Y2146988D01*
X255064Y2151713D02*Y2146988D01*
X251127Y2151713D02*Y2146988D01*
G54D264*X262938Y2160768D02*Y2156831D01*
Y2151319D02*Y2147382D01*
G54D262*X241285Y2161162D02*Y2156438D01*
X237348Y2161162D02*Y2156438D01*
X233411Y2161162D02*Y2156438D01*
X229474Y2161162D02*Y2156438D01*
X225537Y2161162D02*Y2156438D01*
X221600Y2161162D02*Y2156438D01*
G54D264*X217662Y2160768D02*Y2156831D01*
G54D263*X247190Y2151713D02*Y2146988D01*
X243253Y2151713D02*Y2146988D01*
G54D262*X239316Y2151713D02*Y2146989D01*
X235379Y2151713D02*Y2146989D01*
X231442Y2151713D02*Y2146989D01*
X227505Y2151713D02*Y2146989D01*
X223568Y2151713D02*Y2146989D01*
G54D264*X217662Y2151319D02*Y2147382D01*
G54D260*X239047Y1993456D02*Y1989400D01*
X235897Y1993456D02*Y1989400D01*
X232747Y1993456D02*Y1989400D01*
X229598Y1993456D02*Y1989400D01*
G54D261*X226449Y1993456D02*Y1989401D01*
G54D260*X194952Y1993456D02*Y1989400D01*
X198102Y1993456D02*Y1989400D01*
X201251Y1993456D02*Y1989400D01*
X204401Y1993456D02*Y1989400D01*
X207550Y1993456D02*Y1989400D01*
G54D261*X210701Y1993456D02*Y1989401D01*
G54D260*X213850Y1993456D02*Y1989400D01*
X216999Y1993456D02*Y1989400D01*
X220149Y1993456D02*Y1989400D01*
X223298Y1993456D02*Y1989400D01*
X239047Y1974361D02*Y1970306D01*
X235897Y1974361D02*Y1970306D01*
X232747Y1974361D02*Y1970306D01*
X229598Y1974361D02*Y1970306D01*
G54D261*X226449Y1974361D02*Y1970307D01*
G54D260*X194952Y1974361D02*Y1970306D01*
X198102Y1974361D02*Y1970306D01*
X201251Y1974361D02*Y1970306D01*
X204401Y1974361D02*Y1970306D01*
X207550Y1974361D02*Y1970306D01*
G54D261*X210701Y1974361D02*Y1970307D01*
G54D260*X213850Y1974361D02*Y1970306D01*
X216999Y1974361D02*Y1970306D01*
X220149Y1974361D02*Y1970306D01*
X223298Y1974361D02*Y1970306D01*
G54D265*X221174Y1859545D02*Y1854230D01*
Y1832970D02*Y1827655D01*
X213300Y1859545D02*Y1854230D01*
X205426Y1859545D02*Y1854230D01*
Y1832970D02*Y1827655D01*
X275800Y1852258D02*Y1846943D01*
X260052Y1852258D02*Y1846943D01*
X127548Y1841182D02*Y1835867D01*
X152926Y1842470D02*Y1837155D01*
X168674Y1869045D02*Y1863730D01*
X160800Y1869045D02*Y1863730D01*
X152926Y1869045D02*Y1863730D01*
X168674Y1842470D02*Y1837155D01*
X127548Y1867757D02*Y1862442D01*
X119674Y1867757D02*Y1862442D01*
X111800Y1867757D02*Y1862442D01*
Y1841182D02*Y1835867D01*
X70850Y1863633D02*Y1858318D01*
Y1837058D02*Y1831743D01*
X62976Y1863633D02*Y1858318D01*
X55102Y1863633D02*Y1858318D01*
Y1837058D02*Y1831743D01*
X327800Y1890333D02*Y1885018D01*
X319926Y1890333D02*Y1885018D01*
X312052Y1890333D02*Y1885018D01*
X327800Y1863758D02*Y1858443D01*
X312052Y1863758D02*Y1858443D01*
X275800Y1878833D02*Y1873518D01*
X267926Y1878833D02*Y1873518D01*
X260052Y1878833D02*Y1873518D01*
X359800Y1852258D02*Y1846943D01*
X351760Y1849045D02*Y1843730D01*
X375548Y1852258D02*Y1846943D01*
Y1878833D02*Y1873518D01*
X367674Y1878833D02*Y1873518D01*
X359800Y1878833D02*Y1873518D01*
X343886Y1849045D02*Y1843730D01*
X336012Y1849045D02*Y1843730D01*
X351760Y1822470D02*Y1817155D01*
X336012Y1822470D02*Y1817155D01*
X529692Y2170342D02*Y2165027D01*
X521818Y2170342D02*Y2165027D01*
X529692Y2143767D02*Y2138452D01*
X513944Y2170342D02*Y2165027D01*
Y2143767D02*Y2138452D01*
G54D264*X471595Y2257925D02*Y2255169D01*
X475926Y2257925D02*Y2255169D01*
G54D266*X518190Y2287650D02*X518937D01*
X518190Y2292650D02*X518937D01*
X518190Y2297650D02*X518937D01*
X518190Y2302650D02*X518937D01*
X518190Y2307650D02*X518937D01*
X518190Y2312650D02*X518937D01*
G54D265*X517973Y2321922D02*Y2318772D01*
G54D264*X464902Y2257925D02*Y2255169D01*
G54D261*X446712Y2258515D02*X454390D01*
G54D267*X446614Y2267079D02*Y2258417D01*
G54D268*X468248Y2257924D02*Y2255170D01*
G54D269*X444744Y2321922D02*Y2318772D01*
G54D264*X480256Y2257925D02*Y2255169D01*
X484587Y2257925D02*Y2255169D01*
X488918Y2257925D02*Y2255169D01*
G54D268*X493248Y2257924D02*Y2255170D01*
G54D264*X497579Y2257925D02*Y2255169D01*
X501910Y2257925D02*Y2255169D01*
G54D261*X507342Y2258515D02*X515216D01*
G54D270*X197500Y1934000D03*
X201539Y1934039D03*
X205476Y1934024D03*
X209500Y1934000D03*
X213300D03*
X217300D03*
X221200D03*
X225100D03*
X229100D03*
X233100D03*
X199500Y1955200D03*
X203500Y1959700D03*
X207500Y1955200D03*
X211500Y1959700D03*
X215300Y1955200D03*
X219300Y1959700D03*
X223200Y1955200D03*
X227200Y1959700D03*
X231100Y1955200D03*
X235100Y1959700D03*
X238700Y1963200D03*
X243300Y1965600D03*
X194900Y1985500D03*
X198100Y1996900D03*
X201200Y1985500D03*
X204400Y1996900D03*
X207500Y1985500D03*
X210700Y1996900D03*
X213800Y1985500D03*
X217000Y1996900D03*
X220100Y1985500D03*
X226500Y1977900D03*
X232800D03*
X239100D03*
X223300Y1996900D03*
X229600D03*
X235900D03*
X226400Y1985500D03*
X232700D03*
X239000D03*
X144720Y2161450D03*
X163520D03*
X157320D03*
X151020D03*
X144620Y2141850D03*
X163620D03*
X157320D03*
X151020D03*
X160423Y2136223D03*
X154123D03*
X147823D03*
X141500Y2136200D03*
X160392Y2155308D03*
X154092D03*
X147792D03*
X141500Y2155300D03*
X223570Y2200490D03*
X227470D03*
X231470D03*
X235370D03*
X239270D03*
X243270D03*
X247170D03*
X251170D03*
X255044D03*
X259044D03*
X258960Y2138230D03*
X255099Y2143700D03*
X251040Y2138230D03*
X247199Y2143700D03*
X243320Y2138230D03*
X239316Y2143718D03*
X235410Y2138230D03*
X231399Y2143700D03*
X227570Y2138230D03*
X223525Y2143700D03*
X237300Y2165900D03*
X233400Y2170200D03*
X229500Y2165900D03*
X225500Y2170200D03*
X221600Y2165900D03*
X253048D03*
X249200Y2170100D03*
X257000Y2170400D03*
X245248Y2165900D03*
X241248Y2170148D03*
G54D271*X499500Y2284000D03*
X482500Y2285500D03*
X509500Y2287500D03*
X503500Y2313500D03*
X453000Y2299500D03*
Y2286000D03*
X489000Y2230500D03*
X480256Y2249756D03*
X489000Y2250500D03*
X464500Y2244500D03*
X468000Y2275000D03*
X461000Y2264500D03*
X497500Y2275500D03*
X506500Y2264500D03*
X491000Y2265000D03*
G54D270*X146000Y2200500D03*
G54D271*X39500Y2254000D03*
G54D270*X149900Y2200500D03*
G54D271*X148000Y2269500D03*
Y2284500D03*
G54D270*X153900Y2200500D03*
X157800D03*
X161700D03*
X165700D03*
X169600D03*
X173600D03*
G54D271*X83500Y2272000D03*
X97500Y2264000D03*
X84500Y2285500D03*
G54D272*X112000Y2334000D03*
X94500Y2329000D03*
X92500Y2335000D03*
X107500Y2338500D03*
X99500D03*
G54D271*X165000Y2349000D03*
X145000D03*
G54D272*X103500Y2334000D03*
X107000Y2363500D03*
X93847Y2342153D03*
G54D271*X77500Y2362000D03*
X36000Y2359500D03*
G54D272*X48000Y2353000D03*
X67500D03*
X61000D03*
X54500D03*
X83000Y2345500D03*
G54D271*X31000Y2304500D03*
G54D272*X67000Y2308000D03*
X69000Y2314000D03*
X75000D03*
X98000Y2323500D03*
X97000Y2312000D03*
X91500Y2315500D03*
X98000Y2303500D03*
X91279Y2303721D03*
X91406Y2323406D03*
G54D253*G54D273*G54D253*G54D273*G54D253*G54D273*G54D253*G54D273*G54D274*G54D273*G54D274*G54D273*G54D274*G54D273*G54D274*G54D275*G54D276*G54D270*M02*
