G04 start of page 6 for group 4 idx 4 *
G04 Title: (unknown), New Layer *
G04 Creator: pcb 20110918 *
G04 CreationDate: Mon Nov 11 23:32:46 2013 UTC *
G04 For: fosse *
G04 Format: Gerber/RS-274X *
G04 PCB-Dimensions: 455000 500000 *
G04 PCB-Coordinate-Origin: lower left *
%MOIN*%
%FSLAX25Y25*%
%LNGROUP4*%
%ADD271C,0.0300*%
%ADD270C,0.0354*%
%ADD269C,0.1090*%
%ADD268C,0.0350*%
%ADD267C,0.0360*%
%ADD266C,0.0600*%
%ADD265C,0.0550*%
%ADD264C,0.0394*%
%ADD263C,0.2500*%
%ADD262C,0.0200*%
%ADD261C,0.0160*%
%ADD260C,0.0200*%
%ADD259C,0.0060*%
%ADD258C,0.0000*%
%ADD257C,0.0100*%
%ADD256C,0.0050*%
%ADD255C,0.0080*%
%ADD254C,0.0101*%
%ADD253C,0.0100*%
%ADD252C,0.0079*%
%ADD251C,0.0070*%
%ADD250C,0.0001*%
G54D250*G36*
X163482Y233009D02*X139979D01*
Y261709D01*
X163482D01*
Y233009D01*
G37*
G36*
X139979D01*
Y261709D01*
X163482D01*
Y233009D01*
G37*
G36*
X190982D02*X176070D01*
Y251224D01*
X176075Y251223D01*
X176541Y251260D01*
X176996Y251369D01*
X177428Y251548D01*
X177827Y251793D01*
X178183Y252096D01*
X178486Y252452D01*
X178731Y252851D01*
X178910Y253283D01*
X179019Y253738D01*
X179046Y254204D01*
X179019Y254670D01*
X178910Y255125D01*
X178731Y255557D01*
X178486Y255956D01*
X178183Y256312D01*
X177827Y256615D01*
X177428Y256860D01*
X176996Y257039D01*
X176541Y257148D01*
X176075Y257185D01*
X176070Y257184D01*
Y261709D01*
X190982D01*
Y233009D01*
G37*
G36*
X176070D02*X167481D01*
Y261709D01*
X176070D01*
Y257184D01*
X175609Y257148D01*
X175154Y257039D01*
X174722Y256860D01*
X174323Y256615D01*
X173967Y256312D01*
X173664Y255956D01*
X173419Y255557D01*
X173240Y255125D01*
X173131Y254670D01*
X173094Y254204D01*
X173131Y253738D01*
X173240Y253283D01*
X173419Y252851D01*
X173664Y252452D01*
X173967Y252096D01*
X174323Y251793D01*
X174722Y251548D01*
X175154Y251369D01*
X175609Y251260D01*
X176070Y251224D01*
Y233009D01*
G37*
G36*
X190982D02*X176070D01*
Y251224D01*
X176075Y251223D01*
X176541Y251260D01*
X176996Y251369D01*
X177428Y251548D01*
X177827Y251793D01*
X178183Y252096D01*
X178486Y252452D01*
X178731Y252851D01*
X178910Y253283D01*
X179019Y253738D01*
X179046Y254204D01*
X179019Y254670D01*
X178910Y255125D01*
X178731Y255557D01*
X178486Y255956D01*
X178183Y256312D01*
X177827Y256615D01*
X177428Y256860D01*
X176996Y257039D01*
X176541Y257148D01*
X176075Y257185D01*
X176070Y257184D01*
Y261709D01*
X190982D01*
Y233009D01*
G37*
G36*
X176070D02*X167481D01*
Y261709D01*
X176070D01*
Y257184D01*
X175609Y257148D01*
X175154Y257039D01*
X174722Y256860D01*
X174323Y256615D01*
X173967Y256312D01*
X173664Y255956D01*
X173419Y255557D01*
X173240Y255125D01*
X173131Y254670D01*
X173094Y254204D01*
X173131Y253738D01*
X173240Y253283D01*
X173419Y252851D01*
X173664Y252452D01*
X173967Y252096D01*
X174323Y251793D01*
X174722Y251548D01*
X175154Y251369D01*
X175609Y251260D01*
X176070Y251224D01*
Y233009D01*
G37*
G36*
X107378Y273107D02*Y296604D01*
X136078D01*
Y273107D01*
X107378D01*
G37*
G36*
X122920Y266706D02*X133479D01*
Y238006D01*
X122920D01*
Y251224D01*
X122925Y251223D01*
X123391Y251260D01*
X123846Y251369D01*
X124278Y251548D01*
X124677Y251793D01*
X125033Y252096D01*
X125336Y252452D01*
X125581Y252851D01*
X125760Y253283D01*
X125869Y253738D01*
X125896Y254204D01*
X125869Y254670D01*
X125760Y255125D01*
X125581Y255557D01*
X125336Y255956D01*
X125033Y256312D01*
X124677Y256615D01*
X124278Y256860D01*
X123846Y257039D01*
X123391Y257148D01*
X122925Y257185D01*
X122920Y257184D01*
Y266706D01*
G37*
G36*
X109982Y238006D02*Y266706D01*
X122920D01*
Y257184D01*
X122459Y257148D01*
X122004Y257039D01*
X121572Y256860D01*
X121173Y256615D01*
X120817Y256312D01*
X120514Y255956D01*
X120269Y255557D01*
X120090Y255125D01*
X119981Y254670D01*
X119944Y254204D01*
X119981Y253738D01*
X120090Y253283D01*
X120269Y252851D01*
X120514Y252452D01*
X120817Y252096D01*
X121173Y251793D01*
X121572Y251548D01*
X122004Y251369D01*
X122459Y251260D01*
X122920Y251224D01*
Y238006D01*
X109982D01*
G37*
G36*
X107378Y273107D02*Y286308D01*
X108740Y285145D01*
X110552Y284034D01*
X112515Y283221D01*
X114582Y282725D01*
X116700Y282558D01*
X118818Y282725D01*
X120885Y283221D01*
X122848Y284034D01*
X124660Y285145D01*
X126275Y286525D01*
X127655Y288140D01*
X128766Y289952D01*
X129579Y291915D01*
X129685Y292358D01*
X136078D01*
Y273107D01*
X107378D01*
G37*
G36*
X122920Y266706D02*X133479D01*
Y238006D01*
X122920D01*
Y251224D01*
X122925Y251223D01*
X123391Y251260D01*
X123846Y251369D01*
X124278Y251548D01*
X124677Y251793D01*
X125033Y252096D01*
X125336Y252452D01*
X125581Y252851D01*
X125760Y253283D01*
X125869Y253738D01*
X125896Y254204D01*
X125869Y254670D01*
X125760Y255125D01*
X125581Y255557D01*
X125336Y255956D01*
X125033Y256312D01*
X124677Y256615D01*
X124278Y256860D01*
X123846Y257039D01*
X123391Y257148D01*
X122925Y257185D01*
X122920Y257184D01*
Y266706D01*
G37*
G36*
X109982Y238006D02*Y266706D01*
X122920D01*
Y257184D01*
X122459Y257148D01*
X122004Y257039D01*
X121572Y256860D01*
X121173Y256615D01*
X120817Y256312D01*
X120514Y255956D01*
X120269Y255557D01*
X120090Y255125D01*
X119981Y254670D01*
X119944Y254204D01*
X119981Y253738D01*
X120090Y253283D01*
X120269Y252851D01*
X120514Y252452D01*
X120817Y252096D01*
X121173Y251793D01*
X121572Y251548D01*
X122004Y251369D01*
X122459Y251260D01*
X122920Y251224D01*
Y238006D01*
X109982D01*
G37*
G36*
X127728Y115354D02*X137734D01*
Y105356D01*
X127728D01*
Y115354D01*
G37*
G36*
X137734D01*
Y105356D01*
X127728D01*
Y115354D01*
G37*
G36*
X72379Y198107D02*Y221604D01*
X101079D01*
Y203951D01*
X101028Y203963D01*
X100400Y204012D01*
X99772Y203963D01*
X99160Y203816D01*
X98578Y203575D01*
X98042Y203246D01*
X97563Y202837D01*
X97154Y202358D01*
X96825Y201822D01*
X96584Y201240D01*
X96437Y200628D01*
X96388Y200000D01*
X96437Y199372D01*
X96584Y198760D01*
X96825Y198178D01*
X96869Y198107D01*
X72379D01*
G37*
G36*
X101079Y225609D02*X72379D01*
Y249106D01*
X101079D01*
Y225609D01*
G37*
G36*
X72379Y198107D02*Y221604D01*
X101079D01*
Y203951D01*
X101028Y203963D01*
X100400Y204012D01*
X99772Y203963D01*
X99160Y203816D01*
X98578Y203575D01*
X98042Y203246D01*
X97563Y202837D01*
X97154Y202358D01*
X96825Y201822D01*
X96584Y201240D01*
X96437Y200628D01*
X96388Y200000D01*
X96437Y199372D01*
X96584Y198760D01*
X96825Y198178D01*
X96869Y198107D01*
X72379D01*
G37*
G36*
X101079Y225609D02*X72379D01*
Y249106D01*
X101079D01*
Y225609D01*
G37*
G36*
X72379Y253110D02*Y271321D01*
X72419Y271309D01*
X73834Y270995D01*
X75271Y270806D01*
X76719Y270743D01*
X76972Y270761D01*
X77002Y270768D01*
X78167Y270806D01*
X79605Y270995D01*
X81020Y271309D01*
X82402Y271745D01*
X83742Y272300D01*
X85028Y272969D01*
X86250Y273748D01*
X87400Y274630D01*
X88469Y275610D01*
X89383Y276607D01*
X101079D01*
Y253110D01*
X72379D01*
G37*
G36*
Y276607D01*
X101079D01*
Y253110D01*
X72379D01*
G37*
G36*
X346478Y266506D02*X322982D01*
Y295206D01*
X346478D01*
Y266506D01*
G37*
G36*
X322982D01*
Y295206D01*
X346478D01*
Y266506D01*
G37*
G36*
X301481Y233509D02*X277978D01*
Y262209D01*
X286254D01*
X286329Y262178D01*
X286497Y262138D01*
X286498Y262138D01*
X286670Y262124D01*
X286713Y262128D01*
X291900D01*
X291943Y262124D01*
X292115Y262138D01*
X292116Y262138D01*
X292284Y262178D01*
X292359Y262209D01*
X301481D01*
Y233509D01*
G37*
G36*
X327978D02*X304481D01*
Y262209D01*
X327978D01*
Y233509D01*
G37*
G36*
X355978D02*X332481D01*
Y262209D01*
X355978D01*
Y233509D01*
G37*
G36*
X301481D02*X277978D01*
Y262209D01*
X286254D01*
X286329Y262178D01*
X286497Y262138D01*
X286498Y262138D01*
X286670Y262124D01*
X286713Y262128D01*
X291900D01*
X291943Y262124D01*
X292115Y262138D01*
X292116Y262138D01*
X292284Y262178D01*
X292359Y262209D01*
X301481D01*
Y233509D01*
G37*
G36*
X327978D02*X304481D01*
Y262209D01*
X327978D01*
Y233509D01*
G37*
G36*
X355978D02*X332481D01*
Y262209D01*
X355978D01*
Y233509D01*
G37*
G36*
X350982Y185510D02*X327479D01*
Y214210D01*
X350982D01*
Y185510D01*
G37*
G36*
X323481D02*X299978D01*
Y214210D01*
X323481D01*
Y185510D01*
G37*
G36*
X350982D02*X327479D01*
Y214210D01*
X350982D01*
Y185510D01*
G37*
G36*
X323481D02*X299978D01*
Y214210D01*
X323481D01*
Y185510D01*
G37*
G36*
X310936Y65360D02*X310464Y64236D01*
X309433Y63863D01*
X308403Y64236D01*
X307936Y65360D01*
X308403Y66482D01*
X309433Y66857D01*
X310464Y66482D01*
X310936Y65360D01*
G37*
G36*
X271532D02*X271060Y64236D01*
X270029Y63863D01*
X268999Y64236D01*
X268532Y65360D01*
X268999Y66482D01*
X270029Y66857D01*
X271060Y66482D01*
X271532Y65360D01*
G37*
G36*
X218478Y233009D02*X194981D01*
Y261709D01*
X218478D01*
Y233009D01*
G37*
G36*
X194981D01*
Y261709D01*
X218478D01*
Y233009D01*
G37*
G36*
X245979D02*X222482D01*
Y261709D01*
X245979D01*
Y233009D01*
G37*
G36*
X274978D02*X251481D01*
Y261709D01*
X274978D01*
Y233009D01*
G37*
G36*
X245979D02*X222482D01*
Y261709D01*
X245979D01*
Y233009D01*
G37*
G36*
X274978D02*X251481D01*
Y261709D01*
X274978D01*
Y233009D01*
G37*
G54D251*X369232Y293459D02*Y98656D01*
G54D252*X369182Y293659D02*Y98777D01*
G54D251*X368734Y96203D02*X369232Y98656D01*
X368651Y96211D02*X369151Y98663D01*
G54D253*X357920Y104866D02*X357524Y105804D01*
X356666Y106119D01*
X356645Y106113D02*X357502Y105798D01*
X356666Y103618D02*X357524Y103932D01*
X357502Y103925D02*X356645Y103611D01*
X357524Y103932D02*X357920Y104866D01*
X357898Y104864D02*X357502Y103925D01*
Y105798D02*X357898Y104864D01*
G54D254*X356666Y106119D02*Y103618D01*
G54D251*X369232Y293556D02*X368734Y296009D01*
X368668Y296023D02*X369166Y293564D01*
X369151Y293563D02*X368651Y296010D01*
X368734Y296009D02*X367382Y298010D01*
G54D253*X366622Y298665D02*X367235Y298161D01*
X367772Y297592D01*
X368239Y296957D01*
G54D251*X367322Y298024D02*X368668Y296023D01*
X368651Y296010D02*X367301Y298013D01*
X367382Y298010D02*X365381Y299361D01*
G54D253*X365244Y299420D02*X365960Y299083D01*
X366622Y298665D01*
G54D251*X365320Y299370D02*X367322Y298024D01*
X367301Y298013D02*X365298Y299363D01*
G54D253*X368239Y296957D02*X368624Y296268D01*
X368917Y295535D01*
G54D251*X365381Y299361D02*X362928Y299860D01*
G54D253*X364496Y299664D02*X365244Y299420D01*
X357765Y287360D02*X357371Y286572D01*
X356584Y288541D02*X357371Y288147D01*
X357765Y287360D01*
G54D254*X356584Y288541D02*Y286179D01*
G54D253*X357371Y286572D02*X356584Y286179D01*
G54D251*X64231Y98656D02*Y293556D01*
G54D253*X64235Y293858D02*Y48357D01*
G54D252*X64261Y293914D02*Y48245D01*
G54D255*X64075Y293667D02*Y48317D01*
G54D253*X70236Y293858D02*Y48357D01*
G54D252*X64064Y293659D02*Y98777D01*
G54D251*X64148Y98663D02*X64643Y96211D01*
X65993Y94209D01*
X67995Y92859D01*
X70447Y92364D01*
G54D253*X64235Y293560D02*X64283Y294347D01*
X64430Y295118D01*
G54D251*X64724Y296009D02*X64231Y293556D01*
G54D253*X64430Y295118D02*X64675Y295867D01*
G54D251*X64170Y293564D02*X64664Y296023D01*
X64643Y296010D02*X64148Y293563D01*
G54D253*X69318Y299740D02*X70100Y299843D01*
X70533Y299860D01*
G54D251*X68077Y299361D02*X66075Y298010D01*
G54D253*X65429Y297250D02*X65928Y297857D01*
X66503Y298400D01*
X67137Y298867D01*
G54D251*X67995Y299363D02*X65993Y298013D01*
G54D253*X67137Y298867D02*X67826Y299246D01*
G54D251*X66075Y298010D02*X64724Y296009D01*
G54D253*X64675Y295867D02*X65006Y296582D01*
X65429Y297250D01*
G54D251*X64664Y296023D02*X66015Y298024D01*
X65993Y298013D02*X64643Y296010D01*
X66015Y298024D02*X68017Y299370D01*
X70529Y299860D02*X68077Y299361D01*
G54D253*X67826Y299246D02*X68560Y299539D01*
X69318Y299740D01*
G54D251*X68017Y299370D02*X70469Y299863D01*
X70447D02*X67995Y299363D01*
G54D253*X77844Y287360D02*X77450Y286572D01*
X77522Y286430D02*X77918Y287363D01*
X77522Y288307D01*
X76665Y288617D01*
G54D254*Y286116D01*
G54D253*X77902Y104864D02*X77505Y103925D01*
X76648Y103611D01*
X75791Y103925D01*
G54D254*X75417Y104866D02*X77918D01*
G54D253*X75791Y103925D02*X75401Y104864D01*
X75791Y105798D01*
X76648Y106113D01*
X77505Y105798D01*
G54D254*X76665Y106119D02*Y103618D01*
G54D253*X77505Y105798D02*X77902Y104864D01*
X77450Y286572D02*X76663Y286179D01*
X75875Y286572D01*
X75807Y286430D02*X76665Y286116D01*
X77522Y286430D01*
X75482Y287360D02*X75875Y288147D01*
X76663Y288541D01*
X77450Y288147D01*
X77844Y287360D01*
X75807Y288307D02*X75417Y287363D01*
X76665Y288617D02*X75807Y288307D01*
X75875Y286572D02*X75482Y287360D01*
X75417Y287363D02*X75807Y286430D01*
G54D254*X75417Y287363D02*X77918D01*
G54D253*X96337Y65756D02*Y53956D01*
X110133D01*
Y65756D01*
X96337D01*
G54D256*X110236Y61356D02*X96233D01*
G54D253*X122335Y65756D02*Y53956D01*
X136132D01*
Y65756D01*
X122335D01*
G54D256*X136235Y61356D02*X122232D01*
G54D252*X70561Y42339D02*X185521D01*
G54D257*X163232Y223856D02*Y190860D01*
Y206860D02*Y206810D01*
Y201760D02*Y201710D01*
Y196660D02*Y196510D01*
Y222260D02*X159182D01*
X163232D02*X163182D01*
X159182D02*Y192460D01*
X163232D01*
Y196510D02*X159182Y192460D01*
X163182Y222260D02*X159182Y218260D01*
X163232Y217110D02*X159182Y213060D01*
X163232Y212010D02*X159282Y208060D01*
X163232Y206810D02*X159182Y202760D01*
X163232Y201710D02*X159182Y197660D01*
G54D258*X76731Y119846D02*X76721Y119856D01*
G54D257*X221236Y156859D02*Y138863D01*
Y143152D02*X234943Y156859D01*
X221236Y147152D02*X230943Y156859D01*
X221236Y151152D02*X226943Y156859D01*
X221236Y155152D02*X222943Y156859D01*
X232136Y156856D02*X232182D01*
X227036D02*X227082D01*
X226482Y122160D02*Y117560D01*
X222882Y138860D02*Y134810D01*
Y138860D02*Y138810D01*
X226882Y134810D01*
X228032Y138860D02*X232082Y134810D01*
X222882Y161010D02*Y156856D01*
Y156910D02*Y156856D01*
X232136D02*X227982Y161010D01*
X227036Y156856D02*X222882Y161010D01*
X171521Y223856D02*X181228Y214149D01*
X175521Y223856D02*X181228Y218149D01*
X179521Y223856D02*X181228Y222149D01*
Y218060D02*Y218106D01*
X209184Y262929D02*X211811Y265556D01*
X209168Y262929D02*X214442D01*
X211811Y265556D02*X211815D01*
X214442Y262929D01*
X185382Y222260D02*X181228D01*
X181282D01*
X181228Y218106D02*X185382Y222260D01*
X181228Y223856D02*X163232D01*
X163521D02*X181228Y206149D01*
X167521Y223856D02*X181228Y210149D01*
Y207760D02*Y207806D01*
Y212960D02*Y213006D01*
X163232Y220145D02*X181228Y202149D01*
X163232Y216145D02*X181228Y198149D01*
X163232Y212145D02*X181228Y194149D01*
Y190860D02*Y223856D01*
X185382Y192460D02*Y222260D01*
X181228Y202714D02*X181236D01*
X185382Y206860D01*
X181228Y207806D02*X185382Y211960D01*
X181228Y213006D02*X185382Y217160D01*
X163232Y190860D02*X181228D01*
X163232Y208145D02*X180517Y190860D01*
X163232Y204145D02*X176517Y190860D01*
X163232Y200145D02*X172517Y190860D01*
X163232Y196145D02*X168517Y190860D01*
X163232Y192145D02*X164517Y190860D01*
X181228Y192460D02*X185382D01*
X181228D02*Y192506D01*
X185382Y196660D01*
X181228Y197606D02*X185382Y201760D01*
G54D253*X149332Y50456D02*Y75261D01*
Y75260D01*
Y50456D02*X149376D01*
X149332Y75261D02*X174136D01*
Y50456D01*
X149332D01*
X184754Y50461D02*Y67785D01*
X149332Y75260D02*X174136Y50456D01*
X149376D02*X174136Y75216D01*
X187433Y55583D02*Y67779D01*
X197037D02*Y55583D01*
X225390Y67210D02*Y71507D01*
X226794D01*
Y67210D01*
X224825Y71507D02*Y67210D01*
X227360D02*Y71507D01*
X221457Y67210D02*Y71507D01*
X220886D02*Y67210D01*
X221457Y71507D02*X222856D01*
X223426D02*X224825D01*
X222856D02*Y67210D01*
X223426D02*Y71507D01*
X217518Y67210D02*Y71507D01*
X218917D02*Y67210D01*
X219487D02*Y71507D01*
X217518D02*X218917D01*
X219487D02*X220886D01*
X187433Y67779D02*X197037D01*
X205707Y71507D02*X207107D01*
Y67210D01*
X207676D02*Y71507D01*
X205707Y67210D02*Y71507D01*
X203737Y67210D02*Y71507D01*
X205137D01*
Y67210D01*
X209646D02*Y71507D01*
X207676D02*X209075D01*
Y67210D01*
X209646Y71507D02*X211044D01*
Y67210D01*
X211615D02*Y71507D01*
X213014D01*
Y67210D01*
X213579D02*Y71507D01*
X214983D01*
Y67210D01*
X215549D02*Y71507D01*
X216947D01*
Y67210D01*
X229329D02*Y71507D01*
X230728D02*Y67210D01*
X228758Y71507D02*Y67210D01*
X229329Y71507D02*X230728D01*
X227360D02*X228758D01*
X233267Y67210D02*Y71507D01*
X231297Y67210D02*Y71507D01*
X232697D01*
Y67210D01*
X201768D02*Y71507D01*
X203172D01*
Y67210D01*
X199804Y71507D02*X201204D01*
Y67210D01*
X199804D02*Y71507D01*
X197835Y67210D02*Y71507D01*
X199235D01*
Y67210D01*
G54D251*X64231Y98656D02*X64724Y96203D01*
X66075Y94202D01*
X68077Y92850D01*
G54D258*X61722Y104857D02*X61721Y104856D01*
G54D253*X68222Y42796D02*X67512Y43132D01*
X66844Y43550D01*
X66237Y44054D01*
X65694Y44624D01*
X65228Y45258D01*
X64849Y45947D01*
X64550Y46681D01*
X64354Y47444D01*
X64251Y48226D01*
X64235Y48660D01*
G54D251*X64664Y46218D02*X64170Y48664D01*
G54D253*X70533Y42356D02*X69747Y42404D01*
X68971Y42557D01*
X68222Y42796D01*
G54D251*X70469Y42366D02*X68017Y42865D01*
X66015Y44216D01*
X64664Y46218D01*
G54D253*X77918Y104866D02*X77522Y105804D01*
X76665Y106119D01*
X75807Y105804D01*
X75417Y104866D01*
X75807Y103932D01*
X76665Y103618D01*
X77522Y103932D01*
X77918Y104866D01*
X110650Y102363D02*X110177Y101235D01*
X109147Y100860D01*
X108115Y101235D01*
X107650Y102363D01*
X108115Y103486D01*
X109147Y103861D01*
X110177Y103486D01*
X110650Y102363D01*
G54D254*X109147Y103861D02*Y100860D01*
X107650Y102363D02*X110650D01*
G54D253*X369232Y48357D02*Y293360D01*
X368917Y295535D02*X369118Y294771D01*
X369221Y293989D02*X369232Y293560D01*
G54D251*X369166Y48366D02*Y293364D01*
G54D255*X369175Y293527D02*Y48427D01*
G54D253*X362933Y299860D02*X363719Y299810D01*
X364496Y299664D01*
X369118Y294771D02*X369221Y293989D01*
X363237Y48357D02*Y293858D01*
G54D251*X362868Y299863D02*X365320Y299370D01*
X365298Y299363D02*X362852Y299863D01*
G54D253*X356666Y106119D02*X355809Y105804D01*
X355419Y104866D01*
X355397Y104864D02*X355788Y105798D01*
X356645Y106113D01*
X355419Y104866D02*X355809Y103932D01*
X356666Y103618D01*
X356645Y103611D02*X355788Y103925D01*
X355397Y104864D01*
G54D254*X357920Y104866D02*X355419D01*
X355403Y287360D02*X357765D01*
G54D253*X369232Y48660D02*X369183Y47874D01*
X369036Y47097D01*
X368797Y46349D01*
X368461Y45633D01*
X368039Y44965D01*
X367539Y44358D01*
X366969Y43815D01*
G54D251*X368668Y46218D02*X367322Y44216D01*
X369166Y48664D02*X368668Y46218D01*
G54D253*X366969Y43815D02*X366329Y43354D01*
X365640Y42969D01*
G54D259*X360497Y59181D02*Y39497D01*
G54D251*X367322Y44216D02*X365320Y42865D01*
G54D253*X365640Y42969D02*X364914Y42676D01*
X364149Y42475D01*
X363367Y42372D01*
X362933Y42356D01*
G54D251*X365320Y42865D02*X362868Y42366D01*
G54D253*X347394Y54736D02*Y62836D01*
X349190D02*Y54736D01*
X349950D02*Y62836D01*
X351751D02*Y54736D01*
X347394Y62836D02*X349190D01*
X349950D02*X351751D01*
X344835Y54736D02*Y62836D01*
X344075D02*Y54736D01*
X346635Y62836D02*Y54736D01*
X342274D02*Y62836D01*
X344075D01*
X339718Y54736D02*Y62836D01*
X341514D01*
Y54736D01*
X346722Y44206D02*Y52106D01*
X352619D01*
Y44206D01*
X338850D02*Y52106D01*
X344747D01*
Y44206D01*
X344835Y62836D02*X346635D01*
X235236Y67210D02*Y71507D01*
X236636D01*
Y67210D01*
X279860Y62392D02*X283858D01*
X287732D02*X291736D01*
X295610Y51590D02*Y62392D01*
X299608D01*
Y51590D01*
X291736Y62392D02*Y51590D01*
G54D260*X249717Y67785D02*Y50461D01*
G54D253*X303482Y51590D02*Y62392D01*
X307481D01*
Y51590D01*
X279860D02*Y62392D01*
X283858D02*Y51590D01*
X287732D02*Y62392D01*
G54D261*X285736Y79357D02*Y77860D01*
X293233D02*Y79357D01*
G54D253*X363036Y299860D02*X70735D01*
G54D252*X70363Y299958D02*X362883D01*
G54D255*X70585Y299957D02*X362735D01*
G54D257*X265517Y299860D02*X271517D01*
X274517D02*X277517D01*
G54D253*X363237Y293858D02*X70236D01*
G54D252*X70561Y299820D02*X363080D01*
G54D257*X295517Y299860D02*X301421Y293956D01*
X298517Y299860D02*X301421Y296956D01*
X256517Y299860D02*X284421Y271956D01*
X232421D02*X266421D01*
X287421D02*X259517Y299860D01*
X262517D01*
X287421Y271956D02*X263421D01*
X262517Y299860D02*X290421Y271956D01*
X293421D02*X265517Y299860D01*
X268517D02*X296421Y271956D01*
X290421D02*X293421D01*
X296421D02*X298421D01*
X291943Y263228D02*X289311Y265860D01*
X289302D01*
X286670Y263228D01*
X291943D01*
X284421Y271956D02*X286421D01*
X274421D02*X269421D01*
X281421D02*X278421D01*
X271517Y299860D02*X299421Y271956D01*
X301421Y272956D02*X274517Y299860D01*
X277517D02*X301421Y275956D01*
X280517Y299860D02*X301421Y278956D01*
X292517Y299860D02*X301421Y290956D01*
Y299956D02*Y271956D01*
X283517Y299860D02*X301421Y281956D01*
X286517Y299860D02*X301421Y284956D01*
X289517Y299860D02*X301421Y287956D01*
G54D253*X356584Y286179D02*X355797Y286572D01*
X355403Y287360D01*
X355797Y288147D01*
X356584Y288541D01*
G54D251*X68077Y92850D02*X70529Y92357D01*
X362928D02*X70529D01*
G54D252*X70363Y92478D02*X362883D01*
G54D258*X91720Y104857D02*X91721Y104856D01*
X76731Y89866D02*X76721Y89856D01*
G54D251*X362928Y92357D02*X365381Y92850D01*
X367382Y94202D01*
X368734Y96203D01*
X362852Y92364D02*X365298Y92859D01*
X367301Y94209D01*
X368651Y96211D01*
G54D259*X360497Y39497D02*X330972D01*
Y59181D01*
G54D253*X256732Y79357D02*Y51357D01*
X258235Y77860D02*Y52860D01*
X322736Y79357D02*X256732D01*
X321233Y77860D02*X258235D01*
X256732Y51357D02*X322736D01*
X258235Y52860D02*X321233D01*
X322736Y51357D02*Y79357D01*
X321233Y52860D02*Y77860D01*
X329594Y42449D02*X361875D01*
G54D259*X330972Y59181D02*X360497D01*
G54D253*X184754Y67785D02*X249717D01*
X70533Y42356D02*X362933D01*
X249717Y50461D02*X184754D01*
G54D251*X185671Y42366D02*X362868D01*
G54D255*X70065Y42317D02*X362865D01*
G54D257*X232421Y296956D02*Y293956D01*
Y290956D02*Y287956D01*
Y284956D02*Y281956D01*
Y278956D02*Y275956D01*
X215421Y271956D02*X218421D01*
X221421D02*X223421D01*
X233421D02*X232421Y272956D01*
Y271956D01*
X233421D02*X232421D01*
Y299956D02*X260421Y271956D01*
X257421D02*X232421Y296956D01*
Y271956D02*Y299956D01*
X260421Y271956D02*X257421D01*
X232421Y293956D02*X254421Y271956D01*
X251421D01*
X232421Y290956D01*
Y287956D02*X248421Y271956D01*
X263421D02*X235517Y299860D01*
X238517D01*
X241517D02*X244517D01*
X247517D02*X250517D01*
X253517D02*X256517D01*
G54D253*X215705Y171100D02*X217695D01*
X216700Y170100D02*Y172090D01*
G54D251*X70529Y299860D02*X362928D01*
G54D257*X178517D02*X181517D01*
X184517D02*X187517D01*
X190517D02*X196517D01*
X199517D02*X202517D01*
X232421Y299956D02*X301421D01*
X157421D02*X226421D01*
X160517Y299860D02*X163517D01*
X166517D02*X169517D01*
X172517D02*X175517D01*
X157421Y290956D02*Y287956D01*
Y284956D02*Y281956D01*
Y278956D02*Y275956D01*
X226421Y272956D02*X199517Y299860D01*
X202517D02*X226421Y275956D01*
X205517Y299860D02*X226421Y278956D01*
X220517Y299860D02*X226421Y293956D01*
X223517Y299860D02*X226421Y296956D01*
X208517Y299860D02*X226421Y281956D01*
X211517Y299860D02*X226421Y284956D01*
X214517Y299860D02*X226421Y287956D01*
X217517Y299860D02*X226421Y290956D01*
X157421Y296956D02*Y293956D01*
X226421Y271956D02*X157421D01*
X209421D02*X211421D01*
X199421D02*X194421D01*
X157421D02*X191421D01*
X206421D02*X203421D01*
X212421D02*X188421D01*
X169517Y299860D02*X197421Y271956D01*
X200421D02*X172517Y299860D01*
X175517D02*X203421Y271956D01*
X206421D02*X178517Y299860D01*
X181517D02*X209421Y271956D01*
X212421D02*X184517Y299860D01*
X187517D02*X215421Y271956D01*
X218421D02*X190517Y299860D01*
X193517D02*X221421Y271956D01*
X196517Y299860D02*X224421Y271956D01*
X226421Y299956D02*Y271956D01*
X157421Y299956D02*X185421Y271956D01*
X161421D02*X157421D01*
Y299956D01*
X188421Y271956D02*X160517Y299860D01*
X185421Y271956D02*X182421D01*
X157421Y296956D01*
Y293956D02*X179421Y271956D01*
X176421D02*X157421Y290956D01*
X179421Y271956D02*X176421D01*
X157421Y287956D02*X173421Y271956D01*
X170421D01*
X157421Y284956D01*
Y281956D02*X167421Y271956D01*
X164421D01*
X157421Y278956D01*
Y275956D02*X161421Y271956D01*
X158421D02*X157421Y272956D01*
Y271956D01*
X158421D02*X157421D01*
X163517Y299860D02*X191421Y271956D01*
X194421D02*X166517Y299860D01*
X248421Y271956D02*X245421D01*
X242421D02*X239421D01*
X245421D02*X232421Y284956D01*
Y281956D02*X242421Y271956D01*
X239421D02*X232421Y278956D01*
Y275956D02*X236421Y271956D01*
X232421D01*
X301421D02*X232421D01*
X238517Y299860D02*X266421Y271956D01*
X269421D02*X241517Y299860D01*
X244517D02*X272421Y271956D01*
X275421D02*X247517Y299860D01*
X250517D02*X278421Y271956D01*
X281421D02*X253517Y299860D01*
X278982Y122160D02*Y117560D01*
X290482D01*
Y122160D02*X278982D01*
X302582Y117560D02*X297882D01*
X290482D02*Y122160D01*
X297882Y117560D02*Y129160D01*
X302582D01*
Y117560D01*
X221236Y138863D02*X254232D01*
X221236Y156859D02*X254232D01*
X256235D02*X289231D01*
X267136Y156856D02*X267182D01*
X262036D02*X262082D01*
X221236Y139152D02*X238943Y156859D01*
X237336Y156856D02*X237382D01*
X287946Y138863D02*X289231Y140148D01*
X287636Y156856D02*X287682D01*
X272336D02*X272382D01*
X257882Y138860D02*Y134810D01*
Y138860D02*Y138810D01*
X261882Y134810D01*
X263032Y138860D02*X267082Y134810D01*
X257882D02*X287682D01*
Y138860D02*Y134810D01*
X283632Y138860D02*X287682Y134810D01*
X268132Y138860D02*X272082Y134910D01*
X273282Y138860D02*X273332D01*
X277382Y134810D01*
X278382Y138860D02*X278432D01*
X282482Y134810D01*
X283482Y138860D02*X283632D01*
G54D253*X70236Y48357D02*X363237D01*
G54D257*X289231Y156859D02*Y138863D01*
X287682Y161010D02*Y156856D01*
X256235Y151152D02*X261942Y156859D01*
X256235Y155152D02*X257942Y156859D01*
X256235Y139152D02*X273942Y156859D01*
X259946Y138863D02*X277942Y156859D01*
X256235Y143152D02*X269942Y156859D01*
X256235Y147152D02*X265942Y156859D01*
X257882Y161010D02*Y156856D01*
Y156910D02*Y156856D01*
X262036D02*X257882Y161010D01*
X277428Y156864D02*Y156856D01*
Y156864D02*X273282Y161010D01*
X272336Y156856D02*X268182Y161010D01*
X267136Y156856D02*X262982Y161010D01*
X256235Y138863D02*X289231D01*
X263946D02*X281942Y156859D01*
X267946Y138863D02*X285942Y156859D01*
X271946Y138863D02*X289231Y156148D01*
X275946Y138863D02*X289231Y152148D01*
X279946Y138863D02*X289231Y148148D01*
X283946Y138863D02*X289231Y144148D01*
X257882Y161010D02*X287682D01*
X287636Y156856D02*X283482Y161010D01*
X282536Y156856D02*X278382Y161010D01*
X254232Y156859D02*Y138863D01*
X256235Y156859D02*Y138863D01*
X244947D02*X254232Y148148D01*
X248947Y138863D02*X254232Y144148D01*
X252947Y138863D02*X254232Y140148D01*
X248482Y138860D02*X248632D01*
X252636Y156856D02*X252682D01*
X224947Y138863D02*X242943Y156859D01*
X228947Y138863D02*X246943Y156859D01*
X232947Y138863D02*X250943Y156859D01*
X226482Y117560D02*X237982D01*
Y122160D01*
X226482D01*
X222882Y134810D02*X252682D01*
X243432Y138860D02*X247482Y134810D01*
X248632Y138860D02*X252682Y134810D01*
G54D253*X233267Y71507D02*X234667D01*
X237433Y67779D02*X247037D01*
X234667Y71507D02*Y67210D01*
X237433Y55583D02*Y67779D01*
X247037D02*Y55583D01*
G54D257*X236947Y138863D02*X254232Y156148D01*
X240947Y138863D02*X254232Y152148D01*
X252682Y138860D02*Y134810D01*
X233132Y138860D02*X237082Y134910D01*
X238282Y138860D02*X238332D01*
X242382Y134810D01*
X243382Y138860D02*X243432D01*
X222882Y161010D02*X252682D01*
X242428Y156864D02*Y156856D01*
Y156864D02*X238282Y161010D01*
X237336Y156856D02*X233182Y161010D01*
X252682D02*Y156856D01*
X252636D02*X248482Y161010D01*
X247536Y156856D02*X243382Y161010D01*
G54D253*X264110Y51590D02*Y62392D01*
X268114D01*
Y51590D01*
X271987D02*Y62392D01*
X275986D01*
Y51590D01*
X311354D02*Y62392D01*
Y68322D02*Y79124D01*
Y62392D02*X315358D01*
X311354Y79124D02*X315358D01*
Y68322D01*
Y62392D02*Y51590D01*
X303482Y68322D02*Y79124D01*
X307481D01*
Y68322D01*
X299608Y79124D02*Y68322D01*
X287732Y79124D02*X291736D01*
X295610Y68322D02*Y79124D01*
X299608D01*
X291736D02*Y68322D01*
X287732D02*Y79124D01*
X283858D02*Y68322D01*
X279860D02*Y79124D01*
X271987D02*X275986D01*
Y68322D01*
X279860Y79124D02*X283858D01*
X271987Y68322D02*Y79124D01*
X264110Y68322D02*Y79124D01*
X268114D01*
Y68322D01*
G54D262*X341718Y104854D02*G75*G03X356716Y89856I14998J0D01*G01*
X356728Y119846D02*G75*G03X341718Y104836I0J-15010D01*G01*
X356716Y89856D02*G75*G03X371717Y104857I0J15001D01*G01*
X61721Y104854D02*G75*G03X76719Y89856I14998J0D01*G01*
X76731Y119846D02*G75*G03X61721Y104836I0J-15010D01*G01*
X76719Y89856D02*G75*G03X91720Y104857I0J15001D01*G01*
X91721Y104856D02*G75*G03X76731Y119846I-14990J0D01*G01*
G54D255*X64075Y48327D02*G75*G03X70085Y42317I6010J0D01*G01*
G54D262*X371718Y104856D02*G75*G03X356728Y119846I-14990J0D01*G01*
G54D255*X363145Y42317D02*G75*G03X369175Y48347I0J6030D01*G01*
G54D262*X356728Y302349D02*G75*G03X341718Y287339I0J-15010D01*G01*
Y287357D02*G75*G03X356716Y272359I14998J0D01*G01*
X371718Y287359D02*G75*G03X356728Y302349I-14990J0D01*G01*
G54D255*X362735Y299957D02*G75*G02X369175Y293517I0J-6440D01*G01*
G54D262*X356716Y272359D02*G75*G03X371717Y287360I0J15001D01*G01*
G54D255*X70585Y299957D02*G75*G03X64075Y293447I0J-6510D01*G01*
G54D262*X61721Y287357D02*G75*G03X76719Y272359I14998J0D01*G01*
X76731Y302349D02*G75*G03X61721Y287339I0J-15010D01*G01*
X91721Y287359D02*G75*G03X76731Y302349I-14990J0D01*G01*
X76719Y272359D02*G75*G03X91720Y287360I0J15001D01*G01*
G54D253*X277465Y85077D02*X278265D01*
Y81577D01*
X277765Y81077D02*X278265Y81577D01*
X277265Y81077D02*X277765D01*
X276765Y81577D02*X277265Y81077D01*
X276765Y82077D02*Y81577D01*
X279465Y84277D02*X280265Y85077D01*
Y81077D01*
X279465D02*X280965D01*
X282165Y84277D02*X282965Y85077D01*
Y81077D01*
X282165D02*X283665D01*
X284865Y83077D02*X286865D01*
X288765Y85077D02*X289565D01*
Y81577D01*
X289065Y81077D02*X289565Y81577D01*
X288565Y81077D02*X289065D01*
X288065Y81577D02*X288565Y81077D01*
X288065Y82077D02*Y81577D01*
X290765Y85077D02*X292765D01*
X291765D02*Y81077D01*
X293965Y84077D02*Y81077D01*
Y84077D02*X294665Y85077D01*
X295765D01*
X296465Y84077D01*
Y81077D01*
X293965Y83077D02*X296465D01*
X299665Y85077D02*X300165Y84577D01*
X298165Y85077D02*X299665D01*
X297665Y84577D02*X298165Y85077D01*
X297665Y84577D02*Y81577D01*
X298165Y81077D01*
X299665D01*
X300165Y81577D01*
Y82577D02*Y81577D01*
X299665Y83077D02*X300165Y82577D01*
X298665Y83077D02*X299665D01*
X203351Y76511D02*X204151D01*
Y73011D01*
X203651Y72511D02*X204151Y73011D01*
X203151Y72511D02*X203651D01*
X202651Y73011D02*X203151Y72511D01*
X202651Y73511D02*Y73011D01*
X205351Y76011D02*X205851Y76511D01*
X206851D01*
X207351Y76011D01*
X206851Y72511D02*X207351Y73011D01*
X205851Y72511D02*X206851D01*
X205351Y73011D02*X205851Y72511D01*
Y74711D02*X206851D01*
X207351Y76011D02*Y75211D01*
Y74211D02*Y73011D01*
Y74211D02*X206851Y74711D01*
X207351Y75211D02*X206851Y74711D01*
X190661Y73166D02*X191161Y73666D01*
X192661D01*
X193161Y73166D01*
Y72166D01*
X190661Y69666D02*X193161Y72166D01*
X190661Y69666D02*X193161D01*
X194361Y70166D02*X194861Y69666D01*
X194361Y73166D02*Y70166D01*
Y73166D02*X194861Y73666D01*
X195861D01*
X196361Y73166D01*
Y70166D01*
X195861Y69666D02*X196361Y70166D01*
X194861Y69666D02*X195861D01*
X194361Y70666D02*X196361Y72666D01*
X238114Y72866D02*X238914Y73666D01*
Y69666D01*
X238114D02*X239614D01*
X260250Y75049D02*X261050Y75849D01*
Y71849D01*
X260250D02*X261750D01*
X262950Y75349D02*X263450Y75849D01*
X264450D01*
X264950Y75349D01*
X264450Y71849D02*X264950Y72349D01*
X263450Y71849D02*X264450D01*
X262950Y72349D02*X263450Y71849D01*
Y74049D02*X264450D01*
X264950Y75349D02*Y74549D01*
Y73549D02*Y72349D01*
Y73549D02*X264450Y74049D01*
X264950Y74549D02*X264450Y74049D01*
X183285Y282037D02*Y278037D01*
X182785Y282037D02*X184785D01*
X185285Y281537D01*
Y280537D01*
X184785Y280037D02*X185285Y280537D01*
X183285Y280037D02*X184785D01*
X186485Y281537D02*X186985Y282037D01*
X188485D01*
X188985Y281537D01*
Y280537D01*
X186485Y278037D02*X188985Y280537D01*
X186485Y278037D02*X188985D01*
X190185Y280037D02*X192185D01*
X193385Y282037D02*X194385D01*
X193885D02*Y278037D01*
X193385D02*X194385D01*
X195585Y278537D02*X198585Y281537D01*
X199785D02*Y278537D01*
Y281537D02*X200285Y282037D01*
X201285D01*
X201785Y281537D01*
Y278537D01*
X201285Y278037D02*X201785Y278537D01*
X200285Y278037D02*X201285D01*
X199785Y278537D02*X200285Y278037D01*
X254455Y282877D02*Y278877D01*
X253955Y282877D02*X255955D01*
X256455Y282377D01*
Y281377D01*
X255955Y280877D02*X256455Y281377D01*
X254455Y280877D02*X255955D01*
X257655Y282077D02*X258455Y282877D01*
Y278877D01*
X257655D02*X259155D01*
X260355Y280877D02*X262355D01*
X263555Y278877D02*X265555D01*
X266055Y279377D01*
Y280577D02*Y279377D01*
X265555Y281077D02*X266055Y280577D01*
X264055Y281077D02*X265555D01*
X264055Y282877D02*Y278877D01*
X263555Y282877D02*X265555D01*
X266055Y282377D01*
Y281577D01*
X265555Y281077D02*X266055Y281577D01*
X267255Y282877D02*X268255D01*
X267755D02*Y278877D01*
X267255D02*X268255D01*
X271455Y282877D02*X271955Y282377D01*
X269955Y282877D02*X271455D01*
X269455Y282377D02*X269955Y282877D01*
X269455Y282377D02*Y281377D01*
X269955Y280877D01*
X271455D01*
X271955Y280377D01*
Y279377D01*
X271455Y278877D02*X271955Y279377D01*
X269955Y278877D02*X271455D01*
X269455Y279377D02*X269955Y278877D01*
X273155Y282877D02*X275155D01*
X274155D02*Y278877D01*
X276355Y282877D02*Y278877D01*
Y282877D02*X277855Y280877D01*
X279355Y282877D01*
Y278877D01*
X105605Y104617D02*Y100617D01*
X103605D02*X105605D01*
X104105Y102417D02*X105605D01*
X101405Y100617D02*X102405D01*
X101905Y104617D02*Y100617D01*
X101405Y104617D02*X102405D01*
X99705D02*Y100617D01*
X98405D02*X97705Y101317D01*
Y103917D02*Y101317D01*
X98405Y104617D02*X97705Y103917D01*
X98405Y104617D02*X100205D01*
X98405Y100617D02*X100205D01*
X96505Y103117D02*X94505Y100617D01*
X94005Y103117D02*X96505D01*
X94505Y104617D02*Y100617D01*
X97685Y71405D02*Y67405D01*
X99685D01*
X100885Y69605D02*X102385D01*
X100885Y67405D02*X102885D01*
X100885Y71405D02*Y67405D01*
Y71405D02*X102885D01*
X104585D02*Y67405D01*
X105885Y71405D02*X106585Y70705D01*
Y68105D01*
X105885Y67405D02*X106585Y68105D01*
X104085Y67405D02*X105885D01*
X104085Y71405D02*X105885D01*
X107785Y70605D02*X108585Y71405D01*
Y67405D01*
X107785D02*X109285D01*
X122966Y71567D02*Y67567D01*
X124966D01*
X126166Y69767D02*X127666D01*
X126166Y67567D02*X128166D01*
X126166Y71567D02*Y67567D01*
Y71567D02*X128166D01*
X129866D02*Y67567D01*
X131166Y71567D02*X131866Y70867D01*
Y68267D01*
X131166Y67567D02*X131866Y68267D01*
X129366Y67567D02*X131166D01*
X129366Y71567D02*X131166D01*
X133066Y71067D02*X133566Y71567D01*
X135066D01*
X135566Y71067D01*
Y70067D01*
X133066Y67567D02*X135566Y70067D01*
X133066Y67567D02*X135566D01*
X152533Y81227D02*X153033Y80727D01*
X151033Y81227D02*X152533D01*
X150533Y80727D02*X151033Y81227D01*
X150533Y80727D02*Y79727D01*
X151033Y79227D01*
X152533D01*
X153033Y78727D01*
Y77727D01*
X152533Y77227D02*X153033Y77727D01*
X151033Y77227D02*X152533D01*
X150533Y77727D02*X151033Y77227D01*
X154233Y80727D02*X154733Y81227D01*
X156233D01*
X156733Y80727D01*
Y79727D01*
X154233Y77227D02*X156733Y79727D01*
X154233Y77227D02*X156733D01*
X260213Y58042D02*X261013Y58842D01*
Y54842D01*
X260213D02*X261713D01*
X262913Y56342D02*X264913Y58842D01*
X262913Y56342D02*X265413D01*
X264913Y58842D02*Y54842D01*
X317739Y75052D02*X318539Y75852D01*
Y71852D01*
X317739D02*X319239D01*
X316729Y58355D02*X317229Y58855D01*
X318729D01*
X319229Y58355D01*
Y57355D01*
X316729Y54855D02*X319229Y57355D01*
X316729Y54855D02*X319229D01*
X332761Y56592D02*X333561Y57392D01*
Y53392D01*
X332761D02*X334261D01*
X356722Y57358D02*X358722D01*
X356722D02*Y55358D01*
X357222Y55858D01*
X358222D01*
X358722Y55358D01*
Y53858D01*
X358222Y53358D02*X358722Y53858D01*
X357222Y53358D02*X358222D01*
X356722Y53858D02*X357222Y53358D01*
X330340Y61113D02*X331640D01*
X329640Y61813D02*X330340Y61113D01*
X329640Y64413D02*Y61813D01*
Y64413D02*X330340Y65113D01*
X331640D01*
X332840D02*Y61113D01*
Y65113D02*X335340Y61113D01*
Y65113D02*Y61113D01*
X336540Y64313D02*X337340Y65113D01*
Y61113D01*
X336540D02*X338040D01*
G54D263*X396700Y296100D03*
Y46100D03*
X316700D03*
X36700Y296100D03*
X116700D03*
X316700D03*
X36700Y46100D03*
X116700D03*
G54D264*X122925Y254204D03*
X176075D03*
G54D250*G36*
X62150Y52750D02*Y47250D01*
X67650D01*
Y52750D01*
X62150D01*
G37*
G54D265*X84900Y50000D03*
G54D266*X205900Y370500D03*
X258900Y372500D03*
G54D267*X204900Y351000D03*
G54D266*X241900Y359000D03*
X322800Y95100D03*
X302800D03*
X356300Y84600D03*
X357800Y101600D03*
X347800Y86600D03*
X337300Y93100D03*
X359800Y74600D03*
X336800Y77600D03*
X385800Y80600D03*
X322056Y103844D03*
X316800Y119600D03*
X347300Y116100D03*
X336800Y123100D03*
X371800Y131100D03*
X358300D03*
X302800Y111600D03*
G54D267*X158247Y182653D03*
X156900Y175500D03*
X147400Y186000D03*
X155806Y163906D03*
X155679Y144221D03*
X162400Y144000D03*
X155900Y156000D03*
X161400Y152500D03*
G54D266*X161900Y104500D03*
G54D267*X158900Y169500D03*
X162400Y164000D03*
X171400Y204000D03*
X163900Y179000D03*
X167900Y174500D03*
X171900Y179000D03*
X176400Y174500D03*
G54D266*X212400Y125000D03*
X209400Y189500D03*
X229400D03*
G54D267*X251400Y196000D03*
X270900D03*
G54D266*X212400Y110000D03*
G54D267*X139400Y154500D03*
G54D266*X148900Y126000D03*
X147900Y112500D03*
G54D267*X133400Y154500D03*
X131400Y148500D03*
X118900Y193500D03*
X125400D03*
X131900D03*
X112400D03*
G54D266*X141900Y202500D03*
X100400Y200000D03*
X95400Y145000D03*
X103900Y94500D03*
G54D268*G54D260*G54D268*G54D260*G54D268*G54D260*G54D268*G54D260*G54D268*G54D260*G54D268*G54D260*G54D268*G54D269*G54D270*G54D271*M02*
