G04 start of page 13 for group -4014 idx -4014 *
G04 Title: (unknown), bottompaste *
G04 Creator: pcb 20110918 *
G04 CreationDate: Mon Nov 25 22:54:25 2013 UTC *
G04 For: fosse *
G04 Format: Gerber/RS-274X *
G04 PCB-Dimensions: 550000 550000 *
G04 PCB-Coordinate-Origin: lower left *
%MOIN*%
%FSLAX25Y25*%
%LNBOTTOMPASTE*%
%ADD206R,0.0177X0.0177*%
%ADD205R,0.0551X0.0551*%
%ADD204R,0.0236X0.0236*%
%ADD203R,0.0354X0.0354*%
%ADD202R,0.0866X0.0866*%
%ADD201R,0.0118X0.0118*%
%ADD200R,0.0335X0.0335*%
%ADD199R,0.0551X0.0551*%
%ADD198R,0.0236X0.0236*%
%ADD197R,0.0157X0.0157*%
%ADD196R,0.0158X0.0158*%
%ADD195R,0.0197X0.0197*%
%ADD194R,0.0197X0.0197*%
G54D194*X205048Y279958D02*Y275902D01*
X201898Y279958D02*Y275902D01*
X198748Y279958D02*Y275902D01*
X195599Y279958D02*Y275902D01*
X160953Y279958D02*Y275902D01*
X164103Y279958D02*Y275902D01*
X167252Y279958D02*Y275902D01*
X170402Y279958D02*Y275902D01*
X173551Y279958D02*Y275902D01*
G54D195*X176702Y279958D02*Y275903D01*
G54D194*X179851Y279958D02*Y275902D01*
X183000Y279958D02*Y275902D01*
X186150Y279958D02*Y275902D01*
X189299Y279958D02*Y275902D01*
G54D195*X192450Y279958D02*Y275903D01*
G54D194*X205048Y260863D02*Y256808D01*
X201898Y260863D02*Y256808D01*
X198748Y260863D02*Y256808D01*
X195599Y260863D02*Y256808D01*
X160953Y260863D02*Y256808D01*
X164103Y260863D02*Y256808D01*
X167252Y260863D02*Y256808D01*
X170402Y260863D02*Y256808D01*
X173551Y260863D02*Y256808D01*
G54D195*X176702Y260863D02*Y256809D01*
G54D194*X179851Y260863D02*Y256808D01*
X183000Y260863D02*Y256808D01*
X186150Y260863D02*Y256808D01*
X189299Y260863D02*Y256808D01*
G54D195*X192450Y260863D02*Y256809D01*
G54D196*X276443Y271902D02*Y267178D01*
X272506Y271902D02*Y267178D01*
X268569Y271902D02*Y267178D01*
X264632Y271902D02*Y267178D01*
X260695Y271902D02*Y267178D01*
X256758Y271902D02*Y267178D01*
X252821Y271902D02*Y267178D01*
X248884Y271902D02*Y267178D01*
X244947Y271902D02*Y267178D01*
X241010Y271902D02*Y267178D01*
G54D197*X278411Y262453D02*Y257728D01*
X274474Y262453D02*Y257728D01*
X270537Y262453D02*Y257728D01*
X266600Y262453D02*Y257728D01*
X262663Y262453D02*Y257728D01*
G54D196*X258726Y262453D02*Y257729D01*
X254789Y262453D02*Y257729D01*
X250852Y262453D02*Y257729D01*
X246915Y262453D02*Y257729D01*
X242978Y262453D02*Y257729D01*
G54D198*X237072Y271508D02*Y267571D01*
Y262059D02*Y258122D01*
X282348Y271508D02*Y267571D01*
Y262059D02*Y258122D01*
G54D194*X258457Y104196D02*Y100140D01*
X255307Y104196D02*Y100140D01*
X252157Y104196D02*Y100140D01*
X249008Y104196D02*Y100140D01*
X214362Y104196D02*Y100140D01*
X217512Y104196D02*Y100140D01*
X220661Y104196D02*Y100140D01*
X223811Y104196D02*Y100140D01*
X226960Y104196D02*Y100140D01*
G54D195*X230111Y104196D02*Y100141D01*
G54D194*X233260Y104196D02*Y100140D01*
X236409Y104196D02*Y100140D01*
X239559Y104196D02*Y100140D01*
X242708Y104196D02*Y100140D01*
G54D195*X245859Y104196D02*Y100141D01*
G54D194*X258457Y85101D02*Y81046D01*
X255307Y85101D02*Y81046D01*
X252157Y85101D02*Y81046D01*
X249008Y85101D02*Y81046D01*
X214362Y85101D02*Y81046D01*
X217512Y85101D02*Y81046D01*
X220661Y85101D02*Y81046D01*
X223811Y85101D02*Y81046D01*
X226960Y85101D02*Y81046D01*
G54D195*X230111Y85101D02*Y81047D01*
G54D194*X233260Y85101D02*Y81046D01*
X236409Y85101D02*Y81046D01*
X239559Y85101D02*Y81046D01*
X242708Y85101D02*Y81046D01*
G54D195*X245859Y85101D02*Y81047D01*
G54D199*X103784Y80185D02*Y74870D01*
X95910Y80185D02*Y74870D01*
X88036Y80185D02*Y74870D01*
X103784Y53610D02*Y48295D01*
X88036Y53610D02*Y48295D01*
X67784Y197685D02*Y192370D01*
X59910Y197685D02*Y192370D01*
X52036Y197685D02*Y192370D01*
X67784Y171110D02*Y165795D01*
X52036Y171110D02*Y165795D01*
G54D200*X58119Y266658D02*Y264886D01*
G54D201*X69045Y224040D02*X71013D01*
X69045Y226008D02*X71013D01*
X69045Y227977D02*X71013D01*
X69045Y229945D02*X71013D01*
X69045Y231914D02*X71013D01*
X69045Y233882D02*X71013D01*
X69045Y235851D02*X71013D01*
X69045Y237819D02*X71013D01*
X69045Y239788D02*X71013D01*
X69045Y241756D02*X71013D01*
X69045Y243725D02*X71013D01*
X69045Y245693D02*X71013D01*
X69045Y247662D02*X71013D01*
X69045Y249630D02*X71013D01*
X69045Y251599D02*X71013D01*
X69045Y253567D02*X71013D01*
G54D198*X61997Y224237D02*Y223449D01*
G54D200*X58119Y220595D02*Y218823D01*
G54D198*X61997Y262032D02*Y261244D01*
G54D201*X69045Y255536D02*X71013D01*
X69045Y261441D02*X71013D01*
X69045Y259473D02*X71013D01*
X69045Y257504D02*X71013D01*
G54D202*X64122Y217937D02*Y214000D01*
X64123Y271480D02*Y267543D01*
G54D203*X388600Y248390D02*X389347D01*
X388600Y253390D02*X389347D01*
X388600Y258390D02*X389347D01*
X388600Y263390D02*X389347D01*
X388600Y268390D02*X389347D01*
X388600Y273390D02*X389347D01*
G54D198*X335312Y218665D02*Y215909D01*
G54D204*X338658Y218664D02*Y215910D01*
G54D198*X342005Y218665D02*Y215909D01*
X346336Y218665D02*Y215909D01*
X350666Y218665D02*Y215909D01*
X354997Y218665D02*Y215909D01*
X359328Y218665D02*Y215909D01*
G54D204*X363658Y218664D02*Y215910D01*
G54D198*X367989Y218665D02*Y215909D01*
X372320Y218665D02*Y215909D01*
G54D195*X377752Y219255D02*X385626D01*
G54D199*X388383Y282662D02*Y279512D01*
G54D205*X315154Y282662D02*Y279512D01*
G54D195*X317122Y219255D02*X324800D01*
G54D206*X317024Y227819D02*Y219157D01*
G54D199*X103784Y315185D02*Y309870D01*
X95910Y315185D02*Y309870D01*
X88036Y315185D02*Y309870D01*
X103784Y288610D02*Y283295D01*
X88036Y288610D02*Y283295D01*
X67784Y120685D02*Y115370D01*
X59910Y120685D02*Y115370D01*
X52036Y120685D02*Y115370D01*
X67784Y94110D02*Y88795D01*
X52036Y94110D02*Y88795D01*
M02*
