G04 start of page 13 for group -4014 idx -4014 *
G04 Title: (unknown), bottompaste *
G04 Creator: pcb 20110918 *
G04 CreationDate: Tue Nov 12 23:37:41 2013 UTC *
G04 For: fosse *
G04 Format: Gerber/RS-274X *
G04 PCB-Dimensions: 455000 500000 *
G04 PCB-Coordinate-Origin: lower left *
%MOIN*%
%FSLAX25Y25*%
%LNBOTTOMPASTE*%
%ADD182R,0.0157X0.0157*%
%ADD181R,0.0158X0.0158*%
%ADD180R,0.0197X0.0197*%
%ADD179R,0.0177X0.0177*%
%ADD178R,0.0551X0.0551*%
%ADD177R,0.0197X0.0197*%
%ADD176R,0.0236X0.0236*%
%ADD175R,0.0236X0.0236*%
%ADD174R,0.0354X0.0354*%
%ADD173R,0.0551X0.0551*%
G54D173*X417048Y198833D02*Y193518D01*
X409174Y198833D02*Y193518D01*
X401300Y198833D02*Y193518D01*
X417048Y172258D02*Y166943D01*
X401300Y172258D02*Y166943D01*
X328048Y254257D02*Y248942D01*
X320174Y254257D02*Y248942D01*
X312300Y254257D02*Y248942D01*
X328048Y227682D02*Y222367D01*
X312300Y227682D02*Y222367D01*
X369174Y255545D02*Y250230D01*
X361300Y255545D02*Y250230D01*
X353426Y255545D02*Y250230D01*
X369174Y228970D02*Y223655D01*
X353426Y228970D02*Y223655D01*
X403174Y255545D02*Y250230D01*
X395300Y255545D02*Y250230D01*
X387426Y255545D02*Y250230D01*
X403174Y228970D02*Y223655D01*
X387426Y228970D02*Y223655D01*
X368800Y301833D02*Y296518D01*
X360926Y301833D02*Y296518D01*
X353052Y301833D02*Y296518D01*
X368800Y275258D02*Y269943D01*
X353052Y275258D02*Y269943D01*
X369300Y210333D02*Y205018D01*
X361426Y210333D02*Y205018D01*
X353552Y210333D02*Y205018D01*
X369300Y183758D02*Y178443D01*
X353552Y183758D02*Y178443D01*
X317300Y198833D02*Y193518D01*
X309426Y198833D02*Y193518D01*
X301552Y198833D02*Y193518D01*
X317300Y172258D02*Y166943D01*
X301552Y172258D02*Y166943D01*
X393260Y169045D02*Y163730D01*
X385386Y169045D02*Y163730D01*
X377512Y169045D02*Y163730D01*
X393260Y142470D02*Y137155D01*
X377512Y142470D02*Y137155D01*
X105008Y269377D02*Y264062D01*
X97134Y269377D02*Y264062D01*
X89260Y269377D02*Y264062D01*
X105008Y242802D02*Y237487D01*
X89260Y242802D02*Y237487D01*
G54D174*X366450Y340410D02*Y339663D01*
X371450Y340410D02*Y339663D01*
X376450Y340410D02*Y339663D01*
X381450Y340410D02*Y339663D01*
X386450Y340410D02*Y339663D01*
X391450Y340410D02*Y339663D01*
G54D175*X333969Y393698D02*X336725D01*
G54D176*X333970Y390352D02*X336724D01*
G54D175*X333969Y387005D02*X336725D01*
X333969Y382674D02*X336725D01*
X333969Y378344D02*X336725D01*
X333969Y374013D02*X336725D01*
X333969Y369682D02*X336725D01*
G54D176*X333970Y365352D02*X336724D01*
G54D175*X333969Y361021D02*X336725D01*
X333969Y356690D02*X336725D01*
G54D177*X337315Y351258D02*Y343384D01*
G54D173*X397572Y340627D02*X400722D01*
G54D178*X397572Y413856D02*X400722D01*
G54D177*X337315Y411888D02*Y404210D01*
G54D179*X337217Y411986D02*X345879D01*
G54D180*X185638Y269218D02*Y265162D01*
X182488Y269218D02*Y265162D01*
X179338Y269218D02*Y265162D01*
X176189Y269218D02*Y265162D01*
X141543Y269218D02*Y265162D01*
X144693Y269218D02*Y265162D01*
X147842Y269218D02*Y265162D01*
X150992Y269218D02*Y265162D01*
X154141Y269218D02*Y265162D01*
G54D177*X157292Y269218D02*Y265163D01*
G54D180*X160441Y269218D02*Y265162D01*
X163590Y269218D02*Y265162D01*
X166740Y269218D02*Y265162D01*
X169889Y269218D02*Y265162D01*
G54D177*X173040Y269218D02*Y265163D01*
G54D180*X185638Y250123D02*Y246068D01*
X182488Y250123D02*Y246068D01*
X179338Y250123D02*Y246068D01*
X176189Y250123D02*Y246068D01*
X141543Y250123D02*Y246068D01*
X144693Y250123D02*Y246068D01*
X147842Y250123D02*Y246068D01*
X150992Y250123D02*Y246068D01*
X154141Y250123D02*Y246068D01*
G54D177*X157292Y250123D02*Y246069D01*
G54D180*X160441Y250123D02*Y246068D01*
X163590Y250123D02*Y246068D01*
X166740Y250123D02*Y246068D01*
X169889Y250123D02*Y246068D01*
G54D177*X173040Y250123D02*Y246069D01*
G54D181*X257033Y261162D02*Y256438D01*
X253096Y261162D02*Y256438D01*
X249159Y261162D02*Y256438D01*
X245222Y261162D02*Y256438D01*
X241285Y261162D02*Y256438D01*
X237348Y261162D02*Y256438D01*
X233411Y261162D02*Y256438D01*
X229474Y261162D02*Y256438D01*
X225537Y261162D02*Y256438D01*
X221600Y261162D02*Y256438D01*
G54D182*X259001Y251713D02*Y246988D01*
X255064Y251713D02*Y246988D01*
X251127Y251713D02*Y246988D01*
X247190Y251713D02*Y246988D01*
X243253Y251713D02*Y246988D01*
G54D181*X239316Y251713D02*Y246989D01*
X235379Y251713D02*Y246989D01*
X231442Y251713D02*Y246989D01*
X227505Y251713D02*Y246989D01*
X223568Y251713D02*Y246989D01*
G54D175*X217662Y260768D02*Y256831D01*
Y251319D02*Y247382D01*
X262938Y260768D02*Y256831D01*
Y251319D02*Y247382D01*
G54D180*X239047Y93456D02*Y89400D01*
X235897Y93456D02*Y89400D01*
X232747Y93456D02*Y89400D01*
X229598Y93456D02*Y89400D01*
X194952Y93456D02*Y89400D01*
X198102Y93456D02*Y89400D01*
X201251Y93456D02*Y89400D01*
X204401Y93456D02*Y89400D01*
X207550Y93456D02*Y89400D01*
G54D177*X210701Y93456D02*Y89401D01*
G54D180*X213850Y93456D02*Y89400D01*
X216999Y93456D02*Y89400D01*
X220149Y93456D02*Y89400D01*
X223298Y93456D02*Y89400D01*
G54D177*X226449Y93456D02*Y89401D01*
G54D180*X239047Y74361D02*Y70306D01*
X235897Y74361D02*Y70306D01*
X232747Y74361D02*Y70306D01*
X229598Y74361D02*Y70306D01*
X194952Y74361D02*Y70306D01*
X198102Y74361D02*Y70306D01*
X201251Y74361D02*Y70306D01*
X204401Y74361D02*Y70306D01*
X207550Y74361D02*Y70306D01*
G54D177*X210701Y74361D02*Y70307D01*
G54D180*X213850Y74361D02*Y70306D01*
X216999Y74361D02*Y70306D01*
X220149Y74361D02*Y70306D01*
X223298Y74361D02*Y70306D01*
G54D177*X226449Y74361D02*Y70307D01*
M02*
