G04 start of page 2 for group 0 idx 0 *
G04 Title: (unknown), 1top *
G04 Creator: pcb 20110918 *
G04 CreationDate: Thu Nov 14 23:28:25 2013 UTC *
G04 For: fosse *
G04 Format: Gerber/RS-274X *
G04 PCB-Dimensions: 550000 600000 *
G04 PCB-Coordinate-Origin: lower left *
%MOIN*%
%FSLAX25Y25*%
%LNTOP*%
%ADD45C,0.0354*%
%ADD44C,0.1090*%
%ADD43C,0.0200*%
%ADD42C,0.0350*%
%ADD41C,0.1150*%
%ADD40C,0.0360*%
%ADD39C,0.0600*%
%ADD38C,0.1190*%
%ADD37C,0.0300*%
%ADD36R,0.0669X0.0669*%
%ADD35C,0.0039*%
%ADD34R,0.0142X0.0142*%
%ADD33R,0.0098X0.0098*%
%ADD32R,0.0591X0.0591*%
%ADD31R,0.0590X0.0590*%
%ADD30R,0.0110X0.0110*%
%ADD29R,0.0098X0.0098*%
%ADD28R,0.0866X0.0866*%
%ADD27R,0.0335X0.0335*%
%ADD26R,0.0118X0.0118*%
%ADD25R,0.0295X0.0295*%
%ADD24R,0.1450X0.1450*%
%ADD23R,0.0340X0.0340*%
%ADD22R,0.0236X0.0236*%
%ADD21R,0.0157X0.0157*%
%ADD20R,0.0158X0.0158*%
%ADD19R,0.0512X0.0512*%
%ADD18C,0.0550*%
%ADD17C,0.0394*%
%ADD16C,0.0544*%
%ADD15C,0.2500*%
%ADD14C,0.0250*%
%ADD13C,0.0100*%
%ADD12C,0.0150*%
%ADD11C,0.0001*%
G54D11*G36*
X499900Y550000D02*Y600000D01*
X549900D01*
Y550000D01*
X499900D01*
G37*
G54D12*X210404Y344404D02*X206320Y340320D01*
X214341Y343841D02*X209520Y339020D01*
X218278Y343278D02*X212620Y337620D01*
X214341Y350400D02*Y343841D01*
X218278Y350400D02*Y343278D01*
X209520Y326450D02*Y339020D01*
X212592Y320308D02*X212620Y337620D01*
X215820Y326450D02*Y336320D01*
X218871Y320287D02*X218920Y334920D01*
X222020Y326450D02*Y333520D01*
X222215Y350400D02*Y342715D01*
X226152Y350400D02*Y342152D01*
X218920Y334920D01*
X230089Y350400D02*Y341589D01*
X222020Y333520D01*
X215820Y336320D02*X222215Y342715D01*
X200000Y320300D02*X200028Y343028D01*
X203220Y326450D02*Y341720D01*
X202530Y350400D02*Y345530D01*
X200028Y343028D01*
X206467Y350400D02*Y344967D01*
X203220Y341720D02*X206467Y344967D01*
X210404Y350400D02*Y344404D01*
X206292Y320308D02*X206320Y340320D01*
X204498Y359849D02*Y365498D01*
X204500Y365500D01*
X208435Y359849D02*Y365465D01*
X208400Y365500D01*
X212372Y359849D02*Y365472D01*
X212400Y365500D01*
X216309Y359849D02*Y365491D01*
X216300Y365500D01*
X220246Y359849D02*Y365454D01*
X220200Y365500D01*
X224183Y359850D02*Y365483D01*
X228120Y359850D02*Y365480D01*
X228100Y365500D01*
X232057Y359850D02*Y365457D01*
X232100Y365500D01*
X224183Y365483D02*X224200Y365500D01*
G54D13*X256102Y105006D02*Y99102D01*
X256000Y99000D01*
X260039Y105006D02*Y99039D01*
X260000Y99000D01*
X263976Y105006D02*Y99024D01*
X264000Y99000D01*
X267913Y105006D02*Y99087D01*
X268000Y99000D01*
X271850Y105006D02*Y99050D01*
X271800Y99000D01*
X275787Y105006D02*Y99013D01*
X275800Y99000D01*
X279724Y105006D02*Y99024D01*
X279700Y99000D01*
X283661Y105006D02*Y99061D01*
X283600Y99000D01*
X287598Y105006D02*Y99002D01*
X287600Y99000D01*
X291535Y105006D02*Y99065D01*
X291600Y99000D01*
X258070Y114454D02*Y120130D01*
X258000Y120200D01*
X262007Y114454D02*Y124693D01*
X262000Y124700D01*
X265944Y114454D02*Y120144D01*
X266000Y120200D01*
X269881Y114454D02*Y124581D01*
X270000Y124700D01*
X273818Y114454D02*Y120182D01*
X273800Y120200D01*
X277755Y114455D02*Y124655D01*
X281692Y114455D02*Y120192D01*
X281700Y120200D01*
X277755Y124655D02*X277800Y124700D01*
X285629Y114455D02*Y124629D01*
X285700Y124700D01*
X289566Y114455D02*Y120166D01*
X289600Y120200D01*
X293503Y114455D02*Y124603D01*
X293600Y124700D01*
G54D12*X282068Y359839D02*Y365488D01*
X282070Y365490D01*
X286005Y359839D02*Y365455D01*
X285970Y365490D01*
X289942Y359839D02*Y365462D01*
X289970Y365490D01*
G54D14*X274441Y429441D02*X274500Y429500D01*
X262000Y429441D02*X274441D01*
G54D13*X262059Y434500D02*X274000D01*
X262000Y434559D02*X262059Y434500D01*
G54D12*X293879Y359839D02*Y365481D01*
X293870Y365490D01*
X297816Y359839D02*Y365444D01*
X297770Y365490D01*
X301753Y359840D02*Y365473D01*
X301770Y365490D01*
X305690Y359840D02*Y365470D01*
X305670Y365490D01*
X309627Y359840D02*Y365447D01*
X309670Y365490D01*
X313564Y359840D02*Y365470D01*
X317501Y359840D02*Y365447D01*
X317544Y365490D01*
X313564Y365470D02*X313544Y365490D01*
G54D13*X280100Y350390D02*Y330900D01*
X284037Y350390D02*Y335237D01*
X284000Y335200D01*
X287974Y350390D02*Y330926D01*
X288000Y330900D01*
X295848Y350390D02*Y330948D01*
X295800Y330900D01*
X291911Y350390D02*Y335211D01*
X291900Y335200D01*
X299748Y335148D02*Y350353D01*
X299785Y350390D01*
X303722D02*Y330926D01*
X307659Y350390D02*X307711Y335111D01*
X303722Y330926D02*X303748Y330900D01*
X307711Y335111D02*X307700Y335100D01*
X311596Y350390D02*Y330948D01*
X311548Y330900D01*
X315533Y350390D02*X315537Y335437D01*
X315500Y335400D01*
X399000Y531000D02*X403000Y535000D01*
X376000Y531000D02*X399000D01*
X374122Y529122D02*X376000Y531000D01*
X374122Y525559D02*Y529122D01*
G54D14*X386457Y524500D02*X380000D01*
X401905D02*X410405Y516000D01*
X393500Y524500D02*X401905D01*
X393500Y524457D02*X393543Y524500D01*
X395280Y512685D02*X398595Y516000D01*
X392500Y512685D02*X395280D01*
G54D13*X383059D02*X392685D01*
G54D14*X390000Y515500D02*X393500Y519000D01*
G54D13*X389153Y514653D02*X390000Y515500D01*
X386122Y516622D02*X387500Y518000D01*
X383059Y516622D02*X386122D01*
G54D14*X387500Y523457D02*X386728Y524228D01*
X387500Y518000D02*Y523457D01*
G54D13*X383059Y514653D02*X389153D01*
G54D14*X393500Y519000D02*Y524457D01*
G54D13*X387500Y523457D02*X386457Y524500D01*
G54D14*X379457Y448543D02*X383000Y445000D01*
X379457Y452500D02*Y448543D01*
X386543Y456457D02*X383000Y460000D01*
X386543Y452500D02*Y456457D01*
G54D13*X374122Y457835D02*X379457Y452500D01*
X374122Y460441D02*Y457835D01*
X336043Y532457D02*X338689Y529811D01*
Y525559D02*Y529811D01*
X335000Y532457D02*X336043D01*
X341457Y539543D02*X342000Y539000D01*
X335000Y539543D02*X341457D01*
X335043Y532500D02*X335000Y532457D01*
X347000Y515500D02*Y509500D01*
X344500Y518000D02*X347000Y515500D01*
X341000Y518000D02*X344500D01*
X336721Y522279D02*X341000Y518000D01*
X338500Y515500D02*Y509500D01*
X336721Y525559D02*Y522279D01*
X334752Y521748D02*X342500Y514000D01*
X334500Y517000D02*Y514000D01*
X334752Y525559D02*Y521748D01*
X332784Y525559D02*Y521216D01*
X330815Y525559D02*Y520685D01*
X332784Y521216D02*X338500Y515500D01*
X330815Y520685D02*X334500Y517000D01*
G54D14*X431000Y508000D02*X486000D01*
X431000Y514000D02*X436500D01*
X493000Y515000D02*X486000Y508000D01*
X479957Y513500D02*X480000Y513457D01*
X476000Y513500D02*X479957D01*
X474000Y515500D02*X476000Y513500D01*
X479957Y520586D02*X480000Y520543D01*
X479957Y534500D02*Y520586D01*
X431000Y520000D02*X454500D01*
X457500Y523000D02*X454500Y520000D01*
X431000Y525500D02*X445500D01*
X449000Y529000D02*X445500Y525500D01*
X431000Y531000D02*X436500D01*
X428950Y541550D02*X430500Y540000D01*
X428950Y548500D02*Y541550D01*
X440500Y543900D02*X435900Y548500D01*
X440500Y535000D02*X436500Y531000D01*
X440500Y543900D02*Y535000D01*
X449000Y548600D02*Y529000D01*
X457500Y548300D02*Y523000D01*
X442500Y552000D02*X449000Y548600D01*
X457500Y548300D02*X457200Y548600D01*
X435900Y560600D02*X433500Y563000D01*
X435900Y560600D02*Y556700D01*
X449000Y562500D02*Y555550D01*
X493000Y538000D02*Y515000D01*
X489500Y541500D02*X493000Y538000D01*
X487000Y541500D02*X489500D01*
X487200Y541700D02*X487000Y541500D01*
X487043Y528043D02*X487000Y528000D01*
X487043Y534500D02*Y528043D01*
X487200Y548500D02*Y541700D01*
X474000Y543000D02*Y515500D01*
X466500Y550500D02*X474000Y543000D01*
X466500Y555000D02*Y550500D01*
X467500Y556000D02*X466500Y555000D01*
X472000Y552500D02*Y551000D01*
X479000Y535457D02*X479957Y534500D01*
X479000Y548500D02*Y535457D01*
Y563000D02*Y555450D01*
X474500Y548500D02*X479000D01*
X472000Y551000D02*X474500Y548500D01*
X467457Y583000D02*X467500Y582957D01*
X457500Y585000D02*X462000D01*
X455500Y583000D02*X457500Y585000D01*
X462000D02*X464000Y583000D01*
X467457D01*
X451000D02*X455500D01*
X451393Y596607D02*X451000Y597000D01*
X451393Y596607D02*Y590086D01*
X451000Y583000D02*Y577000D01*
X467500Y597000D02*Y590043D01*
Y582957D02*Y556000D01*
X266000Y480000D02*Y461500D01*
X262441Y483559D02*X266000Y480000D01*
X262441Y487500D02*Y483559D01*
G54D13*X269059Y489000D02*X267559Y487500D01*
X285500Y489000D02*X269059D01*
X285978Y488522D02*X285500Y489000D01*
X287957Y490500D02*X285957Y488500D01*
X275500Y451000D02*X274000D01*
X280500Y456000D02*X275500Y451000D01*
X280500Y475500D02*Y456000D01*
X283500Y478500D02*X280500Y475500D01*
X287957Y478500D02*X283500D01*
X276000Y510000D02*X293957D01*
X261500Y524027D02*X262264Y523264D01*
X261500Y533441D02*Y524027D01*
G54D14*Y538559D02*X267441D01*
G54D13*X263027Y522500D02*X262700Y522827D01*
X267000Y522500D02*X263027D01*
X269000Y520500D02*X267000Y522500D01*
X269000Y517000D02*Y520500D01*
X276000Y510000D02*X269000Y517000D01*
G54D14*X267441Y538559D02*X271000Y535000D01*
X273559Y537559D02*X271000Y535000D01*
X278000Y537559D02*X273559D01*
G54D13*X278000Y525528D02*X275299Y522827D01*
X276126Y522000D02*X275299Y522827D01*
X295000Y478543D02*X295043Y478500D01*
X295000Y483000D02*Y478543D01*
X299500Y487500D02*X295000Y483000D01*
X299512Y494969D02*X295043Y490500D01*
X299500D02*Y487500D01*
X302000Y493000D02*X299500Y490500D01*
X302500Y483000D02*X302000Y483500D01*
X317941Y494969D02*X299512D01*
X317941Y493000D02*X302000D01*
X317941Y508748D02*X311252D01*
X317941Y510717D02*X312283D01*
X317941Y512685D02*X313315D01*
X317941Y514654D02*X314346D01*
X309500Y513500D02*Y517000D01*
X312283Y510717D02*X309500Y513500D01*
X313315Y512685D02*X311500Y514500D01*
X314346Y514654D02*X313500Y515500D01*
X308500Y468000D02*X307500Y467000D01*
X314000Y468000D02*X308500D01*
X315378Y469378D02*X314000Y468000D01*
X317941Y469378D02*X315378D01*
X326878Y460441D02*Y457378D01*
X330815Y453185D02*X332500Y451500D01*
X330815Y460441D02*Y453185D01*
X328846Y460500D02*Y455346D01*
G54D14*X311405Y461000D02*X319500D01*
G54D13*X323500Y454000D02*X311000D01*
X326878Y457378D02*X323500Y454000D01*
G54D14*X325500Y447500D02*X318500D01*
G54D13*X325500Y452000D02*Y448000D01*
X328846Y455346D02*X325500Y452000D01*
G54D14*X332500Y447500D02*Y439500D01*
G54D13*Y448086D02*X332586Y448000D01*
X332500Y451500D02*Y448086D01*
X311000Y454000D02*X309500Y452500D01*
X307500Y467000D02*Y452500D01*
X305500Y469000D02*Y452500D01*
X303500Y470000D02*Y452500D01*
X299500Y460905D02*X299595Y461000D01*
X299500Y454000D02*Y460905D01*
X297043Y451543D02*X299500Y454000D01*
Y461095D02*X299595Y461000D01*
X297043Y442500D02*Y451543D01*
X299500Y470500D02*Y461095D01*
X306500Y470000D02*X305500Y469000D01*
Y472000D02*X303500Y470000D01*
X303000Y474000D02*X299500Y470500D01*
X313000Y470000D02*X306500D01*
X312000Y472000D02*X305500D01*
X311000Y474000D02*X303000D01*
X312000Y475000D02*X311000Y474000D01*
X312000Y476000D02*Y475000D01*
X313252Y477252D02*X312000Y476000D01*
X304000Y477559D02*X303941Y477500D01*
X314347Y471347D02*X313000Y470000D01*
X317941Y471347D02*X314347D01*
X313315Y473315D02*X312000Y472000D01*
X317941Y473315D02*X313315D01*
X317941Y477252D02*X313252D01*
X317279Y479221D02*X310780D01*
X312500Y483000D02*X302500D01*
X317689Y481189D02*X305189D01*
X308000Y485500D02*X304000Y489500D01*
X310437Y489063D02*X310000Y489500D01*
X311500Y485500D02*X308000D01*
X313095Y487095D02*X311500Y485500D01*
X317941Y487095D02*X313095D01*
X314626Y485126D02*X312500Y483000D01*
X317941Y485126D02*X314626D01*
X317941Y489063D02*X310437D01*
X304000Y480000D02*Y477559D01*
X310780Y479221D02*X309059Y477500D01*
X305189Y481189D02*X304000Y480000D01*
X330000Y485500D02*X332000Y487500D01*
X329284Y475284D02*X333000Y479000D01*
X329500Y482500D02*X333000Y479000D01*
X324500Y485500D02*X330000D01*
X322158Y483158D02*X324500Y485500D01*
X317941Y483158D02*X322158D01*
X317941Y475284D02*X329284D01*
X324500Y482500D02*X329500D01*
X323189Y481189D02*X324500Y482500D01*
X317941Y481189D02*X323189D01*
X317941Y479221D02*X326279D01*
X326468Y491032D02*X326500Y491000D01*
X317941Y491032D02*X326468D01*
G54D14*X316457Y537500D02*X319957Y534000D01*
G54D13*X320000Y533957D02*X319957Y534000D01*
G54D14*X312500Y537500D02*X316457D01*
G54D13*X305500Y536000D02*X313500Y528000D01*
X304500Y534000D02*X311500Y527000D01*
X303500Y532000D02*X308500Y527000D01*
X317941Y520941D02*X318000Y521000D01*
X317941Y516622D02*Y520941D01*
X306000Y517000D02*Y525000D01*
X320000Y530500D02*Y533957D01*
X321000Y529500D02*X320000Y530500D01*
X326000Y529500D02*X321000D01*
X326878Y528622D02*X326000Y529500D01*
X326878Y525559D02*Y528622D01*
X328847Y532196D02*X327043Y534000D01*
X328847Y517653D02*Y532196D01*
X283000Y528500D02*X290500Y536000D01*
X289500Y528500D02*X295000Y534000D01*
X293957Y522000D02*X276126D01*
X278000Y532441D02*Y525528D01*
X329500Y495500D02*X333000Y499000D01*
X324500Y495500D02*X329500D01*
X323063Y496937D02*X324500Y495500D01*
X317941Y496937D02*X323063D01*
X317878Y497000D02*X317941Y496937D01*
Y498906D02*X326406D01*
X325189Y504811D02*X325500Y504500D01*
X323780Y506780D02*X327500Y510500D01*
X317941Y504811D02*X325189D01*
X317941Y506780D02*X323780D01*
X329500Y504500D02*X325500D01*
X314657Y502843D02*X313000Y504500D01*
X313626Y500874D02*X312000Y502500D01*
X317941Y502843D02*X314657D01*
X317941Y500874D02*X313626D01*
X317500Y498906D02*X312594D01*
X311500Y497000D02*X317878D01*
X310000Y498500D02*X311500Y497000D01*
X290500Y536000D02*X305500D01*
X295000Y534000D02*X304500D01*
X298000Y532000D02*X303500D01*
X296000Y530000D02*X298000Y532000D01*
X296000Y528500D02*Y530000D01*
X311500Y514500D02*Y527000D01*
X306000Y525000D02*X302500Y528500D01*
X313500Y515500D02*Y528000D01*
X308500Y518000D02*Y527000D01*
X309500Y517000D02*X308500Y518000D01*
X307500Y515500D02*X306000Y517000D01*
X305500Y514000D02*Y510500D01*
X301043Y518457D02*X305500Y514000D01*
X301043Y522000D02*Y518457D01*
X307500Y512500D02*Y515500D01*
X307043Y504000D02*X301043Y510000D01*
X300500Y498559D02*X300441Y498500D01*
X300500Y501000D02*Y498559D01*
X301500Y502000D02*X300500Y501000D01*
X308000Y502000D02*X301500D01*
X309500Y500500D02*X308000Y502000D01*
X311000Y500500D02*X309500D01*
X312594Y498906D02*X311000Y500500D01*
X305559Y498500D02*X310000D01*
X311500Y504500D02*X305500Y510500D01*
X309000Y504000D02*X307043D01*
X313000Y504500D02*X311500D01*
X310500Y502500D02*X309000Y504000D01*
X312000Y502500D02*X310500D01*
X311252Y508748D02*X307500Y512500D01*
G54D15*X455200Y361100D03*
Y111100D03*
X375200D03*
X95200Y361100D03*
X175200D03*
X375200D03*
X95200Y111100D03*
X175200D03*
G54D16*X248666Y314966D03*
X195516D03*
G54D17*X248925Y139204D03*
X302075D03*
G54D11*G36*
X500336Y228750D02*Y223250D01*
X505836D01*
Y228750D01*
X500336D01*
G37*
G54D18*X523086Y226000D03*
G54D19*X26914Y294893D02*Y294107D01*
X31000Y257893D02*Y257107D01*
X43500Y232893D02*Y232107D01*
X50586Y232893D02*Y232107D01*
X38086Y257893D02*Y257107D01*
G54D20*X237963Y352762D02*Y348038D01*
X234026Y352762D02*Y348038D01*
X230089Y352762D02*Y348038D01*
G54D21*X239931Y362212D02*Y357487D01*
X235994Y362212D02*Y357487D01*
X232057Y362212D02*Y357487D01*
G54D20*X226152Y352762D02*Y348038D01*
X222215Y352762D02*Y348038D01*
X218278Y352762D02*Y348038D01*
G54D21*X228120Y362212D02*Y357487D01*
G54D22*X243868Y352369D02*Y348432D01*
Y361818D02*Y357881D01*
G54D20*X214341Y352762D02*Y348038D01*
X210404Y352762D02*Y348038D01*
X206467Y352762D02*Y348038D01*
X202530Y352762D02*Y348038D01*
G54D22*X198592Y352369D02*Y348432D01*
G54D21*X224183Y362212D02*Y357487D01*
G54D20*X220246Y362211D02*Y357487D01*
X216309Y362211D02*Y357487D01*
X212372Y362211D02*Y357487D01*
X208435Y362211D02*Y357487D01*
X204498Y362211D02*Y357487D01*
G54D22*X198592Y361818D02*Y357881D01*
G54D23*X240650Y480600D02*X240950D01*
X247750Y480900D02*Y480300D01*
Y489100D02*Y488500D01*
X240350Y489100D02*Y488500D01*
X208350Y521000D02*X208650D01*
X191800Y479800D02*X192100D01*
X198900Y480100D02*Y479500D01*
Y488300D02*Y487700D01*
X191500Y488300D02*Y487700D01*
X215450Y521300D02*Y520700D01*
Y529500D02*Y528900D01*
X208050Y529500D02*Y528900D01*
X187650Y543676D02*X187950D01*
X194750Y543976D02*Y543376D01*
Y552176D02*Y551576D01*
X187350Y552176D02*Y551576D01*
G54D19*X34000Y294893D02*Y294107D01*
X32414Y324393D02*Y323607D01*
X39500Y324393D02*Y323607D01*
X30500Y360393D02*Y359607D01*
X37586Y360393D02*Y359607D01*
X31500Y340893D02*Y340107D01*
X38586Y340893D02*Y340107D01*
X31000Y377393D02*Y376607D01*
X38086Y377393D02*Y376607D01*
X67964Y406943D02*Y406157D01*
X75050Y406943D02*Y406157D01*
G54D24*X495586Y258500D02*Y254500D01*
X517386Y258500D02*Y254500D01*
G54D25*X498543Y281549D02*Y280565D01*
X503661Y281549D02*Y280565D01*
G54D19*X503586Y299181D02*Y296819D01*
X515396Y299181D02*Y296819D01*
G54D23*X509513Y37228D02*X509813D01*
X516613Y37528D02*Y36928D01*
Y45728D02*Y45128D01*
X509213Y45728D02*Y45128D01*
G54D19*X516627Y58622D02*Y57836D01*
X523713Y58622D02*Y57836D01*
G54D23*X500013Y60728D02*X500313D01*
X507113Y61028D02*Y60428D01*
X500013Y114229D02*X500313D01*
X507113Y114529D02*Y113929D01*
Y122729D02*Y122129D01*
X499713Y122729D02*Y122129D01*
X506613Y148028D02*Y147428D01*
Y156228D02*Y155628D01*
X499213Y156228D02*Y155628D01*
X499513Y147728D02*X499813D01*
X500013Y133728D02*X500313D01*
X507113Y134028D02*Y133428D01*
Y142228D02*Y141628D01*
X499713Y142228D02*Y141628D01*
X497513Y96228D02*X497813D01*
X504613Y96528D02*Y95928D01*
Y104729D02*Y104129D01*
X497213Y104729D02*Y104129D01*
G54D26*X517110Y83966D02*X519078D01*
X517110Y85934D02*X519078D01*
X517110Y87902D02*X519078D01*
X517110Y89870D02*X519078D01*
X517110Y91840D02*X519078D01*
X517110Y93808D02*X519078D01*
X517110Y95776D02*X519078D01*
X517110Y97744D02*X519078D01*
X517110Y99714D02*X519078D01*
X517110Y101682D02*X519078D01*
X517110Y103651D02*X519078D01*
X517110Y105618D02*X519078D01*
X517110Y107588D02*X519078D01*
X517110Y109556D02*X519078D01*
G54D19*X497713Y82122D02*Y81336D01*
X504799Y82122D02*Y81336D01*
G54D23*X507113Y69228D02*Y68628D01*
X499713Y69228D02*Y68628D01*
G54D26*X517110Y80028D02*X519078D01*
X517110Y81996D02*X519078D01*
G54D22*X526126Y80226D02*Y79438D01*
G54D27*X530004Y76584D02*Y74812D01*
G54D28*X524001Y73926D02*Y69988D01*
G54D27*X530004Y122646D02*Y120874D01*
G54D22*X526126Y118020D02*Y117232D01*
G54D26*X517110Y113492D02*X519078D01*
X517110Y111524D02*X519078D01*
X517110Y117430D02*X519078D01*
X517110Y115462D02*X519078D01*
G54D28*X524000Y127468D02*Y123532D01*
G54D19*X491776Y365181D02*Y362819D01*
X503586Y365181D02*Y362819D01*
X532086Y325393D02*Y324607D01*
X539172Y325393D02*Y324607D01*
G54D29*X516665Y345905D02*Y344133D01*
G54D19*X496000Y333893D02*Y333107D01*
X503086Y333893D02*Y333107D01*
X488000Y346893D02*Y346107D01*
X495086Y346893D02*Y346107D01*
G54D11*G36*
X516763Y357323D02*Y347677D01*
X526409D01*
Y357323D01*
X516763D01*
G37*
G54D29*X513220Y357421D02*X514991D01*
X513220Y355453D02*X514991D01*
X513220Y353484D02*X514991D01*
X513220Y351516D02*X514991D01*
X513220Y349547D02*X514991D01*
G54D25*X514086Y307992D02*Y307008D01*
G54D19*X512000Y334893D02*Y334107D01*
X519086Y334893D02*Y334107D01*
G54D25*X519204Y307992D02*Y307008D01*
G54D19*X496586Y308393D02*Y307607D01*
X498500Y320393D02*Y319607D01*
X503672Y308393D02*Y307607D01*
X514086Y319393D02*Y318607D01*
X521172Y319393D02*Y318607D01*
X505586Y320393D02*Y319607D01*
G54D29*X513220Y347579D02*X514991D01*
X528180Y357421D02*X529952D01*
X528180Y355453D02*X529952D01*
X528180Y353484D02*X529952D01*
X528180Y351516D02*X529952D01*
X528180Y349547D02*X529952D01*
X528180Y347579D02*X529952D01*
X526507Y360866D02*Y359094D01*
X524539Y360866D02*Y359094D01*
X522570Y360866D02*Y359094D01*
X520602Y360866D02*Y359094D01*
X518633Y360866D02*Y359094D01*
G54D19*X531586Y373893D02*Y373107D01*
X538672Y373893D02*Y373107D01*
X517086Y371393D02*Y370607D01*
X524172Y371393D02*Y370607D01*
X503500Y378393D02*Y377607D01*
X510586Y378393D02*Y377607D01*
G54D29*X516665Y360866D02*Y359094D01*
X526507Y345905D02*Y344133D01*
X524539Y345905D02*Y344133D01*
X522570Y345905D02*Y344133D01*
X520602Y345905D02*Y344133D01*
X518633Y345905D02*Y344133D01*
G54D20*X291535Y107368D02*Y102644D01*
X287598Y107368D02*Y102644D01*
X283661Y107368D02*Y102644D01*
X279724Y107368D02*Y102644D01*
X275787Y107368D02*Y102644D01*
X271850Y107368D02*Y102644D01*
G54D21*X293503Y116818D02*Y112093D01*
X289566Y116818D02*Y112093D01*
X285629Y116818D02*Y112093D01*
G54D22*X297440Y106975D02*Y103038D01*
Y116424D02*Y112487D01*
G54D20*X267913Y107368D02*Y102644D01*
X263976Y107368D02*Y102644D01*
X260039Y107368D02*Y102644D01*
X256102Y107368D02*Y102644D01*
G54D22*X252164Y106975D02*Y103038D01*
G54D21*X281692Y116818D02*Y112093D01*
X277755Y116818D02*Y112093D01*
G54D20*X273818Y116817D02*Y112093D01*
X269881Y116817D02*Y112093D01*
X265944Y116817D02*Y112093D01*
X262007Y116817D02*Y112093D01*
X258070Y116817D02*Y112093D01*
G54D22*X252164Y116424D02*Y112487D01*
G54D20*X315533Y352752D02*Y348028D01*
X311596Y352752D02*Y348028D01*
X307659Y352752D02*Y348028D01*
G54D21*X317501Y362202D02*Y357477D01*
X313564Y362202D02*Y357477D01*
X309627Y362202D02*Y357477D01*
G54D19*X311405Y462181D02*Y459819D01*
G54D25*X309059Y477992D02*Y477008D01*
G54D22*X321438Y352359D02*Y348422D01*
Y361808D02*Y357871D01*
G54D30*X315492Y477252D02*X320390D01*
X315492Y475284D02*X320390D01*
X315492Y473315D02*X320390D01*
X315492Y471347D02*X320390D01*
X315492Y469378D02*X320390D01*
G54D20*X303722Y352752D02*Y348028D01*
X299785Y352752D02*Y348028D01*
X295848Y352752D02*Y348028D01*
X291911Y352752D02*Y348028D01*
X287974Y352752D02*Y348028D01*
G54D19*X289957Y442893D02*Y442107D01*
X297043Y442893D02*Y442107D01*
G54D20*X284037Y352752D02*Y348028D01*
X280100Y352752D02*Y348028D01*
G54D22*X276162Y352359D02*Y348422D01*
G54D25*X261508Y429441D02*X262492D01*
G54D31*X274421Y450386D02*Y436606D01*
G54D32*X264578Y462000D02*X274421D01*
G54D21*X305690Y362202D02*Y357477D01*
X301753Y362202D02*Y357477D01*
G54D20*X297816Y362201D02*Y357477D01*
X293879Y362201D02*Y357477D01*
X289942Y362201D02*Y357477D01*
X286005Y362201D02*Y357477D01*
X282068Y362201D02*Y357477D01*
G54D22*X276162Y361808D02*Y357871D01*
G54D25*X261508Y434559D02*X262492D01*
X277508Y537559D02*X278492D01*
X277508Y532441D02*X278492D01*
X261008Y538559D02*X261992D01*
X261008Y533441D02*X261992D01*
G54D19*X287957Y490893D02*Y490107D01*
X295043Y490893D02*Y490107D01*
X287957Y478893D02*Y478107D01*
X295043Y478893D02*Y478107D01*
X274118Y501173D02*X276480D01*
X261519D02*X263881D01*
X274118Y522827D02*X276480D01*
X261519D02*X263881D01*
G54D25*X262441Y487992D02*Y487008D01*
X267559Y487992D02*Y487008D01*
G54D31*X274421Y487393D02*Y473613D01*
G54D19*X293957Y510393D02*Y509607D01*
X301043Y510393D02*Y509607D01*
X293957Y522393D02*Y521607D01*
X301043Y522393D02*Y521607D01*
X299595Y462181D02*Y459819D01*
G54D25*X300441Y498992D02*Y498008D01*
X303941Y477992D02*Y477008D01*
G54D19*X334607Y539543D02*X335393D01*
X319957Y534393D02*Y533607D01*
X327043Y534393D02*Y533607D01*
X334607Y532457D02*X335393D01*
G54D30*X315492Y516622D02*X320390D01*
X315492Y514654D02*X320390D01*
X315492Y512685D02*X320390D01*
X315492Y510717D02*X320390D01*
X338689Y528008D02*Y523110D01*
X336721Y528008D02*Y523110D01*
X334752Y528008D02*Y523110D01*
X332784Y528008D02*Y523110D01*
X330815Y528008D02*Y523110D01*
X328847Y528008D02*Y523110D01*
X326878Y528008D02*Y523110D01*
G54D25*X305559Y498992D02*Y498008D01*
G54D30*X315492Y508748D02*X320390D01*
X315492Y506780D02*X320390D01*
X315492Y504811D02*X320390D01*
X315492Y502843D02*X320390D01*
X315492Y500874D02*X320390D01*
X315492Y498906D02*X320390D01*
X315492Y496937D02*X320390D01*
X315492Y494969D02*X320390D01*
X315492Y493000D02*X320390D01*
X315492Y491032D02*X320390D01*
X315492Y489063D02*X320390D01*
X315492Y487095D02*X320390D01*
X315492Y485126D02*X320390D01*
X315492Y483158D02*X320390D01*
X315492Y481189D02*X320390D01*
X315492Y479221D02*X320390D01*
G54D19*X346959Y444128D02*Y441766D01*
X358769Y444128D02*Y441766D01*
X325500Y448393D02*Y447607D01*
X332586Y448393D02*Y447607D01*
G54D30*X326878Y462890D02*Y457992D01*
X328846Y462890D02*Y457992D01*
X330815Y462890D02*Y457992D01*
X332783Y462890D02*Y457992D01*
X334752Y462890D02*Y457992D01*
X336720Y462890D02*Y457992D01*
X338689Y462890D02*Y457992D01*
X340657Y462890D02*Y457992D01*
X342626Y462890D02*Y457992D01*
X344594Y462890D02*Y457992D01*
X346563Y462890D02*Y457992D01*
X348531Y462890D02*Y457992D01*
X350500Y462890D02*Y457992D01*
X352468Y462890D02*Y457992D01*
X354437Y462890D02*Y457992D01*
X356405Y462890D02*Y457992D01*
X358374Y462890D02*Y457992D01*
X360342Y462890D02*Y457992D01*
X362311Y462890D02*Y457992D01*
X364279Y462890D02*Y457992D01*
X366248Y462890D02*Y457992D01*
X368216Y462890D02*Y457992D01*
X370185Y462890D02*Y457992D01*
G54D19*X530086Y432893D02*Y432107D01*
X537172Y432893D02*Y432107D01*
X530086Y453893D02*Y453107D01*
X537172Y453893D02*Y453107D01*
X530000Y415893D02*Y415107D01*
X537086Y415893D02*Y415107D01*
X477816Y440928D02*Y440142D01*
X484902Y440928D02*Y440142D01*
X487776Y458255D02*Y452745D01*
X498000Y473893D02*Y473107D01*
X505086Y473893D02*Y473107D01*
G54D25*X512468Y472492D02*Y471508D01*
X517586Y472492D02*Y471508D01*
G54D33*X511944Y449094D02*Y447323D01*
G54D34*X509110Y445138D02*Y441240D01*
G54D29*X513913Y449094D02*Y447322D01*
G54D19*X499586Y458255D02*Y452745D01*
X511086Y461893D02*Y461107D01*
G54D33*X515881Y449094D02*Y447323D01*
G54D29*X517850Y449094D02*Y447322D01*
G54D19*X518172Y461893D02*Y461107D01*
G54D35*X508598Y440610D02*X509858Y439350D01*
X509110Y440610D02*X509858Y439862D01*
X509582Y440650D02*X509897Y440335D01*
G54D29*X509976Y437678D02*Y435906D01*
G54D33*X511944Y437678D02*Y435907D01*
G54D29*X513913Y437678D02*Y435906D01*
G54D33*X515881Y437678D02*Y435907D01*
G54D29*X517850Y437678D02*Y435906D01*
G54D33*X519818Y437678D02*Y435907D01*
G54D19*X519500Y396393D02*Y395607D01*
X526586Y396393D02*Y395607D01*
G54D29*X509976Y449094D02*Y447322D01*
G54D19*X505500Y387393D02*Y386607D01*
X512586Y387393D02*Y386607D01*
X506086Y399393D02*Y398607D01*
X513172Y399393D02*Y398607D01*
G54D33*X519818Y449094D02*Y447323D01*
G54D36*X513125Y442500D02*X518047D01*
G54D19*X499000Y415393D02*Y414607D01*
X497672Y391893D02*Y391107D01*
X506086Y415393D02*Y414607D01*
X508086Y424893D02*Y424107D01*
X515172Y424893D02*Y424107D01*
X489896Y429402D02*Y427040D01*
X490586Y391893D02*Y391107D01*
X501706Y429402D02*Y427040D01*
X398595Y517181D02*Y514819D01*
X386457Y524893D02*Y524107D01*
X393543Y524893D02*Y524107D01*
X379457Y452893D02*Y452107D01*
X386543Y452893D02*Y452107D01*
X372690Y437681D02*Y435319D01*
X384500Y437681D02*Y435319D01*
G54D30*X372153Y462890D02*Y457992D01*
X374122Y462890D02*Y457992D01*
X380610Y469378D02*X385508D01*
X380610Y471346D02*X385508D01*
X380610Y473315D02*X385508D01*
X380610Y475283D02*X385508D01*
X380610Y477252D02*X385508D01*
X380610Y479220D02*X385508D01*
X380610Y481189D02*X385508D01*
X380610Y483157D02*X385508D01*
X380610Y485126D02*X385508D01*
X380610Y487094D02*X385508D01*
X380610Y489063D02*X385508D01*
X380610Y491031D02*X385508D01*
X380610Y493000D02*X385508D01*
X380610Y494968D02*X385508D01*
X380610Y496937D02*X385508D01*
X380610Y498905D02*X385508D01*
X380610Y500874D02*X385508D01*
X380610Y502842D02*X385508D01*
X380610Y504811D02*X385508D01*
X380610Y506779D02*X385508D01*
X380610Y508748D02*X385508D01*
X380610Y510716D02*X385508D01*
X380610Y512685D02*X385508D01*
X380610Y514653D02*X385508D01*
X380610Y516622D02*X385508D01*
X374122Y528008D02*Y523110D01*
X372154Y528008D02*Y523110D01*
X370185Y528008D02*Y523110D01*
X368217Y528008D02*Y523110D01*
X366248Y528008D02*Y523110D01*
X364280Y528008D02*Y523110D01*
X362311Y528008D02*Y523110D01*
X360343Y528008D02*Y523110D01*
X358374Y528008D02*Y523110D01*
X356406Y528008D02*Y523110D01*
X354437Y528008D02*Y523110D01*
X352469Y528008D02*Y523110D01*
X350500Y528008D02*Y523110D01*
X348532Y528008D02*Y523110D01*
X346563Y528008D02*Y523110D01*
X344595Y528008D02*Y523110D01*
X342626Y528008D02*Y523110D01*
X340658Y528008D02*Y523110D01*
G54D19*X410405Y517181D02*Y514819D01*
X479607Y520543D02*X480393D01*
X479607Y513457D02*X480393D01*
G54D23*X448700Y548600D02*X449300D01*
X428800Y548500D02*X429100D01*
X435900Y548800D02*Y548200D01*
X449000Y555700D02*Y555400D01*
X435900Y557000D02*Y556400D01*
X428500Y557000D02*Y556400D01*
X479000Y555600D02*Y555300D01*
X486900Y555900D02*X487500D01*
X456900Y548600D02*X457500D01*
X456900Y556000D02*X457500D01*
X478700Y548500D02*X479300D01*
X486900D02*X487500D01*
G54D19*X487043Y534893D02*Y534107D01*
X479957Y534893D02*Y534107D01*
X467107Y590043D02*X467893D01*
X450607Y590086D02*X451393D01*
X450607Y583000D02*X451393D01*
X467107Y582957D02*X467893D01*
G54D37*X256000Y99000D03*
X260039Y99039D03*
X263976Y99024D03*
X268000Y99000D03*
X271800D03*
X275800D03*
X279700D03*
X283600D03*
X287600D03*
X291600D03*
X258000Y120200D03*
X262000Y124700D03*
X266000Y120200D03*
X270000Y124700D03*
X273800Y120200D03*
X277800Y124700D03*
X281700Y120200D03*
X285700Y124700D03*
X289600Y120200D03*
X293600Y124700D03*
X297200Y128200D03*
X301800Y130600D03*
X253400Y150500D03*
X256600Y161900D03*
X259700Y150500D03*
X262900Y161900D03*
X266000Y150500D03*
X269200Y161900D03*
X272300Y150500D03*
X275500Y161900D03*
X278600Y150500D03*
X285000Y142900D03*
X291300D03*
X297600D03*
X281800Y161900D03*
X288100D03*
X294400D03*
X284900Y150500D03*
X291200D03*
X297500D03*
G54D38*X187700Y124850D03*
X161700D03*
G54D37*X282070Y365490D03*
X285970D03*
X289970D03*
X293870D03*
X297770D03*
X301770D03*
X305670D03*
X309670D03*
X313544D03*
X317544D03*
X317460Y303230D03*
X313599Y308700D03*
X309540Y303230D03*
X305699Y308700D03*
X301820Y303230D03*
X297816Y308718D03*
X293910Y303230D03*
X289899Y308700D03*
X286070Y303230D03*
X282025Y308700D03*
X295800Y330900D03*
X291900Y335200D03*
X288000Y330900D03*
X284000Y335200D03*
X280100Y330900D03*
X311548D03*
X307700Y335100D03*
X315500Y335400D03*
X303748Y330900D03*
X299748Y335148D03*
X203220Y326450D03*
X222020D03*
X215820D03*
X209520D03*
X218892Y320308D03*
X212592D03*
X206292D03*
X200000Y320300D03*
X204500Y365500D03*
X208400D03*
X212400D03*
X216300D03*
X220200D03*
X224200D03*
X228100D03*
X232100D03*
X203120Y306850D03*
X222120D03*
X215820D03*
X209520D03*
X218923Y301223D03*
X200000Y301200D03*
X212623Y301223D03*
X206323D03*
G54D39*X400000Y524500D03*
X380000D03*
X383000Y445000D03*
Y460000D03*
X274500Y429500D03*
X318500Y447500D03*
X332500Y439500D03*
X319500Y461000D03*
G54D40*X347000Y509500D03*
X342500Y514000D03*
X338500Y509500D03*
X334500Y514000D03*
X333000Y499000D03*
X342000Y539000D03*
G54D39*X312500Y537500D03*
G54D40*X318000Y521000D03*
X328847Y517653D03*
G54D39*X266000Y480000D03*
G54D40*X302000Y483500D03*
X304000Y489500D03*
X310000D03*
G54D39*X271000Y535000D03*
G54D40*X283000Y528500D03*
X302500D03*
X296000D03*
X289500D03*
X329500Y504500D03*
X327500Y510500D03*
X326406Y498906D03*
X332000Y487500D03*
X326500Y491000D03*
X333000Y479000D03*
X326279Y479221D03*
G54D39*X440500Y543500D03*
X457500Y542000D03*
X442500Y552000D03*
X430500Y540000D03*
X433500Y563000D03*
X449000Y562500D03*
X451000Y597000D03*
X459744Y577744D03*
X475500Y583000D03*
X451000Y577000D03*
X472000Y552500D03*
X479000Y563000D03*
X487000Y528000D03*
Y541500D03*
X436500Y514000D03*
G54D12*G54D41*G54D12*G54D42*G54D43*G54D42*G54D43*G54D42*G54D43*G54D42*G54D43*G54D42*G54D44*G54D45*G54D37*M02*
