G04 start of page 14 for group -4014 idx -4014 *
G04 Title: (unknown), bottompaste *
G04 Creator: pcb 20110918 *
G04 CreationDate: Mon Nov 11 23:32:46 2013 UTC *
G04 For: fosse *
G04 Format: Gerber/RS-274X *
G04 PCB-Dimensions: 455000 500000 *
G04 PCB-Coordinate-Origin: lower left *
%MOIN*%
%FSLAX25Y25*%
%LNBOTTOMPASTE*%
%ADD349R,0.0177X0.0177*%
%ADD348R,0.0551X0.0551*%
%ADD347R,0.0551X0.0551*%
%ADD346R,0.0197X0.0197*%
%ADD345R,0.0236X0.0236*%
%ADD344R,0.0236X0.0236*%
%ADD343R,0.0354X0.0354*%
G54D343*X359950Y65910D02*Y65163D01*
X364950Y65910D02*Y65163D01*
X369950Y65910D02*Y65163D01*
X374950Y65910D02*Y65163D01*
X379950Y65910D02*Y65163D01*
X384950Y65910D02*Y65163D01*
G54D344*X327469Y119198D02*X330225D01*
G54D345*X327470Y115852D02*X330224D01*
G54D344*X327469Y112505D02*X330225D01*
X327469Y108174D02*X330225D01*
X327469Y103844D02*X330225D01*
X327469Y99513D02*X330225D01*
X327469Y95182D02*X330225D01*
G54D345*X327470Y90852D02*X330224D01*
G54D344*X327469Y86521D02*X330225D01*
X327469Y82190D02*X330225D01*
G54D346*X330815Y76758D02*Y68884D01*
G54D347*X391072Y66127D02*X394222D01*
G54D348*X391072Y139356D02*X394222D01*
G54D346*X330815Y137388D02*Y129710D01*
G54D349*X330717Y137486D02*X339379D01*
G54D347*X417048Y198833D02*Y193518D01*
X409174Y198833D02*Y193518D01*
X401300Y198833D02*Y193518D01*
X417048Y172258D02*Y166943D01*
X401300Y172258D02*Y166943D01*
X328048Y254257D02*Y248942D01*
X320174Y254257D02*Y248942D01*
X312300Y254257D02*Y248942D01*
X328048Y227682D02*Y222367D01*
X312300Y227682D02*Y222367D01*
X369174Y255545D02*Y250230D01*
X361300Y255545D02*Y250230D01*
X353426Y255545D02*Y250230D01*
X369174Y228970D02*Y223655D01*
X353426Y228970D02*Y223655D01*
X403174Y255545D02*Y250230D01*
X395300Y255545D02*Y250230D01*
X387426Y255545D02*Y250230D01*
X403174Y228970D02*Y223655D01*
X387426Y228970D02*Y223655D01*
X368800Y301833D02*Y296518D01*
X360926Y301833D02*Y296518D01*
X353052Y301833D02*Y296518D01*
X368800Y275258D02*Y269943D01*
X353052Y275258D02*Y269943D01*
X369300Y210333D02*Y205018D01*
X361426Y210333D02*Y205018D01*
X353552Y210333D02*Y205018D01*
X369300Y183758D02*Y178443D01*
X353552Y183758D02*Y178443D01*
X317300Y198833D02*Y193518D01*
X309426Y198833D02*Y193518D01*
X301552Y198833D02*Y193518D01*
X317300Y172258D02*Y166943D01*
X301552Y172258D02*Y166943D01*
X365760Y48045D02*Y42730D01*
X357886Y48045D02*Y42730D01*
X350012Y48045D02*Y42730D01*
X365760Y21470D02*Y16155D01*
X350012Y21470D02*Y16155D01*
X90774Y355945D02*Y350630D01*
X82900Y355945D02*Y350630D01*
X75026Y355945D02*Y350630D01*
X90774Y329370D02*Y324055D01*
X75026Y329370D02*Y324055D01*
M02*
