G04 start of page 2 for group 0 idx 0 *
G04 Title: (unknown), 1top *
G04 Creator: pcb 20110918 *
G04 CreationDate: Thu Dec 19 20:41:16 2013 UTC *
G04 For: fosse *
G04 Format: Gerber/RS-274X *
G04 PCB-Dimensions: 550000 350000 *
G04 PCB-Coordinate-Origin: lower left *
%MOIN*%
%FSLAX25Y25*%
%LNTOP*%
%ADD55C,0.0433*%
%ADD54C,0.0945*%
%ADD53C,0.1090*%
%ADD52C,0.1150*%
%ADD51C,0.0354*%
%ADD50C,0.1160*%
%ADD49C,0.0350*%
%ADD48C,0.0360*%
%ADD47C,0.0600*%
%ADD46R,0.1400X0.1400*%
%ADD45R,0.0560X0.0560*%
%ADD44R,0.0807X0.0807*%
%ADD43R,0.4400X0.4400*%
%ADD42R,0.1220X0.1220*%
%ADD41R,0.0748X0.0748*%
%ADD40R,0.0827X0.0827*%
%ADD39R,0.0394X0.0394*%
%ADD38R,0.0433X0.0433*%
%ADD37R,0.0433X0.0433*%
%ADD36R,0.0236X0.0236*%
%ADD35R,0.0157X0.0157*%
%ADD34R,0.0158X0.0158*%
%ADD33C,0.0160*%
%ADD32R,0.0160X0.0160*%
%ADD31R,0.0630X0.0630*%
%ADD30R,0.0295X0.0295*%
%ADD29R,0.0590X0.0590*%
%ADD28R,0.0591X0.0591*%
%ADD27R,0.0110X0.0110*%
%ADD26R,0.0345X0.0345*%
%ADD25R,0.0512X0.0512*%
%ADD24R,0.0340X0.0340*%
%ADD23C,0.0591*%
%ADD22C,0.2500*%
%ADD21C,0.0494*%
%ADD20C,0.1300*%
%ADD19C,0.0544*%
%ADD18C,0.2700*%
%ADD17C,0.0200*%
%ADD16C,0.0300*%
%ADD15C,0.0250*%
%ADD14C,0.0400*%
%ADD13C,0.0100*%
%ADD12C,0.0150*%
%ADD11C,0.0001*%
G54D11*G36*
X390000Y274000D02*X390500D01*
Y271991D01*
X387843Y271991D01*
X387690Y271954D01*
X387545Y271894D01*
X387410Y271812D01*
X387291Y271709D01*
X387188Y271590D01*
X387106Y271455D01*
X387046Y271310D01*
X387009Y271157D01*
X387000Y271000D01*
X387009Y226843D01*
X387046Y226690D01*
X387106Y226545D01*
X387188Y226410D01*
X387291Y226291D01*
X387410Y226188D01*
X387545Y226106D01*
X387690Y226046D01*
X387843Y226009D01*
X388000Y226000D01*
X390500Y226000D01*
Y219507D01*
X390474Y219529D01*
X390138Y219734D01*
X389775Y219885D01*
X389392Y219977D01*
X389000Y220008D01*
X388608Y219977D01*
X388225Y219885D01*
X387862Y219734D01*
X387526Y219529D01*
X387227Y219273D01*
X386971Y218974D01*
X386766Y218638D01*
X386615Y218275D01*
X386523Y217892D01*
X386492Y217500D01*
X386523Y217108D01*
X386615Y216725D01*
X386766Y216362D01*
X386971Y216026D01*
X387227Y215727D01*
X387526Y215471D01*
X387862Y215266D01*
X388225Y215115D01*
X388608Y215023D01*
X389000Y214992D01*
X389392Y215023D01*
X389775Y215115D01*
X390138Y215266D01*
X390474Y215471D01*
X390500Y215493D01*
Y200000D01*
X386000Y195500D01*
X381000D01*
X377000Y199500D01*
Y210500D01*
X372000Y215500D01*
X358500D01*
X354000Y220000D01*
Y226500D01*
X342000Y238500D01*
X322500D01*
X320500Y240500D01*
Y278000D01*
X326000Y283500D01*
X350500D01*
X360000Y274000D01*
X390000D01*
G37*
G36*
X385000D02*X389000D01*
Y230500D01*
X385000D01*
Y274000D01*
G37*
G36*
Y52000D02*X400000D01*
X401000Y51000D01*
Y38500D01*
X398500Y36000D01*
X380000D01*
Y46500D01*
X381500D01*
X385000Y50000D01*
Y52000D01*
G37*
G36*
X373000Y53000D02*X361500D01*
Y56000D01*
X356500Y61000D01*
X353000D01*
Y68500D01*
X378000D01*
Y58500D01*
X376000D01*
X373000Y55500D01*
Y53000D01*
G37*
G36*
X385000D02*Y55500D01*
X382000Y58500D01*
X380000D01*
Y68500D01*
X409500D01*
Y48500D01*
X407500Y46500D01*
Y45500D01*
X406500Y44500D01*
Y43500D01*
X406000Y43000D01*
Y42000D01*
X405500Y41500D01*
Y38500D01*
X403500D01*
Y51000D01*
X401500Y53000D01*
X385000D01*
G37*
G36*
X390500Y41000D02*Y47000D01*
X396500D01*
Y41000D01*
X390500D01*
G37*
G36*
Y47000D01*
X396500D01*
Y41000D01*
X390500D01*
G37*
G36*
X378000Y46500D02*Y35500D01*
X371500D01*
Y37000D01*
X343500D01*
Y40000D01*
X346000Y42500D01*
X356500D01*
Y44000D01*
X361500Y49000D01*
Y52000D01*
X373000D01*
Y49500D01*
X373500D01*
Y49000D01*
X374000D01*
Y48500D01*
X375000Y47500D01*
X375500D01*
X376000Y47000D01*
X376500D01*
X377000Y46500D01*
X378000D01*
G37*
G36*
X385000Y234500D02*X426000D01*
Y212000D01*
X385000D01*
Y234500D01*
G37*
G36*
X393902Y226001D02*X393914Y215065D01*
X393969Y214835D01*
X394059Y214617D01*
X394183Y214416D01*
X394336Y214236D01*
X394516Y214083D01*
X394717Y213959D01*
X394935Y213869D01*
X395165Y213814D01*
X395400Y213800D01*
X416835Y213814D01*
X417065Y213869D01*
X417283Y213959D01*
X417484Y214083D01*
X417664Y214236D01*
X417817Y214416D01*
X417941Y214617D01*
X418031Y214835D01*
X418086Y215065D01*
X418100Y215300D01*
X418088Y226006D01*
X421001Y226006D01*
X421003Y219952D01*
X420725Y219885D01*
X420362Y219734D01*
X420026Y219529D01*
X419727Y219273D01*
X419471Y218974D01*
X419266Y218638D01*
X419115Y218275D01*
X419023Y217892D01*
X418992Y217500D01*
X419023Y217108D01*
X419115Y216725D01*
X419266Y216362D01*
X419471Y216026D01*
X419727Y215727D01*
X420026Y215471D01*
X420362Y215266D01*
X420725Y215115D01*
X421004Y215048D01*
X421009Y196991D01*
X420500Y197500D01*
Y204000D01*
X419500Y205000D01*
X412500D01*
X410500Y207000D01*
Y209500D01*
X407000Y213000D01*
X405500D01*
X401500Y209000D01*
Y207000D01*
X399500Y205000D01*
X392500D01*
X389500Y202000D01*
Y215049D01*
X389775Y215115D01*
X390138Y215266D01*
X390474Y215471D01*
X390773Y215727D01*
X391029Y216026D01*
X391234Y216362D01*
X391385Y216725D01*
X391477Y217108D01*
X391500Y217500D01*
X391477Y217892D01*
X391385Y218275D01*
X391234Y218638D01*
X391029Y218974D01*
X390773Y219273D01*
X390474Y219529D01*
X390138Y219734D01*
X389775Y219885D01*
X389500Y219951D01*
Y226000D01*
X393902Y226001D01*
G37*
G36*
X420000Y213000D02*X423000D01*
Y195500D01*
X420000D01*
Y213000D01*
G37*
G54D12*X106543Y36000D02*Y42457D01*
X92405Y38095D02*X87500Y43000D01*
X92405Y36000D02*Y38095D01*
X74000Y43000D02*X80500Y36500D01*
X74000Y49500D02*Y43000D01*
X99500Y35957D02*X99457Y36000D01*
X99500Y32000D02*Y35957D01*
X96500Y29000D02*X99500Y32000D01*
X82500Y29000D02*X96500D01*
X80750Y30750D02*X82500Y29000D01*
X80750Y36250D02*Y30750D01*
X80500Y36500D02*X81000D01*
G54D13*X155500Y35500D02*Y43500D01*
X157500Y33500D02*X155500Y35500D01*
G54D14*X103298Y59798D02*Y53202D01*
G54D12*X120000Y53500D02*X121595Y56500D01*
X109000Y56000D02*X111500Y53500D01*
X109000Y63000D02*Y56000D01*
X102095Y61000D02*X103095Y60000D01*
X105500Y66500D02*X109000Y63000D01*
X96500Y66500D02*X105500D01*
X94000Y69000D02*X96500Y66500D01*
X95500Y61000D02*X102095D01*
X90500Y66000D02*X95500Y61000D01*
X114905Y71835D02*X108000Y78740D01*
X114905Y60000D02*Y71835D01*
G54D15*X114910Y78740D02*X107910D01*
X121910D02*Y70740D01*
G54D13*Y79326D02*X121996Y79240D01*
G54D12*X90500Y58368D02*X90360Y58228D01*
X86388Y54000D02*X90360Y50028D01*
X90500Y61500D02*Y58368D01*
X93000Y74086D02*X92914Y74000D01*
X93000Y80500D02*Y74086D01*
X92914Y80414D02*X93000Y80500D01*
X100000Y74000D02*Y80500D01*
X89000Y63000D02*X90500Y61500D01*
X83500Y50000D02*X78500Y45000D01*
X51000Y54000D02*X86388D01*
X46000Y59000D02*X51000Y54000D01*
G54D15*X63851Y60681D02*X63910Y60740D01*
X51410Y60681D02*X63851D01*
G54D13*X51469Y65740D02*X63410D01*
X51410Y65799D02*X51469Y65740D01*
X133000Y73500D02*X135000Y71500D01*
X133000Y76000D02*Y73500D01*
X132500Y76500D02*X133000Y76000D01*
X132500Y86000D02*Y76500D01*
X130067Y88433D02*X132500Y86000D01*
G54D12*X128500Y56500D02*X133405D01*
G54D13*X127000Y66000D02*X129000Y64000D01*
X127000Y73500D02*Y66000D01*
X135000Y71500D02*X139500D01*
X138000Y65000D02*X145000D01*
X131000Y72000D02*X138000Y65000D01*
X121910Y82740D02*Y79326D01*
X120225Y84425D02*X121910Y82740D01*
X114910Y83240D02*Y79240D01*
X118256Y86586D02*X114910Y83240D01*
G54D14*X115405Y47500D02*X115500Y47405D01*
X116905Y35595D02*X123000Y29500D01*
X115500Y35595D02*X116905D01*
X109000Y47500D02*X115405D01*
X103298Y53202D02*X109000Y47500D01*
G54D12*X111500Y53500D02*X120000D01*
X106543Y42457D02*X103000Y46000D01*
G54D13*X148000Y51000D02*X155500Y43500D01*
X148000Y57000D02*Y51000D01*
X155800Y29800D02*X155500Y29500D01*
X160950Y29800D02*X155800D01*
X156200Y49300D02*X154000Y51500D01*
X160500Y49300D02*X156200D01*
X151500Y65000D02*X163000D01*
X164500Y33500D02*X157500D01*
X157626Y98126D02*X159000Y99500D01*
X161563Y95563D02*X163000Y97000D01*
X161563Y91681D02*Y95563D01*
X157626Y91681D02*Y98126D01*
X148634Y116366D02*X148500Y116500D01*
X172469Y116366D02*X148634D01*
G54D15*X168867Y83740D02*Y79783D01*
G54D13*X163532Y89075D02*X168867Y83740D01*
X163532Y91681D02*Y89075D01*
X131000Y75000D02*Y72000D01*
X137000Y61500D02*X129000Y69500D01*
X162500Y61500D02*X137000D01*
X129000Y74500D02*Y69500D01*
X104036Y116366D02*X101910Y114240D01*
X107351Y116366D02*X104036D01*
X107099Y112429D02*X94599D01*
X90910Y108858D02*X90851Y108799D01*
X93410Y111240D02*X90910Y108858D01*
X94599Y112429D02*X93410Y111240D01*
X97690Y110520D02*X95969Y108799D01*
X106689Y110461D02*X97690Y110520D01*
X107351Y110461D02*X115689D01*
X107351Y114398D02*X111568D01*
X107351Y112429D02*X112599D01*
X118910Y113740D02*X122410Y110240D01*
X113910Y113740D02*X118910D01*
X112599Y112429D02*X113910Y113740D01*
G54D12*X196800Y94800D02*X191500Y89500D01*
X211543Y95000D02*X211343Y94800D01*
G54D13*X194586Y102586D02*X200500Y108500D01*
X172469Y124240D02*X208260D01*
X197000Y116000D02*X200000D01*
X187523Y106523D02*X197000Y116000D01*
X172469Y100618D02*X211118D01*
X172469Y102586D02*X194586D01*
X191055Y104555D02*X193500Y107000D01*
X172469Y104555D02*X191055D01*
X172469Y106523D02*X187523D01*
G54D15*X175953Y83740D02*Y87697D01*
G54D12*X227500Y83000D02*X230500Y80000D01*
G54D13*X239910Y107240D02*Y105240D01*
X240910Y106240D02*X238910D01*
G54D12*X211043Y83000D02*X227500D01*
X225000Y95000D02*X211543D01*
X227310Y92690D02*X225000Y95000D01*
X227310Y89140D02*Y92690D01*
G54D13*X211118Y100618D02*X233000Y122500D01*
X249500Y131500D02*X264500Y116500D01*
X275000Y111000D02*X251000Y135000D01*
X240000D02*X234000Y141000D01*
X251000Y135000D02*X240000D01*
X249500Y131500D02*X233000D01*
X260500Y147000D02*X266500Y141000D01*
X211000Y127000D02*X223500D01*
X233000Y122500D02*Y128000D01*
X221000Y140000D02*X233000Y128000D01*
X219000Y140000D02*X221000D01*
X217000Y142000D02*X219000Y140000D01*
X217000Y148500D02*Y142000D01*
X225000Y149500D02*X219500Y155000D01*
X223000Y148500D02*X219000Y152500D01*
X223000Y146500D02*Y148500D01*
X225000Y148000D02*Y149500D01*
X232000Y141000D02*X225000Y148000D01*
X234000Y141000D02*X232000D01*
X215500Y155000D02*X212000Y158500D01*
X219500Y155000D02*X215500D01*
X219000Y152500D02*X213000D01*
G54D14*X217690Y166000D02*X209000D01*
G54D13*X234500Y135000D02*X223000Y146500D01*
X233000Y131500D02*X220500Y144000D01*
X260500Y157000D02*Y147000D01*
X241000Y176500D02*X260500Y157000D01*
X255000Y170190D02*X266690Y158500D01*
X265500Y184000D02*X273500D01*
G54D12*X204000Y82957D02*X203957Y83000D01*
X204000Y79500D02*Y82957D01*
X200740Y76240D02*X204000Y79500D01*
X196905Y84500D02*X191500D01*
G54D14*X193362Y55905D02*X198957Y61500D01*
X192095Y55905D02*X193362D01*
X192095Y56000D02*Y63905D01*
G54D12*X172410Y76240D02*X200740D01*
X191500Y89500D02*Y84500D01*
G54D14*X168867Y83740D02*X165304Y87304D01*
G54D12*X185000Y84595D02*X185095Y84500D01*
G54D15*X168867Y79783D02*X172410Y76240D01*
G54D13*X167900Y57500D02*X172107D01*
X187500Y68500D02*Y49287D01*
X192000Y73000D02*X187500Y68500D01*
G54D12*X185000Y90500D02*Y84595D01*
X178500Y97000D02*X185000Y90500D01*
X163000Y97000D02*X178500D01*
G54D15*X175953Y87697D02*X172410Y91240D01*
G54D14*X180095Y56000D02*Y63905D01*
G54D13*X172107Y57500D02*X180367Y49240D01*
X164000Y60000D02*X162500Y61500D01*
X167500Y58000D02*X168000Y57500D01*
X167500Y60500D02*Y58000D01*
X163000Y65000D02*X167500Y60500D01*
X164000Y55500D02*Y60000D01*
X167850Y51650D02*X164000Y55500D01*
X167850Y49350D02*Y51650D01*
X167900Y40100D02*X164500Y43500D01*
X168000Y30000D02*X164500Y33500D01*
X168000Y29800D02*Y30000D01*
X172700Y44500D02*X167900Y49300D01*
G54D12*X204257Y94800D02*X196800D01*
G54D13*X213000Y152500D02*X194500Y171000D01*
X208240Y124240D02*X211000Y127000D01*
X208000Y137000D02*X211000Y140000D01*
X208000Y130000D02*Y137000D01*
X183614Y132114D02*X189000Y137500D01*
X186677Y128177D02*X195500Y137000D01*
G54D15*X184690Y143925D02*X188005Y147240D01*
X191315Y155740D02*X199815Y147240D01*
G54D13*X176000Y169500D02*X171000D01*
X177500Y168000D02*X176000Y169500D01*
X187500Y168000D02*X177500D01*
X190300Y170800D02*X187500Y168000D01*
X190300Y178200D02*Y170800D01*
X183000Y171800D02*Y177850D01*
X177500Y182000D02*X185900D01*
X173500Y178000D02*X177500Y182000D01*
X230000Y194500D02*X239957D01*
G54D14*X229500Y166000D02*X235500D01*
G54D13*X225000Y199500D02*X230000Y194500D01*
X217000Y187000D02*Y192500D01*
X220500Y192000D02*X222500Y194000D01*
X217000Y192500D02*X218500Y194000D01*
X225000Y207000D02*Y199500D01*
X224000Y208000D02*X225000Y207000D01*
X222500Y204000D02*X218500Y208000D01*
Y208300D02*X218400Y208200D01*
X218500Y212500D02*Y208300D01*
X222500Y194000D02*Y204000D01*
X214500Y203900D02*X218500Y199900D01*
Y194000D02*Y199900D01*
X211000Y199550D02*X211450Y200000D01*
X211000Y193500D02*Y199550D01*
X214500Y212000D02*Y203900D01*
X186500Y208000D02*Y206000D01*
X187500Y207000D02*X185500D01*
X191600Y179500D02*X194000D01*
X191600D02*X190400Y178300D01*
X190900Y187000D02*X190400Y186500D01*
X185900Y182000D02*X189950Y186050D01*
X194000Y179500D02*X207000Y192500D01*
X195500Y187000D02*X190900D01*
X203500Y195000D02*X195500Y187000D01*
X203500Y213500D02*Y195000D01*
X192799Y224201D02*X203500Y213500D01*
X192799Y225000D02*Y224201D01*
X195950Y226050D02*X207000Y215000D01*
X195950Y228550D02*Y226050D01*
X192799Y234201D02*Y224799D01*
X199099Y227401D02*X214500Y212000D01*
X202248Y228752D02*X218500Y212500D01*
X199099Y234401D02*Y227401D01*
X172469Y132114D02*X183614D01*
X172469Y128177D02*X186677D01*
X172481Y140000D02*X172469Y139988D01*
X181000Y140000D02*X172481D01*
X183000Y138000D02*X181000Y140000D01*
G54D15*X181910Y143925D02*X184690D01*
G54D13*X172469D02*X182095D01*
G54D15*X182910Y155740D02*X191315D01*
X182910Y155697D02*X182953Y155740D01*
X182910Y150240D02*Y155697D01*
X176910Y154697D02*X176138Y155468D01*
X176910Y149240D02*Y154697D01*
X175867Y155740D02*X169410D01*
G54D13*X176910Y154697D02*X175867Y155740D01*
X178563Y145893D02*X179410Y146740D01*
X172469Y145893D02*X178563D01*
G54D15*X179410Y146740D02*X182910Y150240D01*
G54D13*X175532Y147862D02*X176910Y149240D01*
X172469Y147862D02*X175532D01*
X203500Y49543D02*X204000Y49043D01*
X203500Y55500D02*Y49543D01*
X206250Y70750D02*X203500Y68000D01*
X209000Y70750D02*X206250D01*
G54D12*X207043Y60500D02*X206043Y61500D01*
G54D13*X203500Y49543D02*X203543Y49500D01*
G54D12*X217000Y60500D02*X207043D01*
X218000Y61500D02*X217000Y60500D01*
G54D13*Y57000D02*X209500Y49500D01*
X217440Y51940D02*X212500Y47000D01*
X167900Y38000D02*Y40100D01*
Y29800D02*X189757D01*
X178957Y38000D02*X180457Y36500D01*
X167900Y38000D02*X178957D01*
X189757Y29800D02*X196457Y36500D01*
X194000Y44500D02*X172700D01*
X193043Y42000D02*X187543Y36500D01*
X196457Y46957D02*X194000Y44500D01*
X196457Y49500D02*Y46957D01*
X207500Y42000D02*X193043D01*
X209500Y44000D02*X207500Y42000D01*
X209500Y49500D02*Y44000D01*
X187500Y49287D02*X187453Y49240D01*
X207500Y36500D02*X203543D01*
X212500Y41500D02*X207500Y36500D01*
X212500Y47000D02*Y41500D01*
G54D12*X230500Y77830D02*X230410Y77740D01*
X230500Y80000D02*Y77830D01*
G54D13*X229750Y70750D02*X208750D01*
X232500Y73000D02*X192000D01*
X246102Y54398D02*X229750Y70750D01*
X250110Y55390D02*X232500Y73000D01*
G54D12*X228000Y61500D02*X218000D01*
X234291Y55209D02*X228000Y61500D01*
G54D13*X227000Y57000D02*X217000D01*
X226410Y51940D02*X217440D01*
X230354Y47384D02*X230410Y47440D01*
X230354Y53646D02*X227000Y57000D01*
X230354Y47354D02*Y53646D01*
X226417Y41694D02*Y51933D01*
X230354Y41694D02*Y47384D01*
X226417Y51933D02*X226410Y51940D01*
X222480Y47370D02*X222410Y47440D01*
X222480Y41694D02*Y47370D01*
G54D12*X234291Y52000D02*Y55209D01*
G54D13*X246102Y47398D02*Y54398D01*
Y47432D02*X246110Y47440D01*
X242165Y51895D02*X242210Y51940D01*
X238228Y47422D02*X238210Y47440D01*
X234291Y51821D02*X234410Y51940D01*
X257913Y51843D02*X258010Y51940D01*
X250039Y51869D02*X250110Y51940D01*
X257913Y41695D02*Y51843D01*
X253976Y47406D02*X254010Y47440D01*
X253976Y41695D02*Y47406D01*
X250039Y41695D02*Y51869D01*
X246102Y41695D02*Y47432D01*
X242165Y41695D02*Y51895D01*
X238228Y41694D02*Y47422D01*
X234291Y41694D02*Y51821D01*
X244134Y26264D02*X244110Y26240D01*
X244134Y32246D02*Y26264D01*
X240197Y26253D02*X240210Y26240D01*
X240197Y32246D02*Y26253D01*
X236260Y26290D02*X236210Y26240D01*
X236260Y32246D02*Y26290D01*
X232323Y26327D02*X232410Y26240D01*
X232323Y32246D02*Y26327D01*
X228386Y26264D02*X228410Y26240D01*
X228386Y32246D02*Y26264D01*
X224449Y26279D02*X224410Y26240D01*
X220512Y26342D02*X220410Y26240D01*
X224449Y32246D02*Y26279D01*
X220512Y32246D02*Y26342D01*
G54D12*X271343Y73000D02*X269243Y75100D01*
X261843Y74843D02*X258500Y71500D01*
X262157Y74843D02*X261843D01*
X262157Y75100D02*Y74657D01*
X258500Y97000D02*X256500D01*
X263000Y92500D02*X258500Y97000D01*
X263000Y87000D02*Y92500D01*
X261000Y85000D02*X263000Y87000D01*
X252500Y85000D02*X261000D01*
X249310Y81810D02*X252500Y85000D01*
X249310Y77740D02*Y81810D01*
X258500Y58600D02*X267300Y49800D01*
X258500Y71500D02*Y58600D01*
G54D13*X250110Y51940D02*Y55390D01*
X255945Y26305D02*X256010Y26240D01*
X255945Y32246D02*Y26305D01*
X252008Y26242D02*X252010Y26240D01*
X252008Y32246D02*Y26242D01*
X248071Y26301D02*X248010Y26240D01*
X248071Y32246D02*Y26301D01*
G54D12*X256500Y97000D02*X256250Y97250D01*
G54D14*X291095Y100638D02*X291457Y101000D01*
X291095Y87000D02*Y100638D01*
X303000Y115095D02*X302905Y115000D01*
G54D12*X313000Y113500D02*X309000Y117500D01*
X313000Y113000D02*Y113500D01*
X276500Y73000D02*X271343D01*
X336500Y32957D02*X336457Y33000D01*
X336500Y27500D02*Y32957D01*
X334000Y25000D02*X336500Y27500D01*
X289000Y25000D02*X334000D01*
X283000Y31000D02*X289000Y25000D01*
G54D14*X316500Y94000D02*X319000Y91500D01*
X291095Y94000D02*X316500D01*
X302905Y87000D02*X310500D01*
G54D12*X278500Y150500D02*X280000Y149000D01*
G54D14*X285500Y105500D02*Y162000D01*
G54D12*X278310Y141000D02*X272500D01*
G54D13*X289900Y188000D02*X271000D01*
X279500Y178000D02*X289000D01*
X273500Y184000D02*X279500Y178000D01*
G54D12*X279000Y197500D02*X276000Y200500D01*
X282590Y183590D02*X282500Y183500D01*
X286290Y183590D02*X282590D01*
G54D14*X290362Y100638D02*X285500Y105500D01*
X291095Y100638D02*X290362D01*
X298500Y101043D02*X298543Y101000D01*
X298500Y106000D02*Y101043D01*
X291048Y113452D02*X298500Y106000D01*
X291048Y114952D02*Y113452D01*
X293457Y117362D02*X291095Y115000D01*
X300543Y124457D02*X303000Y122000D01*
Y115095D01*
G54D12*X293500Y131000D02*X294479Y130022D01*
G54D16*X293500Y135000D02*Y131000D01*
X296500Y138000D02*X293500Y135000D01*
G54D14*Y129043D02*X293457Y129000D01*
Y117362D01*
G54D12*X308000Y128000D02*X313000Y123000D01*
X303600Y144100D02*X302000Y142500D01*
G54D16*X303500Y138000D02*X296500D01*
G54D17*X307000Y141500D02*X303500Y138000D01*
G54D12*X308000Y137500D02*Y128000D01*
X309500Y139000D02*X308000Y137500D01*
X312900Y139000D02*X309500D01*
G54D14*X300543Y129000D02*Y124457D01*
G54D12*X302000Y262957D02*X301957Y263000D01*
X302000Y256000D02*Y262957D01*
X301590Y193590D02*X301500Y193500D01*
X313000Y119500D02*Y123000D01*
G54D13*X308000Y188000D02*X313365Y193365D01*
G54D12*X318730Y188000D02*X313140Y193590D01*
X310500Y197500D02*X318000D01*
G54D13*X308000Y187500D02*Y188000D01*
X289000Y178000D02*X294140Y183140D01*
X289900Y188000D02*X293690Y191790D01*
G54D12*X297780Y179500D02*X293690Y183590D01*
X302480Y183000D02*X293690Y191790D01*
X306190Y193590D02*X301590D01*
X289430Y216000D02*X293640Y211790D01*
X282500Y216000D02*X289430D01*
X309043Y259957D02*X313000Y256000D01*
X309043Y263000D02*Y259957D01*
G54D13*X309000Y212000D02*X314000D01*
Y202650D02*X313140Y201790D01*
X314000Y219500D02*Y202650D01*
G54D12*X309500Y198500D02*X310500Y197500D01*
X278500Y212000D02*X282500Y216000D01*
X282090Y203590D02*X282000Y203500D01*
X286690Y203590D02*X282090D01*
X291000Y197500D02*X279000D01*
X309500Y206000D02*Y198500D01*
X307500Y208000D02*X309500Y206000D01*
X302500Y208000D02*X307500D01*
X297860Y203360D02*X302500Y208000D01*
X293640Y203360D02*X297860D01*
X293640Y200140D02*X291000Y197500D01*
X293640Y203590D02*Y200140D01*
X278500Y158500D02*Y150500D01*
G54D14*X292500Y169000D02*X322500D01*
X285500Y162000D02*X292500Y169000D01*
X312405Y162500D02*X319000D01*
X300500Y162405D02*X300595Y162500D01*
X293457Y155957D02*X293500Y156000D01*
X293457Y150000D02*Y155957D01*
X300500Y149200D02*Y162405D01*
X306500Y149200D02*X300800D01*
G54D12*X301343D02*X300543Y150000D01*
X312900Y149200D02*X301343D01*
X312900Y144100D02*X303600D01*
X312900Y141500D02*X307000D01*
G54D14*X322500Y169000D02*X327000Y164500D01*
X336991Y167405D02*X334086Y164500D01*
X342500Y167405D02*X336991D01*
X342500D02*X342595Y167500D01*
X349586Y155086D02*X354500Y160000D01*
Y167405D02*X354405Y167500D01*
X354500Y160000D02*Y167405D01*
X342500Y154000D02*Y167405D01*
X349586Y154000D02*Y155086D01*
G54D12*X340200Y151700D02*X342500Y154000D01*
X334100Y151700D02*X340200D01*
X329500Y188000D02*X318730D01*
X366000Y179500D02*X297780D01*
X371500Y185000D02*X366000Y179500D01*
X362000Y183000D02*X302480D01*
X367000Y188000D02*X362000Y183000D01*
X331400Y136400D02*X328500Y133500D01*
X334100Y136400D02*X331400D01*
X324000Y145000D02*Y130500D01*
X318600Y133900D02*X319000Y133500D01*
X329000Y120500D02*Y125500D01*
X324000Y130500D02*X329000Y125500D01*
Y122882D02*X328882Y123000D01*
X325000Y122000D02*X323500Y123500D01*
X329000Y123118D02*X328882Y123000D01*
X334100Y123100D02*X334000Y123000D01*
X334100Y133800D02*Y123100D01*
X325000Y116000D02*Y122000D01*
X331500Y118000D02*X332500D01*
X329000Y120500D02*X331500Y118000D01*
X321500Y119618D02*X318118Y123000D01*
X314500Y118000D02*X313000Y119500D01*
X315500Y118000D02*X314500D01*
X318118Y115382D02*X315500Y118000D01*
X321500Y111000D02*Y119618D01*
X338000Y120000D02*Y111500D01*
X335000Y123000D02*X338000Y120000D01*
X334100Y123000D02*X335000D01*
X332500Y118000D02*X334000Y116500D01*
X318300Y146700D02*X321000Y147500D01*
X318300Y151800D02*X319000Y152500D01*
X312900Y146700D02*X318300D01*
X312900Y151800D02*X318300D01*
X312900Y133900D02*X318600D01*
X316400Y136400D02*X320000Y140500D01*
X312900Y136400D02*X316400D01*
X325600Y146600D02*X324000Y145000D01*
X334100Y146600D02*X325600D01*
X330300Y149200D02*X329000Y150500D01*
X334100Y149200D02*X330300D01*
X334100Y133800D02*X340157D01*
X334100Y141500D02*X328500D01*
X334100Y144100D02*X338100D01*
X334100Y138900D02*X339400D01*
X338100Y144100D02*X341000Y147000D01*
X339400Y138900D02*X343500Y139000D01*
X336000Y194500D02*X329500Y188000D01*
X332453Y201953D02*X326500Y196000D01*
X339000Y202000D02*X329000Y192000D01*
X329500Y192500D01*
X323500Y192000D02*X329000D01*
X318000Y197500D02*X323500Y192000D01*
X353500Y194500D02*X336000D01*
X358500Y199500D02*X353500Y194500D01*
X339000Y207000D02*Y202000D01*
G54D13*X345500Y209000D02*X346500D01*
G54D12*X358500Y210000D02*Y199500D01*
X371500Y206000D02*Y185000D01*
X367000Y210000D02*Y188000D01*
X332453Y218740D02*Y201953D01*
X325367Y218740D02*Y222867D01*
X325500Y206373D02*X325367Y206240D01*
X325500Y212000D02*Y206373D01*
G54D13*X338500Y235500D02*X346250Y227750D01*
X330000Y235500D02*X338500D01*
X350000Y224000D02*X346500Y227500D01*
G54D12*X335996Y222283D02*X332453Y218740D01*
X342910Y222283D02*X335996D01*
X339000Y211287D02*X342910Y215197D01*
X339000Y206500D02*Y211287D01*
G54D13*X342910Y215197D02*X340697D01*
X321750Y227250D02*X330000Y235500D01*
G54D12*X331000Y228500D02*X333500D01*
X325367Y222867D02*X331000Y228500D01*
G54D13*X322000Y227500D02*X314000Y219500D01*
X350000Y212500D02*Y224000D01*
X346500Y209000D02*X350000Y212500D01*
G54D14*X363750Y279250D02*Y282250D01*
X368750Y287250D01*
X373750Y279250D02*Y282250D01*
X368750Y287250D01*
X396250Y282250D02*X391250Y287250D01*
X396250Y279250D02*Y282250D01*
X386750Y282750D02*X391250Y287250D01*
X386750Y279250D02*Y282750D01*
G54D15*X388352Y49148D02*X393500Y44000D01*
G54D12*X387958Y49148D02*X388352D01*
X399500Y33500D02*X368043D01*
X367543Y33000D01*
X403500Y37500D02*X399500Y33500D01*
X403500Y52000D02*Y37500D01*
X400447Y55053D02*X403500Y52000D01*
X387958Y55053D02*X400447D01*
X370242D02*X369947D01*
G54D15*X365000Y60000D01*
G54D14*X342405Y85095D02*X338000Y89500D01*
X345500Y85095D02*X342405D01*
X335500Y87000D02*X338000Y89500D01*
X330905Y87000D02*X335500D01*
X319000Y87095D02*X319095Y87000D01*
X319000Y91500D02*Y87095D01*
X345500Y96905D02*X350405D01*
X341405Y101000D02*X345500Y96905D01*
X326310Y101000D02*X341405D01*
X307000D02*X314500D01*
X387000Y83500D02*X381000D01*
G54D12*X402500Y85000D02*Y76579D01*
X402768Y76311D01*
G54D14*X381000Y106000D02*Y90572D01*
X373128Y113500D02*X394000D01*
X401500Y106000D01*
Y93547D01*
X401193Y93240D01*
X381000Y90572D02*X381002Y90570D01*
X373128D02*Y114372D01*
X373000Y114500D01*
X371095Y116500D02*X371128D01*
X373128Y114500D01*
X354000Y105457D02*X354043Y105500D01*
X342500Y112000D02*Y116500D01*
X346957Y107543D02*X342500Y112000D01*
X346957Y105500D02*Y107543D01*
X354000Y100500D02*Y105457D01*
X350405Y96905D02*X354000Y100500D01*
G54D12*X328000Y113000D02*X325000Y116000D01*
X323000Y109500D02*X321500Y111000D01*
X318118Y113000D02*Y115382D01*
X328882Y113000D02*X328000D01*
X336000Y109500D02*X323000D01*
X338000Y111500D02*X336000Y109500D01*
X334000Y116500D02*Y113000D01*
X352500Y33000D02*X360457D01*
X343500Y33043D02*X343543Y33000D01*
X343500Y40000D02*Y33043D01*
X346000Y42500D02*X343500Y40000D01*
X358500Y42500D02*X346000D01*
X365148Y49148D02*X358500Y42500D01*
X369454Y49148D02*X365148D01*
G54D14*X349543Y130957D02*X354500Y126000D01*
X349543Y131500D02*Y130957D01*
X354500Y118595D02*X354405Y118500D01*
X371095Y121000D02*Y116405D01*
X382905Y121000D02*Y135000D01*
X371095D02*Y160095D01*
X392000Y121500D02*Y113500D01*
X354500Y126000D02*Y118595D01*
X342457Y118638D02*X342595Y118500D01*
X342457Y131893D02*Y118638D01*
G54D12*X340157Y133800D02*X342457Y131500D01*
G54D14*X371095Y160095D02*X377500Y166500D01*
X418405D01*
X423000Y171095D01*
X415100Y197000D02*Y178400D01*
X422702Y170798D01*
X423000Y182905D02*Y186500D01*
X426000Y189500D01*
X406000Y197000D02*Y180095D01*
X402405Y176500D01*
X406000Y196500D02*Y207500D01*
X390595Y176500D02*Y190595D01*
Y177000D02*X383500D01*
X390595Y190595D02*X397000Y197000D01*
X411823Y101902D02*X421272D01*
X424421Y105051D01*
Y93421D01*
X423500Y92500D01*
Y83000D01*
X425000Y81500D01*
Y74528D01*
X424421Y73949D01*
G54D12*X425543Y60500D02*X431457D01*
X402768Y76311D02*X409689D01*
X415000Y71000D01*
Y63957D01*
X418457Y60500D01*
G54D13*X52500Y254650D02*X54910Y252240D01*
X52500Y260000D02*Y254650D01*
X53740Y261240D02*X52500Y260000D01*
G54D12*X61670Y257500D02*X61910Y257740D01*
X55500Y257500D02*X61670D01*
G54D13*X65360Y261240D02*X68860Y257740D01*
X105910Y244740D02*X94910Y255740D01*
X80410Y256490D02*X81460Y257540D01*
X80410Y249240D02*Y256490D01*
X88410Y242240D02*Y257540D01*
X50410Y251740D02*Y265240D01*
X52910Y249240D02*X50410Y251740D01*
X65910Y249240D02*X52910D01*
X67910Y247240D02*X65910Y249240D01*
X59060Y244740D02*X58860Y244940D01*
X61910Y244740D02*X59060D01*
G54D12*X46740Y217240D02*X46500Y217000D01*
X51760Y217240D02*X46740D01*
G54D13*X63060Y221240D02*X58860Y225440D01*
X63910Y217240D02*X58860D01*
X91910Y218240D02*X92410Y217740D01*
X85410D02*X86410D01*
X80410Y221240D02*X63060D01*
G54D12*X90650Y276500D02*X90410Y276740D01*
G54D13*X94910Y259240D02*X88410Y265740D01*
X94910Y255740D02*Y259240D01*
G54D12*X119500Y276500D02*X90650D01*
X77410Y276740D02*X74910Y274240D01*
X83324Y276740D02*X77410D01*
G54D13*X65360Y261240D02*X53740D01*
X63560Y271240D02*X68860Y265940D01*
X56410Y271240D02*X63560D01*
X50410Y265240D02*X56410Y271240D01*
X91910Y218740D02*Y218240D01*
X97910Y220240D02*X94910Y223240D01*
X100910Y229240D02*X96910Y233240D01*
X98410Y242240D02*X103410Y237240D01*
X88410Y242240D02*X98410D01*
X69410Y233240D02*X96910D01*
X87410Y227240D02*X63910D01*
G54D12*X51740Y236740D02*X46500Y231500D01*
X51910Y236740D02*X51740D01*
G54D13*X58910Y236690D02*X58860Y236740D01*
X58910Y232240D02*Y236690D01*
X63910Y227240D02*X58910Y232240D01*
X69410Y233240D02*X67910Y234740D01*
Y247240D01*
X65410Y241240D02*X61910Y244740D01*
X65410Y230240D02*Y241240D01*
G54D12*X51500Y190500D02*X46000Y185000D01*
X48500Y173500D02*X46000Y171000D01*
X70500Y173500D02*X48500D01*
X52410Y180826D02*X52324Y180740D01*
X52410Y186240D02*Y180826D01*
X58000Y190500D02*X51500D01*
X50240Y195240D02*X46500Y191500D01*
X51910Y195240D02*X50240D01*
G54D13*X47910Y199240D02*X54660D01*
X46410Y200740D02*X47910Y199240D01*
X46410Y210740D02*Y200740D01*
G54D12*X59410Y189090D02*X58000Y190500D01*
X59410Y180740D02*Y189090D01*
G54D13*X65910Y202290D02*X58860Y195240D01*
X54660Y199240D02*X58860Y203440D01*
X65910Y210740D02*Y202290D01*
X108910Y216740D02*X108900Y172800D01*
X92410Y217740D02*Y211440D01*
X97910Y181740D02*Y220240D01*
X92410Y197240D02*Y191240D01*
X100910Y180240D02*Y229240D01*
X103410Y237240D02*Y178240D01*
X105910Y174940D02*Y244740D01*
Y174940D02*Y225340D01*
X101410Y176240D02*X98910D01*
X103410Y178240D02*X101410Y176240D01*
X104310Y173340D02*X105910Y174940D01*
X99810Y173340D02*X104310D01*
X105910Y171240D02*X104880Y170240D01*
X107410Y171240D02*X105910D01*
X108900Y172800D02*X107410Y171240D01*
X99410Y178740D02*X100910Y180240D01*
X97910Y178740D02*X99410D01*
G54D12*X75000Y178000D02*X70500Y173500D01*
X78000Y159500D02*X82000D01*
X78457Y173457D02*X78500Y173500D01*
X78457Y167000D02*Y173457D01*
X82500Y178000D02*X75000D01*
X85543Y174957D02*X82500Y178000D01*
X85543Y167000D02*Y174957D01*
X82000Y159500D02*X85500Y163000D01*
X80040Y183040D02*X80000Y183000D01*
X85460Y183040D02*X80040D01*
G54D13*X84410Y203240D02*X79910Y207740D01*
X85010Y203240D02*X84410D01*
X89910Y173740D02*X97910Y181740D01*
X89910Y161240D02*Y173740D01*
X92910D02*X97910Y178740D01*
X92910Y163240D02*Y173740D01*
X94910Y172240D02*Y165240D01*
X98910Y176240D02*X94910Y172240D01*
X97510Y171040D02*X99810Y173340D01*
X95410Y156240D02*X90910Y160740D01*
X90453Y153240D02*Y149697D01*
X88660Y186790D02*X92410Y183040D01*
X88660Y195490D02*Y186790D01*
X88910Y215240D02*Y206740D01*
X86410Y217740D02*X88910Y215240D01*
X86410Y197740D02*X88660Y195490D01*
X88910Y206740D02*X92410Y203240D01*
X116500Y179500D02*X114000Y182000D01*
X124000Y179500D02*X116500D01*
G54D12*X144500Y192500D02*X129500D01*
G54D13*X125500Y185500D02*X122500D01*
X134005Y176995D02*X125500Y185500D01*
X120500Y181500D02*X114000Y188000D01*
X113500Y202000D02*X136000Y179500D01*
X125500Y181500D02*X120500D01*
X132036Y174964D02*X125500Y181500D01*
X130068Y173432D02*X124000Y179500D01*
G54D14*X124500Y170873D02*X124410Y170783D01*
X120000Y175000D02*X124500Y170873D01*
G54D13*X119457Y175543D02*X120000Y175000D01*
X153690Y170310D02*X151000Y173000D01*
X153690Y156799D02*Y170310D01*
X161500Y156863D02*X161564Y156799D01*
X163500Y156831D02*X163532Y156799D01*
X161500Y173500D02*Y156863D01*
X163500Y177500D02*Y156831D01*
X158500Y176500D02*X161500Y173500D01*
X159500Y181500D02*X163500Y177500D01*
X156500Y176500D02*X158500D01*
X152500Y181500D02*X159500D01*
G54D12*X109367Y167867D02*X112500Y171000D01*
X109367Y165240D02*Y167867D01*
G54D13*X104910Y154740D02*X107410Y152240D01*
X107351Y147862D02*Y152181D01*
X104880Y170240D02*X104910Y154740D01*
X136000Y179500D02*Y156826D01*
X134005Y156799D02*Y176995D01*
X132036Y156799D02*Y174964D01*
X130068Y156799D02*Y173432D01*
X136000Y156826D02*X135973Y156799D01*
X138000Y156857D02*X137942Y156799D01*
X138000Y185000D02*Y156857D01*
G54D12*X88500Y69000D02*X94000D01*
X86453Y71047D02*X88500Y69000D01*
X86453Y73000D02*Y71047D01*
X85000Y66000D02*X90500D01*
X79564Y71436D02*X85000Y66000D01*
X79564Y73936D02*Y71436D01*
X79500Y74500D02*X79814Y74186D01*
G54D13*X79500Y73873D02*X79367Y73740D01*
G54D12*X77500Y82500D02*X78500Y81500D01*
X77500Y87095D02*Y82500D01*
X79500Y77500D02*Y74500D01*
X83500Y81500D02*X79500Y77500D01*
X77500Y63000D02*X89000D01*
G54D13*X86453Y73740D02*Y82783D01*
G54D12*X83500Y93000D02*Y81500D01*
G54D13*X64910Y82240D02*X63410D01*
X69910Y87240D02*X64910Y82240D01*
X88910Y92145D02*X89005Y92240D01*
X88910Y85240D02*Y92145D01*
X86453Y82783D02*X88910Y85240D01*
Y92335D02*X89005Y92240D01*
X130500Y75500D02*X131000Y75000D01*
X130500Y85000D02*Y75500D01*
X128500Y75000D02*X129000Y74500D01*
X128500Y84000D02*Y75000D01*
X128099Y87401D02*X130500Y85000D01*
X126000Y86500D02*X128500Y84000D01*
X126500Y74000D02*X127000Y73500D01*
X126500Y83000D02*Y74000D01*
X124500Y86500D02*X126000D01*
X124162Y86838D02*X124500Y86500D01*
X125000Y84500D02*X126500Y83000D01*
X123000Y84500D02*X125000D01*
X122193Y85307D02*X123000Y84500D01*
X122193Y91681D02*Y85307D01*
X132000Y91717D02*X132036Y91681D01*
X132000Y98500D02*Y91717D01*
X126130Y91681D02*Y98630D01*
X130067Y91681D02*Y88433D01*
X128099Y91681D02*Y87401D01*
X124162Y91681D02*Y86838D01*
X116382Y100618D02*X116500Y100500D01*
X107351Y100618D02*X116382D01*
X107351Y104555D02*X122500Y104500D01*
X112000Y85000D02*X104500D01*
X116288Y89288D02*X112000Y85000D01*
X116288Y91681D02*Y89288D01*
X120225Y91681D02*Y84425D01*
X118256Y91740D02*Y86586D01*
X119410Y116740D02*X121410Y118740D01*
X113910Y116740D02*X119410D01*
X111568Y114398D02*X113910Y116740D01*
X115878Y122272D02*X115910Y122240D01*
X107351Y122272D02*X115878D01*
G54D12*X82952Y98952D02*X85000Y101000D01*
X77548Y98952D02*X82952D01*
X78500Y98000D02*X83500Y93000D01*
X78500Y99905D02*Y98000D01*
G54D13*X79595Y101000D02*X77500Y98905D01*
X96000Y103500D02*X93500Y101000D01*
X99500Y103500D02*X96000D01*
X99500D02*X97000D01*
X102524Y106524D02*X99500Y103500D01*
X107351Y106524D02*X102524D01*
X100662Y108492D02*X99410Y107240D01*
X102587Y102587D02*X99500Y99500D01*
X107351Y102587D02*X102587D01*
G54D15*X100815Y92240D02*X108910D01*
G54D13*X167645Y130145D02*X166000Y128500D01*
X172469Y130145D02*X167645D01*
X172469Y134082D02*X162082D01*
X151500Y139500D02*X148000Y136000D01*
X156500Y133000D02*X153500Y136000D01*
X161000Y133000D02*X156500D01*
X162082Y134082D02*X161000Y133000D01*
X158949Y136051D02*X158750Y136250D01*
X160500Y139500D02*X151500D01*
X161981Y138019D02*X160500Y139500D01*
X172469Y138019D02*X161981D01*
X172469Y136051D02*X158949D01*
X172425Y142000D02*X172469Y141956D01*
X164000Y142000D02*X172425D01*
X161000Y145000D02*X164000Y142000D01*
X161000Y145500D02*Y145000D01*
X136410Y146740D02*Y140740D01*
X133910Y149240D02*X136410Y146740D01*
X130410Y149240D02*X133910D01*
X125453Y163697D02*X128099Y161051D01*
Y156799D02*Y161051D01*
X124410Y163697D02*X125453D01*
X124453Y163740D02*X124410Y163697D01*
X126131Y153519D02*X130410Y149240D01*
X126131Y156799D02*Y153519D01*
X124162Y152988D02*X131910Y145240D01*
X124162Y156799D02*Y152988D01*
X127910Y146740D02*Y140740D01*
X122194Y152456D02*X127910Y146740D01*
X120225Y151925D02*X123910Y148240D01*
Y145240D01*
X118257Y148893D02*Y163436D01*
X118910Y126740D02*X122410Y130240D01*
X113910Y126740D02*X118910D01*
X112473Y128177D02*X113910Y126740D01*
X107351Y128177D02*X112473D01*
X107351Y130146D02*X115816D01*
X114599Y136051D02*X114910Y135740D01*
X107351Y136051D02*X114599D01*
X118910Y135740D02*X114910D01*
X113190Y138020D02*X116910Y141740D01*
X107351Y138020D02*X113190D01*
X122194Y156799D02*Y152456D01*
X120225Y156799D02*Y151925D01*
X107351Y152181D02*X107410Y152240D01*
X109410Y165197D02*X109367Y165240D01*
X109410Y161740D02*Y165197D01*
X110410Y160740D02*X109410Y161740D01*
X115410Y160740D02*X110410D01*
X116288Y159862D02*X115410Y160740D01*
X116288Y156799D02*Y159862D01*
X118257Y163436D02*X116453Y165240D01*
G54D12*X46000Y171000D02*Y59000D01*
G54D15*X55410Y111240D02*Y92740D01*
X51851Y114799D02*X55410Y111240D01*
X51851Y118740D02*Y114799D01*
G54D13*X58469Y120240D02*X56969Y118740D01*
X58410Y148240D02*Y151740D01*
X50910Y155267D02*X51674Y154504D01*
X50910Y164681D02*Y155267D01*
G54D15*Y169799D02*X56851D01*
G54D13*X52437Y153740D02*X52110Y154067D01*
X56410Y153740D02*X52437D01*
X58410Y151740D02*X56410Y153740D01*
X74910Y120240D02*X58469D01*
X75388Y119762D02*X74910Y120240D01*
X69910Y106740D02*Y87240D01*
X72910Y109740D02*X69910Y106740D01*
X77367Y121740D02*X75367Y119740D01*
X88910Y101740D02*Y92335D01*
X92410Y105240D02*X88910Y101740D01*
X89910Y129799D02*X89851Y129740D01*
X89910Y132240D02*Y129799D01*
X90910Y133240D02*X89910Y132240D01*
X90410Y160740D02*X89910Y161240D01*
X90910Y160740D02*X90410D01*
X94910Y165240D02*X100910Y159240D01*
X102900Y160900D02*X97510Y166240D01*
X92910Y163240D02*X97910Y158240D01*
X97510Y166240D02*Y171040D01*
G54D12*X85500Y166957D02*X85543Y167000D01*
X85500Y163000D02*Y166957D01*
G54D15*X56851Y169799D02*X60410Y166240D01*
X62969Y168799D02*X60410Y166240D01*
X67410Y168799D02*X62969D01*
G54D13*X65410Y141240D02*X83367D01*
Y153240D02*X65536D01*
X65410Y141240D02*X58410Y148240D01*
X67410Y156768D02*X64709Y154067D01*
X67410Y163681D02*Y156768D01*
X65536Y153240D02*X64709Y154067D01*
X98260Y105240D02*X92410D01*
X99410Y106240D02*X98260Y105240D01*
X99410Y107240D02*Y106240D01*
X107351Y108492D02*X100662D01*
X101910Y114240D02*X91910D01*
X77367Y109740D02*X72910D01*
X84410Y109783D02*X84453Y109740D01*
X84410Y114240D02*Y109783D01*
X88910Y118740D02*X84410Y114240D01*
X91910D02*X91410Y114740D01*
X88922Y126209D02*X84453Y121740D01*
X88910D02*Y118740D01*
X91410Y124240D02*X88910Y121740D01*
X107351Y126209D02*X88922D01*
X107351Y124240D02*X91410D01*
X97410Y116740D02*X93410Y120740D01*
X100910Y116740D02*X97410D01*
X102505Y118335D02*X100910Y116740D01*
X107351Y118335D02*X102505D01*
X99847Y120303D02*X99410Y120740D01*
X107351Y120303D02*X99847D01*
X100910Y145740D02*Y159240D01*
X102910Y146740D02*X102900Y160900D01*
X97910Y149240D02*Y158240D01*
X98910Y148240D02*X97910Y149240D01*
X95410Y148240D02*Y156240D01*
X96910Y146740D02*X95410Y148240D01*
X90453Y149697D02*X94910Y145240D01*
X96910Y143740D02*Y146740D01*
X98910Y144740D02*Y148240D01*
X102725Y143925D02*X100910Y145740D01*
X103756Y145894D02*X102910Y146740D01*
X100910Y135740D02*X94910Y141740D01*
X98410Y135240D02*X96453D01*
X99910Y133740D02*X98410Y135240D01*
X101410Y133740D02*X99910D01*
X100662Y139988D02*X96910Y143740D01*
X101693Y141957D02*X98910Y144740D01*
X102410Y135740D02*X100910D01*
X107351Y139988D02*X100662D01*
X107351Y141957D02*X101693D01*
X107351Y143925D02*X102725D01*
X107351Y145894D02*X103756D01*
X104067Y134083D02*X102410Y135740D01*
X103036Y132114D02*X101410Y133740D01*
X107351Y134083D02*X104067D01*
X107351Y132114D02*X103036D01*
X106910Y130146D02*X102004D01*
X107288Y128240D02*X107351Y128177D01*
X100910Y128240D02*X107288D01*
X99410Y129740D02*X100910Y128240D01*
X94910Y145240D02*Y141740D01*
X96453Y135240D02*X90453Y141240D01*
X97410Y133240D02*X90910D01*
X98910Y131740D02*X97410Y133240D01*
X100410Y131740D02*X98910D01*
X102004Y130146D02*X100410Y131740D01*
X94969Y129740D02*X99410D01*
X241000Y180500D02*Y176500D01*
X238000Y180500D02*X241000D01*
X234000Y184500D02*X238000Y180500D01*
X234000Y187000D02*Y184500D01*
X255000Y195000D02*Y170190D01*
X252384Y258166D02*X252410Y258140D01*
X251500Y198500D02*X255000Y195000D01*
X243000Y198500D02*X251500D01*
X240957Y196457D02*X243000Y198500D01*
X232000Y201000D02*X234000Y199000D01*
X232000Y209000D02*Y201000D01*
X240957Y193500D02*Y196457D01*
X239957Y194500D02*X240957Y193500D01*
X224000Y212000D02*Y208000D01*
G54D12*X228000Y255500D02*Y201000D01*
X218560Y264940D02*X228000Y255500D01*
X207010Y264940D02*X218560D01*
G54D13*X207000Y215000D02*Y192500D01*
G54D12*X248000Y180586D02*X248086Y180500D01*
X248000Y187000D02*Y180586D01*
X248043Y187043D02*X248000Y187000D01*
X248043Y193893D02*Y187043D01*
X240500Y212000D02*X278500D01*
X268914Y206500D02*X263500D01*
X276000Y200500D02*Y206500D01*
X276006Y258188D02*X276000Y258182D01*
X276006Y277630D02*Y258188D01*
X272069Y266231D02*X272100Y266200D01*
X272069Y277630D02*Y266231D01*
G54D13*X276006Y258188D02*X275958Y258140D01*
X272111Y266211D02*X272100Y266200D01*
G54D12*X268132Y277630D02*Y258166D01*
G54D13*X268158Y258140D01*
G54D12*X264195Y266205D02*X264200Y266200D01*
X260258Y258812D02*X260570Y258500D01*
X260258Y277630D02*Y258812D01*
X264195Y277630D02*Y266205D01*
X279943Y266243D02*X279937Y266237D01*
X279943Y277630D02*Y266243D01*
G54D13*X279937Y266237D02*X279900Y266200D01*
X260258Y258188D02*X260210Y258140D01*
G54D12*X256321Y266221D02*X256300Y266200D01*
X256321Y277630D02*Y266221D01*
G54D13*X256311Y266211D02*X256300Y266200D01*
G54D12*X244510Y277630D02*Y258140D01*
X252384Y277630D02*Y258166D01*
X248447Y266247D02*X248400Y266200D01*
X248447Y277630D02*Y266247D01*
G54D13*X248437Y266237D02*X248400Y266200D01*
G54D12*X281957Y297657D02*X282000Y297700D01*
X281911Y287080D02*X281957Y297657D01*
X277974Y292710D02*X277954Y292730D01*
X277974Y287080D02*Y292710D01*
X274057Y297657D02*X274100Y297700D01*
X274037Y287080D02*X274057Y297657D01*
X270100Y287080D02*Y292710D01*
X270080Y292730D01*
X262226Y292684D02*X262180Y292730D01*
X254352Y292702D02*X254380Y292730D01*
X266183Y297683D02*X266200Y297700D01*
X266163Y287080D02*X266183Y297683D01*
X262226Y287079D02*Y292684D01*
X258309Y297691D02*X258300Y297700D01*
X258289Y287079D02*X258309Y297691D01*
X254352Y287079D02*Y292702D01*
X250435Y297665D02*X250400Y297700D01*
X250415Y287079D02*X250435Y297665D01*
X246478Y292728D02*X246480Y292730D01*
X246478Y287079D02*Y292728D01*
X196467Y292697D02*X196510Y292740D01*
X196467Y287090D02*Y292697D01*
X192530Y292720D02*X192510Y292740D01*
X192530Y287090D02*Y292720D01*
X188593Y292723D02*X188610Y292740D01*
X188593Y287090D02*Y292723D01*
X184656Y292694D02*X184610Y292740D01*
X184656Y287089D02*Y292694D01*
X194499Y277640D02*Y268829D01*
X190562Y277640D02*Y269392D01*
X186625Y277640D02*Y269955D01*
X182688Y277640D02*Y270518D01*
X180230Y263560D02*X186625Y269955D01*
X194499Y268829D02*X186430Y260760D01*
Y253690D02*Y260760D01*
X190562Y269392D02*X183330Y262160D01*
X183281Y247527D02*X183330Y262160D01*
X180230Y253690D02*Y263560D01*
X182688Y270518D02*X177030Y264860D01*
X177002Y247548D02*X177030Y264860D01*
X173930Y253690D02*Y266260D01*
X170702Y247548D02*X170730Y267560D01*
X167630Y253690D02*Y268960D01*
X164410Y247540D02*X164438Y270268D01*
X180719Y292731D02*X180710Y292740D01*
X172845Y292705D02*X172810Y292740D01*
X168908Y292738D02*X168910Y292740D01*
X180719Y287089D02*Y292731D01*
X176782Y292712D02*X176810Y292740D01*
X176782Y287089D02*Y292712D01*
X172845Y287089D02*Y292705D01*
X168908Y287089D02*Y292738D01*
X178751Y271081D02*X173930Y266260D01*
X178751Y277640D02*Y271081D01*
X174814Y271644D02*X170730Y267560D01*
X174814Y277640D02*Y271644D01*
X167630Y268960D02*X170877Y272207D01*
Y277640D02*Y272207D01*
X166940Y272770D02*X164438Y270268D01*
X166940Y277640D02*Y272770D01*
G54D18*X186500Y207000D03*
G54D19*X213076Y242206D03*
G54D18*X239910Y106240D03*
G54D20*X327110Y52090D03*
X353110D03*
G54D21*X266485Y66444D03*
X213335D03*
G54D19*X159926Y242206D03*
G54D22*X59610Y288340D03*
Y38340D03*
G54D23*X430327Y86744D03*
Y126256D03*
X412610Y86744D03*
Y126256D03*
G54D22*X419610Y288340D03*
Y38340D03*
G54D24*X85310Y203240D02*X85610D01*
X92410Y203540D02*Y202940D01*
Y211740D02*Y211140D01*
X85010Y211740D02*Y211140D01*
X51760Y236740D02*X52060D01*
X51460Y245240D02*Y244640D01*
X58860Y237040D02*Y236440D01*
Y245240D02*Y244640D01*
X61760Y257740D02*X62060D01*
X68860Y258040D02*Y257440D01*
X51760Y217240D02*X52060D01*
X58860Y217540D02*Y216940D01*
Y225740D02*Y225140D01*
X51460Y225740D02*Y225140D01*
X51760Y195240D02*X52060D01*
X58860Y195540D02*Y194940D01*
Y203740D02*Y203140D01*
X81310Y257540D02*X81610D01*
X88410Y257840D02*Y257240D01*
Y266040D02*Y265440D01*
X81010Y266040D02*Y265440D01*
G54D25*X83324Y277133D02*Y276347D01*
X90410Y277133D02*Y276347D01*
G54D24*X68860Y266240D02*Y265640D01*
X61460Y266240D02*Y265640D01*
X92410Y183340D02*Y182740D01*
G54D25*X124017Y170783D02*X124803D01*
X124017Y163697D02*X124803D01*
X109367Y165633D02*Y164847D01*
X116453Y165633D02*Y164847D01*
G54D24*X92410Y191540D02*Y190940D01*
X51460Y203740D02*Y203140D01*
G54D25*X50929Y132413D02*X53291D01*
X50929Y154067D02*X53291D01*
G54D26*X50418Y169799D02*X51402D01*
X50418Y164681D02*X51402D01*
G54D25*X63528Y132413D02*X65890D01*
X63528Y154067D02*X65890D01*
G54D27*X155658Y159248D02*Y154350D01*
X153690Y159248D02*Y154350D01*
X151721Y159248D02*Y154350D01*
X149753Y159248D02*Y154350D01*
X147784Y159248D02*Y154350D01*
X145816Y159248D02*Y154350D01*
X143847Y159248D02*Y154350D01*
X141879Y159248D02*Y154350D01*
X139910Y159248D02*Y154350D01*
X137942Y159248D02*Y154350D01*
X135973Y159248D02*Y154350D01*
X134005Y159248D02*Y154350D01*
X132036Y159248D02*Y154350D01*
X130068Y159248D02*Y154350D01*
X128099Y159248D02*Y154350D01*
X126131Y159248D02*Y154350D01*
X124162Y159248D02*Y154350D01*
X122194Y159248D02*Y154350D01*
X120225Y159248D02*Y154350D01*
X118257Y159248D02*Y154350D01*
X116288Y159248D02*Y154350D01*
G54D24*X85310Y183040D02*X85610D01*
G54D25*X85543Y167393D02*Y166607D01*
G54D24*X85010Y191540D02*Y190940D01*
G54D25*X52324Y181133D02*Y180347D01*
G54D26*X66918Y168799D02*X67902D01*
X66918Y163681D02*X67902D01*
G54D25*X78457Y167393D02*Y166607D01*
X59410Y181133D02*Y180347D01*
X114319Y47405D02*X116681D01*
X114319Y35595D02*X116681D01*
X106543Y36393D02*Y35607D01*
X133405Y57681D02*Y55319D01*
G54D24*X83260Y50028D02*X83560D01*
G54D25*X79367Y74133D02*Y73347D01*
X86453Y74133D02*Y73347D01*
G54D24*X90360Y50328D02*Y49728D01*
Y58528D02*Y57928D01*
X82960Y58528D02*Y57928D01*
G54D28*X53988Y93240D02*X63831D01*
G54D26*X50918Y65799D02*X51902D01*
X50918Y60681D02*X51902D01*
G54D29*X63831Y81626D02*Y67846D01*
G54D27*X104902Y102587D02*X109800D01*
X104902Y100618D02*X109800D01*
G54D25*X76319Y98905D02*X78681D01*
X76319Y87095D02*X78681D01*
X89005Y93421D02*Y91059D01*
X100815Y93421D02*Y91059D01*
G54D27*X116288Y94130D02*Y89232D01*
X118256Y94130D02*Y89232D01*
X120225Y94130D02*Y89232D01*
X122193Y94130D02*Y89232D01*
X124162Y94130D02*Y89232D01*
X126130Y94130D02*Y89232D01*
X128099Y94130D02*Y89232D01*
X130067Y94130D02*Y89232D01*
X132036Y94130D02*Y89232D01*
X134004Y94130D02*Y89232D01*
X135973Y94130D02*Y89232D01*
X137941Y94130D02*Y89232D01*
X139910Y94130D02*Y89232D01*
X141878Y94130D02*Y89232D01*
X143847Y94130D02*Y89232D01*
X145815Y94130D02*Y89232D01*
X147784Y94130D02*Y89232D01*
X149752Y94130D02*Y89232D01*
X151721Y94130D02*Y89232D01*
X153689Y94130D02*Y89232D01*
X155658Y94130D02*Y89232D01*
G54D25*X121595Y57681D02*Y55319D01*
X103095Y61181D02*Y58819D01*
X114905Y61181D02*Y58819D01*
X114910Y79633D02*Y78847D01*
X92914Y74393D02*Y73607D01*
X100000Y74393D02*Y73607D01*
X121996Y79633D02*Y78847D01*
X80595Y37181D02*Y34819D01*
X92405Y37181D02*Y34819D01*
X99457Y36393D02*Y35607D01*
X77367Y122133D02*Y121347D01*
X84453Y122133D02*Y121347D01*
X77367Y110133D02*Y109347D01*
X84453Y110133D02*Y109347D01*
G54D30*X90851Y109291D02*Y108307D01*
X95969Y109291D02*Y108307D01*
G54D26*X51851Y119232D02*Y118248D01*
X56969Y119232D02*Y118248D01*
G54D29*X63831Y118633D02*Y104853D01*
G54D25*X83367Y141633D02*Y140847D01*
X90453Y141633D02*Y140847D01*
X83367Y153633D02*Y152847D01*
X90453Y153633D02*Y152847D01*
G54D30*X89851Y130232D02*Y129248D01*
G54D27*X104902Y147862D02*X109800D01*
X104902Y145894D02*X109800D01*
X104902Y143925D02*X109800D01*
X104902Y141957D02*X109800D01*
X104902Y139988D02*X109800D01*
X104902Y138020D02*X109800D01*
X104902Y136051D02*X109800D01*
X104902Y134083D02*X109800D01*
G54D30*X94969Y130232D02*Y129248D01*
G54D27*X104902Y132114D02*X109800D01*
X104902Y130146D02*X109800D01*
X104902Y128177D02*X109800D01*
X104902Y126209D02*X109800D01*
X104902Y124240D02*X109800D01*
X104902Y122272D02*X109800D01*
X104902Y120303D02*X109800D01*
X104902Y118335D02*X109800D01*
X104902Y116366D02*X109800D01*
X104902Y114398D02*X109800D01*
X104902Y112429D02*X109800D01*
X104902Y110461D02*X109800D01*
X104902Y108492D02*X109800D01*
X104902Y106524D02*X109800D01*
X104902Y104555D02*X109800D01*
G54D25*X360457Y33393D02*Y32607D01*
X367543Y33393D02*Y32607D01*
X336457Y33393D02*Y32607D01*
X343543Y33393D02*Y32607D01*
X344319Y96905D02*X346681D01*
X314500Y102181D02*Y99819D01*
X326310Y102181D02*Y99819D01*
X346957Y105893D02*Y105107D01*
X354043Y105893D02*Y105107D01*
G54D31*X363678Y102184D02*Y96672D01*
G54D25*X344319Y85095D02*X346681D01*
X319095Y88181D02*Y85819D01*
X330905Y88181D02*Y85819D01*
G54D32*X311800Y133900D02*X314000D01*
G54D30*X313000Y123492D02*Y122508D01*
X318118Y123492D02*Y122508D01*
X328882Y123492D02*Y122508D01*
G54D32*X333000Y133800D02*X335200D01*
X333000Y136400D02*X335200D01*
X333000Y138900D02*X335200D01*
X333000Y141500D02*X335200D01*
X333000Y144100D02*X335200D01*
X333000Y146600D02*X335200D01*
X333000Y149200D02*X335200D01*
X333000Y151700D02*X335200D01*
G54D25*X342500Y154393D02*Y153607D01*
X349586Y154393D02*Y153607D01*
X342457Y131893D02*Y131107D01*
X349543Y131893D02*Y131107D01*
X342595Y119681D02*Y117319D01*
X354405Y119681D02*Y117319D01*
G54D30*X334000Y123492D02*Y122508D01*
X313000Y113492D02*Y112508D01*
X318118Y113492D02*Y112508D01*
X328882Y113492D02*Y112508D01*
X334000Y113492D02*Y112508D01*
G54D25*X241000Y180893D02*Y180107D01*
X248086Y180893D02*Y180107D01*
X240957Y193893D02*Y193107D01*
X248043Y193893D02*Y193107D01*
X268914Y206893D02*Y206107D01*
X276000Y206893D02*Y206107D01*
X266500Y142181D02*Y139819D01*
X278310Y142181D02*Y139819D01*
X291457Y101393D02*Y100607D01*
X298543Y101393D02*Y100607D01*
X293457Y129393D02*Y128607D01*
X300543Y129393D02*Y128607D01*
X291095Y116181D02*Y113819D01*
X302905Y116181D02*Y113819D01*
G54D33*X311800Y151800D02*X314000D01*
G54D32*X311800Y149200D02*X314000D01*
X311800Y146700D02*X314000D01*
G54D25*X293457Y150393D02*Y149607D01*
X300543Y150393D02*Y149607D01*
G54D32*X311800Y144100D02*X314000D01*
X311800Y141500D02*X314000D01*
X311800Y139000D02*X314000D01*
X311800Y136400D02*X314000D01*
G54D25*X229500Y167181D02*Y164819D01*
X266690Y159681D02*Y157319D01*
X278500Y159681D02*Y157319D01*
X300595Y163681D02*Y161319D01*
X312405Y163681D02*Y161319D01*
X327000Y164893D02*Y164107D01*
X334086Y164893D02*Y164107D01*
X342595Y168681D02*Y166319D01*
X354405Y168681D02*Y166319D01*
G54D24*X286590Y183590D02*X286890D01*
X293690Y183890D02*Y183290D01*
Y192090D02*Y191490D01*
X286290Y192090D02*Y191490D01*
G54D25*X211043Y83393D02*Y82607D01*
X269243Y75493D02*Y74707D01*
X262157Y75493D02*Y74707D01*
X291095Y88181D02*Y85819D01*
X302905Y88181D02*Y85819D01*
G54D34*X255945Y34608D02*Y29884D01*
X252008Y34608D02*Y29884D01*
X248071Y34608D02*Y29884D01*
G54D35*X257913Y44058D02*Y39333D01*
X253976Y44058D02*Y39333D01*
X250039Y44058D02*Y39333D01*
G54D34*X244134Y34608D02*Y29884D01*
X240197Y34608D02*Y29884D01*
X236260Y34608D02*Y29884D01*
G54D35*X246102Y44058D02*Y39333D01*
X242165Y44058D02*Y39333D01*
G54D34*X238228Y44057D02*Y39333D01*
G54D36*X261850Y34215D02*Y30278D01*
Y43664D02*Y39727D01*
G54D34*X232323Y34608D02*Y29884D01*
X228386Y34608D02*Y29884D01*
X224449Y34608D02*Y29884D01*
X220512Y34608D02*Y29884D01*
X234291Y44057D02*Y39333D01*
X230354Y44057D02*Y39333D01*
X226417Y44057D02*Y39333D01*
X222480Y44057D02*Y39333D01*
G54D36*X216574Y34215D02*Y30278D01*
Y43664D02*Y39727D01*
G54D25*X180457Y36893D02*Y36107D01*
X187543Y36893D02*Y36107D01*
X196457Y36893D02*Y36107D01*
X203543Y36893D02*Y36107D01*
G54D24*X160800Y29800D02*X161100D01*
X167900Y30100D02*Y29500D01*
Y38300D02*Y37700D01*
X160500Y38300D02*Y37700D01*
X160800Y49300D02*X161100D01*
X167900Y49600D02*Y49000D01*
X160500Y57800D02*Y57200D01*
G54D25*X180367Y49633D02*Y48847D01*
X187453Y49633D02*Y48847D01*
X196457Y49893D02*Y49107D01*
X203543Y49893D02*Y49107D01*
X204257Y95193D02*Y94407D01*
X211343Y95193D02*Y94407D01*
G54D27*X157626Y94130D02*Y89232D01*
X159595Y94130D02*Y89232D01*
X161563Y94130D02*Y89232D01*
X163532Y94130D02*Y89232D01*
G54D25*X180190Y65181D02*Y62819D01*
X192000Y65181D02*Y62819D01*
X198957Y61893D02*Y61107D01*
G54D24*X167900Y57800D02*Y57200D01*
G54D25*X168867Y84133D02*Y83347D01*
X206043Y61893D02*Y61107D01*
X203957Y83393D02*Y82607D01*
X175953Y84133D02*Y83347D01*
X185095Y85681D02*Y83319D01*
X196905Y85681D02*Y83319D01*
G54D37*X387070Y49548D02*X388646D01*
G54D38*X387070Y55453D02*X388646D01*
G54D37*X369354Y49548D02*X370928D01*
G54D38*X369354Y55453D02*X370929D01*
G54D39*X381002Y99428D02*Y81712D01*
X373128Y99428D02*Y81712D01*
G54D31*X390450Y102184D02*Y96672D01*
G54D40*X411626Y101902D02*X412020D01*
X402571Y76311D02*X402965D01*
X400996Y93240D02*X401390D01*
G54D41*X423043Y73949D02*X425799D01*
X423043Y105051D02*X425799D01*
G54D25*X418457Y60893D02*Y60107D01*
X425543Y60893D02*Y60107D01*
X301957Y263393D02*Y262607D01*
X309043Y263393D02*Y262607D01*
G54D24*X306040Y193590D02*X306340D01*
X305740Y202090D02*Y201490D01*
X286540Y203590D02*X286840D01*
X293640Y203890D02*Y203290D01*
Y212090D02*Y211490D01*
X313140Y193890D02*Y193290D01*
Y202090D02*Y201490D01*
G54D25*X325367Y206633D02*Y205847D01*
X332453Y206633D02*Y205847D01*
X342517Y215197D02*X343303D01*
X325367Y219133D02*Y218347D01*
X332453Y219133D02*Y218347D01*
X342517Y222283D02*X343303D01*
G54D42*X401500Y221400D02*X410500D01*
G54D43*X410000Y249000D02*X414000D01*
G54D34*X279943Y279992D02*Y275268D01*
X276006Y279992D02*Y275268D01*
X272069Y279992D02*Y275268D01*
X268132Y279992D02*Y275268D01*
G54D35*X281911Y289442D02*Y284717D01*
X277974Y289442D02*Y284717D01*
X274037Y289442D02*Y284717D01*
G54D36*X285848Y279599D02*Y275662D01*
Y289048D02*Y285111D01*
G54D44*X365600Y287250D02*X371899D01*
X388100D02*X394399D01*
G54D34*X264195Y279992D02*Y275268D01*
X260258Y279992D02*Y275268D01*
X256321Y279992D02*Y275268D01*
X252384Y279992D02*Y275268D01*
X248447Y279992D02*Y275268D01*
X244510Y279992D02*Y275268D01*
G54D36*X240572Y279599D02*Y275662D01*
G54D35*X270100Y289442D02*Y284717D01*
X266163Y289442D02*Y284717D01*
G54D34*X262226Y289441D02*Y284717D01*
X258289Y289441D02*Y284717D01*
X254352Y289441D02*Y284717D01*
X250415Y289441D02*Y284717D01*
X246478Y289441D02*Y284717D01*
G54D36*X240572Y289048D02*Y285111D01*
G54D25*X217690Y167181D02*Y164819D01*
G54D24*X183300Y178300D02*X183600D01*
X190400Y178600D02*Y178000D01*
Y186800D02*Y186200D01*
G54D25*X188005Y148421D02*Y146059D01*
X199815Y148421D02*Y146059D01*
G54D24*X183000Y186800D02*Y186200D01*
G54D25*X175867Y156133D02*Y155347D01*
X182953Y156133D02*Y155347D01*
G54D24*X211300Y200000D02*X211600D01*
X218400Y200300D02*Y199700D01*
Y208500D02*Y207900D01*
X211000Y208500D02*Y207900D01*
G54D27*X170020Y100618D02*X174918D01*
X170020Y102586D02*X174918D01*
X170020Y104555D02*X174918D01*
X170020Y106523D02*X174918D01*
X170020Y108492D02*X174918D01*
X170020Y110460D02*X174918D01*
X170020Y112429D02*X174918D01*
X170020Y114397D02*X174918D01*
X170020Y116366D02*X174918D01*
X170020Y118334D02*X174918D01*
X170020Y120303D02*X174918D01*
X170020Y122271D02*X174918D01*
X170020Y124240D02*X174918D01*
X170020Y126208D02*X174918D01*
X170020Y128177D02*X174918D01*
X170020Y130145D02*X174918D01*
X170020Y132114D02*X174918D01*
X170020Y134082D02*X174918D01*
X170020Y136051D02*X174918D01*
X170020Y138019D02*X174918D01*
X170020Y139988D02*X174918D01*
X170020Y141956D02*X174918D01*
X170020Y143925D02*X174918D01*
X170020Y145893D02*X174918D01*
X170020Y147862D02*X174918D01*
X163532Y159248D02*Y154350D01*
X161564Y159248D02*Y154350D01*
X159595Y159248D02*Y154350D01*
X157627Y159248D02*Y154350D01*
G54D24*X286240Y212090D02*Y211490D01*
G54D34*X202373Y280002D02*Y275278D01*
X198436Y280002D02*Y275278D01*
X194499Y280002D02*Y275278D01*
G54D35*X204341Y289452D02*Y284727D01*
X200404Y289452D02*Y284727D01*
X196467Y289452D02*Y284727D01*
G54D36*X208278Y279609D02*Y275672D01*
Y289058D02*Y285121D01*
G54D34*X190562Y280002D02*Y275278D01*
X186625Y280002D02*Y275278D01*
X182688Y280002D02*Y275278D01*
X178751Y280002D02*Y275278D01*
X174814Y280002D02*Y275278D01*
X170877Y280002D02*Y275278D01*
X166940Y280002D02*Y275278D01*
G54D36*X163002Y279609D02*Y275672D01*
G54D35*X192530Y289452D02*Y284727D01*
X188593Y289452D02*Y284727D01*
G54D34*X184656Y289451D02*Y284727D01*
X180719Y289451D02*Y284727D01*
X176782Y289451D02*Y284727D01*
X172845Y289451D02*Y284727D01*
X168908Y289451D02*Y284727D01*
G54D36*X163002Y289058D02*Y285121D01*
G54D45*X397000Y200300D02*Y193700D01*
G54D25*X390595Y177681D02*Y175319D01*
G54D45*X406000Y200300D02*Y193700D01*
X415100Y200300D02*Y193700D01*
G54D46*X429000Y224500D02*Y202500D01*
G54D25*X371095Y136181D02*Y133819D01*
X382905Y136181D02*Y133819D01*
X371095Y122181D02*Y119819D01*
X382905Y122181D02*Y119819D01*
X421819Y182905D02*X424181D01*
X421819Y171095D02*X424181D01*
X402405Y177681D02*Y175319D01*
G54D16*X276500Y73000D03*
X277000Y25500D03*
X283000Y31000D03*
X352500Y33000D03*
X256250Y97250D03*
X275000Y111000D03*
X264500Y116500D03*
Y111500D03*
G54D47*X310500Y87000D03*
X307000Y101000D03*
G54D16*X303000Y122000D03*
X309000Y117500D03*
G54D47*X381000Y106000D03*
X387000Y83500D03*
G54D16*X402500Y85000D03*
X258810Y89140D03*
X252510D03*
X249310Y77740D03*
X246210Y89140D03*
X243010Y77740D03*
X239910Y89140D03*
X236710Y77740D03*
X233610Y89140D03*
X230410Y77740D03*
X227310Y89140D03*
X221010D03*
X224110Y77740D03*
X217810D03*
X393500Y44000D03*
Y49500D03*
X388000Y44000D03*
X365000Y60000D03*
X371000Y60500D03*
X431457D03*
X267300Y49800D03*
X258010Y51940D03*
X266210Y57840D03*
X254010Y47440D03*
X250110Y51940D03*
X246110Y47440D03*
X242210Y51940D03*
X238210Y47440D03*
X234410Y51940D03*
X226410D03*
X230410Y47440D03*
X222410D03*
X256010Y26240D03*
X252010D03*
X248010D03*
X244110D03*
X240210D03*
X236210D03*
X232410D03*
X228386Y26264D03*
X224449Y26279D03*
X220410Y26240D03*
X132000Y98500D03*
X139500Y71500D03*
X129000Y64000D03*
X128500Y56500D03*
X126130Y98630D03*
G54D47*X121910Y70740D03*
X123000Y29500D03*
G54D16*X103000Y46000D03*
X148000Y57000D03*
X159000Y99500D03*
X151500Y65000D03*
X145000D03*
G54D47*X172410Y76240D03*
Y91240D03*
G54D16*X155500Y29500D03*
X154000Y51500D03*
X164500Y43500D03*
X104500Y85000D03*
G54D47*X107910Y78740D03*
X108910Y92240D03*
G54D16*X203500Y55500D03*
Y68000D03*
X180095Y56000D03*
X192095D03*
X210000Y26000D03*
X201500Y30000D03*
X212000Y158500D03*
X211000Y140000D03*
G54D47*X209000Y166000D03*
G54D16*X208000Y130000D03*
X200000Y116000D03*
X191500Y84500D03*
X193500Y107000D03*
X195500Y137000D03*
X183000Y138000D03*
G54D47*X189410Y155740D03*
G54D16*X87500Y43000D03*
X74000Y49500D03*
X78500Y45000D03*
X93500Y101000D03*
X91410Y114740D03*
X93410Y120740D03*
X99410D03*
X99500Y99500D03*
X115816Y130146D03*
G54D48*X115910Y122240D03*
X115689Y110461D03*
G54D16*X72500Y58500D03*
X78500Y81500D03*
X85000Y101000D03*
X77500Y63000D03*
G54D47*X63910Y60740D03*
X55410Y111240D03*
G54D16*X100000Y80500D03*
X93000D03*
X121410Y118740D03*
X131910Y145240D03*
X127910Y140740D03*
X123910Y145240D03*
G54D48*X122410Y130240D03*
G54D16*X148500Y116500D03*
X166000Y128500D03*
X118910Y135740D03*
X116500Y100500D03*
X122500Y104500D03*
G54D48*X122410Y110240D03*
G54D16*X116910Y141740D03*
X136410Y140740D03*
X118257Y148893D03*
X148000Y136000D03*
X153500D03*
X158750Y136250D03*
X161000Y145500D03*
G54D47*X169410Y155740D03*
G54D16*X187500Y168000D03*
X171000Y169500D03*
X173500Y178000D03*
X183000Y171800D03*
X194500Y171000D03*
X151000Y173000D03*
X156500Y176500D03*
X152500Y181500D03*
X144500Y192500D03*
X129500D03*
X122500Y185500D03*
X138000Y185000D03*
X234000Y187000D03*
X248000D03*
G54D47*X236000Y166000D03*
G54D16*X217000Y187000D03*
Y148500D03*
X228000Y151500D03*
X220500Y144000D03*
X223500Y127000D03*
X233000Y128000D03*
X234500Y135000D03*
X189000Y137500D03*
X200500Y108500D03*
X234000Y199000D03*
X234500Y213500D03*
X228000Y201000D03*
X224000Y212000D03*
X232000Y209000D03*
X240500Y212000D03*
X220500Y192000D03*
X211000Y193500D03*
X205398Y234602D03*
X202248Y228752D03*
X199099Y234401D03*
X195950Y228550D03*
X189650Y228350D03*
X164410Y228440D03*
X170733Y228463D03*
X177033D03*
X183333D03*
X192799Y234201D03*
X167530Y234090D03*
X173930D03*
X180230D03*
X186530D03*
X246435Y235940D03*
X250480Y230470D03*
X250400Y297700D03*
X246480Y292730D03*
X244510Y258140D03*
X248400Y266200D03*
X252410Y258140D03*
X204000Y247000D03*
X207000Y251500D03*
X200710Y264940D03*
X207010D03*
X164410Y247540D03*
X170702Y247548D03*
X167630Y253690D03*
X173930D03*
X177002Y247548D03*
X183302D03*
X180230Y253690D03*
X186430D03*
X196510Y292740D03*
X192510D03*
X188610D03*
X184610D03*
X180710D03*
X176810D03*
X172810D03*
X168910D03*
X80410Y249240D03*
X55500Y257500D03*
G54D47*X74910Y274240D03*
X119500Y276500D03*
G54D16*X88410Y242240D03*
X94910Y255740D03*
X54910Y252240D03*
X58500Y139500D03*
X87000Y147500D03*
X78000Y159500D03*
X80000Y183000D03*
X114000Y188000D03*
Y176500D03*
Y182000D03*
X101000Y170000D03*
X112500Y171000D03*
G54D48*X120000Y175000D03*
G54D47*X60410Y166240D03*
G54D16*X46000Y185000D03*
X46500Y217000D03*
Y191500D03*
Y231500D03*
X46410Y210740D03*
X72500Y185500D03*
X78457Y173457D03*
X79910Y207740D03*
X65910Y210740D03*
X86410Y197740D03*
X92410Y197240D03*
X65410Y230240D03*
X52410Y186240D03*
X113500Y202000D03*
X108910Y216740D03*
X91910Y218740D03*
X94910Y223240D03*
X85410Y217740D03*
X87410Y227240D03*
X80410Y221240D03*
X63910Y217240D03*
X83910Y233240D03*
X321000Y147500D03*
X320000Y140500D03*
X319000Y133500D03*
X328500Y141500D03*
G54D47*X319000Y162500D03*
G54D16*Y152500D03*
X329000Y150500D03*
G54D47*X333500Y228500D03*
G54D16*X326500Y196000D03*
X325500Y212000D03*
G54D47*X313000Y256000D03*
X302000D03*
G54D16*X308000Y187500D03*
X309000Y212000D03*
X301500Y193500D03*
G54D47*X338000Y89500D03*
G54D16*X354500Y126000D03*
G54D47*X392000Y121500D03*
G54D16*X402500Y128500D03*
X323500Y123500D03*
X328500Y133500D03*
X341000Y147000D03*
X343500Y139000D03*
G54D47*X424500Y97000D03*
X423000Y83000D03*
G54D16*X256500Y139500D03*
X280000Y149000D03*
X272500Y141000D03*
X302000Y142500D03*
X293500Y156000D03*
X276000Y200500D03*
X271000Y188000D03*
X265500Y184000D03*
X282500Y183500D03*
X282000Y203500D03*
X263500Y206500D03*
X254309Y235940D03*
X258320Y230470D03*
X266230D03*
X273950D03*
X281870D03*
X262226Y235958D03*
X270109Y235940D03*
X278009D03*
X279900Y266200D03*
X272100D03*
X275958Y258140D03*
X264200Y266200D03*
X268158Y258140D03*
X256300Y266200D03*
X260210Y258140D03*
X282000Y297700D03*
X277954Y292730D03*
X274100Y297700D03*
X270080Y292730D03*
X266200Y297700D03*
X262180Y292730D03*
X254380D03*
G54D47*X363750Y279250D03*
X373750D03*
X396250D03*
X386750D03*
G54D16*X258300Y297700D03*
X354500Y160000D03*
G54D47*X354000Y188500D03*
X339000D03*
G54D16*X358500Y210000D03*
X371500Y206000D03*
X367000Y210000D03*
X363000Y206000D03*
X339000Y207000D03*
X345500Y209000D03*
G54D47*X426000Y189500D03*
G54D16*X421500Y231000D03*
Y217500D03*
G54D47*X383500Y177000D03*
X390500Y185000D03*
G54D16*X389000Y217500D03*
G54D47*X406000Y186500D03*
Y207500D03*
G54D16*X400500Y231000D03*
X410500D03*
G54D12*G54D49*G54D12*G54D49*G54D12*G54D49*G54D12*G54D49*G54D12*G54D49*G54D12*G54D49*G54D12*G54D49*G54D12*G54D17*G54D12*G54D49*G54D12*G54D17*G54D12*G54D17*G54D12*G54D49*G54D12*G54D49*G54D12*G54D49*G54D12*G54D17*G54D49*G54D12*G54D49*G54D12*G54D49*G54D12*G54D49*G54D12*G54D49*G54D12*G54D49*G54D12*G54D49*G54D12*G54D49*G54D12*G54D49*G54D12*G54D49*G54D12*G54D49*G54D12*G54D49*G54D12*G54D50*G54D51*G54D50*G54D52*G54D51*G54D53*G54D54*G54D53*G54D55*G54D53*M02*
