G04 start of page 2 for group 0 idx 0 *
G04 Title: (unknown), 1top *
G04 Creator: pcb 20110918 *
G04 CreationDate: Tue Nov 12 23:37:41 2013 UTC *
G04 For: fosse *
G04 Format: Gerber/RS-274X *
G04 PCB-Dimensions: 455000 500000 *
G04 PCB-Coordinate-Origin: lower left *
%MOIN*%
%FSLAX25Y25*%
%LNTOP*%
%ADD45C,0.0354*%
%ADD44C,0.1090*%
%ADD43C,0.0200*%
%ADD42C,0.0350*%
%ADD41C,0.0360*%
%ADD40C,0.0600*%
%ADD39C,0.0300*%
%ADD38R,0.0590X0.0590*%
%ADD37R,0.0591X0.0591*%
%ADD36R,0.0110X0.0110*%
%ADD35R,0.0197X0.0197*%
%ADD34R,0.0600X0.0600*%
%ADD33R,0.0160X0.0160*%
%ADD32C,0.0160*%
%ADD31R,0.0157X0.0157*%
%ADD30R,0.0236X0.0236*%
%ADD29R,0.0158X0.0158*%
%ADD28R,0.1450X0.1450*%
%ADD27R,0.0142X0.0142*%
%ADD26R,0.0669X0.0669*%
%ADD25C,0.0039*%
%ADD24R,0.0295X0.0295*%
%ADD23R,0.0098X0.0098*%
%ADD22R,0.0098X0.0098*%
%ADD21R,0.0512X0.0512*%
%ADD20R,0.0340X0.0340*%
%ADD19C,0.0394*%
%ADD18C,0.0544*%
%ADD17C,0.0550*%
%ADD16C,0.2500*%
%ADD15C,0.0150*%
%ADD14C,0.0100*%
%ADD13C,0.0250*%
%ADD12C,0.0400*%
%ADD11C,0.0001*%
G54D11*G36*
X211900Y354000D02*X204400D01*
Y363500D01*
X211900D01*
Y354000D01*
G37*
G36*
X222900Y350500D02*Y344500D01*
X226400Y341000D01*
Y330000D01*
X200900D01*
Y344500D01*
X215400D01*
Y350500D01*
X222900D01*
G37*
G36*
X279900Y435500D02*Y485500D01*
X329900D01*
Y435500D01*
X279900D01*
G37*
G54D12*X205900Y370500D02*X212495D01*
X209678Y358278D02*X212400Y361000D01*
X221400D01*
X219126Y354740D02*X225660D01*
X229900Y350500D01*
X231710Y334500D02*Y341190D01*
X229900Y343000D01*
Y350000D01*
X230150Y350250D01*
X224305Y370500D02*X226900D01*
X231400Y366000D01*
X237857D01*
X237900Y365957D01*
X221400Y361000D02*X224400Y364000D01*
Y370500D01*
G54D13*X209678Y351000D02*X204900D01*
G54D14*X209678Y347260D02*X202140D01*
X200900Y348500D01*
Y379000D01*
G54D12*X258900Y363000D02*Y372500D01*
X231710Y333000D02*X243943D01*
X244400Y333457D01*
Y340543D02*X248443D01*
X258900Y351000D01*
X241900Y350500D02*Y359000D01*
G54D13*X398300Y404600D02*Y349600D01*
X391300Y411600D02*X398300Y404600D01*
X392800Y398557D02*X392843Y398600D01*
X392800Y394600D02*Y398557D01*
X390800Y392600D02*X392800Y394600D01*
X383300Y376100D02*X386300Y373100D01*
X385714Y398557D02*X385757Y398600D01*
X371800Y398557D02*X385714D01*
X378257Y405643D02*X378300Y405600D01*
X371800Y405643D02*X378257D01*
X370843Y397600D02*X371800Y398557D01*
X357800Y397600D02*X370843D01*
X357800Y393100D02*Y397600D01*
X364750Y347550D02*X366300Y349100D01*
X357800Y347550D02*X364750D01*
X362400Y359100D02*X357800Y354500D01*
X358000Y376100D02*X383300D01*
X358000D02*X357700Y375800D01*
X368300Y411600D02*X391300D01*
X364800Y408100D02*X368300Y411600D01*
X364800Y405600D02*Y408100D01*
X364600Y405800D02*X364800Y405600D01*
X357800Y405800D02*X364600D01*
X363300Y392600D02*X390800D01*
X355800Y385100D02*X363300Y392600D01*
X355300Y390600D02*X357800Y393100D01*
X353800Y390600D02*X355300D01*
X343300Y397600D02*X350850D01*
X392300Y355100D02*Y349600D01*
X386300Y373100D02*Y349600D01*
X380800Y364100D02*Y349600D01*
X375300Y355100D02*Y349600D01*
X371300Y359100D02*X375300Y355100D01*
X362400Y359100D02*X371300D01*
X377300Y367600D02*X380800Y364100D01*
X357700Y367600D02*X377300D01*
X345700Y354500D02*X343300Y352100D01*
X349600Y354500D02*X345700D01*
X343800Y367600D02*X350750D01*
X354300Y361100D02*X357700Y367600D01*
X351300Y385100D02*X355800D01*
X316257Y386100D02*X309300D01*
X323343D02*X350300D01*
X351300Y385100D01*
X309693Y369993D02*X309300Y369600D01*
X316214Y369993D02*X309693D01*
X323300Y369600D02*X329300D01*
X323300Y386057D02*X323343Y386100D01*
X321300Y376100D02*Y380600D01*
X323300Y374100D02*X321300Y376100D01*
X323300Y369600D02*Y374100D01*
X321300Y380600D02*X323300Y382600D01*
Y386057D01*
G54D15*X144030Y285400D02*Y280530D01*
X141500Y255300D02*X141528Y278028D01*
X144030Y280530D02*X141528Y278028D01*
X144720Y261450D02*Y276720D01*
X147792Y255308D02*X147820Y275320D01*
X151020Y261450D02*Y274020D01*
X154092Y255308D02*X154120Y272620D01*
X157320Y261450D02*Y271320D01*
X160371Y255287D02*X160420Y269920D01*
X163520Y261450D02*Y268520D01*
X147967Y285400D02*Y279967D01*
X144720Y276720D02*X147967Y279967D01*
X151904Y279404D02*X147820Y275320D01*
X151904Y285400D02*Y279404D01*
X155841Y285400D02*Y278841D01*
X151020Y274020D01*
X159778Y278278D02*X154120Y272620D01*
X159778Y285400D02*Y278278D01*
X163715Y285400D02*Y277715D01*
X167652Y285400D02*Y277152D01*
X160420Y269920D01*
X171589Y276589D02*X163520Y268520D01*
X157320Y271320D02*X163715Y277715D01*
X171589Y285400D02*Y276589D01*
X145998Y294849D02*Y300498D01*
X146000Y300500D01*
X149935Y294849D02*Y300465D01*
X149900Y300500D01*
X153872Y294849D02*Y300472D01*
X153900Y300500D01*
X157809Y294849D02*Y300491D01*
X157800Y300500D01*
X161746Y294849D02*Y300454D01*
X161700Y300500D01*
X165683Y294850D02*Y300483D01*
X169620Y294850D02*Y300480D01*
X169600Y300500D01*
X173557Y294850D02*Y300457D01*
X173600Y300500D01*
X165683Y300483D02*X165700Y300500D01*
X223568Y294839D02*Y300488D01*
X223570Y300490D01*
X227505Y294839D02*Y300455D01*
X227470Y300490D01*
X231442Y294839D02*Y300462D01*
X231470Y300490D01*
X235379Y294839D02*Y300481D01*
X235370Y300490D01*
X239316Y294839D02*Y300444D01*
X239270Y300490D01*
X243253Y294840D02*Y300473D01*
X243270Y300490D01*
X247190Y294840D02*Y300470D01*
X247170Y300490D01*
X251127Y294840D02*Y300447D01*
X251170Y300490D01*
X255064Y294840D02*Y300470D01*
X259001Y294840D02*Y300447D01*
X259044Y300490D01*
X255064Y300470D02*X255044Y300490D01*
G54D14*X221600Y285390D02*Y265900D01*
X225537Y285390D02*Y270237D01*
X225500Y270200D01*
X229474Y285390D02*Y265926D01*
X229500Y265900D01*
X237348Y285390D02*Y265948D01*
X237300Y265900D01*
X233411Y285390D02*Y270211D01*
X233400Y270200D01*
X241248Y270148D02*Y285353D01*
X241285Y285390D01*
X245222D02*Y265926D01*
X249159Y285390D02*X249211Y270111D01*
X245222Y265926D02*X245248Y265900D01*
X249211Y270111D02*X249200Y270100D01*
X253096Y285390D02*Y265948D01*
X253048Y265900D01*
X257033Y285390D02*X257037Y270437D01*
X257000Y270400D01*
X197602Y40006D02*Y34102D01*
X197500Y34000D01*
X201539Y40006D02*Y34039D01*
X201500Y34000D01*
X205476Y40006D02*Y34024D01*
X205500Y34000D01*
X209413Y40006D02*Y34087D01*
X209500Y34000D01*
X213350Y40006D02*Y34050D01*
X213300Y34000D01*
X217287Y40006D02*Y34013D01*
X217300Y34000D01*
X221224Y40006D02*Y34024D01*
X221200Y34000D01*
X225161Y40006D02*Y34061D01*
X225100Y34000D01*
X229098Y40006D02*Y34002D01*
X229100Y34000D01*
X233035Y40006D02*Y34065D01*
X233100Y34000D01*
X199570Y49454D02*Y55130D01*
X199500Y55200D01*
X203507Y49454D02*Y59693D01*
X203500Y59700D01*
X207444Y49454D02*Y55144D01*
X207500Y55200D01*
X211381Y49454D02*Y59581D01*
X211500Y59700D01*
X215318Y49454D02*Y55182D01*
X215300Y55200D01*
X219255Y49455D02*Y59655D01*
X223192Y49455D02*Y55192D01*
X223200Y55200D01*
X219255Y59655D02*X219300Y59700D01*
X227129Y49455D02*Y59629D01*
X227200Y59700D01*
X231066Y49455D02*Y55166D01*
X231100Y55200D01*
X235003Y49455D02*Y59603D01*
X235100Y59700D01*
X76982Y405774D02*X85320D01*
X76320D02*X69821D01*
X76982Y403805D02*X72293D01*
X71041Y402553D01*
Y401553D01*
X70041Y400553D01*
X82230Y407742D02*X83541Y409053D01*
X88541D01*
X83541Y412053D02*X89041D01*
X91041Y414053D01*
X88541Y409053D02*X92041Y405553D01*
X88325Y401837D02*X92041Y405553D01*
X76982Y401837D02*X88325D01*
X76982Y411679D02*X73667D01*
X71541Y409553D01*
X76982Y413648D02*X72136D01*
X70541Y412053D01*
X69821Y405774D02*X68100Y404053D01*
X76730Y407742D02*X64230D01*
X63041Y406553D01*
Y404112D01*
X62982Y404053D01*
X70041Y400553D02*X62041D01*
X58541Y397053D01*
X64541Y398553D02*X62541Y396553D01*
X76982Y399868D02*X72356D01*
X71041Y398553D01*
X64541D01*
X76982Y397900D02*X73388D01*
X72041Y396553D01*
X65541D01*
X64541Y395553D01*
X76982Y407742D02*X82230D01*
X76982Y417585D02*X85509D01*
X85541Y417553D01*
X76982Y409711D02*X81199D01*
X83541Y412053D01*
X46998Y417053D02*X44998Y415053D01*
X45019Y415075D02*X44541Y415553D01*
X28100D01*
X26600Y414053D01*
G54D13*X21482D02*Y410112D01*
X25041Y406553D01*
G54D14*X46998Y405053D02*X42541D01*
X39541Y402053D01*
Y382553D01*
X34541Y377553D01*
X33041D01*
X21100Y361053D02*X33041D01*
G54D13*X21041Y355994D02*X33482D01*
X33541Y356053D01*
X25041Y406553D02*Y388053D01*
G54D14*X21041Y361112D02*X21100Y361053D01*
X58541Y397053D02*Y387648D01*
Y380553D02*Y387458D01*
X62541Y396553D02*Y379053D01*
X58541Y387648D02*X58636Y387553D01*
X58541Y387458D02*X58636Y387553D01*
X56084Y369053D02*Y378096D01*
X58541Y380553D01*
X64541Y395553D02*Y379053D01*
X66541Y393553D02*Y379053D01*
X76982Y395931D02*X74419D01*
X73041Y394553D01*
X67541D01*
X66541Y393553D01*
G54D13*X70446Y387553D02*X78541D01*
G54D14*X87887Y387053D02*Y381899D01*
X84541Y378553D01*
Y374553D01*
G54D13*Y374053D02*X77541D01*
G54D14*X85919Y386994D02*Y383931D01*
X82541Y380553D01*
X89856Y386994D02*Y379738D01*
X91541Y378053D01*
X82541Y380553D02*X70041D01*
X68541Y379053D01*
X91541Y378053D02*Y374639D01*
X91627Y374553D01*
G54D13*X91541Y374053D02*Y366053D01*
G54D14*X76982Y425459D02*X85447D01*
X76982Y431364D02*X84230D01*
X76982Y423490D02*X82104D01*
X70541Y423553D02*X76919D01*
X76982Y423490D01*
X76541Y425459D02*X71635D01*
X70041Y427053D01*
X76982Y427427D02*X72667D01*
X71041Y429053D01*
X76982Y429396D02*X73698D01*
X72041Y431053D01*
X70541D01*
X82104Y423490D02*X83541Y422053D01*
X88541D01*
X92041Y425553D01*
X64600Y425053D02*X69041D01*
X70541Y423553D01*
X67041Y428553D02*X60541D01*
X59541Y427553D01*
Y425112D01*
X59482Y425053D01*
X70041Y427053D02*X68541D01*
X67041Y428553D01*
X71041Y429053D02*X69541D01*
X68041Y430553D01*
X66084D01*
X60084Y436553D01*
X70541Y431053D02*X64541Y437053D01*
X76982Y415616D02*X69478D01*
X69041Y416053D01*
X76982Y419553D02*X61041D01*
X76982Y421522D02*X58553D01*
X70541Y412053D02*X67041D01*
X63041Y416053D01*
X71541Y409553D02*X61541D01*
X61041Y410053D01*
Y419553D02*X58541Y417053D01*
Y414053D01*
X58553Y421522D02*X54084Y417053D01*
X58541Y414053D02*X54041Y409553D01*
Y405096D01*
X54084Y405053D01*
X71324Y437270D02*X68541Y440053D01*
X70541Y441053D02*Y453553D01*
X68541Y440053D02*Y443553D01*
X66541Y439053D02*Y442053D01*
X65041Y443553D01*
X68541D02*X67541Y444553D01*
X70293Y435301D02*X66541Y439053D01*
X60084Y448553D02*Y445010D01*
X64541Y440553D02*Y437053D01*
X65041Y443553D02*Y451553D01*
X61541Y455053D01*
X64541Y462553D02*X72541Y454553D01*
G54D13*X71541Y464053D02*X75498D01*
X78998Y460553D01*
G54D14*X60084Y445010D02*X64541Y440553D01*
X35167Y448553D02*X34340Y449380D01*
X37041Y458994D02*Y452081D01*
X34340Y449380D01*
X48541Y455053D02*X54041Y460553D01*
X42041Y455053D02*X49541Y462553D01*
X64541D01*
G54D13*X37041Y464112D02*X32600D01*
X30041Y461553D01*
X20541Y465112D02*X26482D01*
X30041Y461553D01*
G54D14*X20541Y459994D02*Y450580D01*
X21305Y449817D01*
X35041Y436553D02*X28041Y443553D01*
Y447053D01*
X26041Y449053D01*
X22068D01*
X21741Y449380D01*
X52998Y448553D02*X35167D01*
X35041Y436553D02*X52998D01*
X133163Y386994D02*Y384388D01*
X138498Y379053D01*
G54D13*X145584D02*Y383010D01*
X142041Y386553D01*
X138498Y379053D02*Y375096D01*
X142041Y371553D01*
G54D14*X87888Y458749D02*X86084Y460553D01*
X94084Y459053D02*X94041Y459010D01*
Y466096D02*X100498D01*
X101041Y465553D01*
X94041Y459010D02*X95084D01*
X76982Y435301D02*X70293D01*
X76982Y441207D02*X73387D01*
X72541Y442053D01*
X76982Y439238D02*X72356D01*
X70541Y441053D01*
X76982Y437270D02*X71324D01*
X76982Y433333D02*X82821D01*
X86541Y437053D01*
X88541Y431053D02*X84541D01*
X84230Y431364D02*X84541Y431053D01*
X55041Y455053D02*Y456553D01*
X57041Y458553D01*
X62541D01*
X67541Y453553D01*
Y444553D02*Y453553D01*
X54041Y460553D02*X63541D01*
X70541Y453553D01*
X72541Y442053D02*Y454553D01*
X87888Y444206D02*Y458749D01*
X89856Y452112D02*Y447238D01*
X91825Y452112D02*Y447769D01*
X93793Y452112D02*Y448301D01*
X95762Y452112D02*Y448832D01*
X85919Y452112D02*Y455175D01*
X85041Y456053D01*
X80041D01*
X79041Y457053D01*
Y460510D01*
X78998Y460553D01*
X76982Y443175D02*Y447494D01*
X77041Y447553D01*
X97730Y452112D02*Y456364D01*
X95084Y459010D02*X97730Y456364D01*
X89856Y447238D02*X93541Y443553D01*
Y440553D01*
X91825Y447769D02*X97541Y442053D01*
Y436053D01*
X93793Y448301D02*X101541Y440553D01*
X95762Y448832D02*X100041Y444553D01*
X103541D01*
X106041Y442053D01*
Y436053D01*
X142100Y443175D02*X145163D01*
X146541Y444553D01*
X148194Y441206D02*X149041Y442053D01*
G54D13*X152541Y445553D01*
Y451010D01*
X152584Y451053D01*
X146541Y444553D02*Y450010D01*
X145769Y450781D01*
G54D14*X146541Y450010D02*X145498Y451053D01*
G54D13*X139041D01*
G54D14*X133163Y452112D02*Y455675D01*
X135041Y457553D01*
X158041D01*
G54D13*X152541Y451053D02*X160946D01*
G54D14*X158041Y457553D02*X162041Y461553D01*
G54D13*X159041Y451053D02*X161541D01*
G54D14*X162041Y461553D02*X170791D01*
X142100Y441206D02*X148194D01*
X142100Y439238D02*X151726D01*
G54D13*X151541D02*X154321D01*
X157636Y442553D01*
G54D14*X142100Y437269D02*X149825D01*
X142100Y435301D02*X149293D01*
X149825Y437269D02*X150541Y436553D01*
X149293Y435301D02*X150041Y434553D01*
X142100Y433332D02*X148262D01*
X149041Y432553D01*
X142100Y431364D02*X147730D01*
X148541Y430553D01*
X142100Y429395D02*X147199D01*
X148041Y428553D01*
X170791Y461553D02*X174991Y465753D01*
X175041Y439053D02*Y457503D01*
X174991Y457553D01*
X177041Y449553D02*X181041Y453553D01*
X190041D01*
G54D13*X187541Y457553D02*X181041D01*
G54D14*X178791Y448303D02*X182041Y451553D01*
X191541D01*
X183041Y449553D02*X192541D01*
X184041Y447553D02*X193541D01*
X180541Y447053D02*X183041Y449553D01*
X182541Y446053D02*X184041Y447553D01*
X194541Y457503D02*X194491Y457553D01*
X191041Y462303D02*X194491Y465753D01*
X194541Y457503D02*X194516Y457528D01*
X190041Y453553D02*X191041Y454553D01*
Y462303D01*
X194541Y454553D02*Y457503D01*
X214041Y454553D02*Y457503D01*
X213991Y457553D01*
G54D13*X207041D02*X200541D01*
G54D14*X209041Y453553D02*X210541Y455053D01*
Y462303D01*
X213991Y465753D01*
X214041Y454553D02*X211041Y451553D01*
X191541D02*X194541Y454553D01*
X196541Y453553D02*X209041D01*
X197541Y451553D02*X211041D01*
X192541Y449553D02*X196541Y453553D01*
X193541Y447553D02*X197541Y451553D01*
G54D13*X160946Y451053D02*X169446Y442553D01*
X161541Y451053D02*X168041Y457553D01*
G54D14*X150541Y436553D02*X172541D01*
X150041Y434553D02*X173541D01*
X149041Y432553D02*X174541D01*
X148541Y430553D02*X175541D01*
X148041Y428553D02*X176541D01*
X177041Y438053D02*Y449553D01*
X172541Y436553D02*X175041Y439053D01*
X173541Y434553D02*X177041Y438053D01*
X174541Y432553D02*X178791Y436803D01*
Y448303D01*
X180541Y435553D02*Y447053D01*
X182541Y434553D02*Y446053D01*
X175541Y430553D02*X180541Y435553D01*
X176541Y428553D02*X182541Y434553D01*
G54D16*X396700Y296100D03*
Y46100D03*
X316700D03*
X36700Y296100D03*
X116700D03*
X316700D03*
X36700Y46100D03*
X116700D03*
G54D11*G36*
X55750Y57750D02*Y52250D01*
X61250D01*
Y57750D01*
X55750D01*
G37*
G54D17*X78500Y55000D03*
G54D18*X190166Y249966D03*
X137016D03*
G54D19*X243575Y74204D03*
X190425D03*
G54D20*X405650Y179176D02*X405950D01*
X412750Y179476D02*Y178876D01*
Y187676D02*Y187076D01*
X405350Y187676D02*Y187076D01*
G54D21*X375714Y244493D02*Y243707D01*
X382800Y244493D02*Y243707D01*
G54D20*X359150Y234600D02*X359450D01*
X366250Y234900D02*Y234300D01*
Y243100D02*Y242500D01*
X358850Y243100D02*Y242500D01*
G54D21*X375800Y229993D02*Y229207D01*
X382886Y229993D02*Y229207D01*
X377414Y195893D02*Y195107D01*
X384500Y195893D02*Y195107D01*
X330414Y167393D02*Y166607D01*
X337500Y167393D02*Y166607D01*
G54D20*X344250Y157600D02*Y157000D01*
X336850Y157600D02*Y157000D01*
G54D21*X336914Y181893D02*Y181107D01*
X344000Y181893D02*Y181107D01*
X321000Y148393D02*Y147607D01*
X328086Y148393D02*Y147607D01*
G54D20*X337150Y149100D02*X337450D01*
X344250Y149400D02*Y148800D01*
G54D21*X64000Y228893D02*Y228107D01*
X71086Y228893D02*Y228107D01*
X61914Y257393D02*Y256607D01*
X61000Y214893D02*Y214107D01*
X68086Y214893D02*Y214107D01*
X65310Y246402D02*Y244040D01*
X69000Y257393D02*Y256607D01*
G54D22*X48327Y234178D02*Y232406D01*
G54D23*X50295Y234178D02*Y232407D01*
G54D22*X52264Y234178D02*Y232406D01*
G54D23*X54232Y234178D02*Y232407D01*
G54D22*X52264Y245594D02*Y243822D01*
G54D23*X54232Y245594D02*Y243823D01*
G54D21*X77120Y246402D02*Y244040D01*
X32414Y270393D02*Y269607D01*
X39500Y270393D02*Y269607D01*
G54D24*X46882Y268992D02*Y268008D01*
X52000Y268992D02*Y268008D01*
G54D21*X23414Y235893D02*Y235107D01*
X30500Y235893D02*Y235107D01*
X24914Y220893D02*Y220107D01*
X22190Y254755D02*Y249245D01*
X34000Y254755D02*Y249245D01*
G54D25*X43996Y237150D02*X44311Y236835D01*
G54D22*X44390Y234178D02*Y232406D01*
G54D23*X46358Y234178D02*Y232407D01*
G54D22*X44390Y245594D02*Y243822D01*
G54D23*X46358Y245594D02*Y243823D01*
G54D22*X48327Y245594D02*Y243822D01*
G54D23*X50295Y245594D02*Y243823D01*
G54D21*X45500Y258393D02*Y257607D01*
X52586Y258393D02*Y257607D01*
G54D26*X47539Y239000D02*X52461D01*
G54D27*X43524Y241638D02*Y237740D01*
G54D25*X43012Y237110D02*X44272Y235850D01*
X43524Y237110D02*X44272Y236362D01*
G54D21*X32000Y220893D02*Y220107D01*
X42500Y221393D02*Y220607D01*
X49586Y221393D02*Y220607D01*
G54D11*G36*
X58177Y149823D02*Y140177D01*
X67823D01*
Y149823D01*
X58177D01*
G37*
G54D22*X60047Y138405D02*Y136633D01*
X58079Y138405D02*Y136633D01*
X54634Y145984D02*X56405D01*
X54634Y144016D02*X56405D01*
X54634Y142047D02*X56405D01*
X54634Y140079D02*X56405D01*
G54D21*X71086Y111893D02*Y111107D01*
X53914Y192893D02*Y192107D01*
X61000Y192893D02*Y192107D01*
X55586Y115893D02*Y115107D01*
G54D22*X69594Y140079D02*X71366D01*
X67921Y153366D02*Y151594D01*
Y138405D02*Y136633D01*
G54D21*X46414Y131393D02*Y130607D01*
X53500Y131393D02*Y130607D01*
G54D22*X65953Y153366D02*Y151594D01*
X63984Y153366D02*Y151594D01*
X62016Y153366D02*Y151594D01*
X65953Y138405D02*Y136633D01*
X63984Y138405D02*Y136633D01*
X62016Y138405D02*Y136633D01*
X54634Y149921D02*X56405D01*
G54D21*X51500Y167893D02*Y167107D01*
X58586Y167893D02*Y167107D01*
G54D22*X54634Y147953D02*X56405D01*
G54D21*X30414Y130393D02*Y129607D01*
X37500Y130393D02*Y129607D01*
X22414Y143393D02*Y142607D01*
X29500Y143393D02*Y142607D01*
G54D22*X60047Y153366D02*Y151594D01*
X58079Y153366D02*Y151594D01*
G54D21*X26190Y161681D02*Y159319D01*
X38000Y161681D02*Y159319D01*
G54D22*X69594Y149921D02*X71366D01*
X69594Y147953D02*X71366D01*
X69594Y145984D02*X71366D01*
X69594Y144016D02*X71366D01*
X69594Y142047D02*X71366D01*
G54D21*X69500Y167393D02*Y166607D01*
X76586Y167393D02*Y166607D01*
X39914Y183893D02*Y183107D01*
X47000Y183893D02*Y183107D01*
X40500Y195893D02*Y195107D01*
X47586Y195893D02*Y195107D01*
X25000Y188393D02*Y187607D01*
X32086Y188393D02*Y187607D01*
X37914Y174893D02*Y174107D01*
X45000Y174893D02*Y174107D01*
X64000Y111893D02*Y111107D01*
G54D24*X48500Y104492D02*Y103508D01*
X53618Y104492D02*Y103508D01*
X32957Y78049D02*Y77065D01*
X38075Y78049D02*Y77065D01*
G54D21*X38000Y95681D02*Y93319D01*
X49810Y95681D02*Y93319D01*
X31000Y104893D02*Y104107D01*
X38086Y104893D02*Y104107D01*
X48500Y115893D02*Y115107D01*
X32914Y116893D02*Y116107D01*
X40000Y116893D02*Y116107D01*
X64414Y38293D02*Y37507D01*
X71500Y38293D02*Y37507D01*
G54D28*X55816Y75035D02*Y71035D01*
X77616Y75035D02*Y71035D01*
G54D29*X217287Y42368D02*Y37644D01*
X213350Y42368D02*Y37644D01*
X209413Y42368D02*Y37644D01*
X205476Y42368D02*Y37644D01*
X201539Y42368D02*Y37644D01*
X197602Y42368D02*Y37644D01*
G54D30*X193664Y41974D02*Y38038D01*
G54D29*X233035Y42368D02*Y37644D01*
X229098Y42368D02*Y37644D01*
G54D31*X235003Y51817D02*Y47092D01*
G54D30*X238940Y41974D02*Y38038D01*
Y51424D02*Y47486D01*
G54D29*X221224Y42368D02*Y37644D01*
X225161Y42368D02*Y37644D01*
G54D31*X231066Y51817D02*Y47092D01*
X227129Y51817D02*Y47092D01*
X223192Y51817D02*Y47092D01*
X219255Y51817D02*Y47092D01*
G54D29*X215318Y51816D02*Y47092D01*
X211381Y51816D02*Y47092D01*
X207444Y51816D02*Y47092D01*
X203507Y51816D02*Y47092D01*
X199570Y51816D02*Y47092D01*
G54D30*X193664Y51424D02*Y47486D01*
G54D29*X257033Y287752D02*Y283028D01*
X253096Y287752D02*Y283028D01*
X249159Y287752D02*Y283028D01*
G54D31*X259001Y297202D02*Y292477D01*
X255064Y297202D02*Y292477D01*
X251127Y297202D02*Y292477D01*
G54D30*X262938Y287359D02*Y283422D01*
Y296808D02*Y292871D01*
G54D29*X245222Y287752D02*Y283028D01*
X241285Y287752D02*Y283028D01*
X237348Y287752D02*Y283028D01*
X233411Y287752D02*Y283028D01*
X229474Y287752D02*Y283028D01*
X225537Y287752D02*Y283028D01*
X221600Y287752D02*Y283028D01*
G54D30*X217662Y287359D02*Y283422D01*
G54D31*X247190Y297202D02*Y292477D01*
X243253Y297202D02*Y292477D01*
G54D29*X239316Y297201D02*Y292477D01*
X235379Y297201D02*Y292477D01*
X231442Y297201D02*Y292477D01*
X227505Y297201D02*Y292477D01*
X223568Y297201D02*Y292477D01*
G54D30*X217662Y296808D02*Y292871D01*
G54D29*X179463Y287762D02*Y283038D01*
G54D31*X181431Y297212D02*Y292487D01*
X177494Y297212D02*Y292487D01*
G54D29*X175526Y287762D02*Y283038D01*
X171589Y287762D02*Y283038D01*
G54D31*X173557Y297212D02*Y292487D01*
X169620Y297212D02*Y292487D01*
G54D30*X185368Y287369D02*Y283432D01*
Y296818D02*Y292881D01*
G54D29*X167652Y287762D02*Y283038D01*
G54D31*X165683Y297212D02*Y292487D01*
G54D29*X161746Y297211D02*Y292487D01*
X163715Y287762D02*Y283038D01*
X159778Y287762D02*Y283038D01*
X155841Y287762D02*Y283038D01*
X157809Y297211D02*Y292487D01*
X153872Y297211D02*Y292487D01*
X149935Y297211D02*Y292487D01*
X145998Y297211D02*Y292487D01*
X151904Y287762D02*Y283038D01*
X147967Y287762D02*Y283038D01*
X144030Y287762D02*Y283038D01*
G54D30*X140092Y287369D02*Y283432D01*
Y296818D02*Y292881D01*
G54D32*X246492Y439316D02*Y437116D01*
G54D33*X249092Y439316D02*Y437116D01*
X251592Y439316D02*Y437116D01*
X254192Y439316D02*Y437116D01*
X256792Y439316D02*Y437116D01*
X259292Y439316D02*Y437116D01*
X261892Y439316D02*Y437116D01*
X264392Y439316D02*Y437116D01*
X264492Y460516D02*Y458316D01*
X261892Y460516D02*Y458316D01*
X259392Y460516D02*Y458316D01*
X256792Y460516D02*Y458316D01*
X254192Y460516D02*Y458316D01*
X251692Y460516D02*Y458316D01*
X249092Y460516D02*Y458316D01*
X246592Y460516D02*Y458316D01*
G54D21*X244007Y333457D02*X244793D01*
X219900Y335681D02*Y333319D01*
X231710Y335681D02*Y333319D01*
X244007Y340543D02*X244793D01*
X212495Y371681D02*Y369319D01*
X224305Y371681D02*Y369319D01*
X237507Y373043D02*X238293D01*
G54D34*X229900Y351000D02*Y350000D01*
G54D35*X218535Y347260D02*X219716D01*
X218535Y354740D02*X219716D01*
X209087Y351000D02*X210268D01*
X209087Y354740D02*X210268D01*
X209087Y347260D02*X210268D01*
G54D34*X241900Y351000D02*Y350000D01*
X258400Y351000D02*X259400D01*
X258400Y363000D02*X259400D01*
G54D21*X237507Y365957D02*X238293D01*
G54D20*X206891Y457553D02*X207191D01*
X213991Y457853D02*Y457253D01*
Y466053D02*Y465453D01*
X206591Y466053D02*Y465453D01*
G54D21*X360926Y299569D02*Y298783D01*
X368012Y299569D02*Y298783D01*
G54D20*X356750Y281500D02*X357050D01*
X356450Y290000D02*Y289400D01*
X363850Y281800D02*Y281200D01*
Y290000D02*Y289400D01*
G54D21*X339257Y303993D02*Y303207D01*
X346343Y303993D02*Y303207D01*
G54D20*X350600Y367600D02*X350900D01*
X357700Y367900D02*Y367300D01*
Y376100D02*Y375500D01*
X350300Y376100D02*Y375500D01*
G54D21*X385757Y398993D02*Y398207D01*
X392843Y398993D02*Y398207D01*
G54D20*X350700Y397600D02*X351000D01*
X357800Y397900D02*Y397300D01*
Y406100D02*Y405500D01*
X350400Y406100D02*Y405500D01*
G54D21*X371407Y405643D02*X372193D01*
X371407Y398557D02*X372193D01*
G54D20*X357800Y347700D02*Y347400D01*
X357500Y354500D02*X358100D01*
X349300D02*X349900D01*
X349300Y347100D02*X349900D01*
G54D21*X316257Y386493D02*Y385707D01*
X323343Y386493D02*Y385707D01*
X316214Y369993D02*Y369207D01*
X323300Y369993D02*Y369207D01*
G54D20*X52391Y473553D02*X52691D01*
X59491Y473853D02*Y473253D01*
Y482053D02*Y481453D01*
X52091Y482053D02*Y481453D01*
X36041Y482053D02*Y481453D01*
X28641Y482053D02*Y481453D01*
G54D36*X74533Y443175D02*X79431D01*
X74533Y441207D02*X79431D01*
X74533Y439238D02*X79431D01*
X74533Y437270D02*X79431D01*
X74533Y435301D02*X79431D01*
X74533Y433333D02*X79431D01*
X74533Y431364D02*X79431D01*
X74533Y429396D02*X79431D01*
G54D21*X78998Y460946D02*Y460160D01*
G54D20*X74391Y474053D02*X74691D01*
X81491Y474353D02*Y473753D01*
Y482553D02*Y481953D01*
X74091Y482553D02*Y481953D01*
G54D21*X86084Y460946D02*Y460160D01*
X93648Y466096D02*X94434D01*
X93648Y459010D02*X94434D01*
X52998Y448946D02*Y448160D01*
Y436946D02*Y436160D01*
X33159Y449380D02*X35521D01*
X20560D02*X22922D01*
X60084Y448946D02*Y448160D01*
Y436946D02*Y436160D01*
G54D24*X20049Y465112D02*X21033D01*
X20049Y459994D02*X21033D01*
X36549Y464112D02*X37533D01*
X36549Y458994D02*X37533D01*
G54D20*X28941Y473553D02*X29241D01*
X36041Y473853D02*Y473253D01*
G54D36*X74533Y427427D02*X79431D01*
X74533Y425459D02*X79431D01*
X74533Y423490D02*X79431D01*
X74533Y421522D02*X79431D01*
X74533Y419553D02*X79431D01*
G54D24*X59482Y425545D02*Y424561D01*
X64600Y425545D02*Y424561D01*
G54D21*X33159Y427726D02*X35521D01*
X20560D02*X22922D01*
G54D36*X74533Y417585D02*X79431D01*
X74533Y415616D02*X79431D01*
X74533Y413648D02*X79431D01*
X74533Y411679D02*X79431D01*
X74533Y409711D02*X79431D01*
X74533Y407742D02*X79431D01*
X74533Y405774D02*X79431D01*
X74533Y403805D02*X79431D01*
X74533Y401837D02*X79431D01*
X74533Y399868D02*X79431D01*
X74533Y397900D02*X79431D01*
X74533Y395931D02*X79431D01*
G54D24*X68100Y404545D02*Y403561D01*
G54D36*X85919Y389443D02*Y384545D01*
G54D21*X58636Y388734D02*Y386372D01*
X70446Y388734D02*Y386372D01*
G54D37*X23619Y388553D02*X33462D01*
G54D36*X87887Y389443D02*Y384545D01*
X89856Y389443D02*Y384545D01*
X91824Y389443D02*Y384545D01*
X93793Y389443D02*Y384545D01*
X95761Y389443D02*Y384545D01*
X97730Y389443D02*Y384545D01*
X99698Y389443D02*Y384545D01*
G54D21*X84541Y374946D02*Y374160D01*
X91627Y374946D02*Y374160D01*
X48998Y369446D02*Y368660D01*
X56084Y369446D02*Y368660D01*
G54D38*X33462Y376939D02*Y363159D01*
G54D24*X20549Y361112D02*X21533D01*
X20549Y355994D02*X21533D01*
X62982Y404545D02*Y403561D01*
G54D21*X46998Y405446D02*Y404660D01*
X54084Y405446D02*Y404660D01*
X46998Y417446D02*Y416660D01*
X54084Y417446D02*Y416660D01*
G54D38*X33462Y413946D02*Y400166D01*
G54D24*X21482Y414545D02*Y413561D01*
X26600Y414545D02*Y413561D01*
G54D36*X101667Y389443D02*Y384545D01*
X103635Y389443D02*Y384545D01*
X105604Y389443D02*Y384545D01*
X107572Y389443D02*Y384545D01*
X109541Y389443D02*Y384545D01*
G54D21*X105136Y345734D02*Y343372D01*
X116946Y345734D02*Y343372D01*
G54D36*X111509Y389443D02*Y384545D01*
X113478Y389443D02*Y384545D01*
X115446Y389443D02*Y384545D01*
X117415Y389443D02*Y384545D01*
X119383Y389443D02*Y384545D01*
X121352Y389443D02*Y384545D01*
X123320Y389443D02*Y384545D01*
X125289Y389443D02*Y384545D01*
X127257Y389443D02*Y384545D01*
X129226Y389443D02*Y384545D01*
X131194Y389443D02*Y384545D01*
X133163Y389443D02*Y384545D01*
G54D21*X131731Y364234D02*Y361872D01*
G54D36*X139651Y395931D02*X144549D01*
X139651Y397899D02*X144549D01*
X139651Y399868D02*X144549D01*
X139651Y401836D02*X144549D01*
X139651Y403805D02*X144549D01*
X139651Y405773D02*X144549D01*
X139651Y407742D02*X144549D01*
X139651Y409710D02*X144549D01*
G54D21*X143541Y364234D02*Y361872D01*
X138498Y379446D02*Y378660D01*
X145584Y379446D02*Y378660D01*
G54D36*X139651Y411679D02*X144549D01*
X139651Y413647D02*X144549D01*
X139651Y415616D02*X144549D01*
X139651Y417584D02*X144549D01*
X139651Y419553D02*X144549D01*
X139651Y421521D02*X144549D01*
X139651Y423490D02*X144549D01*
X139651Y425458D02*X144549D01*
X139651Y427427D02*X144549D01*
X139651Y429395D02*X144549D01*
X139651Y431364D02*X144549D01*
X139651Y433332D02*X144549D01*
X139651Y435301D02*X144549D01*
X139651Y437269D02*X144549D01*
X139651Y439238D02*X144549D01*
X139651Y441206D02*X144549D01*
X139651Y443175D02*X144549D01*
G54D21*X157636Y443734D02*Y441372D01*
X169446Y443734D02*Y441372D01*
G54D36*X133163Y454561D02*Y449663D01*
X131195Y454561D02*Y449663D01*
X129226Y454561D02*Y449663D01*
X127258Y454561D02*Y449663D01*
X125289Y454561D02*Y449663D01*
X123321Y454561D02*Y449663D01*
X121352Y454561D02*Y449663D01*
X119384Y454561D02*Y449663D01*
G54D21*X145498Y451446D02*Y450660D01*
X152584Y451446D02*Y450660D01*
G54D36*X117415Y454561D02*Y449663D01*
X115447Y454561D02*Y449663D01*
X113478Y454561D02*Y449663D01*
X111510Y454561D02*Y449663D01*
X109541Y454561D02*Y449663D01*
X107573Y454561D02*Y449663D01*
X105604Y454561D02*Y449663D01*
X103636Y454561D02*Y449663D01*
X101667Y454561D02*Y449663D01*
X99699Y454561D02*Y449663D01*
X97730Y454561D02*Y449663D01*
X95762Y454561D02*Y449663D01*
X93793Y454561D02*Y449663D01*
X91825Y454561D02*Y449663D01*
X89856Y454561D02*Y449663D01*
X87888Y454561D02*Y449663D01*
X85919Y454561D02*Y449663D01*
G54D39*X146000Y300500D03*
X149900D03*
X153900D03*
X157800D03*
X161700D03*
X165700D03*
X169600D03*
X173600D03*
G54D40*X142041Y386553D03*
Y371553D03*
X139041Y451053D03*
X159041D03*
G54D41*X181041Y457553D03*
X200541D03*
X87888Y444206D03*
X86541Y437053D03*
X77041Y447553D03*
X48541Y455053D03*
X55041D03*
X61541D03*
G54D40*X71541Y464053D03*
G54D41*X101041Y465553D03*
X92041Y425553D03*
X88541Y431053D03*
X93541Y440553D03*
X97541Y436053D03*
X101541Y440553D03*
X106041Y436053D03*
X85447Y425459D03*
X85541Y417553D03*
X69041Y416053D03*
X63041D03*
X61041Y410053D03*
G54D40*X25041Y406553D03*
G54D41*X85320Y405774D03*
X92041Y405553D03*
X91041Y414053D03*
G54D40*X78541Y387553D03*
X91541Y366053D03*
X77541Y374053D03*
G54D41*X42041Y455053D03*
G54D40*X30041Y461553D03*
X33541Y356053D03*
G54D39*X197500Y34000D03*
X201539Y34039D03*
X205476Y34024D03*
X209500Y34000D03*
X213300D03*
X217300D03*
X221200D03*
X225100D03*
X229100D03*
X233100D03*
X199500Y55200D03*
X203500Y59700D03*
X207500Y55200D03*
X211500Y59700D03*
X215300Y55200D03*
X219300Y59700D03*
X223200Y55200D03*
X227200Y59700D03*
X231100Y55200D03*
X235100Y59700D03*
X243300Y65600D03*
X238700Y63200D03*
X194900Y85500D03*
X198100Y96900D03*
X201200Y85500D03*
X204400Y96900D03*
X207500Y85500D03*
X210700Y96900D03*
X213800Y85500D03*
X217000Y96900D03*
X220100Y85500D03*
X226500Y77900D03*
X232800D03*
X239100D03*
X223300Y96900D03*
X229600D03*
X235900D03*
X226400Y85500D03*
X232700D03*
X239000D03*
X163520Y261450D03*
X157320D03*
X151020D03*
X160392Y255308D03*
X154092D03*
X147792D03*
X144720Y261450D03*
X141500Y255300D03*
X163620Y241850D03*
X157320D03*
X160423Y236223D03*
X154123D03*
X151020Y241850D03*
X147823Y236223D03*
X144620Y241850D03*
X141500Y236200D03*
G54D40*X362800Y359100D03*
X309300Y369600D03*
X364300Y376100D03*
X354300Y361100D03*
X329300Y369600D03*
X343800Y367600D03*
X205900Y370500D03*
X258900Y372500D03*
G54D41*X204900Y351000D03*
G54D40*X241900Y359000D03*
X366300Y349100D03*
X392300Y355100D03*
X343300Y352100D03*
X328556Y378344D03*
X323300Y394100D03*
X353800Y390600D03*
X343300Y397600D03*
X378300Y405600D03*
X364800D03*
G54D39*X223570Y300490D03*
X227470D03*
X231470D03*
X235370D03*
X239270D03*
X243270D03*
X247170D03*
X251170D03*
X255044D03*
X259044D03*
X258960Y238230D03*
X255099Y243700D03*
X251040Y238230D03*
X247199Y243700D03*
X243320Y238230D03*
X239316Y243718D03*
X235410Y238230D03*
X231399Y243700D03*
X227570Y238230D03*
X223525Y243700D03*
X237300Y265900D03*
X233400Y270200D03*
X229500Y265900D03*
X225500Y270200D03*
X221600Y265900D03*
X253048D03*
X249200Y270100D03*
X257000Y270400D03*
X245248Y265900D03*
X241248Y270148D03*
G54D15*G54D42*G54D43*G54D42*G54D43*G54D42*G54D43*G54D42*G54D43*G54D42*G54D15*G54D42*G54D43*G54D42*G54D15*G54D44*G54D39*G54D45*M02*
