G04 start of page 15 for group -3984 idx -3984 *
G04 Title: (unknown), fab *
G04 Creator: pcb 20110918 *
G04 CreationDate: Mon Nov 11 23:32:46 2013 UTC *
G04 For: fosse *
G04 Format: Gerber/RS-274X *
G04 PCB-Dimensions: 455000 500000 *
G04 PCB-Coordinate-Origin: lower left *
%MOIN*%
%FSLAX25Y25*%
%LNFAB*%
%ADD353C,0.0100*%
%ADD352C,0.0075*%
%ADD351C,0.0060*%
%ADD350R,0.0080X0.0080*%
G54D350*X35900Y296100D02*G75*G03X37500Y296100I800J0D01*G01*
G75*G03X35900Y296100I-800J0D01*G01*
X395900D02*G75*G03X397500Y296100I800J0D01*G01*
G75*G03X395900Y296100I-800J0D01*G01*
X115900D02*G75*G03X117500Y296100I800J0D01*G01*
G75*G03X115900Y296100I-800J0D01*G01*
X315900D02*G75*G03X317500Y296100I800J0D01*G01*
G75*G03X315900Y296100I-800J0D01*G01*
X35900Y46100D02*G75*G03X37500Y46100I800J0D01*G01*
G75*G03X35900Y46100I-800J0D01*G01*
X395900D02*G75*G03X397500Y46100I800J0D01*G01*
G75*G03X395900Y46100I-800J0D01*G01*
X115900D02*G75*G03X117500Y46100I800J0D01*G01*
G75*G03X115900Y46100I-800J0D01*G01*
X315900D02*G75*G03X317500Y46100I800J0D01*G01*
G75*G03X315900Y46100I-800J0D01*G01*
X14200Y511250D02*G75*G03X15800Y511250I800J0D01*G01*
G75*G03X14200Y511250I-800J0D01*G01*
G54D351*X135000Y513500D02*X136500Y510500D01*
X138000Y513500D01*
X136500Y510500D02*Y507500D01*
X139800Y510800D02*X142050D01*
X139800Y507500D02*X142800D01*
X139800Y513500D02*Y507500D01*
Y513500D02*X142800D01*
X147600D02*X148350Y512750D01*
X145350Y513500D02*X147600D01*
X144600Y512750D02*X145350Y513500D01*
X144600Y512750D02*Y511250D01*
X145350Y510500D01*
X147600D01*
X148350Y509750D01*
Y508250D01*
X147600Y507500D02*X148350Y508250D01*
X145350Y507500D02*X147600D01*
X144600Y508250D02*X145350Y507500D01*
X98000Y508250D02*X98750Y507500D01*
X98000Y509450D02*Y508250D01*
Y509450D02*X99050Y510500D01*
X99950D01*
X101000Y509450D01*
Y508250D01*
X100250Y507500D02*X101000Y508250D01*
X98750Y507500D02*X100250D01*
X98000Y511550D02*X99050Y510500D01*
X98000Y512750D02*Y511550D01*
Y512750D02*X98750Y513500D01*
X100250D01*
X101000Y512750D01*
Y511550D01*
X99950Y510500D02*X101000Y511550D01*
X45000Y508250D02*X45750Y507500D01*
X45000Y512750D02*Y508250D01*
Y512750D02*X45750Y513500D01*
X47250D01*
X48000Y512750D01*
Y508250D01*
X47250Y507500D02*X48000Y508250D01*
X45750Y507500D02*X47250D01*
X45000Y509000D02*X48000Y512000D01*
X49800Y507500D02*X50550D01*
X52350Y512300D02*X53550Y513500D01*
Y507500D01*
X52350D02*X54600D01*
X56400Y508250D02*X57150Y507500D01*
X56400Y512750D02*Y508250D01*
Y512750D02*X57150Y513500D01*
X58650D01*
X59400Y512750D01*
Y508250D01*
X58650Y507500D02*X59400Y508250D01*
X57150Y507500D02*X58650D01*
X56400Y509000D02*X59400Y512000D01*
X61950Y507500D02*X64200Y510500D01*
Y512750D02*Y510500D01*
X63450Y513500D02*X64200Y512750D01*
X61950Y513500D02*X63450D01*
X61200Y512750D02*X61950Y513500D01*
X61200Y512750D02*Y511250D01*
X61950Y510500D01*
X64200D01*
X355100Y85800D02*X357500Y83400D01*
X355100D02*X357500Y85800D01*
X321600Y96300D02*X324000Y93900D01*
X321600D02*X324000Y96300D01*
X301600D02*X304000Y93900D01*
X301600D02*X304000Y96300D01*
X356600Y102800D02*X359000Y100400D01*
X356600D02*X359000Y102800D01*
X346600Y87800D02*X349000Y85400D01*
X346600D02*X349000Y87800D01*
X336100Y94300D02*X338500Y91900D01*
X336100D02*X338500Y94300D01*
X358600Y75800D02*X361000Y73400D01*
X358600D02*X361000Y75800D01*
X335600Y78800D02*X338000Y76400D01*
X335600D02*X338000Y78800D01*
X320856Y105044D02*X323256Y102644D01*
X320856D02*X323256Y105044D01*
X315600Y120800D02*X318000Y118400D01*
X315600D02*X318000Y120800D01*
X301600Y112800D02*X304000Y110400D01*
X301600D02*X304000Y112800D01*
X346100Y117300D02*X348500Y114900D01*
X346100D02*X348500Y117300D01*
X335600Y124300D02*X338000Y121900D01*
X335600D02*X338000Y124300D01*
X370600Y132300D02*X373000Y129900D01*
X370600D02*X373000Y132300D01*
X357100D02*X359500Y129900D01*
X357100D02*X359500Y132300D01*
X384600Y81800D02*X387000Y79400D01*
X384600D02*X387000Y81800D01*
X204700Y371700D02*X207100Y369300D01*
X204700D02*X207100Y371700D01*
X257700Y373700D02*X260100Y371300D01*
X257700D02*X260100Y373700D01*
X240700Y360200D02*X243100Y357800D01*
X240700D02*X243100Y360200D01*
X147700Y127200D02*X150100Y124800D01*
X147700D02*X150100Y127200D01*
X160700Y105700D02*X163100Y103300D01*
X160700D02*X163100Y105700D01*
X146700Y113700D02*X149100Y111300D01*
X146700D02*X149100Y113700D01*
X99200Y201200D02*X101600Y198800D01*
X99200D02*X101600Y201200D01*
X94200Y146200D02*X96600Y143800D01*
X94200D02*X96600Y146200D01*
X102700Y95700D02*X105100Y93300D01*
X102700D02*X105100Y95700D01*
X211200Y126200D02*X213600Y123800D01*
X211200D02*X213600Y126200D01*
X211200Y111200D02*X213600Y108800D01*
X211200D02*X213600Y111200D01*
X208200Y190700D02*X210600Y188300D01*
X208200D02*X210600Y190700D01*
X228200D02*X230600Y188300D01*
X228200D02*X230600Y190700D01*
X140700Y203700D02*X143100Y201300D01*
X140700D02*X143100Y203700D01*
X121725Y255404D02*X124125Y253004D01*
X121725D02*X124125Y255404D01*
X174875D02*X177275Y253004D01*
X174875D02*X177275Y255404D01*
X13800Y527450D02*X16200Y525050D01*
X13800D02*X16200Y527450D01*
X135000Y528500D02*X136500Y525500D01*
X138000Y528500D01*
X136500Y525500D02*Y522500D01*
X139800Y525800D02*X142050D01*
X139800Y522500D02*X142800D01*
X139800Y528500D02*Y522500D01*
Y528500D02*X142800D01*
X147600D02*X148350Y527750D01*
X145350Y528500D02*X147600D01*
X144600Y527750D02*X145350Y528500D01*
X144600Y527750D02*Y526250D01*
X145350Y525500D01*
X147600D01*
X148350Y524750D01*
Y523250D01*
X147600Y522500D02*X148350Y523250D01*
X145350Y522500D02*X147600D01*
X144600Y523250D02*X145350Y522500D01*
X98000Y527750D02*X98750Y528500D01*
X100250D01*
X101000Y527750D01*
X100250Y522500D02*X101000Y523250D01*
X98750Y522500D02*X100250D01*
X98000Y523250D02*X98750Y522500D01*
Y525800D02*X100250D01*
X101000Y527750D02*Y526550D01*
Y525050D02*Y523250D01*
Y525050D02*X100250Y525800D01*
X101000Y526550D02*X100250Y525800D01*
X102800Y527750D02*X103550Y528500D01*
X105800D01*
X106550Y527750D01*
Y526250D01*
X102800Y522500D02*X106550Y526250D01*
X102800Y522500D02*X106550D01*
X45000Y523250D02*X45750Y522500D01*
X45000Y527750D02*Y523250D01*
Y527750D02*X45750Y528500D01*
X47250D01*
X48000Y527750D01*
Y523250D01*
X47250Y522500D02*X48000Y523250D01*
X45750Y522500D02*X47250D01*
X45000Y524000D02*X48000Y527000D01*
X49800Y522500D02*X50550D01*
X52350Y523250D02*X53100Y522500D01*
X52350Y527750D02*Y523250D01*
Y527750D02*X53100Y528500D01*
X54600D01*
X55350Y527750D01*
Y523250D01*
X54600Y522500D02*X55350Y523250D01*
X53100Y522500D02*X54600D01*
X52350Y524000D02*X55350Y527000D01*
X57150Y527750D02*X57900Y528500D01*
X59400D01*
X60150Y527750D01*
X59400Y522500D02*X60150Y523250D01*
X57900Y522500D02*X59400D01*
X57150Y523250D02*X57900Y522500D01*
Y525800D02*X59400D01*
X60150Y527750D02*Y526550D01*
Y525050D02*Y523250D01*
Y525050D02*X59400Y525800D01*
X60150Y526550D02*X59400Y525800D01*
X61950Y528500D02*X64950D01*
X61950D02*Y525500D01*
X62700Y526250D01*
X64200D01*
X64950Y525500D01*
Y523250D01*
X64200Y522500D02*X64950Y523250D01*
X62700Y522500D02*X64200D01*
X61950Y523250D02*X62700Y522500D01*
X64900Y51600D02*Y48400D01*
X63300Y50000D02*X66500D01*
X84900Y51600D02*Y48400D01*
X83300Y50000D02*X86500D01*
X15000Y542850D02*Y539650D01*
X13400Y541250D02*X16600D01*
X135000Y543500D02*X136500Y540500D01*
X138000Y543500D01*
X136500Y540500D02*Y537500D01*
X139800Y540800D02*X142050D01*
X139800Y537500D02*X142800D01*
X139800Y543500D02*Y537500D01*
Y543500D02*X142800D01*
X147600D02*X148350Y542750D01*
X145350Y543500D02*X147600D01*
X144600Y542750D02*X145350Y543500D01*
X144600Y542750D02*Y541250D01*
X145350Y540500D01*
X147600D01*
X148350Y539750D01*
Y538250D01*
X147600Y537500D02*X148350Y538250D01*
X145350Y537500D02*X147600D01*
X144600Y538250D02*X145350Y537500D01*
X98000Y542750D02*X98750Y543500D01*
X101000D01*
X101750Y542750D01*
Y541250D01*
X98000Y537500D02*X101750Y541250D01*
X98000Y537500D02*X101750D01*
X45000Y538250D02*X45750Y537500D01*
X45000Y542750D02*Y538250D01*
Y542750D02*X45750Y543500D01*
X47250D01*
X48000Y542750D01*
Y538250D01*
X47250Y537500D02*X48000Y538250D01*
X45750Y537500D02*X47250D01*
X45000Y539000D02*X48000Y542000D01*
X49800Y537500D02*X50550D01*
X52350Y538250D02*X53100Y537500D01*
X52350Y542750D02*Y538250D01*
Y542750D02*X53100Y543500D01*
X54600D01*
X55350Y542750D01*
Y538250D01*
X54600Y537500D02*X55350Y538250D01*
X53100Y537500D02*X54600D01*
X52350Y539000D02*X55350Y542000D01*
X57150Y542750D02*X57900Y543500D01*
X59400D01*
X60150Y542750D01*
X59400Y537500D02*X60150Y538250D01*
X57900Y537500D02*X59400D01*
X57150Y538250D02*X57900Y537500D01*
Y540800D02*X59400D01*
X60150Y542750D02*Y541550D01*
Y540050D02*Y538250D01*
Y540050D02*X59400Y540800D01*
X60150Y541550D02*X59400Y540800D01*
X61950Y538250D02*X62700Y537500D01*
X61950Y542750D02*Y538250D01*
Y542750D02*X62700Y543500D01*
X64200D01*
X64950Y542750D01*
Y538250D01*
X64200Y537500D02*X64950Y538250D01*
X62700Y537500D02*X64200D01*
X61950Y539000D02*X64950Y542000D01*
X204900Y351000D02*Y349400D01*
Y351000D02*X206287Y351800D01*
X204900Y351000D02*X203513Y351800D01*
X158247Y182653D02*Y181053D01*
Y182653D02*X159634Y183453D01*
X158247Y182653D02*X156860Y183453D01*
X155806Y163906D02*Y162306D01*
Y163906D02*X157193Y164706D01*
X155806Y163906D02*X154419Y164706D01*
X155679Y144221D02*Y142621D01*
Y144221D02*X157066Y145021D01*
X155679Y144221D02*X154292Y145021D01*
X162400Y144000D02*Y142400D01*
Y144000D02*X163787Y144800D01*
X162400Y144000D02*X161013Y144800D01*
X156900Y175500D02*Y173900D01*
Y175500D02*X158287Y176300D01*
X156900Y175500D02*X155513Y176300D01*
X155900Y156000D02*Y154400D01*
Y156000D02*X157287Y156800D01*
X155900Y156000D02*X154513Y156800D01*
X161400Y152500D02*Y150900D01*
Y152500D02*X162787Y153300D01*
X161400Y152500D02*X160013Y153300D01*
X158900Y169500D02*Y167900D01*
Y169500D02*X160287Y170300D01*
X158900Y169500D02*X157513Y170300D01*
X139400Y154500D02*Y152900D01*
Y154500D02*X140787Y155300D01*
X139400Y154500D02*X138013Y155300D01*
X133400Y154500D02*Y152900D01*
Y154500D02*X134787Y155300D01*
X133400Y154500D02*X132013Y155300D01*
X131400Y148500D02*Y146900D01*
Y148500D02*X132787Y149300D01*
X131400Y148500D02*X130013Y149300D01*
X147400Y186000D02*Y184400D01*
Y186000D02*X148787Y186800D01*
X147400Y186000D02*X146013Y186800D01*
X118900Y193500D02*Y191900D01*
Y193500D02*X120287Y194300D01*
X118900Y193500D02*X117513Y194300D01*
X125400Y193500D02*Y191900D01*
Y193500D02*X126787Y194300D01*
X125400Y193500D02*X124013Y194300D01*
X131900Y193500D02*Y191900D01*
Y193500D02*X133287Y194300D01*
X131900Y193500D02*X130513Y194300D01*
X112400Y193500D02*Y191900D01*
Y193500D02*X113787Y194300D01*
X112400Y193500D02*X111013Y194300D01*
X162400Y164000D02*Y162400D01*
Y164000D02*X163787Y164800D01*
X162400Y164000D02*X161013Y164800D01*
X171400Y204000D02*Y202400D01*
Y204000D02*X172787Y204800D01*
X171400Y204000D02*X170013Y204800D01*
X163900Y179000D02*Y177400D01*
Y179000D02*X165287Y179800D01*
X163900Y179000D02*X162513Y179800D01*
X167900Y174500D02*Y172900D01*
Y174500D02*X169287Y175300D01*
X167900Y174500D02*X166513Y175300D01*
X171900Y179000D02*Y177400D01*
Y179000D02*X173287Y179800D01*
X171900Y179000D02*X170513Y179800D01*
X176400Y174500D02*Y172900D01*
Y174500D02*X177787Y175300D01*
X176400Y174500D02*X175013Y175300D01*
X251400Y196000D02*Y194400D01*
Y196000D02*X252787Y196800D01*
X251400Y196000D02*X250013Y196800D01*
X270900Y196000D02*Y194400D01*
Y196000D02*X272287Y196800D01*
X270900Y196000D02*X269513Y196800D01*
X15000Y556250D02*Y554650D01*
Y556250D02*X16387Y557050D01*
X15000Y556250D02*X13613Y557050D01*
X135000Y558500D02*X136500Y555500D01*
X138000Y558500D01*
X136500Y555500D02*Y552500D01*
X139800Y555800D02*X142050D01*
X139800Y552500D02*X142800D01*
X139800Y558500D02*Y552500D01*
Y558500D02*X142800D01*
X147600D02*X148350Y557750D01*
X145350Y558500D02*X147600D01*
X144600Y557750D02*X145350Y558500D01*
X144600Y557750D02*Y556250D01*
X145350Y555500D01*
X147600D01*
X148350Y554750D01*
Y553250D01*
X147600Y552500D02*X148350Y553250D01*
X145350Y552500D02*X147600D01*
X144600Y553250D02*X145350Y552500D01*
X98000Y557750D02*X98750Y558500D01*
X101000D01*
X101750Y557750D01*
Y556250D01*
X98000Y552500D02*X101750Y556250D01*
X98000Y552500D02*X101750D01*
X103550Y558500D02*X106550D01*
X103550D02*Y555500D01*
X104300Y556250D01*
X105800D01*
X106550Y555500D01*
Y553250D01*
X105800Y552500D02*X106550Y553250D01*
X104300Y552500D02*X105800D01*
X103550Y553250D02*X104300Y552500D01*
X45000Y553250D02*X45750Y552500D01*
X45000Y557750D02*Y553250D01*
Y557750D02*X45750Y558500D01*
X47250D01*
X48000Y557750D01*
Y553250D01*
X47250Y552500D02*X48000Y553250D01*
X45750Y552500D02*X47250D01*
X45000Y554000D02*X48000Y557000D01*
X49800Y552500D02*X50550D01*
X52350Y553250D02*X53100Y552500D01*
X52350Y557750D02*Y553250D01*
Y557750D02*X53100Y558500D01*
X54600D01*
X55350Y557750D01*
Y553250D01*
X54600Y552500D02*X55350Y553250D01*
X53100Y552500D02*X54600D01*
X52350Y554000D02*X55350Y557000D01*
X57150Y557750D02*X57900Y558500D01*
X60150D01*
X60900Y557750D01*
Y556250D01*
X57150Y552500D02*X60900Y556250D01*
X57150Y552500D02*X60900D01*
X62700Y553250D02*X63450Y552500D01*
X62700Y557750D02*Y553250D01*
Y557750D02*X63450Y558500D01*
X64950D01*
X65700Y557750D01*
Y553250D01*
X64950Y552500D02*X65700Y553250D01*
X63450Y552500D02*X64950D01*
X62700Y554000D02*X65700Y557000D01*
X3000Y573500D02*X3750Y572750D01*
X750Y573500D02*X3000D01*
X0Y572750D02*X750Y573500D01*
X0Y572750D02*Y571250D01*
X750Y570500D01*
X3000D01*
X3750Y569750D01*
Y568250D01*
X3000Y567500D02*X3750Y568250D01*
X750Y567500D02*X3000D01*
X0Y568250D02*X750Y567500D01*
X5550Y570500D02*Y568250D01*
X6300Y567500D01*
X8550Y570500D02*Y566000D01*
X7800Y565250D02*X8550Y566000D01*
X6300Y565250D02*X7800D01*
X5550Y566000D02*X6300Y565250D01*
Y567500D02*X7800D01*
X8550Y568250D01*
X11100Y569750D02*Y567500D01*
Y569750D02*X11850Y570500D01*
X12600D01*
X13350Y569750D01*
Y567500D01*
Y569750D02*X14100Y570500D01*
X14850D01*
X15600Y569750D01*
Y567500D01*
X10350Y570500D02*X11100Y569750D01*
X17400Y573500D02*Y567500D01*
Y568250D02*X18150Y567500D01*
X19650D01*
X20400Y568250D01*
Y569750D02*Y568250D01*
X19650Y570500D02*X20400Y569750D01*
X18150Y570500D02*X19650D01*
X17400Y569750D02*X18150Y570500D01*
X22200Y569750D02*Y568250D01*
Y569750D02*X22950Y570500D01*
X24450D01*
X25200Y569750D01*
Y568250D01*
X24450Y567500D02*X25200Y568250D01*
X22950Y567500D02*X24450D01*
X22200Y568250D02*X22950Y567500D01*
X27000Y573500D02*Y568250D01*
X27750Y567500D01*
X0Y564250D02*X29250D01*
X41750Y573500D02*Y567500D01*
X43700Y573500D02*X44750Y572450D01*
Y568550D01*
X43700Y567500D02*X44750Y568550D01*
X41000Y567500D02*X43700D01*
X41000Y573500D02*X43700D01*
G54D352*X46550Y572000D02*Y571850D01*
G54D351*Y569750D02*Y567500D01*
X50300Y570500D02*X51050Y569750D01*
X48800Y570500D02*X50300D01*
X48050Y569750D02*X48800Y570500D01*
X48050Y569750D02*Y568250D01*
X48800Y567500D01*
X51050Y570500D02*Y568250D01*
X51800Y567500D01*
X48800D02*X50300D01*
X51050Y568250D01*
X54350Y569750D02*Y567500D01*
Y569750D02*X55100Y570500D01*
X55850D01*
X56600Y569750D01*
Y567500D01*
Y569750D02*X57350Y570500D01*
X58100D01*
X58850Y569750D01*
Y567500D01*
X53600Y570500D02*X54350Y569750D01*
X60650Y567500D02*X61400D01*
X65900Y568250D02*X66650Y567500D01*
X65900Y572750D02*X66650Y573500D01*
X65900Y572750D02*Y568250D01*
X68450Y573500D02*X69950D01*
X69200D02*Y567500D01*
X68450D02*X69950D01*
X72500Y569750D02*Y567500D01*
Y569750D02*X73250Y570500D01*
X74000D01*
X74750Y569750D01*
Y567500D01*
X71750Y570500D02*X72500Y569750D01*
X77300Y570500D02*X79550D01*
X76550Y569750D02*X77300Y570500D01*
X76550Y569750D02*Y568250D01*
X77300Y567500D01*
X79550D01*
X81350Y573500D02*Y567500D01*
Y569750D02*X82100Y570500D01*
X83600D01*
X84350Y569750D01*
Y567500D01*
X86150Y573500D02*X86900Y572750D01*
Y568250D01*
X86150Y567500D02*X86900Y568250D01*
X41000Y564250D02*X88700D01*
X96050Y567500D02*X98000D01*
X95000Y568550D02*X96050Y567500D01*
X95000Y572450D02*Y568550D01*
Y572450D02*X96050Y573500D01*
X98000D01*
X99800Y569750D02*Y568250D01*
Y569750D02*X100550Y570500D01*
X102050D01*
X102800Y569750D01*
Y568250D01*
X102050Y567500D02*X102800Y568250D01*
X100550Y567500D02*X102050D01*
X99800Y568250D02*X100550Y567500D01*
X104600Y570500D02*Y568250D01*
X105350Y567500D01*
X106850D01*
X107600Y568250D01*
Y570500D02*Y568250D01*
X110150Y569750D02*Y567500D01*
Y569750D02*X110900Y570500D01*
X111650D01*
X112400Y569750D01*
Y567500D01*
X109400Y570500D02*X110150Y569750D01*
X114950Y573500D02*Y568250D01*
X115700Y567500D01*
X114200Y571250D02*X115700D01*
X95000Y564250D02*X117200D01*
X130750Y573500D02*Y567500D01*
X130000Y573500D02*X133000D01*
X133750Y572750D01*
Y571250D01*
X133000Y570500D02*X133750Y571250D01*
X130750Y570500D02*X133000D01*
X135550Y573500D02*Y568250D01*
X136300Y567500D01*
X140050Y570500D02*X140800Y569750D01*
X138550Y570500D02*X140050D01*
X137800Y569750D02*X138550Y570500D01*
X137800Y569750D02*Y568250D01*
X138550Y567500D01*
X140800Y570500D02*Y568250D01*
X141550Y567500D01*
X138550D02*X140050D01*
X140800Y568250D01*
X144100Y573500D02*Y568250D01*
X144850Y567500D01*
X143350Y571250D02*X144850D01*
X147100Y567500D02*X149350D01*
X146350Y568250D02*X147100Y567500D01*
X146350Y569750D02*Y568250D01*
Y569750D02*X147100Y570500D01*
X148600D01*
X149350Y569750D01*
X146350Y569000D02*X149350D01*
Y569750D02*Y569000D01*
X154150Y573500D02*Y567500D01*
X153400D02*X154150Y568250D01*
X151900Y567500D02*X153400D01*
X151150Y568250D02*X151900Y567500D01*
X151150Y569750D02*Y568250D01*
Y569750D02*X151900Y570500D01*
X153400D01*
X154150Y569750D01*
X157450Y570500D02*Y569750D01*
Y568250D02*Y567500D01*
X155950Y572750D02*Y572000D01*
Y572750D02*X156700Y573500D01*
X158200D01*
X158950Y572750D01*
Y572000D01*
X157450Y570500D02*X158950Y572000D01*
X130000Y564250D02*X160750D01*
X0Y588500D02*X3000D01*
X1500D02*Y582500D01*
X4800Y588500D02*Y582500D01*
Y584750D02*X5550Y585500D01*
X7050D01*
X7800Y584750D01*
Y582500D01*
X10350D02*X12600D01*
X9600Y583250D02*X10350Y582500D01*
X9600Y584750D02*Y583250D01*
Y584750D02*X10350Y585500D01*
X11850D01*
X12600Y584750D01*
X9600Y584000D02*X12600D01*
Y584750D02*Y584000D01*
X15150Y584750D02*Y582500D01*
Y584750D02*X15900Y585500D01*
X17400D01*
X14400D02*X15150Y584750D01*
X19950Y582500D02*X22200D01*
X19200Y583250D02*X19950Y582500D01*
X19200Y584750D02*Y583250D01*
Y584750D02*X19950Y585500D01*
X21450D01*
X22200Y584750D01*
X19200Y584000D02*X22200D01*
Y584750D02*Y584000D01*
X28950Y585500D02*X29700Y584750D01*
X27450Y585500D02*X28950D01*
X26700Y584750D02*X27450Y585500D01*
X26700Y584750D02*Y583250D01*
X27450Y582500D01*
X29700Y585500D02*Y583250D01*
X30450Y582500D01*
X27450D02*X28950D01*
X29700Y583250D01*
X33000Y584750D02*Y582500D01*
Y584750D02*X33750Y585500D01*
X35250D01*
X32250D02*X33000Y584750D01*
X37800Y582500D02*X40050D01*
X37050Y583250D02*X37800Y582500D01*
X37050Y584750D02*Y583250D01*
Y584750D02*X37800Y585500D01*
X39300D01*
X40050Y584750D01*
X37050Y584000D02*X40050D01*
Y584750D02*Y584000D01*
X44550Y584750D02*X47550Y588500D01*
X44550Y584750D02*X48300D01*
X47550Y588500D02*Y582500D01*
X55800Y588500D02*Y582500D01*
X55050D02*X55800Y583250D01*
X53550Y582500D02*X55050D01*
X52800Y583250D02*X53550Y582500D01*
X52800Y584750D02*Y583250D01*
Y584750D02*X53550Y585500D01*
X55050D01*
X55800Y584750D01*
G54D352*X57600Y587000D02*Y586850D01*
G54D351*Y584750D02*Y582500D01*
X59850Y587750D02*Y582500D01*
Y587750D02*X60600Y588500D01*
X61350D01*
X59100Y585500D02*X60600D01*
X63600Y587750D02*Y582500D01*
Y587750D02*X64350Y588500D01*
X65100D01*
X62850Y585500D02*X64350D01*
X67350Y582500D02*X69600D01*
X66600Y583250D02*X67350Y582500D01*
X66600Y584750D02*Y583250D01*
Y584750D02*X67350Y585500D01*
X68850D01*
X69600Y584750D01*
X66600Y584000D02*X69600D01*
Y584750D02*Y584000D01*
X72150Y584750D02*Y582500D01*
Y584750D02*X72900Y585500D01*
X74400D01*
X71400D02*X72150Y584750D01*
X76950Y582500D02*X79200D01*
X76200Y583250D02*X76950Y582500D01*
X76200Y584750D02*Y583250D01*
Y584750D02*X76950Y585500D01*
X78450D01*
X79200Y584750D01*
X76200Y584000D02*X79200D01*
Y584750D02*Y584000D01*
X81750Y584750D02*Y582500D01*
Y584750D02*X82500Y585500D01*
X83250D01*
X84000Y584750D01*
Y582500D01*
X81000Y585500D02*X81750Y584750D01*
X86550Y588500D02*Y583250D01*
X87300Y582500D01*
X85800Y586250D02*X87300D01*
X94500Y588500D02*Y582500D01*
X93750D02*X94500Y583250D01*
X92250Y582500D02*X93750D01*
X91500Y583250D02*X92250Y582500D01*
X91500Y584750D02*Y583250D01*
Y584750D02*X92250Y585500D01*
X93750D01*
X94500Y584750D01*
X97050D02*Y582500D01*
Y584750D02*X97800Y585500D01*
X99300D01*
X96300D02*X97050Y584750D01*
G54D352*X101100Y587000D02*Y586850D01*
G54D351*Y584750D02*Y582500D01*
X102600Y588500D02*Y583250D01*
X103350Y582500D01*
X104850Y588500D02*Y583250D01*
X105600Y582500D01*
X110550D02*X112800D01*
X113550Y583250D01*
X112800Y584000D02*X113550Y583250D01*
X110550Y584000D02*X112800D01*
X109800Y584750D02*X110550Y584000D01*
X109800Y584750D02*X110550Y585500D01*
X112800D01*
X113550Y584750D01*
X109800Y583250D02*X110550Y582500D01*
G54D352*X115350Y587000D02*Y586850D01*
G54D351*Y584750D02*Y582500D01*
X116850Y585500D02*X119850D01*
X116850Y582500D02*X119850Y585500D01*
X116850Y582500D02*X119850D01*
X122400D02*X124650D01*
X121650Y583250D02*X122400Y582500D01*
X121650Y584750D02*Y583250D01*
Y584750D02*X122400Y585500D01*
X123900D01*
X124650Y584750D01*
X121650Y584000D02*X124650D01*
Y584750D02*Y584000D01*
X127200Y582500D02*X129450D01*
X130200Y583250D01*
X129450Y584000D02*X130200Y583250D01*
X127200Y584000D02*X129450D01*
X126450Y584750D02*X127200Y584000D01*
X126450Y584750D02*X127200Y585500D01*
X129450D01*
X130200Y584750D01*
X126450Y583250D02*X127200Y582500D01*
X134700Y585500D02*Y583250D01*
X135450Y582500D01*
X136950D01*
X137700Y583250D01*
Y585500D02*Y583250D01*
X140250Y582500D02*X142500D01*
X143250Y583250D01*
X142500Y584000D02*X143250Y583250D01*
X140250Y584000D02*X142500D01*
X139500Y584750D02*X140250Y584000D01*
X139500Y584750D02*X140250Y585500D01*
X142500D01*
X143250Y584750D01*
X139500Y583250D02*X140250Y582500D01*
X145800D02*X148050D01*
X145050Y583250D02*X145800Y582500D01*
X145050Y584750D02*Y583250D01*
Y584750D02*X145800Y585500D01*
X147300D01*
X148050Y584750D01*
X145050Y584000D02*X148050D01*
Y584750D02*Y584000D01*
X152850Y588500D02*Y582500D01*
X152100D02*X152850Y583250D01*
X150600Y582500D02*X152100D01*
X149850Y583250D02*X150600Y582500D01*
X149850Y584750D02*Y583250D01*
Y584750D02*X150600Y585500D01*
X152100D01*
X152850Y584750D01*
G54D352*X157350Y587000D02*Y586850D01*
G54D351*Y584750D02*Y582500D01*
X159600Y584750D02*Y582500D01*
Y584750D02*X160350Y585500D01*
X161100D01*
X161850Y584750D01*
Y582500D01*
X158850Y585500D02*X159600Y584750D01*
X167100Y588500D02*Y583250D01*
X167850Y582500D01*
X166350Y586250D02*X167850D01*
X169350Y588500D02*Y582500D01*
Y584750D02*X170100Y585500D01*
X171600D01*
X172350Y584750D01*
Y582500D01*
G54D352*X174150Y587000D02*Y586850D01*
G54D351*Y584750D02*Y582500D01*
X176400D02*X178650D01*
X179400Y583250D01*
X178650Y584000D02*X179400Y583250D01*
X176400Y584000D02*X178650D01*
X175650Y584750D02*X176400Y584000D01*
X175650Y584750D02*X176400Y585500D01*
X178650D01*
X179400Y584750D01*
X175650Y583250D02*X176400Y582500D01*
X183900Y588500D02*Y583250D01*
X184650Y582500D01*
X188400Y585500D02*X189150Y584750D01*
X186900Y585500D02*X188400D01*
X186150Y584750D02*X186900Y585500D01*
X186150Y584750D02*Y583250D01*
X186900Y582500D01*
X189150Y585500D02*Y583250D01*
X189900Y582500D01*
X186900D02*X188400D01*
X189150Y583250D01*
X191700Y585500D02*Y583250D01*
X192450Y582500D01*
X194700Y585500D02*Y581000D01*
X193950Y580250D02*X194700Y581000D01*
X192450Y580250D02*X193950D01*
X191700Y581000D02*X192450Y580250D01*
Y582500D02*X193950D01*
X194700Y583250D01*
X196500Y584750D02*Y583250D01*
Y584750D02*X197250Y585500D01*
X198750D01*
X199500Y584750D01*
Y583250D01*
X198750Y582500D02*X199500Y583250D01*
X197250Y582500D02*X198750D01*
X196500Y583250D02*X197250Y582500D01*
X201300Y585500D02*Y583250D01*
X202050Y582500D01*
X203550D01*
X204300Y583250D01*
Y585500D02*Y583250D01*
X206850Y588500D02*Y583250D01*
X207600Y582500D01*
X206100Y586250D02*X207600D01*
X209100Y581000D02*X210600Y582500D01*
X217350Y588500D02*X218100Y587750D01*
X215850Y588500D02*X217350D01*
X215100Y587750D02*X215850Y588500D01*
X215100Y587750D02*Y583250D01*
X215850Y582500D01*
X217350Y585800D02*X218100Y585050D01*
X215100Y585800D02*X217350D01*
X215850Y582500D02*X217350D01*
X218100Y583250D01*
Y585050D02*Y583250D01*
X220650Y582500D02*X223650Y588500D01*
X219900D02*X223650D01*
X228150D02*Y582500D01*
Y584750D02*X228900Y585500D01*
X230400D01*
X231150Y584750D01*
Y582500D01*
X232950Y584750D02*Y583250D01*
Y584750D02*X233700Y585500D01*
X235200D01*
X235950Y584750D01*
Y583250D01*
X235200Y582500D02*X235950Y583250D01*
X233700Y582500D02*X235200D01*
X232950Y583250D02*X233700Y582500D01*
X237750Y588500D02*Y583250D01*
X238500Y582500D01*
X240750D02*X243000D01*
X240000Y583250D02*X240750Y582500D01*
X240000Y584750D02*Y583250D01*
Y584750D02*X240750Y585500D01*
X242250D01*
X243000Y584750D01*
X240000Y584000D02*X243000D01*
Y584750D02*Y584000D01*
X245550Y582500D02*X247800D01*
X248550Y583250D01*
X247800Y584000D02*X248550Y583250D01*
X245550Y584000D02*X247800D01*
X244800Y584750D02*X245550Y584000D01*
X244800Y584750D02*X245550Y585500D01*
X247800D01*
X248550Y584750D01*
X244800Y583250D02*X245550Y582500D01*
X253800Y588500D02*Y583250D01*
X254550Y582500D01*
X253050Y586250D02*X254550D01*
X256050Y584750D02*Y583250D01*
Y584750D02*X256800Y585500D01*
X258300D01*
X259050Y584750D01*
Y583250D01*
X258300Y582500D02*X259050Y583250D01*
X256800Y582500D02*X258300D01*
X256050Y583250D02*X256800Y582500D01*
X261600Y588500D02*Y583250D01*
X262350Y582500D01*
X260850Y586250D02*X262350D01*
X266100Y585500D02*X266850Y584750D01*
X264600Y585500D02*X266100D01*
X263850Y584750D02*X264600Y585500D01*
X263850Y584750D02*Y583250D01*
X264600Y582500D01*
X266850Y585500D02*Y583250D01*
X267600Y582500D01*
X264600D02*X266100D01*
X266850Y583250D01*
X269400Y588500D02*Y583250D01*
X270150Y582500D01*
G54D353*X15400Y315900D02*Y26300D01*
X418000D02*Y315900D01*
X15400D01*
Y26300D02*X418000D01*
G54D351*X141175Y-9500D02*X144175D01*
X144925Y-8750D01*
Y-6950D02*Y-8750D01*
X144175Y-6200D02*X144925Y-6950D01*
X141925Y-6200D02*X144175D01*
X141925Y-3500D02*Y-9500D01*
X141175Y-3500D02*X144175D01*
X144925Y-4250D01*
Y-5450D01*
X144175Y-6200D02*X144925Y-5450D01*
X146725Y-7250D02*Y-8750D01*
Y-7250D02*X147475Y-6500D01*
X148975D01*
X149725Y-7250D01*
Y-8750D01*
X148975Y-9500D02*X149725Y-8750D01*
X147475Y-9500D02*X148975D01*
X146725Y-8750D02*X147475Y-9500D01*
X153775Y-6500D02*X154525Y-7250D01*
X152275Y-6500D02*X153775D01*
X151525Y-7250D02*X152275Y-6500D01*
X151525Y-7250D02*Y-8750D01*
X152275Y-9500D01*
X154525Y-6500D02*Y-8750D01*
X155275Y-9500D01*
X152275D02*X153775D01*
X154525Y-8750D01*
X157825Y-7250D02*Y-9500D01*
Y-7250D02*X158575Y-6500D01*
X160075D01*
X157075D02*X157825Y-7250D01*
X164875Y-3500D02*Y-9500D01*
X164125D02*X164875Y-8750D01*
X162625Y-9500D02*X164125D01*
X161875Y-8750D02*X162625Y-9500D01*
X161875Y-7250D02*Y-8750D01*
Y-7250D02*X162625Y-6500D01*
X164125D01*
X164875Y-7250D01*
X169375D02*Y-8750D01*
Y-7250D02*X170125Y-6500D01*
X171625D01*
X172375Y-7250D01*
Y-8750D01*
X171625Y-9500D02*X172375Y-8750D01*
X170125Y-9500D02*X171625D01*
X169375Y-8750D02*X170125Y-9500D01*
X174175Y-6500D02*Y-8750D01*
X174925Y-9500D01*
X176425D01*
X177175Y-8750D01*
Y-6500D02*Y-8750D01*
X179725Y-3500D02*Y-8750D01*
X180475Y-9500D01*
X178975Y-5750D02*X180475D01*
X181975Y-3500D02*Y-8750D01*
X182725Y-9500D01*
G54D352*X184225Y-5000D02*Y-5150D01*
G54D351*Y-7250D02*Y-9500D01*
X186475Y-7250D02*Y-9500D01*
Y-7250D02*X187225Y-6500D01*
X187975D01*
X188725Y-7250D01*
Y-9500D01*
X185725Y-6500D02*X186475Y-7250D01*
X191275Y-9500D02*X193525D01*
X190525Y-8750D02*X191275Y-9500D01*
X190525Y-7250D02*Y-8750D01*
Y-7250D02*X191275Y-6500D01*
X192775D01*
X193525Y-7250D01*
X190525Y-8000D02*X193525D01*
Y-7250D02*Y-8000D01*
G54D352*X198025Y-5000D02*Y-5150D01*
G54D351*Y-7250D02*Y-9500D01*
X200275D02*X202525D01*
X203275Y-8750D01*
X202525Y-8000D02*X203275Y-8750D01*
X200275Y-8000D02*X202525D01*
X199525Y-7250D02*X200275Y-8000D01*
X199525Y-7250D02*X200275Y-6500D01*
X202525D01*
X203275Y-7250D01*
X199525Y-8750D02*X200275Y-9500D01*
X208525Y-3500D02*Y-8750D01*
X209275Y-9500D01*
X207775Y-5750D02*X209275D01*
X210775Y-3500D02*Y-9500D01*
Y-7250D02*X211525Y-6500D01*
X213025D01*
X213775Y-7250D01*
Y-9500D01*
X216325D02*X218575D01*
X215575Y-8750D02*X216325Y-9500D01*
X215575Y-7250D02*Y-8750D01*
Y-7250D02*X216325Y-6500D01*
X217825D01*
X218575Y-7250D01*
X215575Y-8000D02*X218575D01*
Y-7250D02*Y-8000D01*
X223825Y-6500D02*X226075D01*
X223075Y-7250D02*X223825Y-6500D01*
X223075Y-7250D02*Y-8750D01*
X223825Y-9500D01*
X226075D01*
X228625D02*X230875D01*
X227875Y-8750D02*X228625Y-9500D01*
X227875Y-7250D02*Y-8750D01*
Y-7250D02*X228625Y-6500D01*
X230125D01*
X230875Y-7250D01*
X227875Y-8000D02*X230875D01*
Y-7250D02*Y-8000D01*
X233425Y-7250D02*Y-9500D01*
Y-7250D02*X234175Y-6500D01*
X234925D01*
X235675Y-7250D01*
Y-9500D01*
X232675Y-6500D02*X233425Y-7250D01*
X238225Y-3500D02*Y-8750D01*
X238975Y-9500D01*
X237475Y-5750D02*X238975D01*
X241225Y-9500D02*X243475D01*
X240475Y-8750D02*X241225Y-9500D01*
X240475Y-7250D02*Y-8750D01*
Y-7250D02*X241225Y-6500D01*
X242725D01*
X243475Y-7250D01*
X240475Y-8000D02*X243475D01*
Y-7250D02*Y-8000D01*
X246025Y-7250D02*Y-9500D01*
Y-7250D02*X246775Y-6500D01*
X248275D01*
X245275D02*X246025Y-7250D01*
X250075Y-3500D02*Y-8750D01*
X250825Y-9500D01*
G54D352*X252325Y-5000D02*Y-5150D01*
G54D351*Y-7250D02*Y-9500D01*
X254575Y-7250D02*Y-9500D01*
Y-7250D02*X255325Y-6500D01*
X256075D01*
X256825Y-7250D01*
Y-9500D01*
X253825Y-6500D02*X254575Y-7250D01*
X259375Y-9500D02*X261625D01*
X258625Y-8750D02*X259375Y-9500D01*
X258625Y-7250D02*Y-8750D01*
Y-7250D02*X259375Y-6500D01*
X260875D01*
X261625Y-7250D01*
X258625Y-8000D02*X261625D01*
Y-7250D02*Y-8000D01*
X266125Y-7250D02*Y-8750D01*
Y-7250D02*X266875Y-6500D01*
X268375D01*
X269125Y-7250D01*
Y-8750D01*
X268375Y-9500D02*X269125Y-8750D01*
X266875Y-9500D02*X268375D01*
X266125Y-8750D02*X266875Y-9500D01*
X271675Y-4250D02*Y-9500D01*
Y-4250D02*X272425Y-3500D01*
X273175D01*
X270925Y-6500D02*X272425D01*
X278125Y-3500D02*Y-8750D01*
X278875Y-9500D01*
X277375Y-5750D02*X278875D01*
X280375Y-3500D02*Y-9500D01*
Y-7250D02*X281125Y-6500D01*
X282625D01*
X283375Y-7250D01*
Y-9500D01*
G54D352*X285175Y-5000D02*Y-5150D01*
G54D351*Y-7250D02*Y-9500D01*
X287425D02*X289675D01*
X290425Y-8750D01*
X289675Y-8000D02*X290425Y-8750D01*
X287425Y-8000D02*X289675D01*
X286675Y-7250D02*X287425Y-8000D01*
X286675Y-7250D02*X287425Y-6500D01*
X289675D01*
X290425Y-7250D01*
X286675Y-8750D02*X287425Y-9500D01*
X295675Y-7250D02*Y-11750D01*
X294925Y-6500D02*X295675Y-7250D01*
X296425Y-6500D01*
X297925D01*
X298675Y-7250D01*
Y-8750D01*
X297925Y-9500D02*X298675Y-8750D01*
X296425Y-9500D02*X297925D01*
X295675Y-8750D02*X296425Y-9500D01*
X302725Y-6500D02*X303475Y-7250D01*
X301225Y-6500D02*X302725D01*
X300475Y-7250D02*X301225Y-6500D01*
X300475Y-7250D02*Y-8750D01*
X301225Y-9500D01*
X303475Y-6500D02*Y-8750D01*
X304225Y-9500D01*
X301225D02*X302725D01*
X303475Y-8750D01*
X306775Y-3500D02*Y-8750D01*
X307525Y-9500D01*
X306025Y-5750D02*X307525D01*
X309025Y-3500D02*Y-9500D01*
Y-7250D02*X309775Y-6500D01*
X311275D01*
X312025Y-7250D01*
Y-9500D01*
X200750Y528500D02*Y522500D01*
X202700Y528500D02*X203750Y527450D01*
Y523550D01*
X202700Y522500D02*X203750Y523550D01*
X200000Y522500D02*X202700D01*
X200000Y528500D02*X202700D01*
X207800Y525500D02*X208550Y524750D01*
X206300Y525500D02*X207800D01*
X205550Y524750D02*X206300Y525500D01*
X205550Y524750D02*Y523250D01*
X206300Y522500D01*
X208550Y525500D02*Y523250D01*
X209300Y522500D01*
X206300D02*X207800D01*
X208550Y523250D01*
X211850Y528500D02*Y523250D01*
X212600Y522500D01*
X211100Y526250D02*X212600D01*
X214850Y522500D02*X217100D01*
X214100Y523250D02*X214850Y522500D01*
X214100Y524750D02*Y523250D01*
Y524750D02*X214850Y525500D01*
X216350D01*
X217100Y524750D01*
X214100Y524000D02*X217100D01*
Y524750D02*Y524000D01*
X218900Y526250D02*X219650D01*
X218900Y524750D02*X219650D01*
X224150Y528500D02*Y522500D01*
Y528500D02*X226400Y525500D01*
X228650Y528500D01*
Y522500D01*
X230450Y524750D02*Y523250D01*
Y524750D02*X231200Y525500D01*
X232700D01*
X233450Y524750D01*
Y523250D01*
X232700Y522500D02*X233450Y523250D01*
X231200Y522500D02*X232700D01*
X230450Y523250D02*X231200Y522500D01*
X236000Y524750D02*Y522500D01*
Y524750D02*X236750Y525500D01*
X237500D01*
X238250Y524750D01*
Y522500D01*
X235250Y525500D02*X236000Y524750D01*
X242750Y528500D02*Y522500D01*
Y528500D02*X246500Y522500D01*
Y528500D02*Y522500D01*
X248300Y524750D02*Y523250D01*
Y524750D02*X249050Y525500D01*
X250550D01*
X251300Y524750D01*
Y523250D01*
X250550Y522500D02*X251300Y523250D01*
X249050Y522500D02*X250550D01*
X248300Y523250D02*X249050Y522500D01*
X253100Y525500D02*X254600Y522500D01*
X256100Y525500D02*X254600Y522500D01*
X260600Y527300D02*X261800Y528500D01*
Y522500D01*
X260600D02*X262850D01*
X264650Y527300D02*X265850Y528500D01*
Y522500D01*
X264650D02*X266900D01*
X271400Y527750D02*X272150Y528500D01*
X274400D01*
X275150Y527750D01*
Y526250D01*
X271400Y522500D02*X275150Y526250D01*
X271400Y522500D02*X275150D01*
X276950Y527750D02*X277700Y528500D01*
X279200D01*
X279950Y527750D01*
X279200Y522500D02*X279950Y523250D01*
X277700Y522500D02*X279200D01*
X276950Y523250D02*X277700Y522500D01*
Y525800D02*X279200D01*
X279950Y527750D02*Y526550D01*
Y525050D02*Y523250D01*
Y525050D02*X279200Y525800D01*
X279950Y526550D02*X279200Y525800D01*
X281750Y526250D02*X282500D01*
X281750Y524750D02*X282500D01*
X284300Y527750D02*X285050Y528500D01*
X286550D01*
X287300Y527750D01*
X286550Y522500D02*X287300Y523250D01*
X285050Y522500D02*X286550D01*
X284300Y523250D02*X285050Y522500D01*
Y525800D02*X286550D01*
X287300Y527750D02*Y526550D01*
Y525050D02*Y523250D01*
Y525050D02*X286550Y525800D01*
X287300Y526550D02*X286550Y525800D01*
X289100Y527750D02*X289850Y528500D01*
X292100D01*
X292850Y527750D01*
Y526250D01*
X289100Y522500D02*X292850Y526250D01*
X289100Y522500D02*X292850D01*
X294650Y526250D02*X295400D01*
X294650Y524750D02*X295400D01*
X297200D02*X300200Y528500D01*
X297200Y524750D02*X300950D01*
X300200Y528500D02*Y522500D01*
X305000Y528500D02*X305750Y527750D01*
X303500Y528500D02*X305000D01*
X302750Y527750D02*X303500Y528500D01*
X302750Y527750D02*Y523250D01*
X303500Y522500D01*
X305000Y525800D02*X305750Y525050D01*
X302750Y525800D02*X305000D01*
X303500Y522500D02*X305000D01*
X305750Y523250D01*
Y525050D02*Y523250D01*
X310250Y527750D02*X311000Y528500D01*
X313250D01*
X314000Y527750D01*
Y526250D01*
X310250Y522500D02*X314000Y526250D01*
X310250Y522500D02*X314000D01*
X315800Y523250D02*X316550Y522500D01*
X315800Y527750D02*Y523250D01*
Y527750D02*X316550Y528500D01*
X318050D01*
X318800Y527750D01*
Y523250D01*
X318050Y522500D02*X318800Y523250D01*
X316550Y522500D02*X318050D01*
X315800Y524000D02*X318800Y527000D01*
X320600Y527300D02*X321800Y528500D01*
Y522500D01*
X320600D02*X322850D01*
X324650Y527750D02*X325400Y528500D01*
X326900D01*
X327650Y527750D01*
X326900Y522500D02*X327650Y523250D01*
X325400Y522500D02*X326900D01*
X324650Y523250D02*X325400Y522500D01*
Y525800D02*X326900D01*
X327650Y527750D02*Y526550D01*
Y525050D02*Y523250D01*
Y525050D02*X326900Y525800D01*
X327650Y526550D02*X326900Y525800D01*
X332150Y528500D02*Y523250D01*
X332900Y522500D01*
X334400D01*
X335150Y523250D01*
Y528500D02*Y523250D01*
X336950Y528500D02*X339950D01*
X338450D02*Y522500D01*
X342800D02*X344750D01*
X341750Y523550D02*X342800Y522500D01*
X341750Y527450D02*Y523550D01*
Y527450D02*X342800Y528500D01*
X344750D01*
X200000Y542000D02*Y537500D01*
Y542000D02*X201050Y543500D01*
X202700D01*
X203750Y542000D01*
Y537500D01*
X200000Y540500D02*X203750D01*
X205550D02*Y538250D01*
X206300Y537500D01*
X207800D01*
X208550Y538250D01*
Y540500D02*Y538250D01*
X211100Y543500D02*Y538250D01*
X211850Y537500D01*
X210350Y541250D02*X211850D01*
X213350Y543500D02*Y537500D01*
Y539750D02*X214100Y540500D01*
X215600D01*
X216350Y539750D01*
Y537500D01*
X218150Y539750D02*Y538250D01*
Y539750D02*X218900Y540500D01*
X220400D01*
X221150Y539750D01*
Y538250D01*
X220400Y537500D02*X221150Y538250D01*
X218900Y537500D02*X220400D01*
X218150Y538250D02*X218900Y537500D01*
X223700Y539750D02*Y537500D01*
Y539750D02*X224450Y540500D01*
X225950D01*
X222950D02*X223700Y539750D01*
X227750Y541250D02*X228500D01*
X227750Y539750D02*X228500D01*
X200000Y558500D02*X203000D01*
X201500D02*Y552500D01*
G54D352*X204800Y557000D02*Y556850D01*
G54D351*Y554750D02*Y552500D01*
X207050Y558500D02*Y553250D01*
X207800Y552500D01*
X206300Y556250D02*X207800D01*
X209300Y558500D02*Y553250D01*
X210050Y552500D01*
X212300D02*X214550D01*
X211550Y553250D02*X212300Y552500D01*
X211550Y554750D02*Y553250D01*
Y554750D02*X212300Y555500D01*
X213800D01*
X214550Y554750D01*
X211550Y554000D02*X214550D01*
Y554750D02*Y554000D01*
X216350Y556250D02*X217100D01*
X216350Y554750D02*X217100D01*
X221600Y553250D02*X222350Y552500D01*
X221600Y557750D02*X222350Y558500D01*
X221600Y557750D02*Y553250D01*
X224150Y555500D02*Y553250D01*
X224900Y552500D01*
X226400D01*
X227150Y553250D01*
Y555500D02*Y553250D01*
X229700Y554750D02*Y552500D01*
Y554750D02*X230450Y555500D01*
X231200D01*
X231950Y554750D01*
Y552500D01*
X228950Y555500D02*X229700Y554750D01*
X233750Y558500D02*Y552500D01*
Y554750D02*X236000Y552500D01*
X233750Y554750D02*X235250Y556250D01*
X238550Y554750D02*Y552500D01*
Y554750D02*X239300Y555500D01*
X240050D01*
X240800Y554750D01*
Y552500D01*
X237800Y555500D02*X238550Y554750D01*
X242600D02*Y553250D01*
Y554750D02*X243350Y555500D01*
X244850D01*
X245600Y554750D01*
Y553250D01*
X244850Y552500D02*X245600Y553250D01*
X243350Y552500D02*X244850D01*
X242600Y553250D02*X243350Y552500D01*
X247400Y555500D02*Y553250D01*
X248150Y552500D01*
X248900D01*
X249650Y553250D01*
Y555500D02*Y553250D01*
X250400Y552500D01*
X251150D01*
X251900Y553250D01*
Y555500D02*Y553250D01*
X254450Y554750D02*Y552500D01*
Y554750D02*X255200Y555500D01*
X255950D01*
X256700Y554750D01*
Y552500D01*
X253700Y555500D02*X254450Y554750D01*
X258500Y558500D02*X259250Y557750D01*
Y553250D01*
X258500Y552500D02*X259250Y553250D01*
X263750Y555500D02*X266750D01*
X271250Y558500D02*Y552500D01*
Y558500D02*X274250D01*
X271250Y555800D02*X273500D01*
X278300Y555500D02*X279050Y554750D01*
X276800Y555500D02*X278300D01*
X276050Y554750D02*X276800Y555500D01*
X276050Y554750D02*Y553250D01*
X276800Y552500D01*
X279050Y555500D02*Y553250D01*
X279800Y552500D01*
X276800D02*X278300D01*
X279050Y553250D01*
X281600Y558500D02*Y552500D01*
Y553250D02*X282350Y552500D01*
X283850D01*
X284600Y553250D01*
Y554750D02*Y553250D01*
X283850Y555500D02*X284600Y554750D01*
X282350Y555500D02*X283850D01*
X281600Y554750D02*X282350Y555500D01*
X287150Y554750D02*Y552500D01*
Y554750D02*X287900Y555500D01*
X289400D01*
X286400D02*X287150Y554750D01*
G54D352*X291200Y557000D02*Y556850D01*
G54D351*Y554750D02*Y552500D01*
X293450Y555500D02*X295700D01*
X292700Y554750D02*X293450Y555500D01*
X292700Y554750D02*Y553250D01*
X293450Y552500D01*
X295700D01*
X299750Y555500D02*X300500Y554750D01*
X298250Y555500D02*X299750D01*
X297500Y554750D02*X298250Y555500D01*
X297500Y554750D02*Y553250D01*
X298250Y552500D01*
X300500Y555500D02*Y553250D01*
X301250Y552500D01*
X298250D02*X299750D01*
X300500Y553250D01*
X303800Y558500D02*Y553250D01*
X304550Y552500D01*
X303050Y556250D02*X304550D01*
G54D352*X306050Y557000D02*Y556850D01*
G54D351*Y554750D02*Y552500D01*
X307550Y554750D02*Y553250D01*
Y554750D02*X308300Y555500D01*
X309800D01*
X310550Y554750D01*
Y553250D01*
X309800Y552500D02*X310550Y553250D01*
X308300Y552500D02*X309800D01*
X307550Y553250D02*X308300Y552500D01*
X313100Y554750D02*Y552500D01*
Y554750D02*X313850Y555500D01*
X314600D01*
X315350Y554750D01*
Y552500D01*
X312350Y555500D02*X313100Y554750D01*
X320600Y558500D02*Y552500D01*
X322550Y558500D02*X323600Y557450D01*
Y553550D01*
X322550Y552500D02*X323600Y553550D01*
X319850Y552500D02*X322550D01*
X319850Y558500D02*X322550D01*
X326150Y554750D02*Y552500D01*
Y554750D02*X326900Y555500D01*
X328400D01*
X325400D02*X326150Y554750D01*
X332450Y555500D02*X333200Y554750D01*
X330950Y555500D02*X332450D01*
X330200Y554750D02*X330950Y555500D01*
X330200Y554750D02*Y553250D01*
X330950Y552500D01*
X333200Y555500D02*Y553250D01*
X333950Y552500D01*
X330950D02*X332450D01*
X333200Y553250D01*
X335750Y555500D02*Y553250D01*
X336500Y552500D01*
X337250D01*
X338000Y553250D01*
Y555500D02*Y553250D01*
X338750Y552500D01*
X339500D01*
X340250Y553250D01*
Y555500D02*Y553250D01*
G54D352*X342050Y557000D02*Y556850D01*
G54D351*Y554750D02*Y552500D01*
X344300Y554750D02*Y552500D01*
Y554750D02*X345050Y555500D01*
X345800D01*
X346550Y554750D01*
Y552500D01*
X343550Y555500D02*X344300Y554750D01*
X350600Y555500D02*X351350Y554750D01*
X349100Y555500D02*X350600D01*
X348350Y554750D02*X349100Y555500D01*
X348350Y554750D02*Y553250D01*
X349100Y552500D01*
X350600D01*
X351350Y553250D01*
X348350Y551000D02*X349100Y550250D01*
X350600D01*
X351350Y551000D01*
Y555500D02*Y551000D01*
M02*
