G04 start of page 8 for group -4063 idx -4063 *
G04 Title: (unknown), componentmask *
G04 Creator: pcb 20110918 *
G04 CreationDate: Tue Dec 17 23:37:43 2013 UTC *
G04 For: fosse *
G04 Format: Gerber/RS-274X *
G04 PCB-Dimensions: 550000 350000 *
G04 PCB-Coordinate-Origin: lower left *
%MOIN*%
%FSLAX25Y25*%
%LNTOPMASK*%
%ADD165R,0.0907X0.0907*%
%ADD164R,0.0494X0.0494*%
%ADD163R,0.0730X0.0730*%
%ADD162R,0.1280X0.1280*%
%ADD161R,0.0620X0.0620*%
%ADD160R,0.0848X0.0848*%
%ADD159R,0.0927X0.0927*%
%ADD158R,0.0472X0.0472*%
%ADD157R,0.0473X0.0473*%
%ADD156R,0.0336X0.0336*%
%ADD155R,0.0257X0.0257*%
%ADD154R,0.0258X0.0258*%
%ADD153C,0.0220*%
%ADD152R,0.0220X0.0220*%
%ADD151R,0.0355X0.0355*%
%ADD150R,0.0691X0.0691*%
%ADD149R,0.0691X0.0691*%
%ADD148R,0.0140X0.0140*%
%ADD147R,0.0405X0.0405*%
%ADD146R,0.0612X0.0612*%
%ADD145R,0.0572X0.0572*%
%ADD144R,0.0400X0.0400*%
%ADD143C,0.0651*%
%ADD142C,0.2560*%
%ADD141C,0.1062*%
%ADD140C,0.0554*%
%ADD139C,0.1360*%
%ADD138C,0.0604*%
%ADD137C,0.2760*%
G54D137*X186500Y207000D03*
G54D138*X213076Y242206D03*
G54D137*X239910Y106240D03*
G54D139*X327110Y52090D03*
X353110D03*
G54D140*X266485Y66444D03*
X213335D03*
G54D138*X159926Y242206D03*
G54D141*X379000Y52500D03*
G54D142*X419610Y38340D03*
G54D143*X430327Y100244D03*
X412610D03*
G54D142*X59610Y288340D03*
Y38340D03*
X419610Y288340D03*
G54D144*X85310Y203240D02*X85610D01*
X92410Y203540D02*Y202940D01*
Y211740D02*Y211140D01*
X85010Y211740D02*Y211140D01*
X51760Y236740D02*X52060D01*
X51460Y245240D02*Y244640D01*
X58860Y237040D02*Y236440D01*
Y245240D02*Y244640D01*
X61760Y257740D02*X62060D01*
X68860Y258040D02*Y257440D01*
X51760Y217240D02*X52060D01*
X58860Y217540D02*Y216940D01*
Y225740D02*Y225140D01*
X51460Y225740D02*Y225140D01*
X51760Y195240D02*X52060D01*
X58860Y195540D02*Y194940D01*
Y203740D02*Y203140D01*
X81310Y257540D02*X81610D01*
X88410Y257840D02*Y257240D01*
Y266040D02*Y265440D01*
X81010Y266040D02*Y265440D01*
G54D145*X83324Y277133D02*Y276347D01*
X90410Y277133D02*Y276347D01*
G54D144*X68860Y266240D02*Y265640D01*
X61460Y266240D02*Y265640D01*
X92410Y183340D02*Y182740D01*
G54D145*X124017Y170783D02*X124803D01*
X124017Y163697D02*X124803D01*
X109367Y165633D02*Y164847D01*
X116453Y165633D02*Y164847D01*
G54D144*X92410Y191540D02*Y190940D01*
X51460Y203740D02*Y203140D01*
G54D146*X50929Y132413D02*X53291D01*
X50929Y154067D02*X53291D01*
G54D147*X50418Y169799D02*X51402D01*
X50418Y164681D02*X51402D01*
G54D146*X63528Y132413D02*X65890D01*
X63528Y154067D02*X65890D01*
G54D148*X155658Y159248D02*Y154350D01*
X153690Y159248D02*Y154350D01*
X151721Y159248D02*Y154350D01*
X149753Y159248D02*Y154350D01*
X147784Y159248D02*Y154350D01*
X145816Y159248D02*Y154350D01*
X143847Y159248D02*Y154350D01*
X141879Y159248D02*Y154350D01*
X139910Y159248D02*Y154350D01*
X137942Y159248D02*Y154350D01*
X135973Y159248D02*Y154350D01*
X134005Y159248D02*Y154350D01*
X132036Y159248D02*Y154350D01*
X130068Y159248D02*Y154350D01*
X128099Y159248D02*Y154350D01*
X126131Y159248D02*Y154350D01*
X124162Y159248D02*Y154350D01*
X122194Y159248D02*Y154350D01*
X120225Y159248D02*Y154350D01*
X118257Y159248D02*Y154350D01*
X116288Y159248D02*Y154350D01*
G54D144*X85310Y183040D02*X85610D01*
G54D145*X85543Y167393D02*Y166607D01*
G54D144*X85010Y191540D02*Y190940D01*
G54D145*X52324Y181133D02*Y180347D01*
G54D147*X66918Y168799D02*X67902D01*
X66918Y163681D02*X67902D01*
G54D145*X78457Y167393D02*Y166607D01*
X59410Y181133D02*Y180347D01*
X114319Y47405D02*X116681D01*
X114319Y35595D02*X116681D01*
X106543Y36393D02*Y35607D01*
X133405Y57681D02*Y55319D01*
G54D144*X83260Y50028D02*X83560D01*
G54D145*X79367Y74133D02*Y73347D01*
X86453Y74133D02*Y73347D01*
G54D144*X90360Y50328D02*Y49728D01*
Y58528D02*Y57928D01*
X82960Y58528D02*Y57928D01*
G54D149*X53988Y93240D02*X63831D01*
G54D147*X50918Y65799D02*X51902D01*
X50918Y60681D02*X51902D01*
G54D150*X63831Y81626D02*Y67846D01*
G54D148*X104902Y102587D02*X109800D01*
X104902Y100618D02*X109800D01*
G54D145*X76319Y98905D02*X78681D01*
X76319Y87095D02*X78681D01*
X89005Y93421D02*Y91059D01*
X100815Y93421D02*Y91059D01*
G54D148*X116288Y94130D02*Y89232D01*
X118256Y94130D02*Y89232D01*
X120225Y94130D02*Y89232D01*
X122193Y94130D02*Y89232D01*
X124162Y94130D02*Y89232D01*
X126130Y94130D02*Y89232D01*
X128099Y94130D02*Y89232D01*
X130067Y94130D02*Y89232D01*
X132036Y94130D02*Y89232D01*
X134004Y94130D02*Y89232D01*
X135973Y94130D02*Y89232D01*
X137941Y94130D02*Y89232D01*
X139910Y94130D02*Y89232D01*
X141878Y94130D02*Y89232D01*
X143847Y94130D02*Y89232D01*
X145815Y94130D02*Y89232D01*
X147784Y94130D02*Y89232D01*
X149752Y94130D02*Y89232D01*
X151721Y94130D02*Y89232D01*
X153689Y94130D02*Y89232D01*
X155658Y94130D02*Y89232D01*
G54D145*X121595Y57681D02*Y55319D01*
X103095Y61181D02*Y58819D01*
X114905Y61181D02*Y58819D01*
X114910Y79633D02*Y78847D01*
X92914Y74393D02*Y73607D01*
X100000Y74393D02*Y73607D01*
X121996Y79633D02*Y78847D01*
X80595Y37181D02*Y34819D01*
X92405Y37181D02*Y34819D01*
X99457Y36393D02*Y35607D01*
X77367Y122133D02*Y121347D01*
X84453Y122133D02*Y121347D01*
X77367Y110133D02*Y109347D01*
X84453Y110133D02*Y109347D01*
G54D151*X90851Y109291D02*Y108307D01*
X95969Y109291D02*Y108307D01*
G54D147*X51851Y119232D02*Y118248D01*
X56969Y119232D02*Y118248D01*
G54D150*X63831Y118633D02*Y104853D01*
G54D145*X83367Y141633D02*Y140847D01*
X90453Y141633D02*Y140847D01*
X83367Y153633D02*Y152847D01*
X90453Y153633D02*Y152847D01*
G54D151*X89851Y130232D02*Y129248D01*
G54D148*X104902Y147862D02*X109800D01*
X104902Y145894D02*X109800D01*
X104902Y143925D02*X109800D01*
X104902Y141957D02*X109800D01*
X104902Y139988D02*X109800D01*
X104902Y138020D02*X109800D01*
X104902Y136051D02*X109800D01*
X104902Y134083D02*X109800D01*
G54D151*X94969Y130232D02*Y129248D01*
G54D148*X104902Y132114D02*X109800D01*
X104902Y130146D02*X109800D01*
X104902Y128177D02*X109800D01*
X104902Y126209D02*X109800D01*
X104902Y124240D02*X109800D01*
X104902Y122272D02*X109800D01*
X104902Y120303D02*X109800D01*
X104902Y118335D02*X109800D01*
X104902Y116366D02*X109800D01*
X104902Y114398D02*X109800D01*
X104902Y112429D02*X109800D01*
X104902Y110461D02*X109800D01*
X104902Y108492D02*X109800D01*
X104902Y106524D02*X109800D01*
X104902Y104555D02*X109800D01*
G54D145*X360457Y33393D02*Y32607D01*
X367543Y33393D02*Y32607D01*
X336457Y33393D02*Y32607D01*
X343543Y33393D02*Y32607D01*
X344319Y96905D02*X346681D01*
X314500Y102181D02*Y99819D01*
X326310Y102181D02*Y99819D01*
X346957Y105893D02*Y105107D01*
X354043Y105893D02*Y105107D01*
X344319Y85095D02*X346681D01*
X319095Y88181D02*Y85819D01*
X330905Y88181D02*Y85819D01*
G54D152*X311800Y133900D02*X314000D01*
G54D151*X313000Y123492D02*Y122508D01*
X318118Y123492D02*Y122508D01*
X328882Y123492D02*Y122508D01*
G54D152*X333000Y133800D02*X335200D01*
X333000Y136400D02*X335200D01*
X333000Y138900D02*X335200D01*
X333000Y141500D02*X335200D01*
X333000Y144100D02*X335200D01*
X333000Y146600D02*X335200D01*
X333000Y149200D02*X335200D01*
X333000Y151700D02*X335200D01*
G54D145*X342500Y154393D02*Y153607D01*
X349586Y154393D02*Y153607D01*
X342457Y131893D02*Y131107D01*
X349543Y131893D02*Y131107D01*
X342595Y119681D02*Y117319D01*
X354405Y119681D02*Y117319D01*
G54D151*X334000Y123492D02*Y122508D01*
X313000Y113492D02*Y112508D01*
X318118Y113492D02*Y112508D01*
X328882Y113492D02*Y112508D01*
X334000Y113492D02*Y112508D01*
G54D145*X241000Y180893D02*Y180107D01*
X248086Y180893D02*Y180107D01*
X240957Y193893D02*Y193107D01*
X248043Y193893D02*Y193107D01*
X268914Y206893D02*Y206107D01*
X276000Y206893D02*Y206107D01*
X266500Y142181D02*Y139819D01*
X278310Y142181D02*Y139819D01*
X291457Y101393D02*Y100607D01*
X298543Y101393D02*Y100607D01*
X293457Y129393D02*Y128607D01*
X300543Y129393D02*Y128607D01*
X291095Y116181D02*Y113819D01*
X302905Y116181D02*Y113819D01*
G54D153*X311800Y151800D02*X314000D01*
G54D152*X311800Y149200D02*X314000D01*
X311800Y146700D02*X314000D01*
G54D145*X293457Y150393D02*Y149607D01*
X300543Y150393D02*Y149607D01*
G54D152*X311800Y144100D02*X314000D01*
X311800Y141500D02*X314000D01*
X311800Y139000D02*X314000D01*
X311800Y136400D02*X314000D01*
G54D145*X229500Y167181D02*Y164819D01*
X266690Y159681D02*Y157319D01*
X278500Y159681D02*Y157319D01*
X300595Y163681D02*Y161319D01*
X312405Y163681D02*Y161319D01*
X327000Y164893D02*Y164107D01*
X334086Y164893D02*Y164107D01*
X342595Y168681D02*Y166319D01*
X354405Y168681D02*Y166319D01*
G54D144*X286590Y183590D02*X286890D01*
X293690Y183890D02*Y183290D01*
Y192090D02*Y191490D01*
X286290Y192090D02*Y191490D01*
G54D145*X211043Y83393D02*Y82607D01*
X269243Y75493D02*Y74707D01*
X262157Y75493D02*Y74707D01*
X291095Y88181D02*Y85819D01*
X302905Y88181D02*Y85819D01*
G54D154*X255945Y34608D02*Y29884D01*
X252008Y34608D02*Y29884D01*
X248071Y34608D02*Y29884D01*
G54D155*X257913Y44058D02*Y39333D01*
X253976Y44058D02*Y39333D01*
X250039Y44058D02*Y39333D01*
G54D154*X244134Y34608D02*Y29884D01*
X240197Y34608D02*Y29884D01*
X236260Y34608D02*Y29884D01*
G54D155*X246102Y44058D02*Y39333D01*
X242165Y44058D02*Y39333D01*
G54D154*X238228Y44057D02*Y39333D01*
G54D156*X261850Y34215D02*Y30278D01*
Y43664D02*Y39727D01*
G54D154*X232323Y34608D02*Y29884D01*
X228386Y34608D02*Y29884D01*
X224449Y34608D02*Y29884D01*
X220512Y34608D02*Y29884D01*
X234291Y44057D02*Y39333D01*
X230354Y44057D02*Y39333D01*
X226417Y44057D02*Y39333D01*
X222480Y44057D02*Y39333D01*
G54D156*X216574Y34215D02*Y30278D01*
Y43664D02*Y39727D01*
G54D145*X180457Y36893D02*Y36107D01*
X187543Y36893D02*Y36107D01*
X196457Y36893D02*Y36107D01*
X203543Y36893D02*Y36107D01*
G54D144*X160800Y29800D02*X161100D01*
X167900Y30100D02*Y29500D01*
Y38300D02*Y37700D01*
X160500Y38300D02*Y37700D01*
X160800Y49300D02*X161100D01*
X167900Y49600D02*Y49000D01*
X160500Y57800D02*Y57200D01*
G54D145*X180367Y49633D02*Y48847D01*
X187453Y49633D02*Y48847D01*
X196457Y49893D02*Y49107D01*
X203543Y49893D02*Y49107D01*
X204257Y95193D02*Y94407D01*
X211343Y95193D02*Y94407D01*
G54D148*X157626Y94130D02*Y89232D01*
X159595Y94130D02*Y89232D01*
X161563Y94130D02*Y89232D01*
X163532Y94130D02*Y89232D01*
G54D145*X180190Y65181D02*Y62819D01*
X192000Y65181D02*Y62819D01*
X198957Y61893D02*Y61107D01*
G54D144*X167900Y57800D02*Y57200D01*
G54D145*X168867Y84133D02*Y83347D01*
X206043Y61893D02*Y61107D01*
X203957Y83393D02*Y82607D01*
X175953Y84133D02*Y83347D01*
X185095Y85681D02*Y83319D01*
X196905Y85681D02*Y83319D01*
G54D157*X387070Y49548D02*X388646D01*
G54D158*X387070Y55453D02*X388646D01*
G54D157*X369354Y49548D02*X370928D01*
G54D158*X369354Y55453D02*X370929D01*
G54D159*X402571Y89811D02*X402965D01*
G54D160*X423043Y87449D02*X425799D01*
G54D159*X400996Y106740D02*X401390D01*
G54D160*X423043Y118551D02*X425799D01*
G54D159*X411626Y115402D02*X412020D01*
G54D145*X524319Y117405D02*X526681D01*
X524319Y105595D02*X526681D01*
X481595Y127181D02*Y124819D01*
X493405Y127181D02*Y124819D01*
G54D161*X493000Y148900D02*Y142300D01*
X502000Y148900D02*Y142300D01*
X511100Y148900D02*Y142300D01*
G54D162*X497500Y170000D02*X506500D01*
G54D163*X469678Y46184D02*Y40672D01*
G54D164*X487002Y43428D02*Y25712D01*
G54D163*X496450Y46184D02*Y40672D01*
G54D164*X479128Y43428D02*Y25712D01*
G54D145*X301957Y263393D02*Y262607D01*
X309043Y263393D02*Y262607D01*
G54D144*X306040Y193590D02*X306340D01*
X305740Y202090D02*Y201490D01*
X286540Y203590D02*X286840D01*
X293640Y203890D02*Y203290D01*
Y212090D02*Y211490D01*
X313140Y193890D02*Y193290D01*
Y202090D02*Y201490D01*
G54D145*X325367Y206633D02*Y205847D01*
X332453Y206633D02*Y205847D01*
X342517Y215197D02*X343303D01*
X325367Y219133D02*Y218347D01*
X332453Y219133D02*Y218347D01*
X342517Y222283D02*X343303D01*
G54D154*X279943Y279992D02*Y275268D01*
X276006Y279992D02*Y275268D01*
X272069Y279992D02*Y275268D01*
X268132Y279992D02*Y275268D01*
G54D155*X281911Y289442D02*Y284717D01*
X277974Y289442D02*Y284717D01*
X274037Y289442D02*Y284717D01*
G54D156*X285848Y279599D02*Y275662D01*
Y289048D02*Y285111D01*
G54D165*X365600Y287250D02*X371899D01*
X388100D02*X394399D01*
G54D154*X264195Y279992D02*Y275268D01*
X260258Y279992D02*Y275268D01*
X256321Y279992D02*Y275268D01*
X252384Y279992D02*Y275268D01*
X248447Y279992D02*Y275268D01*
X244510Y279992D02*Y275268D01*
G54D156*X240572Y279599D02*Y275662D01*
G54D155*X270100Y289442D02*Y284717D01*
X266163Y289442D02*Y284717D01*
G54D154*X262226Y289441D02*Y284717D01*
X258289Y289441D02*Y284717D01*
X254352Y289441D02*Y284717D01*
X250415Y289441D02*Y284717D01*
X246478Y289441D02*Y284717D01*
G54D156*X240572Y289048D02*Y285111D01*
G54D145*X217690Y167181D02*Y164819D01*
G54D144*X183300Y178300D02*X183600D01*
X190400Y178600D02*Y178000D01*
Y186800D02*Y186200D01*
G54D145*X188005Y148421D02*Y146059D01*
X199815Y148421D02*Y146059D01*
G54D144*X183000Y186800D02*Y186200D01*
G54D145*X175867Y156133D02*Y155347D01*
X182953Y156133D02*Y155347D01*
G54D144*X211300Y200000D02*X211600D01*
X218400Y200300D02*Y199700D01*
Y208500D02*Y207900D01*
X211000Y208500D02*Y207900D01*
G54D148*X170020Y100618D02*X174918D01*
X170020Y102586D02*X174918D01*
X170020Y104555D02*X174918D01*
X170020Y106523D02*X174918D01*
X170020Y108492D02*X174918D01*
X170020Y110460D02*X174918D01*
X170020Y112429D02*X174918D01*
X170020Y114397D02*X174918D01*
X170020Y116366D02*X174918D01*
X170020Y118334D02*X174918D01*
X170020Y120303D02*X174918D01*
X170020Y122271D02*X174918D01*
X170020Y124240D02*X174918D01*
X170020Y126208D02*X174918D01*
X170020Y128177D02*X174918D01*
X170020Y130145D02*X174918D01*
X170020Y132114D02*X174918D01*
X170020Y134082D02*X174918D01*
X170020Y136051D02*X174918D01*
X170020Y138019D02*X174918D01*
X170020Y139988D02*X174918D01*
X170020Y141956D02*X174918D01*
X170020Y143925D02*X174918D01*
X170020Y145893D02*X174918D01*
X170020Y147862D02*X174918D01*
X163532Y159248D02*Y154350D01*
X161564Y159248D02*Y154350D01*
X159595Y159248D02*Y154350D01*
X157627Y159248D02*Y154350D01*
G54D144*X286240Y212090D02*Y211490D01*
G54D154*X202373Y280002D02*Y275278D01*
X198436Y280002D02*Y275278D01*
X194499Y280002D02*Y275278D01*
G54D155*X204341Y289452D02*Y284727D01*
X200404Y289452D02*Y284727D01*
X196467Y289452D02*Y284727D01*
G54D156*X208278Y279609D02*Y275672D01*
Y289058D02*Y285121D01*
G54D154*X190562Y280002D02*Y275278D01*
X186625Y280002D02*Y275278D01*
X182688Y280002D02*Y275278D01*
X178751Y280002D02*Y275278D01*
X174814Y280002D02*Y275278D01*
X170877Y280002D02*Y275278D01*
X166940Y280002D02*Y275278D01*
G54D156*X163002Y279609D02*Y275672D01*
G54D155*X192530Y289452D02*Y284727D01*
X188593Y289452D02*Y284727D01*
G54D154*X184656Y289451D02*Y284727D01*
X180719Y289451D02*Y284727D01*
X176782Y289451D02*Y284727D01*
X172845Y289451D02*Y284727D01*
X168908Y289451D02*Y284727D01*
G54D156*X163002Y289058D02*Y285121D01*
M02*
