G04 start of page 8 for group -4063 idx -4063 *
G04 Title: (unknown), componentmask *
G04 Creator: pcb 20110918 *
G04 CreationDate: Tue Nov 12 23:37:41 2013 UTC *
G04 For: fosse *
G04 Format: Gerber/RS-274X *
G04 PCB-Dimensions: 455000 500000 *
G04 PCB-Coordinate-Origin: lower left *
%MOIN*%
%FSLAX25Y25*%
%LNTOPMASK*%
%ADD131R,0.0691X0.0691*%
%ADD130R,0.0691X0.0691*%
%ADD129R,0.0612X0.0612*%
%ADD128R,0.0140X0.0140*%
%ADD127R,0.0257X0.0257*%
%ADD126R,0.0660X0.0660*%
%ADD125R,0.0220X0.0220*%
%ADD124C,0.0220*%
%ADD123R,0.0257X0.0257*%
%ADD122R,0.0336X0.0336*%
%ADD121R,0.0258X0.0258*%
%ADD120R,0.1510X0.1510*%
%ADD119R,0.0158X0.0158*%
%ADD118R,0.0242X0.0242*%
%ADD117R,0.0769X0.0769*%
%ADD116C,0.0239*%
%ADD115R,0.0355X0.0355*%
%ADD114R,0.0199X0.0199*%
%ADD113R,0.0198X0.0198*%
%ADD112R,0.0572X0.0572*%
%ADD111R,0.0400X0.0400*%
%ADD110C,0.0454*%
%ADD109C,0.0604*%
%ADD108C,0.0610*%
%ADD107C,0.0001*%
%ADD106C,0.2560*%
G54D106*X396700Y296100D03*
Y46100D03*
X316700D03*
X36700Y296100D03*
X116700D03*
X316700D03*
X36700Y46100D03*
X116700D03*
G54D107*G36*
X55450Y58050D02*Y51950D01*
X61550D01*
Y58050D01*
X55450D01*
G37*
G54D108*X78500Y55000D03*
G54D109*X190166Y249966D03*
X137016D03*
G54D110*X243575Y74204D03*
X190425D03*
G54D111*X405650Y179176D02*X405950D01*
X412750Y179476D02*Y178876D01*
Y187676D02*Y187076D01*
X405350Y187676D02*Y187076D01*
G54D112*X375714Y244493D02*Y243707D01*
X382800Y244493D02*Y243707D01*
G54D111*X359150Y234600D02*X359450D01*
X366250Y234900D02*Y234300D01*
Y243100D02*Y242500D01*
X358850Y243100D02*Y242500D01*
G54D112*X375800Y229993D02*Y229207D01*
X382886Y229993D02*Y229207D01*
X377414Y195893D02*Y195107D01*
X384500Y195893D02*Y195107D01*
X330414Y167393D02*Y166607D01*
X337500Y167393D02*Y166607D01*
G54D111*X344250Y157600D02*Y157000D01*
X336850Y157600D02*Y157000D01*
G54D112*X336914Y181893D02*Y181107D01*
X344000Y181893D02*Y181107D01*
X321000Y148393D02*Y147607D01*
X328086Y148393D02*Y147607D01*
G54D111*X337150Y149100D02*X337450D01*
X344250Y149400D02*Y148800D01*
G54D112*X64000Y228893D02*Y228107D01*
X71086Y228893D02*Y228107D01*
X61914Y257393D02*Y256607D01*
X61000Y214893D02*Y214107D01*
X68086Y214893D02*Y214107D01*
X65310Y246402D02*Y244040D01*
X69000Y257393D02*Y256607D01*
G54D113*X48327Y234178D02*Y232406D01*
G54D114*X50295Y234178D02*Y232407D01*
G54D113*X52264Y234178D02*Y232406D01*
G54D114*X54232Y234178D02*Y232407D01*
G54D113*X52264Y245594D02*Y243822D01*
G54D114*X54232Y245594D02*Y243823D01*
G54D112*X77120Y246402D02*Y244040D01*
X32414Y270393D02*Y269607D01*
X39500Y270393D02*Y269607D01*
G54D115*X46882Y268992D02*Y268008D01*
X52000Y268992D02*Y268008D01*
G54D112*X23414Y235893D02*Y235107D01*
X30500Y235893D02*Y235107D01*
X24914Y220893D02*Y220107D01*
X22190Y254755D02*Y249245D01*
X34000Y254755D02*Y249245D01*
G54D116*X43996Y237150D02*X44311Y236835D01*
G54D113*X44390Y234178D02*Y232406D01*
G54D114*X46358Y234178D02*Y232407D01*
G54D113*X44390Y245594D02*Y243822D01*
G54D114*X46358Y245594D02*Y243823D01*
G54D113*X48327Y245594D02*Y243822D01*
G54D114*X50295Y245594D02*Y243823D01*
G54D112*X45500Y258393D02*Y257607D01*
X52586Y258393D02*Y257607D01*
G54D117*X47539Y239000D02*X52461D01*
G54D118*X43524Y241638D02*Y237740D01*
G54D116*X43012Y237110D02*X44272Y235850D01*
X43524Y237110D02*X44272Y236362D01*
G54D112*X32000Y220893D02*Y220107D01*
X42500Y221393D02*Y220607D01*
X49586Y221393D02*Y220607D01*
G54D107*G36*
X57877Y150123D02*Y139877D01*
X68123D01*
Y150123D01*
X57877D01*
G37*
G54D119*X60047Y138405D02*Y136633D01*
X58079Y138405D02*Y136633D01*
X54634Y145984D02*X56405D01*
X54634Y144016D02*X56405D01*
X54634Y142047D02*X56405D01*
X54634Y140079D02*X56405D01*
G54D112*X71086Y111893D02*Y111107D01*
X53914Y192893D02*Y192107D01*
X61000Y192893D02*Y192107D01*
X55586Y115893D02*Y115107D01*
G54D119*X69594Y140079D02*X71366D01*
X67921Y153366D02*Y151594D01*
Y138405D02*Y136633D01*
G54D112*X46414Y131393D02*Y130607D01*
X53500Y131393D02*Y130607D01*
G54D119*X65953Y153366D02*Y151594D01*
X63984Y153366D02*Y151594D01*
X62016Y153366D02*Y151594D01*
X65953Y138405D02*Y136633D01*
X63984Y138405D02*Y136633D01*
X62016Y138405D02*Y136633D01*
X54634Y149921D02*X56405D01*
G54D112*X51500Y167893D02*Y167107D01*
X58586Y167893D02*Y167107D01*
G54D119*X54634Y147953D02*X56405D01*
G54D112*X30414Y130393D02*Y129607D01*
X37500Y130393D02*Y129607D01*
X22414Y143393D02*Y142607D01*
X29500Y143393D02*Y142607D01*
G54D119*X60047Y153366D02*Y151594D01*
X58079Y153366D02*Y151594D01*
G54D112*X26190Y161681D02*Y159319D01*
X38000Y161681D02*Y159319D01*
G54D119*X69594Y149921D02*X71366D01*
X69594Y147953D02*X71366D01*
X69594Y145984D02*X71366D01*
X69594Y144016D02*X71366D01*
X69594Y142047D02*X71366D01*
G54D112*X69500Y167393D02*Y166607D01*
X76586Y167393D02*Y166607D01*
X39914Y183893D02*Y183107D01*
X47000Y183893D02*Y183107D01*
X40500Y195893D02*Y195107D01*
X47586Y195893D02*Y195107D01*
X25000Y188393D02*Y187607D01*
X32086Y188393D02*Y187607D01*
X37914Y174893D02*Y174107D01*
X45000Y174893D02*Y174107D01*
X64000Y111893D02*Y111107D01*
G54D115*X48500Y104492D02*Y103508D01*
X53618Y104492D02*Y103508D01*
X32957Y78049D02*Y77065D01*
X38075Y78049D02*Y77065D01*
G54D112*X38000Y95681D02*Y93319D01*
X49810Y95681D02*Y93319D01*
X31000Y104893D02*Y104107D01*
X38086Y104893D02*Y104107D01*
X48500Y115893D02*Y115107D01*
X32914Y116893D02*Y116107D01*
X40000Y116893D02*Y116107D01*
X64414Y38293D02*Y37507D01*
X71500Y38293D02*Y37507D01*
G54D120*X55816Y75035D02*Y71035D01*
X77616Y75035D02*Y71035D01*
G54D121*X217287Y42368D02*Y37644D01*
X213350Y42368D02*Y37644D01*
X209413Y42368D02*Y37644D01*
X205476Y42368D02*Y37644D01*
X201539Y42368D02*Y37644D01*
X197602Y42368D02*Y37644D01*
G54D122*X193664Y41974D02*Y38038D01*
G54D121*X233035Y42368D02*Y37644D01*
X229098Y42368D02*Y37644D01*
G54D123*X235003Y51817D02*Y47092D01*
G54D122*X238940Y41974D02*Y38038D01*
Y51424D02*Y47486D01*
G54D121*X221224Y42368D02*Y37644D01*
X225161Y42368D02*Y37644D01*
G54D123*X231066Y51817D02*Y47092D01*
X227129Y51817D02*Y47092D01*
X223192Y51817D02*Y47092D01*
X219255Y51817D02*Y47092D01*
G54D121*X215318Y51816D02*Y47092D01*
X211381Y51816D02*Y47092D01*
X207444Y51816D02*Y47092D01*
X203507Y51816D02*Y47092D01*
X199570Y51816D02*Y47092D01*
G54D122*X193664Y51424D02*Y47486D01*
G54D121*X257033Y287752D02*Y283028D01*
X253096Y287752D02*Y283028D01*
X249159Y287752D02*Y283028D01*
G54D123*X259001Y297202D02*Y292477D01*
X255064Y297202D02*Y292477D01*
X251127Y297202D02*Y292477D01*
G54D122*X262938Y287359D02*Y283422D01*
Y296808D02*Y292871D01*
G54D121*X245222Y287752D02*Y283028D01*
X241285Y287752D02*Y283028D01*
X237348Y287752D02*Y283028D01*
X233411Y287752D02*Y283028D01*
X229474Y287752D02*Y283028D01*
X225537Y287752D02*Y283028D01*
X221600Y287752D02*Y283028D01*
G54D122*X217662Y287359D02*Y283422D01*
G54D123*X247190Y297202D02*Y292477D01*
X243253Y297202D02*Y292477D01*
G54D121*X239316Y297201D02*Y292477D01*
X235379Y297201D02*Y292477D01*
X231442Y297201D02*Y292477D01*
X227505Y297201D02*Y292477D01*
X223568Y297201D02*Y292477D01*
G54D122*X217662Y296808D02*Y292871D01*
G54D121*X179463Y287762D02*Y283038D01*
G54D123*X181431Y297212D02*Y292487D01*
X177494Y297212D02*Y292487D01*
G54D121*X175526Y287762D02*Y283038D01*
X171589Y287762D02*Y283038D01*
G54D123*X173557Y297212D02*Y292487D01*
X169620Y297212D02*Y292487D01*
G54D122*X185368Y287369D02*Y283432D01*
Y296818D02*Y292881D01*
G54D121*X167652Y287762D02*Y283038D01*
G54D123*X165683Y297212D02*Y292487D01*
G54D121*X161746Y297211D02*Y292487D01*
X163715Y287762D02*Y283038D01*
X159778Y287762D02*Y283038D01*
X155841Y287762D02*Y283038D01*
X157809Y297211D02*Y292487D01*
X153872Y297211D02*Y292487D01*
X149935Y297211D02*Y292487D01*
X145998Y297211D02*Y292487D01*
X151904Y287762D02*Y283038D01*
X147967Y287762D02*Y283038D01*
X144030Y287762D02*Y283038D01*
G54D122*X140092Y287369D02*Y283432D01*
Y296818D02*Y292881D01*
G54D124*X246492Y439316D02*Y437116D01*
G54D125*X249092Y439316D02*Y437116D01*
X251592Y439316D02*Y437116D01*
X254192Y439316D02*Y437116D01*
X256792Y439316D02*Y437116D01*
X259292Y439316D02*Y437116D01*
X261892Y439316D02*Y437116D01*
X264392Y439316D02*Y437116D01*
X264492Y460516D02*Y458316D01*
X261892Y460516D02*Y458316D01*
X259392Y460516D02*Y458316D01*
X256792Y460516D02*Y458316D01*
X254192Y460516D02*Y458316D01*
X251692Y460516D02*Y458316D01*
X249092Y460516D02*Y458316D01*
X246592Y460516D02*Y458316D01*
G54D112*X244007Y333457D02*X244793D01*
X219900Y335681D02*Y333319D01*
X231710Y335681D02*Y333319D01*
X244007Y340543D02*X244793D01*
X212495Y371681D02*Y369319D01*
X224305Y371681D02*Y369319D01*
X237507Y373043D02*X238293D01*
G54D126*X229900Y351000D02*Y350000D01*
G54D127*X218535Y347260D02*X219716D01*
X218535Y354740D02*X219716D01*
X209087Y351000D02*X210268D01*
X209087Y354740D02*X210268D01*
X209087Y347260D02*X210268D01*
G54D126*X241900Y351000D02*Y350000D01*
X258400Y351000D02*X259400D01*
X258400Y363000D02*X259400D01*
G54D112*X237507Y365957D02*X238293D01*
G54D111*X206891Y457553D02*X207191D01*
X213991Y457853D02*Y457253D01*
Y466053D02*Y465453D01*
X206591Y466053D02*Y465453D01*
G54D112*X360926Y299569D02*Y298783D01*
X368012Y299569D02*Y298783D01*
G54D111*X356750Y281500D02*X357050D01*
X356450Y290000D02*Y289400D01*
X363850Y281800D02*Y281200D01*
Y290000D02*Y289400D01*
G54D112*X339257Y303993D02*Y303207D01*
X346343Y303993D02*Y303207D01*
G54D111*X350600Y367600D02*X350900D01*
X357700Y367900D02*Y367300D01*
Y376100D02*Y375500D01*
X350300Y376100D02*Y375500D01*
G54D112*X385757Y398993D02*Y398207D01*
X392843Y398993D02*Y398207D01*
G54D111*X350700Y397600D02*X351000D01*
X357800Y397900D02*Y397300D01*
Y406100D02*Y405500D01*
X350400Y406100D02*Y405500D01*
G54D112*X371407Y405643D02*X372193D01*
X371407Y398557D02*X372193D01*
G54D111*X357800Y347700D02*Y347400D01*
X357500Y354500D02*X358100D01*
X349300D02*X349900D01*
X349300Y347100D02*X349900D01*
G54D112*X316257Y386493D02*Y385707D01*
X323343Y386493D02*Y385707D01*
X316214Y369993D02*Y369207D01*
X323300Y369993D02*Y369207D01*
G54D111*X52391Y473553D02*X52691D01*
X59491Y473853D02*Y473253D01*
Y482053D02*Y481453D01*
X52091Y482053D02*Y481453D01*
X36041Y482053D02*Y481453D01*
X28641Y482053D02*Y481453D01*
G54D128*X74533Y443175D02*X79431D01*
X74533Y441207D02*X79431D01*
X74533Y439238D02*X79431D01*
X74533Y437270D02*X79431D01*
X74533Y435301D02*X79431D01*
X74533Y433333D02*X79431D01*
X74533Y431364D02*X79431D01*
X74533Y429396D02*X79431D01*
G54D112*X78998Y460946D02*Y460160D01*
G54D111*X74391Y474053D02*X74691D01*
X81491Y474353D02*Y473753D01*
Y482553D02*Y481953D01*
X74091Y482553D02*Y481953D01*
G54D112*X86084Y460946D02*Y460160D01*
X93648Y466096D02*X94434D01*
X93648Y459010D02*X94434D01*
X52998Y448946D02*Y448160D01*
Y436946D02*Y436160D01*
G54D129*X33159Y449380D02*X35521D01*
X20560D02*X22922D01*
G54D112*X60084Y448946D02*Y448160D01*
Y436946D02*Y436160D01*
G54D115*X20049Y465112D02*X21033D01*
X20049Y459994D02*X21033D01*
X36549Y464112D02*X37533D01*
X36549Y458994D02*X37533D01*
G54D111*X28941Y473553D02*X29241D01*
X36041Y473853D02*Y473253D01*
G54D128*X74533Y427427D02*X79431D01*
X74533Y425459D02*X79431D01*
X74533Y423490D02*X79431D01*
X74533Y421522D02*X79431D01*
X74533Y419553D02*X79431D01*
G54D115*X59482Y425545D02*Y424561D01*
X64600Y425545D02*Y424561D01*
G54D129*X33159Y427726D02*X35521D01*
X20560D02*X22922D01*
G54D128*X74533Y417585D02*X79431D01*
X74533Y415616D02*X79431D01*
X74533Y413648D02*X79431D01*
X74533Y411679D02*X79431D01*
X74533Y409711D02*X79431D01*
X74533Y407742D02*X79431D01*
X74533Y405774D02*X79431D01*
X74533Y403805D02*X79431D01*
X74533Y401837D02*X79431D01*
X74533Y399868D02*X79431D01*
X74533Y397900D02*X79431D01*
X74533Y395931D02*X79431D01*
G54D115*X68100Y404545D02*Y403561D01*
G54D128*X85919Y389443D02*Y384545D01*
G54D112*X58636Y388734D02*Y386372D01*
X70446Y388734D02*Y386372D01*
G54D130*X23619Y388553D02*X33462D01*
G54D128*X87887Y389443D02*Y384545D01*
X89856Y389443D02*Y384545D01*
X91824Y389443D02*Y384545D01*
X93793Y389443D02*Y384545D01*
X95761Y389443D02*Y384545D01*
X97730Y389443D02*Y384545D01*
X99698Y389443D02*Y384545D01*
G54D112*X84541Y374946D02*Y374160D01*
X91627Y374946D02*Y374160D01*
X48998Y369446D02*Y368660D01*
X56084Y369446D02*Y368660D01*
G54D131*X33462Y376939D02*Y363159D01*
G54D115*X20549Y361112D02*X21533D01*
X20549Y355994D02*X21533D01*
X62982Y404545D02*Y403561D01*
G54D112*X46998Y405446D02*Y404660D01*
X54084Y405446D02*Y404660D01*
X46998Y417446D02*Y416660D01*
X54084Y417446D02*Y416660D01*
G54D131*X33462Y413946D02*Y400166D01*
G54D115*X21482Y414545D02*Y413561D01*
X26600Y414545D02*Y413561D01*
G54D128*X101667Y389443D02*Y384545D01*
X103635Y389443D02*Y384545D01*
X105604Y389443D02*Y384545D01*
X107572Y389443D02*Y384545D01*
X109541Y389443D02*Y384545D01*
G54D112*X105136Y345734D02*Y343372D01*
X116946Y345734D02*Y343372D01*
G54D128*X111509Y389443D02*Y384545D01*
X113478Y389443D02*Y384545D01*
X115446Y389443D02*Y384545D01*
X117415Y389443D02*Y384545D01*
X119383Y389443D02*Y384545D01*
X121352Y389443D02*Y384545D01*
X123320Y389443D02*Y384545D01*
X125289Y389443D02*Y384545D01*
X127257Y389443D02*Y384545D01*
X129226Y389443D02*Y384545D01*
X131194Y389443D02*Y384545D01*
X133163Y389443D02*Y384545D01*
G54D112*X131731Y364234D02*Y361872D01*
G54D128*X139651Y395931D02*X144549D01*
X139651Y397899D02*X144549D01*
X139651Y399868D02*X144549D01*
X139651Y401836D02*X144549D01*
X139651Y403805D02*X144549D01*
X139651Y405773D02*X144549D01*
X139651Y407742D02*X144549D01*
X139651Y409710D02*X144549D01*
G54D112*X143541Y364234D02*Y361872D01*
X138498Y379446D02*Y378660D01*
X145584Y379446D02*Y378660D01*
G54D128*X139651Y411679D02*X144549D01*
X139651Y413647D02*X144549D01*
X139651Y415616D02*X144549D01*
X139651Y417584D02*X144549D01*
X139651Y419553D02*X144549D01*
X139651Y421521D02*X144549D01*
X139651Y423490D02*X144549D01*
X139651Y425458D02*X144549D01*
X139651Y427427D02*X144549D01*
X139651Y429395D02*X144549D01*
X139651Y431364D02*X144549D01*
X139651Y433332D02*X144549D01*
X139651Y435301D02*X144549D01*
X139651Y437269D02*X144549D01*
X139651Y439238D02*X144549D01*
X139651Y441206D02*X144549D01*
X139651Y443175D02*X144549D01*
G54D112*X157636Y443734D02*Y441372D01*
X169446Y443734D02*Y441372D01*
G54D128*X133163Y454561D02*Y449663D01*
X131195Y454561D02*Y449663D01*
X129226Y454561D02*Y449663D01*
X127258Y454561D02*Y449663D01*
X125289Y454561D02*Y449663D01*
X123321Y454561D02*Y449663D01*
X121352Y454561D02*Y449663D01*
X119384Y454561D02*Y449663D01*
G54D112*X145498Y451446D02*Y450660D01*
X152584Y451446D02*Y450660D01*
G54D128*X117415Y454561D02*Y449663D01*
X115447Y454561D02*Y449663D01*
X113478Y454561D02*Y449663D01*
X111510Y454561D02*Y449663D01*
X109541Y454561D02*Y449663D01*
X107573Y454561D02*Y449663D01*
X105604Y454561D02*Y449663D01*
X103636Y454561D02*Y449663D01*
X101667Y454561D02*Y449663D01*
X99699Y454561D02*Y449663D01*
X97730Y454561D02*Y449663D01*
X95762Y454561D02*Y449663D01*
X93793Y454561D02*Y449663D01*
X91825Y454561D02*Y449663D01*
X89856Y454561D02*Y449663D01*
X87888Y454561D02*Y449663D01*
X85919Y454561D02*Y449663D01*
M02*
