G04 start of page 14 for group -3984 idx -3984 *
G04 Title: (unknown), fab *
G04 Creator: pcb 20110918 *
G04 CreationDate: Thu Oct 25 19:42:23 2012 UTC *
G04 For: fosse *
G04 Format: Gerber/RS-274X *
G04 PCB-Dimensions: 455000 853500 *
G04 PCB-Coordinate-Origin: lower left *
%MOIN*%
%FSLAX25Y25*%
%LNFAB*%
%ADD121C,0.0100*%
%ADD120C,0.0075*%
%ADD119C,0.0060*%
%ADD118R,0.0080X0.0080*%
G54D118*X46700Y796500D02*G75*G03X48300Y796500I800J0D01*G01*
G75*G03X46700Y796500I-800J0D01*G01*
X406700D02*G75*G03X408300Y796500I800J0D01*G01*
G75*G03X406700Y796500I-800J0D01*G01*
X126700D02*G75*G03X128300Y796500I800J0D01*G01*
G75*G03X126700Y796500I-800J0D01*G01*
X326700D02*G75*G03X328300Y796500I800J0D01*G01*
G75*G03X326700Y796500I-800J0D01*G01*
X46700Y546500D02*G75*G03X48300Y546500I800J0D01*G01*
G75*G03X46700Y546500I-800J0D01*G01*
X406700D02*G75*G03X408300Y546500I800J0D01*G01*
G75*G03X406700Y546500I-800J0D01*G01*
X126700D02*G75*G03X128300Y546500I800J0D01*G01*
G75*G03X126700Y546500I-800J0D01*G01*
X326700D02*G75*G03X328300Y546500I800J0D01*G01*
G75*G03X326700Y546500I-800J0D01*G01*
X14200Y864750D02*G75*G03X15800Y864750I800J0D01*G01*
G75*G03X14200Y864750I-800J0D01*G01*
G54D119*X135000Y867000D02*X136500Y864000D01*
X138000Y867000D01*
X136500Y864000D02*Y861000D01*
X139800Y864300D02*X142050D01*
X139800Y861000D02*X142800D01*
X139800Y867000D02*Y861000D01*
Y867000D02*X142800D01*
X147600D02*X148350Y866250D01*
X145350Y867000D02*X147600D01*
X144600Y866250D02*X145350Y867000D01*
X144600Y866250D02*Y864750D01*
X145350Y864000D01*
X147600D01*
X148350Y863250D01*
Y861750D01*
X147600Y861000D02*X148350Y861750D01*
X145350Y861000D02*X147600D01*
X144600Y861750D02*X145350Y861000D01*
X98000Y861750D02*X98750Y861000D01*
X98000Y862950D02*Y861750D01*
Y862950D02*X99050Y864000D01*
X99950D01*
X101000Y862950D01*
Y861750D01*
X100250Y861000D02*X101000Y861750D01*
X98750Y861000D02*X100250D01*
X98000Y865050D02*X99050Y864000D01*
X98000Y866250D02*Y865050D01*
Y866250D02*X98750Y867000D01*
X100250D01*
X101000Y866250D01*
Y865050D01*
X99950Y864000D02*X101000Y865050D01*
X45000Y861750D02*X45750Y861000D01*
X45000Y866250D02*Y861750D01*
Y866250D02*X45750Y867000D01*
X47250D01*
X48000Y866250D01*
Y861750D01*
X47250Y861000D02*X48000Y861750D01*
X45750Y861000D02*X47250D01*
X45000Y862500D02*X48000Y865500D01*
X49800Y861000D02*X50550D01*
X52350Y865800D02*X53550Y867000D01*
Y861000D01*
X52350D02*X54600D01*
X56400Y861750D02*X57150Y861000D01*
X56400Y866250D02*Y861750D01*
Y866250D02*X57150Y867000D01*
X58650D01*
X59400Y866250D01*
Y861750D01*
X58650Y861000D02*X59400Y861750D01*
X57150Y861000D02*X58650D01*
X56400Y862500D02*X59400Y865500D01*
X61950Y861000D02*X64200Y864000D01*
Y866250D02*Y864000D01*
X63450Y867000D02*X64200Y866250D01*
X61950Y867000D02*X63450D01*
X61200Y866250D02*X61950Y867000D01*
X61200Y866250D02*Y864750D01*
X61950Y864000D01*
X64200D01*
X78300Y632200D02*X80700Y629800D01*
X78300D02*X80700Y632200D01*
X91300Y610700D02*X93700Y608300D01*
X91300D02*X93700Y610700D01*
X77300Y618700D02*X79700Y616300D01*
X77300D02*X79700Y618700D01*
X29800Y706200D02*X32200Y703800D01*
X29800D02*X32200Y706200D01*
X24800Y651200D02*X27200Y648800D01*
X24800D02*X27200Y651200D01*
X33300Y600700D02*X35700Y598300D01*
X33300D02*X35700Y600700D01*
X141800Y631200D02*X144200Y628800D01*
X141800D02*X144200Y631200D01*
X141800Y616200D02*X144200Y613800D01*
X141800D02*X144200Y616200D01*
X138800Y695700D02*X141200Y693300D01*
X138800D02*X141200Y695700D01*
X158800D02*X161200Y693300D01*
X158800D02*X161200Y695700D01*
X71300Y708700D02*X73700Y706300D01*
X71300D02*X73700Y708700D01*
X152800Y560200D02*X155200Y557800D01*
X152800D02*X155200Y560200D01*
X205800Y562200D02*X208200Y559800D01*
X205800D02*X208200Y562200D01*
X188800Y548700D02*X191200Y546300D01*
X188800D02*X191200Y548700D01*
X363300Y596200D02*X365700Y593800D01*
X363300D02*X365700Y596200D01*
X329800Y606700D02*X332200Y604300D01*
X329800D02*X332200Y606700D01*
X309800D02*X312200Y604300D01*
X309800D02*X312200Y606700D01*
X364800Y613200D02*X367200Y610800D01*
X364800D02*X367200Y613200D01*
X354800Y598200D02*X357200Y595800D01*
X354800D02*X357200Y598200D01*
X344300Y604700D02*X346700Y602300D01*
X344300D02*X346700Y604700D01*
X366800Y586200D02*X369200Y583800D01*
X366800D02*X369200Y586200D01*
X343800Y589200D02*X346200Y586800D01*
X343800D02*X346200Y589200D01*
X329056Y615444D02*X331456Y613044D01*
X329056D02*X331456Y615444D01*
X323800Y631200D02*X326200Y628800D01*
X323800D02*X326200Y631200D01*
X309800Y623200D02*X312200Y620800D01*
X309800D02*X312200Y623200D01*
X354300Y627700D02*X356700Y625300D01*
X354300D02*X356700Y627700D01*
X343800Y634700D02*X346200Y632300D01*
X343800D02*X346200Y634700D01*
X378800Y642700D02*X381200Y640300D01*
X378800D02*X381200Y642700D01*
X365300D02*X367700Y640300D01*
X365300D02*X367700Y642700D01*
X392800Y592200D02*X395200Y589800D01*
X392800D02*X395200Y592200D01*
X13800Y880950D02*X16200Y878550D01*
X13800D02*X16200Y880950D01*
X135000Y882000D02*X136500Y879000D01*
X138000Y882000D01*
X136500Y879000D02*Y876000D01*
X139800Y879300D02*X142050D01*
X139800Y876000D02*X142800D01*
X139800Y882000D02*Y876000D01*
Y882000D02*X142800D01*
X147600D02*X148350Y881250D01*
X145350Y882000D02*X147600D01*
X144600Y881250D02*X145350Y882000D01*
X144600Y881250D02*Y879750D01*
X145350Y879000D01*
X147600D01*
X148350Y878250D01*
Y876750D01*
X147600Y876000D02*X148350Y876750D01*
X145350Y876000D02*X147600D01*
X144600Y876750D02*X145350Y876000D01*
X98000Y881250D02*X98750Y882000D01*
X100250D01*
X101000Y881250D01*
X100250Y876000D02*X101000Y876750D01*
X98750Y876000D02*X100250D01*
X98000Y876750D02*X98750Y876000D01*
Y879300D02*X100250D01*
X101000Y881250D02*Y880050D01*
Y878550D02*Y876750D01*
Y878550D02*X100250Y879300D01*
X101000Y880050D02*X100250Y879300D01*
X102800Y876750D02*X103550Y876000D01*
X102800Y881250D02*Y876750D01*
Y881250D02*X103550Y882000D01*
X105050D01*
X105800Y881250D01*
Y876750D01*
X105050Y876000D02*X105800Y876750D01*
X103550Y876000D02*X105050D01*
X102800Y877500D02*X105800Y880500D01*
X45000Y876750D02*X45750Y876000D01*
X45000Y881250D02*Y876750D01*
Y881250D02*X45750Y882000D01*
X47250D01*
X48000Y881250D01*
Y876750D01*
X47250Y876000D02*X48000Y876750D01*
X45750Y876000D02*X47250D01*
X45000Y877500D02*X48000Y880500D01*
X49800Y876000D02*X50550D01*
X52350Y876750D02*X53100Y876000D01*
X52350Y881250D02*Y876750D01*
Y881250D02*X53100Y882000D01*
X54600D01*
X55350Y881250D01*
Y876750D01*
X54600Y876000D02*X55350Y876750D01*
X53100Y876000D02*X54600D01*
X52350Y877500D02*X55350Y880500D01*
X57150Y881250D02*X57900Y882000D01*
X59400D01*
X60150Y881250D01*
X59400Y876000D02*X60150Y876750D01*
X57900Y876000D02*X59400D01*
X57150Y876750D02*X57900Y876000D01*
Y879300D02*X59400D01*
X60150Y881250D02*Y880050D01*
Y878550D02*Y876750D01*
Y878550D02*X59400Y879300D01*
X60150Y880050D02*X59400Y879300D01*
X61950Y882000D02*X64950D01*
X61950D02*Y879000D01*
X62700Y879750D01*
X64200D01*
X64950Y879000D01*
Y876750D01*
X64200Y876000D02*X64950Y876750D01*
X62700Y876000D02*X64200D01*
X61950Y876750D02*X62700Y876000D01*
X203500Y796100D02*Y792900D01*
X201900Y794500D02*X205100D01*
X223500Y796100D02*Y792900D01*
X221900Y794500D02*X225100D01*
X15000Y896350D02*Y893150D01*
X13400Y894750D02*X16600D01*
X135000Y897000D02*X136500Y894000D01*
X138000Y897000D01*
X136500Y894000D02*Y891000D01*
X139800Y894300D02*X142050D01*
X139800Y891000D02*X142800D01*
X139800Y897000D02*Y891000D01*
Y897000D02*X142800D01*
X147600D02*X148350Y896250D01*
X145350Y897000D02*X147600D01*
X144600Y896250D02*X145350Y897000D01*
X144600Y896250D02*Y894750D01*
X145350Y894000D01*
X147600D01*
X148350Y893250D01*
Y891750D01*
X147600Y891000D02*X148350Y891750D01*
X145350Y891000D02*X147600D01*
X144600Y891750D02*X145350Y891000D01*
X98000Y896250D02*X98750Y897000D01*
X101000D01*
X101750Y896250D01*
Y894750D01*
X98000Y891000D02*X101750Y894750D01*
X98000Y891000D02*X101750D01*
X45000Y891750D02*X45750Y891000D01*
X45000Y896250D02*Y891750D01*
Y896250D02*X45750Y897000D01*
X47250D01*
X48000Y896250D01*
Y891750D01*
X47250Y891000D02*X48000Y891750D01*
X45750Y891000D02*X47250D01*
X45000Y892500D02*X48000Y895500D01*
X49800Y891000D02*X50550D01*
X52350Y891750D02*X53100Y891000D01*
X52350Y896250D02*Y891750D01*
Y896250D02*X53100Y897000D01*
X54600D01*
X55350Y896250D01*
Y891750D01*
X54600Y891000D02*X55350Y891750D01*
X53100Y891000D02*X54600D01*
X52350Y892500D02*X55350Y895500D01*
X57150Y896250D02*X57900Y897000D01*
X59400D01*
X60150Y896250D01*
X59400Y891000D02*X60150Y891750D01*
X57900Y891000D02*X59400D01*
X57150Y891750D02*X57900Y891000D01*
Y894300D02*X59400D01*
X60150Y896250D02*Y895050D01*
Y893550D02*Y891750D01*
Y893550D02*X59400Y894300D01*
X60150Y895050D02*X59400Y894300D01*
X61950Y891750D02*X62700Y891000D01*
X61950Y896250D02*Y891750D01*
Y896250D02*X62700Y897000D01*
X64200D01*
X64950Y896250D01*
Y891750D01*
X64200Y891000D02*X64950Y891750D01*
X62700Y891000D02*X64200D01*
X61950Y892500D02*X64950Y895500D01*
X88847Y687653D02*Y686053D01*
Y687653D02*X90234Y688453D01*
X88847Y687653D02*X87460Y688453D01*
X86406Y668906D02*Y667306D01*
Y668906D02*X87793Y669706D01*
X86406Y668906D02*X85019Y669706D01*
X86279Y649221D02*Y647621D01*
Y649221D02*X87666Y650021D01*
X86279Y649221D02*X84892Y650021D01*
X93000Y649000D02*Y647400D01*
Y649000D02*X94387Y649800D01*
X93000Y649000D02*X91613Y649800D01*
X87500Y680500D02*Y678900D01*
Y680500D02*X88887Y681300D01*
X87500Y680500D02*X86113Y681300D01*
X86500Y661000D02*Y659400D01*
Y661000D02*X87887Y661800D01*
X86500Y661000D02*X85113Y661800D01*
X92000Y657500D02*Y655900D01*
Y657500D02*X93387Y658300D01*
X92000Y657500D02*X90613Y658300D01*
X89500Y674500D02*Y672900D01*
Y674500D02*X90887Y675300D01*
X89500Y674500D02*X88113Y675300D01*
X70000Y659500D02*Y657900D01*
Y659500D02*X71387Y660300D01*
X70000Y659500D02*X68613Y660300D01*
X64000Y659500D02*Y657900D01*
Y659500D02*X65387Y660300D01*
X64000Y659500D02*X62613Y660300D01*
X62000Y653500D02*Y651900D01*
Y653500D02*X63387Y654300D01*
X62000Y653500D02*X60613Y654300D01*
X78000Y691000D02*Y689400D01*
Y691000D02*X79387Y691800D01*
X78000Y691000D02*X76613Y691800D01*
X49500Y698500D02*Y696900D01*
Y698500D02*X50887Y699300D01*
X49500Y698500D02*X48113Y699300D01*
X56000Y698500D02*Y696900D01*
Y698500D02*X57387Y699300D01*
X56000Y698500D02*X54613Y699300D01*
X62500Y698500D02*Y696900D01*
Y698500D02*X63887Y699300D01*
X62500Y698500D02*X61113Y699300D01*
X43000Y698500D02*Y696900D01*
Y698500D02*X44387Y699300D01*
X43000Y698500D02*X41613Y699300D01*
X93000Y669000D02*Y667400D01*
Y669000D02*X94387Y669800D01*
X93000Y669000D02*X91613Y669800D01*
X102000Y709000D02*Y707400D01*
Y709000D02*X103387Y709800D01*
X102000Y709000D02*X100613Y709800D01*
X94500Y684000D02*Y682400D01*
Y684000D02*X95887Y684800D01*
X94500Y684000D02*X93113Y684800D01*
X98500Y679500D02*Y677900D01*
Y679500D02*X99887Y680300D01*
X98500Y679500D02*X97113Y680300D01*
X102500Y684000D02*Y682400D01*
Y684000D02*X103887Y684800D01*
X102500Y684000D02*X101113Y684800D01*
X107000Y679500D02*Y677900D01*
Y679500D02*X108387Y680300D01*
X107000Y679500D02*X105613Y680300D01*
X182000Y701000D02*Y699400D01*
Y701000D02*X183387Y701800D01*
X182000Y701000D02*X180613Y701800D01*
X201500Y701000D02*Y699400D01*
Y701000D02*X202887Y701800D01*
X201500Y701000D02*X200113Y701800D01*
X153000Y539500D02*Y537900D01*
Y539500D02*X154387Y540300D01*
X153000Y539500D02*X151613Y540300D01*
X15000Y909750D02*Y908150D01*
Y909750D02*X16387Y910550D01*
X15000Y909750D02*X13613Y910550D01*
X135000Y912000D02*X136500Y909000D01*
X138000Y912000D01*
X136500Y909000D02*Y906000D01*
X139800Y909300D02*X142050D01*
X139800Y906000D02*X142800D01*
X139800Y912000D02*Y906000D01*
Y912000D02*X142800D01*
X147600D02*X148350Y911250D01*
X145350Y912000D02*X147600D01*
X144600Y911250D02*X145350Y912000D01*
X144600Y911250D02*Y909750D01*
X145350Y909000D01*
X147600D01*
X148350Y908250D01*
Y906750D01*
X147600Y906000D02*X148350Y906750D01*
X145350Y906000D02*X147600D01*
X144600Y906750D02*X145350Y906000D01*
X98000Y911250D02*X98750Y912000D01*
X101000D01*
X101750Y911250D01*
Y909750D01*
X98000Y906000D02*X101750Y909750D01*
X98000Y906000D02*X101750D01*
X103550Y912000D02*X106550D01*
X103550D02*Y909000D01*
X104300Y909750D01*
X105800D01*
X106550Y909000D01*
Y906750D01*
X105800Y906000D02*X106550Y906750D01*
X104300Y906000D02*X105800D01*
X103550Y906750D02*X104300Y906000D01*
X45000Y906750D02*X45750Y906000D01*
X45000Y911250D02*Y906750D01*
Y911250D02*X45750Y912000D01*
X47250D01*
X48000Y911250D01*
Y906750D01*
X47250Y906000D02*X48000Y906750D01*
X45750Y906000D02*X47250D01*
X45000Y907500D02*X48000Y910500D01*
X49800Y906000D02*X50550D01*
X52350Y906750D02*X53100Y906000D01*
X52350Y911250D02*Y906750D01*
Y911250D02*X53100Y912000D01*
X54600D01*
X55350Y911250D01*
Y906750D01*
X54600Y906000D02*X55350Y906750D01*
X53100Y906000D02*X54600D01*
X52350Y907500D02*X55350Y910500D01*
X57150Y911250D02*X57900Y912000D01*
X60150D01*
X60900Y911250D01*
Y909750D01*
X57150Y906000D02*X60900Y909750D01*
X57150Y906000D02*X60900D01*
X62700Y906750D02*X63450Y906000D01*
X62700Y911250D02*Y906750D01*
Y911250D02*X63450Y912000D01*
X64950D01*
X65700Y911250D01*
Y906750D01*
X64950Y906000D02*X65700Y906750D01*
X63450Y906000D02*X64950D01*
X62700Y907500D02*X65700Y910500D01*
X3000Y927000D02*X3750Y926250D01*
X750Y927000D02*X3000D01*
X0Y926250D02*X750Y927000D01*
X0Y926250D02*Y924750D01*
X750Y924000D01*
X3000D01*
X3750Y923250D01*
Y921750D01*
X3000Y921000D02*X3750Y921750D01*
X750Y921000D02*X3000D01*
X0Y921750D02*X750Y921000D01*
X5550Y924000D02*Y921750D01*
X6300Y921000D01*
X8550Y924000D02*Y919500D01*
X7800Y918750D02*X8550Y919500D01*
X6300Y918750D02*X7800D01*
X5550Y919500D02*X6300Y918750D01*
Y921000D02*X7800D01*
X8550Y921750D01*
X11100Y923250D02*Y921000D01*
Y923250D02*X11850Y924000D01*
X12600D01*
X13350Y923250D01*
Y921000D01*
Y923250D02*X14100Y924000D01*
X14850D01*
X15600Y923250D01*
Y921000D01*
X10350Y924000D02*X11100Y923250D01*
X17400Y927000D02*Y921000D01*
Y921750D02*X18150Y921000D01*
X19650D01*
X20400Y921750D01*
Y923250D02*Y921750D01*
X19650Y924000D02*X20400Y923250D01*
X18150Y924000D02*X19650D01*
X17400Y923250D02*X18150Y924000D01*
X22200Y923250D02*Y921750D01*
Y923250D02*X22950Y924000D01*
X24450D01*
X25200Y923250D01*
Y921750D01*
X24450Y921000D02*X25200Y921750D01*
X22950Y921000D02*X24450D01*
X22200Y921750D02*X22950Y921000D01*
X27000Y927000D02*Y921750D01*
X27750Y921000D01*
X0Y917750D02*X29250D01*
X41750Y927000D02*Y921000D01*
X43700Y927000D02*X44750Y925950D01*
Y922050D01*
X43700Y921000D02*X44750Y922050D01*
X41000Y921000D02*X43700D01*
X41000Y927000D02*X43700D01*
G54D120*X46550Y925500D02*Y925350D01*
G54D119*Y923250D02*Y921000D01*
X50300Y924000D02*X51050Y923250D01*
X48800Y924000D02*X50300D01*
X48050Y923250D02*X48800Y924000D01*
X48050Y923250D02*Y921750D01*
X48800Y921000D01*
X51050Y924000D02*Y921750D01*
X51800Y921000D01*
X48800D02*X50300D01*
X51050Y921750D01*
X54350Y923250D02*Y921000D01*
Y923250D02*X55100Y924000D01*
X55850D01*
X56600Y923250D01*
Y921000D01*
Y923250D02*X57350Y924000D01*
X58100D01*
X58850Y923250D01*
Y921000D01*
X53600Y924000D02*X54350Y923250D01*
X60650Y921000D02*X61400D01*
X65900Y921750D02*X66650Y921000D01*
X65900Y926250D02*X66650Y927000D01*
X65900Y926250D02*Y921750D01*
X68450Y927000D02*X69950D01*
X69200D02*Y921000D01*
X68450D02*X69950D01*
X72500Y923250D02*Y921000D01*
Y923250D02*X73250Y924000D01*
X74000D01*
X74750Y923250D01*
Y921000D01*
X71750Y924000D02*X72500Y923250D01*
X77300Y924000D02*X79550D01*
X76550Y923250D02*X77300Y924000D01*
X76550Y923250D02*Y921750D01*
X77300Y921000D01*
X79550D01*
X81350Y927000D02*Y921000D01*
Y923250D02*X82100Y924000D01*
X83600D01*
X84350Y923250D01*
Y921000D01*
X86150Y927000D02*X86900Y926250D01*
Y921750D01*
X86150Y921000D02*X86900Y921750D01*
X41000Y917750D02*X88700D01*
X96050Y921000D02*X98000D01*
X95000Y922050D02*X96050Y921000D01*
X95000Y925950D02*Y922050D01*
Y925950D02*X96050Y927000D01*
X98000D01*
X99800Y923250D02*Y921750D01*
Y923250D02*X100550Y924000D01*
X102050D01*
X102800Y923250D01*
Y921750D01*
X102050Y921000D02*X102800Y921750D01*
X100550Y921000D02*X102050D01*
X99800Y921750D02*X100550Y921000D01*
X104600Y924000D02*Y921750D01*
X105350Y921000D01*
X106850D01*
X107600Y921750D01*
Y924000D02*Y921750D01*
X110150Y923250D02*Y921000D01*
Y923250D02*X110900Y924000D01*
X111650D01*
X112400Y923250D01*
Y921000D01*
X109400Y924000D02*X110150Y923250D01*
X114950Y927000D02*Y921750D01*
X115700Y921000D01*
X114200Y924750D02*X115700D01*
X95000Y917750D02*X117200D01*
X130750Y927000D02*Y921000D01*
X130000Y927000D02*X133000D01*
X133750Y926250D01*
Y924750D01*
X133000Y924000D02*X133750Y924750D01*
X130750Y924000D02*X133000D01*
X135550Y927000D02*Y921750D01*
X136300Y921000D01*
X140050Y924000D02*X140800Y923250D01*
X138550Y924000D02*X140050D01*
X137800Y923250D02*X138550Y924000D01*
X137800Y923250D02*Y921750D01*
X138550Y921000D01*
X140800Y924000D02*Y921750D01*
X141550Y921000D01*
X138550D02*X140050D01*
X140800Y921750D01*
X144100Y927000D02*Y921750D01*
X144850Y921000D01*
X143350Y924750D02*X144850D01*
X147100Y921000D02*X149350D01*
X146350Y921750D02*X147100Y921000D01*
X146350Y923250D02*Y921750D01*
Y923250D02*X147100Y924000D01*
X148600D01*
X149350Y923250D01*
X146350Y922500D02*X149350D01*
Y923250D02*Y922500D01*
X154150Y927000D02*Y921000D01*
X153400D02*X154150Y921750D01*
X151900Y921000D02*X153400D01*
X151150Y921750D02*X151900Y921000D01*
X151150Y923250D02*Y921750D01*
Y923250D02*X151900Y924000D01*
X153400D01*
X154150Y923250D01*
X157450Y924000D02*Y923250D01*
Y921750D02*Y921000D01*
X155950Y926250D02*Y925500D01*
Y926250D02*X156700Y927000D01*
X158200D01*
X158950Y926250D01*
Y925500D01*
X157450Y924000D02*X158950Y925500D01*
X130000Y917750D02*X160750D01*
X0Y942000D02*X3000D01*
X1500D02*Y936000D01*
X4800Y942000D02*Y936000D01*
Y938250D02*X5550Y939000D01*
X7050D01*
X7800Y938250D01*
Y936000D01*
X10350D02*X12600D01*
X9600Y936750D02*X10350Y936000D01*
X9600Y938250D02*Y936750D01*
Y938250D02*X10350Y939000D01*
X11850D01*
X12600Y938250D01*
X9600Y937500D02*X12600D01*
Y938250D02*Y937500D01*
X15150Y938250D02*Y936000D01*
Y938250D02*X15900Y939000D01*
X17400D01*
X14400D02*X15150Y938250D01*
X19950Y936000D02*X22200D01*
X19200Y936750D02*X19950Y936000D01*
X19200Y938250D02*Y936750D01*
Y938250D02*X19950Y939000D01*
X21450D01*
X22200Y938250D01*
X19200Y937500D02*X22200D01*
Y938250D02*Y937500D01*
X28950Y939000D02*X29700Y938250D01*
X27450Y939000D02*X28950D01*
X26700Y938250D02*X27450Y939000D01*
X26700Y938250D02*Y936750D01*
X27450Y936000D01*
X29700Y939000D02*Y936750D01*
X30450Y936000D01*
X27450D02*X28950D01*
X29700Y936750D01*
X33000Y938250D02*Y936000D01*
Y938250D02*X33750Y939000D01*
X35250D01*
X32250D02*X33000Y938250D01*
X37800Y936000D02*X40050D01*
X37050Y936750D02*X37800Y936000D01*
X37050Y938250D02*Y936750D01*
Y938250D02*X37800Y939000D01*
X39300D01*
X40050Y938250D01*
X37050Y937500D02*X40050D01*
Y938250D02*Y937500D01*
X44550Y938250D02*X47550Y942000D01*
X44550Y938250D02*X48300D01*
X47550Y942000D02*Y936000D01*
X55800Y942000D02*Y936000D01*
X55050D02*X55800Y936750D01*
X53550Y936000D02*X55050D01*
X52800Y936750D02*X53550Y936000D01*
X52800Y938250D02*Y936750D01*
Y938250D02*X53550Y939000D01*
X55050D01*
X55800Y938250D01*
G54D120*X57600Y940500D02*Y940350D01*
G54D119*Y938250D02*Y936000D01*
X59850Y941250D02*Y936000D01*
Y941250D02*X60600Y942000D01*
X61350D01*
X59100Y939000D02*X60600D01*
X63600Y941250D02*Y936000D01*
Y941250D02*X64350Y942000D01*
X65100D01*
X62850Y939000D02*X64350D01*
X67350Y936000D02*X69600D01*
X66600Y936750D02*X67350Y936000D01*
X66600Y938250D02*Y936750D01*
Y938250D02*X67350Y939000D01*
X68850D01*
X69600Y938250D01*
X66600Y937500D02*X69600D01*
Y938250D02*Y937500D01*
X72150Y938250D02*Y936000D01*
Y938250D02*X72900Y939000D01*
X74400D01*
X71400D02*X72150Y938250D01*
X76950Y936000D02*X79200D01*
X76200Y936750D02*X76950Y936000D01*
X76200Y938250D02*Y936750D01*
Y938250D02*X76950Y939000D01*
X78450D01*
X79200Y938250D01*
X76200Y937500D02*X79200D01*
Y938250D02*Y937500D01*
X81750Y938250D02*Y936000D01*
Y938250D02*X82500Y939000D01*
X83250D01*
X84000Y938250D01*
Y936000D01*
X81000Y939000D02*X81750Y938250D01*
X86550Y942000D02*Y936750D01*
X87300Y936000D01*
X85800Y939750D02*X87300D01*
X94500Y942000D02*Y936000D01*
X93750D02*X94500Y936750D01*
X92250Y936000D02*X93750D01*
X91500Y936750D02*X92250Y936000D01*
X91500Y938250D02*Y936750D01*
Y938250D02*X92250Y939000D01*
X93750D01*
X94500Y938250D01*
X97050D02*Y936000D01*
Y938250D02*X97800Y939000D01*
X99300D01*
X96300D02*X97050Y938250D01*
G54D120*X101100Y940500D02*Y940350D01*
G54D119*Y938250D02*Y936000D01*
X102600Y942000D02*Y936750D01*
X103350Y936000D01*
X104850Y942000D02*Y936750D01*
X105600Y936000D01*
X110550D02*X112800D01*
X113550Y936750D01*
X112800Y937500D02*X113550Y936750D01*
X110550Y937500D02*X112800D01*
X109800Y938250D02*X110550Y937500D01*
X109800Y938250D02*X110550Y939000D01*
X112800D01*
X113550Y938250D01*
X109800Y936750D02*X110550Y936000D01*
G54D120*X115350Y940500D02*Y940350D01*
G54D119*Y938250D02*Y936000D01*
X116850Y939000D02*X119850D01*
X116850Y936000D02*X119850Y939000D01*
X116850Y936000D02*X119850D01*
X122400D02*X124650D01*
X121650Y936750D02*X122400Y936000D01*
X121650Y938250D02*Y936750D01*
Y938250D02*X122400Y939000D01*
X123900D01*
X124650Y938250D01*
X121650Y937500D02*X124650D01*
Y938250D02*Y937500D01*
X127200Y936000D02*X129450D01*
X130200Y936750D01*
X129450Y937500D02*X130200Y936750D01*
X127200Y937500D02*X129450D01*
X126450Y938250D02*X127200Y937500D01*
X126450Y938250D02*X127200Y939000D01*
X129450D01*
X130200Y938250D01*
X126450Y936750D02*X127200Y936000D01*
X134700Y939000D02*Y936750D01*
X135450Y936000D01*
X136950D01*
X137700Y936750D01*
Y939000D02*Y936750D01*
X140250Y936000D02*X142500D01*
X143250Y936750D01*
X142500Y937500D02*X143250Y936750D01*
X140250Y937500D02*X142500D01*
X139500Y938250D02*X140250Y937500D01*
X139500Y938250D02*X140250Y939000D01*
X142500D01*
X143250Y938250D01*
X139500Y936750D02*X140250Y936000D01*
X145800D02*X148050D01*
X145050Y936750D02*X145800Y936000D01*
X145050Y938250D02*Y936750D01*
Y938250D02*X145800Y939000D01*
X147300D01*
X148050Y938250D01*
X145050Y937500D02*X148050D01*
Y938250D02*Y937500D01*
X152850Y942000D02*Y936000D01*
X152100D02*X152850Y936750D01*
X150600Y936000D02*X152100D01*
X149850Y936750D02*X150600Y936000D01*
X149850Y938250D02*Y936750D01*
Y938250D02*X150600Y939000D01*
X152100D01*
X152850Y938250D01*
G54D120*X157350Y940500D02*Y940350D01*
G54D119*Y938250D02*Y936000D01*
X159600Y938250D02*Y936000D01*
Y938250D02*X160350Y939000D01*
X161100D01*
X161850Y938250D01*
Y936000D01*
X158850Y939000D02*X159600Y938250D01*
X167100Y942000D02*Y936750D01*
X167850Y936000D01*
X166350Y939750D02*X167850D01*
X169350Y942000D02*Y936000D01*
Y938250D02*X170100Y939000D01*
X171600D01*
X172350Y938250D01*
Y936000D01*
G54D120*X174150Y940500D02*Y940350D01*
G54D119*Y938250D02*Y936000D01*
X176400D02*X178650D01*
X179400Y936750D01*
X178650Y937500D02*X179400Y936750D01*
X176400Y937500D02*X178650D01*
X175650Y938250D02*X176400Y937500D01*
X175650Y938250D02*X176400Y939000D01*
X178650D01*
X179400Y938250D01*
X175650Y936750D02*X176400Y936000D01*
X183900Y942000D02*Y936750D01*
X184650Y936000D01*
X188400Y939000D02*X189150Y938250D01*
X186900Y939000D02*X188400D01*
X186150Y938250D02*X186900Y939000D01*
X186150Y938250D02*Y936750D01*
X186900Y936000D01*
X189150Y939000D02*Y936750D01*
X189900Y936000D01*
X186900D02*X188400D01*
X189150Y936750D01*
X191700Y939000D02*Y936750D01*
X192450Y936000D01*
X194700Y939000D02*Y934500D01*
X193950Y933750D02*X194700Y934500D01*
X192450Y933750D02*X193950D01*
X191700Y934500D02*X192450Y933750D01*
Y936000D02*X193950D01*
X194700Y936750D01*
X196500Y938250D02*Y936750D01*
Y938250D02*X197250Y939000D01*
X198750D01*
X199500Y938250D01*
Y936750D01*
X198750Y936000D02*X199500Y936750D01*
X197250Y936000D02*X198750D01*
X196500Y936750D02*X197250Y936000D01*
X201300Y939000D02*Y936750D01*
X202050Y936000D01*
X203550D01*
X204300Y936750D01*
Y939000D02*Y936750D01*
X206850Y942000D02*Y936750D01*
X207600Y936000D01*
X206100Y939750D02*X207600D01*
X209100Y934500D02*X210600Y936000D01*
X217350Y942000D02*X218100Y941250D01*
X215850Y942000D02*X217350D01*
X215100Y941250D02*X215850Y942000D01*
X215100Y941250D02*Y936750D01*
X215850Y936000D01*
X217350Y939300D02*X218100Y938550D01*
X215100Y939300D02*X217350D01*
X215850Y936000D02*X217350D01*
X218100Y936750D01*
Y938550D02*Y936750D01*
X219900Y942000D02*X222900D01*
X219900D02*Y939000D01*
X220650Y939750D01*
X222150D01*
X222900Y939000D01*
Y936750D01*
X222150Y936000D02*X222900Y936750D01*
X220650Y936000D02*X222150D01*
X219900Y936750D02*X220650Y936000D01*
X227400Y942000D02*Y936000D01*
Y938250D02*X228150Y939000D01*
X229650D01*
X230400Y938250D01*
Y936000D01*
X232200Y938250D02*Y936750D01*
Y938250D02*X232950Y939000D01*
X234450D01*
X235200Y938250D01*
Y936750D01*
X234450Y936000D02*X235200Y936750D01*
X232950Y936000D02*X234450D01*
X232200Y936750D02*X232950Y936000D01*
X237000Y942000D02*Y936750D01*
X237750Y936000D01*
X240000D02*X242250D01*
X239250Y936750D02*X240000Y936000D01*
X239250Y938250D02*Y936750D01*
Y938250D02*X240000Y939000D01*
X241500D01*
X242250Y938250D01*
X239250Y937500D02*X242250D01*
Y938250D02*Y937500D01*
X244800Y936000D02*X247050D01*
X247800Y936750D01*
X247050Y937500D02*X247800Y936750D01*
X244800Y937500D02*X247050D01*
X244050Y938250D02*X244800Y937500D01*
X244050Y938250D02*X244800Y939000D01*
X247050D01*
X247800Y938250D01*
X244050Y936750D02*X244800Y936000D01*
X253050Y942000D02*Y936750D01*
X253800Y936000D01*
X252300Y939750D02*X253800D01*
X255300Y938250D02*Y936750D01*
Y938250D02*X256050Y939000D01*
X257550D01*
X258300Y938250D01*
Y936750D01*
X257550Y936000D02*X258300Y936750D01*
X256050Y936000D02*X257550D01*
X255300Y936750D02*X256050Y936000D01*
X260850Y942000D02*Y936750D01*
X261600Y936000D01*
X260100Y939750D02*X261600D01*
X265350Y939000D02*X266100Y938250D01*
X263850Y939000D02*X265350D01*
X263100Y938250D02*X263850Y939000D01*
X263100Y938250D02*Y936750D01*
X263850Y936000D01*
X266100Y939000D02*Y936750D01*
X266850Y936000D01*
X263850D02*X265350D01*
X266100Y936750D01*
X268650Y942000D02*Y936750D01*
X269400Y936000D01*
G54D121*X447500Y835000D02*Y508000D01*
X7500D01*
Y835000D01*
X447500D01*
G54D119*X141175Y-9500D02*X144175D01*
X144925Y-8750D01*
Y-6950D02*Y-8750D01*
X144175Y-6200D02*X144925Y-6950D01*
X141925Y-6200D02*X144175D01*
X141925Y-3500D02*Y-9500D01*
X141175Y-3500D02*X144175D01*
X144925Y-4250D01*
Y-5450D01*
X144175Y-6200D02*X144925Y-5450D01*
X146725Y-7250D02*Y-8750D01*
Y-7250D02*X147475Y-6500D01*
X148975D01*
X149725Y-7250D01*
Y-8750D01*
X148975Y-9500D02*X149725Y-8750D01*
X147475Y-9500D02*X148975D01*
X146725Y-8750D02*X147475Y-9500D01*
X153775Y-6500D02*X154525Y-7250D01*
X152275Y-6500D02*X153775D01*
X151525Y-7250D02*X152275Y-6500D01*
X151525Y-7250D02*Y-8750D01*
X152275Y-9500D01*
X154525Y-6500D02*Y-8750D01*
X155275Y-9500D01*
X152275D02*X153775D01*
X154525Y-8750D01*
X157825Y-7250D02*Y-9500D01*
Y-7250D02*X158575Y-6500D01*
X160075D01*
X157075D02*X157825Y-7250D01*
X164875Y-3500D02*Y-9500D01*
X164125D02*X164875Y-8750D01*
X162625Y-9500D02*X164125D01*
X161875Y-8750D02*X162625Y-9500D01*
X161875Y-7250D02*Y-8750D01*
Y-7250D02*X162625Y-6500D01*
X164125D01*
X164875Y-7250D01*
X169375D02*Y-8750D01*
Y-7250D02*X170125Y-6500D01*
X171625D01*
X172375Y-7250D01*
Y-8750D01*
X171625Y-9500D02*X172375Y-8750D01*
X170125Y-9500D02*X171625D01*
X169375Y-8750D02*X170125Y-9500D01*
X174175Y-6500D02*Y-8750D01*
X174925Y-9500D01*
X176425D01*
X177175Y-8750D01*
Y-6500D02*Y-8750D01*
X179725Y-3500D02*Y-8750D01*
X180475Y-9500D01*
X178975Y-5750D02*X180475D01*
X181975Y-3500D02*Y-8750D01*
X182725Y-9500D01*
G54D120*X184225Y-5000D02*Y-5150D01*
G54D119*Y-7250D02*Y-9500D01*
X186475Y-7250D02*Y-9500D01*
Y-7250D02*X187225Y-6500D01*
X187975D01*
X188725Y-7250D01*
Y-9500D01*
X185725Y-6500D02*X186475Y-7250D01*
X191275Y-9500D02*X193525D01*
X190525Y-8750D02*X191275Y-9500D01*
X190525Y-7250D02*Y-8750D01*
Y-7250D02*X191275Y-6500D01*
X192775D01*
X193525Y-7250D01*
X190525Y-8000D02*X193525D01*
Y-7250D02*Y-8000D01*
G54D120*X198025Y-5000D02*Y-5150D01*
G54D119*Y-7250D02*Y-9500D01*
X200275D02*X202525D01*
X203275Y-8750D01*
X202525Y-8000D02*X203275Y-8750D01*
X200275Y-8000D02*X202525D01*
X199525Y-7250D02*X200275Y-8000D01*
X199525Y-7250D02*X200275Y-6500D01*
X202525D01*
X203275Y-7250D01*
X199525Y-8750D02*X200275Y-9500D01*
X208525Y-3500D02*Y-8750D01*
X209275Y-9500D01*
X207775Y-5750D02*X209275D01*
X210775Y-3500D02*Y-9500D01*
Y-7250D02*X211525Y-6500D01*
X213025D01*
X213775Y-7250D01*
Y-9500D01*
X216325D02*X218575D01*
X215575Y-8750D02*X216325Y-9500D01*
X215575Y-7250D02*Y-8750D01*
Y-7250D02*X216325Y-6500D01*
X217825D01*
X218575Y-7250D01*
X215575Y-8000D02*X218575D01*
Y-7250D02*Y-8000D01*
X223825Y-6500D02*X226075D01*
X223075Y-7250D02*X223825Y-6500D01*
X223075Y-7250D02*Y-8750D01*
X223825Y-9500D01*
X226075D01*
X228625D02*X230875D01*
X227875Y-8750D02*X228625Y-9500D01*
X227875Y-7250D02*Y-8750D01*
Y-7250D02*X228625Y-6500D01*
X230125D01*
X230875Y-7250D01*
X227875Y-8000D02*X230875D01*
Y-7250D02*Y-8000D01*
X233425Y-7250D02*Y-9500D01*
Y-7250D02*X234175Y-6500D01*
X234925D01*
X235675Y-7250D01*
Y-9500D01*
X232675Y-6500D02*X233425Y-7250D01*
X238225Y-3500D02*Y-8750D01*
X238975Y-9500D01*
X237475Y-5750D02*X238975D01*
X241225Y-9500D02*X243475D01*
X240475Y-8750D02*X241225Y-9500D01*
X240475Y-7250D02*Y-8750D01*
Y-7250D02*X241225Y-6500D01*
X242725D01*
X243475Y-7250D01*
X240475Y-8000D02*X243475D01*
Y-7250D02*Y-8000D01*
X246025Y-7250D02*Y-9500D01*
Y-7250D02*X246775Y-6500D01*
X248275D01*
X245275D02*X246025Y-7250D01*
X250075Y-3500D02*Y-8750D01*
X250825Y-9500D01*
G54D120*X252325Y-5000D02*Y-5150D01*
G54D119*Y-7250D02*Y-9500D01*
X254575Y-7250D02*Y-9500D01*
Y-7250D02*X255325Y-6500D01*
X256075D01*
X256825Y-7250D01*
Y-9500D01*
X253825Y-6500D02*X254575Y-7250D01*
X259375Y-9500D02*X261625D01*
X258625Y-8750D02*X259375Y-9500D01*
X258625Y-7250D02*Y-8750D01*
Y-7250D02*X259375Y-6500D01*
X260875D01*
X261625Y-7250D01*
X258625Y-8000D02*X261625D01*
Y-7250D02*Y-8000D01*
X266125Y-7250D02*Y-8750D01*
Y-7250D02*X266875Y-6500D01*
X268375D01*
X269125Y-7250D01*
Y-8750D01*
X268375Y-9500D02*X269125Y-8750D01*
X266875Y-9500D02*X268375D01*
X266125Y-8750D02*X266875Y-9500D01*
X271675Y-4250D02*Y-9500D01*
Y-4250D02*X272425Y-3500D01*
X273175D01*
X270925Y-6500D02*X272425D01*
X278125Y-3500D02*Y-8750D01*
X278875Y-9500D01*
X277375Y-5750D02*X278875D01*
X280375Y-3500D02*Y-9500D01*
Y-7250D02*X281125Y-6500D01*
X282625D01*
X283375Y-7250D01*
Y-9500D01*
G54D120*X285175Y-5000D02*Y-5150D01*
G54D119*Y-7250D02*Y-9500D01*
X287425D02*X289675D01*
X290425Y-8750D01*
X289675Y-8000D02*X290425Y-8750D01*
X287425Y-8000D02*X289675D01*
X286675Y-7250D02*X287425Y-8000D01*
X286675Y-7250D02*X287425Y-6500D01*
X289675D01*
X290425Y-7250D01*
X286675Y-8750D02*X287425Y-9500D01*
X295675Y-7250D02*Y-11750D01*
X294925Y-6500D02*X295675Y-7250D01*
X296425Y-6500D01*
X297925D01*
X298675Y-7250D01*
Y-8750D01*
X297925Y-9500D02*X298675Y-8750D01*
X296425Y-9500D02*X297925D01*
X295675Y-8750D02*X296425Y-9500D01*
X302725Y-6500D02*X303475Y-7250D01*
X301225Y-6500D02*X302725D01*
X300475Y-7250D02*X301225Y-6500D01*
X300475Y-7250D02*Y-8750D01*
X301225Y-9500D01*
X303475Y-6500D02*Y-8750D01*
X304225Y-9500D01*
X301225D02*X302725D01*
X303475Y-8750D01*
X306775Y-3500D02*Y-8750D01*
X307525Y-9500D01*
X306025Y-5750D02*X307525D01*
X309025Y-3500D02*Y-9500D01*
Y-7250D02*X309775Y-6500D01*
X311275D01*
X312025Y-7250D01*
Y-9500D01*
X200750Y882000D02*Y876000D01*
X202700Y882000D02*X203750Y880950D01*
Y877050D01*
X202700Y876000D02*X203750Y877050D01*
X200000Y876000D02*X202700D01*
X200000Y882000D02*X202700D01*
X207800Y879000D02*X208550Y878250D01*
X206300Y879000D02*X207800D01*
X205550Y878250D02*X206300Y879000D01*
X205550Y878250D02*Y876750D01*
X206300Y876000D01*
X208550Y879000D02*Y876750D01*
X209300Y876000D01*
X206300D02*X207800D01*
X208550Y876750D01*
X211850Y882000D02*Y876750D01*
X212600Y876000D01*
X211100Y879750D02*X212600D01*
X214850Y876000D02*X217100D01*
X214100Y876750D02*X214850Y876000D01*
X214100Y878250D02*Y876750D01*
Y878250D02*X214850Y879000D01*
X216350D01*
X217100Y878250D01*
X214100Y877500D02*X217100D01*
Y878250D02*Y877500D01*
X218900Y879750D02*X219650D01*
X218900Y878250D02*X219650D01*
X224150Y882000D02*X227150D01*
X225650D02*Y876000D01*
X228950Y882000D02*Y876000D01*
Y878250D02*X229700Y879000D01*
X231200D01*
X231950Y878250D01*
Y876000D01*
X233750Y879000D02*Y876750D01*
X234500Y876000D01*
X236000D01*
X236750Y876750D01*
Y879000D02*Y876750D01*
X241250Y881250D02*Y876750D01*
Y881250D02*X242000Y882000D01*
X243500D01*
X244250Y881250D01*
Y876750D01*
X243500Y876000D02*X244250Y876750D01*
X242000Y876000D02*X243500D01*
X241250Y876750D02*X242000Y876000D01*
X246800Y879000D02*X249050D01*
X246050Y878250D02*X246800Y879000D01*
X246050Y878250D02*Y876750D01*
X246800Y876000D01*
X249050D01*
X251600Y882000D02*Y876750D01*
X252350Y876000D01*
X250850Y879750D02*X252350D01*
X256550Y881250D02*X257300Y882000D01*
X259550D01*
X260300Y881250D01*
Y879750D01*
X256550Y876000D02*X260300Y879750D01*
X256550Y876000D02*X260300D01*
X262100Y882000D02*X265100D01*
X262100D02*Y879000D01*
X262850Y879750D01*
X264350D01*
X265100Y879000D01*
Y876750D01*
X264350Y876000D02*X265100Y876750D01*
X262850Y876000D02*X264350D01*
X262100Y876750D02*X262850Y876000D01*
X269600Y880800D02*X270800Y882000D01*
Y876000D01*
X269600D02*X271850D01*
X274400D02*X276650Y879000D01*
Y881250D02*Y879000D01*
X275900Y882000D02*X276650Y881250D01*
X274400Y882000D02*X275900D01*
X273650Y881250D02*X274400Y882000D01*
X273650Y881250D02*Y879750D01*
X274400Y879000D01*
X276650D01*
X278450Y879750D02*X279200D01*
X278450Y878250D02*X279200D01*
X281000D02*X284000Y882000D01*
X281000Y878250D02*X284750D01*
X284000Y882000D02*Y876000D01*
X286550Y881250D02*X287300Y882000D01*
X289550D01*
X290300Y881250D01*
Y879750D01*
X286550Y876000D02*X290300Y879750D01*
X286550Y876000D02*X290300D01*
X292100Y879750D02*X292850D01*
X292100Y878250D02*X292850D01*
X294650Y881250D02*X295400Y882000D01*
X297650D01*
X298400Y881250D01*
Y879750D01*
X294650Y876000D02*X298400Y879750D01*
X294650Y876000D02*X298400D01*
X300200Y881250D02*X300950Y882000D01*
X302450D01*
X303200Y881250D01*
X302450Y876000D02*X303200Y876750D01*
X300950Y876000D02*X302450D01*
X300200Y876750D02*X300950Y876000D01*
Y879300D02*X302450D01*
X303200Y881250D02*Y880050D01*
Y878550D02*Y876750D01*
Y878550D02*X302450Y879300D01*
X303200Y880050D02*X302450Y879300D01*
X307700Y881250D02*X308450Y882000D01*
X310700D01*
X311450Y881250D01*
Y879750D01*
X307700Y876000D02*X311450Y879750D01*
X307700Y876000D02*X311450D01*
X313250Y876750D02*X314000Y876000D01*
X313250Y881250D02*Y876750D01*
Y881250D02*X314000Y882000D01*
X315500D01*
X316250Y881250D01*
Y876750D01*
X315500Y876000D02*X316250Y876750D01*
X314000Y876000D02*X315500D01*
X313250Y877500D02*X316250Y880500D01*
X318050Y880800D02*X319250Y882000D01*
Y876000D01*
X318050D02*X320300D01*
X322100Y881250D02*X322850Y882000D01*
X325100D01*
X325850Y881250D01*
Y879750D01*
X322100Y876000D02*X325850Y879750D01*
X322100Y876000D02*X325850D01*
X330350Y882000D02*Y876750D01*
X331100Y876000D01*
X332600D01*
X333350Y876750D01*
Y882000D02*Y876750D01*
X335150Y882000D02*X338150D01*
X336650D02*Y876000D01*
X341000D02*X342950D01*
X339950Y877050D02*X341000Y876000D01*
X339950Y880950D02*Y877050D01*
Y880950D02*X341000Y882000D01*
X342950D01*
X200000Y895500D02*Y891000D01*
Y895500D02*X201050Y897000D01*
X202700D01*
X203750Y895500D01*
Y891000D01*
X200000Y894000D02*X203750D01*
X205550D02*Y891750D01*
X206300Y891000D01*
X207800D01*
X208550Y891750D01*
Y894000D02*Y891750D01*
X211100Y897000D02*Y891750D01*
X211850Y891000D01*
X210350Y894750D02*X211850D01*
X213350Y897000D02*Y891000D01*
Y893250D02*X214100Y894000D01*
X215600D01*
X216350Y893250D01*
Y891000D01*
X218150Y893250D02*Y891750D01*
Y893250D02*X218900Y894000D01*
X220400D01*
X221150Y893250D01*
Y891750D01*
X220400Y891000D02*X221150Y891750D01*
X218900Y891000D02*X220400D01*
X218150Y891750D02*X218900Y891000D01*
X223700Y893250D02*Y891000D01*
Y893250D02*X224450Y894000D01*
X225950D01*
X222950D02*X223700Y893250D01*
X227750Y894750D02*X228500D01*
X227750Y893250D02*X228500D01*
X200000Y912000D02*X203000D01*
X201500D02*Y906000D01*
G54D120*X204800Y910500D02*Y910350D01*
G54D119*Y908250D02*Y906000D01*
X207050Y912000D02*Y906750D01*
X207800Y906000D01*
X206300Y909750D02*X207800D01*
X209300Y912000D02*Y906750D01*
X210050Y906000D01*
X212300D02*X214550D01*
X211550Y906750D02*X212300Y906000D01*
X211550Y908250D02*Y906750D01*
Y908250D02*X212300Y909000D01*
X213800D01*
X214550Y908250D01*
X211550Y907500D02*X214550D01*
Y908250D02*Y907500D01*
X216350Y909750D02*X217100D01*
X216350Y908250D02*X217100D01*
X221600Y906750D02*X222350Y906000D01*
X221600Y911250D02*X222350Y912000D01*
X221600Y911250D02*Y906750D01*
X224150Y909000D02*Y906750D01*
X224900Y906000D01*
X226400D01*
X227150Y906750D01*
Y909000D02*Y906750D01*
X229700Y908250D02*Y906000D01*
Y908250D02*X230450Y909000D01*
X231200D01*
X231950Y908250D01*
Y906000D01*
X228950Y909000D02*X229700Y908250D01*
X233750Y912000D02*Y906000D01*
Y908250D02*X236000Y906000D01*
X233750Y908250D02*X235250Y909750D01*
X238550Y908250D02*Y906000D01*
Y908250D02*X239300Y909000D01*
X240050D01*
X240800Y908250D01*
Y906000D01*
X237800Y909000D02*X238550Y908250D01*
X242600D02*Y906750D01*
Y908250D02*X243350Y909000D01*
X244850D01*
X245600Y908250D01*
Y906750D01*
X244850Y906000D02*X245600Y906750D01*
X243350Y906000D02*X244850D01*
X242600Y906750D02*X243350Y906000D01*
X247400Y909000D02*Y906750D01*
X248150Y906000D01*
X248900D01*
X249650Y906750D01*
Y909000D02*Y906750D01*
X250400Y906000D01*
X251150D01*
X251900Y906750D01*
Y909000D02*Y906750D01*
X254450Y908250D02*Y906000D01*
Y908250D02*X255200Y909000D01*
X255950D01*
X256700Y908250D01*
Y906000D01*
X253700Y909000D02*X254450Y908250D01*
X258500Y912000D02*X259250Y911250D01*
Y906750D01*
X258500Y906000D02*X259250Y906750D01*
X263750Y909000D02*X266750D01*
X271250Y912000D02*Y906000D01*
Y912000D02*X274250D01*
X271250Y909300D02*X273500D01*
X278300Y909000D02*X279050Y908250D01*
X276800Y909000D02*X278300D01*
X276050Y908250D02*X276800Y909000D01*
X276050Y908250D02*Y906750D01*
X276800Y906000D01*
X279050Y909000D02*Y906750D01*
X279800Y906000D01*
X276800D02*X278300D01*
X279050Y906750D01*
X281600Y912000D02*Y906000D01*
Y906750D02*X282350Y906000D01*
X283850D01*
X284600Y906750D01*
Y908250D02*Y906750D01*
X283850Y909000D02*X284600Y908250D01*
X282350Y909000D02*X283850D01*
X281600Y908250D02*X282350Y909000D01*
X287150Y908250D02*Y906000D01*
Y908250D02*X287900Y909000D01*
X289400D01*
X286400D02*X287150Y908250D01*
G54D120*X291200Y910500D02*Y910350D01*
G54D119*Y908250D02*Y906000D01*
X293450Y909000D02*X295700D01*
X292700Y908250D02*X293450Y909000D01*
X292700Y908250D02*Y906750D01*
X293450Y906000D01*
X295700D01*
X299750Y909000D02*X300500Y908250D01*
X298250Y909000D02*X299750D01*
X297500Y908250D02*X298250Y909000D01*
X297500Y908250D02*Y906750D01*
X298250Y906000D01*
X300500Y909000D02*Y906750D01*
X301250Y906000D01*
X298250D02*X299750D01*
X300500Y906750D01*
X303800Y912000D02*Y906750D01*
X304550Y906000D01*
X303050Y909750D02*X304550D01*
G54D120*X306050Y910500D02*Y910350D01*
G54D119*Y908250D02*Y906000D01*
X307550Y908250D02*Y906750D01*
Y908250D02*X308300Y909000D01*
X309800D01*
X310550Y908250D01*
Y906750D01*
X309800Y906000D02*X310550Y906750D01*
X308300Y906000D02*X309800D01*
X307550Y906750D02*X308300Y906000D01*
X313100Y908250D02*Y906000D01*
Y908250D02*X313850Y909000D01*
X314600D01*
X315350Y908250D01*
Y906000D01*
X312350Y909000D02*X313100Y908250D01*
X320600Y912000D02*Y906000D01*
X322550Y912000D02*X323600Y910950D01*
Y907050D01*
X322550Y906000D02*X323600Y907050D01*
X319850Y906000D02*X322550D01*
X319850Y912000D02*X322550D01*
X326150Y908250D02*Y906000D01*
Y908250D02*X326900Y909000D01*
X328400D01*
X325400D02*X326150Y908250D01*
X332450Y909000D02*X333200Y908250D01*
X330950Y909000D02*X332450D01*
X330200Y908250D02*X330950Y909000D01*
X330200Y908250D02*Y906750D01*
X330950Y906000D01*
X333200Y909000D02*Y906750D01*
X333950Y906000D01*
X330950D02*X332450D01*
X333200Y906750D01*
X335750Y909000D02*Y906750D01*
X336500Y906000D01*
X337250D01*
X338000Y906750D01*
Y909000D02*Y906750D01*
X338750Y906000D01*
X339500D01*
X340250Y906750D01*
Y909000D02*Y906750D01*
G54D120*X342050Y910500D02*Y910350D01*
G54D119*Y908250D02*Y906000D01*
X344300Y908250D02*Y906000D01*
Y908250D02*X345050Y909000D01*
X345800D01*
X346550Y908250D01*
Y906000D01*
X343550Y909000D02*X344300Y908250D01*
X350600Y909000D02*X351350Y908250D01*
X349100Y909000D02*X350600D01*
X348350Y908250D02*X349100Y909000D01*
X348350Y908250D02*Y906750D01*
X349100Y906000D01*
X350600D01*
X351350Y906750D01*
X348350Y904500D02*X349100Y903750D01*
X350600D01*
X351350Y904500D01*
Y909000D02*Y904500D01*
M02*
