G04 start of page 4 for group 3 idx 2 *
G04 Title: (unknown), 3GND *
G04 Creator: pcb 20110918 *
G04 CreationDate: Mon Oct 15 17:27:05 2012 UTC *
G04 For: fosse *
G04 Format: Gerber/RS-274X *
G04 PCB-Dimensions: 600000 500000 *
G04 PCB-Coordinate-Origin: lower left *
%MOIN*%
%FSLAX25Y25*%
%LNGROUP3*%
%ADD44C,0.0300*%
%ADD43C,0.0350*%
%ADD42C,0.0200*%
%ADD41C,0.0600*%
%ADD40C,0.0360*%
%ADD39C,0.0550*%
%ADD38C,0.0001*%
G54D38*G36*
X265883Y452559D02*X379973D01*
Y242559D01*
X265883D01*
Y344214D01*
X265894Y344227D01*
X266125Y344603D01*
X266293Y345010D01*
X266396Y345439D01*
X266422Y345878D01*
X266396Y346317D01*
X266293Y346746D01*
X266125Y347153D01*
X265894Y347529D01*
X265883Y347542D01*
Y390367D01*
X265951Y390381D01*
X266024Y390408D01*
X266093Y390447D01*
X266155Y390496D01*
X266208Y390554D01*
X266251Y390619D01*
X266283Y390691D01*
X266359Y390924D01*
X266413Y391164D01*
X266445Y391408D01*
X266456Y391653D01*
X266445Y391898D01*
X266413Y392142D01*
X266359Y392382D01*
X266285Y392616D01*
X266253Y392688D01*
X266209Y392753D01*
X266156Y392812D01*
X266094Y392861D01*
X266025Y392899D01*
X265951Y392927D01*
X265883Y392941D01*
Y452559D01*
G37*
G36*
Y242559D02*X263618D01*
Y343070D01*
X263622Y343069D01*
X264061Y343104D01*
X264490Y343207D01*
X264897Y343375D01*
X265273Y343606D01*
X265608Y343892D01*
X265883Y344214D01*
Y242559D01*
G37*
G36*
X263618Y452559D02*X265883D01*
Y392941D01*
X265874Y392943D01*
X265795Y392946D01*
X265716Y392937D01*
X265640Y392916D01*
X265568Y392883D01*
X265503Y392839D01*
X265444Y392786D01*
X265395Y392724D01*
X265357Y392655D01*
X265329Y392581D01*
X265313Y392504D01*
X265310Y392425D01*
X265319Y392346D01*
X265342Y392271D01*
X265391Y392121D01*
X265425Y391967D01*
X265446Y391811D01*
X265453Y391653D01*
X265446Y391495D01*
X265425Y391339D01*
X265391Y391185D01*
X265343Y391035D01*
X265321Y390959D01*
X265312Y390881D01*
X265315Y390803D01*
X265331Y390726D01*
X265358Y390652D01*
X265397Y390583D01*
X265446Y390522D01*
X265504Y390468D01*
X265569Y390425D01*
X265641Y390392D01*
X265717Y390371D01*
X265795Y390362D01*
X265873Y390365D01*
X265883Y390367D01*
Y347542D01*
X265608Y347864D01*
X265273Y348150D01*
X264897Y348381D01*
X264490Y348549D01*
X264061Y348652D01*
X263622Y348687D01*
X263618Y348686D01*
Y388852D01*
X263653Y388850D01*
X263898Y388861D01*
X264142Y388893D01*
X264382Y388947D01*
X264616Y389021D01*
X264688Y389053D01*
X264753Y389097D01*
X264812Y389150D01*
X264861Y389212D01*
X264899Y389281D01*
X264927Y389355D01*
X264943Y389432D01*
X264946Y389511D01*
X264937Y389590D01*
X264916Y389666D01*
X264883Y389738D01*
X264839Y389803D01*
X264786Y389862D01*
X264724Y389911D01*
X264655Y389949D01*
X264581Y389977D01*
X264504Y389993D01*
X264425Y389996D01*
X264346Y389987D01*
X264271Y389964D01*
X264121Y389915D01*
X263967Y389881D01*
X263811Y389860D01*
X263653Y389853D01*
X263618Y389855D01*
Y393451D01*
X263653Y393453D01*
X263811Y393446D01*
X263967Y393425D01*
X264121Y393391D01*
X264271Y393343D01*
X264347Y393321D01*
X264425Y393312D01*
X264503Y393315D01*
X264580Y393331D01*
X264654Y393358D01*
X264723Y393397D01*
X264784Y393446D01*
X264838Y393504D01*
X264881Y393569D01*
X264914Y393641D01*
X264935Y393717D01*
X264944Y393795D01*
X264941Y393873D01*
X264925Y393951D01*
X264898Y394024D01*
X264859Y394093D01*
X264810Y394155D01*
X264752Y394208D01*
X264687Y394251D01*
X264615Y394283D01*
X264382Y394359D01*
X264142Y394413D01*
X263898Y394445D01*
X263653Y394456D01*
X263618Y394454D01*
Y452559D01*
G37*
G36*
X261423Y344141D02*X261636Y343892D01*
X261971Y343606D01*
X262347Y343375D01*
X262754Y343207D01*
X263183Y343104D01*
X263618Y343070D01*
Y242559D01*
X261423D01*
Y344141D01*
G37*
G36*
Y452559D02*X263618D01*
Y394454D01*
X263408Y394445D01*
X263164Y394413D01*
X262924Y394359D01*
X262690Y394285D01*
X262618Y394253D01*
X262553Y394209D01*
X262494Y394156D01*
X262445Y394094D01*
X262407Y394025D01*
X262379Y393951D01*
X262363Y393874D01*
X262360Y393795D01*
X262369Y393716D01*
X262390Y393640D01*
X262423Y393568D01*
X262467Y393503D01*
X262520Y393444D01*
X262582Y393395D01*
X262651Y393357D01*
X262725Y393329D01*
X262802Y393313D01*
X262881Y393310D01*
X262960Y393319D01*
X263035Y393342D01*
X263185Y393391D01*
X263339Y393425D01*
X263495Y393446D01*
X263618Y393451D01*
Y389855D01*
X263495Y389860D01*
X263339Y389881D01*
X263185Y389915D01*
X263035Y389963D01*
X262959Y389985D01*
X262881Y389994D01*
X262803Y389991D01*
X262726Y389975D01*
X262652Y389948D01*
X262583Y389909D01*
X262522Y389860D01*
X262468Y389802D01*
X262425Y389737D01*
X262392Y389665D01*
X262371Y389589D01*
X262362Y389511D01*
X262365Y389433D01*
X262381Y389355D01*
X262408Y389282D01*
X262447Y389213D01*
X262496Y389151D01*
X262554Y389098D01*
X262619Y389055D01*
X262691Y389023D01*
X262924Y388947D01*
X263164Y388893D01*
X263408Y388861D01*
X263618Y388852D01*
Y348686D01*
X263183Y348652D01*
X262754Y348549D01*
X262347Y348381D01*
X261971Y348150D01*
X261636Y347864D01*
X261423Y347615D01*
Y390365D01*
X261432Y390363D01*
X261511Y390360D01*
X261590Y390369D01*
X261666Y390390D01*
X261738Y390423D01*
X261803Y390467D01*
X261862Y390520D01*
X261911Y390582D01*
X261949Y390651D01*
X261977Y390725D01*
X261993Y390802D01*
X261996Y390881D01*
X261987Y390960D01*
X261964Y391035D01*
X261915Y391185D01*
X261881Y391339D01*
X261860Y391495D01*
X261853Y391653D01*
X261860Y391811D01*
X261881Y391967D01*
X261915Y392121D01*
X261963Y392271D01*
X261985Y392347D01*
X261994Y392425D01*
X261991Y392503D01*
X261975Y392580D01*
X261948Y392654D01*
X261909Y392723D01*
X261860Y392784D01*
X261802Y392838D01*
X261737Y392881D01*
X261665Y392914D01*
X261589Y392935D01*
X261511Y392944D01*
X261433Y392941D01*
X261423Y392939D01*
Y452559D01*
G37*
G36*
X220576D02*X261423D01*
Y392939D01*
X261355Y392925D01*
X261282Y392898D01*
X261213Y392859D01*
X261151Y392810D01*
X261098Y392752D01*
X261055Y392687D01*
X261023Y392615D01*
X260947Y392382D01*
X260893Y392142D01*
X260861Y391898D01*
X260850Y391653D01*
X260861Y391408D01*
X260893Y391164D01*
X260947Y390924D01*
X261021Y390690D01*
X261053Y390618D01*
X261097Y390553D01*
X261150Y390494D01*
X261212Y390445D01*
X261281Y390407D01*
X261355Y390379D01*
X261423Y390365D01*
Y347615D01*
X261350Y347529D01*
X261119Y347153D01*
X260951Y346746D01*
X260848Y346317D01*
X260813Y345878D01*
X260848Y345439D01*
X260951Y345010D01*
X261119Y344603D01*
X261350Y344227D01*
X261423Y344141D01*
Y242559D01*
X220576D01*
Y343368D01*
X220644Y343382D01*
X220717Y343409D01*
X220786Y343448D01*
X220848Y343497D01*
X220901Y343555D01*
X220944Y343620D01*
X220976Y343692D01*
X221052Y343925D01*
X221106Y344165D01*
X221138Y344409D01*
X221149Y344654D01*
X221138Y344899D01*
X221106Y345143D01*
X221052Y345383D01*
X220978Y345617D01*
X220946Y345689D01*
X220902Y345754D01*
X220849Y345813D01*
X220787Y345862D01*
X220718Y345900D01*
X220644Y345928D01*
X220576Y345942D01*
Y357225D01*
X221000Y357191D01*
X221439Y357226D01*
X221868Y357329D01*
X222275Y357497D01*
X222651Y357728D01*
X222986Y358014D01*
X223272Y358349D01*
X223503Y358725D01*
X223671Y359132D01*
X223774Y359561D01*
X223800Y360000D01*
X223774Y360439D01*
X223671Y360868D01*
X223503Y361275D01*
X223272Y361651D01*
X222986Y361986D01*
X222651Y362272D01*
X222275Y362503D01*
X221868Y362671D01*
X221439Y362774D01*
X221000Y362809D01*
X220576Y362775D01*
Y373961D01*
X220849Y373728D01*
X221225Y373497D01*
X221632Y373329D01*
X222061Y373226D01*
X222500Y373191D01*
X222939Y373226D01*
X223368Y373329D01*
X223775Y373497D01*
X224151Y373728D01*
X224486Y374014D01*
X224772Y374349D01*
X225003Y374725D01*
X225171Y375132D01*
X225274Y375561D01*
X225300Y376000D01*
X225274Y376439D01*
X225171Y376868D01*
X225003Y377275D01*
X224772Y377651D01*
X224486Y377986D01*
X224151Y378272D01*
X223775Y378503D01*
X223368Y378671D01*
X222939Y378774D01*
X222500Y378809D01*
X222061Y378774D01*
X221632Y378671D01*
X221225Y378503D01*
X220849Y378272D01*
X220576Y378039D01*
Y393367D01*
X220645Y393381D01*
X220718Y393408D01*
X220787Y393447D01*
X220849Y393496D01*
X220902Y393554D01*
X220945Y393619D01*
X220977Y393691D01*
X221053Y393924D01*
X221107Y394164D01*
X221139Y394408D01*
X221150Y394653D01*
X221139Y394898D01*
X221107Y395142D01*
X221053Y395382D01*
X220979Y395616D01*
X220947Y395688D01*
X220903Y395753D01*
X220850Y395812D01*
X220788Y395861D01*
X220719Y395899D01*
X220645Y395927D01*
X220576Y395941D01*
Y452559D01*
G37*
G36*
X218136D02*X220576D01*
Y395941D01*
X220568Y395943D01*
X220489Y395946D01*
X220410Y395937D01*
X220334Y395916D01*
X220262Y395883D01*
X220197Y395839D01*
X220138Y395786D01*
X220089Y395724D01*
X220051Y395655D01*
X220023Y395581D01*
X220007Y395504D01*
X220004Y395425D01*
X220013Y395346D01*
X220036Y395271D01*
X220085Y395121D01*
X220119Y394967D01*
X220140Y394811D01*
X220147Y394653D01*
X220140Y394495D01*
X220119Y394339D01*
X220085Y394185D01*
X220037Y394035D01*
X220015Y393959D01*
X220006Y393881D01*
X220009Y393803D01*
X220025Y393726D01*
X220052Y393652D01*
X220091Y393583D01*
X220140Y393522D01*
X220198Y393468D01*
X220263Y393425D01*
X220335Y393392D01*
X220411Y393371D01*
X220489Y393362D01*
X220567Y393365D01*
X220576Y393367D01*
Y378039D01*
X220514Y377986D01*
X220228Y377651D01*
X219997Y377275D01*
X219829Y376868D01*
X219726Y376439D01*
X219691Y376000D01*
X219726Y375561D01*
X219829Y375132D01*
X219997Y374725D01*
X220228Y374349D01*
X220514Y374014D01*
X220576Y373961D01*
Y362775D01*
X220561Y362774D01*
X220132Y362671D01*
X219725Y362503D01*
X219349Y362272D01*
X219014Y361986D01*
X218728Y361651D01*
X218497Y361275D01*
X218329Y360868D01*
X218226Y360439D01*
X218191Y360000D01*
X218226Y359561D01*
X218329Y359132D01*
X218497Y358725D01*
X218728Y358349D01*
X219014Y358014D01*
X219349Y357728D01*
X219725Y357497D01*
X220132Y357329D01*
X220561Y357226D01*
X220576Y357225D01*
Y345942D01*
X220567Y345944D01*
X220488Y345947D01*
X220409Y345938D01*
X220333Y345917D01*
X220261Y345884D01*
X220196Y345840D01*
X220137Y345787D01*
X220088Y345725D01*
X220050Y345656D01*
X220022Y345582D01*
X220006Y345505D01*
X220003Y345426D01*
X220012Y345347D01*
X220035Y345272D01*
X220084Y345122D01*
X220118Y344968D01*
X220139Y344812D01*
X220146Y344654D01*
X220139Y344496D01*
X220118Y344340D01*
X220084Y344186D01*
X220036Y344036D01*
X220014Y343960D01*
X220005Y343882D01*
X220008Y343804D01*
X220024Y343727D01*
X220051Y343653D01*
X220090Y343584D01*
X220139Y343523D01*
X220197Y343469D01*
X220262Y343426D01*
X220334Y343393D01*
X220410Y343372D01*
X220488Y343363D01*
X220566Y343366D01*
X220576Y343368D01*
Y242559D01*
X218136D01*
Y341861D01*
X218346Y341851D01*
X218591Y341862D01*
X218835Y341894D01*
X219075Y341948D01*
X219309Y342022D01*
X219381Y342054D01*
X219446Y342098D01*
X219505Y342151D01*
X219554Y342213D01*
X219592Y342282D01*
X219620Y342356D01*
X219636Y342433D01*
X219639Y342512D01*
X219630Y342591D01*
X219609Y342667D01*
X219576Y342739D01*
X219532Y342804D01*
X219479Y342863D01*
X219417Y342912D01*
X219348Y342950D01*
X219274Y342978D01*
X219197Y342994D01*
X219118Y342997D01*
X219039Y342988D01*
X218964Y342965D01*
X218814Y342916D01*
X218660Y342882D01*
X218504Y342861D01*
X218346Y342854D01*
X218188Y342861D01*
X218136Y342868D01*
Y346440D01*
X218188Y346447D01*
X218346Y346454D01*
X218504Y346447D01*
X218660Y346426D01*
X218814Y346392D01*
X218964Y346344D01*
X219040Y346322D01*
X219118Y346313D01*
X219196Y346316D01*
X219273Y346332D01*
X219347Y346359D01*
X219416Y346398D01*
X219477Y346447D01*
X219531Y346505D01*
X219574Y346570D01*
X219607Y346642D01*
X219628Y346718D01*
X219637Y346796D01*
X219634Y346874D01*
X219618Y346952D01*
X219591Y347025D01*
X219552Y347094D01*
X219503Y347156D01*
X219445Y347209D01*
X219380Y347252D01*
X219308Y347284D01*
X219075Y347360D01*
X218835Y347414D01*
X218591Y347446D01*
X218346Y347457D01*
X218136Y347447D01*
Y354971D01*
X218150Y354976D01*
X218219Y355015D01*
X218281Y355064D01*
X218334Y355122D01*
X218377Y355187D01*
X218409Y355259D01*
X218485Y355492D01*
X218539Y355732D01*
X218571Y355976D01*
X218582Y356221D01*
X218571Y356466D01*
X218539Y356710D01*
X218485Y356950D01*
X218411Y357184D01*
X218379Y357256D01*
X218335Y357321D01*
X218282Y357380D01*
X218220Y357429D01*
X218151Y357467D01*
X218136Y357473D01*
Y374620D01*
X218204Y374634D01*
X218277Y374661D01*
X218346Y374700D01*
X218408Y374749D01*
X218461Y374807D01*
X218504Y374872D01*
X218536Y374944D01*
X218612Y375177D01*
X218666Y375417D01*
X218698Y375661D01*
X218709Y375906D01*
X218698Y376151D01*
X218666Y376395D01*
X218612Y376635D01*
X218538Y376869D01*
X218506Y376941D01*
X218462Y377006D01*
X218409Y377065D01*
X218347Y377114D01*
X218278Y377152D01*
X218204Y377180D01*
X218136Y377194D01*
Y391860D01*
X218347Y391850D01*
X218592Y391861D01*
X218836Y391893D01*
X219076Y391947D01*
X219310Y392021D01*
X219382Y392053D01*
X219447Y392097D01*
X219506Y392150D01*
X219555Y392212D01*
X219593Y392281D01*
X219621Y392355D01*
X219637Y392432D01*
X219640Y392511D01*
X219631Y392590D01*
X219610Y392666D01*
X219577Y392738D01*
X219533Y392803D01*
X219480Y392862D01*
X219418Y392911D01*
X219349Y392949D01*
X219275Y392977D01*
X219198Y392993D01*
X219119Y392996D01*
X219040Y392987D01*
X218965Y392964D01*
X218815Y392915D01*
X218661Y392881D01*
X218505Y392860D01*
X218347Y392853D01*
X218189Y392860D01*
X218136Y392867D01*
Y396439D01*
X218189Y396446D01*
X218347Y396453D01*
X218505Y396446D01*
X218661Y396425D01*
X218815Y396391D01*
X218965Y396343D01*
X219041Y396321D01*
X219119Y396312D01*
X219197Y396315D01*
X219274Y396331D01*
X219348Y396358D01*
X219417Y396397D01*
X219478Y396446D01*
X219532Y396504D01*
X219575Y396569D01*
X219608Y396641D01*
X219629Y396717D01*
X219638Y396795D01*
X219635Y396873D01*
X219619Y396951D01*
X219592Y397024D01*
X219553Y397093D01*
X219504Y397155D01*
X219446Y397208D01*
X219381Y397251D01*
X219309Y397283D01*
X219076Y397359D01*
X218836Y397413D01*
X218592Y397445D01*
X218347Y397456D01*
X218136Y397446D01*
Y452559D01*
G37*
G36*
X215907D02*X218136D01*
Y397446D01*
X218102Y397445D01*
X217858Y397413D01*
X217618Y397359D01*
X217384Y397285D01*
X217312Y397253D01*
X217247Y397209D01*
X217188Y397156D01*
X217139Y397094D01*
X217101Y397025D01*
X217073Y396951D01*
X217057Y396874D01*
X217054Y396795D01*
X217063Y396716D01*
X217084Y396640D01*
X217117Y396568D01*
X217161Y396503D01*
X217214Y396444D01*
X217276Y396395D01*
X217345Y396357D01*
X217419Y396329D01*
X217496Y396313D01*
X217575Y396310D01*
X217654Y396319D01*
X217729Y396342D01*
X217879Y396391D01*
X218033Y396425D01*
X218136Y396439D01*
Y392867D01*
X218033Y392881D01*
X217879Y392915D01*
X217729Y392963D01*
X217653Y392985D01*
X217575Y392994D01*
X217497Y392991D01*
X217420Y392975D01*
X217346Y392948D01*
X217277Y392909D01*
X217216Y392860D01*
X217162Y392802D01*
X217119Y392737D01*
X217086Y392665D01*
X217065Y392589D01*
X217056Y392511D01*
X217059Y392433D01*
X217075Y392355D01*
X217102Y392282D01*
X217141Y392213D01*
X217190Y392151D01*
X217248Y392098D01*
X217313Y392055D01*
X217385Y392023D01*
X217618Y391947D01*
X217858Y391893D01*
X218102Y391861D01*
X218136Y391860D01*
Y377194D01*
X218127Y377196D01*
X218048Y377199D01*
X217969Y377190D01*
X217893Y377169D01*
X217821Y377136D01*
X217756Y377092D01*
X217697Y377039D01*
X217648Y376977D01*
X217610Y376908D01*
X217582Y376834D01*
X217566Y376757D01*
X217563Y376678D01*
X217572Y376599D01*
X217595Y376524D01*
X217644Y376374D01*
X217678Y376220D01*
X217699Y376064D01*
X217706Y375906D01*
X217699Y375748D01*
X217678Y375592D01*
X217644Y375438D01*
X217596Y375288D01*
X217574Y375212D01*
X217565Y375134D01*
X217568Y375056D01*
X217584Y374979D01*
X217611Y374905D01*
X217650Y374836D01*
X217699Y374775D01*
X217757Y374721D01*
X217822Y374678D01*
X217894Y374645D01*
X217970Y374624D01*
X218048Y374615D01*
X218126Y374618D01*
X218136Y374620D01*
Y357473D01*
X218077Y357495D01*
X218000Y357511D01*
X217921Y357514D01*
X217842Y357505D01*
X217766Y357484D01*
X217694Y357451D01*
X217629Y357407D01*
X217570Y357354D01*
X217521Y357292D01*
X217483Y357223D01*
X217455Y357149D01*
X217439Y357072D01*
X217436Y356993D01*
X217445Y356914D01*
X217468Y356839D01*
X217517Y356689D01*
X217551Y356535D01*
X217572Y356379D01*
X217579Y356221D01*
X217572Y356063D01*
X217551Y355907D01*
X217517Y355753D01*
X217469Y355603D01*
X217447Y355527D01*
X217438Y355449D01*
X217441Y355371D01*
X217457Y355294D01*
X217484Y355220D01*
X217523Y355151D01*
X217572Y355090D01*
X217630Y355036D01*
X217695Y354993D01*
X217767Y354960D01*
X217843Y354939D01*
X217921Y354930D01*
X217999Y354933D01*
X218077Y354949D01*
X218136Y354971D01*
Y347447D01*
X218101Y347446D01*
X217857Y347414D01*
X217617Y347360D01*
X217383Y347286D01*
X217311Y347254D01*
X217246Y347210D01*
X217187Y347157D01*
X217138Y347095D01*
X217100Y347026D01*
X217072Y346952D01*
X217056Y346875D01*
X217053Y346796D01*
X217062Y346717D01*
X217083Y346641D01*
X217116Y346569D01*
X217160Y346504D01*
X217213Y346445D01*
X217275Y346396D01*
X217344Y346358D01*
X217418Y346330D01*
X217495Y346314D01*
X217574Y346311D01*
X217653Y346320D01*
X217728Y346343D01*
X217878Y346392D01*
X218032Y346426D01*
X218136Y346440D01*
Y342868D01*
X218032Y342882D01*
X217878Y342916D01*
X217728Y342964D01*
X217652Y342986D01*
X217574Y342995D01*
X217496Y342992D01*
X217419Y342976D01*
X217345Y342949D01*
X217276Y342910D01*
X217215Y342861D01*
X217161Y342803D01*
X217118Y342738D01*
X217085Y342666D01*
X217064Y342590D01*
X217055Y342512D01*
X217058Y342434D01*
X217074Y342356D01*
X217101Y342283D01*
X217140Y342214D01*
X217189Y342152D01*
X217247Y342099D01*
X217312Y342056D01*
X217384Y342024D01*
X217617Y341948D01*
X217857Y341894D01*
X218101Y341862D01*
X218136Y341861D01*
Y242559D01*
X215907D01*
Y343445D01*
X215974Y343408D01*
X216048Y343380D01*
X216125Y343364D01*
X216204Y343361D01*
X216283Y343370D01*
X216359Y343391D01*
X216431Y343424D01*
X216496Y343468D01*
X216555Y343521D01*
X216604Y343583D01*
X216642Y343652D01*
X216670Y343726D01*
X216686Y343803D01*
X216689Y343882D01*
X216680Y343961D01*
X216657Y344036D01*
X216608Y344186D01*
X216574Y344340D01*
X216553Y344496D01*
X216546Y344654D01*
X216553Y344812D01*
X216574Y344968D01*
X216608Y345122D01*
X216656Y345272D01*
X216678Y345348D01*
X216687Y345426D01*
X216684Y345504D01*
X216668Y345581D01*
X216641Y345655D01*
X216602Y345724D01*
X216553Y345785D01*
X216495Y345839D01*
X216430Y345882D01*
X216358Y345915D01*
X216282Y345936D01*
X216204Y345945D01*
X216126Y345942D01*
X216048Y345926D01*
X215975Y345899D01*
X215907Y345861D01*
Y353424D01*
X216024Y353429D01*
X216268Y353461D01*
X216508Y353515D01*
X216742Y353589D01*
X216814Y353621D01*
X216879Y353665D01*
X216938Y353718D01*
X216987Y353780D01*
X217025Y353849D01*
X217053Y353923D01*
X217069Y354000D01*
X217072Y354079D01*
X217063Y354158D01*
X217042Y354234D01*
X217009Y354306D01*
X216965Y354371D01*
X216912Y354430D01*
X216850Y354479D01*
X216781Y354517D01*
X216707Y354545D01*
X216630Y354561D01*
X216551Y354564D01*
X216472Y354555D01*
X216397Y354532D01*
X216247Y354483D01*
X216093Y354449D01*
X215937Y354428D01*
X215907Y354427D01*
Y358015D01*
X215937Y358014D01*
X216093Y357993D01*
X216247Y357959D01*
X216397Y357911D01*
X216473Y357889D01*
X216551Y357880D01*
X216629Y357883D01*
X216706Y357899D01*
X216780Y357926D01*
X216849Y357965D01*
X216910Y358014D01*
X216964Y358072D01*
X217007Y358137D01*
X217040Y358209D01*
X217061Y358285D01*
X217070Y358363D01*
X217067Y358441D01*
X217051Y358519D01*
X217024Y358592D01*
X216985Y358661D01*
X216936Y358723D01*
X216878Y358776D01*
X216813Y358819D01*
X216741Y358851D01*
X216508Y358927D01*
X216268Y358981D01*
X216024Y359013D01*
X215907Y359018D01*
Y373103D01*
X216151Y373114D01*
X216395Y373146D01*
X216635Y373200D01*
X216869Y373274D01*
X216941Y373306D01*
X217006Y373350D01*
X217065Y373403D01*
X217114Y373465D01*
X217152Y373534D01*
X217180Y373608D01*
X217196Y373685D01*
X217199Y373764D01*
X217190Y373843D01*
X217169Y373919D01*
X217136Y373991D01*
X217092Y374056D01*
X217039Y374115D01*
X216977Y374164D01*
X216908Y374202D01*
X216834Y374230D01*
X216757Y374246D01*
X216678Y374249D01*
X216599Y374240D01*
X216524Y374217D01*
X216374Y374168D01*
X216220Y374134D01*
X216064Y374113D01*
X215907Y374106D01*
Y377706D01*
X216064Y377699D01*
X216220Y377678D01*
X216374Y377644D01*
X216524Y377596D01*
X216600Y377574D01*
X216678Y377565D01*
X216756Y377568D01*
X216833Y377584D01*
X216907Y377611D01*
X216976Y377650D01*
X217037Y377699D01*
X217091Y377757D01*
X217134Y377822D01*
X217167Y377894D01*
X217188Y377970D01*
X217197Y378048D01*
X217194Y378126D01*
X217178Y378204D01*
X217151Y378277D01*
X217112Y378346D01*
X217063Y378408D01*
X217005Y378461D01*
X216940Y378504D01*
X216868Y378536D01*
X216635Y378612D01*
X216395Y378666D01*
X216151Y378698D01*
X215907Y378709D01*
Y393445D01*
X215975Y393407D01*
X216049Y393379D01*
X216126Y393363D01*
X216205Y393360D01*
X216284Y393369D01*
X216360Y393390D01*
X216432Y393423D01*
X216497Y393467D01*
X216556Y393520D01*
X216605Y393582D01*
X216643Y393651D01*
X216671Y393725D01*
X216687Y393802D01*
X216690Y393881D01*
X216681Y393960D01*
X216658Y394035D01*
X216609Y394185D01*
X216575Y394339D01*
X216554Y394495D01*
X216547Y394653D01*
X216554Y394811D01*
X216575Y394967D01*
X216609Y395121D01*
X216657Y395271D01*
X216679Y395347D01*
X216688Y395425D01*
X216685Y395503D01*
X216669Y395580D01*
X216642Y395654D01*
X216603Y395723D01*
X216554Y395784D01*
X216496Y395838D01*
X216431Y395881D01*
X216359Y395914D01*
X216283Y395935D01*
X216205Y395944D01*
X216127Y395941D01*
X216049Y395925D01*
X215976Y395898D01*
X215907Y395859D01*
X215907Y395859D01*
Y452559D01*
G37*
G36*
X213676D02*X215907D01*
Y395859D01*
X215845Y395810D01*
X215792Y395752D01*
X215749Y395687D01*
X215717Y395615D01*
X215641Y395382D01*
X215587Y395142D01*
X215555Y394898D01*
X215544Y394653D01*
X215555Y394408D01*
X215587Y394164D01*
X215641Y393924D01*
X215715Y393690D01*
X215747Y393618D01*
X215791Y393553D01*
X215844Y393494D01*
X215906Y393445D01*
X215907Y393445D01*
Y378709D01*
X215906Y378709D01*
X215661Y378698D01*
X215417Y378666D01*
X215177Y378612D01*
X214943Y378538D01*
X214871Y378506D01*
X214806Y378462D01*
X214747Y378409D01*
X214698Y378347D01*
X214660Y378278D01*
X214632Y378204D01*
X214616Y378127D01*
X214613Y378048D01*
X214622Y377969D01*
X214643Y377893D01*
X214676Y377821D01*
X214720Y377756D01*
X214773Y377697D01*
X214835Y377648D01*
X214904Y377610D01*
X214978Y377582D01*
X215055Y377566D01*
X215134Y377563D01*
X215213Y377572D01*
X215288Y377595D01*
X215438Y377644D01*
X215592Y377678D01*
X215748Y377699D01*
X215906Y377706D01*
X215907Y377706D01*
Y374106D01*
X215906Y374106D01*
X215748Y374113D01*
X215592Y374134D01*
X215438Y374168D01*
X215288Y374216D01*
X215212Y374238D01*
X215134Y374247D01*
X215056Y374244D01*
X214979Y374228D01*
X214905Y374201D01*
X214836Y374162D01*
X214775Y374113D01*
X214721Y374055D01*
X214678Y373990D01*
X214645Y373918D01*
X214624Y373842D01*
X214615Y373764D01*
X214618Y373686D01*
X214634Y373608D01*
X214661Y373535D01*
X214700Y373466D01*
X214749Y373404D01*
X214807Y373351D01*
X214872Y373308D01*
X214944Y373276D01*
X215177Y373200D01*
X215417Y373146D01*
X215661Y373114D01*
X215906Y373103D01*
X215907Y373103D01*
Y359018D01*
X215779Y359024D01*
X215534Y359013D01*
X215290Y358981D01*
X215050Y358927D01*
X214816Y358853D01*
X214744Y358821D01*
X214679Y358777D01*
X214620Y358724D01*
X214571Y358662D01*
X214533Y358593D01*
X214505Y358519D01*
X214489Y358442D01*
X214486Y358363D01*
X214495Y358284D01*
X214516Y358208D01*
X214549Y358136D01*
X214593Y358071D01*
X214646Y358012D01*
X214708Y357963D01*
X214777Y357925D01*
X214851Y357897D01*
X214928Y357881D01*
X215007Y357878D01*
X215086Y357887D01*
X215161Y357910D01*
X215311Y357959D01*
X215465Y357993D01*
X215621Y358014D01*
X215779Y358021D01*
X215907Y358015D01*
Y354427D01*
X215779Y354421D01*
X215621Y354428D01*
X215465Y354449D01*
X215311Y354483D01*
X215161Y354531D01*
X215085Y354553D01*
X215007Y354562D01*
X214929Y354559D01*
X214852Y354543D01*
X214778Y354516D01*
X214709Y354477D01*
X214648Y354428D01*
X214594Y354370D01*
X214551Y354305D01*
X214518Y354233D01*
X214497Y354157D01*
X214488Y354079D01*
X214491Y354001D01*
X214507Y353923D01*
X214534Y353850D01*
X214573Y353781D01*
X214622Y353719D01*
X214680Y353666D01*
X214745Y353623D01*
X214817Y353591D01*
X215050Y353515D01*
X215290Y353461D01*
X215534Y353429D01*
X215779Y353418D01*
X215907Y353424D01*
Y345861D01*
X215906Y345860D01*
X215844Y345811D01*
X215791Y345753D01*
X215748Y345688D01*
X215716Y345616D01*
X215640Y345383D01*
X215586Y345143D01*
X215554Y344899D01*
X215543Y344654D01*
X215554Y344409D01*
X215586Y344165D01*
X215640Y343925D01*
X215714Y343691D01*
X215746Y343619D01*
X215790Y343554D01*
X215843Y343495D01*
X215905Y343446D01*
X215907Y343445D01*
Y242559D01*
X213676D01*
Y354933D01*
X213716Y354937D01*
X213792Y354958D01*
X213864Y354991D01*
X213929Y355035D01*
X213988Y355088D01*
X214037Y355150D01*
X214075Y355219D01*
X214103Y355293D01*
X214119Y355370D01*
X214122Y355449D01*
X214113Y355528D01*
X214090Y355603D01*
X214041Y355753D01*
X214007Y355907D01*
X213986Y356063D01*
X213979Y356221D01*
X213986Y356379D01*
X214007Y356535D01*
X214041Y356689D01*
X214089Y356839D01*
X214111Y356915D01*
X214120Y356993D01*
X214117Y357071D01*
X214101Y357148D01*
X214074Y357222D01*
X214035Y357291D01*
X213986Y357352D01*
X213928Y357406D01*
X213863Y357449D01*
X213791Y357482D01*
X213715Y357503D01*
X213676Y357508D01*
Y374618D01*
X213685Y374616D01*
X213764Y374613D01*
X213843Y374622D01*
X213919Y374643D01*
X213991Y374676D01*
X214056Y374720D01*
X214115Y374773D01*
X214164Y374835D01*
X214202Y374904D01*
X214230Y374978D01*
X214246Y375055D01*
X214249Y375134D01*
X214240Y375213D01*
X214217Y375288D01*
X214168Y375438D01*
X214134Y375592D01*
X214113Y375748D01*
X214106Y375906D01*
X214113Y376064D01*
X214134Y376220D01*
X214168Y376374D01*
X214216Y376524D01*
X214238Y376600D01*
X214247Y376678D01*
X214244Y376756D01*
X214228Y376833D01*
X214201Y376907D01*
X214162Y376976D01*
X214113Y377037D01*
X214055Y377091D01*
X213990Y377134D01*
X213918Y377167D01*
X213842Y377188D01*
X213764Y377197D01*
X213686Y377194D01*
X213676Y377192D01*
Y452559D01*
G37*
G36*
X129973D02*X213676D01*
Y377192D01*
X213608Y377178D01*
X213535Y377151D01*
X213466Y377112D01*
X213404Y377063D01*
X213351Y377005D01*
X213308Y376940D01*
X213276Y376868D01*
X213200Y376635D01*
X213146Y376395D01*
X213114Y376151D01*
X213103Y375906D01*
X213114Y375661D01*
X213146Y375417D01*
X213200Y375177D01*
X213274Y374943D01*
X213306Y374871D01*
X213350Y374806D01*
X213403Y374747D01*
X213465Y374698D01*
X213534Y374660D01*
X213608Y374632D01*
X213676Y374618D01*
Y357508D01*
X213637Y357512D01*
X213559Y357509D01*
X213481Y357493D01*
X213408Y357466D01*
X213339Y357427D01*
X213277Y357378D01*
X213224Y357320D01*
X213181Y357255D01*
X213149Y357183D01*
X213073Y356950D01*
X213019Y356710D01*
X212987Y356466D01*
X212976Y356221D01*
X212987Y355976D01*
X213019Y355732D01*
X213073Y355492D01*
X213147Y355258D01*
X213179Y355186D01*
X213223Y355121D01*
X213276Y355062D01*
X213338Y355013D01*
X213407Y354975D01*
X213481Y354947D01*
X213558Y354931D01*
X213637Y354928D01*
X213676Y354933D01*
Y242559D01*
X129973D01*
Y452559D01*
G37*
G36*
X196784Y237000D02*X228000D01*
Y140500D01*
X196784D01*
Y155869D01*
X196787Y155870D01*
X196855Y155909D01*
X196916Y155958D01*
X196969Y156017D01*
X197011Y156083D01*
X197174Y156408D01*
X197303Y156748D01*
X197401Y157098D01*
X197467Y157456D01*
X197500Y157818D01*
Y158182D01*
X197467Y158544D01*
X197401Y158902D01*
X197303Y159252D01*
X197174Y159592D01*
X197015Y159919D01*
X196972Y159985D01*
X196919Y160044D01*
X196857Y160094D01*
X196788Y160133D01*
X196784Y160135D01*
Y237000D01*
G37*
G36*
X193784D02*X196784D01*
Y160135D01*
X196714Y160161D01*
X196637Y160177D01*
X196558Y160181D01*
X196479Y160173D01*
X196403Y160152D01*
X196330Y160120D01*
X196264Y160077D01*
X196205Y160024D01*
X196156Y159962D01*
X196116Y159893D01*
X196088Y159819D01*
X196072Y159742D01*
X196068Y159663D01*
X196076Y159584D01*
X196097Y159507D01*
X196130Y159436D01*
X196253Y159193D01*
X196350Y158938D01*
X196423Y158676D01*
X196472Y158408D01*
X196497Y158136D01*
Y157864D01*
X196472Y157592D01*
X196423Y157324D01*
X196350Y157062D01*
X196253Y156807D01*
X196133Y156563D01*
X196100Y156491D01*
X196079Y156416D01*
X196071Y156337D01*
X196075Y156259D01*
X196091Y156182D01*
X196119Y156108D01*
X196158Y156040D01*
X196207Y155979D01*
X196266Y155926D01*
X196332Y155883D01*
X196404Y155851D01*
X196480Y155830D01*
X196558Y155822D01*
X196636Y155826D01*
X196713Y155842D01*
X196784Y155869D01*
Y140500D01*
X193784D01*
Y154009D01*
X194044Y154033D01*
X194402Y154099D01*
X194752Y154197D01*
X195092Y154326D01*
X195419Y154485D01*
X195485Y154528D01*
X195544Y154581D01*
X195594Y154643D01*
X195633Y154712D01*
X195661Y154786D01*
X195677Y154863D01*
X195681Y154942D01*
X195673Y155021D01*
X195652Y155097D01*
X195620Y155170D01*
X195577Y155236D01*
X195524Y155295D01*
X195462Y155344D01*
X195393Y155384D01*
X195319Y155412D01*
X195242Y155428D01*
X195163Y155432D01*
X195084Y155424D01*
X195007Y155403D01*
X194936Y155370D01*
X194693Y155247D01*
X194438Y155150D01*
X194176Y155077D01*
X193908Y155028D01*
X193784Y155017D01*
Y160983D01*
X193908Y160972D01*
X194176Y160923D01*
X194438Y160850D01*
X194693Y160753D01*
X194937Y160633D01*
X195009Y160600D01*
X195084Y160579D01*
X195163Y160571D01*
X195241Y160575D01*
X195318Y160591D01*
X195392Y160619D01*
X195460Y160658D01*
X195521Y160707D01*
X195574Y160766D01*
X195617Y160832D01*
X195649Y160904D01*
X195670Y160980D01*
X195678Y161058D01*
X195674Y161136D01*
X195658Y161213D01*
X195630Y161287D01*
X195591Y161355D01*
X195542Y161416D01*
X195483Y161469D01*
X195417Y161511D01*
X195092Y161674D01*
X194752Y161803D01*
X194402Y161901D01*
X194044Y161967D01*
X193784Y161991D01*
Y212369D01*
X193787Y212370D01*
X193855Y212409D01*
X193916Y212458D01*
X193969Y212517D01*
X194011Y212583D01*
X194174Y212908D01*
X194303Y213248D01*
X194401Y213598D01*
X194467Y213956D01*
X194500Y214318D01*
Y214682D01*
X194467Y215044D01*
X194401Y215402D01*
X194303Y215752D01*
X194174Y216092D01*
X194015Y216419D01*
X193972Y216485D01*
X193919Y216544D01*
X193857Y216594D01*
X193788Y216633D01*
X193784Y216635D01*
Y237000D01*
G37*
G36*
X190502D02*X193784D01*
Y216635D01*
X193714Y216661D01*
X193637Y216677D01*
X193558Y216681D01*
X193479Y216673D01*
X193403Y216652D01*
X193330Y216620D01*
X193264Y216577D01*
X193205Y216524D01*
X193156Y216462D01*
X193116Y216393D01*
X193088Y216319D01*
X193072Y216242D01*
X193068Y216163D01*
X193076Y216084D01*
X193097Y216007D01*
X193130Y215936D01*
X193253Y215693D01*
X193350Y215438D01*
X193423Y215176D01*
X193472Y214908D01*
X193497Y214636D01*
Y214364D01*
X193472Y214092D01*
X193423Y213824D01*
X193350Y213562D01*
X193253Y213307D01*
X193133Y213063D01*
X193100Y212991D01*
X193079Y212916D01*
X193071Y212837D01*
X193075Y212759D01*
X193091Y212682D01*
X193119Y212608D01*
X193158Y212540D01*
X193207Y212479D01*
X193266Y212426D01*
X193332Y212383D01*
X193404Y212351D01*
X193480Y212330D01*
X193558Y212322D01*
X193636Y212326D01*
X193713Y212342D01*
X193784Y212369D01*
Y161991D01*
X193682Y162000D01*
X193318D01*
X192956Y161967D01*
X192598Y161901D01*
X192248Y161803D01*
X191908Y161674D01*
X191581Y161515D01*
X191515Y161472D01*
X191456Y161419D01*
X191406Y161357D01*
X191367Y161288D01*
X191339Y161214D01*
X191323Y161137D01*
X191319Y161058D01*
X191327Y160979D01*
X191348Y160903D01*
X191380Y160830D01*
X191423Y160764D01*
X191476Y160705D01*
X191538Y160656D01*
X191607Y160616D01*
X191681Y160588D01*
X191758Y160572D01*
X191837Y160568D01*
X191916Y160576D01*
X191993Y160597D01*
X192064Y160630D01*
X192307Y160753D01*
X192562Y160850D01*
X192824Y160923D01*
X193092Y160972D01*
X193364Y160997D01*
X193636D01*
X193784Y160983D01*
Y155017D01*
X193636Y155003D01*
X193364D01*
X193092Y155028D01*
X192824Y155077D01*
X192562Y155150D01*
X192307Y155247D01*
X192063Y155367D01*
X191991Y155400D01*
X191915Y155421D01*
X191837Y155429D01*
X191759Y155425D01*
X191682Y155409D01*
X191608Y155381D01*
X191540Y155342D01*
X191479Y155293D01*
X191426Y155234D01*
X191383Y155168D01*
X191351Y155096D01*
X191330Y155020D01*
X191322Y154942D01*
X191326Y154864D01*
X191342Y154787D01*
X191370Y154713D01*
X191409Y154645D01*
X191458Y154584D01*
X191517Y154531D01*
X191583Y154489D01*
X191908Y154326D01*
X192248Y154197D01*
X192598Y154099D01*
X192956Y154033D01*
X193318Y154000D01*
X193682D01*
X193784Y154009D01*
Y140500D01*
X190502D01*
Y155825D01*
X190521Y155827D01*
X190597Y155848D01*
X190670Y155880D01*
X190736Y155923D01*
X190795Y155976D01*
X190844Y156038D01*
X190884Y156107D01*
X190912Y156181D01*
X190928Y156258D01*
X190932Y156337D01*
X190924Y156416D01*
X190903Y156493D01*
X190870Y156564D01*
X190747Y156807D01*
X190650Y157062D01*
X190577Y157324D01*
X190528Y157592D01*
X190503Y157864D01*
Y158136D01*
X190528Y158408D01*
X190577Y158676D01*
X190650Y158938D01*
X190747Y159193D01*
X190867Y159437D01*
X190900Y159509D01*
X190921Y159585D01*
X190929Y159663D01*
X190925Y159741D01*
X190909Y159818D01*
X190881Y159892D01*
X190842Y159960D01*
X190793Y160021D01*
X190734Y160074D01*
X190668Y160117D01*
X190596Y160149D01*
X190520Y160170D01*
X190502Y160172D01*
Y210500D01*
X190682D01*
X191044Y210533D01*
X191402Y210599D01*
X191752Y210697D01*
X192092Y210826D01*
X192419Y210985D01*
X192485Y211028D01*
X192544Y211081D01*
X192594Y211143D01*
X192633Y211212D01*
X192661Y211286D01*
X192677Y211363D01*
X192681Y211442D01*
X192673Y211521D01*
X192652Y211597D01*
X192620Y211670D01*
X192577Y211736D01*
X192524Y211795D01*
X192462Y211844D01*
X192393Y211884D01*
X192319Y211912D01*
X192242Y211928D01*
X192163Y211932D01*
X192084Y211924D01*
X192007Y211903D01*
X191936Y211870D01*
X191693Y211747D01*
X191438Y211650D01*
X191176Y211577D01*
X190908Y211528D01*
X190636Y211503D01*
X190502D01*
Y217497D01*
X190636D01*
X190908Y217472D01*
X191176Y217423D01*
X191438Y217350D01*
X191693Y217253D01*
X191937Y217133D01*
X192009Y217100D01*
X192084Y217079D01*
X192163Y217071D01*
X192241Y217075D01*
X192318Y217091D01*
X192392Y217119D01*
X192460Y217158D01*
X192521Y217207D01*
X192574Y217266D01*
X192617Y217332D01*
X192649Y217404D01*
X192670Y217480D01*
X192678Y217558D01*
X192674Y217636D01*
X192658Y217713D01*
X192630Y217787D01*
X192591Y217855D01*
X192542Y217916D01*
X192483Y217969D01*
X192417Y218011D01*
X192092Y218174D01*
X191752Y218303D01*
X191402Y218401D01*
X191044Y218467D01*
X190682Y218500D01*
X190502D01*
Y237000D01*
G37*
G36*
X187216D02*X190502D01*
Y218500D01*
X190318D01*
X189956Y218467D01*
X189598Y218401D01*
X189248Y218303D01*
X188908Y218174D01*
X188581Y218015D01*
X188515Y217972D01*
X188456Y217919D01*
X188406Y217857D01*
X188367Y217788D01*
X188339Y217714D01*
X188323Y217637D01*
X188319Y217558D01*
X188327Y217479D01*
X188348Y217403D01*
X188380Y217330D01*
X188423Y217264D01*
X188476Y217205D01*
X188538Y217156D01*
X188607Y217116D01*
X188681Y217088D01*
X188758Y217072D01*
X188837Y217068D01*
X188916Y217076D01*
X188993Y217097D01*
X189064Y217130D01*
X189307Y217253D01*
X189562Y217350D01*
X189824Y217423D01*
X190092Y217472D01*
X190364Y217497D01*
X190502D01*
Y211503D01*
X190364D01*
X190092Y211528D01*
X189824Y211577D01*
X189562Y211650D01*
X189307Y211747D01*
X189063Y211867D01*
X188991Y211900D01*
X188915Y211921D01*
X188837Y211929D01*
X188759Y211925D01*
X188682Y211909D01*
X188608Y211881D01*
X188540Y211842D01*
X188479Y211793D01*
X188426Y211734D01*
X188383Y211668D01*
X188351Y211596D01*
X188330Y211520D01*
X188322Y211442D01*
X188326Y211364D01*
X188342Y211287D01*
X188370Y211213D01*
X188409Y211145D01*
X188458Y211084D01*
X188517Y211031D01*
X188583Y210989D01*
X188908Y210826D01*
X189248Y210697D01*
X189598Y210599D01*
X189956Y210533D01*
X190318Y210500D01*
X190502D01*
Y160172D01*
X190442Y160178D01*
X190364Y160174D01*
X190287Y160158D01*
X190213Y160130D01*
X190145Y160091D01*
X190084Y160042D01*
X190031Y159983D01*
X189989Y159917D01*
X189826Y159592D01*
X189697Y159252D01*
X189599Y158902D01*
X189533Y158544D01*
X189500Y158182D01*
Y157818D01*
X189533Y157456D01*
X189599Y157098D01*
X189697Y156748D01*
X189826Y156408D01*
X189985Y156081D01*
X190028Y156015D01*
X190081Y155956D01*
X190143Y155906D01*
X190212Y155867D01*
X190286Y155839D01*
X190363Y155823D01*
X190442Y155819D01*
X190502Y155825D01*
Y140500D01*
X187216D01*
Y212365D01*
X187286Y212339D01*
X187363Y212323D01*
X187442Y212319D01*
X187521Y212327D01*
X187597Y212348D01*
X187670Y212380D01*
X187736Y212423D01*
X187795Y212476D01*
X187844Y212538D01*
X187884Y212607D01*
X187912Y212681D01*
X187928Y212758D01*
X187932Y212837D01*
X187924Y212916D01*
X187903Y212993D01*
X187870Y213064D01*
X187747Y213307D01*
X187650Y213562D01*
X187577Y213824D01*
X187528Y214092D01*
X187503Y214364D01*
Y214636D01*
X187528Y214908D01*
X187577Y215176D01*
X187650Y215438D01*
X187747Y215693D01*
X187867Y215937D01*
X187900Y216009D01*
X187921Y216085D01*
X187929Y216163D01*
X187925Y216241D01*
X187909Y216318D01*
X187881Y216392D01*
X187842Y216460D01*
X187793Y216521D01*
X187734Y216574D01*
X187668Y216617D01*
X187596Y216649D01*
X187520Y216670D01*
X187442Y216678D01*
X187364Y216674D01*
X187287Y216658D01*
X187216Y216631D01*
Y237000D01*
G37*
G36*
X179784D02*X187216D01*
Y216631D01*
X187213Y216630D01*
X187145Y216591D01*
X187084Y216542D01*
X187031Y216483D01*
X186989Y216417D01*
X186826Y216092D01*
X186697Y215752D01*
X186599Y215402D01*
X186533Y215044D01*
X186500Y214682D01*
Y214318D01*
X186533Y213956D01*
X186599Y213598D01*
X186697Y213248D01*
X186826Y212908D01*
X186985Y212581D01*
X187028Y212515D01*
X187081Y212456D01*
X187143Y212406D01*
X187212Y212367D01*
X187216Y212365D01*
Y140500D01*
X179784D01*
Y149369D01*
X179787Y149370D01*
X179855Y149409D01*
X179916Y149458D01*
X179969Y149517D01*
X180011Y149583D01*
X180174Y149908D01*
X180303Y150248D01*
X180401Y150598D01*
X180467Y150956D01*
X180500Y151318D01*
Y151682D01*
X180467Y152044D01*
X180401Y152402D01*
X180303Y152752D01*
X180174Y153092D01*
X180015Y153419D01*
X179972Y153485D01*
X179919Y153544D01*
X179857Y153594D01*
X179788Y153633D01*
X179784Y153635D01*
Y237000D01*
G37*
G36*
X176502D02*X179784D01*
Y153635D01*
X179714Y153661D01*
X179637Y153677D01*
X179558Y153681D01*
X179479Y153673D01*
X179403Y153652D01*
X179330Y153620D01*
X179264Y153577D01*
X179205Y153524D01*
X179156Y153462D01*
X179116Y153393D01*
X179088Y153319D01*
X179072Y153242D01*
X179068Y153163D01*
X179076Y153084D01*
X179097Y153007D01*
X179130Y152936D01*
X179253Y152693D01*
X179350Y152438D01*
X179423Y152176D01*
X179472Y151908D01*
X179497Y151636D01*
Y151364D01*
X179472Y151092D01*
X179423Y150824D01*
X179350Y150562D01*
X179253Y150307D01*
X179133Y150063D01*
X179100Y149991D01*
X179079Y149916D01*
X179071Y149837D01*
X179075Y149759D01*
X179091Y149682D01*
X179119Y149608D01*
X179158Y149540D01*
X179207Y149479D01*
X179266Y149426D01*
X179332Y149383D01*
X179404Y149351D01*
X179480Y149330D01*
X179558Y149322D01*
X179636Y149326D01*
X179713Y149342D01*
X179784Y149369D01*
Y140500D01*
X176502D01*
Y147500D01*
X176682D01*
X177044Y147533D01*
X177402Y147599D01*
X177752Y147697D01*
X178092Y147826D01*
X178419Y147985D01*
X178485Y148028D01*
X178544Y148081D01*
X178594Y148143D01*
X178633Y148212D01*
X178661Y148286D01*
X178677Y148363D01*
X178681Y148442D01*
X178673Y148521D01*
X178652Y148597D01*
X178620Y148670D01*
X178577Y148736D01*
X178524Y148795D01*
X178462Y148844D01*
X178393Y148884D01*
X178319Y148912D01*
X178242Y148928D01*
X178163Y148932D01*
X178084Y148924D01*
X178007Y148903D01*
X177936Y148870D01*
X177693Y148747D01*
X177438Y148650D01*
X177176Y148577D01*
X176908Y148528D01*
X176636Y148503D01*
X176502D01*
Y154497D01*
X176636D01*
X176908Y154472D01*
X177176Y154423D01*
X177438Y154350D01*
X177693Y154253D01*
X177937Y154133D01*
X178009Y154100D01*
X178084Y154079D01*
X178163Y154071D01*
X178241Y154075D01*
X178318Y154091D01*
X178392Y154119D01*
X178460Y154158D01*
X178521Y154207D01*
X178574Y154266D01*
X178617Y154332D01*
X178649Y154404D01*
X178670Y154480D01*
X178678Y154558D01*
X178674Y154636D01*
X178658Y154713D01*
X178630Y154787D01*
X178591Y154855D01*
X178542Y154916D01*
X178483Y154969D01*
X178417Y155011D01*
X178092Y155174D01*
X177752Y155303D01*
X177402Y155401D01*
X177044Y155467D01*
X176682Y155500D01*
X176502D01*
Y237000D01*
G37*
G36*
X173216D02*X176502D01*
Y155500D01*
X176318D01*
X175956Y155467D01*
X175598Y155401D01*
X175248Y155303D01*
X174908Y155174D01*
X174581Y155015D01*
X174515Y154972D01*
X174456Y154919D01*
X174406Y154857D01*
X174367Y154788D01*
X174339Y154714D01*
X174323Y154637D01*
X174319Y154558D01*
X174327Y154479D01*
X174348Y154403D01*
X174380Y154330D01*
X174423Y154264D01*
X174476Y154205D01*
X174538Y154156D01*
X174607Y154116D01*
X174681Y154088D01*
X174758Y154072D01*
X174837Y154068D01*
X174916Y154076D01*
X174993Y154097D01*
X175064Y154130D01*
X175307Y154253D01*
X175562Y154350D01*
X175824Y154423D01*
X176092Y154472D01*
X176364Y154497D01*
X176502D01*
Y148503D01*
X176364D01*
X176092Y148528D01*
X175824Y148577D01*
X175562Y148650D01*
X175307Y148747D01*
X175063Y148867D01*
X174991Y148900D01*
X174915Y148921D01*
X174837Y148929D01*
X174759Y148925D01*
X174682Y148909D01*
X174608Y148881D01*
X174540Y148842D01*
X174479Y148793D01*
X174426Y148734D01*
X174383Y148668D01*
X174351Y148596D01*
X174330Y148520D01*
X174322Y148442D01*
X174326Y148364D01*
X174342Y148287D01*
X174370Y148213D01*
X174409Y148145D01*
X174458Y148084D01*
X174517Y148031D01*
X174583Y147989D01*
X174908Y147826D01*
X175248Y147697D01*
X175598Y147599D01*
X175956Y147533D01*
X176318Y147500D01*
X176502D01*
Y140500D01*
X173216D01*
Y149365D01*
X173286Y149339D01*
X173363Y149323D01*
X173442Y149319D01*
X173521Y149327D01*
X173597Y149348D01*
X173670Y149380D01*
X173736Y149423D01*
X173795Y149476D01*
X173844Y149538D01*
X173884Y149607D01*
X173912Y149681D01*
X173928Y149758D01*
X173932Y149837D01*
X173924Y149916D01*
X173903Y149993D01*
X173870Y150064D01*
X173747Y150307D01*
X173650Y150562D01*
X173577Y150824D01*
X173528Y151092D01*
X173503Y151364D01*
Y151636D01*
X173528Y151908D01*
X173577Y152176D01*
X173650Y152438D01*
X173747Y152693D01*
X173867Y152937D01*
X173900Y153009D01*
X173921Y153085D01*
X173929Y153163D01*
X173925Y153241D01*
X173909Y153318D01*
X173881Y153392D01*
X173842Y153460D01*
X173793Y153521D01*
X173734Y153574D01*
X173668Y153617D01*
X173596Y153649D01*
X173520Y153670D01*
X173442Y153678D01*
X173364Y153674D01*
X173287Y153658D01*
X173216Y153631D01*
Y237000D01*
G37*
G36*
X159284D02*X173216D01*
Y153631D01*
X173213Y153630D01*
X173145Y153591D01*
X173084Y153542D01*
X173031Y153483D01*
X172989Y153417D01*
X172826Y153092D01*
X172697Y152752D01*
X172599Y152402D01*
X172533Y152044D01*
X172500Y151682D01*
Y151318D01*
X172533Y150956D01*
X172599Y150598D01*
X172697Y150248D01*
X172826Y149908D01*
X172985Y149581D01*
X173028Y149515D01*
X173081Y149456D01*
X173143Y149406D01*
X173212Y149367D01*
X173216Y149365D01*
Y140500D01*
X159284D01*
Y168869D01*
X159287Y168870D01*
X159355Y168909D01*
X159416Y168958D01*
X159469Y169017D01*
X159511Y169083D01*
X159674Y169408D01*
X159803Y169748D01*
X159901Y170098D01*
X159967Y170456D01*
X160000Y170818D01*
Y171182D01*
X159967Y171544D01*
X159901Y171902D01*
X159803Y172252D01*
X159674Y172592D01*
X159515Y172919D01*
X159472Y172985D01*
X159419Y173044D01*
X159357Y173094D01*
X159288Y173133D01*
X159284Y173135D01*
Y237000D01*
G37*
G36*
X156002D02*X159284D01*
Y173135D01*
X159214Y173161D01*
X159137Y173177D01*
X159058Y173181D01*
X158979Y173173D01*
X158903Y173152D01*
X158830Y173120D01*
X158764Y173077D01*
X158705Y173024D01*
X158656Y172962D01*
X158616Y172893D01*
X158588Y172819D01*
X158572Y172742D01*
X158568Y172663D01*
X158576Y172584D01*
X158597Y172507D01*
X158630Y172436D01*
X158753Y172193D01*
X158850Y171938D01*
X158923Y171676D01*
X158972Y171408D01*
X158997Y171136D01*
Y170864D01*
X158972Y170592D01*
X158923Y170324D01*
X158850Y170062D01*
X158753Y169807D01*
X158633Y169563D01*
X158600Y169491D01*
X158579Y169416D01*
X158571Y169337D01*
X158575Y169259D01*
X158591Y169182D01*
X158619Y169108D01*
X158658Y169040D01*
X158707Y168979D01*
X158766Y168926D01*
X158832Y168883D01*
X158904Y168851D01*
X158980Y168830D01*
X159058Y168822D01*
X159136Y168826D01*
X159213Y168842D01*
X159284Y168869D01*
Y140500D01*
X156002D01*
Y167000D01*
X156182D01*
X156544Y167033D01*
X156902Y167099D01*
X157252Y167197D01*
X157592Y167326D01*
X157919Y167485D01*
X157985Y167528D01*
X158044Y167581D01*
X158094Y167643D01*
X158133Y167712D01*
X158161Y167786D01*
X158177Y167863D01*
X158181Y167942D01*
X158173Y168021D01*
X158152Y168097D01*
X158120Y168170D01*
X158077Y168236D01*
X158024Y168295D01*
X157962Y168344D01*
X157893Y168384D01*
X157819Y168412D01*
X157742Y168428D01*
X157663Y168432D01*
X157584Y168424D01*
X157507Y168403D01*
X157436Y168370D01*
X157193Y168247D01*
X156938Y168150D01*
X156676Y168077D01*
X156408Y168028D01*
X156136Y168003D01*
X156002D01*
Y173997D01*
X156136D01*
X156408Y173972D01*
X156676Y173923D01*
X156938Y173850D01*
X157193Y173753D01*
X157437Y173633D01*
X157509Y173600D01*
X157584Y173579D01*
X157663Y173571D01*
X157741Y173575D01*
X157818Y173591D01*
X157892Y173619D01*
X157960Y173658D01*
X158021Y173707D01*
X158074Y173766D01*
X158117Y173832D01*
X158149Y173904D01*
X158170Y173980D01*
X158178Y174058D01*
X158174Y174136D01*
X158158Y174213D01*
X158130Y174287D01*
X158091Y174355D01*
X158042Y174416D01*
X157983Y174469D01*
X157917Y174511D01*
X157592Y174674D01*
X157252Y174803D01*
X156902Y174901D01*
X156544Y174967D01*
X156182Y175000D01*
X156002D01*
Y237000D01*
G37*
G36*
X152716D02*X156002D01*
Y175000D01*
X155818D01*
X155456Y174967D01*
X155098Y174901D01*
X154748Y174803D01*
X154408Y174674D01*
X154081Y174515D01*
X154015Y174472D01*
X153956Y174419D01*
X153906Y174357D01*
X153867Y174288D01*
X153839Y174214D01*
X153823Y174137D01*
X153819Y174058D01*
X153827Y173979D01*
X153848Y173903D01*
X153880Y173830D01*
X153923Y173764D01*
X153976Y173705D01*
X154038Y173656D01*
X154107Y173616D01*
X154181Y173588D01*
X154258Y173572D01*
X154337Y173568D01*
X154416Y173576D01*
X154493Y173597D01*
X154564Y173630D01*
X154807Y173753D01*
X155062Y173850D01*
X155324Y173923D01*
X155592Y173972D01*
X155864Y173997D01*
X156002D01*
Y168003D01*
X155864D01*
X155592Y168028D01*
X155324Y168077D01*
X155062Y168150D01*
X154807Y168247D01*
X154563Y168367D01*
X154491Y168400D01*
X154415Y168421D01*
X154337Y168429D01*
X154259Y168425D01*
X154182Y168409D01*
X154108Y168381D01*
X154040Y168342D01*
X153979Y168293D01*
X153926Y168234D01*
X153883Y168168D01*
X153851Y168096D01*
X153830Y168020D01*
X153822Y167942D01*
X153826Y167864D01*
X153842Y167787D01*
X153870Y167713D01*
X153909Y167645D01*
X153958Y167584D01*
X154017Y167531D01*
X154083Y167489D01*
X154408Y167326D01*
X154748Y167197D01*
X155098Y167099D01*
X155456Y167033D01*
X155818Y167000D01*
X156002D01*
Y140500D01*
X152716D01*
Y168865D01*
X152786Y168839D01*
X152863Y168823D01*
X152942Y168819D01*
X153021Y168827D01*
X153097Y168848D01*
X153170Y168880D01*
X153236Y168923D01*
X153295Y168976D01*
X153344Y169038D01*
X153384Y169107D01*
X153412Y169181D01*
X153428Y169258D01*
X153432Y169337D01*
X153424Y169416D01*
X153403Y169493D01*
X153370Y169564D01*
X153247Y169807D01*
X153150Y170062D01*
X153077Y170324D01*
X153028Y170592D01*
X153003Y170864D01*
Y171136D01*
X153028Y171408D01*
X153077Y171676D01*
X153150Y171938D01*
X153247Y172193D01*
X153367Y172437D01*
X153400Y172509D01*
X153421Y172585D01*
X153429Y172663D01*
X153425Y172741D01*
X153409Y172818D01*
X153381Y172892D01*
X153342Y172960D01*
X153293Y173021D01*
X153234Y173074D01*
X153168Y173117D01*
X153096Y173149D01*
X153020Y173170D01*
X152942Y173178D01*
X152864Y173174D01*
X152787Y173158D01*
X152716Y173131D01*
Y237000D01*
G37*
G36*
X130000D02*X152716D01*
Y173131D01*
X152713Y173130D01*
X152645Y173091D01*
X152584Y173042D01*
X152531Y172983D01*
X152489Y172917D01*
X152326Y172592D01*
X152197Y172252D01*
X152099Y171902D01*
X152033Y171544D01*
X152000Y171182D01*
Y170818D01*
X152033Y170456D01*
X152099Y170098D01*
X152197Y169748D01*
X152326Y169408D01*
X152485Y169081D01*
X152528Y169015D01*
X152581Y168956D01*
X152643Y168906D01*
X152712Y168867D01*
X152716Y168865D01*
Y140500D01*
X130000D01*
Y237000D01*
G37*
G36*
X246750Y175250D02*Y169750D01*
X252250D01*
Y175250D01*
X246750D01*
G37*
G54D39*X269500Y172500D03*
G54D40*X215906Y375906D03*
X215779Y356221D03*
X218346Y344654D03*
X263622Y345878D03*
X221000Y360000D03*
X218347Y394653D03*
X263653Y391653D03*
X222500Y376000D03*
G54D41*X190500Y214500D03*
X176500Y151500D03*
X156000Y171000D03*
X193500Y158000D03*
G54D42*G54D43*G54D44*M02*
