G04 start of page 12 for group -4015 idx -4015 *
G04 Title: (unknown), toppaste *
G04 Creator: pcb 20110918 *
G04 CreationDate: Tue Nov 12 23:37:41 2013 UTC *
G04 For: fosse *
G04 Format: Gerber/RS-274X *
G04 PCB-Dimensions: 455000 500000 *
G04 PCB-Coordinate-Origin: lower left *
%MOIN*%
%FSLAX25Y25*%
%LNTOPPASTE*%
%ADD172R,0.0591X0.0591*%
%ADD171R,0.0590X0.0590*%
%ADD170R,0.0110X0.0110*%
%ADD169R,0.0236X0.0236*%
%ADD168R,0.0157X0.0157*%
%ADD167R,0.0158X0.0158*%
%ADD166R,0.1450X0.1450*%
%ADD165C,0.0001*%
%ADD164R,0.0142X0.0142*%
%ADD163R,0.0669X0.0669*%
%ADD162R,0.0098X0.0098*%
%ADD161R,0.0098X0.0098*%
%ADD160C,0.0039*%
%ADD159R,0.0295X0.0295*%
%ADD158R,0.0197X0.0197*%
%ADD157R,0.0600X0.0600*%
%ADD156R,0.0160X0.0160*%
%ADD155C,0.0160*%
%ADD154R,0.0340X0.0340*%
%ADD153R,0.0512X0.0512*%
G54D153*X377414Y195893D02*Y195107D01*
X384500Y195893D02*Y195107D01*
G54D154*X405650Y179176D02*X405950D01*
X412750Y179476D02*Y178876D01*
Y187676D02*Y187076D01*
X405350Y187676D02*Y187076D01*
G54D153*X360926Y299569D02*Y298783D01*
X368012Y299569D02*Y298783D01*
X375800Y229993D02*Y229207D01*
X382886Y229993D02*Y229207D01*
X375714Y244493D02*Y243707D01*
X382800Y244493D02*Y243707D01*
G54D154*X359150Y234600D02*X359450D01*
X366250Y234900D02*Y234300D01*
Y243100D02*Y242500D01*
X358850Y243100D02*Y242500D01*
X356750Y281500D02*X357050D01*
X363850Y281800D02*Y281200D01*
Y290000D02*Y289400D01*
X356450Y290000D02*Y289400D01*
G54D153*X330414Y167393D02*Y166607D01*
X337500Y167393D02*Y166607D01*
X321000Y148393D02*Y147607D01*
X328086Y148393D02*Y147607D01*
G54D154*X337150Y149100D02*X337450D01*
X344250Y149400D02*Y148800D01*
Y157600D02*Y157000D01*
X336850Y157600D02*Y157000D01*
G54D153*X336914Y181893D02*Y181107D01*
X344000Y181893D02*Y181107D01*
G54D155*X246492Y439316D02*Y437116D01*
G54D156*X249092Y439316D02*Y437116D01*
X251592Y439316D02*Y437116D01*
X254192Y439316D02*Y437116D01*
X256792Y439316D02*Y437116D01*
X259292Y439316D02*Y437116D01*
X261892Y439316D02*Y437116D01*
X264392Y439316D02*Y437116D01*
X264492Y460516D02*Y458316D01*
X261892Y460516D02*Y458316D01*
X259392Y460516D02*Y458316D01*
X256792Y460516D02*Y458316D01*
X254192Y460516D02*Y458316D01*
X251692Y460516D02*Y458316D01*
X249092Y460516D02*Y458316D01*
X246592Y460516D02*Y458316D01*
G54D153*X339257Y303993D02*Y303207D01*
X346343Y303993D02*Y303207D01*
X244007Y333457D02*X244793D01*
X244007Y340543D02*X244793D01*
X212495Y371681D02*Y369319D01*
X224305Y371681D02*Y369319D01*
G54D157*X229900Y351000D02*Y350000D01*
X241900Y351000D02*Y350000D01*
G54D158*X218535Y347260D02*X219716D01*
X218535Y354740D02*X219716D01*
X209087Y351000D02*X210268D01*
X209087Y354740D02*X210268D01*
X209087Y347260D02*X210268D01*
G54D153*X219900Y335681D02*Y333319D01*
X231710Y335681D02*Y333319D01*
G54D157*X258400Y351000D02*X259400D01*
X258400Y363000D02*X259400D01*
G54D153*X237507Y365957D02*X238293D01*
X237507Y373043D02*X238293D01*
X61914Y257393D02*Y256607D01*
X69000Y257393D02*Y256607D01*
X64000Y228893D02*Y228107D01*
X71086Y228893D02*Y228107D01*
X32414Y270393D02*Y269607D01*
X39500Y270393D02*Y269607D01*
X64000Y111893D02*Y111107D01*
X71086Y111893D02*Y111107D01*
X23414Y235893D02*Y235107D01*
X30500Y235893D02*Y235107D01*
X61000Y214893D02*Y214107D01*
X68086Y214893D02*Y214107D01*
G54D159*X46882Y268992D02*Y268008D01*
X52000Y268992D02*Y268008D01*
G54D160*X43012Y237110D02*X44272Y235850D01*
X43524Y237110D02*X44272Y236362D01*
X43996Y237150D02*X44311Y236835D01*
G54D161*X44390Y234178D02*Y232406D01*
G54D162*X46358Y234178D02*Y232407D01*
G54D161*X48327Y234178D02*Y232406D01*
G54D162*X50295Y234178D02*Y232407D01*
G54D161*X52264Y234178D02*Y232406D01*
G54D162*X54232Y234178D02*Y232407D01*
G54D161*X44390Y245594D02*Y243822D01*
G54D162*X46358Y245594D02*Y243823D01*
G54D161*X48327Y245594D02*Y243822D01*
G54D162*X50295Y245594D02*Y243823D01*
G54D161*X52264Y245594D02*Y243822D01*
G54D162*X54232Y245594D02*Y243823D01*
G54D163*X47539Y239000D02*X52461D01*
G54D164*X43524Y241638D02*Y237740D01*
G54D153*X24914Y220893D02*Y220107D01*
X32000Y220893D02*Y220107D01*
X42500Y221393D02*Y220607D01*
X49586Y221393D02*Y220607D01*
X65310Y246402D02*Y244040D01*
X77120Y246402D02*Y244040D01*
X22190Y254755D02*Y249245D01*
X34000Y254755D02*Y249245D01*
X45500Y258393D02*Y257607D01*
X52586Y258393D02*Y257607D01*
G54D165*G36*
X58177Y149823D02*Y140177D01*
X67823D01*
Y149823D01*
X58177D01*
G37*
G54D161*X54634Y149921D02*X56405D01*
X54634Y147953D02*X56405D01*
X54634Y145984D02*X56405D01*
X54634Y144016D02*X56405D01*
X54634Y142047D02*X56405D01*
X54634Y140079D02*X56405D01*
X69594Y149921D02*X71366D01*
X69594Y147953D02*X71366D01*
X69594Y145984D02*X71366D01*
X69594Y144016D02*X71366D01*
X69594Y142047D02*X71366D01*
X69594Y140079D02*X71366D01*
X67921Y153366D02*Y151594D01*
X65953Y153366D02*Y151594D01*
X63984Y153366D02*Y151594D01*
X62016Y153366D02*Y151594D01*
X60047Y153366D02*Y151594D01*
X58079Y153366D02*Y151594D01*
X67921Y138405D02*Y136633D01*
X65953Y138405D02*Y136633D01*
X63984Y138405D02*Y136633D01*
X62016Y138405D02*Y136633D01*
X60047Y138405D02*Y136633D01*
X58079Y138405D02*Y136633D01*
G54D153*X26190Y161681D02*Y159319D01*
X38000Y161681D02*Y159319D01*
X51500Y167893D02*Y167107D01*
X58586Y167893D02*Y167107D01*
X69500Y167393D02*Y166607D01*
X76586Y167393D02*Y166607D01*
X53914Y192893D02*Y192107D01*
X61000Y192893D02*Y192107D01*
X39914Y183893D02*Y183107D01*
X47000Y183893D02*Y183107D01*
X30414Y130393D02*Y129607D01*
X37500Y130393D02*Y129607D01*
X22414Y143393D02*Y142607D01*
X29500Y143393D02*Y142607D01*
X40500Y195893D02*Y195107D01*
X47586Y195893D02*Y195107D01*
X25000Y188393D02*Y187607D01*
X32086Y188393D02*Y187607D01*
X37914Y174893D02*Y174107D01*
X45000Y174893D02*Y174107D01*
G54D159*X32957Y78049D02*Y77065D01*
X38075Y78049D02*Y77065D01*
X48500Y104492D02*Y103508D01*
X53618Y104492D02*Y103508D01*
G54D153*X31000Y104893D02*Y104107D01*
X38086Y104893D02*Y104107D01*
X38000Y95681D02*Y93319D01*
X49810Y95681D02*Y93319D01*
X48500Y115893D02*Y115107D01*
X55586Y115893D02*Y115107D01*
X46414Y131393D02*Y130607D01*
X53500Y131393D02*Y130607D01*
X32914Y116893D02*Y116107D01*
X40000Y116893D02*Y116107D01*
X64414Y38293D02*Y37507D01*
X71500Y38293D02*Y37507D01*
G54D166*X55816Y75035D02*Y71035D01*
X77616Y75035D02*Y71035D01*
G54D154*X350600Y367600D02*X350900D01*
X357700Y367900D02*Y367300D01*
Y376100D02*Y375500D01*
X350300Y376100D02*Y375500D01*
G54D153*X316257Y386493D02*Y385707D01*
X323343Y386493D02*Y385707D01*
X316214Y369993D02*Y369207D01*
X323300Y369993D02*Y369207D01*
X385757Y398993D02*Y398207D01*
X392843Y398993D02*Y398207D01*
G54D154*X357800Y347700D02*Y347400D01*
X357500Y354500D02*X358100D01*
X349300D02*X349900D01*
X349300Y347100D02*X349900D01*
X350700Y397600D02*X351000D01*
X357800Y397900D02*Y397300D01*
Y406100D02*Y405500D01*
X350400Y406100D02*Y405500D01*
G54D153*X371407Y405643D02*X372193D01*
X371407Y398557D02*X372193D01*
G54D167*X179463Y287762D02*Y283038D01*
X175526Y287762D02*Y283038D01*
X171589Y287762D02*Y283038D01*
X167652Y287762D02*Y283038D01*
X163715Y287762D02*Y283038D01*
X159778Y287762D02*Y283038D01*
X155841Y287762D02*Y283038D01*
X151904Y287762D02*Y283038D01*
X147967Y287762D02*Y283038D01*
X144030Y287762D02*Y283038D01*
G54D168*X181431Y297212D02*Y292487D01*
X177494Y297212D02*Y292487D01*
X173557Y297212D02*Y292487D01*
X169620Y297212D02*Y292487D01*
X165683Y297212D02*Y292487D01*
G54D167*X161746Y297211D02*Y292487D01*
X157809Y297211D02*Y292487D01*
X153872Y297211D02*Y292487D01*
X149935Y297211D02*Y292487D01*
X145998Y297211D02*Y292487D01*
G54D169*X140092Y287369D02*Y283432D01*
Y296818D02*Y292881D01*
X185368Y287369D02*Y283432D01*
Y296818D02*Y292881D01*
G54D167*X257033Y287752D02*Y283028D01*
X253096Y287752D02*Y283028D01*
X249159Y287752D02*Y283028D01*
X245222Y287752D02*Y283028D01*
X241285Y287752D02*Y283028D01*
X237348Y287752D02*Y283028D01*
X233411Y287752D02*Y283028D01*
X229474Y287752D02*Y283028D01*
X225537Y287752D02*Y283028D01*
X221600Y287752D02*Y283028D01*
G54D168*X259001Y297202D02*Y292477D01*
X255064Y297202D02*Y292477D01*
X251127Y297202D02*Y292477D01*
X247190Y297202D02*Y292477D01*
X243253Y297202D02*Y292477D01*
G54D167*X239316Y297201D02*Y292477D01*
X235379Y297201D02*Y292477D01*
X231442Y297201D02*Y292477D01*
X227505Y297201D02*Y292477D01*
X223568Y297201D02*Y292477D01*
G54D169*X217662Y287359D02*Y283422D01*
Y296808D02*Y292871D01*
X262938Y287359D02*Y283422D01*
Y296808D02*Y292871D01*
G54D154*X52391Y473553D02*X52691D01*
X59491Y473853D02*Y473253D01*
Y482053D02*Y481453D01*
X52091Y482053D02*Y481453D01*
G54D170*X74533Y443175D02*X79431D01*
X74533Y441207D02*X79431D01*
X74533Y439238D02*X79431D01*
X74533Y437270D02*X79431D01*
X74533Y435301D02*X79431D01*
X74533Y433333D02*X79431D01*
X74533Y431364D02*X79431D01*
X74533Y429396D02*X79431D01*
X74533Y427427D02*X79431D01*
X74533Y425459D02*X79431D01*
X74533Y423490D02*X79431D01*
X74533Y421522D02*X79431D01*
X74533Y419553D02*X79431D01*
X74533Y417585D02*X79431D01*
X74533Y415616D02*X79431D01*
X74533Y413648D02*X79431D01*
X74533Y411679D02*X79431D01*
X74533Y409711D02*X79431D01*
X74533Y407742D02*X79431D01*
X74533Y405774D02*X79431D01*
X74533Y403805D02*X79431D01*
X74533Y401837D02*X79431D01*
X74533Y399868D02*X79431D01*
X74533Y397900D02*X79431D01*
X74533Y395931D02*X79431D01*
X85919Y389443D02*Y384545D01*
X87887Y389443D02*Y384545D01*
X89856Y389443D02*Y384545D01*
X91824Y389443D02*Y384545D01*
X93793Y389443D02*Y384545D01*
X95761Y389443D02*Y384545D01*
X97730Y389443D02*Y384545D01*
X99698Y389443D02*Y384545D01*
X101667Y389443D02*Y384545D01*
X103635Y389443D02*Y384545D01*
X105604Y389443D02*Y384545D01*
X107572Y389443D02*Y384545D01*
X109541Y389443D02*Y384545D01*
X111509Y389443D02*Y384545D01*
X113478Y389443D02*Y384545D01*
X115446Y389443D02*Y384545D01*
X117415Y389443D02*Y384545D01*
X119383Y389443D02*Y384545D01*
X121352Y389443D02*Y384545D01*
X123320Y389443D02*Y384545D01*
X125289Y389443D02*Y384545D01*
X127257Y389443D02*Y384545D01*
X129226Y389443D02*Y384545D01*
X131194Y389443D02*Y384545D01*
X133163Y389443D02*Y384545D01*
X139651Y395931D02*X144549D01*
X139651Y397899D02*X144549D01*
X139651Y399868D02*X144549D01*
X139651Y401836D02*X144549D01*
X139651Y403805D02*X144549D01*
X139651Y405773D02*X144549D01*
X139651Y407742D02*X144549D01*
X139651Y409710D02*X144549D01*
X139651Y411679D02*X144549D01*
X139651Y413647D02*X144549D01*
X139651Y415616D02*X144549D01*
X139651Y417584D02*X144549D01*
X139651Y419553D02*X144549D01*
X139651Y421521D02*X144549D01*
X139651Y423490D02*X144549D01*
X139651Y425458D02*X144549D01*
X139651Y427427D02*X144549D01*
X139651Y429395D02*X144549D01*
X139651Y431364D02*X144549D01*
X139651Y433332D02*X144549D01*
X139651Y435301D02*X144549D01*
X139651Y437269D02*X144549D01*
X139651Y439238D02*X144549D01*
X139651Y441206D02*X144549D01*
X139651Y443175D02*X144549D01*
X133163Y454561D02*Y449663D01*
X131195Y454561D02*Y449663D01*
X129226Y454561D02*Y449663D01*
X127258Y454561D02*Y449663D01*
X125289Y454561D02*Y449663D01*
X123321Y454561D02*Y449663D01*
X121352Y454561D02*Y449663D01*
X119384Y454561D02*Y449663D01*
X117415Y454561D02*Y449663D01*
X115447Y454561D02*Y449663D01*
X113478Y454561D02*Y449663D01*
X111510Y454561D02*Y449663D01*
X109541Y454561D02*Y449663D01*
X107573Y454561D02*Y449663D01*
X105604Y454561D02*Y449663D01*
X103636Y454561D02*Y449663D01*
X101667Y454561D02*Y449663D01*
X99699Y454561D02*Y449663D01*
X97730Y454561D02*Y449663D01*
X95762Y454561D02*Y449663D01*
X93793Y454561D02*Y449663D01*
X91825Y454561D02*Y449663D01*
X89856Y454561D02*Y449663D01*
X87888Y454561D02*Y449663D01*
X85919Y454561D02*Y449663D01*
G54D153*X131731Y364234D02*Y361872D01*
X143541Y364234D02*Y361872D01*
X84541Y374946D02*Y374160D01*
X91627Y374946D02*Y374160D01*
X138498Y379446D02*Y378660D01*
X145584Y379446D02*Y378660D01*
X145498Y451446D02*Y450660D01*
X152584Y451446D02*Y450660D01*
X78998Y460946D02*Y460160D01*
X86084Y460946D02*Y460160D01*
X157636Y443734D02*Y441372D01*
X169446Y443734D02*Y441372D01*
X48998Y369446D02*Y368660D01*
X56084Y369446D02*Y368660D01*
G54D159*X62982Y404545D02*Y403561D01*
X68100Y404545D02*Y403561D01*
X59482Y425545D02*Y424561D01*
X64600Y425545D02*Y424561D01*
G54D153*X58636Y388734D02*Y386372D01*
X70446Y388734D02*Y386372D01*
X52998Y448946D02*Y448160D01*
X60084Y448946D02*Y448160D01*
X52998Y436946D02*Y436160D01*
X60084Y436946D02*Y436160D01*
X105136Y345734D02*Y343372D01*
X116946Y345734D02*Y343372D01*
G54D171*X33462Y413946D02*Y400166D01*
Y376939D02*Y363159D01*
G54D172*X23619Y388553D02*X33462D01*
G54D159*X21482Y414545D02*Y413561D01*
X26600Y414545D02*Y413561D01*
G54D153*X46998Y405446D02*Y404660D01*
X54084Y405446D02*Y404660D01*
X46998Y417446D02*Y416660D01*
X54084Y417446D02*Y416660D01*
G54D159*X20049Y465112D02*X21033D01*
X20049Y459994D02*X21033D01*
X36549Y464112D02*X37533D01*
X36549Y458994D02*X37533D01*
G54D153*X33159Y427726D02*X35521D01*
X20560D02*X22922D01*
X33159Y449380D02*X35521D01*
X20560D02*X22922D01*
G54D159*X20549Y361112D02*X21533D01*
X20549Y355994D02*X21533D01*
G54D153*X93648Y466096D02*X94434D01*
X93648Y459010D02*X94434D01*
G54D154*X74391Y474053D02*X74691D01*
X81491Y474353D02*Y473753D01*
Y482553D02*Y481953D01*
X74091Y482553D02*Y481953D01*
X206891Y457553D02*X207191D01*
X213991Y457853D02*Y457253D01*
Y466053D02*Y465453D01*
X206591Y466053D02*Y465453D01*
X28941Y473553D02*X29241D01*
X36041Y473853D02*Y473253D01*
Y482053D02*Y481453D01*
X28641Y482053D02*Y481453D01*
G54D167*X233035Y42368D02*Y37644D01*
X229098Y42368D02*Y37644D01*
X225161Y42368D02*Y37644D01*
X221224Y42368D02*Y37644D01*
X217287Y42368D02*Y37644D01*
X213350Y42368D02*Y37644D01*
X209413Y42368D02*Y37644D01*
X205476Y42368D02*Y37644D01*
X201539Y42368D02*Y37644D01*
X197602Y42368D02*Y37644D01*
G54D168*X235003Y51817D02*Y47092D01*
X231066Y51817D02*Y47092D01*
X227129Y51817D02*Y47092D01*
X223192Y51817D02*Y47092D01*
X219255Y51817D02*Y47092D01*
G54D167*X215318Y51816D02*Y47092D01*
X211381Y51816D02*Y47092D01*
X207444Y51816D02*Y47092D01*
X203507Y51816D02*Y47092D01*
X199570Y51816D02*Y47092D01*
G54D169*X193664Y41974D02*Y38038D01*
Y51424D02*Y47486D01*
X238940Y41974D02*Y38038D01*
Y51424D02*Y47486D01*
M02*
