M48
INCH
T113C0.020
T112C0.035
T111C0.015
T110C0.109
T109C0.115
T108C0.116
T107C0.035
%
T111
X021691Y004474
X022095Y004478
X022489Y004476
X022891Y004474
X023271Y004474
X023671Y004474
X024061Y004474
X024451Y004474
X024851Y004474
X025251Y004474
X021891Y006594
X022291Y007044
X022691Y006594
X023091Y007044
X023471Y006594
X023871Y007044
X024261Y006594
X024661Y007044
X025051Y006594
X025451Y007044
X026271Y007634
X026380Y006830
X021431Y009624
X021751Y010764
X022061Y009624
X019000Y012550
X019700Y012700
X022381Y010764
X022691Y009624
X023011Y010764
X023321Y009624
X023641Y010764
X024271Y010764
X024901Y010764
X025531Y010764
X024581Y009624
X016100Y006200
X015050Y007000
X015200Y004800
X019000Y007450
X017800Y007450
X012500Y007500
X012550Y008250
X014450Y007550
X016413Y027219
X005141Y027074
X009141Y027424
X005200Y027600
X007691Y026774
X018293Y027219
X017673Y027219
X017043Y027219
X016403Y025259
X008041Y025174
X008491Y026074
X018303Y025259
X017673Y025259
X017043Y025259
X017983Y024696
X017353Y024696
X016723Y024696
X016091Y024694
X017980Y026605
X017350Y026605
X016720Y026605
X016091Y026604
X016541Y031124
X016931Y031124
X017331Y031124
X017721Y031124
X018111Y031124
X018511Y031124
X018901Y031124
X019301Y031124
X025088Y031123
X024298Y031123
X025480Y031620
X026270Y031620
X027060Y031620
X027850Y031620
X024690Y031620
X025868Y031123
X026658Y031123
X027445Y031123
X027837Y024897
X027451Y025444
X027045Y024897
X026661Y025444
X026273Y024897
X025873Y025446
X025482Y024897
X025081Y025444
X024698Y024897
X027850Y022200
X022850Y022750
X022050Y023050
X023100Y023200
X024294Y025444
X025671Y027664
X025280Y028470
X024891Y027664
X024490Y028470
X024101Y027664
X027246Y027664
X026860Y028470
X026466Y027664
X020350Y027000
X020050Y026550
X026070Y028470
X020351Y028344
X019721Y028344
X027640Y028470
X006041Y023574
X006241Y022924
X007691Y023974
X008191Y023624
X007641Y022624
X009141Y024174
X008841Y023724
X010541Y023524
X004291Y022924
X004300Y023550
X006191Y024874
X004300Y025000
X008391Y024574
X018615Y024685
X018930Y025270
X019245Y024705
X019560Y025290
X019875Y024725
X020190Y025310
X010900Y018950
X011050Y020650
X011900Y020400
X007650Y020150
X009750Y018850
X009591Y013924
X008991Y013924
X008791Y013324
X008350Y016600
X015750Y016400
X016750Y018800
X020750Y021200
X017950Y019030
X019100Y018950
X018400Y018650
X013450Y020350
X014900Y020000
X015300Y019500
X017000Y019650
X008891Y021574
X008291Y021624
X011000Y022050
X015525Y015475
X017950Y015650
X019200Y015550
X018550Y015600
X020450Y014850
X015000Y015450
X014450Y015450
X016250Y014700
X007400Y008150
X007500Y006350
X006900Y007700
X007050Y006800
X009600Y011800
X009000Y011950
X008150Y011950
X008950Y009900
X009650Y009900
X010100Y010350
X007500Y010000
X008400Y006150
X009950Y006450
X004891Y020474
X004300Y021000
X006900Y020400
X004250Y020350
X007496Y019196
X007450Y017800
X005500Y015800
X027900Y020200
X029800Y021200
X030450Y020600
X034200Y022750
X026000Y022500
X033550Y022550
X035950Y022450
X036350Y022850
X036800Y022450
X035500Y022850
X032300Y021450
X035100Y017850
X032550Y016900
X031550Y017100
X031750Y016600
X034000Y015750
X033750Y016550
X035100Y014450
X029850Y016100
X029950Y014050
X032500Y016000
X032000Y014200
X030550Y013600
X031550Y015200
X032500Y015200
X031650Y015900
X029000Y017450
X026900Y015950
X027650Y016750
X025400Y013000
X025650Y013500
X023100Y015350
X026200Y012950
X025300Y015800
X032200Y023050
X030550Y023050
X023700Y023050
X026200Y020250
X026750Y020650
X027250Y021900
X022450Y021950
X024450Y020550
X023050Y021750
X023050Y020550
X023951Y009624
X014150Y008350
X014800Y008350
X018800Y010300
X019650Y013450
X020750Y015850
X021700Y016250
X021350Y016700
X022450Y017000
X022200Y014050
X023100Y014550
X012600Y021100
X014100Y021100
X014750Y019150
X011050Y020050
X011050Y019500
X021350Y020550
X021700Y021050
X020850Y017700
X011476Y016739
X011900Y012300
X011300Y011900
X012263Y011713
X015550Y011800
X012041Y016374
X012441Y015924
X013291Y015924
X011341Y016024
X011541Y015424
X012841Y016374
X011232Y014865
X011791Y013724
X014500Y013500
T113
X011219Y012896
X011891Y012874
X011241Y014074
X011891Y014874
X011650Y019350
T112
X011950Y004800
X011600Y029500
X007141Y029274
X029850Y027450
X030950Y027450
X033000Y024700
X016591Y017424
X018591Y017424
X006041Y007924
X010541Y011074
X005191Y012974
X005691Y018474
X033550Y020700
X035050Y020700
X031550Y018100
X033450Y010800
X030350Y011950
X030700Y010550
X011841Y008924
X010441Y009724
X016891Y009474
X016891Y010974
X020550Y018450
X023250Y018450
T107
X026298Y008494
X020984Y008494
X020958Y026071
X015643Y026071
T110
X005611Y030684
X041611Y030684
X005611Y005684
X041611Y005684
T109
X034961Y007059
X032361Y007059
T108
X023641Y012474
X018300Y022550
M30
