G04 start of page 14 for group -3984 idx -3984 *
G04 Title: (unknown), fab *
G04 Creator: pcb 20110918 *
G04 CreationDate: Thu Dec  5 20:42:17 2013 UTC *
G04 For: fosse *
G04 Format: Gerber/RS-274X *
G04 PCB-Dimensions: 550000 550000 *
G04 PCB-Coordinate-Origin: lower left *
%MOIN*%
%FSLAX25Y25*%
%LNFAB*%
%ADD186C,0.0100*%
%ADD185C,0.0075*%
%ADD184C,0.0060*%
%ADD183C,0.0001*%
%ADD182R,0.0080X0.0080*%
G54D182*X236410Y124740D02*Y121540D01*
G54D183*G36*
X235864Y124887D02*X239330Y126886D01*
X239730Y126193D01*
X236263Y124194D01*
X235864Y124887D01*
G37*
G36*
X236557Y124194D02*X233090Y126193D01*
X233490Y126886D01*
X236956Y124887D01*
X236557Y124194D01*
G37*
G54D182*X234810Y124740D02*G75*G03X238010Y124740I1600J0D01*G01*
G75*G03X234810Y124740I-1600J0D01*G01*
X183000Y225500D02*Y222300D01*
G54D183*G36*
X182454Y225647D02*X185920Y227646D01*
X186320Y226953D01*
X182853Y224954D01*
X182454Y225647D01*
G37*
G36*
X183147Y224954D02*X179680Y226953D01*
X180080Y227646D01*
X183546Y225647D01*
X183147Y224954D01*
G37*
G54D182*X181400Y225500D02*G75*G03X184600Y225500I1600J0D01*G01*
G75*G03X181400Y225500I-1600J0D01*G01*
X15000Y561250D02*Y558050D01*
G54D183*G36*
X14454Y561397D02*X17920Y563396D01*
X18320Y562703D01*
X14853Y560704D01*
X14454Y561397D01*
G37*
G36*
X15147Y560704D02*X11680Y562703D01*
X12080Y563396D01*
X15546Y561397D01*
X15147Y560704D01*
G37*
G54D182*X13400Y561250D02*G75*G03X16600Y561250I1600J0D01*G01*
G75*G03X13400Y561250I-1600J0D01*G01*
G54D184*X135000Y563500D02*X136500Y560500D01*
X138000Y563500D01*
X136500Y560500D02*Y557500D01*
X139800Y560800D02*X142050D01*
X139800Y557500D02*X142800D01*
X139800Y563500D02*Y557500D01*
Y563500D02*X142800D01*
X147600D02*X148350Y562750D01*
X145350Y563500D02*X147600D01*
X144600Y562750D02*X145350Y563500D01*
X144600Y562750D02*Y561250D01*
X145350Y560500D01*
X147600D01*
X148350Y559750D01*
Y558250D01*
X147600Y557500D02*X148350Y558250D01*
X145350Y557500D02*X147600D01*
X144600Y558250D02*X145350Y557500D01*
X98000Y562750D02*X98750Y563500D01*
X101000D01*
X101750Y562750D01*
Y561250D01*
X98000Y557500D02*X101750Y561250D01*
X98000Y557500D02*X101750D01*
X45000Y558250D02*X45750Y557500D01*
X45000Y562750D02*Y558250D01*
Y562750D02*X45750Y563500D01*
X47250D01*
X48000Y562750D01*
Y558250D01*
X47250Y557500D02*X48000Y558250D01*
X45750Y557500D02*X47250D01*
X45000Y559000D02*X48000Y562000D01*
X49800Y557500D02*X50550D01*
X52350Y562300D02*X53550Y563500D01*
Y557500D01*
X52350D02*X54600D01*
X56400Y562300D02*X57600Y563500D01*
Y557500D01*
X56400D02*X58650D01*
X62700Y563500D02*X63450Y562750D01*
X61200Y563500D02*X62700D01*
X60450Y562750D02*X61200Y563500D01*
X60450Y562750D02*Y558250D01*
X61200Y557500D01*
X62700Y560800D02*X63450Y560050D01*
X60450Y560800D02*X62700D01*
X61200Y557500D02*X62700D01*
X63450Y558250D01*
Y560050D02*Y558250D01*
X348010Y72190D02*X351210D01*
X348010D02*Y68990D01*
X351210D01*
Y72190D02*Y68990D01*
X322010Y72190D02*X325210D01*
X322010D02*Y68990D01*
X325210D01*
Y72190D02*Y68990D01*
X13400Y577850D02*X16600D01*
X13400D02*Y574650D01*
X16600D01*
Y577850D02*Y574650D01*
X135000Y578500D02*X136500Y575500D01*
X138000Y578500D01*
X136500Y575500D02*Y572500D01*
X139800Y575800D02*X142050D01*
X139800Y572500D02*X142800D01*
X139800Y578500D02*Y572500D01*
Y578500D02*X142800D01*
X147600D02*X148350Y577750D01*
X145350Y578500D02*X147600D01*
X144600Y577750D02*X145350Y578500D01*
X144600Y577750D02*Y576250D01*
X145350Y575500D01*
X147600D01*
X148350Y574750D01*
Y573250D01*
X147600Y572500D02*X148350Y573250D01*
X145350Y572500D02*X147600D01*
X144600Y573250D02*X145350Y572500D01*
X98000Y577750D02*X98750Y578500D01*
X101000D01*
X101750Y577750D01*
Y576250D01*
X98000Y572500D02*X101750Y576250D01*
X98000Y572500D02*X101750D01*
X45000Y573250D02*X45750Y572500D01*
X45000Y577750D02*Y573250D01*
Y577750D02*X45750Y578500D01*
X47250D01*
X48000Y577750D01*
Y573250D01*
X47250Y572500D02*X48000Y573250D01*
X45750Y572500D02*X47250D01*
X45000Y574000D02*X48000Y577000D01*
X49800Y572500D02*X50550D01*
X52350Y577300D02*X53550Y578500D01*
Y572500D01*
X52350D02*X54600D01*
X56400Y577300D02*X57600Y578500D01*
Y572500D01*
X56400D02*X58650D01*
X60450Y578500D02*X63450D01*
X60450D02*Y575500D01*
X61200Y576250D01*
X62700D01*
X63450Y575500D01*
Y573250D01*
X62700Y572500D02*X63450Y573250D01*
X61200Y572500D02*X62700D01*
X60450Y573250D02*X61200Y572500D01*
X55310Y306840D02*G75*G03X56910Y306840I800J0D01*G01*
G75*G03X55310Y306840I-800J0D01*G01*
X415310D02*G75*G03X416910Y306840I800J0D01*G01*
G75*G03X415310Y306840I-800J0D01*G01*
X55310Y56840D02*G75*G03X56910Y56840I800J0D01*G01*
G75*G03X55310Y56840I-800J0D01*G01*
X415310D02*G75*G03X416910Y56840I800J0D01*G01*
G75*G03X415310Y56840I-800J0D01*G01*
X14200Y591250D02*G75*G03X15800Y591250I800J0D01*G01*
G75*G03X14200Y591250I-800J0D01*G01*
X135000Y593500D02*X136500Y590500D01*
X138000Y593500D01*
X136500Y590500D02*Y587500D01*
X139800Y590800D02*X142050D01*
X139800Y587500D02*X142800D01*
X139800Y593500D02*Y587500D01*
Y593500D02*X142800D01*
X147600D02*X148350Y592750D01*
X145350Y593500D02*X147600D01*
X144600Y592750D02*X145350Y593500D01*
X144600Y592750D02*Y591250D01*
X145350Y590500D01*
X147600D01*
X148350Y589750D01*
Y588250D01*
X147600Y587500D02*X148350Y588250D01*
X145350Y587500D02*X147600D01*
X144600Y588250D02*X145350Y587500D01*
X98000Y589750D02*X101000Y593500D01*
X98000Y589750D02*X101750D01*
X101000Y593500D02*Y587500D01*
X45000Y588250D02*X45750Y587500D01*
X45000Y592750D02*Y588250D01*
Y592750D02*X45750Y593500D01*
X47250D01*
X48000Y592750D01*
Y588250D01*
X47250Y587500D02*X48000Y588250D01*
X45750Y587500D02*X47250D01*
X45000Y589000D02*X48000Y592000D01*
X49800Y587500D02*X50550D01*
X52350Y592300D02*X53550Y593500D01*
Y587500D01*
X52350D02*X54600D01*
X56400Y588250D02*X57150Y587500D01*
X56400Y592750D02*Y588250D01*
Y592750D02*X57150Y593500D01*
X58650D01*
X59400Y592750D01*
Y588250D01*
X58650Y587500D02*X59400Y588250D01*
X57150Y587500D02*X58650D01*
X56400Y589000D02*X59400Y592000D01*
X61950Y587500D02*X64200Y590500D01*
Y592750D02*Y590500D01*
X63450Y593500D02*X64200Y592750D01*
X61950Y593500D02*X63450D01*
X61200Y592750D02*X61950Y593500D01*
X61200Y592750D02*Y591250D01*
X61950Y590500D01*
X64200D01*
X104210Y111940D02*X106610Y109540D01*
X104210D02*X106610Y111940D01*
X117210Y90440D02*X119610Y88040D01*
X117210D02*X119610Y90440D01*
X103210Y98440D02*X105610Y96040D01*
X103210D02*X105610Y98440D01*
X55710Y185940D02*X58110Y183540D01*
X55710D02*X58110Y185940D01*
X50710Y130940D02*X53110Y128540D01*
X50710D02*X53110Y130940D01*
X59210Y80440D02*X61610Y78040D01*
X59210D02*X61610Y80440D01*
X167710Y110940D02*X170110Y108540D01*
X167710D02*X170110Y110940D01*
X164710Y175440D02*X167110Y173040D01*
X164710D02*X167110Y175440D01*
X184710D02*X187110Y173040D01*
X184710D02*X187110Y175440D01*
X167710Y95940D02*X170110Y93540D01*
X167710D02*X170110Y95940D01*
X114800Y296200D02*X117200Y293800D01*
X114800D02*X117200Y296200D01*
X334300Y208200D02*X336700Y205800D01*
X334300D02*X336700Y208200D01*
X349300D02*X351700Y205800D01*
X349300D02*X351700Y208200D01*
X70210Y293940D02*X72610Y291540D01*
X70210D02*X72610Y293940D01*
X297300Y275700D02*X299700Y273300D01*
X297300D02*X299700Y275700D01*
X308300D02*X310700Y273300D01*
X308300D02*X310700Y275700D01*
X328800Y248200D02*X331200Y245800D01*
X328800D02*X331200Y248200D01*
X204300Y185700D02*X206700Y183300D01*
X204300D02*X206700Y185700D01*
X231300D02*X233700Y183300D01*
X231300D02*X233700Y185700D01*
X118300Y49200D02*X120700Y46800D01*
X118300D02*X120700Y49200D01*
X314300Y182200D02*X316700Y179800D01*
X314300D02*X316700Y182200D01*
X302300Y120700D02*X304700Y118300D01*
X302300D02*X304700Y120700D01*
X305800Y106700D02*X308200Y104300D01*
X305800D02*X308200Y106700D01*
X333300Y109200D02*X335700Y106800D01*
X333300D02*X335700Y109200D01*
X208376Y261906D02*X210776Y259506D01*
X208376D02*X210776Y261906D01*
X155226D02*X157626Y259506D01*
X155226D02*X157626Y261906D01*
X261785Y86144D02*X264185Y83744D01*
X261785D02*X264185Y86144D01*
X208635D02*X211035Y83744D01*
X208635D02*X211035Y86144D01*
X13800Y607450D02*X16200Y605050D01*
X13800D02*X16200Y607450D01*
X135000Y608500D02*X136500Y605500D01*
X138000Y608500D01*
X136500Y605500D02*Y602500D01*
X139800Y605800D02*X142050D01*
X139800Y602500D02*X142800D01*
X139800Y608500D02*Y602500D01*
Y608500D02*X142800D01*
X147600D02*X148350Y607750D01*
X145350Y608500D02*X147600D01*
X144600Y607750D02*X145350Y608500D01*
X144600Y607750D02*Y606250D01*
X145350Y605500D01*
X147600D01*
X148350Y604750D01*
Y603250D01*
X147600Y602500D02*X148350Y603250D01*
X145350Y602500D02*X147600D01*
X144600Y603250D02*X145350Y602500D01*
X98000Y607750D02*X98750Y608500D01*
X101000D01*
X101750Y607750D01*
Y606250D01*
X98000Y602500D02*X101750Y606250D01*
X98000Y602500D02*X101750D01*
X103550Y603250D02*X104300Y602500D01*
X103550Y604450D02*Y603250D01*
Y604450D02*X104600Y605500D01*
X105500D01*
X106550Y604450D01*
Y603250D01*
X105800Y602500D02*X106550Y603250D01*
X104300Y602500D02*X105800D01*
X103550Y606550D02*X104600Y605500D01*
X103550Y607750D02*Y606550D01*
Y607750D02*X104300Y608500D01*
X105800D01*
X106550Y607750D01*
Y606550D01*
X105500Y605500D02*X106550Y606550D01*
X45000Y603250D02*X45750Y602500D01*
X45000Y607750D02*Y603250D01*
Y607750D02*X45750Y608500D01*
X47250D01*
X48000Y607750D01*
Y603250D01*
X47250Y602500D02*X48000Y603250D01*
X45750Y602500D02*X47250D01*
X45000Y604000D02*X48000Y607000D01*
X49800Y602500D02*X50550D01*
X52350Y603250D02*X53100Y602500D01*
X52350Y607750D02*Y603250D01*
Y607750D02*X53100Y608500D01*
X54600D01*
X55350Y607750D01*
Y603250D01*
X54600Y602500D02*X55350Y603250D01*
X53100Y602500D02*X54600D01*
X52350Y604000D02*X55350Y607000D01*
X57150Y607750D02*X57900Y608500D01*
X59400D01*
X60150Y607750D01*
X59400Y602500D02*X60150Y603250D01*
X57900Y602500D02*X59400D01*
X57150Y603250D02*X57900Y602500D01*
Y605800D02*X59400D01*
X60150Y607750D02*Y606550D01*
Y605050D02*Y603250D01*
Y605050D02*X59400Y605800D01*
X60150Y606550D02*X59400Y605800D01*
X61950Y608500D02*X64950D01*
X61950D02*Y605500D01*
X62700Y606250D01*
X64200D01*
X64950Y605500D01*
Y603250D01*
X64200Y602500D02*X64950Y603250D01*
X62700Y602500D02*X64200D01*
X61950Y603250D02*X62700Y602500D01*
X112189Y130561D02*Y127361D01*
X110589Y128961D02*X113789D01*
X118910Y130340D02*Y127140D01*
X117310Y128740D02*X120510D01*
X112410Y142340D02*Y139140D01*
X110810Y140740D02*X114010D01*
X118910Y150340D02*Y147140D01*
X117310Y148740D02*X120510D01*
X116500Y195100D02*Y191900D01*
X114900Y193500D02*X118100D01*
X15000Y622850D02*Y619650D01*
X13400Y621250D02*X16600D01*
X135000Y623500D02*X136500Y620500D01*
X138000Y623500D01*
X136500Y620500D02*Y617500D01*
X139800Y620800D02*X142050D01*
X139800Y617500D02*X142800D01*
X139800Y623500D02*Y617500D01*
Y623500D02*X142800D01*
X147600D02*X148350Y622750D01*
X145350Y623500D02*X147600D01*
X144600Y622750D02*X145350Y623500D01*
X144600Y622750D02*Y621250D01*
X145350Y620500D01*
X147600D01*
X148350Y619750D01*
Y618250D01*
X147600Y617500D02*X148350Y618250D01*
X145350Y617500D02*X147600D01*
X144600Y618250D02*X145350Y617500D01*
X98000Y623500D02*X101000D01*
X98000D02*Y620500D01*
X98750Y621250D01*
X100250D01*
X101000Y620500D01*
Y618250D01*
X100250Y617500D02*X101000Y618250D01*
X98750Y617500D02*X100250D01*
X98000Y618250D02*X98750Y617500D01*
X45000Y618250D02*X45750Y617500D01*
X45000Y622750D02*Y618250D01*
Y622750D02*X45750Y623500D01*
X47250D01*
X48000Y622750D01*
Y618250D01*
X47250Y617500D02*X48000Y618250D01*
X45750Y617500D02*X47250D01*
X45000Y619000D02*X48000Y622000D01*
X49800Y617500D02*X50550D01*
X52350Y618250D02*X53100Y617500D01*
X52350Y622750D02*Y618250D01*
Y622750D02*X53100Y623500D01*
X54600D01*
X55350Y622750D01*
Y618250D01*
X54600Y617500D02*X55350Y618250D01*
X53100Y617500D02*X54600D01*
X52350Y619000D02*X55350Y622000D01*
X57150Y622750D02*X57900Y623500D01*
X60150D01*
X60900Y622750D01*
Y621250D01*
X57150Y617500D02*X60900Y621250D01*
X57150Y617500D02*X60900D01*
X62700Y618250D02*X63450Y617500D01*
X62700Y622750D02*Y618250D01*
Y622750D02*X63450Y623500D01*
X64950D01*
X65700Y622750D01*
Y618250D01*
X64950Y617500D02*X65700Y618250D01*
X63450Y617500D02*X64950D01*
X62700Y619000D02*X65700Y622000D01*
X182930Y272190D02*Y270590D01*
Y272190D02*X184317Y272990D01*
X182930Y272190D02*X181543Y272990D01*
X176730Y272190D02*Y270590D01*
Y272190D02*X178117Y272990D01*
X176730Y272190D02*X175343Y272990D01*
X170430Y272190D02*Y270590D01*
Y272190D02*X171817Y272990D01*
X170430Y272190D02*X169043Y272990D01*
X164130Y272190D02*Y270590D01*
Y272190D02*X165517Y272990D01*
X164130Y272190D02*X162743Y272990D01*
X183030Y252590D02*Y250990D01*
Y252590D02*X184417Y253390D01*
X183030Y252590D02*X181643Y253390D01*
X176730Y252590D02*Y250990D01*
Y252590D02*X178117Y253390D01*
X176730Y252590D02*X175343Y253390D01*
X170430Y252590D02*Y250990D01*
Y252590D02*X171817Y253390D01*
X170430Y252590D02*X169043Y253390D01*
X164030Y252590D02*Y250990D01*
Y252590D02*X165417Y253390D01*
X164030Y252590D02*X162643Y253390D01*
X165410Y311240D02*Y309640D01*
Y311240D02*X166797Y312040D01*
X165410Y311240D02*X164023Y312040D01*
X169310Y311240D02*Y309640D01*
Y311240D02*X170697Y312040D01*
X169310Y311240D02*X167923Y312040D01*
X173310Y311240D02*Y309640D01*
Y311240D02*X174697Y312040D01*
X173310Y311240D02*X171923Y312040D01*
X177210Y311240D02*Y309640D01*
Y311240D02*X178597Y312040D01*
X177210Y311240D02*X175823Y312040D01*
X181110Y311240D02*Y309640D01*
Y311240D02*X182497Y312040D01*
X181110Y311240D02*X179723Y312040D01*
X185110Y311240D02*Y309640D01*
Y311240D02*X186497Y312040D01*
X185110Y311240D02*X183723Y312040D01*
X189010Y311240D02*Y309640D01*
Y311240D02*X190397Y312040D01*
X189010Y311240D02*X187623Y312040D01*
X193010Y311240D02*Y309640D01*
Y311240D02*X194397Y312040D01*
X193010Y311240D02*X191623Y312040D01*
X179833Y246963D02*Y245363D01*
Y246963D02*X181220Y247763D01*
X179833Y246963D02*X178446Y247763D01*
X173533Y246963D02*Y245363D01*
Y246963D02*X174920Y247763D01*
X173533Y246963D02*X172146Y247763D01*
X167233Y246963D02*Y245363D01*
Y246963D02*X168620Y247763D01*
X167233Y246963D02*X165846Y247763D01*
X160910Y246940D02*Y245340D01*
Y246940D02*X162297Y247740D01*
X160910Y246940D02*X159523Y247740D01*
X179802Y266048D02*Y264448D01*
Y266048D02*X181189Y266848D01*
X179802Y266048D02*X178415Y266848D01*
X173502Y266048D02*Y264448D01*
Y266048D02*X174889Y266848D01*
X173502Y266048D02*X172115Y266848D01*
X167202Y266048D02*Y264448D01*
Y266048D02*X168589Y266848D01*
X167202Y266048D02*X165815Y266848D01*
X160910Y266040D02*Y264440D01*
Y266040D02*X162297Y266840D01*
X160910Y266040D02*X159523Y266840D01*
X250880Y311230D02*Y309630D01*
Y311230D02*X252267Y312030D01*
X250880Y311230D02*X249493Y312030D01*
X254800Y316200D02*Y314600D01*
Y316200D02*X256187Y317000D01*
X254800Y316200D02*X253413Y317000D01*
X258680Y311230D02*Y309630D01*
Y311230D02*X260067Y312030D01*
X258680Y311230D02*X257293Y312030D01*
X262700Y316200D02*Y314600D01*
Y316200D02*X264087Y317000D01*
X262700Y316200D02*X261313Y317000D01*
X266580Y311230D02*Y309630D01*
Y311230D02*X267967Y312030D01*
X266580Y311230D02*X265193Y312030D01*
X270600Y316200D02*Y314600D01*
Y316200D02*X271987Y317000D01*
X270600Y316200D02*X269213Y317000D01*
X274454Y311230D02*Y309630D01*
Y311230D02*X275841Y312030D01*
X274454Y311230D02*X273067Y312030D01*
X278500Y316200D02*Y314600D01*
Y316200D02*X279887Y317000D01*
X278500Y316200D02*X277113Y317000D01*
X278370Y248970D02*Y247370D01*
Y248970D02*X279757Y249770D01*
X278370Y248970D02*X276983Y249770D01*
X274509Y254440D02*Y252840D01*
Y254440D02*X275896Y255240D01*
X274509Y254440D02*X273122Y255240D01*
X270450Y248970D02*Y247370D01*
Y248970D02*X271837Y249770D01*
X270450Y248970D02*X269063Y249770D01*
X266609Y254440D02*Y252840D01*
Y254440D02*X267996Y255240D01*
X266609Y254440D02*X265222Y255240D01*
X262730Y248970D02*Y247370D01*
Y248970D02*X264117Y249770D01*
X262730Y248970D02*X261343Y249770D01*
X258726Y254458D02*Y252858D01*
Y254458D02*X260113Y255258D01*
X258726Y254458D02*X257339Y255258D01*
X254820Y248970D02*Y247370D01*
Y248970D02*X256207Y249770D01*
X254820Y248970D02*X253433Y249770D01*
X250809Y254440D02*Y252840D01*
Y254440D02*X252196Y255240D01*
X250809Y254440D02*X249422Y255240D01*
X246980Y248970D02*Y247370D01*
Y248970D02*X248367Y249770D01*
X246980Y248970D02*X245593Y249770D01*
X242935Y254440D02*Y252840D01*
Y254440D02*X244322Y255240D01*
X242935Y254440D02*X241548Y255240D01*
X256710Y276640D02*Y275040D01*
Y276640D02*X258097Y277440D01*
X256710Y276640D02*X255323Y277440D01*
X252800Y284700D02*Y283100D01*
Y284700D02*X254187Y285500D01*
X252800Y284700D02*X251413Y285500D01*
X248910Y276640D02*Y275040D01*
Y276640D02*X250297Y277440D01*
X248910Y276640D02*X247523Y277440D01*
X244900Y284700D02*Y283100D01*
Y284700D02*X246287Y285500D01*
X244900Y284700D02*X243513Y285500D01*
X241010Y276640D02*Y275040D01*
Y276640D02*X242397Y277440D01*
X241010Y276640D02*X239623Y277440D01*
X272458Y276640D02*Y275040D01*
Y276640D02*X273845Y277440D01*
X272458Y276640D02*X271071Y277440D01*
X268600Y284700D02*Y283100D01*
Y284700D02*X269987Y285500D01*
X268600Y284700D02*X267213Y285500D01*
X264658Y276640D02*Y275040D01*
Y276640D02*X266045Y277440D01*
X264658Y276640D02*X263271Y277440D01*
X260700Y284700D02*Y283100D01*
Y284700D02*X262087Y285500D01*
X260700Y284700D02*X259313Y285500D01*
X276400Y284700D02*Y283100D01*
Y284700D02*X277787Y285500D01*
X276400Y284700D02*X275013Y285500D01*
X216910Y44740D02*Y43140D01*
Y44740D02*X218297Y45540D01*
X216910Y44740D02*X215523Y45540D01*
X220949Y44779D02*Y43179D01*
Y44779D02*X222336Y45579D01*
X220949Y44779D02*X219562Y45579D01*
X224886Y44764D02*Y43164D01*
Y44764D02*X226273Y45564D01*
X224886Y44764D02*X223499Y45564D01*
X228910Y44740D02*Y43140D01*
Y44740D02*X230297Y45540D01*
X228910Y44740D02*X227523Y45540D01*
X232710Y44740D02*Y43140D01*
Y44740D02*X234097Y45540D01*
X232710Y44740D02*X231323Y45540D01*
X236710Y44740D02*Y43140D01*
Y44740D02*X238097Y45540D01*
X236710Y44740D02*X235323Y45540D01*
X240610Y44740D02*Y43140D01*
Y44740D02*X241997Y45540D01*
X240610Y44740D02*X239223Y45540D01*
X244510Y44740D02*Y43140D01*
Y44740D02*X245897Y45540D01*
X244510Y44740D02*X243123Y45540D01*
X248510Y44740D02*Y43140D01*
Y44740D02*X249897Y45540D01*
X248510Y44740D02*X247123Y45540D01*
X252510Y44740D02*Y43140D01*
Y44740D02*X253897Y45540D01*
X252510Y44740D02*X251123Y45540D01*
X218910Y65940D02*Y64340D01*
Y65940D02*X220297Y66740D01*
X218910Y65940D02*X217523Y66740D01*
X222910Y70440D02*Y68840D01*
Y70440D02*X224297Y71240D01*
X222910Y70440D02*X221523Y71240D01*
X226910Y65940D02*Y64340D01*
Y65940D02*X228297Y66740D01*
X226910Y65940D02*X225523Y66740D01*
X230910Y70440D02*Y68840D01*
Y70440D02*X232297Y71240D01*
X230910Y70440D02*X229523Y71240D01*
X234710Y65940D02*Y64340D01*
Y65940D02*X236097Y66740D01*
X234710Y65940D02*X233323Y66740D01*
X238710Y70440D02*Y68840D01*
Y70440D02*X240097Y71240D01*
X238710Y70440D02*X237323Y71240D01*
X242610Y65940D02*Y64340D01*
Y65940D02*X243997Y66740D01*
X242610Y65940D02*X241223Y66740D01*
X246610Y70440D02*Y68840D01*
Y70440D02*X247997Y71240D01*
X246610Y70440D02*X245223Y71240D01*
X250510Y65940D02*Y64340D01*
Y65940D02*X251897Y66740D01*
X250510Y65940D02*X249123Y66740D01*
X254510Y70440D02*Y68840D01*
Y70440D02*X255897Y71240D01*
X254510Y70440D02*X253123Y71240D01*
X214310Y96240D02*Y94640D01*
Y96240D02*X215697Y97040D01*
X214310Y96240D02*X212923Y97040D01*
X217510Y107640D02*Y106040D01*
Y107640D02*X218897Y108440D01*
X217510Y107640D02*X216123Y108440D01*
X220610Y96240D02*Y94640D01*
Y96240D02*X221997Y97040D01*
X220610Y96240D02*X219223Y97040D01*
X223810Y107640D02*Y106040D01*
Y107640D02*X225197Y108440D01*
X223810Y107640D02*X222423Y108440D01*
X226910Y96240D02*Y94640D01*
Y96240D02*X228297Y97040D01*
X226910Y96240D02*X225523Y97040D01*
X230110Y107640D02*Y106040D01*
Y107640D02*X231497Y108440D01*
X230110Y107640D02*X228723Y108440D01*
X233210Y96240D02*Y94640D01*
Y96240D02*X234597Y97040D01*
X233210Y96240D02*X231823Y97040D01*
X236410Y107640D02*Y106040D01*
Y107640D02*X237797Y108440D01*
X236410Y107640D02*X235023Y108440D01*
X239510Y96240D02*Y94640D01*
Y96240D02*X240897Y97040D01*
X239510Y96240D02*X238123Y97040D01*
X242710Y107640D02*Y106040D01*
Y107640D02*X244097Y108440D01*
X242710Y107640D02*X241323Y108440D01*
X245810Y96240D02*Y94640D01*
Y96240D02*X247197Y97040D01*
X245810Y96240D02*X244423Y97040D01*
X249010Y107640D02*Y106040D01*
Y107640D02*X250397Y108440D01*
X249010Y107640D02*X247623Y108440D01*
X255310Y107640D02*Y106040D01*
Y107640D02*X256697Y108440D01*
X255310Y107640D02*X253923Y108440D01*
X262710Y76340D02*Y74740D01*
Y76340D02*X264097Y77140D01*
X262710Y76340D02*X261323Y77140D01*
X48910Y204740D02*Y203140D01*
Y204740D02*X50297Y205540D01*
X48910Y204740D02*X47523Y205540D01*
X61910Y248740D02*Y247140D01*
Y248740D02*X63297Y249540D01*
X61910Y248740D02*X60523Y249540D01*
X83910Y245740D02*Y244140D01*
Y245740D02*X85297Y246540D01*
X83910Y245740D02*X82523Y246540D01*
X51410Y270740D02*Y269140D01*
Y270740D02*X52797Y271540D01*
X51410Y270740D02*X50023Y271540D01*
X80410Y251740D02*Y250140D01*
Y251740D02*X81797Y252540D01*
X80410Y251740D02*X79023Y252540D01*
X60410Y235740D02*Y234140D01*
Y235740D02*X61797Y236540D01*
X60410Y235740D02*X59023Y236540D01*
X42910Y229240D02*Y227640D01*
Y229240D02*X44297Y230040D01*
X42910Y229240D02*X41523Y230040D01*
X62410Y229240D02*Y227640D01*
Y229240D02*X63797Y230040D01*
X62410Y229240D02*X61023Y230040D01*
X91410Y274240D02*Y272640D01*
Y274240D02*X92797Y275040D01*
X91410Y274240D02*X90023Y275040D01*
X84910Y260740D02*Y259140D01*
Y260740D02*X86297Y261540D01*
X84910Y260740D02*X83523Y261540D01*
X76910Y239740D02*Y238140D01*
Y239740D02*X78297Y240540D01*
X76910Y239740D02*X75523Y240540D01*
X81910Y236240D02*Y234640D01*
Y236240D02*X83297Y237040D01*
X81910Y236240D02*X80523Y237040D01*
X88910Y215740D02*Y214140D01*
Y215740D02*X90297Y216540D01*
X88910Y215740D02*X87523Y216540D01*
X82910Y216240D02*Y214640D01*
Y216240D02*X84297Y217040D01*
X82910Y216240D02*X81523Y217040D01*
X76410Y226240D02*Y224640D01*
Y226240D02*X77797Y227040D01*
X76410Y226240D02*X75023Y227040D01*
X91410Y241740D02*Y240140D01*
Y241740D02*X92797Y242540D01*
X91410Y241740D02*X90023Y242540D01*
X88410Y237240D02*Y235640D01*
Y237240D02*X89797Y238040D01*
X88410Y237240D02*X87023Y238040D01*
X105410Y235240D02*Y233640D01*
Y235240D02*X106797Y236040D01*
X105410Y235240D02*X104023Y236040D01*
X157500Y164000D02*Y162400D01*
Y164000D02*X158887Y164800D01*
X157500Y164000D02*X156113Y164800D01*
X134500Y203500D02*Y201900D01*
Y203500D02*X135887Y204300D01*
X134500Y203500D02*X133113Y204300D01*
X149000Y200000D02*Y198400D01*
Y200000D02*X150387Y200800D01*
X149000Y200000D02*X147613Y200800D01*
X153000Y195000D02*Y193400D01*
Y195000D02*X154387Y195800D01*
X153000Y195000D02*X151613Y195800D01*
X110000Y220500D02*Y218900D01*
Y220500D02*X111387Y221300D01*
X110000Y220500D02*X108613Y221300D01*
X155250Y154750D02*Y153150D01*
Y154750D02*X156637Y155550D01*
X155250Y154750D02*X153863Y155550D01*
X150000Y154500D02*Y152900D01*
Y154500D02*X151387Y155300D01*
X150000Y154500D02*X148613Y155300D01*
X144500Y154500D02*Y152900D01*
Y154500D02*X145887Y155300D01*
X144500Y154500D02*X143113Y155300D01*
X179500Y156500D02*Y154900D01*
Y156500D02*X180887Y157300D01*
X179500Y156500D02*X178113Y157300D01*
X109000Y189500D02*Y187900D01*
Y189500D02*X110387Y190300D01*
X109000Y189500D02*X107613Y190300D01*
X43000Y250000D02*Y248400D01*
Y250000D02*X44387Y250800D01*
X43000Y250000D02*X41613Y250800D01*
X43000Y210000D02*Y208400D01*
Y210000D02*X44387Y210800D01*
X43000Y210000D02*X41613Y210800D01*
X76500Y201500D02*Y199900D01*
Y201500D02*X77887Y202300D01*
X76500Y201500D02*X75113Y202300D01*
X43000Y235500D02*Y233900D01*
Y235500D02*X44387Y236300D01*
X43000Y235500D02*X41613Y236300D01*
X242980Y311230D02*Y309630D01*
Y311230D02*X244367Y312030D01*
X242980Y311230D02*X241593Y312030D01*
X246900Y316200D02*Y314600D01*
Y316200D02*X248287Y317000D01*
X246900Y316200D02*X245513Y317000D01*
X263800Y68300D02*Y66700D01*
Y68300D02*X265187Y69100D01*
X263800Y68300D02*X262413Y69100D01*
X186150Y246850D02*Y245250D01*
Y246850D02*X187537Y247650D01*
X186150Y246850D02*X184763Y247650D01*
X189299Y252701D02*Y251101D01*
Y252701D02*X190686Y253501D01*
X189299Y252701D02*X187912Y253501D01*
X192450Y247050D02*Y245450D01*
Y247050D02*X193837Y247850D01*
X192450Y247050D02*X191063Y247850D01*
X195599Y252901D02*Y251301D01*
Y252901D02*X196986Y253701D01*
X195599Y252901D02*X194212Y253701D01*
X198748Y247252D02*Y245652D01*
Y247252D02*X200135Y248052D01*
X198748Y247252D02*X197361Y248052D01*
X201898Y253102D02*Y251502D01*
Y253102D02*X203285Y253902D01*
X201898Y253102D02*X200511Y253902D01*
X207500Y212000D02*Y210400D01*
Y212000D02*X208887Y212800D01*
X207500Y212000D02*X206113Y212800D01*
X203510Y283440D02*Y281840D01*
Y283440D02*X204897Y284240D01*
X203510Y283440D02*X202123Y284240D01*
X278500Y222000D02*Y220400D01*
Y222000D02*X279887Y222800D01*
X278500Y222000D02*X277113Y222800D01*
X279000Y202000D02*Y200400D01*
Y202000D02*X280387Y202800D01*
X279000Y202000D02*X277613Y202800D01*
X298000Y212000D02*Y210400D01*
Y212000D02*X299387Y212800D01*
X298000Y212000D02*X296613Y212800D01*
X179500Y190300D02*Y188700D01*
Y190300D02*X180887Y191100D01*
X179500Y190300D02*X178113Y191100D01*
X342000Y227500D02*Y225900D01*
Y227500D02*X343387Y228300D01*
X342000Y227500D02*X340613Y228300D01*
X335500Y225500D02*Y223900D01*
Y225500D02*X336887Y226300D01*
X335500Y225500D02*X334113Y226300D01*
X322000Y230500D02*Y228900D01*
Y230500D02*X323387Y231300D01*
X322000Y230500D02*X320613Y231300D01*
X323000Y214500D02*Y212900D01*
Y214500D02*X324387Y215300D01*
X323000Y214500D02*X321613Y215300D01*
X359500Y224500D02*Y222900D01*
Y224500D02*X360887Y225300D01*
X359500Y224500D02*X358113Y225300D01*
X363500Y228500D02*Y226900D01*
Y228500D02*X364887Y229300D01*
X363500Y228500D02*X362113Y229300D01*
X368000Y224500D02*Y222900D01*
Y224500D02*X369387Y225300D01*
X368000Y224500D02*X366613Y225300D01*
X355000Y228500D02*Y226900D01*
Y228500D02*X356387Y229300D01*
X355000Y228500D02*X353613Y229300D01*
X260000Y225000D02*Y223400D01*
Y225000D02*X261387Y225800D01*
X260000Y225000D02*X258613Y225800D01*
X192000Y155500D02*Y153900D01*
Y155500D02*X193387Y156300D01*
X192000Y155500D02*X190613Y156300D01*
X190000Y125500D02*Y123900D01*
Y125500D02*X191387Y126300D01*
X190000Y125500D02*X188613Y126300D01*
X305500Y230500D02*Y228900D01*
Y230500D02*X306887Y231300D01*
X305500Y230500D02*X304113Y231300D01*
X197000Y127000D02*Y125400D01*
Y127000D02*X198387Y127800D01*
X197000Y127000D02*X195613Y127800D01*
X304500Y206000D02*Y204400D01*
Y206000D02*X305887Y206800D01*
X304500Y206000D02*X303113Y206800D01*
X110500Y206500D02*Y204900D01*
Y206500D02*X111887Y207300D01*
X110500Y206500D02*X109113Y207300D01*
X119000Y204000D02*Y202400D01*
Y204000D02*X120387Y204800D01*
X119000Y204000D02*X117613Y204800D01*
X185500Y156000D02*Y154400D01*
Y156000D02*X186887Y156800D01*
X185500Y156000D02*X184113Y156800D01*
X162500Y147000D02*Y145400D01*
Y147000D02*X163887Y147800D01*
X162500Y147000D02*X161113Y147800D01*
X119000Y123000D02*Y121400D01*
Y123000D02*X120387Y123800D01*
X119000Y123000D02*X117613Y123800D01*
X113000Y119000D02*Y117400D01*
Y119000D02*X114387Y119800D01*
X113000Y119000D02*X111613Y119800D01*
X96000Y118000D02*Y116400D01*
Y118000D02*X97387Y118800D01*
X96000Y118000D02*X94613Y118800D01*
X89500Y99000D02*Y97400D01*
Y99000D02*X90887Y99800D01*
X89500Y99000D02*X88113Y99800D01*
X96500Y99000D02*Y97400D01*
Y99000D02*X97887Y99800D01*
X96500Y99000D02*X95113Y99800D01*
X97500Y188500D02*Y186900D01*
Y188500D02*X98887Y189300D01*
X97500Y188500D02*X96113Y189300D01*
X126000Y211000D02*Y209400D01*
Y211000D02*X127387Y211800D01*
X126000Y211000D02*X124613Y211800D01*
X141000Y211000D02*Y209400D01*
Y211000D02*X142387Y211800D01*
X141000Y211000D02*X139613Y211800D01*
X101000Y103500D02*Y101900D01*
Y103500D02*X102387Y104300D01*
X101000Y103500D02*X99613Y104300D01*
X237000Y230500D02*Y228900D01*
Y230500D02*X238387Y231300D01*
X237000Y230500D02*X235613Y231300D01*
X74957Y191957D02*Y190357D01*
Y191957D02*X76344Y192757D01*
X74957Y191957D02*X73570Y192757D01*
X74500Y178000D02*Y176400D01*
Y178000D02*X75887Y178800D01*
X74500Y178000D02*X73113Y178800D01*
X74000Y81500D02*Y79900D01*
Y81500D02*X75387Y82300D01*
X74000Y81500D02*X72613Y82300D01*
X120410Y163740D02*Y162140D01*
Y163740D02*X121797Y164540D01*
X120410Y163740D02*X119023Y164540D01*
X124410Y159240D02*Y157640D01*
Y159240D02*X125797Y160040D01*
X124410Y159240D02*X123023Y160040D01*
X132910Y159240D02*Y157640D01*
Y159240D02*X134297Y160040D01*
X132910Y159240D02*X131523Y160040D01*
X114757Y167393D02*Y165793D01*
Y167393D02*X116144Y168193D01*
X114757Y167393D02*X113370Y168193D01*
X113410Y160240D02*Y158640D01*
Y160240D02*X114797Y161040D01*
X113410Y160240D02*X112023Y161040D01*
X115410Y154240D02*Y152640D01*
Y154240D02*X116797Y155040D01*
X115410Y154240D02*X114023Y155040D01*
X112316Y148646D02*Y147046D01*
Y148646D02*X113703Y149446D01*
X112316Y148646D02*X110929Y149446D01*
X117910Y137240D02*Y135640D01*
Y137240D02*X119297Y138040D01*
X117910Y137240D02*X116523Y138040D01*
X145000Y135000D02*Y133400D01*
Y135000D02*X146387Y135800D01*
X145000Y135000D02*X143613Y135800D01*
X147500Y191500D02*Y189900D01*
Y191500D02*X148887Y192300D01*
X147500Y191500D02*X146113Y192300D01*
X110500Y200500D02*Y198900D01*
Y200500D02*X111887Y201300D01*
X110500Y200500D02*X109113Y201300D01*
X110500Y195000D02*Y193400D01*
Y195000D02*X111887Y195800D01*
X110500Y195000D02*X109113Y195800D01*
X69000Y204000D02*Y202400D01*
Y204000D02*X70387Y204800D01*
X69000Y204000D02*X67613Y204800D01*
X42500Y203500D02*Y201900D01*
Y203500D02*X43887Y204300D01*
X42500Y203500D02*X41113Y204300D01*
X52000Y276000D02*Y274400D01*
Y276000D02*X53387Y276800D01*
X52000Y276000D02*X50613Y276800D01*
X95910Y139240D02*Y137640D01*
Y139240D02*X97297Y140040D01*
X95910Y139240D02*X94523Y140040D01*
X89910Y139240D02*Y137640D01*
Y139240D02*X91297Y140040D01*
X89910Y139240D02*X88523Y140040D01*
X87910Y133240D02*Y131640D01*
Y133240D02*X89297Y134040D01*
X87910Y133240D02*X86523Y134040D01*
X128410Y163740D02*Y162140D01*
Y163740D02*X129797Y164540D01*
X128410Y163740D02*X127023Y164540D01*
X161000Y62000D02*Y60400D01*
Y62000D02*X162387Y62800D01*
X161000Y62000D02*X159613Y62800D01*
X141500Y83500D02*Y81900D01*
Y83500D02*X142887Y84300D01*
X141500Y83500D02*X140113Y84300D01*
X122630Y117130D02*Y115530D01*
Y117130D02*X124017Y117930D01*
X122630Y117130D02*X121243Y117930D01*
X148000Y83500D02*Y81900D01*
Y83500D02*X149387Y84300D01*
X148000Y83500D02*X146613Y84300D01*
X197210Y283440D02*Y281840D01*
Y283440D02*X198597Y284240D01*
X197210Y283440D02*X195823Y284240D01*
X76910Y267740D02*Y266140D01*
Y267740D02*X78297Y268540D01*
X76910Y267740D02*X75523Y268540D01*
X188000Y103000D02*Y101400D01*
Y103000D02*X189387Y103800D01*
X188000Y103000D02*X186613Y103800D01*
X150500Y70000D02*Y68400D01*
Y70000D02*X151887Y70800D01*
X150500Y70000D02*X149113Y70800D01*
X152000Y48000D02*Y46400D01*
Y48000D02*X153387Y48800D01*
X152000Y48000D02*X150613Y48800D01*
X75000Y63500D02*Y61900D01*
Y63500D02*X76387Y64300D01*
X75000Y63500D02*X73613Y64300D01*
X90000Y119500D02*Y117900D01*
Y119500D02*X91387Y120300D01*
X90000Y119500D02*X88613Y120300D01*
X81500Y119500D02*Y117900D01*
Y119500D02*X82887Y120300D01*
X81500Y119500D02*X80113Y120300D01*
X75000Y100000D02*Y98400D01*
Y100000D02*X76387Y100800D01*
X75000Y100000D02*X73613Y100800D01*
X190000Y74500D02*Y72900D01*
Y74500D02*X191387Y75300D01*
X190000Y74500D02*X188613Y75300D01*
X178000Y74500D02*Y72900D01*
Y74500D02*X179387Y75300D01*
X178000Y74500D02*X176613Y75300D01*
X83500Y166000D02*Y164400D01*
Y166000D02*X84887Y166800D01*
X83500Y166000D02*X82113Y166800D01*
X55000Y158000D02*Y156400D01*
Y158000D02*X56387Y158800D01*
X55000Y158000D02*X53613Y158800D01*
X69000Y77000D02*Y75400D01*
Y77000D02*X70387Y77800D01*
X69000Y77000D02*X67613Y77800D01*
X70500Y68000D02*Y66400D01*
Y68000D02*X71887Y68800D01*
X70500Y68000D02*X69113Y68800D01*
X125000Y75000D02*Y73400D01*
Y75000D02*X126387Y75800D01*
X125000Y75000D02*X123613Y75800D01*
X84000Y61500D02*Y59900D01*
Y61500D02*X85387Y62300D01*
X84000Y61500D02*X82613Y62300D01*
X99500Y64500D02*Y62900D01*
Y64500D02*X100887Y65300D01*
X99500Y64500D02*X98113Y65300D01*
X262000Y202500D02*Y200900D01*
Y202500D02*X263387Y203300D01*
X262000Y202500D02*X260613Y203300D01*
X267500Y206500D02*Y204900D01*
Y206500D02*X268887Y207300D01*
X267500Y206500D02*X266113Y207300D01*
X272500Y219000D02*Y217400D01*
Y219000D02*X273887Y219800D01*
X272500Y219000D02*X271113Y219800D01*
X196500Y134500D02*Y132900D01*
Y134500D02*X197887Y135300D01*
X196500Y134500D02*X195113Y135300D01*
X155500Y118000D02*Y116400D01*
Y118000D02*X156887Y118800D01*
X155500Y118000D02*X154113Y118800D01*
X207500Y158500D02*Y156900D01*
Y158500D02*X208887Y159300D01*
X207500Y158500D02*X206113Y159300D01*
X170000Y196500D02*Y194900D01*
Y196500D02*X171387Y197300D01*
X170000Y196500D02*X168613Y197300D01*
X167500Y188000D02*Y186400D01*
Y188000D02*X168887Y188800D01*
X167500Y188000D02*X166113Y188800D01*
X217000Y162500D02*Y160900D01*
Y162500D02*X218387Y163300D01*
X217000Y162500D02*X215613Y163300D01*
X204500Y148500D02*Y146900D01*
Y148500D02*X205887Y149300D01*
X204500Y148500D02*X203113Y149300D01*
X203500Y270000D02*Y268400D01*
Y270000D02*X204887Y270800D01*
X203500Y270000D02*X202113Y270800D01*
X200500Y265500D02*Y263900D01*
Y265500D02*X201887Y266300D01*
X200500Y265500D02*X199113Y266300D01*
X228500Y227500D02*Y225900D01*
Y227500D02*X229887Y228300D01*
X228500Y227500D02*X227113Y228300D01*
X220500Y230500D02*Y228900D01*
Y230500D02*X221887Y231300D01*
X220500Y230500D02*X219113Y231300D01*
X224500Y170000D02*Y168400D01*
Y170000D02*X225887Y170800D01*
X224500Y170000D02*X223113Y170800D01*
X224500Y219500D02*Y217900D01*
Y219500D02*X225887Y220300D01*
X224500Y219500D02*X223113Y220300D01*
X125500Y82500D02*Y80900D01*
Y82500D02*X126887Y83300D01*
X125500Y82500D02*X124113Y83300D01*
X144500Y75500D02*Y73900D01*
Y75500D02*X145887Y76300D01*
X144500Y75500D02*X143113Y76300D01*
X231000Y232000D02*Y230400D01*
Y232000D02*X232387Y232800D01*
X231000Y232000D02*X229613Y232800D01*
X222000Y140500D02*Y138900D01*
Y140500D02*X223387Y141300D01*
X222000Y140500D02*X220613Y141300D01*
X340000Y157500D02*Y155900D01*
Y157500D02*X341387Y158300D01*
X340000Y157500D02*X338613Y158300D01*
X337500Y165500D02*Y163900D01*
Y165500D02*X338887Y166300D01*
X337500Y165500D02*X336113Y166300D01*
X325000Y160000D02*Y158400D01*
Y160000D02*X326387Y160800D01*
X325000Y160000D02*X323613Y160800D01*
X320000Y142000D02*Y140400D01*
Y142000D02*X321387Y142800D01*
X320000Y142000D02*X318613Y142800D01*
X305500Y136000D02*Y134400D01*
Y136000D02*X306887Y136800D01*
X305500Y136000D02*X304113Y136800D01*
X351000Y178500D02*Y176900D01*
Y178500D02*X352387Y179300D01*
X351000Y178500D02*X349613Y179300D01*
X351000Y144500D02*Y142900D01*
Y144500D02*X352387Y145300D01*
X351000Y144500D02*X349613Y145300D01*
X298500Y161000D02*Y159400D01*
Y161000D02*X299887Y161800D01*
X298500Y161000D02*X297113Y161800D01*
X325500Y169000D02*Y167400D01*
Y169000D02*X326887Y169800D01*
X325500Y169000D02*X324113Y169800D01*
X315500Y152000D02*Y150400D01*
Y152000D02*X316887Y152800D01*
X315500Y152000D02*X314113Y152800D01*
X325000Y152000D02*Y150400D01*
Y152000D02*X326387Y152800D01*
X325000Y152000D02*X323613Y152800D01*
X299500Y140500D02*Y138900D01*
Y140500D02*X300887Y141300D01*
X299500Y140500D02*X298113Y141300D01*
X315500Y171000D02*Y169400D01*
Y171000D02*X316887Y171800D01*
X315500Y171000D02*X314113Y171800D01*
X290000Y174500D02*Y172900D01*
Y174500D02*X291387Y175300D01*
X290000Y174500D02*X288613Y175300D01*
X269000Y159500D02*Y157900D01*
Y159500D02*X270387Y160300D01*
X269000Y159500D02*X267613Y160300D01*
X276500Y167500D02*Y165900D01*
Y167500D02*X277887Y168300D01*
X276500Y167500D02*X275113Y168300D01*
X316500Y159000D02*Y157400D01*
Y159000D02*X317887Y159800D01*
X316500Y159000D02*X315113Y159800D01*
X317500Y166000D02*Y164400D01*
Y166000D02*X318887Y166800D01*
X317500Y166000D02*X316113Y166800D01*
X244500Y205500D02*Y203900D01*
Y205500D02*X245887Y206300D01*
X244500Y205500D02*X243113Y206300D01*
X231000Y145500D02*Y143900D01*
Y145500D02*X232387Y146300D01*
X231000Y145500D02*X229613Y146300D01*
X213500Y167000D02*Y165400D01*
Y167000D02*X214887Y167800D01*
X213500Y167000D02*X212113Y167800D01*
X213500Y205500D02*Y203900D01*
Y205500D02*X214887Y206300D01*
X213500Y205500D02*X212113Y206300D01*
X217000Y210500D02*Y208900D01*
Y210500D02*X218387Y211300D01*
X217000Y210500D02*X215613Y211300D01*
X230500Y217500D02*Y215900D01*
Y217500D02*X231887Y218300D01*
X230500Y217500D02*X229113Y218300D01*
X230500Y205500D02*Y203900D01*
Y205500D02*X231887Y206300D01*
X230500Y205500D02*X229113Y206300D01*
X254000Y130000D02*Y128400D01*
Y130000D02*X255387Y130800D01*
X254000Y130000D02*X252613Y130800D01*
X256500Y135000D02*Y133400D01*
Y135000D02*X257887Y135800D01*
X256500Y135000D02*X255113Y135800D01*
X231000Y153500D02*Y151900D01*
Y153500D02*X232387Y154300D01*
X231000Y153500D02*X229613Y154300D01*
X191000Y189500D02*Y187900D01*
Y189500D02*X192387Y190300D01*
X191000Y189500D02*X189613Y190300D01*
X262000Y129500D02*Y127900D01*
Y129500D02*X263387Y130300D01*
X262000Y129500D02*X260613Y130300D01*
X208500Y177000D02*Y175400D01*
Y177000D02*X209887Y177800D01*
X208500Y177000D02*X207113Y177800D01*
X184000Y186500D02*Y184900D01*
Y186500D02*X185387Y187300D01*
X184000Y186500D02*X182613Y187300D01*
X253000Y158000D02*Y156400D01*
Y158000D02*X254387Y158800D01*
X253000Y158000D02*X251613Y158800D01*
X15000Y636250D02*Y634650D01*
Y636250D02*X16387Y637050D01*
X15000Y636250D02*X13613Y637050D01*
X135000Y638500D02*X136500Y635500D01*
X138000Y638500D01*
X136500Y635500D02*Y632500D01*
X139800Y635800D02*X142050D01*
X139800Y632500D02*X142800D01*
X139800Y638500D02*Y632500D01*
Y638500D02*X142800D01*
X147600D02*X148350Y637750D01*
X145350Y638500D02*X147600D01*
X144600Y637750D02*X145350Y638500D01*
X144600Y637750D02*Y636250D01*
X145350Y635500D01*
X147600D01*
X148350Y634750D01*
Y633250D01*
X147600Y632500D02*X148350Y633250D01*
X145350Y632500D02*X147600D01*
X144600Y633250D02*X145350Y632500D01*
X98000Y637750D02*X98750Y638500D01*
X101000D01*
X101750Y637750D01*
Y636250D01*
X98000Y632500D02*X101750Y636250D01*
X98000Y632500D02*X101750D01*
X103550Y638500D02*X106550D01*
X103550D02*Y635500D01*
X104300Y636250D01*
X105800D01*
X106550Y635500D01*
Y633250D01*
X105800Y632500D02*X106550Y633250D01*
X104300Y632500D02*X105800D01*
X103550Y633250D02*X104300Y632500D01*
X108350Y633250D02*X109100Y632500D01*
X108350Y634450D02*Y633250D01*
Y634450D02*X109400Y635500D01*
X110300D01*
X111350Y634450D01*
Y633250D01*
X110600Y632500D02*X111350Y633250D01*
X109100Y632500D02*X110600D01*
X108350Y636550D02*X109400Y635500D01*
X108350Y637750D02*Y636550D01*
Y637750D02*X109100Y638500D01*
X110600D01*
X111350Y637750D01*
Y636550D01*
X110300Y635500D02*X111350Y636550D01*
X45000Y633250D02*X45750Y632500D01*
X45000Y637750D02*Y633250D01*
Y637750D02*X45750Y638500D01*
X47250D01*
X48000Y637750D01*
Y633250D01*
X47250Y632500D02*X48000Y633250D01*
X45750Y632500D02*X47250D01*
X45000Y634000D02*X48000Y637000D01*
X49800Y632500D02*X50550D01*
X52350Y633250D02*X53100Y632500D01*
X52350Y637750D02*Y633250D01*
Y637750D02*X53100Y638500D01*
X54600D01*
X55350Y637750D01*
Y633250D01*
X54600Y632500D02*X55350Y633250D01*
X53100Y632500D02*X54600D01*
X52350Y634000D02*X55350Y637000D01*
X57150Y637300D02*X58350Y638500D01*
Y632500D01*
X57150D02*X59400D01*
X61200Y638500D02*X64200D01*
X61200D02*Y635500D01*
X61950Y636250D01*
X63450D01*
X64200Y635500D01*
Y633250D01*
X63450Y632500D02*X64200Y633250D01*
X61950Y632500D02*X63450D01*
X61200Y633250D02*X61950Y632500D01*
X3000Y653500D02*X3750Y652750D01*
X750Y653500D02*X3000D01*
X0Y652750D02*X750Y653500D01*
X0Y652750D02*Y651250D01*
X750Y650500D01*
X3000D01*
X3750Y649750D01*
Y648250D01*
X3000Y647500D02*X3750Y648250D01*
X750Y647500D02*X3000D01*
X0Y648250D02*X750Y647500D01*
X5550Y650500D02*Y648250D01*
X6300Y647500D01*
X8550Y650500D02*Y646000D01*
X7800Y645250D02*X8550Y646000D01*
X6300Y645250D02*X7800D01*
X5550Y646000D02*X6300Y645250D01*
Y647500D02*X7800D01*
X8550Y648250D01*
X11100Y649750D02*Y647500D01*
Y649750D02*X11850Y650500D01*
X12600D01*
X13350Y649750D01*
Y647500D01*
Y649750D02*X14100Y650500D01*
X14850D01*
X15600Y649750D01*
Y647500D01*
X10350Y650500D02*X11100Y649750D01*
X17400Y653500D02*Y647500D01*
Y648250D02*X18150Y647500D01*
X19650D01*
X20400Y648250D01*
Y649750D02*Y648250D01*
X19650Y650500D02*X20400Y649750D01*
X18150Y650500D02*X19650D01*
X17400Y649750D02*X18150Y650500D01*
X22200Y649750D02*Y648250D01*
Y649750D02*X22950Y650500D01*
X24450D01*
X25200Y649750D01*
Y648250D01*
X24450Y647500D02*X25200Y648250D01*
X22950Y647500D02*X24450D01*
X22200Y648250D02*X22950Y647500D01*
X27000Y653500D02*Y648250D01*
X27750Y647500D01*
X0Y644250D02*X29250D01*
X41750Y653500D02*Y647500D01*
X43700Y653500D02*X44750Y652450D01*
Y648550D01*
X43700Y647500D02*X44750Y648550D01*
X41000Y647500D02*X43700D01*
X41000Y653500D02*X43700D01*
G54D185*X46550Y652000D02*Y651850D01*
G54D184*Y649750D02*Y647500D01*
X50300Y650500D02*X51050Y649750D01*
X48800Y650500D02*X50300D01*
X48050Y649750D02*X48800Y650500D01*
X48050Y649750D02*Y648250D01*
X48800Y647500D01*
X51050Y650500D02*Y648250D01*
X51800Y647500D01*
X48800D02*X50300D01*
X51050Y648250D01*
X54350Y649750D02*Y647500D01*
Y649750D02*X55100Y650500D01*
X55850D01*
X56600Y649750D01*
Y647500D01*
Y649750D02*X57350Y650500D01*
X58100D01*
X58850Y649750D01*
Y647500D01*
X53600Y650500D02*X54350Y649750D01*
X60650Y647500D02*X61400D01*
X65900Y648250D02*X66650Y647500D01*
X65900Y652750D02*X66650Y653500D01*
X65900Y652750D02*Y648250D01*
X68450Y653500D02*X69950D01*
X69200D02*Y647500D01*
X68450D02*X69950D01*
X72500Y649750D02*Y647500D01*
Y649750D02*X73250Y650500D01*
X74000D01*
X74750Y649750D01*
Y647500D01*
X71750Y650500D02*X72500Y649750D01*
X77300Y650500D02*X79550D01*
X76550Y649750D02*X77300Y650500D01*
X76550Y649750D02*Y648250D01*
X77300Y647500D01*
X79550D01*
X81350Y653500D02*Y647500D01*
Y649750D02*X82100Y650500D01*
X83600D01*
X84350Y649750D01*
Y647500D01*
X86150Y653500D02*X86900Y652750D01*
Y648250D01*
X86150Y647500D02*X86900Y648250D01*
X41000Y644250D02*X88700D01*
X96050Y647500D02*X98000D01*
X95000Y648550D02*X96050Y647500D01*
X95000Y652450D02*Y648550D01*
Y652450D02*X96050Y653500D01*
X98000D01*
X99800Y649750D02*Y648250D01*
Y649750D02*X100550Y650500D01*
X102050D01*
X102800Y649750D01*
Y648250D01*
X102050Y647500D02*X102800Y648250D01*
X100550Y647500D02*X102050D01*
X99800Y648250D02*X100550Y647500D01*
X104600Y650500D02*Y648250D01*
X105350Y647500D01*
X106850D01*
X107600Y648250D01*
Y650500D02*Y648250D01*
X110150Y649750D02*Y647500D01*
Y649750D02*X110900Y650500D01*
X111650D01*
X112400Y649750D01*
Y647500D01*
X109400Y650500D02*X110150Y649750D01*
X114950Y653500D02*Y648250D01*
X115700Y647500D01*
X114200Y651250D02*X115700D01*
X95000Y644250D02*X117200D01*
X130750Y653500D02*Y647500D01*
X130000Y653500D02*X133000D01*
X133750Y652750D01*
Y651250D01*
X133000Y650500D02*X133750Y651250D01*
X130750Y650500D02*X133000D01*
X135550Y653500D02*Y648250D01*
X136300Y647500D01*
X140050Y650500D02*X140800Y649750D01*
X138550Y650500D02*X140050D01*
X137800Y649750D02*X138550Y650500D01*
X137800Y649750D02*Y648250D01*
X138550Y647500D01*
X140800Y650500D02*Y648250D01*
X141550Y647500D01*
X138550D02*X140050D01*
X140800Y648250D01*
X144100Y653500D02*Y648250D01*
X144850Y647500D01*
X143350Y651250D02*X144850D01*
X147100Y647500D02*X149350D01*
X146350Y648250D02*X147100Y647500D01*
X146350Y649750D02*Y648250D01*
Y649750D02*X147100Y650500D01*
X148600D01*
X149350Y649750D01*
X146350Y649000D02*X149350D01*
Y649750D02*Y649000D01*
X154150Y653500D02*Y647500D01*
X153400D02*X154150Y648250D01*
X151900Y647500D02*X153400D01*
X151150Y648250D02*X151900Y647500D01*
X151150Y649750D02*Y648250D01*
Y649750D02*X151900Y650500D01*
X153400D01*
X154150Y649750D01*
X157450Y650500D02*Y649750D01*
Y648250D02*Y647500D01*
X155950Y652750D02*Y652000D01*
Y652750D02*X156700Y653500D01*
X158200D01*
X158950Y652750D01*
Y652000D01*
X157450Y650500D02*X158950Y652000D01*
X130000Y644250D02*X160750D01*
X0Y668500D02*X3000D01*
X1500D02*Y662500D01*
X4800Y668500D02*Y662500D01*
Y664750D02*X5550Y665500D01*
X7050D01*
X7800Y664750D01*
Y662500D01*
X10350D02*X12600D01*
X9600Y663250D02*X10350Y662500D01*
X9600Y664750D02*Y663250D01*
Y664750D02*X10350Y665500D01*
X11850D01*
X12600Y664750D01*
X9600Y664000D02*X12600D01*
Y664750D02*Y664000D01*
X15150Y664750D02*Y662500D01*
Y664750D02*X15900Y665500D01*
X17400D01*
X14400D02*X15150Y664750D01*
X19950Y662500D02*X22200D01*
X19200Y663250D02*X19950Y662500D01*
X19200Y664750D02*Y663250D01*
Y664750D02*X19950Y665500D01*
X21450D01*
X22200Y664750D01*
X19200Y664000D02*X22200D01*
Y664750D02*Y664000D01*
X28950Y665500D02*X29700Y664750D01*
X27450Y665500D02*X28950D01*
X26700Y664750D02*X27450Y665500D01*
X26700Y664750D02*Y663250D01*
X27450Y662500D01*
X29700Y665500D02*Y663250D01*
X30450Y662500D01*
X27450D02*X28950D01*
X29700Y663250D01*
X33000Y664750D02*Y662500D01*
Y664750D02*X33750Y665500D01*
X35250D01*
X32250D02*X33000Y664750D01*
X37800Y662500D02*X40050D01*
X37050Y663250D02*X37800Y662500D01*
X37050Y664750D02*Y663250D01*
Y664750D02*X37800Y665500D01*
X39300D01*
X40050Y664750D01*
X37050Y664000D02*X40050D01*
Y664750D02*Y664000D01*
X46800Y668500D02*X47550Y667750D01*
X45300Y668500D02*X46800D01*
X44550Y667750D02*X45300Y668500D01*
X44550Y667750D02*Y663250D01*
X45300Y662500D01*
X46800Y665800D02*X47550Y665050D01*
X44550Y665800D02*X46800D01*
X45300Y662500D02*X46800D01*
X47550Y663250D01*
Y665050D02*Y663250D01*
X55050Y668500D02*Y662500D01*
X54300D02*X55050Y663250D01*
X52800Y662500D02*X54300D01*
X52050Y663250D02*X52800Y662500D01*
X52050Y664750D02*Y663250D01*
Y664750D02*X52800Y665500D01*
X54300D01*
X55050Y664750D01*
G54D185*X56850Y667000D02*Y666850D01*
G54D184*Y664750D02*Y662500D01*
X59100Y667750D02*Y662500D01*
Y667750D02*X59850Y668500D01*
X60600D01*
X58350Y665500D02*X59850D01*
X62850Y667750D02*Y662500D01*
Y667750D02*X63600Y668500D01*
X64350D01*
X62100Y665500D02*X63600D01*
X66600Y662500D02*X68850D01*
X65850Y663250D02*X66600Y662500D01*
X65850Y664750D02*Y663250D01*
Y664750D02*X66600Y665500D01*
X68100D01*
X68850Y664750D01*
X65850Y664000D02*X68850D01*
Y664750D02*Y664000D01*
X71400Y664750D02*Y662500D01*
Y664750D02*X72150Y665500D01*
X73650D01*
X70650D02*X71400Y664750D01*
X76200Y662500D02*X78450D01*
X75450Y663250D02*X76200Y662500D01*
X75450Y664750D02*Y663250D01*
Y664750D02*X76200Y665500D01*
X77700D01*
X78450Y664750D01*
X75450Y664000D02*X78450D01*
Y664750D02*Y664000D01*
X81000Y664750D02*Y662500D01*
Y664750D02*X81750Y665500D01*
X82500D01*
X83250Y664750D01*
Y662500D01*
X80250Y665500D02*X81000Y664750D01*
X85800Y668500D02*Y663250D01*
X86550Y662500D01*
X85050Y666250D02*X86550D01*
X93750Y668500D02*Y662500D01*
X93000D02*X93750Y663250D01*
X91500Y662500D02*X93000D01*
X90750Y663250D02*X91500Y662500D01*
X90750Y664750D02*Y663250D01*
Y664750D02*X91500Y665500D01*
X93000D01*
X93750Y664750D01*
X96300D02*Y662500D01*
Y664750D02*X97050Y665500D01*
X98550D01*
X95550D02*X96300Y664750D01*
G54D185*X100350Y667000D02*Y666850D01*
G54D184*Y664750D02*Y662500D01*
X101850Y668500D02*Y663250D01*
X102600Y662500D01*
X104100Y668500D02*Y663250D01*
X104850Y662500D01*
X109800D02*X112050D01*
X112800Y663250D01*
X112050Y664000D02*X112800Y663250D01*
X109800Y664000D02*X112050D01*
X109050Y664750D02*X109800Y664000D01*
X109050Y664750D02*X109800Y665500D01*
X112050D01*
X112800Y664750D01*
X109050Y663250D02*X109800Y662500D01*
G54D185*X114600Y667000D02*Y666850D01*
G54D184*Y664750D02*Y662500D01*
X116100Y665500D02*X119100D01*
X116100Y662500D02*X119100Y665500D01*
X116100Y662500D02*X119100D01*
X121650D02*X123900D01*
X120900Y663250D02*X121650Y662500D01*
X120900Y664750D02*Y663250D01*
Y664750D02*X121650Y665500D01*
X123150D01*
X123900Y664750D01*
X120900Y664000D02*X123900D01*
Y664750D02*Y664000D01*
X126450Y662500D02*X128700D01*
X129450Y663250D01*
X128700Y664000D02*X129450Y663250D01*
X126450Y664000D02*X128700D01*
X125700Y664750D02*X126450Y664000D01*
X125700Y664750D02*X126450Y665500D01*
X128700D01*
X129450Y664750D01*
X125700Y663250D02*X126450Y662500D01*
X133950Y665500D02*Y663250D01*
X134700Y662500D01*
X136200D01*
X136950Y663250D01*
Y665500D02*Y663250D01*
X139500Y662500D02*X141750D01*
X142500Y663250D01*
X141750Y664000D02*X142500Y663250D01*
X139500Y664000D02*X141750D01*
X138750Y664750D02*X139500Y664000D01*
X138750Y664750D02*X139500Y665500D01*
X141750D01*
X142500Y664750D01*
X138750Y663250D02*X139500Y662500D01*
X145050D02*X147300D01*
X144300Y663250D02*X145050Y662500D01*
X144300Y664750D02*Y663250D01*
Y664750D02*X145050Y665500D01*
X146550D01*
X147300Y664750D01*
X144300Y664000D02*X147300D01*
Y664750D02*Y664000D01*
X152100Y668500D02*Y662500D01*
X151350D02*X152100Y663250D01*
X149850Y662500D02*X151350D01*
X149100Y663250D02*X149850Y662500D01*
X149100Y664750D02*Y663250D01*
Y664750D02*X149850Y665500D01*
X151350D01*
X152100Y664750D01*
G54D185*X156600Y667000D02*Y666850D01*
G54D184*Y664750D02*Y662500D01*
X158850Y664750D02*Y662500D01*
Y664750D02*X159600Y665500D01*
X160350D01*
X161100Y664750D01*
Y662500D01*
X158100Y665500D02*X158850Y664750D01*
X166350Y668500D02*Y663250D01*
X167100Y662500D01*
X165600Y666250D02*X167100D01*
X168600Y668500D02*Y662500D01*
Y664750D02*X169350Y665500D01*
X170850D01*
X171600Y664750D01*
Y662500D01*
G54D185*X173400Y667000D02*Y666850D01*
G54D184*Y664750D02*Y662500D01*
X175650D02*X177900D01*
X178650Y663250D01*
X177900Y664000D02*X178650Y663250D01*
X175650Y664000D02*X177900D01*
X174900Y664750D02*X175650Y664000D01*
X174900Y664750D02*X175650Y665500D01*
X177900D01*
X178650Y664750D01*
X174900Y663250D02*X175650Y662500D01*
X183150Y668500D02*Y663250D01*
X183900Y662500D01*
X187650Y665500D02*X188400Y664750D01*
X186150Y665500D02*X187650D01*
X185400Y664750D02*X186150Y665500D01*
X185400Y664750D02*Y663250D01*
X186150Y662500D01*
X188400Y665500D02*Y663250D01*
X189150Y662500D01*
X186150D02*X187650D01*
X188400Y663250D01*
X190950Y665500D02*Y663250D01*
X191700Y662500D01*
X193950Y665500D02*Y661000D01*
X193200Y660250D02*X193950Y661000D01*
X191700Y660250D02*X193200D01*
X190950Y661000D02*X191700Y660250D01*
Y662500D02*X193200D01*
X193950Y663250D01*
X195750Y664750D02*Y663250D01*
Y664750D02*X196500Y665500D01*
X198000D01*
X198750Y664750D01*
Y663250D01*
X198000Y662500D02*X198750Y663250D01*
X196500Y662500D02*X198000D01*
X195750Y663250D02*X196500Y662500D01*
X200550Y665500D02*Y663250D01*
X201300Y662500D01*
X202800D01*
X203550Y663250D01*
Y665500D02*Y663250D01*
X206100Y668500D02*Y663250D01*
X206850Y662500D01*
X205350Y666250D02*X206850D01*
X208350Y661000D02*X209850Y662500D01*
X214350Y667750D02*X215100Y668500D01*
X217350D01*
X218100Y667750D01*
Y666250D01*
X214350Y662500D02*X218100Y666250D01*
X214350Y662500D02*X218100D01*
X220650D02*X222900Y665500D01*
Y667750D02*Y665500D01*
X222150Y668500D02*X222900Y667750D01*
X220650Y668500D02*X222150D01*
X219900Y667750D02*X220650Y668500D01*
X219900Y667750D02*Y666250D01*
X220650Y665500D01*
X222900D01*
X225450Y662500D02*X227700Y665500D01*
Y667750D02*Y665500D01*
X226950Y668500D02*X227700Y667750D01*
X225450Y668500D02*X226950D01*
X224700Y667750D02*X225450Y668500D01*
X224700Y667750D02*Y666250D01*
X225450Y665500D01*
X227700D01*
X232200Y668500D02*Y662500D01*
Y664750D02*X232950Y665500D01*
X234450D01*
X235200Y664750D01*
Y662500D01*
X237000Y664750D02*Y663250D01*
Y664750D02*X237750Y665500D01*
X239250D01*
X240000Y664750D01*
Y663250D01*
X239250Y662500D02*X240000Y663250D01*
X237750Y662500D02*X239250D01*
X237000Y663250D02*X237750Y662500D01*
X241800Y668500D02*Y663250D01*
X242550Y662500D01*
X244800D02*X247050D01*
X244050Y663250D02*X244800Y662500D01*
X244050Y664750D02*Y663250D01*
Y664750D02*X244800Y665500D01*
X246300D01*
X247050Y664750D01*
X244050Y664000D02*X247050D01*
Y664750D02*Y664000D01*
X249600Y662500D02*X251850D01*
X252600Y663250D01*
X251850Y664000D02*X252600Y663250D01*
X249600Y664000D02*X251850D01*
X248850Y664750D02*X249600Y664000D01*
X248850Y664750D02*X249600Y665500D01*
X251850D01*
X252600Y664750D01*
X248850Y663250D02*X249600Y662500D01*
X257850Y668500D02*Y663250D01*
X258600Y662500D01*
X257100Y666250D02*X258600D01*
X260100Y664750D02*Y663250D01*
Y664750D02*X260850Y665500D01*
X262350D01*
X263100Y664750D01*
Y663250D01*
X262350Y662500D02*X263100Y663250D01*
X260850Y662500D02*X262350D01*
X260100Y663250D02*X260850Y662500D01*
X265650Y668500D02*Y663250D01*
X266400Y662500D01*
X264900Y666250D02*X266400D01*
X270150Y665500D02*X270900Y664750D01*
X268650Y665500D02*X270150D01*
X267900Y664750D02*X268650Y665500D01*
X267900Y664750D02*Y663250D01*
X268650Y662500D01*
X270900Y665500D02*Y663250D01*
X271650Y662500D01*
X268650D02*X270150D01*
X270900Y663250D01*
X273450Y668500D02*Y663250D01*
X274200Y662500D01*
G54D186*X34810Y326640D02*Y37040D01*
X437410D02*Y326640D01*
X34810D01*
Y37040D02*X437410D01*
X303770Y89107D02*X303341Y88777D01*
X302863Y88575D01*
X302435D02*X302863D01*
X302435D02*X302006Y88777D01*
X301692Y89107D01*
X301528Y89574D01*
X301638Y90040D01*
X301903Y90442D01*
X302381Y90707D01*
X303021Y90843D01*
X303395Y91108D01*
X303557Y91575D01*
X303449Y92042D01*
X303184Y92372D01*
X302809Y92574D01*
X302435D02*X302060Y92443D01*
X301740Y92107D01*
X299663Y91906D02*X299342Y92308D01*
X298968Y92508D01*
X298545Y92574D02*X298007Y92443D01*
X297634Y92107D01*
X297531Y91711D01*
X297585Y91310D01*
X297796Y90974D01*
X298860Y90306D01*
X299342Y89839D01*
X299663Y89178D01*
X299771Y88575D01*
X297531D02*X299771D01*
X303514Y85993D02*Y85992D01*
X278710Y61188D01*
X303470D02*X278710Y85948D01*
X313435Y93074D02*X313809D01*
X309968Y93008D02*X309545Y93074D01*
G54D184*X188675Y-9500D02*X191675D01*
X192425Y-8750D01*
Y-6950D02*Y-8750D01*
X191675Y-6200D02*X192425Y-6950D01*
X189425Y-6200D02*X191675D01*
X189425Y-3500D02*Y-9500D01*
X188675Y-3500D02*X191675D01*
X192425Y-4250D01*
Y-5450D01*
X191675Y-6200D02*X192425Y-5450D01*
X194225Y-7250D02*Y-8750D01*
Y-7250D02*X194975Y-6500D01*
X196475D01*
X197225Y-7250D01*
Y-8750D01*
X196475Y-9500D02*X197225Y-8750D01*
X194975Y-9500D02*X196475D01*
X194225Y-8750D02*X194975Y-9500D01*
X201275Y-6500D02*X202025Y-7250D01*
X199775Y-6500D02*X201275D01*
X199025Y-7250D02*X199775Y-6500D01*
X199025Y-7250D02*Y-8750D01*
X199775Y-9500D01*
X202025Y-6500D02*Y-8750D01*
X202775Y-9500D01*
X199775D02*X201275D01*
X202025Y-8750D01*
X205325Y-7250D02*Y-9500D01*
Y-7250D02*X206075Y-6500D01*
X207575D01*
X204575D02*X205325Y-7250D01*
X212375Y-3500D02*Y-9500D01*
X211625D02*X212375Y-8750D01*
X210125Y-9500D02*X211625D01*
X209375Y-8750D02*X210125Y-9500D01*
X209375Y-7250D02*Y-8750D01*
Y-7250D02*X210125Y-6500D01*
X211625D01*
X212375Y-7250D01*
X216875D02*Y-8750D01*
Y-7250D02*X217625Y-6500D01*
X219125D01*
X219875Y-7250D01*
Y-8750D01*
X219125Y-9500D02*X219875Y-8750D01*
X217625Y-9500D02*X219125D01*
X216875Y-8750D02*X217625Y-9500D01*
X221675Y-6500D02*Y-8750D01*
X222425Y-9500D01*
X223925D01*
X224675Y-8750D01*
Y-6500D02*Y-8750D01*
X227225Y-3500D02*Y-8750D01*
X227975Y-9500D01*
X226475Y-5750D02*X227975D01*
X229475Y-3500D02*Y-8750D01*
X230225Y-9500D01*
G54D185*X231725Y-5000D02*Y-5150D01*
G54D184*Y-7250D02*Y-9500D01*
X233975Y-7250D02*Y-9500D01*
Y-7250D02*X234725Y-6500D01*
X235475D01*
X236225Y-7250D01*
Y-9500D01*
X233225Y-6500D02*X233975Y-7250D01*
X238775Y-9500D02*X241025D01*
X238025Y-8750D02*X238775Y-9500D01*
X238025Y-7250D02*Y-8750D01*
Y-7250D02*X238775Y-6500D01*
X240275D01*
X241025Y-7250D01*
X238025Y-8000D02*X241025D01*
Y-7250D02*Y-8000D01*
G54D185*X245525Y-5000D02*Y-5150D01*
G54D184*Y-7250D02*Y-9500D01*
X247775D02*X250025D01*
X250775Y-8750D01*
X250025Y-8000D02*X250775Y-8750D01*
X247775Y-8000D02*X250025D01*
X247025Y-7250D02*X247775Y-8000D01*
X247025Y-7250D02*X247775Y-6500D01*
X250025D01*
X250775Y-7250D01*
X247025Y-8750D02*X247775Y-9500D01*
X256025Y-3500D02*Y-8750D01*
X256775Y-9500D01*
X255275Y-5750D02*X256775D01*
X258275Y-3500D02*Y-9500D01*
Y-7250D02*X259025Y-6500D01*
X260525D01*
X261275Y-7250D01*
Y-9500D01*
X263825D02*X266075D01*
X263075Y-8750D02*X263825Y-9500D01*
X263075Y-7250D02*Y-8750D01*
Y-7250D02*X263825Y-6500D01*
X265325D01*
X266075Y-7250D01*
X263075Y-8000D02*X266075D01*
Y-7250D02*Y-8000D01*
X271325Y-6500D02*X273575D01*
X270575Y-7250D02*X271325Y-6500D01*
X270575Y-7250D02*Y-8750D01*
X271325Y-9500D01*
X273575D01*
X276125D02*X278375D01*
X275375Y-8750D02*X276125Y-9500D01*
X275375Y-7250D02*Y-8750D01*
Y-7250D02*X276125Y-6500D01*
X277625D01*
X278375Y-7250D01*
X275375Y-8000D02*X278375D01*
Y-7250D02*Y-8000D01*
X280925Y-7250D02*Y-9500D01*
Y-7250D02*X281675Y-6500D01*
X282425D01*
X283175Y-7250D01*
Y-9500D01*
X280175Y-6500D02*X280925Y-7250D01*
X285725Y-3500D02*Y-8750D01*
X286475Y-9500D01*
X284975Y-5750D02*X286475D01*
X288725Y-9500D02*X290975D01*
X287975Y-8750D02*X288725Y-9500D01*
X287975Y-7250D02*Y-8750D01*
Y-7250D02*X288725Y-6500D01*
X290225D01*
X290975Y-7250D01*
X287975Y-8000D02*X290975D01*
Y-7250D02*Y-8000D01*
X293525Y-7250D02*Y-9500D01*
Y-7250D02*X294275Y-6500D01*
X295775D01*
X292775D02*X293525Y-7250D01*
X297575Y-3500D02*Y-8750D01*
X298325Y-9500D01*
G54D185*X299825Y-5000D02*Y-5150D01*
G54D184*Y-7250D02*Y-9500D01*
X302075Y-7250D02*Y-9500D01*
Y-7250D02*X302825Y-6500D01*
X303575D01*
X304325Y-7250D01*
Y-9500D01*
X301325Y-6500D02*X302075Y-7250D01*
X306875Y-9500D02*X309125D01*
X306125Y-8750D02*X306875Y-9500D01*
X306125Y-7250D02*Y-8750D01*
Y-7250D02*X306875Y-6500D01*
X308375D01*
X309125Y-7250D01*
X306125Y-8000D02*X309125D01*
Y-7250D02*Y-8000D01*
X313625Y-7250D02*Y-8750D01*
Y-7250D02*X314375Y-6500D01*
X315875D01*
X316625Y-7250D01*
Y-8750D01*
X315875Y-9500D02*X316625Y-8750D01*
X314375Y-9500D02*X315875D01*
X313625Y-8750D02*X314375Y-9500D01*
X319175Y-4250D02*Y-9500D01*
Y-4250D02*X319925Y-3500D01*
X320675D01*
X318425Y-6500D02*X319925D01*
X325625Y-3500D02*Y-8750D01*
X326375Y-9500D01*
X324875Y-5750D02*X326375D01*
X327875Y-3500D02*Y-9500D01*
Y-7250D02*X328625Y-6500D01*
X330125D01*
X330875Y-7250D01*
Y-9500D01*
G54D185*X332675Y-5000D02*Y-5150D01*
G54D184*Y-7250D02*Y-9500D01*
X334925D02*X337175D01*
X337925Y-8750D01*
X337175Y-8000D02*X337925Y-8750D01*
X334925Y-8000D02*X337175D01*
X334175Y-7250D02*X334925Y-8000D01*
X334175Y-7250D02*X334925Y-6500D01*
X337175D01*
X337925Y-7250D01*
X334175Y-8750D02*X334925Y-9500D01*
X343175Y-7250D02*Y-11750D01*
X342425Y-6500D02*X343175Y-7250D01*
X343925Y-6500D01*
X345425D01*
X346175Y-7250D01*
Y-8750D01*
X345425Y-9500D02*X346175Y-8750D01*
X343925Y-9500D02*X345425D01*
X343175Y-8750D02*X343925Y-9500D01*
X350225Y-6500D02*X350975Y-7250D01*
X348725Y-6500D02*X350225D01*
X347975Y-7250D02*X348725Y-6500D01*
X347975Y-7250D02*Y-8750D01*
X348725Y-9500D01*
X350975Y-6500D02*Y-8750D01*
X351725Y-9500D01*
X348725D02*X350225D01*
X350975Y-8750D01*
X354275Y-3500D02*Y-8750D01*
X355025Y-9500D01*
X353525Y-5750D02*X355025D01*
X356525Y-3500D02*Y-9500D01*
Y-7250D02*X357275Y-6500D01*
X358775D01*
X359525Y-7250D01*
Y-9500D01*
X200750Y578500D02*Y572500D01*
X202700Y578500D02*X203750Y577450D01*
Y573550D01*
X202700Y572500D02*X203750Y573550D01*
X200000Y572500D02*X202700D01*
X200000Y578500D02*X202700D01*
X207800Y575500D02*X208550Y574750D01*
X206300Y575500D02*X207800D01*
X205550Y574750D02*X206300Y575500D01*
X205550Y574750D02*Y573250D01*
X206300Y572500D01*
X208550Y575500D02*Y573250D01*
X209300Y572500D01*
X206300D02*X207800D01*
X208550Y573250D01*
X211850Y578500D02*Y573250D01*
X212600Y572500D01*
X211100Y576250D02*X212600D01*
X214850Y572500D02*X217100D01*
X214100Y573250D02*X214850Y572500D01*
X214100Y574750D02*Y573250D01*
Y574750D02*X214850Y575500D01*
X216350D01*
X217100Y574750D01*
X214100Y574000D02*X217100D01*
Y574750D02*Y574000D01*
X218900Y576250D02*X219650D01*
X218900Y574750D02*X219650D01*
X224150Y578500D02*X227150D01*
X225650D02*Y572500D01*
X228950Y578500D02*Y572500D01*
Y574750D02*X229700Y575500D01*
X231200D01*
X231950Y574750D01*
Y572500D01*
X233750Y575500D02*Y573250D01*
X234500Y572500D01*
X236000D01*
X236750Y573250D01*
Y575500D02*Y573250D01*
X242000Y578500D02*Y572500D01*
X243950Y578500D02*X245000Y577450D01*
Y573550D01*
X243950Y572500D02*X245000Y573550D01*
X241250Y572500D02*X243950D01*
X241250Y578500D02*X243950D01*
X247550Y572500D02*X249800D01*
X246800Y573250D02*X247550Y572500D01*
X246800Y574750D02*Y573250D01*
Y574750D02*X247550Y575500D01*
X249050D01*
X249800Y574750D01*
X246800Y574000D02*X249800D01*
Y574750D02*Y574000D01*
X252350Y575500D02*X254600D01*
X251600Y574750D02*X252350Y575500D01*
X251600Y574750D02*Y573250D01*
X252350Y572500D01*
X254600D01*
X261800Y578500D02*X264800D01*
X261800D02*Y575500D01*
X262550Y576250D01*
X264050D01*
X264800Y575500D01*
Y573250D01*
X264050Y572500D02*X264800Y573250D01*
X262550Y572500D02*X264050D01*
X261800Y573250D02*X262550Y572500D01*
X269300Y577750D02*X270050Y578500D01*
X272300D01*
X273050Y577750D01*
Y576250D01*
X269300Y572500D02*X273050Y576250D01*
X269300Y572500D02*X273050D01*
X274850Y573250D02*X275600Y572500D01*
X274850Y577750D02*Y573250D01*
Y577750D02*X275600Y578500D01*
X277100D01*
X277850Y577750D01*
Y573250D01*
X277100Y572500D02*X277850Y573250D01*
X275600Y572500D02*X277100D01*
X274850Y574000D02*X277850Y577000D01*
X279650Y576250D02*X280400D01*
X279650Y574750D02*X280400D01*
X282200D02*X285200Y578500D01*
X282200Y574750D02*X285950D01*
X285200Y578500D02*Y572500D01*
X287750Y577750D02*X288500Y578500D01*
X290750D01*
X291500Y577750D01*
Y576250D01*
X287750Y572500D02*X291500Y576250D01*
X287750Y572500D02*X291500D01*
X293300Y576250D02*X294050D01*
X293300Y574750D02*X294050D01*
X295850Y577300D02*X297050Y578500D01*
Y572500D01*
X295850D02*X298100D01*
X300650D02*X303650Y578500D01*
X299900D02*X303650D01*
X308150Y577750D02*X308900Y578500D01*
X311150D01*
X311900Y577750D01*
Y576250D01*
X308150Y572500D02*X311900Y576250D01*
X308150Y572500D02*X311900D01*
X313700Y573250D02*X314450Y572500D01*
X313700Y577750D02*Y573250D01*
Y577750D02*X314450Y578500D01*
X315950D01*
X316700Y577750D01*
Y573250D01*
X315950Y572500D02*X316700Y573250D01*
X314450Y572500D02*X315950D01*
X313700Y574000D02*X316700Y577000D01*
X318500Y577300D02*X319700Y578500D01*
Y572500D01*
X318500D02*X320750D01*
X322550Y577750D02*X323300Y578500D01*
X324800D01*
X325550Y577750D01*
X324800Y572500D02*X325550Y573250D01*
X323300Y572500D02*X324800D01*
X322550Y573250D02*X323300Y572500D01*
Y575800D02*X324800D01*
X325550Y577750D02*Y576550D01*
Y575050D02*Y573250D01*
Y575050D02*X324800Y575800D01*
X325550Y576550D02*X324800Y575800D01*
X330050Y578500D02*Y573250D01*
X330800Y572500D01*
X332300D01*
X333050Y573250D01*
Y578500D02*Y573250D01*
X334850Y578500D02*X337850D01*
X336350D02*Y572500D01*
X340700D02*X342650D01*
X339650Y573550D02*X340700Y572500D01*
X339650Y577450D02*Y573550D01*
Y577450D02*X340700Y578500D01*
X342650D01*
X200000Y592000D02*Y587500D01*
Y592000D02*X201050Y593500D01*
X202700D01*
X203750Y592000D01*
Y587500D01*
X200000Y590500D02*X203750D01*
X205550D02*Y588250D01*
X206300Y587500D01*
X207800D01*
X208550Y588250D01*
Y590500D02*Y588250D01*
X211100Y593500D02*Y588250D01*
X211850Y587500D01*
X210350Y591250D02*X211850D01*
X213350Y593500D02*Y587500D01*
Y589750D02*X214100Y590500D01*
X215600D01*
X216350Y589750D01*
Y587500D01*
X218150Y589750D02*Y588250D01*
Y589750D02*X218900Y590500D01*
X220400D01*
X221150Y589750D01*
Y588250D01*
X220400Y587500D02*X221150Y588250D01*
X218900Y587500D02*X220400D01*
X218150Y588250D02*X218900Y587500D01*
X223700Y589750D02*Y587500D01*
Y589750D02*X224450Y590500D01*
X225950D01*
X222950D02*X223700Y589750D01*
X227750Y591250D02*X228500D01*
X227750Y589750D02*X228500D01*
X200000Y608500D02*X203000D01*
X201500D02*Y602500D01*
G54D185*X204800Y607000D02*Y606850D01*
G54D184*Y604750D02*Y602500D01*
X207050Y608500D02*Y603250D01*
X207800Y602500D01*
X206300Y606250D02*X207800D01*
X209300Y608500D02*Y603250D01*
X210050Y602500D01*
X212300D02*X214550D01*
X211550Y603250D02*X212300Y602500D01*
X211550Y604750D02*Y603250D01*
Y604750D02*X212300Y605500D01*
X213800D01*
X214550Y604750D01*
X211550Y604000D02*X214550D01*
Y604750D02*Y604000D01*
X216350Y606250D02*X217100D01*
X216350Y604750D02*X217100D01*
X221600Y603250D02*X222350Y602500D01*
X221600Y607750D02*X222350Y608500D01*
X221600Y607750D02*Y603250D01*
X224150Y605500D02*Y603250D01*
X224900Y602500D01*
X226400D01*
X227150Y603250D01*
Y605500D02*Y603250D01*
X229700Y604750D02*Y602500D01*
Y604750D02*X230450Y605500D01*
X231200D01*
X231950Y604750D01*
Y602500D01*
X228950Y605500D02*X229700Y604750D01*
X233750Y608500D02*Y602500D01*
Y604750D02*X236000Y602500D01*
X233750Y604750D02*X235250Y606250D01*
X238550Y604750D02*Y602500D01*
Y604750D02*X239300Y605500D01*
X240050D01*
X240800Y604750D01*
Y602500D01*
X237800Y605500D02*X238550Y604750D01*
X242600D02*Y603250D01*
Y604750D02*X243350Y605500D01*
X244850D01*
X245600Y604750D01*
Y603250D01*
X244850Y602500D02*X245600Y603250D01*
X243350Y602500D02*X244850D01*
X242600Y603250D02*X243350Y602500D01*
X247400Y605500D02*Y603250D01*
X248150Y602500D01*
X248900D01*
X249650Y603250D01*
Y605500D02*Y603250D01*
X250400Y602500D01*
X251150D01*
X251900Y603250D01*
Y605500D02*Y603250D01*
X254450Y604750D02*Y602500D01*
Y604750D02*X255200Y605500D01*
X255950D01*
X256700Y604750D01*
Y602500D01*
X253700Y605500D02*X254450Y604750D01*
X258500Y608500D02*X259250Y607750D01*
Y603250D01*
X258500Y602500D02*X259250Y603250D01*
X263750Y605500D02*X266750D01*
X271250Y608500D02*Y602500D01*
Y608500D02*X274250D01*
X271250Y605800D02*X273500D01*
X278300Y605500D02*X279050Y604750D01*
X276800Y605500D02*X278300D01*
X276050Y604750D02*X276800Y605500D01*
X276050Y604750D02*Y603250D01*
X276800Y602500D01*
X279050Y605500D02*Y603250D01*
X279800Y602500D01*
X276800D02*X278300D01*
X279050Y603250D01*
X281600Y608500D02*Y602500D01*
Y603250D02*X282350Y602500D01*
X283850D01*
X284600Y603250D01*
Y604750D02*Y603250D01*
X283850Y605500D02*X284600Y604750D01*
X282350Y605500D02*X283850D01*
X281600Y604750D02*X282350Y605500D01*
X287150Y604750D02*Y602500D01*
Y604750D02*X287900Y605500D01*
X289400D01*
X286400D02*X287150Y604750D01*
G54D185*X291200Y607000D02*Y606850D01*
G54D184*Y604750D02*Y602500D01*
X293450Y605500D02*X295700D01*
X292700Y604750D02*X293450Y605500D01*
X292700Y604750D02*Y603250D01*
X293450Y602500D01*
X295700D01*
X299750Y605500D02*X300500Y604750D01*
X298250Y605500D02*X299750D01*
X297500Y604750D02*X298250Y605500D01*
X297500Y604750D02*Y603250D01*
X298250Y602500D01*
X300500Y605500D02*Y603250D01*
X301250Y602500D01*
X298250D02*X299750D01*
X300500Y603250D01*
X303800Y608500D02*Y603250D01*
X304550Y602500D01*
X303050Y606250D02*X304550D01*
G54D185*X306050Y607000D02*Y606850D01*
G54D184*Y604750D02*Y602500D01*
X307550Y604750D02*Y603250D01*
Y604750D02*X308300Y605500D01*
X309800D01*
X310550Y604750D01*
Y603250D01*
X309800Y602500D02*X310550Y603250D01*
X308300Y602500D02*X309800D01*
X307550Y603250D02*X308300Y602500D01*
X313100Y604750D02*Y602500D01*
Y604750D02*X313850Y605500D01*
X314600D01*
X315350Y604750D01*
Y602500D01*
X312350Y605500D02*X313100Y604750D01*
X320600Y608500D02*Y602500D01*
X322550Y608500D02*X323600Y607450D01*
Y603550D01*
X322550Y602500D02*X323600Y603550D01*
X319850Y602500D02*X322550D01*
X319850Y608500D02*X322550D01*
X326150Y604750D02*Y602500D01*
Y604750D02*X326900Y605500D01*
X328400D01*
X325400D02*X326150Y604750D01*
X332450Y605500D02*X333200Y604750D01*
X330950Y605500D02*X332450D01*
X330200Y604750D02*X330950Y605500D01*
X330200Y604750D02*Y603250D01*
X330950Y602500D01*
X333200Y605500D02*Y603250D01*
X333950Y602500D01*
X330950D02*X332450D01*
X333200Y603250D01*
X335750Y605500D02*Y603250D01*
X336500Y602500D01*
X337250D01*
X338000Y603250D01*
Y605500D02*Y603250D01*
X338750Y602500D01*
X339500D01*
X340250Y603250D01*
Y605500D02*Y603250D01*
G54D185*X342050Y607000D02*Y606850D01*
G54D184*Y604750D02*Y602500D01*
X344300Y604750D02*Y602500D01*
Y604750D02*X345050Y605500D01*
X345800D01*
X346550Y604750D01*
Y602500D01*
X343550Y605500D02*X344300Y604750D01*
X350600Y605500D02*X351350Y604750D01*
X349100Y605500D02*X350600D01*
X348350Y604750D02*X349100Y605500D01*
X348350Y604750D02*Y603250D01*
X349100Y602500D01*
X350600D01*
X351350Y603250D01*
X348350Y601000D02*X349100Y600250D01*
X350600D01*
X351350Y601000D01*
Y605500D02*Y601000D01*
M02*
