G04 start of page 4 for group 2 idx 2 *
G04 Title: (unknown), 3GND *
G04 Creator: pcb 20110918 *
G04 CreationDate: Thu Oct 25 19:42:23 2012 UTC *
G04 For: fosse *
G04 Format: Gerber/RS-274X *
G04 PCB-Dimensions: 455000 853500 *
G04 PCB-Coordinate-Origin: lower left *
%MOIN*%
%FSLAX25Y25*%
%LNGROUP2*%
%ADD50C,0.0300*%
%ADD49C,0.1090*%
%ADD48C,0.0350*%
%ADD47C,0.0200*%
%ADD46C,0.0600*%
%ADD45C,0.0360*%
%ADD44C,0.0550*%
%ADD43C,0.2500*%
%ADD42C,0.0001*%
G54D42*G36*
X393994Y833500D02*X446000D01*
Y509500D01*
X393994D01*
Y546049D01*
X394125Y544382D01*
X394621Y542315D01*
X395434Y540352D01*
X396545Y538540D01*
X397925Y536925D01*
X399540Y535545D01*
X401352Y534434D01*
X403315Y533621D01*
X405382Y533125D01*
X407500Y532958D01*
X409618Y533125D01*
X411685Y533621D01*
X413648Y534434D01*
X415460Y535545D01*
X417075Y536925D01*
X418455Y538540D01*
X419566Y540352D01*
X420379Y542315D01*
X420875Y544382D01*
X421000Y546500D01*
X420875Y548618D01*
X420379Y550685D01*
X419566Y552648D01*
X418455Y554460D01*
X417075Y556075D01*
X415460Y557455D01*
X413648Y558566D01*
X411685Y559379D01*
X409618Y559875D01*
X407500Y560042D01*
X405382Y559875D01*
X403315Y559379D01*
X401352Y558566D01*
X399540Y557455D01*
X397925Y556075D01*
X396545Y554460D01*
X395434Y552648D01*
X394621Y550685D01*
X394125Y548618D01*
X393994Y546951D01*
Y586988D01*
X394000Y586988D01*
X394628Y587037D01*
X395240Y587184D01*
X395822Y587425D01*
X396358Y587754D01*
X396837Y588163D01*
X397246Y588642D01*
X397575Y589178D01*
X397816Y589760D01*
X397963Y590372D01*
X398000Y591000D01*
X397963Y591628D01*
X397816Y592240D01*
X397575Y592822D01*
X397246Y593358D01*
X396837Y593837D01*
X396358Y594246D01*
X395822Y594575D01*
X395240Y594816D01*
X394628Y594963D01*
X394000Y595012D01*
X393994Y595012D01*
Y796049D01*
X394125Y794382D01*
X394621Y792315D01*
X395434Y790352D01*
X396545Y788540D01*
X397925Y786925D01*
X399540Y785545D01*
X401352Y784434D01*
X403315Y783621D01*
X405382Y783125D01*
X407500Y782958D01*
X409618Y783125D01*
X411685Y783621D01*
X413648Y784434D01*
X415460Y785545D01*
X417075Y786925D01*
X418455Y788540D01*
X419566Y790352D01*
X420379Y792315D01*
X420875Y794382D01*
X421000Y796500D01*
X420875Y798618D01*
X420379Y800685D01*
X419566Y802648D01*
X418455Y804460D01*
X417075Y806075D01*
X415460Y807455D01*
X413648Y808566D01*
X411685Y809379D01*
X409618Y809875D01*
X407500Y810042D01*
X405382Y809875D01*
X403315Y809379D01*
X401352Y808566D01*
X399540Y807455D01*
X397925Y806075D01*
X396545Y804460D01*
X395434Y802648D01*
X394621Y800685D01*
X394125Y798618D01*
X393994Y796951D01*
Y833500D01*
G37*
G36*
X383284D02*X393994D01*
Y796951D01*
X393958Y796500D01*
X393994Y796049D01*
Y595012D01*
X393372Y594963D01*
X392760Y594816D01*
X392178Y594575D01*
X391642Y594246D01*
X391163Y593837D01*
X390754Y593358D01*
X390425Y592822D01*
X390184Y592240D01*
X390037Y591628D01*
X389988Y591000D01*
X390037Y590372D01*
X390184Y589760D01*
X390425Y589178D01*
X390754Y588642D01*
X391163Y588163D01*
X391642Y587754D01*
X392178Y587425D01*
X392760Y587184D01*
X393372Y587037D01*
X393994Y586988D01*
Y546951D01*
X393958Y546500D01*
X393994Y546049D01*
Y509500D01*
X383284D01*
Y639369D01*
X383287Y639370D01*
X383355Y639409D01*
X383416Y639458D01*
X383469Y639517D01*
X383511Y639583D01*
X383674Y639908D01*
X383803Y640248D01*
X383901Y640598D01*
X383967Y640956D01*
X384000Y641318D01*
Y641682D01*
X383967Y642044D01*
X383901Y642402D01*
X383803Y642752D01*
X383674Y643092D01*
X383515Y643419D01*
X383472Y643485D01*
X383419Y643544D01*
X383357Y643594D01*
X383288Y643633D01*
X383284Y643635D01*
Y833500D01*
G37*
G36*
X380002D02*X383284D01*
Y643635D01*
X383214Y643661D01*
X383137Y643677D01*
X383058Y643681D01*
X382979Y643673D01*
X382903Y643652D01*
X382830Y643620D01*
X382764Y643577D01*
X382705Y643524D01*
X382656Y643462D01*
X382616Y643393D01*
X382588Y643319D01*
X382572Y643242D01*
X382568Y643163D01*
X382576Y643084D01*
X382597Y643007D01*
X382630Y642936D01*
X382753Y642693D01*
X382850Y642438D01*
X382923Y642176D01*
X382972Y641908D01*
X382997Y641636D01*
Y641364D01*
X382972Y641092D01*
X382923Y640824D01*
X382850Y640562D01*
X382753Y640307D01*
X382633Y640063D01*
X382600Y639991D01*
X382579Y639916D01*
X382571Y639837D01*
X382575Y639759D01*
X382591Y639682D01*
X382619Y639608D01*
X382658Y639540D01*
X382707Y639479D01*
X382766Y639426D01*
X382832Y639383D01*
X382904Y639351D01*
X382980Y639330D01*
X383058Y639322D01*
X383136Y639326D01*
X383213Y639342D01*
X383284Y639369D01*
Y509500D01*
X380002D01*
Y637500D01*
X380182D01*
X380544Y637533D01*
X380902Y637599D01*
X381252Y637697D01*
X381592Y637826D01*
X381919Y637985D01*
X381985Y638028D01*
X382044Y638081D01*
X382094Y638143D01*
X382133Y638212D01*
X382161Y638286D01*
X382177Y638363D01*
X382181Y638442D01*
X382173Y638521D01*
X382152Y638597D01*
X382120Y638670D01*
X382077Y638736D01*
X382024Y638795D01*
X381962Y638844D01*
X381893Y638884D01*
X381819Y638912D01*
X381742Y638928D01*
X381663Y638932D01*
X381584Y638924D01*
X381507Y638903D01*
X381436Y638870D01*
X381193Y638747D01*
X380938Y638650D01*
X380676Y638577D01*
X380408Y638528D01*
X380136Y638503D01*
X380002D01*
Y644497D01*
X380136D01*
X380408Y644472D01*
X380676Y644423D01*
X380938Y644350D01*
X381193Y644253D01*
X381437Y644133D01*
X381509Y644100D01*
X381584Y644079D01*
X381663Y644071D01*
X381741Y644075D01*
X381818Y644091D01*
X381892Y644119D01*
X381960Y644158D01*
X382021Y644207D01*
X382074Y644266D01*
X382117Y644332D01*
X382149Y644404D01*
X382170Y644480D01*
X382178Y644558D01*
X382174Y644636D01*
X382158Y644713D01*
X382130Y644787D01*
X382091Y644855D01*
X382042Y644916D01*
X381983Y644969D01*
X381917Y645011D01*
X381592Y645174D01*
X381252Y645303D01*
X380902Y645401D01*
X380544Y645467D01*
X380182Y645500D01*
X380002D01*
Y833500D01*
G37*
G36*
X376716D02*X380002D01*
Y645500D01*
X379818D01*
X379456Y645467D01*
X379098Y645401D01*
X378748Y645303D01*
X378408Y645174D01*
X378081Y645015D01*
X378015Y644972D01*
X377956Y644919D01*
X377906Y644857D01*
X377867Y644788D01*
X377839Y644714D01*
X377823Y644637D01*
X377819Y644558D01*
X377827Y644479D01*
X377848Y644403D01*
X377880Y644330D01*
X377923Y644264D01*
X377976Y644205D01*
X378038Y644156D01*
X378107Y644116D01*
X378181Y644088D01*
X378258Y644072D01*
X378337Y644068D01*
X378416Y644076D01*
X378493Y644097D01*
X378564Y644130D01*
X378807Y644253D01*
X379062Y644350D01*
X379324Y644423D01*
X379592Y644472D01*
X379864Y644497D01*
X380002D01*
Y638503D01*
X379864D01*
X379592Y638528D01*
X379324Y638577D01*
X379062Y638650D01*
X378807Y638747D01*
X378563Y638867D01*
X378491Y638900D01*
X378415Y638921D01*
X378337Y638929D01*
X378259Y638925D01*
X378182Y638909D01*
X378108Y638881D01*
X378040Y638842D01*
X377979Y638793D01*
X377926Y638734D01*
X377883Y638668D01*
X377851Y638596D01*
X377830Y638520D01*
X377822Y638442D01*
X377826Y638364D01*
X377842Y638287D01*
X377870Y638213D01*
X377909Y638145D01*
X377958Y638084D01*
X378017Y638031D01*
X378083Y637989D01*
X378408Y637826D01*
X378748Y637697D01*
X379098Y637599D01*
X379456Y637533D01*
X379818Y637500D01*
X380002D01*
Y509500D01*
X376716D01*
Y639365D01*
X376786Y639339D01*
X376863Y639323D01*
X376942Y639319D01*
X377021Y639327D01*
X377097Y639348D01*
X377170Y639380D01*
X377236Y639423D01*
X377295Y639476D01*
X377344Y639538D01*
X377384Y639607D01*
X377412Y639681D01*
X377428Y639758D01*
X377432Y639837D01*
X377424Y639916D01*
X377403Y639993D01*
X377370Y640064D01*
X377247Y640307D01*
X377150Y640562D01*
X377077Y640824D01*
X377028Y641092D01*
X377003Y641364D01*
Y641636D01*
X377028Y641908D01*
X377077Y642176D01*
X377150Y642438D01*
X377247Y642693D01*
X377367Y642937D01*
X377400Y643009D01*
X377421Y643085D01*
X377429Y643163D01*
X377425Y643241D01*
X377409Y643318D01*
X377381Y643392D01*
X377342Y643460D01*
X377293Y643521D01*
X377234Y643574D01*
X377168Y643617D01*
X377096Y643649D01*
X377020Y643670D01*
X376942Y643678D01*
X376864Y643674D01*
X376787Y643658D01*
X376716Y643631D01*
Y833500D01*
G37*
G36*
X371284D02*X376716D01*
Y643631D01*
X376713Y643630D01*
X376645Y643591D01*
X376584Y643542D01*
X376531Y643483D01*
X376489Y643417D01*
X376326Y643092D01*
X376197Y642752D01*
X376099Y642402D01*
X376033Y642044D01*
X376000Y641682D01*
Y641318D01*
X376033Y640956D01*
X376099Y640598D01*
X376197Y640248D01*
X376326Y639908D01*
X376485Y639581D01*
X376528Y639515D01*
X376581Y639456D01*
X376643Y639406D01*
X376712Y639367D01*
X376716Y639365D01*
Y509500D01*
X371284D01*
Y582869D01*
X371287Y582870D01*
X371355Y582909D01*
X371416Y582958D01*
X371469Y583017D01*
X371511Y583083D01*
X371674Y583408D01*
X371803Y583748D01*
X371901Y584098D01*
X371967Y584456D01*
X372000Y584818D01*
Y585182D01*
X371967Y585544D01*
X371901Y585902D01*
X371803Y586252D01*
X371674Y586592D01*
X371515Y586919D01*
X371472Y586985D01*
X371419Y587044D01*
X371357Y587094D01*
X371288Y587133D01*
X371284Y587135D01*
Y833500D01*
G37*
G36*
X368002D02*X371284D01*
Y587135D01*
X371214Y587161D01*
X371137Y587177D01*
X371058Y587181D01*
X370979Y587173D01*
X370903Y587152D01*
X370830Y587120D01*
X370764Y587077D01*
X370705Y587024D01*
X370656Y586962D01*
X370616Y586893D01*
X370588Y586819D01*
X370572Y586742D01*
X370568Y586663D01*
X370576Y586584D01*
X370597Y586507D01*
X370630Y586436D01*
X370753Y586193D01*
X370850Y585938D01*
X370923Y585676D01*
X370972Y585408D01*
X370997Y585136D01*
Y584864D01*
X370972Y584592D01*
X370923Y584324D01*
X370850Y584062D01*
X370753Y583807D01*
X370633Y583563D01*
X370600Y583491D01*
X370579Y583416D01*
X370571Y583337D01*
X370575Y583259D01*
X370591Y583182D01*
X370619Y583108D01*
X370658Y583040D01*
X370707Y582979D01*
X370766Y582926D01*
X370832Y582883D01*
X370904Y582851D01*
X370980Y582830D01*
X371058Y582822D01*
X371136Y582826D01*
X371213Y582842D01*
X371284Y582869D01*
Y509500D01*
X368002D01*
Y581000D01*
X368182D01*
X368544Y581033D01*
X368902Y581099D01*
X369252Y581197D01*
X369592Y581326D01*
X369919Y581485D01*
X369985Y581528D01*
X370044Y581581D01*
X370094Y581643D01*
X370133Y581712D01*
X370161Y581786D01*
X370177Y581863D01*
X370181Y581942D01*
X370173Y582021D01*
X370152Y582097D01*
X370120Y582170D01*
X370077Y582236D01*
X370024Y582295D01*
X369962Y582344D01*
X369893Y582384D01*
X369819Y582412D01*
X369742Y582428D01*
X369663Y582432D01*
X369584Y582424D01*
X369507Y582403D01*
X369436Y582370D01*
X369193Y582247D01*
X368938Y582150D01*
X368676Y582077D01*
X368408Y582028D01*
X368136Y582003D01*
X368002D01*
Y587997D01*
X368136D01*
X368408Y587972D01*
X368676Y587923D01*
X368938Y587850D01*
X369193Y587753D01*
X369437Y587633D01*
X369509Y587600D01*
X369584Y587579D01*
X369663Y587571D01*
X369741Y587575D01*
X369818Y587591D01*
X369892Y587619D01*
X369960Y587658D01*
X370021Y587707D01*
X370074Y587766D01*
X370117Y587832D01*
X370149Y587904D01*
X370170Y587980D01*
X370178Y588058D01*
X370174Y588136D01*
X370158Y588213D01*
X370130Y588287D01*
X370091Y588355D01*
X370042Y588416D01*
X369983Y588469D01*
X369917Y588511D01*
X369592Y588674D01*
X369252Y588803D01*
X368902Y588901D01*
X368544Y588967D01*
X368182Y589000D01*
X368002D01*
Y593059D01*
X368075Y593178D01*
X368316Y593760D01*
X368463Y594372D01*
X368500Y595000D01*
X368463Y595628D01*
X368316Y596240D01*
X368075Y596822D01*
X368002Y596941D01*
Y608535D01*
X368358Y608754D01*
X368837Y609163D01*
X369246Y609642D01*
X369575Y610178D01*
X369816Y610760D01*
X369963Y611372D01*
X370000Y612000D01*
X369963Y612628D01*
X369816Y613240D01*
X369575Y613822D01*
X369246Y614358D01*
X368837Y614837D01*
X368358Y615246D01*
X368002Y615465D01*
Y637792D01*
X368322Y637925D01*
X368858Y638254D01*
X369337Y638663D01*
X369746Y639142D01*
X370075Y639678D01*
X370316Y640260D01*
X370463Y640872D01*
X370500Y641500D01*
X370463Y642128D01*
X370316Y642740D01*
X370075Y643322D01*
X369746Y643858D01*
X369337Y644337D01*
X368858Y644746D01*
X368322Y645075D01*
X368002Y645208D01*
Y833500D01*
G37*
G36*
Y615465D02*X367822Y615575D01*
X367240Y615816D01*
X366628Y615963D01*
X366000Y616012D01*
X365372Y615963D01*
X364760Y615816D01*
X364494Y615706D01*
Y638038D01*
X364678Y637925D01*
X365260Y637684D01*
X365872Y637537D01*
X366500Y637488D01*
X367128Y637537D01*
X367740Y637684D01*
X368002Y637792D01*
Y615465D01*
G37*
G36*
Y596941D02*X367746Y597358D01*
X367337Y597837D01*
X366858Y598246D01*
X366322Y598575D01*
X365740Y598816D01*
X365128Y598963D01*
X364500Y599012D01*
X364494Y599012D01*
Y608294D01*
X364760Y608184D01*
X365372Y608037D01*
X366000Y607988D01*
X366628Y608037D01*
X367240Y608184D01*
X367822Y608425D01*
X368002Y608535D01*
Y596941D01*
G37*
G36*
Y509500D02*X364494D01*
Y583068D01*
X364528Y583015D01*
X364581Y582956D01*
X364643Y582906D01*
X364712Y582867D01*
X364786Y582839D01*
X364863Y582823D01*
X364942Y582819D01*
X365021Y582827D01*
X365097Y582848D01*
X365170Y582880D01*
X365236Y582923D01*
X365295Y582976D01*
X365344Y583038D01*
X365384Y583107D01*
X365412Y583181D01*
X365428Y583258D01*
X365432Y583337D01*
X365424Y583416D01*
X365403Y583493D01*
X365370Y583564D01*
X365247Y583807D01*
X365150Y584062D01*
X365077Y584324D01*
X365028Y584592D01*
X365003Y584864D01*
Y585136D01*
X365028Y585408D01*
X365077Y585676D01*
X365150Y585938D01*
X365247Y586193D01*
X365367Y586437D01*
X365400Y586509D01*
X365421Y586585D01*
X365429Y586663D01*
X365425Y586741D01*
X365409Y586818D01*
X365381Y586892D01*
X365342Y586960D01*
X365293Y587021D01*
X365234Y587074D01*
X365168Y587117D01*
X365096Y587149D01*
X365020Y587170D01*
X364942Y587178D01*
X364864Y587174D01*
X364787Y587158D01*
X364713Y587130D01*
X364645Y587091D01*
X364584Y587042D01*
X364531Y586983D01*
X364494Y586924D01*
Y590988D01*
X364500Y590988D01*
X365128Y591037D01*
X365740Y591184D01*
X366322Y591425D01*
X366858Y591754D01*
X367337Y592163D01*
X367746Y592642D01*
X368002Y593059D01*
Y589000D01*
X367818D01*
X367456Y588967D01*
X367098Y588901D01*
X366748Y588803D01*
X366408Y588674D01*
X366081Y588515D01*
X366015Y588472D01*
X365956Y588419D01*
X365906Y588357D01*
X365867Y588288D01*
X365839Y588214D01*
X365823Y588137D01*
X365819Y588058D01*
X365827Y587979D01*
X365848Y587903D01*
X365880Y587830D01*
X365923Y587764D01*
X365976Y587705D01*
X366038Y587656D01*
X366107Y587616D01*
X366181Y587588D01*
X366258Y587572D01*
X366337Y587568D01*
X366416Y587576D01*
X366493Y587597D01*
X366564Y587630D01*
X366807Y587753D01*
X367062Y587850D01*
X367324Y587923D01*
X367592Y587972D01*
X367864Y587997D01*
X368002D01*
Y582003D01*
X367864D01*
X367592Y582028D01*
X367324Y582077D01*
X367062Y582150D01*
X366807Y582247D01*
X366563Y582367D01*
X366491Y582400D01*
X366415Y582421D01*
X366337Y582429D01*
X366259Y582425D01*
X366182Y582409D01*
X366108Y582381D01*
X366040Y582342D01*
X365979Y582293D01*
X365926Y582234D01*
X365883Y582168D01*
X365851Y582096D01*
X365830Y582020D01*
X365822Y581942D01*
X365826Y581864D01*
X365842Y581787D01*
X365870Y581713D01*
X365909Y581645D01*
X365958Y581584D01*
X366017Y581531D01*
X366083Y581489D01*
X366408Y581326D01*
X366748Y581197D01*
X367098Y581099D01*
X367456Y581033D01*
X367818Y581000D01*
X368002D01*
Y509500D01*
G37*
G36*
X364494Y833500D02*X368002D01*
Y645208D01*
X367740Y645316D01*
X367128Y645463D01*
X366500Y645512D01*
X365872Y645463D01*
X365260Y645316D01*
X364678Y645075D01*
X364494Y644962D01*
Y833500D01*
G37*
G36*
X355994D02*X364494D01*
Y644962D01*
X364142Y644746D01*
X363663Y644337D01*
X363254Y643858D01*
X362925Y643322D01*
X362684Y642740D01*
X362537Y642128D01*
X362488Y641500D01*
X362537Y640872D01*
X362684Y640260D01*
X362925Y639678D01*
X363254Y639142D01*
X363663Y638663D01*
X364142Y638254D01*
X364494Y638038D01*
Y615706D01*
X364178Y615575D01*
X363642Y615246D01*
X363163Y614837D01*
X362754Y614358D01*
X362425Y613822D01*
X362184Y613240D01*
X362037Y612628D01*
X361988Y612000D01*
X362037Y611372D01*
X362184Y610760D01*
X362425Y610178D01*
X362754Y609642D01*
X363163Y609163D01*
X363642Y608754D01*
X364178Y608425D01*
X364494Y608294D01*
Y599012D01*
X363872Y598963D01*
X363260Y598816D01*
X362678Y598575D01*
X362142Y598246D01*
X361663Y597837D01*
X361254Y597358D01*
X360925Y596822D01*
X360684Y596240D01*
X360537Y595628D01*
X360488Y595000D01*
X360537Y594372D01*
X360684Y593760D01*
X360925Y593178D01*
X361254Y592642D01*
X361663Y592163D01*
X362142Y591754D01*
X362678Y591425D01*
X363260Y591184D01*
X363872Y591037D01*
X364494Y590988D01*
Y586924D01*
X364489Y586917D01*
X364326Y586592D01*
X364197Y586252D01*
X364099Y585902D01*
X364033Y585544D01*
X364000Y585182D01*
Y584818D01*
X364033Y584456D01*
X364099Y584098D01*
X364197Y583748D01*
X364326Y583408D01*
X364485Y583081D01*
X364494Y583068D01*
Y509500D01*
X355994D01*
Y592988D01*
X356000Y592988D01*
X356628Y593037D01*
X357240Y593184D01*
X357822Y593425D01*
X358358Y593754D01*
X358837Y594163D01*
X359246Y594642D01*
X359575Y595178D01*
X359816Y595760D01*
X359963Y596372D01*
X360000Y597000D01*
X359963Y597628D01*
X359816Y598240D01*
X359575Y598822D01*
X359246Y599358D01*
X358837Y599837D01*
X358358Y600246D01*
X357822Y600575D01*
X357240Y600816D01*
X356628Y600963D01*
X356000Y601012D01*
X355994Y601012D01*
Y622527D01*
X356128Y622537D01*
X356740Y622684D01*
X357322Y622925D01*
X357858Y623254D01*
X358337Y623663D01*
X358746Y624142D01*
X359075Y624678D01*
X359316Y625260D01*
X359463Y625872D01*
X359500Y626500D01*
X359463Y627128D01*
X359316Y627740D01*
X359075Y628322D01*
X358746Y628858D01*
X358337Y629337D01*
X357858Y629746D01*
X357322Y630075D01*
X356740Y630316D01*
X356128Y630463D01*
X355994Y630473D01*
Y833500D01*
G37*
G36*
X348784D02*X355994D01*
Y630473D01*
X355500Y630512D01*
X354872Y630463D01*
X354260Y630316D01*
X353678Y630075D01*
X353142Y629746D01*
X352663Y629337D01*
X352254Y628858D01*
X351925Y628322D01*
X351684Y627740D01*
X351537Y627128D01*
X351488Y626500D01*
X351537Y625872D01*
X351684Y625260D01*
X351925Y624678D01*
X352254Y624142D01*
X352663Y623663D01*
X353142Y623254D01*
X353678Y622925D01*
X354260Y622684D01*
X354872Y622537D01*
X355500Y622488D01*
X355994Y622527D01*
Y601012D01*
X355372Y600963D01*
X354760Y600816D01*
X354178Y600575D01*
X353642Y600246D01*
X353163Y599837D01*
X352754Y599358D01*
X352425Y598822D01*
X352184Y598240D01*
X352037Y597628D01*
X351988Y597000D01*
X352037Y596372D01*
X352184Y595760D01*
X352425Y595178D01*
X352754Y594642D01*
X353163Y594163D01*
X353642Y593754D01*
X354178Y593425D01*
X354760Y593184D01*
X355372Y593037D01*
X355994Y592988D01*
Y509500D01*
X348784D01*
Y586683D01*
X348816Y586760D01*
X348963Y587372D01*
X349000Y588000D01*
X348963Y588628D01*
X348816Y589240D01*
X348784Y589317D01*
Y601369D01*
X348787Y601370D01*
X348855Y601409D01*
X348916Y601458D01*
X348969Y601517D01*
X349011Y601583D01*
X349174Y601908D01*
X349303Y602248D01*
X349401Y602598D01*
X349467Y602956D01*
X349500Y603318D01*
Y603682D01*
X349467Y604044D01*
X349401Y604402D01*
X349303Y604752D01*
X349174Y605092D01*
X349015Y605419D01*
X348972Y605485D01*
X348919Y605544D01*
X348857Y605594D01*
X348788Y605633D01*
X348784Y605635D01*
Y632197D01*
X348803Y632248D01*
X348901Y632598D01*
X348967Y632956D01*
X349000Y633318D01*
Y633682D01*
X348967Y634044D01*
X348901Y634402D01*
X348803Y634752D01*
X348784Y634803D01*
Y833500D01*
G37*
G36*
Y509500D02*X345502D01*
Y584027D01*
X345628Y584037D01*
X346240Y584184D01*
X346822Y584425D01*
X347358Y584754D01*
X347837Y585163D01*
X348246Y585642D01*
X348575Y586178D01*
X348784Y586683D01*
Y509500D01*
G37*
G36*
X345502Y833500D02*X348784D01*
Y634803D01*
X348674Y635092D01*
X348515Y635419D01*
X348472Y635485D01*
X348419Y635544D01*
X348357Y635594D01*
X348288Y635633D01*
X348214Y635661D01*
X348137Y635677D01*
X348058Y635681D01*
X347979Y635673D01*
X347903Y635652D01*
X347830Y635620D01*
X347764Y635577D01*
X347705Y635524D01*
X347656Y635462D01*
X347616Y635393D01*
X347588Y635319D01*
X347572Y635242D01*
X347568Y635163D01*
X347576Y635084D01*
X347597Y635007D01*
X347630Y634936D01*
X347753Y634693D01*
X347850Y634438D01*
X347923Y634176D01*
X347972Y633908D01*
X347997Y633636D01*
Y633364D01*
X347972Y633092D01*
X347923Y632824D01*
X347850Y632562D01*
X347753Y632307D01*
X347633Y632063D01*
X347600Y631991D01*
X347579Y631916D01*
X347571Y631837D01*
X347575Y631759D01*
X347591Y631682D01*
X347619Y631608D01*
X347658Y631540D01*
X347707Y631479D01*
X347766Y631426D01*
X347832Y631383D01*
X347904Y631351D01*
X347980Y631330D01*
X348058Y631322D01*
X348136Y631326D01*
X348213Y631342D01*
X348287Y631370D01*
X348355Y631409D01*
X348416Y631458D01*
X348469Y631517D01*
X348511Y631583D01*
X348674Y631908D01*
X348784Y632197D01*
Y605635D01*
X348714Y605661D01*
X348637Y605677D01*
X348558Y605681D01*
X348479Y605673D01*
X348403Y605652D01*
X348330Y605620D01*
X348264Y605577D01*
X348205Y605524D01*
X348156Y605462D01*
X348116Y605393D01*
X348088Y605319D01*
X348072Y605242D01*
X348068Y605163D01*
X348076Y605084D01*
X348097Y605007D01*
X348130Y604936D01*
X348253Y604693D01*
X348350Y604438D01*
X348423Y604176D01*
X348472Y603908D01*
X348497Y603636D01*
Y603364D01*
X348472Y603092D01*
X348423Y602824D01*
X348350Y602562D01*
X348253Y602307D01*
X348133Y602063D01*
X348100Y601991D01*
X348079Y601916D01*
X348071Y601837D01*
X348075Y601759D01*
X348091Y601682D01*
X348119Y601608D01*
X348158Y601540D01*
X348207Y601479D01*
X348266Y601426D01*
X348332Y601383D01*
X348404Y601351D01*
X348480Y601330D01*
X348558Y601322D01*
X348636Y601326D01*
X348713Y601342D01*
X348784Y601369D01*
Y589317D01*
X348575Y589822D01*
X348246Y590358D01*
X347837Y590837D01*
X347358Y591246D01*
X346822Y591575D01*
X346240Y591816D01*
X345628Y591963D01*
X345502Y591973D01*
Y599500D01*
X345682D01*
X346044Y599533D01*
X346402Y599599D01*
X346752Y599697D01*
X347092Y599826D01*
X347419Y599985D01*
X347485Y600028D01*
X347544Y600081D01*
X347594Y600143D01*
X347633Y600212D01*
X347661Y600286D01*
X347677Y600363D01*
X347681Y600442D01*
X347673Y600521D01*
X347652Y600597D01*
X347620Y600670D01*
X347577Y600736D01*
X347524Y600795D01*
X347462Y600844D01*
X347393Y600884D01*
X347319Y600912D01*
X347242Y600928D01*
X347163Y600932D01*
X347084Y600924D01*
X347007Y600903D01*
X346936Y600870D01*
X346693Y600747D01*
X346438Y600650D01*
X346176Y600577D01*
X345908Y600528D01*
X345636Y600503D01*
X345502D01*
Y606497D01*
X345636D01*
X345908Y606472D01*
X346176Y606423D01*
X346438Y606350D01*
X346693Y606253D01*
X346937Y606133D01*
X347009Y606100D01*
X347084Y606079D01*
X347163Y606071D01*
X347241Y606075D01*
X347318Y606091D01*
X347392Y606119D01*
X347460Y606158D01*
X347521Y606207D01*
X347574Y606266D01*
X347617Y606332D01*
X347649Y606404D01*
X347670Y606480D01*
X347678Y606558D01*
X347674Y606636D01*
X347658Y606713D01*
X347630Y606787D01*
X347591Y606855D01*
X347542Y606916D01*
X347483Y606969D01*
X347417Y607011D01*
X347092Y607174D01*
X346752Y607303D01*
X346402Y607401D01*
X346044Y607467D01*
X345682Y607500D01*
X345502D01*
Y629529D01*
X345544Y629533D01*
X345902Y629599D01*
X346252Y629697D01*
X346592Y629826D01*
X346919Y629985D01*
X346985Y630028D01*
X347044Y630081D01*
X347094Y630143D01*
X347133Y630212D01*
X347161Y630286D01*
X347177Y630363D01*
X347181Y630442D01*
X347173Y630521D01*
X347152Y630597D01*
X347120Y630670D01*
X347077Y630736D01*
X347024Y630795D01*
X346962Y630844D01*
X346893Y630884D01*
X346819Y630912D01*
X346742Y630928D01*
X346663Y630932D01*
X346584Y630924D01*
X346507Y630903D01*
X346436Y630870D01*
X346193Y630747D01*
X345938Y630650D01*
X345676Y630577D01*
X345502Y630545D01*
Y636455D01*
X345676Y636423D01*
X345938Y636350D01*
X346193Y636253D01*
X346437Y636133D01*
X346509Y636100D01*
X346584Y636079D01*
X346663Y636071D01*
X346741Y636075D01*
X346818Y636091D01*
X346892Y636119D01*
X346960Y636158D01*
X347021Y636207D01*
X347074Y636266D01*
X347117Y636332D01*
X347149Y636404D01*
X347170Y636480D01*
X347178Y636558D01*
X347174Y636636D01*
X347158Y636713D01*
X347130Y636787D01*
X347091Y636855D01*
X347042Y636916D01*
X346983Y636969D01*
X346917Y637011D01*
X346592Y637174D01*
X346252Y637303D01*
X345902Y637401D01*
X345544Y637467D01*
X345502Y637471D01*
Y833500D01*
G37*
G36*
X342216Y585117D02*X342642Y584754D01*
X343178Y584425D01*
X343760Y584184D01*
X344372Y584037D01*
X345000Y583988D01*
X345502Y584027D01*
Y509500D01*
X342216D01*
Y585117D01*
G37*
G36*
Y833500D02*X345502D01*
Y637471D01*
X345182Y637500D01*
X344818D01*
X344456Y637467D01*
X344098Y637401D01*
X343748Y637303D01*
X343408Y637174D01*
X343081Y637015D01*
X343015Y636972D01*
X342956Y636919D01*
X342906Y636857D01*
X342867Y636788D01*
X342839Y636714D01*
X342823Y636637D01*
X342819Y636558D01*
X342827Y636479D01*
X342848Y636403D01*
X342880Y636330D01*
X342923Y636264D01*
X342976Y636205D01*
X343038Y636156D01*
X343107Y636116D01*
X343181Y636088D01*
X343258Y636072D01*
X343337Y636068D01*
X343416Y636076D01*
X343493Y636097D01*
X343564Y636130D01*
X343807Y636253D01*
X344062Y636350D01*
X344324Y636423D01*
X344592Y636472D01*
X344864Y636497D01*
X345136D01*
X345408Y636472D01*
X345502Y636455D01*
Y630545D01*
X345408Y630528D01*
X345136Y630503D01*
X344864D01*
X344592Y630528D01*
X344324Y630577D01*
X344062Y630650D01*
X343807Y630747D01*
X343563Y630867D01*
X343491Y630900D01*
X343415Y630921D01*
X343337Y630929D01*
X343259Y630925D01*
X343182Y630909D01*
X343108Y630881D01*
X343040Y630842D01*
X342979Y630793D01*
X342926Y630734D01*
X342883Y630668D01*
X342851Y630596D01*
X342830Y630520D01*
X342822Y630442D01*
X342826Y630364D01*
X342842Y630287D01*
X342870Y630213D01*
X342909Y630145D01*
X342958Y630084D01*
X343017Y630031D01*
X343083Y629989D01*
X343408Y629826D01*
X343748Y629697D01*
X344098Y629599D01*
X344456Y629533D01*
X344818Y629500D01*
X345182D01*
X345502Y629529D01*
Y607500D01*
X345318D01*
X344956Y607467D01*
X344598Y607401D01*
X344248Y607303D01*
X343908Y607174D01*
X343581Y607015D01*
X343515Y606972D01*
X343456Y606919D01*
X343406Y606857D01*
X343367Y606788D01*
X343339Y606714D01*
X343323Y606637D01*
X343319Y606558D01*
X343327Y606479D01*
X343348Y606403D01*
X343380Y606330D01*
X343423Y606264D01*
X343476Y606205D01*
X343538Y606156D01*
X343607Y606116D01*
X343681Y606088D01*
X343758Y606072D01*
X343837Y606068D01*
X343916Y606076D01*
X343993Y606097D01*
X344064Y606130D01*
X344307Y606253D01*
X344562Y606350D01*
X344824Y606423D01*
X345092Y606472D01*
X345364Y606497D01*
X345502D01*
Y600503D01*
X345364D01*
X345092Y600528D01*
X344824Y600577D01*
X344562Y600650D01*
X344307Y600747D01*
X344063Y600867D01*
X343991Y600900D01*
X343915Y600921D01*
X343837Y600929D01*
X343759Y600925D01*
X343682Y600909D01*
X343608Y600881D01*
X343540Y600842D01*
X343479Y600793D01*
X343426Y600734D01*
X343383Y600668D01*
X343351Y600596D01*
X343330Y600520D01*
X343322Y600442D01*
X343326Y600364D01*
X343342Y600287D01*
X343370Y600213D01*
X343409Y600145D01*
X343458Y600084D01*
X343517Y600031D01*
X343583Y599989D01*
X343908Y599826D01*
X344248Y599697D01*
X344598Y599599D01*
X344956Y599533D01*
X345318Y599500D01*
X345502D01*
Y591973D01*
X345000Y592012D01*
X344372Y591963D01*
X343760Y591816D01*
X343178Y591575D01*
X342642Y591246D01*
X342216Y590883D01*
Y601365D01*
X342286Y601339D01*
X342363Y601323D01*
X342442Y601319D01*
X342521Y601327D01*
X342597Y601348D01*
X342670Y601380D01*
X342736Y601423D01*
X342795Y601476D01*
X342844Y601538D01*
X342884Y601607D01*
X342912Y601681D01*
X342928Y601758D01*
X342932Y601837D01*
X342924Y601916D01*
X342903Y601993D01*
X342870Y602064D01*
X342747Y602307D01*
X342650Y602562D01*
X342577Y602824D01*
X342528Y603092D01*
X342503Y603364D01*
Y603636D01*
X342528Y603908D01*
X342577Y604176D01*
X342650Y604438D01*
X342747Y604693D01*
X342867Y604937D01*
X342900Y605009D01*
X342921Y605085D01*
X342929Y605163D01*
X342925Y605241D01*
X342909Y605318D01*
X342881Y605392D01*
X342842Y605460D01*
X342793Y605521D01*
X342734Y605574D01*
X342668Y605617D01*
X342596Y605649D01*
X342520Y605670D01*
X342442Y605678D01*
X342364Y605674D01*
X342287Y605658D01*
X342216Y605631D01*
Y631410D01*
X342236Y631423D01*
X342295Y631476D01*
X342344Y631538D01*
X342384Y631607D01*
X342412Y631681D01*
X342428Y631758D01*
X342432Y631837D01*
X342424Y631916D01*
X342403Y631993D01*
X342370Y632064D01*
X342247Y632307D01*
X342216Y632389D01*
Y634611D01*
X342247Y634693D01*
X342367Y634937D01*
X342400Y635009D01*
X342421Y635085D01*
X342429Y635163D01*
X342425Y635241D01*
X342409Y635318D01*
X342381Y635392D01*
X342342Y635460D01*
X342293Y635521D01*
X342234Y635574D01*
X342216Y635586D01*
Y833500D01*
G37*
G36*
Y632389D02*X342150Y632562D01*
X342077Y632824D01*
X342028Y633092D01*
X342003Y633364D01*
Y633636D01*
X342028Y633908D01*
X342077Y634176D01*
X342150Y634438D01*
X342216Y634611D01*
Y632389D01*
G37*
G36*
X333540Y833500D02*X342216D01*
Y635586D01*
X342168Y635617D01*
X342096Y635649D01*
X342020Y635670D01*
X341942Y635678D01*
X341864Y635674D01*
X341787Y635658D01*
X341713Y635630D01*
X341645Y635591D01*
X341584Y635542D01*
X341531Y635483D01*
X341489Y635417D01*
X341326Y635092D01*
X341197Y634752D01*
X341099Y634402D01*
X341033Y634044D01*
X341000Y633682D01*
Y633318D01*
X341033Y632956D01*
X341099Y632598D01*
X341197Y632248D01*
X341326Y631908D01*
X341485Y631581D01*
X341528Y631515D01*
X341581Y631456D01*
X341643Y631406D01*
X341712Y631367D01*
X341786Y631339D01*
X341863Y631323D01*
X341942Y631319D01*
X342021Y631327D01*
X342097Y631348D01*
X342170Y631380D01*
X342216Y631410D01*
Y605631D01*
X342213Y605630D01*
X342145Y605591D01*
X342084Y605542D01*
X342031Y605483D01*
X341989Y605417D01*
X341826Y605092D01*
X341697Y604752D01*
X341599Y604402D01*
X341533Y604044D01*
X341500Y603682D01*
Y603318D01*
X341533Y602956D01*
X341599Y602598D01*
X341697Y602248D01*
X341826Y601908D01*
X341985Y601581D01*
X342028Y601515D01*
X342081Y601456D01*
X342143Y601406D01*
X342212Y601367D01*
X342216Y601365D01*
Y590883D01*
X342163Y590837D01*
X341754Y590358D01*
X341425Y589822D01*
X341184Y589240D01*
X341037Y588628D01*
X340988Y588000D01*
X341037Y587372D01*
X341184Y586760D01*
X341425Y586178D01*
X341754Y585642D01*
X342163Y585163D01*
X342216Y585117D01*
Y509500D01*
X333540D01*
Y534390D01*
X333648Y534434D01*
X335460Y535545D01*
X337075Y536925D01*
X338455Y538540D01*
X339566Y540352D01*
X340379Y542315D01*
X340875Y544382D01*
X341000Y546500D01*
X340875Y548618D01*
X340379Y550685D01*
X339566Y552648D01*
X338455Y554460D01*
X337075Y556075D01*
X335460Y557455D01*
X333648Y558566D01*
X333540Y558610D01*
Y602409D01*
X333837Y602663D01*
X334246Y603142D01*
X334575Y603678D01*
X334816Y604260D01*
X334963Y604872D01*
X335000Y605500D01*
X334963Y606128D01*
X334816Y606740D01*
X334575Y607322D01*
X334246Y607858D01*
X333837Y608337D01*
X333540Y608591D01*
Y612113D01*
X333543Y612114D01*
X333611Y612153D01*
X333672Y612202D01*
X333725Y612261D01*
X333767Y612327D01*
X333930Y612652D01*
X334059Y612992D01*
X334157Y613342D01*
X334223Y613700D01*
X334256Y614062D01*
Y614426D01*
X334223Y614788D01*
X334157Y615146D01*
X334059Y615496D01*
X333930Y615836D01*
X333771Y616163D01*
X333728Y616229D01*
X333675Y616288D01*
X333613Y616338D01*
X333544Y616377D01*
X333540Y616379D01*
Y784390D01*
X333648Y784434D01*
X335460Y785545D01*
X337075Y786925D01*
X338455Y788540D01*
X339566Y790352D01*
X340379Y792315D01*
X340875Y794382D01*
X341000Y796500D01*
X340875Y798618D01*
X340379Y800685D01*
X339566Y802648D01*
X338455Y804460D01*
X337075Y806075D01*
X335460Y807455D01*
X333648Y808566D01*
X333540Y808610D01*
Y833500D01*
G37*
G36*
Y608591D02*X333358Y608746D01*
X332822Y609075D01*
X332240Y609316D01*
X331628Y609463D01*
X331000Y609512D01*
X330994Y609512D01*
Y610313D01*
X331158Y610343D01*
X331508Y610441D01*
X331848Y610570D01*
X332175Y610729D01*
X332241Y610772D01*
X332300Y610825D01*
X332350Y610887D01*
X332389Y610956D01*
X332417Y611030D01*
X332433Y611107D01*
X332437Y611186D01*
X332429Y611265D01*
X332408Y611341D01*
X332376Y611414D01*
X332333Y611480D01*
X332280Y611539D01*
X332218Y611588D01*
X332149Y611628D01*
X332075Y611656D01*
X331998Y611672D01*
X331919Y611676D01*
X331840Y611668D01*
X331763Y611647D01*
X331692Y611614D01*
X331449Y611491D01*
X331194Y611394D01*
X330994Y611338D01*
Y617150D01*
X331194Y617094D01*
X331449Y616997D01*
X331693Y616877D01*
X331765Y616844D01*
X331840Y616823D01*
X331919Y616815D01*
X331997Y616819D01*
X332074Y616835D01*
X332148Y616863D01*
X332216Y616902D01*
X332277Y616951D01*
X332330Y617010D01*
X332373Y617076D01*
X332405Y617148D01*
X332426Y617224D01*
X332434Y617302D01*
X332430Y617380D01*
X332414Y617457D01*
X332386Y617531D01*
X332347Y617599D01*
X332298Y617660D01*
X332239Y617713D01*
X332173Y617755D01*
X331848Y617918D01*
X331508Y618047D01*
X331158Y618145D01*
X330994Y618175D01*
Y783455D01*
X331685Y783621D01*
X333540Y784390D01*
Y616379D01*
X333470Y616405D01*
X333393Y616421D01*
X333314Y616425D01*
X333235Y616417D01*
X333159Y616396D01*
X333086Y616364D01*
X333020Y616321D01*
X332961Y616268D01*
X332912Y616206D01*
X332872Y616137D01*
X332844Y616063D01*
X332828Y615986D01*
X332824Y615907D01*
X332832Y615828D01*
X332853Y615751D01*
X332886Y615680D01*
X333009Y615437D01*
X333106Y615182D01*
X333179Y614920D01*
X333228Y614652D01*
X333253Y614380D01*
Y614108D01*
X333228Y613836D01*
X333179Y613568D01*
X333106Y613306D01*
X333009Y613051D01*
X332889Y612807D01*
X332856Y612735D01*
X332835Y612660D01*
X332827Y612581D01*
X332831Y612503D01*
X332847Y612426D01*
X332875Y612352D01*
X332914Y612284D01*
X332963Y612223D01*
X333022Y612170D01*
X333088Y612127D01*
X333160Y612095D01*
X333236Y612074D01*
X333314Y612066D01*
X333392Y612070D01*
X333469Y612086D01*
X333540Y612113D01*
Y608591D01*
G37*
G36*
Y558610D02*X331685Y559379D01*
X330994Y559545D01*
Y601488D01*
X331000Y601488D01*
X331628Y601537D01*
X332240Y601684D01*
X332822Y601925D01*
X333358Y602254D01*
X333540Y602409D01*
Y558610D01*
G37*
G36*
Y509500D02*X330994D01*
Y533455D01*
X331685Y533621D01*
X333540Y534390D01*
Y509500D01*
G37*
G36*
X330994Y833500D02*X333540D01*
Y808610D01*
X331685Y809379D01*
X330994Y809545D01*
Y833500D01*
G37*
G36*
Y509500D02*X327500D01*
Y532958D01*
X329618Y533125D01*
X330994Y533455D01*
Y509500D01*
G37*
G36*
X311002Y570498D02*X322000Y559500D01*
Y558834D01*
X321352Y558566D01*
X319540Y557455D01*
X317925Y556075D01*
X316545Y554460D01*
X315434Y552648D01*
X314621Y550685D01*
X314125Y548618D01*
X313958Y546500D01*
X314125Y544382D01*
X314621Y542315D01*
X315434Y540352D01*
X316545Y538540D01*
X317925Y536925D01*
X319540Y535545D01*
X321352Y534434D01*
X322000Y534166D01*
Y509500D01*
X311002D01*
Y570498D01*
G37*
G36*
X328284Y602560D02*X328642Y602254D01*
X329178Y601925D01*
X329760Y601684D01*
X330372Y601537D01*
X330994Y601488D01*
Y559545D01*
X329618Y559875D01*
X328284Y559980D01*
Y602560D01*
G37*
G36*
Y610768D02*X328339Y610733D01*
X328664Y610570D01*
X329004Y610441D01*
X329354Y610343D01*
X329712Y610277D01*
X330074Y610244D01*
X330438D01*
X330800Y610277D01*
X330994Y610313D01*
Y609512D01*
X330372Y609463D01*
X329760Y609316D01*
X329178Y609075D01*
X328642Y608746D01*
X328284Y608440D01*
Y610768D01*
G37*
G36*
Y616908D02*X328294Y616900D01*
X328363Y616860D01*
X328437Y616832D01*
X328514Y616816D01*
X328593Y616812D01*
X328672Y616820D01*
X328749Y616841D01*
X328820Y616874D01*
X329063Y616997D01*
X329318Y617094D01*
X329580Y617167D01*
X329848Y617216D01*
X330120Y617241D01*
X330392D01*
X330664Y617216D01*
X330932Y617167D01*
X330994Y617150D01*
Y611338D01*
X330932Y611321D01*
X330664Y611272D01*
X330392Y611247D01*
X330120D01*
X329848Y611272D01*
X329580Y611321D01*
X329318Y611394D01*
X329063Y611491D01*
X328819Y611611D01*
X328747Y611644D01*
X328671Y611665D01*
X328593Y611673D01*
X328515Y611669D01*
X328438Y611653D01*
X328364Y611625D01*
X328296Y611586D01*
X328284Y611576D01*
Y616908D01*
G37*
G36*
Y783020D02*X329618Y783125D01*
X330994Y783455D01*
Y618175D01*
X330800Y618211D01*
X330438Y618244D01*
X330074D01*
X329712Y618211D01*
X329354Y618145D01*
X329004Y618047D01*
X328664Y617918D01*
X328337Y617759D01*
X328284Y617724D01*
Y627869D01*
X328287Y627870D01*
X328355Y627909D01*
X328416Y627958D01*
X328469Y628017D01*
X328511Y628083D01*
X328674Y628408D01*
X328803Y628748D01*
X328901Y629098D01*
X328967Y629456D01*
X329000Y629818D01*
Y630182D01*
X328967Y630544D01*
X328901Y630902D01*
X328803Y631252D01*
X328674Y631592D01*
X328515Y631919D01*
X328472Y631985D01*
X328419Y632044D01*
X328357Y632094D01*
X328288Y632133D01*
X328284Y632135D01*
Y783020D01*
G37*
G36*
X326972Y783000D02*X327500Y782958D01*
X328284Y783020D01*
Y632135D01*
X328214Y632161D01*
X328137Y632177D01*
X328058Y632181D01*
X327979Y632173D01*
X327903Y632152D01*
X327830Y632120D01*
X327764Y632077D01*
X327705Y632024D01*
X327656Y631962D01*
X327616Y631893D01*
X327588Y631819D01*
X327572Y631742D01*
X327568Y631663D01*
X327576Y631584D01*
X327597Y631507D01*
X327630Y631436D01*
X327753Y631193D01*
X327850Y630938D01*
X327923Y630676D01*
X327972Y630408D01*
X327997Y630136D01*
Y629864D01*
X327972Y629592D01*
X327923Y629324D01*
X327850Y629062D01*
X327753Y628807D01*
X327633Y628563D01*
X327600Y628491D01*
X327579Y628416D01*
X327571Y628337D01*
X327575Y628259D01*
X327591Y628182D01*
X327619Y628108D01*
X327658Y628040D01*
X327707Y627979D01*
X327766Y627926D01*
X327832Y627883D01*
X327904Y627851D01*
X327980Y627830D01*
X328058Y627822D01*
X328136Y627826D01*
X328213Y627842D01*
X328284Y627869D01*
Y617724D01*
X328271Y617716D01*
X328212Y617663D01*
X328162Y617601D01*
X328123Y617532D01*
X328095Y617458D01*
X328079Y617381D01*
X328075Y617302D01*
X328083Y617223D01*
X328104Y617147D01*
X328136Y617074D01*
X328179Y617008D01*
X328232Y616949D01*
X328284Y616908D01*
Y611576D01*
X328235Y611537D01*
X328182Y611478D01*
X328139Y611412D01*
X328107Y611340D01*
X328086Y611264D01*
X328078Y611186D01*
X328082Y611108D01*
X328098Y611031D01*
X328126Y610957D01*
X328165Y610889D01*
X328214Y610828D01*
X328273Y610775D01*
X328284Y610768D01*
Y608440D01*
X328163Y608337D01*
X327754Y607858D01*
X327425Y607322D01*
X327184Y606740D01*
X327037Y606128D01*
X326988Y605500D01*
X327037Y604872D01*
X327184Y604260D01*
X327425Y603678D01*
X327754Y603142D01*
X328163Y602663D01*
X328284Y602560D01*
Y559980D01*
X327500Y560042D01*
X327461Y560039D01*
X326972Y560528D01*
Y612109D01*
X327042Y612083D01*
X327119Y612067D01*
X327198Y612063D01*
X327277Y612071D01*
X327353Y612092D01*
X327426Y612124D01*
X327492Y612167D01*
X327551Y612220D01*
X327600Y612282D01*
X327640Y612351D01*
X327668Y612425D01*
X327684Y612502D01*
X327688Y612581D01*
X327680Y612660D01*
X327659Y612737D01*
X327626Y612808D01*
X327503Y613051D01*
X327406Y613306D01*
X327333Y613568D01*
X327284Y613836D01*
X327259Y614108D01*
Y614380D01*
X327284Y614652D01*
X327333Y614920D01*
X327406Y615182D01*
X327503Y615437D01*
X327623Y615681D01*
X327656Y615753D01*
X327677Y615829D01*
X327685Y615907D01*
X327681Y615985D01*
X327665Y616062D01*
X327637Y616136D01*
X327598Y616204D01*
X327549Y616265D01*
X327490Y616318D01*
X327424Y616361D01*
X327352Y616393D01*
X327276Y616414D01*
X327198Y616422D01*
X327120Y616418D01*
X327043Y616402D01*
X326972Y616375D01*
Y626520D01*
X326985Y626528D01*
X327044Y626581D01*
X327094Y626643D01*
X327133Y626712D01*
X327161Y626786D01*
X327177Y626863D01*
X327181Y626942D01*
X327173Y627021D01*
X327152Y627097D01*
X327120Y627170D01*
X327077Y627236D01*
X327024Y627295D01*
X326972Y627336D01*
Y632668D01*
X327021Y632707D01*
X327074Y632766D01*
X327117Y632832D01*
X327149Y632904D01*
X327170Y632980D01*
X327178Y633058D01*
X327174Y633136D01*
X327158Y633213D01*
X327130Y633287D01*
X327091Y633355D01*
X327042Y633416D01*
X326983Y633469D01*
X326972Y633476D01*
Y783000D01*
G37*
G36*
X321716Y784284D02*X323315Y783621D01*
X325382Y783125D01*
X326972Y783000D01*
Y633476D01*
X326917Y633511D01*
X326592Y633674D01*
X326252Y633803D01*
X325902Y633901D01*
X325544Y633967D01*
X325182Y634000D01*
X324818D01*
X324456Y633967D01*
X324098Y633901D01*
X323748Y633803D01*
X323408Y633674D01*
X323081Y633515D01*
X323015Y633472D01*
X322956Y633419D01*
X322906Y633357D01*
X322867Y633288D01*
X322839Y633214D01*
X322823Y633137D01*
X322819Y633058D01*
X322827Y632979D01*
X322848Y632903D01*
X322880Y632830D01*
X322923Y632764D01*
X322976Y632705D01*
X323038Y632656D01*
X323107Y632616D01*
X323181Y632588D01*
X323258Y632572D01*
X323337Y632568D01*
X323416Y632576D01*
X323493Y632597D01*
X323564Y632630D01*
X323807Y632753D01*
X324062Y632850D01*
X324324Y632923D01*
X324592Y632972D01*
X324864Y632997D01*
X325136D01*
X325408Y632972D01*
X325676Y632923D01*
X325938Y632850D01*
X326193Y632753D01*
X326437Y632633D01*
X326509Y632600D01*
X326584Y632579D01*
X326663Y632571D01*
X326741Y632575D01*
X326818Y632591D01*
X326892Y632619D01*
X326960Y632658D01*
X326972Y632668D01*
Y627336D01*
X326962Y627344D01*
X326893Y627384D01*
X326819Y627412D01*
X326742Y627428D01*
X326663Y627432D01*
X326584Y627424D01*
X326507Y627403D01*
X326436Y627370D01*
X326193Y627247D01*
X325938Y627150D01*
X325676Y627077D01*
X325408Y627028D01*
X325136Y627003D01*
X324864D01*
X324592Y627028D01*
X324324Y627077D01*
X324062Y627150D01*
X323807Y627247D01*
X323563Y627367D01*
X323491Y627400D01*
X323415Y627421D01*
X323337Y627429D01*
X323259Y627425D01*
X323182Y627409D01*
X323108Y627381D01*
X323040Y627342D01*
X322979Y627293D01*
X322926Y627234D01*
X322883Y627168D01*
X322851Y627096D01*
X322830Y627020D01*
X322822Y626942D01*
X322826Y626864D01*
X322842Y626787D01*
X322870Y626713D01*
X322909Y626645D01*
X322958Y626584D01*
X323017Y626531D01*
X323083Y626489D01*
X323408Y626326D01*
X323748Y626197D01*
X324098Y626099D01*
X324456Y626033D01*
X324818Y626000D01*
X325182D01*
X325544Y626033D01*
X325902Y626099D01*
X326252Y626197D01*
X326592Y626326D01*
X326919Y626485D01*
X326972Y626520D01*
Y616375D01*
X326969Y616374D01*
X326901Y616335D01*
X326840Y616286D01*
X326787Y616227D01*
X326745Y616161D01*
X326582Y615836D01*
X326453Y615496D01*
X326355Y615146D01*
X326289Y614788D01*
X326256Y614426D01*
Y614062D01*
X326289Y613700D01*
X326355Y613342D01*
X326453Y612992D01*
X326582Y612652D01*
X326741Y612325D01*
X326784Y612259D01*
X326837Y612200D01*
X326899Y612150D01*
X326968Y612111D01*
X326972Y612109D01*
Y560528D01*
X321716Y565784D01*
Y627865D01*
X321786Y627839D01*
X321863Y627823D01*
X321942Y627819D01*
X322021Y627827D01*
X322097Y627848D01*
X322170Y627880D01*
X322236Y627923D01*
X322295Y627976D01*
X322344Y628038D01*
X322384Y628107D01*
X322412Y628181D01*
X322428Y628258D01*
X322432Y628337D01*
X322424Y628416D01*
X322403Y628493D01*
X322370Y628564D01*
X322247Y628807D01*
X322150Y629062D01*
X322077Y629324D01*
X322028Y629592D01*
X322003Y629864D01*
Y630136D01*
X322028Y630408D01*
X322077Y630676D01*
X322150Y630938D01*
X322247Y631193D01*
X322367Y631437D01*
X322400Y631509D01*
X322421Y631585D01*
X322429Y631663D01*
X322425Y631741D01*
X322409Y631818D01*
X322381Y631892D01*
X322342Y631960D01*
X322293Y632021D01*
X322234Y632074D01*
X322168Y632117D01*
X322096Y632149D01*
X322020Y632170D01*
X321942Y632178D01*
X321864Y632174D01*
X321787Y632158D01*
X321716Y632131D01*
Y784284D01*
G37*
G36*
X314284Y793720D02*X314621Y792315D01*
X315434Y790352D01*
X316545Y788540D01*
X317925Y786925D01*
X319540Y785545D01*
X321352Y784434D01*
X321716Y784284D01*
Y632131D01*
X321713Y632130D01*
X321645Y632091D01*
X321584Y632042D01*
X321531Y631983D01*
X321489Y631917D01*
X321326Y631592D01*
X321197Y631252D01*
X321099Y630902D01*
X321033Y630544D01*
X321000Y630182D01*
Y629818D01*
X321033Y629456D01*
X321099Y629098D01*
X321197Y628748D01*
X321326Y628408D01*
X321485Y628081D01*
X321528Y628015D01*
X321581Y627956D01*
X321643Y627906D01*
X321712Y627867D01*
X321716Y627865D01*
Y565784D01*
X314284Y573216D01*
Y603369D01*
X314287Y603370D01*
X314355Y603409D01*
X314416Y603458D01*
X314469Y603517D01*
X314511Y603583D01*
X314674Y603908D01*
X314803Y604248D01*
X314901Y604598D01*
X314967Y604956D01*
X315000Y605318D01*
Y605682D01*
X314967Y606044D01*
X314901Y606402D01*
X314803Y606752D01*
X314674Y607092D01*
X314515Y607419D01*
X314472Y607485D01*
X314419Y607544D01*
X314357Y607594D01*
X314288Y607633D01*
X314284Y607635D01*
Y619703D01*
X314575Y620178D01*
X314816Y620760D01*
X314963Y621372D01*
X315000Y622000D01*
X314963Y622628D01*
X314816Y623240D01*
X314575Y623822D01*
X314284Y624297D01*
Y793720D01*
G37*
G36*
Y833500D02*X330994D01*
Y809545D01*
X329618Y809875D01*
X327500Y810042D01*
X325382Y809875D01*
X323315Y809379D01*
X321352Y808566D01*
X319540Y807455D01*
X317925Y806075D01*
X316545Y804460D01*
X315434Y802648D01*
X314621Y800685D01*
X314284Y799280D01*
Y833500D01*
G37*
G36*
Y573216D02*X311500Y576000D01*
X311002D01*
Y601500D01*
X311182D01*
X311544Y601533D01*
X311902Y601599D01*
X312252Y601697D01*
X312592Y601826D01*
X312919Y601985D01*
X312985Y602028D01*
X313044Y602081D01*
X313094Y602143D01*
X313133Y602212D01*
X313161Y602286D01*
X313177Y602363D01*
X313181Y602442D01*
X313173Y602521D01*
X313152Y602597D01*
X313120Y602670D01*
X313077Y602736D01*
X313024Y602795D01*
X312962Y602844D01*
X312893Y602884D01*
X312819Y602912D01*
X312742Y602928D01*
X312663Y602932D01*
X312584Y602924D01*
X312507Y602903D01*
X312436Y602870D01*
X312193Y602747D01*
X311938Y602650D01*
X311676Y602577D01*
X311408Y602528D01*
X311136Y602503D01*
X311002D01*
Y608497D01*
X311136D01*
X311408Y608472D01*
X311676Y608423D01*
X311938Y608350D01*
X312193Y608253D01*
X312437Y608133D01*
X312509Y608100D01*
X312584Y608079D01*
X312663Y608071D01*
X312741Y608075D01*
X312818Y608091D01*
X312892Y608119D01*
X312960Y608158D01*
X313021Y608207D01*
X313074Y608266D01*
X313117Y608332D01*
X313149Y608404D01*
X313170Y608480D01*
X313178Y608558D01*
X313174Y608636D01*
X313158Y608713D01*
X313130Y608787D01*
X313091Y608855D01*
X313042Y608916D01*
X312983Y608969D01*
X312917Y609011D01*
X312592Y609174D01*
X312252Y609303D01*
X311902Y609401D01*
X311544Y609467D01*
X311182Y609500D01*
X311002D01*
Y617988D01*
X311628Y618037D01*
X312240Y618184D01*
X312822Y618425D01*
X313358Y618754D01*
X313837Y619163D01*
X314246Y619642D01*
X314284Y619703D01*
Y607635D01*
X314214Y607661D01*
X314137Y607677D01*
X314058Y607681D01*
X313979Y607673D01*
X313903Y607652D01*
X313830Y607620D01*
X313764Y607577D01*
X313705Y607524D01*
X313656Y607462D01*
X313616Y607393D01*
X313588Y607319D01*
X313572Y607242D01*
X313568Y607163D01*
X313576Y607084D01*
X313597Y607007D01*
X313630Y606936D01*
X313753Y606693D01*
X313850Y606438D01*
X313923Y606176D01*
X313972Y605908D01*
X313997Y605636D01*
Y605364D01*
X313972Y605092D01*
X313923Y604824D01*
X313850Y604562D01*
X313753Y604307D01*
X313633Y604063D01*
X313600Y603991D01*
X313579Y603916D01*
X313571Y603837D01*
X313575Y603759D01*
X313591Y603682D01*
X313619Y603608D01*
X313658Y603540D01*
X313707Y603479D01*
X313766Y603426D01*
X313832Y603383D01*
X313904Y603351D01*
X313980Y603330D01*
X314058Y603322D01*
X314136Y603326D01*
X314213Y603342D01*
X314284Y603369D01*
Y573216D01*
G37*
G36*
X311002Y833500D02*X314284D01*
Y799280D01*
X314125Y798618D01*
X313958Y796500D01*
X314125Y794382D01*
X314284Y793720D01*
Y624297D01*
X314246Y624358D01*
X313837Y624837D01*
X313358Y625246D01*
X312822Y625575D01*
X312240Y625816D01*
X311628Y625963D01*
X311002Y626012D01*
Y833500D01*
G37*
G36*
X307716Y573000D02*X308500D01*
X311002Y570498D01*
Y509500D01*
X307716D01*
Y573000D01*
G37*
G36*
Y619703D02*X307754Y619642D01*
X308163Y619163D01*
X308642Y618754D01*
X309178Y618425D01*
X309760Y618184D01*
X310372Y618037D01*
X311000Y617988D01*
X311002Y617988D01*
Y609500D01*
X310818D01*
X310456Y609467D01*
X310098Y609401D01*
X309748Y609303D01*
X309408Y609174D01*
X309081Y609015D01*
X309015Y608972D01*
X308956Y608919D01*
X308906Y608857D01*
X308867Y608788D01*
X308839Y608714D01*
X308823Y608637D01*
X308819Y608558D01*
X308827Y608479D01*
X308848Y608403D01*
X308880Y608330D01*
X308923Y608264D01*
X308976Y608205D01*
X309038Y608156D01*
X309107Y608116D01*
X309181Y608088D01*
X309258Y608072D01*
X309337Y608068D01*
X309416Y608076D01*
X309493Y608097D01*
X309564Y608130D01*
X309807Y608253D01*
X310062Y608350D01*
X310324Y608423D01*
X310592Y608472D01*
X310864Y608497D01*
X311002D01*
Y602503D01*
X310864D01*
X310592Y602528D01*
X310324Y602577D01*
X310062Y602650D01*
X309807Y602747D01*
X309563Y602867D01*
X309491Y602900D01*
X309415Y602921D01*
X309337Y602929D01*
X309259Y602925D01*
X309182Y602909D01*
X309108Y602881D01*
X309040Y602842D01*
X308979Y602793D01*
X308926Y602734D01*
X308883Y602668D01*
X308851Y602596D01*
X308830Y602520D01*
X308822Y602442D01*
X308826Y602364D01*
X308842Y602287D01*
X308870Y602213D01*
X308909Y602145D01*
X308958Y602084D01*
X309017Y602031D01*
X309083Y601989D01*
X309408Y601826D01*
X309748Y601697D01*
X310098Y601599D01*
X310456Y601533D01*
X310818Y601500D01*
X311002D01*
Y576000D01*
X307716D01*
Y603365D01*
X307786Y603339D01*
X307863Y603323D01*
X307942Y603319D01*
X308021Y603327D01*
X308097Y603348D01*
X308170Y603380D01*
X308236Y603423D01*
X308295Y603476D01*
X308344Y603538D01*
X308384Y603607D01*
X308412Y603681D01*
X308428Y603758D01*
X308432Y603837D01*
X308424Y603916D01*
X308403Y603993D01*
X308370Y604064D01*
X308247Y604307D01*
X308150Y604562D01*
X308077Y604824D01*
X308028Y605092D01*
X308003Y605364D01*
Y605636D01*
X308028Y605908D01*
X308077Y606176D01*
X308150Y606438D01*
X308247Y606693D01*
X308367Y606937D01*
X308400Y607009D01*
X308421Y607085D01*
X308429Y607163D01*
X308425Y607241D01*
X308409Y607318D01*
X308381Y607392D01*
X308342Y607460D01*
X308293Y607521D01*
X308234Y607574D01*
X308168Y607617D01*
X308096Y607649D01*
X308020Y607670D01*
X307942Y607678D01*
X307864Y607674D01*
X307787Y607658D01*
X307716Y607631D01*
Y619703D01*
G37*
G36*
Y833500D02*X311002D01*
Y626012D01*
X311000Y626012D01*
X310372Y625963D01*
X309760Y625816D01*
X309178Y625575D01*
X308642Y625246D01*
X308163Y624837D01*
X307754Y624358D01*
X307716Y624297D01*
Y833500D01*
G37*
G36*
X223493D02*X307716D01*
Y624297D01*
X307425Y623822D01*
X307184Y623240D01*
X307037Y622628D01*
X306988Y622000D01*
X307037Y621372D01*
X307184Y620760D01*
X307425Y620178D01*
X307716Y619703D01*
Y607631D01*
X307713Y607630D01*
X307645Y607591D01*
X307584Y607542D01*
X307531Y607483D01*
X307489Y607417D01*
X307326Y607092D01*
X307197Y606752D01*
X307099Y606402D01*
X307033Y606044D01*
X307000Y605682D01*
Y605318D01*
X307033Y604956D01*
X307099Y604598D01*
X307197Y604248D01*
X307326Y603908D01*
X307485Y603581D01*
X307528Y603515D01*
X307581Y603456D01*
X307643Y603406D01*
X307712Y603367D01*
X307716Y603365D01*
Y576000D01*
X239500D01*
Y573000D01*
X307716D01*
Y509500D01*
X223493D01*
Y573000D01*
X233500D01*
Y576000D01*
X223493D01*
Y790237D01*
X223500Y790237D01*
X224167Y790289D01*
X224817Y790446D01*
X225435Y790702D01*
X226006Y791051D01*
X226514Y791486D01*
X226949Y791994D01*
X227298Y792565D01*
X227554Y793183D01*
X227711Y793833D01*
X227750Y794500D01*
X227711Y795167D01*
X227554Y795817D01*
X227298Y796435D01*
X226949Y797006D01*
X226514Y797514D01*
X226006Y797949D01*
X225435Y798298D01*
X224817Y798554D01*
X224167Y798711D01*
X223500Y798763D01*
X223493Y798763D01*
Y833500D01*
G37*
G36*
Y509500D02*X210284D01*
Y558869D01*
X210287Y558870D01*
X210355Y558909D01*
X210416Y558958D01*
X210469Y559017D01*
X210511Y559083D01*
X210674Y559408D01*
X210803Y559748D01*
X210901Y560098D01*
X210967Y560456D01*
X211000Y560818D01*
Y561182D01*
X210967Y561544D01*
X210901Y561902D01*
X210803Y562252D01*
X210674Y562592D01*
X210515Y562919D01*
X210472Y562985D01*
X210419Y563044D01*
X210357Y563094D01*
X210288Y563133D01*
X210284Y563135D01*
Y573000D01*
X223493D01*
Y509500D01*
G37*
G36*
X210284Y833500D02*X223493D01*
Y798763D01*
X222833Y798711D01*
X222183Y798554D01*
X221565Y798298D01*
X220994Y797949D01*
X220486Y797514D01*
X220051Y797006D01*
X219702Y796435D01*
X219446Y795817D01*
X219289Y795167D01*
X219237Y794500D01*
X219289Y793833D01*
X219446Y793183D01*
X219702Y792565D01*
X220051Y791994D01*
X220486Y791486D01*
X220994Y791051D01*
X221565Y790702D01*
X222183Y790446D01*
X222833Y790289D01*
X223493Y790237D01*
Y576000D01*
X210284D01*
Y833500D01*
G37*
G36*
Y509500D02*X207002D01*
Y557000D01*
X207182D01*
X207544Y557033D01*
X207902Y557099D01*
X208252Y557197D01*
X208592Y557326D01*
X208919Y557485D01*
X208985Y557528D01*
X209044Y557581D01*
X209094Y557643D01*
X209133Y557712D01*
X209161Y557786D01*
X209177Y557863D01*
X209181Y557942D01*
X209173Y558021D01*
X209152Y558097D01*
X209120Y558170D01*
X209077Y558236D01*
X209024Y558295D01*
X208962Y558344D01*
X208893Y558384D01*
X208819Y558412D01*
X208742Y558428D01*
X208663Y558432D01*
X208584Y558424D01*
X208507Y558403D01*
X208436Y558370D01*
X208193Y558247D01*
X207938Y558150D01*
X207676Y558077D01*
X207408Y558028D01*
X207136Y558003D01*
X207002D01*
Y563997D01*
X207136D01*
X207408Y563972D01*
X207676Y563923D01*
X207938Y563850D01*
X208193Y563753D01*
X208437Y563633D01*
X208509Y563600D01*
X208584Y563579D01*
X208663Y563571D01*
X208741Y563575D01*
X208818Y563591D01*
X208892Y563619D01*
X208960Y563658D01*
X209021Y563707D01*
X209074Y563766D01*
X209117Y563832D01*
X209149Y563904D01*
X209170Y563980D01*
X209178Y564058D01*
X209174Y564136D01*
X209158Y564213D01*
X209130Y564287D01*
X209091Y564355D01*
X209042Y564416D01*
X208983Y564469D01*
X208917Y564511D01*
X208592Y564674D01*
X208252Y564803D01*
X207902Y564901D01*
X207544Y564967D01*
X207182Y565000D01*
X207002D01*
Y573000D01*
X210284D01*
Y563135D01*
X210214Y563161D01*
X210137Y563177D01*
X210058Y563181D01*
X209979Y563173D01*
X209903Y563152D01*
X209830Y563120D01*
X209764Y563077D01*
X209705Y563024D01*
X209656Y562962D01*
X209616Y562893D01*
X209588Y562819D01*
X209572Y562742D01*
X209568Y562663D01*
X209576Y562584D01*
X209597Y562507D01*
X209630Y562436D01*
X209753Y562193D01*
X209850Y561938D01*
X209923Y561676D01*
X209972Y561408D01*
X209997Y561136D01*
Y560864D01*
X209972Y560592D01*
X209923Y560324D01*
X209850Y560062D01*
X209753Y559807D01*
X209633Y559563D01*
X209600Y559491D01*
X209579Y559416D01*
X209571Y559337D01*
X209575Y559259D01*
X209591Y559182D01*
X209619Y559108D01*
X209658Y559040D01*
X209707Y558979D01*
X209766Y558926D01*
X209832Y558883D01*
X209904Y558851D01*
X209980Y558830D01*
X210058Y558822D01*
X210136Y558826D01*
X210213Y558842D01*
X210284Y558869D01*
Y509500D01*
G37*
G36*
X207002Y833500D02*X210284D01*
Y576000D01*
X207002D01*
Y790451D01*
X207134Y790533D01*
X207314Y790686D01*
X207467Y790866D01*
X207591Y791067D01*
X207681Y791285D01*
X207736Y791515D01*
X207750Y791750D01*
X207736Y797485D01*
X207681Y797715D01*
X207591Y797933D01*
X207467Y798134D01*
X207314Y798314D01*
X207134Y798467D01*
X207002Y798549D01*
Y833500D01*
G37*
G36*
Y576000D02*X203730D01*
Y699714D01*
X203798Y699728D01*
X203871Y699755D01*
X203940Y699794D01*
X204002Y699843D01*
X204055Y699901D01*
X204098Y699966D01*
X204130Y700038D01*
X204206Y700271D01*
X204260Y700511D01*
X204292Y700755D01*
X204303Y701000D01*
X204292Y701245D01*
X204260Y701489D01*
X204206Y701729D01*
X204132Y701963D01*
X204100Y702035D01*
X204056Y702100D01*
X204003Y702159D01*
X203941Y702208D01*
X203872Y702246D01*
X203798Y702274D01*
X203730Y702288D01*
Y790257D01*
X206485Y790264D01*
X206715Y790319D01*
X206933Y790409D01*
X207002Y790451D01*
Y576000D01*
G37*
G36*
Y509500D02*X203730D01*
Y558860D01*
X203786Y558839D01*
X203863Y558823D01*
X203942Y558819D01*
X204021Y558827D01*
X204097Y558848D01*
X204170Y558880D01*
X204236Y558923D01*
X204295Y558976D01*
X204344Y559038D01*
X204384Y559107D01*
X204412Y559181D01*
X204428Y559258D01*
X204432Y559337D01*
X204424Y559416D01*
X204403Y559493D01*
X204370Y559564D01*
X204247Y559807D01*
X204150Y560062D01*
X204077Y560324D01*
X204028Y560592D01*
X204003Y560864D01*
Y561136D01*
X204028Y561408D01*
X204077Y561676D01*
X204150Y561938D01*
X204247Y562193D01*
X204367Y562437D01*
X204400Y562509D01*
X204421Y562585D01*
X204429Y562663D01*
X204425Y562741D01*
X204409Y562818D01*
X204381Y562892D01*
X204342Y562960D01*
X204293Y563021D01*
X204234Y563074D01*
X204168Y563117D01*
X204096Y563149D01*
X204020Y563170D01*
X203942Y563178D01*
X203864Y563174D01*
X203787Y563158D01*
X203730Y563137D01*
Y573000D01*
X207002D01*
Y565000D01*
X206818D01*
X206456Y564967D01*
X206098Y564901D01*
X205748Y564803D01*
X205408Y564674D01*
X205081Y564515D01*
X205015Y564472D01*
X204956Y564419D01*
X204906Y564357D01*
X204867Y564288D01*
X204839Y564214D01*
X204823Y564137D01*
X204819Y564058D01*
X204827Y563979D01*
X204848Y563903D01*
X204880Y563830D01*
X204923Y563764D01*
X204976Y563705D01*
X205038Y563656D01*
X205107Y563616D01*
X205181Y563588D01*
X205258Y563572D01*
X205337Y563568D01*
X205416Y563576D01*
X205493Y563597D01*
X205564Y563630D01*
X205807Y563753D01*
X206062Y563850D01*
X206324Y563923D01*
X206592Y563972D01*
X206864Y563997D01*
X207002D01*
Y558003D01*
X206864D01*
X206592Y558028D01*
X206324Y558077D01*
X206062Y558150D01*
X205807Y558247D01*
X205563Y558367D01*
X205491Y558400D01*
X205415Y558421D01*
X205337Y558429D01*
X205259Y558425D01*
X205182Y558409D01*
X205108Y558381D01*
X205040Y558342D01*
X204979Y558293D01*
X204926Y558234D01*
X204883Y558168D01*
X204851Y558096D01*
X204830Y558020D01*
X204822Y557942D01*
X204826Y557864D01*
X204842Y557787D01*
X204870Y557713D01*
X204909Y557645D01*
X204958Y557584D01*
X205017Y557531D01*
X205083Y557489D01*
X205408Y557326D01*
X205748Y557197D01*
X206098Y557099D01*
X206456Y557033D01*
X206818Y557000D01*
X207002D01*
Y509500D01*
G37*
G36*
X203730Y833500D02*X207002D01*
Y798549D01*
X206933Y798591D01*
X206715Y798681D01*
X206485Y798736D01*
X206250Y798750D01*
X203730Y798744D01*
Y833500D01*
G37*
G36*
Y576000D02*X201501D01*
Y698197D01*
X201745Y698208D01*
X201989Y698240D01*
X202229Y698294D01*
X202463Y698368D01*
X202535Y698400D01*
X202600Y698444D01*
X202659Y698497D01*
X202708Y698559D01*
X202746Y698628D01*
X202774Y698702D01*
X202790Y698779D01*
X202793Y698858D01*
X202784Y698937D01*
X202763Y699013D01*
X202730Y699085D01*
X202686Y699150D01*
X202633Y699209D01*
X202571Y699258D01*
X202502Y699296D01*
X202428Y699324D01*
X202351Y699340D01*
X202272Y699343D01*
X202193Y699334D01*
X202118Y699311D01*
X201968Y699262D01*
X201814Y699228D01*
X201658Y699207D01*
X201501Y699200D01*
Y702800D01*
X201658Y702793D01*
X201814Y702772D01*
X201968Y702738D01*
X202118Y702690D01*
X202194Y702668D01*
X202272Y702659D01*
X202350Y702662D01*
X202427Y702678D01*
X202501Y702705D01*
X202570Y702744D01*
X202631Y702793D01*
X202685Y702851D01*
X202728Y702916D01*
X202761Y702988D01*
X202782Y703064D01*
X202791Y703142D01*
X202788Y703220D01*
X202772Y703298D01*
X202745Y703371D01*
X202706Y703440D01*
X202657Y703502D01*
X202599Y703555D01*
X202534Y703598D01*
X202462Y703630D01*
X202229Y703706D01*
X201989Y703760D01*
X201745Y703792D01*
X201501Y703803D01*
Y790252D01*
X203730Y790257D01*
Y702288D01*
X203721Y702290D01*
X203642Y702293D01*
X203563Y702284D01*
X203487Y702263D01*
X203415Y702230D01*
X203350Y702186D01*
X203291Y702133D01*
X203242Y702071D01*
X203204Y702002D01*
X203176Y701928D01*
X203160Y701851D01*
X203157Y701772D01*
X203166Y701693D01*
X203189Y701618D01*
X203238Y701468D01*
X203272Y701314D01*
X203293Y701158D01*
X203300Y701000D01*
X203293Y700842D01*
X203272Y700686D01*
X203238Y700532D01*
X203190Y700382D01*
X203168Y700306D01*
X203159Y700228D01*
X203162Y700150D01*
X203178Y700073D01*
X203205Y699999D01*
X203244Y699930D01*
X203293Y699869D01*
X203351Y699815D01*
X203416Y699772D01*
X203488Y699739D01*
X203564Y699718D01*
X203642Y699709D01*
X203720Y699712D01*
X203730Y699714D01*
Y576000D01*
G37*
G36*
Y509500D02*X201501D01*
Y573000D01*
X203730D01*
Y563137D01*
X203713Y563130D01*
X203645Y563091D01*
X203584Y563042D01*
X203531Y562983D01*
X203489Y562917D01*
X203326Y562592D01*
X203197Y562252D01*
X203099Y561902D01*
X203033Y561544D01*
X203000Y561182D01*
Y560818D01*
X203033Y560456D01*
X203099Y560098D01*
X203197Y559748D01*
X203326Y559408D01*
X203485Y559081D01*
X203528Y559015D01*
X203581Y558956D01*
X203643Y558906D01*
X203712Y558867D01*
X203730Y558860D01*
Y509500D01*
G37*
G36*
X201501Y833500D02*X203730D01*
Y798744D01*
X201501Y798738D01*
Y833500D01*
G37*
G36*
Y509500D02*X193284D01*
Y545369D01*
X193287Y545370D01*
X193355Y545409D01*
X193416Y545458D01*
X193469Y545517D01*
X193511Y545583D01*
X193674Y545908D01*
X193803Y546248D01*
X193901Y546598D01*
X193967Y546956D01*
X194000Y547318D01*
Y547682D01*
X193967Y548044D01*
X193901Y548402D01*
X193803Y548752D01*
X193674Y549092D01*
X193515Y549419D01*
X193472Y549485D01*
X193419Y549544D01*
X193357Y549594D01*
X193288Y549633D01*
X193284Y549635D01*
Y573000D01*
X201501D01*
Y509500D01*
G37*
G36*
X193284D02*X190002D01*
Y543500D01*
X190182D01*
X190544Y543533D01*
X190902Y543599D01*
X191252Y543697D01*
X191592Y543826D01*
X191919Y543985D01*
X191985Y544028D01*
X192044Y544081D01*
X192094Y544143D01*
X192133Y544212D01*
X192161Y544286D01*
X192177Y544363D01*
X192181Y544442D01*
X192173Y544521D01*
X192152Y544597D01*
X192120Y544670D01*
X192077Y544736D01*
X192024Y544795D01*
X191962Y544844D01*
X191893Y544884D01*
X191819Y544912D01*
X191742Y544928D01*
X191663Y544932D01*
X191584Y544924D01*
X191507Y544903D01*
X191436Y544870D01*
X191193Y544747D01*
X190938Y544650D01*
X190676Y544577D01*
X190408Y544528D01*
X190136Y544503D01*
X190002D01*
Y550497D01*
X190136D01*
X190408Y550472D01*
X190676Y550423D01*
X190938Y550350D01*
X191193Y550253D01*
X191437Y550133D01*
X191509Y550100D01*
X191584Y550079D01*
X191663Y550071D01*
X191741Y550075D01*
X191818Y550091D01*
X191892Y550119D01*
X191960Y550158D01*
X192021Y550207D01*
X192074Y550266D01*
X192117Y550332D01*
X192149Y550404D01*
X192170Y550480D01*
X192178Y550558D01*
X192174Y550636D01*
X192158Y550713D01*
X192130Y550787D01*
X192091Y550855D01*
X192042Y550916D01*
X191983Y550969D01*
X191917Y551011D01*
X191592Y551174D01*
X191252Y551303D01*
X190902Y551401D01*
X190544Y551467D01*
X190182Y551500D01*
X190002D01*
Y573000D01*
X193284D01*
Y549635D01*
X193214Y549661D01*
X193137Y549677D01*
X193058Y549681D01*
X192979Y549673D01*
X192903Y549652D01*
X192830Y549620D01*
X192764Y549577D01*
X192705Y549524D01*
X192656Y549462D01*
X192616Y549393D01*
X192588Y549319D01*
X192572Y549242D01*
X192568Y549163D01*
X192576Y549084D01*
X192597Y549007D01*
X192630Y548936D01*
X192753Y548693D01*
X192850Y548438D01*
X192923Y548176D01*
X192972Y547908D01*
X192997Y547636D01*
Y547364D01*
X192972Y547092D01*
X192923Y546824D01*
X192850Y546562D01*
X192753Y546307D01*
X192633Y546063D01*
X192600Y545991D01*
X192579Y545916D01*
X192571Y545837D01*
X192575Y545759D01*
X192591Y545682D01*
X192619Y545608D01*
X192658Y545540D01*
X192707Y545479D01*
X192766Y545426D01*
X192832Y545383D01*
X192904Y545351D01*
X192980Y545330D01*
X193058Y545322D01*
X193136Y545326D01*
X193213Y545342D01*
X193284Y545369D01*
Y509500D01*
G37*
G36*
X190002D02*X186716D01*
Y545365D01*
X186786Y545339D01*
X186863Y545323D01*
X186942Y545319D01*
X187021Y545327D01*
X187097Y545348D01*
X187170Y545380D01*
X187236Y545423D01*
X187295Y545476D01*
X187344Y545538D01*
X187384Y545607D01*
X187412Y545681D01*
X187428Y545758D01*
X187432Y545837D01*
X187424Y545916D01*
X187403Y545993D01*
X187370Y546064D01*
X187247Y546307D01*
X187150Y546562D01*
X187077Y546824D01*
X187028Y547092D01*
X187003Y547364D01*
Y547636D01*
X187028Y547908D01*
X187077Y548176D01*
X187150Y548438D01*
X187247Y548693D01*
X187367Y548937D01*
X187400Y549009D01*
X187421Y549085D01*
X187429Y549163D01*
X187425Y549241D01*
X187409Y549318D01*
X187381Y549392D01*
X187342Y549460D01*
X187293Y549521D01*
X187234Y549574D01*
X187168Y549617D01*
X187096Y549649D01*
X187020Y549670D01*
X186942Y549678D01*
X186864Y549674D01*
X186787Y549658D01*
X186716Y549631D01*
Y573000D01*
X190002D01*
Y551500D01*
X189818D01*
X189456Y551467D01*
X189098Y551401D01*
X188748Y551303D01*
X188408Y551174D01*
X188081Y551015D01*
X188015Y550972D01*
X187956Y550919D01*
X187906Y550857D01*
X187867Y550788D01*
X187839Y550714D01*
X187823Y550637D01*
X187819Y550558D01*
X187827Y550479D01*
X187848Y550403D01*
X187880Y550330D01*
X187923Y550264D01*
X187976Y550205D01*
X188038Y550156D01*
X188107Y550116D01*
X188181Y550088D01*
X188258Y550072D01*
X188337Y550068D01*
X188416Y550076D01*
X188493Y550097D01*
X188564Y550130D01*
X188807Y550253D01*
X189062Y550350D01*
X189324Y550423D01*
X189592Y550472D01*
X189864Y550497D01*
X190002D01*
Y544503D01*
X189864D01*
X189592Y544528D01*
X189324Y544577D01*
X189062Y544650D01*
X188807Y544747D01*
X188563Y544867D01*
X188491Y544900D01*
X188415Y544921D01*
X188337Y544929D01*
X188259Y544925D01*
X188182Y544909D01*
X188108Y544881D01*
X188040Y544842D01*
X187979Y544793D01*
X187926Y544734D01*
X187883Y544668D01*
X187851Y544596D01*
X187830Y544520D01*
X187822Y544442D01*
X187826Y544364D01*
X187842Y544287D01*
X187870Y544213D01*
X187909Y544145D01*
X187958Y544084D01*
X188017Y544031D01*
X188083Y543989D01*
X188408Y543826D01*
X188748Y543697D01*
X189098Y543599D01*
X189456Y543533D01*
X189818Y543500D01*
X190002D01*
Y509500D01*
G37*
G36*
X186716D02*X184230D01*
Y573000D01*
X186716D01*
Y549631D01*
X186713Y549630D01*
X186645Y549591D01*
X186584Y549542D01*
X186531Y549483D01*
X186489Y549417D01*
X186326Y549092D01*
X186197Y548752D01*
X186099Y548402D01*
X186033Y548044D01*
X186000Y547682D01*
Y547318D01*
X186033Y546956D01*
X186099Y546598D01*
X186197Y546248D01*
X186326Y545908D01*
X186485Y545581D01*
X186528Y545515D01*
X186581Y545456D01*
X186643Y545406D01*
X186712Y545367D01*
X186716Y545365D01*
Y509500D01*
G37*
G36*
X199270Y791489D02*X199319Y791285D01*
X199409Y791067D01*
X199533Y790866D01*
X199686Y790686D01*
X199866Y790533D01*
X200067Y790409D01*
X200285Y790319D01*
X200515Y790264D01*
X200750Y790250D01*
X201501Y790252D01*
Y703803D01*
X201500Y703803D01*
X201255Y703792D01*
X201011Y703760D01*
X200771Y703706D01*
X200537Y703632D01*
X200465Y703600D01*
X200400Y703556D01*
X200341Y703503D01*
X200292Y703441D01*
X200254Y703372D01*
X200226Y703298D01*
X200210Y703221D01*
X200207Y703142D01*
X200216Y703063D01*
X200237Y702987D01*
X200270Y702915D01*
X200314Y702850D01*
X200367Y702791D01*
X200429Y702742D01*
X200498Y702704D01*
X200572Y702676D01*
X200649Y702660D01*
X200728Y702657D01*
X200807Y702666D01*
X200882Y702689D01*
X201032Y702738D01*
X201186Y702772D01*
X201342Y702793D01*
X201500Y702800D01*
X201501Y702800D01*
Y699200D01*
X201500Y699200D01*
X201342Y699207D01*
X201186Y699228D01*
X201032Y699262D01*
X200882Y699310D01*
X200806Y699332D01*
X200728Y699341D01*
X200650Y699338D01*
X200573Y699322D01*
X200499Y699295D01*
X200430Y699256D01*
X200369Y699207D01*
X200315Y699149D01*
X200272Y699084D01*
X200239Y699012D01*
X200218Y698936D01*
X200209Y698858D01*
X200212Y698780D01*
X200228Y698702D01*
X200255Y698629D01*
X200294Y698560D01*
X200343Y698498D01*
X200401Y698445D01*
X200466Y698402D01*
X200538Y698370D01*
X200771Y698294D01*
X201011Y698240D01*
X201255Y698208D01*
X201500Y698197D01*
X201501Y698197D01*
Y576000D01*
X199270D01*
Y699712D01*
X199279Y699710D01*
X199358Y699707D01*
X199437Y699716D01*
X199513Y699737D01*
X199585Y699770D01*
X199650Y699814D01*
X199709Y699867D01*
X199758Y699929D01*
X199796Y699998D01*
X199824Y700072D01*
X199840Y700149D01*
X199843Y700228D01*
X199834Y700307D01*
X199811Y700382D01*
X199762Y700532D01*
X199728Y700686D01*
X199707Y700842D01*
X199700Y701000D01*
X199707Y701158D01*
X199728Y701314D01*
X199762Y701468D01*
X199810Y701618D01*
X199832Y701694D01*
X199841Y701772D01*
X199838Y701850D01*
X199822Y701927D01*
X199795Y702001D01*
X199756Y702070D01*
X199707Y702131D01*
X199649Y702185D01*
X199584Y702228D01*
X199512Y702261D01*
X199436Y702282D01*
X199358Y702291D01*
X199280Y702288D01*
X199270Y702286D01*
Y791489D01*
G37*
G36*
Y833500D02*X201501D01*
Y798738D01*
X200515Y798736D01*
X200285Y798681D01*
X200067Y798591D01*
X199866Y798467D01*
X199686Y798314D01*
X199533Y798134D01*
X199409Y797933D01*
X199319Y797715D01*
X199270Y797511D01*
Y833500D01*
G37*
G36*
X184230D02*X199270D01*
Y797511D01*
X199264Y797485D01*
X199250Y797250D01*
X199264Y791515D01*
X199270Y791489D01*
Y702286D01*
X199202Y702272D01*
X199129Y702245D01*
X199060Y702206D01*
X198998Y702157D01*
X198945Y702099D01*
X198902Y702034D01*
X198870Y701962D01*
X198794Y701729D01*
X198740Y701489D01*
X198708Y701245D01*
X198697Y701000D01*
X198708Y700755D01*
X198740Y700511D01*
X198794Y700271D01*
X198868Y700037D01*
X198900Y699965D01*
X198944Y699900D01*
X198997Y699841D01*
X199059Y699792D01*
X199128Y699754D01*
X199202Y699726D01*
X199270Y699712D01*
Y576000D01*
X184230D01*
Y699714D01*
X184298Y699728D01*
X184371Y699755D01*
X184440Y699794D01*
X184502Y699843D01*
X184555Y699901D01*
X184598Y699966D01*
X184630Y700038D01*
X184706Y700271D01*
X184760Y700511D01*
X184792Y700755D01*
X184803Y701000D01*
X184792Y701245D01*
X184760Y701489D01*
X184706Y701729D01*
X184632Y701963D01*
X184600Y702035D01*
X184556Y702100D01*
X184503Y702159D01*
X184441Y702208D01*
X184372Y702246D01*
X184298Y702274D01*
X184230Y702288D01*
Y833500D01*
G37*
G36*
Y509500D02*X182001D01*
Y573000D01*
X184230D01*
Y509500D01*
G37*
G36*
X182001Y833500D02*X184230D01*
Y702288D01*
X184221Y702290D01*
X184142Y702293D01*
X184063Y702284D01*
X183987Y702263D01*
X183915Y702230D01*
X183850Y702186D01*
X183791Y702133D01*
X183742Y702071D01*
X183704Y702002D01*
X183676Y701928D01*
X183660Y701851D01*
X183657Y701772D01*
X183666Y701693D01*
X183689Y701618D01*
X183738Y701468D01*
X183772Y701314D01*
X183793Y701158D01*
X183800Y701000D01*
X183793Y700842D01*
X183772Y700686D01*
X183738Y700532D01*
X183690Y700382D01*
X183668Y700306D01*
X183659Y700228D01*
X183662Y700150D01*
X183678Y700073D01*
X183705Y699999D01*
X183744Y699930D01*
X183793Y699869D01*
X183851Y699815D01*
X183916Y699772D01*
X183988Y699739D01*
X184064Y699718D01*
X184142Y699709D01*
X184220Y699712D01*
X184230Y699714D01*
Y576000D01*
X182001D01*
Y698197D01*
X182245Y698208D01*
X182489Y698240D01*
X182729Y698294D01*
X182963Y698368D01*
X183035Y698400D01*
X183100Y698444D01*
X183159Y698497D01*
X183208Y698559D01*
X183246Y698628D01*
X183274Y698702D01*
X183290Y698779D01*
X183293Y698858D01*
X183284Y698937D01*
X183263Y699013D01*
X183230Y699085D01*
X183186Y699150D01*
X183133Y699209D01*
X183071Y699258D01*
X183002Y699296D01*
X182928Y699324D01*
X182851Y699340D01*
X182772Y699343D01*
X182693Y699334D01*
X182618Y699311D01*
X182468Y699262D01*
X182314Y699228D01*
X182158Y699207D01*
X182001Y699200D01*
Y702800D01*
X182158Y702793D01*
X182314Y702772D01*
X182468Y702738D01*
X182618Y702690D01*
X182694Y702668D01*
X182772Y702659D01*
X182850Y702662D01*
X182927Y702678D01*
X183001Y702705D01*
X183070Y702744D01*
X183131Y702793D01*
X183185Y702851D01*
X183228Y702916D01*
X183261Y702988D01*
X183282Y703064D01*
X183291Y703142D01*
X183288Y703220D01*
X183272Y703298D01*
X183245Y703371D01*
X183206Y703440D01*
X183157Y703502D01*
X183099Y703555D01*
X183034Y703598D01*
X182962Y703630D01*
X182729Y703706D01*
X182489Y703760D01*
X182245Y703792D01*
X182001Y703803D01*
Y833500D01*
G37*
G36*
Y509500D02*X163284D01*
Y573000D01*
X182001D01*
Y509500D01*
G37*
G36*
X179770Y833500D02*X182001D01*
Y703803D01*
X182000Y703803D01*
X181755Y703792D01*
X181511Y703760D01*
X181271Y703706D01*
X181037Y703632D01*
X180965Y703600D01*
X180900Y703556D01*
X180841Y703503D01*
X180792Y703441D01*
X180754Y703372D01*
X180726Y703298D01*
X180710Y703221D01*
X180707Y703142D01*
X180716Y703063D01*
X180737Y702987D01*
X180770Y702915D01*
X180814Y702850D01*
X180867Y702791D01*
X180929Y702742D01*
X180998Y702704D01*
X181072Y702676D01*
X181149Y702660D01*
X181228Y702657D01*
X181307Y702666D01*
X181382Y702689D01*
X181532Y702738D01*
X181686Y702772D01*
X181842Y702793D01*
X182000Y702800D01*
X182001Y702800D01*
Y699200D01*
X182000Y699200D01*
X181842Y699207D01*
X181686Y699228D01*
X181532Y699262D01*
X181382Y699310D01*
X181306Y699332D01*
X181228Y699341D01*
X181150Y699338D01*
X181073Y699322D01*
X180999Y699295D01*
X180930Y699256D01*
X180869Y699207D01*
X180815Y699149D01*
X180772Y699084D01*
X180739Y699012D01*
X180718Y698936D01*
X180709Y698858D01*
X180712Y698780D01*
X180728Y698702D01*
X180755Y698629D01*
X180794Y698560D01*
X180843Y698498D01*
X180901Y698445D01*
X180966Y698402D01*
X181038Y698370D01*
X181271Y698294D01*
X181511Y698240D01*
X181755Y698208D01*
X182000Y698197D01*
X182001Y698197D01*
Y576000D01*
X179770D01*
Y699712D01*
X179779Y699710D01*
X179858Y699707D01*
X179937Y699716D01*
X180013Y699737D01*
X180085Y699770D01*
X180150Y699814D01*
X180209Y699867D01*
X180258Y699929D01*
X180296Y699998D01*
X180324Y700072D01*
X180340Y700149D01*
X180343Y700228D01*
X180334Y700307D01*
X180311Y700382D01*
X180262Y700532D01*
X180228Y700686D01*
X180207Y700842D01*
X180200Y701000D01*
X180207Y701158D01*
X180228Y701314D01*
X180262Y701468D01*
X180310Y701618D01*
X180332Y701694D01*
X180341Y701772D01*
X180338Y701850D01*
X180322Y701927D01*
X180295Y702001D01*
X180256Y702070D01*
X180207Y702131D01*
X180149Y702185D01*
X180084Y702228D01*
X180012Y702261D01*
X179936Y702282D01*
X179858Y702291D01*
X179780Y702288D01*
X179770Y702286D01*
Y833500D01*
G37*
G36*
X163284D02*X179770D01*
Y702286D01*
X179702Y702272D01*
X179629Y702245D01*
X179560Y702206D01*
X179498Y702157D01*
X179445Y702099D01*
X179402Y702034D01*
X179370Y701962D01*
X179294Y701729D01*
X179240Y701489D01*
X179208Y701245D01*
X179197Y701000D01*
X179208Y700755D01*
X179240Y700511D01*
X179294Y700271D01*
X179368Y700037D01*
X179400Y699965D01*
X179444Y699900D01*
X179497Y699841D01*
X179559Y699792D01*
X179628Y699754D01*
X179702Y699726D01*
X179770Y699712D01*
Y576000D01*
X163284D01*
Y692369D01*
X163287Y692370D01*
X163355Y692409D01*
X163416Y692458D01*
X163469Y692517D01*
X163511Y692583D01*
X163674Y692908D01*
X163803Y693248D01*
X163901Y693598D01*
X163967Y693956D01*
X164000Y694318D01*
Y694682D01*
X163967Y695044D01*
X163901Y695402D01*
X163803Y695752D01*
X163674Y696092D01*
X163515Y696419D01*
X163472Y696485D01*
X163419Y696544D01*
X163357Y696594D01*
X163288Y696633D01*
X163284Y696635D01*
Y833500D01*
G37*
G36*
Y509500D02*X160002D01*
Y573000D01*
X163284D01*
Y509500D01*
G37*
G36*
X160002Y833500D02*X163284D01*
Y696635D01*
X163214Y696661D01*
X163137Y696677D01*
X163058Y696681D01*
X162979Y696673D01*
X162903Y696652D01*
X162830Y696620D01*
X162764Y696577D01*
X162705Y696524D01*
X162656Y696462D01*
X162616Y696393D01*
X162588Y696319D01*
X162572Y696242D01*
X162568Y696163D01*
X162576Y696084D01*
X162597Y696007D01*
X162630Y695936D01*
X162753Y695693D01*
X162850Y695438D01*
X162923Y695176D01*
X162972Y694908D01*
X162997Y694636D01*
Y694364D01*
X162972Y694092D01*
X162923Y693824D01*
X162850Y693562D01*
X162753Y693307D01*
X162633Y693063D01*
X162600Y692991D01*
X162579Y692916D01*
X162571Y692837D01*
X162575Y692759D01*
X162591Y692682D01*
X162619Y692608D01*
X162658Y692540D01*
X162707Y692479D01*
X162766Y692426D01*
X162832Y692383D01*
X162904Y692351D01*
X162980Y692330D01*
X163058Y692322D01*
X163136Y692326D01*
X163213Y692342D01*
X163284Y692369D01*
Y576000D01*
X160002D01*
Y690500D01*
X160182D01*
X160544Y690533D01*
X160902Y690599D01*
X161252Y690697D01*
X161592Y690826D01*
X161919Y690985D01*
X161985Y691028D01*
X162044Y691081D01*
X162094Y691143D01*
X162133Y691212D01*
X162161Y691286D01*
X162177Y691363D01*
X162181Y691442D01*
X162173Y691521D01*
X162152Y691597D01*
X162120Y691670D01*
X162077Y691736D01*
X162024Y691795D01*
X161962Y691844D01*
X161893Y691884D01*
X161819Y691912D01*
X161742Y691928D01*
X161663Y691932D01*
X161584Y691924D01*
X161507Y691903D01*
X161436Y691870D01*
X161193Y691747D01*
X160938Y691650D01*
X160676Y691577D01*
X160408Y691528D01*
X160136Y691503D01*
X160002D01*
Y697497D01*
X160136D01*
X160408Y697472D01*
X160676Y697423D01*
X160938Y697350D01*
X161193Y697253D01*
X161437Y697133D01*
X161509Y697100D01*
X161584Y697079D01*
X161663Y697071D01*
X161741Y697075D01*
X161818Y697091D01*
X161892Y697119D01*
X161960Y697158D01*
X162021Y697207D01*
X162074Y697266D01*
X162117Y697332D01*
X162149Y697404D01*
X162170Y697480D01*
X162178Y697558D01*
X162174Y697636D01*
X162158Y697713D01*
X162130Y697787D01*
X162091Y697855D01*
X162042Y697916D01*
X161983Y697969D01*
X161917Y698011D01*
X161592Y698174D01*
X161252Y698303D01*
X160902Y698401D01*
X160544Y698467D01*
X160182Y698500D01*
X160002D01*
Y833500D01*
G37*
G36*
Y509500D02*X157284D01*
Y556869D01*
X157287Y556870D01*
X157355Y556909D01*
X157416Y556958D01*
X157469Y557017D01*
X157511Y557083D01*
X157674Y557408D01*
X157803Y557748D01*
X157901Y558098D01*
X157967Y558456D01*
X158000Y558818D01*
Y559182D01*
X157967Y559544D01*
X157901Y559902D01*
X157803Y560252D01*
X157674Y560592D01*
X157515Y560919D01*
X157472Y560985D01*
X157419Y561044D01*
X157357Y561094D01*
X157288Y561133D01*
X157284Y561135D01*
Y573000D01*
X160002D01*
Y509500D01*
G37*
G36*
X157284D02*X155230D01*
Y538214D01*
X155298Y538228D01*
X155371Y538255D01*
X155440Y538294D01*
X155502Y538343D01*
X155555Y538401D01*
X155598Y538466D01*
X155630Y538538D01*
X155706Y538771D01*
X155760Y539011D01*
X155792Y539255D01*
X155803Y539500D01*
X155792Y539745D01*
X155760Y539989D01*
X155706Y540229D01*
X155632Y540463D01*
X155600Y540535D01*
X155556Y540600D01*
X155503Y540659D01*
X155441Y540708D01*
X155372Y540746D01*
X155298Y540774D01*
X155230Y540788D01*
Y555190D01*
X155252Y555197D01*
X155592Y555326D01*
X155919Y555485D01*
X155985Y555528D01*
X156044Y555581D01*
X156094Y555643D01*
X156133Y555712D01*
X156161Y555786D01*
X156177Y555863D01*
X156181Y555942D01*
X156173Y556021D01*
X156152Y556097D01*
X156120Y556170D01*
X156077Y556236D01*
X156024Y556295D01*
X155962Y556344D01*
X155893Y556384D01*
X155819Y556412D01*
X155742Y556428D01*
X155663Y556432D01*
X155584Y556424D01*
X155507Y556403D01*
X155436Y556370D01*
X155230Y556266D01*
Y561735D01*
X155437Y561633D01*
X155509Y561600D01*
X155584Y561579D01*
X155663Y561571D01*
X155741Y561575D01*
X155818Y561591D01*
X155892Y561619D01*
X155960Y561658D01*
X156021Y561707D01*
X156074Y561766D01*
X156117Y561832D01*
X156149Y561904D01*
X156170Y561980D01*
X156178Y562058D01*
X156174Y562136D01*
X156158Y562213D01*
X156130Y562287D01*
X156091Y562355D01*
X156042Y562416D01*
X155983Y562469D01*
X155917Y562511D01*
X155592Y562674D01*
X155252Y562803D01*
X155230Y562810D01*
Y573000D01*
X157284D01*
Y561135D01*
X157214Y561161D01*
X157137Y561177D01*
X157058Y561181D01*
X156979Y561173D01*
X156903Y561152D01*
X156830Y561120D01*
X156764Y561077D01*
X156705Y561024D01*
X156656Y560962D01*
X156616Y560893D01*
X156588Y560819D01*
X156572Y560742D01*
X156568Y560663D01*
X156576Y560584D01*
X156597Y560507D01*
X156630Y560436D01*
X156753Y560193D01*
X156850Y559938D01*
X156923Y559676D01*
X156972Y559408D01*
X156997Y559136D01*
Y558864D01*
X156972Y558592D01*
X156923Y558324D01*
X156850Y558062D01*
X156753Y557807D01*
X156633Y557563D01*
X156600Y557491D01*
X156579Y557416D01*
X156571Y557337D01*
X156575Y557259D01*
X156591Y557182D01*
X156619Y557108D01*
X156658Y557040D01*
X156707Y556979D01*
X156766Y556926D01*
X156832Y556883D01*
X156904Y556851D01*
X156980Y556830D01*
X157058Y556822D01*
X157136Y556826D01*
X157213Y556842D01*
X157284Y556869D01*
Y509500D01*
G37*
G36*
X155230Y562810D02*X154902Y562901D01*
X154544Y562967D01*
X154182Y563000D01*
X154002D01*
Y573000D01*
X155230D01*
Y562810D01*
G37*
G36*
Y556266D02*X155193Y556247D01*
X154938Y556150D01*
X154676Y556077D01*
X154408Y556028D01*
X154136Y556003D01*
X154002D01*
Y561997D01*
X154136D01*
X154408Y561972D01*
X154676Y561923D01*
X154938Y561850D01*
X155193Y561753D01*
X155230Y561735D01*
Y556266D01*
G37*
G36*
Y509500D02*X154002D01*
Y536885D01*
X154035Y536900D01*
X154100Y536944D01*
X154159Y536997D01*
X154208Y537059D01*
X154246Y537128D01*
X154274Y537202D01*
X154290Y537279D01*
X154293Y537358D01*
X154284Y537437D01*
X154263Y537513D01*
X154230Y537585D01*
X154186Y537650D01*
X154133Y537709D01*
X154071Y537758D01*
X154002Y537796D01*
X154002Y537797D01*
Y541205D01*
X154070Y541244D01*
X154131Y541293D01*
X154185Y541351D01*
X154228Y541416D01*
X154261Y541488D01*
X154282Y541564D01*
X154291Y541642D01*
X154288Y541720D01*
X154272Y541798D01*
X154245Y541871D01*
X154206Y541940D01*
X154157Y542002D01*
X154099Y542055D01*
X154034Y542098D01*
X154002Y542112D01*
Y555000D01*
X154182D01*
X154544Y555033D01*
X154902Y555099D01*
X155230Y555190D01*
Y540788D01*
X155221Y540790D01*
X155142Y540793D01*
X155063Y540784D01*
X154987Y540763D01*
X154915Y540730D01*
X154850Y540686D01*
X154791Y540633D01*
X154742Y540571D01*
X154704Y540502D01*
X154676Y540428D01*
X154660Y540351D01*
X154657Y540272D01*
X154666Y540193D01*
X154689Y540118D01*
X154738Y539968D01*
X154772Y539814D01*
X154793Y539658D01*
X154800Y539500D01*
X154793Y539342D01*
X154772Y539186D01*
X154738Y539032D01*
X154690Y538882D01*
X154668Y538806D01*
X154659Y538728D01*
X154662Y538650D01*
X154678Y538573D01*
X154705Y538499D01*
X154744Y538430D01*
X154793Y538369D01*
X154851Y538315D01*
X154916Y538272D01*
X154988Y538239D01*
X155064Y538218D01*
X155142Y538209D01*
X155220Y538212D01*
X155230Y538214D01*
Y509500D01*
G37*
G36*
X154002D02*X150716D01*
Y538223D01*
X150779Y538210D01*
X150858Y538207D01*
X150937Y538216D01*
X151013Y538237D01*
X151085Y538270D01*
X151150Y538314D01*
X151209Y538367D01*
X151258Y538429D01*
X151296Y538498D01*
X151324Y538572D01*
X151340Y538649D01*
X151343Y538728D01*
X151334Y538807D01*
X151311Y538882D01*
X151262Y539032D01*
X151228Y539186D01*
X151207Y539342D01*
X151200Y539500D01*
X151207Y539658D01*
X151228Y539814D01*
X151262Y539968D01*
X151310Y540118D01*
X151332Y540194D01*
X151341Y540272D01*
X151338Y540350D01*
X151322Y540427D01*
X151295Y540501D01*
X151256Y540570D01*
X151207Y540631D01*
X151149Y540685D01*
X151084Y540728D01*
X151012Y540761D01*
X150936Y540782D01*
X150858Y540791D01*
X150780Y540788D01*
X150716Y540775D01*
Y556865D01*
X150786Y556839D01*
X150863Y556823D01*
X150942Y556819D01*
X151021Y556827D01*
X151097Y556848D01*
X151170Y556880D01*
X151236Y556923D01*
X151295Y556976D01*
X151344Y557038D01*
X151384Y557107D01*
X151412Y557181D01*
X151428Y557258D01*
X151432Y557337D01*
X151424Y557416D01*
X151403Y557493D01*
X151370Y557564D01*
X151247Y557807D01*
X151150Y558062D01*
X151077Y558324D01*
X151028Y558592D01*
X151003Y558864D01*
Y559136D01*
X151028Y559408D01*
X151077Y559676D01*
X151150Y559938D01*
X151247Y560193D01*
X151367Y560437D01*
X151400Y560509D01*
X151421Y560585D01*
X151429Y560663D01*
X151425Y560741D01*
X151409Y560818D01*
X151381Y560892D01*
X151342Y560960D01*
X151293Y561021D01*
X151234Y561074D01*
X151168Y561117D01*
X151096Y561149D01*
X151020Y561170D01*
X150942Y561178D01*
X150864Y561174D01*
X150787Y561158D01*
X150716Y561131D01*
Y573000D01*
X154002D01*
Y563000D01*
X153818D01*
X153456Y562967D01*
X153098Y562901D01*
X152748Y562803D01*
X152408Y562674D01*
X152081Y562515D01*
X152015Y562472D01*
X151956Y562419D01*
X151906Y562357D01*
X151867Y562288D01*
X151839Y562214D01*
X151823Y562137D01*
X151819Y562058D01*
X151827Y561979D01*
X151848Y561903D01*
X151880Y561830D01*
X151923Y561764D01*
X151976Y561705D01*
X152038Y561656D01*
X152107Y561616D01*
X152181Y561588D01*
X152258Y561572D01*
X152337Y561568D01*
X152416Y561576D01*
X152493Y561597D01*
X152564Y561630D01*
X152807Y561753D01*
X153062Y561850D01*
X153324Y561923D01*
X153592Y561972D01*
X153864Y561997D01*
X154002D01*
Y556003D01*
X153864D01*
X153592Y556028D01*
X153324Y556077D01*
X153062Y556150D01*
X152807Y556247D01*
X152563Y556367D01*
X152491Y556400D01*
X152415Y556421D01*
X152337Y556429D01*
X152259Y556425D01*
X152182Y556409D01*
X152108Y556381D01*
X152040Y556342D01*
X151979Y556293D01*
X151926Y556234D01*
X151883Y556168D01*
X151851Y556096D01*
X151830Y556020D01*
X151822Y555942D01*
X151826Y555864D01*
X151842Y555787D01*
X151870Y555713D01*
X151909Y555645D01*
X151958Y555584D01*
X152017Y555531D01*
X152083Y555489D01*
X152408Y555326D01*
X152748Y555197D01*
X153098Y555099D01*
X153456Y555033D01*
X153818Y555000D01*
X154002D01*
Y542112D01*
X153962Y542130D01*
X153729Y542206D01*
X153489Y542260D01*
X153245Y542292D01*
X153000Y542303D01*
X152755Y542292D01*
X152511Y542260D01*
X152271Y542206D01*
X152037Y542132D01*
X151965Y542100D01*
X151900Y542056D01*
X151841Y542003D01*
X151792Y541941D01*
X151754Y541872D01*
X151726Y541798D01*
X151710Y541721D01*
X151707Y541642D01*
X151716Y541563D01*
X151737Y541487D01*
X151770Y541415D01*
X151814Y541350D01*
X151867Y541291D01*
X151929Y541242D01*
X151998Y541204D01*
X152072Y541176D01*
X152149Y541160D01*
X152228Y541157D01*
X152307Y541166D01*
X152382Y541189D01*
X152532Y541238D01*
X152686Y541272D01*
X152842Y541293D01*
X153000Y541300D01*
X153158Y541293D01*
X153314Y541272D01*
X153468Y541238D01*
X153618Y541190D01*
X153694Y541168D01*
X153772Y541159D01*
X153850Y541162D01*
X153927Y541178D01*
X154001Y541205D01*
X154002Y541205D01*
Y537797D01*
X153928Y537824D01*
X153851Y537840D01*
X153772Y537843D01*
X153693Y537834D01*
X153618Y537811D01*
X153468Y537762D01*
X153314Y537728D01*
X153158Y537707D01*
X153000Y537700D01*
X152842Y537707D01*
X152686Y537728D01*
X152532Y537762D01*
X152382Y537810D01*
X152306Y537832D01*
X152228Y537841D01*
X152150Y537838D01*
X152073Y537822D01*
X151999Y537795D01*
X151930Y537756D01*
X151869Y537707D01*
X151815Y537649D01*
X151772Y537584D01*
X151739Y537512D01*
X151718Y537436D01*
X151709Y537358D01*
X151712Y537280D01*
X151728Y537202D01*
X151755Y537129D01*
X151794Y537060D01*
X151843Y536998D01*
X151901Y536945D01*
X151966Y536902D01*
X152038Y536870D01*
X152271Y536794D01*
X152511Y536740D01*
X152755Y536708D01*
X153000Y536697D01*
X153245Y536708D01*
X153489Y536740D01*
X153729Y536794D01*
X153963Y536868D01*
X154002Y536885D01*
Y509500D01*
G37*
G36*
X150716D02*X146284D01*
Y573000D01*
X150716D01*
Y561131D01*
X150713Y561130D01*
X150645Y561091D01*
X150584Y561042D01*
X150531Y560983D01*
X150489Y560917D01*
X150326Y560592D01*
X150197Y560252D01*
X150099Y559902D01*
X150033Y559544D01*
X150000Y559182D01*
Y558818D01*
X150033Y558456D01*
X150099Y558098D01*
X150197Y557748D01*
X150326Y557408D01*
X150485Y557081D01*
X150528Y557015D01*
X150581Y556956D01*
X150643Y556906D01*
X150712Y556867D01*
X150716Y556865D01*
Y540775D01*
X150702Y540772D01*
X150629Y540745D01*
X150560Y540706D01*
X150498Y540657D01*
X150445Y540599D01*
X150402Y540534D01*
X150370Y540462D01*
X150294Y540229D01*
X150240Y539989D01*
X150208Y539745D01*
X150197Y539500D01*
X150208Y539255D01*
X150240Y539011D01*
X150294Y538771D01*
X150368Y538537D01*
X150400Y538465D01*
X150444Y538400D01*
X150497Y538341D01*
X150559Y538292D01*
X150628Y538254D01*
X150702Y538226D01*
X150716Y538223D01*
Y509500D01*
G37*
G36*
X156716Y833500D02*X160002D01*
Y698500D01*
X159818D01*
X159456Y698467D01*
X159098Y698401D01*
X158748Y698303D01*
X158408Y698174D01*
X158081Y698015D01*
X158015Y697972D01*
X157956Y697919D01*
X157906Y697857D01*
X157867Y697788D01*
X157839Y697714D01*
X157823Y697637D01*
X157819Y697558D01*
X157827Y697479D01*
X157848Y697403D01*
X157880Y697330D01*
X157923Y697264D01*
X157976Y697205D01*
X158038Y697156D01*
X158107Y697116D01*
X158181Y697088D01*
X158258Y697072D01*
X158337Y697068D01*
X158416Y697076D01*
X158493Y697097D01*
X158564Y697130D01*
X158807Y697253D01*
X159062Y697350D01*
X159324Y697423D01*
X159592Y697472D01*
X159864Y697497D01*
X160002D01*
Y691503D01*
X159864D01*
X159592Y691528D01*
X159324Y691577D01*
X159062Y691650D01*
X158807Y691747D01*
X158563Y691867D01*
X158491Y691900D01*
X158415Y691921D01*
X158337Y691929D01*
X158259Y691925D01*
X158182Y691909D01*
X158108Y691881D01*
X158040Y691842D01*
X157979Y691793D01*
X157926Y691734D01*
X157883Y691668D01*
X157851Y691596D01*
X157830Y691520D01*
X157822Y691442D01*
X157826Y691364D01*
X157842Y691287D01*
X157870Y691213D01*
X157909Y691145D01*
X157958Y691084D01*
X158017Y691031D01*
X158083Y690989D01*
X158408Y690826D01*
X158748Y690697D01*
X159098Y690599D01*
X159456Y690533D01*
X159818Y690500D01*
X160002D01*
Y576000D01*
X156716D01*
Y692365D01*
X156786Y692339D01*
X156863Y692323D01*
X156942Y692319D01*
X157021Y692327D01*
X157097Y692348D01*
X157170Y692380D01*
X157236Y692423D01*
X157295Y692476D01*
X157344Y692538D01*
X157384Y692607D01*
X157412Y692681D01*
X157428Y692758D01*
X157432Y692837D01*
X157424Y692916D01*
X157403Y692993D01*
X157370Y693064D01*
X157247Y693307D01*
X157150Y693562D01*
X157077Y693824D01*
X157028Y694092D01*
X157003Y694364D01*
Y694636D01*
X157028Y694908D01*
X157077Y695176D01*
X157150Y695438D01*
X157247Y695693D01*
X157367Y695937D01*
X157400Y696009D01*
X157421Y696085D01*
X157429Y696163D01*
X157425Y696241D01*
X157409Y696318D01*
X157381Y696392D01*
X157342Y696460D01*
X157293Y696521D01*
X157234Y696574D01*
X157168Y696617D01*
X157096Y696649D01*
X157020Y696670D01*
X156942Y696678D01*
X156864Y696674D01*
X156787Y696658D01*
X156716Y696631D01*
Y833500D01*
G37*
G36*
X146284D02*X156716D01*
Y696631D01*
X156713Y696630D01*
X156645Y696591D01*
X156584Y696542D01*
X156531Y696483D01*
X156489Y696417D01*
X156326Y696092D01*
X156197Y695752D01*
X156099Y695402D01*
X156033Y695044D01*
X156000Y694682D01*
Y694318D01*
X156033Y693956D01*
X156099Y693598D01*
X156197Y693248D01*
X156326Y692908D01*
X156485Y692581D01*
X156528Y692515D01*
X156581Y692456D01*
X156643Y692406D01*
X156712Y692367D01*
X156716Y692365D01*
Y576000D01*
X146284D01*
Y612703D01*
X146575Y613178D01*
X146816Y613760D01*
X146963Y614372D01*
X147000Y615000D01*
X146963Y615628D01*
X146816Y616240D01*
X146575Y616822D01*
X146284Y617297D01*
Y627869D01*
X146287Y627870D01*
X146355Y627909D01*
X146416Y627958D01*
X146469Y628017D01*
X146511Y628083D01*
X146674Y628408D01*
X146803Y628748D01*
X146901Y629098D01*
X146967Y629456D01*
X147000Y629818D01*
Y630182D01*
X146967Y630544D01*
X146901Y630902D01*
X146803Y631252D01*
X146674Y631592D01*
X146515Y631919D01*
X146472Y631985D01*
X146419Y632044D01*
X146357Y632094D01*
X146288Y632133D01*
X146284Y632135D01*
Y833500D01*
G37*
G36*
Y576000D02*X143500D01*
X143002Y575502D01*
Y610988D01*
X143628Y611037D01*
X144240Y611184D01*
X144822Y611425D01*
X145358Y611754D01*
X145837Y612163D01*
X146246Y612642D01*
X146284Y612703D01*
Y576000D01*
G37*
G36*
Y509500D02*X143002D01*
Y571002D01*
X145000Y573000D01*
X146284D01*
Y509500D01*
G37*
G36*
X143002Y833500D02*X146284D01*
Y632135D01*
X146214Y632161D01*
X146137Y632177D01*
X146058Y632181D01*
X145979Y632173D01*
X145903Y632152D01*
X145830Y632120D01*
X145764Y632077D01*
X145705Y632024D01*
X145656Y631962D01*
X145616Y631893D01*
X145588Y631819D01*
X145572Y631742D01*
X145568Y631663D01*
X145576Y631584D01*
X145597Y631507D01*
X145630Y631436D01*
X145753Y631193D01*
X145850Y630938D01*
X145923Y630676D01*
X145972Y630408D01*
X145997Y630136D01*
Y629864D01*
X145972Y629592D01*
X145923Y629324D01*
X145850Y629062D01*
X145753Y628807D01*
X145633Y628563D01*
X145600Y628491D01*
X145579Y628416D01*
X145571Y628337D01*
X145575Y628259D01*
X145591Y628182D01*
X145619Y628108D01*
X145658Y628040D01*
X145707Y627979D01*
X145766Y627926D01*
X145832Y627883D01*
X145904Y627851D01*
X145980Y627830D01*
X146058Y627822D01*
X146136Y627826D01*
X146213Y627842D01*
X146284Y627869D01*
Y617297D01*
X146246Y617358D01*
X145837Y617837D01*
X145358Y618246D01*
X144822Y618575D01*
X144240Y618816D01*
X143628Y618963D01*
X143002Y619012D01*
Y626000D01*
X143182D01*
X143544Y626033D01*
X143902Y626099D01*
X144252Y626197D01*
X144592Y626326D01*
X144919Y626485D01*
X144985Y626528D01*
X145044Y626581D01*
X145094Y626643D01*
X145133Y626712D01*
X145161Y626786D01*
X145177Y626863D01*
X145181Y626942D01*
X145173Y627021D01*
X145152Y627097D01*
X145120Y627170D01*
X145077Y627236D01*
X145024Y627295D01*
X144962Y627344D01*
X144893Y627384D01*
X144819Y627412D01*
X144742Y627428D01*
X144663Y627432D01*
X144584Y627424D01*
X144507Y627403D01*
X144436Y627370D01*
X144193Y627247D01*
X143938Y627150D01*
X143676Y627077D01*
X143408Y627028D01*
X143136Y627003D01*
X143002D01*
Y632997D01*
X143136D01*
X143408Y632972D01*
X143676Y632923D01*
X143938Y632850D01*
X144193Y632753D01*
X144437Y632633D01*
X144509Y632600D01*
X144584Y632579D01*
X144663Y632571D01*
X144741Y632575D01*
X144818Y632591D01*
X144892Y632619D01*
X144960Y632658D01*
X145021Y632707D01*
X145074Y632766D01*
X145117Y632832D01*
X145149Y632904D01*
X145170Y632980D01*
X145178Y633058D01*
X145174Y633136D01*
X145158Y633213D01*
X145130Y633287D01*
X145091Y633355D01*
X145042Y633416D01*
X144983Y633469D01*
X144917Y633511D01*
X144592Y633674D01*
X144252Y633803D01*
X143902Y633901D01*
X143544Y633967D01*
X143182Y634000D01*
X143002D01*
Y691855D01*
X143246Y692142D01*
X143575Y692678D01*
X143816Y693260D01*
X143963Y693872D01*
X144000Y694500D01*
X143963Y695128D01*
X143816Y695740D01*
X143575Y696322D01*
X143246Y696858D01*
X143002Y697145D01*
Y833500D01*
G37*
G36*
Y509500D02*X131000D01*
Y533457D01*
X131685Y533621D01*
X133648Y534434D01*
X135460Y535545D01*
X137075Y536925D01*
X138455Y538540D01*
X139566Y540352D01*
X140379Y542315D01*
X140875Y544382D01*
X141000Y546500D01*
X140875Y548618D01*
X140379Y550685D01*
X139566Y552648D01*
X138455Y554460D01*
X137075Y556075D01*
X135460Y557455D01*
X133648Y558566D01*
X131685Y559379D01*
X131438Y559438D01*
X143002Y571002D01*
Y509500D01*
G37*
G36*
X139716Y612703D02*X139754Y612642D01*
X140163Y612163D01*
X140642Y611754D01*
X141178Y611425D01*
X141760Y611184D01*
X142372Y611037D01*
X143000Y610988D01*
X143002Y610988D01*
Y575502D01*
X139716Y572216D01*
Y612703D01*
G37*
G36*
Y690510D02*X140000Y690488D01*
X140628Y690537D01*
X141240Y690684D01*
X141822Y690925D01*
X142358Y691254D01*
X142837Y691663D01*
X143002Y691855D01*
Y634000D01*
X142818D01*
X142456Y633967D01*
X142098Y633901D01*
X141748Y633803D01*
X141408Y633674D01*
X141081Y633515D01*
X141015Y633472D01*
X140956Y633419D01*
X140906Y633357D01*
X140867Y633288D01*
X140839Y633214D01*
X140823Y633137D01*
X140819Y633058D01*
X140827Y632979D01*
X140848Y632903D01*
X140880Y632830D01*
X140923Y632764D01*
X140976Y632705D01*
X141038Y632656D01*
X141107Y632616D01*
X141181Y632588D01*
X141258Y632572D01*
X141337Y632568D01*
X141416Y632576D01*
X141493Y632597D01*
X141564Y632630D01*
X141807Y632753D01*
X142062Y632850D01*
X142324Y632923D01*
X142592Y632972D01*
X142864Y632997D01*
X143002D01*
Y627003D01*
X142864D01*
X142592Y627028D01*
X142324Y627077D01*
X142062Y627150D01*
X141807Y627247D01*
X141563Y627367D01*
X141491Y627400D01*
X141415Y627421D01*
X141337Y627429D01*
X141259Y627425D01*
X141182Y627409D01*
X141108Y627381D01*
X141040Y627342D01*
X140979Y627293D01*
X140926Y627234D01*
X140883Y627168D01*
X140851Y627096D01*
X140830Y627020D01*
X140822Y626942D01*
X140826Y626864D01*
X140842Y626787D01*
X140870Y626713D01*
X140909Y626645D01*
X140958Y626584D01*
X141017Y626531D01*
X141083Y626489D01*
X141408Y626326D01*
X141748Y626197D01*
X142098Y626099D01*
X142456Y626033D01*
X142818Y626000D01*
X143002D01*
Y619012D01*
X143000Y619012D01*
X142372Y618963D01*
X141760Y618816D01*
X141178Y618575D01*
X140642Y618246D01*
X140163Y617837D01*
X139754Y617358D01*
X139716Y617297D01*
Y627865D01*
X139786Y627839D01*
X139863Y627823D01*
X139942Y627819D01*
X140021Y627827D01*
X140097Y627848D01*
X140170Y627880D01*
X140236Y627923D01*
X140295Y627976D01*
X140344Y628038D01*
X140384Y628107D01*
X140412Y628181D01*
X140428Y628258D01*
X140432Y628337D01*
X140424Y628416D01*
X140403Y628493D01*
X140370Y628564D01*
X140247Y628807D01*
X140150Y629062D01*
X140077Y629324D01*
X140028Y629592D01*
X140003Y629864D01*
Y630136D01*
X140028Y630408D01*
X140077Y630676D01*
X140150Y630938D01*
X140247Y631193D01*
X140367Y631437D01*
X140400Y631509D01*
X140421Y631585D01*
X140429Y631663D01*
X140425Y631741D01*
X140409Y631818D01*
X140381Y631892D01*
X140342Y631960D01*
X140293Y632021D01*
X140234Y632074D01*
X140168Y632117D01*
X140096Y632149D01*
X140020Y632170D01*
X139942Y632178D01*
X139864Y632174D01*
X139787Y632158D01*
X139716Y632131D01*
Y690510D01*
G37*
G36*
Y833500D02*X143002D01*
Y697145D01*
X142837Y697337D01*
X142358Y697746D01*
X141822Y698075D01*
X141240Y698316D01*
X140628Y698463D01*
X140000Y698512D01*
X139716Y698490D01*
Y790716D01*
X140379Y792315D01*
X140875Y794382D01*
X141000Y796500D01*
X140875Y798618D01*
X140379Y800685D01*
X139716Y802284D01*
Y833500D01*
G37*
G36*
X106996D02*X139716D01*
Y802284D01*
X139566Y802648D01*
X138455Y804460D01*
X137075Y806075D01*
X135460Y807455D01*
X133648Y808566D01*
X131685Y809379D01*
X129618Y809875D01*
X127500Y810042D01*
X125382Y809875D01*
X123315Y809379D01*
X121352Y808566D01*
X119540Y807455D01*
X117925Y806075D01*
X116545Y804460D01*
X115434Y802648D01*
X114621Y800685D01*
X114125Y798618D01*
X113958Y796500D01*
X114125Y794382D01*
X114621Y792315D01*
X115434Y790352D01*
X116545Y788540D01*
X117925Y786925D01*
X119540Y785545D01*
X121352Y784434D01*
X123315Y783621D01*
X125382Y783125D01*
X127500Y782958D01*
X129618Y783125D01*
X131685Y783621D01*
X133648Y784434D01*
X135460Y785545D01*
X137075Y786925D01*
X138455Y788540D01*
X139566Y790352D01*
X139716Y790716D01*
Y698490D01*
X139372Y698463D01*
X138760Y698316D01*
X138178Y698075D01*
X137642Y697746D01*
X137163Y697337D01*
X136754Y696858D01*
X136425Y696322D01*
X136184Y695740D01*
X136037Y695128D01*
X135988Y694500D01*
X136037Y693872D01*
X136184Y693260D01*
X136425Y692678D01*
X136754Y692142D01*
X137163Y691663D01*
X137642Y691254D01*
X138178Y690925D01*
X138760Y690684D01*
X139372Y690537D01*
X139716Y690510D01*
Y632131D01*
X139713Y632130D01*
X139645Y632091D01*
X139584Y632042D01*
X139531Y631983D01*
X139489Y631917D01*
X139326Y631592D01*
X139197Y631252D01*
X139099Y630902D01*
X139033Y630544D01*
X139000Y630182D01*
Y629818D01*
X139033Y629456D01*
X139099Y629098D01*
X139197Y628748D01*
X139326Y628408D01*
X139485Y628081D01*
X139528Y628015D01*
X139581Y627956D01*
X139643Y627906D01*
X139712Y627867D01*
X139716Y627865D01*
Y617297D01*
X139425Y616822D01*
X139184Y616240D01*
X139037Y615628D01*
X138988Y615000D01*
X139037Y614372D01*
X139184Y613760D01*
X139425Y613178D01*
X139716Y612703D01*
Y572216D01*
X127539Y560039D01*
X127500Y560042D01*
X125382Y559875D01*
X123315Y559379D01*
X121352Y558566D01*
X119540Y557455D01*
X117925Y556075D01*
X116545Y554460D01*
X115434Y552648D01*
X114621Y550685D01*
X114125Y548618D01*
X113958Y546500D01*
X114125Y544382D01*
X114621Y542315D01*
X115434Y540352D01*
X116545Y538540D01*
X117925Y536925D01*
X119540Y535545D01*
X121352Y534434D01*
X123315Y533621D01*
X125382Y533125D01*
X127500Y532958D01*
Y509500D01*
X106996D01*
Y676692D01*
X107000Y676691D01*
X107439Y676726D01*
X107868Y676829D01*
X108275Y676997D01*
X108651Y677228D01*
X108986Y677514D01*
X109272Y677849D01*
X109503Y678225D01*
X109671Y678632D01*
X109774Y679061D01*
X109800Y679500D01*
X109774Y679939D01*
X109671Y680368D01*
X109503Y680775D01*
X109272Y681151D01*
X108986Y681486D01*
X108651Y681772D01*
X108275Y682003D01*
X107868Y682171D01*
X107439Y682274D01*
X107000Y682309D01*
X106996Y682308D01*
Y833500D01*
G37*
G36*
X101996D02*X106996D01*
Y682308D01*
X106561Y682274D01*
X106132Y682171D01*
X105725Y682003D01*
X105349Y681772D01*
X105014Y681486D01*
X104728Y681151D01*
X104497Y680775D01*
X104329Y680368D01*
X104226Y679939D01*
X104191Y679500D01*
X104226Y679061D01*
X104329Y678632D01*
X104497Y678225D01*
X104728Y677849D01*
X105014Y677514D01*
X105349Y677228D01*
X105725Y676997D01*
X106132Y676829D01*
X106561Y676726D01*
X106996Y676692D01*
Y509500D01*
X101996D01*
Y681242D01*
X102061Y681226D01*
X102500Y681191D01*
X102939Y681226D01*
X103368Y681329D01*
X103775Y681497D01*
X104151Y681728D01*
X104486Y682014D01*
X104772Y682349D01*
X105003Y682725D01*
X105171Y683132D01*
X105274Y683561D01*
X105300Y684000D01*
X105274Y684439D01*
X105171Y684868D01*
X105003Y685275D01*
X104772Y685651D01*
X104486Y685986D01*
X104151Y686272D01*
X103775Y686503D01*
X103368Y686671D01*
X102939Y686774D01*
X102500Y686809D01*
X102061Y686774D01*
X101996Y686758D01*
Y706192D01*
X102000Y706191D01*
X102439Y706226D01*
X102868Y706329D01*
X103275Y706497D01*
X103651Y706728D01*
X103986Y707014D01*
X104272Y707349D01*
X104503Y707725D01*
X104671Y708132D01*
X104774Y708561D01*
X104800Y709000D01*
X104774Y709439D01*
X104671Y709868D01*
X104503Y710275D01*
X104272Y710651D01*
X103986Y710986D01*
X103651Y711272D01*
X103275Y711503D01*
X102868Y711671D01*
X102439Y711774D01*
X102000Y711809D01*
X101996Y711808D01*
Y833500D01*
G37*
G36*
X98496D02*X101996D01*
Y711808D01*
X101561Y711774D01*
X101132Y711671D01*
X100725Y711503D01*
X100349Y711272D01*
X100014Y710986D01*
X99728Y710651D01*
X99497Y710275D01*
X99329Y709868D01*
X99226Y709439D01*
X99191Y709000D01*
X99226Y708561D01*
X99329Y708132D01*
X99497Y707725D01*
X99728Y707349D01*
X100014Y707014D01*
X100349Y706728D01*
X100725Y706497D01*
X101132Y706329D01*
X101561Y706226D01*
X101996Y706192D01*
Y686758D01*
X101632Y686671D01*
X101225Y686503D01*
X100849Y686272D01*
X100514Y685986D01*
X100228Y685651D01*
X99997Y685275D01*
X99829Y684868D01*
X99726Y684439D01*
X99691Y684000D01*
X99726Y683561D01*
X99829Y683132D01*
X99997Y682725D01*
X100228Y682349D01*
X100514Y682014D01*
X100849Y681728D01*
X101225Y681497D01*
X101632Y681329D01*
X101996Y681242D01*
Y509500D01*
X98496D01*
Y676692D01*
X98500Y676691D01*
X98939Y676726D01*
X99368Y676829D01*
X99775Y676997D01*
X100151Y677228D01*
X100486Y677514D01*
X100772Y677849D01*
X101003Y678225D01*
X101171Y678632D01*
X101274Y679061D01*
X101300Y679500D01*
X101274Y679939D01*
X101171Y680368D01*
X101003Y680775D01*
X100772Y681151D01*
X100486Y681486D01*
X100151Y681772D01*
X99775Y682003D01*
X99368Y682171D01*
X98939Y682274D01*
X98500Y682309D01*
X98496Y682308D01*
Y833500D01*
G37*
G36*
X94496D02*X98496D01*
Y682308D01*
X98061Y682274D01*
X97632Y682171D01*
X97225Y682003D01*
X96849Y681772D01*
X96514Y681486D01*
X96228Y681151D01*
X95997Y680775D01*
X95829Y680368D01*
X95726Y679939D01*
X95691Y679500D01*
X95726Y679061D01*
X95829Y678632D01*
X95997Y678225D01*
X96228Y677849D01*
X96514Y677514D01*
X96849Y677228D01*
X97225Y676997D01*
X97632Y676829D01*
X98061Y676726D01*
X98496Y676692D01*
Y509500D01*
X94496D01*
Y606032D01*
X94858Y606254D01*
X95337Y606663D01*
X95746Y607142D01*
X96075Y607678D01*
X96316Y608260D01*
X96463Y608872D01*
X96500Y609500D01*
X96463Y610128D01*
X96316Y610740D01*
X96075Y611322D01*
X95746Y611858D01*
X95337Y612337D01*
X94858Y612746D01*
X94496Y612968D01*
Y646633D01*
X94651Y646728D01*
X94986Y647014D01*
X95272Y647349D01*
X95503Y647725D01*
X95671Y648132D01*
X95774Y648561D01*
X95800Y649000D01*
X95774Y649439D01*
X95671Y649868D01*
X95503Y650275D01*
X95272Y650651D01*
X94986Y650986D01*
X94651Y651272D01*
X94496Y651367D01*
Y656214D01*
X94503Y656225D01*
X94671Y656632D01*
X94774Y657061D01*
X94800Y657500D01*
X94774Y657939D01*
X94671Y658368D01*
X94503Y658775D01*
X94496Y658786D01*
Y666633D01*
X94651Y666728D01*
X94986Y667014D01*
X95272Y667349D01*
X95503Y667725D01*
X95671Y668132D01*
X95774Y668561D01*
X95800Y669000D01*
X95774Y669439D01*
X95671Y669868D01*
X95503Y670275D01*
X95272Y670651D01*
X94986Y670986D01*
X94651Y671272D01*
X94496Y671367D01*
Y681192D01*
X94500Y681191D01*
X94939Y681226D01*
X95368Y681329D01*
X95775Y681497D01*
X96151Y681728D01*
X96486Y682014D01*
X96772Y682349D01*
X97003Y682725D01*
X97171Y683132D01*
X97274Y683561D01*
X97300Y684000D01*
X97274Y684439D01*
X97171Y684868D01*
X97003Y685275D01*
X96772Y685651D01*
X96486Y685986D01*
X96151Y686272D01*
X95775Y686503D01*
X95368Y686671D01*
X94939Y686774D01*
X94500Y686809D01*
X94496Y686808D01*
Y833500D01*
G37*
G36*
Y658786D02*X94272Y659151D01*
X93986Y659486D01*
X93651Y659772D01*
X93275Y660003D01*
X92868Y660171D01*
X92439Y660274D01*
X92000Y660309D01*
X91561Y660274D01*
X91132Y660171D01*
X91077Y660148D01*
Y666960D01*
X91349Y666728D01*
X91725Y666497D01*
X92132Y666329D01*
X92561Y666226D01*
X93000Y666191D01*
X93439Y666226D01*
X93868Y666329D01*
X94275Y666497D01*
X94496Y666633D01*
Y658786D01*
G37*
G36*
Y651367D02*X94275Y651503D01*
X93868Y651671D01*
X93439Y651774D01*
X93000Y651809D01*
X92561Y651774D01*
X92132Y651671D01*
X91725Y651503D01*
X91349Y651272D01*
X91077Y651040D01*
Y654852D01*
X91132Y654829D01*
X91561Y654726D01*
X92000Y654691D01*
X92439Y654726D01*
X92868Y654829D01*
X93275Y654997D01*
X93651Y655228D01*
X93986Y655514D01*
X94272Y655849D01*
X94496Y656214D01*
Y651367D01*
G37*
G36*
Y612968D02*X94322Y613075D01*
X93740Y613316D01*
X93128Y613463D01*
X92500Y613512D01*
X91872Y613463D01*
X91260Y613316D01*
X91077Y613240D01*
Y646960D01*
X91349Y646728D01*
X91725Y646497D01*
X92132Y646329D01*
X92561Y646226D01*
X93000Y646191D01*
X93439Y646226D01*
X93868Y646329D01*
X94275Y646497D01*
X94496Y646633D01*
Y612968D01*
G37*
G36*
Y509500D02*X91077D01*
Y605760D01*
X91260Y605684D01*
X91872Y605537D01*
X92500Y605488D01*
X93128Y605537D01*
X93740Y605684D01*
X94322Y605925D01*
X94496Y606032D01*
Y509500D01*
G37*
G36*
X91077Y833500D02*X94496D01*
Y686808D01*
X94061Y686774D01*
X93632Y686671D01*
X93225Y686503D01*
X92849Y686272D01*
X92514Y685986D01*
X92228Y685651D01*
X91997Y685275D01*
X91829Y684868D01*
X91726Y684439D01*
X91691Y684000D01*
X91726Y683561D01*
X91829Y683132D01*
X91997Y682725D01*
X92228Y682349D01*
X92514Y682014D01*
X92849Y681728D01*
X93225Y681497D01*
X93632Y681329D01*
X94061Y681226D01*
X94496Y681192D01*
Y671367D01*
X94275Y671503D01*
X93868Y671671D01*
X93439Y671774D01*
X93000Y671809D01*
X92561Y671774D01*
X92132Y671671D01*
X91725Y671503D01*
X91349Y671272D01*
X91077Y671040D01*
Y672182D01*
X91151Y672228D01*
X91486Y672514D01*
X91772Y672849D01*
X92003Y673225D01*
X92171Y673632D01*
X92274Y674061D01*
X92300Y674500D01*
X92274Y674939D01*
X92171Y675368D01*
X92003Y675775D01*
X91772Y676151D01*
X91486Y676486D01*
X91151Y676772D01*
X91077Y676818D01*
Y686367D01*
X91145Y686381D01*
X91218Y686408D01*
X91287Y686447D01*
X91349Y686496D01*
X91402Y686554D01*
X91445Y686619D01*
X91477Y686691D01*
X91553Y686924D01*
X91607Y687164D01*
X91639Y687408D01*
X91650Y687653D01*
X91639Y687898D01*
X91607Y688142D01*
X91553Y688382D01*
X91479Y688616D01*
X91447Y688688D01*
X91403Y688753D01*
X91350Y688812D01*
X91288Y688861D01*
X91219Y688899D01*
X91145Y688927D01*
X91077Y688941D01*
Y833500D01*
G37*
G36*
Y613240D02*X90678Y613075D01*
X90142Y612746D01*
X89663Y612337D01*
X89254Y611858D01*
X88925Y611322D01*
X88848Y611135D01*
Y648143D01*
X88877Y648187D01*
X88909Y648259D01*
X88985Y648492D01*
X89039Y648732D01*
X89071Y648976D01*
X89082Y649221D01*
X89071Y649466D01*
X89039Y649710D01*
X88985Y649950D01*
X88911Y650184D01*
X88879Y650256D01*
X88848Y650302D01*
Y659473D01*
X89003Y659725D01*
X89171Y660132D01*
X89274Y660561D01*
X89300Y661000D01*
X89274Y661439D01*
X89171Y661868D01*
X89003Y662275D01*
X88848Y662527D01*
Y667701D01*
X88908Y667749D01*
X88961Y667807D01*
X89004Y667872D01*
X89036Y667944D01*
X89112Y668177D01*
X89166Y668417D01*
X89198Y668661D01*
X89209Y668906D01*
X89198Y669151D01*
X89166Y669395D01*
X89112Y669635D01*
X89038Y669869D01*
X89006Y669941D01*
X88962Y670006D01*
X88909Y670065D01*
X88848Y670113D01*
Y671777D01*
X89061Y671726D01*
X89500Y671691D01*
X89939Y671726D01*
X90368Y671829D01*
X90775Y671997D01*
X91077Y672182D01*
Y671040D01*
X91014Y670986D01*
X90728Y670651D01*
X90497Y670275D01*
X90329Y669868D01*
X90226Y669439D01*
X90191Y669000D01*
X90226Y668561D01*
X90329Y668132D01*
X90497Y667725D01*
X90728Y667349D01*
X91014Y667014D01*
X91077Y666960D01*
Y660148D01*
X90725Y660003D01*
X90349Y659772D01*
X90014Y659486D01*
X89728Y659151D01*
X89497Y658775D01*
X89329Y658368D01*
X89226Y657939D01*
X89191Y657500D01*
X89226Y657061D01*
X89329Y656632D01*
X89497Y656225D01*
X89728Y655849D01*
X90014Y655514D01*
X90349Y655228D01*
X90725Y654997D01*
X91077Y654852D01*
Y651040D01*
X91014Y650986D01*
X90728Y650651D01*
X90497Y650275D01*
X90329Y649868D01*
X90226Y649439D01*
X90191Y649000D01*
X90226Y648561D01*
X90329Y648132D01*
X90497Y647725D01*
X90728Y647349D01*
X91014Y647014D01*
X91077Y646960D01*
Y613240D01*
G37*
G36*
Y509500D02*X88848D01*
Y607865D01*
X88925Y607678D01*
X89254Y607142D01*
X89663Y606663D01*
X90142Y606254D01*
X90678Y605925D01*
X91077Y605760D01*
Y509500D01*
G37*
G36*
X88848Y833500D02*X91077D01*
Y688941D01*
X91068Y688943D01*
X90989Y688946D01*
X90910Y688937D01*
X90834Y688916D01*
X90762Y688883D01*
X90697Y688839D01*
X90638Y688786D01*
X90589Y688724D01*
X90551Y688655D01*
X90523Y688581D01*
X90507Y688504D01*
X90504Y688425D01*
X90513Y688346D01*
X90536Y688271D01*
X90585Y688121D01*
X90619Y687967D01*
X90640Y687811D01*
X90647Y687653D01*
X90640Y687495D01*
X90619Y687339D01*
X90585Y687185D01*
X90537Y687035D01*
X90515Y686959D01*
X90506Y686881D01*
X90509Y686803D01*
X90525Y686726D01*
X90552Y686652D01*
X90591Y686583D01*
X90640Y686522D01*
X90698Y686468D01*
X90763Y686425D01*
X90835Y686392D01*
X90911Y686371D01*
X90989Y686362D01*
X91067Y686365D01*
X91077Y686367D01*
Y676818D01*
X90775Y677003D01*
X90368Y677171D01*
X89939Y677274D01*
X89500Y677309D01*
X89061Y677274D01*
X88848Y677223D01*
Y678042D01*
X89151Y678228D01*
X89486Y678514D01*
X89772Y678849D01*
X90003Y679225D01*
X90171Y679632D01*
X90274Y680061D01*
X90300Y680500D01*
X90274Y680939D01*
X90171Y681368D01*
X90003Y681775D01*
X89772Y682151D01*
X89486Y682486D01*
X89151Y682772D01*
X88848Y682958D01*
Y684850D01*
X89092Y684861D01*
X89336Y684893D01*
X89576Y684947D01*
X89810Y685021D01*
X89882Y685053D01*
X89947Y685097D01*
X90006Y685150D01*
X90055Y685212D01*
X90093Y685281D01*
X90121Y685355D01*
X90137Y685432D01*
X90140Y685511D01*
X90131Y685590D01*
X90110Y685666D01*
X90077Y685738D01*
X90033Y685803D01*
X89980Y685862D01*
X89918Y685911D01*
X89849Y685949D01*
X89775Y685977D01*
X89698Y685993D01*
X89619Y685996D01*
X89540Y685987D01*
X89465Y685964D01*
X89315Y685915D01*
X89161Y685881D01*
X89005Y685860D01*
X88848Y685853D01*
Y689453D01*
X89005Y689446D01*
X89161Y689425D01*
X89315Y689391D01*
X89465Y689343D01*
X89541Y689321D01*
X89619Y689312D01*
X89697Y689315D01*
X89774Y689331D01*
X89848Y689358D01*
X89917Y689397D01*
X89978Y689446D01*
X90032Y689504D01*
X90075Y689569D01*
X90108Y689641D01*
X90129Y689717D01*
X90138Y689795D01*
X90135Y689873D01*
X90119Y689951D01*
X90092Y690024D01*
X90053Y690093D01*
X90004Y690155D01*
X89946Y690208D01*
X89881Y690251D01*
X89809Y690283D01*
X89576Y690359D01*
X89336Y690413D01*
X89092Y690445D01*
X88848Y690456D01*
Y833500D01*
G37*
G36*
X86617Y658201D02*X86939Y658226D01*
X87368Y658329D01*
X87775Y658497D01*
X88151Y658728D01*
X88486Y659014D01*
X88772Y659349D01*
X88848Y659473D01*
Y650302D01*
X88835Y650321D01*
X88782Y650380D01*
X88720Y650429D01*
X88651Y650467D01*
X88577Y650495D01*
X88500Y650511D01*
X88421Y650514D01*
X88342Y650505D01*
X88266Y650484D01*
X88194Y650451D01*
X88129Y650407D01*
X88070Y650354D01*
X88021Y650292D01*
X87983Y650223D01*
X87955Y650149D01*
X87939Y650072D01*
X87936Y649993D01*
X87945Y649914D01*
X87968Y649839D01*
X88017Y649689D01*
X88051Y649535D01*
X88072Y649379D01*
X88079Y649221D01*
X88072Y649063D01*
X88051Y648907D01*
X88017Y648753D01*
X87969Y648603D01*
X87947Y648527D01*
X87938Y648449D01*
X87941Y648371D01*
X87957Y648294D01*
X87984Y648220D01*
X88023Y648151D01*
X88072Y648090D01*
X88130Y648036D01*
X88195Y647993D01*
X88267Y647960D01*
X88343Y647939D01*
X88421Y647930D01*
X88499Y647933D01*
X88577Y647949D01*
X88650Y647976D01*
X88719Y648015D01*
X88781Y648064D01*
X88834Y648122D01*
X88848Y648143D01*
Y611135D01*
X88684Y610740D01*
X88537Y610128D01*
X88488Y609500D01*
X88537Y608872D01*
X88684Y608260D01*
X88848Y607865D01*
Y509500D01*
X86617D01*
Y646441D01*
X86768Y646461D01*
X87008Y646515D01*
X87242Y646589D01*
X87314Y646621D01*
X87379Y646665D01*
X87438Y646718D01*
X87487Y646780D01*
X87525Y646849D01*
X87553Y646923D01*
X87569Y647000D01*
X87572Y647079D01*
X87563Y647158D01*
X87542Y647234D01*
X87509Y647306D01*
X87465Y647371D01*
X87412Y647430D01*
X87350Y647479D01*
X87281Y647517D01*
X87207Y647545D01*
X87130Y647561D01*
X87051Y647564D01*
X86972Y647555D01*
X86897Y647532D01*
X86747Y647483D01*
X86617Y647454D01*
Y650988D01*
X86747Y650959D01*
X86897Y650911D01*
X86973Y650889D01*
X87051Y650880D01*
X87129Y650883D01*
X87206Y650899D01*
X87280Y650926D01*
X87349Y650965D01*
X87410Y651014D01*
X87464Y651072D01*
X87507Y651137D01*
X87540Y651209D01*
X87561Y651285D01*
X87570Y651363D01*
X87567Y651441D01*
X87551Y651519D01*
X87524Y651592D01*
X87485Y651661D01*
X87436Y651723D01*
X87378Y651776D01*
X87313Y651819D01*
X87241Y651851D01*
X87008Y651927D01*
X86768Y651981D01*
X86617Y652001D01*
Y658201D01*
G37*
G36*
Y677835D02*X86632Y677829D01*
X87061Y677726D01*
X87500Y677691D01*
X87939Y677726D01*
X88368Y677829D01*
X88775Y677997D01*
X88848Y678042D01*
Y677223D01*
X88632Y677171D01*
X88225Y677003D01*
X87849Y676772D01*
X87514Y676486D01*
X87228Y676151D01*
X86997Y675775D01*
X86829Y675368D01*
X86726Y674939D01*
X86691Y674500D01*
X86726Y674061D01*
X86829Y673632D01*
X86997Y673225D01*
X87228Y672849D01*
X87514Y672514D01*
X87849Y672228D01*
X88225Y671997D01*
X88632Y671829D01*
X88848Y671777D01*
Y670113D01*
X88847Y670114D01*
X88778Y670152D01*
X88704Y670180D01*
X88627Y670196D01*
X88548Y670199D01*
X88469Y670190D01*
X88393Y670169D01*
X88321Y670136D01*
X88256Y670092D01*
X88197Y670039D01*
X88148Y669977D01*
X88110Y669908D01*
X88082Y669834D01*
X88066Y669757D01*
X88063Y669678D01*
X88072Y669599D01*
X88095Y669524D01*
X88144Y669374D01*
X88178Y669220D01*
X88199Y669064D01*
X88206Y668906D01*
X88199Y668748D01*
X88178Y668592D01*
X88144Y668438D01*
X88096Y668288D01*
X88074Y668212D01*
X88065Y668134D01*
X88068Y668056D01*
X88084Y667979D01*
X88111Y667905D01*
X88150Y667836D01*
X88199Y667775D01*
X88257Y667721D01*
X88322Y667678D01*
X88394Y667645D01*
X88470Y667624D01*
X88548Y667615D01*
X88626Y667618D01*
X88704Y667634D01*
X88777Y667661D01*
X88846Y667700D01*
X88848Y667701D01*
Y662527D01*
X88772Y662651D01*
X88486Y662986D01*
X88151Y663272D01*
X87775Y663503D01*
X87368Y663671D01*
X86939Y663774D01*
X86617Y663799D01*
Y666113D01*
X86651Y666114D01*
X86895Y666146D01*
X87135Y666200D01*
X87369Y666274D01*
X87441Y666306D01*
X87506Y666350D01*
X87565Y666403D01*
X87614Y666465D01*
X87652Y666534D01*
X87680Y666608D01*
X87696Y666685D01*
X87699Y666764D01*
X87690Y666843D01*
X87669Y666919D01*
X87636Y666991D01*
X87592Y667056D01*
X87539Y667115D01*
X87477Y667164D01*
X87408Y667202D01*
X87334Y667230D01*
X87257Y667246D01*
X87178Y667249D01*
X87099Y667240D01*
X87024Y667217D01*
X86874Y667168D01*
X86720Y667134D01*
X86617Y667120D01*
Y670692D01*
X86720Y670678D01*
X86874Y670644D01*
X87024Y670596D01*
X87100Y670574D01*
X87178Y670565D01*
X87256Y670568D01*
X87333Y670584D01*
X87407Y670611D01*
X87476Y670650D01*
X87537Y670699D01*
X87591Y670757D01*
X87634Y670822D01*
X87667Y670894D01*
X87688Y670970D01*
X87697Y671048D01*
X87694Y671126D01*
X87678Y671204D01*
X87651Y671277D01*
X87612Y671346D01*
X87563Y671408D01*
X87505Y671461D01*
X87440Y671504D01*
X87368Y671536D01*
X87135Y671612D01*
X86895Y671666D01*
X86651Y671698D01*
X86617Y671699D01*
Y677835D01*
G37*
G36*
Y833500D02*X88848D01*
Y690456D01*
X88847Y690456D01*
X88602Y690445D01*
X88358Y690413D01*
X88118Y690359D01*
X87884Y690285D01*
X87812Y690253D01*
X87747Y690209D01*
X87688Y690156D01*
X87639Y690094D01*
X87601Y690025D01*
X87573Y689951D01*
X87557Y689874D01*
X87554Y689795D01*
X87563Y689716D01*
X87584Y689640D01*
X87617Y689568D01*
X87661Y689503D01*
X87714Y689444D01*
X87776Y689395D01*
X87845Y689357D01*
X87919Y689329D01*
X87996Y689313D01*
X88075Y689310D01*
X88154Y689319D01*
X88229Y689342D01*
X88379Y689391D01*
X88533Y689425D01*
X88689Y689446D01*
X88847Y689453D01*
X88848Y689453D01*
Y685853D01*
X88847Y685853D01*
X88689Y685860D01*
X88533Y685881D01*
X88379Y685915D01*
X88229Y685963D01*
X88153Y685985D01*
X88075Y685994D01*
X87997Y685991D01*
X87920Y685975D01*
X87846Y685948D01*
X87777Y685909D01*
X87716Y685860D01*
X87662Y685802D01*
X87619Y685737D01*
X87586Y685665D01*
X87565Y685589D01*
X87556Y685511D01*
X87559Y685433D01*
X87575Y685355D01*
X87602Y685282D01*
X87641Y685213D01*
X87690Y685151D01*
X87748Y685098D01*
X87813Y685055D01*
X87885Y685023D01*
X88118Y684947D01*
X88358Y684893D01*
X88602Y684861D01*
X88847Y684850D01*
X88848Y684850D01*
Y682958D01*
X88775Y683003D01*
X88368Y683171D01*
X87939Y683274D01*
X87500Y683309D01*
X87061Y683274D01*
X86632Y683171D01*
X86617Y683165D01*
Y686365D01*
X86626Y686363D01*
X86705Y686360D01*
X86784Y686369D01*
X86860Y686390D01*
X86932Y686423D01*
X86997Y686467D01*
X87056Y686520D01*
X87105Y686582D01*
X87143Y686651D01*
X87171Y686725D01*
X87187Y686802D01*
X87190Y686881D01*
X87181Y686960D01*
X87158Y687035D01*
X87109Y687185D01*
X87075Y687339D01*
X87054Y687495D01*
X87047Y687653D01*
X87054Y687811D01*
X87075Y687967D01*
X87109Y688121D01*
X87157Y688271D01*
X87179Y688347D01*
X87188Y688425D01*
X87185Y688503D01*
X87169Y688580D01*
X87142Y688654D01*
X87103Y688723D01*
X87054Y688784D01*
X86996Y688838D01*
X86931Y688881D01*
X86859Y688914D01*
X86783Y688935D01*
X86705Y688944D01*
X86627Y688941D01*
X86617Y688939D01*
Y833500D01*
G37*
G36*
X84176Y659433D02*X84228Y659349D01*
X84514Y659014D01*
X84849Y658728D01*
X85225Y658497D01*
X85632Y658329D01*
X86061Y658226D01*
X86500Y658191D01*
X86617Y658201D01*
Y652001D01*
X86524Y652013D01*
X86279Y652024D01*
X86034Y652013D01*
X85790Y651981D01*
X85550Y651927D01*
X85316Y651853D01*
X85244Y651821D01*
X85179Y651777D01*
X85120Y651724D01*
X85071Y651662D01*
X85033Y651593D01*
X85005Y651519D01*
X84989Y651442D01*
X84986Y651363D01*
X84995Y651284D01*
X85016Y651208D01*
X85049Y651136D01*
X85093Y651071D01*
X85146Y651012D01*
X85208Y650963D01*
X85277Y650925D01*
X85351Y650897D01*
X85428Y650881D01*
X85507Y650878D01*
X85586Y650887D01*
X85661Y650910D01*
X85811Y650959D01*
X85965Y650993D01*
X86121Y651014D01*
X86279Y651021D01*
X86437Y651014D01*
X86593Y650993D01*
X86617Y650988D01*
Y647454D01*
X86593Y647449D01*
X86437Y647428D01*
X86279Y647421D01*
X86121Y647428D01*
X85965Y647449D01*
X85811Y647483D01*
X85661Y647531D01*
X85585Y647553D01*
X85507Y647562D01*
X85429Y647559D01*
X85352Y647543D01*
X85278Y647516D01*
X85209Y647477D01*
X85148Y647428D01*
X85094Y647370D01*
X85051Y647305D01*
X85018Y647233D01*
X84997Y647157D01*
X84988Y647079D01*
X84991Y647001D01*
X85007Y646923D01*
X85034Y646850D01*
X85073Y646781D01*
X85122Y646719D01*
X85180Y646666D01*
X85245Y646623D01*
X85317Y646591D01*
X85550Y646515D01*
X85790Y646461D01*
X86034Y646429D01*
X86279Y646418D01*
X86524Y646429D01*
X86617Y646441D01*
Y509500D01*
X84176D01*
Y647933D01*
X84216Y647937D01*
X84292Y647958D01*
X84364Y647991D01*
X84429Y648035D01*
X84488Y648088D01*
X84537Y648150D01*
X84575Y648219D01*
X84603Y648293D01*
X84619Y648370D01*
X84622Y648449D01*
X84613Y648528D01*
X84590Y648603D01*
X84541Y648753D01*
X84507Y648907D01*
X84486Y649063D01*
X84479Y649221D01*
X84486Y649379D01*
X84507Y649535D01*
X84541Y649689D01*
X84589Y649839D01*
X84611Y649915D01*
X84620Y649993D01*
X84617Y650071D01*
X84601Y650148D01*
X84574Y650222D01*
X84535Y650291D01*
X84486Y650352D01*
X84428Y650406D01*
X84363Y650449D01*
X84291Y650482D01*
X84215Y650503D01*
X84176Y650508D01*
Y659433D01*
G37*
G36*
Y833500D02*X86617D01*
Y688939D01*
X86549Y688925D01*
X86476Y688898D01*
X86407Y688859D01*
X86345Y688810D01*
X86292Y688752D01*
X86249Y688687D01*
X86217Y688615D01*
X86141Y688382D01*
X86087Y688142D01*
X86055Y687898D01*
X86044Y687653D01*
X86055Y687408D01*
X86087Y687164D01*
X86141Y686924D01*
X86215Y686690D01*
X86247Y686618D01*
X86291Y686553D01*
X86344Y686494D01*
X86406Y686445D01*
X86475Y686407D01*
X86549Y686379D01*
X86617Y686365D01*
Y683165D01*
X86225Y683003D01*
X85849Y682772D01*
X85514Y682486D01*
X85228Y682151D01*
X84997Y681775D01*
X84829Y681368D01*
X84726Y680939D01*
X84691Y680500D01*
X84726Y680061D01*
X84829Y679632D01*
X84997Y679225D01*
X85228Y678849D01*
X85514Y678514D01*
X85849Y678228D01*
X86225Y677997D01*
X86617Y677835D01*
Y671699D01*
X86406Y671709D01*
X86161Y671698D01*
X85917Y671666D01*
X85677Y671612D01*
X85443Y671538D01*
X85371Y671506D01*
X85306Y671462D01*
X85247Y671409D01*
X85198Y671347D01*
X85160Y671278D01*
X85132Y671204D01*
X85116Y671127D01*
X85113Y671048D01*
X85122Y670969D01*
X85143Y670893D01*
X85176Y670821D01*
X85220Y670756D01*
X85273Y670697D01*
X85335Y670648D01*
X85404Y670610D01*
X85478Y670582D01*
X85555Y670566D01*
X85634Y670563D01*
X85713Y670572D01*
X85788Y670595D01*
X85938Y670644D01*
X86092Y670678D01*
X86248Y670699D01*
X86406Y670706D01*
X86564Y670699D01*
X86617Y670692D01*
Y667120D01*
X86564Y667113D01*
X86406Y667106D01*
X86248Y667113D01*
X86092Y667134D01*
X85938Y667168D01*
X85788Y667216D01*
X85712Y667238D01*
X85634Y667247D01*
X85556Y667244D01*
X85479Y667228D01*
X85405Y667201D01*
X85336Y667162D01*
X85275Y667113D01*
X85221Y667055D01*
X85178Y666990D01*
X85145Y666918D01*
X85124Y666842D01*
X85115Y666764D01*
X85118Y666686D01*
X85134Y666608D01*
X85161Y666535D01*
X85200Y666466D01*
X85249Y666404D01*
X85307Y666351D01*
X85372Y666308D01*
X85444Y666276D01*
X85677Y666200D01*
X85917Y666146D01*
X86161Y666114D01*
X86406Y666103D01*
X86617Y666113D01*
Y663799D01*
X86500Y663809D01*
X86061Y663774D01*
X85632Y663671D01*
X85225Y663503D01*
X84849Y663272D01*
X84514Y662986D01*
X84228Y662651D01*
X84176Y662567D01*
Y667618D01*
X84185Y667616D01*
X84264Y667613D01*
X84343Y667622D01*
X84419Y667643D01*
X84491Y667676D01*
X84556Y667720D01*
X84615Y667773D01*
X84664Y667835D01*
X84702Y667904D01*
X84730Y667978D01*
X84746Y668055D01*
X84749Y668134D01*
X84740Y668213D01*
X84717Y668288D01*
X84668Y668438D01*
X84634Y668592D01*
X84613Y668748D01*
X84606Y668906D01*
X84613Y669064D01*
X84634Y669220D01*
X84668Y669374D01*
X84716Y669524D01*
X84738Y669600D01*
X84747Y669678D01*
X84744Y669756D01*
X84728Y669833D01*
X84701Y669907D01*
X84662Y669976D01*
X84613Y670037D01*
X84555Y670091D01*
X84490Y670134D01*
X84418Y670167D01*
X84342Y670188D01*
X84264Y670197D01*
X84186Y670194D01*
X84176Y670192D01*
Y833500D01*
G37*
G36*
X82784D02*X84176D01*
Y670192D01*
X84108Y670178D01*
X84035Y670151D01*
X83966Y670112D01*
X83904Y670063D01*
X83851Y670005D01*
X83808Y669940D01*
X83776Y669868D01*
X83700Y669635D01*
X83646Y669395D01*
X83614Y669151D01*
X83603Y668906D01*
X83614Y668661D01*
X83646Y668417D01*
X83700Y668177D01*
X83774Y667943D01*
X83806Y667871D01*
X83850Y667806D01*
X83903Y667747D01*
X83965Y667698D01*
X84034Y667660D01*
X84108Y667632D01*
X84176Y667618D01*
Y662567D01*
X83997Y662275D01*
X83829Y661868D01*
X83726Y661439D01*
X83691Y661000D01*
X83726Y660561D01*
X83829Y660132D01*
X83997Y659725D01*
X84176Y659433D01*
Y650508D01*
X84137Y650512D01*
X84059Y650509D01*
X83981Y650493D01*
X83908Y650466D01*
X83839Y650427D01*
X83777Y650378D01*
X83724Y650320D01*
X83681Y650255D01*
X83649Y650183D01*
X83573Y649950D01*
X83519Y649710D01*
X83487Y649466D01*
X83476Y649221D01*
X83487Y648976D01*
X83519Y648732D01*
X83573Y648492D01*
X83647Y648258D01*
X83679Y648186D01*
X83723Y648121D01*
X83776Y648062D01*
X83838Y648013D01*
X83907Y647975D01*
X83981Y647947D01*
X84058Y647931D01*
X84137Y647928D01*
X84176Y647933D01*
Y509500D01*
X82784D01*
Y628869D01*
X82787Y628870D01*
X82855Y628909D01*
X82916Y628958D01*
X82969Y629017D01*
X83011Y629083D01*
X83174Y629408D01*
X83303Y629748D01*
X83401Y630098D01*
X83467Y630456D01*
X83500Y630818D01*
Y631182D01*
X83467Y631544D01*
X83401Y631902D01*
X83303Y632252D01*
X83174Y632592D01*
X83015Y632919D01*
X82972Y632985D01*
X82919Y633044D01*
X82857Y633094D01*
X82788Y633133D01*
X82784Y633135D01*
Y833500D01*
G37*
G36*
X81784D02*X82784D01*
Y633135D01*
X82714Y633161D01*
X82637Y633177D01*
X82558Y633181D01*
X82479Y633173D01*
X82403Y633152D01*
X82330Y633120D01*
X82264Y633077D01*
X82205Y633024D01*
X82156Y632962D01*
X82116Y632893D01*
X82088Y632819D01*
X82072Y632742D01*
X82068Y632663D01*
X82076Y632584D01*
X82097Y632507D01*
X82130Y632436D01*
X82253Y632193D01*
X82350Y631938D01*
X82423Y631676D01*
X82472Y631408D01*
X82497Y631136D01*
Y630864D01*
X82472Y630592D01*
X82423Y630324D01*
X82350Y630062D01*
X82253Y629807D01*
X82133Y629563D01*
X82100Y629491D01*
X82079Y629416D01*
X82071Y629337D01*
X82075Y629259D01*
X82091Y629182D01*
X82119Y629108D01*
X82158Y629040D01*
X82207Y628979D01*
X82266Y628926D01*
X82332Y628883D01*
X82404Y628851D01*
X82480Y628830D01*
X82558Y628822D01*
X82636Y628826D01*
X82713Y628842D01*
X82784Y628869D01*
Y509500D01*
X81784D01*
Y615369D01*
X81787Y615370D01*
X81855Y615409D01*
X81916Y615458D01*
X81969Y615517D01*
X82011Y615583D01*
X82174Y615908D01*
X82303Y616248D01*
X82401Y616598D01*
X82467Y616956D01*
X82500Y617318D01*
Y617682D01*
X82467Y618044D01*
X82401Y618402D01*
X82303Y618752D01*
X82174Y619092D01*
X82015Y619419D01*
X81972Y619485D01*
X81919Y619544D01*
X81857Y619594D01*
X81788Y619633D01*
X81784Y619635D01*
Y833500D01*
G37*
G36*
X77996D02*X81784D01*
Y619635D01*
X81714Y619661D01*
X81637Y619677D01*
X81558Y619681D01*
X81479Y619673D01*
X81403Y619652D01*
X81330Y619620D01*
X81264Y619577D01*
X81205Y619524D01*
X81156Y619462D01*
X81116Y619393D01*
X81088Y619319D01*
X81072Y619242D01*
X81068Y619163D01*
X81076Y619084D01*
X81097Y619007D01*
X81130Y618936D01*
X81253Y618693D01*
X81350Y618438D01*
X81423Y618176D01*
X81472Y617908D01*
X81497Y617636D01*
Y617364D01*
X81472Y617092D01*
X81423Y616824D01*
X81350Y616562D01*
X81253Y616307D01*
X81133Y616063D01*
X81100Y615991D01*
X81079Y615916D01*
X81071Y615837D01*
X81075Y615759D01*
X81091Y615682D01*
X81119Y615608D01*
X81158Y615540D01*
X81207Y615479D01*
X81266Y615426D01*
X81332Y615383D01*
X81404Y615351D01*
X81480Y615330D01*
X81558Y615322D01*
X81636Y615326D01*
X81713Y615342D01*
X81784Y615369D01*
Y509500D01*
X77996D01*
Y613529D01*
X78318Y613500D01*
X78682D01*
X79044Y613533D01*
X79402Y613599D01*
X79752Y613697D01*
X80092Y613826D01*
X80419Y613985D01*
X80485Y614028D01*
X80544Y614081D01*
X80594Y614143D01*
X80633Y614212D01*
X80661Y614286D01*
X80677Y614363D01*
X80681Y614442D01*
X80673Y614521D01*
X80652Y614597D01*
X80620Y614670D01*
X80577Y614736D01*
X80524Y614795D01*
X80462Y614844D01*
X80393Y614884D01*
X80319Y614912D01*
X80242Y614928D01*
X80163Y614932D01*
X80084Y614924D01*
X80007Y614903D01*
X79936Y614870D01*
X79693Y614747D01*
X79438Y614650D01*
X79176Y614577D01*
X78908Y614528D01*
X78636Y614503D01*
X78364D01*
X78092Y614528D01*
X77996Y614546D01*
Y620454D01*
X78092Y620472D01*
X78364Y620497D01*
X78636D01*
X78908Y620472D01*
X79176Y620423D01*
X79438Y620350D01*
X79693Y620253D01*
X79937Y620133D01*
X80009Y620100D01*
X80084Y620079D01*
X80163Y620071D01*
X80241Y620075D01*
X80318Y620091D01*
X80392Y620119D01*
X80460Y620158D01*
X80521Y620207D01*
X80574Y620266D01*
X80617Y620332D01*
X80649Y620404D01*
X80670Y620480D01*
X80678Y620558D01*
X80674Y620636D01*
X80658Y620713D01*
X80630Y620787D01*
X80591Y620855D01*
X80542Y620916D01*
X80483Y620969D01*
X80417Y621011D01*
X80092Y621174D01*
X79752Y621303D01*
X79402Y621401D01*
X79044Y621467D01*
X78682Y621500D01*
X78318D01*
X77996Y621471D01*
Y627293D01*
X78248Y627197D01*
X78598Y627099D01*
X78956Y627033D01*
X79318Y627000D01*
X79682D01*
X80044Y627033D01*
X80402Y627099D01*
X80752Y627197D01*
X81092Y627326D01*
X81419Y627485D01*
X81485Y627528D01*
X81544Y627581D01*
X81594Y627643D01*
X81633Y627712D01*
X81661Y627786D01*
X81677Y627863D01*
X81681Y627942D01*
X81673Y628021D01*
X81652Y628097D01*
X81620Y628170D01*
X81577Y628236D01*
X81524Y628295D01*
X81462Y628344D01*
X81393Y628384D01*
X81319Y628412D01*
X81242Y628428D01*
X81163Y628432D01*
X81084Y628424D01*
X81007Y628403D01*
X80936Y628370D01*
X80693Y628247D01*
X80438Y628150D01*
X80176Y628077D01*
X79908Y628028D01*
X79636Y628003D01*
X79364D01*
X79092Y628028D01*
X78824Y628077D01*
X78562Y628150D01*
X78307Y628247D01*
X78063Y628367D01*
X77996Y628398D01*
Y633598D01*
X78064Y633630D01*
X78307Y633753D01*
X78562Y633850D01*
X78824Y633923D01*
X79092Y633972D01*
X79364Y633997D01*
X79636D01*
X79908Y633972D01*
X80176Y633923D01*
X80438Y633850D01*
X80693Y633753D01*
X80937Y633633D01*
X81009Y633600D01*
X81084Y633579D01*
X81163Y633571D01*
X81241Y633575D01*
X81318Y633591D01*
X81392Y633619D01*
X81460Y633658D01*
X81521Y633707D01*
X81574Y633766D01*
X81617Y633832D01*
X81649Y633904D01*
X81670Y633980D01*
X81678Y634058D01*
X81674Y634136D01*
X81658Y634213D01*
X81630Y634287D01*
X81591Y634355D01*
X81542Y634416D01*
X81483Y634469D01*
X81417Y634511D01*
X81092Y634674D01*
X80752Y634803D01*
X80402Y634901D01*
X80044Y634967D01*
X79682Y635000D01*
X79318D01*
X78956Y634967D01*
X78598Y634901D01*
X78248Y634803D01*
X77996Y634707D01*
Y688192D01*
X78000Y688191D01*
X78439Y688226D01*
X78868Y688329D01*
X79275Y688497D01*
X79651Y688728D01*
X79986Y689014D01*
X80272Y689349D01*
X80503Y689725D01*
X80671Y690132D01*
X80774Y690561D01*
X80800Y691000D01*
X80774Y691439D01*
X80671Y691868D01*
X80503Y692275D01*
X80272Y692651D01*
X79986Y692986D01*
X79651Y693272D01*
X79275Y693503D01*
X78868Y693671D01*
X78439Y693774D01*
X78000Y693809D01*
X77996Y693808D01*
Y833500D01*
G37*
G36*
X76216Y688841D02*X76349Y688728D01*
X76725Y688497D01*
X77132Y688329D01*
X77561Y688226D01*
X77996Y688192D01*
Y634707D01*
X77908Y634674D01*
X77581Y634515D01*
X77515Y634472D01*
X77456Y634419D01*
X77406Y634357D01*
X77367Y634288D01*
X77339Y634214D01*
X77323Y634137D01*
X77319Y634058D01*
X77327Y633979D01*
X77348Y633903D01*
X77380Y633830D01*
X77423Y633764D01*
X77476Y633705D01*
X77538Y633656D01*
X77607Y633616D01*
X77681Y633588D01*
X77758Y633572D01*
X77837Y633568D01*
X77916Y633576D01*
X77993Y633597D01*
X77996Y633598D01*
Y628398D01*
X77991Y628400D01*
X77915Y628421D01*
X77837Y628429D01*
X77759Y628425D01*
X77682Y628409D01*
X77608Y628381D01*
X77540Y628342D01*
X77479Y628293D01*
X77426Y628234D01*
X77383Y628168D01*
X77351Y628096D01*
X77330Y628020D01*
X77322Y627942D01*
X77326Y627864D01*
X77342Y627787D01*
X77370Y627713D01*
X77409Y627645D01*
X77458Y627584D01*
X77517Y627531D01*
X77583Y627489D01*
X77908Y627326D01*
X77996Y627293D01*
Y621471D01*
X77956Y621467D01*
X77598Y621401D01*
X77248Y621303D01*
X76908Y621174D01*
X76581Y621015D01*
X76515Y620972D01*
X76456Y620919D01*
X76406Y620857D01*
X76367Y620788D01*
X76339Y620714D01*
X76323Y620637D01*
X76319Y620558D01*
X76327Y620479D01*
X76348Y620403D01*
X76380Y620330D01*
X76423Y620264D01*
X76476Y620205D01*
X76538Y620156D01*
X76607Y620116D01*
X76681Y620088D01*
X76758Y620072D01*
X76837Y620068D01*
X76916Y620076D01*
X76993Y620097D01*
X77064Y620130D01*
X77307Y620253D01*
X77562Y620350D01*
X77824Y620423D01*
X77996Y620454D01*
Y614546D01*
X77824Y614577D01*
X77562Y614650D01*
X77307Y614747D01*
X77063Y614867D01*
X76991Y614900D01*
X76915Y614921D01*
X76837Y614929D01*
X76759Y614925D01*
X76682Y614909D01*
X76608Y614881D01*
X76540Y614842D01*
X76479Y614793D01*
X76426Y614734D01*
X76383Y614668D01*
X76351Y614596D01*
X76330Y614520D01*
X76322Y614442D01*
X76326Y614364D01*
X76342Y614287D01*
X76370Y614213D01*
X76409Y614145D01*
X76458Y614084D01*
X76517Y614031D01*
X76583Y613989D01*
X76908Y613826D01*
X77248Y613697D01*
X77598Y613599D01*
X77956Y613533D01*
X77996Y613529D01*
Y509500D01*
X76216D01*
Y628865D01*
X76286Y628839D01*
X76363Y628823D01*
X76442Y628819D01*
X76521Y628827D01*
X76597Y628848D01*
X76670Y628880D01*
X76736Y628923D01*
X76795Y628976D01*
X76844Y629038D01*
X76884Y629107D01*
X76912Y629181D01*
X76928Y629258D01*
X76932Y629337D01*
X76924Y629416D01*
X76903Y629493D01*
X76870Y629564D01*
X76747Y629807D01*
X76650Y630062D01*
X76577Y630324D01*
X76528Y630592D01*
X76503Y630864D01*
Y631136D01*
X76528Y631408D01*
X76577Y631676D01*
X76650Y631938D01*
X76747Y632193D01*
X76867Y632437D01*
X76900Y632509D01*
X76921Y632585D01*
X76929Y632663D01*
X76925Y632741D01*
X76909Y632818D01*
X76881Y632892D01*
X76842Y632960D01*
X76793Y633021D01*
X76734Y633074D01*
X76668Y633117D01*
X76596Y633149D01*
X76520Y633170D01*
X76442Y633178D01*
X76364Y633174D01*
X76287Y633158D01*
X76216Y633131D01*
Y688841D01*
G37*
G36*
Y833500D02*X77996D01*
Y693808D01*
X77561Y693774D01*
X77132Y693671D01*
X76725Y693503D01*
X76349Y693272D01*
X76216Y693159D01*
Y706019D01*
X76316Y706260D01*
X76463Y706872D01*
X76500Y707500D01*
X76463Y708128D01*
X76316Y708740D01*
X76216Y708981D01*
Y833500D01*
G37*
G36*
X75216Y690685D02*X75226Y690561D01*
X75329Y690132D01*
X75497Y689725D01*
X75728Y689349D01*
X76014Y689014D01*
X76216Y688841D01*
Y633131D01*
X76213Y633130D01*
X76145Y633091D01*
X76084Y633042D01*
X76031Y632983D01*
X75989Y632917D01*
X75826Y632592D01*
X75697Y632252D01*
X75599Y631902D01*
X75533Y631544D01*
X75500Y631182D01*
Y630818D01*
X75533Y630456D01*
X75599Y630098D01*
X75697Y629748D01*
X75826Y629408D01*
X75985Y629081D01*
X76028Y629015D01*
X76081Y628956D01*
X76143Y628906D01*
X76212Y628867D01*
X76216Y628865D01*
Y509500D01*
X75216D01*
Y615365D01*
X75286Y615339D01*
X75363Y615323D01*
X75442Y615319D01*
X75521Y615327D01*
X75597Y615348D01*
X75670Y615380D01*
X75736Y615423D01*
X75795Y615476D01*
X75844Y615538D01*
X75884Y615607D01*
X75912Y615681D01*
X75928Y615758D01*
X75932Y615837D01*
X75924Y615916D01*
X75903Y615993D01*
X75870Y616064D01*
X75747Y616307D01*
X75650Y616562D01*
X75577Y616824D01*
X75528Y617092D01*
X75503Y617364D01*
Y617636D01*
X75528Y617908D01*
X75577Y618176D01*
X75650Y618438D01*
X75747Y618693D01*
X75867Y618937D01*
X75900Y619009D01*
X75921Y619085D01*
X75929Y619163D01*
X75925Y619241D01*
X75909Y619318D01*
X75881Y619392D01*
X75842Y619460D01*
X75793Y619521D01*
X75734Y619574D01*
X75668Y619617D01*
X75596Y619649D01*
X75520Y619670D01*
X75442Y619678D01*
X75364Y619674D01*
X75287Y619658D01*
X75216Y619631D01*
Y690685D01*
G37*
G36*
X76216Y693159D02*X76014Y692986D01*
X75728Y692651D01*
X75497Y692275D01*
X75329Y691868D01*
X75226Y691439D01*
X75216Y691315D01*
Y704560D01*
X75337Y704663D01*
X75746Y705142D01*
X76075Y705678D01*
X76216Y706019D01*
Y693159D01*
G37*
G36*
X75216Y691315D02*X75191Y691000D01*
X75216Y690685D01*
Y619631D01*
X75213Y619630D01*
X75145Y619591D01*
X75084Y619542D01*
X75031Y619483D01*
X74989Y619417D01*
X74826Y619092D01*
X74697Y618752D01*
X74599Y618402D01*
X74533Y618044D01*
X74500Y617682D01*
Y617318D01*
X74533Y616956D01*
X74599Y616598D01*
X74697Y616248D01*
X74826Y615908D01*
X74985Y615581D01*
X75028Y615515D01*
X75081Y615456D01*
X75143Y615406D01*
X75212Y615367D01*
X75216Y615365D01*
Y509500D01*
X72494D01*
Y658211D01*
X72503Y658225D01*
X72671Y658632D01*
X72774Y659061D01*
X72800Y659500D01*
X72774Y659939D01*
X72671Y660368D01*
X72503Y660775D01*
X72494Y660789D01*
Y703488D01*
X72500Y703488D01*
X73128Y703537D01*
X73740Y703684D01*
X74322Y703925D01*
X74858Y704254D01*
X75216Y704560D01*
Y691315D01*
G37*
G36*
X72494Y833500D02*X76216D01*
Y708981D01*
X76075Y709322D01*
X75746Y709858D01*
X75337Y710337D01*
X74858Y710746D01*
X74322Y711075D01*
X73740Y711316D01*
X73128Y711463D01*
X72500Y711512D01*
X72494Y711512D01*
Y833500D01*
G37*
G36*
X62496D02*X72494D01*
Y711512D01*
X71872Y711463D01*
X71260Y711316D01*
X70678Y711075D01*
X70142Y710746D01*
X69663Y710337D01*
X69254Y709858D01*
X68925Y709322D01*
X68684Y708740D01*
X68537Y708128D01*
X68488Y707500D01*
X68537Y706872D01*
X68684Y706260D01*
X68925Y705678D01*
X69254Y705142D01*
X69663Y704663D01*
X70142Y704254D01*
X70678Y703925D01*
X71260Y703684D01*
X71872Y703537D01*
X72494Y703488D01*
Y660789D01*
X72272Y661151D01*
X71986Y661486D01*
X71651Y661772D01*
X71275Y662003D01*
X70868Y662171D01*
X70439Y662274D01*
X70000Y662309D01*
X69561Y662274D01*
X69132Y662171D01*
X68725Y662003D01*
X68349Y661772D01*
X68014Y661486D01*
X67728Y661151D01*
X67497Y660775D01*
X67329Y660368D01*
X67226Y659939D01*
X67191Y659500D01*
X67226Y659061D01*
X67329Y658632D01*
X67497Y658225D01*
X67728Y657849D01*
X68014Y657514D01*
X68349Y657228D01*
X68725Y656997D01*
X69132Y656829D01*
X69561Y656726D01*
X70000Y656691D01*
X70439Y656726D01*
X70868Y656829D01*
X71275Y656997D01*
X71651Y657228D01*
X71986Y657514D01*
X72272Y657849D01*
X72494Y658211D01*
Y509500D01*
X62496D01*
Y650739D01*
X62868Y650829D01*
X63275Y650997D01*
X63651Y651228D01*
X63986Y651514D01*
X64272Y651849D01*
X64503Y652225D01*
X64671Y652632D01*
X64774Y653061D01*
X64800Y653500D01*
X64774Y653939D01*
X64671Y654368D01*
X64503Y654775D01*
X64272Y655151D01*
X63986Y655486D01*
X63651Y655772D01*
X63275Y656003D01*
X62868Y656171D01*
X62496Y656261D01*
Y657138D01*
X62725Y656997D01*
X63132Y656829D01*
X63561Y656726D01*
X64000Y656691D01*
X64439Y656726D01*
X64868Y656829D01*
X65275Y656997D01*
X65651Y657228D01*
X65986Y657514D01*
X66272Y657849D01*
X66503Y658225D01*
X66671Y658632D01*
X66774Y659061D01*
X66800Y659500D01*
X66774Y659939D01*
X66671Y660368D01*
X66503Y660775D01*
X66272Y661151D01*
X65986Y661486D01*
X65651Y661772D01*
X65275Y662003D01*
X64868Y662171D01*
X64439Y662274D01*
X64000Y662309D01*
X63561Y662274D01*
X63132Y662171D01*
X62725Y662003D01*
X62496Y661862D01*
Y695692D01*
X62500Y695691D01*
X62939Y695726D01*
X63368Y695829D01*
X63775Y695997D01*
X64151Y696228D01*
X64486Y696514D01*
X64772Y696849D01*
X65003Y697225D01*
X65171Y697632D01*
X65274Y698061D01*
X65300Y698500D01*
X65274Y698939D01*
X65171Y699368D01*
X65003Y699775D01*
X64772Y700151D01*
X64486Y700486D01*
X64151Y700772D01*
X63775Y701003D01*
X63368Y701171D01*
X62939Y701274D01*
X62500Y701309D01*
X62496Y701308D01*
Y833500D01*
G37*
G36*
X55996D02*X62496D01*
Y701308D01*
X62061Y701274D01*
X61632Y701171D01*
X61225Y701003D01*
X60849Y700772D01*
X60514Y700486D01*
X60228Y700151D01*
X59997Y699775D01*
X59829Y699368D01*
X59726Y698939D01*
X59691Y698500D01*
X59726Y698061D01*
X59829Y697632D01*
X59997Y697225D01*
X60228Y696849D01*
X60514Y696514D01*
X60849Y696228D01*
X61225Y695997D01*
X61632Y695829D01*
X62061Y695726D01*
X62496Y695692D01*
Y661862D01*
X62349Y661772D01*
X62014Y661486D01*
X61728Y661151D01*
X61497Y660775D01*
X61329Y660368D01*
X61226Y659939D01*
X61191Y659500D01*
X61226Y659061D01*
X61329Y658632D01*
X61497Y658225D01*
X61728Y657849D01*
X62014Y657514D01*
X62349Y657228D01*
X62496Y657138D01*
Y656261D01*
X62439Y656274D01*
X62000Y656309D01*
X61561Y656274D01*
X61132Y656171D01*
X60725Y656003D01*
X60349Y655772D01*
X60014Y655486D01*
X59728Y655151D01*
X59497Y654775D01*
X59329Y654368D01*
X59226Y653939D01*
X59191Y653500D01*
X59226Y653061D01*
X59329Y652632D01*
X59497Y652225D01*
X59728Y651849D01*
X60014Y651514D01*
X60349Y651228D01*
X60725Y650997D01*
X61132Y650829D01*
X61561Y650726D01*
X62000Y650691D01*
X62439Y650726D01*
X62496Y650739D01*
Y509500D01*
X55996D01*
Y536002D01*
X57075Y536925D01*
X58455Y538540D01*
X59566Y540352D01*
X60379Y542315D01*
X60875Y544382D01*
X61000Y546500D01*
X60875Y548618D01*
X60379Y550685D01*
X59566Y552648D01*
X58455Y554460D01*
X57075Y556075D01*
X55996Y556998D01*
Y695692D01*
X56000Y695691D01*
X56439Y695726D01*
X56868Y695829D01*
X57275Y695997D01*
X57651Y696228D01*
X57986Y696514D01*
X58272Y696849D01*
X58503Y697225D01*
X58671Y697632D01*
X58774Y698061D01*
X58800Y698500D01*
X58774Y698939D01*
X58671Y699368D01*
X58503Y699775D01*
X58272Y700151D01*
X57986Y700486D01*
X57651Y700772D01*
X57275Y701003D01*
X56868Y701171D01*
X56439Y701274D01*
X56000Y701309D01*
X55996Y701308D01*
Y786002D01*
X57075Y786925D01*
X58455Y788540D01*
X59566Y790352D01*
X60379Y792315D01*
X60875Y794382D01*
X61000Y796500D01*
X60875Y798618D01*
X60379Y800685D01*
X59566Y802648D01*
X58455Y804460D01*
X57075Y806075D01*
X55996Y806998D01*
Y833500D01*
G37*
G36*
Y556998D02*X55460Y557455D01*
X53648Y558566D01*
X51685Y559379D01*
X49618Y559875D01*
X49496Y559885D01*
Y695692D01*
X49500Y695691D01*
X49939Y695726D01*
X50368Y695829D01*
X50775Y695997D01*
X51151Y696228D01*
X51486Y696514D01*
X51772Y696849D01*
X52003Y697225D01*
X52171Y697632D01*
X52274Y698061D01*
X52300Y698500D01*
X52274Y698939D01*
X52171Y699368D01*
X52003Y699775D01*
X51772Y700151D01*
X51486Y700486D01*
X51151Y700772D01*
X50775Y701003D01*
X50368Y701171D01*
X49939Y701274D01*
X49500Y701309D01*
X49496Y701308D01*
Y783115D01*
X49618Y783125D01*
X51685Y783621D01*
X53648Y784434D01*
X55460Y785545D01*
X55996Y786002D01*
Y701308D01*
X55561Y701274D01*
X55132Y701171D01*
X54725Y701003D01*
X54349Y700772D01*
X54014Y700486D01*
X53728Y700151D01*
X53497Y699775D01*
X53329Y699368D01*
X53226Y698939D01*
X53191Y698500D01*
X53226Y698061D01*
X53329Y697632D01*
X53497Y697225D01*
X53728Y696849D01*
X54014Y696514D01*
X54349Y696228D01*
X54725Y695997D01*
X55132Y695829D01*
X55561Y695726D01*
X55996Y695692D01*
Y556998D01*
G37*
G36*
Y509500D02*X49496D01*
Y533115D01*
X49618Y533125D01*
X51685Y533621D01*
X53648Y534434D01*
X55460Y535545D01*
X55996Y536002D01*
Y509500D01*
G37*
G36*
X49496Y833500D02*X55996D01*
Y806998D01*
X55460Y807455D01*
X53648Y808566D01*
X51685Y809379D01*
X49618Y809875D01*
X49496Y809885D01*
Y833500D01*
G37*
G36*
X42996Y533754D02*X43315Y533621D01*
X45382Y533125D01*
X47500Y532958D01*
X49496Y533115D01*
Y509500D01*
X42996D01*
Y533754D01*
G37*
G36*
Y783754D02*X43315Y783621D01*
X45382Y783125D01*
X47500Y782958D01*
X49496Y783115D01*
Y701308D01*
X49061Y701274D01*
X48632Y701171D01*
X48225Y701003D01*
X47849Y700772D01*
X47514Y700486D01*
X47228Y700151D01*
X46997Y699775D01*
X46829Y699368D01*
X46726Y698939D01*
X46691Y698500D01*
X46726Y698061D01*
X46829Y697632D01*
X46997Y697225D01*
X47228Y696849D01*
X47514Y696514D01*
X47849Y696228D01*
X48225Y695997D01*
X48632Y695829D01*
X49061Y695726D01*
X49496Y695692D01*
Y559885D01*
X47500Y560042D01*
X45382Y559875D01*
X43315Y559379D01*
X42996Y559246D01*
Y695692D01*
X43000Y695691D01*
X43439Y695726D01*
X43868Y695829D01*
X44275Y695997D01*
X44651Y696228D01*
X44986Y696514D01*
X45272Y696849D01*
X45503Y697225D01*
X45671Y697632D01*
X45774Y698061D01*
X45800Y698500D01*
X45774Y698939D01*
X45671Y699368D01*
X45503Y699775D01*
X45272Y700151D01*
X44986Y700486D01*
X44651Y700772D01*
X44275Y701003D01*
X43868Y701171D01*
X43439Y701274D01*
X43000Y701309D01*
X42996Y701308D01*
Y783754D01*
G37*
G36*
Y833500D02*X49496D01*
Y809885D01*
X47500Y810042D01*
X45382Y809875D01*
X43315Y809379D01*
X42996Y809246D01*
Y833500D01*
G37*
G36*
X34284Y543720D02*X34621Y542315D01*
X35434Y540352D01*
X36545Y538540D01*
X37925Y536925D01*
X39540Y535545D01*
X41352Y534434D01*
X42996Y533754D01*
Y509500D01*
X34284D01*
Y543720D01*
G37*
G36*
X37784Y787089D02*X37925Y786925D01*
X39540Y785545D01*
X41352Y784434D01*
X42996Y783754D01*
Y701308D01*
X42561Y701274D01*
X42132Y701171D01*
X41725Y701003D01*
X41349Y700772D01*
X41014Y700486D01*
X40728Y700151D01*
X40497Y699775D01*
X40329Y699368D01*
X40226Y698939D01*
X40191Y698500D01*
X40226Y698061D01*
X40329Y697632D01*
X40497Y697225D01*
X40728Y696849D01*
X41014Y696514D01*
X41349Y696228D01*
X41725Y695997D01*
X42132Y695829D01*
X42561Y695726D01*
X42996Y695692D01*
Y559246D01*
X41352Y558566D01*
X39540Y557455D01*
X37925Y556075D01*
X37784Y555911D01*
Y597369D01*
X37787Y597370D01*
X37855Y597409D01*
X37916Y597458D01*
X37969Y597517D01*
X38011Y597583D01*
X38174Y597908D01*
X38303Y598248D01*
X38401Y598598D01*
X38467Y598956D01*
X38500Y599318D01*
Y599682D01*
X38467Y600044D01*
X38401Y600402D01*
X38303Y600752D01*
X38174Y601092D01*
X38015Y601419D01*
X37972Y601485D01*
X37919Y601544D01*
X37857Y601594D01*
X37788Y601633D01*
X37784Y601635D01*
Y787089D01*
G37*
G36*
X34284Y793720D02*X34621Y792315D01*
X35434Y790352D01*
X36545Y788540D01*
X37784Y787089D01*
Y601635D01*
X37714Y601661D01*
X37637Y601677D01*
X37558Y601681D01*
X37479Y601673D01*
X37403Y601652D01*
X37330Y601620D01*
X37264Y601577D01*
X37205Y601524D01*
X37156Y601462D01*
X37116Y601393D01*
X37088Y601319D01*
X37072Y601242D01*
X37068Y601163D01*
X37076Y601084D01*
X37097Y601007D01*
X37130Y600936D01*
X37253Y600693D01*
X37350Y600438D01*
X37423Y600176D01*
X37472Y599908D01*
X37497Y599636D01*
Y599364D01*
X37472Y599092D01*
X37423Y598824D01*
X37350Y598562D01*
X37253Y598307D01*
X37133Y598063D01*
X37100Y597991D01*
X37079Y597916D01*
X37071Y597837D01*
X37075Y597759D01*
X37091Y597682D01*
X37119Y597608D01*
X37158Y597540D01*
X37207Y597479D01*
X37266Y597426D01*
X37332Y597383D01*
X37404Y597351D01*
X37480Y597330D01*
X37558Y597322D01*
X37636Y597326D01*
X37713Y597342D01*
X37784Y597369D01*
Y555911D01*
X36545Y554460D01*
X35434Y552648D01*
X34621Y550685D01*
X34284Y549280D01*
Y595503D01*
X34318Y595500D01*
X34682D01*
X35044Y595533D01*
X35402Y595599D01*
X35752Y595697D01*
X36092Y595826D01*
X36419Y595985D01*
X36485Y596028D01*
X36544Y596081D01*
X36594Y596143D01*
X36633Y596212D01*
X36661Y596286D01*
X36677Y596363D01*
X36681Y596442D01*
X36673Y596521D01*
X36652Y596597D01*
X36620Y596670D01*
X36577Y596736D01*
X36524Y596795D01*
X36462Y596844D01*
X36393Y596884D01*
X36319Y596912D01*
X36242Y596928D01*
X36163Y596932D01*
X36084Y596924D01*
X36007Y596903D01*
X35936Y596870D01*
X35693Y596747D01*
X35438Y596650D01*
X35176Y596577D01*
X34908Y596528D01*
X34636Y596503D01*
X34364D01*
X34284Y596510D01*
Y602490D01*
X34364Y602497D01*
X34636D01*
X34908Y602472D01*
X35176Y602423D01*
X35438Y602350D01*
X35693Y602253D01*
X35937Y602133D01*
X36009Y602100D01*
X36084Y602079D01*
X36163Y602071D01*
X36241Y602075D01*
X36318Y602091D01*
X36392Y602119D01*
X36460Y602158D01*
X36521Y602207D01*
X36574Y602266D01*
X36617Y602332D01*
X36649Y602404D01*
X36670Y602480D01*
X36678Y602558D01*
X36674Y602636D01*
X36658Y602713D01*
X36630Y602787D01*
X36591Y602855D01*
X36542Y602916D01*
X36483Y602969D01*
X36417Y603011D01*
X36092Y603174D01*
X35752Y603303D01*
X35402Y603401D01*
X35044Y603467D01*
X34682Y603500D01*
X34318D01*
X34284Y603497D01*
Y702869D01*
X34287Y702870D01*
X34355Y702909D01*
X34416Y702958D01*
X34469Y703017D01*
X34511Y703083D01*
X34674Y703408D01*
X34803Y703748D01*
X34901Y704098D01*
X34967Y704456D01*
X35000Y704818D01*
Y705182D01*
X34967Y705544D01*
X34901Y705902D01*
X34803Y706252D01*
X34674Y706592D01*
X34515Y706919D01*
X34472Y706985D01*
X34419Y707044D01*
X34357Y707094D01*
X34288Y707133D01*
X34284Y707135D01*
Y793720D01*
G37*
G36*
Y833500D02*X42996D01*
Y809246D01*
X41352Y808566D01*
X39540Y807455D01*
X37925Y806075D01*
X36545Y804460D01*
X35434Y802648D01*
X34621Y800685D01*
X34284Y799280D01*
Y833500D01*
G37*
G36*
X31002D02*X34284D01*
Y799280D01*
X34125Y798618D01*
X33958Y796500D01*
X34125Y794382D01*
X34284Y793720D01*
Y707135D01*
X34214Y707161D01*
X34137Y707177D01*
X34058Y707181D01*
X33979Y707173D01*
X33903Y707152D01*
X33830Y707120D01*
X33764Y707077D01*
X33705Y707024D01*
X33656Y706962D01*
X33616Y706893D01*
X33588Y706819D01*
X33572Y706742D01*
X33568Y706663D01*
X33576Y706584D01*
X33597Y706507D01*
X33630Y706436D01*
X33753Y706193D01*
X33850Y705938D01*
X33923Y705676D01*
X33972Y705408D01*
X33997Y705136D01*
Y704864D01*
X33972Y704592D01*
X33923Y704324D01*
X33850Y704062D01*
X33753Y703807D01*
X33633Y703563D01*
X33600Y703491D01*
X33579Y703416D01*
X33571Y703337D01*
X33575Y703259D01*
X33591Y703182D01*
X33619Y703108D01*
X33658Y703040D01*
X33707Y702979D01*
X33766Y702926D01*
X33832Y702883D01*
X33904Y702851D01*
X33980Y702830D01*
X34058Y702822D01*
X34136Y702826D01*
X34213Y702842D01*
X34284Y702869D01*
Y603497D01*
X33956Y603467D01*
X33598Y603401D01*
X33248Y603303D01*
X32908Y603174D01*
X32581Y603015D01*
X32515Y602972D01*
X32456Y602919D01*
X32406Y602857D01*
X32367Y602788D01*
X32339Y602714D01*
X32323Y602637D01*
X32319Y602558D01*
X32327Y602479D01*
X32348Y602403D01*
X32380Y602330D01*
X32423Y602264D01*
X32476Y602205D01*
X32538Y602156D01*
X32607Y602116D01*
X32681Y602088D01*
X32758Y602072D01*
X32837Y602068D01*
X32916Y602076D01*
X32993Y602097D01*
X33064Y602130D01*
X33307Y602253D01*
X33562Y602350D01*
X33824Y602423D01*
X34092Y602472D01*
X34284Y602490D01*
Y596510D01*
X34092Y596528D01*
X33824Y596577D01*
X33562Y596650D01*
X33307Y596747D01*
X33063Y596867D01*
X32991Y596900D01*
X32915Y596921D01*
X32837Y596929D01*
X32759Y596925D01*
X32682Y596909D01*
X32608Y596881D01*
X32540Y596842D01*
X32479Y596793D01*
X32426Y596734D01*
X32383Y596668D01*
X32351Y596596D01*
X32330Y596520D01*
X32322Y596442D01*
X32326Y596364D01*
X32342Y596287D01*
X32370Y596213D01*
X32409Y596145D01*
X32458Y596084D01*
X32517Y596031D01*
X32583Y595989D01*
X32908Y595826D01*
X33248Y595697D01*
X33598Y595599D01*
X33956Y595533D01*
X34284Y595503D01*
Y549280D01*
X34125Y548618D01*
X33958Y546500D01*
X34125Y544382D01*
X34284Y543720D01*
Y509500D01*
X31002D01*
Y597556D01*
X31028Y597515D01*
X31081Y597456D01*
X31143Y597406D01*
X31212Y597367D01*
X31286Y597339D01*
X31363Y597323D01*
X31442Y597319D01*
X31521Y597327D01*
X31597Y597348D01*
X31670Y597380D01*
X31736Y597423D01*
X31795Y597476D01*
X31844Y597538D01*
X31884Y597607D01*
X31912Y597681D01*
X31928Y597758D01*
X31932Y597837D01*
X31924Y597916D01*
X31903Y597993D01*
X31870Y598064D01*
X31747Y598307D01*
X31650Y598562D01*
X31577Y598824D01*
X31528Y599092D01*
X31503Y599364D01*
Y599636D01*
X31528Y599908D01*
X31577Y600176D01*
X31650Y600438D01*
X31747Y600693D01*
X31867Y600937D01*
X31900Y601009D01*
X31921Y601085D01*
X31929Y601163D01*
X31925Y601241D01*
X31909Y601318D01*
X31881Y601392D01*
X31842Y601460D01*
X31793Y601521D01*
X31734Y601574D01*
X31668Y601617D01*
X31596Y601649D01*
X31520Y601670D01*
X31442Y601678D01*
X31364Y601674D01*
X31287Y601658D01*
X31213Y601630D01*
X31145Y601591D01*
X31084Y601542D01*
X31031Y601483D01*
X31002Y601437D01*
Y701000D01*
X31182D01*
X31544Y701033D01*
X31902Y701099D01*
X32252Y701197D01*
X32592Y701326D01*
X32919Y701485D01*
X32985Y701528D01*
X33044Y701581D01*
X33094Y701643D01*
X33133Y701712D01*
X33161Y701786D01*
X33177Y701863D01*
X33181Y701942D01*
X33173Y702021D01*
X33152Y702097D01*
X33120Y702170D01*
X33077Y702236D01*
X33024Y702295D01*
X32962Y702344D01*
X32893Y702384D01*
X32819Y702412D01*
X32742Y702428D01*
X32663Y702432D01*
X32584Y702424D01*
X32507Y702403D01*
X32436Y702370D01*
X32193Y702247D01*
X31938Y702150D01*
X31676Y702077D01*
X31408Y702028D01*
X31136Y702003D01*
X31002D01*
Y707997D01*
X31136D01*
X31408Y707972D01*
X31676Y707923D01*
X31938Y707850D01*
X32193Y707753D01*
X32437Y707633D01*
X32509Y707600D01*
X32585Y707579D01*
X32663Y707571D01*
X32741Y707575D01*
X32818Y707591D01*
X32892Y707619D01*
X32960Y707658D01*
X33021Y707707D01*
X33074Y707766D01*
X33117Y707832D01*
X33149Y707904D01*
X33170Y707980D01*
X33178Y708058D01*
X33174Y708136D01*
X33158Y708213D01*
X33130Y708287D01*
X33091Y708355D01*
X33042Y708416D01*
X32983Y708469D01*
X32917Y708511D01*
X32592Y708674D01*
X32252Y708803D01*
X31902Y708901D01*
X31544Y708967D01*
X31182Y709000D01*
X31002D01*
Y833500D01*
G37*
G36*
X29284Y701388D02*X29408Y701326D01*
X29748Y701197D01*
X30098Y701099D01*
X30456Y701033D01*
X30818Y701000D01*
X31002D01*
Y601437D01*
X30989Y601417D01*
X30826Y601092D01*
X30697Y600752D01*
X30599Y600402D01*
X30533Y600044D01*
X30500Y599682D01*
Y599318D01*
X30533Y598956D01*
X30599Y598598D01*
X30697Y598248D01*
X30826Y597908D01*
X30985Y597581D01*
X31002Y597556D01*
Y509500D01*
X29284D01*
Y647869D01*
X29287Y647870D01*
X29355Y647909D01*
X29416Y647958D01*
X29469Y648017D01*
X29511Y648083D01*
X29674Y648408D01*
X29803Y648748D01*
X29901Y649098D01*
X29967Y649456D01*
X30000Y649818D01*
Y650182D01*
X29967Y650544D01*
X29901Y650902D01*
X29803Y651252D01*
X29674Y651592D01*
X29515Y651919D01*
X29472Y651985D01*
X29419Y652044D01*
X29357Y652094D01*
X29288Y652133D01*
X29284Y652135D01*
Y701388D01*
G37*
G36*
Y707570D02*X29337Y707568D01*
X29416Y707576D01*
X29493Y707597D01*
X29564Y707630D01*
X29807Y707753D01*
X30062Y707850D01*
X30324Y707923D01*
X30592Y707972D01*
X30864Y707997D01*
X31002D01*
Y702003D01*
X30864D01*
X30592Y702028D01*
X30324Y702077D01*
X30062Y702150D01*
X29807Y702247D01*
X29563Y702367D01*
X29491Y702400D01*
X29415Y702421D01*
X29337Y702429D01*
X29284Y702427D01*
Y707570D01*
G37*
G36*
Y833500D02*X31002D01*
Y709000D01*
X30818D01*
X30456Y708967D01*
X30098Y708901D01*
X29748Y708803D01*
X29408Y708674D01*
X29284Y708613D01*
Y833500D01*
G37*
G36*
X27716D02*X29284D01*
Y708613D01*
X29081Y708515D01*
X29015Y708472D01*
X28956Y708419D01*
X28906Y708357D01*
X28867Y708288D01*
X28839Y708214D01*
X28823Y708137D01*
X28819Y708058D01*
X28827Y707979D01*
X28848Y707903D01*
X28880Y707830D01*
X28923Y707764D01*
X28976Y707705D01*
X29038Y707656D01*
X29107Y707616D01*
X29181Y707588D01*
X29258Y707572D01*
X29284Y707570D01*
Y702427D01*
X29259Y702425D01*
X29182Y702409D01*
X29108Y702381D01*
X29040Y702342D01*
X28979Y702293D01*
X28926Y702234D01*
X28883Y702168D01*
X28851Y702096D01*
X28830Y702020D01*
X28822Y701942D01*
X28826Y701864D01*
X28842Y701787D01*
X28870Y701713D01*
X28909Y701645D01*
X28958Y701584D01*
X29017Y701531D01*
X29083Y701489D01*
X29284Y701388D01*
Y652135D01*
X29214Y652161D01*
X29137Y652177D01*
X29058Y652181D01*
X28979Y652173D01*
X28903Y652152D01*
X28830Y652120D01*
X28764Y652077D01*
X28705Y652024D01*
X28656Y651962D01*
X28616Y651893D01*
X28588Y651819D01*
X28572Y651742D01*
X28568Y651663D01*
X28576Y651584D01*
X28597Y651507D01*
X28630Y651436D01*
X28753Y651193D01*
X28850Y650938D01*
X28923Y650676D01*
X28972Y650408D01*
X28997Y650136D01*
Y649864D01*
X28972Y649592D01*
X28923Y649324D01*
X28850Y649062D01*
X28753Y648807D01*
X28633Y648563D01*
X28600Y648491D01*
X28579Y648416D01*
X28571Y648337D01*
X28575Y648259D01*
X28591Y648182D01*
X28619Y648108D01*
X28658Y648040D01*
X28707Y647979D01*
X28766Y647926D01*
X28832Y647883D01*
X28904Y647851D01*
X28980Y647830D01*
X29058Y647822D01*
X29136Y647826D01*
X29213Y647842D01*
X29284Y647869D01*
Y509500D01*
X27716D01*
Y646387D01*
X27919Y646485D01*
X27985Y646528D01*
X28044Y646581D01*
X28094Y646643D01*
X28133Y646712D01*
X28161Y646786D01*
X28177Y646863D01*
X28181Y646942D01*
X28173Y647021D01*
X28152Y647097D01*
X28120Y647170D01*
X28077Y647236D01*
X28024Y647295D01*
X27962Y647344D01*
X27893Y647384D01*
X27819Y647412D01*
X27742Y647428D01*
X27716Y647430D01*
Y652573D01*
X27741Y652575D01*
X27818Y652591D01*
X27892Y652619D01*
X27960Y652658D01*
X28021Y652707D01*
X28074Y652766D01*
X28117Y652832D01*
X28149Y652904D01*
X28170Y652980D01*
X28178Y653058D01*
X28174Y653136D01*
X28158Y653213D01*
X28130Y653287D01*
X28091Y653355D01*
X28042Y653416D01*
X27983Y653469D01*
X27917Y653511D01*
X27716Y653612D01*
Y702865D01*
X27786Y702839D01*
X27863Y702823D01*
X27942Y702819D01*
X28021Y702827D01*
X28097Y702848D01*
X28170Y702880D01*
X28236Y702923D01*
X28295Y702976D01*
X28344Y703038D01*
X28384Y703107D01*
X28412Y703181D01*
X28428Y703258D01*
X28432Y703337D01*
X28424Y703416D01*
X28403Y703493D01*
X28370Y703564D01*
X28247Y703807D01*
X28150Y704062D01*
X28077Y704324D01*
X28028Y704592D01*
X28003Y704864D01*
Y705136D01*
X28028Y705408D01*
X28077Y705676D01*
X28150Y705938D01*
X28247Y706193D01*
X28367Y706437D01*
X28400Y706509D01*
X28421Y706585D01*
X28429Y706663D01*
X28425Y706741D01*
X28409Y706818D01*
X28381Y706892D01*
X28342Y706960D01*
X28293Y707021D01*
X28234Y707074D01*
X28168Y707117D01*
X28096Y707149D01*
X28020Y707170D01*
X27942Y707178D01*
X27864Y707174D01*
X27787Y707158D01*
X27716Y707131D01*
Y833500D01*
G37*
G36*
X22716D02*X27716D01*
Y707131D01*
X27713Y707130D01*
X27645Y707091D01*
X27584Y707042D01*
X27531Y706983D01*
X27489Y706917D01*
X27326Y706592D01*
X27197Y706252D01*
X27099Y705902D01*
X27033Y705544D01*
X27000Y705182D01*
Y704818D01*
X27033Y704456D01*
X27099Y704098D01*
X27197Y703748D01*
X27326Y703408D01*
X27485Y703081D01*
X27528Y703015D01*
X27581Y702956D01*
X27643Y702906D01*
X27712Y702867D01*
X27716Y702865D01*
Y653612D01*
X27592Y653674D01*
X27252Y653803D01*
X26902Y653901D01*
X26544Y653967D01*
X26182Y654000D01*
X25818D01*
X25456Y653967D01*
X25098Y653901D01*
X24748Y653803D01*
X24408Y653674D01*
X24081Y653515D01*
X24015Y653472D01*
X23956Y653419D01*
X23906Y653357D01*
X23867Y653288D01*
X23839Y653214D01*
X23823Y653137D01*
X23819Y653058D01*
X23827Y652979D01*
X23848Y652903D01*
X23880Y652830D01*
X23923Y652764D01*
X23976Y652705D01*
X24038Y652656D01*
X24107Y652616D01*
X24181Y652588D01*
X24258Y652572D01*
X24337Y652568D01*
X24416Y652576D01*
X24493Y652597D01*
X24564Y652630D01*
X24807Y652753D01*
X25062Y652850D01*
X25324Y652923D01*
X25592Y652972D01*
X25864Y652997D01*
X26136D01*
X26408Y652972D01*
X26676Y652923D01*
X26938Y652850D01*
X27193Y652753D01*
X27437Y652633D01*
X27509Y652600D01*
X27585Y652579D01*
X27663Y652571D01*
X27716Y652573D01*
Y647430D01*
X27663Y647432D01*
X27584Y647424D01*
X27507Y647403D01*
X27436Y647370D01*
X27193Y647247D01*
X26938Y647150D01*
X26676Y647077D01*
X26408Y647028D01*
X26136Y647003D01*
X25864D01*
X25592Y647028D01*
X25324Y647077D01*
X25062Y647150D01*
X24807Y647247D01*
X24563Y647367D01*
X24491Y647400D01*
X24415Y647421D01*
X24337Y647429D01*
X24259Y647425D01*
X24182Y647409D01*
X24108Y647381D01*
X24040Y647342D01*
X23979Y647293D01*
X23926Y647234D01*
X23883Y647168D01*
X23851Y647096D01*
X23830Y647020D01*
X23822Y646942D01*
X23826Y646864D01*
X23842Y646787D01*
X23870Y646713D01*
X23909Y646645D01*
X23958Y646584D01*
X24017Y646531D01*
X24083Y646489D01*
X24408Y646326D01*
X24748Y646197D01*
X25098Y646099D01*
X25456Y646033D01*
X25818Y646000D01*
X26182D01*
X26544Y646033D01*
X26902Y646099D01*
X27252Y646197D01*
X27592Y646326D01*
X27716Y646387D01*
Y509500D01*
X22716D01*
Y647865D01*
X22786Y647839D01*
X22863Y647823D01*
X22942Y647819D01*
X23021Y647827D01*
X23097Y647848D01*
X23170Y647880D01*
X23236Y647923D01*
X23295Y647976D01*
X23344Y648038D01*
X23384Y648107D01*
X23412Y648181D01*
X23428Y648258D01*
X23432Y648337D01*
X23424Y648416D01*
X23403Y648493D01*
X23370Y648564D01*
X23247Y648807D01*
X23150Y649062D01*
X23077Y649324D01*
X23028Y649592D01*
X23003Y649864D01*
Y650136D01*
X23028Y650408D01*
X23077Y650676D01*
X23150Y650938D01*
X23247Y651193D01*
X23367Y651437D01*
X23400Y651509D01*
X23421Y651585D01*
X23429Y651663D01*
X23425Y651741D01*
X23409Y651818D01*
X23381Y651892D01*
X23342Y651960D01*
X23293Y652021D01*
X23234Y652074D01*
X23168Y652117D01*
X23096Y652149D01*
X23020Y652170D01*
X22942Y652178D01*
X22864Y652174D01*
X22787Y652158D01*
X22716Y652131D01*
Y833500D01*
G37*
G36*
X9000Y509500D02*Y833500D01*
X22716D01*
Y652131D01*
X22713Y652130D01*
X22645Y652091D01*
X22584Y652042D01*
X22531Y651983D01*
X22489Y651917D01*
X22326Y651592D01*
X22197Y651252D01*
X22099Y650902D01*
X22033Y650544D01*
X22000Y650182D01*
Y649818D01*
X22033Y649456D01*
X22099Y649098D01*
X22197Y648748D01*
X22326Y648408D01*
X22485Y648081D01*
X22528Y648015D01*
X22581Y647956D01*
X22643Y647906D01*
X22712Y647867D01*
X22716Y647865D01*
Y509500D01*
X9000D01*
G37*
G54D43*X407500Y796500D03*
Y546500D03*
X327500D03*
G54D42*G36*
X200750Y797250D02*Y791750D01*
X206250D01*
Y797250D01*
X200750D01*
G37*
G54D44*X223500Y794500D03*
G54D43*X47500Y796500D03*
X127500D03*
X327500D03*
X47500Y546500D03*
X127500D03*
G54D45*X88847Y687653D03*
X87500Y680500D03*
X78000Y691000D03*
X94500Y684000D03*
X98500Y679500D03*
X89500Y674500D03*
X49500Y698500D03*
X56000D03*
X62500D03*
X43000D03*
G54D46*X31000Y705000D03*
X26000Y650000D03*
X72500Y707500D03*
G54D45*X102000Y709000D03*
X86406Y668906D03*
X86279Y649221D03*
X93000Y649000D03*
X86500Y661000D03*
X92000Y657500D03*
G54D46*X92500Y609500D03*
G54D45*X70000Y659500D03*
G54D46*X79500Y631000D03*
X78500Y617500D03*
G54D45*X64000Y659500D03*
X62000Y653500D03*
G54D46*X34500Y599500D03*
X143000Y630000D03*
Y615000D03*
G54D45*X93000Y669000D03*
G54D46*X140000Y694500D03*
X160000D03*
G54D45*X102500Y684000D03*
X107000Y679500D03*
X182000Y701000D03*
X201500D03*
G54D46*X154000Y559000D03*
G54D45*X153000Y539500D03*
G54D46*X207000Y561000D03*
X190000Y547500D03*
X364500Y595000D03*
X366000Y612000D03*
X356000Y597000D03*
X345500Y603500D03*
X368000Y585000D03*
X331000Y605500D03*
X311000D03*
X345000Y588000D03*
X394000Y591000D03*
X330256Y614244D03*
X325000Y630000D03*
X355500Y626500D03*
X345000Y633500D03*
X380000Y641500D03*
X366500D03*
X311000Y622000D03*
G54D47*G54D48*G54D47*G54D48*G54D47*G54D48*G54D47*G54D48*G54D47*G54D48*G54D47*G54D48*G54D47*G54D48*G54D49*G54D50*G54D49*M02*
