G04 start of page 9 for group -4062 idx -4062 *
G04 Title: (unknown), soldermask *
G04 Creator: pcb 20110918 *
G04 CreationDate: Thu Dec 19 20:41:18 2013 UTC *
G04 For: fosse *
G04 Format: Gerber/RS-274X *
G04 PCB-Dimensions: 550000 350000 *
G04 PCB-Coordinate-Origin: lower left *
%MOIN*%
%FSLAX25Y25*%
%LNBOTTOMMASK*%
%ADD197R,0.0257X0.0257*%
%ADD196R,0.0258X0.0258*%
%ADD195R,0.0454X0.0454*%
%ADD194R,0.0336X0.0336*%
%ADD193R,0.0651X0.0651*%
%ADD192R,0.0848X0.0848*%
%ADD191R,0.0927X0.0927*%
%ADD190R,0.0297X0.0297*%
%ADD189R,0.0277X0.0277*%
%ADD188R,0.0297X0.0297*%
%ADD187R,0.2423X0.2423*%
%ADD186R,0.0651X0.0651*%
%ADD185R,0.3407X0.3407*%
%ADD184R,0.0966X0.0966*%
%ADD183R,0.0336X0.0336*%
%ADD182R,0.0435X0.0435*%
%ADD181R,0.0218X0.0218*%
%ADD180C,0.0651*%
%ADD179C,0.1062*%
%ADD178C,0.2560*%
%ADD177C,0.0554*%
%ADD176C,0.1360*%
%ADD175C,0.0604*%
%ADD174C,0.2760*%
G54D174*X186500Y207000D03*
G54D175*X213076Y242206D03*
G54D174*X239910Y106240D03*
G54D176*X327110Y52090D03*
X353110D03*
G54D177*X266485Y66444D03*
X213335D03*
G54D175*X159926Y242206D03*
G54D178*X59610Y288340D03*
G54D179*X379000Y52500D03*
G54D178*X59610Y38340D03*
G54D180*X430327Y86744D03*
Y126256D03*
X412610Y86744D03*
Y126256D03*
G54D178*X419610Y288340D03*
Y38340D03*
G54D181*X72545Y205540D02*X74513D01*
X72545Y207508D02*X74513D01*
X72545Y209477D02*X74513D01*
X72545Y211445D02*X74513D01*
X72545Y213414D02*X74513D01*
X72545Y215382D02*X74513D01*
X72545Y217351D02*X74513D01*
X72545Y219319D02*X74513D01*
X72545Y221288D02*X74513D01*
X72545Y223256D02*X74513D01*
X72545Y225225D02*X74513D01*
X72545Y227193D02*X74513D01*
X72545Y229162D02*X74513D01*
X72545Y231130D02*X74513D01*
X72545Y233099D02*X74513D01*
G54D182*X61619Y248158D02*Y246386D01*
G54D181*X72545Y235067D02*X74513D01*
G54D183*X65497Y243532D02*Y242744D01*
G54D181*X72545Y237036D02*X74513D01*
X72545Y242941D02*X74513D01*
X72545Y240973D02*X74513D01*
X72545Y239004D02*X74513D01*
G54D184*X67623Y252980D02*Y249043D01*
G54D185*X127000Y244937D02*Y237062D01*
G54D183*X65497Y205737D02*Y204949D01*
G54D182*X61619Y202095D02*Y200323D01*
G54D184*X67622Y199437D02*Y195500D01*
G54D186*X71284Y152610D02*Y147295D01*
X55536Y152610D02*Y147295D01*
X71284Y179185D02*Y173870D01*
X63410Y179185D02*Y173870D01*
X55536Y179185D02*Y173870D01*
X107284Y35110D02*Y29795D01*
X71284Y102185D02*Y96870D01*
Y75610D02*Y70295D01*
X63410Y102185D02*Y96870D01*
X55536Y102185D02*Y96870D01*
Y75610D02*Y70295D01*
X107284Y61685D02*Y56370D01*
X99410Y61685D02*Y56370D01*
X91536Y61685D02*Y56370D01*
Y35110D02*Y29795D01*
G54D187*X255000Y165453D02*Y159547D01*
G54D188*X320622Y200755D02*X328300D01*
G54D189*X320524Y209319D02*Y200657D01*
G54D183*X345505Y200165D02*Y197409D01*
X349836Y200165D02*Y197409D01*
X354166Y200165D02*Y197409D01*
G54D190*X252508Y85696D02*Y81640D01*
G54D188*X249359Y85696D02*Y81641D01*
G54D190*X217862Y85696D02*Y81640D01*
X221012Y85696D02*Y81640D01*
X224161Y85696D02*Y81640D01*
X227311Y85696D02*Y81640D01*
X230460Y85696D02*Y81640D01*
G54D188*X233611Y85696D02*Y81641D01*
G54D190*X236760Y85696D02*Y81640D01*
X239909Y85696D02*Y81640D01*
X243059Y85696D02*Y81640D01*
X246208Y85696D02*Y81640D01*
X261957Y85696D02*Y81640D01*
X258807Y85696D02*Y81640D01*
X255657Y85696D02*Y81640D01*
X261957Y66601D02*Y62546D01*
X258807Y66601D02*Y62546D01*
X255657Y66601D02*Y62546D01*
X252508Y66601D02*Y62546D01*
X217862Y66601D02*Y62546D01*
X221012Y66601D02*Y62546D01*
X224161Y66601D02*Y62546D01*
X227311Y66601D02*Y62546D01*
X230460Y66601D02*Y62546D01*
G54D188*X233611Y66601D02*Y62547D01*
G54D190*X236760Y66601D02*Y62546D01*
X239909Y66601D02*Y62546D01*
X243059Y66601D02*Y62546D01*
X246208Y66601D02*Y62546D01*
G54D188*X249359Y66601D02*Y62547D01*
G54D187*X360547Y85000D02*X366453D01*
G54D191*X411626Y111098D02*X412020D01*
G54D192*X423043Y107949D02*X425799D01*
G54D186*X391883Y264162D02*Y261012D01*
G54D193*X318654Y264162D02*Y261012D01*
G54D183*X338812Y200165D02*Y197409D01*
G54D194*X342158Y200164D02*Y197410D01*
G54D195*X392100Y229890D02*X392847D01*
X392100Y234890D02*X392847D01*
X392100Y239890D02*X392847D01*
X392100Y244890D02*X392847D01*
X392100Y249890D02*X392847D01*
X392100Y254890D02*X392847D01*
G54D196*X279943Y253402D02*Y248678D01*
G54D197*X281911Y243953D02*Y239228D01*
G54D183*X285848Y243559D02*Y239622D01*
G54D197*X277974Y243953D02*Y239228D01*
X274037Y243953D02*Y239228D01*
X270100Y243953D02*Y239228D01*
G54D183*X285848Y253008D02*Y249071D01*
G54D196*X276006Y253402D02*Y248678D01*
X272069Y253402D02*Y248678D01*
X268132Y253402D02*Y248678D01*
X264195Y253402D02*Y248678D01*
X260258Y253402D02*Y248678D01*
X256321Y253402D02*Y248678D01*
X252384Y253402D02*Y248678D01*
X248447Y253402D02*Y248678D01*
X244510Y253402D02*Y248678D01*
G54D183*X240572Y253008D02*Y249071D01*
G54D197*X266163Y243953D02*Y239228D01*
G54D196*X262226Y243953D02*Y239229D01*
X258289Y243953D02*Y239229D01*
X254352Y243953D02*Y239229D01*
X250415Y243953D02*Y239229D01*
X246478Y243953D02*Y239229D01*
G54D183*X240572Y243559D02*Y239622D01*
G54D190*X208548Y261458D02*Y257402D01*
X205398Y261458D02*Y257402D01*
X202248Y261458D02*Y257402D01*
X199099Y261458D02*Y257402D01*
G54D188*X195950Y261458D02*Y257403D01*
G54D190*X164453Y261458D02*Y257402D01*
X167603Y261458D02*Y257402D01*
X170752Y261458D02*Y257402D01*
X173902Y261458D02*Y257402D01*
X177051Y261458D02*Y257402D01*
G54D188*X180202Y261458D02*Y257403D01*
G54D190*X183351Y261458D02*Y257402D01*
X186500Y261458D02*Y257402D01*
X189650Y261458D02*Y257402D01*
X192799Y261458D02*Y257402D01*
X208548Y242363D02*Y238308D01*
X205398Y242363D02*Y238308D01*
X202248Y242363D02*Y238308D01*
X199099Y242363D02*Y238308D01*
G54D188*X195950Y242363D02*Y238309D01*
G54D190*X164453Y242363D02*Y238308D01*
X167603Y242363D02*Y238308D01*
X170752Y242363D02*Y238308D01*
X173902Y242363D02*Y238308D01*
X177051Y242363D02*Y238308D01*
G54D188*X180202Y242363D02*Y238309D01*
G54D190*X183351Y242363D02*Y238308D01*
X186500Y242363D02*Y238308D01*
X189650Y242363D02*Y238308D01*
X192799Y242363D02*Y238308D01*
G54D183*X358497Y200165D02*Y197409D01*
X362828Y200165D02*Y197409D01*
G54D194*X367158Y200164D02*Y197410D01*
G54D183*X371489Y200165D02*Y197409D01*
X375820Y200165D02*Y197409D01*
G54D188*X381252Y200755D02*X389126D01*
G54D191*X402571Y136689D02*X402965D01*
G54D185*X375500Y154438D02*Y146563D01*
G54D192*X423043Y139051D02*X425799D01*
G54D191*X400996Y119760D02*X401390D01*
G54D187*X413547Y166500D02*X419453D01*
M02*
