G04 start of page 4 for group 2 idx 2 *
G04 Title: (unknown), 4Sig *
G04 Creator: pcb 20110918 *
G04 CreationDate: Thu Dec 19 20:41:17 2013 UTC *
G04 For: fosse *
G04 Format: Gerber/RS-274X *
G04 PCB-Dimensions: 550000 350000 *
G04 PCB-Coordinate-Origin: lower left *
%MOIN*%
%FSLAX25Y25*%
%LNGROUP2*%
%ADD94C,0.0433*%
%ADD93C,0.0945*%
%ADD92C,0.1090*%
%ADD91C,0.1150*%
%ADD90C,0.0354*%
%ADD89C,0.1160*%
%ADD88C,0.0200*%
%ADD87C,0.0350*%
%ADD86C,0.0360*%
%ADD85C,0.0600*%
%ADD84C,0.0300*%
%ADD83C,0.0591*%
%ADD82C,0.2500*%
%ADD81C,0.0494*%
%ADD80C,0.1300*%
%ADD79C,0.0544*%
%ADD78C,0.2700*%
%ADD77C,0.0150*%
%ADD76C,0.0100*%
G54D76*X212000Y158500D02*X196500D01*
X187500Y167500D02*X196500Y158500D01*
X187500Y168000D02*Y167500D01*
X194500Y173500D02*X190000Y178000D01*
X194500Y171000D02*Y173500D01*
X216500Y140000D02*X220500Y144000D01*
X211000Y140000D02*X216500D01*
X195500Y137000D02*X218000D01*
X190000Y178000D02*X173500D01*
X234000Y199000D02*Y187000D01*
G54D77*X228000Y201000D02*Y151500D01*
G54D76*X220500Y192000D02*Y144000D01*
X217000Y148500D02*Y187000D01*
G54D77*X216500Y191500D02*X214500Y189500D01*
X216500Y195000D02*Y191500D01*
X214500Y197000D02*X216500Y195000D01*
G54D76*X235500Y124500D02*X238500Y127500D01*
X226000Y124500D02*X235500D01*
X223500Y127000D02*X226000Y124500D01*
X235500Y128000D02*X237500Y130000D01*
X233000Y128000D02*X235500D01*
X237500Y132000D02*X234500Y135000D01*
X263500Y182000D02*X265500Y184000D01*
X271000D02*Y188000D01*
X261000Y180000D02*Y187500D01*
X263500Y179500D02*Y182000D01*
X274000Y200500D02*X276000D01*
X261000Y187500D02*X274000Y200500D01*
X275500Y195000D02*Y186000D01*
Y195000D02*X277000Y196500D01*
X277910Y236039D02*X278009Y235940D01*
X256500Y139500D02*X262000Y134000D01*
X218000D02*X263500Y179500D01*
X206000Y119000D02*X271000Y184000D01*
X275500Y186000D02*X202000Y112500D01*
X200500Y108500D02*X279500Y187500D01*
X218000Y137000D02*X261000Y180000D01*
X157500Y185500D02*X146000D01*
X161000Y182000D02*X157500Y185500D01*
X161000Y182000D02*Y145500D01*
X150860Y250290D02*Y234490D01*
X153010Y249140D02*Y235340D01*
X155310Y248040D02*Y237540D01*
X166000Y134000D02*X218000D01*
X162000Y130000D02*X166000Y134000D01*
X181000Y136000D02*X183000Y138000D01*
X164082Y136082D02*X181000Y136000D01*
X160582Y132582D02*X164082Y136082D01*
X144500Y130000D02*X162000D01*
X146000Y132500D02*X160582Y132582D01*
X147500Y136500D02*X148000Y136000D01*
X147500Y146000D02*Y136500D01*
X150000Y139500D02*X153500Y136000D01*
X152500Y142500D02*X158750Y136250D01*
X150000Y147500D02*Y139500D01*
X152500Y148500D02*Y142500D01*
X144500Y156500D02*X152500Y148500D01*
G54D77*X214500Y189500D02*X147500D01*
G54D76*X167610Y240410D02*X173930Y234090D01*
X170710Y228440D02*X170733Y228463D01*
X167510Y234070D02*X167530Y234090D01*
X170710Y225340D02*Y228440D01*
X167310Y221940D02*X170710Y225340D01*
X163410Y221940D02*X167310D01*
X167510Y225040D02*Y234070D01*
X166410Y223940D02*X167510Y225040D01*
X164410Y223940D02*X166410D01*
X150860Y234490D02*X163410Y221940D01*
X153010Y235340D02*X164410Y223940D01*
X155310Y237540D02*X164410Y228440D01*
X208000Y130000D02*X177500Y99500D01*
X203000Y119000D02*X206000D01*
X200000Y116000D02*X203000Y119000D01*
X199000Y112500D02*X202000D01*
X193500Y107000D02*X199000Y112500D01*
X203500Y68000D02*Y55500D01*
G54D77*X177000Y26000D02*X210000D01*
X180000Y30000D02*X201500D01*
G54D76*X220410Y36240D02*Y26240D01*
X224449Y26279D02*Y37201D01*
X228410Y26288D02*X228386Y26264D01*
X228410Y35740D02*Y26288D01*
X225410Y38740D02*X228410Y35740D01*
X232323Y26327D02*X232300Y36400D01*
X233160Y38990D02*X236210Y35940D01*
Y26240D02*Y35940D01*
X217810Y60140D02*X215410Y57740D01*
X217810Y77740D02*Y60140D01*
X221010Y89140D02*Y59340D01*
X224110Y77740D02*Y56440D01*
X230460Y78790D02*Y57190D01*
X227310Y89140D02*Y56840D01*
X221010Y59340D02*X218910Y57240D01*
X224110Y56440D02*X223410Y55740D01*
X233610Y89140D02*Y57040D01*
X236710Y77740D02*Y62940D01*
X239910Y89140D02*Y64240D01*
X243010Y77740D02*Y66140D01*
X246210Y89140D02*Y66940D01*
X215410Y41240D02*X220410Y36240D01*
X224449Y37201D02*X218910Y42740D01*
X215410Y57740D02*Y41240D01*
X218910Y57240D02*Y42740D01*
X225410Y48740D02*Y38740D01*
X223410Y50740D02*X225410Y48740D01*
X227700Y41000D02*Y49000D01*
X232300Y36400D02*X227700Y41000D01*
X233160Y48990D02*Y38990D01*
X231410Y50740D02*X233160Y48990D01*
X223410Y55740D02*Y50740D01*
X230460Y57190D02*X231410Y56240D01*
X229410Y54740D02*X227310Y56840D01*
X229410Y50740D02*Y54740D01*
X227700Y49000D02*X229410Y50740D01*
X231410Y56240D02*Y50740D01*
X235410Y48740D02*Y42740D01*
X240910Y48740D02*Y43740D01*
X239410Y50240D02*X240910Y48740D01*
X237160Y50490D02*X235410Y48740D01*
X237160Y53490D02*Y50490D01*
X239410Y53740D02*Y50240D01*
X233610Y57040D02*X237160Y53490D01*
X240410Y54740D02*X239410Y53740D01*
X240410Y59240D02*Y54740D01*
X236710Y62940D02*X240410Y59240D01*
X239910Y64240D02*X244910Y59240D01*
X242910Y48740D02*Y45740D01*
X244910Y50740D02*X242910Y48740D01*
X244910Y59240D02*Y50740D01*
X246910Y62240D02*Y50740D01*
X243010Y66140D02*X246910Y62240D01*
X253910Y59240D02*Y51740D01*
X246210Y66940D02*X253910Y59240D01*
X235410Y42740D02*X240210Y37940D01*
Y26240D02*Y37940D01*
X244110Y26240D02*Y40540D01*
X248010Y26240D02*Y40640D01*
X249910Y44240D02*X251910Y42240D01*
X244110Y40540D02*X240910Y43740D01*
X242910Y45740D02*X248010Y40640D01*
X249910Y47740D02*Y44240D01*
X246910Y50740D02*X249910Y47740D01*
X251910Y26340D02*X252010Y26240D01*
X251910Y42240D02*Y26340D01*
X257410Y27640D02*X256010Y26240D01*
X257410Y48240D02*Y27640D01*
X253910Y51740D02*X257410Y48240D01*
X218500Y217500D02*X224000Y212000D01*
X225500Y215500D02*X232000Y209000D01*
G54D77*X232500Y204500D02*X214500D01*
X240000Y212000D02*X232500Y204500D01*
X240500Y212000D02*X240000D01*
X231000Y217000D02*X234500Y213500D01*
G54D76*X225500Y245500D02*Y215500D01*
X219500Y251500D02*X225500Y245500D01*
X207000Y251500D02*X219500D01*
X216000Y247000D02*X218500Y244500D01*
X204000Y247000D02*X216000D01*
X218500Y244500D02*Y217500D01*
G54D77*X205398Y234602D02*X214500Y225500D01*
X231000Y256500D02*Y217000D01*
X217500Y270000D02*X231000Y256500D01*
X202500Y270000D02*X217500D01*
X200710Y268210D02*X202500Y270000D01*
X200710Y264940D02*Y268210D01*
X214500Y225500D02*Y197000D01*
X211000Y210000D02*Y193500D01*
X198500Y222500D02*X211000Y210000D01*
X192000Y222500D02*X198500D01*
X189650Y224850D02*X192000Y222500D01*
X189650Y228350D02*Y224850D01*
G54D76*X183310Y228486D02*X183333Y228463D01*
X177010Y228486D02*X177033Y228463D01*
X186610Y234170D02*X186530Y234090D01*
X180210Y234110D02*X180230Y234090D01*
X186610Y241340D02*Y234170D01*
X183310Y243640D02*Y228486D01*
X177010Y237940D02*Y228486D01*
X180210Y249040D02*Y234110D01*
X183310Y252140D02*X180210Y249040D01*
X173910Y241040D02*X177010Y237940D01*
X173910Y249040D02*Y241040D01*
X167610Y249140D02*Y240410D01*
X170710Y252240D02*X167610Y249140D01*
X164010Y263440D02*X150860Y250290D01*
X166210Y262340D02*X153010Y249140D01*
X168910Y261640D02*X155310Y248040D01*
X192310Y247040D02*X186610Y241340D01*
X189410Y249740D02*X183310Y243640D01*
X189410Y260640D02*Y249740D01*
X192510Y263740D02*X189410Y260640D01*
X183310Y259440D02*Y252140D01*
X188610Y264740D02*X183310Y259440D01*
X192310Y258740D02*Y247040D01*
X196510Y262940D02*X192310Y258740D01*
X196510Y292740D02*Y262940D01*
X192510Y292740D02*Y263740D01*
X188610Y292740D02*Y264740D01*
X177010Y252140D02*X173910Y249040D01*
X177010Y259440D02*Y252140D01*
X184610Y267040D02*X177010Y259440D01*
X184610Y292740D02*Y267040D01*
X180710Y292740D02*Y269440D01*
X170710Y259440D02*Y252240D01*
X180710Y269440D02*X170710Y259440D01*
X164010Y295640D02*Y263440D01*
X166210Y293940D02*Y262340D01*
X166410Y298040D02*X164010Y295640D01*
X171510Y298040D02*X166410D01*
X176810Y292740D02*X171510Y298040D01*
X168110Y295840D02*X166210Y293940D01*
X169710Y295840D02*X168110D01*
X172810Y292740D02*X169710Y295840D01*
X168910Y292740D02*Y261640D01*
G54D77*X277000Y25500D02*X284500D01*
X290000Y31000D01*
X350500D02*X352500Y33000D01*
X290000Y31000D02*X350500D01*
G54D76*X348500Y122000D02*X337500Y111000D01*
X348500Y141500D02*Y122000D01*
X343250Y146750D02*X348500Y141500D01*
X340750Y146750D02*X343250D01*
X343500Y135000D02*Y139000D01*
X336000Y127500D02*X343500Y135000D01*
G54D77*X402500Y128500D02*Y85000D01*
G54D76*X337500Y111000D02*X275000D01*
X312500Y122000D02*X315500Y125000D01*
X312500Y116000D02*Y122000D01*
X311000Y114500D02*X312500Y116000D01*
X314000Y127500D02*X336000D01*
X303000Y116500D02*X314000Y127500D01*
X296000Y136000D02*X292000Y132000D01*
X300500Y136000D02*X296000D01*
X271500Y114500D02*X311000D01*
G54D77*X272500Y141000D02*X295000D01*
G54D76*X307000Y130500D02*X316000D01*
X296000Y119500D02*X307000Y130500D01*
X297000Y130000D02*X304500Y137500D01*
X306500Y133500D02*X319000D01*
X300500Y127500D02*X306500Y133500D01*
X282500Y134000D02*X262000D01*
X284500Y136000D02*X282500Y134000D01*
X290000Y136000D02*X284500D01*
X292500Y138500D02*X290000Y136000D01*
X298000Y138500D02*X292500D01*
X302000Y142500D02*X298000Y138500D01*
X238500Y127500D02*X300500D01*
X292000Y132000D02*X237500D01*
X263000Y119500D02*X296000D01*
X237500Y130000D02*X297000D01*
X261000Y117500D02*X263000Y119500D01*
X261000Y115000D02*Y117500D01*
X264000Y112000D02*X261000Y115000D01*
X264000Y111500D02*Y112000D01*
X268500Y111500D02*X271500Y114500D01*
X264500Y111500D02*X268500D01*
X264500Y116500D02*X303000D01*
X305000Y140500D02*X300500Y136000D01*
X320000Y140500D02*X305000D01*
X324500Y137500D02*X328500Y141500D01*
X304500Y137500D02*X324500D01*
G54D77*X317000Y150500D02*X319000Y152500D01*
X318500Y146500D02*X321000Y147500D01*
X290000Y150500D02*X317000D01*
X288500Y149000D02*X290000Y150500D01*
X280000Y149000D02*X288500D01*
X300500Y146500D02*X318500D01*
X295000Y141000D02*X300500Y146500D01*
G54D76*X279500Y187500D02*X308000D01*
X293500Y196500D02*X309000Y212000D01*
X277000Y196500D02*X293500D01*
G54D77*X284000Y232600D02*X281870Y230470D01*
G54D76*X281910Y230510D02*X281870Y230470D01*
G54D77*X358500Y201500D02*X363000Y206000D01*
X332000Y201500D02*X358500D01*
X326500Y196000D02*X332000Y201500D01*
X281954Y283546D02*X284000Y281500D01*
X282000Y297700D02*X281954Y283546D01*
X276000Y264500D02*X272000Y260500D01*
X276000Y281500D02*Y264500D01*
X274080Y283420D02*X276000Y281500D01*
X268000D02*Y264500D01*
X266180Y283320D02*X268000Y281500D01*
X264000Y260500D02*X268000Y264500D01*
X274100Y297700D02*X274080Y283420D01*
X266200Y297700D02*X266180Y283320D01*
G54D76*X274030Y297630D02*X274100Y297700D01*
X266130Y297630D02*X266200Y297700D01*
G54D77*X258300D02*X258280Y283220D01*
G54D76*X262110Y292740D02*X262140Y292770D01*
X262210Y292700D02*X262180Y292730D01*
X258230Y297630D02*X258300Y297700D01*
G54D77*X250575Y297525D02*X250555Y283445D01*
G54D76*X254410Y292700D02*X254380Y292730D01*
X250430Y297670D02*X250400Y297700D01*
G54D77*X284000Y281500D02*Y232600D01*
X274000Y230520D02*X273950Y230470D01*
X274000Y237500D02*Y230520D01*
X272000Y239500D02*X274000Y237500D01*
X266230Y237270D02*X264000Y239500D01*
X266230Y230470D02*Y237270D01*
X272000Y260500D02*Y239500D01*
X264000D02*Y260500D01*
X256500Y240000D02*Y260000D01*
X260000Y263500D02*X256500Y260000D01*
X260000Y281500D02*Y263500D01*
X258280Y283220D02*X260000Y281500D01*
X252500D02*Y264500D01*
X250555Y283445D02*X252500Y281500D01*
X258320Y238180D02*X256500Y240000D01*
X248500D02*X250500Y238000D01*
X248500Y260500D02*Y240000D01*
X252500Y264500D02*X248500Y260500D01*
X258320Y230470D02*Y238180D01*
X250500Y230490D02*X250480Y230470D01*
X250500Y238000D02*Y230490D01*
X169500Y33500D02*X177000Y26000D01*
X169500Y45500D02*Y33500D01*
X174000Y36000D02*X180000Y30000D01*
X174000Y46500D02*Y36000D01*
X161500Y59000D02*X174000Y46500D01*
X157500Y57500D02*X169500Y45500D01*
G54D76*X159000Y99500D02*X177500D01*
X164500Y47000D02*Y43500D01*
G54D77*X151500Y75000D02*X161500Y65000D01*
X150000Y71500D02*X157500Y64000D01*
G54D76*X148000Y68500D02*X151500Y65000D01*
G54D77*X161500D02*Y59000D01*
X157500Y64000D02*Y57500D01*
G54D76*X146500Y65000D02*X164500Y47000D01*
G54D77*X137500Y75000D02*X151500D01*
X139500Y71500D02*X150000D01*
X137000Y74500D02*X137500Y75000D01*
X132000Y78000D02*X135500Y74500D01*
G54D76*X129500Y81500D02*Y70000D01*
X132500Y67000D02*X129500Y70000D01*
X141000Y67000D02*X132500D01*
X142500Y68500D02*X141000Y67000D01*
G54D77*X129000Y64000D02*X136000D01*
X143000Y57000D02*X148000D01*
X136000Y64000D02*X143000Y57000D01*
G54D76*X142500Y68500D02*X148000D01*
X145000Y65000D02*X146500D01*
G54D77*X135500Y74500D02*X137000D01*
X72500Y64000D02*Y58500D01*
G54D76*X77500Y57500D02*Y63000D01*
X73000Y53000D02*X77500Y57500D01*
X126130Y84870D02*X129500Y81500D01*
X126130Y98630D02*Y84870D01*
G54D77*X95500Y85000D02*X100000Y80500D01*
X85500Y85000D02*X95500D01*
X80500Y90000D02*X85500Y85000D01*
X50000Y86500D02*X72500Y64000D01*
G54D76*X49000Y53000D02*X73000D01*
X46000Y56000D02*X49000Y53000D01*
G54D77*X132000Y98500D02*Y78000D01*
G54D76*X117000Y126000D02*X120500Y122500D01*
X114000Y126000D02*X117000D01*
X113000Y125000D02*X114000Y126000D01*
X107500Y125000D02*X113000D01*
X104500Y128000D02*X107500Y125000D01*
G54D77*X115878Y122272D02*X106228D01*
G54D76*X81500Y128000D02*X104500D01*
G54D77*X103500Y125000D02*X84000D01*
X106228Y122272D02*X103500Y125000D01*
X50000Y122000D02*Y86500D01*
X58500Y130500D02*X50000Y122000D01*
X93500Y101000D02*X85000D01*
G54D76*X46000Y173500D02*Y56000D01*
X72000Y156500D02*Y137500D01*
X75000Y159500D02*X72000Y156500D01*
X78000Y159500D02*X75000D01*
X90000Y168600D02*X102100Y156500D01*
X92500Y170300D02*X104000Y158800D01*
X95000Y171300D02*X105300Y161000D01*
G54D77*X58500Y139500D02*Y130500D01*
X92760Y141740D02*X87000Y147500D01*
G54D76*X72000Y137500D02*X81500Y128000D01*
G54D77*X80500Y121500D02*Y90000D01*
X84000Y125000D02*X80500Y121500D01*
G54D76*X142500Y122500D02*X148500Y116500D01*
X120500Y122500D02*X142500D01*
X141500Y133000D02*X144500Y130000D01*
X141500Y152000D02*X147500Y146000D01*
X135000Y152000D02*X141500D01*
X130500Y156500D02*X135000Y152000D01*
X102100Y156500D02*X130500D01*
X136900Y154000D02*X143500D01*
X104000Y158800D02*X132100D01*
X134000Y161000D02*X138500Y156500D01*
X105300Y161000D02*X134000D01*
G54D77*X116910Y141740D02*X92760D01*
G54D76*X119000Y170500D02*X115000Y174500D01*
X123000Y170500D02*X119000D01*
X125500Y173000D02*X123000Y170500D01*
X151000Y173000D02*X125500D01*
X138000Y176500D02*X156500D01*
X138500Y156500D02*X144500D01*
X101100Y154000D02*X129000D01*
X87500Y167600D02*X101100Y154000D01*
X132100Y158800D02*X136900Y154000D01*
X131910Y145240D02*X139760D01*
X133000Y150000D02*X139000D01*
X129000Y154000D02*X133000Y150000D01*
X141500Y143500D02*Y133000D01*
X139760Y145240D02*X141500Y143500D01*
X144500Y134000D02*X146000Y132500D01*
X144500Y144500D02*Y134000D01*
X139000Y150000D02*X144500Y144500D01*
X143500Y154000D02*X150000Y147500D01*
X48000Y175500D02*X46000Y173500D01*
X62500Y175500D02*X48000D01*
X65000Y178000D02*X62500Y175500D01*
X65000Y181000D02*Y178000D01*
X90000Y188500D02*Y168600D01*
X87500Y187500D02*Y167600D01*
X76000Y199000D02*X87500Y187500D01*
X70500Y199000D02*X76000D01*
X72000Y201500D02*X77000D01*
X86410Y197740D02*Y197590D01*
X69500Y185500D02*X65000Y181000D01*
X72500Y185500D02*X69500D01*
X58760Y210740D02*X70500Y199000D01*
X65910Y207590D02*X72000Y201500D01*
X65910Y210740D02*Y207590D01*
X63910Y217240D02*X75260D01*
X46410Y210740D02*X58760D01*
X77000Y201500D02*X90000Y188500D01*
X86410Y197590D02*X92500Y191500D01*
G54D77*X129500Y192500D02*X103500D01*
X147500Y189500D02*X144500Y192500D01*
G54D76*X146000Y185500D02*X140500Y191000D01*
X133000Y188500D02*X132000Y187500D01*
X135500D02*X134500Y186500D01*
X115000Y174500D02*Y175500D01*
X114000Y176500D01*
G54D77*X101000Y190000D02*Y170000D01*
X103500Y192500D02*X101000Y190000D01*
G54D76*X95000Y194650D02*X92410Y197240D01*
X95000Y171300D02*Y194650D01*
X92500Y191500D02*Y170300D01*
X136500Y181500D02*X152500D01*
X140500Y191000D02*Y203500D01*
X133000Y200000D02*Y188500D01*
X135500Y201500D02*Y187500D01*
X138000Y202500D02*Y185000D01*
X132000Y182500D02*X138000Y176500D01*
X132000Y187500D02*Y182500D01*
X134500Y183500D02*X136500Y181500D01*
X134500Y186500D02*Y183500D01*
X116500Y215500D02*X110500Y221500D01*
X128500Y215500D02*X116500D01*
X140500Y203500D02*X128500Y215500D01*
X125500Y207500D02*X133000Y200000D01*
X126500Y210500D02*X135500Y201500D01*
X106500Y207500D02*X125500D01*
X105000Y209000D02*X106500Y207500D01*
X107000Y210500D02*X126500D01*
X106000Y211500D02*X107000Y210500D01*
X127500Y213000D02*X138000Y202500D01*
X108000Y213000D02*X127500D01*
X107000Y214000D02*X108000Y213000D01*
X106910Y218740D02*X108910Y216740D01*
X103500Y221500D02*X110500D01*
X97000Y228000D02*X103500Y221500D01*
X93000Y228000D02*X97000D01*
X92240Y227240D02*X93000Y228000D01*
X87410Y227240D02*X92240D01*
X86910Y223240D02*X94910D01*
X83500Y209000D02*X105000D01*
X75260Y217240D02*X83500Y209000D01*
X85000Y211500D02*X106000D01*
X92000Y214000D02*X107000D01*
X88500Y217500D02*X92000Y214000D01*
X91910Y218740D02*X106910D01*
X71000Y225500D02*X85000Y211500D01*
X88500Y219500D02*Y217500D01*
X86760Y221240D02*X88500Y219500D01*
X80410Y221240D02*X86760D01*
X79910Y230240D02*X86910Y223240D01*
X71410Y230240D02*X79910D01*
X67500Y225500D02*X71000D01*
X65410Y227590D02*X67500Y225500D01*
X65410Y230240D02*Y227590D01*
X66910Y234740D02*X71410Y230240D01*
X60410Y234740D02*X66910D01*
X54910Y240240D02*X60410Y234740D01*
X54910Y252240D02*Y240240D01*
G54D78*X186500Y207000D03*
G54D79*X213076Y242206D03*
G54D78*X239910Y106240D03*
G54D80*X327110Y52090D03*
X353110D03*
G54D81*X266485Y66444D03*
X213335D03*
G54D79*X159926Y242206D03*
G54D82*X59610Y288340D03*
Y38340D03*
G54D83*X430327Y86744D03*
Y126256D03*
X412610Y86744D03*
Y126256D03*
G54D82*X419610Y288340D03*
Y38340D03*
G54D84*X276500Y73000D03*
X277000Y25500D03*
X283000Y31000D03*
X352500Y33000D03*
X256250Y97250D03*
X275000Y111000D03*
X264500Y116500D03*
Y111500D03*
G54D85*X310500Y87000D03*
X307000Y101000D03*
G54D84*X303000Y122000D03*
X309000Y117500D03*
G54D85*X381000Y106000D03*
X387000Y83500D03*
G54D84*X402500Y85000D03*
X258810Y89140D03*
X252510D03*
X249310Y77740D03*
X246210Y89140D03*
X243010Y77740D03*
X239910Y89140D03*
X236710Y77740D03*
X233610Y89140D03*
X230410Y77740D03*
X227310Y89140D03*
X221010D03*
X224110Y77740D03*
X217810D03*
X393500Y44000D03*
Y49500D03*
X388000Y44000D03*
X365000Y60000D03*
X371000Y60500D03*
X431457D03*
X267300Y49800D03*
X258010Y51940D03*
X266210Y57840D03*
X254010Y47440D03*
X250110Y51940D03*
X246110Y47440D03*
X242210Y51940D03*
X238210Y47440D03*
X234410Y51940D03*
X226410D03*
X230410Y47440D03*
X222410D03*
X256010Y26240D03*
X252010D03*
X248010D03*
X244110D03*
X240210D03*
X236210D03*
X232410D03*
X228386Y26264D03*
X224449Y26279D03*
X220410Y26240D03*
X132000Y98500D03*
X139500Y71500D03*
X129000Y64000D03*
X128500Y56500D03*
X126130Y98630D03*
G54D85*X121910Y70740D03*
X123000Y29500D03*
G54D84*X103000Y46000D03*
X148000Y57000D03*
X159000Y99500D03*
X151500Y65000D03*
X145000D03*
G54D85*X172410Y76240D03*
Y91240D03*
G54D84*X155500Y29500D03*
X154000Y51500D03*
X164500Y43500D03*
X104500Y85000D03*
G54D85*X107910Y78740D03*
X108910Y92240D03*
G54D84*X203500Y55500D03*
Y68000D03*
X180095Y56000D03*
X192095D03*
X210000Y26000D03*
X201500Y30000D03*
X212000Y158500D03*
X211000Y140000D03*
G54D85*X209000Y166000D03*
G54D84*X208000Y130000D03*
X200000Y116000D03*
X191500Y84500D03*
X193500Y107000D03*
X195500Y137000D03*
X183000Y138000D03*
G54D85*X189410Y155740D03*
G54D84*X87500Y43000D03*
X74000Y49500D03*
X78500Y45000D03*
X93500Y101000D03*
X91410Y114740D03*
X93410Y120740D03*
X99410D03*
X99500Y99500D03*
X115816Y130146D03*
G54D86*X115910Y122240D03*
X115689Y110461D03*
G54D84*X72500Y58500D03*
X78500Y81500D03*
X85000Y101000D03*
X77500Y63000D03*
G54D85*X63910Y60740D03*
X55410Y111240D03*
G54D84*X100000Y80500D03*
X93000D03*
X121410Y118740D03*
X131910Y145240D03*
X127910Y140740D03*
X123910Y145240D03*
G54D86*X122410Y130240D03*
G54D84*X148500Y116500D03*
X166000Y128500D03*
X118910Y135740D03*
X116500Y100500D03*
X122500Y104500D03*
G54D86*X122410Y110240D03*
G54D84*X116910Y141740D03*
X136410Y140740D03*
X118257Y148893D03*
X148000Y136000D03*
X153500D03*
X158750Y136250D03*
X161000Y145500D03*
G54D85*X169410Y155740D03*
G54D84*X187500Y168000D03*
X171000Y169500D03*
X173500Y178000D03*
X183000Y171800D03*
X194500Y171000D03*
X151000Y173000D03*
X156500Y176500D03*
X152500Y181500D03*
X144500Y192500D03*
X129500D03*
X122500Y185500D03*
X138000Y185000D03*
X234000Y187000D03*
X248000D03*
G54D85*X236000Y166000D03*
G54D84*X217000Y187000D03*
Y148500D03*
X228000Y151500D03*
X220500Y144000D03*
X223500Y127000D03*
X233000Y128000D03*
X234500Y135000D03*
X189000Y137500D03*
X200500Y108500D03*
X234000Y199000D03*
X234500Y213500D03*
X228000Y201000D03*
X224000Y212000D03*
X232000Y209000D03*
X240500Y212000D03*
X220500Y192000D03*
X211000Y193500D03*
X205398Y234602D03*
X202248Y228752D03*
X199099Y234401D03*
X195950Y228550D03*
X189650Y228350D03*
X164410Y228440D03*
X170733Y228463D03*
X177033D03*
X183333D03*
X192799Y234201D03*
X167530Y234090D03*
X173930D03*
X180230D03*
X186530D03*
X246435Y235940D03*
X250480Y230470D03*
X250400Y297700D03*
X246480Y292730D03*
X244510Y258140D03*
X248400Y266200D03*
X252410Y258140D03*
X204000Y247000D03*
X207000Y251500D03*
X200710Y264940D03*
X207010D03*
X164410Y247540D03*
X170702Y247548D03*
X167630Y253690D03*
X173930D03*
X177002Y247548D03*
X183302D03*
X180230Y253690D03*
X186430D03*
X196510Y292740D03*
X192510D03*
X188610D03*
X184610D03*
X180710D03*
X176810D03*
X172810D03*
X168910D03*
X80410Y249240D03*
X55500Y257500D03*
G54D85*X74910Y274240D03*
X119500Y276500D03*
G54D84*X88410Y242240D03*
X94910Y255740D03*
X54910Y252240D03*
X58500Y139500D03*
X87000Y147500D03*
X78000Y159500D03*
X80000Y183000D03*
X114000Y188000D03*
Y176500D03*
Y182000D03*
X101000Y170000D03*
X112500Y171000D03*
G54D86*X120000Y175000D03*
G54D85*X60410Y166240D03*
G54D84*X46000Y185000D03*
X46500Y217000D03*
Y191500D03*
Y231500D03*
X46410Y210740D03*
X72500Y185500D03*
X78457Y173457D03*
X79910Y207740D03*
X65910Y210740D03*
X86410Y197740D03*
X92410Y197240D03*
X65410Y230240D03*
X52410Y186240D03*
X113500Y202000D03*
X108910Y216740D03*
X91910Y218740D03*
X94910Y223240D03*
X85410Y217740D03*
X87410Y227240D03*
X80410Y221240D03*
X63910Y217240D03*
X83910Y233240D03*
X321000Y147500D03*
X320000Y140500D03*
X319000Y133500D03*
X328500Y141500D03*
G54D85*X319000Y162500D03*
G54D84*Y152500D03*
X329000Y150500D03*
G54D85*X333500Y228500D03*
G54D84*X326500Y196000D03*
X325500Y212000D03*
G54D85*X313000Y256000D03*
X302000D03*
G54D84*X308000Y187500D03*
X309000Y212000D03*
X301500Y193500D03*
G54D85*X338000Y89500D03*
G54D84*X354500Y126000D03*
G54D85*X392000Y121500D03*
G54D84*X402500Y128500D03*
X323500Y123500D03*
X328500Y133500D03*
X341000Y147000D03*
X343500Y139000D03*
G54D85*X424500Y97000D03*
X423000Y83000D03*
G54D84*X256500Y139500D03*
X280000Y149000D03*
X272500Y141000D03*
X302000Y142500D03*
X293500Y156000D03*
X276000Y200500D03*
X271000Y188000D03*
X265500Y184000D03*
X282500Y183500D03*
X282000Y203500D03*
X263500Y206500D03*
X254309Y235940D03*
X258320Y230470D03*
X266230D03*
X273950D03*
X281870D03*
X262226Y235958D03*
X270109Y235940D03*
X278009D03*
X279900Y266200D03*
X272100D03*
X275958Y258140D03*
X264200Y266200D03*
X268158Y258140D03*
X256300Y266200D03*
X260210Y258140D03*
X282000Y297700D03*
X277954Y292730D03*
X274100Y297700D03*
X270080Y292730D03*
X266200Y297700D03*
X262180Y292730D03*
X254380D03*
G54D85*X363750Y279250D03*
X373750D03*
X396250D03*
X386750D03*
G54D84*X258300Y297700D03*
X354500Y160000D03*
G54D85*X354000Y188500D03*
X339000D03*
G54D84*X358500Y210000D03*
X371500Y206000D03*
X367000Y210000D03*
X363000Y206000D03*
X339000Y207000D03*
X345500Y209000D03*
G54D85*X426000Y189500D03*
G54D84*X421500Y231000D03*
Y217500D03*
G54D85*X383500Y177000D03*
X390500Y185000D03*
G54D84*X389000Y217500D03*
G54D85*X406000Y186500D03*
Y207500D03*
G54D84*X400500Y231000D03*
X410500D03*
G54D77*G54D87*G54D77*G54D87*G54D77*G54D87*G54D77*G54D87*G54D77*G54D87*G54D77*G54D87*G54D77*G54D87*G54D77*G54D88*G54D77*G54D87*G54D77*G54D88*G54D77*G54D88*G54D77*G54D87*G54D77*G54D87*G54D77*G54D87*G54D77*G54D88*G54D87*G54D77*G54D87*G54D77*G54D87*G54D77*G54D87*G54D77*G54D87*G54D77*G54D87*G54D77*G54D87*G54D77*G54D87*G54D77*G54D87*G54D77*G54D87*G54D77*G54D87*G54D77*G54D87*G54D77*G54D89*G54D90*G54D89*G54D91*G54D90*G54D92*G54D93*G54D92*G54D94*G54D92*M02*
