G04 start of page 11 for group -4078 idx -4078 *
G04 Title: (unknown), bottomsilk *
G04 Creator: pcb 20110918 *
G04 CreationDate: Tue Nov 19 22:18:25 2013 UTC *
G04 For: fosse *
G04 Format: Gerber/RS-274X *
G04 PCB-Dimensions: 550000 700000 *
G04 PCB-Coordinate-Origin: lower left *
%MOIN*%
%FSLAX25Y25*%
%LNBOTTOMSILK*%
%ADD190C,0.0100*%
G54D190*X250831Y412918D02*X193351D01*
X193350Y428431D01*
X197287Y432368D02*X246893D01*
X250830Y428431D02*X250831Y412918D01*
X250830Y428431D02*X246893Y432368D01*
X193350Y428431D02*X197287Y432368D01*
X252523Y430164D02*X248193Y434494D01*
X195201D01*
X191264Y430557D01*
Y411029D01*
X252523D01*
X252524Y430164D01*
X270257Y411201D02*Y422816D01*
X327344D02*Y411201D01*
X324391Y422816D02*X327344D01*
X270257D02*X273210D01*
X270257Y411201D02*X273210D01*
X324391D02*X327344D01*
X280099Y428918D02*Y433052D01*
Y428918D02*X281281Y430099D01*
X280099Y428918D02*X278918Y430099D01*
X281281D02*X278918D01*
X304240Y237156D02*X246760D01*
X246759Y252669D01*
X300302Y256606D02*X250696D01*
X304239Y252669D02*X304240Y237156D01*
X304239Y252669D02*X300302Y256606D01*
X246759Y252669D02*X250696Y256606D01*
X305932Y254402D02*X301602Y258732D01*
X248610D01*
X244673Y254795D01*
Y235267D02*Y254795D01*
X305932Y235267D02*X244673D01*
X305932D02*X305933Y254402D01*
X146811Y226811D02*Y203189D01*
X123189Y226811D02*X146811D01*
X123189D02*Y203189D01*
X146811D01*
X289252Y138202D02*X284922Y142532D01*
X232324D02*X284922D01*
X232324D02*X227993Y138202D01*
Y119068D01*
X289252D01*
X289253Y138202D01*
X230080Y120957D02*X287560D01*
X230080D02*X230079Y136470D01*
X234016Y140407D02*X283622D01*
X287559Y136470D02*X287560Y120957D01*
X287559Y136470D02*X283622Y140407D01*
X230079Y136470D02*X234016Y140407D01*
X52111Y560411D02*Y536789D01*
X28489Y560411D02*X52111D01*
X28489D02*Y536789D01*
X52111D01*
X84611Y640911D02*Y617289D01*
X60989Y640911D02*X84611D01*
X60989D02*Y617289D01*
X84611D01*
X83737Y600699D02*Y577077D01*
X60115Y600699D02*X83737D01*
X60115D02*Y577077D01*
X83737D01*
X84237Y559699D02*Y536077D01*
X60615Y559699D02*X84237D01*
X60615D02*Y536077D01*
X84237D01*
X92129Y680208D02*Y656586D01*
X68507Y680208D02*X92129D01*
X68507D02*Y656586D01*
X92129D01*
X52287Y599999D02*Y576377D01*
X28665Y599999D02*X52287D01*
X28665D02*Y576377D01*
X52287D01*
X52485Y639699D02*Y616077D01*
X28863Y639699D02*X52485D01*
X28863D02*Y616077D01*
X52485D01*
X424391Y668000D02*X492501D01*
Y603039D02*X492500Y668000D01*
X496437Y652055D02*Y608748D01*
X500374Y652055D02*Y608748D01*
X492500Y652055D02*X512185D01*
Y608748D01*
X492500D02*X512185D01*
X424391Y668000D02*Y603039D01*
X492501D01*
X487580D02*Y564850D01*
X449096D02*X487580D01*
X428524Y603039D02*Y585422D01*
X449096Y564850D02*X428524Y585422D01*
X114985Y601123D02*Y577501D01*
X91363Y601123D02*X114985D01*
X91363D02*Y577501D01*
X114985D01*
X265000Y233000D02*X266300D01*
X264300Y232300D02*X265000Y233000D01*
X264300Y229700D02*Y232300D01*
Y229700D02*X265000Y229000D01*
X266300D01*
X267500Y229500D02*Y232500D01*
Y229500D02*X268000Y229000D01*
X269000D01*
X269500Y229500D01*
Y232500D01*
X269000Y233000D02*X269500Y232500D01*
X268000Y233000D02*X269000D01*
X267500Y232500D02*X268000Y233000D01*
X270700Y229000D02*Y233000D01*
Y229000D02*X273200Y233000D01*
Y229000D02*Y233000D01*
X274400Y229000D02*Y233000D01*
Y229000D02*X276900Y233000D01*
Y229000D02*Y233000D01*
X278600D02*X280600Y229000D01*
X278100D02*X280600D01*
X281800Y232500D02*X282300Y233000D01*
X281800Y229500D02*Y232500D01*
Y229500D02*X282300Y229000D01*
X283300D01*
X283800Y229500D01*
Y232500D01*
X283300Y233000D02*X283800Y232500D01*
X282300Y233000D02*X283300D01*
X281800Y232000D02*X283800Y230000D01*
X286500Y229000D02*X287000Y229500D01*
X285500Y229000D02*X286500D01*
X285000Y229500D02*X285500Y229000D01*
X285000Y229500D02*Y232500D01*
X285500Y233000D01*
X286500Y230800D02*X287000Y231300D01*
X285000Y230800D02*X286500D01*
X285500Y233000D02*X286500D01*
X287000Y232500D01*
Y231300D02*Y232500D01*
X269820Y109800D02*X271120D01*
X271820Y110500D02*X271120Y109800D01*
X271820Y110500D02*Y113100D01*
X271120Y113800D01*
X269820D02*X271120D01*
X268620Y110300D02*Y113300D01*
X268120Y113800D01*
X267120D02*X268120D01*
X267120D02*X266620Y113300D01*
Y110300D02*Y113300D01*
X267120Y109800D02*X266620Y110300D01*
X267120Y109800D02*X268120D01*
X268620Y110300D02*X268120Y109800D01*
X265420D02*Y113800D01*
X262920Y109800D01*
Y113800D01*
X261720Y109800D02*Y113800D01*
X259220Y109800D01*
Y113800D01*
X258020Y113000D02*X257220Y113800D01*
Y109800D02*Y113800D01*
X256520Y109800D02*X258020D01*
X255320Y110300D02*X254820Y109800D01*
X255320Y110300D02*Y113300D01*
X254820Y113800D01*
X253820D02*X254820D01*
X253820D02*X253320Y113300D01*
Y110300D02*Y113300D01*
X253820Y109800D02*X253320Y110300D01*
X253820Y109800D02*X254820D01*
X255320Y110800D02*X253320Y112800D01*
X252120Y110300D02*X251620Y109800D01*
X252120Y110300D02*Y113300D01*
X251620Y113800D01*
X250620D02*X251620D01*
X250620D02*X250120Y113300D01*
Y110300D02*Y113300D01*
X250620Y109800D02*X250120Y110300D01*
X250620Y109800D02*X251620D01*
X252120Y110800D02*X250120Y112800D01*
X248920Y110300D02*X248420Y109800D01*
X248920Y110300D02*Y113300D01*
X248420Y113800D01*
X247420D02*X248420D01*
X247420D02*X246920Y113300D01*
Y110300D02*Y113300D01*
X247420Y109800D02*X246920Y110300D01*
X247420Y109800D02*X248420D01*
X248920Y110800D02*X246920Y112800D01*
X152701Y214047D02*X152201Y214547D01*
X152701Y212547D02*Y214047D01*
X152201Y212047D02*X152701Y212547D01*
X151201Y212047D02*X152201D01*
X151201D02*X150701Y212547D01*
Y214047D01*
X150201Y214547D01*
X149201D02*X150201D01*
X148701Y214047D02*X149201Y214547D01*
X148701Y212547D02*Y214047D01*
X149201Y212047D02*X148701Y212547D01*
X152701Y217247D02*X152201Y217747D01*
X152701Y216247D02*Y217247D01*
X152201Y215747D02*X152701Y216247D01*
X149201Y215747D02*X152201D01*
X149201D02*X148701Y216247D01*
X150901Y217247D02*X150401Y217747D01*
X150901Y215747D02*Y217247D01*
X148701Y216247D02*Y217247D01*
X149201Y217747D01*
X150401D01*
X149201Y218947D02*X148701Y219447D01*
X149201Y218947D02*X152201D01*
X152701Y219447D01*
Y220447D01*
X152201Y220947D01*
X149201D02*X152201D01*
X148701Y220447D02*X149201Y220947D01*
X148701Y219447D02*Y220447D01*
X149701Y218947D02*X151701Y220947D01*
X149201Y222147D02*X148701Y222647D01*
X149201Y222147D02*X152201D01*
X152701Y222647D01*
Y223647D01*
X152201Y224147D01*
X149201D02*X152201D01*
X148701Y223647D02*X149201Y224147D01*
X148701Y222647D02*Y223647D01*
X149701Y222147D02*X151701Y224147D01*
X58001Y547647D02*X57501Y548147D01*
X58001Y546147D02*Y547647D01*
X57501Y545647D02*X58001Y546147D01*
X56501Y545647D02*X57501D01*
X56501D02*X56001Y546147D01*
Y547647D01*
X55501Y548147D01*
X54501D02*X55501D01*
X54001Y547647D02*X54501Y548147D01*
X54001Y546147D02*Y547647D01*
X54501Y545647D02*X54001Y546147D01*
X58001Y550847D02*X57501Y551347D01*
X58001Y549847D02*Y550847D01*
X57501Y549347D02*X58001Y549847D01*
X54501Y549347D02*X57501D01*
X54501D02*X54001Y549847D01*
X56201Y550847D02*X55701Y551347D01*
X56201Y549347D02*Y550847D01*
X54001Y549847D02*Y550847D01*
X54501Y551347D01*
X55701D01*
X54501Y552547D02*X54001Y553047D01*
X54501Y552547D02*X57501D01*
X58001Y553047D01*
Y554047D01*
X57501Y554547D01*
X54501D02*X57501D01*
X54001Y554047D02*X54501Y554547D01*
X54001Y553047D02*Y554047D01*
X55001Y552547D02*X57001Y554547D01*
X57501Y555747D02*X58001Y556247D01*
Y557247D01*
X57501Y557747D01*
X54001Y557247D02*X54501Y557747D01*
X54001Y556247D02*Y557247D01*
X54501Y555747D02*X54001Y556247D01*
X56201D02*Y557247D01*
X56701Y557747D02*X57501D01*
X54501D02*X55701D01*
X56201Y557247D01*
X56701Y557747D02*X56201Y557247D01*
X58177Y587235D02*X57677Y587735D01*
X58177Y585735D02*Y587235D01*
X57677Y585235D02*X58177Y585735D01*
X56677Y585235D02*X57677D01*
X56677D02*X56177Y585735D01*
Y587235D01*
X55677Y587735D01*
X54677D02*X55677D01*
X54177Y587235D02*X54677Y587735D01*
X54177Y585735D02*Y587235D01*
X54677Y585235D02*X54177Y585735D01*
X58177Y590435D02*X57677Y590935D01*
X58177Y589435D02*Y590435D01*
X57677Y588935D02*X58177Y589435D01*
X54677Y588935D02*X57677D01*
X54677D02*X54177Y589435D01*
X56377Y590435D02*X55877Y590935D01*
X56377Y588935D02*Y590435D01*
X54177Y589435D02*Y590435D01*
X54677Y590935D01*
X55877D01*
X54677Y592135D02*X54177Y592635D01*
X54677Y592135D02*X57677D01*
X58177Y592635D01*
Y593635D01*
X57677Y594135D01*
X54677D02*X57677D01*
X54177Y593635D02*X54677Y594135D01*
X54177Y592635D02*Y593635D01*
X55177Y592135D02*X57177Y594135D01*
X57677Y595335D02*X58177Y595835D01*
Y597335D01*
X57677Y597835D01*
X56677D02*X57677D01*
X54177Y595335D02*X56677Y597835D01*
X54177Y595335D02*Y597835D01*
X58375Y626935D02*X57875Y627435D01*
X58375Y625435D02*Y626935D01*
X57875Y624935D02*X58375Y625435D01*
X56875Y624935D02*X57875D01*
X56875D02*X56375Y625435D01*
Y626935D01*
X55875Y627435D01*
X54875D02*X55875D01*
X54375Y626935D02*X54875Y627435D01*
X54375Y625435D02*Y626935D01*
X54875Y624935D02*X54375Y625435D01*
X58375Y630135D02*X57875Y630635D01*
X58375Y629135D02*Y630135D01*
X57875Y628635D02*X58375Y629135D01*
X54875Y628635D02*X57875D01*
X54875D02*X54375Y629135D01*
X56575Y630135D02*X56075Y630635D01*
X56575Y628635D02*Y630135D01*
X54375Y629135D02*Y630135D01*
X54875Y630635D01*
X56075D01*
X54875Y631835D02*X54375Y632335D01*
X54875Y631835D02*X57875D01*
X58375Y632335D01*
Y633335D01*
X57875Y633835D01*
X54875D02*X57875D01*
X54375Y633335D02*X54875Y633835D01*
X54375Y632335D02*Y633335D01*
X55375Y631835D02*X57375Y633835D01*
X57575Y635035D02*X58375Y635835D01*
X54375D02*X58375D01*
X54375Y635035D02*Y636535D01*
X120875Y588359D02*X120375Y588859D01*
X120875Y586859D02*Y588359D01*
X120375Y586359D02*X120875Y586859D01*
X119375Y586359D02*X120375D01*
X119375D02*X118875Y586859D01*
Y588359D01*
X118375Y588859D01*
X117375D02*X118375D01*
X116875Y588359D02*X117375Y588859D01*
X116875Y586859D02*Y588359D01*
X117375Y586359D02*X116875Y586859D01*
X120875Y591559D02*X120375Y592059D01*
X120875Y590559D02*Y591559D01*
X120375Y590059D02*X120875Y590559D01*
X117375Y590059D02*X120375D01*
X117375D02*X116875Y590559D01*
X119075Y591559D02*X118575Y592059D01*
X119075Y590059D02*Y591559D01*
X116875Y590559D02*Y591559D01*
X117375Y592059D01*
X118575D01*
X117375Y593259D02*X116875Y593759D01*
X117375Y593259D02*X120375D01*
X120875Y593759D01*
Y594759D01*
X120375Y595259D01*
X117375D02*X120375D01*
X116875Y594759D02*X117375Y595259D01*
X116875Y593759D02*Y594759D01*
X117875Y593259D02*X119875Y595259D01*
X116875Y596959D02*X120875Y598959D01*
Y596459D02*Y598959D01*
X90501Y628147D02*X90001Y628647D01*
X90501Y626647D02*Y628147D01*
X90001Y626147D02*X90501Y626647D01*
X89001Y626147D02*X90001D01*
X89001D02*X88501Y626647D01*
Y628147D01*
X88001Y628647D01*
X87001D02*X88001D01*
X86501Y628147D02*X87001Y628647D01*
X86501Y626647D02*Y628147D01*
X87001Y626147D02*X86501Y626647D01*
X90501Y631347D02*X90001Y631847D01*
X90501Y630347D02*Y631347D01*
X90001Y629847D02*X90501Y630347D01*
X87001Y629847D02*X90001D01*
X87001D02*X86501Y630347D01*
X88701Y631347D02*X88201Y631847D01*
X88701Y629847D02*Y631347D01*
X86501Y630347D02*Y631347D01*
X87001Y631847D01*
X88201D01*
X87001Y633047D02*X86501Y633547D01*
X87001Y633047D02*X90001D01*
X90501Y633547D01*
Y634547D01*
X90001Y635047D01*
X87001D02*X90001D01*
X86501Y634547D02*X87001Y635047D01*
X86501Y633547D02*Y634547D01*
X87501Y633047D02*X89501Y635047D01*
X90501Y637747D02*X90001Y638247D01*
X90501Y636747D02*Y637747D01*
X90001Y636247D02*X90501Y636747D01*
X87001Y636247D02*X90001D01*
X87001D02*X86501Y636747D01*
X88701Y637747D02*X88201Y638247D01*
X88701Y636247D02*Y637747D01*
X86501Y636747D02*Y637747D01*
X87001Y638247D01*
X88201D01*
X89627Y587935D02*X89127Y588435D01*
X89627Y586435D02*Y587935D01*
X89127Y585935D02*X89627Y586435D01*
X88127Y585935D02*X89127D01*
X88127D02*X87627Y586435D01*
Y587935D01*
X87127Y588435D01*
X86127D02*X87127D01*
X85627Y587935D02*X86127Y588435D01*
X85627Y586435D02*Y587935D01*
X86127Y585935D02*X85627Y586435D01*
X89627Y591135D02*X89127Y591635D01*
X89627Y590135D02*Y591135D01*
X89127Y589635D02*X89627Y590135D01*
X86127Y589635D02*X89127D01*
X86127D02*X85627Y590135D01*
X87827Y591135D02*X87327Y591635D01*
X87827Y589635D02*Y591135D01*
X85627Y590135D02*Y591135D01*
X86127Y591635D01*
X87327D01*
X86127Y592835D02*X85627Y593335D01*
X86127Y592835D02*X89127D01*
X89627Y593335D01*
Y594335D01*
X89127Y594835D01*
X86127D02*X89127D01*
X85627Y594335D02*X86127Y594835D01*
X85627Y593335D02*Y594335D01*
X86627Y592835D02*X88627Y594835D01*
X89627Y596035D02*Y598035D01*
X87627Y596035D02*X89627D01*
X87627D02*X88127Y596535D01*
Y597535D01*
X87627Y598035D01*
X86127D02*X87627D01*
X85627Y597535D02*X86127Y598035D01*
X85627Y596535D02*Y597535D01*
X86127Y596035D02*X85627Y596535D01*
X90127Y546935D02*X89627Y547435D01*
X90127Y545435D02*Y546935D01*
X89627Y544935D02*X90127Y545435D01*
X88627Y544935D02*X89627D01*
X88627D02*X88127Y545435D01*
Y546935D01*
X87627Y547435D01*
X86627D02*X87627D01*
X86127Y546935D02*X86627Y547435D01*
X86127Y545435D02*Y546935D01*
X86627Y544935D02*X86127Y545435D01*
X90127Y550135D02*X89627Y550635D01*
X90127Y549135D02*Y550135D01*
X89627Y548635D02*X90127Y549135D01*
X86627Y548635D02*X89627D01*
X86627D02*X86127Y549135D01*
X88327Y550135D02*X87827Y550635D01*
X88327Y548635D02*Y550135D01*
X86127Y549135D02*Y550135D01*
X86627Y550635D01*
X87827D01*
X86627Y551835D02*X86127Y552335D01*
X86627Y551835D02*X89627D01*
X90127Y552335D01*
Y553335D01*
X89627Y553835D01*
X86627D02*X89627D01*
X86127Y553335D02*X86627Y553835D01*
X86127Y552335D02*Y553335D01*
X87127Y551835D02*X89127Y553835D01*
X87627Y555035D02*X90127Y557035D01*
X87627Y555035D02*Y557535D01*
X86127Y557035D02*X90127D01*
X98019Y667444D02*X97519Y667944D01*
X98019Y665944D02*Y667444D01*
X97519Y665444D02*X98019Y665944D01*
X96519Y665444D02*X97519D01*
X96519D02*X96019Y665944D01*
Y667444D01*
X95519Y667944D01*
X94519D02*X95519D01*
X94019Y667444D02*X94519Y667944D01*
X94019Y665944D02*Y667444D01*
X94519Y665444D02*X94019Y665944D01*
X98019Y669144D02*Y671144D01*
X96019Y669144D02*X98019D01*
X96019D02*X96519Y669644D01*
Y670644D01*
X96019Y671144D01*
X94519D02*X96019D01*
X94019Y670644D02*X94519Y671144D01*
X94019Y669644D02*Y670644D01*
X94519Y669144D02*X94019Y669644D01*
X94519Y672344D02*X94019Y672844D01*
X94519Y672344D02*X97519D01*
X98019Y672844D01*
Y673844D01*
X97519Y674344D01*
X94519D02*X97519D01*
X94019Y673844D02*X94519Y674344D01*
X94019Y672844D02*Y673844D01*
X95019Y672344D02*X97019Y674344D01*
X97219Y675544D02*X98019Y676344D01*
X94019D02*X98019D01*
X94019Y675544D02*Y677044D01*
X210487Y408606D02*X211787D01*
X209787Y407906D02*X210487Y408606D01*
X209787Y405306D02*Y407906D01*
Y405306D02*X210487Y404606D01*
X211787D01*
X212987Y405106D02*Y408106D01*
Y405106D02*X213487Y404606D01*
X214487D01*
X214987Y405106D01*
Y408106D01*
X214487Y408606D02*X214987Y408106D01*
X213487Y408606D02*X214487D01*
X212987Y408106D02*X213487Y408606D01*
X216187Y404606D02*Y408606D01*
Y404606D02*X218687Y408606D01*
Y404606D02*Y408606D01*
X219887Y404606D02*Y408606D01*
Y404606D02*X222387Y408606D01*
Y404606D02*Y408606D01*
X224087D02*X226087Y404606D01*
X223587D02*X226087D01*
X227287Y408106D02*X227787Y408606D01*
X227287Y405106D02*Y408106D01*
Y405106D02*X227787Y404606D01*
X228787D01*
X229287Y405106D01*
Y408106D01*
X228787Y408606D02*X229287Y408106D01*
X227787Y408606D02*X228787D01*
X227287Y407606D02*X229287Y405606D01*
X230487Y407106D02*X232487Y404606D01*
X230487Y407106D02*X232987D01*
X232487Y404606D02*Y408606D01*
X291036Y399469D02*X292336D01*
X290336Y398769D02*X291036Y399469D01*
X290336Y396169D02*Y398769D01*
Y396169D02*X291036Y395469D01*
X292336D01*
X293536Y395969D02*Y398969D01*
Y395969D02*X294036Y395469D01*
X295036D01*
X295536Y395969D01*
Y398969D01*
X295036Y399469D02*X295536Y398969D01*
X294036Y399469D02*X295036D01*
X293536Y398969D02*X294036Y399469D01*
X296736Y395469D02*Y399469D01*
Y395469D02*X299236Y399469D01*
Y395469D02*Y399469D01*
X300436Y395469D02*Y399469D01*
Y395469D02*X302936Y399469D01*
Y395469D02*Y399469D01*
X304636D02*X306636Y395469D01*
X304136D02*X306636D01*
X307836Y398969D02*X308336Y399469D01*
X307836Y395969D02*Y398969D01*
Y395969D02*X308336Y395469D01*
X309336D01*
X309836Y395969D01*
Y398969D01*
X309336Y399469D02*X309836Y398969D01*
X308336Y399469D02*X309336D01*
X307836Y398469D02*X309836Y396469D01*
X311036Y395469D02*X313036D01*
X311036D02*Y397469D01*
X311536Y396969D01*
X312536D01*
X313036Y397469D01*
Y398969D01*
X312536Y399469D02*X313036Y398969D01*
X311536Y399469D02*X312536D01*
X311036Y398969D02*X311536Y399469D01*
X422437Y664428D02*Y665728D01*
X421737Y666428D02*X422437Y665728D01*
X419137Y666428D02*X421737D01*
X419137D02*X418437Y665728D01*
Y664428D02*Y665728D01*
X418937Y663228D02*X421937D01*
X418937D02*X418437Y662728D01*
Y661728D02*Y662728D01*
Y661728D02*X418937Y661228D01*
X421937D01*
X422437Y661728D02*X421937Y661228D01*
X422437Y661728D02*Y662728D01*
X421937Y663228D02*X422437Y662728D01*
X418437Y660028D02*X422437D01*
X418437D02*X422437Y657528D01*
X418437D02*X422437D01*
X418437Y656328D02*X422437D01*
X418437D02*X422437Y653828D01*
X418437D02*X422437D01*
X418937Y652628D02*X418437Y652128D01*
Y651128D02*Y652128D01*
Y651128D02*X418937Y650628D01*
X422437Y651128D02*X421937Y650628D01*
X422437Y651128D02*Y652128D01*
X421937Y652628D02*X422437Y652128D01*
X420237Y651128D02*Y652128D01*
X418937Y650628D02*X419737D01*
X420737D02*X421937D01*
X420737D02*X420237Y651128D01*
X419737Y650628D02*X420237Y651128D01*
X421937Y649428D02*X422437Y648928D01*
X418937Y649428D02*X421937D01*
X418937D02*X418437Y648928D01*
Y647928D02*Y648928D01*
Y647928D02*X418937Y647428D01*
X421937D01*
X422437Y647928D02*X421937Y647428D01*
X422437Y647928D02*Y648928D01*
X421437Y649428D02*X419437Y647428D01*
X421937Y646228D02*X422437Y645728D01*
X418937Y646228D02*X421937D01*
X418937D02*X418437Y645728D01*
Y644728D02*Y645728D01*
Y644728D02*X418937Y644228D01*
X421937D01*
X422437Y644728D02*X421937Y644228D01*
X422437Y644728D02*Y645728D01*
X421437Y646228D02*X419437Y644228D01*
M02*
