G04 start of page 6 for group 4 idx 4 *
G04 Title: (unknown), outline *
G04 Creator: pcb 20110918 *
G04 CreationDate: Fri Dec  6 03:47:07 2013 UTC *
G04 For: user1 *
G04 Format: Gerber/RS-274X *
G04 PCB-Dimensions: 550000 550000 *
G04 PCB-Coordinate-Origin: lower left *
%MOIN*%
%FSLAX25Y25*%
%LNOUTLINE*%
%ADD106C,0.0100*%
%ADD105C,0.0060*%
%ADD104C,0.0001*%
G54D104*G36*
X380467Y208839D02*X367996D01*
Y221993D01*
X368000Y221992D01*
X368392Y222023D01*
X368775Y222115D01*
X369138Y222266D01*
X369474Y222471D01*
X369773Y222727D01*
X370029Y223026D01*
X370234Y223362D01*
X370385Y223725D01*
X370477Y224108D01*
X370500Y224500D01*
X370477Y224892D01*
X370385Y225275D01*
X370234Y225638D01*
X370029Y225974D01*
X369773Y226273D01*
X369474Y226529D01*
X369138Y226734D01*
X368775Y226885D01*
X368392Y226977D01*
X368000Y227008D01*
X367996Y227007D01*
Y232336D01*
X380467D01*
Y208839D01*
G37*
G36*
X367996D02*X363496D01*
Y225993D01*
X363500Y225992D01*
X363892Y226023D01*
X364275Y226115D01*
X364638Y226266D01*
X364974Y226471D01*
X365273Y226727D01*
X365529Y227026D01*
X365734Y227362D01*
X365885Y227725D01*
X365977Y228108D01*
X366000Y228500D01*
X365977Y228892D01*
X365885Y229275D01*
X365734Y229638D01*
X365529Y229974D01*
X365273Y230273D01*
X364974Y230529D01*
X364638Y230734D01*
X364275Y230885D01*
X363892Y230977D01*
X363500Y231008D01*
X363496Y231007D01*
Y232336D01*
X367996D01*
Y227007D01*
X367608Y226977D01*
X367225Y226885D01*
X366862Y226734D01*
X366526Y226529D01*
X366227Y226273D01*
X365971Y225974D01*
X365766Y225638D01*
X365615Y225275D01*
X365523Y224892D01*
X365492Y224500D01*
X365523Y224108D01*
X365615Y223725D01*
X365766Y223362D01*
X365971Y223026D01*
X366227Y222727D01*
X366526Y222471D01*
X366862Y222266D01*
X367225Y222115D01*
X367608Y222023D01*
X367996Y221993D01*
Y208839D01*
G37*
G36*
X363496D02*X359496D01*
Y221993D01*
X359500Y221992D01*
X359892Y222023D01*
X360275Y222115D01*
X360638Y222266D01*
X360974Y222471D01*
X361273Y222727D01*
X361529Y223026D01*
X361734Y223362D01*
X361885Y223725D01*
X361977Y224108D01*
X362000Y224500D01*
X361977Y224892D01*
X361885Y225275D01*
X361734Y225638D01*
X361529Y225974D01*
X361273Y226273D01*
X360974Y226529D01*
X360638Y226734D01*
X360275Y226885D01*
X359892Y226977D01*
X359500Y227008D01*
X359496Y227007D01*
Y232336D01*
X363496D01*
Y231007D01*
X363108Y230977D01*
X362725Y230885D01*
X362362Y230734D01*
X362026Y230529D01*
X361727Y230273D01*
X361471Y229974D01*
X361266Y229638D01*
X361115Y229275D01*
X361023Y228892D01*
X360992Y228500D01*
X361023Y228108D01*
X361115Y227725D01*
X361266Y227362D01*
X361471Y227026D01*
X361727Y226727D01*
X362026Y226471D01*
X362362Y226266D01*
X362725Y226115D01*
X363108Y226023D01*
X363496Y225993D01*
Y208839D01*
G37*
G36*
X359496D02*X354996D01*
Y225993D01*
X355000Y225992D01*
X355392Y226023D01*
X355775Y226115D01*
X356138Y226266D01*
X356474Y226471D01*
X356773Y226727D01*
X357029Y227026D01*
X357234Y227362D01*
X357385Y227725D01*
X357477Y228108D01*
X357500Y228500D01*
X357477Y228892D01*
X357385Y229275D01*
X357234Y229638D01*
X357029Y229974D01*
X356773Y230273D01*
X356474Y230529D01*
X356138Y230734D01*
X355775Y230885D01*
X355392Y230977D01*
X355000Y231008D01*
X354996Y231007D01*
Y232336D01*
X359496D01*
Y227007D01*
X359108Y226977D01*
X358725Y226885D01*
X358362Y226734D01*
X358026Y226529D01*
X357727Y226273D01*
X357471Y225974D01*
X357266Y225638D01*
X357115Y225275D01*
X357023Y224892D01*
X356992Y224500D01*
X357023Y224108D01*
X357115Y223725D01*
X357266Y223362D01*
X357471Y223026D01*
X357727Y222727D01*
X358026Y222471D01*
X358362Y222266D01*
X358725Y222115D01*
X359108Y222023D01*
X359496Y221993D01*
Y208839D01*
G37*
G36*
X354996D02*X354064D01*
X353746Y209358D01*
X353337Y209837D01*
X352858Y210246D01*
X352322Y210575D01*
X351767Y210805D01*
Y232336D01*
X354996D01*
Y231007D01*
X354608Y230977D01*
X354225Y230885D01*
X353862Y230734D01*
X353526Y230529D01*
X353227Y230273D01*
X352971Y229974D01*
X352766Y229638D01*
X352615Y229275D01*
X352523Y228892D01*
X352492Y228500D01*
X352523Y228108D01*
X352615Y227725D01*
X352766Y227362D01*
X352971Y227026D01*
X353227Y226727D01*
X353526Y226471D01*
X353862Y226266D01*
X354225Y226115D01*
X354608Y226023D01*
X354996Y225993D01*
Y208839D01*
G37*
G36*
X380467D02*X367996D01*
Y221993D01*
X368000Y221992D01*
X368392Y222023D01*
X368775Y222115D01*
X369138Y222266D01*
X369474Y222471D01*
X369773Y222727D01*
X370029Y223026D01*
X370234Y223362D01*
X370385Y223725D01*
X370477Y224108D01*
X370500Y224500D01*
X370477Y224892D01*
X370385Y225275D01*
X370234Y225638D01*
X370029Y225974D01*
X369773Y226273D01*
X369474Y226529D01*
X369138Y226734D01*
X368775Y226885D01*
X368392Y226977D01*
X368000Y227008D01*
X367996Y227007D01*
Y232336D01*
X380467D01*
Y208839D01*
G37*
G36*
X367996D02*X363496D01*
Y225993D01*
X363500Y225992D01*
X363892Y226023D01*
X364275Y226115D01*
X364638Y226266D01*
X364974Y226471D01*
X365273Y226727D01*
X365529Y227026D01*
X365734Y227362D01*
X365885Y227725D01*
X365977Y228108D01*
X366000Y228500D01*
X365977Y228892D01*
X365885Y229275D01*
X365734Y229638D01*
X365529Y229974D01*
X365273Y230273D01*
X364974Y230529D01*
X364638Y230734D01*
X364275Y230885D01*
X363892Y230977D01*
X363500Y231008D01*
X363496Y231007D01*
Y232336D01*
X367996D01*
Y227007D01*
X367608Y226977D01*
X367225Y226885D01*
X366862Y226734D01*
X366526Y226529D01*
X366227Y226273D01*
X365971Y225974D01*
X365766Y225638D01*
X365615Y225275D01*
X365523Y224892D01*
X365492Y224500D01*
X365523Y224108D01*
X365615Y223725D01*
X365766Y223362D01*
X365971Y223026D01*
X366227Y222727D01*
X366526Y222471D01*
X366862Y222266D01*
X367225Y222115D01*
X367608Y222023D01*
X367996Y221993D01*
Y208839D01*
G37*
G36*
X363496D02*X359496D01*
Y221993D01*
X359500Y221992D01*
X359892Y222023D01*
X360275Y222115D01*
X360638Y222266D01*
X360974Y222471D01*
X361273Y222727D01*
X361529Y223026D01*
X361734Y223362D01*
X361885Y223725D01*
X361977Y224108D01*
X362000Y224500D01*
X361977Y224892D01*
X361885Y225275D01*
X361734Y225638D01*
X361529Y225974D01*
X361273Y226273D01*
X360974Y226529D01*
X360638Y226734D01*
X360275Y226885D01*
X359892Y226977D01*
X359500Y227008D01*
X359496Y227007D01*
Y232336D01*
X363496D01*
Y231007D01*
X363108Y230977D01*
X362725Y230885D01*
X362362Y230734D01*
X362026Y230529D01*
X361727Y230273D01*
X361471Y229974D01*
X361266Y229638D01*
X361115Y229275D01*
X361023Y228892D01*
X360992Y228500D01*
X361023Y228108D01*
X361115Y227725D01*
X361266Y227362D01*
X361471Y227026D01*
X361727Y226727D01*
X362026Y226471D01*
X362362Y226266D01*
X362725Y226115D01*
X363108Y226023D01*
X363496Y225993D01*
Y208839D01*
G37*
G36*
X359496D02*X354996D01*
Y225993D01*
X355000Y225992D01*
X355392Y226023D01*
X355775Y226115D01*
X356138Y226266D01*
X356474Y226471D01*
X356773Y226727D01*
X357029Y227026D01*
X357234Y227362D01*
X357385Y227725D01*
X357477Y228108D01*
X357500Y228500D01*
X357477Y228892D01*
X357385Y229275D01*
X357234Y229638D01*
X357029Y229974D01*
X356773Y230273D01*
X356474Y230529D01*
X356138Y230734D01*
X355775Y230885D01*
X355392Y230977D01*
X355000Y231008D01*
X354996Y231007D01*
Y232336D01*
X359496D01*
Y227007D01*
X359108Y226977D01*
X358725Y226885D01*
X358362Y226734D01*
X358026Y226529D01*
X357727Y226273D01*
X357471Y225974D01*
X357266Y225638D01*
X357115Y225275D01*
X357023Y224892D01*
X356992Y224500D01*
X357023Y224108D01*
X357115Y223725D01*
X357266Y223362D01*
X357471Y223026D01*
X357727Y222727D01*
X358026Y222471D01*
X358362Y222266D01*
X358725Y222115D01*
X359108Y222023D01*
X359496Y221993D01*
Y208839D01*
G37*
G36*
X354996D02*X354064D01*
X353746Y209358D01*
X353337Y209837D01*
X352858Y210246D01*
X352322Y210575D01*
X351767Y210805D01*
Y232336D01*
X354996D01*
Y231007D01*
X354608Y230977D01*
X354225Y230885D01*
X353862Y230734D01*
X353526Y230529D01*
X353227Y230273D01*
X352971Y229974D01*
X352766Y229638D01*
X352615Y229275D01*
X352523Y228892D01*
X352492Y228500D01*
X352523Y228108D01*
X352615Y227725D01*
X352766Y227362D01*
X352971Y227026D01*
X353227Y226727D01*
X353526Y226471D01*
X353862Y226266D01*
X354225Y226115D01*
X354608Y226023D01*
X354996Y225993D01*
Y208839D01*
G37*
G36*
X351767Y236341D02*Y259838D01*
X380467D01*
Y236341D01*
X351767D01*
G37*
G36*
X345468Y283839D02*X316768D01*
Y307336D01*
X345468D01*
Y283839D01*
G37*
G36*
X316768D01*
Y307336D01*
X345468D01*
Y283839D01*
G37*
G36*
X380467Y263842D02*X351767D01*
Y287339D01*
X380467D01*
Y263842D01*
G37*
G36*
X342864Y248738D02*X333610D01*
X333575Y248822D01*
X333246Y249358D01*
X332837Y249837D01*
X332358Y250246D01*
X331822Y250575D01*
X331240Y250816D01*
X330628Y250963D01*
X330000Y251012D01*
X329372Y250963D01*
X328760Y250816D01*
X328178Y250575D01*
X327642Y250246D01*
X327163Y249837D01*
X326754Y249358D01*
X326425Y248822D01*
X326390Y248738D01*
X319367D01*
Y277438D01*
X342864D01*
Y248738D01*
G37*
G36*
X351767Y236341D02*Y259838D01*
X380467D01*
Y236341D01*
X351767D01*
G37*
G36*
X380467Y263842D02*X351767D01*
Y287339D01*
X380467D01*
Y263842D01*
G37*
G36*
X342864Y248738D02*X333610D01*
X333575Y248822D01*
X333246Y249358D01*
X332837Y249837D01*
X332358Y250246D01*
X331822Y250575D01*
X331240Y250816D01*
X330628Y250963D01*
X330000Y251012D01*
X329372Y250963D01*
X328760Y250816D01*
X328178Y250575D01*
X327642Y250246D01*
X327163Y249837D01*
X326754Y249358D01*
X326425Y248822D01*
X326390Y248738D01*
X319367D01*
Y277438D01*
X342864D01*
Y248738D01*
G37*
G36*
X289364Y243741D02*Y272441D01*
X295070D01*
X295254Y272142D01*
X295663Y271663D01*
X296142Y271254D01*
X296678Y270925D01*
X297260Y270684D01*
X297872Y270537D01*
X298500Y270488D01*
X299128Y270537D01*
X299740Y270684D01*
X300322Y270925D01*
X300858Y271254D01*
X301337Y271663D01*
X301746Y272142D01*
X301930Y272441D01*
X306070D01*
X306254Y272142D01*
X306663Y271663D01*
X307142Y271254D01*
X307678Y270925D01*
X308260Y270684D01*
X308872Y270537D01*
X309500Y270488D01*
X310128Y270537D01*
X310740Y270684D01*
X311322Y270925D01*
X311858Y271254D01*
X312337Y271663D01*
X312746Y272142D01*
X312867Y272339D01*
Y243741D01*
X289364D01*
G37*
G36*
X278366Y272441D02*X285365D01*
Y243741D01*
X278366D01*
Y246463D01*
X278370Y246462D01*
X278762Y246493D01*
X279145Y246585D01*
X279508Y246736D01*
X279844Y246941D01*
X280143Y247197D01*
X280399Y247496D01*
X280604Y247832D01*
X280755Y248195D01*
X280847Y248578D01*
X280870Y248970D01*
X280847Y249362D01*
X280755Y249745D01*
X280604Y250108D01*
X280399Y250444D01*
X280143Y250743D01*
X279844Y250999D01*
X279508Y251204D01*
X279145Y251355D01*
X278762Y251447D01*
X278370Y251478D01*
X278366Y251477D01*
Y272441D01*
G37*
G36*
X274505D02*X278366D01*
Y251477D01*
X277978Y251447D01*
X277595Y251355D01*
X277232Y251204D01*
X276896Y250999D01*
X276597Y250743D01*
X276341Y250444D01*
X276136Y250108D01*
X275985Y249745D01*
X275893Y249362D01*
X275862Y248970D01*
X275893Y248578D01*
X275985Y248195D01*
X276136Y247832D01*
X276341Y247496D01*
X276597Y247197D01*
X276896Y246941D01*
X277232Y246736D01*
X277595Y246585D01*
X277978Y246493D01*
X278366Y246463D01*
Y243741D01*
X274505D01*
Y251933D01*
X274509Y251932D01*
X274901Y251963D01*
X275284Y252055D01*
X275647Y252206D01*
X275983Y252411D01*
X276282Y252667D01*
X276538Y252966D01*
X276743Y253302D01*
X276894Y253665D01*
X276986Y254048D01*
X277009Y254440D01*
X276986Y254832D01*
X276894Y255215D01*
X276743Y255578D01*
X276538Y255914D01*
X276282Y256213D01*
X275983Y256469D01*
X275647Y256674D01*
X275284Y256825D01*
X274901Y256917D01*
X274509Y256948D01*
X274505Y256947D01*
Y272441D01*
G37*
G36*
X270446D02*X274505D01*
Y256947D01*
X274117Y256917D01*
X273734Y256825D01*
X273371Y256674D01*
X273035Y256469D01*
X272736Y256213D01*
X272480Y255914D01*
X272275Y255578D01*
X272124Y255215D01*
X272032Y254832D01*
X272001Y254440D01*
X272032Y254048D01*
X272124Y253665D01*
X272275Y253302D01*
X272480Y252966D01*
X272736Y252667D01*
X273035Y252411D01*
X273371Y252206D01*
X273734Y252055D01*
X274117Y251963D01*
X274505Y251933D01*
Y243741D01*
X270446D01*
Y246463D01*
X270450Y246462D01*
X270842Y246493D01*
X271225Y246585D01*
X271588Y246736D01*
X271924Y246941D01*
X272223Y247197D01*
X272479Y247496D01*
X272684Y247832D01*
X272835Y248195D01*
X272927Y248578D01*
X272950Y248970D01*
X272927Y249362D01*
X272835Y249745D01*
X272684Y250108D01*
X272479Y250444D01*
X272223Y250743D01*
X271924Y250999D01*
X271588Y251204D01*
X271225Y251355D01*
X270842Y251447D01*
X270450Y251478D01*
X270446Y251477D01*
Y272441D01*
G37*
G36*
X266605D02*X270446D01*
Y251477D01*
X270058Y251447D01*
X269675Y251355D01*
X269312Y251204D01*
X268976Y250999D01*
X268677Y250743D01*
X268421Y250444D01*
X268216Y250108D01*
X268065Y249745D01*
X267973Y249362D01*
X267942Y248970D01*
X267973Y248578D01*
X268065Y248195D01*
X268216Y247832D01*
X268421Y247496D01*
X268677Y247197D01*
X268976Y246941D01*
X269312Y246736D01*
X269675Y246585D01*
X270058Y246493D01*
X270446Y246463D01*
Y243741D01*
X266605D01*
Y251933D01*
X266609Y251932D01*
X267001Y251963D01*
X267384Y252055D01*
X267747Y252206D01*
X268083Y252411D01*
X268382Y252667D01*
X268638Y252966D01*
X268843Y253302D01*
X268994Y253665D01*
X269086Y254048D01*
X269109Y254440D01*
X269086Y254832D01*
X268994Y255215D01*
X268843Y255578D01*
X268638Y255914D01*
X268382Y256213D01*
X268083Y256469D01*
X267747Y256674D01*
X267384Y256825D01*
X267001Y256917D01*
X266609Y256948D01*
X266605Y256947D01*
Y272441D01*
G37*
G36*
X261864Y243741D02*Y246623D01*
X261955Y246585D01*
X262338Y246493D01*
X262730Y246462D01*
X263122Y246493D01*
X263505Y246585D01*
X263868Y246736D01*
X264204Y246941D01*
X264503Y247197D01*
X264759Y247496D01*
X264964Y247832D01*
X265115Y248195D01*
X265207Y248578D01*
X265230Y248970D01*
X265207Y249362D01*
X265115Y249745D01*
X264964Y250108D01*
X264759Y250444D01*
X264503Y250743D01*
X264204Y250999D01*
X263868Y251204D01*
X263505Y251355D01*
X263122Y251447D01*
X262730Y251478D01*
X262338Y251447D01*
X261955Y251355D01*
X261864Y251317D01*
Y272441D01*
X266605D01*
Y256947D01*
X266217Y256917D01*
X265834Y256825D01*
X265471Y256674D01*
X265135Y256469D01*
X264836Y256213D01*
X264580Y255914D01*
X264375Y255578D01*
X264224Y255215D01*
X264132Y254832D01*
X264101Y254440D01*
X264132Y254048D01*
X264224Y253665D01*
X264375Y253302D01*
X264580Y252966D01*
X264836Y252667D01*
X265135Y252411D01*
X265471Y252206D01*
X265834Y252055D01*
X266217Y251963D01*
X266605Y251933D01*
Y243741D01*
X261864D01*
G37*
G36*
X289364D02*Y272441D01*
X295070D01*
X295254Y272142D01*
X295663Y271663D01*
X296142Y271254D01*
X296678Y270925D01*
X297260Y270684D01*
X297872Y270537D01*
X298500Y270488D01*
X299128Y270537D01*
X299740Y270684D01*
X300322Y270925D01*
X300858Y271254D01*
X301337Y271663D01*
X301746Y272142D01*
X301930Y272441D01*
X306070D01*
X306254Y272142D01*
X306663Y271663D01*
X307142Y271254D01*
X307678Y270925D01*
X308260Y270684D01*
X308872Y270537D01*
X309500Y270488D01*
X310128Y270537D01*
X310740Y270684D01*
X311322Y270925D01*
X311858Y271254D01*
X312337Y271663D01*
X312746Y272142D01*
X312867Y272339D01*
Y243741D01*
X289364D01*
G37*
G36*
X278366Y272441D02*X285365D01*
Y243741D01*
X278366D01*
Y246463D01*
X278370Y246462D01*
X278762Y246493D01*
X279145Y246585D01*
X279508Y246736D01*
X279844Y246941D01*
X280143Y247197D01*
X280399Y247496D01*
X280604Y247832D01*
X280755Y248195D01*
X280847Y248578D01*
X280870Y248970D01*
X280847Y249362D01*
X280755Y249745D01*
X280604Y250108D01*
X280399Y250444D01*
X280143Y250743D01*
X279844Y250999D01*
X279508Y251204D01*
X279145Y251355D01*
X278762Y251447D01*
X278370Y251478D01*
X278366Y251477D01*
Y272441D01*
G37*
G36*
X274505D02*X278366D01*
Y251477D01*
X277978Y251447D01*
X277595Y251355D01*
X277232Y251204D01*
X276896Y250999D01*
X276597Y250743D01*
X276341Y250444D01*
X276136Y250108D01*
X275985Y249745D01*
X275893Y249362D01*
X275862Y248970D01*
X275893Y248578D01*
X275985Y248195D01*
X276136Y247832D01*
X276341Y247496D01*
X276597Y247197D01*
X276896Y246941D01*
X277232Y246736D01*
X277595Y246585D01*
X277978Y246493D01*
X278366Y246463D01*
Y243741D01*
X274505D01*
Y251933D01*
X274509Y251932D01*
X274901Y251963D01*
X275284Y252055D01*
X275647Y252206D01*
X275983Y252411D01*
X276282Y252667D01*
X276538Y252966D01*
X276743Y253302D01*
X276894Y253665D01*
X276986Y254048D01*
X277009Y254440D01*
X276986Y254832D01*
X276894Y255215D01*
X276743Y255578D01*
X276538Y255914D01*
X276282Y256213D01*
X275983Y256469D01*
X275647Y256674D01*
X275284Y256825D01*
X274901Y256917D01*
X274509Y256948D01*
X274505Y256947D01*
Y272441D01*
G37*
G36*
X270446D02*X274505D01*
Y256947D01*
X274117Y256917D01*
X273734Y256825D01*
X273371Y256674D01*
X273035Y256469D01*
X272736Y256213D01*
X272480Y255914D01*
X272275Y255578D01*
X272124Y255215D01*
X272032Y254832D01*
X272001Y254440D01*
X272032Y254048D01*
X272124Y253665D01*
X272275Y253302D01*
X272480Y252966D01*
X272736Y252667D01*
X273035Y252411D01*
X273371Y252206D01*
X273734Y252055D01*
X274117Y251963D01*
X274505Y251933D01*
Y243741D01*
X270446D01*
Y246463D01*
X270450Y246462D01*
X270842Y246493D01*
X271225Y246585D01*
X271588Y246736D01*
X271924Y246941D01*
X272223Y247197D01*
X272479Y247496D01*
X272684Y247832D01*
X272835Y248195D01*
X272927Y248578D01*
X272950Y248970D01*
X272927Y249362D01*
X272835Y249745D01*
X272684Y250108D01*
X272479Y250444D01*
X272223Y250743D01*
X271924Y250999D01*
X271588Y251204D01*
X271225Y251355D01*
X270842Y251447D01*
X270450Y251478D01*
X270446Y251477D01*
Y272441D01*
G37*
G36*
X266605D02*X270446D01*
Y251477D01*
X270058Y251447D01*
X269675Y251355D01*
X269312Y251204D01*
X268976Y250999D01*
X268677Y250743D01*
X268421Y250444D01*
X268216Y250108D01*
X268065Y249745D01*
X267973Y249362D01*
X267942Y248970D01*
X267973Y248578D01*
X268065Y248195D01*
X268216Y247832D01*
X268421Y247496D01*
X268677Y247197D01*
X268976Y246941D01*
X269312Y246736D01*
X269675Y246585D01*
X270058Y246493D01*
X270446Y246463D01*
Y243741D01*
X266605D01*
Y251933D01*
X266609Y251932D01*
X267001Y251963D01*
X267384Y252055D01*
X267747Y252206D01*
X268083Y252411D01*
X268382Y252667D01*
X268638Y252966D01*
X268843Y253302D01*
X268994Y253665D01*
X269086Y254048D01*
X269109Y254440D01*
X269086Y254832D01*
X268994Y255215D01*
X268843Y255578D01*
X268638Y255914D01*
X268382Y256213D01*
X268083Y256469D01*
X267747Y256674D01*
X267384Y256825D01*
X267001Y256917D01*
X266609Y256948D01*
X266605Y256947D01*
Y272441D01*
G37*
G36*
X261864Y243741D02*Y246623D01*
X261955Y246585D01*
X262338Y246493D01*
X262730Y246462D01*
X263122Y246493D01*
X263505Y246585D01*
X263868Y246736D01*
X264204Y246941D01*
X264503Y247197D01*
X264759Y247496D01*
X264964Y247832D01*
X265115Y248195D01*
X265207Y248578D01*
X265230Y248970D01*
X265207Y249362D01*
X265115Y249745D01*
X264964Y250108D01*
X264759Y250444D01*
X264503Y250743D01*
X264204Y250999D01*
X263868Y251204D01*
X263505Y251355D01*
X263122Y251447D01*
X262730Y251478D01*
X262338Y251447D01*
X261955Y251355D01*
X261864Y251317D01*
Y272441D01*
X266605D01*
Y256947D01*
X266217Y256917D01*
X265834Y256825D01*
X265471Y256674D01*
X265135Y256469D01*
X264836Y256213D01*
X264580Y255914D01*
X264375Y255578D01*
X264224Y255215D01*
X264132Y254832D01*
X264101Y254440D01*
X264132Y254048D01*
X264224Y253665D01*
X264375Y253302D01*
X264580Y252966D01*
X264836Y252667D01*
X265135Y252411D01*
X265471Y252206D01*
X265834Y252055D01*
X266217Y251963D01*
X266605Y251933D01*
Y243741D01*
X261864D01*
G37*
G36*
X336118Y126586D02*Y116588D01*
X326112D01*
Y126586D01*
X336118D01*
G37*
G36*
Y116588D01*
X326112D01*
Y126586D01*
X336118D01*
G37*
G36*
X254816Y272441D02*X257865D01*
Y256807D01*
X257588Y256692D01*
X257252Y256487D01*
X256953Y256231D01*
X256697Y255932D01*
X256492Y255596D01*
X256341Y255233D01*
X256249Y254850D01*
X256218Y254458D01*
X256249Y254066D01*
X256341Y253683D01*
X256492Y253320D01*
X256697Y252984D01*
X256953Y252685D01*
X257252Y252429D01*
X257588Y252224D01*
X257865Y252109D01*
Y243741D01*
X254816D01*
Y246463D01*
X254820Y246462D01*
X255212Y246493D01*
X255595Y246585D01*
X255958Y246736D01*
X256294Y246941D01*
X256593Y247197D01*
X256849Y247496D01*
X257054Y247832D01*
X257205Y248195D01*
X257297Y248578D01*
X257320Y248970D01*
X257297Y249362D01*
X257205Y249745D01*
X257054Y250108D01*
X256849Y250444D01*
X256593Y250743D01*
X256294Y250999D01*
X255958Y251204D01*
X255595Y251355D01*
X255212Y251447D01*
X254820Y251478D01*
X254816Y251477D01*
Y272441D01*
G37*
G36*
X250805D02*X254816D01*
Y251477D01*
X254428Y251447D01*
X254045Y251355D01*
X253682Y251204D01*
X253346Y250999D01*
X253047Y250743D01*
X252791Y250444D01*
X252586Y250108D01*
X252435Y249745D01*
X252343Y249362D01*
X252312Y248970D01*
X252343Y248578D01*
X252435Y248195D01*
X252586Y247832D01*
X252791Y247496D01*
X253047Y247197D01*
X253346Y246941D01*
X253682Y246736D01*
X254045Y246585D01*
X254428Y246493D01*
X254816Y246463D01*
Y243741D01*
X250805D01*
Y251933D01*
X250809Y251932D01*
X251201Y251963D01*
X251584Y252055D01*
X251947Y252206D01*
X252283Y252411D01*
X252582Y252667D01*
X252838Y252966D01*
X253043Y253302D01*
X253194Y253665D01*
X253286Y254048D01*
X253309Y254440D01*
X253286Y254832D01*
X253194Y255215D01*
X253043Y255578D01*
X252838Y255914D01*
X252582Y256213D01*
X252283Y256469D01*
X251947Y256674D01*
X251584Y256825D01*
X251201Y256917D01*
X250809Y256948D01*
X250805Y256947D01*
Y272441D01*
G37*
G36*
X246976D02*X250805D01*
Y256947D01*
X250417Y256917D01*
X250034Y256825D01*
X249671Y256674D01*
X249335Y256469D01*
X249036Y256213D01*
X248780Y255914D01*
X248575Y255578D01*
X248424Y255215D01*
X248332Y254832D01*
X248301Y254440D01*
X248332Y254048D01*
X248424Y253665D01*
X248575Y253302D01*
X248780Y252966D01*
X249036Y252667D01*
X249335Y252411D01*
X249671Y252206D01*
X250034Y252055D01*
X250417Y251963D01*
X250805Y251933D01*
Y243741D01*
X246976D01*
Y246463D01*
X246980Y246462D01*
X247372Y246493D01*
X247755Y246585D01*
X248118Y246736D01*
X248454Y246941D01*
X248753Y247197D01*
X249009Y247496D01*
X249214Y247832D01*
X249365Y248195D01*
X249457Y248578D01*
X249480Y248970D01*
X249457Y249362D01*
X249365Y249745D01*
X249214Y250108D01*
X249009Y250444D01*
X248753Y250743D01*
X248454Y250999D01*
X248118Y251204D01*
X247755Y251355D01*
X247372Y251447D01*
X246980Y251478D01*
X246976Y251477D01*
Y272441D01*
G37*
G36*
X242931D02*X246976D01*
Y251477D01*
X246588Y251447D01*
X246205Y251355D01*
X245842Y251204D01*
X245506Y250999D01*
X245207Y250743D01*
X244951Y250444D01*
X244746Y250108D01*
X244595Y249745D01*
X244503Y249362D01*
X244472Y248970D01*
X244503Y248578D01*
X244595Y248195D01*
X244746Y247832D01*
X244951Y247496D01*
X245207Y247197D01*
X245506Y246941D01*
X245842Y246736D01*
X246205Y246585D01*
X246588Y246493D01*
X246976Y246463D01*
Y243741D01*
X242931D01*
Y251933D01*
X242935Y251932D01*
X243327Y251963D01*
X243710Y252055D01*
X244073Y252206D01*
X244409Y252411D01*
X244708Y252667D01*
X244964Y252966D01*
X245169Y253302D01*
X245320Y253665D01*
X245412Y254048D01*
X245435Y254440D01*
X245412Y254832D01*
X245320Y255215D01*
X245169Y255578D01*
X244964Y255914D01*
X244708Y256213D01*
X244409Y256469D01*
X244073Y256674D01*
X243710Y256825D01*
X243327Y256917D01*
X242935Y256948D01*
X242931Y256947D01*
Y272441D01*
G37*
G36*
X234368Y243741D02*Y272441D01*
X242931D01*
Y256947D01*
X242543Y256917D01*
X242160Y256825D01*
X241797Y256674D01*
X241461Y256469D01*
X241162Y256213D01*
X240906Y255914D01*
X240701Y255578D01*
X240550Y255215D01*
X240458Y254832D01*
X240427Y254440D01*
X240458Y254048D01*
X240550Y253665D01*
X240701Y253302D01*
X240906Y252966D01*
X241162Y252667D01*
X241461Y252411D01*
X241797Y252206D01*
X242160Y252055D01*
X242543Y251963D01*
X242931Y251933D01*
Y243741D01*
X234368D01*
G37*
G36*
X254816Y272441D02*X257865D01*
Y256807D01*
X257588Y256692D01*
X257252Y256487D01*
X256953Y256231D01*
X256697Y255932D01*
X256492Y255596D01*
X256341Y255233D01*
X256249Y254850D01*
X256218Y254458D01*
X256249Y254066D01*
X256341Y253683D01*
X256492Y253320D01*
X256697Y252984D01*
X256953Y252685D01*
X257252Y252429D01*
X257588Y252224D01*
X257865Y252109D01*
Y243741D01*
X254816D01*
Y246463D01*
X254820Y246462D01*
X255212Y246493D01*
X255595Y246585D01*
X255958Y246736D01*
X256294Y246941D01*
X256593Y247197D01*
X256849Y247496D01*
X257054Y247832D01*
X257205Y248195D01*
X257297Y248578D01*
X257320Y248970D01*
X257297Y249362D01*
X257205Y249745D01*
X257054Y250108D01*
X256849Y250444D01*
X256593Y250743D01*
X256294Y250999D01*
X255958Y251204D01*
X255595Y251355D01*
X255212Y251447D01*
X254820Y251478D01*
X254816Y251477D01*
Y272441D01*
G37*
G36*
X250805D02*X254816D01*
Y251477D01*
X254428Y251447D01*
X254045Y251355D01*
X253682Y251204D01*
X253346Y250999D01*
X253047Y250743D01*
X252791Y250444D01*
X252586Y250108D01*
X252435Y249745D01*
X252343Y249362D01*
X252312Y248970D01*
X252343Y248578D01*
X252435Y248195D01*
X252586Y247832D01*
X252791Y247496D01*
X253047Y247197D01*
X253346Y246941D01*
X253682Y246736D01*
X254045Y246585D01*
X254428Y246493D01*
X254816Y246463D01*
Y243741D01*
X250805D01*
Y251933D01*
X250809Y251932D01*
X251201Y251963D01*
X251584Y252055D01*
X251947Y252206D01*
X252283Y252411D01*
X252582Y252667D01*
X252838Y252966D01*
X253043Y253302D01*
X253194Y253665D01*
X253286Y254048D01*
X253309Y254440D01*
X253286Y254832D01*
X253194Y255215D01*
X253043Y255578D01*
X252838Y255914D01*
X252582Y256213D01*
X252283Y256469D01*
X251947Y256674D01*
X251584Y256825D01*
X251201Y256917D01*
X250809Y256948D01*
X250805Y256947D01*
Y272441D01*
G37*
G36*
X246976D02*X250805D01*
Y256947D01*
X250417Y256917D01*
X250034Y256825D01*
X249671Y256674D01*
X249335Y256469D01*
X249036Y256213D01*
X248780Y255914D01*
X248575Y255578D01*
X248424Y255215D01*
X248332Y254832D01*
X248301Y254440D01*
X248332Y254048D01*
X248424Y253665D01*
X248575Y253302D01*
X248780Y252966D01*
X249036Y252667D01*
X249335Y252411D01*
X249671Y252206D01*
X250034Y252055D01*
X250417Y251963D01*
X250805Y251933D01*
Y243741D01*
X246976D01*
Y246463D01*
X246980Y246462D01*
X247372Y246493D01*
X247755Y246585D01*
X248118Y246736D01*
X248454Y246941D01*
X248753Y247197D01*
X249009Y247496D01*
X249214Y247832D01*
X249365Y248195D01*
X249457Y248578D01*
X249480Y248970D01*
X249457Y249362D01*
X249365Y249745D01*
X249214Y250108D01*
X249009Y250444D01*
X248753Y250743D01*
X248454Y250999D01*
X248118Y251204D01*
X247755Y251355D01*
X247372Y251447D01*
X246980Y251478D01*
X246976Y251477D01*
Y272441D01*
G37*
G36*
X242931D02*X246976D01*
Y251477D01*
X246588Y251447D01*
X246205Y251355D01*
X245842Y251204D01*
X245506Y250999D01*
X245207Y250743D01*
X244951Y250444D01*
X244746Y250108D01*
X244595Y249745D01*
X244503Y249362D01*
X244472Y248970D01*
X244503Y248578D01*
X244595Y248195D01*
X244746Y247832D01*
X244951Y247496D01*
X245207Y247197D01*
X245506Y246941D01*
X245842Y246736D01*
X246205Y246585D01*
X246588Y246493D01*
X246976Y246463D01*
Y243741D01*
X242931D01*
Y251933D01*
X242935Y251932D01*
X243327Y251963D01*
X243710Y252055D01*
X244073Y252206D01*
X244409Y252411D01*
X244708Y252667D01*
X244964Y252966D01*
X245169Y253302D01*
X245320Y253665D01*
X245412Y254048D01*
X245435Y254440D01*
X245412Y254832D01*
X245320Y255215D01*
X245169Y255578D01*
X244964Y255914D01*
X244708Y256213D01*
X244409Y256469D01*
X244073Y256674D01*
X243710Y256825D01*
X243327Y256917D01*
X242935Y256948D01*
X242931Y256947D01*
Y272441D01*
G37*
G36*
X234368Y243741D02*Y272441D01*
X242931D01*
Y256947D01*
X242543Y256917D01*
X242160Y256825D01*
X241797Y256674D01*
X241461Y256469D01*
X241162Y256213D01*
X240906Y255914D01*
X240701Y255578D01*
X240550Y255215D01*
X240458Y254832D01*
X240427Y254440D01*
X240458Y254048D01*
X240550Y253665D01*
X240701Y253302D01*
X240906Y252966D01*
X241162Y252667D01*
X241461Y252411D01*
X241797Y252206D01*
X242160Y252055D01*
X242543Y251963D01*
X242931Y251933D01*
Y243741D01*
X234368D01*
G37*
G36*
X206867D02*Y258148D01*
X206936Y258066D01*
X207382Y257686D01*
X207881Y257380D01*
X208422Y257156D01*
X208992Y257019D01*
X209576Y256973D01*
X210160Y257019D01*
X210730Y257156D01*
X211271Y257380D01*
X211770Y257686D01*
X212216Y258066D01*
X212596Y258512D01*
X212902Y259011D01*
X213126Y259552D01*
X213263Y260122D01*
X213298Y260706D01*
X213263Y261290D01*
X213126Y261860D01*
X212902Y262401D01*
X212596Y262900D01*
X212216Y263346D01*
X211770Y263726D01*
X211271Y264032D01*
X210730Y264256D01*
X210160Y264393D01*
X209576Y264439D01*
X208992Y264393D01*
X208422Y264256D01*
X207881Y264032D01*
X207382Y263726D01*
X206936Y263346D01*
X206867Y263264D01*
Y272441D01*
X230364D01*
Y243741D01*
X206867D01*
G37*
G36*
Y258148D01*
X206936Y258066D01*
X207382Y257686D01*
X207881Y257380D01*
X208422Y257156D01*
X208992Y257019D01*
X209576Y256973D01*
X210160Y257019D01*
X210730Y257156D01*
X211271Y257380D01*
X211770Y257686D01*
X212216Y258066D01*
X212596Y258512D01*
X212902Y259011D01*
X213126Y259552D01*
X213263Y260122D01*
X213298Y260706D01*
X213263Y261290D01*
X213126Y261860D01*
X212902Y262401D01*
X212596Y262900D01*
X212216Y263346D01*
X211770Y263726D01*
X211271Y264032D01*
X210730Y264256D01*
X210160Y264393D01*
X209576Y264439D01*
X208992Y264393D01*
X208422Y264256D01*
X207881Y264032D01*
X207382Y263726D01*
X206936Y263346D01*
X206867Y263264D01*
Y272441D01*
X230364D01*
Y243741D01*
X206867D01*
G37*
G36*
X198744Y263712D02*X199026Y263471D01*
X199362Y263266D01*
X199725Y263115D01*
X200108Y263023D01*
X200500Y262992D01*
X200892Y263023D01*
X201275Y263115D01*
X201365Y263152D01*
Y255545D01*
X201123Y255487D01*
X200760Y255336D01*
X200424Y255131D01*
X200125Y254875D01*
X199869Y254576D01*
X199664Y254240D01*
X199513Y253877D01*
X199421Y253494D01*
X199390Y253102D01*
X199421Y252710D01*
X199513Y252327D01*
X199664Y251964D01*
X199869Y251628D01*
X200125Y251329D01*
X200424Y251073D01*
X200760Y250868D01*
X201123Y250717D01*
X201365Y250659D01*
Y243741D01*
X198744D01*
Y244745D01*
X198748Y244744D01*
X199140Y244775D01*
X199523Y244867D01*
X199886Y245018D01*
X200222Y245223D01*
X200521Y245479D01*
X200777Y245778D01*
X200982Y246114D01*
X201133Y246477D01*
X201225Y246860D01*
X201248Y247252D01*
X201225Y247644D01*
X201133Y248027D01*
X200982Y248390D01*
X200777Y248726D01*
X200521Y249025D01*
X200222Y249281D01*
X199886Y249486D01*
X199523Y249637D01*
X199140Y249729D01*
X198748Y249760D01*
X198744Y249759D01*
Y263712D01*
G37*
G36*
Y272441D02*X201365D01*
Y271301D01*
X201266Y271138D01*
X201115Y270775D01*
X201023Y270392D01*
X200992Y270000D01*
X201023Y269608D01*
X201115Y269225D01*
X201266Y268862D01*
X201365Y268699D01*
Y267848D01*
X201275Y267885D01*
X200892Y267977D01*
X200500Y268008D01*
X200108Y267977D01*
X199725Y267885D01*
X199362Y267734D01*
X199026Y267529D01*
X198744Y267288D01*
Y272441D01*
G37*
G36*
X195595D02*X198744D01*
Y267288D01*
X198727Y267273D01*
X198471Y266974D01*
X198266Y266638D01*
X198115Y266275D01*
X198023Y265892D01*
X197992Y265500D01*
X198023Y265108D01*
X198115Y264725D01*
X198266Y264362D01*
X198471Y264026D01*
X198727Y263727D01*
X198744Y263712D01*
Y249759D01*
X198356Y249729D01*
X197973Y249637D01*
X197610Y249486D01*
X197274Y249281D01*
X196975Y249025D01*
X196719Y248726D01*
X196514Y248390D01*
X196363Y248027D01*
X196271Y247644D01*
X196240Y247252D01*
X196271Y246860D01*
X196363Y246477D01*
X196514Y246114D01*
X196719Y245778D01*
X196975Y245479D01*
X197274Y245223D01*
X197610Y245018D01*
X197973Y244867D01*
X198356Y244775D01*
X198744Y244745D01*
Y243741D01*
X195595D01*
Y250394D01*
X195599Y250393D01*
X195991Y250424D01*
X196374Y250516D01*
X196737Y250667D01*
X197073Y250872D01*
X197372Y251128D01*
X197628Y251427D01*
X197833Y251763D01*
X197984Y252126D01*
X198076Y252509D01*
X198099Y252901D01*
X198076Y253293D01*
X197984Y253676D01*
X197833Y254039D01*
X197628Y254375D01*
X197372Y254674D01*
X197073Y254930D01*
X196737Y255135D01*
X196374Y255286D01*
X195991Y255378D01*
X195599Y255409D01*
X195595Y255408D01*
Y272441D01*
G37*
G36*
X192446D02*X195595D01*
Y255408D01*
X195207Y255378D01*
X194824Y255286D01*
X194461Y255135D01*
X194125Y254930D01*
X193826Y254674D01*
X193570Y254375D01*
X193365Y254039D01*
X193214Y253676D01*
X193122Y253293D01*
X193091Y252901D01*
X193122Y252509D01*
X193214Y252126D01*
X193365Y251763D01*
X193570Y251427D01*
X193826Y251128D01*
X194125Y250872D01*
X194461Y250667D01*
X194824Y250516D01*
X195207Y250424D01*
X195595Y250394D01*
Y243741D01*
X192446D01*
Y244543D01*
X192450Y244542D01*
X192842Y244573D01*
X193225Y244665D01*
X193588Y244816D01*
X193924Y245021D01*
X194223Y245277D01*
X194479Y245576D01*
X194684Y245912D01*
X194835Y246275D01*
X194927Y246658D01*
X194950Y247050D01*
X194927Y247442D01*
X194835Y247825D01*
X194684Y248188D01*
X194479Y248524D01*
X194223Y248823D01*
X193924Y249079D01*
X193588Y249284D01*
X193225Y249435D01*
X192842Y249527D01*
X192450Y249558D01*
X192446Y249557D01*
Y272441D01*
G37*
G36*
X189295D02*X192446D01*
Y249557D01*
X192058Y249527D01*
X191675Y249435D01*
X191312Y249284D01*
X190976Y249079D01*
X190677Y248823D01*
X190421Y248524D01*
X190216Y248188D01*
X190065Y247825D01*
X189973Y247442D01*
X189942Y247050D01*
X189973Y246658D01*
X190065Y246275D01*
X190216Y245912D01*
X190421Y245576D01*
X190677Y245277D01*
X190976Y245021D01*
X191312Y244816D01*
X191675Y244665D01*
X192058Y244573D01*
X192446Y244543D01*
Y243741D01*
X189295D01*
Y250194D01*
X189299Y250193D01*
X189691Y250224D01*
X190074Y250316D01*
X190437Y250467D01*
X190773Y250672D01*
X191072Y250928D01*
X191328Y251227D01*
X191533Y251563D01*
X191684Y251926D01*
X191776Y252309D01*
X191799Y252701D01*
X191776Y253093D01*
X191684Y253476D01*
X191533Y253839D01*
X191328Y254175D01*
X191072Y254474D01*
X190773Y254730D01*
X190437Y254935D01*
X190074Y255086D01*
X189691Y255178D01*
X189299Y255209D01*
X189295Y255208D01*
Y272441D01*
G37*
G36*
X186146D02*X189295D01*
Y255208D01*
X188907Y255178D01*
X188524Y255086D01*
X188161Y254935D01*
X187825Y254730D01*
X187526Y254474D01*
X187270Y254175D01*
X187065Y253839D01*
X186914Y253476D01*
X186822Y253093D01*
X186791Y252701D01*
X186822Y252309D01*
X186914Y251926D01*
X187065Y251563D01*
X187270Y251227D01*
X187526Y250928D01*
X187825Y250672D01*
X188161Y250467D01*
X188524Y250316D01*
X188907Y250224D01*
X189295Y250194D01*
Y243741D01*
X186146D01*
Y244343D01*
X186150Y244342D01*
X186542Y244373D01*
X186925Y244465D01*
X187288Y244616D01*
X187624Y244821D01*
X187923Y245077D01*
X188179Y245376D01*
X188384Y245712D01*
X188535Y246075D01*
X188627Y246458D01*
X188650Y246850D01*
X188627Y247242D01*
X188535Y247625D01*
X188384Y247988D01*
X188179Y248324D01*
X187923Y248623D01*
X187624Y248879D01*
X187288Y249084D01*
X186925Y249235D01*
X186542Y249327D01*
X186150Y249358D01*
X186146Y249357D01*
Y272441D01*
G37*
G36*
X183026Y269690D02*X183322Y269713D01*
X183705Y269805D01*
X184068Y269956D01*
X184404Y270161D01*
X184703Y270417D01*
X184959Y270716D01*
X185164Y271052D01*
X185315Y271415D01*
X185407Y271798D01*
X185430Y272190D01*
X185415Y272441D01*
X186146D01*
Y249357D01*
X185758Y249327D01*
X185375Y249235D01*
X185012Y249084D01*
X184676Y248879D01*
X184377Y248623D01*
X184121Y248324D01*
X183916Y247988D01*
X183765Y247625D01*
X183673Y247242D01*
X183642Y246850D01*
X183673Y246458D01*
X183765Y246075D01*
X183916Y245712D01*
X184121Y245376D01*
X184377Y245077D01*
X184676Y244821D01*
X185012Y244616D01*
X185375Y244465D01*
X185758Y244373D01*
X186146Y244343D01*
Y243741D01*
X183026D01*
Y250083D01*
X183030Y250082D01*
X183422Y250113D01*
X183805Y250205D01*
X184168Y250356D01*
X184504Y250561D01*
X184803Y250817D01*
X185059Y251116D01*
X185264Y251452D01*
X185415Y251815D01*
X185507Y252198D01*
X185530Y252590D01*
X185507Y252982D01*
X185415Y253365D01*
X185264Y253728D01*
X185059Y254064D01*
X184803Y254363D01*
X184504Y254619D01*
X184168Y254824D01*
X183805Y254975D01*
X183422Y255067D01*
X183030Y255098D01*
X183026Y255097D01*
Y269690D01*
G37*
G36*
X177868Y243741D02*Y245414D01*
X178060Y245190D01*
X178359Y244934D01*
X178695Y244729D01*
X179058Y244578D01*
X179441Y244486D01*
X179833Y244455D01*
X180225Y244486D01*
X180608Y244578D01*
X180971Y244729D01*
X181307Y244934D01*
X181606Y245190D01*
X181862Y245489D01*
X182067Y245825D01*
X182218Y246188D01*
X182310Y246571D01*
X182333Y246963D01*
X182310Y247355D01*
X182218Y247738D01*
X182067Y248101D01*
X181862Y248437D01*
X181606Y248736D01*
X181307Y248992D01*
X180971Y249197D01*
X180608Y249348D01*
X180225Y249440D01*
X179833Y249471D01*
X179441Y249440D01*
X179058Y249348D01*
X178695Y249197D01*
X178359Y248992D01*
X178060Y248736D01*
X177868Y248512D01*
Y250355D01*
X177868Y250356D01*
X178204Y250561D01*
X178503Y250817D01*
X178759Y251116D01*
X178964Y251452D01*
X179115Y251815D01*
X179207Y252198D01*
X179230Y252590D01*
X179207Y252982D01*
X179115Y253365D01*
X178964Y253728D01*
X178759Y254064D01*
X178503Y254363D01*
X178204Y254619D01*
X177868Y254824D01*
X177868Y254825D01*
Y264463D01*
X178029Y264275D01*
X178328Y264019D01*
X178664Y263814D01*
X179027Y263663D01*
X179410Y263571D01*
X179802Y263540D01*
X180194Y263571D01*
X180577Y263663D01*
X180940Y263814D01*
X181276Y264019D01*
X181575Y264275D01*
X181831Y264574D01*
X182036Y264910D01*
X182187Y265273D01*
X182279Y265656D01*
X182302Y266048D01*
X182279Y266440D01*
X182187Y266823D01*
X182036Y267186D01*
X181831Y267522D01*
X181575Y267821D01*
X181276Y268077D01*
X180940Y268282D01*
X180577Y268433D01*
X180194Y268525D01*
X179802Y268556D01*
X179410Y268525D01*
X179027Y268433D01*
X178664Y268282D01*
X178328Y268077D01*
X178029Y267821D01*
X177868Y267633D01*
Y269955D01*
X177868Y269956D01*
X178204Y270161D01*
X178503Y270417D01*
X178759Y270716D01*
X178964Y271052D01*
X179115Y271415D01*
X179207Y271798D01*
X179230Y272190D01*
X179215Y272441D01*
X180442D01*
X180422Y272190D01*
X180453Y271798D01*
X180545Y271415D01*
X180696Y271052D01*
X180901Y270716D01*
X181157Y270417D01*
X181456Y270161D01*
X181792Y269956D01*
X182155Y269805D01*
X182538Y269713D01*
X182930Y269682D01*
X183026Y269690D01*
Y255097D01*
X182638Y255067D01*
X182255Y254975D01*
X181892Y254824D01*
X181556Y254619D01*
X181257Y254363D01*
X181001Y254064D01*
X180796Y253728D01*
X180645Y253365D01*
X180553Y252982D01*
X180522Y252590D01*
X180553Y252198D01*
X180645Y251815D01*
X180796Y251452D01*
X181001Y251116D01*
X181257Y250817D01*
X181556Y250561D01*
X181892Y250356D01*
X182255Y250205D01*
X182638Y250113D01*
X183026Y250083D01*
Y243741D01*
X177868D01*
G37*
G36*
X198744Y263712D02*X199026Y263471D01*
X199362Y263266D01*
X199725Y263115D01*
X200108Y263023D01*
X200500Y262992D01*
X200892Y263023D01*
X201275Y263115D01*
X201365Y263152D01*
Y255545D01*
X201123Y255487D01*
X200760Y255336D01*
X200424Y255131D01*
X200125Y254875D01*
X199869Y254576D01*
X199664Y254240D01*
X199513Y253877D01*
X199421Y253494D01*
X199390Y253102D01*
X199421Y252710D01*
X199513Y252327D01*
X199664Y251964D01*
X199869Y251628D01*
X200125Y251329D01*
X200424Y251073D01*
X200760Y250868D01*
X201123Y250717D01*
X201365Y250659D01*
Y243741D01*
X198744D01*
Y244745D01*
X198748Y244744D01*
X199140Y244775D01*
X199523Y244867D01*
X199886Y245018D01*
X200222Y245223D01*
X200521Y245479D01*
X200777Y245778D01*
X200982Y246114D01*
X201133Y246477D01*
X201225Y246860D01*
X201248Y247252D01*
X201225Y247644D01*
X201133Y248027D01*
X200982Y248390D01*
X200777Y248726D01*
X200521Y249025D01*
X200222Y249281D01*
X199886Y249486D01*
X199523Y249637D01*
X199140Y249729D01*
X198748Y249760D01*
X198744Y249759D01*
Y263712D01*
G37*
G36*
Y272441D02*X201365D01*
Y271301D01*
X201266Y271138D01*
X201115Y270775D01*
X201023Y270392D01*
X200992Y270000D01*
X201023Y269608D01*
X201115Y269225D01*
X201266Y268862D01*
X201365Y268699D01*
Y267848D01*
X201275Y267885D01*
X200892Y267977D01*
X200500Y268008D01*
X200108Y267977D01*
X199725Y267885D01*
X199362Y267734D01*
X199026Y267529D01*
X198744Y267288D01*
Y272441D01*
G37*
G36*
X195595D02*X198744D01*
Y267288D01*
X198727Y267273D01*
X198471Y266974D01*
X198266Y266638D01*
X198115Y266275D01*
X198023Y265892D01*
X197992Y265500D01*
X198023Y265108D01*
X198115Y264725D01*
X198266Y264362D01*
X198471Y264026D01*
X198727Y263727D01*
X198744Y263712D01*
Y249759D01*
X198356Y249729D01*
X197973Y249637D01*
X197610Y249486D01*
X197274Y249281D01*
X196975Y249025D01*
X196719Y248726D01*
X196514Y248390D01*
X196363Y248027D01*
X196271Y247644D01*
X196240Y247252D01*
X196271Y246860D01*
X196363Y246477D01*
X196514Y246114D01*
X196719Y245778D01*
X196975Y245479D01*
X197274Y245223D01*
X197610Y245018D01*
X197973Y244867D01*
X198356Y244775D01*
X198744Y244745D01*
Y243741D01*
X195595D01*
Y250394D01*
X195599Y250393D01*
X195991Y250424D01*
X196374Y250516D01*
X196737Y250667D01*
X197073Y250872D01*
X197372Y251128D01*
X197628Y251427D01*
X197833Y251763D01*
X197984Y252126D01*
X198076Y252509D01*
X198099Y252901D01*
X198076Y253293D01*
X197984Y253676D01*
X197833Y254039D01*
X197628Y254375D01*
X197372Y254674D01*
X197073Y254930D01*
X196737Y255135D01*
X196374Y255286D01*
X195991Y255378D01*
X195599Y255409D01*
X195595Y255408D01*
Y272441D01*
G37*
G36*
X192446D02*X195595D01*
Y255408D01*
X195207Y255378D01*
X194824Y255286D01*
X194461Y255135D01*
X194125Y254930D01*
X193826Y254674D01*
X193570Y254375D01*
X193365Y254039D01*
X193214Y253676D01*
X193122Y253293D01*
X193091Y252901D01*
X193122Y252509D01*
X193214Y252126D01*
X193365Y251763D01*
X193570Y251427D01*
X193826Y251128D01*
X194125Y250872D01*
X194461Y250667D01*
X194824Y250516D01*
X195207Y250424D01*
X195595Y250394D01*
Y243741D01*
X192446D01*
Y244543D01*
X192450Y244542D01*
X192842Y244573D01*
X193225Y244665D01*
X193588Y244816D01*
X193924Y245021D01*
X194223Y245277D01*
X194479Y245576D01*
X194684Y245912D01*
X194835Y246275D01*
X194927Y246658D01*
X194950Y247050D01*
X194927Y247442D01*
X194835Y247825D01*
X194684Y248188D01*
X194479Y248524D01*
X194223Y248823D01*
X193924Y249079D01*
X193588Y249284D01*
X193225Y249435D01*
X192842Y249527D01*
X192450Y249558D01*
X192446Y249557D01*
Y272441D01*
G37*
G36*
X189295D02*X192446D01*
Y249557D01*
X192058Y249527D01*
X191675Y249435D01*
X191312Y249284D01*
X190976Y249079D01*
X190677Y248823D01*
X190421Y248524D01*
X190216Y248188D01*
X190065Y247825D01*
X189973Y247442D01*
X189942Y247050D01*
X189973Y246658D01*
X190065Y246275D01*
X190216Y245912D01*
X190421Y245576D01*
X190677Y245277D01*
X190976Y245021D01*
X191312Y244816D01*
X191675Y244665D01*
X192058Y244573D01*
X192446Y244543D01*
Y243741D01*
X189295D01*
Y250194D01*
X189299Y250193D01*
X189691Y250224D01*
X190074Y250316D01*
X190437Y250467D01*
X190773Y250672D01*
X191072Y250928D01*
X191328Y251227D01*
X191533Y251563D01*
X191684Y251926D01*
X191776Y252309D01*
X191799Y252701D01*
X191776Y253093D01*
X191684Y253476D01*
X191533Y253839D01*
X191328Y254175D01*
X191072Y254474D01*
X190773Y254730D01*
X190437Y254935D01*
X190074Y255086D01*
X189691Y255178D01*
X189299Y255209D01*
X189295Y255208D01*
Y272441D01*
G37*
G36*
X186146D02*X189295D01*
Y255208D01*
X188907Y255178D01*
X188524Y255086D01*
X188161Y254935D01*
X187825Y254730D01*
X187526Y254474D01*
X187270Y254175D01*
X187065Y253839D01*
X186914Y253476D01*
X186822Y253093D01*
X186791Y252701D01*
X186822Y252309D01*
X186914Y251926D01*
X187065Y251563D01*
X187270Y251227D01*
X187526Y250928D01*
X187825Y250672D01*
X188161Y250467D01*
X188524Y250316D01*
X188907Y250224D01*
X189295Y250194D01*
Y243741D01*
X186146D01*
Y244343D01*
X186150Y244342D01*
X186542Y244373D01*
X186925Y244465D01*
X187288Y244616D01*
X187624Y244821D01*
X187923Y245077D01*
X188179Y245376D01*
X188384Y245712D01*
X188535Y246075D01*
X188627Y246458D01*
X188650Y246850D01*
X188627Y247242D01*
X188535Y247625D01*
X188384Y247988D01*
X188179Y248324D01*
X187923Y248623D01*
X187624Y248879D01*
X187288Y249084D01*
X186925Y249235D01*
X186542Y249327D01*
X186150Y249358D01*
X186146Y249357D01*
Y272441D01*
G37*
G36*
X183026Y269690D02*X183322Y269713D01*
X183705Y269805D01*
X184068Y269956D01*
X184404Y270161D01*
X184703Y270417D01*
X184959Y270716D01*
X185164Y271052D01*
X185315Y271415D01*
X185407Y271798D01*
X185430Y272190D01*
X185415Y272441D01*
X186146D01*
Y249357D01*
X185758Y249327D01*
X185375Y249235D01*
X185012Y249084D01*
X184676Y248879D01*
X184377Y248623D01*
X184121Y248324D01*
X183916Y247988D01*
X183765Y247625D01*
X183673Y247242D01*
X183642Y246850D01*
X183673Y246458D01*
X183765Y246075D01*
X183916Y245712D01*
X184121Y245376D01*
X184377Y245077D01*
X184676Y244821D01*
X185012Y244616D01*
X185375Y244465D01*
X185758Y244373D01*
X186146Y244343D01*
Y243741D01*
X183026D01*
Y250083D01*
X183030Y250082D01*
X183422Y250113D01*
X183805Y250205D01*
X184168Y250356D01*
X184504Y250561D01*
X184803Y250817D01*
X185059Y251116D01*
X185264Y251452D01*
X185415Y251815D01*
X185507Y252198D01*
X185530Y252590D01*
X185507Y252982D01*
X185415Y253365D01*
X185264Y253728D01*
X185059Y254064D01*
X184803Y254363D01*
X184504Y254619D01*
X184168Y254824D01*
X183805Y254975D01*
X183422Y255067D01*
X183030Y255098D01*
X183026Y255097D01*
Y269690D01*
G37*
G36*
X177868Y243741D02*Y245414D01*
X178060Y245190D01*
X178359Y244934D01*
X178695Y244729D01*
X179058Y244578D01*
X179441Y244486D01*
X179833Y244455D01*
X180225Y244486D01*
X180608Y244578D01*
X180971Y244729D01*
X181307Y244934D01*
X181606Y245190D01*
X181862Y245489D01*
X182067Y245825D01*
X182218Y246188D01*
X182310Y246571D01*
X182333Y246963D01*
X182310Y247355D01*
X182218Y247738D01*
X182067Y248101D01*
X181862Y248437D01*
X181606Y248736D01*
X181307Y248992D01*
X180971Y249197D01*
X180608Y249348D01*
X180225Y249440D01*
X179833Y249471D01*
X179441Y249440D01*
X179058Y249348D01*
X178695Y249197D01*
X178359Y248992D01*
X178060Y248736D01*
X177868Y248512D01*
Y250355D01*
X177868Y250356D01*
X178204Y250561D01*
X178503Y250817D01*
X178759Y251116D01*
X178964Y251452D01*
X179115Y251815D01*
X179207Y252198D01*
X179230Y252590D01*
X179207Y252982D01*
X179115Y253365D01*
X178964Y253728D01*
X178759Y254064D01*
X178503Y254363D01*
X178204Y254619D01*
X177868Y254824D01*
X177868Y254825D01*
Y264463D01*
X178029Y264275D01*
X178328Y264019D01*
X178664Y263814D01*
X179027Y263663D01*
X179410Y263571D01*
X179802Y263540D01*
X180194Y263571D01*
X180577Y263663D01*
X180940Y263814D01*
X181276Y264019D01*
X181575Y264275D01*
X181831Y264574D01*
X182036Y264910D01*
X182187Y265273D01*
X182279Y265656D01*
X182302Y266048D01*
X182279Y266440D01*
X182187Y266823D01*
X182036Y267186D01*
X181831Y267522D01*
X181575Y267821D01*
X181276Y268077D01*
X180940Y268282D01*
X180577Y268433D01*
X180194Y268525D01*
X179802Y268556D01*
X179410Y268525D01*
X179027Y268433D01*
X178664Y268282D01*
X178328Y268077D01*
X178029Y267821D01*
X177868Y267633D01*
Y269955D01*
X177868Y269956D01*
X178204Y270161D01*
X178503Y270417D01*
X178759Y270716D01*
X178964Y271052D01*
X179115Y271415D01*
X179207Y271798D01*
X179230Y272190D01*
X179215Y272441D01*
X180442D01*
X180422Y272190D01*
X180453Y271798D01*
X180545Y271415D01*
X180696Y271052D01*
X180901Y270716D01*
X181157Y270417D01*
X181456Y270161D01*
X181792Y269956D01*
X182155Y269805D01*
X182538Y269713D01*
X182930Y269682D01*
X183026Y269690D01*
Y255097D01*
X182638Y255067D01*
X182255Y254975D01*
X181892Y254824D01*
X181556Y254619D01*
X181257Y254363D01*
X181001Y254064D01*
X180796Y253728D01*
X180645Y253365D01*
X180553Y252982D01*
X180522Y252590D01*
X180553Y252198D01*
X180645Y251815D01*
X180796Y251452D01*
X181001Y251116D01*
X181257Y250817D01*
X181556Y250561D01*
X181892Y250356D01*
X182255Y250205D01*
X182638Y250113D01*
X183026Y250083D01*
Y243741D01*
X177868D01*
G37*
G36*
X124868Y244241D02*Y272941D01*
X148365D01*
Y244241D01*
X124868D01*
G37*
G36*
X96868D02*Y272941D01*
X120365D01*
Y244241D01*
X96868D01*
G37*
G36*
X115994Y305938D02*X129864D01*
Y277238D01*
X115994D01*
Y290988D01*
X116000Y290988D01*
X116628Y291037D01*
X117240Y291184D01*
X117822Y291425D01*
X118358Y291754D01*
X118837Y292163D01*
X119246Y292642D01*
X119575Y293178D01*
X119816Y293760D01*
X119963Y294372D01*
X120000Y295000D01*
X119963Y295628D01*
X119816Y296240D01*
X119575Y296822D01*
X119246Y297358D01*
X118837Y297837D01*
X118358Y298246D01*
X117822Y298575D01*
X117240Y298816D01*
X116628Y298963D01*
X116000Y299012D01*
X115994Y299012D01*
Y305938D01*
G37*
G36*
X106368Y277238D02*Y305938D01*
X115994D01*
Y299012D01*
X115372Y298963D01*
X114760Y298816D01*
X114178Y298575D01*
X113642Y298246D01*
X113163Y297837D01*
X112754Y297358D01*
X112425Y296822D01*
X112184Y296240D01*
X112037Y295628D01*
X111988Y295000D01*
X112037Y294372D01*
X112184Y293760D01*
X112425Y293178D01*
X112754Y292642D01*
X113163Y292163D01*
X113642Y291754D01*
X114178Y291425D01*
X114760Y291184D01*
X115372Y291037D01*
X115994Y290988D01*
Y277238D01*
X106368D01*
G37*
G36*
X124868Y244241D02*Y272941D01*
X148365D01*
Y244241D01*
X124868D01*
G37*
G36*
X96868D02*Y272941D01*
X120365D01*
Y244241D01*
X96868D01*
G37*
G36*
X170426Y269683D02*X170430Y269682D01*
X170822Y269713D01*
X171205Y269805D01*
X171568Y269956D01*
X171904Y270161D01*
X172203Y270417D01*
X172459Y270716D01*
X172664Y271052D01*
X172815Y271415D01*
X172907Y271798D01*
X172930Y272190D01*
X172907Y272582D01*
X172821Y272941D01*
X174339D01*
X174253Y272582D01*
X174222Y272190D01*
X174253Y271798D01*
X174345Y271415D01*
X174496Y271052D01*
X174701Y270716D01*
X174868Y270521D01*
Y268143D01*
X174640Y268282D01*
X174277Y268433D01*
X173894Y268525D01*
X173502Y268556D01*
X173110Y268525D01*
X172727Y268433D01*
X172364Y268282D01*
X172028Y268077D01*
X171729Y267821D01*
X171473Y267522D01*
X171268Y267186D01*
X171117Y266823D01*
X171025Y266440D01*
X170994Y266048D01*
X171025Y265656D01*
X171117Y265273D01*
X171268Y264910D01*
X171473Y264574D01*
X171729Y264275D01*
X172028Y264019D01*
X172364Y263814D01*
X172727Y263663D01*
X173110Y263571D01*
X173502Y263540D01*
X173894Y263571D01*
X174277Y263663D01*
X174640Y263814D01*
X174868Y263953D01*
Y254259D01*
X174701Y254064D01*
X174496Y253728D01*
X174345Y253365D01*
X174253Y252982D01*
X174222Y252590D01*
X174253Y252198D01*
X174345Y251815D01*
X174496Y251452D01*
X174701Y251116D01*
X174868Y250921D01*
Y249077D01*
X174671Y249197D01*
X174308Y249348D01*
X173925Y249440D01*
X173533Y249471D01*
X173141Y249440D01*
X172758Y249348D01*
X172395Y249197D01*
X172059Y248992D01*
X171760Y248736D01*
X171504Y248437D01*
X171299Y248101D01*
X171148Y247738D01*
X171056Y247355D01*
X171025Y246963D01*
X171056Y246571D01*
X171148Y246188D01*
X171299Y245825D01*
X171504Y245489D01*
X171760Y245190D01*
X172059Y244934D01*
X172395Y244729D01*
X172758Y244578D01*
X173141Y244486D01*
X173533Y244455D01*
X173925Y244486D01*
X174308Y244578D01*
X174671Y244729D01*
X174868Y244849D01*
Y244241D01*
X170426D01*
Y250083D01*
X170430Y250082D01*
X170822Y250113D01*
X171205Y250205D01*
X171568Y250356D01*
X171904Y250561D01*
X172203Y250817D01*
X172459Y251116D01*
X172664Y251452D01*
X172815Y251815D01*
X172907Y252198D01*
X172930Y252590D01*
X172907Y252982D01*
X172815Y253365D01*
X172664Y253728D01*
X172459Y254064D01*
X172203Y254363D01*
X171904Y254619D01*
X171568Y254824D01*
X171205Y254975D01*
X170822Y255067D01*
X170430Y255098D01*
X170426Y255097D01*
Y269683D01*
G37*
G36*
X167229Y272941D02*X168039D01*
X167953Y272582D01*
X167922Y272190D01*
X167953Y271798D01*
X168045Y271415D01*
X168196Y271052D01*
X168401Y270716D01*
X168657Y270417D01*
X168956Y270161D01*
X169292Y269956D01*
X169655Y269805D01*
X170038Y269713D01*
X170426Y269683D01*
Y255097D01*
X170038Y255067D01*
X169655Y254975D01*
X169292Y254824D01*
X168956Y254619D01*
X168657Y254363D01*
X168401Y254064D01*
X168196Y253728D01*
X168045Y253365D01*
X167953Y252982D01*
X167922Y252590D01*
X167953Y252198D01*
X168045Y251815D01*
X168196Y251452D01*
X168401Y251116D01*
X168657Y250817D01*
X168956Y250561D01*
X169292Y250356D01*
X169655Y250205D01*
X170038Y250113D01*
X170426Y250083D01*
Y244241D01*
X167229D01*
Y244456D01*
X167233Y244455D01*
X167625Y244486D01*
X168008Y244578D01*
X168371Y244729D01*
X168707Y244934D01*
X169006Y245190D01*
X169262Y245489D01*
X169467Y245825D01*
X169618Y246188D01*
X169710Y246571D01*
X169733Y246963D01*
X169710Y247355D01*
X169618Y247738D01*
X169467Y248101D01*
X169262Y248437D01*
X169006Y248736D01*
X168707Y248992D01*
X168371Y249197D01*
X168008Y249348D01*
X167625Y249440D01*
X167233Y249471D01*
X167229Y249470D01*
Y263542D01*
X167594Y263571D01*
X167977Y263663D01*
X168340Y263814D01*
X168676Y264019D01*
X168975Y264275D01*
X169231Y264574D01*
X169436Y264910D01*
X169587Y265273D01*
X169679Y265656D01*
X169702Y266048D01*
X169679Y266440D01*
X169587Y266823D01*
X169436Y267186D01*
X169231Y267522D01*
X168975Y267821D01*
X168676Y268077D01*
X168340Y268282D01*
X167977Y268433D01*
X167594Y268525D01*
X167229Y268554D01*
Y272941D01*
G37*
G36*
X164026Y269690D02*X164130Y269682D01*
X164522Y269713D01*
X164905Y269805D01*
X165268Y269956D01*
X165604Y270161D01*
X165903Y270417D01*
X166159Y270716D01*
X166364Y271052D01*
X166515Y271415D01*
X166607Y271798D01*
X166630Y272190D01*
X166607Y272582D01*
X166521Y272941D01*
X167229D01*
Y268554D01*
X167202Y268556D01*
X166810Y268525D01*
X166427Y268433D01*
X166064Y268282D01*
X165728Y268077D01*
X165429Y267821D01*
X165173Y267522D01*
X164968Y267186D01*
X164817Y266823D01*
X164725Y266440D01*
X164694Y266048D01*
X164725Y265656D01*
X164817Y265273D01*
X164968Y264910D01*
X165173Y264574D01*
X165429Y264275D01*
X165728Y264019D01*
X166064Y263814D01*
X166427Y263663D01*
X166810Y263571D01*
X167202Y263540D01*
X167229Y263542D01*
Y249470D01*
X166841Y249440D01*
X166458Y249348D01*
X166095Y249197D01*
X165759Y248992D01*
X165460Y248736D01*
X165204Y248437D01*
X164999Y248101D01*
X164848Y247738D01*
X164756Y247355D01*
X164725Y246963D01*
X164756Y246571D01*
X164848Y246188D01*
X164999Y245825D01*
X165204Y245489D01*
X165460Y245190D01*
X165759Y244934D01*
X166095Y244729D01*
X166458Y244578D01*
X166841Y244486D01*
X167229Y244456D01*
Y244241D01*
X164026D01*
Y250083D01*
X164030Y250082D01*
X164422Y250113D01*
X164805Y250205D01*
X165168Y250356D01*
X165504Y250561D01*
X165803Y250817D01*
X166059Y251116D01*
X166264Y251452D01*
X166415Y251815D01*
X166507Y252198D01*
X166530Y252590D01*
X166507Y252982D01*
X166415Y253365D01*
X166264Y253728D01*
X166059Y254064D01*
X165803Y254363D01*
X165504Y254619D01*
X165168Y254824D01*
X164805Y254975D01*
X164422Y255067D01*
X164030Y255098D01*
X164026Y255097D01*
Y269690D01*
G37*
G36*
X160906Y272941D02*X161739D01*
X161653Y272582D01*
X161622Y272190D01*
X161653Y271798D01*
X161745Y271415D01*
X161896Y271052D01*
X162101Y270716D01*
X162357Y270417D01*
X162656Y270161D01*
X162992Y269956D01*
X163355Y269805D01*
X163738Y269713D01*
X164026Y269690D01*
Y255097D01*
X163638Y255067D01*
X163255Y254975D01*
X162892Y254824D01*
X162556Y254619D01*
X162257Y254363D01*
X162001Y254064D01*
X161796Y253728D01*
X161645Y253365D01*
X161553Y252982D01*
X161522Y252590D01*
X161553Y252198D01*
X161645Y251815D01*
X161796Y251452D01*
X162001Y251116D01*
X162257Y250817D01*
X162556Y250561D01*
X162892Y250356D01*
X163255Y250205D01*
X163638Y250113D01*
X164026Y250083D01*
Y244241D01*
X160906D01*
Y244433D01*
X160910Y244432D01*
X161302Y244463D01*
X161685Y244555D01*
X162048Y244706D01*
X162384Y244911D01*
X162683Y245167D01*
X162939Y245466D01*
X163144Y245802D01*
X163295Y246165D01*
X163387Y246548D01*
X163410Y246940D01*
X163387Y247332D01*
X163295Y247715D01*
X163144Y248078D01*
X162939Y248414D01*
X162683Y248713D01*
X162384Y248969D01*
X162048Y249174D01*
X161685Y249325D01*
X161302Y249417D01*
X160910Y249448D01*
X160906Y249447D01*
Y263533D01*
X160910Y263532D01*
X161302Y263563D01*
X161685Y263655D01*
X162048Y263806D01*
X162384Y264011D01*
X162683Y264267D01*
X162939Y264566D01*
X163144Y264902D01*
X163295Y265265D01*
X163387Y265648D01*
X163410Y266040D01*
X163387Y266432D01*
X163295Y266815D01*
X163144Y267178D01*
X162939Y267514D01*
X162683Y267813D01*
X162384Y268069D01*
X162048Y268274D01*
X161685Y268425D01*
X161302Y268517D01*
X160910Y268548D01*
X160906Y268547D01*
Y272941D01*
G37*
G36*
X156420D02*X160906D01*
Y268547D01*
X160518Y268517D01*
X160135Y268425D01*
X159772Y268274D01*
X159436Y268069D01*
X159137Y267813D01*
X158881Y267514D01*
X158676Y267178D01*
X158525Y266815D01*
X158433Y266432D01*
X158402Y266040D01*
X158433Y265648D01*
X158525Y265265D01*
X158676Y264902D01*
X158881Y264566D01*
X159137Y264267D01*
X159436Y264011D01*
X159772Y263806D01*
X160135Y263655D01*
X160518Y263563D01*
X160906Y263533D01*
Y249447D01*
X160518Y249417D01*
X160135Y249325D01*
X159772Y249174D01*
X159436Y248969D01*
X159137Y248713D01*
X158881Y248414D01*
X158676Y248078D01*
X158525Y247715D01*
X158433Y247332D01*
X158402Y246940D01*
X158433Y246548D01*
X158525Y246165D01*
X158676Y245802D01*
X158881Y245466D01*
X159137Y245167D01*
X159436Y244911D01*
X159772Y244706D01*
X160135Y244555D01*
X160518Y244463D01*
X160906Y244433D01*
Y244241D01*
X156420D01*
Y256973D01*
X156426Y256973D01*
X157010Y257019D01*
X157580Y257156D01*
X158121Y257380D01*
X158620Y257686D01*
X159066Y258066D01*
X159446Y258512D01*
X159752Y259011D01*
X159976Y259552D01*
X160113Y260122D01*
X160148Y260706D01*
X160113Y261290D01*
X159976Y261860D01*
X159752Y262401D01*
X159446Y262900D01*
X159066Y263346D01*
X158620Y263726D01*
X158121Y264032D01*
X157580Y264256D01*
X157010Y264393D01*
X156426Y264439D01*
X156420Y264439D01*
Y272941D01*
G37*
G36*
X151365Y244241D02*Y272941D01*
X156420D01*
Y264439D01*
X155842Y264393D01*
X155272Y264256D01*
X154731Y264032D01*
X154232Y263726D01*
X153786Y263346D01*
X153406Y262900D01*
X153100Y262401D01*
X152876Y261860D01*
X152739Y261290D01*
X152693Y260706D01*
X152739Y260122D01*
X152876Y259552D01*
X153100Y259011D01*
X153406Y258512D01*
X153786Y258066D01*
X154232Y257686D01*
X154731Y257380D01*
X155272Y257156D01*
X155842Y257019D01*
X156420Y256973D01*
Y244241D01*
X151365D01*
G37*
G36*
X118996Y224942D02*X125367D01*
Y213419D01*
X125225Y213385D01*
X124862Y213234D01*
X124526Y213029D01*
X124227Y212773D01*
X123971Y212474D01*
X123766Y212138D01*
X123615Y211775D01*
X123523Y211392D01*
X123492Y211000D01*
X123523Y210608D01*
X123615Y210225D01*
X123766Y209862D01*
X123971Y209526D01*
X124227Y209227D01*
X124526Y208971D01*
X124862Y208766D01*
X125225Y208615D01*
X125367Y208581D01*
Y196242D01*
X118996D01*
Y201493D01*
X119000Y201492D01*
X119392Y201523D01*
X119775Y201615D01*
X120138Y201766D01*
X120474Y201971D01*
X120773Y202227D01*
X121029Y202526D01*
X121234Y202862D01*
X121385Y203225D01*
X121477Y203608D01*
X121500Y204000D01*
X121477Y204392D01*
X121385Y204775D01*
X121234Y205138D01*
X121029Y205474D01*
X120773Y205773D01*
X120474Y206029D01*
X120138Y206234D01*
X119775Y206385D01*
X119392Y206477D01*
X119000Y206508D01*
X118996Y206507D01*
Y224942D01*
G37*
G36*
X110496D02*X118996D01*
Y206507D01*
X118608Y206477D01*
X118225Y206385D01*
X117862Y206234D01*
X117526Y206029D01*
X117227Y205773D01*
X116971Y205474D01*
X116766Y205138D01*
X116615Y204775D01*
X116523Y204392D01*
X116492Y204000D01*
X116523Y203608D01*
X116615Y203225D01*
X116766Y202862D01*
X116971Y202526D01*
X117227Y202227D01*
X117526Y201971D01*
X117862Y201766D01*
X118225Y201615D01*
X118608Y201523D01*
X118996Y201493D01*
Y196242D01*
X117073D01*
X116939Y196274D01*
X116500Y196309D01*
X116061Y196274D01*
X115927Y196242D01*
X112671D01*
X112529Y196474D01*
X112273Y196773D01*
X111974Y197029D01*
X111638Y197234D01*
X111275Y197385D01*
X110892Y197477D01*
X110500Y197508D01*
X110496Y197507D01*
Y197993D01*
X110500Y197992D01*
X110892Y198023D01*
X111275Y198115D01*
X111638Y198266D01*
X111974Y198471D01*
X112273Y198727D01*
X112529Y199026D01*
X112734Y199362D01*
X112885Y199725D01*
X112977Y200108D01*
X113000Y200500D01*
X112977Y200892D01*
X112885Y201275D01*
X112734Y201638D01*
X112529Y201974D01*
X112273Y202273D01*
X111974Y202529D01*
X111638Y202734D01*
X111275Y202885D01*
X110892Y202977D01*
X110500Y203008D01*
X110496Y203007D01*
Y203993D01*
X110500Y203992D01*
X110892Y204023D01*
X111275Y204115D01*
X111638Y204266D01*
X111974Y204471D01*
X112273Y204727D01*
X112529Y205026D01*
X112734Y205362D01*
X112885Y205725D01*
X112977Y206108D01*
X113000Y206500D01*
X112977Y206892D01*
X112885Y207275D01*
X112734Y207638D01*
X112529Y207974D01*
X112273Y208273D01*
X111974Y208529D01*
X111638Y208734D01*
X111275Y208885D01*
X110892Y208977D01*
X110500Y209008D01*
X110496Y209007D01*
Y218048D01*
X110775Y218115D01*
X111138Y218266D01*
X111474Y218471D01*
X111773Y218727D01*
X112029Y219026D01*
X112234Y219362D01*
X112385Y219725D01*
X112477Y220108D01*
X112500Y220500D01*
X112477Y220892D01*
X112385Y221275D01*
X112234Y221638D01*
X112029Y221974D01*
X111773Y222273D01*
X111474Y222529D01*
X111138Y222734D01*
X110775Y222885D01*
X110496Y222952D01*
Y224942D01*
G37*
G36*
X101864Y196242D02*Y224942D01*
X110496D01*
Y222952D01*
X110392Y222977D01*
X110000Y223008D01*
X109608Y222977D01*
X109225Y222885D01*
X108862Y222734D01*
X108526Y222529D01*
X108227Y222273D01*
X107971Y221974D01*
X107766Y221638D01*
X107615Y221275D01*
X107523Y220892D01*
X107492Y220500D01*
X107523Y220108D01*
X107615Y219725D01*
X107766Y219362D01*
X107971Y219026D01*
X108227Y218727D01*
X108526Y218471D01*
X108862Y218266D01*
X109225Y218115D01*
X109608Y218023D01*
X110000Y217992D01*
X110392Y218023D01*
X110496Y218048D01*
Y209007D01*
X110108Y208977D01*
X109725Y208885D01*
X109362Y208734D01*
X109026Y208529D01*
X108727Y208273D01*
X108471Y207974D01*
X108266Y207638D01*
X108115Y207275D01*
X108023Y206892D01*
X107992Y206500D01*
X108023Y206108D01*
X108115Y205725D01*
X108266Y205362D01*
X108471Y205026D01*
X108727Y204727D01*
X109026Y204471D01*
X109362Y204266D01*
X109725Y204115D01*
X110108Y204023D01*
X110496Y203993D01*
Y203007D01*
X110108Y202977D01*
X109725Y202885D01*
X109362Y202734D01*
X109026Y202529D01*
X108727Y202273D01*
X108471Y201974D01*
X108266Y201638D01*
X108115Y201275D01*
X108023Y200892D01*
X107992Y200500D01*
X108023Y200108D01*
X108115Y199725D01*
X108266Y199362D01*
X108471Y199026D01*
X108727Y198727D01*
X109026Y198471D01*
X109362Y198266D01*
X109725Y198115D01*
X110108Y198023D01*
X110496Y197993D01*
Y197507D01*
X110108Y197477D01*
X109725Y197385D01*
X109362Y197234D01*
X109026Y197029D01*
X108727Y196773D01*
X108471Y196474D01*
X108329Y196242D01*
X101864D01*
G37*
G36*
X148996Y224942D02*X152868D01*
Y197497D01*
X152608Y197477D01*
X152225Y197385D01*
X151862Y197234D01*
X151526Y197029D01*
X151227Y196773D01*
X150971Y196474D01*
X150829Y196242D01*
X148996D01*
Y197493D01*
X149000Y197492D01*
X149392Y197523D01*
X149775Y197615D01*
X150138Y197766D01*
X150474Y197971D01*
X150773Y198227D01*
X151029Y198526D01*
X151234Y198862D01*
X151385Y199225D01*
X151477Y199608D01*
X151500Y200000D01*
X151477Y200392D01*
X151385Y200775D01*
X151234Y201138D01*
X151029Y201474D01*
X150773Y201773D01*
X150474Y202029D01*
X150138Y202234D01*
X149775Y202385D01*
X149392Y202477D01*
X149000Y202508D01*
X148996Y202507D01*
Y224942D01*
G37*
G36*
X140996D02*X148996D01*
Y202507D01*
X148608Y202477D01*
X148225Y202385D01*
X147862Y202234D01*
X147526Y202029D01*
X147227Y201773D01*
X146971Y201474D01*
X146766Y201138D01*
X146615Y200775D01*
X146523Y200392D01*
X146492Y200000D01*
X146523Y199608D01*
X146615Y199225D01*
X146766Y198862D01*
X146971Y198526D01*
X147227Y198227D01*
X147526Y197971D01*
X147862Y197766D01*
X148225Y197615D01*
X148608Y197523D01*
X148996Y197493D01*
Y196242D01*
X140996D01*
Y208493D01*
X141000Y208492D01*
X141392Y208523D01*
X141775Y208615D01*
X142138Y208766D01*
X142474Y208971D01*
X142773Y209227D01*
X143029Y209526D01*
X143234Y209862D01*
X143385Y210225D01*
X143477Y210608D01*
X143500Y211000D01*
X143477Y211392D01*
X143385Y211775D01*
X143234Y212138D01*
X143029Y212474D01*
X142773Y212773D01*
X142474Y213029D01*
X142138Y213234D01*
X141775Y213385D01*
X141392Y213477D01*
X141000Y213508D01*
X140996Y213507D01*
Y224942D01*
G37*
G36*
X134496D02*X140996D01*
Y213507D01*
X140608Y213477D01*
X140225Y213385D01*
X139862Y213234D01*
X139526Y213029D01*
X139227Y212773D01*
X138971Y212474D01*
X138766Y212138D01*
X138615Y211775D01*
X138523Y211392D01*
X138492Y211000D01*
X138523Y210608D01*
X138615Y210225D01*
X138766Y209862D01*
X138971Y209526D01*
X139227Y209227D01*
X139526Y208971D01*
X139862Y208766D01*
X140225Y208615D01*
X140608Y208523D01*
X140996Y208493D01*
Y196242D01*
X134496D01*
Y200993D01*
X134500Y200992D01*
X134892Y201023D01*
X135275Y201115D01*
X135638Y201266D01*
X135974Y201471D01*
X136273Y201727D01*
X136529Y202026D01*
X136734Y202362D01*
X136885Y202725D01*
X136977Y203108D01*
X137000Y203500D01*
X136977Y203892D01*
X136885Y204275D01*
X136734Y204638D01*
X136529Y204974D01*
X136273Y205273D01*
X135974Y205529D01*
X135638Y205734D01*
X135275Y205885D01*
X134892Y205977D01*
X134500Y206008D01*
X134496Y206007D01*
Y224942D01*
G37*
G36*
X129365Y196242D02*Y224942D01*
X134496D01*
Y206007D01*
X134108Y205977D01*
X133725Y205885D01*
X133362Y205734D01*
X133026Y205529D01*
X132727Y205273D01*
X132471Y204974D01*
X132266Y204638D01*
X132115Y204275D01*
X132023Y203892D01*
X131992Y203500D01*
X132023Y203108D01*
X132115Y202725D01*
X132266Y202362D01*
X132471Y202026D01*
X132727Y201727D01*
X133026Y201471D01*
X133362Y201266D01*
X133725Y201115D01*
X134108Y201023D01*
X134496Y200993D01*
Y196242D01*
X129365D01*
G37*
G36*
X170426Y269683D02*X170430Y269682D01*
X170822Y269713D01*
X171205Y269805D01*
X171568Y269956D01*
X171904Y270161D01*
X172203Y270417D01*
X172459Y270716D01*
X172664Y271052D01*
X172815Y271415D01*
X172907Y271798D01*
X172930Y272190D01*
X172907Y272582D01*
X172821Y272941D01*
X174339D01*
X174253Y272582D01*
X174222Y272190D01*
X174253Y271798D01*
X174345Y271415D01*
X174496Y271052D01*
X174701Y270716D01*
X174868Y270521D01*
Y268143D01*
X174640Y268282D01*
X174277Y268433D01*
X173894Y268525D01*
X173502Y268556D01*
X173110Y268525D01*
X172727Y268433D01*
X172364Y268282D01*
X172028Y268077D01*
X171729Y267821D01*
X171473Y267522D01*
X171268Y267186D01*
X171117Y266823D01*
X171025Y266440D01*
X170994Y266048D01*
X171025Y265656D01*
X171117Y265273D01*
X171268Y264910D01*
X171473Y264574D01*
X171729Y264275D01*
X172028Y264019D01*
X172364Y263814D01*
X172727Y263663D01*
X173110Y263571D01*
X173502Y263540D01*
X173894Y263571D01*
X174277Y263663D01*
X174640Y263814D01*
X174868Y263953D01*
Y254259D01*
X174701Y254064D01*
X174496Y253728D01*
X174345Y253365D01*
X174253Y252982D01*
X174222Y252590D01*
X174253Y252198D01*
X174345Y251815D01*
X174496Y251452D01*
X174701Y251116D01*
X174868Y250921D01*
Y249077D01*
X174671Y249197D01*
X174308Y249348D01*
X173925Y249440D01*
X173533Y249471D01*
X173141Y249440D01*
X172758Y249348D01*
X172395Y249197D01*
X172059Y248992D01*
X171760Y248736D01*
X171504Y248437D01*
X171299Y248101D01*
X171148Y247738D01*
X171056Y247355D01*
X171025Y246963D01*
X171056Y246571D01*
X171148Y246188D01*
X171299Y245825D01*
X171504Y245489D01*
X171760Y245190D01*
X172059Y244934D01*
X172395Y244729D01*
X172758Y244578D01*
X173141Y244486D01*
X173533Y244455D01*
X173925Y244486D01*
X174308Y244578D01*
X174671Y244729D01*
X174868Y244849D01*
Y244241D01*
X170426D01*
Y250083D01*
X170430Y250082D01*
X170822Y250113D01*
X171205Y250205D01*
X171568Y250356D01*
X171904Y250561D01*
X172203Y250817D01*
X172459Y251116D01*
X172664Y251452D01*
X172815Y251815D01*
X172907Y252198D01*
X172930Y252590D01*
X172907Y252982D01*
X172815Y253365D01*
X172664Y253728D01*
X172459Y254064D01*
X172203Y254363D01*
X171904Y254619D01*
X171568Y254824D01*
X171205Y254975D01*
X170822Y255067D01*
X170430Y255098D01*
X170426Y255097D01*
Y269683D01*
G37*
G36*
X167229Y272941D02*X168039D01*
X167953Y272582D01*
X167922Y272190D01*
X167953Y271798D01*
X168045Y271415D01*
X168196Y271052D01*
X168401Y270716D01*
X168657Y270417D01*
X168956Y270161D01*
X169292Y269956D01*
X169655Y269805D01*
X170038Y269713D01*
X170426Y269683D01*
Y255097D01*
X170038Y255067D01*
X169655Y254975D01*
X169292Y254824D01*
X168956Y254619D01*
X168657Y254363D01*
X168401Y254064D01*
X168196Y253728D01*
X168045Y253365D01*
X167953Y252982D01*
X167922Y252590D01*
X167953Y252198D01*
X168045Y251815D01*
X168196Y251452D01*
X168401Y251116D01*
X168657Y250817D01*
X168956Y250561D01*
X169292Y250356D01*
X169655Y250205D01*
X170038Y250113D01*
X170426Y250083D01*
Y244241D01*
X167229D01*
Y244456D01*
X167233Y244455D01*
X167625Y244486D01*
X168008Y244578D01*
X168371Y244729D01*
X168707Y244934D01*
X169006Y245190D01*
X169262Y245489D01*
X169467Y245825D01*
X169618Y246188D01*
X169710Y246571D01*
X169733Y246963D01*
X169710Y247355D01*
X169618Y247738D01*
X169467Y248101D01*
X169262Y248437D01*
X169006Y248736D01*
X168707Y248992D01*
X168371Y249197D01*
X168008Y249348D01*
X167625Y249440D01*
X167233Y249471D01*
X167229Y249470D01*
Y263542D01*
X167594Y263571D01*
X167977Y263663D01*
X168340Y263814D01*
X168676Y264019D01*
X168975Y264275D01*
X169231Y264574D01*
X169436Y264910D01*
X169587Y265273D01*
X169679Y265656D01*
X169702Y266048D01*
X169679Y266440D01*
X169587Y266823D01*
X169436Y267186D01*
X169231Y267522D01*
X168975Y267821D01*
X168676Y268077D01*
X168340Y268282D01*
X167977Y268433D01*
X167594Y268525D01*
X167229Y268554D01*
Y272941D01*
G37*
G36*
X164026Y269690D02*X164130Y269682D01*
X164522Y269713D01*
X164905Y269805D01*
X165268Y269956D01*
X165604Y270161D01*
X165903Y270417D01*
X166159Y270716D01*
X166364Y271052D01*
X166515Y271415D01*
X166607Y271798D01*
X166630Y272190D01*
X166607Y272582D01*
X166521Y272941D01*
X167229D01*
Y268554D01*
X167202Y268556D01*
X166810Y268525D01*
X166427Y268433D01*
X166064Y268282D01*
X165728Y268077D01*
X165429Y267821D01*
X165173Y267522D01*
X164968Y267186D01*
X164817Y266823D01*
X164725Y266440D01*
X164694Y266048D01*
X164725Y265656D01*
X164817Y265273D01*
X164968Y264910D01*
X165173Y264574D01*
X165429Y264275D01*
X165728Y264019D01*
X166064Y263814D01*
X166427Y263663D01*
X166810Y263571D01*
X167202Y263540D01*
X167229Y263542D01*
Y249470D01*
X166841Y249440D01*
X166458Y249348D01*
X166095Y249197D01*
X165759Y248992D01*
X165460Y248736D01*
X165204Y248437D01*
X164999Y248101D01*
X164848Y247738D01*
X164756Y247355D01*
X164725Y246963D01*
X164756Y246571D01*
X164848Y246188D01*
X164999Y245825D01*
X165204Y245489D01*
X165460Y245190D01*
X165759Y244934D01*
X166095Y244729D01*
X166458Y244578D01*
X166841Y244486D01*
X167229Y244456D01*
Y244241D01*
X164026D01*
Y250083D01*
X164030Y250082D01*
X164422Y250113D01*
X164805Y250205D01*
X165168Y250356D01*
X165504Y250561D01*
X165803Y250817D01*
X166059Y251116D01*
X166264Y251452D01*
X166415Y251815D01*
X166507Y252198D01*
X166530Y252590D01*
X166507Y252982D01*
X166415Y253365D01*
X166264Y253728D01*
X166059Y254064D01*
X165803Y254363D01*
X165504Y254619D01*
X165168Y254824D01*
X164805Y254975D01*
X164422Y255067D01*
X164030Y255098D01*
X164026Y255097D01*
Y269690D01*
G37*
G36*
X160906Y272941D02*X161739D01*
X161653Y272582D01*
X161622Y272190D01*
X161653Y271798D01*
X161745Y271415D01*
X161896Y271052D01*
X162101Y270716D01*
X162357Y270417D01*
X162656Y270161D01*
X162992Y269956D01*
X163355Y269805D01*
X163738Y269713D01*
X164026Y269690D01*
Y255097D01*
X163638Y255067D01*
X163255Y254975D01*
X162892Y254824D01*
X162556Y254619D01*
X162257Y254363D01*
X162001Y254064D01*
X161796Y253728D01*
X161645Y253365D01*
X161553Y252982D01*
X161522Y252590D01*
X161553Y252198D01*
X161645Y251815D01*
X161796Y251452D01*
X162001Y251116D01*
X162257Y250817D01*
X162556Y250561D01*
X162892Y250356D01*
X163255Y250205D01*
X163638Y250113D01*
X164026Y250083D01*
Y244241D01*
X160906D01*
Y244433D01*
X160910Y244432D01*
X161302Y244463D01*
X161685Y244555D01*
X162048Y244706D01*
X162384Y244911D01*
X162683Y245167D01*
X162939Y245466D01*
X163144Y245802D01*
X163295Y246165D01*
X163387Y246548D01*
X163410Y246940D01*
X163387Y247332D01*
X163295Y247715D01*
X163144Y248078D01*
X162939Y248414D01*
X162683Y248713D01*
X162384Y248969D01*
X162048Y249174D01*
X161685Y249325D01*
X161302Y249417D01*
X160910Y249448D01*
X160906Y249447D01*
Y263533D01*
X160910Y263532D01*
X161302Y263563D01*
X161685Y263655D01*
X162048Y263806D01*
X162384Y264011D01*
X162683Y264267D01*
X162939Y264566D01*
X163144Y264902D01*
X163295Y265265D01*
X163387Y265648D01*
X163410Y266040D01*
X163387Y266432D01*
X163295Y266815D01*
X163144Y267178D01*
X162939Y267514D01*
X162683Y267813D01*
X162384Y268069D01*
X162048Y268274D01*
X161685Y268425D01*
X161302Y268517D01*
X160910Y268548D01*
X160906Y268547D01*
Y272941D01*
G37*
G36*
X156420D02*X160906D01*
Y268547D01*
X160518Y268517D01*
X160135Y268425D01*
X159772Y268274D01*
X159436Y268069D01*
X159137Y267813D01*
X158881Y267514D01*
X158676Y267178D01*
X158525Y266815D01*
X158433Y266432D01*
X158402Y266040D01*
X158433Y265648D01*
X158525Y265265D01*
X158676Y264902D01*
X158881Y264566D01*
X159137Y264267D01*
X159436Y264011D01*
X159772Y263806D01*
X160135Y263655D01*
X160518Y263563D01*
X160906Y263533D01*
Y249447D01*
X160518Y249417D01*
X160135Y249325D01*
X159772Y249174D01*
X159436Y248969D01*
X159137Y248713D01*
X158881Y248414D01*
X158676Y248078D01*
X158525Y247715D01*
X158433Y247332D01*
X158402Y246940D01*
X158433Y246548D01*
X158525Y246165D01*
X158676Y245802D01*
X158881Y245466D01*
X159137Y245167D01*
X159436Y244911D01*
X159772Y244706D01*
X160135Y244555D01*
X160518Y244463D01*
X160906Y244433D01*
Y244241D01*
X156420D01*
Y256973D01*
X156426Y256973D01*
X157010Y257019D01*
X157580Y257156D01*
X158121Y257380D01*
X158620Y257686D01*
X159066Y258066D01*
X159446Y258512D01*
X159752Y259011D01*
X159976Y259552D01*
X160113Y260122D01*
X160148Y260706D01*
X160113Y261290D01*
X159976Y261860D01*
X159752Y262401D01*
X159446Y262900D01*
X159066Y263346D01*
X158620Y263726D01*
X158121Y264032D01*
X157580Y264256D01*
X157010Y264393D01*
X156426Y264439D01*
X156420Y264439D01*
Y272941D01*
G37*
G36*
X151365Y244241D02*Y272941D01*
X156420D01*
Y264439D01*
X155842Y264393D01*
X155272Y264256D01*
X154731Y264032D01*
X154232Y263726D01*
X153786Y263346D01*
X153406Y262900D01*
X153100Y262401D01*
X152876Y261860D01*
X152739Y261290D01*
X152693Y260706D01*
X152739Y260122D01*
X152876Y259552D01*
X153100Y259011D01*
X153406Y258512D01*
X153786Y258066D01*
X154232Y257686D01*
X154731Y257380D01*
X155272Y257156D01*
X155842Y257019D01*
X156420Y256973D01*
Y244241D01*
X151365D01*
G37*
G36*
X118996Y224942D02*X125367D01*
Y213419D01*
X125225Y213385D01*
X124862Y213234D01*
X124526Y213029D01*
X124227Y212773D01*
X123971Y212474D01*
X123766Y212138D01*
X123615Y211775D01*
X123523Y211392D01*
X123492Y211000D01*
X123523Y210608D01*
X123615Y210225D01*
X123766Y209862D01*
X123971Y209526D01*
X124227Y209227D01*
X124526Y208971D01*
X124862Y208766D01*
X125225Y208615D01*
X125367Y208581D01*
Y196242D01*
X118996D01*
Y201493D01*
X119000Y201492D01*
X119392Y201523D01*
X119775Y201615D01*
X120138Y201766D01*
X120474Y201971D01*
X120773Y202227D01*
X121029Y202526D01*
X121234Y202862D01*
X121385Y203225D01*
X121477Y203608D01*
X121500Y204000D01*
X121477Y204392D01*
X121385Y204775D01*
X121234Y205138D01*
X121029Y205474D01*
X120773Y205773D01*
X120474Y206029D01*
X120138Y206234D01*
X119775Y206385D01*
X119392Y206477D01*
X119000Y206508D01*
X118996Y206507D01*
Y224942D01*
G37*
G36*
X110496D02*X118996D01*
Y206507D01*
X118608Y206477D01*
X118225Y206385D01*
X117862Y206234D01*
X117526Y206029D01*
X117227Y205773D01*
X116971Y205474D01*
X116766Y205138D01*
X116615Y204775D01*
X116523Y204392D01*
X116492Y204000D01*
X116523Y203608D01*
X116615Y203225D01*
X116766Y202862D01*
X116971Y202526D01*
X117227Y202227D01*
X117526Y201971D01*
X117862Y201766D01*
X118225Y201615D01*
X118608Y201523D01*
X118996Y201493D01*
Y196242D01*
X117073D01*
X116939Y196274D01*
X116500Y196309D01*
X116061Y196274D01*
X115927Y196242D01*
X112671D01*
X112529Y196474D01*
X112273Y196773D01*
X111974Y197029D01*
X111638Y197234D01*
X111275Y197385D01*
X110892Y197477D01*
X110500Y197508D01*
X110496Y197507D01*
Y197993D01*
X110500Y197992D01*
X110892Y198023D01*
X111275Y198115D01*
X111638Y198266D01*
X111974Y198471D01*
X112273Y198727D01*
X112529Y199026D01*
X112734Y199362D01*
X112885Y199725D01*
X112977Y200108D01*
X113000Y200500D01*
X112977Y200892D01*
X112885Y201275D01*
X112734Y201638D01*
X112529Y201974D01*
X112273Y202273D01*
X111974Y202529D01*
X111638Y202734D01*
X111275Y202885D01*
X110892Y202977D01*
X110500Y203008D01*
X110496Y203007D01*
Y203993D01*
X110500Y203992D01*
X110892Y204023D01*
X111275Y204115D01*
X111638Y204266D01*
X111974Y204471D01*
X112273Y204727D01*
X112529Y205026D01*
X112734Y205362D01*
X112885Y205725D01*
X112977Y206108D01*
X113000Y206500D01*
X112977Y206892D01*
X112885Y207275D01*
X112734Y207638D01*
X112529Y207974D01*
X112273Y208273D01*
X111974Y208529D01*
X111638Y208734D01*
X111275Y208885D01*
X110892Y208977D01*
X110500Y209008D01*
X110496Y209007D01*
Y218048D01*
X110775Y218115D01*
X111138Y218266D01*
X111474Y218471D01*
X111773Y218727D01*
X112029Y219026D01*
X112234Y219362D01*
X112385Y219725D01*
X112477Y220108D01*
X112500Y220500D01*
X112477Y220892D01*
X112385Y221275D01*
X112234Y221638D01*
X112029Y221974D01*
X111773Y222273D01*
X111474Y222529D01*
X111138Y222734D01*
X110775Y222885D01*
X110496Y222952D01*
Y224942D01*
G37*
G36*
X101864Y196242D02*Y224942D01*
X110496D01*
Y222952D01*
X110392Y222977D01*
X110000Y223008D01*
X109608Y222977D01*
X109225Y222885D01*
X108862Y222734D01*
X108526Y222529D01*
X108227Y222273D01*
X107971Y221974D01*
X107766Y221638D01*
X107615Y221275D01*
X107523Y220892D01*
X107492Y220500D01*
X107523Y220108D01*
X107615Y219725D01*
X107766Y219362D01*
X107971Y219026D01*
X108227Y218727D01*
X108526Y218471D01*
X108862Y218266D01*
X109225Y218115D01*
X109608Y218023D01*
X110000Y217992D01*
X110392Y218023D01*
X110496Y218048D01*
Y209007D01*
X110108Y208977D01*
X109725Y208885D01*
X109362Y208734D01*
X109026Y208529D01*
X108727Y208273D01*
X108471Y207974D01*
X108266Y207638D01*
X108115Y207275D01*
X108023Y206892D01*
X107992Y206500D01*
X108023Y206108D01*
X108115Y205725D01*
X108266Y205362D01*
X108471Y205026D01*
X108727Y204727D01*
X109026Y204471D01*
X109362Y204266D01*
X109725Y204115D01*
X110108Y204023D01*
X110496Y203993D01*
Y203007D01*
X110108Y202977D01*
X109725Y202885D01*
X109362Y202734D01*
X109026Y202529D01*
X108727Y202273D01*
X108471Y201974D01*
X108266Y201638D01*
X108115Y201275D01*
X108023Y200892D01*
X107992Y200500D01*
X108023Y200108D01*
X108115Y199725D01*
X108266Y199362D01*
X108471Y199026D01*
X108727Y198727D01*
X109026Y198471D01*
X109362Y198266D01*
X109725Y198115D01*
X110108Y198023D01*
X110496Y197993D01*
Y197507D01*
X110108Y197477D01*
X109725Y197385D01*
X109362Y197234D01*
X109026Y197029D01*
X108727Y196773D01*
X108471Y196474D01*
X108329Y196242D01*
X101864D01*
G37*
G36*
X148996Y224942D02*X152868D01*
Y197497D01*
X152608Y197477D01*
X152225Y197385D01*
X151862Y197234D01*
X151526Y197029D01*
X151227Y196773D01*
X150971Y196474D01*
X150829Y196242D01*
X148996D01*
Y197493D01*
X149000Y197492D01*
X149392Y197523D01*
X149775Y197615D01*
X150138Y197766D01*
X150474Y197971D01*
X150773Y198227D01*
X151029Y198526D01*
X151234Y198862D01*
X151385Y199225D01*
X151477Y199608D01*
X151500Y200000D01*
X151477Y200392D01*
X151385Y200775D01*
X151234Y201138D01*
X151029Y201474D01*
X150773Y201773D01*
X150474Y202029D01*
X150138Y202234D01*
X149775Y202385D01*
X149392Y202477D01*
X149000Y202508D01*
X148996Y202507D01*
Y224942D01*
G37*
G36*
X140996D02*X148996D01*
Y202507D01*
X148608Y202477D01*
X148225Y202385D01*
X147862Y202234D01*
X147526Y202029D01*
X147227Y201773D01*
X146971Y201474D01*
X146766Y201138D01*
X146615Y200775D01*
X146523Y200392D01*
X146492Y200000D01*
X146523Y199608D01*
X146615Y199225D01*
X146766Y198862D01*
X146971Y198526D01*
X147227Y198227D01*
X147526Y197971D01*
X147862Y197766D01*
X148225Y197615D01*
X148608Y197523D01*
X148996Y197493D01*
Y196242D01*
X140996D01*
Y208493D01*
X141000Y208492D01*
X141392Y208523D01*
X141775Y208615D01*
X142138Y208766D01*
X142474Y208971D01*
X142773Y209227D01*
X143029Y209526D01*
X143234Y209862D01*
X143385Y210225D01*
X143477Y210608D01*
X143500Y211000D01*
X143477Y211392D01*
X143385Y211775D01*
X143234Y212138D01*
X143029Y212474D01*
X142773Y212773D01*
X142474Y213029D01*
X142138Y213234D01*
X141775Y213385D01*
X141392Y213477D01*
X141000Y213508D01*
X140996Y213507D01*
Y224942D01*
G37*
G36*
X134496D02*X140996D01*
Y213507D01*
X140608Y213477D01*
X140225Y213385D01*
X139862Y213234D01*
X139526Y213029D01*
X139227Y212773D01*
X138971Y212474D01*
X138766Y212138D01*
X138615Y211775D01*
X138523Y211392D01*
X138492Y211000D01*
X138523Y210608D01*
X138615Y210225D01*
X138766Y209862D01*
X138971Y209526D01*
X139227Y209227D01*
X139526Y208971D01*
X139862Y208766D01*
X140225Y208615D01*
X140608Y208523D01*
X140996Y208493D01*
Y196242D01*
X134496D01*
Y200993D01*
X134500Y200992D01*
X134892Y201023D01*
X135275Y201115D01*
X135638Y201266D01*
X135974Y201471D01*
X136273Y201727D01*
X136529Y202026D01*
X136734Y202362D01*
X136885Y202725D01*
X136977Y203108D01*
X137000Y203500D01*
X136977Y203892D01*
X136885Y204275D01*
X136734Y204638D01*
X136529Y204974D01*
X136273Y205273D01*
X135974Y205529D01*
X135638Y205734D01*
X135275Y205885D01*
X134892Y205977D01*
X134500Y206008D01*
X134496Y206007D01*
Y224942D01*
G37*
G36*
X129365Y196242D02*Y224942D01*
X134496D01*
Y206007D01*
X134108Y205977D01*
X133725Y205885D01*
X133362Y205734D01*
X133026Y205529D01*
X132727Y205273D01*
X132471Y204974D01*
X132266Y204638D01*
X132115Y204275D01*
X132023Y203892D01*
X131992Y203500D01*
X132023Y203108D01*
X132115Y202725D01*
X132266Y202362D01*
X132471Y202026D01*
X132727Y201727D01*
X133026Y201471D01*
X133362Y201266D01*
X133725Y201115D01*
X134108Y201023D01*
X134496Y200993D01*
Y196242D01*
X129365D01*
G37*
G54D105*X34810Y326640D02*Y37040D01*
X437410D02*Y326640D01*
X298007Y92443D02*X297634Y92107D01*
X313435Y93074D02*X313809D01*
X309968Y93008D02*X309545Y93074D01*
X297634Y92107D02*X297531Y91711D01*
X297585Y91310D01*
X297796Y90974D01*
X298860Y90306D01*
X299342Y89839D01*
X299663Y89178D01*
X299771Y88575D01*
X297531D02*X299771D01*
G54D106*X303514Y85993D02*Y85992D01*
G54D105*X34810Y37040D02*X437410D01*
Y326640D02*X34810D01*
X301692Y89107D02*X301528Y89574D01*
X301638Y90040D01*
X301903Y90442D01*
X302381Y90707D01*
X303021Y90843D01*
X303395Y91108D01*
X303557Y91575D01*
X303449Y92042D01*
X303184Y92372D01*
X302809Y92574D01*
X302435D02*X302060Y92443D01*
X301740Y92107D01*
X299663Y91906D02*X299342Y92308D01*
X298968Y92508D01*
X298545Y92574D02*X298007Y92443D01*
X303770Y89107D02*X303341Y88777D01*
X302863Y88575D01*
X302435D02*X302863D01*
X302435D02*X302006Y88777D01*
X301692Y89107D01*
G54D106*X303514Y85992D02*X278710Y61188D01*
X303470D02*X278710Y85948D01*
M02*
