G04 start of page 3 for group 1 idx 1 *
G04 Title: (unknown), 2PV *
G04 Creator: pcb 20110918 *
G04 CreationDate: Mon Oct 15 17:27:05 2012 UTC *
G04 For: fosse *
G04 Format: Gerber/RS-274X *
G04 PCB-Dimensions: 600000 500000 *
G04 PCB-Coordinate-Origin: lower left *
%MOIN*%
%FSLAX25Y25*%
%LNBOTTOM*%
%ADD37C,0.0300*%
%ADD36C,0.0350*%
%ADD35C,0.0200*%
%ADD34C,0.0600*%
%ADD33C,0.0360*%
%ADD32C,0.0550*%
%ADD31C,0.0001*%
G54D31*G36*
X265852Y452059D02*X380091D01*
Y242059D01*
X265852D01*
Y344592D01*
X265920Y344606D01*
X265993Y344633D01*
X266062Y344672D01*
X266124Y344721D01*
X266177Y344779D01*
X266220Y344844D01*
X266252Y344916D01*
X266328Y345149D01*
X266382Y345389D01*
X266414Y345633D01*
X266425Y345878D01*
X266414Y346123D01*
X266382Y346367D01*
X266328Y346607D01*
X266254Y346841D01*
X266222Y346913D01*
X266178Y346978D01*
X266125Y347037D01*
X266063Y347086D01*
X265994Y347124D01*
X265920Y347152D01*
X265852Y347166D01*
Y389916D01*
X265925Y390002D01*
X266156Y390378D01*
X266324Y390785D01*
X266427Y391214D01*
X266453Y391653D01*
X266427Y392092D01*
X266324Y392521D01*
X266156Y392928D01*
X265925Y393304D01*
X265852Y393390D01*
Y452059D01*
G37*
G36*
Y242059D02*X263623D01*
Y343075D01*
X263867Y343086D01*
X264111Y343118D01*
X264351Y343172D01*
X264585Y343246D01*
X264657Y343278D01*
X264722Y343322D01*
X264781Y343375D01*
X264830Y343437D01*
X264868Y343506D01*
X264896Y343580D01*
X264912Y343657D01*
X264915Y343736D01*
X264906Y343815D01*
X264885Y343891D01*
X264852Y343963D01*
X264808Y344028D01*
X264755Y344087D01*
X264693Y344136D01*
X264624Y344174D01*
X264550Y344202D01*
X264473Y344218D01*
X264394Y344221D01*
X264315Y344212D01*
X264240Y344189D01*
X264090Y344140D01*
X263936Y344106D01*
X263780Y344085D01*
X263623Y344078D01*
Y347678D01*
X263780Y347671D01*
X263936Y347650D01*
X264090Y347616D01*
X264240Y347568D01*
X264316Y347546D01*
X264394Y347537D01*
X264472Y347540D01*
X264549Y347556D01*
X264623Y347583D01*
X264692Y347622D01*
X264753Y347671D01*
X264807Y347729D01*
X264850Y347794D01*
X264883Y347866D01*
X264904Y347942D01*
X264913Y348020D01*
X264910Y348098D01*
X264894Y348176D01*
X264867Y348249D01*
X264828Y348318D01*
X264779Y348380D01*
X264721Y348433D01*
X264656Y348476D01*
X264584Y348508D01*
X264351Y348584D01*
X264111Y348638D01*
X263867Y348670D01*
X263623Y348681D01*
Y388847D01*
X263653Y388844D01*
X264092Y388879D01*
X264521Y388982D01*
X264928Y389150D01*
X265304Y389381D01*
X265639Y389667D01*
X265852Y389916D01*
Y347166D01*
X265843Y347168D01*
X265764Y347171D01*
X265685Y347162D01*
X265609Y347141D01*
X265537Y347108D01*
X265472Y347064D01*
X265413Y347011D01*
X265364Y346949D01*
X265326Y346880D01*
X265298Y346806D01*
X265282Y346729D01*
X265279Y346650D01*
X265288Y346571D01*
X265311Y346496D01*
X265360Y346346D01*
X265394Y346192D01*
X265415Y346036D01*
X265422Y345878D01*
X265415Y345720D01*
X265394Y345564D01*
X265360Y345410D01*
X265312Y345260D01*
X265290Y345184D01*
X265281Y345106D01*
X265284Y345028D01*
X265300Y344951D01*
X265327Y344877D01*
X265366Y344808D01*
X265415Y344747D01*
X265473Y344693D01*
X265538Y344650D01*
X265610Y344617D01*
X265686Y344596D01*
X265764Y344587D01*
X265842Y344590D01*
X265852Y344592D01*
Y242059D01*
G37*
G36*
X263623Y452059D02*X265852D01*
Y393390D01*
X265639Y393639D01*
X265304Y393925D01*
X264928Y394156D01*
X264521Y394324D01*
X264092Y394427D01*
X263653Y394462D01*
X263623Y394459D01*
Y452059D01*
G37*
G36*
X261392Y389989D02*X261667Y389667D01*
X262002Y389381D01*
X262378Y389150D01*
X262785Y388982D01*
X263214Y388879D01*
X263623Y388847D01*
Y348681D01*
X263622Y348681D01*
X263377Y348670D01*
X263133Y348638D01*
X262893Y348584D01*
X262659Y348510D01*
X262587Y348478D01*
X262522Y348434D01*
X262463Y348381D01*
X262414Y348319D01*
X262376Y348250D01*
X262348Y348176D01*
X262332Y348099D01*
X262329Y348020D01*
X262338Y347941D01*
X262359Y347865D01*
X262392Y347793D01*
X262436Y347728D01*
X262489Y347669D01*
X262551Y347620D01*
X262620Y347582D01*
X262694Y347554D01*
X262771Y347538D01*
X262850Y347535D01*
X262929Y347544D01*
X263004Y347567D01*
X263154Y347616D01*
X263308Y347650D01*
X263464Y347671D01*
X263622Y347678D01*
X263623Y347678D01*
Y344078D01*
X263622Y344078D01*
X263464Y344085D01*
X263308Y344106D01*
X263154Y344140D01*
X263004Y344188D01*
X262928Y344210D01*
X262850Y344219D01*
X262772Y344216D01*
X262695Y344200D01*
X262621Y344173D01*
X262552Y344134D01*
X262491Y344085D01*
X262437Y344027D01*
X262394Y343962D01*
X262361Y343890D01*
X262340Y343814D01*
X262331Y343736D01*
X262334Y343658D01*
X262350Y343580D01*
X262377Y343507D01*
X262416Y343438D01*
X262465Y343376D01*
X262523Y343323D01*
X262588Y343280D01*
X262660Y343248D01*
X262893Y343172D01*
X263133Y343118D01*
X263377Y343086D01*
X263622Y343075D01*
X263623Y343075D01*
Y242059D01*
X261392D01*
Y344590D01*
X261401Y344588D01*
X261480Y344585D01*
X261559Y344594D01*
X261635Y344615D01*
X261707Y344648D01*
X261772Y344692D01*
X261831Y344745D01*
X261880Y344807D01*
X261918Y344876D01*
X261946Y344950D01*
X261962Y345027D01*
X261965Y345106D01*
X261956Y345185D01*
X261933Y345260D01*
X261884Y345410D01*
X261850Y345564D01*
X261829Y345720D01*
X261822Y345878D01*
X261829Y346036D01*
X261850Y346192D01*
X261884Y346346D01*
X261932Y346496D01*
X261954Y346572D01*
X261963Y346650D01*
X261960Y346728D01*
X261944Y346805D01*
X261917Y346879D01*
X261878Y346948D01*
X261829Y347009D01*
X261771Y347063D01*
X261706Y347106D01*
X261634Y347139D01*
X261558Y347160D01*
X261480Y347169D01*
X261402Y347166D01*
X261392Y347164D01*
Y389989D01*
G37*
G36*
Y452059D02*X263623D01*
Y394459D01*
X263214Y394427D01*
X262785Y394324D01*
X262378Y394156D01*
X262002Y393925D01*
X261667Y393639D01*
X261392Y393317D01*
Y452059D01*
G37*
G36*
X224730D02*X261392D01*
Y393317D01*
X261381Y393304D01*
X261150Y392928D01*
X260982Y392521D01*
X260879Y392092D01*
X260844Y391653D01*
X260879Y391214D01*
X260982Y390785D01*
X261150Y390378D01*
X261381Y390002D01*
X261392Y389989D01*
Y347164D01*
X261324Y347150D01*
X261251Y347123D01*
X261182Y347084D01*
X261120Y347035D01*
X261067Y346977D01*
X261024Y346912D01*
X260992Y346840D01*
X260916Y346607D01*
X260862Y346367D01*
X260830Y346123D01*
X260819Y345878D01*
X260830Y345633D01*
X260862Y345389D01*
X260916Y345149D01*
X260990Y344915D01*
X261022Y344843D01*
X261066Y344778D01*
X261119Y344719D01*
X261181Y344670D01*
X261250Y344632D01*
X261324Y344604D01*
X261392Y344590D01*
Y242059D01*
X224730D01*
Y374714D01*
X224798Y374728D01*
X224871Y374755D01*
X224940Y374794D01*
X225002Y374843D01*
X225055Y374901D01*
X225098Y374966D01*
X225130Y375038D01*
X225206Y375271D01*
X225260Y375511D01*
X225292Y375755D01*
X225303Y376000D01*
X225292Y376245D01*
X225260Y376489D01*
X225206Y376729D01*
X225132Y376963D01*
X225100Y377035D01*
X225056Y377100D01*
X225003Y377159D01*
X224941Y377208D01*
X224872Y377246D01*
X224798Y377274D01*
X224730Y377288D01*
Y452059D01*
G37*
G36*
X223230D02*X224730D01*
Y377288D01*
X224721Y377290D01*
X224642Y377293D01*
X224563Y377284D01*
X224487Y377263D01*
X224415Y377230D01*
X224350Y377186D01*
X224291Y377133D01*
X224242Y377071D01*
X224204Y377002D01*
X224176Y376928D01*
X224160Y376851D01*
X224157Y376772D01*
X224166Y376693D01*
X224189Y376618D01*
X224238Y376468D01*
X224272Y376314D01*
X224293Y376158D01*
X224300Y376000D01*
X224293Y375842D01*
X224272Y375686D01*
X224238Y375532D01*
X224190Y375382D01*
X224168Y375306D01*
X224159Y375228D01*
X224162Y375150D01*
X224178Y375073D01*
X224205Y374999D01*
X224244Y374930D01*
X224293Y374869D01*
X224351Y374815D01*
X224416Y374772D01*
X224488Y374739D01*
X224564Y374718D01*
X224642Y374709D01*
X224720Y374712D01*
X224730Y374714D01*
Y242059D01*
X223230D01*
Y358714D01*
X223298Y358728D01*
X223371Y358755D01*
X223440Y358794D01*
X223502Y358843D01*
X223555Y358901D01*
X223598Y358966D01*
X223630Y359038D01*
X223706Y359271D01*
X223760Y359511D01*
X223792Y359755D01*
X223803Y360000D01*
X223792Y360245D01*
X223760Y360489D01*
X223706Y360729D01*
X223632Y360963D01*
X223600Y361035D01*
X223556Y361100D01*
X223503Y361159D01*
X223441Y361208D01*
X223372Y361246D01*
X223298Y361274D01*
X223230Y361288D01*
Y373294D01*
X223463Y373368D01*
X223535Y373400D01*
X223600Y373444D01*
X223659Y373497D01*
X223708Y373559D01*
X223746Y373628D01*
X223774Y373702D01*
X223790Y373779D01*
X223793Y373858D01*
X223784Y373937D01*
X223763Y374013D01*
X223730Y374085D01*
X223686Y374150D01*
X223633Y374209D01*
X223571Y374258D01*
X223502Y374296D01*
X223428Y374324D01*
X223351Y374340D01*
X223272Y374343D01*
X223230Y374338D01*
Y377664D01*
X223272Y377659D01*
X223350Y377662D01*
X223427Y377678D01*
X223501Y377705D01*
X223570Y377744D01*
X223631Y377793D01*
X223685Y377851D01*
X223728Y377916D01*
X223761Y377988D01*
X223782Y378064D01*
X223791Y378142D01*
X223788Y378220D01*
X223772Y378298D01*
X223745Y378371D01*
X223706Y378440D01*
X223657Y378502D01*
X223599Y378555D01*
X223534Y378598D01*
X223462Y378630D01*
X223230Y378706D01*
Y452059D01*
G37*
G36*
X221001D02*X223230D01*
Y378706D01*
X223229Y378706D01*
X222989Y378760D01*
X222745Y378792D01*
X222500Y378803D01*
X222255Y378792D01*
X222011Y378760D01*
X221771Y378706D01*
X221537Y378632D01*
X221465Y378600D01*
X221400Y378556D01*
X221341Y378503D01*
X221292Y378441D01*
X221254Y378372D01*
X221226Y378298D01*
X221210Y378221D01*
X221207Y378142D01*
X221216Y378063D01*
X221237Y377987D01*
X221270Y377915D01*
X221314Y377850D01*
X221367Y377791D01*
X221429Y377742D01*
X221498Y377704D01*
X221572Y377676D01*
X221649Y377660D01*
X221728Y377657D01*
X221807Y377666D01*
X221882Y377689D01*
X222032Y377738D01*
X222186Y377772D01*
X222342Y377793D01*
X222500Y377800D01*
X222658Y377793D01*
X222814Y377772D01*
X222968Y377738D01*
X223118Y377690D01*
X223194Y377668D01*
X223230Y377664D01*
Y374338D01*
X223193Y374334D01*
X223118Y374311D01*
X222968Y374262D01*
X222814Y374228D01*
X222658Y374207D01*
X222500Y374200D01*
X222342Y374207D01*
X222186Y374228D01*
X222032Y374262D01*
X221882Y374310D01*
X221806Y374332D01*
X221728Y374341D01*
X221650Y374338D01*
X221573Y374322D01*
X221499Y374295D01*
X221430Y374256D01*
X221369Y374207D01*
X221315Y374149D01*
X221272Y374084D01*
X221239Y374012D01*
X221218Y373936D01*
X221209Y373858D01*
X221212Y373780D01*
X221228Y373702D01*
X221255Y373629D01*
X221294Y373560D01*
X221343Y373498D01*
X221401Y373445D01*
X221466Y373402D01*
X221538Y373370D01*
X221771Y373294D01*
X222011Y373240D01*
X222255Y373208D01*
X222500Y373197D01*
X222745Y373208D01*
X222989Y373240D01*
X223229Y373294D01*
X223230Y373294D01*
Y361288D01*
X223221Y361290D01*
X223142Y361293D01*
X223063Y361284D01*
X222987Y361263D01*
X222915Y361230D01*
X222850Y361186D01*
X222791Y361133D01*
X222742Y361071D01*
X222704Y361002D01*
X222676Y360928D01*
X222660Y360851D01*
X222657Y360772D01*
X222666Y360693D01*
X222689Y360618D01*
X222738Y360468D01*
X222772Y360314D01*
X222793Y360158D01*
X222800Y360000D01*
X222793Y359842D01*
X222772Y359686D01*
X222738Y359532D01*
X222690Y359382D01*
X222668Y359306D01*
X222659Y359228D01*
X222662Y359150D01*
X222678Y359073D01*
X222705Y358999D01*
X222744Y358930D01*
X222793Y358869D01*
X222851Y358815D01*
X222916Y358772D01*
X222988Y358739D01*
X223064Y358718D01*
X223142Y358709D01*
X223220Y358712D01*
X223230Y358714D01*
Y242059D01*
X221001D01*
Y343747D01*
X221017Y343786D01*
X221120Y344215D01*
X221146Y344654D01*
X221120Y345093D01*
X221017Y345522D01*
X221001Y345561D01*
Y357197D01*
X221245Y357208D01*
X221489Y357240D01*
X221729Y357294D01*
X221963Y357368D01*
X222035Y357400D01*
X222100Y357444D01*
X222159Y357497D01*
X222208Y357559D01*
X222246Y357628D01*
X222274Y357702D01*
X222290Y357779D01*
X222293Y357858D01*
X222284Y357937D01*
X222263Y358013D01*
X222230Y358085D01*
X222186Y358150D01*
X222133Y358209D01*
X222071Y358258D01*
X222002Y358296D01*
X221928Y358324D01*
X221851Y358340D01*
X221772Y358343D01*
X221693Y358334D01*
X221618Y358311D01*
X221468Y358262D01*
X221314Y358228D01*
X221158Y358207D01*
X221001Y358200D01*
Y361800D01*
X221158Y361793D01*
X221314Y361772D01*
X221468Y361738D01*
X221618Y361690D01*
X221694Y361668D01*
X221772Y361659D01*
X221850Y361662D01*
X221927Y361678D01*
X222001Y361705D01*
X222070Y361744D01*
X222131Y361793D01*
X222185Y361851D01*
X222228Y361916D01*
X222261Y361988D01*
X222282Y362064D01*
X222291Y362142D01*
X222288Y362220D01*
X222272Y362298D01*
X222245Y362371D01*
X222206Y362440D01*
X222157Y362502D01*
X222099Y362555D01*
X222034Y362598D01*
X221962Y362630D01*
X221729Y362706D01*
X221489Y362760D01*
X221245Y362792D01*
X221001Y362803D01*
Y393743D01*
X221018Y393785D01*
X221121Y394214D01*
X221147Y394653D01*
X221121Y395092D01*
X221018Y395521D01*
X221001Y395563D01*
Y452059D01*
G37*
G36*
X220270Y361662D02*X220307Y361666D01*
X220382Y361689D01*
X220532Y361738D01*
X220686Y361772D01*
X220842Y361793D01*
X221000Y361800D01*
X221001Y361800D01*
Y358200D01*
X221000Y358200D01*
X220842Y358207D01*
X220686Y358228D01*
X220532Y358262D01*
X220382Y358310D01*
X220306Y358332D01*
X220270Y358336D01*
Y361662D01*
G37*
G36*
Y392613D02*X220333Y392667D01*
X220619Y393002D01*
X220850Y393378D01*
X221001Y393743D01*
Y362803D01*
X221000Y362803D01*
X220755Y362792D01*
X220511Y362760D01*
X220271Y362706D01*
X220270Y362706D01*
Y374712D01*
X220279Y374710D01*
X220358Y374707D01*
X220437Y374716D01*
X220513Y374737D01*
X220585Y374770D01*
X220650Y374814D01*
X220709Y374867D01*
X220758Y374929D01*
X220796Y374998D01*
X220824Y375072D01*
X220840Y375149D01*
X220843Y375228D01*
X220834Y375307D01*
X220811Y375382D01*
X220762Y375532D01*
X220728Y375686D01*
X220707Y375842D01*
X220700Y376000D01*
X220707Y376158D01*
X220728Y376314D01*
X220762Y376468D01*
X220810Y376618D01*
X220832Y376694D01*
X220841Y376772D01*
X220838Y376850D01*
X220822Y376927D01*
X220795Y377001D01*
X220756Y377070D01*
X220707Y377131D01*
X220649Y377185D01*
X220584Y377228D01*
X220512Y377261D01*
X220436Y377282D01*
X220358Y377291D01*
X220280Y377288D01*
X220270Y377286D01*
Y392613D01*
G37*
G36*
X221001Y345561D02*X220849Y345929D01*
X220618Y346305D01*
X220332Y346640D01*
X220270Y346693D01*
Y357294D01*
X220271Y357294D01*
X220511Y357240D01*
X220755Y357208D01*
X221000Y357197D01*
X221001Y357197D01*
Y345561D01*
G37*
G36*
X220270Y346693D02*X219997Y346926D01*
X219621Y347157D01*
X219214Y347325D01*
X218785Y347428D01*
X218770Y347429D01*
Y358712D01*
X218779Y358710D01*
X218858Y358707D01*
X218937Y358716D01*
X219013Y358737D01*
X219085Y358770D01*
X219150Y358814D01*
X219209Y358867D01*
X219258Y358929D01*
X219296Y358998D01*
X219324Y359072D01*
X219340Y359149D01*
X219343Y359228D01*
X219334Y359307D01*
X219311Y359382D01*
X219262Y359532D01*
X219228Y359686D01*
X219207Y359842D01*
X219200Y360000D01*
X219207Y360158D01*
X219228Y360314D01*
X219262Y360468D01*
X219310Y360618D01*
X219332Y360694D01*
X219341Y360772D01*
X219338Y360850D01*
X219322Y360927D01*
X219295Y361001D01*
X219256Y361070D01*
X219207Y361131D01*
X219149Y361185D01*
X219084Y361228D01*
X219012Y361261D01*
X218936Y361282D01*
X218858Y361291D01*
X218780Y361288D01*
X218770Y361286D01*
Y391878D01*
X218786Y391879D01*
X219215Y391982D01*
X219622Y392150D01*
X219998Y392381D01*
X220270Y392613D01*
Y377286D01*
X220202Y377272D01*
X220129Y377245D01*
X220060Y377206D01*
X219998Y377157D01*
X219945Y377099D01*
X219902Y377034D01*
X219870Y376962D01*
X219794Y376729D01*
X219740Y376489D01*
X219708Y376245D01*
X219697Y376000D01*
X219708Y375755D01*
X219740Y375511D01*
X219794Y375271D01*
X219868Y375037D01*
X219900Y374965D01*
X219944Y374900D01*
X219997Y374841D01*
X220059Y374792D01*
X220128Y374754D01*
X220202Y374726D01*
X220270Y374712D01*
Y362706D01*
X220037Y362632D01*
X219965Y362600D01*
X219900Y362556D01*
X219841Y362503D01*
X219792Y362441D01*
X219754Y362372D01*
X219726Y362298D01*
X219710Y362221D01*
X219707Y362142D01*
X219716Y362063D01*
X219737Y361987D01*
X219770Y361915D01*
X219814Y361850D01*
X219867Y361791D01*
X219929Y361742D01*
X219998Y361704D01*
X220072Y361676D01*
X220149Y361660D01*
X220228Y361657D01*
X220270Y361662D01*
Y358336D01*
X220228Y358341D01*
X220150Y358338D01*
X220073Y358322D01*
X219999Y358295D01*
X219930Y358256D01*
X219869Y358207D01*
X219815Y358149D01*
X219772Y358084D01*
X219739Y358012D01*
X219718Y357936D01*
X219709Y357858D01*
X219712Y357780D01*
X219728Y357702D01*
X219755Y357629D01*
X219794Y357560D01*
X219843Y357498D01*
X219901Y357445D01*
X219966Y357402D01*
X220038Y357370D01*
X220270Y357294D01*
Y346693D01*
G37*
G36*
X218770Y347429D02*X218346Y347463D01*
X217907Y347428D01*
X217478Y347325D01*
X217071Y347157D01*
X216695Y346926D01*
X216360Y346640D01*
X216074Y346305D01*
X215902Y346024D01*
Y353422D01*
X216218Y353447D01*
X216647Y353550D01*
X217054Y353718D01*
X217430Y353949D01*
X217765Y354235D01*
X218051Y354570D01*
X218282Y354946D01*
X218450Y355353D01*
X218553Y355782D01*
X218579Y356221D01*
X218553Y356660D01*
X218450Y357089D01*
X218282Y357496D01*
X218051Y357872D01*
X217765Y358207D01*
X217430Y358493D01*
X217054Y358724D01*
X216647Y358892D01*
X216218Y358995D01*
X215902Y359020D01*
Y373098D01*
X215906Y373097D01*
X216345Y373132D01*
X216774Y373235D01*
X217181Y373403D01*
X217557Y373634D01*
X217892Y373920D01*
X218178Y374255D01*
X218409Y374631D01*
X218577Y375038D01*
X218680Y375467D01*
X218706Y375906D01*
X218680Y376345D01*
X218577Y376774D01*
X218409Y377181D01*
X218178Y377557D01*
X217892Y377892D01*
X217557Y378178D01*
X217181Y378409D01*
X216774Y378577D01*
X216345Y378680D01*
X215906Y378715D01*
X215902Y378714D01*
Y393285D01*
X216075Y393002D01*
X216361Y392667D01*
X216696Y392381D01*
X217072Y392150D01*
X217479Y391982D01*
X217908Y391879D01*
X218347Y391844D01*
X218770Y391878D01*
Y361286D01*
X218702Y361272D01*
X218629Y361245D01*
X218560Y361206D01*
X218498Y361157D01*
X218445Y361099D01*
X218402Y361034D01*
X218370Y360962D01*
X218294Y360729D01*
X218240Y360489D01*
X218208Y360245D01*
X218197Y360000D01*
X218208Y359755D01*
X218240Y359511D01*
X218294Y359271D01*
X218368Y359037D01*
X218400Y358965D01*
X218444Y358900D01*
X218497Y358841D01*
X218559Y358792D01*
X218628Y358754D01*
X218702Y358726D01*
X218770Y358712D01*
Y347429D01*
G37*
G36*
X221001Y242059D02*X215902D01*
Y343284D01*
X216074Y343003D01*
X216360Y342668D01*
X216695Y342382D01*
X217071Y342151D01*
X217478Y341983D01*
X217907Y341880D01*
X218346Y341845D01*
X218785Y341880D01*
X219214Y341983D01*
X219621Y342151D01*
X219997Y342382D01*
X220332Y342668D01*
X220618Y343003D01*
X220849Y343379D01*
X221001Y343747D01*
Y242059D01*
G37*
G36*
X215902Y452059D02*X221001D01*
Y395563D01*
X220850Y395928D01*
X220619Y396304D01*
X220333Y396639D01*
X219998Y396925D01*
X219622Y397156D01*
X219215Y397324D01*
X218786Y397427D01*
X218347Y397462D01*
X217908Y397427D01*
X217479Y397324D01*
X217072Y397156D01*
X216696Y396925D01*
X216361Y396639D01*
X216075Y396304D01*
X215902Y396021D01*
Y452059D01*
G37*
G36*
X130091D02*X215902D01*
Y396021D01*
X215844Y395928D01*
X215676Y395521D01*
X215573Y395092D01*
X215538Y394653D01*
X215573Y394214D01*
X215676Y393785D01*
X215844Y393378D01*
X215902Y393285D01*
Y378714D01*
X215467Y378680D01*
X215038Y378577D01*
X214631Y378409D01*
X214255Y378178D01*
X213920Y377892D01*
X213634Y377557D01*
X213403Y377181D01*
X213235Y376774D01*
X213132Y376345D01*
X213097Y375906D01*
X213132Y375467D01*
X213235Y375038D01*
X213403Y374631D01*
X213634Y374255D01*
X213920Y373920D01*
X214255Y373634D01*
X214631Y373403D01*
X215038Y373235D01*
X215467Y373132D01*
X215902Y373098D01*
Y359020D01*
X215779Y359030D01*
X215340Y358995D01*
X214911Y358892D01*
X214504Y358724D01*
X214128Y358493D01*
X213793Y358207D01*
X213507Y357872D01*
X213276Y357496D01*
X213108Y357089D01*
X213005Y356660D01*
X212970Y356221D01*
X213005Y355782D01*
X213108Y355353D01*
X213276Y354946D01*
X213507Y354570D01*
X213793Y354235D01*
X214128Y353949D01*
X214504Y353718D01*
X214911Y353550D01*
X215340Y353447D01*
X215779Y353412D01*
X215902Y353422D01*
Y346024D01*
X215843Y345929D01*
X215675Y345522D01*
X215572Y345093D01*
X215537Y344654D01*
X215572Y344215D01*
X215675Y343786D01*
X215843Y343379D01*
X215902Y343284D01*
Y242059D01*
X130091D01*
Y452059D01*
G37*
G36*
X246750Y175250D02*Y169750D01*
X252250D01*
Y175250D01*
X246750D01*
G37*
G54D32*X269500Y172500D03*
G54D33*X215906Y375906D03*
X215779Y356221D03*
X218346Y344654D03*
X263622Y345878D03*
X221000Y360000D03*
X218347Y394653D03*
X263653Y391653D03*
X222500Y376000D03*
G54D34*X190500Y214500D03*
X176500Y151500D03*
X156000Y171000D03*
X193500Y158000D03*
G54D35*G54D36*G54D37*M02*
