G04 start of page 12 for group -4015 idx -4015 *
G04 Title: (unknown), toppaste *
G04 Creator: pcb 20110918 *
G04 CreationDate: Thu Oct 25 16:57:25 2012 UTC *
G04 For: fosse *
G04 Format: Gerber/RS-274X *
G04 PCB-Dimensions: 455000 353500 *
G04 PCB-Coordinate-Origin: lower left *
%MOIN*%
%FSLAX25Y25*%
%LNTOPPASTE*%
%ADD110R,0.0197X0.0197*%
%ADD109R,0.0600X0.0600*%
%ADD108R,0.0591X0.0591*%
%ADD107R,0.0590X0.0590*%
%ADD106R,0.0295X0.0295*%
%ADD105R,0.0110X0.0110*%
%ADD104R,0.0340X0.0340*%
%ADD103R,0.0160X0.0160*%
%ADD102C,0.0160*%
%ADD101R,0.0512X0.0512*%
G54D101*X85964Y288893D02*Y288107D01*
X93050Y288893D02*Y288107D01*
X360914Y295893D02*Y295107D01*
X368000Y295893D02*Y295107D01*
G54D102*X187700Y34500D02*Y32300D01*
G54D103*X190300Y34500D02*Y32300D01*
X192800Y34500D02*Y32300D01*
X195400Y34500D02*Y32300D01*
X198000Y34500D02*Y32300D01*
X200500Y34500D02*Y32300D01*
X203100Y34500D02*Y32300D01*
X205600Y34500D02*Y32300D01*
X205700Y55700D02*Y53500D01*
X203100Y55700D02*Y53500D01*
X200600Y55700D02*Y53500D01*
X198000Y55700D02*Y53500D01*
X195400Y55700D02*Y53500D01*
X192900Y55700D02*Y53500D01*
X190300Y55700D02*Y53500D01*
X187800Y55700D02*Y53500D01*
G54D101*X267107Y23457D02*X267893D01*
X267107Y30543D02*X267893D01*
G54D104*X356850Y41500D02*X357150D01*
X363950Y41800D02*Y41200D01*
Y50000D02*Y49400D01*
X356550Y50000D02*Y49400D01*
X394850Y210000D02*X395150D01*
X401950Y210300D02*Y209700D01*
Y218500D02*Y217900D01*
X394550Y218500D02*Y217900D01*
X348850Y212500D02*X349150D01*
X355950Y212800D02*Y212200D01*
Y221000D02*Y220400D01*
X348550Y221000D02*Y220400D01*
X393350Y160000D02*X393650D01*
X400450Y160300D02*Y159700D01*
Y168500D02*Y167900D01*
X393050Y168500D02*Y167900D01*
X53350Y217000D02*X53650D01*
X60450Y217300D02*Y216700D01*
Y225500D02*Y224900D01*
X53050Y225500D02*Y224900D01*
G54D105*X75492Y186622D02*X80390D01*
X75492Y184654D02*X80390D01*
X75492Y182685D02*X80390D01*
X75492Y180717D02*X80390D01*
X75492Y178748D02*X80390D01*
X75492Y176780D02*X80390D01*
X75492Y174811D02*X80390D01*
X75492Y172843D02*X80390D01*
X75492Y170874D02*X80390D01*
X75492Y168906D02*X80390D01*
X75492Y166937D02*X80390D01*
X75492Y164969D02*X80390D01*
X75492Y163000D02*X80390D01*
X75492Y161032D02*X80390D01*
X75492Y159063D02*X80390D01*
X75492Y157095D02*X80390D01*
X75492Y155126D02*X80390D01*
X75492Y153158D02*X80390D01*
X75492Y151189D02*X80390D01*
X75492Y149221D02*X80390D01*
X75492Y147252D02*X80390D01*
X75492Y145284D02*X80390D01*
X75492Y143315D02*X80390D01*
X75492Y141347D02*X80390D01*
X75492Y139378D02*X80390D01*
X86878Y132890D02*Y127992D01*
X88846Y132890D02*Y127992D01*
X90815Y132890D02*Y127992D01*
X92783Y132890D02*Y127992D01*
X94752Y132890D02*Y127992D01*
X96720Y132890D02*Y127992D01*
X98689Y132890D02*Y127992D01*
X100657Y132890D02*Y127992D01*
X102626Y132890D02*Y127992D01*
X104594Y132890D02*Y127992D01*
X106563Y132890D02*Y127992D01*
X108531Y132890D02*Y127992D01*
X110500Y132890D02*Y127992D01*
X112468Y132890D02*Y127992D01*
X114437Y132890D02*Y127992D01*
X116405Y132890D02*Y127992D01*
X118374Y132890D02*Y127992D01*
X120342Y132890D02*Y127992D01*
X122311Y132890D02*Y127992D01*
X124279Y132890D02*Y127992D01*
X126248Y132890D02*Y127992D01*
X128216Y132890D02*Y127992D01*
X130185Y132890D02*Y127992D01*
X132153Y132890D02*Y127992D01*
X134122Y132890D02*Y127992D01*
X140610Y139378D02*X145508D01*
X140610Y141346D02*X145508D01*
X140610Y143315D02*X145508D01*
X140610Y145283D02*X145508D01*
X140610Y147252D02*X145508D01*
X140610Y149220D02*X145508D01*
X140610Y151189D02*X145508D01*
X140610Y153157D02*X145508D01*
X140610Y155126D02*X145508D01*
X140610Y157094D02*X145508D01*
X140610Y159063D02*X145508D01*
X140610Y161031D02*X145508D01*
X140610Y163000D02*X145508D01*
X140610Y164968D02*X145508D01*
X140610Y166937D02*X145508D01*
X140610Y168905D02*X145508D01*
X140610Y170874D02*X145508D01*
X140610Y172842D02*X145508D01*
X140610Y174811D02*X145508D01*
X140610Y176779D02*X145508D01*
X140610Y178748D02*X145508D01*
X140610Y180716D02*X145508D01*
X140610Y182685D02*X145508D01*
X140610Y184653D02*X145508D01*
X140610Y186622D02*X145508D01*
X134122Y198008D02*Y193110D01*
X132154Y198008D02*Y193110D01*
X130185Y198008D02*Y193110D01*
X128217Y198008D02*Y193110D01*
X126248Y198008D02*Y193110D01*
X124280Y198008D02*Y193110D01*
X122311Y198008D02*Y193110D01*
X120343Y198008D02*Y193110D01*
X118374Y198008D02*Y193110D01*
X116406Y198008D02*Y193110D01*
X114437Y198008D02*Y193110D01*
X112469Y198008D02*Y193110D01*
X110500Y198008D02*Y193110D01*
X108532Y198008D02*Y193110D01*
X106563Y198008D02*Y193110D01*
X104595Y198008D02*Y193110D01*
X102626Y198008D02*Y193110D01*
X100658Y198008D02*Y193110D01*
X98689Y198008D02*Y193110D01*
X96721Y198008D02*Y193110D01*
X94752Y198008D02*Y193110D01*
X92784Y198008D02*Y193110D01*
X90815Y198008D02*Y193110D01*
X88847Y198008D02*Y193110D01*
X86878Y198008D02*Y193110D01*
G54D101*X132690Y107681D02*Y105319D01*
X144500Y107681D02*Y105319D01*
X85500Y118393D02*Y117607D01*
X92586Y118393D02*Y117607D01*
X139457Y122893D02*Y122107D01*
X146543Y122893D02*Y122107D01*
X146457Y194893D02*Y194107D01*
X153543Y194893D02*Y194107D01*
X79957Y204393D02*Y203607D01*
X87043Y204393D02*Y203607D01*
X158595Y187181D02*Y184819D01*
X170405Y187181D02*Y184819D01*
X49957Y112893D02*Y112107D01*
X57043Y112893D02*Y112107D01*
G54D106*X63941Y147992D02*Y147008D01*
X69059Y147992D02*Y147008D01*
X60441Y168992D02*Y168008D01*
X65559Y168992D02*Y168008D01*
G54D101*X59595Y132181D02*Y129819D01*
X71405Y132181D02*Y129819D01*
X53957Y192393D02*Y191607D01*
X61043Y192393D02*Y191607D01*
X53957Y180393D02*Y179607D01*
X61043Y180393D02*Y179607D01*
X106095Y89181D02*Y86819D01*
X117905Y89181D02*Y86819D01*
G54D107*X34421Y157393D02*Y143613D01*
Y120386D02*Y106606D01*
G54D108*X24578Y132000D02*X34421D01*
G54D106*X22441Y157992D02*Y157008D01*
X27559Y157992D02*Y157008D01*
G54D101*X47957Y148893D02*Y148107D01*
X55043Y148893D02*Y148107D01*
X47957Y160893D02*Y160107D01*
X55043Y160893D02*Y160107D01*
G54D106*X21008Y208559D02*X21992D01*
X21008Y203441D02*X21992D01*
X37508Y207559D02*X38492D01*
X37508Y202441D02*X38492D01*
G54D101*X34118Y171173D02*X36480D01*
X21519D02*X23881D01*
X34118Y192827D02*X36480D01*
X21519D02*X23881D01*
G54D106*X21508Y104559D02*X22492D01*
X21508Y99441D02*X22492D01*
G54D101*X94607Y209543D02*X95393D01*
X94607Y202457D02*X95393D01*
G54D104*X75350Y217500D02*X75650D01*
X82450Y217800D02*Y217200D01*
Y226000D02*Y225400D01*
X75050Y226000D02*Y225400D01*
X188350Y201000D02*X188650D01*
X195450Y201300D02*Y200700D01*
Y209500D02*Y208900D01*
X188050Y209500D02*Y208900D01*
X207850Y201000D02*X208150D01*
X214950Y201300D02*Y200700D01*
Y209500D02*Y208900D01*
X207550Y209500D02*Y208900D01*
X168850Y201000D02*X169150D01*
X175950Y201300D02*Y200700D01*
Y209500D02*Y208900D01*
X168550Y209500D02*Y208900D01*
X29900Y217000D02*X30200D01*
X37000Y217300D02*Y216700D01*
Y225500D02*Y224900D01*
X29600Y225500D02*Y224900D01*
G54D101*X212107Y320543D02*X212893D01*
X212107Y313457D02*X212893D01*
G54D104*X191400Y312500D02*X191700D01*
X198500Y312800D02*Y312200D01*
Y321000D02*Y320400D01*
X191100Y321000D02*Y320400D01*
X198500Y262600D02*Y262300D01*
X198200Y269400D02*X198800D01*
X190000D02*X190600D01*
X190000Y262000D02*X190600D01*
G54D101*X226457Y313893D02*Y313107D01*
X233543Y313893D02*Y313107D01*
X156914Y284893D02*Y284107D01*
X164000Y284893D02*Y284107D01*
X156957Y301393D02*Y300607D01*
X164043Y301393D02*Y300607D01*
G54D104*X191300Y282500D02*X191600D01*
X198400Y282800D02*Y282200D01*
Y291000D02*Y290400D01*
X191000Y291000D02*Y290400D01*
G54D101*X235595Y61681D02*Y59319D01*
X247405Y61681D02*Y59319D01*
G54D109*X253000Y41000D02*Y40000D01*
X265000Y41000D02*Y40000D01*
G54D110*X241635Y37260D02*X242816D01*
X241635Y44740D02*X242816D01*
X232187Y41000D02*X233368D01*
X232187Y44740D02*X233368D01*
X232187Y37260D02*X233368D01*
G54D101*X243000Y25681D02*Y23319D01*
X254810Y25681D02*Y23319D01*
G54D109*X281500Y41000D02*X282500D01*
X281500Y53000D02*X282500D01*
G54D101*X260607Y55957D02*X261393D01*
X260607Y63043D02*X261393D01*
X367414Y19393D02*Y18607D01*
X374500Y19393D02*Y18607D01*
X409914Y169893D02*Y169107D01*
X417000Y169893D02*Y169107D01*
X367000Y225893D02*Y225107D01*
X374086Y225893D02*Y225107D01*
X413000Y226393D02*Y225607D01*
X420086Y226393D02*Y225607D01*
X410000Y155393D02*Y154607D01*
X417086Y155393D02*Y154607D01*
X368000Y215393D02*Y214607D01*
X375086Y215393D02*Y214607D01*
X413500Y214393D02*Y213607D01*
X420586Y214393D02*Y213607D01*
M02*
