G04 start of page 11 for group -4078 idx -4078 *
G04 Title: (unknown), bottomsilk *
G04 Creator: pcb 20110918 *
G04 CreationDate: Thu Nov 14 23:28:25 2013 UTC *
G04 For: fosse *
G04 Format: Gerber/RS-274X *
G04 PCB-Dimensions: 550000 600000 *
G04 PCB-Coordinate-Origin: lower left *
%MOIN*%
%FSLAX25Y25*%
%LNBOTTOMSILK*%
%ADD167C,0.0100*%
G54D167*X424391Y568000D02*X492501D01*
Y503039D02*X492500Y568000D01*
X496437Y552055D02*Y508748D01*
X500374Y552055D02*Y508748D01*
X492500Y552055D02*X512185D01*
Y508748D01*
X492500D02*X512185D01*
X424391Y568000D02*Y503039D01*
X492501D01*
X487580D02*Y464850D01*
X449096D02*X487580D01*
X428524Y503039D02*Y485422D01*
X449096Y464850D02*X428524Y485422D01*
X52111Y460411D02*Y436789D01*
X28489Y460411D02*X52111D01*
X28489D02*Y436789D01*
X52111D01*
X52287Y499999D02*Y476377D01*
X28665Y499999D02*X52287D01*
X28665D02*Y476377D01*
X52287D01*
X52485Y539699D02*Y516077D01*
X28863Y539699D02*X52485D01*
X28863D02*Y516077D01*
X52485D01*
X114985Y501123D02*Y477501D01*
X91363Y501123D02*X114985D01*
X91363D02*Y477501D01*
X114985D01*
X84611Y540911D02*Y517289D01*
X60989Y540911D02*X84611D01*
X60989D02*Y517289D01*
X84611D01*
X83737Y500699D02*Y477077D01*
X60115Y500699D02*X83737D01*
X60115D02*Y477077D01*
X83737D01*
X84237Y459699D02*Y436077D01*
X60615Y459699D02*X84237D01*
X60615D02*Y436077D01*
X84237D01*
X92129Y580208D02*Y556586D01*
X68507Y580208D02*X92129D01*
X68507D02*Y556586D01*
X92129D01*
X250831Y312918D02*X193351D01*
X193350Y328431D01*
X197287Y332368D02*X246893D01*
X250830Y328431D02*X250831Y312918D01*
X250830Y328431D02*X246893Y332368D01*
X193350Y328431D02*X197287Y332368D01*
X252523Y330164D02*X248193Y334494D01*
X195201D01*
X191264Y330557D01*
Y311029D01*
X252523D01*
X252524Y330164D01*
X270257Y311201D02*Y322816D01*
X327344D02*Y311201D01*
X324391Y322816D02*X327344D01*
X270257D02*X273210D01*
X270257Y311201D02*X273210D01*
X324391D02*X327344D01*
X280099Y328918D02*Y333052D01*
Y328918D02*X281281Y330099D01*
X280099Y328918D02*X278918Y330099D01*
X281281D02*X278918D01*
X146811Y126811D02*Y103189D01*
X123189Y126811D02*X146811D01*
X123189D02*Y103189D01*
X146811D01*
X304240Y137156D02*X246760D01*
X246759Y152669D01*
X300302Y156606D02*X250696D01*
X304239Y152669D02*X304240Y137156D01*
X304239Y152669D02*X300302Y156606D01*
X246759Y152669D02*X250696Y156606D01*
X305932Y154402D02*X301602Y158732D01*
X248610D01*
X244673Y154795D01*
Y135267D02*Y154795D01*
X305932Y135267D02*X244673D01*
X305932D02*X305933Y154402D01*
X422437Y564428D02*Y565728D01*
X421737Y566428D02*X422437Y565728D01*
X419137Y566428D02*X421737D01*
X419137D02*X418437Y565728D01*
Y564428D02*Y565728D01*
X418937Y563228D02*X421937D01*
X418937D02*X418437Y562728D01*
Y561728D02*Y562728D01*
Y561728D02*X418937Y561228D01*
X421937D01*
X422437Y561728D02*X421937Y561228D01*
X422437Y561728D02*Y562728D01*
X421937Y563228D02*X422437Y562728D01*
X418437Y560028D02*X422437D01*
X418437D02*X422437Y557528D01*
X418437D02*X422437D01*
X418437Y556328D02*X422437D01*
X418437D02*X422437Y553828D01*
X418437D02*X422437D01*
X418937Y552628D02*X418437Y552128D01*
Y551128D02*Y552128D01*
Y551128D02*X418937Y550628D01*
X422437Y551128D02*X421937Y550628D01*
X422437Y551128D02*Y552128D01*
X421937Y552628D02*X422437Y552128D01*
X420237Y551128D02*Y552128D01*
X418937Y550628D02*X419737D01*
X420737D02*X421937D01*
X420737D02*X420237Y551128D01*
X419737Y550628D02*X420237Y551128D01*
X421937Y549428D02*X422437Y548928D01*
X418937Y549428D02*X421937D01*
X418937D02*X418437Y548928D01*
Y547928D02*Y548928D01*
Y547928D02*X418937Y547428D01*
X421937D01*
X422437Y547928D02*X421937Y547428D01*
X422437Y547928D02*Y548928D01*
X421437Y549428D02*X419437Y547428D01*
X421937Y546228D02*X422437Y545728D01*
X418937Y546228D02*X421937D01*
X418937D02*X418437Y545728D01*
Y544728D02*Y545728D01*
Y544728D02*X418937Y544228D01*
X421937D01*
X422437Y544728D02*X421937Y544228D01*
X422437Y544728D02*Y545728D01*
X421437Y546228D02*X419437Y544228D01*
X210487Y308606D02*X211787D01*
X209787Y307906D02*X210487Y308606D01*
X209787Y305306D02*Y307906D01*
Y305306D02*X210487Y304606D01*
X211787D01*
X212987Y305106D02*Y308106D01*
Y305106D02*X213487Y304606D01*
X214487D01*
X214987Y305106D01*
Y308106D01*
X214487Y308606D02*X214987Y308106D01*
X213487Y308606D02*X214487D01*
X212987Y308106D02*X213487Y308606D01*
X216187Y304606D02*Y308606D01*
Y304606D02*X218687Y308606D01*
Y304606D02*Y308606D01*
X219887Y304606D02*Y308606D01*
Y304606D02*X222387Y308606D01*
Y304606D02*Y308606D01*
X224087D02*X226087Y304606D01*
X223587D02*X226087D01*
X227287Y308106D02*X227787Y308606D01*
X227287Y305106D02*Y308106D01*
Y305106D02*X227787Y304606D01*
X228787D01*
X229287Y305106D01*
Y308106D01*
X228787Y308606D02*X229287Y308106D01*
X227787Y308606D02*X228787D01*
X227287Y307606D02*X229287Y305606D01*
X230487Y307106D02*X232487Y304606D01*
X230487Y307106D02*X232987D01*
X232487Y304606D02*Y308606D01*
X291036Y299469D02*X292336D01*
X290336Y298769D02*X291036Y299469D01*
X290336Y296169D02*Y298769D01*
Y296169D02*X291036Y295469D01*
X292336D01*
X293536Y295969D02*Y298969D01*
Y295969D02*X294036Y295469D01*
X295036D01*
X295536Y295969D01*
Y298969D01*
X295036Y299469D02*X295536Y298969D01*
X294036Y299469D02*X295036D01*
X293536Y298969D02*X294036Y299469D01*
X296736Y295469D02*Y299469D01*
Y295469D02*X299236Y299469D01*
Y295469D02*Y299469D01*
X300436Y295469D02*Y299469D01*
Y295469D02*X302936Y299469D01*
Y295469D02*Y299469D01*
X304636D02*X306636Y295469D01*
X304136D02*X306636D01*
X307836Y298969D02*X308336Y299469D01*
X307836Y295969D02*Y298969D01*
Y295969D02*X308336Y295469D01*
X309336D01*
X309836Y295969D01*
Y298969D01*
X309336Y299469D02*X309836Y298969D01*
X308336Y299469D02*X309336D01*
X307836Y298469D02*X309836Y296469D01*
X311036Y295469D02*X313036D01*
X311036D02*Y297469D01*
X311536Y296969D01*
X312536D01*
X313036Y297469D01*
Y298969D01*
X312536Y299469D02*X313036Y298969D01*
X311536Y299469D02*X312536D01*
X311036Y298969D02*X311536Y299469D01*
X265000Y133000D02*X266300D01*
X264300Y132300D02*X265000Y133000D01*
X264300Y129700D02*Y132300D01*
Y129700D02*X265000Y129000D01*
X266300D01*
X267500Y129500D02*Y132500D01*
Y129500D02*X268000Y129000D01*
X269000D01*
X269500Y129500D01*
Y132500D01*
X269000Y133000D02*X269500Y132500D01*
X268000Y133000D02*X269000D01*
X267500Y132500D02*X268000Y133000D01*
X270700Y129000D02*Y133000D01*
Y129000D02*X273200Y133000D01*
Y129000D02*Y133000D01*
X274400Y129000D02*Y133000D01*
Y129000D02*X276900Y133000D01*
Y129000D02*Y133000D01*
X278600D02*X280600Y129000D01*
X278100D02*X280600D01*
X281800Y132500D02*X282300Y133000D01*
X281800Y129500D02*Y132500D01*
Y129500D02*X282300Y129000D01*
X283300D01*
X283800Y129500D01*
Y132500D01*
X283300Y133000D02*X283800Y132500D01*
X282300Y133000D02*X283300D01*
X281800Y132000D02*X283800Y130000D01*
X286500Y129000D02*X287000Y129500D01*
X285500Y129000D02*X286500D01*
X285000Y129500D02*X285500Y129000D01*
X285000Y129500D02*Y132500D01*
X285500Y133000D01*
X286500Y130800D02*X287000Y131300D01*
X285000Y130800D02*X286500D01*
X285500Y133000D02*X286500D01*
X287000Y132500D01*
Y131300D02*Y132500D01*
X152701Y114047D02*X152201Y114547D01*
X152701Y112547D02*Y114047D01*
X152201Y112047D02*X152701Y112547D01*
X151201Y112047D02*X152201D01*
X151201D02*X150701Y112547D01*
Y114047D01*
X150201Y114547D01*
X149201D02*X150201D01*
X148701Y114047D02*X149201Y114547D01*
X148701Y112547D02*Y114047D01*
X149201Y112047D02*X148701Y112547D01*
X152701Y117247D02*X152201Y117747D01*
X152701Y116247D02*Y117247D01*
X152201Y115747D02*X152701Y116247D01*
X149201Y115747D02*X152201D01*
X149201D02*X148701Y116247D01*
X150901Y117247D02*X150401Y117747D01*
X150901Y115747D02*Y117247D01*
X148701Y116247D02*Y117247D01*
X149201Y117747D01*
X150401D01*
X149201Y118947D02*X148701Y119447D01*
X149201Y118947D02*X152201D01*
X152701Y119447D01*
Y120447D01*
X152201Y120947D01*
X149201D02*X152201D01*
X148701Y120447D02*X149201Y120947D01*
X148701Y119447D02*Y120447D01*
X149701Y118947D02*X151701Y120947D01*
X149201Y122147D02*X148701Y122647D01*
X149201Y122147D02*X152201D01*
X152701Y122647D01*
Y123647D01*
X152201Y124147D01*
X149201D02*X152201D01*
X148701Y123647D02*X149201Y124147D01*
X148701Y122647D02*Y123647D01*
X149701Y122147D02*X151701Y124147D01*
X58001Y447647D02*X57501Y448147D01*
X58001Y446147D02*Y447647D01*
X57501Y445647D02*X58001Y446147D01*
X56501Y445647D02*X57501D01*
X56501D02*X56001Y446147D01*
Y447647D01*
X55501Y448147D01*
X54501D02*X55501D01*
X54001Y447647D02*X54501Y448147D01*
X54001Y446147D02*Y447647D01*
X54501Y445647D02*X54001Y446147D01*
X58001Y450847D02*X57501Y451347D01*
X58001Y449847D02*Y450847D01*
X57501Y449347D02*X58001Y449847D01*
X54501Y449347D02*X57501D01*
X54501D02*X54001Y449847D01*
X56201Y450847D02*X55701Y451347D01*
X56201Y449347D02*Y450847D01*
X54001Y449847D02*Y450847D01*
X54501Y451347D01*
X55701D01*
X54501Y452547D02*X54001Y453047D01*
X54501Y452547D02*X57501D01*
X58001Y453047D01*
Y454047D01*
X57501Y454547D01*
X54501D02*X57501D01*
X54001Y454047D02*X54501Y454547D01*
X54001Y453047D02*Y454047D01*
X55001Y452547D02*X57001Y454547D01*
X57501Y455747D02*X58001Y456247D01*
Y457247D01*
X57501Y457747D01*
X54001Y457247D02*X54501Y457747D01*
X54001Y456247D02*Y457247D01*
X54501Y455747D02*X54001Y456247D01*
X56201D02*Y457247D01*
X56701Y457747D02*X57501D01*
X54501D02*X55701D01*
X56201Y457247D01*
X56701Y457747D02*X56201Y457247D01*
X120875Y488359D02*X120375Y488859D01*
X120875Y486859D02*Y488359D01*
X120375Y486359D02*X120875Y486859D01*
X119375Y486359D02*X120375D01*
X119375D02*X118875Y486859D01*
Y488359D01*
X118375Y488859D01*
X117375D02*X118375D01*
X116875Y488359D02*X117375Y488859D01*
X116875Y486859D02*Y488359D01*
X117375Y486359D02*X116875Y486859D01*
X120875Y491559D02*X120375Y492059D01*
X120875Y490559D02*Y491559D01*
X120375Y490059D02*X120875Y490559D01*
X117375Y490059D02*X120375D01*
X117375D02*X116875Y490559D01*
X119075Y491559D02*X118575Y492059D01*
X119075Y490059D02*Y491559D01*
X116875Y490559D02*Y491559D01*
X117375Y492059D01*
X118575D01*
X117375Y493259D02*X116875Y493759D01*
X117375Y493259D02*X120375D01*
X120875Y493759D01*
Y494759D01*
X120375Y495259D01*
X117375D02*X120375D01*
X116875Y494759D02*X117375Y495259D01*
X116875Y493759D02*Y494759D01*
X117875Y493259D02*X119875Y495259D01*
X116875Y496959D02*X120875Y498959D01*
Y496459D02*Y498959D01*
X90501Y528147D02*X90001Y528647D01*
X90501Y526647D02*Y528147D01*
X90001Y526147D02*X90501Y526647D01*
X89001Y526147D02*X90001D01*
X89001D02*X88501Y526647D01*
Y528147D01*
X88001Y528647D01*
X87001D02*X88001D01*
X86501Y528147D02*X87001Y528647D01*
X86501Y526647D02*Y528147D01*
X87001Y526147D02*X86501Y526647D01*
X90501Y531347D02*X90001Y531847D01*
X90501Y530347D02*Y531347D01*
X90001Y529847D02*X90501Y530347D01*
X87001Y529847D02*X90001D01*
X87001D02*X86501Y530347D01*
X88701Y531347D02*X88201Y531847D01*
X88701Y529847D02*Y531347D01*
X86501Y530347D02*Y531347D01*
X87001Y531847D01*
X88201D01*
X87001Y533047D02*X86501Y533547D01*
X87001Y533047D02*X90001D01*
X90501Y533547D01*
Y534547D01*
X90001Y535047D01*
X87001D02*X90001D01*
X86501Y534547D02*X87001Y535047D01*
X86501Y533547D02*Y534547D01*
X87501Y533047D02*X89501Y535047D01*
X90501Y537747D02*X90001Y538247D01*
X90501Y536747D02*Y537747D01*
X90001Y536247D02*X90501Y536747D01*
X87001Y536247D02*X90001D01*
X87001D02*X86501Y536747D01*
X88701Y537747D02*X88201Y538247D01*
X88701Y536247D02*Y537747D01*
X86501Y536747D02*Y537747D01*
X87001Y538247D01*
X88201D01*
X89627Y487935D02*X89127Y488435D01*
X89627Y486435D02*Y487935D01*
X89127Y485935D02*X89627Y486435D01*
X88127Y485935D02*X89127D01*
X88127D02*X87627Y486435D01*
Y487935D01*
X87127Y488435D01*
X86127D02*X87127D01*
X85627Y487935D02*X86127Y488435D01*
X85627Y486435D02*Y487935D01*
X86127Y485935D02*X85627Y486435D01*
X89627Y491135D02*X89127Y491635D01*
X89627Y490135D02*Y491135D01*
X89127Y489635D02*X89627Y490135D01*
X86127Y489635D02*X89127D01*
X86127D02*X85627Y490135D01*
X87827Y491135D02*X87327Y491635D01*
X87827Y489635D02*Y491135D01*
X85627Y490135D02*Y491135D01*
X86127Y491635D01*
X87327D01*
X86127Y492835D02*X85627Y493335D01*
X86127Y492835D02*X89127D01*
X89627Y493335D01*
Y494335D01*
X89127Y494835D01*
X86127D02*X89127D01*
X85627Y494335D02*X86127Y494835D01*
X85627Y493335D02*Y494335D01*
X86627Y492835D02*X88627Y494835D01*
X89627Y496035D02*Y498035D01*
X87627Y496035D02*X89627D01*
X87627D02*X88127Y496535D01*
Y497535D01*
X87627Y498035D01*
X86127D02*X87627D01*
X85627Y497535D02*X86127Y498035D01*
X85627Y496535D02*Y497535D01*
X86127Y496035D02*X85627Y496535D01*
X90127Y446935D02*X89627Y447435D01*
X90127Y445435D02*Y446935D01*
X89627Y444935D02*X90127Y445435D01*
X88627Y444935D02*X89627D01*
X88627D02*X88127Y445435D01*
Y446935D01*
X87627Y447435D01*
X86627D02*X87627D01*
X86127Y446935D02*X86627Y447435D01*
X86127Y445435D02*Y446935D01*
X86627Y444935D02*X86127Y445435D01*
X90127Y450135D02*X89627Y450635D01*
X90127Y449135D02*Y450135D01*
X89627Y448635D02*X90127Y449135D01*
X86627Y448635D02*X89627D01*
X86627D02*X86127Y449135D01*
X88327Y450135D02*X87827Y450635D01*
X88327Y448635D02*Y450135D01*
X86127Y449135D02*Y450135D01*
X86627Y450635D01*
X87827D01*
X86627Y451835D02*X86127Y452335D01*
X86627Y451835D02*X89627D01*
X90127Y452335D01*
Y453335D01*
X89627Y453835D01*
X86627D02*X89627D01*
X86127Y453335D02*X86627Y453835D01*
X86127Y452335D02*Y453335D01*
X87127Y451835D02*X89127Y453835D01*
X87627Y455035D02*X90127Y457035D01*
X87627Y455035D02*Y457535D01*
X86127Y457035D02*X90127D01*
X98019Y567444D02*X97519Y567944D01*
X98019Y565944D02*Y567444D01*
X97519Y565444D02*X98019Y565944D01*
X96519Y565444D02*X97519D01*
X96519D02*X96019Y565944D01*
Y567444D01*
X95519Y567944D01*
X94519D02*X95519D01*
X94019Y567444D02*X94519Y567944D01*
X94019Y565944D02*Y567444D01*
X94519Y565444D02*X94019Y565944D01*
X98019Y569144D02*Y571144D01*
X96019Y569144D02*X98019D01*
X96019D02*X96519Y569644D01*
Y570644D01*
X96019Y571144D01*
X94519D02*X96019D01*
X94019Y570644D02*X94519Y571144D01*
X94019Y569644D02*Y570644D01*
X94519Y569144D02*X94019Y569644D01*
X94519Y572344D02*X94019Y572844D01*
X94519Y572344D02*X97519D01*
X98019Y572844D01*
Y573844D01*
X97519Y574344D01*
X94519D02*X97519D01*
X94019Y573844D02*X94519Y574344D01*
X94019Y572844D02*Y573844D01*
X95019Y572344D02*X97019Y574344D01*
X97219Y575544D02*X98019Y576344D01*
X94019D02*X98019D01*
X94019Y575544D02*Y577044D01*
X58177Y487235D02*X57677Y487735D01*
X58177Y485735D02*Y487235D01*
X57677Y485235D02*X58177Y485735D01*
X56677Y485235D02*X57677D01*
X56677D02*X56177Y485735D01*
Y487235D01*
X55677Y487735D01*
X54677D02*X55677D01*
X54177Y487235D02*X54677Y487735D01*
X54177Y485735D02*Y487235D01*
X54677Y485235D02*X54177Y485735D01*
X58177Y490435D02*X57677Y490935D01*
X58177Y489435D02*Y490435D01*
X57677Y488935D02*X58177Y489435D01*
X54677Y488935D02*X57677D01*
X54677D02*X54177Y489435D01*
X56377Y490435D02*X55877Y490935D01*
X56377Y488935D02*Y490435D01*
X54177Y489435D02*Y490435D01*
X54677Y490935D01*
X55877D01*
X54677Y492135D02*X54177Y492635D01*
X54677Y492135D02*X57677D01*
X58177Y492635D01*
Y493635D01*
X57677Y494135D01*
X54677D02*X57677D01*
X54177Y493635D02*X54677Y494135D01*
X54177Y492635D02*Y493635D01*
X55177Y492135D02*X57177Y494135D01*
X57677Y495335D02*X58177Y495835D01*
Y497335D01*
X57677Y497835D01*
X56677D02*X57677D01*
X54177Y495335D02*X56677Y497835D01*
X54177Y495335D02*Y497835D01*
X58375Y526935D02*X57875Y527435D01*
X58375Y525435D02*Y526935D01*
X57875Y524935D02*X58375Y525435D01*
X56875Y524935D02*X57875D01*
X56875D02*X56375Y525435D01*
Y526935D01*
X55875Y527435D01*
X54875D02*X55875D01*
X54375Y526935D02*X54875Y527435D01*
X54375Y525435D02*Y526935D01*
X54875Y524935D02*X54375Y525435D01*
X58375Y530135D02*X57875Y530635D01*
X58375Y529135D02*Y530135D01*
X57875Y528635D02*X58375Y529135D01*
X54875Y528635D02*X57875D01*
X54875D02*X54375Y529135D01*
X56575Y530135D02*X56075Y530635D01*
X56575Y528635D02*Y530135D01*
X54375Y529135D02*Y530135D01*
X54875Y530635D01*
X56075D01*
X54875Y531835D02*X54375Y532335D01*
X54875Y531835D02*X57875D01*
X58375Y532335D01*
Y533335D01*
X57875Y533835D01*
X54875D02*X57875D01*
X54375Y533335D02*X54875Y533835D01*
X54375Y532335D02*Y533335D01*
X55375Y531835D02*X57375Y533835D01*
X57575Y535035D02*X58375Y535835D01*
X54375D02*X58375D01*
X54375Y535035D02*Y536535D01*
M02*
