M48
INCH
T72C0.035
T71C0.020
T70C0.030
T69C0.109
%
T71
X008885Y068765
X008750Y068050
X007800Y069100
X009450Y068400
X009850Y067950
X008950Y067450
X004950Y069850
X005600Y069850
X006250Y069850
X004300Y069850
X010200Y070900
X008641Y066891
X008628Y064922
X009300Y064900
X008650Y066100
X009200Y065750
X007000Y065950
X006400Y065950
X006200Y065350
X009300Y066900
X010250Y068400
X010700Y067950
X018200Y070100
X020150Y070100
X015300Y053950
T70
X020350Y079450
X022350Y079450
T72
X003100Y070500
X002600Y065000
X007250Y070750
X009250Y060950
X007950Y063100
X007850Y061750
X003450Y059950
X014300Y063000
X014300Y061500
X014000Y069450
X016000Y069450
X015400Y055900
X020700Y056100
X019000Y054750
X036450Y059500
X036600Y061200
X035600Y059700
X034550Y060350
X036800Y058500
X033100Y060550
X031100Y060550
X034500Y058800
X039400Y059100
X033026Y061424
X032500Y063000
X035550Y062650
X034500Y063350
X038000Y064150
X036650Y064150
X031100Y062200
T69
X040750Y079650
X040750Y054650
X032750Y054650
X004750Y079650
X012750Y079650
X032750Y079650
X004750Y054650
X012750Y054650
M30
