G04 start of page 5 for group 3 idx 4 *
G04 Title: (unknown), 3GND *
G04 Creator: pcb 20110918 *
G04 CreationDate: Tue Nov 12 20:42:01 2013 UTC *
G04 For: fosse *
G04 Format: Gerber/RS-274X *
G04 PCB-Dimensions: 455000 500000 *
G04 PCB-Coordinate-Origin: lower left *
%MOIN*%
%FSLAX25Y25*%
%LNBOTTOM*%
%ADD96C,0.0354*%
%ADD95C,0.1090*%
%ADD94C,0.0350*%
%ADD93C,0.0200*%
%ADD92C,0.0300*%
%ADD91C,0.0600*%
%ADD90C,0.0360*%
%ADD89R,0.0197X0.0197*%
%ADD88R,0.0157X0.0157*%
%ADD87R,0.0158X0.0158*%
%ADD86R,0.0236X0.0236*%
%ADD85R,0.0354X0.0354*%
%ADD84R,0.0177X0.0177*%
%ADD83R,0.0197X0.0197*%
%ADD82R,0.0236X0.0236*%
%ADD81R,0.0551X0.0551*%
%ADD80R,0.0551X0.0551*%
%ADD79C,0.0544*%
%ADD78C,0.0550*%
%ADD77C,0.0001*%
%ADD76C,0.0394*%
%ADD75C,0.2500*%
%ADD74C,0.0150*%
G54D74*X259001Y249352D02*Y243702D01*
X258999Y243700D01*
X255064Y249352D02*Y243736D01*
X255099Y243700D01*
X251127Y249352D02*Y243728D01*
X251099Y243700D01*
X247190Y249352D02*Y243709D01*
X247199Y243700D01*
X243253Y249352D02*Y243746D01*
X243299Y243700D01*
X239316Y249351D02*Y243718D01*
X239299Y243700D01*
X235379Y249351D02*Y243720D01*
X235399Y243700D01*
X231442Y249351D02*Y243744D01*
X231399Y243700D01*
X227505Y249351D02*Y243720D01*
X227525Y243700D01*
X223568Y243744D02*X223525Y243700D01*
X223568Y249351D02*Y243744D01*
X229500Y258826D02*X229474Y258800D01*
X221600D02*Y262900D01*
X219500Y265000D01*
X225537Y258800D02*Y265963D01*
X222500Y269000D02*X225537Y265963D01*
X222500Y273500D02*X229500Y266500D01*
X233411Y267089D02*X223000Y277500D01*
X237348Y267652D02*X223500Y281500D01*
X229500Y266500D02*Y258826D01*
X233411Y258800D02*Y267089D01*
X216000Y269000D02*X222500D01*
X219500Y273500D02*X222500D01*
X223000Y277500D02*X216000D01*
X223500Y281500D02*X214000D01*
X212500Y280000D01*
Y273000D01*
X237348Y258800D02*Y267652D01*
X257033Y262900D02*Y258800D01*
Y262900D02*X259133Y265000D01*
X256133Y269000D02*X262633D01*
X256133D02*X253096Y265963D01*
Y258800D01*
X249133Y266500D02*Y258826D01*
X249159Y258800D01*
X245222Y267089D02*Y258800D01*
X241285Y267652D02*Y258800D01*
X256133Y273500D02*X259133D01*
X256133D02*X249133Y266500D01*
X245222Y267089D02*X255633Y277500D01*
X241285Y267652D02*X255133Y281500D01*
X255633Y277500D02*X262633D01*
X255133Y281500D02*X264633D01*
X266133Y280000D01*
Y273000D01*
X163520Y261450D02*Y267120D01*
X163590Y267190D01*
X160441D02*Y258171D01*
X160392Y255308D01*
X157320Y261450D02*Y267162D01*
X157292Y267191D01*
X147820Y248074D02*X147842Y248096D01*
X151020Y241850D02*Y248068D01*
X150992Y248096D01*
X154123Y236223D02*X154120Y248074D01*
X144693Y248096D02*Y241923D01*
X144620Y241850D01*
X147823Y236223D02*X147820Y248074D01*
X141543Y248096D02*Y236243D01*
X141500Y236200D01*
X154120Y248074D02*X154141Y248096D01*
X157292D02*Y241878D01*
X157320Y241850D01*
X160423Y236223D02*X160420Y248074D01*
X160441Y248096D01*
X163590D02*Y241880D01*
X163620Y241850D01*
X154141Y267190D02*X154092Y255308D01*
X154120Y258150D01*
X151020Y261450D02*Y267162D01*
X150992Y267190D01*
X147842D02*X147792Y255308D01*
X147820Y258150D01*
X144720Y261450D02*Y267163D01*
X144693Y267190D01*
X141543D02*X141500Y255300D01*
X141528Y258142D01*
G54D75*X396700Y296100D03*
Y46100D03*
X316700D03*
G54D76*X306475Y74944D03*
G54D75*X36700Y296100D03*
X116700D03*
X316700D03*
X36700Y46100D03*
X116700D03*
G54D77*G36*
X55750Y57750D02*Y52250D01*
X61250D01*
Y57750D01*
X55750D01*
G37*
G54D78*X78500Y55000D03*
G54D76*X253325Y74944D03*
G54D79*X190166Y249966D03*
X137016D03*
G54D80*X105008Y269377D02*Y264062D01*
X97134Y269377D02*Y264062D01*
X89260Y269377D02*Y264062D01*
X105008Y242802D02*Y237487D01*
X89260Y242802D02*Y237487D01*
X369300Y183758D02*Y178443D01*
X353552Y183758D02*Y178443D01*
X385386Y169045D02*Y163730D01*
X377512Y169045D02*Y163730D01*
X369300Y210333D02*Y205018D01*
X361426Y210333D02*Y205018D01*
X353552Y210333D02*Y205018D01*
X377512Y142470D02*Y137155D01*
X317300Y198833D02*Y193518D01*
Y172258D02*Y166943D01*
X309426Y198833D02*Y193518D01*
X301552Y198833D02*Y193518D01*
Y172258D02*Y166943D01*
X353052Y275258D02*Y269943D01*
X368800Y301833D02*Y296518D01*
Y275258D02*Y269943D01*
X360926Y301833D02*Y296518D01*
X353052Y301833D02*Y296518D01*
X417048Y198833D02*Y193518D01*
X409174Y198833D02*Y193518D01*
X401300Y198833D02*Y193518D01*
X417048Y172258D02*Y166943D01*
X401300Y172258D02*Y166943D01*
X393260Y169045D02*Y163730D01*
Y142470D02*Y137155D01*
X328048Y227682D02*Y222367D01*
X312300Y227682D02*Y222367D01*
X353426Y228970D02*Y223655D01*
X328048Y254257D02*Y248942D01*
X320174Y254257D02*Y248942D01*
X312300Y254257D02*Y248942D01*
X369174Y255545D02*Y250230D01*
X361300Y255545D02*Y250230D01*
X353426Y255545D02*Y250230D01*
X403174Y255545D02*Y250230D01*
Y228970D02*Y223655D01*
X395300Y255545D02*Y250230D01*
X387426Y255545D02*Y250230D01*
X369174Y228970D02*Y223655D01*
X387426Y228970D02*Y223655D01*
G54D81*X397572Y413856D02*X400722D01*
G54D82*X333969Y393698D02*X336725D01*
G54D83*X337315Y411888D02*Y404210D01*
G54D84*X337217Y411986D02*X345879D01*
G54D85*X366450Y340410D02*Y339663D01*
X371450Y340410D02*Y339663D01*
X376450Y340410D02*Y339663D01*
X381450Y340410D02*Y339663D01*
X386450Y340410D02*Y339663D01*
X391450Y340410D02*Y339663D01*
G54D83*X337315Y351258D02*Y343384D01*
G54D80*X397572Y340627D02*X400722D01*
G54D86*X333970Y390352D02*X336724D01*
G54D82*X333969Y387005D02*X336725D01*
X333969Y382674D02*X336725D01*
X333969Y378344D02*X336725D01*
X333969Y374013D02*X336725D01*
X333969Y369682D02*X336725D01*
G54D86*X333970Y365352D02*X336724D01*
G54D82*X333969Y361021D02*X336725D01*
X333969Y356690D02*X336725D01*
G54D87*X257033Y261162D02*Y256438D01*
X253096Y261162D02*Y256438D01*
X249159Y261162D02*Y256438D01*
X245222Y261162D02*Y256438D01*
G54D88*X259001Y251713D02*Y246988D01*
X255064Y251713D02*Y246988D01*
X251127Y251713D02*Y246988D01*
G54D82*X262938Y260768D02*Y256831D01*
Y251319D02*Y247382D01*
G54D87*X241285Y261162D02*Y256438D01*
X237348Y261162D02*Y256438D01*
X233411Y261162D02*Y256438D01*
X229474Y261162D02*Y256438D01*
X225537Y261162D02*Y256438D01*
X221600Y261162D02*Y256438D01*
G54D82*X217662Y260768D02*Y256831D01*
G54D88*X247190Y251713D02*Y246988D01*
X243253Y251713D02*Y246988D01*
G54D87*X239316Y251713D02*Y246989D01*
X235379Y251713D02*Y246989D01*
X231442Y251713D02*Y246989D01*
X227505Y251713D02*Y246989D01*
X223568Y251713D02*Y246989D01*
G54D82*X217662Y251319D02*Y247382D01*
G54D89*X141543Y269218D02*Y265162D01*
X144693Y269218D02*Y265162D01*
X147842Y269218D02*Y265162D01*
X150992Y269218D02*Y265162D01*
X154141Y269218D02*Y265162D01*
G54D83*X157292Y269218D02*Y265163D01*
G54D89*X141543Y250123D02*Y246068D01*
X144693Y250123D02*Y246068D01*
X147842Y250123D02*Y246068D01*
X150992Y250123D02*Y246068D01*
X154141Y250123D02*Y246068D01*
G54D83*X157292Y250123D02*Y246069D01*
G54D89*X185638Y269218D02*Y265162D01*
X182488Y269218D02*Y265162D01*
X179338Y269218D02*Y265162D01*
X176189Y269218D02*Y265162D01*
X169889Y269218D02*Y265162D01*
G54D83*X173040Y269218D02*Y265163D01*
G54D89*X160441Y269218D02*Y265162D01*
X163590Y269218D02*Y265162D01*
X166740Y269218D02*Y265162D01*
X185638Y250123D02*Y246068D01*
X182488Y250123D02*Y246068D01*
X179338Y250123D02*Y246068D01*
X176189Y250123D02*Y246068D01*
X160441Y250123D02*Y246068D01*
X163590Y250123D02*Y246068D01*
X166740Y250123D02*Y246068D01*
X169889Y250123D02*Y246068D01*
G54D83*X173040Y250123D02*Y246069D01*
G54D90*X171841Y131653D03*
G54D91*X158341Y113653D03*
X157341Y100153D03*
X221841Y112653D03*
Y97653D03*
G54D90*X170841Y140153D03*
G54D91*X171341Y92153D03*
G54D90*X171841Y151653D03*
X148841Y142153D03*
X142841D03*
X140841Y136153D03*
G54D91*X104841Y132653D03*
X113341Y82153D03*
G54D90*X167688Y170306D03*
X165247Y151559D03*
X165120Y131874D03*
X166341Y163153D03*
X165341Y143653D03*
X168341Y157153D03*
X156841Y173653D03*
X173341Y166653D03*
X177341Y162153D03*
X181341Y166653D03*
X128341Y181153D03*
X134841D03*
X121841D03*
G54D91*X109841Y187653D03*
G54D90*X141341Y181153D03*
G54D91*X151341Y190153D03*
G54D90*X180841Y191653D03*
X185841Y162153D03*
G54D91*X218841Y177153D03*
X238841D03*
G54D90*X260841Y183653D03*
X280341D03*
G54D92*X163520Y261450D03*
X157320D03*
X160392Y255308D03*
X154092D03*
X151020Y261450D03*
X144720D03*
X147792Y255308D03*
X141500Y255300D03*
X163620Y241850D03*
X157320D03*
X151020D03*
X144620D03*
X160423Y236223D03*
X154123D03*
X147823D03*
X141500Y236200D03*
X258999Y243700D03*
X255099D03*
X251099D03*
X247199D03*
X243299D03*
X235399D03*
X239299D03*
X259133Y265000D03*
X262633Y269000D03*
Y277500D03*
X266133Y273000D03*
X259133Y273500D03*
X231399Y243700D03*
X227525D03*
X223525D03*
X219500Y265000D03*
X216000Y269000D03*
X212500Y273000D03*
X219500Y273500D03*
X216000Y277500D03*
G54D91*X205900Y370500D03*
X258900Y372500D03*
G54D90*X204900Y351000D03*
G54D91*X241900Y359000D03*
X362800Y359100D03*
X392300Y355100D03*
X309300Y369600D03*
X323300Y394100D03*
X329300Y369600D03*
X364300Y376100D03*
X328556Y378344D03*
X353800Y390600D03*
X343300Y397600D03*
X378300Y405600D03*
X364800D03*
X354300Y361100D03*
X343300Y352100D03*
X343800Y367600D03*
X366300Y349100D03*
G54D92*X146000Y300500D03*
X149900D03*
X153900D03*
X157800D03*
X161700D03*
X165700D03*
X169600D03*
X173600D03*
X223570Y300490D03*
X227470D03*
X231470D03*
X235370D03*
X239270D03*
X243270D03*
X247170D03*
X251170D03*
X255044D03*
X259044D03*
G54D93*G54D94*G54D93*G54D94*G54D93*G54D94*G54D93*G54D94*G54D93*G54D94*G54D93*G54D94*G54D93*G54D74*G54D94*G54D93*G54D94*G54D74*G54D95*G54D96*G54D95*G54D92*G54D96*M02*
