G04 start of page 6 for group 4 idx 4 *
G04 Title: (unknown), signal1 *
G04 Creator: pcb 20110918 *
G04 CreationDate: Wed Oct  9 19:39:00 2013 UTC *
G04 For: fosse *
G04 Format: Gerber/RS-274X *
G04 PCB-Dimensions: 600000 500000 *
G04 PCB-Coordinate-Origin: lower left *
%MOIN*%
%FSLAX25Y25*%
%LNGROUP4*%
%ADD26C,0.1090*%
%ADD25C,0.2500*%
%ADD24C,0.0001*%
G54D24*G36*
X352479Y436000D02*X372000D01*
Y16000D01*
X352479D01*
Y32460D01*
X352500Y32458D01*
X354618Y32625D01*
X356685Y33121D01*
X358648Y33934D01*
X360460Y35045D01*
X362075Y36425D01*
X363455Y38040D01*
X364566Y39852D01*
X365379Y41815D01*
X365875Y43882D01*
X366000Y46000D01*
X365875Y48118D01*
X365379Y50185D01*
X364566Y52148D01*
X363455Y53960D01*
X362075Y55575D01*
X360460Y56955D01*
X358648Y58066D01*
X356685Y58879D01*
X354618Y59375D01*
X352500Y59542D01*
X352479Y59540D01*
Y112460D01*
X352500Y112458D01*
X354618Y112625D01*
X356685Y113121D01*
X358648Y113934D01*
X360460Y115045D01*
X362075Y116425D01*
X363455Y118040D01*
X364566Y119852D01*
X365379Y121815D01*
X365875Y123882D01*
X366000Y126000D01*
X365875Y128118D01*
X365379Y130185D01*
X364566Y132148D01*
X363455Y133960D01*
X362075Y135575D01*
X360460Y136955D01*
X358648Y138066D01*
X356685Y138879D01*
X354618Y139375D01*
X352500Y139542D01*
X352479Y139540D01*
Y312460D01*
X352500Y312458D01*
X354618Y312625D01*
X356685Y313121D01*
X358648Y313934D01*
X360460Y315045D01*
X362075Y316425D01*
X363455Y318040D01*
X364566Y319852D01*
X365379Y321815D01*
X365875Y323882D01*
X366000Y326000D01*
X365875Y328118D01*
X365379Y330185D01*
X364566Y332148D01*
X363455Y333960D01*
X362075Y335575D01*
X360460Y336955D01*
X358648Y338066D01*
X356685Y338879D01*
X354618Y339375D01*
X352500Y339542D01*
X352479Y339540D01*
Y392460D01*
X352500Y392458D01*
X354618Y392625D01*
X356685Y393121D01*
X358648Y393934D01*
X360460Y395045D01*
X362075Y396425D01*
X363455Y398040D01*
X364566Y399852D01*
X365379Y401815D01*
X365875Y403882D01*
X366000Y406000D01*
X365875Y408118D01*
X365379Y410185D01*
X364566Y412148D01*
X363455Y413960D01*
X362075Y415575D01*
X360460Y416955D01*
X358648Y418066D01*
X356685Y418879D01*
X354618Y419375D01*
X352500Y419542D01*
X352479Y419540D01*
Y436000D01*
G37*
G36*
X102479D02*X352479D01*
Y419540D01*
X350382Y419375D01*
X348315Y418879D01*
X346352Y418066D01*
X344540Y416955D01*
X342925Y415575D01*
X341545Y413960D01*
X340434Y412148D01*
X339621Y410185D01*
X339125Y408118D01*
X338958Y406000D01*
X339125Y403882D01*
X339621Y401815D01*
X340434Y399852D01*
X341545Y398040D01*
X342925Y396425D01*
X344540Y395045D01*
X346352Y393934D01*
X348315Y393121D01*
X350382Y392625D01*
X352479Y392460D01*
Y339540D01*
X350382Y339375D01*
X348315Y338879D01*
X346352Y338066D01*
X344540Y336955D01*
X342925Y335575D01*
X341545Y333960D01*
X340434Y332148D01*
X339621Y330185D01*
X339125Y328118D01*
X338958Y326000D01*
X339125Y323882D01*
X339621Y321815D01*
X340434Y319852D01*
X341545Y318040D01*
X342925Y316425D01*
X344540Y315045D01*
X346352Y313934D01*
X348315Y313121D01*
X350382Y312625D01*
X352479Y312460D01*
Y139540D01*
X350382Y139375D01*
X348315Y138879D01*
X346352Y138066D01*
X344540Y136955D01*
X342925Y135575D01*
X341545Y133960D01*
X340434Y132148D01*
X339621Y130185D01*
X339125Y128118D01*
X338958Y126000D01*
X339125Y123882D01*
X339621Y121815D01*
X340434Y119852D01*
X341545Y118040D01*
X342925Y116425D01*
X344540Y115045D01*
X346352Y113934D01*
X348315Y113121D01*
X350382Y112625D01*
X352479Y112460D01*
Y59540D01*
X350382Y59375D01*
X348315Y58879D01*
X346352Y58066D01*
X344540Y56955D01*
X342925Y55575D01*
X341545Y53960D01*
X340434Y52148D01*
X339621Y50185D01*
X339125Y48118D01*
X338958Y46000D01*
X339125Y43882D01*
X339621Y41815D01*
X340434Y39852D01*
X341545Y38040D01*
X342925Y36425D01*
X344540Y35045D01*
X346352Y33934D01*
X348315Y33121D01*
X350382Y32625D01*
X352479Y32460D01*
Y16000D01*
X102479D01*
Y32460D01*
X102500Y32458D01*
X104618Y32625D01*
X106685Y33121D01*
X108648Y33934D01*
X110460Y35045D01*
X112075Y36425D01*
X113455Y38040D01*
X114566Y39852D01*
X115379Y41815D01*
X115875Y43882D01*
X116000Y46000D01*
X115875Y48118D01*
X115379Y50185D01*
X114566Y52148D01*
X113455Y53960D01*
X112075Y55575D01*
X110460Y56955D01*
X108648Y58066D01*
X106685Y58879D01*
X104618Y59375D01*
X102500Y59542D01*
X102479Y59540D01*
Y112460D01*
X102500Y112458D01*
X104618Y112625D01*
X106685Y113121D01*
X108648Y113934D01*
X110460Y115045D01*
X112075Y116425D01*
X113455Y118040D01*
X114566Y119852D01*
X115379Y121815D01*
X115875Y123882D01*
X116000Y126000D01*
X115875Y128118D01*
X115379Y130185D01*
X114566Y132148D01*
X113455Y133960D01*
X112075Y135575D01*
X110460Y136955D01*
X108648Y138066D01*
X106685Y138879D01*
X104618Y139375D01*
X102500Y139542D01*
X102479Y139540D01*
Y312460D01*
X102500Y312458D01*
X104618Y312625D01*
X106685Y313121D01*
X108648Y313934D01*
X110460Y315045D01*
X112075Y316425D01*
X113455Y318040D01*
X114566Y319852D01*
X115379Y321815D01*
X115875Y323882D01*
X116000Y326000D01*
X115875Y328118D01*
X115379Y330185D01*
X114566Y332148D01*
X113455Y333960D01*
X112075Y335575D01*
X110460Y336955D01*
X108648Y338066D01*
X106685Y338879D01*
X104618Y339375D01*
X102500Y339542D01*
X102479Y339540D01*
Y392460D01*
X102500Y392458D01*
X104618Y392625D01*
X106685Y393121D01*
X108648Y393934D01*
X110460Y395045D01*
X112075Y396425D01*
X113455Y398040D01*
X114566Y399852D01*
X115379Y401815D01*
X115875Y403882D01*
X116000Y406000D01*
X115875Y408118D01*
X115379Y410185D01*
X114566Y412148D01*
X113455Y413960D01*
X112075Y415575D01*
X110460Y416955D01*
X108648Y418066D01*
X106685Y418879D01*
X104618Y419375D01*
X102500Y419542D01*
X102479Y419540D01*
Y436000D01*
G37*
G36*
X83000D02*X102479D01*
Y419540D01*
X100382Y419375D01*
X98315Y418879D01*
X96352Y418066D01*
X94540Y416955D01*
X92925Y415575D01*
X91545Y413960D01*
X90434Y412148D01*
X89621Y410185D01*
X89125Y408118D01*
X88958Y406000D01*
X89125Y403882D01*
X89621Y401815D01*
X90434Y399852D01*
X91545Y398040D01*
X92925Y396425D01*
X94540Y395045D01*
X96352Y393934D01*
X98315Y393121D01*
X100382Y392625D01*
X102479Y392460D01*
Y339540D01*
X100382Y339375D01*
X98315Y338879D01*
X96352Y338066D01*
X94540Y336955D01*
X92925Y335575D01*
X91545Y333960D01*
X90434Y332148D01*
X89621Y330185D01*
X89125Y328118D01*
X88958Y326000D01*
X89125Y323882D01*
X89621Y321815D01*
X90434Y319852D01*
X91545Y318040D01*
X92925Y316425D01*
X94540Y315045D01*
X96352Y313934D01*
X98315Y313121D01*
X100382Y312625D01*
X102479Y312460D01*
Y139540D01*
X100382Y139375D01*
X98315Y138879D01*
X96352Y138066D01*
X94540Y136955D01*
X92925Y135575D01*
X91545Y133960D01*
X90434Y132148D01*
X89621Y130185D01*
X89125Y128118D01*
X88958Y126000D01*
X89125Y123882D01*
X89621Y121815D01*
X90434Y119852D01*
X91545Y118040D01*
X92925Y116425D01*
X94540Y115045D01*
X96352Y113934D01*
X98315Y113121D01*
X100382Y112625D01*
X102479Y112460D01*
Y59540D01*
X100382Y59375D01*
X98315Y58879D01*
X96352Y58066D01*
X94540Y56955D01*
X92925Y55575D01*
X91545Y53960D01*
X90434Y52148D01*
X89621Y50185D01*
X89125Y48118D01*
X88958Y46000D01*
X89125Y43882D01*
X89621Y41815D01*
X90434Y39852D01*
X91545Y38040D01*
X92925Y36425D01*
X94540Y35045D01*
X96352Y33934D01*
X98315Y33121D01*
X100382Y32625D01*
X102479Y32460D01*
Y16000D01*
X83000D01*
Y436000D01*
G37*
G54D25*X352500Y46000D03*
X102500Y406000D03*
Y46000D03*
Y326000D03*
Y126000D03*
X352500Y406000D03*
Y326000D03*
Y126000D03*
G54D26*M02*
