G04 start of page 8 for group -4079 idx -4079 *
G04 Title: (unknown), topsilk *
G04 Creator: pcb 20110918 *
G04 CreationDate: Wed Oct  9 19:39:00 2013 UTC *
G04 For: fosse *
G04 Format: Gerber/RS-274X *
G04 PCB-Dimensions: 600000 500000 *
G04 PCB-Coordinate-Origin: lower left *
%MOIN*%
%FSLAX25Y25*%
%LNTOPSILK*%
%ADD29C,0.0100*%
%ADD28C,0.0001*%
G54D28*G36*
X433000Y381200D02*X483000D01*
Y331200D01*
X433000D01*
Y381200D01*
G37*
G54D29*X65000Y445000D02*X390000D01*
Y7000D01*
X65000D01*
Y445000D01*
X352500Y71000D02*G75*G03X327500Y46000I0J-25000D01*G01*
X352500Y21000D02*G75*G03X377500Y46000I0J25000D01*G01*
X352500Y71000D02*G75*G02X377500Y46000I0J-25000D01*G01*
X352500Y21000D02*G75*G02X327500Y46000I0J25000D01*G01*
X352500Y431000D02*G75*G03X327500Y406000I0J-25000D01*G01*
X352500Y381000D02*G75*G03X377500Y406000I0J25000D01*G01*
X352500Y431000D02*G75*G02X377500Y406000I0J-25000D01*G01*
X352500Y381000D02*G75*G02X327500Y406000I0J25000D01*G01*
X102500Y431000D02*G75*G03X77500Y406000I0J-25000D01*G01*
X102500Y381000D02*G75*G03X127500Y406000I0J25000D01*G01*
X102500Y21000D02*G75*G03X127500Y46000I0J25000D01*G01*
X102500Y71000D02*G75*G02X127500Y46000I0J-25000D01*G01*
X102500Y431000D02*G75*G02X127500Y406000I0J-25000D01*G01*
X102500Y381000D02*G75*G02X77500Y406000I0J25000D01*G01*
X102500Y71000D02*G75*G03X77500Y46000I0J-25000D01*G01*
X102500Y21000D02*G75*G02X77500Y46000I0J25000D01*G01*
M02*
