G04 start of page 3 for group 1 idx 1 *
G04 Title: (unknown), solder *
G04 Creator: pcb 20110918 *
G04 CreationDate: Mon Oct 22 21:24:27 2012 UTC *
G04 For: fosse *
G04 Format: Gerber/RS-274X *
G04 PCB-Dimensions: 600000 500000 *
G04 PCB-Coordinate-Origin: lower left *
%MOIN*%
%FSLAX25Y25*%
%LNBOTTOM*%
%ADD15C,0.1090*%
%ADD14C,0.2500*%
%ADD13C,0.0001*%
G54D13*G36*
X107500Y370000D02*X347500D01*
Y338923D01*
X347315Y338879D01*
X345352Y338066D01*
X343540Y336955D01*
X341925Y335575D01*
X340545Y333960D01*
X339434Y332148D01*
X338621Y330185D01*
X338125Y328118D01*
X337958Y326000D01*
X338125Y323882D01*
X338621Y321815D01*
X339434Y319852D01*
X340545Y318040D01*
X341925Y316425D01*
X343540Y315045D01*
X345352Y313934D01*
X347315Y313121D01*
X347500Y313077D01*
Y178000D01*
X107500D01*
Y313077D01*
X107685Y313121D01*
X109648Y313934D01*
X111460Y315045D01*
X113075Y316425D01*
X114455Y318040D01*
X115566Y319852D01*
X116379Y321815D01*
X116875Y323882D01*
X117000Y326000D01*
X116875Y328118D01*
X116379Y330185D01*
X115566Y332148D01*
X114455Y333960D01*
X113075Y335575D01*
X111460Y336955D01*
X109648Y338066D01*
X107685Y338879D01*
X107500Y338923D01*
Y370000D01*
G37*
G54D14*X351500Y406000D03*
X103500Y46000D03*
X351500D03*
Y326000D03*
Y126000D03*
X103500D03*
Y406000D03*
Y326000D03*
G54D15*M02*
