G04 start of page 11 for group -4078 idx -4078 *
G04 Title: (unknown), bottomsilk *
G04 Creator: pcb 20110918 *
G04 CreationDate: Mon Dec 23 20:18:39 2013 UTC *
G04 For: fosse *
G04 Format: Gerber/RS-274X *
G04 PCB-Dimensions: 550000 350000 *
G04 PCB-Coordinate-Origin: lower left *
%MOIN*%
%FSLAX25Y25*%
%LNBOTTOMSILK*%
%ADD73C,0.0060*%
G54D73*X318500Y40000D02*X319000Y40500D01*
X317000Y40000D02*X318500D01*
X316500Y40500D02*X317000Y40000D01*
X316500Y40500D02*Y41500D01*
X317000Y42000D01*
X318500D01*
X319000Y42500D01*
Y43500D01*
X318500Y44000D02*X319000Y43500D01*
X317000Y44000D02*X318500D01*
X316500Y43500D02*X317000Y44000D01*
X320200Y40000D02*X322200D01*
X321200D02*Y44000D01*
X323400Y41000D02*Y44000D01*
Y41000D02*X324100Y40000D01*
X325200D01*
X325900Y41000D01*
Y44000D01*
X323400Y42000D02*X325900D01*
X327100Y40000D02*X329100D01*
X328100D02*Y44000D01*
X330300Y40000D02*Y43500D01*
X330800Y44000D01*
X331800D01*
X332300Y43500D01*
Y40000D02*Y43500D01*
X335500Y40000D02*X336000Y40500D01*
X334000Y40000D02*X335500D01*
X333500Y40500D02*X334000Y40000D01*
X333500Y40500D02*Y41500D01*
X334000Y42000D01*
X335500D01*
X336000Y42500D01*
Y43500D01*
X335500Y44000D02*X336000Y43500D01*
X334000Y44000D02*X335500D01*
X333500Y43500D02*X334000Y44000D01*
X280000Y36500D02*Y40000D01*
X280500Y40500D01*
X281500D01*
X282000Y40000D01*
Y36500D02*Y40000D01*
X283200Y36500D02*X285200D01*
X284200D02*Y40500D01*
X286900Y36500D02*Y40500D01*
X288200Y36500D02*X288900Y37200D01*
Y39800D01*
X288200Y40500D02*X288900Y39800D01*
X286400Y40500D02*X288200D01*
X286400Y36500D02*X288200D01*
X290100Y38500D02*X292100D01*
X293300Y36500D02*X295300D01*
X295800Y37000D01*
Y38000D01*
X295300Y38500D02*X295800Y38000D01*
X293800Y38500D02*X295300D01*
X293800Y36500D02*Y40500D01*
X294600Y38500D02*X295800Y40500D01*
X297000Y38300D02*X298500D01*
X297000Y40500D02*X299000D01*
X297000Y36500D02*Y40500D01*
Y36500D02*X299000D01*
X302200D02*X302700Y37000D01*
X300700Y36500D02*X302200D01*
X300200Y37000D02*X300700Y36500D01*
X300200Y37000D02*Y38000D01*
X300700Y38500D01*
X302200D01*
X302700Y39000D01*
Y40000D01*
X302200Y40500D02*X302700Y40000D01*
X300700Y40500D02*X302200D01*
X300200Y40000D02*X300700Y40500D01*
X303900Y38300D02*X305400D01*
X303900Y40500D02*X305900D01*
X303900Y36500D02*Y40500D01*
Y36500D02*X305900D01*
X307100D02*X309100D01*
X308100D02*Y40500D01*
X347000Y40000D02*Y44000D01*
Y40000D02*X348500Y42000D01*
X350000Y40000D01*
Y44000D01*
X351200Y40500D02*Y43500D01*
Y40500D02*X351700Y40000D01*
X352700D01*
X353200Y40500D01*
Y43500D01*
X352700Y44000D02*X353200Y43500D01*
X351700Y44000D02*X352700D01*
X351200Y43500D02*X351700Y44000D01*
X354900Y40000D02*Y44000D01*
X356200Y40000D02*X356900Y40700D01*
Y43300D01*
X356200Y44000D02*X356900Y43300D01*
X354400Y44000D02*X356200D01*
X354400Y40000D02*X356200D01*
X358100Y41800D02*X359600D01*
X358100Y44000D02*X360100D01*
X358100Y40000D02*Y44000D01*
Y40000D02*X360100D01*
X285000Y31000D02*Y34500D01*
X285500Y35000D01*
X286500D01*
X287000Y34500D01*
Y31000D02*Y34500D01*
X288200Y31000D02*X290200D01*
X289200D02*Y35000D01*
X291900Y31000D02*Y35000D01*
X293200Y31000D02*X293900Y31700D01*
Y34300D01*
X293200Y35000D02*X293900Y34300D01*
X291400Y35000D02*X293200D01*
X291400Y31000D02*X293200D01*
X295100Y33000D02*X297100D01*
X300300Y31000D02*X300800Y31500D01*
X298800Y31000D02*X300300D01*
X298300Y31500D02*X298800Y31000D01*
X298300Y31500D02*Y32500D01*
X298800Y33000D01*
X300300D01*
X300800Y33500D01*
Y34500D01*
X300300Y35000D02*X300800Y34500D01*
X298800Y35000D02*X300300D01*
X298300Y34500D02*X298800Y35000D01*
X302000Y31500D02*X302500Y31000D01*
X304000D01*
X304500Y31500D01*
Y32500D01*
X302000Y35000D02*X304500Y32500D01*
X302000Y35000D02*X304500D01*
X374500Y40000D02*Y44000D01*
X375800Y40000D02*X376500Y40700D01*
Y43300D01*
X375800Y44000D02*X376500Y43300D01*
X374000Y44000D02*X375800D01*
X374000Y40000D02*X375800D01*
X379700D02*X380200Y40500D01*
X378200Y40000D02*X379700D01*
X377700Y40500D02*X378200Y40000D01*
X377700Y40500D02*Y41500D01*
X378200Y42000D01*
X379700D01*
X380200Y42500D01*
Y43500D01*
X379700Y44000D02*X380200Y43500D01*
X378200Y44000D02*X379700D01*
X377700Y43500D02*X378200Y44000D01*
X381900Y40000D02*Y44000D01*
X381400Y40000D02*X383400D01*
X383900Y40500D01*
Y41500D01*
X383400Y42000D02*X383900Y41500D01*
X381900Y42000D02*X383400D01*
X369000Y34500D02*Y38500D01*
X371000D01*
X372200Y36300D02*X373700D01*
X372200Y38500D02*X374200D01*
X372200Y34500D02*Y38500D01*
Y34500D02*X374200D01*
X375900D02*Y38500D01*
X377200Y34500D02*X377900Y35200D01*
Y37800D01*
X377200Y38500D02*X377900Y37800D01*
X375400Y38500D02*X377200D01*
X375400Y34500D02*X377200D01*
X379100Y37000D02*X381100Y34500D01*
X379100Y37000D02*X381600D01*
X381100Y34500D02*Y38500D01*
X382800Y38000D02*X383300Y38500D01*
X382800Y35000D02*Y38000D01*
Y35000D02*X383300Y34500D01*
X384300D01*
X384800Y35000D01*
Y38000D01*
X384300Y38500D02*X384800Y38000D01*
X383300Y38500D02*X384300D01*
X382800Y37500D02*X384800Y35500D01*
X386000Y38000D02*X386500Y38500D01*
X386000Y35000D02*Y38000D01*
Y35000D02*X386500Y34500D01*
X387500D01*
X388000Y35000D01*
Y38000D01*
X387500Y38500D02*X388000Y38000D01*
X386500Y38500D02*X387500D01*
X386000Y37500D02*X388000Y35500D01*
X410500Y97500D02*Y101500D01*
X410000Y97500D02*X412000D01*
X412500Y98000D01*
Y99000D01*
X412000Y99500D02*X412500Y99000D01*
X410500Y99500D02*X412000D01*
X413700Y98000D02*Y101000D01*
Y98000D02*X414200Y97500D01*
X415200D01*
X415700Y98000D01*
Y101000D01*
X415200Y101500D02*X415700Y101000D01*
X414200Y101500D02*X415200D01*
X413700Y101000D02*X414200Y101500D01*
X416900Y97500D02*Y99500D01*
X417400Y101500D01*
X418400Y99500D01*
X419400Y101500D01*
X419900Y99500D01*
Y97500D02*Y99500D01*
X421100Y99300D02*X422600D01*
X421100Y101500D02*X423100D01*
X421100Y97500D02*Y101500D01*
Y97500D02*X423100D01*
X424300D02*X426300D01*
X426800Y98000D01*
Y99000D01*
X426300Y99500D02*X426800Y99000D01*
X424800Y99500D02*X426300D01*
X424800Y97500D02*Y101500D01*
X425600Y99500D02*X426800Y101500D01*
X77500Y216500D02*X81500D01*
Y217800D02*X80800Y218500D01*
X78200D02*X80800D01*
X77500Y217800D02*X78200Y218500D01*
X77500Y216000D02*Y217800D01*
X81500Y216000D02*Y217800D01*
X79700Y219700D02*Y221200D01*
X77500Y219700D02*Y221700D01*
Y219700D02*X81500D01*
Y221700D01*
X77500Y222900D02*Y224900D01*
X78000Y225400D01*
X79200D01*
X79700Y224900D02*X79200Y225400D01*
X79700Y223400D02*Y224900D01*
X77500Y223400D02*X81500D01*
Y222900D02*Y224900D01*
X81000Y225400D01*
X80200D02*X81000D01*
X79700Y224900D02*X80200Y225400D01*
X78000Y226600D02*X81500D01*
X78000D02*X77500Y227100D01*
Y228100D01*
X78000Y228600D01*
X81500D01*
Y231800D02*X81000Y232300D01*
X81500Y230300D02*Y231800D01*
X81000Y229800D02*X81500Y230300D01*
X78000Y229800D02*X81000D01*
X78000D02*X77500Y230300D01*
Y231800D01*
X78000Y232300D01*
X79000D01*
X79500Y231800D02*X79000Y232300D01*
X79500Y230800D02*Y231800D01*
X180000Y230000D02*Y234000D01*
X182500Y230000D02*Y234000D01*
X180000Y232000D02*X182500D01*
X183700Y231800D02*X185200D01*
X183700Y234000D02*X185700D01*
X183700Y230000D02*Y234000D01*
Y230000D02*X185700D01*
X186900Y231000D02*Y234000D01*
Y231000D02*X187600Y230000D01*
X188700D01*
X189400Y231000D01*
Y234000D01*
X186900Y232000D02*X189400D01*
X191100Y230000D02*Y234000D01*
X192400Y230000D02*X193100Y230700D01*
Y233300D01*
X192400Y234000D02*X193100Y233300D01*
X190600Y234000D02*X192400D01*
X190600Y230000D02*X192400D01*
X52000Y122500D02*Y126500D01*
X53300Y122500D02*X54000Y123200D01*
Y125800D01*
X53300Y126500D02*X54000Y125800D01*
X51500Y126500D02*X53300D01*
X51500Y122500D02*X53300D01*
X55200Y123000D02*Y126000D01*
Y123000D02*X55700Y122500D01*
X56700D01*
X57200Y123000D01*
Y126000D01*
X56700Y126500D02*X57200Y126000D01*
X55700Y126500D02*X56700D01*
X55200Y126000D02*X55700Y126500D01*
X58400Y122500D02*Y126500D01*
Y122500D02*X60900Y126500D01*
Y122500D02*Y126500D01*
X62100Y123500D02*X63100Y122500D01*
X64300D02*X66300D01*
X65300D02*Y126500D01*
X69300Y122500D02*Y126000D01*
X69800Y126500D01*
X70800D01*
X71300Y126000D01*
Y122500D02*Y126000D01*
X72500Y122500D02*Y126500D01*
Y122500D02*X75000Y126500D01*
Y122500D02*Y126500D01*
X76700Y122500D02*Y126500D01*
X78000Y122500D02*X78700Y123200D01*
Y125800D01*
X78000Y126500D02*X78700Y125800D01*
X76200Y126500D02*X78000D01*
X76200Y122500D02*X78000D01*
X79900Y124300D02*X81400D01*
X79900Y126500D02*X81900D01*
X79900Y122500D02*Y126500D01*
Y122500D02*X81900D01*
X83100D02*X85100D01*
X85600Y123000D01*
Y124000D01*
X85100Y124500D02*X85600Y124000D01*
X83600Y124500D02*X85100D01*
X83600Y122500D02*Y126500D01*
X84400Y124500D02*X85600Y126500D01*
X86800Y122500D02*X88800D01*
X87800D02*Y126500D01*
X90000Y123500D02*Y126500D01*
Y123500D02*X90700Y122500D01*
X91800D01*
X92500Y123500D01*
Y126500D01*
X90000Y124500D02*X92500D01*
X93700Y122500D02*Y126500D01*
Y124500D02*X95700Y122500D01*
X93700Y124500D02*X95700Y126500D01*
X96900Y124300D02*X98400D01*
X96900Y126500D02*X98900D01*
X96900Y122500D02*Y126500D01*
Y122500D02*X98900D01*
X101900Y123500D02*Y126500D01*
Y123500D02*X102600Y122500D01*
X103700D01*
X104400Y123500D01*
Y126500D01*
X101900Y124500D02*X104400D01*
X107900Y122500D02*Y126500D01*
X107400Y122500D02*X109400D01*
X109900Y123000D01*
Y124000D01*
X109400Y124500D02*X109900Y124000D01*
X107900Y124500D02*X109400D01*
X111100Y122500D02*X113100D01*
X113600Y123000D01*
Y124000D01*
X113100Y124500D02*X113600Y124000D01*
X111600Y124500D02*X113100D01*
X111600Y122500D02*Y126500D01*
X112400Y124500D02*X113600Y126500D01*
X114800Y123000D02*Y126000D01*
Y123000D02*X115300Y122500D01*
X116300D01*
X116800Y123000D01*
Y126000D01*
X116300Y126500D02*X116800Y126000D01*
X115300Y126500D02*X116300D01*
X114800Y126000D02*X115300Y126500D01*
X118700Y122500D02*X119500D01*
Y126000D01*
X119000Y126500D02*X119500Y126000D01*
X118500Y126500D02*X119000D01*
X118000Y126000D02*X118500Y126500D01*
X118000Y125500D02*Y126000D01*
X120700Y124300D02*X122200D01*
X120700Y126500D02*X122700D01*
X120700Y122500D02*Y126500D01*
Y122500D02*X122700D01*
X124600Y126500D02*X125900D01*
X123900Y125800D02*X124600Y126500D01*
X123900Y123200D02*Y125800D01*
Y123200D02*X124600Y122500D01*
X125900D01*
X127100D02*X129100D01*
X128100D02*Y126500D01*
X132100Y122500D02*Y126000D01*
X132600Y126500D01*
X133600D01*
X134100Y126000D01*
Y122500D02*Y126000D01*
X135300Y122500D02*Y126500D01*
Y122500D02*X137800Y126500D01*
Y122500D02*Y126500D01*
X139000Y122500D02*Y126500D01*
X141000D01*
X142200Y124300D02*X143700D01*
X142200Y126500D02*X144200D01*
X142200Y122500D02*Y126500D01*
Y122500D02*X144200D01*
X147400D02*X147900Y123000D01*
X145900Y122500D02*X147400D01*
X145400Y123000D02*X145900Y122500D01*
X145400Y123000D02*Y124000D01*
X145900Y124500D01*
X147400D01*
X147900Y125000D01*
Y126000D01*
X147400Y126500D02*X147900Y126000D01*
X145900Y126500D02*X147400D01*
X145400Y126000D02*X145900Y126500D01*
X151100Y122500D02*X151600Y123000D01*
X149600Y122500D02*X151100D01*
X149100Y123000D02*X149600Y122500D01*
X149100Y123000D02*Y124000D01*
X149600Y124500D01*
X151100D01*
X151600Y125000D01*
Y126000D01*
X151100Y126500D02*X151600Y126000D01*
X149600Y126500D02*X151100D01*
X149100Y126000D02*X149600Y126500D01*
X154600Y122500D02*X155600D01*
X155100D02*Y126500D01*
X154600D02*X155600D01*
X156800Y122500D02*X158800D01*
X157800D02*Y126500D01*
X161800Y122500D02*X162800D01*
X162300D02*Y126500D01*
X161800D02*X162800D01*
X166000Y122500D02*X166500Y123000D01*
X164500Y122500D02*X166000D01*
X164000Y123000D02*X164500Y122500D01*
X164000Y123000D02*Y124000D01*
X164500Y124500D01*
X166000D01*
X166500Y125000D01*
Y126000D01*
X166000Y126500D02*X166500Y126000D01*
X164500Y126500D02*X166000D01*
X164000Y126000D02*X164500Y126500D01*
X51500Y116500D02*Y117500D01*
X52500Y116500D02*Y117500D01*
X54200Y116500D02*Y120500D01*
X55500Y116500D02*X56200Y117200D01*
Y119800D01*
X55500Y120500D02*X56200Y119800D01*
X53700Y120500D02*X55500D01*
X53700Y116500D02*X55500D01*
X57400Y117000D02*Y120000D01*
Y117000D02*X57900Y116500D01*
X58900D01*
X59400Y117000D01*
Y120000D01*
X58900Y120500D02*X59400Y120000D01*
X57900Y120500D02*X58900D01*
X57400Y120000D02*X57900Y120500D01*
X60600Y116500D02*Y120500D01*
Y116500D02*X63100Y120500D01*
Y116500D02*Y120500D01*
X64300Y117500D02*X65300Y116500D01*
X66500D02*X68500D01*
X67500D02*Y120500D01*
X72000Y116500D02*Y120500D01*
X73300Y116500D02*X74000Y117200D01*
Y119800D01*
X73300Y120500D02*X74000Y119800D01*
X71500Y120500D02*X73300D01*
X71500Y116500D02*X73300D01*
X75200Y117000D02*Y120000D01*
Y117000D02*X75700Y116500D01*
X76700D01*
X77200Y117000D01*
Y120000D01*
X76700Y120500D02*X77200Y120000D01*
X75700Y120500D02*X76700D01*
X75200Y120000D02*X75700Y120500D01*
X80200Y117500D02*Y120500D01*
Y117500D02*X80900Y116500D01*
X82000D01*
X82700Y117500D01*
Y120500D01*
X80200Y118500D02*X82700D01*
X83900Y116500D02*Y120500D01*
Y116500D02*X86400Y120500D01*
Y116500D02*Y120500D01*
X87600Y116500D02*X88600Y118500D01*
X89600Y116500D01*
X88600Y118500D02*Y120500D01*
X90800Y116500D02*X92800D01*
X91800D02*Y120500D01*
X94000Y116500D02*Y120500D01*
X96500Y116500D02*Y120500D01*
X94000Y118500D02*X96500D01*
X97700Y116500D02*X98700D01*
X98200D02*Y120500D01*
X97700D02*X98700D01*
X99900Y116500D02*Y120500D01*
Y116500D02*X102400Y120500D01*
Y116500D02*Y120500D01*
X105600Y116500D02*X106100Y117000D01*
X104100Y116500D02*X105600D01*
X103600Y117000D02*X104100Y116500D01*
X103600Y117000D02*Y120000D01*
X104100Y120500D01*
X105600D01*
X106100Y120000D01*
Y119000D02*Y120000D01*
X105600Y118500D02*X106100Y119000D01*
X104600Y118500D02*X105600D01*
X109100Y116500D02*X111100D01*
X110100D02*Y120500D01*
X112300Y116500D02*Y120500D01*
X114800Y116500D02*Y120500D01*
X112300Y118500D02*X114800D01*
X116000Y117500D02*Y120500D01*
Y117500D02*X116700Y116500D01*
X117800D01*
X118500Y117500D01*
Y120500D01*
X116000Y118500D02*X118500D01*
X119700Y116500D02*X121700D01*
X120700D02*Y120500D01*
X126700Y116500D02*X127200Y117000D01*
X125200Y116500D02*X126700D01*
X124700Y117000D02*X125200Y116500D01*
X124700Y117000D02*Y118000D01*
X125200Y118500D01*
X126700D01*
X127200Y119000D01*
Y120000D01*
X126700Y120500D02*X127200Y120000D01*
X125200Y120500D02*X126700D01*
X124700Y120000D02*X125200Y120500D01*
X128400Y117000D02*Y120000D01*
Y117000D02*X128900Y116500D01*
X129900D01*
X130400Y117000D01*
Y120000D01*
X129900Y120500D02*X130400Y120000D01*
X128900Y120500D02*X129900D01*
X128400Y120000D02*X128900Y120500D01*
X131600Y116500D02*Y120500D01*
Y116500D02*X133100Y118500D01*
X134600Y116500D01*
Y120500D01*
X135800Y118300D02*X137300D01*
X135800Y120500D02*X137800D01*
X135800Y116500D02*Y120500D01*
Y116500D02*X137800D01*
X139000Y117000D02*Y120000D01*
Y117000D02*X139500Y116500D01*
X140500D01*
X141000Y117000D01*
Y120000D01*
X140500Y120500D02*X141000Y120000D01*
X139500Y120500D02*X140500D01*
X139000Y120000D02*X139500Y120500D01*
X142200Y116500D02*Y120500D01*
Y116500D02*X144700Y120500D01*
Y116500D02*Y120500D01*
X145900Y118300D02*X147400D01*
X145900Y120500D02*X147900D01*
X145900Y116500D02*Y120500D01*
Y116500D02*X147900D01*
X150900Y118300D02*X152400D01*
X150900Y120500D02*X152900D01*
X150900Y116500D02*Y120500D01*
Y116500D02*X152900D01*
X154100D02*Y120500D01*
X156100D01*
X159300Y116500D02*X159800Y117000D01*
X157800Y116500D02*X159300D01*
X157300Y117000D02*X157800Y116500D01*
X157300Y117000D02*Y118000D01*
X157800Y118500D01*
X159300D01*
X159800Y119000D01*
Y120000D01*
X159300Y120500D02*X159800Y120000D01*
X157800Y120500D02*X159300D01*
X157300Y120000D02*X157800Y120500D01*
X161000Y118300D02*X162500D01*
X161000Y120500D02*X163000D01*
X161000Y116500D02*Y120500D01*
Y116500D02*X163000D01*
X166700Y120500D02*X168000D01*
X166000Y119800D02*X166700Y120500D01*
X166000Y117200D02*Y119800D01*
Y117200D02*X166700Y116500D01*
X168000D01*
X169200Y117500D02*Y120500D01*
Y117500D02*X169900Y116500D01*
X171000D01*
X171700Y117500D01*
Y120500D01*
X169200Y118500D02*X171700D01*
X172900Y116500D02*Y120500D01*
Y116500D02*X175400Y120500D01*
Y116500D02*Y120500D01*
X178900Y116500D02*Y120500D01*
X180200Y116500D02*X180900Y117200D01*
Y119800D01*
X180200Y120500D02*X180900Y119800D01*
X178400Y120500D02*X180200D01*
X178400Y116500D02*X180200D01*
X182100Y117000D02*Y120000D01*
Y117000D02*X182600Y116500D01*
X183600D01*
X184100Y117000D01*
Y120000D01*
X183600Y120500D02*X184100Y120000D01*
X182600Y120500D02*X183600D01*
X182100Y120000D02*X182600Y120500D01*
X185300D02*X185800D01*
X51500Y128500D02*Y132500D01*
Y128500D02*X53000Y130500D01*
X54500Y128500D01*
Y132500D01*
X55700Y129500D02*Y132500D01*
Y129500D02*X56400Y128500D01*
X57500D01*
X58200Y129500D01*
Y132500D01*
X55700Y130500D02*X58200D01*
X59400Y128500D02*Y132500D01*
Y128500D02*X61900Y132500D01*
Y128500D02*Y132500D01*
X63100Y128500D02*X64100D01*
X63600D02*Y132500D01*
X63100D02*X64100D01*
X65300Y128500D02*Y132500D01*
Y128500D02*X67300D01*
X65300Y130300D02*X66800D01*
X68500D02*X70000D01*
X68500Y132500D02*X70500D01*
X68500Y128500D02*Y132500D01*
Y128500D02*X70500D01*
X73700D02*X74200Y129000D01*
X72200Y128500D02*X73700D01*
X71700Y129000D02*X72200Y128500D01*
X71700Y129000D02*Y130000D01*
X72200Y130500D01*
X73700D01*
X74200Y131000D01*
Y132000D01*
X73700Y132500D02*X74200Y132000D01*
X72200Y132500D02*X73700D01*
X71700Y132000D02*X72200Y132500D01*
X75400Y128500D02*X77400D01*
X76400D02*Y132500D01*
X78600Y128500D02*Y132500D01*
X80600D01*
X81800Y128500D02*X82800Y130500D01*
X83800Y128500D01*
X82800Y130500D02*Y132500D01*
X86800Y128500D02*X87800D01*
X87300D02*Y132500D01*
X86800D02*X87800D01*
X89000Y128500D02*Y132500D01*
Y128500D02*X90500Y130500D01*
X92000Y128500D01*
Y132500D01*
X93700Y128500D02*Y132500D01*
X93200Y128500D02*X95200D01*
X95700Y129000D01*
Y130000D01*
X95200Y130500D02*X95700Y130000D01*
X93700Y130500D02*X95200D01*
X96900Y129000D02*Y132000D01*
Y129000D02*X97400Y128500D01*
X98400D01*
X98900Y129000D01*
Y132000D01*
X98400Y132500D02*X98900Y132000D01*
X97400Y132500D02*X98400D01*
X96900Y132000D02*X97400Y132500D01*
X100100Y128500D02*X102100D01*
X102600Y129000D01*
Y130000D01*
X102100Y130500D02*X102600Y130000D01*
X100600Y130500D02*X102100D01*
X100600Y128500D02*Y132500D01*
X101400Y130500D02*X102600Y132500D01*
X103800Y128500D02*X105800D01*
X104800D02*Y132500D01*
X107000Y129500D02*Y132500D01*
Y129500D02*X107700Y128500D01*
X108800D01*
X109500Y129500D01*
Y132500D01*
X107000Y130500D02*X109500D01*
X110700Y128500D02*Y132500D01*
Y128500D02*X113200Y132500D01*
Y128500D02*Y132500D01*
X114400Y128500D02*X116400D01*
X115400D02*Y132500D01*
X119400Y129500D02*Y132500D01*
Y129500D02*X120100Y128500D01*
X121200D01*
X121900Y129500D01*
Y132500D01*
X119400Y130500D02*X121900D01*
X123100Y128500D02*Y132500D01*
Y128500D02*X125600Y132500D01*
Y128500D02*Y132500D01*
X127300Y128500D02*Y132500D01*
X128600Y128500D02*X129300Y129200D01*
Y131800D01*
X128600Y132500D02*X129300Y131800D01*
X126800Y132500D02*X128600D01*
X126800Y128500D02*X128600D01*
X132300D02*Y132500D01*
Y128500D02*X134800Y132500D01*
Y128500D02*Y132500D01*
X136000Y130300D02*X137500D01*
X136000Y132500D02*X138000D01*
X136000Y128500D02*Y132500D01*
Y128500D02*X138000D01*
X139200Y129500D02*Y132500D01*
Y129500D02*X139900Y128500D01*
X141000D01*
X141700Y129500D01*
Y132500D01*
X139200Y130500D02*X141700D01*
X142900Y128500D02*X144900D01*
X145400Y129000D01*
Y130000D01*
X144900Y130500D02*X145400Y130000D01*
X143400Y130500D02*X144900D01*
X143400Y128500D02*Y132500D01*
X144200Y130500D02*X145400Y132500D01*
X146600Y128500D02*Y132500D01*
X148600D01*
X149800Y128500D02*X150800Y130500D01*
X151800Y128500D01*
X150800Y130500D02*Y132500D01*
X154800Y128500D02*X155800D01*
X155300D02*Y132500D01*
X154800D02*X155800D01*
X157000Y128500D02*Y132500D01*
Y128500D02*X158500Y130500D01*
X160000Y128500D01*
Y132500D01*
X161700Y128500D02*Y132500D01*
X161200Y128500D02*X163200D01*
X163700Y129000D01*
Y130000D01*
X163200Y130500D02*X163700Y130000D01*
X161700Y130500D02*X163200D01*
X164900Y129000D02*Y132000D01*
Y129000D02*X165400Y128500D01*
X166400D01*
X166900Y129000D01*
Y132000D01*
X166400Y132500D02*X166900Y132000D01*
X165400Y132500D02*X166400D01*
X164900Y132000D02*X165400Y132500D01*
X170100Y128500D02*X170600Y129000D01*
X168600Y128500D02*X170100D01*
X168100Y129000D02*X168600Y128500D01*
X168100Y129000D02*Y130000D01*
X168600Y130500D01*
X170100D01*
X170600Y131000D01*
Y132000D01*
X170100Y132500D02*X170600Y132000D01*
X168600Y132500D02*X170100D01*
X168100Y132000D02*X168600Y132500D01*
X173800Y128500D02*X174300Y129000D01*
X172300Y128500D02*X173800D01*
X171800Y129000D02*X172300Y128500D01*
X171800Y129000D02*Y130000D01*
X172300Y130500D01*
X173800D01*
X174300Y131000D01*
Y132000D01*
X173800Y132500D02*X174300Y132000D01*
X172300Y132500D02*X173800D01*
X171800Y132000D02*X172300Y132500D01*
X175500Y128500D02*X176500D01*
X176000D02*Y132500D01*
X175500D02*X176500D01*
X177700D02*X179700D01*
X180200Y132000D01*
Y130800D02*Y132000D01*
X179700Y130300D02*X180200Y130800D01*
X178200Y130300D02*X179700D01*
X178200Y128500D02*Y132500D01*
X177700Y128500D02*X179700D01*
X180200Y129000D01*
Y129800D01*
X179700Y130300D02*X180200Y129800D01*
X181400Y128500D02*Y132500D01*
X183400D01*
X184600Y130300D02*X186100D01*
X184600Y132500D02*X186600D01*
X184600Y128500D02*Y132500D01*
Y128500D02*X186600D01*
X187800Y132500D02*X188300D01*
X189500Y128500D02*Y129500D01*
X190500Y128500D02*Y129500D01*
X81500Y158500D02*Y160500D01*
X81000Y161000D01*
X80000D02*X81000D01*
X79500Y160500D02*X80000Y161000D01*
X79500Y159000D02*Y160500D01*
X77500Y159000D02*X81500D01*
X79500Y159800D02*X77500Y161000D01*
X78000Y162200D02*X81500D01*
X78000D02*X77500Y162700D01*
Y163700D01*
X78000Y164200D01*
X81500D01*
X77500Y165400D02*X81500D01*
X77500Y167900D01*
X81500D01*
X118000Y37500D02*Y39500D01*
X117500Y40000D01*
X116500D02*X117500D01*
X116000Y39500D02*X116500Y40000D01*
X116000Y38000D02*Y39500D01*
X114000Y38000D02*X118000D01*
X116000Y38800D02*X114000Y40000D01*
X116200Y41200D02*Y42700D01*
X114000Y41200D02*Y43200D01*
Y41200D02*X118000D01*
Y43200D01*
Y46400D02*X117500Y46900D01*
X118000Y44900D02*Y46400D01*
X117500Y44400D02*X118000Y44900D01*
X116500Y44400D02*X117500D01*
X116500D02*X116000Y44900D01*
Y46400D01*
X115500Y46900D01*
X114500D02*X115500D01*
X114000Y46400D02*X114500Y46900D01*
X114000Y44900D02*Y46400D01*
X114500Y44400D02*X114000Y44900D01*
X116200Y48100D02*Y49600D01*
X114000Y48100D02*Y50100D01*
Y48100D02*X118000D01*
Y50100D01*
Y51300D02*Y53300D01*
X114000Y52300D02*X118000D01*
X82000Y80500D02*Y82500D01*
X78000Y81500D02*X82000D01*
X80200Y83700D02*Y85200D01*
X78000Y83700D02*Y85700D01*
Y83700D02*X82000D01*
Y85700D01*
Y88900D02*X81500Y89400D01*
X82000Y87400D02*Y88900D01*
X81500Y86900D02*X82000Y87400D01*
X80500Y86900D02*X81500D01*
X80500D02*X80000Y87400D01*
Y88900D01*
X79500Y89400D01*
X78500D02*X79500D01*
X78000Y88900D02*X78500Y89400D01*
X78000Y87400D02*Y88900D01*
X78500Y86900D02*X78000Y87400D01*
X82000Y90600D02*Y92600D01*
X78000Y91600D02*X82000D01*
X335250Y269250D02*Y273250D01*
Y269250D02*X336750Y271250D01*
X338250Y269250D01*
Y273250D01*
X339450Y270250D02*Y270350D01*
Y271750D02*Y273250D01*
X340950Y271250D02*X342450D01*
X340450Y271750D02*X340950Y271250D01*
X340450Y271750D02*Y272750D01*
X340950Y273250D01*
X342450D01*
X344150Y271750D02*Y273250D01*
Y271750D02*X344650Y271250D01*
X345650D01*
X343650D02*X344150Y271750D01*
X346850D02*Y272750D01*
Y271750D02*X347350Y271250D01*
X348350D01*
X348850Y271750D01*
Y272750D01*
X348350Y273250D02*X348850Y272750D01*
X347350Y273250D02*X348350D01*
X346850Y272750D02*X347350Y273250D01*
X353850Y269250D02*X354350Y269750D01*
X352350Y269250D02*X353850D01*
X351850Y269750D02*X352350Y269250D01*
X351850Y269750D02*Y270750D01*
X352350Y271250D01*
X353850D01*
X354350Y271750D01*
Y272750D01*
X353850Y273250D02*X354350Y272750D01*
X352350Y273250D02*X353850D01*
X351850Y272750D02*X352350Y273250D01*
X356050Y269250D02*Y273250D01*
X357350Y269250D02*X358050Y269950D01*
Y272550D01*
X357350Y273250D02*X358050Y272550D01*
X355550Y273250D02*X357350D01*
X355550Y269250D02*X357350D01*
X359250Y271250D02*X361250D01*
X363150Y273250D02*X364450D01*
X362450Y272550D02*X363150Y273250D01*
X362450Y269950D02*Y272550D01*
Y269950D02*X363150Y269250D01*
X364450D01*
X365650Y270250D02*Y273250D01*
Y270250D02*X366350Y269250D01*
X367450D01*
X368150Y270250D01*
Y273250D01*
X365650Y271250D02*X368150D01*
X369350Y269250D02*X371350D01*
X371850Y269750D01*
Y270750D01*
X371350Y271250D02*X371850Y270750D01*
X369850Y271250D02*X371350D01*
X369850Y269250D02*Y273250D01*
X370650Y271250D02*X371850Y273250D01*
X373550Y269250D02*Y273250D01*
X374850Y269250D02*X375550Y269950D01*
Y272550D01*
X374850Y273250D02*X375550Y272550D01*
X373050Y273250D02*X374850D01*
X373050Y269250D02*X374850D01*
X240500Y164000D02*X241500D01*
X241000D02*Y168000D01*
X240500D02*X241500D01*
X242700Y164000D02*Y168000D01*
Y164000D02*X244200Y166000D01*
X245700Y164000D01*
Y168000D01*
X247400Y164000D02*Y168000D01*
X246900Y164000D02*X248900D01*
X249400Y164500D01*
Y165500D01*
X248900Y166000D02*X249400Y165500D01*
X247400Y166000D02*X248900D01*
X250600Y164000D02*Y168000D01*
X252600D01*
X253800Y165000D02*Y168000D01*
Y165000D02*X254500Y164000D01*
X255600D01*
X256300Y165000D01*
Y168000D01*
X253800Y166000D02*X256300D01*
X257500Y164000D02*Y168000D01*
Y164000D02*X260000Y168000D01*
Y164000D02*Y168000D01*
X261200Y164000D02*X263200D01*
X262200D02*Y168000D01*
X266700Y164000D02*Y168000D01*
X266200Y164000D02*X268200D01*
X268700Y164500D01*
Y165500D01*
X268200Y166000D02*X268700Y165500D01*
X266700Y166000D02*X268200D01*
X269900Y164000D02*X271900D01*
X272400Y164500D01*
Y165500D01*
X271900Y166000D02*X272400Y165500D01*
X270400Y166000D02*X271900D01*
X270400Y164000D02*Y168000D01*
X271200Y166000D02*X272400Y168000D01*
X273600Y164500D02*Y167500D01*
Y164500D02*X274100Y164000D01*
X275100D01*
X275600Y164500D01*
Y167500D01*
X275100Y168000D02*X275600Y167500D01*
X274100Y168000D02*X275100D01*
X273600Y167500D02*X274100Y168000D01*
X277500D02*X278800D01*
X276800Y167300D02*X277500Y168000D01*
X276800Y164700D02*Y167300D01*
Y164700D02*X277500Y164000D01*
X278800D01*
X280000Y165800D02*X281500D01*
X280000Y168000D02*X282000D01*
X280000Y164000D02*Y168000D01*
Y164000D02*X282000D01*
X285200D02*X285700Y164500D01*
X283700Y164000D02*X285200D01*
X283200Y164500D02*X283700Y164000D01*
X283200Y164500D02*Y165500D01*
X283700Y166000D01*
X285200D01*
X285700Y166500D01*
Y167500D01*
X285200Y168000D02*X285700Y167500D01*
X283700Y168000D02*X285200D01*
X283200Y167500D02*X283700Y168000D01*
X288900Y164000D02*X289400Y164500D01*
X287400Y164000D02*X288900D01*
X286900Y164500D02*X287400Y164000D01*
X286900Y164500D02*Y165500D01*
X287400Y166000D01*
X288900D01*
X289400Y166500D01*
Y167500D01*
X288900Y168000D02*X289400Y167500D01*
X287400Y168000D02*X288900D01*
X286900Y167500D02*X287400Y168000D01*
X290600Y164500D02*Y167500D01*
Y164500D02*X291100Y164000D01*
X292100D01*
X292600Y164500D01*
Y167500D01*
X292100Y168000D02*X292600Y167500D01*
X291100Y168000D02*X292100D01*
X290600Y167500D02*X291100Y168000D01*
X293800Y164000D02*X295800D01*
X296300Y164500D01*
Y165500D01*
X295800Y166000D02*X296300Y165500D01*
X294300Y166000D02*X295800D01*
X294300Y164000D02*Y168000D01*
X295100Y166000D02*X296300Y168000D01*
X299800Y164000D02*Y168000D01*
X301100Y164000D02*X301800Y164700D01*
Y167300D01*
X301100Y168000D02*X301800Y167300D01*
X299300Y168000D02*X301100D01*
X299300Y164000D02*X301100D01*
X305000D02*X305500Y164500D01*
X303500Y164000D02*X305000D01*
X303000Y164500D02*X303500Y164000D01*
X303000Y164500D02*Y165500D01*
X303500Y166000D01*
X305000D01*
X305500Y166500D01*
Y167500D01*
X305000Y168000D02*X305500Y167500D01*
X303500Y168000D02*X305000D01*
X303000Y167500D02*X303500Y168000D01*
X307200Y164000D02*Y168000D01*
X306700Y164000D02*X308700D01*
X309200Y164500D01*
Y165500D01*
X308700Y166000D02*X309200Y165500D01*
X307200Y166000D02*X308700D01*
X240500Y174000D02*X242500D01*
X243000Y173500D01*
Y172300D02*Y173500D01*
X242500Y171800D02*X243000Y172300D01*
X241000Y171800D02*X242500D01*
X241000Y170000D02*Y174000D01*
X240500Y170000D02*X242500D01*
X243000Y170500D01*
Y171300D01*
X242500Y171800D02*X243000Y171300D01*
X244200Y170000D02*X245200Y172000D01*
X246200Y170000D01*
X245200Y172000D02*Y174000D01*
X249200Y171800D02*X250700D01*
X249200Y174000D02*X251200D01*
X249200Y170000D02*Y174000D01*
Y170000D02*X251200D01*
X252400D02*X253400Y174000D01*
X254400Y170000D01*
X255600Y171000D02*Y174000D01*
Y171000D02*X256300Y170000D01*
X257400D01*
X258100Y171000D01*
Y174000D01*
X255600Y172000D02*X258100D01*
X259300Y170000D02*Y174000D01*
Y170000D02*X261800Y174000D01*
Y170000D02*Y174000D01*
X264800Y170000D02*Y174000D01*
Y170000D02*X266800D01*
X264800Y171800D02*X266300D01*
X268000Y170500D02*Y173500D01*
Y170500D02*X268500Y170000D01*
X269500D01*
X270000Y170500D01*
Y173500D01*
X269500Y174000D02*X270000Y173500D01*
X268500Y174000D02*X269500D01*
X268000Y173500D02*X268500Y174000D01*
X273200Y170000D02*X273700Y170500D01*
X271700Y170000D02*X273200D01*
X271200Y170500D02*X271700Y170000D01*
X271200Y170500D02*Y171500D01*
X271700Y172000D01*
X273200D01*
X273700Y172500D01*
Y173500D01*
X273200Y174000D02*X273700Y173500D01*
X271700Y174000D02*X273200D01*
X271200Y173500D02*X271700Y174000D01*
X276900Y170000D02*X277400Y170500D01*
X275400Y170000D02*X276900D01*
X274900Y170500D02*X275400Y170000D01*
X274900Y170500D02*Y171500D01*
X275400Y172000D01*
X276900D01*
X277400Y172500D01*
Y173500D01*
X276900Y174000D02*X277400Y173500D01*
X275400Y174000D02*X276900D01*
X274900Y173500D02*X275400Y174000D01*
X240500Y189800D02*X242000D01*
X240500Y192000D02*X242500D01*
X240500Y188000D02*Y192000D01*
Y188000D02*X242500D01*
X243700Y189000D02*Y192000D01*
Y189000D02*X244400Y188000D01*
X245500D01*
X246200Y189000D01*
Y192000D01*
X243700Y190000D02*X246200D01*
X247400Y188000D02*X249400D01*
X248400D02*Y192000D01*
X250600Y188500D02*Y191500D01*
Y188500D02*X251100Y188000D01*
X252100D01*
X252600Y188500D01*
Y191500D01*
X252100Y192000D02*X252600Y191500D01*
X251100Y192000D02*X252100D01*
X250600Y191500D02*X251100Y192000D01*
X253800Y188000D02*Y192000D01*
Y188000D02*X256300Y192000D01*
Y188000D02*Y192000D01*
X259800Y188000D02*Y192000D01*
X259300Y188000D02*X261300D01*
X261800Y188500D01*
Y189500D01*
X261300Y190000D02*X261800Y189500D01*
X259800Y190000D02*X261300D01*
X263000Y189800D02*X264500D01*
X263000Y192000D02*X265000D01*
X263000Y188000D02*Y192000D01*
Y188000D02*X265000D01*
X266200Y189000D02*Y192000D01*
Y189000D02*X266900Y188000D01*
X268000D01*
X268700Y189000D01*
Y192000D01*
X266200Y190000D02*X268700D01*
X269900Y192000D02*X271900D01*
X272400Y191500D01*
Y190300D02*Y191500D01*
X271900Y189800D02*X272400Y190300D01*
X270400Y189800D02*X271900D01*
X270400Y188000D02*Y192000D01*
X269900Y188000D02*X271900D01*
X272400Y188500D01*
Y189300D01*
X271900Y189800D02*X272400Y189300D01*
X273600Y188500D02*Y191500D01*
Y188500D02*X274100Y188000D01*
X275100D01*
X275600Y188500D01*
Y191500D01*
X275100Y192000D02*X275600Y191500D01*
X274100Y192000D02*X275100D01*
X273600Y191500D02*X274100Y192000D01*
X277300Y188000D02*Y192000D01*
X278600Y188000D02*X279300Y188700D01*
Y191300D01*
X278600Y192000D02*X279300Y191300D01*
X276800Y192000D02*X278600D01*
X276800Y188000D02*X278600D01*
X280500D02*X281500Y190000D01*
X282500Y188000D01*
X281500Y190000D02*Y192000D01*
X285500Y188000D02*Y192000D01*
X287500D01*
X288700Y189000D02*Y192000D01*
Y189000D02*X289400Y188000D01*
X290500D01*
X291200Y189000D01*
Y192000D01*
X288700Y190000D02*X291200D01*
X292400Y192000D02*X294400D01*
X294900Y191500D01*
Y190300D02*Y191500D01*
X294400Y189800D02*X294900Y190300D01*
X292900Y189800D02*X294400D01*
X292900Y188000D02*Y192000D01*
X292400Y188000D02*X294400D01*
X294900Y188500D01*
Y189300D01*
X294400Y189800D02*X294900Y189300D01*
X241200Y186000D02*X242500D01*
X240500Y185300D02*X241200Y186000D01*
X240500Y182700D02*Y185300D01*
Y182700D02*X241200Y182000D01*
X242500D01*
X243700D02*X245700D01*
X246200Y182500D01*
Y183500D01*
X245700Y184000D02*X246200Y183500D01*
X244200Y184000D02*X245700D01*
X244200Y182000D02*Y186000D01*
X245000Y184000D02*X246200Y186000D01*
X247400Y183800D02*X248900D01*
X247400Y186000D02*X249400D01*
X247400Y182000D02*Y186000D01*
Y182000D02*X249400D01*
X250600Y183000D02*Y186000D01*
Y183000D02*X251300Y182000D01*
X252400D01*
X253100Y183000D01*
Y186000D01*
X250600Y184000D02*X253100D01*
X254300Y182000D02*X256300D01*
X255300D02*Y186000D01*
X257500Y183800D02*X259000D01*
X257500Y186000D02*X259500D01*
X257500Y182000D02*Y186000D01*
Y182000D02*X259500D01*
X261200D02*Y186000D01*
X262500Y182000D02*X263200Y182700D01*
Y185300D01*
X262500Y186000D02*X263200Y185300D01*
X260700Y186000D02*X262500D01*
X260700Y182000D02*X262500D01*
X266200Y183000D02*Y186000D01*
Y183000D02*X266900Y182000D01*
X268000D01*
X268700Y183000D01*
Y186000D01*
X266200Y184000D02*X268700D01*
X269900Y182000D02*X271900D01*
X270900D02*Y186000D01*
X274900Y182000D02*X276900D01*
X275900D02*Y186000D01*
X278100Y182000D02*Y186000D01*
X280600Y182000D02*Y186000D01*
X278100Y184000D02*X280600D01*
X281800Y183800D02*X283300D01*
X281800Y186000D02*X283800D01*
X281800Y182000D02*Y186000D01*
Y182000D02*X283800D01*
X240500Y176500D02*X241000Y176000D01*
X242500D01*
X243000Y176500D01*
Y177500D01*
X240500Y180000D02*X243000Y177500D01*
X240500Y180000D02*X243000D01*
X244200Y179500D02*X244700Y180000D01*
X244200Y176500D02*Y179500D01*
Y176500D02*X244700Y176000D01*
X245700D01*
X246200Y176500D01*
Y179500D01*
X245700Y180000D02*X246200Y179500D01*
X244700Y180000D02*X245700D01*
X244200Y179000D02*X246200Y177000D01*
X247400Y176800D02*X248200Y176000D01*
Y180000D01*
X247400D02*X248900D01*
X250100Y176500D02*X250600Y176000D01*
X251600D01*
X252100Y176500D01*
X251600Y180000D02*X252100Y179500D01*
X250600Y180000D02*X251600D01*
X250100Y179500D02*X250600Y180000D01*
Y177800D02*X251600D01*
X252100Y176500D02*Y177300D01*
Y178300D02*Y179500D01*
Y178300D02*X251600Y177800D01*
X252100Y177300D02*X251600Y177800D01*
X253300Y180000D02*X253800D01*
X255000Y176800D02*X255800Y176000D01*
Y180000D01*
X255000D02*X256500D01*
X257700Y176500D02*X258200Y176000D01*
X259700D01*
X260200Y176500D01*
Y177500D01*
X257700Y180000D02*X260200Y177500D01*
X257700Y180000D02*X260200D01*
X261400D02*X261900D01*
X263100Y176800D02*X263900Y176000D01*
Y180000D01*
X263100D02*X264600D01*
X265800Y179500D02*X266300Y180000D01*
X265800Y178700D02*Y179500D01*
Y178700D02*X266500Y178000D01*
X267100D01*
X267800Y178700D01*
Y179500D01*
X267300Y180000D02*X267800Y179500D01*
X266300Y180000D02*X267300D01*
X265800Y177300D02*X266500Y178000D01*
X265800Y176500D02*Y177300D01*
Y176500D02*X266300Y176000D01*
X267300D01*
X267800Y176500D01*
Y177300D01*
X267100Y178000D02*X267800Y177300D01*
X236500Y230000D02*X237500D01*
X237000D02*Y234000D01*
X236500D02*X237500D01*
X240700Y230000D02*X241200Y230500D01*
X239200Y230000D02*X240700D01*
X238700Y230500D02*X239200Y230000D01*
X238700Y230500D02*Y231500D01*
X239200Y232000D01*
X240700D01*
X241200Y232500D01*
Y233500D01*
X240700Y234000D02*X241200Y233500D01*
X239200Y234000D02*X240700D01*
X238700Y233500D02*X239200Y234000D01*
X242400Y230500D02*Y233500D01*
Y230500D02*X242900Y230000D01*
X243900D01*
X244400Y230500D01*
Y233500D01*
X243900Y234000D02*X244400Y233500D01*
X242900Y234000D02*X243900D01*
X242400Y233500D02*X242900Y234000D01*
X245600Y230000D02*Y234000D01*
X247600D01*
X248800Y231000D02*Y234000D01*
Y231000D02*X249500Y230000D01*
X250600D01*
X251300Y231000D01*
Y234000D01*
X248800Y232000D02*X251300D01*
X252500Y230000D02*X254500D01*
X253500D02*Y234000D01*
X255700Y231800D02*X257200D01*
X255700Y234000D02*X257700D01*
X255700Y230000D02*Y234000D01*
Y230000D02*X257700D01*
X259400D02*Y234000D01*
X260700Y230000D02*X261400Y230700D01*
Y233300D01*
X260700Y234000D02*X261400Y233300D01*
X258900Y234000D02*X260700D01*
X258900Y230000D02*X260700D01*
X266400D02*X266900Y230500D01*
X264900Y230000D02*X266400D01*
X264400Y230500D02*X264900Y230000D01*
X264400Y230500D02*Y231500D01*
X264900Y232000D01*
X266400D01*
X266900Y232500D01*
Y233500D01*
X266400Y234000D02*X266900Y233500D01*
X264900Y234000D02*X266400D01*
X264400Y233500D02*X264900Y234000D01*
X268100Y230000D02*X270100D01*
X269100D02*Y234000D01*
X271300Y230000D02*X272300D01*
X271800D02*Y234000D01*
X271300D02*X272300D01*
X273500Y230000D02*Y234000D01*
Y230000D02*X275000Y232000D01*
X276500Y230000D01*
Y234000D01*
X277700Y230000D02*Y233500D01*
X278200Y234000D01*
X279200D01*
X279700Y233500D01*
Y230000D02*Y233500D01*
X280900Y230000D02*Y234000D01*
X282900D01*
X284100Y230000D02*Y233500D01*
X284600Y234000D01*
X285600D01*
X286100Y233500D01*
Y230000D02*Y233500D01*
X289300Y230000D02*X289800Y230500D01*
X287800Y230000D02*X289300D01*
X287300Y230500D02*X287800Y230000D01*
X287300Y230500D02*Y231500D01*
X287800Y232000D01*
X289300D01*
X289800Y232500D01*
Y233500D01*
X289300Y234000D02*X289800Y233500D01*
X287800Y234000D02*X289300D01*
X287300Y233500D02*X287800Y234000D01*
X314410Y34390D02*Y38390D01*
X316410D01*
X318110Y34390D02*Y38390D01*
X317610Y34390D02*X319610D01*
X320110Y34890D01*
Y35890D01*
X319610Y36390D02*X320110Y35890D01*
X318110Y36390D02*X319610D01*
X321310Y34390D02*X322310D01*
X321810D02*Y38390D01*
X321310D02*X322310D01*
X324010Y34390D02*Y38390D01*
X323510Y34390D02*X325510D01*
X326010Y34890D01*
Y35890D01*
X325510Y36390D02*X326010Y35890D01*
X324010Y36390D02*X325510D01*
X327210Y36190D02*X328710D01*
X327210Y38390D02*X329210D01*
X327210Y34390D02*Y38390D01*
Y34390D02*X329210D01*
X330410Y37890D02*X330910Y38390D01*
X330410Y37090D02*Y37890D01*
Y37090D02*X331110Y36390D01*
X331710D01*
X332410Y37090D01*
Y37890D01*
X331910Y38390D02*X332410Y37890D01*
X330910Y38390D02*X331910D01*
X330410Y35690D02*X331110Y36390D01*
X330410Y34890D02*Y35690D01*
Y34890D02*X330910Y34390D01*
X331910D01*
X332410Y34890D01*
Y35690D01*
X331710Y36390D02*X332410Y35690D01*
X333610Y37890D02*X334110Y38390D01*
X333610Y34890D02*Y37890D01*
Y34890D02*X334110Y34390D01*
X335110D01*
X335610Y34890D01*
Y37890D01*
X335110Y38390D02*X335610Y37890D01*
X334110Y38390D02*X335110D01*
X333610Y37390D02*X335610Y35390D01*
X336810Y37890D02*X337310Y38390D01*
X336810Y34890D02*Y37890D01*
Y34890D02*X337310Y34390D01*
X338310D01*
X338810Y34890D01*
Y37890D01*
X338310Y38390D02*X338810Y37890D01*
X337310Y38390D02*X338310D01*
X336810Y37390D02*X338810Y35390D01*
X341610Y34590D02*Y38590D01*
X343610D01*
X345310Y34590D02*Y38590D01*
X344810Y34590D02*X346810D01*
X347310Y35090D01*
Y36090D01*
X346810Y36590D02*X347310Y36090D01*
X345310Y36590D02*X346810D01*
X348510Y34590D02*X349510D01*
X349010D02*Y38590D01*
X348510D02*X349510D01*
X351210Y34590D02*Y38590D01*
X350710Y34590D02*X352710D01*
X353210Y35090D01*
Y36090D01*
X352710Y36590D02*X353210Y36090D01*
X351210Y36590D02*X352710D01*
X354410Y36390D02*X355910D01*
X354410Y38590D02*X356410D01*
X354410Y34590D02*Y38590D01*
Y34590D02*X356410D01*
X357610Y38090D02*X358110Y38590D01*
X357610Y37290D02*Y38090D01*
Y37290D02*X358310Y36590D01*
X358910D01*
X359610Y37290D01*
Y38090D01*
X359110Y38590D02*X359610Y38090D01*
X358110Y38590D02*X359110D01*
X357610Y35890D02*X358310Y36590D01*
X357610Y35090D02*Y35890D01*
Y35090D02*X358110Y34590D01*
X359110D01*
X359610Y35090D01*
Y35890D01*
X358910Y36590D02*X359610Y35890D01*
X360810Y38090D02*X361310Y38590D01*
X360810Y35090D02*Y38090D01*
Y35090D02*X361310Y34590D01*
X362310D01*
X362810Y35090D01*
Y38090D01*
X362310Y38590D02*X362810Y38090D01*
X361310Y38590D02*X362310D01*
X360810Y37590D02*X362810Y35590D01*
X364010Y35390D02*X364810Y34590D01*
Y38590D01*
X364010D02*X365510D01*
M02*
