G04 start of page 6 for group 4 idx 4 *
G04 Title: (unknown), outline *
G04 Creator: pcb 20110918 *
G04 CreationDate: Mon Dec 30 21:59:35 2013 UTC *
G04 For: fosse *
G04 Format: Gerber/RS-274X *
G04 PCB-Dimensions: 550000 450000 *
G04 PCB-Coordinate-Origin: lower left *
%MOIN*%
%FSLAX25Y25*%
%LNOUTLINE*%
%ADD80C,0.1000*%
%ADD79C,0.1250*%
G54D79*X69750Y296250D02*Y353750D01*
X331800Y414150D02*X32350D01*
X32400Y353750D02*X69750D01*
X32400D02*Y414050D01*
X32500Y414150D01*
G54D80*X213500Y359500D02*X159000D01*
Y340500D01*
X213500D01*
Y359500D01*
X238500Y351000D02*X288000D01*
Y341500D01*
X238500D01*
Y351000D01*
G54D79*X32400Y296250D02*X69500D01*
X69750Y296500D01*
X32350Y112560D02*X446850Y112550D01*
X32350Y112560D02*Y296100D01*
X32500Y296250D01*
G54D80*X55500Y278000D02*X71500D01*
Y248500D01*
X55500D01*
Y278000D01*
Y201000D02*X71500D01*
Y171500D01*
X55500D01*
Y201000D01*
X91500Y160500D02*X107500D01*
Y131000D01*
X91500D01*
Y160500D01*
X212409Y183738D02*Y164738D01*
X266909D01*
Y183738D01*
X212409D01*
G54D79*X446850Y209290D02*X401800Y209300D01*
X389850Y300750D02*X320750D01*
X446850Y112550D02*Y209290D01*
X401800Y209300D02*Y237700D01*
X446850D01*
Y414150D01*
X389750Y366000D02*X379950D01*
X331850Y367300D02*X331800Y414150D01*
X379950Y366000D02*X380000Y414150D01*
X446850D01*
X320750Y367300D02*X331850D01*
X320750Y300750D02*Y367300D01*
X389750Y300750D02*Y365750D01*
M02*
