G04 start of page 14 for group -3984 idx -3984 *
G04 Title: (unknown), fab *
G04 Creator: pcb 20110918 *
G04 CreationDate: Wed Jan  8 22:31:43 2014 UTC *
G04 For: fosse *
G04 Format: Gerber/RS-274X *
G04 PCB-Dimensions: 550000 850000 *
G04 PCB-Coordinate-Origin: lower left *
%MOIN*%
%FSLAX25Y25*%
%LNFAB*%
%ADD157C,0.0100*%
%ADD156C,0.0075*%
%ADD155C,0.0060*%
%ADD154C,0.0080*%
G54D154*X262410Y639240D02*Y636040D01*
Y639240D02*X265183Y640840D01*
X262410Y639240D02*X259637Y640840D01*
X260810Y639240D02*G75*G03X264010Y639240I1600J0D01*G01*
G75*G03X260810Y639240I-1600J0D01*G01*
X216910D02*Y636040D01*
Y639240D02*X219683Y640840D01*
X216910Y639240D02*X214137Y640840D01*
X215310Y639240D02*G75*G03X218510Y639240I1600J0D01*G01*
G75*G03X215310Y639240I-1600J0D01*G01*
X209350Y673000D02*Y669800D01*
Y673000D02*X212123Y674600D01*
X209350Y673000D02*X206577Y674600D01*
X207750Y673000D02*G75*G03X210950Y673000I1600J0D01*G01*
G75*G03X207750Y673000I-1600J0D01*G01*
X163850D02*Y669800D01*
Y673000D02*X166623Y674600D01*
X163850Y673000D02*X161077Y674600D01*
X162250Y673000D02*G75*G03X165450Y673000I1600J0D01*G01*
G75*G03X162250Y673000I-1600J0D01*G01*
X15000Y861250D02*Y858050D01*
Y861250D02*X17773Y862850D01*
X15000Y861250D02*X12227Y862850D01*
X13400Y861250D02*G75*G03X16600Y861250I1600J0D01*G01*
G75*G03X13400Y861250I-1600J0D01*G01*
G54D155*X135000Y863500D02*X136500Y860500D01*
X138000Y863500D01*
X136500Y860500D02*Y857500D01*
X139800Y860800D02*X142050D01*
X139800Y857500D02*X142800D01*
X139800Y863500D02*Y857500D01*
Y863500D02*X142800D01*
X147600D02*X148350Y862750D01*
X145350Y863500D02*X147600D01*
X144600Y862750D02*X145350Y863500D01*
X144600Y862750D02*Y861250D01*
X145350Y860500D01*
X147600D01*
X148350Y859750D01*
Y858250D01*
X147600Y857500D02*X148350Y858250D01*
X145350Y857500D02*X147600D01*
X144600Y858250D02*X145350Y857500D01*
X98000Y859750D02*X101000Y863500D01*
X98000Y859750D02*X101750D01*
X101000Y863500D02*Y857500D01*
X45000Y858250D02*X45750Y857500D01*
X45000Y862750D02*Y858250D01*
Y862750D02*X45750Y863500D01*
X47250D01*
X48000Y862750D01*
Y858250D01*
X47250Y857500D02*X48000Y858250D01*
X45750Y857500D02*X47250D01*
X45000Y859000D02*X48000Y862000D01*
X49800Y857500D02*X50550D01*
X52350Y862750D02*X53100Y863500D01*
X55350D01*
X56100Y862750D01*
Y861250D01*
X52350Y857500D02*X56100Y861250D01*
X52350Y857500D02*X56100D01*
X57900Y862300D02*X59100Y863500D01*
Y857500D01*
X57900D02*X60150D01*
X61950Y858250D02*X62700Y857500D01*
X61950Y862750D02*Y858250D01*
Y862750D02*X62700Y863500D01*
X64200D01*
X64950Y862750D01*
Y858250D01*
X64200Y857500D02*X64950Y858250D01*
X62700Y857500D02*X64200D01*
X61950Y859000D02*X64950Y862000D01*
X238310Y607840D02*X241510D01*
X238310D02*Y604640D01*
X241510D01*
Y607840D02*Y604640D01*
X184900Y708600D02*X188100D01*
X184900D02*Y705400D01*
X188100D01*
Y708600D02*Y705400D01*
X13400Y877850D02*X16600D01*
X13400D02*Y874650D01*
X16600D01*
Y877850D02*Y874650D01*
X135000Y878500D02*X136500Y875500D01*
X138000Y878500D01*
X136500Y875500D02*Y872500D01*
X139800Y875800D02*X142050D01*
X139800Y872500D02*X142800D01*
X139800Y878500D02*Y872500D01*
Y878500D02*X142800D01*
X147600D02*X148350Y877750D01*
X145350Y878500D02*X147600D01*
X144600Y877750D02*X145350Y878500D01*
X144600Y877750D02*Y876250D01*
X145350Y875500D01*
X147600D01*
X148350Y874750D01*
Y873250D01*
X147600Y872500D02*X148350Y873250D01*
X145350Y872500D02*X147600D01*
X144600Y873250D02*X145350Y872500D01*
X98000Y877750D02*X98750Y878500D01*
X101000D01*
X101750Y877750D01*
Y876250D01*
X98000Y872500D02*X101750Y876250D01*
X98000Y872500D02*X101750D01*
X45000Y873250D02*X45750Y872500D01*
X45000Y877750D02*Y873250D01*
Y877750D02*X45750Y878500D01*
X47250D01*
X48000Y877750D01*
Y873250D01*
X47250Y872500D02*X48000Y873250D01*
X45750Y872500D02*X47250D01*
X45000Y874000D02*X48000Y877000D01*
X49800Y872500D02*X50550D01*
X52350Y877300D02*X53550Y878500D01*
Y872500D01*
X52350D02*X54600D01*
X56400Y877300D02*X57600Y878500D01*
Y872500D01*
X56400D02*X58650D01*
X62700Y878500D02*X63450Y877750D01*
X61200Y878500D02*X62700D01*
X60450Y877750D02*X61200Y878500D01*
X60450Y877750D02*Y873250D01*
X61200Y872500D01*
X62700Y875800D02*X63450Y875050D01*
X60450Y875800D02*X62700D01*
X61200Y872500D02*X62700D01*
X63450Y873250D01*
Y875050D02*Y873250D01*
X326310Y552090D02*G75*G03X327910Y552090I800J0D01*G01*
G75*G03X326310Y552090I-800J0D01*G01*
X352310D02*G75*G03X353910Y552090I800J0D01*G01*
G75*G03X352310Y552090I-800J0D01*G01*
X14200Y891250D02*G75*G03X15800Y891250I800J0D01*G01*
G75*G03X14200Y891250I-800J0D01*G01*
X135000Y893500D02*X136500Y890500D01*
X138000Y893500D01*
X136500Y890500D02*Y887500D01*
X139800Y890800D02*X142050D01*
X139800Y887500D02*X142800D01*
X139800Y893500D02*Y887500D01*
Y893500D02*X142800D01*
X147600D02*X148350Y892750D01*
X145350Y893500D02*X147600D01*
X144600Y892750D02*X145350Y893500D01*
X144600Y892750D02*Y891250D01*
X145350Y890500D01*
X147600D01*
X148350Y889750D01*
Y888250D01*
X147600Y887500D02*X148350Y888250D01*
X145350Y887500D02*X147600D01*
X144600Y888250D02*X145350Y887500D01*
X98000Y892750D02*X98750Y893500D01*
X101000D01*
X101750Y892750D01*
Y891250D01*
X98000Y887500D02*X101750Y891250D01*
X98000Y887500D02*X101750D01*
X45000Y888250D02*X45750Y887500D01*
X45000Y892750D02*Y888250D01*
Y892750D02*X45750Y893500D01*
X47250D01*
X48000Y892750D01*
Y888250D01*
X47250Y887500D02*X48000Y888250D01*
X45750Y887500D02*X47250D01*
X45000Y889000D02*X48000Y892000D01*
X49800Y887500D02*X50550D01*
X52350Y892300D02*X53550Y893500D01*
Y887500D01*
X52350D02*X54600D01*
X56400Y892300D02*X57600Y893500D01*
Y887500D01*
X56400D02*X58650D01*
X60450Y893500D02*X63450D01*
X60450D02*Y890500D01*
X61200Y891250D01*
X62700D01*
X63450Y890500D01*
Y888250D01*
X62700Y887500D02*X63450Y888250D01*
X61200Y887500D02*X62700D01*
X60450Y888250D02*X61200Y887500D01*
X377800Y553700D02*X380200Y551300D01*
X377800D02*X380200Y553700D01*
X13800Y907450D02*X16200Y905050D01*
X13800D02*X16200Y907450D01*
X135000Y908500D02*X136500Y905500D01*
X138000Y908500D01*
X136500Y905500D02*Y902500D01*
X139800Y905800D02*X142050D01*
X139800Y902500D02*X142800D01*
X139800Y908500D02*Y902500D01*
Y908500D02*X142800D01*
X147600D02*X148350Y907750D01*
X145350Y908500D02*X147600D01*
X144600Y907750D02*X145350Y908500D01*
X144600Y907750D02*Y906250D01*
X145350Y905500D01*
X147600D01*
X148350Y904750D01*
Y903250D01*
X147600Y902500D02*X148350Y903250D01*
X145350Y902500D02*X147600D01*
X144600Y903250D02*X145350Y902500D01*
X98000Y907300D02*X99200Y908500D01*
Y902500D01*
X98000D02*X100250D01*
X45000Y903250D02*X45750Y902500D01*
X45000Y907750D02*Y903250D01*
Y907750D02*X45750Y908500D01*
X47250D01*
X48000Y907750D01*
Y903250D01*
X47250Y902500D02*X48000Y903250D01*
X45750Y902500D02*X47250D01*
X45000Y904000D02*X48000Y907000D01*
X49800Y902500D02*X50550D01*
X52350Y903250D02*X53100Y902500D01*
X52350Y907750D02*Y903250D01*
Y907750D02*X53100Y908500D01*
X54600D01*
X55350Y907750D01*
Y903250D01*
X54600Y902500D02*X55350Y903250D01*
X53100Y902500D02*X54600D01*
X52350Y904000D02*X55350Y907000D01*
X57900Y902500D02*X60150Y905500D01*
Y907750D02*Y905500D01*
X59400Y908500D02*X60150Y907750D01*
X57900Y908500D02*X59400D01*
X57150Y907750D02*X57900Y908500D01*
X57150Y907750D02*Y906250D01*
X57900Y905500D01*
X60150D01*
X61950Y904750D02*X64950Y908500D01*
X61950Y904750D02*X65700D01*
X64950Y908500D02*Y902500D01*
X430327Y627856D02*Y624656D01*
X428727Y626256D02*X431927D01*
X412610Y627856D02*Y624656D01*
X411010Y626256D02*X414210D01*
X15000Y922850D02*Y919650D01*
X13400Y921250D02*X16600D01*
X135000Y923500D02*X136500Y920500D01*
X138000Y923500D01*
X136500Y920500D02*Y917500D01*
X139800Y920800D02*X142050D01*
X139800Y917500D02*X142800D01*
X139800Y923500D02*Y917500D01*
Y923500D02*X142800D01*
X147600D02*X148350Y922750D01*
X145350Y923500D02*X147600D01*
X144600Y922750D02*X145350Y923500D01*
X144600Y922750D02*Y921250D01*
X145350Y920500D01*
X147600D01*
X148350Y919750D01*
Y918250D01*
X147600Y917500D02*X148350Y918250D01*
X145350Y917500D02*X147600D01*
X144600Y918250D02*X145350Y917500D01*
X98000Y922750D02*X98750Y923500D01*
X101000D01*
X101750Y922750D01*
Y921250D01*
X98000Y917500D02*X101750Y921250D01*
X98000Y917500D02*X101750D01*
X45000Y918250D02*X45750Y917500D01*
X45000Y922750D02*Y918250D01*
Y922750D02*X45750Y923500D01*
X47250D01*
X48000Y922750D01*
Y918250D01*
X47250Y917500D02*X48000Y918250D01*
X45750Y917500D02*X47250D01*
X45000Y919000D02*X48000Y922000D01*
X49800Y917500D02*X50550D01*
X52350Y918250D02*X53100Y917500D01*
X52350Y922750D02*Y918250D01*
Y922750D02*X53100Y923500D01*
X54600D01*
X55350Y922750D01*
Y918250D01*
X54600Y917500D02*X55350Y918250D01*
X53100Y917500D02*X54600D01*
X52350Y919000D02*X55350Y922000D01*
X57150Y919750D02*X60150Y923500D01*
X57150Y919750D02*X60900D01*
X60150Y923500D02*Y917500D01*
X62700Y922750D02*X63450Y923500D01*
X64950D01*
X65700Y922750D01*
X64950Y917500D02*X65700Y918250D01*
X63450Y917500D02*X64950D01*
X62700Y918250D02*X63450Y917500D01*
Y920800D02*X64950D01*
X65700Y922750D02*Y921550D01*
Y920050D02*Y918250D01*
Y920050D02*X64950Y920800D01*
X65700Y921550D02*X64950Y920800D01*
X266485Y566444D02*Y564844D01*
Y566444D02*X267872Y567244D01*
X266485Y566444D02*X265098Y567244D01*
X213335Y566444D02*Y564844D01*
Y566444D02*X214722Y567244D01*
X213335Y566444D02*X211948Y567244D01*
X213076Y742206D02*Y740606D01*
Y742206D02*X214463Y743006D01*
X213076Y742206D02*X211689Y743006D01*
X159926Y742206D02*Y740606D01*
Y742206D02*X161313Y743006D01*
X159926Y742206D02*X158539Y743006D01*
X15000Y936250D02*Y934650D01*
Y936250D02*X16387Y937050D01*
X15000Y936250D02*X13613Y937050D01*
X135000Y938500D02*X136500Y935500D01*
X138000Y938500D01*
X136500Y935500D02*Y932500D01*
X139800Y935800D02*X142050D01*
X139800Y932500D02*X142800D01*
X139800Y938500D02*Y932500D01*
Y938500D02*X142800D01*
X147600D02*X148350Y937750D01*
X145350Y938500D02*X147600D01*
X144600Y937750D02*X145350Y938500D01*
X144600Y937750D02*Y936250D01*
X145350Y935500D01*
X147600D01*
X148350Y934750D01*
Y933250D01*
X147600Y932500D02*X148350Y933250D01*
X145350Y932500D02*X147600D01*
X144600Y933250D02*X145350Y932500D01*
X98000Y934750D02*X101000Y938500D01*
X98000Y934750D02*X101750D01*
X101000Y938500D02*Y932500D01*
X45000Y933250D02*X45750Y932500D01*
X45000Y937750D02*Y933250D01*
Y937750D02*X45750Y938500D01*
X47250D01*
X48000Y937750D01*
Y933250D01*
X47250Y932500D02*X48000Y933250D01*
X45750Y932500D02*X47250D01*
X45000Y934000D02*X48000Y937000D01*
X49800Y932500D02*X50550D01*
X52350Y933250D02*X53100Y932500D01*
X52350Y937750D02*Y933250D01*
Y937750D02*X53100Y938500D01*
X54600D01*
X55350Y937750D01*
Y933250D01*
X54600Y932500D02*X55350Y933250D01*
X53100Y932500D02*X54600D01*
X52350Y934000D02*X55350Y937000D01*
X57150Y937750D02*X57900Y938500D01*
X59400D01*
X60150Y937750D01*
X59400Y932500D02*X60150Y933250D01*
X57900Y932500D02*X59400D01*
X57150Y933250D02*X57900Y932500D01*
Y935800D02*X59400D01*
X60150Y937750D02*Y936550D01*
Y935050D02*Y933250D01*
Y935050D02*X59400Y935800D01*
X60150Y936550D02*X59400Y935800D01*
X61950Y938500D02*X64950D01*
X61950D02*Y935500D01*
X62700Y936250D01*
X64200D01*
X64950Y935500D01*
Y933250D01*
X64200Y932500D02*X64950Y933250D01*
X62700Y932500D02*X64200D01*
X61950Y933250D02*X62700Y932500D01*
X3000Y953500D02*X3750Y952750D01*
X750Y953500D02*X3000D01*
X0Y952750D02*X750Y953500D01*
X0Y952750D02*Y951250D01*
X750Y950500D01*
X3000D01*
X3750Y949750D01*
Y948250D01*
X3000Y947500D02*X3750Y948250D01*
X750Y947500D02*X3000D01*
X0Y948250D02*X750Y947500D01*
X5550Y950500D02*Y948250D01*
X6300Y947500D01*
X8550Y950500D02*Y946000D01*
X7800Y945250D02*X8550Y946000D01*
X6300Y945250D02*X7800D01*
X5550Y946000D02*X6300Y945250D01*
Y947500D02*X7800D01*
X8550Y948250D01*
X11100Y949750D02*Y947500D01*
Y949750D02*X11850Y950500D01*
X12600D01*
X13350Y949750D01*
Y947500D01*
Y949750D02*X14100Y950500D01*
X14850D01*
X15600Y949750D01*
Y947500D01*
X10350Y950500D02*X11100Y949750D01*
X17400Y953500D02*Y947500D01*
Y948250D02*X18150Y947500D01*
X19650D01*
X20400Y948250D01*
Y949750D02*Y948250D01*
X19650Y950500D02*X20400Y949750D01*
X18150Y950500D02*X19650D01*
X17400Y949750D02*X18150Y950500D01*
X22200Y949750D02*Y948250D01*
Y949750D02*X22950Y950500D01*
X24450D01*
X25200Y949750D01*
Y948250D01*
X24450Y947500D02*X25200Y948250D01*
X22950Y947500D02*X24450D01*
X22200Y948250D02*X22950Y947500D01*
X27000Y953500D02*Y948250D01*
X27750Y947500D01*
X0Y944250D02*X29250D01*
X41750Y953500D02*Y947500D01*
X43700Y953500D02*X44750Y952450D01*
Y948550D01*
X43700Y947500D02*X44750Y948550D01*
X41000Y947500D02*X43700D01*
X41000Y953500D02*X43700D01*
G54D156*X46550Y952000D02*Y951850D01*
G54D155*Y949750D02*Y947500D01*
X50300Y950500D02*X51050Y949750D01*
X48800Y950500D02*X50300D01*
X48050Y949750D02*X48800Y950500D01*
X48050Y949750D02*Y948250D01*
X48800Y947500D01*
X51050Y950500D02*Y948250D01*
X51800Y947500D01*
X48800D02*X50300D01*
X51050Y948250D01*
X54350Y949750D02*Y947500D01*
Y949750D02*X55100Y950500D01*
X55850D01*
X56600Y949750D01*
Y947500D01*
Y949750D02*X57350Y950500D01*
X58100D01*
X58850Y949750D01*
Y947500D01*
X53600Y950500D02*X54350Y949750D01*
X60650Y947500D02*X61400D01*
X65900Y948250D02*X66650Y947500D01*
X65900Y952750D02*X66650Y953500D01*
X65900Y952750D02*Y948250D01*
X68450Y953500D02*X69950D01*
X69200D02*Y947500D01*
X68450D02*X69950D01*
X72500Y949750D02*Y947500D01*
Y949750D02*X73250Y950500D01*
X74000D01*
X74750Y949750D01*
Y947500D01*
X71750Y950500D02*X72500Y949750D01*
X77300Y950500D02*X79550D01*
X76550Y949750D02*X77300Y950500D01*
X76550Y949750D02*Y948250D01*
X77300Y947500D01*
X79550D01*
X81350Y953500D02*Y947500D01*
Y949750D02*X82100Y950500D01*
X83600D01*
X84350Y949750D01*
Y947500D01*
X86150Y953500D02*X86900Y952750D01*
Y948250D01*
X86150Y947500D02*X86900Y948250D01*
X41000Y944250D02*X88700D01*
X96050Y947500D02*X98000D01*
X95000Y948550D02*X96050Y947500D01*
X95000Y952450D02*Y948550D01*
Y952450D02*X96050Y953500D01*
X98000D01*
X99800Y949750D02*Y948250D01*
Y949750D02*X100550Y950500D01*
X102050D01*
X102800Y949750D01*
Y948250D01*
X102050Y947500D02*X102800Y948250D01*
X100550Y947500D02*X102050D01*
X99800Y948250D02*X100550Y947500D01*
X104600Y950500D02*Y948250D01*
X105350Y947500D01*
X106850D01*
X107600Y948250D01*
Y950500D02*Y948250D01*
X110150Y949750D02*Y947500D01*
Y949750D02*X110900Y950500D01*
X111650D01*
X112400Y949750D01*
Y947500D01*
X109400Y950500D02*X110150Y949750D01*
X114950Y953500D02*Y948250D01*
X115700Y947500D01*
X114200Y951250D02*X115700D01*
X95000Y944250D02*X117200D01*
X130750Y953500D02*Y947500D01*
X130000Y953500D02*X133000D01*
X133750Y952750D01*
Y951250D01*
X133000Y950500D02*X133750Y951250D01*
X130750Y950500D02*X133000D01*
X135550Y953500D02*Y948250D01*
X136300Y947500D01*
X140050Y950500D02*X140800Y949750D01*
X138550Y950500D02*X140050D01*
X137800Y949750D02*X138550Y950500D01*
X137800Y949750D02*Y948250D01*
X138550Y947500D01*
X140800Y950500D02*Y948250D01*
X141550Y947500D01*
X138550D02*X140050D01*
X140800Y948250D01*
X144100Y953500D02*Y948250D01*
X144850Y947500D01*
X143350Y951250D02*X144850D01*
X147100Y947500D02*X149350D01*
X146350Y948250D02*X147100Y947500D01*
X146350Y949750D02*Y948250D01*
Y949750D02*X147100Y950500D01*
X148600D01*
X149350Y949750D01*
X146350Y949000D02*X149350D01*
Y949750D02*Y949000D01*
X154150Y953500D02*Y947500D01*
X153400D02*X154150Y948250D01*
X151900Y947500D02*X153400D01*
X151150Y948250D02*X151900Y947500D01*
X151150Y949750D02*Y948250D01*
Y949750D02*X151900Y950500D01*
X153400D01*
X154150Y949750D01*
X157450Y950500D02*Y949750D01*
Y948250D02*Y947500D01*
X155950Y952750D02*Y952000D01*
Y952750D02*X156700Y953500D01*
X158200D01*
X158950Y952750D01*
Y952000D01*
X157450Y950500D02*X158950Y952000D01*
X130000Y944250D02*X160750D01*
X0Y968500D02*X3000D01*
X1500D02*Y962500D01*
X4800Y968500D02*Y962500D01*
Y964750D02*X5550Y965500D01*
X7050D01*
X7800Y964750D01*
Y962500D01*
X10350D02*X12600D01*
X9600Y963250D02*X10350Y962500D01*
X9600Y964750D02*Y963250D01*
Y964750D02*X10350Y965500D01*
X11850D01*
X12600Y964750D01*
X9600Y964000D02*X12600D01*
Y964750D02*Y964000D01*
X15150Y964750D02*Y962500D01*
Y964750D02*X15900Y965500D01*
X17400D01*
X14400D02*X15150Y964750D01*
X19950Y962500D02*X22200D01*
X19200Y963250D02*X19950Y962500D01*
X19200Y964750D02*Y963250D01*
Y964750D02*X19950Y965500D01*
X21450D01*
X22200Y964750D01*
X19200Y964000D02*X22200D01*
Y964750D02*Y964000D01*
X28950Y965500D02*X29700Y964750D01*
X27450Y965500D02*X28950D01*
X26700Y964750D02*X27450Y965500D01*
X26700Y964750D02*Y963250D01*
X27450Y962500D01*
X29700Y965500D02*Y963250D01*
X30450Y962500D01*
X27450D02*X28950D01*
X29700Y963250D01*
X33000Y964750D02*Y962500D01*
Y964750D02*X33750Y965500D01*
X35250D01*
X32250D02*X33000Y964750D01*
X37800Y962500D02*X40050D01*
X37050Y963250D02*X37800Y962500D01*
X37050Y964750D02*Y963250D01*
Y964750D02*X37800Y965500D01*
X39300D01*
X40050Y964750D01*
X37050Y964000D02*X40050D01*
Y964750D02*Y964000D01*
X46800Y968500D02*X47550Y967750D01*
X45300Y968500D02*X46800D01*
X44550Y967750D02*X45300Y968500D01*
X44550Y967750D02*Y963250D01*
X45300Y962500D01*
X46800Y965800D02*X47550Y965050D01*
X44550Y965800D02*X46800D01*
X45300Y962500D02*X46800D01*
X47550Y963250D01*
Y965050D02*Y963250D01*
X55050Y968500D02*Y962500D01*
X54300D02*X55050Y963250D01*
X52800Y962500D02*X54300D01*
X52050Y963250D02*X52800Y962500D01*
X52050Y964750D02*Y963250D01*
Y964750D02*X52800Y965500D01*
X54300D01*
X55050Y964750D01*
G54D156*X56850Y967000D02*Y966850D01*
G54D155*Y964750D02*Y962500D01*
X59100Y967750D02*Y962500D01*
Y967750D02*X59850Y968500D01*
X60600D01*
X58350Y965500D02*X59850D01*
X62850Y967750D02*Y962500D01*
Y967750D02*X63600Y968500D01*
X64350D01*
X62100Y965500D02*X63600D01*
X66600Y962500D02*X68850D01*
X65850Y963250D02*X66600Y962500D01*
X65850Y964750D02*Y963250D01*
Y964750D02*X66600Y965500D01*
X68100D01*
X68850Y964750D01*
X65850Y964000D02*X68850D01*
Y964750D02*Y964000D01*
X71400Y964750D02*Y962500D01*
Y964750D02*X72150Y965500D01*
X73650D01*
X70650D02*X71400Y964750D01*
X76200Y962500D02*X78450D01*
X75450Y963250D02*X76200Y962500D01*
X75450Y964750D02*Y963250D01*
Y964750D02*X76200Y965500D01*
X77700D01*
X78450Y964750D01*
X75450Y964000D02*X78450D01*
Y964750D02*Y964000D01*
X81000Y964750D02*Y962500D01*
Y964750D02*X81750Y965500D01*
X82500D01*
X83250Y964750D01*
Y962500D01*
X80250Y965500D02*X81000Y964750D01*
X85800Y968500D02*Y963250D01*
X86550Y962500D01*
X85050Y966250D02*X86550D01*
X93750Y968500D02*Y962500D01*
X93000D02*X93750Y963250D01*
X91500Y962500D02*X93000D01*
X90750Y963250D02*X91500Y962500D01*
X90750Y964750D02*Y963250D01*
Y964750D02*X91500Y965500D01*
X93000D01*
X93750Y964750D01*
X96300D02*Y962500D01*
Y964750D02*X97050Y965500D01*
X98550D01*
X95550D02*X96300Y964750D01*
G54D156*X100350Y967000D02*Y966850D01*
G54D155*Y964750D02*Y962500D01*
X101850Y968500D02*Y963250D01*
X102600Y962500D01*
X104100Y968500D02*Y963250D01*
X104850Y962500D01*
X109800D02*X112050D01*
X112800Y963250D01*
X112050Y964000D02*X112800Y963250D01*
X109800Y964000D02*X112050D01*
X109050Y964750D02*X109800Y964000D01*
X109050Y964750D02*X109800Y965500D01*
X112050D01*
X112800Y964750D01*
X109050Y963250D02*X109800Y962500D01*
G54D156*X114600Y967000D02*Y966850D01*
G54D155*Y964750D02*Y962500D01*
X116100Y965500D02*X119100D01*
X116100Y962500D02*X119100Y965500D01*
X116100Y962500D02*X119100D01*
X121650D02*X123900D01*
X120900Y963250D02*X121650Y962500D01*
X120900Y964750D02*Y963250D01*
Y964750D02*X121650Y965500D01*
X123150D01*
X123900Y964750D01*
X120900Y964000D02*X123900D01*
Y964750D02*Y964000D01*
X126450Y962500D02*X128700D01*
X129450Y963250D01*
X128700Y964000D02*X129450Y963250D01*
X126450Y964000D02*X128700D01*
X125700Y964750D02*X126450Y964000D01*
X125700Y964750D02*X126450Y965500D01*
X128700D01*
X129450Y964750D01*
X125700Y963250D02*X126450Y962500D01*
X133950Y965500D02*Y963250D01*
X134700Y962500D01*
X136200D01*
X136950Y963250D01*
Y965500D02*Y963250D01*
X139500Y962500D02*X141750D01*
X142500Y963250D01*
X141750Y964000D02*X142500Y963250D01*
X139500Y964000D02*X141750D01*
X138750Y964750D02*X139500Y964000D01*
X138750Y964750D02*X139500Y965500D01*
X141750D01*
X142500Y964750D01*
X138750Y963250D02*X139500Y962500D01*
X145050D02*X147300D01*
X144300Y963250D02*X145050Y962500D01*
X144300Y964750D02*Y963250D01*
Y964750D02*X145050Y965500D01*
X146550D01*
X147300Y964750D01*
X144300Y964000D02*X147300D01*
Y964750D02*Y964000D01*
X152100Y968500D02*Y962500D01*
X151350D02*X152100Y963250D01*
X149850Y962500D02*X151350D01*
X149100Y963250D02*X149850Y962500D01*
X149100Y964750D02*Y963250D01*
Y964750D02*X149850Y965500D01*
X151350D01*
X152100Y964750D01*
G54D156*X156600Y967000D02*Y966850D01*
G54D155*Y964750D02*Y962500D01*
X158850Y964750D02*Y962500D01*
Y964750D02*X159600Y965500D01*
X160350D01*
X161100Y964750D01*
Y962500D01*
X158100Y965500D02*X158850Y964750D01*
X166350Y968500D02*Y963250D01*
X167100Y962500D01*
X165600Y966250D02*X167100D01*
X168600Y968500D02*Y962500D01*
Y964750D02*X169350Y965500D01*
X170850D01*
X171600Y964750D01*
Y962500D01*
G54D156*X173400Y967000D02*Y966850D01*
G54D155*Y964750D02*Y962500D01*
X175650D02*X177900D01*
X178650Y963250D01*
X177900Y964000D02*X178650Y963250D01*
X175650Y964000D02*X177900D01*
X174900Y964750D02*X175650Y964000D01*
X174900Y964750D02*X175650Y965500D01*
X177900D01*
X178650Y964750D01*
X174900Y963250D02*X175650Y962500D01*
X183150Y968500D02*Y963250D01*
X183900Y962500D01*
X187650Y965500D02*X188400Y964750D01*
X186150Y965500D02*X187650D01*
X185400Y964750D02*X186150Y965500D01*
X185400Y964750D02*Y963250D01*
X186150Y962500D01*
X188400Y965500D02*Y963250D01*
X189150Y962500D01*
X186150D02*X187650D01*
X188400Y963250D01*
X190950Y965500D02*Y963250D01*
X191700Y962500D01*
X193950Y965500D02*Y961000D01*
X193200Y960250D02*X193950Y961000D01*
X191700Y960250D02*X193200D01*
X190950Y961000D02*X191700Y960250D01*
Y962500D02*X193200D01*
X193950Y963250D01*
X195750Y964750D02*Y963250D01*
Y964750D02*X196500Y965500D01*
X198000D01*
X198750Y964750D01*
Y963250D01*
X198000Y962500D02*X198750Y963250D01*
X196500Y962500D02*X198000D01*
X195750Y963250D02*X196500Y962500D01*
X200550Y965500D02*Y963250D01*
X201300Y962500D01*
X202800D01*
X203550Y963250D01*
Y965500D02*Y963250D01*
X206100Y968500D02*Y963250D01*
X206850Y962500D01*
X205350Y966250D02*X206850D01*
X208350Y961000D02*X209850Y962500D01*
X214350Y967300D02*X215550Y968500D01*
Y962500D01*
X214350D02*X216600D01*
X218400Y968500D02*X221400D01*
X218400D02*Y965500D01*
X219150Y966250D01*
X220650D01*
X221400Y965500D01*
Y963250D01*
X220650Y962500D02*X221400Y963250D01*
X219150Y962500D02*X220650D01*
X218400Y963250D02*X219150Y962500D01*
X225900Y968500D02*Y962500D01*
Y964750D02*X226650Y965500D01*
X228150D01*
X228900Y964750D01*
Y962500D01*
X230700Y964750D02*Y963250D01*
Y964750D02*X231450Y965500D01*
X232950D01*
X233700Y964750D01*
Y963250D01*
X232950Y962500D02*X233700Y963250D01*
X231450Y962500D02*X232950D01*
X230700Y963250D02*X231450Y962500D01*
X235500Y968500D02*Y963250D01*
X236250Y962500D01*
X238500D02*X240750D01*
X237750Y963250D02*X238500Y962500D01*
X237750Y964750D02*Y963250D01*
Y964750D02*X238500Y965500D01*
X240000D01*
X240750Y964750D01*
X237750Y964000D02*X240750D01*
Y964750D02*Y964000D01*
X243300Y962500D02*X245550D01*
X246300Y963250D01*
X245550Y964000D02*X246300Y963250D01*
X243300Y964000D02*X245550D01*
X242550Y964750D02*X243300Y964000D01*
X242550Y964750D02*X243300Y965500D01*
X245550D01*
X246300Y964750D01*
X242550Y963250D02*X243300Y962500D01*
X251550Y968500D02*Y963250D01*
X252300Y962500D01*
X250800Y966250D02*X252300D01*
X253800Y964750D02*Y963250D01*
Y964750D02*X254550Y965500D01*
X256050D01*
X256800Y964750D01*
Y963250D01*
X256050Y962500D02*X256800Y963250D01*
X254550Y962500D02*X256050D01*
X253800Y963250D02*X254550Y962500D01*
X259350Y968500D02*Y963250D01*
X260100Y962500D01*
X258600Y966250D02*X260100D01*
X263850Y965500D02*X264600Y964750D01*
X262350Y965500D02*X263850D01*
X261600Y964750D02*X262350Y965500D01*
X261600Y964750D02*Y963250D01*
X262350Y962500D01*
X264600Y965500D02*Y963250D01*
X265350Y962500D01*
X262350D02*X263850D01*
X264600Y963250D01*
X267150Y968500D02*Y963250D01*
X267900Y962500D01*
G54D157*X32350Y512560D02*X446850Y512550D01*
Y609290D01*
X401800Y609300D02*Y637700D01*
X446850D01*
Y814150D01*
X389850Y700750D02*X320750D01*
X331850Y767300D02*X331800Y814150D01*
X32350D01*
X446850Y609290D02*X401800Y609300D01*
X389750Y766000D02*X379950D01*
X380000Y814150D01*
X446850D01*
X69750Y696250D02*Y753750D01*
X320750Y767300D02*X331850D01*
X320750Y700750D02*Y767300D01*
X32400Y753750D02*X69750D01*
X389750Y700750D02*Y765750D01*
X32400Y696250D02*X69500D01*
X69750Y696500D01*
X32350Y512560D02*Y696100D01*
X32500Y696250D01*
X32400Y753750D02*Y814050D01*
X32500Y814150D01*
X55500Y678000D02*X71500D01*
Y648500D01*
X55500D01*
Y678000D01*
X159000Y759500D02*Y740500D01*
X213500D01*
Y759500D01*
X159000D01*
X238500Y751000D02*X288000D01*
Y741500D01*
X238500D01*
Y751000D01*
X55500Y601000D02*X71500D01*
Y571500D01*
X55500D01*
Y601000D01*
X91500Y560500D02*X107500D01*
Y531000D01*
X91500D01*
Y560500D01*
X212409Y583738D02*Y564738D01*
X266909D01*
Y583738D01*
X212409D01*
G54D155*X188675Y-9500D02*X191675D01*
X192425Y-8750D01*
Y-6950D02*Y-8750D01*
X191675Y-6200D02*X192425Y-6950D01*
X189425Y-6200D02*X191675D01*
X189425Y-3500D02*Y-9500D01*
X188675Y-3500D02*X191675D01*
X192425Y-4250D01*
Y-5450D01*
X191675Y-6200D02*X192425Y-5450D01*
X194225Y-7250D02*Y-8750D01*
Y-7250D02*X194975Y-6500D01*
X196475D01*
X197225Y-7250D01*
Y-8750D01*
X196475Y-9500D02*X197225Y-8750D01*
X194975Y-9500D02*X196475D01*
X194225Y-8750D02*X194975Y-9500D01*
X201275Y-6500D02*X202025Y-7250D01*
X199775Y-6500D02*X201275D01*
X199025Y-7250D02*X199775Y-6500D01*
X199025Y-7250D02*Y-8750D01*
X199775Y-9500D01*
X202025Y-6500D02*Y-8750D01*
X202775Y-9500D01*
X199775D02*X201275D01*
X202025Y-8750D01*
X205325Y-7250D02*Y-9500D01*
Y-7250D02*X206075Y-6500D01*
X207575D01*
X204575D02*X205325Y-7250D01*
X212375Y-3500D02*Y-9500D01*
X211625D02*X212375Y-8750D01*
X210125Y-9500D02*X211625D01*
X209375Y-8750D02*X210125Y-9500D01*
X209375Y-7250D02*Y-8750D01*
Y-7250D02*X210125Y-6500D01*
X211625D01*
X212375Y-7250D01*
X216875D02*Y-8750D01*
Y-7250D02*X217625Y-6500D01*
X219125D01*
X219875Y-7250D01*
Y-8750D01*
X219125Y-9500D02*X219875Y-8750D01*
X217625Y-9500D02*X219125D01*
X216875Y-8750D02*X217625Y-9500D01*
X221675Y-6500D02*Y-8750D01*
X222425Y-9500D01*
X223925D01*
X224675Y-8750D01*
Y-6500D02*Y-8750D01*
X227225Y-3500D02*Y-8750D01*
X227975Y-9500D01*
X226475Y-5750D02*X227975D01*
X229475Y-3500D02*Y-8750D01*
X230225Y-9500D01*
G54D156*X231725Y-5000D02*Y-5150D01*
G54D155*Y-7250D02*Y-9500D01*
X233975Y-7250D02*Y-9500D01*
Y-7250D02*X234725Y-6500D01*
X235475D01*
X236225Y-7250D01*
Y-9500D01*
X233225Y-6500D02*X233975Y-7250D01*
X238775Y-9500D02*X241025D01*
X238025Y-8750D02*X238775Y-9500D01*
X238025Y-7250D02*Y-8750D01*
Y-7250D02*X238775Y-6500D01*
X240275D01*
X241025Y-7250D01*
X238025Y-8000D02*X241025D01*
Y-7250D02*Y-8000D01*
G54D156*X245525Y-5000D02*Y-5150D01*
G54D155*Y-7250D02*Y-9500D01*
X247775D02*X250025D01*
X250775Y-8750D01*
X250025Y-8000D02*X250775Y-8750D01*
X247775Y-8000D02*X250025D01*
X247025Y-7250D02*X247775Y-8000D01*
X247025Y-7250D02*X247775Y-6500D01*
X250025D01*
X250775Y-7250D01*
X247025Y-8750D02*X247775Y-9500D01*
X256025Y-3500D02*Y-8750D01*
X256775Y-9500D01*
X255275Y-5750D02*X256775D01*
X258275Y-3500D02*Y-9500D01*
Y-7250D02*X259025Y-6500D01*
X260525D01*
X261275Y-7250D01*
Y-9500D01*
X263825D02*X266075D01*
X263075Y-8750D02*X263825Y-9500D01*
X263075Y-7250D02*Y-8750D01*
Y-7250D02*X263825Y-6500D01*
X265325D01*
X266075Y-7250D01*
X263075Y-8000D02*X266075D01*
Y-7250D02*Y-8000D01*
X271325Y-6500D02*X273575D01*
X270575Y-7250D02*X271325Y-6500D01*
X270575Y-7250D02*Y-8750D01*
X271325Y-9500D01*
X273575D01*
X276125D02*X278375D01*
X275375Y-8750D02*X276125Y-9500D01*
X275375Y-7250D02*Y-8750D01*
Y-7250D02*X276125Y-6500D01*
X277625D01*
X278375Y-7250D01*
X275375Y-8000D02*X278375D01*
Y-7250D02*Y-8000D01*
X280925Y-7250D02*Y-9500D01*
Y-7250D02*X281675Y-6500D01*
X282425D01*
X283175Y-7250D01*
Y-9500D01*
X280175Y-6500D02*X280925Y-7250D01*
X285725Y-3500D02*Y-8750D01*
X286475Y-9500D01*
X284975Y-5750D02*X286475D01*
X288725Y-9500D02*X290975D01*
X287975Y-8750D02*X288725Y-9500D01*
X287975Y-7250D02*Y-8750D01*
Y-7250D02*X288725Y-6500D01*
X290225D01*
X290975Y-7250D01*
X287975Y-8000D02*X290975D01*
Y-7250D02*Y-8000D01*
X293525Y-7250D02*Y-9500D01*
Y-7250D02*X294275Y-6500D01*
X295775D01*
X292775D02*X293525Y-7250D01*
X297575Y-3500D02*Y-8750D01*
X298325Y-9500D01*
G54D156*X299825Y-5000D02*Y-5150D01*
G54D155*Y-7250D02*Y-9500D01*
X302075Y-7250D02*Y-9500D01*
Y-7250D02*X302825Y-6500D01*
X303575D01*
X304325Y-7250D01*
Y-9500D01*
X301325Y-6500D02*X302075Y-7250D01*
X306875Y-9500D02*X309125D01*
X306125Y-8750D02*X306875Y-9500D01*
X306125Y-7250D02*Y-8750D01*
Y-7250D02*X306875Y-6500D01*
X308375D01*
X309125Y-7250D01*
X306125Y-8000D02*X309125D01*
Y-7250D02*Y-8000D01*
X313625Y-7250D02*Y-8750D01*
Y-7250D02*X314375Y-6500D01*
X315875D01*
X316625Y-7250D01*
Y-8750D01*
X315875Y-9500D02*X316625Y-8750D01*
X314375Y-9500D02*X315875D01*
X313625Y-8750D02*X314375Y-9500D01*
X319175Y-4250D02*Y-9500D01*
Y-4250D02*X319925Y-3500D01*
X320675D01*
X318425Y-6500D02*X319925D01*
X325625Y-3500D02*Y-8750D01*
X326375Y-9500D01*
X324875Y-5750D02*X326375D01*
X327875Y-3500D02*Y-9500D01*
Y-7250D02*X328625Y-6500D01*
X330125D01*
X330875Y-7250D01*
Y-9500D01*
G54D156*X332675Y-5000D02*Y-5150D01*
G54D155*Y-7250D02*Y-9500D01*
X334925D02*X337175D01*
X337925Y-8750D01*
X337175Y-8000D02*X337925Y-8750D01*
X334925Y-8000D02*X337175D01*
X334175Y-7250D02*X334925Y-8000D01*
X334175Y-7250D02*X334925Y-6500D01*
X337175D01*
X337925Y-7250D01*
X334175Y-8750D02*X334925Y-9500D01*
X343175Y-7250D02*Y-11750D01*
X342425Y-6500D02*X343175Y-7250D01*
X343925Y-6500D01*
X345425D01*
X346175Y-7250D01*
Y-8750D01*
X345425Y-9500D02*X346175Y-8750D01*
X343925Y-9500D02*X345425D01*
X343175Y-8750D02*X343925Y-9500D01*
X350225Y-6500D02*X350975Y-7250D01*
X348725Y-6500D02*X350225D01*
X347975Y-7250D02*X348725Y-6500D01*
X347975Y-7250D02*Y-8750D01*
X348725Y-9500D01*
X350975Y-6500D02*Y-8750D01*
X351725Y-9500D01*
X348725D02*X350225D01*
X350975Y-8750D01*
X354275Y-3500D02*Y-8750D01*
X355025Y-9500D01*
X353525Y-5750D02*X355025D01*
X356525Y-3500D02*Y-9500D01*
Y-7250D02*X357275Y-6500D01*
X358775D01*
X359525Y-7250D01*
Y-9500D01*
X200750Y878500D02*Y872500D01*
X202700Y878500D02*X203750Y877450D01*
Y873550D01*
X202700Y872500D02*X203750Y873550D01*
X200000Y872500D02*X202700D01*
X200000Y878500D02*X202700D01*
X207800Y875500D02*X208550Y874750D01*
X206300Y875500D02*X207800D01*
X205550Y874750D02*X206300Y875500D01*
X205550Y874750D02*Y873250D01*
X206300Y872500D01*
X208550Y875500D02*Y873250D01*
X209300Y872500D01*
X206300D02*X207800D01*
X208550Y873250D01*
X211850Y878500D02*Y873250D01*
X212600Y872500D01*
X211100Y876250D02*X212600D01*
X214850Y872500D02*X217100D01*
X214100Y873250D02*X214850Y872500D01*
X214100Y874750D02*Y873250D01*
Y874750D02*X214850Y875500D01*
X216350D01*
X217100Y874750D01*
X214100Y874000D02*X217100D01*
Y874750D02*Y874000D01*
X218900Y876250D02*X219650D01*
X218900Y874750D02*X219650D01*
X224150Y878500D02*Y875500D01*
X224900Y872500D01*
X226400Y875500D01*
X227900Y872500D01*
X228650Y875500D01*
Y878500D02*Y875500D01*
X231200Y872500D02*X233450D01*
X230450Y873250D02*X231200Y872500D01*
X230450Y874750D02*Y873250D01*
Y874750D02*X231200Y875500D01*
X232700D01*
X233450Y874750D01*
X230450Y874000D02*X233450D01*
Y874750D02*Y874000D01*
X238250Y878500D02*Y872500D01*
X237500D02*X238250Y873250D01*
X236000Y872500D02*X237500D01*
X235250Y873250D02*X236000Y872500D01*
X235250Y874750D02*Y873250D01*
Y874750D02*X236000Y875500D01*
X237500D01*
X238250Y874750D01*
X243800Y878500D02*X245000D01*
Y873250D01*
X244250Y872500D02*X245000Y873250D01*
X243500Y872500D02*X244250D01*
X242750Y873250D02*X243500Y872500D01*
X242750Y874000D02*Y873250D01*
X249050Y875500D02*X249800Y874750D01*
X247550Y875500D02*X249050D01*
X246800Y874750D02*X247550Y875500D01*
X246800Y874750D02*Y873250D01*
X247550Y872500D01*
X249800Y875500D02*Y873250D01*
X250550Y872500D01*
X247550D02*X249050D01*
X249800Y873250D01*
X253100Y874750D02*Y872500D01*
Y874750D02*X253850Y875500D01*
X254600D01*
X255350Y874750D01*
Y872500D01*
X252350Y875500D02*X253100Y874750D01*
X262550Y873250D02*X263300Y872500D01*
X262550Y874450D02*Y873250D01*
Y874450D02*X263600Y875500D01*
X264500D01*
X265550Y874450D01*
Y873250D01*
X264800Y872500D02*X265550Y873250D01*
X263300Y872500D02*X264800D01*
X262550Y876550D02*X263600Y875500D01*
X262550Y877750D02*Y876550D01*
Y877750D02*X263300Y878500D01*
X264800D01*
X265550Y877750D01*
Y876550D01*
X264500Y875500D02*X265550Y876550D01*
X270050Y877750D02*X270800Y878500D01*
X273050D01*
X273800Y877750D01*
Y876250D01*
X270050Y872500D02*X273800Y876250D01*
X270050Y872500D02*X273800D01*
X275600Y877750D02*X276350Y878500D01*
X278600D01*
X279350Y877750D01*
Y876250D01*
X275600Y872500D02*X279350Y876250D01*
X275600Y872500D02*X279350D01*
X281150Y876250D02*X281900D01*
X281150Y874750D02*X281900D01*
X283700Y877750D02*X284450Y878500D01*
X285950D01*
X286700Y877750D01*
X285950Y872500D02*X286700Y873250D01*
X284450Y872500D02*X285950D01*
X283700Y873250D02*X284450Y872500D01*
Y875800D02*X285950D01*
X286700Y877750D02*Y876550D01*
Y875050D02*Y873250D01*
Y875050D02*X285950Y875800D01*
X286700Y876550D02*X285950Y875800D01*
X288500Y877300D02*X289700Y878500D01*
Y872500D01*
X288500D02*X290750D01*
X292550Y876250D02*X293300D01*
X292550Y874750D02*X293300D01*
X295100D02*X298100Y878500D01*
X295100Y874750D02*X298850D01*
X298100Y878500D02*Y872500D01*
X300650Y877750D02*X301400Y878500D01*
X302900D01*
X303650Y877750D01*
X302900Y872500D02*X303650Y873250D01*
X301400Y872500D02*X302900D01*
X300650Y873250D02*X301400Y872500D01*
Y875800D02*X302900D01*
X303650Y877750D02*Y876550D01*
Y875050D02*Y873250D01*
Y875050D02*X302900Y875800D01*
X303650Y876550D02*X302900Y875800D01*
X308150Y877750D02*X308900Y878500D01*
X311150D01*
X311900Y877750D01*
Y876250D01*
X308150Y872500D02*X311900Y876250D01*
X308150Y872500D02*X311900D01*
X313700Y873250D02*X314450Y872500D01*
X313700Y877750D02*Y873250D01*
Y877750D02*X314450Y878500D01*
X315950D01*
X316700Y877750D01*
Y873250D01*
X315950Y872500D02*X316700Y873250D01*
X314450Y872500D02*X315950D01*
X313700Y874000D02*X316700Y877000D01*
X318500Y877300D02*X319700Y878500D01*
Y872500D01*
X318500D02*X320750D01*
X322550Y874750D02*X325550Y878500D01*
X322550Y874750D02*X326300D01*
X325550Y878500D02*Y872500D01*
X330800Y878500D02*Y873250D01*
X331550Y872500D01*
X333050D01*
X333800Y873250D01*
Y878500D02*Y873250D01*
X335600Y878500D02*X338600D01*
X337100D02*Y872500D01*
X341450D02*X343400D01*
X340400Y873550D02*X341450Y872500D01*
X340400Y877450D02*Y873550D01*
Y877450D02*X341450Y878500D01*
X343400D01*
X200000Y892000D02*Y887500D01*
Y892000D02*X201050Y893500D01*
X202700D01*
X203750Y892000D01*
Y887500D01*
X200000Y890500D02*X203750D01*
X205550D02*Y888250D01*
X206300Y887500D01*
X207800D01*
X208550Y888250D01*
Y890500D02*Y888250D01*
X211100Y893500D02*Y888250D01*
X211850Y887500D01*
X210350Y891250D02*X211850D01*
X213350Y893500D02*Y887500D01*
Y889750D02*X214100Y890500D01*
X215600D01*
X216350Y889750D01*
Y887500D01*
X218150Y889750D02*Y888250D01*
Y889750D02*X218900Y890500D01*
X220400D01*
X221150Y889750D01*
Y888250D01*
X220400Y887500D02*X221150Y888250D01*
X218900Y887500D02*X220400D01*
X218150Y888250D02*X218900Y887500D01*
X223700Y889750D02*Y887500D01*
Y889750D02*X224450Y890500D01*
X225950D01*
X222950D02*X223700Y889750D01*
X227750Y891250D02*X228500D01*
X227750Y889750D02*X228500D01*
X200000Y908500D02*X203000D01*
X201500D02*Y902500D01*
G54D156*X204800Y907000D02*Y906850D01*
G54D155*Y904750D02*Y902500D01*
X207050Y908500D02*Y903250D01*
X207800Y902500D01*
X206300Y906250D02*X207800D01*
X209300Y908500D02*Y903250D01*
X210050Y902500D01*
X212300D02*X214550D01*
X211550Y903250D02*X212300Y902500D01*
X211550Y904750D02*Y903250D01*
Y904750D02*X212300Y905500D01*
X213800D01*
X214550Y904750D01*
X211550Y904000D02*X214550D01*
Y904750D02*Y904000D01*
X216350Y906250D02*X217100D01*
X216350Y904750D02*X217100D01*
X221600Y903250D02*X222350Y902500D01*
X221600Y907750D02*X222350Y908500D01*
X221600Y907750D02*Y903250D01*
X224150Y905500D02*Y903250D01*
X224900Y902500D01*
X226400D01*
X227150Y903250D01*
Y905500D02*Y903250D01*
X229700Y904750D02*Y902500D01*
Y904750D02*X230450Y905500D01*
X231200D01*
X231950Y904750D01*
Y902500D01*
X228950Y905500D02*X229700Y904750D01*
X233750Y908500D02*Y902500D01*
Y904750D02*X236000Y902500D01*
X233750Y904750D02*X235250Y906250D01*
X238550Y904750D02*Y902500D01*
Y904750D02*X239300Y905500D01*
X240050D01*
X240800Y904750D01*
Y902500D01*
X237800Y905500D02*X238550Y904750D01*
X242600D02*Y903250D01*
Y904750D02*X243350Y905500D01*
X244850D01*
X245600Y904750D01*
Y903250D01*
X244850Y902500D02*X245600Y903250D01*
X243350Y902500D02*X244850D01*
X242600Y903250D02*X243350Y902500D01*
X247400Y905500D02*Y903250D01*
X248150Y902500D01*
X248900D01*
X249650Y903250D01*
Y905500D02*Y903250D01*
X250400Y902500D01*
X251150D01*
X251900Y903250D01*
Y905500D02*Y903250D01*
X254450Y904750D02*Y902500D01*
Y904750D02*X255200Y905500D01*
X255950D01*
X256700Y904750D01*
Y902500D01*
X253700Y905500D02*X254450Y904750D01*
X258500Y908500D02*X259250Y907750D01*
Y903250D01*
X258500Y902500D02*X259250Y903250D01*
X263750Y905500D02*X266750D01*
X271250Y908500D02*Y902500D01*
Y908500D02*X274250D01*
X271250Y905800D02*X273500D01*
X278300Y905500D02*X279050Y904750D01*
X276800Y905500D02*X278300D01*
X276050Y904750D02*X276800Y905500D01*
X276050Y904750D02*Y903250D01*
X276800Y902500D01*
X279050Y905500D02*Y903250D01*
X279800Y902500D01*
X276800D02*X278300D01*
X279050Y903250D01*
X281600Y908500D02*Y902500D01*
Y903250D02*X282350Y902500D01*
X283850D01*
X284600Y903250D01*
Y904750D02*Y903250D01*
X283850Y905500D02*X284600Y904750D01*
X282350Y905500D02*X283850D01*
X281600Y904750D02*X282350Y905500D01*
X287150Y904750D02*Y902500D01*
Y904750D02*X287900Y905500D01*
X289400D01*
X286400D02*X287150Y904750D01*
G54D156*X291200Y907000D02*Y906850D01*
G54D155*Y904750D02*Y902500D01*
X293450Y905500D02*X295700D01*
X292700Y904750D02*X293450Y905500D01*
X292700Y904750D02*Y903250D01*
X293450Y902500D01*
X295700D01*
X299750Y905500D02*X300500Y904750D01*
X298250Y905500D02*X299750D01*
X297500Y904750D02*X298250Y905500D01*
X297500Y904750D02*Y903250D01*
X298250Y902500D01*
X300500Y905500D02*Y903250D01*
X301250Y902500D01*
X298250D02*X299750D01*
X300500Y903250D01*
X303800Y908500D02*Y903250D01*
X304550Y902500D01*
X303050Y906250D02*X304550D01*
G54D156*X306050Y907000D02*Y906850D01*
G54D155*Y904750D02*Y902500D01*
X307550Y904750D02*Y903250D01*
Y904750D02*X308300Y905500D01*
X309800D01*
X310550Y904750D01*
Y903250D01*
X309800Y902500D02*X310550Y903250D01*
X308300Y902500D02*X309800D01*
X307550Y903250D02*X308300Y902500D01*
X313100Y904750D02*Y902500D01*
Y904750D02*X313850Y905500D01*
X314600D01*
X315350Y904750D01*
Y902500D01*
X312350Y905500D02*X313100Y904750D01*
X320600Y908500D02*Y902500D01*
X322550Y908500D02*X323600Y907450D01*
Y903550D01*
X322550Y902500D02*X323600Y903550D01*
X319850Y902500D02*X322550D01*
X319850Y908500D02*X322550D01*
X326150Y904750D02*Y902500D01*
Y904750D02*X326900Y905500D01*
X328400D01*
X325400D02*X326150Y904750D01*
X332450Y905500D02*X333200Y904750D01*
X330950Y905500D02*X332450D01*
X330200Y904750D02*X330950Y905500D01*
X330200Y904750D02*Y903250D01*
X330950Y902500D01*
X333200Y905500D02*Y903250D01*
X333950Y902500D01*
X330950D02*X332450D01*
X333200Y903250D01*
X335750Y905500D02*Y903250D01*
X336500Y902500D01*
X337250D01*
X338000Y903250D01*
Y905500D02*Y903250D01*
X338750Y902500D01*
X339500D01*
X340250Y903250D01*
Y905500D02*Y903250D01*
G54D156*X342050Y907000D02*Y906850D01*
G54D155*Y904750D02*Y902500D01*
X344300Y904750D02*Y902500D01*
Y904750D02*X345050Y905500D01*
X345800D01*
X346550Y904750D01*
Y902500D01*
X343550Y905500D02*X344300Y904750D01*
X350600Y905500D02*X351350Y904750D01*
X349100Y905500D02*X350600D01*
X348350Y904750D02*X349100Y905500D01*
X348350Y904750D02*Y903250D01*
X349100Y902500D01*
X350600D01*
X351350Y903250D01*
X348350Y901000D02*X349100Y900250D01*
X350600D01*
X351350Y901000D01*
Y905500D02*Y901000D01*
M02*
