G04 start of page 9 for group -4078 idx -4078 *
G04 Title: (unknown), bottomsilk *
G04 Creator: pcb 20110918 *
G04 CreationDate: Tue Jan 14 22:18:45 2014 UTC *
G04 For: fosse *
G04 Format: Gerber/RS-274X *
G04 PCB-Dimensions: 550000 450000 *
G04 PCB-Coordinate-Origin: lower left *
%MOIN*%
%FSLAX25Y25*%
%LNBOTTOMSILK*%
%ADD118C,0.0100*%
%ADD117C,0.0148*%
%ADD116C,0.0060*%
%ADD115C,0.0200*%
G54D115*X387000Y197000D02*Y244000D01*
X382500Y270500D02*X376000Y277000D01*
X281000D01*
X387000Y244000D02*X382500Y248500D01*
X281000Y197000D02*X387000D01*
X382500Y248500D02*Y270500D01*
X282500Y143000D02*X306500Y167000D01*
Y143000D02*X282500Y167000D01*
X281000Y277000D02*Y197000D01*
G54D116*X82700Y316500D02*X86700D01*
Y317800D02*X86000Y318500D01*
X83400D02*X86000D01*
X82700Y317800D02*X83400Y318500D01*
X82700Y316000D02*Y317800D01*
X86700Y316000D02*Y317800D01*
X84900Y319700D02*Y321200D01*
X82700Y319700D02*Y321700D01*
Y319700D02*X86700D01*
Y321700D01*
X82700Y322900D02*Y324900D01*
X83200Y325400D01*
X84400D01*
X84900Y324900D02*X84400Y325400D01*
X84900Y323400D02*Y324900D01*
X82700Y323400D02*X86700D01*
Y322900D02*Y324900D01*
X86200Y325400D01*
X85400D02*X86200D01*
X84900Y324900D02*X85400Y325400D01*
X83200Y326600D02*X86700D01*
X83200D02*X82700Y327100D01*
Y328100D01*
X83200Y328600D01*
X86700D01*
Y331800D02*X86200Y332300D01*
X86700Y330300D02*Y331800D01*
X86200Y329800D02*X86700Y330300D01*
X83200Y329800D02*X86200D01*
X83200D02*X82700Y330300D01*
Y331800D01*
X83200Y332300D01*
X84200D01*
X84700Y331800D02*X84200Y332300D01*
X84700Y330800D02*Y331800D01*
X181010Y326190D02*Y330190D01*
X183510Y326190D02*Y330190D01*
X181010Y328190D02*X183510D01*
X184710Y327990D02*X186210D01*
X184710Y330190D02*X186710D01*
X184710Y326190D02*Y330190D01*
Y326190D02*X186710D01*
X187910Y327190D02*Y330190D01*
Y327190D02*X188610Y326190D01*
X189710D01*
X190410Y327190D01*
Y330190D01*
X187910Y328190D02*X190410D01*
X192110Y326190D02*Y330190D01*
X193410Y326190D02*X194110Y326890D01*
Y329490D01*
X193410Y330190D02*X194110Y329490D01*
X191610Y330190D02*X193410D01*
X191610Y326190D02*X193410D01*
X335250Y369250D02*Y373250D01*
Y369250D02*X336750Y371250D01*
X338250Y369250D01*
Y373250D01*
X339450Y370250D02*Y370350D01*
Y371750D02*Y373250D01*
X340950Y371250D02*X342450D01*
X340450Y371750D02*X340950Y371250D01*
X340450Y371750D02*Y372750D01*
X340950Y373250D01*
X342450D01*
X344150Y371750D02*Y373250D01*
Y371750D02*X344650Y371250D01*
X345650D01*
X343650D02*X344150Y371750D01*
X346850D02*Y372750D01*
Y371750D02*X347350Y371250D01*
X348350D01*
X348850Y371750D01*
Y372750D01*
X348350Y373250D02*X348850Y372750D01*
X347350Y373250D02*X348350D01*
X346850Y372750D02*X347350Y373250D01*
X353850Y369250D02*X354350Y369750D01*
X352350Y369250D02*X353850D01*
X351850Y369750D02*X352350Y369250D01*
X351850Y369750D02*Y370750D01*
X352350Y371250D01*
X353850D01*
X354350Y371750D01*
Y372750D01*
X353850Y373250D02*X354350Y372750D01*
X352350Y373250D02*X353850D01*
X351850Y372750D02*X352350Y373250D01*
X356050Y369250D02*Y373250D01*
X357350Y369250D02*X358050Y369950D01*
Y372550D01*
X357350Y373250D02*X358050Y372550D01*
X355550Y373250D02*X357350D01*
X355550Y369250D02*X357350D01*
X359250Y371250D02*X361250D01*
X363150Y373250D02*X364450D01*
X362450Y372550D02*X363150Y373250D01*
X362450Y369950D02*Y372550D01*
Y369950D02*X363150Y369250D01*
X364450D01*
X365650Y370250D02*Y373250D01*
Y370250D02*X366350Y369250D01*
X367450D01*
X368150Y370250D01*
Y373250D01*
X365650Y371250D02*X368150D01*
X369350Y369250D02*X371350D01*
X371850Y369750D01*
Y370750D01*
X371350Y371250D02*X371850Y370750D01*
X369850Y371250D02*X371350D01*
X369850Y369250D02*Y373250D01*
X370650Y371250D02*X371850Y373250D01*
X373550Y369250D02*Y373250D01*
X374850Y369250D02*X375550Y369950D01*
Y372550D01*
X374850Y373250D02*X375550Y372550D01*
X373050Y373250D02*X374850D01*
X373050Y369250D02*X374850D01*
X237000Y326500D02*X238000D01*
X237500D02*Y330500D01*
X237000D02*X238000D01*
X241200Y326500D02*X241700Y327000D01*
X239700Y326500D02*X241200D01*
X239200Y327000D02*X239700Y326500D01*
X239200Y327000D02*Y328000D01*
X239700Y328500D01*
X241200D01*
X241700Y329000D01*
Y330000D01*
X241200Y330500D02*X241700Y330000D01*
X239700Y330500D02*X241200D01*
X239200Y330000D02*X239700Y330500D01*
X242900Y327000D02*Y330000D01*
Y327000D02*X243400Y326500D01*
X244400D01*
X244900Y327000D01*
Y330000D01*
X244400Y330500D02*X244900Y330000D01*
X243400Y330500D02*X244400D01*
X242900Y330000D02*X243400Y330500D01*
X246100Y326500D02*Y330500D01*
X248100D01*
X249300Y327500D02*Y330500D01*
Y327500D02*X250000Y326500D01*
X251100D01*
X251800Y327500D01*
Y330500D01*
X249300Y328500D02*X251800D01*
X253000Y326500D02*X255000D01*
X254000D02*Y330500D01*
X256200Y328300D02*X257700D01*
X256200Y330500D02*X258200D01*
X256200Y326500D02*Y330500D01*
Y326500D02*X258200D01*
X259900D02*Y330500D01*
X261200Y326500D02*X261900Y327200D01*
Y329800D01*
X261200Y330500D02*X261900Y329800D01*
X259400Y330500D02*X261200D01*
X259400Y326500D02*X261200D01*
X266900D02*X267400Y327000D01*
X265400Y326500D02*X266900D01*
X264900Y327000D02*X265400Y326500D01*
X264900Y327000D02*Y328000D01*
X265400Y328500D01*
X266900D01*
X267400Y329000D01*
Y330000D01*
X266900Y330500D02*X267400Y330000D01*
X265400Y330500D02*X266900D01*
X264900Y330000D02*X265400Y330500D01*
X268600Y326500D02*X270600D01*
X269600D02*Y330500D01*
X271800Y326500D02*X272800D01*
X272300D02*Y330500D01*
X271800D02*X272800D01*
X274000Y326500D02*Y330500D01*
Y326500D02*X275500Y328500D01*
X277000Y326500D01*
Y330500D01*
X278200Y326500D02*Y330000D01*
X278700Y330500D01*
X279700D01*
X280200Y330000D01*
Y326500D02*Y330000D01*
X281400Y326500D02*Y330500D01*
X283400D01*
X284600Y326500D02*Y330000D01*
X285100Y330500D01*
X286100D01*
X286600Y330000D01*
Y326500D02*Y330000D01*
X289800Y326500D02*X290300Y327000D01*
X288300Y326500D02*X289800D01*
X287800Y327000D02*X288300Y326500D01*
X287800Y327000D02*Y328000D01*
X288300Y328500D01*
X289800D01*
X290300Y329000D01*
Y330000D01*
X289800Y330500D02*X290300Y330000D01*
X288300Y330500D02*X289800D01*
X287800Y330000D02*X288300Y330500D01*
X86500Y258600D02*Y260600D01*
X86000Y261100D01*
X85000D02*X86000D01*
X84500Y260600D02*X85000Y261100D01*
X84500Y259100D02*Y260600D01*
X82500Y259100D02*X86500D01*
X84500Y259900D02*X82500Y261100D01*
X83000Y262300D02*X86500D01*
X83000D02*X82500Y262800D01*
Y263800D01*
X83000Y264300D01*
X86500D01*
X82500Y265500D02*X86500D01*
X82500Y268000D01*
X86500D01*
X122500Y138500D02*Y140500D01*
X122000Y141000D01*
X121000D02*X122000D01*
X120500Y140500D02*X121000Y141000D01*
X120500Y139000D02*Y140500D01*
X118500Y139000D02*X122500D01*
X120500Y139800D02*X118500Y141000D01*
X120700Y142200D02*Y143700D01*
X118500Y142200D02*Y144200D01*
Y142200D02*X122500D01*
Y144200D01*
Y147400D02*X122000Y147900D01*
X122500Y145900D02*Y147400D01*
X122000Y145400D02*X122500Y145900D01*
X121000Y145400D02*X122000D01*
X121000D02*X120500Y145900D01*
Y147400D01*
X120000Y147900D01*
X119000D02*X120000D01*
X118500Y147400D02*X119000Y147900D01*
X118500Y145900D02*Y147400D01*
X119000Y145400D02*X118500Y145900D01*
X120700Y149100D02*Y150600D01*
X118500Y149100D02*Y151100D01*
Y149100D02*X122500D01*
Y151100D01*
Y152300D02*Y154300D01*
X118500Y153300D02*X122500D01*
X86700Y180500D02*Y182500D01*
X82700Y181500D02*X86700D01*
X84900Y183700D02*Y185200D01*
X82700Y183700D02*Y185700D01*
Y183700D02*X86700D01*
Y185700D01*
Y188900D02*X86200Y189400D01*
X86700Y187400D02*Y188900D01*
X86200Y186900D02*X86700Y187400D01*
X85200Y186900D02*X86200D01*
X85200D02*X84700Y187400D01*
Y188900D01*
X84200Y189400D01*
X83200D02*X84200D01*
X82700Y188900D02*X83200Y189400D01*
X82700Y187400D02*Y188900D01*
X83200Y186900D02*X82700Y187400D01*
X86700Y190600D02*Y192600D01*
X82700Y191600D02*X86700D01*
X235100Y149000D02*X236100D01*
X235600D02*Y153000D01*
X235100D02*X236100D01*
X237300Y152500D02*X240300Y149500D01*
X241500D02*Y152500D01*
Y149500D02*X242000Y149000D01*
X243000D01*
X243500Y149500D01*
Y152500D01*
X243000Y153000D02*X243500Y152500D01*
X242000Y153000D02*X243000D01*
X241500Y152500D02*X242000Y153000D01*
X285200Y211000D02*X286500D01*
X284500Y210300D02*X285200Y211000D01*
X284500Y207700D02*Y210300D01*
Y207700D02*X285200Y207000D01*
X286500D01*
X287700Y207500D02*Y210500D01*
Y207500D02*X288200Y207000D01*
X289200D01*
X289700Y207500D01*
Y210500D01*
X289200Y211000D02*X289700Y210500D01*
X288200Y211000D02*X289200D01*
X287700Y210500D02*X288200Y211000D01*
X290900Y207000D02*Y211000D01*
Y207000D02*X292400Y209000D01*
X293900Y207000D01*
Y211000D01*
X295600Y207000D02*Y211000D01*
X295100Y207000D02*X297100D01*
X297600Y207500D01*
Y208500D01*
X297100Y209000D02*X297600Y208500D01*
X295600Y209000D02*X297100D01*
X298800Y207500D02*Y210500D01*
Y207500D02*X299300Y207000D01*
X300300D01*
X300800Y207500D01*
Y210500D01*
X300300Y211000D02*X300800Y210500D01*
X299300Y211000D02*X300300D01*
X298800Y210500D02*X299300Y211000D01*
X304000Y207000D02*X304500Y207500D01*
X302500Y207000D02*X304000D01*
X302000Y207500D02*X302500Y207000D01*
X302000Y207500D02*Y208500D01*
X302500Y209000D01*
X304000D01*
X304500Y209500D01*
Y210500D01*
X304000Y211000D02*X304500Y210500D01*
X302500Y211000D02*X304000D01*
X302000Y210500D02*X302500Y211000D01*
X305700Y208800D02*X307200D01*
X305700Y211000D02*X307700D01*
X305700Y207000D02*Y211000D01*
Y207000D02*X307700D01*
X309400D02*Y211000D01*
X310700Y207000D02*X311400Y207700D01*
Y210300D01*
X310700Y211000D02*X311400Y210300D01*
X308900Y211000D02*X310700D01*
X308900Y207000D02*X310700D01*
X314400Y207500D02*Y210500D01*
Y207500D02*X314900Y207000D01*
X315900D01*
X316400Y207500D01*
Y210500D01*
X315900Y211000D02*X316400Y210500D01*
X314900Y211000D02*X315900D01*
X314400Y210500D02*X314900Y211000D01*
X317600Y207000D02*Y211000D01*
Y207000D02*X319600D01*
X317600Y208800D02*X319100D01*
X322600Y207000D02*X324600D01*
X323600D02*Y211000D01*
X325800Y207000D02*Y211000D01*
X328300Y207000D02*Y211000D01*
X325800Y209000D02*X328300D01*
X329500Y208800D02*X331000D01*
X329500Y211000D02*X331500D01*
X329500Y207000D02*Y211000D01*
Y207000D02*X331500D01*
X334700D02*X335200Y207500D01*
X333200Y207000D02*X334700D01*
X332700Y207500D02*X333200Y207000D01*
X332700Y207500D02*Y208500D01*
X333200Y209000D01*
X334700D01*
X335200Y209500D01*
Y210500D01*
X334700Y211000D02*X335200Y210500D01*
X333200Y211000D02*X334700D01*
X332700Y210500D02*X333200Y211000D01*
X336400Y208800D02*X337900D01*
X336400Y211000D02*X338400D01*
X336400Y207000D02*Y211000D01*
Y207000D02*X338400D01*
X341900D02*Y211000D01*
X341400Y207000D02*X343400D01*
X343900Y207500D01*
Y208500D01*
X343400Y209000D02*X343900Y208500D01*
X341900Y209000D02*X343400D01*
X345100Y207000D02*X347100D01*
X347600Y207500D01*
Y208500D01*
X347100Y209000D02*X347600Y208500D01*
X345600Y209000D02*X347100D01*
X345600Y207000D02*Y211000D01*
X346400Y209000D02*X347600Y211000D01*
X348800Y207500D02*Y210500D01*
Y207500D02*X349300Y207000D01*
X350300D01*
X350800Y207500D01*
Y210500D01*
X350300Y211000D02*X350800Y210500D01*
X349300Y211000D02*X350300D01*
X348800Y210500D02*X349300Y211000D01*
X352700Y207000D02*X353500D01*
Y210500D01*
X353000Y211000D02*X353500Y210500D01*
X352500Y211000D02*X353000D01*
X352000Y210500D02*X352500Y211000D01*
X352000Y210000D02*Y210500D01*
X354700Y208800D02*X356200D01*
X354700Y211000D02*X356700D01*
X354700Y207000D02*Y211000D01*
Y207000D02*X356700D01*
X358600Y211000D02*X359900D01*
X357900Y210300D02*X358600Y211000D01*
X357900Y207700D02*Y210300D01*
Y207700D02*X358600Y207000D01*
X359900D01*
X361100D02*X363100D01*
X362100D02*Y211000D01*
X366300Y207000D02*X366800Y207500D01*
X364800Y207000D02*X366300D01*
X364300Y207500D02*X364800Y207000D01*
X364300Y207500D02*Y208500D01*
X364800Y209000D01*
X366300D01*
X366800Y209500D01*
Y210500D01*
X366300Y211000D02*X366800Y210500D01*
X364800Y211000D02*X366300D01*
X364300Y210500D02*X364800Y211000D01*
X311700Y214000D02*Y218000D01*
X311200Y214000D02*X313200D01*
X313700Y214500D01*
Y215500D01*
X313200Y216000D02*X313700Y215500D01*
X311700Y216000D02*X313200D01*
X317200Y214000D02*Y218000D01*
X318500Y214000D02*X319200Y214700D01*
Y217300D01*
X318500Y218000D02*X319200Y217300D01*
X316700Y218000D02*X318500D01*
X316700Y214000D02*X318500D01*
X320400Y215800D02*X321900D01*
X320400Y218000D02*X322400D01*
X320400Y214000D02*Y218000D01*
Y214000D02*X322400D01*
X323600D02*X324600Y218000D01*
X325600Y214000D01*
X326800Y215800D02*X328300D01*
X326800Y218000D02*X328800D01*
X326800Y214000D02*Y218000D01*
Y214000D02*X328800D01*
X330000D02*Y218000D01*
X332000D01*
X333200Y214500D02*Y217500D01*
Y214500D02*X333700Y214000D01*
X334700D01*
X335200Y214500D01*
Y217500D01*
X334700Y218000D02*X335200Y217500D01*
X333700Y218000D02*X334700D01*
X333200Y217500D02*X333700Y218000D01*
X336900Y214000D02*Y218000D01*
X336400Y214000D02*X338400D01*
X338900Y214500D01*
Y215500D01*
X338400Y216000D02*X338900Y215500D01*
X336900Y216000D02*X338400D01*
X340100Y215800D02*X341600D01*
X340100Y218000D02*X342100D01*
X340100Y214000D02*Y218000D01*
Y214000D02*X342100D01*
X343800D02*Y218000D01*
X345100Y214000D02*X345800Y214700D01*
Y217300D01*
X345100Y218000D02*X345800Y217300D01*
X343300Y218000D02*X345100D01*
X343300Y214000D02*X345100D01*
X348800Y218000D02*X350800D01*
X351300Y217500D01*
Y216300D02*Y217500D01*
X350800Y215800D02*X351300Y216300D01*
X349300Y215800D02*X350800D01*
X349300Y214000D02*Y218000D01*
X348800Y214000D02*X350800D01*
X351300Y214500D01*
Y215300D01*
X350800Y215800D02*X351300Y215300D01*
X352500Y214000D02*X353500Y216000D01*
X354500Y214000D01*
X353500Y216000D02*Y218000D01*
X359500Y214000D02*X360000Y214500D01*
X358000Y214000D02*X359500D01*
X357500Y214500D02*X358000Y214000D01*
X357500Y214500D02*Y215500D01*
X358000Y216000D01*
X359500D01*
X360000Y216500D01*
Y217500D01*
X359500Y218000D02*X360000Y217500D01*
X358000Y218000D02*X359500D01*
X357500Y217500D02*X358000Y218000D01*
X282000Y191000D02*X284000D01*
X287000Y190800D02*X288500D01*
X287000Y193000D02*X289000D01*
X287000Y189000D02*Y193000D01*
Y189000D02*X289000D01*
X290700D02*Y193000D01*
X292000Y189000D02*X292700Y189700D01*
Y192300D01*
X292000Y193000D02*X292700Y192300D01*
X290200Y193000D02*X292000D01*
X290200Y189000D02*X292000D01*
X293900D02*Y191000D01*
X294400Y193000D01*
X295400Y191000D01*
X296400Y193000D01*
X296900Y191000D01*
Y189000D02*Y191000D01*
X298100Y189000D02*X299100D01*
X298600D02*Y193000D01*
X298100D02*X299100D01*
X300300Y189000D02*Y193000D01*
Y189000D02*X302800Y193000D01*
Y189000D02*Y193000D01*
X305800Y189000D02*Y193000D01*
X307800D01*
X309000Y190000D02*Y193000D01*
Y190000D02*X309700Y189000D01*
X310800D01*
X311500Y190000D01*
Y193000D01*
X309000Y191000D02*X311500D01*
X312700Y189000D02*Y193000D01*
Y189000D02*X315200Y193000D01*
Y189000D02*Y193000D01*
X316900Y189000D02*Y193000D01*
X318200Y189000D02*X318900Y189700D01*
Y192300D01*
X318200Y193000D02*X318900Y192300D01*
X316400Y193000D02*X318200D01*
X316400Y189000D02*X318200D01*
X285200Y232000D02*X286500D01*
X284500Y231300D02*X285200Y232000D01*
X284500Y228700D02*Y231300D01*
Y228700D02*X285200Y228000D01*
X286500D01*
X287700Y228500D02*Y231500D01*
Y228500D02*X288200Y228000D01*
X289200D01*
X289700Y228500D01*
Y231500D01*
X289200Y232000D02*X289700Y231500D01*
X288200Y232000D02*X289200D01*
X287700Y231500D02*X288200Y232000D01*
X291600D02*X292900D01*
X290900Y231300D02*X291600Y232000D01*
X290900Y228700D02*Y231300D01*
Y228700D02*X291600Y228000D01*
X292900D01*
X294100D02*Y232000D01*
X296600Y228000D02*Y232000D01*
X294100Y230000D02*X296600D01*
X297800Y228000D02*Y232000D01*
X299800D01*
X301000Y229800D02*X302500D01*
X301000Y232000D02*X303000D01*
X301000Y228000D02*Y232000D01*
Y228000D02*X303000D01*
X304200Y229000D02*Y232000D01*
Y229000D02*X304900Y228000D01*
X306000D01*
X306700Y229000D01*
Y232000D01*
X304200Y230000D02*X306700D01*
X307900Y228000D02*X309900D01*
X310400Y228500D01*
Y229500D01*
X309900Y230000D02*X310400Y229500D01*
X308400Y230000D02*X309900D01*
X308400Y228000D02*Y232000D01*
X309200Y230000D02*X310400Y232000D01*
X313400Y228000D02*X314400D01*
X313900D02*Y232000D01*
X313400D02*X314400D01*
X315600Y228000D02*Y232000D01*
Y228000D02*X317100Y230000D01*
X318600Y228000D01*
Y232000D01*
X320300Y228000D02*Y232000D01*
X319800Y228000D02*X321800D01*
X322300Y228500D01*
Y229500D01*
X321800Y230000D02*X322300Y229500D01*
X320300Y230000D02*X321800D01*
X323500Y228000D02*Y232000D01*
X325500D01*
X326700Y229000D02*Y232000D01*
Y229000D02*X327400Y228000D01*
X328500D01*
X329200Y229000D01*
Y232000D01*
X326700Y230000D02*X329200D01*
X330400Y228000D02*Y232000D01*
Y228000D02*X332900Y232000D01*
Y228000D02*Y232000D01*
X334100Y228000D02*X336100D01*
X335100D02*Y232000D01*
X339600Y228000D02*Y232000D01*
X339100Y228000D02*X341100D01*
X341600Y228500D01*
Y229500D01*
X341100Y230000D02*X341600Y229500D01*
X339600Y230000D02*X341100D01*
X342800Y228000D02*X344800D01*
X345300Y228500D01*
Y229500D01*
X344800Y230000D02*X345300Y229500D01*
X343300Y230000D02*X344800D01*
X343300Y228000D02*Y232000D01*
X344100Y230000D02*X345300Y232000D01*
X346500Y228500D02*Y231500D01*
Y228500D02*X347000Y228000D01*
X348000D01*
X348500Y228500D01*
Y231500D01*
X348000Y232000D02*X348500Y231500D01*
X347000Y232000D02*X348000D01*
X346500Y231500D02*X347000Y232000D01*
X350400D02*X351700D01*
X349700Y231300D02*X350400Y232000D01*
X349700Y228700D02*Y231300D01*
Y228700D02*X350400Y228000D01*
X351700D01*
X352900Y229800D02*X354400D01*
X352900Y232000D02*X354900D01*
X352900Y228000D02*Y232000D01*
Y228000D02*X354900D01*
X358100D02*X358600Y228500D01*
X356600Y228000D02*X358100D01*
X356100Y228500D02*X356600Y228000D01*
X356100Y228500D02*Y229500D01*
X356600Y230000D01*
X358100D01*
X358600Y230500D01*
Y231500D01*
X358100Y232000D02*X358600Y231500D01*
X356600Y232000D02*X358100D01*
X356100Y231500D02*X356600Y232000D01*
X361800Y228000D02*X362300Y228500D01*
X360300Y228000D02*X361800D01*
X359800Y228500D02*X360300Y228000D01*
X359800Y228500D02*Y229500D01*
X360300Y230000D01*
X361800D01*
X362300Y230500D01*
Y231500D01*
X361800Y232000D02*X362300Y231500D01*
X360300Y232000D02*X361800D01*
X359800Y231500D02*X360300Y232000D01*
X363500Y228500D02*Y231500D01*
Y228500D02*X364000Y228000D01*
X365000D01*
X365500Y228500D01*
Y231500D01*
X365000Y232000D02*X365500Y231500D01*
X364000Y232000D02*X365000D01*
X363500Y231500D02*X364000Y232000D01*
X366700Y228000D02*X368700D01*
X369200Y228500D01*
Y229500D01*
X368700Y230000D02*X369200Y229500D01*
X367200Y230000D02*X368700D01*
X367200Y228000D02*Y232000D01*
X368000Y230000D02*X369200Y232000D01*
X284600Y256100D02*X285600D01*
X285100D02*Y260100D01*
X284600D02*X285600D01*
X286800Y256100D02*Y260100D01*
Y256100D02*X288300Y258100D01*
X289800Y256100D01*
Y260100D01*
X291500Y256100D02*Y260100D01*
X291000Y256100D02*X293000D01*
X293500Y256600D01*
Y257600D01*
X293000Y258100D02*X293500Y257600D01*
X291500Y258100D02*X293000D01*
X294700Y256100D02*Y260100D01*
X296700D01*
X297900Y257100D02*Y260100D01*
Y257100D02*X298600Y256100D01*
X299700D01*
X300400Y257100D01*
Y260100D01*
X297900Y258100D02*X300400D01*
X301600Y256100D02*Y260100D01*
Y256100D02*X304100Y260100D01*
Y256100D02*Y260100D01*
X305300Y256100D02*X307300D01*
X306300D02*Y260100D01*
X310800Y256100D02*Y260100D01*
X310300Y256100D02*X312300D01*
X312800Y256600D01*
Y257600D01*
X312300Y258100D02*X312800Y257600D01*
X310800Y258100D02*X312300D01*
X314000Y256100D02*X316000D01*
X316500Y256600D01*
Y257600D01*
X316000Y258100D02*X316500Y257600D01*
X314500Y258100D02*X316000D01*
X314500Y256100D02*Y260100D01*
X315300Y258100D02*X316500Y260100D01*
X317700Y256600D02*Y259600D01*
Y256600D02*X318200Y256100D01*
X319200D01*
X319700Y256600D01*
Y259600D01*
X319200Y260100D02*X319700Y259600D01*
X318200Y260100D02*X319200D01*
X317700Y259600D02*X318200Y260100D01*
X321600D02*X322900D01*
X320900Y259400D02*X321600Y260100D01*
X320900Y256800D02*Y259400D01*
Y256800D02*X321600Y256100D01*
X322900D01*
X324100Y257900D02*X325600D01*
X324100Y260100D02*X326100D01*
X324100Y256100D02*Y260100D01*
Y256100D02*X326100D01*
X329300D02*X329800Y256600D01*
X327800Y256100D02*X329300D01*
X327300Y256600D02*X327800Y256100D01*
X327300Y256600D02*Y257600D01*
X327800Y258100D01*
X329300D01*
X329800Y258600D01*
Y259600D01*
X329300Y260100D02*X329800Y259600D01*
X327800Y260100D02*X329300D01*
X327300Y259600D02*X327800Y260100D01*
X333000Y256100D02*X333500Y256600D01*
X331500Y256100D02*X333000D01*
X331000Y256600D02*X331500Y256100D01*
X331000Y256600D02*Y257600D01*
X331500Y258100D01*
X333000D01*
X333500Y258600D01*
Y259600D01*
X333000Y260100D02*X333500Y259600D01*
X331500Y260100D02*X333000D01*
X331000Y259600D02*X331500Y260100D01*
X334700Y256600D02*Y259600D01*
Y256600D02*X335200Y256100D01*
X336200D01*
X336700Y256600D01*
Y259600D01*
X336200Y260100D02*X336700Y259600D01*
X335200Y260100D02*X336200D01*
X334700Y259600D02*X335200Y260100D01*
X337900Y256100D02*X339900D01*
X340400Y256600D01*
Y257600D01*
X339900Y258100D02*X340400Y257600D01*
X338400Y258100D02*X339900D01*
X338400Y256100D02*Y260100D01*
X339200Y258100D02*X340400Y260100D01*
X343900Y256100D02*Y260100D01*
X345200Y256100D02*X345900Y256800D01*
Y259400D01*
X345200Y260100D02*X345900Y259400D01*
X343400Y260100D02*X345200D01*
X343400Y256100D02*X345200D01*
X349100D02*X349600Y256600D01*
X347600Y256100D02*X349100D01*
X347100Y256600D02*X347600Y256100D01*
X347100Y256600D02*Y257600D01*
X347600Y258100D01*
X349100D01*
X349600Y258600D01*
Y259600D01*
X349100Y260100D02*X349600Y259600D01*
X347600Y260100D02*X349100D01*
X347100Y259600D02*X347600Y260100D01*
X351300Y256100D02*Y260100D01*
X350800Y256100D02*X352800D01*
X353300Y256600D01*
Y257600D01*
X352800Y258100D02*X353300Y257600D01*
X351300Y258100D02*X352800D01*
X284500Y249000D02*Y252000D01*
X285500Y253000D01*
X288500D01*
X289500Y249000D02*Y251500D01*
Y249000D02*X288500Y248000D01*
X285500D02*X288500D01*
X285500D02*X284500Y249000D01*
X286000Y250000D02*Y251000D01*
X286500Y251500D01*
X287500D01*
X288000Y251000D01*
X288500Y251500D01*
X288000Y249500D02*Y251000D01*
Y250000D02*X287500Y249500D01*
X286500D02*X287500D01*
X286500D02*X286000Y250000D01*
X288500Y251500D02*X289500D01*
X292500Y250800D02*X294000D01*
X292500Y253000D02*X294500D01*
X292500Y249000D02*Y253000D01*
Y249000D02*X294500D01*
X296200D02*Y253000D01*
X295700Y249000D02*X297700D01*
X298200Y249500D01*
Y250500D01*
X297700Y251000D02*X298200Y250500D01*
X296200Y251000D02*X297700D01*
X299400Y249000D02*Y253000D01*
X301400D01*
X304400Y252500D02*X304900Y253000D01*
X304400Y249500D02*X304900Y249000D01*
X304400Y249500D02*Y252500D01*
X306100Y250800D02*X307600D01*
X306100Y253000D02*X308100D01*
X306100Y249000D02*Y253000D01*
Y249000D02*X308100D01*
X309300Y250000D02*Y253000D01*
Y250000D02*X310000Y249000D01*
X311100D01*
X311800Y250000D01*
Y253000D01*
X309300Y251000D02*X311800D01*
X313000Y249000D02*X315000D01*
X314000D02*Y253000D01*
X316200Y249500D02*Y252500D01*
Y249500D02*X316700Y249000D01*
X317700D01*
X318200Y249500D01*
Y252500D01*
X317700Y253000D02*X318200Y252500D01*
X316700Y253000D02*X317700D01*
X316200Y252500D02*X316700Y253000D01*
X319400Y249000D02*Y253000D01*
Y249000D02*X321900Y253000D01*
Y249000D02*Y253000D01*
X325400Y249000D02*Y253000D01*
X324900Y249000D02*X326900D01*
X327400Y249500D01*
Y250500D01*
X326900Y251000D02*X327400Y250500D01*
X325400Y251000D02*X326900D01*
X328600Y250800D02*X330100D01*
X328600Y253000D02*X330600D01*
X328600Y249000D02*Y253000D01*
Y249000D02*X330600D01*
X331800Y250000D02*Y253000D01*
Y250000D02*X332500Y249000D01*
X333600D01*
X334300Y250000D01*
Y253000D01*
X331800Y251000D02*X334300D01*
X335500Y253000D02*X337500D01*
X338000Y252500D01*
Y251300D02*Y252500D01*
X337500Y250800D02*X338000Y251300D01*
X336000Y250800D02*X337500D01*
X336000Y249000D02*Y253000D01*
X335500Y249000D02*X337500D01*
X338000Y249500D01*
Y250300D01*
X337500Y250800D02*X338000Y250300D01*
X339200Y249500D02*Y252500D01*
Y249500D02*X339700Y249000D01*
X340700D01*
X341200Y249500D01*
Y252500D01*
X340700Y253000D02*X341200Y252500D01*
X339700Y253000D02*X340700D01*
X339200Y252500D02*X339700Y253000D01*
X342900Y249000D02*Y253000D01*
X344200Y249000D02*X344900Y249700D01*
Y252300D01*
X344200Y253000D02*X344900Y252300D01*
X342400Y253000D02*X344200D01*
X342400Y249000D02*X344200D01*
X346100D02*X347100Y251000D01*
X348100Y249000D01*
X347100Y251000D02*Y253000D01*
X351100Y249000D02*Y253000D01*
X353100D01*
X354300Y250000D02*Y253000D01*
Y250000D02*X355000Y249000D01*
X356100D01*
X356800Y250000D01*
Y253000D01*
X354300Y251000D02*X356800D01*
X358000Y253000D02*X360000D01*
X360500Y252500D01*
Y251300D02*Y252500D01*
X360000Y250800D02*X360500Y251300D01*
X358500Y250800D02*X360000D01*
X358500Y249000D02*Y253000D01*
X358000Y249000D02*X360000D01*
X360500Y249500D01*
Y250300D01*
X360000Y250800D02*X360500Y250300D01*
X361700Y249000D02*X362200Y249500D01*
Y252500D01*
X361700Y253000D02*X362200Y252500D01*
X284600Y267100D02*X286600D01*
X287100Y266600D01*
Y265400D02*Y266600D01*
X286600Y264900D02*X287100Y265400D01*
X285100Y264900D02*X286600D01*
X285100Y263100D02*Y267100D01*
X284600Y263100D02*X286600D01*
X287100Y263600D01*
Y264400D01*
X286600Y264900D02*X287100Y264400D01*
X288300Y263100D02*X289300Y265100D01*
X290300Y263100D01*
X289300Y265100D02*Y267100D01*
X293300Y264900D02*X294800D01*
X293300Y267100D02*X295300D01*
X293300Y263100D02*Y267100D01*
Y263100D02*X295300D01*
X296500D02*X297500Y267100D01*
X298500Y263100D01*
X299700Y264100D02*Y267100D01*
Y264100D02*X300400Y263100D01*
X301500D01*
X302200Y264100D01*
Y267100D01*
X299700Y265100D02*X302200D01*
X303400Y263100D02*Y267100D01*
Y263100D02*X305900Y267100D01*
Y263100D02*Y267100D01*
X308900Y263100D02*Y267100D01*
Y263100D02*X310900D01*
X308900Y264900D02*X310400D01*
X312100Y263600D02*Y266600D01*
Y263600D02*X312600Y263100D01*
X313600D01*
X314100Y263600D01*
Y266600D01*
X313600Y267100D02*X314100Y266600D01*
X312600Y267100D02*X313600D01*
X312100Y266600D02*X312600Y267100D01*
X317300Y263100D02*X317800Y263600D01*
X315800Y263100D02*X317300D01*
X315300Y263600D02*X315800Y263100D01*
X315300Y263600D02*Y264600D01*
X315800Y265100D01*
X317300D01*
X317800Y265600D01*
Y266600D01*
X317300Y267100D02*X317800Y266600D01*
X315800Y267100D02*X317300D01*
X315300Y266600D02*X315800Y267100D01*
X321000Y263100D02*X321500Y263600D01*
X319500Y263100D02*X321000D01*
X319000Y263600D02*X319500Y263100D01*
X319000Y263600D02*Y264600D01*
X319500Y265100D01*
X321000D01*
X321500Y265600D01*
Y266600D01*
X321000Y267100D02*X321500Y266600D01*
X319500Y267100D02*X321000D01*
X319000Y266600D02*X319500Y267100D01*
X324500Y263100D02*Y266100D01*
X325500Y267100D01*
X328500D01*
X329500Y263100D02*Y265600D01*
Y263100D02*X328500Y262100D01*
X325500D02*X328500D01*
X325500D02*X324500Y263100D01*
X326000Y264100D02*Y265100D01*
X326500Y265600D01*
X327500D01*
X328000Y265100D01*
X328500Y265600D01*
X328000Y263600D02*Y265100D01*
Y264100D02*X327500Y263600D01*
X326500D02*X327500D01*
X326500D02*X326000Y264100D01*
X328500Y265600D02*X329500D01*
X332500Y264900D02*X334000D01*
X332500Y267100D02*X334500D01*
X332500Y263100D02*Y267100D01*
Y263100D02*X334500D01*
X336200D02*Y267100D01*
X335700Y263100D02*X337700D01*
X338200Y263600D01*
Y264600D01*
X337700Y265100D02*X338200Y264600D01*
X336200Y265100D02*X337700D01*
X339400Y263100D02*Y267100D01*
X341400D01*
X284600Y270600D02*X285100Y270100D01*
X286600D01*
X287100Y270600D01*
Y271600D01*
X284600Y274100D02*X287100Y271600D01*
X284600Y274100D02*X287100D01*
X288300Y273600D02*X288800Y274100D01*
X288300Y270600D02*Y273600D01*
Y270600D02*X288800Y270100D01*
X289800D01*
X290300Y270600D01*
Y273600D01*
X289800Y274100D02*X290300Y273600D01*
X288800Y274100D02*X289800D01*
X288300Y273100D02*X290300Y271100D01*
X291500Y270900D02*X292300Y270100D01*
Y274100D01*
X291500D02*X293000D01*
X294200Y272600D02*X296200Y270100D01*
X294200Y272600D02*X296700D01*
X296200Y270100D02*Y274100D01*
X297900D02*X298400D01*
X299600Y273600D02*X300100Y274100D01*
X299600Y270600D02*Y273600D01*
Y270600D02*X300100Y270100D01*
X301100D01*
X301600Y270600D01*
Y273600D01*
X301100Y274100D02*X301600Y273600D01*
X300100Y274100D02*X301100D01*
X299600Y273100D02*X301600Y271100D01*
X302800Y270900D02*X303600Y270100D01*
Y274100D01*
X302800D02*X304300D01*
X305500D02*X306000D01*
X307200Y273600D02*X307700Y274100D01*
X307200Y270600D02*Y273600D01*
Y270600D02*X307700Y270100D01*
X308700D01*
X309200Y270600D01*
Y273600D01*
X308700Y274100D02*X309200Y273600D01*
X307700Y274100D02*X308700D01*
X307200Y273100D02*X309200Y271100D01*
X310900Y274100D02*X312900Y270100D01*
X310400D02*X312900D01*
X410500Y191000D02*Y195000D01*
X410000Y191000D02*X412000D01*
X412500Y191500D01*
Y192500D01*
X412000Y193000D02*X412500Y192500D01*
X410500Y193000D02*X412000D01*
X413700Y191500D02*Y194500D01*
Y191500D02*X414200Y191000D01*
X415200D01*
X415700Y191500D01*
Y194500D01*
X415200Y195000D02*X415700Y194500D01*
X414200Y195000D02*X415200D01*
X413700Y194500D02*X414200Y195000D01*
X416900Y191000D02*Y193000D01*
X417400Y195000D01*
X418400Y193000D01*
X419400Y195000D01*
X419900Y193000D01*
Y191000D02*Y193000D01*
X421100Y192800D02*X422600D01*
X421100Y195000D02*X423100D01*
X421100Y191000D02*Y195000D01*
Y191000D02*X423100D01*
X424300D02*X426300D01*
X426800Y191500D01*
Y192500D01*
X426300Y193000D02*X426800Y192500D01*
X424800Y193000D02*X426300D01*
X424800Y191000D02*Y195000D01*
X425600Y193000D02*X426800Y195000D01*
X416910Y223856D02*Y227856D01*
X416410Y223856D02*X418410D01*
X418910Y224356D01*
Y225356D01*
X418410Y225856D02*X418910Y225356D01*
X416910Y225856D02*X418410D01*
X420110Y224356D02*Y227356D01*
Y224356D02*X420610Y223856D01*
X421610D01*
X422110Y224356D01*
Y227356D01*
X421610Y227856D02*X422110Y227356D01*
X420610Y227856D02*X421610D01*
X420110Y227356D02*X420610Y227856D01*
X423310Y223856D02*Y225856D01*
X423810Y227856D01*
X424810Y225856D01*
X425810Y227856D01*
X426310Y225856D01*
Y223856D02*Y225856D01*
X427510Y225656D02*X429010D01*
X427510Y227856D02*X429510D01*
X427510Y223856D02*Y227856D01*
Y223856D02*X429510D01*
X430710D02*X432710D01*
X433210Y224356D01*
Y225356D01*
X432710Y225856D02*X433210Y225356D01*
X431210Y225856D02*X432710D01*
X431210Y223856D02*Y227856D01*
X432010Y225856D02*X433210Y227856D01*
X336850Y282750D02*Y286750D01*
Y282750D02*X338350Y284750D01*
X339850Y282750D01*
Y286750D01*
X341050Y283750D02*Y283850D01*
Y285250D02*Y286750D01*
X342550Y284750D02*X344050D01*
X342050Y285250D02*X342550Y284750D01*
X342050Y285250D02*Y286250D01*
X342550Y286750D01*
X344050D01*
X345750Y285250D02*Y286750D01*
Y285250D02*X346250Y284750D01*
X347250D01*
X345250D02*X345750Y285250D01*
X348450D02*Y286250D01*
Y285250D02*X348950Y284750D01*
X349950D01*
X350450Y285250D01*
Y286250D01*
X349950Y286750D02*X350450Y286250D01*
X348950Y286750D02*X349950D01*
X348450Y286250D02*X348950Y286750D01*
X355450Y282750D02*X355950Y283250D01*
X353950Y282750D02*X355450D01*
X353450Y283250D02*X353950Y282750D01*
X353450Y283250D02*Y284250D01*
X353950Y284750D01*
X355450D01*
X355950Y285250D01*
Y286250D01*
X355450Y286750D02*X355950Y286250D01*
X353950Y286750D02*X355450D01*
X353450Y286250D02*X353950Y286750D01*
X357650Y282750D02*Y286750D01*
X358950Y282750D02*X359650Y283450D01*
Y286050D01*
X358950Y286750D02*X359650Y286050D01*
X357150Y286750D02*X358950D01*
X357150Y282750D02*X358950D01*
X360850Y284750D02*X362850D01*
X364750Y286750D02*X366050D01*
X364050Y286050D02*X364750Y286750D01*
X364050Y283450D02*Y286050D01*
Y283450D02*X364750Y282750D01*
X366050D01*
X367250Y283750D02*Y286750D01*
Y283750D02*X367950Y282750D01*
X369050D01*
X369750Y283750D01*
Y286750D01*
X367250Y284750D02*X369750D01*
X370950Y282750D02*X372950D01*
X373450Y283250D01*
Y284250D01*
X372950Y284750D02*X373450Y284250D01*
X371450Y284750D02*X372950D01*
X371450Y282750D02*Y286750D01*
X372250Y284750D02*X373450Y286750D01*
X375150Y282750D02*Y286750D01*
X376450Y282750D02*X377150Y283450D01*
Y286050D01*
X376450Y286750D02*X377150Y286050D01*
X374650Y286750D02*X376450D01*
X374650Y282750D02*X376450D01*
X285000Y131000D02*Y134500D01*
X285500Y135000D01*
X286500D01*
X287000Y134500D01*
Y131000D02*Y134500D01*
X288200Y131000D02*X290200D01*
X289200D02*Y135000D01*
X291900Y131000D02*Y135000D01*
X293200Y131000D02*X293900Y131700D01*
Y134300D01*
X293200Y135000D02*X293900Y134300D01*
X291400Y135000D02*X293200D01*
X291400Y131000D02*X293200D01*
X295100Y133000D02*X297100D01*
X300300Y131000D02*X300800Y131500D01*
X298800Y131000D02*X300300D01*
X298300Y131500D02*X298800Y131000D01*
X298300Y131500D02*Y132500D01*
X298800Y133000D01*
X300300D01*
X300800Y133500D01*
Y134500D01*
X300300Y135000D02*X300800Y134500D01*
X298800Y135000D02*X300300D01*
X298300Y134500D02*X298800Y135000D01*
X302000Y131500D02*X302500Y131000D01*
X304000D01*
X304500Y131500D01*
Y132500D01*
X302000Y135000D02*X304500Y132500D01*
X302000Y135000D02*X304500D01*
X280000Y136500D02*Y140000D01*
X280500Y140500D01*
X281500D01*
X282000Y140000D01*
Y136500D02*Y140000D01*
X283200Y136500D02*X285200D01*
X284200D02*Y140500D01*
X286900Y136500D02*Y140500D01*
X288200Y136500D02*X288900Y137200D01*
Y139800D01*
X288200Y140500D02*X288900Y139800D01*
X286400Y140500D02*X288200D01*
X286400Y136500D02*X288200D01*
X290100Y138500D02*X292100D01*
X293300Y136500D02*X295300D01*
X295800Y137000D01*
Y138000D01*
X295300Y138500D02*X295800Y138000D01*
X293800Y138500D02*X295300D01*
X293800Y136500D02*Y140500D01*
X294600Y138500D02*X295800Y140500D01*
X297000Y138300D02*X298500D01*
X297000Y140500D02*X299000D01*
X297000Y136500D02*Y140500D01*
Y136500D02*X299000D01*
X302200D02*X302700Y137000D01*
X300700Y136500D02*X302200D01*
X300200Y137000D02*X300700Y136500D01*
X300200Y137000D02*Y138000D01*
X300700Y138500D01*
X302200D01*
X302700Y139000D01*
Y140000D01*
X302200Y140500D02*X302700Y140000D01*
X300700Y140500D02*X302200D01*
X300200Y140000D02*X300700Y140500D01*
X303900Y138300D02*X305400D01*
X303900Y140500D02*X305900D01*
X303900Y136500D02*Y140500D01*
Y136500D02*X305900D01*
X307100D02*X309100D01*
X308100D02*Y140500D01*
X369000Y134500D02*Y138500D01*
X371000D01*
X372200Y136300D02*X373700D01*
X372200Y138500D02*X374200D01*
X372200Y134500D02*Y138500D01*
Y134500D02*X374200D01*
X375900D02*Y138500D01*
X377200Y134500D02*X377900Y135200D01*
Y137800D01*
X377200Y138500D02*X377900Y137800D01*
X375400Y138500D02*X377200D01*
X375400Y134500D02*X377200D01*
X379100Y137000D02*X381100Y134500D01*
X379100Y137000D02*X381600D01*
X381100Y134500D02*Y138500D01*
X382800Y138000D02*X383300Y138500D01*
X382800Y135000D02*Y138000D01*
Y135000D02*X383300Y134500D01*
X384300D01*
X384800Y135000D01*
Y138000D01*
X384300Y138500D02*X384800Y138000D01*
X383300Y138500D02*X384300D01*
X382800Y137500D02*X384800Y135500D01*
X386000Y138000D02*X386500Y138500D01*
X386000Y135000D02*Y138000D01*
Y135000D02*X386500Y134500D01*
X387500D01*
X388000Y135000D01*
Y138000D01*
X387500Y138500D02*X388000Y138000D01*
X386500Y138500D02*X387500D01*
X386000Y137500D02*X388000Y135500D01*
X284500Y221000D02*Y224000D01*
X285500Y225000D01*
X288500D01*
X289500Y221000D02*Y223500D01*
Y221000D02*X288500Y220000D01*
X285500D02*X288500D01*
X285500D02*X284500Y221000D01*
X286000Y222000D02*Y223000D01*
X286500Y223500D01*
X287500D01*
X288000Y223000D01*
X288500Y223500D01*
X288000Y221500D02*Y223000D01*
Y222000D02*X287500Y221500D01*
X286500D02*X287500D01*
X286500D02*X286000Y222000D01*
X288500Y223500D02*X289500D01*
X292500Y221000D02*Y224500D01*
X293000Y225000D01*
X294000D01*
X294500Y224500D01*
Y221000D02*Y224500D01*
X295700Y221000D02*X297700D01*
X296700D02*Y225000D01*
X299400Y221000D02*Y225000D01*
X300700Y221000D02*X301400Y221700D01*
Y224300D01*
X300700Y225000D02*X301400Y224300D01*
X298900Y225000D02*X300700D01*
X298900Y221000D02*X300700D01*
X304400Y224500D02*X304900Y225000D01*
X304400Y221500D02*X304900Y221000D01*
X304400Y221500D02*Y224500D01*
X306100Y221000D02*Y224500D01*
X306600Y225000D01*
X307600D01*
X308100Y224500D01*
Y221000D02*Y224500D01*
X309300Y221000D02*Y225000D01*
Y221000D02*X311800Y225000D01*
Y221000D02*Y225000D01*
X313000Y221000D02*X314000D01*
X313500D02*Y225000D01*
X313000D02*X314000D01*
X315200Y221000D02*X316200Y225000D01*
X317200Y221000D01*
X318400Y222800D02*X319900D01*
X318400Y225000D02*X320400D01*
X318400Y221000D02*Y225000D01*
Y221000D02*X320400D01*
X321600D02*X323600D01*
X324100Y221500D01*
Y222500D01*
X323600Y223000D02*X324100Y222500D01*
X322100Y223000D02*X323600D01*
X322100Y221000D02*Y225000D01*
X322900Y223000D02*X324100Y225000D01*
X327300Y221000D02*X327800Y221500D01*
X325800Y221000D02*X327300D01*
X325300Y221500D02*X325800Y221000D01*
X325300Y221500D02*Y222500D01*
X325800Y223000D01*
X327300D01*
X327800Y223500D01*
Y224500D01*
X327300Y225000D02*X327800Y224500D01*
X325800Y225000D02*X327300D01*
X325300Y224500D02*X325800Y225000D01*
X329000Y221000D02*X330000D01*
X329500D02*Y225000D01*
X329000D02*X330000D01*
X331200Y221000D02*X333200D01*
X332200D02*Y225000D01*
X334400Y221000D02*X335400Y223000D01*
X336400Y221000D01*
X335400Y223000D02*Y225000D01*
X339400Y221000D02*X341400D01*
X340400D02*Y225000D01*
X342600Y222800D02*X344100D01*
X342600Y225000D02*X344600D01*
X342600Y221000D02*Y225000D01*
Y221000D02*X344600D01*
X345800Y225000D02*X348300Y221000D01*
X345800D02*X348300Y225000D01*
X349500Y222000D02*Y225000D01*
Y222000D02*X350200Y221000D01*
X351300D01*
X352000Y222000D01*
Y225000D01*
X349500Y223000D02*X352000D01*
X355200Y221000D02*X355700Y221500D01*
X353700Y221000D02*X355200D01*
X353200Y221500D02*X353700Y221000D01*
X353200Y221500D02*Y222500D01*
X353700Y223000D01*
X355200D01*
X355700Y223500D01*
Y224500D01*
X355200Y225000D02*X355700Y224500D01*
X353700Y225000D02*X355200D01*
X353200Y224500D02*X353700Y225000D01*
X359200Y221000D02*Y225000D01*
X360500Y221000D02*X361200Y221700D01*
Y224300D01*
X360500Y225000D02*X361200Y224300D01*
X358700Y225000D02*X360500D01*
X358700Y221000D02*X360500D01*
X362400Y222000D02*Y225000D01*
Y222000D02*X363100Y221000D01*
X364200D01*
X364900Y222000D01*
Y225000D01*
X362400Y223000D02*X364900D01*
X366100Y221000D02*Y225000D01*
X368100D01*
X369300Y221000D02*Y225000D01*
X371300D01*
X372500Y222000D02*Y225000D01*
Y222000D02*X373200Y221000D01*
X374300D01*
X375000Y222000D01*
Y225000D01*
X372500Y223000D02*X375000D01*
X378200Y221000D02*X378700Y221500D01*
X376700Y221000D02*X378200D01*
X376200Y221500D02*X376700Y221000D01*
X376200Y221500D02*Y222500D01*
X376700Y223000D01*
X378200D01*
X378700Y223500D01*
Y224500D01*
X378200Y225000D02*X378700Y224500D01*
X376700Y225000D02*X378200D01*
X376200Y224500D02*X376700Y225000D01*
X379900Y221000D02*X380400Y221500D01*
Y224500D01*
X379900Y225000D02*X380400Y224500D01*
X284500Y239000D02*X286500D01*
X287000Y238500D01*
Y237300D02*Y238500D01*
X286500Y236800D02*X287000Y237300D01*
X285000Y236800D02*X286500D01*
X285000Y235000D02*Y239000D01*
X284500Y235000D02*X286500D01*
X287000Y235500D01*
Y236300D01*
X286500Y236800D02*X287000Y236300D01*
X288200Y235000D02*X289200Y237000D01*
X290200Y235000D01*
X289200Y237000D02*Y239000D01*
X293700Y235000D02*Y239000D01*
X293200Y235000D02*X295200D01*
X295700Y235500D01*
Y236500D01*
X295200Y237000D02*X295700Y236500D01*
X293700Y237000D02*X295200D01*
X296900Y235000D02*Y239000D01*
X299400Y235000D02*Y239000D01*
X296900Y237000D02*X299400D01*
X300600Y235000D02*X301600D01*
X301100D02*Y239000D01*
X300600D02*X301600D01*
X302800Y235000D02*Y239000D01*
X304800D01*
X306000Y235000D02*X307000D01*
X306500D02*Y239000D01*
X306000D02*X307000D01*
X308700Y235000D02*Y239000D01*
X308200Y235000D02*X310200D01*
X310700Y235500D01*
Y236500D01*
X310200Y237000D02*X310700Y236500D01*
X308700Y237000D02*X310200D01*
X313700Y235000D02*Y239000D01*
X315700D01*
X316900Y235500D02*Y238500D01*
Y235500D02*X317400Y235000D01*
X318400D01*
X318900Y235500D01*
Y238500D01*
X318400Y239000D02*X318900Y238500D01*
X317400Y239000D02*X318400D01*
X316900Y238500D02*X317400Y239000D01*
X320100Y235000D02*X321100D01*
X320600D02*Y239000D01*
X320100D02*X321100D01*
X322300Y235000D02*X324800D01*
X322300Y239000D02*X324800Y235000D01*
X322300Y239000D02*X324800D01*
X326000Y235500D02*Y238500D01*
Y235500D02*X326500Y235000D01*
X327500D01*
X328000Y235500D01*
Y238500D01*
X327500Y239000D02*X328000Y238500D01*
X326500Y239000D02*X327500D01*
X326000Y238500D02*X326500Y239000D01*
X329200Y235000D02*Y238500D01*
X329700Y239000D01*
X330700D01*
X331200Y238500D01*
Y235000D02*Y238500D01*
X332400Y236000D02*X333400Y235000D01*
X336600D02*X337100Y235500D01*
X335100Y235000D02*X336600D01*
X334600Y235500D02*X335100Y235000D01*
X334600Y235500D02*Y236500D01*
X335100Y237000D01*
X336600D01*
X337100Y237500D01*
Y238500D01*
X336600Y239000D02*X337100Y238500D01*
X335100Y239000D02*X336600D01*
X334600Y238500D02*X335100Y239000D01*
X342100Y235000D02*X342600Y235500D01*
X340600Y235000D02*X342100D01*
X340100Y235500D02*X340600Y235000D01*
X340100Y235500D02*Y238500D01*
X340600Y239000D01*
X342100D01*
X342600Y238500D01*
Y237500D02*Y238500D01*
X342100Y237000D02*X342600Y237500D01*
X341100Y237000D02*X342100D01*
X343800Y235000D02*X345800D01*
X346300Y235500D01*
Y236500D01*
X345800Y237000D02*X346300Y236500D01*
X344300Y237000D02*X345800D01*
X344300Y235000D02*Y239000D01*
X345100Y237000D02*X346300Y239000D01*
X347500Y235500D02*Y238500D01*
Y235500D02*X348000Y235000D01*
X349000D01*
X349500Y235500D01*
Y238500D01*
X349000Y239000D02*X349500Y238500D01*
X348000Y239000D02*X349000D01*
X347500Y238500D02*X348000Y239000D01*
X350700Y235000D02*Y238500D01*
X351200Y239000D01*
X352200D01*
X352700Y238500D01*
Y235000D02*Y238500D01*
X354400Y235000D02*Y239000D01*
X353900Y235000D02*X355900D01*
X356400Y235500D01*
Y236500D01*
X355900Y237000D02*X356400Y236500D01*
X354400Y237000D02*X355900D01*
X359400Y236000D02*Y239000D01*
Y236000D02*X360100Y235000D01*
X361200D01*
X361900Y236000D01*
Y239000D01*
X359400Y237000D02*X361900D01*
X363100Y235000D02*X365100D01*
X364100D02*Y239000D01*
X368100Y235000D02*Y238500D01*
X368600Y239000D01*
X369600D01*
X370100Y238500D01*
Y235000D02*Y238500D01*
X371300Y235000D02*X373300D01*
X372300D02*Y239000D01*
X375000Y235000D02*Y239000D01*
X376300Y235000D02*X377000Y235700D01*
Y238300D01*
X376300Y239000D02*X377000Y238300D01*
X374500Y239000D02*X376300D01*
X374500Y235000D02*X376300D01*
X284500Y242000D02*X285500D01*
X285000D02*Y246000D01*
X284500D02*X285500D01*
X286700Y242000D02*Y246000D01*
Y242000D02*X289200Y246000D01*
Y242000D02*Y246000D01*
X292900D02*X294200D01*
X292200Y245300D02*X292900Y246000D01*
X292200Y242700D02*Y245300D01*
Y242700D02*X292900Y242000D01*
X294200D01*
X295400Y242500D02*Y245500D01*
Y242500D02*X295900Y242000D01*
X296900D01*
X297400Y242500D01*
Y245500D01*
X296900Y246000D02*X297400Y245500D01*
X295900Y246000D02*X296900D01*
X295400Y245500D02*X295900Y246000D01*
X298600Y242500D02*Y245500D01*
Y242500D02*X299100Y242000D01*
X300100D01*
X300600Y242500D01*
Y245500D01*
X300100Y246000D02*X300600Y245500D01*
X299100Y246000D02*X300100D01*
X298600Y245500D02*X299100Y246000D01*
X301800Y242000D02*X303800D01*
X304300Y242500D01*
Y243500D01*
X303800Y244000D02*X304300Y243500D01*
X302300Y244000D02*X303800D01*
X302300Y242000D02*Y246000D01*
X303100Y244000D02*X304300Y246000D01*
X306000Y242000D02*Y246000D01*
X307300Y242000D02*X308000Y242700D01*
Y245300D01*
X307300Y246000D02*X308000Y245300D01*
X305500Y246000D02*X307300D01*
X305500Y242000D02*X307300D01*
X309200D02*X310200D01*
X309700D02*Y246000D01*
X309200D02*X310200D01*
X311400Y242000D02*Y246000D01*
Y242000D02*X313900Y246000D01*
Y242000D02*Y246000D01*
X315100Y243000D02*Y246000D01*
Y243000D02*X315800Y242000D01*
X316900D01*
X317600Y243000D01*
Y246000D01*
X315100Y244000D02*X317600D01*
X318800Y242000D02*X320800D01*
X319800D02*Y246000D01*
X322000Y242000D02*X323000D01*
X322500D02*Y246000D01*
X322000D02*X323000D01*
X324200Y242500D02*Y245500D01*
Y242500D02*X324700Y242000D01*
X325700D01*
X326200Y242500D01*
Y245500D01*
X325700Y246000D02*X326200Y245500D01*
X324700Y246000D02*X325700D01*
X324200Y245500D02*X324700Y246000D01*
X327400Y242000D02*Y246000D01*
Y242000D02*X329900Y246000D01*
Y242000D02*Y246000D01*
X332900Y242000D02*Y244000D01*
X333400Y246000D01*
X334400Y244000D01*
X335400Y246000D01*
X335900Y244000D01*
Y242000D02*Y244000D01*
X337100Y242000D02*X338100D01*
X337600D02*Y246000D01*
X337100D02*X338100D01*
X339300Y242000D02*X341300D01*
X340300D02*Y246000D01*
X342500Y242000D02*Y246000D01*
X345000Y242000D02*Y246000D01*
X342500Y244000D02*X345000D01*
X348000Y243800D02*X349500D01*
X348000Y246000D02*X350000D01*
X348000Y242000D02*Y246000D01*
Y242000D02*X350000D01*
X351200D02*X352200Y246000D01*
X353200Y242000D01*
X354400Y243000D02*Y246000D01*
Y243000D02*X355100Y242000D01*
X356200D01*
X356900Y243000D01*
Y246000D01*
X354400Y244000D02*X356900D01*
X358100Y242000D02*Y246000D01*
Y242000D02*X360600Y246000D01*
Y242000D02*Y246000D01*
X363600Y242000D02*Y246000D01*
Y242000D02*X365600D01*
X363600Y243800D02*X365100D01*
X366800Y242500D02*Y245500D01*
Y242500D02*X367300Y242000D01*
X368300D01*
X368800Y242500D01*
Y245500D01*
X368300Y246000D02*X368800Y245500D01*
X367300Y246000D02*X368300D01*
X366800Y245500D02*X367300Y246000D01*
X372000Y242000D02*X372500Y242500D01*
X370500Y242000D02*X372000D01*
X370000Y242500D02*X370500Y242000D01*
X370000Y242500D02*Y243500D01*
X370500Y244000D01*
X372000D01*
X372500Y244500D01*
Y245500D01*
X372000Y246000D02*X372500Y245500D01*
X370500Y246000D02*X372000D01*
X370000Y245500D02*X370500Y246000D01*
X375700Y242000D02*X376200Y242500D01*
X374200Y242000D02*X375700D01*
X373700Y242500D02*X374200Y242000D01*
X373700Y242500D02*Y243500D01*
X374200Y244000D01*
X375700D01*
X376200Y244500D01*
Y245500D01*
X375700Y246000D02*X376200Y245500D01*
X374200Y246000D02*X375700D01*
X373700Y245500D02*X374200Y246000D01*
X318500Y140000D02*X319000Y140500D01*
X317000Y140000D02*X318500D01*
X316500Y140500D02*X317000Y140000D01*
X316500Y140500D02*Y141500D01*
X317000Y142000D01*
X318500D01*
X319000Y142500D01*
Y143500D01*
X318500Y144000D02*X319000Y143500D01*
X317000Y144000D02*X318500D01*
X316500Y143500D02*X317000Y144000D01*
X320200Y140000D02*X322200D01*
X321200D02*Y144000D01*
X323400Y141000D02*Y144000D01*
Y141000D02*X324100Y140000D01*
X325200D01*
X325900Y141000D01*
Y144000D01*
X323400Y142000D02*X325900D01*
X327100Y140000D02*X329100D01*
X328100D02*Y144000D01*
X330300Y140000D02*Y143500D01*
X330800Y144000D01*
X331800D01*
X332300Y143500D01*
Y140000D02*Y143500D01*
X335500Y140000D02*X336000Y140500D01*
X334000Y140000D02*X335500D01*
X333500Y140500D02*X334000Y140000D01*
X333500Y140500D02*Y141500D01*
X334000Y142000D01*
X335500D01*
X336000Y142500D01*
Y143500D01*
X335500Y144000D02*X336000Y143500D01*
X334000Y144000D02*X335500D01*
X333500Y143500D02*X334000Y144000D01*
X347000Y140000D02*Y144000D01*
Y140000D02*X348500Y142000D01*
X350000Y140000D01*
Y144000D01*
X351200Y140500D02*Y143500D01*
Y140500D02*X351700Y140000D01*
X352700D01*
X353200Y140500D01*
Y143500D01*
X352700Y144000D02*X353200Y143500D01*
X351700Y144000D02*X352700D01*
X351200Y143500D02*X351700Y144000D01*
X354900Y140000D02*Y144000D01*
X356200Y140000D02*X356900Y140700D01*
Y143300D01*
X356200Y144000D02*X356900Y143300D01*
X354400Y144000D02*X356200D01*
X354400Y140000D02*X356200D01*
X358100Y141800D02*X359600D01*
X358100Y144000D02*X360100D01*
X358100Y140000D02*Y144000D01*
Y140000D02*X360100D01*
X374500D02*Y144000D01*
X375800Y140000D02*X376500Y140700D01*
Y143300D01*
X375800Y144000D02*X376500Y143300D01*
X374000Y144000D02*X375800D01*
X374000Y140000D02*X375800D01*
X379700D02*X380200Y140500D01*
X378200Y140000D02*X379700D01*
X377700Y140500D02*X378200Y140000D01*
X377700Y140500D02*Y141500D01*
X378200Y142000D01*
X379700D01*
X380200Y142500D01*
Y143500D01*
X379700Y144000D02*X380200Y143500D01*
X378200Y144000D02*X379700D01*
X377700Y143500D02*X378200Y144000D01*
X381900Y140000D02*Y144000D01*
X381400Y140000D02*X383400D01*
X383900Y140500D01*
Y141500D01*
X383400Y142000D02*X383900Y141500D01*
X381900Y142000D02*X383400D01*
X282200Y177000D02*Y181000D01*
X283500Y177000D02*X284200Y177700D01*
Y180300D01*
X283500Y181000D02*X284200Y180300D01*
X281700Y181000D02*X283500D01*
X281700Y177000D02*X283500D01*
X285400Y177500D02*Y180500D01*
Y177500D02*X285900Y177000D01*
X286900D01*
X287400Y177500D01*
Y180500D01*
X286900Y181000D02*X287400Y180500D01*
X285900Y181000D02*X286900D01*
X285400Y180500D02*X285900Y181000D01*
X288600Y177000D02*Y181000D01*
Y177000D02*X291100Y181000D01*
Y177000D02*Y181000D01*
X292300Y178000D02*X293300Y177000D01*
X294500D02*X296500D01*
X295500D02*Y181000D01*
X299500Y177000D02*Y180500D01*
X300000Y181000D01*
X301000D01*
X301500Y180500D01*
Y177000D02*Y180500D01*
X302700Y177000D02*Y181000D01*
Y177000D02*X305200Y181000D01*
Y177000D02*Y181000D01*
X306900Y177000D02*Y181000D01*
X308200Y177000D02*X308900Y177700D01*
Y180300D01*
X308200Y181000D02*X308900Y180300D01*
X306400Y181000D02*X308200D01*
X306400Y177000D02*X308200D01*
X310100Y178800D02*X311600D01*
X310100Y181000D02*X312100D01*
X310100Y177000D02*Y181000D01*
Y177000D02*X312100D01*
X313300D02*X315300D01*
X315800Y177500D01*
Y178500D01*
X315300Y179000D02*X315800Y178500D01*
X313800Y179000D02*X315300D01*
X313800Y177000D02*Y181000D01*
X314600Y179000D02*X315800Y181000D01*
X317000Y177000D02*X319000D01*
X318000D02*Y181000D01*
X320200Y178000D02*Y181000D01*
Y178000D02*X320900Y177000D01*
X322000D01*
X322700Y178000D01*
Y181000D01*
X320200Y179000D02*X322700D01*
X323900Y177000D02*Y181000D01*
Y179000D02*X325900Y177000D01*
X323900Y179000D02*X325900Y181000D01*
X327100Y178800D02*X328600D01*
X327100Y181000D02*X329100D01*
X327100Y177000D02*Y181000D01*
Y177000D02*X329100D01*
X332100Y178000D02*Y181000D01*
Y178000D02*X332800Y177000D01*
X333900D01*
X334600Y178000D01*
Y181000D01*
X332100Y179000D02*X334600D01*
X338100Y177000D02*Y181000D01*
X337600Y177000D02*X339600D01*
X340100Y177500D01*
Y178500D01*
X339600Y179000D02*X340100Y178500D01*
X338100Y179000D02*X339600D01*
X341300Y177000D02*X343300D01*
X343800Y177500D01*
Y178500D01*
X343300Y179000D02*X343800Y178500D01*
X341800Y179000D02*X343300D01*
X341800Y177000D02*Y181000D01*
X342600Y179000D02*X343800Y181000D01*
X345000Y177500D02*Y180500D01*
Y177500D02*X345500Y177000D01*
X346500D01*
X347000Y177500D01*
Y180500D01*
X346500Y181000D02*X347000Y180500D01*
X345500Y181000D02*X346500D01*
X345000Y180500D02*X345500Y181000D01*
X348900Y177000D02*X349700D01*
Y180500D01*
X349200Y181000D02*X349700Y180500D01*
X348700Y181000D02*X349200D01*
X348200Y180500D02*X348700Y181000D01*
X348200Y180000D02*Y180500D01*
X350900Y178800D02*X352400D01*
X350900Y181000D02*X352900D01*
X350900Y177000D02*Y181000D01*
Y177000D02*X352900D01*
X354800Y181000D02*X356100D01*
X354100Y180300D02*X354800Y181000D01*
X354100Y177700D02*Y180300D01*
Y177700D02*X354800Y177000D01*
X356100D01*
X357300D02*X359300D01*
X358300D02*Y181000D01*
X362300Y177000D02*Y180500D01*
X362800Y181000D01*
X363800D01*
X364300Y180500D01*
Y177000D02*Y180500D01*
X365500Y177000D02*Y181000D01*
Y177000D02*X368000Y181000D01*
Y177000D02*Y181000D01*
X369200Y177000D02*Y181000D01*
X371200D01*
X372400Y178800D02*X373900D01*
X372400Y181000D02*X374400D01*
X372400Y177000D02*Y181000D01*
Y177000D02*X374400D01*
X377600D02*X378100Y177500D01*
X376100Y177000D02*X377600D01*
X375600Y177500D02*X376100Y177000D01*
X375600Y177500D02*Y178500D01*
X376100Y179000D01*
X377600D01*
X378100Y179500D01*
Y180500D01*
X377600Y181000D02*X378100Y180500D01*
X376100Y181000D02*X377600D01*
X375600Y180500D02*X376100Y181000D01*
X381300Y177000D02*X381800Y177500D01*
X379800Y177000D02*X381300D01*
X379300Y177500D02*X379800Y177000D01*
X379300Y177500D02*Y178500D01*
X379800Y179000D01*
X381300D01*
X381800Y179500D01*
Y180500D01*
X381300Y181000D02*X381800Y180500D01*
X379800Y181000D02*X381300D01*
X379300Y180500D02*X379800Y181000D01*
X384800Y177000D02*X385800D01*
X385300D02*Y181000D01*
X384800D02*X385800D01*
X387000Y177000D02*X389000D01*
X388000D02*Y181000D01*
X392000Y177000D02*X393000D01*
X392500D02*Y181000D01*
X392000D02*X393000D01*
X396200Y177000D02*X396700Y177500D01*
X394700Y177000D02*X396200D01*
X394200Y177500D02*X394700Y177000D01*
X394200Y177500D02*Y178500D01*
X394700Y179000D01*
X396200D01*
X396700Y179500D01*
Y180500D01*
X396200Y181000D02*X396700Y180500D01*
X394700Y181000D02*X396200D01*
X394200Y180500D02*X394700Y181000D01*
X281700Y183000D02*Y187000D01*
Y183000D02*X283200Y185000D01*
X284700Y183000D01*
Y187000D01*
X285900Y184000D02*Y187000D01*
Y184000D02*X286600Y183000D01*
X287700D01*
X288400Y184000D01*
Y187000D01*
X285900Y185000D02*X288400D01*
X289600Y183000D02*Y187000D01*
Y183000D02*X292100Y187000D01*
Y183000D02*Y187000D01*
X293300Y183000D02*X294300D01*
X293800D02*Y187000D01*
X293300D02*X294300D01*
X295500Y183000D02*Y187000D01*
Y183000D02*X297500D01*
X295500Y184800D02*X297000D01*
X298700D02*X300200D01*
X298700Y187000D02*X300700D01*
X298700Y183000D02*Y187000D01*
Y183000D02*X300700D01*
X303900D02*X304400Y183500D01*
X302400Y183000D02*X303900D01*
X301900Y183500D02*X302400Y183000D01*
X301900Y183500D02*Y184500D01*
X302400Y185000D01*
X303900D01*
X304400Y185500D01*
Y186500D01*
X303900Y187000D02*X304400Y186500D01*
X302400Y187000D02*X303900D01*
X301900Y186500D02*X302400Y187000D01*
X305600Y183000D02*X307600D01*
X306600D02*Y187000D01*
X308800Y183000D02*Y187000D01*
X310800D01*
X312000Y183000D02*X313000Y185000D01*
X314000Y183000D01*
X313000Y185000D02*Y187000D01*
X317000Y183000D02*X318000D01*
X317500D02*Y187000D01*
X317000D02*X318000D01*
X319200Y183000D02*Y187000D01*
Y183000D02*X320700Y185000D01*
X322200Y183000D01*
Y187000D01*
X323900Y183000D02*Y187000D01*
X323400Y183000D02*X325400D01*
X325900Y183500D01*
Y184500D01*
X325400Y185000D02*X325900Y184500D01*
X323900Y185000D02*X325400D01*
X327100Y183500D02*Y186500D01*
Y183500D02*X327600Y183000D01*
X328600D01*
X329100Y183500D01*
Y186500D01*
X328600Y187000D02*X329100Y186500D01*
X327600Y187000D02*X328600D01*
X327100Y186500D02*X327600Y187000D01*
X330300Y183000D02*X332300D01*
X332800Y183500D01*
Y184500D01*
X332300Y185000D02*X332800Y184500D01*
X330800Y185000D02*X332300D01*
X330800Y183000D02*Y187000D01*
X331600Y185000D02*X332800Y187000D01*
X334000Y183000D02*X336000D01*
X335000D02*Y187000D01*
X337200Y184000D02*Y187000D01*
Y184000D02*X337900Y183000D01*
X339000D01*
X339700Y184000D01*
Y187000D01*
X337200Y185000D02*X339700D01*
X340900Y183000D02*Y187000D01*
Y183000D02*X343400Y187000D01*
Y183000D02*Y187000D01*
X344600Y183000D02*X346600D01*
X345600D02*Y187000D01*
X349600Y184000D02*Y187000D01*
Y184000D02*X350300Y183000D01*
X351400D01*
X352100Y184000D01*
Y187000D01*
X349600Y185000D02*X352100D01*
X353300Y183000D02*Y187000D01*
Y183000D02*X355800Y187000D01*
Y183000D02*Y187000D01*
X357500Y183000D02*Y187000D01*
X358800Y183000D02*X359500Y183700D01*
Y186300D01*
X358800Y187000D02*X359500Y186300D01*
X357000Y187000D02*X358800D01*
X357000Y183000D02*X358800D01*
X362500D02*Y187000D01*
Y183000D02*X365000Y187000D01*
Y183000D02*Y187000D01*
X366200Y184800D02*X367700D01*
X366200Y187000D02*X368200D01*
X366200Y183000D02*Y187000D01*
Y183000D02*X368200D01*
X369400Y184000D02*Y187000D01*
Y184000D02*X370100Y183000D01*
X371200D01*
X371900Y184000D01*
Y187000D01*
X369400Y185000D02*X371900D01*
X373100Y183000D02*X375100D01*
X375600Y183500D01*
Y184500D01*
X375100Y185000D02*X375600Y184500D01*
X373600Y185000D02*X375100D01*
X373600Y183000D02*Y187000D01*
X374400Y185000D02*X375600Y187000D01*
X376800Y183000D02*Y187000D01*
X378800D01*
X380000Y183000D02*X381000Y185000D01*
X382000Y183000D01*
X381000Y185000D02*Y187000D01*
X385000Y183000D02*X386000D01*
X385500D02*Y187000D01*
X385000D02*X386000D01*
X387200Y183000D02*Y187000D01*
Y183000D02*X388700Y185000D01*
X390200Y183000D01*
Y187000D01*
X391900Y183000D02*Y187000D01*
X391400Y183000D02*X393400D01*
X393900Y183500D01*
Y184500D01*
X393400Y185000D02*X393900Y184500D01*
X391900Y185000D02*X393400D01*
X395100Y183500D02*Y186500D01*
Y183500D02*X395600Y183000D01*
X396600D01*
X397100Y183500D01*
Y186500D01*
X396600Y187000D02*X397100Y186500D01*
X395600Y187000D02*X396600D01*
X395100Y186500D02*X395600Y187000D01*
X400300Y183000D02*X400800Y183500D01*
X398800Y183000D02*X400300D01*
X398300Y183500D02*X398800Y183000D01*
X398300Y183500D02*Y184500D01*
X398800Y185000D01*
X400300D01*
X400800Y185500D01*
Y186500D01*
X400300Y187000D02*X400800Y186500D01*
X398800Y187000D02*X400300D01*
X398300Y186500D02*X398800Y187000D01*
X404000Y183000D02*X404500Y183500D01*
X402500Y183000D02*X404000D01*
X402000Y183500D02*X402500Y183000D01*
X402000Y183500D02*Y184500D01*
X402500Y185000D01*
X404000D01*
X404500Y185500D01*
Y186500D01*
X404000Y187000D02*X404500Y186500D01*
X402500Y187000D02*X404000D01*
X402000Y186500D02*X402500Y187000D01*
X405700Y183000D02*X406700D01*
X406200D02*Y187000D01*
X405700D02*X406700D01*
X407900D02*X409900D01*
X410400Y186500D01*
Y185300D02*Y186500D01*
X409900Y184800D02*X410400Y185300D01*
X408400Y184800D02*X409900D01*
X408400Y183000D02*Y187000D01*
X407900Y183000D02*X409900D01*
X410400Y183500D01*
Y184300D01*
X409900Y184800D02*X410400Y184300D01*
X411600Y183000D02*Y187000D01*
X413600D01*
X414800Y184800D02*X416300D01*
X414800Y187000D02*X416800D01*
X414800Y183000D02*Y187000D01*
Y183000D02*X416800D01*
X418000Y187000D02*X418500D01*
X419700Y183000D02*Y184000D01*
X420700Y183000D02*Y184000D01*
X281700Y171000D02*Y172000D01*
X282700Y171000D02*Y172000D01*
X284400Y171000D02*Y175000D01*
X285700Y171000D02*X286400Y171700D01*
Y174300D01*
X285700Y175000D02*X286400Y174300D01*
X283900Y175000D02*X285700D01*
X283900Y171000D02*X285700D01*
X287600Y171500D02*Y174500D01*
Y171500D02*X288100Y171000D01*
X289100D01*
X289600Y171500D01*
Y174500D01*
X289100Y175000D02*X289600Y174500D01*
X288100Y175000D02*X289100D01*
X287600Y174500D02*X288100Y175000D01*
X290800Y171000D02*Y175000D01*
Y171000D02*X293300Y175000D01*
Y171000D02*Y175000D01*
X294500Y172000D02*X295500Y171000D01*
X296700D02*X298700D01*
X297700D02*Y175000D01*
X302200Y171000D02*Y175000D01*
X303500Y171000D02*X304200Y171700D01*
Y174300D01*
X303500Y175000D02*X304200Y174300D01*
X301700Y175000D02*X303500D01*
X301700Y171000D02*X303500D01*
X305400Y171500D02*Y174500D01*
Y171500D02*X305900Y171000D01*
X306900D01*
X307400Y171500D01*
Y174500D01*
X306900Y175000D02*X307400Y174500D01*
X305900Y175000D02*X306900D01*
X305400Y174500D02*X305900Y175000D01*
X310400Y172000D02*Y175000D01*
Y172000D02*X311100Y171000D01*
X312200D01*
X312900Y172000D01*
Y175000D01*
X310400Y173000D02*X312900D01*
X314100Y171000D02*Y175000D01*
Y171000D02*X316600Y175000D01*
Y171000D02*Y175000D01*
X317800Y171000D02*X318800Y173000D01*
X319800Y171000D01*
X318800Y173000D02*Y175000D01*
X321000Y171000D02*X323000D01*
X322000D02*Y175000D01*
X324200Y171000D02*Y175000D01*
X326700Y171000D02*Y175000D01*
X324200Y173000D02*X326700D01*
X327900Y171000D02*X328900D01*
X328400D02*Y175000D01*
X327900D02*X328900D01*
X330100Y171000D02*Y175000D01*
Y171000D02*X332600Y175000D01*
Y171000D02*Y175000D01*
X335800Y171000D02*X336300Y171500D01*
X334300Y171000D02*X335800D01*
X333800Y171500D02*X334300Y171000D01*
X333800Y171500D02*Y174500D01*
X334300Y175000D01*
X335800D01*
X336300Y174500D01*
Y173500D02*Y174500D01*
X335800Y173000D02*X336300Y173500D01*
X334800Y173000D02*X335800D01*
X339300Y171000D02*X341300D01*
X340300D02*Y175000D01*
X342500Y171000D02*Y175000D01*
X345000Y171000D02*Y175000D01*
X342500Y173000D02*X345000D01*
X346200Y172000D02*Y175000D01*
Y172000D02*X346900Y171000D01*
X348000D01*
X348700Y172000D01*
Y175000D01*
X346200Y173000D02*X348700D01*
X349900Y171000D02*X351900D01*
X350900D02*Y175000D01*
X356900Y171000D02*X357400Y171500D01*
X355400Y171000D02*X356900D01*
X354900Y171500D02*X355400Y171000D01*
X354900Y171500D02*Y172500D01*
X355400Y173000D01*
X356900D01*
X357400Y173500D01*
Y174500D01*
X356900Y175000D02*X357400Y174500D01*
X355400Y175000D02*X356900D01*
X354900Y174500D02*X355400Y175000D01*
X358600Y171500D02*Y174500D01*
Y171500D02*X359100Y171000D01*
X360100D01*
X360600Y171500D01*
Y174500D01*
X360100Y175000D02*X360600Y174500D01*
X359100Y175000D02*X360100D01*
X358600Y174500D02*X359100Y175000D01*
X361800Y171000D02*Y175000D01*
Y171000D02*X363300Y173000D01*
X364800Y171000D01*
Y175000D01*
X366000Y172800D02*X367500D01*
X366000Y175000D02*X368000D01*
X366000Y171000D02*Y175000D01*
Y171000D02*X368000D01*
X369200Y171500D02*Y174500D01*
Y171500D02*X369700Y171000D01*
X370700D01*
X371200Y171500D01*
Y174500D01*
X370700Y175000D02*X371200Y174500D01*
X369700Y175000D02*X370700D01*
X369200Y174500D02*X369700Y175000D01*
X372400Y171000D02*Y175000D01*
Y171000D02*X374900Y175000D01*
Y171000D02*Y175000D01*
X376100Y172800D02*X377600D01*
X376100Y175000D02*X378100D01*
X376100Y171000D02*Y175000D01*
Y171000D02*X378100D01*
X381100Y172800D02*X382600D01*
X381100Y175000D02*X383100D01*
X381100Y171000D02*Y175000D01*
Y171000D02*X383100D01*
X384300D02*Y175000D01*
X386300D01*
X389500Y171000D02*X390000Y171500D01*
X388000Y171000D02*X389500D01*
X387500Y171500D02*X388000Y171000D01*
X387500Y171500D02*Y172500D01*
X388000Y173000D01*
X389500D01*
X390000Y173500D01*
Y174500D01*
X389500Y175000D02*X390000Y174500D01*
X388000Y175000D02*X389500D01*
X387500Y174500D02*X388000Y175000D01*
X391200Y172800D02*X392700D01*
X391200Y175000D02*X393200D01*
X391200Y171000D02*Y175000D01*
Y171000D02*X393200D01*
X396900Y175000D02*X398200D01*
X396200Y174300D02*X396900Y175000D01*
X396200Y171700D02*Y174300D01*
Y171700D02*X396900Y171000D01*
X398200D01*
X399400Y172000D02*Y175000D01*
Y172000D02*X400100Y171000D01*
X401200D01*
X401900Y172000D01*
Y175000D01*
X399400Y173000D02*X401900D01*
X403100Y171000D02*Y175000D01*
Y171000D02*X405600Y175000D01*
Y171000D02*Y175000D01*
X409100Y171000D02*Y175000D01*
X410400Y171000D02*X411100Y171700D01*
Y174300D01*
X410400Y175000D02*X411100Y174300D01*
X408600Y175000D02*X410400D01*
X408600Y171000D02*X410400D01*
X412300Y171500D02*Y174500D01*
Y171500D02*X412800Y171000D01*
X413800D01*
X414300Y171500D01*
Y174500D01*
X413800Y175000D02*X414300Y174500D01*
X412800Y175000D02*X413800D01*
X412300Y174500D02*X412800Y175000D01*
X415500D02*X416000D01*
G54D117*X94738Y395877D02*Y353357D01*
X129384D01*
Y395877D02*Y353357D01*
X94738Y395877D02*X129384D01*
X124069Y381703D02*Y367530D01*
X127809Y394302D02*Y354932D01*
X96313Y382491D02*X124069Y381703D01*
X96313Y366743D02*X124069Y367530D01*
X122100Y400995D02*X126628D01*
Y397845D01*
X124266D02*X126628D01*
X125053Y399420D03*
X124266Y397845D02*X123282Y398436D01*
X122888D02*X123282D01*
X122888D02*X122100Y397648D01*
X119738Y393267D02*Y381830D01*
Y367407D02*Y355941D01*
X96313Y390365D02*Y382491D01*
Y366743D02*Y358869D01*
X122100Y351388D02*X126628D01*
Y348239D01*
X124266D02*X126628D01*
X125053Y349814D03*
X124266Y348239D02*X123282Y348829D01*
X122888D02*X123282D01*
X122888D02*X122100Y348042D01*
X124069Y394302D02*X127809D01*
X124069D02*X96313Y390365D01*
X124069Y354932D02*X127809D01*
X124069D02*X96313Y358869D01*
G54D118*X49316Y357705D02*X52465D01*
X49316Y292548D02*X52465D01*
Y357705D01*
X49316Y292548D02*Y357705D01*
X52465Y296091D02*X62780D01*
X71442Y304280D02*Y344201D01*
X52465Y352390D02*X62780D01*
X55418Y296091D02*Y352390D01*
X321409Y301740D02*X389519D01*
X321409Y366701D02*X321410Y301740D01*
X317473Y360992D02*Y317685D01*
X313536Y360992D02*Y317685D01*
X301725D02*X321410D01*
X301725Y360992D02*Y317685D01*
Y360992D02*X321410D01*
X389519Y366701D02*Y301740D01*
X321409Y366701D02*X389519D01*
X326330Y404890D02*Y366701D01*
Y404890D02*X364814D01*
X385386Y384318D02*Y366701D01*
X364814Y404890D02*X385386Y384318D01*
G54D117*X164238Y195857D02*Y238377D01*
Y195857D02*X198884D01*
Y238377D01*
X164238D02*X198884D01*
X193569Y210030D02*Y224203D01*
X197309Y197432D02*Y236802D01*
X165813Y224991D02*X193569Y224203D01*
X165813Y209243D02*X193569Y210030D01*
X191600Y243495D02*X196128D01*
Y240345D02*Y243495D01*
X193766Y240345D02*X196128D01*
X194553Y241920D03*
X193766Y240345D02*X192782Y240936D01*
X192388D02*X192782D01*
X192388D02*X191600Y240148D01*
X189238Y224330D02*Y235767D01*
Y198441D02*Y209907D01*
X165813Y224991D02*Y232865D01*
Y201369D02*Y209243D01*
X191600Y193888D02*X196128D01*
Y190739D02*Y193888D01*
X193766Y190739D02*X196128D01*
X194553Y192314D03*
X193766Y190739D02*X192782Y191329D01*
X192388D02*X192782D01*
X192388D02*X191600Y190542D01*
X193569Y236802D02*X197309D01*
X193569D02*X165813Y232865D01*
X193569Y197432D02*X197309D01*
X193569D02*X165813Y201369D01*
G54D118*X268650Y164396D02*X211170D01*
X211169Y179909D01*
X264712Y183846D02*X215106D01*
X268649Y179909D02*X268650Y164396D01*
X268649Y179909D02*X264712Y183846D01*
X211169Y179909D02*X215106Y183846D01*
X270342Y181642D02*X266012Y185972D01*
X213020D01*
X209083Y182035D01*
Y162507D02*Y182035D01*
X270342Y162507D02*X209083D01*
X270342D02*X270343Y181642D01*
X215241Y340158D02*X157761D01*
X157760Y355671D01*
X161697Y359608D02*X211303D01*
X215240Y355671D02*X215241Y340158D01*
X215240Y355671D02*X211303Y359608D01*
X157760Y355671D02*X161697Y359608D01*
X216933Y357404D02*X212603Y361734D01*
X159611D01*
X155674Y357797D01*
Y338269D01*
X216933D01*
X216934Y357404D01*
G54D117*X261762Y263623D02*Y306143D01*
X227116D02*X261762D01*
X227116Y263623D02*Y306143D01*
Y263623D02*X261762D01*
X232431Y277797D02*Y291970D01*
X228691Y265198D02*Y304568D01*
X260187Y277009D02*X232431Y277797D01*
X260187Y292757D02*X232431Y291970D01*
X229872Y258505D02*X234400D01*
X229872D02*Y261655D01*
X232234D01*
X231447Y260080D03*
X232234Y261655D02*X233218Y261064D01*
X233612D01*
X234400Y261852D01*
X236762Y266233D02*Y277670D01*
Y292093D02*Y303559D01*
X260187Y269135D02*Y277009D01*
Y292757D02*Y300631D01*
X229872Y308112D02*X234400D01*
X229872D02*Y311261D01*
X232234D01*
X231447Y309686D03*
X232234Y311261D02*X233218Y310671D01*
X233612D01*
X234400Y311458D01*
X228691Y265198D02*X232431D01*
X260187Y269135D01*
X228691Y304568D02*X232431D01*
X260187Y300631D01*
G54D118*X446075Y235311D02*X398831D01*
Y211689D02*Y235311D01*
X440169Y211689D02*X398831D01*
X446075Y217201D02*X440169D01*
X446075D02*Y235311D01*
X440169Y211689D02*Y235311D01*
G54D117*X388740Y252177D02*X431260D01*
Y286823D02*Y252177D01*
X388740Y286823D02*X431260D01*
X388740D02*Y252177D01*
X402914Y281508D02*X417087D01*
X390315Y285248D02*X429685D01*
X402126Y253752D02*X402914Y281508D01*
X417874Y253752D02*X417087Y281508D01*
X383622Y284067D02*Y279539D01*
Y284067D02*X386772D01*
Y281705D01*
X385197Y282492D03*
X386772Y281705D02*X386181Y280721D01*
Y280327D01*
X386969Y279539D01*
X391350Y277177D02*X402787D01*
X417210D02*X428676D01*
X394252Y253752D02*X402126D01*
X417874D02*X425748D01*
X433229Y284067D02*Y279539D01*
Y284067D02*X436378D01*
Y281705D01*
X434803Y282492D03*
X436378Y281705D02*X435788Y280721D01*
Y280327D01*
X436575Y279539D01*
X390315Y285248D02*Y281508D01*
X394252Y253752D01*
X429685Y285248D02*Y281508D01*
X425748Y253752D01*
G54D116*X241984Y278301D02*Y279601D01*
X242684Y277601D02*X241984Y278301D01*
X242684Y277601D02*X245284D01*
X245984Y278301D01*
Y279601D01*
X241984Y280801D02*X245984D01*
X241984D02*Y282801D01*
X245984Y284001D02*Y285001D01*
X241984Y284501D02*X245984D01*
X241984Y284001D02*Y285001D01*
Y286701D02*X245984D01*
Y286201D02*Y288201D01*
X245484Y288701D01*
X244484D02*X245484D01*
X243984Y288201D02*X244484Y288701D01*
X243984Y286701D02*Y288201D01*
X243484Y290901D02*X243984D01*
X241984D02*X242484D01*
X244984Y289901D02*X245484D01*
X245984Y290401D01*
Y291401D01*
X245484Y291901D01*
X244984D02*X245484D01*
X243984Y290901D02*X244984Y291901D01*
X115016Y381399D02*Y382699D01*
X114316Y383399D02*X115016Y382699D01*
X111716Y383399D02*X114316D01*
X111716D02*X111016Y382699D01*
Y381399D02*Y382699D01*
Y380199D02*X115016D01*
Y378199D02*Y380199D01*
X111016Y375999D02*Y376999D01*
Y376499D02*X115016D01*
Y375999D02*Y376999D01*
X111016Y374299D02*X115016D01*
X111016Y372799D02*Y374799D01*
Y372799D02*X111516Y372299D01*
X112516D01*
X113016Y372799D02*X112516Y372299D01*
X113016Y372799D02*Y374299D01*
Y370099D02*X113516D01*
X114516D02*X115016D01*
X111516Y371099D02*X112016D01*
X111516D02*X111016Y370599D01*
Y369599D02*Y370599D01*
Y369599D02*X111516Y369099D01*
X112016D01*
X113016Y370099D02*X112016Y369099D01*
X177096Y347944D02*X178396D01*
X176396Y347244D02*X177096Y347944D01*
X176396Y344644D02*Y347244D01*
Y344644D02*X177096Y343944D01*
X178396D01*
X179596Y344444D02*Y347444D01*
Y344444D02*X180096Y343944D01*
X181096D01*
X181596Y344444D01*
Y347444D01*
X181096Y347944D02*X181596Y347444D01*
X180096Y347944D02*X181096D01*
X179596Y347444D02*X180096Y347944D01*
X182796Y343944D02*Y347944D01*
Y343944D02*X185296Y347944D01*
Y343944D02*Y347944D01*
X186496Y343944D02*Y347944D01*
Y343944D02*X188996Y347944D01*
Y343944D02*Y347944D01*
X190696D02*X192696Y343944D01*
X190196D02*X192696D01*
X193896Y347444D02*X194396Y347944D01*
X193896Y344444D02*Y347444D01*
Y344444D02*X194396Y343944D01*
X195396D01*
X195896Y344444D01*
Y347444D01*
X195396Y347944D02*X195896Y347444D01*
X194396Y347944D02*X195396D01*
X193896Y346944D02*X195896Y344944D01*
X197096Y346444D02*X199096Y343944D01*
X197096Y346444D02*X199596D01*
X199096Y343944D02*Y347944D01*
X64611Y312751D02*Y314051D01*
X65311Y312051D02*X64611Y312751D01*
X65311Y312051D02*X67911D01*
X68611Y312751D01*
Y314051D01*
X65111Y315251D02*X68111D01*
X68611Y315751D01*
Y316751D01*
X68111Y317251D01*
X65111D02*X68111D01*
X64611Y316751D02*X65111Y317251D01*
X64611Y315751D02*Y316751D01*
X65111Y315251D02*X64611Y315751D01*
Y318451D02*X68611D01*
X64611Y320951D01*
X68611D01*
X64611Y322151D02*X68611D01*
X64611Y324651D01*
X68611D01*
X66111Y325851D02*X68611Y327851D01*
X66111Y325851D02*Y328351D01*
X64611Y327851D02*X68611D01*
X65111Y329551D02*X64611Y330051D01*
X65111Y329551D02*X68111D01*
X68611Y330051D01*
Y331051D01*
X68111Y331551D01*
X65111D02*X68111D01*
X64611Y331051D02*X65111Y331551D01*
X64611Y330051D02*Y331051D01*
X65611Y329551D02*X67611Y331551D01*
X65111Y332751D02*X64611Y333251D01*
X65111Y332751D02*X68111D01*
X68611Y333251D01*
Y334251D01*
X68111Y334751D01*
X65111D02*X68111D01*
X64611Y334251D02*X65111Y334751D01*
X64611Y333251D02*Y334251D01*
X65611Y332751D02*X67611Y334751D01*
X347473Y320512D02*Y321812D01*
X348173Y319812D02*X347473Y320512D01*
X348173Y319812D02*X350773D01*
X351473Y320512D01*
Y321812D01*
X347973Y323012D02*X350973D01*
X351473Y323512D01*
Y324512D01*
X350973Y325012D01*
X347973D02*X350973D01*
X347473Y324512D02*X347973Y325012D01*
X347473Y323512D02*Y324512D01*
X347973Y323012D02*X347473Y323512D01*
Y326212D02*X351473D01*
X347473Y328712D01*
X351473D01*
X347473Y329912D02*X351473D01*
X347473Y332412D01*
X351473D01*
X350973Y333612D02*X351473Y334112D01*
Y335112D01*
X350973Y335612D01*
X347473Y335112D02*X347973Y335612D01*
X347473Y334112D02*Y335112D01*
X347973Y333612D02*X347473Y334112D01*
X349673D02*Y335112D01*
X350173Y335612D02*X350973D01*
X347973D02*X349173D01*
X349673Y335112D01*
X350173Y335612D02*X349673Y335112D01*
X347973Y336812D02*X347473Y337312D01*
X347973Y336812D02*X350973D01*
X351473Y337312D01*
Y338312D01*
X350973Y338812D01*
X347973D02*X350973D01*
X347473Y338312D02*X347973Y338812D01*
X347473Y337312D02*Y338312D01*
X348473Y336812D02*X350473Y338812D01*
X347973Y340012D02*X347473Y340512D01*
X347973Y340012D02*X350973D01*
X351473Y340512D01*
Y341512D01*
X350973Y342012D01*
X347973D02*X350973D01*
X347473Y341512D02*X347973Y342012D01*
X347473Y340512D02*Y341512D01*
X348473Y340012D02*X350473Y342012D01*
X184516Y223899D02*Y225199D01*
X183816Y225899D02*X184516Y225199D01*
X181216Y225899D02*X183816D01*
X181216D02*X180516Y225199D01*
Y223899D02*Y225199D01*
Y222699D02*X184516D01*
Y220699D02*Y222699D01*
X180516Y218499D02*Y219499D01*
Y218999D02*X184516D01*
Y218499D02*Y219499D01*
X180516Y216799D02*X184516D01*
X180516Y215299D02*Y217299D01*
Y215299D02*X181016Y214799D01*
X182016D01*
X182516Y215299D02*X182016Y214799D01*
X182516Y215299D02*Y216799D01*
Y212599D02*X183016D01*
X184016D02*X184516D01*
X181016Y213599D02*X181516D01*
X181016D02*X180516Y213099D01*
Y212099D02*Y213099D01*
Y212099D02*X181016Y211599D01*
X181516D01*
X182516Y212599D02*X181516Y211599D01*
X225510Y174640D02*X226810D01*
X224810Y173940D02*X225510Y174640D01*
X224810Y171340D02*Y173940D01*
Y171340D02*X225510Y170640D01*
X226810D01*
X228010Y171140D02*Y174140D01*
Y171140D02*X228510Y170640D01*
X229510D01*
X230010Y171140D01*
Y174140D01*
X229510Y174640D02*X230010Y174140D01*
X228510Y174640D02*X229510D01*
X228010Y174140D02*X228510Y174640D01*
X231210Y170640D02*Y174640D01*
Y170640D02*X233710Y174640D01*
Y170640D02*Y174640D01*
X234910Y170640D02*Y174640D01*
Y170640D02*X237410Y174640D01*
Y170640D02*Y174640D01*
X239110D02*X241110Y170640D01*
X238610D02*X241110D01*
X242310Y174140D02*X242810Y174640D01*
X242310Y171140D02*Y174140D01*
Y171140D02*X242810Y170640D01*
X243810D01*
X244310Y171140D01*
Y174140D01*
X243810Y174640D02*X244310Y174140D01*
X242810Y174640D02*X243810D01*
X242310Y173640D02*X244310Y171640D01*
X247010Y170640D02*X247510Y171140D01*
X246010Y170640D02*X247010D01*
X245510Y171140D02*X246010Y170640D01*
X245510Y171140D02*Y174140D01*
X246010Y174640D01*
X247010Y172440D02*X247510Y172940D01*
X245510Y172440D02*X247010D01*
X246010Y174640D02*X247010D01*
X247510Y174140D01*
Y172940D02*Y174140D01*
X314410Y134390D02*Y138390D01*
X316410D01*
X318110Y134390D02*Y138390D01*
X317610Y134390D02*X319610D01*
X320110Y134890D01*
Y135890D01*
X319610Y136390D02*X320110Y135890D01*
X318110Y136390D02*X319610D01*
X321310Y134390D02*X322310D01*
X321810D02*Y138390D01*
X321310D02*X322310D01*
X324010Y134390D02*Y138390D01*
X323510Y134390D02*X325510D01*
X326010Y134890D01*
Y135890D01*
X325510Y136390D02*X326010Y135890D01*
X324010Y136390D02*X325510D01*
X327210Y136190D02*X328710D01*
X327210Y138390D02*X329210D01*
X327210Y134390D02*Y138390D01*
Y134390D02*X329210D01*
X330410Y137890D02*X330910Y138390D01*
X330410Y137090D02*Y137890D01*
Y137090D02*X331110Y136390D01*
X331710D01*
X332410Y137090D01*
Y137890D01*
X331910Y138390D02*X332410Y137890D01*
X330910Y138390D02*X331910D01*
X330410Y135690D02*X331110Y136390D01*
X330410Y134890D02*Y135690D01*
Y134890D02*X330910Y134390D01*
X331910D01*
X332410Y134890D01*
Y135690D01*
X331710Y136390D02*X332410Y135690D01*
X333610Y137890D02*X334110Y138390D01*
X333610Y134890D02*Y137890D01*
Y134890D02*X334110Y134390D01*
X335110D01*
X335610Y134890D01*
Y137890D01*
X335110Y138390D02*X335610Y137890D01*
X334110Y138390D02*X335110D01*
X333610Y137390D02*X335610Y135390D01*
X336810Y137890D02*X337310Y138390D01*
X336810Y134890D02*Y137890D01*
Y134890D02*X337310Y134390D01*
X338310D01*
X338810Y134890D01*
Y137890D01*
X338310Y138390D02*X338810Y137890D01*
X337310Y138390D02*X338310D01*
X336810Y137390D02*X338810Y135390D01*
X341610Y134590D02*Y138590D01*
X343610D01*
X345310Y134590D02*Y138590D01*
X344810Y134590D02*X346810D01*
X347310Y135090D01*
Y136090D01*
X346810Y136590D02*X347310Y136090D01*
X345310Y136590D02*X346810D01*
X348510Y134590D02*X349510D01*
X349010D02*Y138590D01*
X348510D02*X349510D01*
X351210Y134590D02*Y138590D01*
X350710Y134590D02*X352710D01*
X353210Y135090D01*
Y136090D01*
X352710Y136590D02*X353210Y136090D01*
X351210Y136590D02*X352710D01*
X354410Y136390D02*X355910D01*
X354410Y138590D02*X356410D01*
X354410Y134590D02*Y138590D01*
Y134590D02*X356410D01*
X357610Y138090D02*X358110Y138590D01*
X357610Y137290D02*Y138090D01*
Y137290D02*X358310Y136590D01*
X358910D01*
X359610Y137290D01*
Y138090D01*
X359110Y138590D02*X359610Y138090D01*
X358110Y138590D02*X359110D01*
X357610Y135890D02*X358310Y136590D01*
X357610Y135090D02*Y135890D01*
Y135090D02*X358110Y134590D01*
X359110D01*
X359610Y135090D01*
Y135890D01*
X358910Y136590D02*X359610Y135890D01*
X360810Y138090D02*X361310Y138590D01*
X360810Y135090D02*Y138090D01*
Y135090D02*X361310Y134590D01*
X362310D01*
X362810Y135090D01*
Y138090D01*
X362310Y138590D02*X362810Y138090D01*
X361310Y138590D02*X362310D01*
X360810Y137590D02*X362810Y135590D01*
X364010Y135390D02*X364810Y134590D01*
Y138590D01*
X364010D02*X365510D01*
X411354Y221673D02*X412654D01*
X410654Y220973D02*X411354Y221673D01*
X410654Y218373D02*Y220973D01*
Y218373D02*X411354Y217673D01*
X412654D01*
X413854Y218173D02*Y221173D01*
Y218173D02*X414354Y217673D01*
X415354D01*
X415854Y218173D01*
Y221173D01*
X415354Y221673D02*X415854Y221173D01*
X414354Y221673D02*X415354D01*
X413854Y221173D02*X414354Y221673D01*
X417054Y217673D02*Y221673D01*
Y217673D02*X419554Y221673D01*
Y217673D02*Y221673D01*
X420754Y217673D02*Y221673D01*
Y217673D02*X423254Y221673D01*
Y217673D02*Y221673D01*
X424454Y218473D02*X425254Y217673D01*
Y221673D01*
X424454D02*X425954D01*
X427154Y220173D02*X429154Y217673D01*
X427154Y220173D02*X429654D01*
X429154Y217673D02*Y221673D01*
X430854Y221173D02*X431354Y221673D01*
X430854Y218173D02*Y221173D01*
Y218173D02*X431354Y217673D01*
X432354D01*
X432854Y218173D01*
Y221173D01*
X432354Y221673D02*X432854Y221173D01*
X431354Y221673D02*X432354D01*
X430854Y220673D02*X432854Y218673D01*
X434054Y218473D02*X434854Y217673D01*
Y221673D01*
X434054D02*X435554D01*
X401918Y272455D02*X403218D01*
X401218Y271755D02*X401918Y272455D01*
X401218Y269155D02*Y271755D01*
Y269155D02*X401918Y268455D01*
X403218D01*
X404418D02*Y272455D01*
X406418D01*
X407618Y268455D02*X408618D01*
X408118D02*Y272455D01*
X407618D02*X408618D01*
X410318Y268455D02*Y272455D01*
X409818Y268455D02*X411818D01*
X412318Y268955D01*
Y269955D01*
X411818Y270455D02*X412318Y269955D01*
X410318Y270455D02*X411818D01*
X414518D02*Y270955D01*
Y271955D02*Y272455D01*
X413518Y268955D02*Y269455D01*
Y268955D02*X414018Y268455D01*
X415018D01*
X415518Y268955D01*
Y269455D01*
X414518Y270455D02*X415518Y269455D01*
M02*
