G04 start of page 2 for group 0 idx 0 *
G04 Title: (unknown), 1top *
G04 Creator: pcb 20110918 *
G04 CreationDate: Wed Jan  8 22:31:43 2014 UTC *
G04 For: fosse *
G04 Format: Gerber/RS-274X *
G04 PCB-Dimensions: 550000 850000 *
G04 PCB-Coordinate-Origin: lower left *
%MOIN*%
%FSLAX25Y25*%
%LNTOP*%
%ADD27C,0.0433*%
%ADD26C,0.1150*%
%ADD25C,0.0945*%
%ADD24C,0.2100*%
%ADD23C,0.0354*%
%ADD22C,0.1160*%
%ADD21R,0.0433X0.0433*%
%ADD20R,0.0433X0.0433*%
%ADD19C,0.0591*%
%ADD18C,0.0544*%
%ADD17C,0.1300*%
%ADD16C,0.2350*%
%ADD15C,0.0494*%
%ADD14C,0.2700*%
%ADD13C,0.0200*%
%ADD12C,0.0060*%
%ADD11C,0.0001*%
G54D11*G36*
X78500Y684800D02*Y691300D01*
X82100D01*
Y684800D01*
X78500D01*
G37*
G36*
X76700Y760600D02*Y767100D01*
X80300D01*
Y760600D01*
X76700D01*
G37*
G36*
X220300Y765400D02*Y771900D01*
X223900D01*
Y765400D01*
X220300D01*
G37*
G36*
X219800Y727900D02*Y734400D01*
X223400D01*
Y727900D01*
X219800D01*
G37*
G36*
X149300Y728400D02*Y734900D01*
X152900D01*
Y728400D01*
X149300D01*
G37*
G36*
X150300Y764900D02*Y771400D01*
X153900D01*
Y764900D01*
X150300D01*
G37*
G36*
X44900Y634800D02*Y641300D01*
X48500D01*
Y634800D01*
X44900D01*
G37*
G36*
X44700Y680700D02*Y687200D01*
X48300D01*
Y680700D01*
X44700D01*
G37*
G36*
X40500Y763000D02*Y769500D01*
X44100D01*
Y763000D01*
X40500D01*
G37*
G36*
X114600Y567500D02*Y574000D01*
X118200D01*
Y567500D01*
X114600D01*
G37*
G36*
X78500Y608000D02*Y614500D01*
X82100D01*
Y608000D01*
X78500D01*
G37*
G36*
X81500Y567500D02*Y574000D01*
X85100D01*
Y567500D01*
X81500D01*
G37*
G36*
X77900Y557400D02*Y563900D01*
X81500D01*
Y557400D01*
X77900D01*
G37*
G36*
X79900Y563300D02*Y569800D01*
X83500D01*
Y563300D01*
X79900D01*
G37*
G36*
X44900Y558000D02*Y564500D01*
X48500D01*
Y558000D01*
X44900D01*
G37*
G36*
X80000Y522000D02*Y528500D01*
X83600D01*
Y522000D01*
X80000D01*
G37*
G36*
X115500D02*Y528500D01*
X119100D01*
Y522000D01*
X115500D01*
G37*
G36*
X44900Y608000D02*Y614500D01*
X48500D01*
Y608000D01*
X44900D01*
G37*
G36*
X78500Y634800D02*Y641300D01*
X82100D01*
Y634800D01*
X78500D01*
G37*
G36*
X267800Y550400D02*Y556900D01*
X271400D01*
Y550400D01*
X267800D01*
G37*
G36*
X207300D02*Y556900D01*
X210900D01*
Y550400D01*
X207300D01*
G37*
G36*
X208300Y591400D02*Y597900D01*
X211900D01*
Y591400D01*
X208300D01*
G37*
G36*
X268300D02*Y597900D01*
X271900D01*
Y591400D01*
X268300D01*
G37*
G36*
X391300Y684400D02*Y690900D01*
X394900D01*
Y684400D01*
X391300D01*
G37*
G36*
X434300Y647900D02*Y654400D01*
X437900D01*
Y647900D01*
X434300D01*
G37*
G36*
X433800Y591900D02*Y598400D01*
X437400D01*
Y591900D01*
X433800D01*
G37*
G36*
X387800Y618900D02*Y625400D01*
X391400D01*
Y618900D01*
X387800D01*
G37*
G36*
X233300Y726400D02*Y732900D01*
X236900D01*
Y726400D01*
X233300D01*
G37*
G36*
X234300Y759400D02*Y765900D01*
X237900D01*
Y759400D01*
X234300D01*
G37*
G36*
X288800D02*Y765900D01*
X292400D01*
Y759400D01*
X288800D01*
G37*
G36*
X318800Y776900D02*Y783400D01*
X322400D01*
Y776900D01*
X318800D01*
G37*
G36*
X390300Y777400D02*Y783900D01*
X393900D01*
Y777400D01*
X390300D01*
G37*
G36*
X289300Y726400D02*Y732900D01*
X292900D01*
Y726400D01*
X289300D01*
G37*
G36*
X316300Y684900D02*Y691400D01*
X319900D01*
Y684900D01*
X316300D01*
G37*
G36*
X387858Y689000D02*X394822D01*
X394900Y688994D01*
X395214Y689019D01*
X395214Y689019D01*
X395520Y689092D01*
X395811Y689212D01*
X396079Y689377D01*
X396319Y689581D01*
X396370Y689641D01*
X401359Y694630D01*
X401419Y694681D01*
X401623Y694921D01*
X401623Y694921D01*
X401788Y695189D01*
X401908Y695480D01*
X401981Y695786D01*
X402006Y696100D01*
X402000Y696178D01*
Y771822D01*
X402006Y771900D01*
X401981Y772214D01*
X401981Y772214D01*
X401908Y772520D01*
X401788Y772811D01*
X401623Y773079D01*
X401419Y773319D01*
X401359Y773370D01*
X396370Y778359D01*
X396319Y778419D01*
X396079Y778623D01*
X395811Y778788D01*
X395520Y778908D01*
X395214Y778981D01*
X395214Y778981D01*
X394900Y779006D01*
X394822Y779000D01*
X392000D01*
Y804000D01*
X391981Y804314D01*
X391908Y804620D01*
X391788Y804911D01*
X391733Y805000D01*
X438000D01*
Y649733D01*
X437911Y649788D01*
X437620Y649908D01*
X437314Y649981D01*
X437000Y650000D01*
X397678D01*
X397600Y650006D01*
X397286Y649981D01*
X396980Y649908D01*
X396689Y649788D01*
X396421Y649623D01*
X396420Y649623D01*
X396181Y649419D01*
X396130Y649359D01*
X390141Y643370D01*
X390081Y643319D01*
X389877Y643079D01*
X389712Y642811D01*
X389592Y642520D01*
X389519Y642214D01*
X389494Y641900D01*
X389500Y641822D01*
Y604178D01*
X389494Y604100D01*
X389519Y603786D01*
X389592Y603480D01*
X389712Y603189D01*
X389877Y602921D01*
X389877Y602921D01*
X390081Y602681D01*
X390141Y602630D01*
X395630Y597141D01*
X395681Y597081D01*
X395921Y596877D01*
X395921Y596877D01*
X396189Y596712D01*
X396480Y596592D01*
X396786Y596519D01*
X397100Y596494D01*
X397178Y596500D01*
X436500D01*
X436814Y596519D01*
X437120Y596592D01*
X437411Y596712D01*
X437500Y596767D01*
Y522000D01*
X387858D01*
Y546990D01*
X390873Y546992D01*
X390934Y547007D01*
X390991Y547030D01*
X391044Y547063D01*
X391091Y547103D01*
X391131Y547150D01*
X391164Y547203D01*
X391187Y547260D01*
X391202Y547321D01*
X391206Y547382D01*
X391202Y551775D01*
X391187Y551836D01*
X391164Y551893D01*
X391131Y551946D01*
X391091Y551993D01*
X391044Y552033D01*
X390991Y552066D01*
X390934Y552089D01*
X390873Y552104D01*
X390812Y552108D01*
X387858Y552106D01*
Y552896D01*
X390873Y552898D01*
X390933Y552912D01*
X390990Y552936D01*
X391043Y552968D01*
X391090Y553009D01*
X391131Y553056D01*
X391163Y553109D01*
X391187Y553166D01*
X391201Y553226D01*
X391205Y553288D01*
X391201Y557680D01*
X391187Y557740D01*
X391163Y557797D01*
X391131Y557850D01*
X391090Y557897D01*
X391043Y557938D01*
X390990Y557970D01*
X390933Y557994D01*
X390873Y558008D01*
X390811Y558012D01*
X387858Y558010D01*
Y689000D01*
G37*
G36*
X378992D02*X387858D01*
Y558010D01*
X384843Y558008D01*
X384783Y557994D01*
X384726Y557970D01*
X384673Y557938D01*
X384626Y557897D01*
X384585Y557850D01*
X384553Y557797D01*
X384529Y557740D01*
X384515Y557680D01*
X384511Y557618D01*
X384515Y553226D01*
X384529Y553166D01*
X384553Y553109D01*
X384585Y553056D01*
X384626Y553009D01*
X384673Y552968D01*
X384726Y552936D01*
X384783Y552912D01*
X384843Y552898D01*
X384905Y552894D01*
X387858Y552896D01*
Y552106D01*
X384843Y552104D01*
X384782Y552089D01*
X384725Y552066D01*
X384672Y552033D01*
X384625Y551993D01*
X384585Y551946D01*
X384552Y551893D01*
X384529Y551836D01*
X384514Y551775D01*
X384510Y551714D01*
X384514Y547321D01*
X384529Y547260D01*
X384552Y547203D01*
X384585Y547150D01*
X384625Y547103D01*
X384672Y547063D01*
X384725Y547030D01*
X384782Y547007D01*
X384843Y546992D01*
X384904Y546988D01*
X387858Y546990D01*
Y522000D01*
X378992D01*
Y547172D01*
X379000Y547172D01*
X379834Y547237D01*
X380647Y547432D01*
X381419Y547752D01*
X382132Y548189D01*
X382768Y548732D01*
X383311Y549368D01*
X383748Y550081D01*
X384068Y550853D01*
X384263Y551666D01*
X384312Y552500D01*
X384263Y553334D01*
X384068Y554147D01*
X383748Y554919D01*
X383311Y555632D01*
X382768Y556268D01*
X382132Y556811D01*
X381419Y557248D01*
X380647Y557568D01*
X379834Y557763D01*
X379000Y557828D01*
X378992Y557828D01*
Y689000D01*
G37*
G36*
X370142D02*X378992D01*
Y557828D01*
X378166Y557763D01*
X377353Y557568D01*
X376581Y557248D01*
X375868Y556811D01*
X375232Y556268D01*
X374689Y555632D01*
X374252Y554919D01*
X373932Y554147D01*
X373737Y553334D01*
X373672Y552500D01*
X373737Y551666D01*
X373932Y550853D01*
X374252Y550081D01*
X374689Y549368D01*
X375232Y548732D01*
X375868Y548189D01*
X376581Y547752D01*
X377353Y547432D01*
X378166Y547237D01*
X378992Y547172D01*
Y522000D01*
X370142D01*
Y546990D01*
X373155Y546992D01*
X373216Y547007D01*
X373273Y547030D01*
X373326Y547063D01*
X373373Y547103D01*
X373413Y547150D01*
X373446Y547203D01*
X373469Y547260D01*
X373484Y547321D01*
X373487Y547383D01*
X373484Y551775D01*
X373469Y551836D01*
X373446Y551893D01*
X373413Y551946D01*
X373373Y551993D01*
X373326Y552033D01*
X373273Y552066D01*
X373216Y552089D01*
X373155Y552104D01*
X373093Y552108D01*
X370142Y552106D01*
Y552896D01*
X373156Y552898D01*
X373216Y552912D01*
X373273Y552936D01*
X373326Y552968D01*
X373373Y553009D01*
X373414Y553056D01*
X373446Y553109D01*
X373470Y553166D01*
X373484Y553226D01*
X373488Y553288D01*
X373484Y557680D01*
X373470Y557740D01*
X373446Y557797D01*
X373414Y557850D01*
X373373Y557897D01*
X373326Y557938D01*
X373273Y557970D01*
X373216Y557994D01*
X373156Y558008D01*
X373094Y558012D01*
X370142Y558010D01*
Y689000D01*
G37*
G36*
X353098D02*X370142D01*
Y558010D01*
X367127Y558008D01*
X367067Y557994D01*
X367010Y557970D01*
X366957Y557938D01*
X366910Y557897D01*
X366869Y557850D01*
X366837Y557797D01*
X366813Y557740D01*
X366799Y557680D01*
X366795Y557618D01*
X366799Y553226D01*
X366813Y553166D01*
X366837Y553109D01*
X366869Y553056D01*
X366910Y553009D01*
X366957Y552968D01*
X367010Y552936D01*
X367067Y552912D01*
X367127Y552898D01*
X367189Y552894D01*
X370142Y552896D01*
Y552106D01*
X367127Y552104D01*
X367066Y552089D01*
X367009Y552066D01*
X366956Y552033D01*
X366909Y551993D01*
X366869Y551946D01*
X366836Y551893D01*
X366813Y551836D01*
X366798Y551775D01*
X366794Y551714D01*
X366798Y547321D01*
X366813Y547260D01*
X366836Y547203D01*
X366869Y547150D01*
X366909Y547103D01*
X366956Y547063D01*
X367009Y547030D01*
X367066Y547007D01*
X367127Y546992D01*
X367188Y546989D01*
X370142Y546990D01*
Y522000D01*
X353098D01*
Y544568D01*
X353110Y544567D01*
X354287Y544659D01*
X355435Y544935D01*
X356525Y545387D01*
X357532Y546004D01*
X358430Y546770D01*
X359196Y547668D01*
X359813Y548675D01*
X360265Y549765D01*
X360541Y550913D01*
X360610Y552090D01*
X360541Y553267D01*
X360265Y554415D01*
X359813Y555505D01*
X359196Y556512D01*
X358430Y557410D01*
X357532Y558176D01*
X356525Y558793D01*
X355435Y559245D01*
X354287Y559521D01*
X353110Y559613D01*
X353098Y559612D01*
Y689000D01*
G37*
G36*
X327098D02*X353098D01*
Y559612D01*
X351933Y559521D01*
X350785Y559245D01*
X349695Y558793D01*
X348688Y558176D01*
X347790Y557410D01*
X347024Y556512D01*
X346407Y555505D01*
X345955Y554415D01*
X345679Y553267D01*
X345587Y552090D01*
X345679Y550913D01*
X345955Y549765D01*
X346407Y548675D01*
X347024Y547668D01*
X347790Y546770D01*
X348688Y546004D01*
X349695Y545387D01*
X350785Y544935D01*
X351933Y544659D01*
X353098Y544568D01*
Y522000D01*
X327098D01*
Y544568D01*
X327110Y544567D01*
X328287Y544659D01*
X329435Y544935D01*
X330525Y545387D01*
X331532Y546004D01*
X332430Y546770D01*
X333196Y547668D01*
X333813Y548675D01*
X334265Y549765D01*
X334541Y550913D01*
X334610Y552090D01*
X334541Y553267D01*
X334265Y554415D01*
X333813Y555505D01*
X333196Y556512D01*
X332430Y557410D01*
X331532Y558176D01*
X330525Y558793D01*
X329435Y559245D01*
X328287Y559521D01*
X327110Y559613D01*
X327098Y559612D01*
Y689000D01*
G37*
G36*
X262390Y806000D02*X320767D01*
X320712Y805911D01*
X320592Y805620D01*
X320519Y805314D01*
X320500Y805000D01*
Y778500D01*
X316678D01*
X316600Y778506D01*
X316286Y778481D01*
X315980Y778408D01*
X315689Y778288D01*
X315421Y778123D01*
X315420Y778123D01*
X315181Y777919D01*
X315130Y777859D01*
X309641Y772370D01*
X309581Y772319D01*
X309377Y772079D01*
X309212Y771811D01*
X309092Y771520D01*
X309019Y771214D01*
X309019Y771214D01*
X308994Y770900D01*
X309000Y770822D01*
Y696678D01*
X308994Y696600D01*
X309019Y696286D01*
X309074Y696054D01*
X309092Y695980D01*
X309127Y695895D01*
X309212Y695689D01*
X309377Y695421D01*
X309377Y695421D01*
X309581Y695181D01*
X309641Y695130D01*
X315130Y689641D01*
X315181Y689581D01*
X315421Y689377D01*
X315421Y689377D01*
X315689Y689212D01*
X315895Y689127D01*
X315980Y689092D01*
X316054Y689074D01*
X316286Y689019D01*
X316600Y688994D01*
X316678Y689000D01*
X327098D01*
Y559612D01*
X325933Y559521D01*
X324785Y559245D01*
X323695Y558793D01*
X322688Y558176D01*
X321790Y557410D01*
X321024Y556512D01*
X320407Y555505D01*
X319955Y554415D01*
X319679Y553267D01*
X319587Y552090D01*
X319679Y550913D01*
X319955Y549765D01*
X320407Y548675D01*
X321024Y547668D01*
X321790Y546770D01*
X322688Y546004D01*
X323695Y545387D01*
X324785Y544935D01*
X325933Y544659D01*
X327098Y544568D01*
Y522000D01*
X262390D01*
Y554500D01*
X270822D01*
X270900Y554494D01*
X271214Y554519D01*
X271214Y554519D01*
X271520Y554592D01*
X271811Y554712D01*
X272079Y554877D01*
X272319Y555081D01*
X272370Y555141D01*
X276359Y559130D01*
X276419Y559181D01*
X276623Y559421D01*
X276623Y559421D01*
X276788Y559689D01*
X276908Y559980D01*
X276981Y560286D01*
X277006Y560600D01*
X277000Y560678D01*
Y587322D01*
X277006Y587400D01*
X276990Y587605D01*
Y587682D01*
X276996Y587760D01*
X276971Y588074D01*
X276971Y588074D01*
X276898Y588380D01*
X276778Y588671D01*
X276613Y588939D01*
X276409Y589179D01*
X276349Y589230D01*
X272360Y593219D01*
X272309Y593279D01*
X272069Y593483D01*
X272069Y593483D01*
X271801Y593648D01*
X271510Y593768D01*
X271204Y593841D01*
X270890Y593866D01*
X270812Y593860D01*
X262390D01*
Y626452D01*
X262410Y626451D01*
X264411Y626608D01*
X266362Y627077D01*
X268216Y627845D01*
X269927Y628893D01*
X271453Y630197D01*
X272757Y631723D01*
X273805Y633434D01*
X274573Y635288D01*
X275042Y637239D01*
X275160Y639240D01*
X275042Y641241D01*
X274573Y643192D01*
X273805Y645046D01*
X272757Y646757D01*
X271453Y648283D01*
X269927Y649587D01*
X268216Y650635D01*
X266362Y651403D01*
X264411Y651872D01*
X262410Y652029D01*
X262390Y652028D01*
Y731200D01*
X292722D01*
X292800Y731194D01*
X293114Y731219D01*
X293420Y731292D01*
X293711Y731412D01*
X293979Y731577D01*
X294219Y731781D01*
X294270Y731841D01*
X297759Y735330D01*
X297819Y735381D01*
X298023Y735620D01*
X298023Y735621D01*
X298188Y735889D01*
X298308Y736180D01*
X298381Y736486D01*
X298406Y736800D01*
X298400Y736878D01*
Y755022D01*
X298406Y755100D01*
X298381Y755414D01*
X298308Y755720D01*
X298188Y756011D01*
X298023Y756279D01*
X298023Y756279D01*
X297819Y756519D01*
X297759Y756570D01*
X293720Y760609D01*
X293669Y760669D01*
X293429Y760873D01*
X293161Y761038D01*
X292870Y761158D01*
X292564Y761231D01*
X292564Y761231D01*
X292250Y761256D01*
X292172Y761250D01*
X262390D01*
Y806000D01*
G37*
G36*
Y593860D02*X247459D01*
X248459Y594473D01*
X250195Y595955D01*
X251677Y597691D01*
X252869Y599637D01*
X253743Y601745D01*
X254276Y603965D01*
X254410Y606240D01*
X254276Y608515D01*
X253743Y610735D01*
X252869Y612843D01*
X251677Y614789D01*
X250195Y616525D01*
X248459Y618007D01*
X246513Y619199D01*
X244405Y620073D01*
X242185Y620606D01*
X239910Y620785D01*
X239495Y620752D01*
Y731200D01*
X262390D01*
Y652028D01*
X260409Y651872D01*
X258458Y651403D01*
X256604Y650635D01*
X254893Y649587D01*
X253367Y648283D01*
X252063Y646757D01*
X251015Y645046D01*
X250247Y643192D01*
X249778Y641241D01*
X249621Y639240D01*
X249778Y637239D01*
X250247Y635288D01*
X251015Y633434D01*
X252063Y631723D01*
X253367Y630197D01*
X254893Y628893D01*
X256604Y627845D01*
X258458Y627077D01*
X260409Y626608D01*
X262390Y626452D01*
Y593860D01*
G37*
G36*
Y522000D02*X239495D01*
Y554500D01*
X262390D01*
Y522000D01*
G37*
G36*
X239495Y806000D02*X262390D01*
Y761250D01*
X239495D01*
Y806000D01*
G37*
G36*
X216890Y554500D02*X239495D01*
Y522000D01*
X216890D01*
Y554500D01*
G37*
G36*
Y806000D02*X239495D01*
Y761250D01*
X234528D01*
X234450Y761256D01*
X234136Y761231D01*
X233830Y761158D01*
X233539Y761038D01*
X233271Y760873D01*
X233271Y760873D01*
X233031Y760669D01*
X232980Y760609D01*
X228541Y756170D01*
X228481Y756119D01*
X228277Y755879D01*
X228112Y755611D01*
X227992Y755320D01*
X227919Y755014D01*
X227919Y755014D01*
X227894Y754700D01*
X227900Y754622D01*
Y736878D01*
X227894Y736800D01*
X227919Y736486D01*
X227974Y736254D01*
X227992Y736180D01*
X228027Y736095D01*
X228112Y735889D01*
X228277Y735621D01*
X228277Y735621D01*
X228481Y735381D01*
X228541Y735330D01*
X232030Y731841D01*
X232081Y731781D01*
X232321Y731577D01*
X232321Y731577D01*
X232589Y731412D01*
X232880Y731292D01*
X233186Y731219D01*
X233500Y731194D01*
X233578Y731200D01*
X239495D01*
Y620752D01*
X237635Y620606D01*
X235415Y620073D01*
X233307Y619199D01*
X231361Y618007D01*
X229625Y616525D01*
X228143Y614789D01*
X226951Y612843D01*
X226077Y610735D01*
X225544Y608515D01*
X225365Y606240D01*
X225544Y603965D01*
X226077Y601745D01*
X226951Y599637D01*
X228143Y597691D01*
X229625Y595955D01*
X231361Y594473D01*
X232361Y593860D01*
X216890D01*
Y626452D01*
X216910Y626451D01*
X218911Y626608D01*
X220862Y627077D01*
X222716Y627845D01*
X224427Y628893D01*
X225953Y630197D01*
X227257Y631723D01*
X228305Y633434D01*
X229073Y635288D01*
X229542Y637239D01*
X229660Y639240D01*
X229542Y641241D01*
X229073Y643192D01*
X228305Y645046D01*
X227257Y646757D01*
X225953Y648283D01*
X224427Y649587D01*
X222716Y650635D01*
X220862Y651403D01*
X218911Y651872D01*
X216910Y652029D01*
X216890Y652028D01*
Y662673D01*
X218393Y663957D01*
X219697Y665483D01*
X220745Y667194D01*
X221513Y669048D01*
X221982Y670999D01*
X222100Y673000D01*
X221982Y675001D01*
X221513Y676952D01*
X220745Y678806D01*
X219697Y680517D01*
X218393Y682043D01*
X216890Y683327D01*
Y730500D01*
X217322D01*
X217400Y730494D01*
X217714Y730519D01*
X217714Y730519D01*
X218020Y730592D01*
X218311Y730712D01*
X218492Y730824D01*
X218610Y730852D01*
X218901Y730972D01*
X219169Y731137D01*
X219409Y731341D01*
X219460Y731401D01*
X223449Y735390D01*
X223509Y735441D01*
X223713Y735681D01*
X223713Y735681D01*
X223878Y735949D01*
X223998Y736240D01*
X224071Y736546D01*
X224096Y736860D01*
X224090Y736938D01*
Y763582D01*
X224096Y763660D01*
X224071Y763974D01*
X224071Y763974D01*
X223998Y764280D01*
X223878Y764571D01*
X223713Y764839D01*
X223509Y765079D01*
X223449Y765130D01*
X219460Y769119D01*
X219409Y769179D01*
X219169Y769383D01*
X219169Y769383D01*
X218901Y769548D01*
X218610Y769668D01*
X218304Y769741D01*
X217990Y769766D01*
X217912Y769760D01*
X216890D01*
Y806000D01*
G37*
G36*
Y593860D02*X209168D01*
X209090Y593866D01*
X208776Y593841D01*
X208470Y593768D01*
X208179Y593648D01*
X207911Y593483D01*
X207911Y593483D01*
X207671Y593279D01*
X207620Y593219D01*
X202631Y588230D01*
X202571Y588179D01*
X202367Y587939D01*
X202202Y587671D01*
X202082Y587380D01*
X202009Y587074D01*
X202009Y587074D01*
Y587074D01*
X201984Y586760D01*
X201990Y586682D01*
Y561038D01*
X201984Y560960D01*
X202000Y560755D01*
Y560678D01*
X201994Y560600D01*
X202019Y560286D01*
X202074Y560054D01*
X202092Y559980D01*
X202127Y559895D01*
X202212Y559689D01*
X202377Y559421D01*
X202377Y559421D01*
X202581Y559181D01*
X202641Y559130D01*
X206630Y555141D01*
X206681Y555081D01*
X206921Y554877D01*
X206921Y554877D01*
X207189Y554712D01*
X207395Y554627D01*
X207480Y554592D01*
X207554Y554574D01*
X207786Y554519D01*
X208100Y554494D01*
X208178Y554500D01*
X216890D01*
Y522000D01*
X186478D01*
Y692457D01*
X186500Y692455D01*
X188775Y692634D01*
X190995Y693167D01*
X193103Y694041D01*
X195049Y695233D01*
X196785Y696715D01*
X198267Y698451D01*
X199459Y700397D01*
X200333Y702505D01*
X200866Y704725D01*
X201000Y707000D01*
X200866Y709275D01*
X200333Y711495D01*
X199459Y713603D01*
X198267Y715549D01*
X196785Y717285D01*
X195049Y718767D01*
X193103Y719959D01*
X190995Y720833D01*
X188775Y721366D01*
X186500Y721545D01*
X186478Y721543D01*
Y730500D01*
X216890D01*
Y683327D01*
X216867Y683347D01*
X215156Y684395D01*
X213302Y685163D01*
X211351Y685632D01*
X209350Y685789D01*
X207349Y685632D01*
X205398Y685163D01*
X203544Y684395D01*
X201833Y683347D01*
X200307Y682043D01*
X199003Y680517D01*
X197955Y678806D01*
X197187Y676952D01*
X196718Y675001D01*
X196561Y673000D01*
X196718Y670999D01*
X197187Y669048D01*
X197955Y667194D01*
X199003Y665483D01*
X200307Y663957D01*
X201833Y662653D01*
X203544Y661605D01*
X205398Y660837D01*
X207349Y660368D01*
X209350Y660211D01*
X211351Y660368D01*
X213302Y660837D01*
X215156Y661605D01*
X216867Y662653D01*
X216890Y662673D01*
Y652028D01*
X214909Y651872D01*
X212958Y651403D01*
X211104Y650635D01*
X209393Y649587D01*
X207867Y648283D01*
X206563Y646757D01*
X205515Y645046D01*
X204747Y643192D01*
X204278Y641241D01*
X204121Y639240D01*
X204278Y637239D01*
X204747Y635288D01*
X205515Y633434D01*
X206563Y631723D01*
X207867Y630197D01*
X209393Y628893D01*
X211104Y627845D01*
X212958Y627077D01*
X214909Y626608D01*
X216890Y626452D01*
Y593860D01*
G37*
G36*
X186478Y806000D02*X216890D01*
Y769760D01*
X186478D01*
Y806000D01*
G37*
G36*
X163830Y730500D02*X186478D01*
Y721543D01*
X184225Y721366D01*
X182005Y720833D01*
X179897Y719959D01*
X177951Y718767D01*
X176215Y717285D01*
X174733Y715549D01*
X173541Y713603D01*
X172667Y711495D01*
X172134Y709275D01*
X171955Y707000D01*
X172134Y704725D01*
X172667Y702505D01*
X173541Y700397D01*
X174733Y698451D01*
X176215Y696715D01*
X177951Y695233D01*
X179897Y694041D01*
X182005Y693167D01*
X184225Y692634D01*
X186478Y692457D01*
Y522000D01*
X163830D01*
Y660212D01*
X163850Y660211D01*
X165851Y660368D01*
X167802Y660837D01*
X169656Y661605D01*
X171367Y662653D01*
X172893Y663957D01*
X174197Y665483D01*
X175245Y667194D01*
X176013Y669048D01*
X176482Y670999D01*
X176600Y673000D01*
X176482Y675001D01*
X176013Y676952D01*
X175245Y678806D01*
X174197Y680517D01*
X172893Y682043D01*
X171367Y683347D01*
X169656Y684395D01*
X167802Y685163D01*
X165851Y685632D01*
X163850Y685789D01*
X163830Y685788D01*
Y730500D01*
G37*
G36*
Y806000D02*X186478D01*
Y769760D01*
X163830D01*
Y806000D01*
G37*
G36*
X47578Y611000D02*X47500Y611006D01*
X47186Y610981D01*
X46880Y610908D01*
X46589Y610788D01*
X46321Y610623D01*
X46081Y610419D01*
X45877Y610179D01*
X45712Y609911D01*
X45592Y609620D01*
X45519Y609314D01*
X45519Y609313D01*
X45494Y609000D01*
X45500Y608922D01*
Y563578D01*
X45494Y563500D01*
X45519Y563186D01*
X45519Y563186D01*
X45592Y562880D01*
X45712Y562589D01*
X45877Y562321D01*
X46081Y562081D01*
X46321Y561877D01*
X46589Y561712D01*
X46880Y561592D01*
X47186Y561519D01*
X47500Y561494D01*
X47578Y561500D01*
X79422D01*
X79500Y561494D01*
X79814Y561519D01*
X80120Y561592D01*
X80411Y561712D01*
X80679Y561877D01*
X80919Y562081D01*
X81123Y562321D01*
X81288Y562589D01*
X81408Y562880D01*
X81481Y563186D01*
X81500Y563422D01*
Y523078D01*
X81494Y523000D01*
X81519Y522686D01*
X81519Y522686D01*
X81592Y522380D01*
X81712Y522089D01*
X81767Y522000D01*
X41500D01*
Y684717D01*
X41589Y684662D01*
X41880Y684542D01*
X42186Y684469D01*
X42500Y684450D01*
X45500D01*
Y640378D01*
X45494Y640300D01*
X45519Y639986D01*
X45519Y639986D01*
X45592Y639680D01*
X45712Y639389D01*
X45877Y639121D01*
X46081Y638881D01*
X46321Y638677D01*
X46589Y638512D01*
X46880Y638392D01*
X47186Y638319D01*
X47500Y638294D01*
X47578Y638300D01*
X79422D01*
X79500Y638294D01*
X79814Y638319D01*
X80120Y638392D01*
X80411Y638512D01*
X80679Y638677D01*
X80919Y638881D01*
X81123Y639121D01*
X81288Y639389D01*
X81408Y639680D01*
X81481Y639986D01*
X81506Y640300D01*
X81500Y640378D01*
Y685722D01*
X81506Y685800D01*
X81481Y686114D01*
X81481Y686114D01*
X81408Y686420D01*
X81288Y686711D01*
X81123Y686979D01*
X80919Y687219D01*
X80679Y687423D01*
X80411Y687588D01*
X80120Y687708D01*
X79814Y687781D01*
X79500Y687806D01*
X79422Y687800D01*
X78078D01*
X80859Y690580D01*
X80919Y690631D01*
X81123Y690871D01*
X81123Y690871D01*
X81288Y691139D01*
X81408Y691430D01*
X81481Y691736D01*
X81506Y692050D01*
X81500Y692128D01*
Y758272D01*
X81506Y758350D01*
X81481Y758664D01*
X81481Y758664D01*
X81408Y758970D01*
X81288Y759261D01*
X81123Y759529D01*
X80919Y759769D01*
X80859Y759820D01*
X75370Y765309D01*
X75319Y765369D01*
X75079Y765573D01*
X74811Y765738D01*
X74520Y765858D01*
X74214Y765931D01*
X74214Y765931D01*
X73900Y765956D01*
X73822Y765950D01*
X41500D01*
X41186Y765931D01*
X40880Y765858D01*
X40589Y765738D01*
X40500Y765683D01*
Y806000D01*
X163830D01*
Y769760D01*
X156268D01*
X156190Y769766D01*
X155876Y769741D01*
X155570Y769668D01*
X155279Y769548D01*
X155098Y769436D01*
X154980Y769408D01*
X154689Y769288D01*
X154421Y769123D01*
X154421Y769123D01*
X154181Y768919D01*
X154130Y768859D01*
X149641Y764370D01*
X149581Y764319D01*
X149377Y764079D01*
X149212Y763811D01*
X149092Y763520D01*
X149019Y763214D01*
X148994Y762900D01*
X149000Y762822D01*
Y737678D01*
X148994Y737600D01*
X149019Y737286D01*
X149090Y736988D01*
Y736938D01*
X149084Y736860D01*
X149109Y736546D01*
X149164Y736314D01*
X149182Y736240D01*
X149217Y736155D01*
X149302Y735949D01*
X149467Y735681D01*
X149467Y735681D01*
X149671Y735441D01*
X149731Y735390D01*
X153720Y731401D01*
X153771Y731341D01*
X154011Y731137D01*
X154011Y731137D01*
X154279Y730972D01*
X154485Y730887D01*
X154570Y730852D01*
X154644Y730834D01*
X154876Y730779D01*
X155112Y730760D01*
X155189Y730712D01*
X155395Y730627D01*
X155480Y730592D01*
X155505Y730586D01*
X155786Y730519D01*
X156100Y730494D01*
X156178Y730500D01*
X163830D01*
Y685788D01*
X161849Y685632D01*
X159898Y685163D01*
X158044Y684395D01*
X156333Y683347D01*
X154807Y682043D01*
X153503Y680517D01*
X152455Y678806D01*
X151687Y676952D01*
X151218Y675001D01*
X151061Y673000D01*
X151218Y670999D01*
X151687Y669048D01*
X152455Y667194D01*
X153503Y665483D01*
X154807Y663957D01*
X156333Y662653D01*
X158044Y661605D01*
X159898Y660837D01*
X161849Y660368D01*
X163830Y660212D01*
Y522000D01*
X117233D01*
X117288Y522089D01*
X117408Y522380D01*
X117481Y522686D01*
X117506Y523000D01*
X117500Y523078D01*
Y568422D01*
X117506Y568500D01*
X117481Y568814D01*
X117481Y568814D01*
X117408Y569120D01*
X117288Y569411D01*
X117123Y569679D01*
X116919Y569919D01*
X116679Y570123D01*
X116411Y570288D01*
X116120Y570408D01*
X115814Y570481D01*
X115500Y570506D01*
X115422Y570500D01*
X83578D01*
X83500Y570506D01*
X83186Y570481D01*
X82880Y570408D01*
X82589Y570288D01*
X82321Y570123D01*
X82081Y569919D01*
X81877Y569679D01*
X81712Y569411D01*
X81592Y569120D01*
X81519Y568814D01*
X81519Y568813D01*
X81500Y568578D01*
Y608922D01*
X81506Y609000D01*
X81481Y609314D01*
X81481Y609314D01*
X81408Y609620D01*
X81288Y609911D01*
X81123Y610179D01*
X80919Y610419D01*
X80679Y610623D01*
X80411Y610788D01*
X80120Y610908D01*
X79814Y610981D01*
X79500Y611006D01*
X79422Y611000D01*
X47578D01*
G37*
G54D12*X304000Y468700D02*X306000D01*
X311400D02*X312400D01*
X316800D02*X317800D01*
X310200D02*Y472700D01*
X307700Y470700D02*X310200D01*
X311900Y468700D02*Y472700D01*
X311400D02*X312400D01*
X313600Y468700D02*Y472700D01*
X315600D01*
X317300Y468700D02*Y472700D01*
X297400Y475400D02*X295400D01*
X296900Y477200D02*X295400D01*
X298600Y475400D02*X299600Y479400D01*
X295400Y475400D02*Y479400D01*
X297400D01*
X299600D02*X300600Y475400D01*
X301800Y479400D02*Y476400D01*
X302500Y475400D01*
X304300Y479400D02*Y476400D01*
X297800Y472200D02*X297300Y472700D01*
X306000Y468700D02*X306500Y469200D01*
Y470200D01*
X306000Y470700D01*
X304500D01*
Y472700D02*Y468700D01*
X307700D02*Y472700D01*
X324500Y468700D02*Y472700D01*
X326500D01*
X328200Y468700D02*X327700Y469200D01*
Y472200D01*
X328200Y472700D01*
X329200D01*
X329700Y472200D01*
Y469200D01*
X329200Y468700D01*
X328200D01*
X304300Y476400D02*X303600Y475400D01*
X301800Y477400D02*X304300D01*
X305500Y479400D02*Y475400D01*
X308000Y479400D01*
X303600Y475400D02*X302500D01*
X313000D02*X311000D01*
X308000Y479400D02*Y475400D01*
X311000D02*Y479400D01*
X312500Y477200D02*X311000D01*
X314200Y475900D02*X314700Y475400D01*
X315700D01*
X319900Y475900D02*X319400Y475400D01*
X317900D01*
X317400Y475900D01*
X321600Y475400D02*X323100D01*
X323600Y475900D01*
X316200Y478900D02*X315700Y479400D01*
X314700D01*
X314200Y478900D01*
Y475900D01*
X315700Y475400D02*X316200Y475900D01*
Y478900D01*
X317400Y475900D02*Y476900D01*
X317900Y477400D01*
X319400D01*
X319900Y477900D01*
Y478900D01*
X319400Y479400D01*
X317900D01*
X317400Y478900D01*
X316800Y472700D02*X317800D01*
X319000Y468700D02*X321000D01*
X321500Y469200D01*
Y470200D01*
X321000Y470700D01*
X319500D01*
Y468700D02*Y472700D01*
X330900Y468700D02*X331900D01*
X333100D02*X335600D01*
X337300D02*X336800Y469200D01*
X331400Y468700D02*Y472700D01*
X335600Y468700D02*X333100Y472700D01*
X330900D02*X331900D01*
X333100D02*X335600D01*
X336800Y472200D02*X337300Y472700D01*
X338300Y468700D02*X337300D01*
X336800Y469200D02*Y472200D01*
X337300Y472700D02*X338300D01*
X338800Y472200D01*
Y469200D01*
X340000Y468700D02*Y472200D01*
X338800Y469200D02*X338300Y468700D01*
X347900Y469200D02*X347400Y468700D01*
X345900D01*
X345400Y469200D01*
X340000Y472200D02*X340500Y472700D01*
X341500D01*
X342000Y472200D01*
Y468700D01*
X344200D02*X343200Y469700D01*
X345400Y469200D02*Y470200D01*
X345900Y470700D01*
X347400D01*
X347900Y471200D01*
Y472200D01*
X347400Y472700D01*
X345900D01*
X345400Y472200D01*
X321100Y478900D02*X321600Y479400D01*
X323100D01*
X323600Y478900D01*
Y477900D01*
X323100Y477400D01*
X321600D01*
X321100Y476900D01*
Y475900D01*
X321600Y475400D01*
X305400Y483100D02*X302900D01*
X306600D02*X307600D01*
X309300D02*X308800Y483600D01*
X302900Y483100D02*X305400Y487100D01*
X302900D01*
X307100Y483100D02*Y487100D01*
X306600D02*X307600D01*
X308800Y483600D02*Y486600D01*
X309300Y487100D01*
X310300D01*
Y483100D02*X309300D01*
X310300Y487100D02*X310800Y486600D01*
X312000Y487100D02*X314000D01*
Y483100D01*
X310800Y486600D02*Y483600D01*
X310300Y483100D01*
X306100Y491100D02*X306600Y490600D01*
X308100D01*
Y492600D02*X306600D01*
X306100Y493100D01*
Y494100D01*
X306600Y494600D01*
X308100D01*
Y490600D02*X308600Y491100D01*
Y492100D01*
X308100Y492600D01*
Y494600D02*X308600Y494100D01*
X309800Y491100D02*X310300Y490600D01*
X311800D01*
X312300Y491100D01*
X309800Y493100D02*Y494100D01*
X319500Y483100D02*X317500D01*
X317000Y483600D01*
Y484600D01*
X317500Y485100D01*
X319000D01*
Y483100D02*Y487100D01*
X320700Y483100D02*X321700D01*
X327100D02*X326100D01*
X334500D02*X332500D01*
X332000Y483600D01*
X321200Y483100D02*Y487100D01*
X320700D02*X321700D01*
X322900D02*X324900D01*
Y483100D01*
X326600D02*Y487100D01*
X327100D02*X326100D01*
X328300Y483100D02*Y487100D01*
Y485100D02*X330800D01*
X332500D02*X334000D01*
X330800Y483100D02*Y487100D01*
X332000Y483600D02*Y484600D01*
X332500Y485100D01*
X334000Y483100D02*Y487100D01*
X312300Y491100D02*Y492100D01*
X311800Y492600D01*
X310300D01*
X309800Y493100D01*
X313500Y491100D02*Y494100D01*
X315500D02*Y491100D01*
X309800Y494100D02*X310300Y494600D01*
X311800D01*
X312300Y494100D01*
X313500D02*X314000Y494600D01*
X315000D01*
X315500Y494100D01*
X314000Y490600D02*X313500Y491100D01*
X315500D02*X315000Y490600D01*
X314000D01*
X316700D02*X318700D01*
X317200Y492400D02*X318700D01*
Y490600D02*Y494600D01*
X321700D02*X324200Y490600D01*
X321700Y494600D02*Y490600D01*
X324200D02*Y494600D01*
X325400D02*Y491600D01*
X326100Y490600D01*
X327900Y494600D02*Y491600D01*
X327200Y490600D01*
X326100D01*
X327900Y492600D02*X325400D01*
X330100Y494600D02*X329100Y490600D01*
X330100Y494600D02*X331100Y490600D01*
X332300D02*X334300D01*
Y494600D01*
X332300D01*
X332800Y492400D02*X334300D01*
G54D13*X275000Y560600D02*Y587400D01*
X437000Y648000D02*X397600D01*
X391500Y641900D01*
Y604100D01*
X397100Y598500D01*
X436500D01*
X208100Y556500D02*X270900D01*
X204000Y560600D02*X208100Y556500D01*
X270900D02*X275000Y560600D01*
Y587400D02*X270900Y591500D01*
X209100D01*
X204000Y586400D01*
Y560600D01*
X217400Y732500D02*X221500Y736600D01*
Y763700D01*
X217700Y767500D01*
X155600D01*
X151000Y737600D02*X156100Y732500D01*
X217400D01*
X155600Y767500D02*X151000Y762900D01*
Y737600D01*
X156100Y732500D01*
G54D12*X295300Y468700D02*X297300D01*
X297800Y469200D01*
Y470000D01*
X299000Y468700D02*X300000Y470700D01*
X301000Y468700D02*X300000Y470700D01*
X297800Y470000D02*X297300Y470500D01*
X297800Y471000D01*
Y472200D01*
X297300Y472700D02*X295300D01*
X297300Y470500D02*X295800D01*
X300000Y470700D02*Y472700D01*
X295800Y468700D02*Y472700D01*
X296500Y483100D02*Y486600D01*
X297000Y487100D01*
X298000D01*
X298500Y486600D01*
Y483100D01*
X300200Y487100D02*X301200D01*
X301700Y486600D01*
X300200Y483100D02*X299700Y483600D01*
Y486600D01*
X300200Y487100D01*
X301700Y486600D02*Y483600D01*
X301200Y483100D01*
X300200D01*
X255500Y472500D02*X255000Y472000D01*
X253500D01*
X253000Y472500D01*
Y473500D01*
X253500Y474000D01*
X255000D01*
X255500Y474500D01*
Y475500D01*
X255000Y476000D01*
X253500D01*
X253000Y475500D01*
X257200Y472000D02*X256700Y472500D01*
Y475500D01*
X258700Y472500D02*X258200Y472000D01*
X257200D01*
X256700Y475500D02*X257200Y476000D01*
X258200D01*
X258700Y475500D01*
Y472500D01*
X259900Y476000D02*Y472000D01*
X262400Y476000D01*
Y472000D01*
X263600Y475500D02*X264100Y476000D01*
Y472000D02*X263600Y472500D01*
Y475500D01*
X266100D02*Y474500D01*
X265600Y474000D01*
X264600D01*
X266100Y472500D02*X265600Y472000D01*
X264100D01*
Y476000D02*X265600D01*
X266100Y475500D01*
X270100Y474000D02*X271100D01*
X271600Y474500D02*Y475500D01*
X271100Y476000D01*
X269600D01*
X269100Y475500D01*
Y472500D01*
X271100Y474000D02*X271600Y474500D01*
X272800Y472000D02*Y475500D01*
X269100Y472500D02*X269600Y472000D01*
X271100D01*
X271600Y472500D01*
X276500Y472000D02*X277500D01*
X278000Y472500D01*
X276000D02*X276500Y472000D01*
X272800Y475500D02*X273300Y476000D01*
X274300D01*
X274800Y475500D01*
Y472000D01*
X278000Y472500D02*Y475500D01*
X277500Y476000D01*
X276500D01*
X276000Y475500D01*
Y472500D01*
X184900Y491100D02*X186700D01*
X187400Y490400D01*
Y487800D01*
X186700Y487100D01*
X184900D01*
X185400D02*Y491100D01*
X184900Y484400D02*X186700D01*
X187400Y483700D01*
Y481100D01*
X186700Y480400D01*
X184900D01*
X185400D02*Y484400D01*
X188600Y490600D02*X189100Y491100D01*
X190600D01*
X191100Y490600D01*
Y489600D01*
X190600Y489100D01*
X189100D01*
X188600Y488600D01*
Y487600D01*
X189100Y487100D01*
X190600D01*
X191100Y487600D01*
X192300Y487100D02*X194300D01*
X194800Y487600D01*
Y488600D01*
X194300Y489100D01*
X192800D01*
Y491100D02*Y487100D01*
X166300Y468900D02*X167300D01*
X169500D02*X171000D01*
X183300D02*X184300D01*
X176400D02*X178400D01*
X173200D02*X174700D01*
X179600D02*X180900D01*
X188600Y483900D02*X189100Y484400D01*
X190600D01*
X191100Y483900D01*
Y482900D01*
X190600Y482400D01*
X189100D01*
X188600Y481900D01*
Y480900D01*
X189100Y480400D01*
X190600D01*
X191100Y480900D01*
X192300Y480400D02*X194300D01*
X194800Y480900D01*
Y481900D01*
X194300Y482400D01*
X192800D01*
Y484400D02*Y480400D01*
X205800Y484300D02*X207600D01*
X205800D02*X205100Y483600D01*
Y481000D01*
X205800Y480300D01*
X207600D01*
X207100Y484300D02*Y480300D01*
X203900Y483800D02*X203400Y484300D01*
X201900D02*X203400D01*
X201900D02*X201400Y483800D01*
Y482800D01*
X201900Y482300D01*
X203400D01*
X203900Y481800D01*
Y480800D01*
X203400Y480300D01*
X201900D02*X203400D01*
X201900D02*X201400Y480800D01*
X198200Y480300D02*X200200D01*
X198200D02*X197700Y480800D01*
Y481800D02*Y480800D01*
X199700Y484300D02*Y480300D01*
X197700Y481800D02*X198200Y482300D01*
X199700D01*
X256200Y461000D02*Y457500D01*
X258200Y461000D02*Y457500D01*
X259900D02*X259400Y458000D01*
Y461000D02*Y460000D01*
X259900Y459500D02*X259400Y460000D01*
X259900Y457500D02*X261400D01*
X261900Y458000D02*X261400Y457500D01*
X261900Y461000D02*Y458000D01*
X261400Y461500D02*X261900Y461000D01*
X256700Y461500D02*X256200Y461000D01*
X256700Y461500D02*X257700D01*
X258200Y461000D02*X257700Y461500D01*
X259900D02*X261400D01*
X259400Y461000D02*X259900Y461500D01*
Y459500D02*X260900D01*
X265400D02*X266400D01*
X264900Y460000D02*X265400Y459500D01*
X264900Y461000D02*Y460000D01*
X265400Y461500D02*X264900Y461000D01*
X265400Y461500D02*X266900D01*
X267400Y461000D02*X266900Y461500D01*
X267400Y461000D02*Y458000D01*
X266900Y457500D02*X267400Y458000D01*
X264900D02*X265400Y457500D01*
X266900D01*
X268600Y461500D02*Y457500D01*
X271100D02*X268600Y461500D01*
X271100D02*Y457500D01*
X277500Y461500D02*X278000Y461000D01*
X276000Y461500D02*X277500D01*
X275500Y461000D02*X276000Y461500D01*
X275500Y461000D02*Y460000D01*
X276000Y459500D02*X275500Y460000D01*
X276000Y459500D02*X277500D01*
X278000Y459000D02*X277500Y459500D01*
X278000Y459000D02*Y458000D01*
X276000Y457500D02*X277500D01*
X275500Y458000D02*X276000Y457500D01*
X277500D02*X278000Y458000D01*
X273800Y457500D02*X274300Y458000D01*
Y461000D02*Y458000D01*
Y461000D02*X273800Y461500D01*
X272800D02*X273800D01*
X272800D02*X272300Y461000D01*
Y458000D01*
X272800Y457500D01*
X273800D01*
X253500D02*X254500D01*
X253500D02*X253000Y458000D01*
Y461000D02*Y458000D01*
Y461000D02*X253500Y461500D01*
X254500D01*
X255000Y461000D01*
Y458000D01*
X254500Y457500D01*
X205500D02*X206500D01*
X205500D02*X205000Y458000D01*
Y461000D02*Y458000D01*
Y461000D02*X205500Y461500D01*
X206500D01*
X207000Y461000D01*
Y458000D01*
X206500Y457500D01*
X208200D02*X210200D01*
X210700Y458000D01*
Y459000D01*
X210200Y459500D01*
X208700D01*
Y457500D02*Y461500D01*
X210700D02*X209500Y459500D01*
X194400Y461500D02*X196400D01*
X191900D02*X193200D01*
X196400Y457500D02*X194400D01*
X195900Y459300D02*X194400D01*
Y457500D02*Y461500D01*
X193200Y457500D02*X191900D01*
X191200Y458200D01*
Y460800D01*
X191900Y461500D01*
X197600Y461000D02*X198100Y461500D01*
X199600D01*
Y459500D02*X198100D01*
X197600Y459000D01*
Y458000D01*
X198100Y457500D01*
X199600D01*
Y461500D02*X200100Y461000D01*
Y460000D01*
X199600Y459500D01*
Y457500D02*X200100Y458000D01*
X201300Y461000D02*X201800Y461500D01*
X203300D01*
X203800Y461000D01*
Y460000D01*
X203300Y459500D01*
X201800D01*
X201300Y459000D01*
Y458000D01*
X201800Y457500D01*
X203300D01*
X203800Y458000D01*
X188500Y457500D02*X189500D01*
X188500D02*X188000Y458000D01*
X186300Y457500D02*X186800Y458000D01*
Y459000D01*
X186300Y459500D01*
X184800D01*
X188000Y461000D02*Y458000D01*
Y461000D02*X188500Y461500D01*
X189500D01*
X190000Y461000D01*
Y458000D01*
X189500Y457500D01*
X180600D02*X182600D01*
X184300D02*X186300D01*
X182600D02*X183100Y458000D01*
Y459000D01*
X182600Y459500D01*
X181100D01*
Y461500D02*Y457500D01*
X184800D02*Y461500D01*
X186800D02*X185600Y459500D01*
X183300Y464900D02*X184300D01*
X184800Y465400D01*
X176400Y464900D02*X178400D01*
X186500D02*X186000Y465400D01*
X179600Y464900D02*X180900D01*
X181600Y465600D01*
X184800Y468400D02*X184300Y468900D01*
X183300D02*X182800Y468400D01*
Y465400D01*
X184800Y468400D02*Y465400D01*
X182800D02*X183300Y464900D01*
X181600Y468200D02*Y465600D01*
Y468200D02*X180900Y468900D01*
X190200Y464900D02*X192200D01*
X186500D02*X188500D01*
X190200D02*X189700Y465400D01*
Y466400D02*Y465400D01*
Y466400D02*X190200Y466900D01*
X191700D01*
Y468900D02*Y464900D01*
X186000Y466400D02*Y465400D01*
Y466400D02*X186500Y466900D01*
X188000D01*
Y468900D02*Y464900D01*
X186000Y468900D02*X187200Y466900D01*
X145600Y443500D02*X144300D01*
X143600Y444200D01*
Y446800D01*
X144300Y447500D01*
X145600D01*
X146800Y443500D02*Y447500D01*
Y445500D02*X149300D01*
Y443500D02*Y447500D01*
X145600Y449600D02*X144300D01*
X143600Y450300D01*
Y452900D01*
X144300Y453600D01*
X145600D01*
X146800Y449600D02*Y453600D01*
Y451600D02*X149300D01*
Y449600D02*Y453600D01*
X150500Y443500D02*X151500D01*
X151000D02*Y447500D01*
X150500D02*X151500D01*
X150500Y449600D02*X151500D01*
X151000D02*Y453600D01*
X150500D02*X151500D01*
X152700Y443500D02*X154700D01*
X155200Y444000D01*
Y445000D01*
X154700Y445500D01*
X153200D01*
Y443500D02*Y447500D01*
Y449600D02*Y453600D01*
X152700Y449600D02*X154700D01*
X155200Y450100D01*
Y451100D01*
X154700Y451600D01*
X153200D01*
X126000Y443500D02*X128000D01*
X128500Y444000D01*
Y447000D02*X128000Y447500D01*
X126000D01*
X126500D02*Y443500D01*
X128500Y444000D02*Y444800D01*
X128000Y445300D01*
X128500Y445800D01*
Y447000D01*
X128000Y445300D02*X126500D01*
X129700Y444500D02*Y444600D01*
Y446000D02*Y447500D01*
X131200Y445500D02*X130700Y445000D01*
Y444000D01*
X131200Y443500D01*
X130700Y447000D02*X131200Y447500D01*
X132700D01*
X133200Y447000D01*
X132700Y445500D02*X131200D01*
Y443500D02*X132700D01*
X133200Y444000D01*
X134400Y443500D02*X136400D01*
X133200Y447000D02*Y446000D01*
X132700Y445500D01*
X135400Y443500D02*Y447500D01*
X137600D02*Y443500D01*
X139100Y445500D01*
X140600Y443500D01*
Y447500D01*
X126000Y449600D02*X128000D01*
X128500Y450100D01*
Y450900D01*
X128000Y451400D01*
X128500Y451900D01*
Y453100D01*
X128000Y453600D01*
X126000D01*
X126500D02*Y449600D01*
X128000Y451400D02*X126500D01*
X129700Y450600D02*Y450700D01*
Y452100D02*Y453600D01*
X131200Y451600D02*X130700Y451100D01*
Y450100D01*
X131200Y449600D01*
X130700Y453100D02*X131200Y453600D01*
X132700D01*
X133200Y453100D01*
X132700Y451600D02*X131200D01*
Y449600D02*X132700D01*
X133200Y450100D01*
X134400Y449600D02*X136400D01*
X133200Y453100D02*Y452100D01*
X132700Y451600D01*
X135400Y449600D02*Y453600D01*
X137600D02*Y449600D01*
X139100Y451600D01*
X140600Y449600D01*
Y453600D01*
X132800Y465000D02*X133800D01*
X132800D02*X132300Y465500D01*
Y468500D02*Y465500D01*
X134300D02*X133800Y465000D01*
X132300Y468500D02*X132800Y469000D01*
X133800D01*
X134300Y468500D01*
Y465500D01*
X140700Y465000D02*X138700D01*
X140200Y466800D02*X138700D01*
Y465000D02*Y469000D01*
X140700D01*
X136200D02*X137500D01*
Y465000D02*X136200D01*
X135500Y465700D01*
Y468300D01*
X136200Y469000D01*
X141900Y468500D02*X142400Y469000D01*
X143900D01*
Y467000D02*X142400D01*
X141900Y466500D01*
Y465500D01*
X142400Y465000D01*
X143900D01*
Y469000D02*X144400Y468500D01*
Y467500D01*
X143900Y467000D01*
X145600Y468500D02*X146100Y469000D01*
X147600Y467000D02*X146100D01*
X145600Y466500D01*
X146100Y469000D02*X147600D01*
X148100Y468500D01*
Y467500D01*
X147600Y467000D01*
X143900Y465000D02*X144400Y465500D01*
X145600Y466500D02*Y465500D01*
X146100Y465000D01*
X147600D01*
X148100Y465500D01*
X124900Y465000D02*X126900D01*
X128600D02*X130600D01*
X131100Y465500D01*
X126900Y465000D02*X127400Y465500D01*
Y466500D01*
X126900Y467000D01*
X125400D01*
Y469000D02*Y465000D01*
X131100Y465500D02*Y466500D01*
X130600Y467000D01*
X129100D01*
Y465000D02*Y469000D01*
X131100D02*X129900Y467000D01*
X149800Y465000D02*X150800D01*
X152500D02*X154500D01*
X155000Y465500D01*
Y466500D01*
X154500Y467000D01*
X153000D01*
X149800Y465000D02*X149300Y465500D01*
Y468500D02*Y465500D01*
Y468500D02*X149800Y469000D01*
X150800D01*
X151300Y468500D01*
Y465500D01*
X150800Y465000D01*
X153000D02*Y469000D01*
X155000D02*X153800Y467000D01*
X166300Y464900D02*X167300D01*
X167800Y465400D01*
X165800D02*X166300Y464900D01*
X167800Y468400D02*Y465400D01*
Y468400D02*X167300Y468900D01*
X166300D02*X165800Y468400D01*
Y465400D01*
X169500Y468900D02*X169000Y468400D01*
Y467400D01*
X169500Y466900D01*
X171000D01*
X169500Y464900D02*X171000D01*
X169500D02*X169000Y465400D01*
X178400Y468900D02*Y464900D01*
X176900Y466700D02*X178400D01*
X175200Y468400D02*X174700Y468900D01*
X173200D02*X172700Y468400D01*
X171500D02*X171000Y468900D01*
X172700Y468400D02*Y467400D01*
X173200Y466900D01*
X171000D02*X171500Y466400D01*
Y465400D01*
X171000Y464900D01*
X173200Y466900D02*X174700D01*
X175200Y466400D01*
Y465400D01*
X174700Y464900D01*
X173200D02*X174700D01*
X173200D02*X172700Y465400D01*
X162600Y464900D02*X164600D01*
X162600D02*X162100Y465400D01*
Y466400D02*Y465400D01*
Y466400D02*X162600Y466900D01*
X164100D01*
Y468900D02*Y464900D01*
X162100Y468900D02*X163300Y466900D01*
X174000Y453400D02*Y449400D01*
X175500Y451400D02*X174000Y449400D01*
X177000D02*X175500Y451400D01*
X177000Y453400D02*Y449400D01*
X179200Y453400D02*Y449400D01*
X178200D02*X180200D01*
X169000Y453400D02*X170300D01*
X171000Y452700D02*X170300Y453400D01*
X171000Y452700D02*Y450100D01*
X170300Y449400D02*X171000Y450100D01*
X169000Y449400D02*X170300D01*
X181900D02*X181400Y449900D01*
X181900Y449400D02*X183400D01*
X183900Y449900D02*X183400Y449400D01*
X181900Y451400D02*X183400D01*
X181400Y451900D02*X181900Y451400D01*
X181400Y452900D02*Y451900D01*
X181900Y453400D02*X181400Y452900D01*
X181900Y453400D02*X183400D01*
X183900Y450900D02*Y449900D01*
X183400Y451400D02*X183900Y450900D01*
X184900Y450500D02*Y450400D01*
X183900Y452900D02*X183400Y453400D01*
X184900D02*Y451900D01*
X186600Y451200D02*X188100D01*
Y453400D02*Y449400D01*
X186600Y451200D02*X186100Y451700D01*
Y450700D02*X186600Y451200D01*
X186100Y450700D02*Y449900D01*
X186600Y449400D02*X186100Y449900D01*
X186600Y453400D02*X188600D01*
X186100Y452900D02*X186600Y453400D01*
X186100Y452900D02*Y451700D01*
X186600Y449400D02*X188600D01*
X165300Y453400D02*Y449400D01*
Y451400D02*X167800D01*
Y453400D02*Y449400D01*
X161400Y453400D02*Y449400D01*
X159900Y451400D02*X161400D01*
X159400Y450900D02*X159900Y451400D01*
X159400Y450900D02*Y449900D01*
X159900Y449400D02*X159400Y449900D01*
X159900Y449400D02*X161900D01*
X163100Y453400D02*X164100D01*
X163600D02*Y449400D01*
X163100D02*X164100D01*
G54D14*X239910Y606240D03*
X186500Y707000D03*
G54D15*X213335Y566444D03*
G54D16*X262410Y639240D03*
X216910D03*
X209350Y673000D03*
G54D17*X327110Y552090D03*
X353110D03*
G54D15*X266485Y566444D03*
G54D18*X213076Y742206D03*
X159926D03*
G54D16*X163850Y673000D03*
G54D19*X430327Y626256D03*
X412610D03*
G54D20*X387070Y549548D02*X388646D01*
G54D21*X387070Y555453D02*X388646D01*
G54D20*X369354Y549548D02*X370928D01*
G54D21*X369354Y555453D02*X370929D01*
G54D13*X391500Y641900D02*X397600Y648000D01*
X394900Y691000D02*X400000Y696100D01*
X397600Y648000D02*X437000D01*
X397100Y598500D02*X436500D01*
X391500Y641900D02*Y604100D01*
X397100Y598500D01*
G54D12*X324500Y461300D02*X325000Y460800D01*
X326500D01*
X325000Y462800D02*X326500D01*
X324500Y463300D02*X325000Y462800D01*
X324500Y464300D02*Y463300D01*
Y464300D02*X325000Y464800D01*
X326500D01*
X327000Y464300D01*
X326500Y460800D02*X327000Y461300D01*
Y462300D02*Y461300D01*
X326500Y462800D02*X327000Y462300D01*
X328700Y462800D02*X330200D01*
X328200Y463300D02*X328700Y462800D01*
X328200Y464300D02*Y463300D01*
Y464300D02*X328700Y464800D01*
X330200D01*
X330700Y464300D01*
X328200Y461300D02*X328700Y460800D01*
X330200D01*
X330700Y461300D01*
Y462300D02*Y461300D01*
X331900D02*X332400Y460800D01*
X330200Y462800D02*X330700Y462300D01*
X331900Y464300D02*Y461300D01*
Y464300D02*X332400Y464800D01*
X333400D01*
X333900Y464300D01*
Y461300D01*
X333400Y460800D02*X333900Y461300D01*
X332400Y460800D02*X333400D01*
X335600Y462600D02*X337100D01*
X335100Y460800D02*X337100D01*
Y464800D02*Y460800D01*
X340100Y464800D02*X342600Y460800D01*
X340100Y464800D02*Y460800D01*
X342600Y464800D02*Y460800D01*
X343800Y464800D02*Y461800D01*
X344500Y460800D01*
X346300Y464800D02*Y461800D01*
X345600Y460800D02*X346300Y461800D01*
X344500Y460800D02*X345600D01*
X343800Y462800D02*X346300D01*
X347500Y460800D02*X348500Y464800D01*
X349500Y460800D01*
X350700D02*X352700D01*
Y464800D02*Y460800D01*
X350700Y464800D02*X352700D01*
X351200Y462600D02*X352700D01*
X292900Y461000D02*X294900D01*
X292900Y465000D02*Y461000D01*
Y465000D02*X294900D01*
X292900Y462800D02*X294400D01*
X296100Y461000D02*X297100Y465000D01*
X298100Y461000D01*
X299300Y465000D02*Y462000D01*
X300000Y461000D01*
X299300Y463000D02*X301800D01*
X301100Y461000D02*X301800Y462000D01*
Y465000D02*Y462000D01*
X303000Y465000D02*Y461000D01*
X305500Y465000D01*
Y461000D01*
X300000D02*X301100D01*
X308500D02*X310500D01*
X311700Y461500D02*X312200Y461000D01*
X313200D01*
X313700Y461500D01*
X308500Y465000D02*Y461000D01*
Y462800D02*X310000D01*
X313700Y464500D02*Y461500D01*
X313200Y465000D02*X313700Y464500D01*
X312200Y465000D02*X313200D01*
X311700Y464500D02*X312200Y465000D01*
X311700Y464500D02*Y461500D01*
X316900Y461000D02*X317400Y461500D01*
X315400Y461000D02*X316900D01*
X314900Y461500D02*X315400Y461000D01*
X314900Y462500D02*Y461500D01*
Y462500D02*X315400Y463000D01*
X316900D01*
X317400Y463500D01*
Y464500D02*Y463500D01*
X315400Y465000D02*X316900D01*
X314900Y464500D02*X315400Y465000D01*
X316900D02*X317400Y464500D01*
X318600D02*X319100Y465000D01*
X320600D01*
X321100Y464500D01*
Y463500D01*
X320600Y463000D02*X321100Y463500D01*
X319100Y463000D02*X320600D01*
X318600Y462500D02*X319100Y463000D01*
X318600Y462500D02*Y461500D01*
X319100Y461000D01*
X320600D01*
X321100Y461500D01*
X326000Y458200D02*Y454700D01*
X325500Y454200D02*X326000Y454700D01*
X324500Y454200D02*X325500D01*
X324000Y454700D02*X324500Y454200D01*
X324000Y458200D02*Y454700D01*
X322300Y458200D02*X322800Y457700D01*
Y454700D01*
X322300Y454200D02*X322800Y454700D01*
X321300Y454200D02*X322300D01*
X320800Y454700D02*X321300Y454200D01*
X320800Y457700D02*Y454700D01*
X317100Y454200D02*X319600Y458200D01*
X317100Y454200D02*X319600D01*
X320800Y457700D02*X321300Y458200D01*
X322300D01*
X317100D02*X319600D01*
X314900D02*X315900D01*
X326000Y444500D02*X328000D01*
X325500Y444000D02*X326000Y444500D01*
X325500Y444000D02*Y443000D01*
X326000Y442500D01*
X327500D01*
Y444500D02*Y440500D01*
X324300Y444500D02*Y440500D01*
X321800Y444500D02*Y440500D01*
Y442500D02*X324300D01*
X315400Y458200D02*Y454200D01*
X314900D02*X315900D01*
X313700Y457700D02*Y454700D01*
X313200Y454200D02*X313700Y454700D01*
X312200Y454200D02*X313200D01*
X308500D02*X310500D01*
X311700Y454700D02*X312200Y454200D01*
X311700Y457700D02*Y454700D01*
Y457700D02*X312200Y458200D01*
X308500D02*Y454200D01*
X313200Y458200D02*X313700Y457700D01*
X312200Y458200D02*X313200D01*
X303000D02*X305000D01*
X305500Y457700D01*
X300800Y458200D02*X301800D01*
X305500Y457700D02*Y456700D01*
X305000Y456200D02*X305500Y456700D01*
X303500Y456200D02*X305000D01*
X303500Y458200D02*Y454200D01*
X301300Y458200D02*Y454200D01*
X300800D02*X301800D01*
X297600D02*X299600D01*
X297600Y458200D02*Y454200D01*
X295400Y458200D02*X296400D01*
X288000D02*X290000D01*
X290500Y457700D01*
X295900Y458200D02*Y454200D01*
X295400D02*X296400D01*
X294200Y458200D02*Y454200D01*
X291700Y456200D02*X294200D01*
X291700Y458200D02*Y454200D01*
X290500Y457700D02*Y456700D01*
X290000Y456200D02*X290500Y456700D01*
X288500Y456200D02*X290000D01*
X288500Y458200D02*Y454200D01*
X319600Y444500D02*X320600D01*
X320100D02*Y440500D01*
X319600D02*X320600D01*
X318400Y444500D02*Y440500D01*
X316400D02*X318400D01*
X314700Y444500D02*Y440500D01*
X314200D02*X315200D01*
X314200Y444500D02*X315200D01*
X311000D02*X313000D01*
X310500Y444000D02*X311000Y444500D01*
X310500Y444000D02*Y443000D01*
X311000Y442500D01*
X312500D01*
Y444500D02*Y440500D01*
X307500Y444500D02*Y440500D01*
X303800D02*X304300Y441000D01*
X305500Y440500D02*X307500D01*
X302800D02*X303800D01*
X302300Y441000D02*X302800Y440500D01*
X303800Y444500D02*X304300Y444000D01*
Y441000D01*
X302300Y444000D02*Y441000D01*
Y444000D02*X302800Y444500D01*
X303800D01*
X300100D02*X301100D01*
X296400D02*X298900D01*
X294700D02*X295200Y444000D01*
X300600Y444500D02*Y440500D01*
X296400Y444500D02*X298900Y440500D01*
X300100D02*X301100D01*
X296400D02*X298900D01*
X294700D02*X295200Y441000D01*
X293200Y444000D02*X293700Y444500D01*
X294700D01*
X295200Y444000D02*Y441000D01*
X293700Y440500D02*X294700D01*
X293200Y441000D02*X293700Y440500D01*
X293200Y444000D02*Y441000D01*
X292000Y444500D02*Y441000D01*
X291500Y440500D02*X292000Y441000D01*
X290500Y440500D02*X291500D01*
X290000Y441000D02*X290500Y440500D01*
X290000Y444500D02*Y441000D01*
G54D13*X74100Y686650D02*X79500Y692050D01*
X73900Y686450D02*X79500Y692050D01*
Y758350D02*Y692050D01*
X42500Y686450D02*X73900D01*
X41500Y763950D02*X73900D01*
X79500Y758350D01*
Y685800D02*Y640300D01*
X47500Y685800D02*Y640300D01*
X79500D01*
X47500Y685800D02*X79500D01*
X115500Y568500D02*Y523000D01*
X83500Y568500D02*Y523000D01*
X115500D01*
X79500Y609000D02*Y563500D01*
X47500D02*X79500D01*
X47500Y609000D02*Y563500D01*
Y609000D02*X79500D01*
X83500Y568500D02*X115500D01*
X316600Y691000D02*X394900D01*
X400000Y771900D02*Y696100D01*
X229900Y754700D02*Y736800D01*
X322500Y805000D02*Y776500D01*
X316600D02*X322500D01*
X311200Y771100D02*X316600Y776500D01*
X311000Y770900D02*X316600Y776500D01*
X311000Y770900D02*Y696600D01*
X316600Y691000D01*
X234450Y759250D02*X292250D01*
X229900Y754700D02*X234450Y759250D01*
X296400Y755100D02*Y736800D01*
X292250Y759250D02*X296400Y755100D01*
X233500Y733200D02*X292800D01*
X296400Y736800D01*
X229900D02*X233500Y733200D01*
X394900Y777000D02*X400000Y771900D01*
X390100Y777000D02*X394900D01*
X390000Y777100D02*X390100Y777000D01*
X390000Y804000D02*Y777100D01*
X151090Y762660D02*X156190Y767760D01*
X217990Y732760D02*X222090Y736860D01*
Y763660D02*Y736860D01*
X217990Y767760D02*X222090Y763660D01*
X151090Y736860D02*X155190Y732760D01*
X217990D01*
X151090Y762660D02*Y736860D01*
X156190Y767760D02*X217990D01*
X203990Y586760D02*X209090Y591860D01*
X203990Y586760D02*X209090Y591860D01*
X270890D02*X274990Y587760D01*
X209090Y591860D02*X270890D01*
X274990Y587760D01*
X209090Y591860D02*X270890D01*
Y556860D02*X274990Y560960D01*
Y587760D02*Y560960D01*
X270890Y556860D02*X274990Y560960D01*
Y587760D02*Y560960D01*
X203990Y586760D02*Y560960D01*
Y586760D02*Y560960D01*
X208090Y556860D01*
X203990Y560960D02*X208090Y556860D01*
X270890D01*
X208090D02*X270890D01*
G54D22*G54D23*G54D24*G54D25*G54D26*G54D23*G54D24*G54D27*M02*
