G04 start of page 10 for group -4079 idx -4079 *
G04 Title: (unknown), topsilk *
G04 Creator: pcb 20110918 *
G04 CreationDate: Mon Dec 30 21:59:35 2013 UTC *
G04 For: fosse *
G04 Format: Gerber/RS-274X *
G04 PCB-Dimensions: 550000 450000 *
G04 PCB-Coordinate-Origin: lower left *
%MOIN*%
%FSLAX25Y25*%
%LNTOPSILK*%
%ADD120C,0.0060*%
%ADD119C,0.0100*%
G54D119*X307014Y167493D02*Y167492D01*
G54D120*X280000Y173000D02*Y169500D01*
X280500Y169000D01*
X281500D01*
X282000Y169500D01*
Y173000D02*Y169500D01*
X283200Y173000D02*X285200D01*
X284200D02*Y169000D01*
X286900Y173000D02*Y169000D01*
X288200Y173000D02*X288900Y172300D01*
Y169700D01*
X288200Y169000D02*X288900Y169700D01*
X286400Y169000D02*X288200D01*
X286400Y173000D02*X288200D01*
X290100Y171000D02*X292100D01*
X293300Y173000D02*X295300D01*
X295800Y172500D01*
Y171500D01*
X295300Y171000D02*X295800Y171500D01*
X293800Y171000D02*X295300D01*
X293800Y173000D02*Y169000D01*
X294600Y171000D02*X295800Y169000D01*
X297000Y171200D02*X298500D01*
X297000Y169000D02*X299000D01*
X297000Y173000D02*Y169000D01*
Y173000D02*X299000D01*
X302200D02*X302700Y172500D01*
X300700Y173000D02*X302200D01*
X300200Y172500D02*X300700Y173000D01*
X300200Y172500D02*Y171500D01*
X300700Y171000D01*
X302200D01*
X302700Y170500D01*
Y169500D01*
X302200Y169000D02*X302700Y169500D01*
X300700Y169000D02*X302200D01*
X300200Y169500D02*X300700Y169000D01*
X303900Y171200D02*X305400D01*
X303900Y169000D02*X305900D01*
X303900Y173000D02*Y169000D01*
Y173000D02*X305900D01*
X307100D02*X309100D01*
X308100D02*Y169000D01*
X346500Y164000D02*Y160000D01*
Y164000D02*X348000Y162000D01*
X349500Y164000D01*
Y160000D01*
X350700Y163500D02*Y160500D01*
Y163500D02*X351200Y164000D01*
X352200D01*
X352700Y163500D01*
Y160500D01*
X352200Y160000D02*X352700Y160500D01*
X351200Y160000D02*X352200D01*
X350700Y160500D02*X351200Y160000D01*
X354400Y164000D02*Y160000D01*
X355700Y164000D02*X356400Y163300D01*
Y160700D01*
X355700Y160000D02*X356400Y160700D01*
X353900Y160000D02*X355700D01*
X353900Y164000D02*X355700D01*
X357600Y162200D02*X359100D01*
X357600Y160000D02*X359600D01*
X357600Y164000D02*Y160000D01*
Y164000D02*X359600D01*
X319400D02*X319900Y163500D01*
X317900Y164000D02*X319400D01*
X317400Y163500D02*X317900Y164000D01*
X317400Y163500D02*Y162500D01*
X317900Y162000D01*
X319400D01*
X319900Y161500D01*
Y160500D01*
X319400Y160000D02*X319900Y160500D01*
X317900Y160000D02*X319400D01*
X317400Y160500D02*X317900Y160000D01*
X321100Y164000D02*X323100D01*
X322100D02*Y160000D01*
X324300Y163000D02*Y160000D01*
Y163000D02*X325000Y164000D01*
X326100D01*
X326800Y163000D01*
Y160000D01*
X324300Y162000D02*X326800D01*
X328000Y164000D02*X330000D01*
X329000D02*Y160000D01*
X331200Y164000D02*Y160500D01*
X331700Y160000D01*
X332700D01*
X333200Y160500D01*
Y164000D02*Y160500D01*
X336400Y164000D02*X336900Y163500D01*
X334900Y164000D02*X336400D01*
X334400Y163500D02*X334900Y164000D01*
X334400Y163500D02*Y162500D01*
X334900Y162000D01*
X336400D01*
X336900Y161500D01*
Y160500D01*
X336400Y160000D02*X336900Y160500D01*
X334900Y160000D02*X336400D01*
X334400Y160500D02*X334900Y160000D01*
G54D119*X385693Y146004D02*Y158996D01*
X372307Y146004D02*X385693D01*
X375850Y158996D02*X385693D01*
X375850D03*
X371323Y155650D02*Y159980D01*
X375850D02*X371323D01*
Y155650D02*X372307D01*
X371323Y159980D03*
X372307Y155453D02*Y146004D01*
X375850Y158996D02*Y159980D01*
Y159193D02*X372307Y155650D01*
G54D120*X176500Y308600D02*X176800Y308300D01*
X175600Y308600D02*X176500D01*
X175300Y308300D02*X175600Y308600D01*
X175300Y308300D02*Y307700D01*
X175600Y307400D01*
X176500D01*
X176800Y307100D01*
Y306500D01*
X176500Y306200D02*X176800Y306500D01*
X175600Y306200D02*X176500D01*
X175300Y306500D02*X175600Y306200D01*
X177940D02*X178720D01*
X177520Y306620D02*X177940Y306200D01*
X177520Y308180D02*Y306620D01*
Y308180D02*X177940Y308600D01*
X178720D01*
X179440D02*X180640D01*
X180940Y308300D01*
Y307700D01*
X180640Y307400D02*X180940Y307700D01*
X179740Y307400D02*X180640D01*
X179740Y308600D02*Y306200D01*
X180220Y307400D02*X180940Y306200D01*
X181660Y307520D02*X182560D01*
X181660Y306200D02*X182860D01*
X181660Y308600D02*Y306200D01*
Y308600D02*X182860D01*
X183580D02*Y307400D01*
X183880Y306200D01*
X184480Y307400D01*
X185080Y306200D01*
X185380Y307400D01*
Y308600D02*Y307400D01*
X186100Y307100D02*X187300Y308600D01*
X186100Y307100D02*X187600D01*
X187300Y308600D02*Y306200D01*
X188320Y307400D02*X189520D01*
X190240Y307100D02*X191440Y308600D01*
X190240Y307100D02*X191740D01*
X191440Y308600D02*Y306200D01*
X192460Y306500D02*X192760Y306200D01*
X192460Y308300D02*Y306500D01*
Y308300D02*X192760Y308600D01*
X193360D01*
X193660Y308300D01*
Y306500D01*
X193360Y306200D02*X193660Y306500D01*
X192760Y306200D02*X193360D01*
X192460Y306800D02*X193660Y308000D01*
X194380Y306200D02*X195580D01*
X196300Y308300D02*X196600Y308600D01*
X197200D01*
X197500Y308300D01*
X197200Y306200D02*X197500Y306500D01*
X196600Y306200D02*X197200D01*
X196300Y306500D02*X196600Y306200D01*
Y307520D02*X197200D01*
X197500Y308300D02*Y307820D01*
Y307220D02*Y306500D01*
Y307220D02*X197200Y307520D01*
X197500Y307820D02*X197200Y307520D01*
X248810Y203790D02*X248535Y204065D01*
X248810Y203790D02*X249635D01*
X249910Y204065D02*X249635Y203790D01*
X249910Y204615D02*Y204065D01*
Y204615D02*X249635Y204890D01*
X248810D02*X249635D01*
X248810D02*X248535Y205165D01*
Y205715D02*Y205165D01*
X248810Y205990D02*X248535Y205715D01*
X248810Y205990D02*X249635D01*
X249910Y205715D02*X249635Y205990D01*
X246775D02*X247490D01*
X247875Y205605D02*X247490Y205990D01*
X247875Y205605D02*Y204175D01*
X247490Y203790D01*
X246775D02*X247490D01*
X245015D02*X246115D01*
X245015D02*X244740Y204065D01*
Y204615D02*Y204065D01*
X245015Y204890D02*X244740Y204615D01*
X245015Y204890D02*X245840D01*
Y205990D02*Y203790D01*
X245400Y204890D02*X244740Y205990D01*
X243255Y204780D02*X244080D01*
X242980Y205990D02*X244080D01*
Y203790D01*
X242980D02*X244080D01*
X242320Y204890D02*Y203790D01*
Y204890D02*X242045Y205990D01*
X241495Y204890D01*
X240945Y205990D01*
X240670Y204890D01*
Y203790D01*
X240010Y205165D02*X238910Y203790D01*
X238635Y205165D02*X240010D01*
X238910Y205990D02*Y203790D01*
X236875Y204890D02*X237975D01*
X236215Y205165D02*X235115Y203790D01*
X234840Y205165D02*X236215D01*
X235115Y205990D02*Y203790D01*
X234180Y205715D02*X233905Y205990D01*
X234180Y205715D02*Y204065D01*
X233905Y203790D01*
X233355D02*X233905D01*
X233355D02*X233080Y204065D01*
Y205715D02*Y204065D01*
X233355Y205990D02*X233080Y205715D01*
X233355Y205990D02*X233905D01*
X234180Y205440D02*X233080Y204340D01*
X231320Y205990D02*X232420D01*
X230660Y205165D02*X229560Y203790D01*
X229285Y205165D02*X230660D01*
X229560Y205990D02*Y203790D01*
X369094Y165067D02*Y161067D01*
X371094D01*
X372294Y163267D02*X373794D01*
X372294Y161067D02*X374294D01*
X372294Y165067D02*Y161067D01*
Y165067D02*X374294D01*
X375994D02*Y161067D01*
X377294Y165067D02*X377994Y164367D01*
Y161767D01*
X377294Y161067D02*X377994Y161767D01*
X375494Y161067D02*X377294D01*
X375494Y165067D02*X377294D01*
X379194Y162567D02*X381194Y165067D01*
X379194Y162567D02*X381694D01*
X381194Y165067D02*Y161067D01*
X382894Y161567D02*X383394Y161067D01*
X382894Y164567D02*Y161567D01*
Y164567D02*X383394Y165067D01*
X384394D01*
X384894Y164567D01*
Y161567D01*
X384394Y161067D02*X384894Y161567D01*
X383394Y161067D02*X384394D01*
X382894Y162067D02*X384894Y164067D01*
X386094Y161567D02*X386594Y161067D01*
X386094Y164567D02*Y161567D01*
Y164567D02*X386594Y165067D01*
X387594D01*
X388094Y164567D01*
Y161567D01*
X387594Y161067D02*X388094Y161567D01*
X386594Y161067D02*X387594D01*
X386094Y162067D02*X388094Y164067D01*
M02*
