G04 start of page 2 for group 0 idx 0 *
G04 Title: (unknown), 1top *
G04 Creator: pcb 20110918 *
G04 CreationDate: Mon Jan 27 16:51:52 2014 UTC *
G04 For: fosse *
G04 Format: Gerber/RS-274X *
G04 PCB-Dimensions: 550000 450000 *
G04 PCB-Coordinate-Origin: lower left *
%MOIN*%
%FSLAX25Y25*%
%LNTOP*%
%ADD32C,0.1150*%
%ADD31C,0.0945*%
%ADD30C,0.2100*%
%ADD29C,0.0354*%
%ADD28C,0.1160*%
%ADD27C,0.1090*%
%ADD26C,0.0433*%
%ADD25C,0.0150*%
%ADD24C,0.0300*%
%ADD23R,0.0433X0.0433*%
%ADD22R,0.0433X0.0433*%
%ADD21R,0.3307X0.3307*%
%ADD20C,0.0200*%
%ADD19C,0.0544*%
%ADD18C,0.1300*%
%ADD17C,0.2350*%
%ADD16C,0.0494*%
%ADD15C,0.2700*%
%ADD14C,0.2500*%
%ADD13C,0.0591*%
%ADD12C,0.0060*%
%ADD11C,0.0001*%
G54D11*G36*
X78500Y284800D02*Y291300D01*
X82100D01*
Y284800D01*
X78500D01*
G37*
G36*
X76700Y360600D02*Y367100D01*
X80300D01*
Y360600D01*
X76700D01*
G37*
G36*
X93000Y350000D02*Y356500D01*
X96600D01*
Y350000D01*
X93000D01*
G37*
G36*
X44900Y234800D02*Y241300D01*
X48500D01*
Y234800D01*
X44900D01*
G37*
G36*
X44700Y280700D02*Y287200D01*
X48300D01*
Y280700D01*
X44700D01*
G37*
G36*
X40500Y363000D02*Y369500D01*
X44100D01*
Y363000D01*
X40500D01*
G37*
G36*
Y302000D02*Y348000D01*
X64500D01*
Y302000D01*
X40500D01*
G37*
G36*
X197000Y235500D02*Y242000D01*
X200600D01*
Y235500D01*
X197000D01*
G37*
G36*
X162500Y235000D02*Y241500D01*
X166100D01*
Y235000D01*
X162500D01*
G37*
G36*
X220300Y365400D02*Y371900D01*
X223900D01*
Y365400D01*
X220300D01*
G37*
G36*
X219800Y327900D02*Y334400D01*
X223400D01*
Y327900D01*
X219800D01*
G37*
G36*
X149300Y328400D02*Y334900D01*
X152900D01*
Y328400D01*
X149300D01*
G37*
G36*
X150300Y364900D02*Y371400D01*
X153900D01*
Y364900D01*
X150300D01*
G37*
G36*
X127500Y349500D02*Y356000D01*
X131100D01*
Y349500D01*
X127500D01*
G37*
G36*
X114600Y167500D02*Y174000D01*
X118200D01*
Y167500D01*
X114600D01*
G37*
G36*
X78500Y208000D02*Y214500D01*
X82100D01*
Y208000D01*
X78500D01*
G37*
G36*
X81500Y167500D02*Y174000D01*
X85100D01*
Y167500D01*
X81500D01*
G37*
G36*
X77900Y157400D02*Y163900D01*
X81500D01*
Y157400D01*
X77900D01*
G37*
G36*
X79900Y163300D02*Y169800D01*
X83500D01*
Y163300D01*
X79900D01*
G37*
G36*
X44900Y158000D02*Y164500D01*
X48500D01*
Y158000D01*
X44900D01*
G37*
G36*
X80000Y122000D02*Y128500D01*
X83600D01*
Y122000D01*
X80000D01*
G37*
G36*
X115500D02*Y128500D01*
X119100D01*
Y122000D01*
X115500D01*
G37*
G36*
X44900Y208000D02*Y214500D01*
X48500D01*
Y208000D01*
X44900D01*
G37*
G36*
X78500Y234800D02*Y241300D01*
X82100D01*
Y234800D01*
X78500D01*
G37*
G36*
X267800Y150400D02*Y156900D01*
X271400D01*
Y150400D01*
X267800D01*
G37*
G36*
X207300D02*Y156900D01*
X210900D01*
Y150400D01*
X207300D01*
G37*
G36*
X208300Y191400D02*Y197900D01*
X211900D01*
Y191400D01*
X208300D01*
G37*
G36*
X268300D02*Y197900D01*
X271900D01*
Y191400D01*
X268300D01*
G37*
G36*
X162500Y192500D02*Y199000D01*
X166100D01*
Y192500D01*
X162500D01*
G37*
G36*
X197000D02*Y199000D01*
X200600D01*
Y192500D01*
X197000D01*
G37*
G36*
X233300Y326400D02*Y332900D01*
X236900D01*
Y326400D01*
X233300D01*
G37*
G36*
X431036Y143319D02*X431324Y142636D01*
X431661Y141582D01*
X431904Y140502D01*
X432051Y139406D01*
X432100Y138300D01*
X432051Y137194D01*
X431904Y136098D01*
X431661Y135018D01*
X431324Y133964D01*
X431036Y133281D01*
Y143319D01*
G37*
G36*
Y196500D02*X436500D01*
X436814Y196519D01*
X437120Y196592D01*
X437411Y196712D01*
X437500Y196767D01*
Y122000D01*
X431036D01*
Y131123D01*
X431250Y131453D01*
X431810Y132510D01*
X432274Y133613D01*
X432639Y134752D01*
X432902Y135919D01*
X433060Y137105D01*
X433113Y138300D01*
X433060Y139495D01*
X432902Y140681D01*
X432639Y141848D01*
X432274Y142987D01*
X431810Y144090D01*
X431250Y145147D01*
X431036Y145477D01*
Y196500D01*
G37*
G36*
X419606D02*X431036D01*
Y145477D01*
X430599Y146151D01*
X429861Y147093D01*
X429805Y147150D01*
X429739Y147197D01*
X429667Y147234D01*
X429591Y147259D01*
X429511Y147271D01*
X429430Y147271D01*
X429351Y147258D01*
X429274Y147233D01*
X429202Y147196D01*
X429137Y147149D01*
X429080Y147092D01*
X429033Y147027D01*
X428997Y146955D01*
X428972Y146878D01*
X428959Y146798D01*
X428959Y146718D01*
X428972Y146638D01*
X428997Y146561D01*
X429034Y146490D01*
X429083Y146425D01*
X429774Y145562D01*
X430377Y144634D01*
X430894Y143656D01*
X431036Y143319D01*
Y133281D01*
X430894Y132944D01*
X430377Y131966D01*
X429774Y131038D01*
X429092Y130167D01*
X429044Y130104D01*
X429009Y130034D01*
X428984Y129959D01*
X428972Y129881D01*
X428972Y129803D01*
X428984Y129725D01*
X429008Y129650D01*
X429044Y129580D01*
X429090Y129516D01*
X429145Y129460D01*
X429209Y129414D01*
X429279Y129378D01*
X429354Y129354D01*
X429431Y129341D01*
X429510Y129341D01*
X429588Y129353D01*
X429663Y129378D01*
X429733Y129413D01*
X429797Y129459D01*
X429851Y129516D01*
X430599Y130449D01*
X431036Y131123D01*
Y122000D01*
X419606D01*
Y124787D01*
X420795Y124840D01*
X421981Y124998D01*
X423148Y125261D01*
X424287Y125626D01*
X425390Y126090D01*
X426447Y126650D01*
X427451Y127301D01*
X428393Y128039D01*
X428450Y128095D01*
X428497Y128161D01*
X428534Y128233D01*
X428559Y128309D01*
X428571Y128389D01*
X428571Y128470D01*
X428558Y128549D01*
X428533Y128626D01*
X428496Y128698D01*
X428449Y128763D01*
X428392Y128820D01*
X428327Y128867D01*
X428255Y128903D01*
X428178Y128928D01*
X428098Y128941D01*
X428018Y128941D01*
X427938Y128928D01*
X427861Y128903D01*
X427790Y128866D01*
X427725Y128817D01*
X426862Y128126D01*
X425934Y127523D01*
X424956Y127006D01*
X423936Y126576D01*
X422882Y126239D01*
X421802Y125996D01*
X420706Y125849D01*
X419606Y125800D01*
Y150800D01*
X420706Y150751D01*
X421802Y150604D01*
X422882Y150361D01*
X423936Y150024D01*
X424956Y149594D01*
X425934Y149077D01*
X426862Y148474D01*
X427733Y147792D01*
X427796Y147744D01*
X427866Y147709D01*
X427941Y147684D01*
X428019Y147672D01*
X428097Y147672D01*
X428175Y147684D01*
X428250Y147708D01*
X428320Y147744D01*
X428384Y147790D01*
X428440Y147845D01*
X428486Y147909D01*
X428522Y147979D01*
X428546Y148054D01*
X428559Y148131D01*
X428559Y148210D01*
X428547Y148288D01*
X428522Y148363D01*
X428487Y148433D01*
X428441Y148497D01*
X428384Y148551D01*
X427451Y149299D01*
X426447Y149950D01*
X425390Y150510D01*
X424287Y150974D01*
X423148Y151339D01*
X421981Y151602D01*
X420795Y151760D01*
X419606Y151813D01*
Y196500D01*
G37*
G36*
X431036Y393319D02*X431324Y392636D01*
X431661Y391582D01*
X431904Y390502D01*
X432051Y389406D01*
X432100Y388300D01*
X432051Y387194D01*
X431904Y386098D01*
X431661Y385018D01*
X431324Y383964D01*
X431036Y383281D01*
Y393319D01*
G37*
G36*
Y405000D02*X438000D01*
Y249733D01*
X437911Y249788D01*
X437620Y249908D01*
X437314Y249981D01*
X437000Y250000D01*
X431036D01*
Y252234D01*
X431039D01*
X431192Y252271D01*
X431337Y252331D01*
X431472Y252413D01*
X431591Y252516D01*
X431694Y252635D01*
X431776Y252770D01*
X431836Y252915D01*
X431873Y253068D01*
X431882Y253225D01*
X431873Y286452D01*
X431836Y286605D01*
X431776Y286750D01*
X431694Y286885D01*
X431591Y287004D01*
X431472Y287107D01*
X431337Y287189D01*
X431192Y287249D01*
X431039Y287286D01*
X431036Y287286D01*
Y381123D01*
X431250Y381453D01*
X431810Y382510D01*
X432274Y383613D01*
X432639Y384752D01*
X432902Y385919D01*
X433060Y387105D01*
X433113Y388300D01*
X433060Y389495D01*
X432902Y390681D01*
X432639Y391848D01*
X432274Y392987D01*
X431810Y394090D01*
X431250Y395147D01*
X431036Y395477D01*
Y405000D01*
G37*
G36*
Y250000D02*X419606D01*
Y252232D01*
X431036Y252234D01*
Y250000D01*
G37*
G36*
X419606Y405000D02*X431036D01*
Y395477D01*
X430599Y396151D01*
X429861Y397093D01*
X429805Y397150D01*
X429739Y397197D01*
X429667Y397234D01*
X429591Y397259D01*
X429511Y397271D01*
X429430Y397271D01*
X429351Y397258D01*
X429274Y397233D01*
X429202Y397196D01*
X429137Y397149D01*
X429080Y397092D01*
X429033Y397027D01*
X428997Y396955D01*
X428972Y396878D01*
X428959Y396798D01*
X428959Y396718D01*
X428972Y396638D01*
X428997Y396561D01*
X429034Y396490D01*
X429083Y396425D01*
X429774Y395562D01*
X430377Y394634D01*
X430894Y393656D01*
X431036Y393319D01*
Y383281D01*
X430894Y382944D01*
X430377Y381966D01*
X429774Y381038D01*
X429092Y380167D01*
X429044Y380104D01*
X429009Y380034D01*
X428984Y379959D01*
X428972Y379881D01*
X428972Y379803D01*
X428984Y379725D01*
X429008Y379650D01*
X429044Y379580D01*
X429090Y379516D01*
X429145Y379460D01*
X429209Y379414D01*
X429279Y379378D01*
X429354Y379354D01*
X429431Y379341D01*
X429510Y379341D01*
X429588Y379353D01*
X429663Y379378D01*
X429733Y379413D01*
X429797Y379459D01*
X429851Y379516D01*
X430599Y380449D01*
X431036Y381123D01*
Y287286D01*
X430882Y287295D01*
X419606Y287292D01*
Y374787D01*
X420795Y374840D01*
X421981Y374998D01*
X423148Y375261D01*
X424287Y375626D01*
X425390Y376090D01*
X426447Y376650D01*
X427451Y377301D01*
X428393Y378039D01*
X428450Y378095D01*
X428497Y378161D01*
X428534Y378233D01*
X428559Y378309D01*
X428571Y378389D01*
X428571Y378470D01*
X428558Y378549D01*
X428533Y378626D01*
X428496Y378698D01*
X428449Y378763D01*
X428392Y378820D01*
X428327Y378867D01*
X428255Y378903D01*
X428178Y378928D01*
X428098Y378941D01*
X428018Y378941D01*
X427938Y378928D01*
X427861Y378903D01*
X427790Y378866D01*
X427725Y378817D01*
X426862Y378126D01*
X425934Y377523D01*
X424956Y377006D01*
X423936Y376576D01*
X422882Y376239D01*
X421802Y375996D01*
X420706Y375849D01*
X419606Y375800D01*
Y400800D01*
X420706Y400751D01*
X421802Y400604D01*
X422882Y400361D01*
X423936Y400024D01*
X424956Y399594D01*
X425934Y399077D01*
X426862Y398474D01*
X427733Y397792D01*
X427796Y397744D01*
X427866Y397709D01*
X427941Y397684D01*
X428019Y397672D01*
X428097Y397672D01*
X428175Y397684D01*
X428250Y397708D01*
X428320Y397744D01*
X428384Y397790D01*
X428440Y397845D01*
X428486Y397909D01*
X428522Y397979D01*
X428546Y398054D01*
X428559Y398131D01*
X428559Y398210D01*
X428547Y398288D01*
X428522Y398363D01*
X428487Y398433D01*
X428441Y398497D01*
X428384Y398551D01*
X427451Y399299D01*
X426447Y399950D01*
X425390Y400510D01*
X424287Y400974D01*
X423148Y401339D01*
X421981Y401602D01*
X420795Y401760D01*
X419606Y401813D01*
Y405000D01*
G37*
G36*
X408164Y196500D02*X419606D01*
Y151813D01*
X419600Y151813D01*
X418405Y151760D01*
X417219Y151602D01*
X416052Y151339D01*
X414913Y150974D01*
X413810Y150510D01*
X412753Y149950D01*
X411749Y149299D01*
X410807Y148561D01*
X410750Y148505D01*
X410703Y148439D01*
X410666Y148367D01*
X410641Y148291D01*
X410629Y148211D01*
X410629Y148130D01*
X410642Y148051D01*
X410667Y147974D01*
X410704Y147902D01*
X410751Y147837D01*
X410808Y147780D01*
X410873Y147733D01*
X410945Y147697D01*
X411022Y147672D01*
X411102Y147659D01*
X411182Y147659D01*
X411262Y147672D01*
X411339Y147697D01*
X411410Y147734D01*
X411475Y147783D01*
X412338Y148474D01*
X413266Y149077D01*
X414244Y149594D01*
X415264Y150024D01*
X416318Y150361D01*
X417398Y150604D01*
X418494Y150751D01*
X419600Y150800D01*
X419606Y150800D01*
Y125800D01*
X419600Y125800D01*
X418494Y125849D01*
X417398Y125996D01*
X416318Y126239D01*
X415264Y126576D01*
X414244Y127006D01*
X413266Y127523D01*
X412338Y128126D01*
X411467Y128808D01*
X411404Y128856D01*
X411334Y128891D01*
X411259Y128916D01*
X411181Y128928D01*
X411103Y128928D01*
X411025Y128916D01*
X410950Y128892D01*
X410880Y128856D01*
X410816Y128810D01*
X410760Y128755D01*
X410714Y128691D01*
X410678Y128621D01*
X410654Y128546D01*
X410641Y128469D01*
X410641Y128390D01*
X410653Y128312D01*
X410678Y128237D01*
X410713Y128167D01*
X410759Y128103D01*
X410816Y128049D01*
X411749Y127301D01*
X412753Y126650D01*
X413810Y126090D01*
X414913Y125626D01*
X416052Y125261D01*
X417219Y124998D01*
X418405Y124840D01*
X419600Y124787D01*
X419606Y124787D01*
Y122000D01*
X408164D01*
Y131123D01*
X408601Y130449D01*
X409339Y129507D01*
X409395Y129450D01*
X409461Y129403D01*
X409533Y129366D01*
X409609Y129341D01*
X409689Y129329D01*
X409770Y129329D01*
X409849Y129342D01*
X409926Y129367D01*
X409998Y129404D01*
X410063Y129451D01*
X410120Y129508D01*
X410167Y129573D01*
X410203Y129645D01*
X410228Y129722D01*
X410241Y129802D01*
X410241Y129882D01*
X410228Y129962D01*
X410203Y130039D01*
X410166Y130110D01*
X410117Y130175D01*
X409426Y131038D01*
X408823Y131966D01*
X408306Y132944D01*
X408164Y133281D01*
Y143319D01*
X408306Y143656D01*
X408823Y144634D01*
X409426Y145562D01*
X410108Y146433D01*
X410156Y146496D01*
X410191Y146566D01*
X410216Y146641D01*
X410228Y146719D01*
X410228Y146797D01*
X410216Y146875D01*
X410192Y146950D01*
X410156Y147020D01*
X410110Y147084D01*
X410055Y147140D01*
X409991Y147186D01*
X409921Y147222D01*
X409846Y147246D01*
X409769Y147259D01*
X409690Y147259D01*
X409612Y147247D01*
X409537Y147222D01*
X409467Y147187D01*
X409403Y147141D01*
X409349Y147084D01*
X408601Y146151D01*
X408164Y145477D01*
Y196500D01*
G37*
G36*
Y252229D02*X419606Y252232D01*
Y250000D01*
X408164D01*
Y252229D01*
G37*
G36*
Y405000D02*X419606D01*
Y401813D01*
X419600Y401813D01*
X418405Y401760D01*
X417219Y401602D01*
X416052Y401339D01*
X414913Y400974D01*
X413810Y400510D01*
X412753Y399950D01*
X411749Y399299D01*
X410807Y398561D01*
X410750Y398505D01*
X410703Y398439D01*
X410666Y398367D01*
X410641Y398291D01*
X410629Y398211D01*
X410629Y398130D01*
X410642Y398051D01*
X410667Y397974D01*
X410704Y397902D01*
X410751Y397837D01*
X410808Y397780D01*
X410873Y397733D01*
X410945Y397697D01*
X411022Y397672D01*
X411102Y397659D01*
X411182Y397659D01*
X411262Y397672D01*
X411339Y397697D01*
X411410Y397734D01*
X411475Y397783D01*
X412338Y398474D01*
X413266Y399077D01*
X414244Y399594D01*
X415264Y400024D01*
X416318Y400361D01*
X417398Y400604D01*
X418494Y400751D01*
X419600Y400800D01*
X419606Y400800D01*
Y375800D01*
X419600Y375800D01*
X418494Y375849D01*
X417398Y375996D01*
X416318Y376239D01*
X415264Y376576D01*
X414244Y377006D01*
X413266Y377523D01*
X412338Y378126D01*
X411467Y378808D01*
X411404Y378856D01*
X411334Y378891D01*
X411259Y378916D01*
X411181Y378928D01*
X411103Y378928D01*
X411025Y378916D01*
X410950Y378892D01*
X410880Y378856D01*
X410816Y378810D01*
X410760Y378755D01*
X410714Y378691D01*
X410678Y378621D01*
X410654Y378546D01*
X410641Y378469D01*
X410641Y378390D01*
X410653Y378312D01*
X410678Y378237D01*
X410713Y378167D01*
X410759Y378103D01*
X410816Y378049D01*
X411749Y377301D01*
X412753Y376650D01*
X413810Y376090D01*
X414913Y375626D01*
X416052Y375261D01*
X417219Y374998D01*
X418405Y374840D01*
X419600Y374787D01*
X419606Y374787D01*
Y287292D01*
X408164Y287290D01*
Y381123D01*
X408601Y380449D01*
X409339Y379507D01*
X409395Y379450D01*
X409461Y379403D01*
X409533Y379366D01*
X409609Y379341D01*
X409689Y379329D01*
X409770Y379329D01*
X409849Y379342D01*
X409926Y379367D01*
X409998Y379404D01*
X410063Y379451D01*
X410120Y379508D01*
X410167Y379573D01*
X410203Y379645D01*
X410228Y379722D01*
X410241Y379802D01*
X410241Y379882D01*
X410228Y379962D01*
X410203Y380039D01*
X410166Y380110D01*
X410117Y380175D01*
X409426Y381038D01*
X408823Y381966D01*
X408306Y382944D01*
X408164Y383281D01*
Y393319D01*
X408306Y393656D01*
X408823Y394634D01*
X409426Y395562D01*
X410108Y396433D01*
X410156Y396496D01*
X410191Y396566D01*
X410216Y396641D01*
X410228Y396719D01*
X410228Y396797D01*
X410216Y396875D01*
X410192Y396950D01*
X410156Y397020D01*
X410110Y397084D01*
X410055Y397140D01*
X409991Y397186D01*
X409921Y397222D01*
X409846Y397246D01*
X409769Y397259D01*
X409690Y397259D01*
X409612Y397247D01*
X409537Y397222D01*
X409467Y397187D01*
X409403Y397141D01*
X409349Y397084D01*
X408601Y396151D01*
X408164Y395477D01*
Y405000D01*
G37*
G36*
Y133281D02*X407876Y133964D01*
X407539Y135018D01*
X407296Y136098D01*
X407149Y137194D01*
X407100Y138300D01*
X407149Y139406D01*
X407296Y140502D01*
X407539Y141582D01*
X407876Y142636D01*
X408164Y143319D01*
Y133281D01*
G37*
G36*
Y383281D02*X407876Y383964D01*
X407539Y385018D01*
X407296Y386098D01*
X407149Y387194D01*
X407100Y388300D01*
X407149Y389406D01*
X407296Y390502D01*
X407539Y391582D01*
X407876Y392636D01*
X408164Y393319D01*
Y383281D01*
G37*
G36*
X252201Y211801D02*X252559Y210958D01*
X252929Y209811D01*
X253196Y208637D01*
X253356Y207443D01*
X253410Y206240D01*
X253356Y205037D01*
X253196Y203843D01*
X252929Y202669D01*
X252559Y201522D01*
X252201Y200679D01*
Y211801D01*
G37*
G36*
X387858Y289000D02*X394822D01*
X394900Y288994D01*
X395214Y289019D01*
X395214Y289019D01*
X395520Y289092D01*
X395811Y289212D01*
X396079Y289377D01*
X396319Y289581D01*
X396370Y289641D01*
X401359Y294630D01*
X401419Y294681D01*
X401623Y294921D01*
X401623Y294921D01*
X401788Y295189D01*
X401908Y295480D01*
X401981Y295786D01*
X402006Y296100D01*
X402000Y296178D01*
Y371822D01*
X402006Y371900D01*
X401981Y372214D01*
X401981Y372214D01*
X401908Y372520D01*
X401788Y372811D01*
X401623Y373079D01*
X401419Y373319D01*
X401359Y373370D01*
X396370Y378359D01*
X396319Y378419D01*
X396079Y378623D01*
X395811Y378788D01*
X395520Y378908D01*
X395214Y378981D01*
X395214Y378981D01*
X394900Y379006D01*
X394822Y379000D01*
X392000D01*
Y404000D01*
X391981Y404314D01*
X391908Y404620D01*
X391788Y404911D01*
X391733Y405000D01*
X408164D01*
Y395477D01*
X407950Y395147D01*
X407390Y394090D01*
X406926Y392987D01*
X406561Y391848D01*
X406298Y390681D01*
X406140Y389495D01*
X406087Y388300D01*
X406140Y387105D01*
X406298Y385919D01*
X406561Y384752D01*
X406926Y383613D01*
X407390Y382510D01*
X407950Y381453D01*
X408164Y381123D01*
Y287290D01*
X389780Y287286D01*
X389627Y287249D01*
X389482Y287189D01*
X389347Y287107D01*
X389228Y287004D01*
X389125Y286885D01*
X389043Y286750D01*
X388983Y286605D01*
X388946Y286452D01*
X388937Y286295D01*
X388946Y253068D01*
X388983Y252915D01*
X389043Y252770D01*
X389125Y252635D01*
X389228Y252516D01*
X389347Y252413D01*
X389482Y252331D01*
X389627Y252271D01*
X389780Y252234D01*
X389937Y252225D01*
X408164Y252229D01*
Y250000D01*
X397678D01*
X397600Y250006D01*
X397286Y249981D01*
X396980Y249908D01*
X396689Y249788D01*
X396421Y249623D01*
X396420Y249623D01*
X396181Y249419D01*
X396130Y249359D01*
X390141Y243370D01*
X390081Y243319D01*
X389877Y243079D01*
X389712Y242811D01*
X389592Y242520D01*
X389519Y242214D01*
X389494Y241900D01*
X389500Y241822D01*
Y204178D01*
X389494Y204100D01*
X389519Y203786D01*
X389592Y203480D01*
X389712Y203189D01*
X389877Y202921D01*
X389877Y202921D01*
X390081Y202681D01*
X390141Y202630D01*
X395630Y197141D01*
X395681Y197081D01*
X395921Y196877D01*
X395921Y196877D01*
X396189Y196712D01*
X396480Y196592D01*
X396786Y196519D01*
X397100Y196494D01*
X397178Y196500D01*
X408164D01*
Y145477D01*
X407950Y145147D01*
X407390Y144090D01*
X406926Y142987D01*
X406561Y141848D01*
X406298Y140681D01*
X406140Y139495D01*
X406087Y138300D01*
X406140Y137105D01*
X406298Y135919D01*
X406561Y134752D01*
X406926Y133613D01*
X407390Y132510D01*
X407950Y131453D01*
X408164Y131123D01*
Y122000D01*
X387858D01*
Y146990D01*
X390873Y146992D01*
X390933Y147006D01*
X390990Y147030D01*
X391043Y147062D01*
X391090Y147103D01*
X391131Y147150D01*
X391163Y147203D01*
X391187Y147260D01*
X391201Y147320D01*
X391205Y147382D01*
X391201Y151774D01*
X391187Y151834D01*
X391163Y151891D01*
X391131Y151944D01*
X391090Y151991D01*
X391043Y152032D01*
X390990Y152064D01*
X390933Y152088D01*
X390873Y152102D01*
X390811Y152106D01*
X387858Y152104D01*
Y152894D01*
X390873Y152896D01*
X390934Y152911D01*
X390991Y152934D01*
X391044Y152967D01*
X391091Y153007D01*
X391131Y153054D01*
X391164Y153107D01*
X391187Y153164D01*
X391202Y153225D01*
X391205Y153287D01*
X391202Y157679D01*
X391187Y157740D01*
X391164Y157797D01*
X391131Y157850D01*
X391091Y157897D01*
X391044Y157937D01*
X390991Y157970D01*
X390934Y157993D01*
X390873Y158008D01*
X390811Y158012D01*
X387858Y158010D01*
Y289000D01*
G37*
G36*
X378992D02*X387858D01*
Y158010D01*
X384845Y158008D01*
X384784Y157993D01*
X384727Y157970D01*
X384674Y157937D01*
X384627Y157897D01*
X384587Y157850D01*
X384554Y157797D01*
X384531Y157740D01*
X384516Y157679D01*
X384512Y157618D01*
X384516Y153225D01*
X384531Y153164D01*
X384554Y153107D01*
X384587Y153054D01*
X384627Y153007D01*
X384674Y152967D01*
X384727Y152934D01*
X384784Y152911D01*
X384845Y152896D01*
X384906Y152893D01*
X387858Y152894D01*
Y152104D01*
X384844Y152102D01*
X384784Y152088D01*
X384727Y152064D01*
X384674Y152032D01*
X384627Y151991D01*
X384586Y151944D01*
X384554Y151891D01*
X384530Y151834D01*
X384516Y151774D01*
X384512Y151712D01*
X384516Y147320D01*
X384530Y147260D01*
X384554Y147203D01*
X384586Y147150D01*
X384627Y147103D01*
X384674Y147062D01*
X384727Y147030D01*
X384784Y147006D01*
X384844Y146992D01*
X384906Y146988D01*
X387858Y146990D01*
Y122000D01*
X378992D01*
Y147172D01*
X379000Y147172D01*
X379834Y147237D01*
X380647Y147432D01*
X381419Y147752D01*
X382132Y148189D01*
X382768Y148732D01*
X383311Y149368D01*
X383748Y150081D01*
X384068Y150853D01*
X384263Y151666D01*
X384312Y152500D01*
X384263Y153334D01*
X384068Y154147D01*
X383748Y154919D01*
X383311Y155632D01*
X382768Y156268D01*
X382132Y156811D01*
X381419Y157248D01*
X380647Y157568D01*
X379834Y157763D01*
X379000Y157828D01*
X378992Y157828D01*
Y199105D01*
X383894Y199106D01*
X383986Y199128D01*
X384073Y199164D01*
X384154Y199213D01*
X384226Y199274D01*
X384287Y199346D01*
X384336Y199427D01*
X384372Y199514D01*
X384394Y199606D01*
X384400Y199700D01*
X384394Y204394D01*
X384372Y204486D01*
X384336Y204573D01*
X384287Y204654D01*
X384226Y204726D01*
X384154Y204787D01*
X384073Y204836D01*
X383986Y204872D01*
X383894Y204894D01*
X383800Y204900D01*
X378992Y204900D01*
Y289000D01*
G37*
G36*
X370142Y199105D02*X378992Y199105D01*
Y157828D01*
X378166Y157763D01*
X377353Y157568D01*
X376581Y157248D01*
X375868Y156811D01*
X375232Y156268D01*
X374689Y155632D01*
X374252Y154919D01*
X373932Y154147D01*
X373737Y153334D01*
X373672Y152500D01*
X373737Y151666D01*
X373932Y150853D01*
X374252Y150081D01*
X374689Y149368D01*
X375232Y148732D01*
X375868Y148189D01*
X376581Y147752D01*
X377353Y147432D01*
X378166Y147237D01*
X378992Y147172D01*
Y122000D01*
X370142D01*
Y146990D01*
X373157Y146992D01*
X373217Y147006D01*
X373274Y147030D01*
X373327Y147062D01*
X373374Y147103D01*
X373415Y147150D01*
X373447Y147203D01*
X373471Y147260D01*
X373485Y147320D01*
X373489Y147382D01*
X373485Y151774D01*
X373471Y151834D01*
X373447Y151891D01*
X373415Y151944D01*
X373374Y151991D01*
X373327Y152032D01*
X373274Y152064D01*
X373217Y152088D01*
X373157Y152102D01*
X373095Y152106D01*
X370142Y152104D01*
Y152894D01*
X373157Y152896D01*
X373218Y152911D01*
X373275Y152934D01*
X373328Y152967D01*
X373375Y153007D01*
X373415Y153054D01*
X373448Y153107D01*
X373471Y153164D01*
X373486Y153225D01*
X373490Y153286D01*
X373486Y157679D01*
X373471Y157740D01*
X373448Y157797D01*
X373415Y157850D01*
X373375Y157897D01*
X373328Y157937D01*
X373275Y157970D01*
X373218Y157993D01*
X373157Y158008D01*
X373096Y158012D01*
X370142Y158010D01*
Y199105D01*
G37*
G36*
X353098Y199103D02*X370142Y199105D01*
Y158010D01*
X367127Y158008D01*
X367066Y157993D01*
X367009Y157970D01*
X366956Y157937D01*
X366909Y157897D01*
X366869Y157850D01*
X366836Y157797D01*
X366813Y157740D01*
X366798Y157679D01*
X366794Y157618D01*
X366798Y153225D01*
X366813Y153164D01*
X366836Y153107D01*
X366869Y153054D01*
X366909Y153007D01*
X366956Y152967D01*
X367009Y152934D01*
X367066Y152911D01*
X367127Y152896D01*
X367188Y152892D01*
X370142Y152894D01*
Y152104D01*
X367127Y152102D01*
X367067Y152088D01*
X367010Y152064D01*
X366957Y152032D01*
X366910Y151991D01*
X366869Y151944D01*
X366837Y151891D01*
X366813Y151834D01*
X366799Y151774D01*
X366795Y151712D01*
X366799Y147320D01*
X366813Y147260D01*
X366837Y147203D01*
X366869Y147150D01*
X366910Y147103D01*
X366957Y147062D01*
X367010Y147030D01*
X367067Y147006D01*
X367127Y146992D01*
X367189Y146988D01*
X370142Y146990D01*
Y122000D01*
X353098D01*
Y144568D01*
X353110Y144567D01*
X354287Y144659D01*
X355435Y144935D01*
X356525Y145387D01*
X357532Y146004D01*
X358430Y146770D01*
X359196Y147668D01*
X359813Y148675D01*
X360265Y149765D01*
X360541Y150913D01*
X360610Y152090D01*
X360541Y153267D01*
X360265Y154415D01*
X359813Y155505D01*
X359196Y156512D01*
X358430Y157410D01*
X357532Y158176D01*
X356525Y158793D01*
X355435Y159245D01*
X354287Y159521D01*
X353110Y159613D01*
X353098Y159612D01*
Y199103D01*
G37*
G36*
X327098Y199102D02*X353098Y199103D01*
Y159612D01*
X351933Y159521D01*
X350785Y159245D01*
X349695Y158793D01*
X348688Y158176D01*
X347790Y157410D01*
X347024Y156512D01*
X346407Y155505D01*
X345955Y154415D01*
X345679Y153267D01*
X345587Y152090D01*
X345679Y150913D01*
X345955Y149765D01*
X346407Y148675D01*
X347024Y147668D01*
X347790Y146770D01*
X348688Y146004D01*
X349695Y145387D01*
X350785Y144935D01*
X351933Y144659D01*
X353098Y144568D01*
Y122000D01*
X327098D01*
Y144568D01*
X327110Y144567D01*
X328287Y144659D01*
X329435Y144935D01*
X330525Y145387D01*
X331532Y146004D01*
X332430Y146770D01*
X333196Y147668D01*
X333813Y148675D01*
X334265Y149765D01*
X334541Y150913D01*
X334610Y152090D01*
X334541Y153267D01*
X334265Y154415D01*
X333813Y155505D01*
X333196Y156512D01*
X332430Y157410D01*
X331532Y158176D01*
X330525Y158793D01*
X329435Y159245D01*
X328287Y159521D01*
X327110Y159613D01*
X327098Y159612D01*
Y199102D01*
G37*
G36*
Y289000D02*X378992D01*
Y204900D01*
X327098Y204896D01*
Y289000D01*
G37*
G36*
X273205Y243852D02*X273440Y243290D01*
X273753Y242305D01*
X273979Y241297D01*
X274115Y240272D01*
X274160Y239240D01*
X274115Y238208D01*
X273979Y237183D01*
X273753Y236175D01*
X273440Y235190D01*
X273205Y234628D01*
Y243852D01*
G37*
G36*
X294500Y406000D02*X320767D01*
X320712Y405911D01*
X320592Y405620D01*
X320519Y405314D01*
X320500Y405000D01*
Y378500D01*
X316678D01*
X316600Y378506D01*
X316286Y378481D01*
X315980Y378408D01*
X315689Y378288D01*
X315421Y378123D01*
X315420Y378123D01*
X315181Y377919D01*
X315130Y377859D01*
X309641Y372370D01*
X309581Y372319D01*
X309377Y372079D01*
X309212Y371811D01*
X309092Y371520D01*
X309019Y371214D01*
X309019Y371214D01*
X308994Y370900D01*
X309000Y370822D01*
Y296678D01*
X308994Y296600D01*
X309019Y296286D01*
X309074Y296054D01*
X309092Y295980D01*
X309127Y295895D01*
X309212Y295689D01*
X309377Y295421D01*
X309377Y295421D01*
X309581Y295181D01*
X309641Y295130D01*
X315130Y289641D01*
X315181Y289581D01*
X315421Y289377D01*
X315421Y289377D01*
X315689Y289212D01*
X315895Y289127D01*
X315980Y289092D01*
X316054Y289074D01*
X316286Y289019D01*
X316600Y288994D01*
X316678Y289000D01*
X327098D01*
Y204896D01*
X301606Y204894D01*
X301514Y204872D01*
X301427Y204836D01*
X301346Y204787D01*
X301274Y204726D01*
X301213Y204654D01*
X301164Y204573D01*
X301128Y204486D01*
X301105Y204394D01*
X301100Y204300D01*
X301105Y199606D01*
X301128Y199514D01*
X301164Y199427D01*
X301213Y199346D01*
X301274Y199274D01*
X301346Y199213D01*
X301427Y199164D01*
X301514Y199128D01*
X301606Y199106D01*
X301700Y199100D01*
X327098Y199102D01*
Y159612D01*
X325933Y159521D01*
X324785Y159245D01*
X323695Y158793D01*
X322688Y158176D01*
X321790Y157410D01*
X321024Y156512D01*
X320407Y155505D01*
X319955Y154415D01*
X319679Y153267D01*
X319587Y152090D01*
X319679Y150913D01*
X319955Y149765D01*
X320407Y148675D01*
X321024Y147668D01*
X321790Y146770D01*
X322688Y146004D01*
X323695Y145387D01*
X324785Y144935D01*
X325933Y144659D01*
X327098Y144568D01*
Y122000D01*
X294500D01*
Y142000D01*
X307500D01*
Y168000D01*
X294500D01*
Y332072D01*
X297759Y335330D01*
X297819Y335381D01*
X298023Y335620D01*
X298023Y335621D01*
X298188Y335889D01*
X298308Y336180D01*
X298381Y336486D01*
X298406Y336800D01*
X298400Y336878D01*
Y355022D01*
X298406Y355100D01*
X298381Y355414D01*
X298308Y355720D01*
X298188Y356011D01*
X298023Y356279D01*
X298023Y356279D01*
X297819Y356519D01*
X297759Y356570D01*
X294500Y359828D01*
Y406000D01*
G37*
G36*
Y122000D02*X273205D01*
Y156347D01*
X276349Y159490D01*
X276409Y159541D01*
X276613Y159781D01*
X276613Y159781D01*
X276778Y160049D01*
X276898Y160340D01*
X276971Y160646D01*
X276996Y160960D01*
X276990Y161038D01*
Y187682D01*
X276996Y187760D01*
X276971Y188074D01*
X276971Y188074D01*
X276898Y188380D01*
X276778Y188671D01*
X276613Y188939D01*
X276409Y189179D01*
X276349Y189230D01*
X273205Y192373D01*
Y232454D01*
X273435Y232812D01*
X273958Y233806D01*
X274390Y234841D01*
X274730Y235911D01*
X274975Y237006D01*
X275123Y238119D01*
X275172Y239240D01*
X275123Y240361D01*
X274975Y241474D01*
X274730Y242569D01*
X274390Y243639D01*
X273958Y244674D01*
X273435Y245668D01*
X273205Y246026D01*
Y331200D01*
X292722D01*
X292800Y331194D01*
X293114Y331219D01*
X293420Y331292D01*
X293711Y331412D01*
X293979Y331577D01*
X294219Y331781D01*
X294270Y331841D01*
X294500Y332072D01*
Y168000D01*
X281500D01*
Y142000D01*
X294500D01*
Y122000D01*
G37*
G36*
X273205Y406000D02*X294500D01*
Y359828D01*
X293720Y360609D01*
X293669Y360669D01*
X293429Y360873D01*
X293161Y361038D01*
X292870Y361158D01*
X292564Y361231D01*
X292564Y361231D01*
X292250Y361256D01*
X292172Y361250D01*
X273205D01*
Y406000D01*
G37*
G36*
Y192373D02*X272360Y193219D01*
X272309Y193279D01*
X272069Y193483D01*
X272069Y193483D01*
X271801Y193648D01*
X271510Y193768D01*
X271204Y193841D01*
X270890Y193866D01*
X270812Y193860D01*
X262416D01*
Y226478D01*
X263531Y226527D01*
X264644Y226675D01*
X265739Y226920D01*
X266809Y227260D01*
X267844Y227692D01*
X268838Y228215D01*
X269782Y228822D01*
X270668Y229510D01*
X270726Y229566D01*
X270773Y229631D01*
X270810Y229703D01*
X270835Y229779D01*
X270848Y229859D01*
X270848Y229939D01*
X270836Y230019D01*
X270811Y230095D01*
X270775Y230167D01*
X270728Y230232D01*
X270671Y230289D01*
X270606Y230337D01*
X270535Y230374D01*
X270458Y230399D01*
X270379Y230412D01*
X270298Y230412D01*
X270219Y230400D01*
X270142Y230375D01*
X270070Y230339D01*
X270006Y230290D01*
X269197Y229648D01*
X268328Y229089D01*
X267413Y228608D01*
X266460Y228210D01*
X265475Y227897D01*
X264467Y227671D01*
X263442Y227535D01*
X262416Y227490D01*
Y250990D01*
X263442Y250945D01*
X264467Y250809D01*
X265475Y250583D01*
X266460Y250270D01*
X267413Y249872D01*
X268328Y249391D01*
X269197Y248832D01*
X270013Y248198D01*
X270076Y248151D01*
X270146Y248116D01*
X270221Y248092D01*
X270299Y248079D01*
X270378Y248080D01*
X270455Y248092D01*
X270530Y248117D01*
X270600Y248153D01*
X270664Y248199D01*
X270719Y248255D01*
X270765Y248319D01*
X270801Y248389D01*
X270825Y248464D01*
X270837Y248542D01*
X270837Y248620D01*
X270824Y248698D01*
X270800Y248773D01*
X270764Y248843D01*
X270717Y248906D01*
X270660Y248961D01*
X269782Y249658D01*
X268838Y250265D01*
X267844Y250788D01*
X266809Y251220D01*
X265739Y251560D01*
X264644Y251805D01*
X263531Y251953D01*
X262416Y252002D01*
Y331200D01*
X273205D01*
Y246026D01*
X272828Y246612D01*
X272140Y247498D01*
X272084Y247556D01*
X272019Y247603D01*
X271947Y247640D01*
X271871Y247665D01*
X271791Y247678D01*
X271711Y247678D01*
X271631Y247666D01*
X271555Y247641D01*
X271483Y247605D01*
X271418Y247558D01*
X271361Y247501D01*
X271313Y247436D01*
X271276Y247365D01*
X271251Y247288D01*
X271238Y247209D01*
X271238Y247128D01*
X271250Y247049D01*
X271275Y246972D01*
X271311Y246900D01*
X271360Y246836D01*
X272002Y246027D01*
X272561Y245158D01*
X273042Y244243D01*
X273205Y243852D01*
Y234628D01*
X273042Y234237D01*
X272561Y233322D01*
X272002Y232453D01*
X271368Y231637D01*
X271321Y231574D01*
X271286Y231504D01*
X271262Y231429D01*
X271249Y231351D01*
X271250Y231272D01*
X271262Y231195D01*
X271287Y231120D01*
X271323Y231050D01*
X271369Y230986D01*
X271425Y230931D01*
X271489Y230885D01*
X271559Y230849D01*
X271634Y230825D01*
X271712Y230813D01*
X271790Y230813D01*
X271868Y230826D01*
X271943Y230850D01*
X272013Y230886D01*
X272076Y230933D01*
X272131Y230990D01*
X272828Y231868D01*
X273205Y232454D01*
Y192373D01*
G37*
G36*
Y122000D02*X262416D01*
Y154860D01*
X270812D01*
X270890Y154854D01*
X271204Y154879D01*
X271204D01*
X271204Y154879D01*
X271510Y154952D01*
X271801Y155072D01*
X272069Y155237D01*
X272309Y155441D01*
X272360Y155501D01*
X273205Y156347D01*
Y122000D01*
G37*
G36*
X262416Y406000D02*X273205D01*
Y361250D01*
X262416D01*
Y406000D01*
G37*
G36*
Y193860D02*X252201D01*
Y198541D01*
X252393Y198834D01*
X253003Y199976D01*
X253509Y201168D01*
X253907Y202400D01*
X254194Y203663D01*
X254367Y204946D01*
X254424Y206240D01*
X254367Y207534D01*
X254194Y208817D01*
X253907Y210080D01*
X253509Y211312D01*
X253003Y212504D01*
X252393Y213646D01*
X252201Y213939D01*
Y231599D01*
X252680Y230982D01*
X252736Y230924D01*
X252801Y230877D01*
X252873Y230840D01*
X252949Y230815D01*
X253029Y230802D01*
X253109Y230802D01*
X253189Y230814D01*
X253265Y230839D01*
X253337Y230875D01*
X253402Y230922D01*
X253459Y230979D01*
X253507Y231044D01*
X253544Y231115D01*
X253569Y231192D01*
X253582Y231271D01*
X253582Y231352D01*
X253570Y231431D01*
X253545Y231508D01*
X253509Y231580D01*
X253460Y231644D01*
X252818Y232453D01*
X252259Y233322D01*
X252201Y233433D01*
Y245047D01*
X252259Y245158D01*
X252818Y246027D01*
X253452Y246843D01*
X253499Y246906D01*
X253534Y246976D01*
X253558Y247051D01*
X253571Y247129D01*
X253570Y247208D01*
X253558Y247285D01*
X253533Y247360D01*
X253497Y247430D01*
X253451Y247494D01*
X253395Y247549D01*
X253331Y247595D01*
X253261Y247631D01*
X253186Y247655D01*
X253108Y247667D01*
X253030Y247667D01*
X252952Y247654D01*
X252877Y247630D01*
X252807Y247594D01*
X252744Y247547D01*
X252689Y247490D01*
X252201Y246875D01*
Y263391D01*
X261221Y263393D01*
X261374Y263430D01*
X261519Y263490D01*
X261654Y263572D01*
X261773Y263675D01*
X261876Y263794D01*
X261958Y263929D01*
X262018Y264074D01*
X262055Y264227D01*
X262064Y264384D01*
X262055Y305486D01*
X262018Y305639D01*
X261958Y305784D01*
X261876Y305919D01*
X261773Y306038D01*
X261654Y306141D01*
X261519Y306223D01*
X261374Y306283D01*
X261221Y306320D01*
X261064Y306329D01*
X252201Y306327D01*
Y331200D01*
X262416D01*
Y252002D01*
X262410Y252002D01*
X261289Y251953D01*
X260176Y251805D01*
X259081Y251560D01*
X258011Y251220D01*
X256976Y250788D01*
X255982Y250265D01*
X255038Y249658D01*
X254152Y248970D01*
X254094Y248914D01*
X254047Y248849D01*
X254010Y248777D01*
X253985Y248701D01*
X253972Y248621D01*
X253972Y248541D01*
X253984Y248461D01*
X254009Y248385D01*
X254045Y248313D01*
X254092Y248248D01*
X254149Y248191D01*
X254214Y248143D01*
X254285Y248106D01*
X254362Y248081D01*
X254441Y248068D01*
X254522Y248068D01*
X254601Y248080D01*
X254678Y248105D01*
X254750Y248141D01*
X254814Y248190D01*
X255623Y248832D01*
X256492Y249391D01*
X257407Y249872D01*
X258360Y250270D01*
X259345Y250583D01*
X260353Y250809D01*
X261378Y250945D01*
X262410Y250990D01*
X262416Y250990D01*
Y227490D01*
X262410Y227490D01*
X261378Y227535D01*
X260353Y227671D01*
X259345Y227897D01*
X258360Y228210D01*
X257407Y228608D01*
X256492Y229089D01*
X255623Y229648D01*
X254807Y230282D01*
X254744Y230329D01*
X254674Y230364D01*
X254599Y230389D01*
X254521Y230401D01*
X254442Y230400D01*
X254365Y230388D01*
X254290Y230363D01*
X254220Y230327D01*
X254156Y230281D01*
X254101Y230225D01*
X254055Y230161D01*
X254019Y230091D01*
X253995Y230016D01*
X253983Y229938D01*
X253983Y229860D01*
X253996Y229782D01*
X254020Y229707D01*
X254056Y229637D01*
X254103Y229574D01*
X254160Y229519D01*
X255038Y228822D01*
X255982Y228215D01*
X256976Y227692D01*
X258011Y227260D01*
X259081Y226920D01*
X260176Y226675D01*
X261289Y226527D01*
X262410Y226478D01*
X262416Y226478D01*
Y193860D01*
G37*
G36*
Y122000D02*X252201D01*
Y154860D01*
X262416D01*
Y122000D01*
G37*
G36*
X252201Y406000D02*X262416D01*
Y361250D01*
X252201D01*
Y406000D01*
G37*
G36*
Y233433D02*X251778Y234237D01*
X251380Y235190D01*
X251067Y236175D01*
X250841Y237183D01*
X250705Y238208D01*
X250660Y239240D01*
X250705Y240272D01*
X250841Y241297D01*
X251067Y242305D01*
X251380Y243290D01*
X251778Y244243D01*
X252201Y245047D01*
Y233433D01*
G37*
G36*
Y306327D02*X239490Y306323D01*
Y331200D01*
X252201D01*
Y306327D01*
G37*
G36*
Y193860D02*X247473D01*
X248399Y194467D01*
X249415Y195270D01*
X249472Y195328D01*
X249519Y195393D01*
X249555Y195466D01*
X249579Y195543D01*
X249591Y195622D01*
X249591Y195703D01*
X249578Y195783D01*
X249552Y195860D01*
X249515Y195931D01*
X249467Y195996D01*
X249409Y196053D01*
X249344Y196100D01*
X249271Y196136D01*
X249194Y196161D01*
X249114Y196173D01*
X249034Y196172D01*
X248954Y196159D01*
X248877Y196134D01*
X248806Y196096D01*
X248742Y196047D01*
X247806Y195290D01*
X246798Y194630D01*
X245736Y194062D01*
X245261Y193860D01*
X239490D01*
Y219721D01*
X239910Y219740D01*
X241113Y219686D01*
X242307Y219526D01*
X243481Y219259D01*
X244628Y218889D01*
X245736Y218418D01*
X246798Y217850D01*
X247806Y217190D01*
X248750Y216443D01*
X248813Y216395D01*
X248883Y216359D01*
X248957Y216334D01*
X249035Y216321D01*
X249114Y216321D01*
X249191Y216332D01*
X249266Y216356D01*
X249337Y216391D01*
X249401Y216437D01*
X249457Y216492D01*
X249503Y216556D01*
X249540Y216626D01*
X249565Y216700D01*
X249577Y216778D01*
X249578Y216857D01*
X249566Y216934D01*
X249542Y217009D01*
X249507Y217080D01*
X249461Y217144D01*
X249405Y217199D01*
X248399Y218013D01*
X247316Y218723D01*
X246174Y219333D01*
X244982Y219839D01*
X243750Y220237D01*
X242487Y220524D01*
X241204Y220697D01*
X239910Y220754D01*
X239490Y220736D01*
Y263387D01*
X252201Y263391D01*
Y246875D01*
X251992Y246612D01*
X251385Y245668D01*
X250862Y244674D01*
X250430Y243639D01*
X250090Y242569D01*
X249845Y241474D01*
X249697Y240361D01*
X249648Y239240D01*
X249697Y238119D01*
X249845Y237006D01*
X250090Y235911D01*
X250430Y234841D01*
X250862Y233806D01*
X251385Y232812D01*
X251992Y231868D01*
X252201Y231599D01*
Y213939D01*
X251683Y214729D01*
X250880Y215745D01*
X250822Y215802D01*
X250757Y215849D01*
X250684Y215885D01*
X250607Y215909D01*
X250528Y215921D01*
X250447Y215921D01*
X250367Y215908D01*
X250290Y215882D01*
X250219Y215845D01*
X250154Y215797D01*
X250097Y215739D01*
X250050Y215674D01*
X250014Y215601D01*
X249989Y215524D01*
X249977Y215445D01*
X249978Y215364D01*
X249991Y215284D01*
X250016Y215207D01*
X250054Y215136D01*
X250103Y215072D01*
X250860Y214136D01*
X251520Y213128D01*
X252088Y212066D01*
X252201Y211801D01*
Y200679D01*
X252088Y200414D01*
X251520Y199352D01*
X250860Y198344D01*
X250113Y197400D01*
X250065Y197337D01*
X250029Y197267D01*
X250004Y197193D01*
X249991Y197115D01*
X249991Y197036D01*
X250002Y196959D01*
X250026Y196884D01*
X250061Y196813D01*
X250107Y196749D01*
X250162Y196693D01*
X250226Y196647D01*
X250296Y196610D01*
X250370Y196585D01*
X250448Y196573D01*
X250527Y196572D01*
X250604Y196584D01*
X250679Y196608D01*
X250750Y196643D01*
X250814Y196689D01*
X250869Y196745D01*
X251683Y197751D01*
X252201Y198541D01*
Y193860D01*
G37*
G36*
Y122000D02*X239490D01*
Y154860D01*
X252201D01*
Y122000D01*
G37*
G36*
X239490Y406000D02*X252201D01*
Y361250D01*
X239490D01*
Y406000D01*
G37*
G36*
X227619Y244057D02*X227940Y243290D01*
X228253Y242305D01*
X228479Y241297D01*
X228615Y240272D01*
X228660Y239240D01*
X228615Y238208D01*
X228479Y237183D01*
X228253Y236175D01*
X227940Y235190D01*
X227619Y234423D01*
Y244057D01*
G37*
G36*
Y154860D02*X239490D01*
Y122000D01*
X227619D01*
Y154860D01*
G37*
G36*
Y263457D02*X227684Y263430D01*
X227837Y263393D01*
X227994Y263384D01*
X239490Y263387D01*
Y220736D01*
X238616Y220697D01*
X237333Y220524D01*
X236070Y220237D01*
X234838Y219839D01*
X233646Y219333D01*
X232504Y218723D01*
X231421Y218013D01*
X230405Y217210D01*
X230348Y217152D01*
X230301Y217087D01*
X230265Y217014D01*
X230241Y216937D01*
X230229Y216858D01*
X230229Y216777D01*
X230242Y216697D01*
X230268Y216620D01*
X230305Y216549D01*
X230353Y216484D01*
X230411Y216427D01*
X230476Y216380D01*
X230549Y216344D01*
X230626Y216319D01*
X230705Y216307D01*
X230786Y216308D01*
X230866Y216321D01*
X230943Y216346D01*
X231014Y216384D01*
X231078Y216433D01*
X232014Y217190D01*
X233022Y217850D01*
X234084Y218418D01*
X235192Y218889D01*
X236339Y219259D01*
X237513Y219526D01*
X238707Y219686D01*
X239490Y219721D01*
Y193860D01*
X234559D01*
X234084Y194062D01*
X233022Y194630D01*
X232014Y195290D01*
X231070Y196037D01*
X231007Y196085D01*
X230937Y196121D01*
X230863Y196146D01*
X230785Y196159D01*
X230706Y196159D01*
X230629Y196148D01*
X230554Y196124D01*
X230483Y196089D01*
X230419Y196043D01*
X230363Y195988D01*
X230317Y195924D01*
X230280Y195854D01*
X230255Y195780D01*
X230243Y195702D01*
X230242Y195623D01*
X230254Y195546D01*
X230278Y195471D01*
X230313Y195400D01*
X230359Y195336D01*
X230415Y195281D01*
X231421Y194467D01*
X232347Y193860D01*
X227619D01*
Y198541D01*
X228137Y197751D01*
X228940Y196735D01*
X228998Y196678D01*
X229063Y196631D01*
X229136Y196595D01*
X229213Y196571D01*
X229292Y196559D01*
X229373Y196559D01*
X229453Y196572D01*
X229530Y196598D01*
X229601Y196635D01*
X229666Y196683D01*
X229723Y196741D01*
X229770Y196806D01*
X229806Y196879D01*
X229831Y196956D01*
X229843Y197036D01*
X229842Y197116D01*
X229829Y197196D01*
X229804Y197273D01*
X229766Y197344D01*
X229717Y197408D01*
X228960Y198344D01*
X228300Y199352D01*
X227732Y200414D01*
X227619Y200679D01*
Y211801D01*
X227732Y212066D01*
X228300Y213128D01*
X228960Y214136D01*
X229707Y215080D01*
X229755Y215143D01*
X229791Y215213D01*
X229816Y215287D01*
X229829Y215365D01*
X229829Y215444D01*
X229818Y215521D01*
X229794Y215596D01*
X229759Y215667D01*
X229713Y215731D01*
X229658Y215787D01*
X229594Y215833D01*
X229524Y215870D01*
X229450Y215895D01*
X229372Y215907D01*
X229293Y215908D01*
X229216Y215896D01*
X229141Y215872D01*
X229070Y215837D01*
X229006Y215791D01*
X228951Y215735D01*
X228137Y214729D01*
X227619Y213939D01*
Y232321D01*
X227935Y232812D01*
X228458Y233806D01*
X228890Y234841D01*
X229230Y235911D01*
X229475Y237006D01*
X229623Y238119D01*
X229672Y239240D01*
X229623Y240361D01*
X229475Y241474D01*
X229230Y242569D01*
X228890Y243639D01*
X228458Y244674D01*
X227935Y245668D01*
X227619Y246159D01*
Y263457D01*
G37*
G36*
Y406000D02*X239490D01*
Y361250D01*
X234528D01*
X234450Y361256D01*
X234136Y361231D01*
X233830Y361158D01*
X233539Y361038D01*
X233271Y360873D01*
X233271Y360873D01*
X233031Y360669D01*
X232980Y360609D01*
X228541Y356170D01*
X228481Y356119D01*
X228277Y355879D01*
X228112Y355611D01*
X227992Y355320D01*
X227919Y355014D01*
X227919Y355014D01*
X227894Y354700D01*
X227900Y354622D01*
Y336878D01*
X227894Y336800D01*
X227919Y336486D01*
X227974Y336254D01*
X227992Y336180D01*
X228027Y336095D01*
X228112Y335889D01*
X228277Y335621D01*
X228277Y335621D01*
X228481Y335381D01*
X228541Y335330D01*
X232030Y331841D01*
X232081Y331781D01*
X232321Y331577D01*
X232321Y331577D01*
X232589Y331412D01*
X232880Y331292D01*
X233186Y331219D01*
X233500Y331194D01*
X233578Y331200D01*
X239490D01*
Y306323D01*
X227837Y306320D01*
X227684Y306283D01*
X227619Y306256D01*
Y406000D01*
G37*
G36*
Y200679D02*X227261Y201522D01*
X226891Y202669D01*
X226624Y203843D01*
X226464Y205037D01*
X226410Y206240D01*
X226464Y207443D01*
X226624Y208637D01*
X226891Y209811D01*
X227261Y210958D01*
X227619Y211801D01*
Y200679D01*
G37*
G36*
X216916Y154860D02*X227619D01*
Y122000D01*
X216916D01*
Y154860D01*
G37*
G36*
X220145Y277612D02*X220380Y277050D01*
X220693Y276065D01*
X220919Y275057D01*
X221055Y274032D01*
X221100Y273000D01*
X221055Y271968D01*
X220919Y270943D01*
X220693Y269935D01*
X220380Y268950D01*
X220145Y268388D01*
Y277612D01*
G37*
G36*
Y406000D02*X227619D01*
Y306256D01*
X227539Y306223D01*
X227404Y306141D01*
X227285Y306038D01*
X227182Y305919D01*
X227100Y305784D01*
X227040Y305639D01*
X227003Y305486D01*
X226994Y305329D01*
X227003Y264227D01*
X227040Y264074D01*
X227100Y263929D01*
X227182Y263794D01*
X227285Y263675D01*
X227404Y263572D01*
X227539Y263490D01*
X227619Y263457D01*
Y246159D01*
X227328Y246612D01*
X226640Y247498D01*
X226584Y247556D01*
X226519Y247603D01*
X226447Y247640D01*
X226371Y247665D01*
X226291Y247678D01*
X226211Y247678D01*
X226131Y247666D01*
X226055Y247641D01*
X225983Y247605D01*
X225918Y247558D01*
X225861Y247501D01*
X225813Y247436D01*
X225776Y247365D01*
X225751Y247288D01*
X225738Y247209D01*
X225738Y247128D01*
X225750Y247049D01*
X225775Y246972D01*
X225811Y246900D01*
X225860Y246836D01*
X226502Y246027D01*
X227061Y245158D01*
X227542Y244243D01*
X227619Y244057D01*
Y234423D01*
X227542Y234237D01*
X227061Y233322D01*
X226502Y232453D01*
X225868Y231637D01*
X225821Y231574D01*
X225786Y231504D01*
X225761Y231429D01*
X225749Y231351D01*
X225750Y231272D01*
X225762Y231195D01*
X225787Y231120D01*
X225823Y231050D01*
X225869Y230986D01*
X225925Y230931D01*
X225989Y230885D01*
X226059Y230849D01*
X226134Y230825D01*
X226212Y230813D01*
X226290Y230813D01*
X226368Y230826D01*
X226443Y230850D01*
X226513Y230886D01*
X226576Y230933D01*
X226631Y230990D01*
X227328Y231868D01*
X227619Y232321D01*
Y213939D01*
X227427Y213646D01*
X226817Y212504D01*
X226311Y211312D01*
X225913Y210080D01*
X225626Y208817D01*
X225453Y207534D01*
X225396Y206240D01*
X225453Y204946D01*
X225626Y203663D01*
X225913Y202400D01*
X226311Y201168D01*
X226817Y199976D01*
X227427Y198834D01*
X227619Y198541D01*
Y193860D01*
X220145D01*
Y226899D01*
X220239Y226920D01*
X221309Y227260D01*
X222344Y227692D01*
X223338Y228215D01*
X224282Y228822D01*
X225168Y229510D01*
X225226Y229566D01*
X225273Y229631D01*
X225310Y229703D01*
X225335Y229779D01*
X225348Y229859D01*
X225348Y229939D01*
X225336Y230019D01*
X225311Y230095D01*
X225275Y230167D01*
X225228Y230232D01*
X225171Y230289D01*
X225106Y230337D01*
X225035Y230374D01*
X224958Y230399D01*
X224879Y230412D01*
X224798Y230412D01*
X224719Y230400D01*
X224642Y230375D01*
X224570Y230339D01*
X224506Y230290D01*
X223697Y229648D01*
X222828Y229089D01*
X221913Y228608D01*
X220960Y228210D01*
X220145Y227951D01*
Y250529D01*
X220960Y250270D01*
X221913Y249872D01*
X222828Y249391D01*
X223697Y248832D01*
X224513Y248198D01*
X224576Y248151D01*
X224646Y248116D01*
X224721Y248092D01*
X224799Y248079D01*
X224878Y248080D01*
X224955Y248092D01*
X225030Y248117D01*
X225100Y248153D01*
X225164Y248199D01*
X225219Y248255D01*
X225265Y248319D01*
X225301Y248389D01*
X225325Y248464D01*
X225337Y248542D01*
X225337Y248620D01*
X225324Y248698D01*
X225300Y248773D01*
X225264Y248843D01*
X225217Y248906D01*
X225160Y248961D01*
X224282Y249658D01*
X223338Y250265D01*
X222344Y250788D01*
X221309Y251220D01*
X220239Y251560D01*
X220145Y251581D01*
Y266214D01*
X220375Y266572D01*
X220898Y267566D01*
X221330Y268601D01*
X221670Y269671D01*
X221915Y270766D01*
X222063Y271879D01*
X222112Y273000D01*
X222063Y274121D01*
X221915Y275234D01*
X221670Y276329D01*
X221330Y277399D01*
X220898Y278434D01*
X220375Y279428D01*
X220145Y279786D01*
Y332087D01*
X223449Y335390D01*
X223509Y335441D01*
X223713Y335681D01*
X223713Y335681D01*
X223878Y335949D01*
X223998Y336240D01*
X224071Y336546D01*
X224096Y336860D01*
X224090Y336938D01*
Y363582D01*
X224096Y363660D01*
X224071Y363974D01*
X224071Y363974D01*
X223998Y364280D01*
X223878Y364571D01*
X223713Y364839D01*
X223509Y365079D01*
X223449Y365130D01*
X220145Y368433D01*
Y406000D01*
G37*
G36*
Y251581D02*X219144Y251805D01*
X218031Y251953D01*
X216916Y252002D01*
Y262732D01*
X217608Y263270D01*
X217666Y263326D01*
X217713Y263391D01*
X217750Y263463D01*
X217775Y263539D01*
X217788Y263619D01*
X217788Y263699D01*
X217776Y263779D01*
X217751Y263855D01*
X217715Y263927D01*
X217668Y263992D01*
X217611Y264049D01*
X217546Y264097D01*
X217475Y264134D01*
X217398Y264159D01*
X217319Y264172D01*
X217238Y264172D01*
X217159Y264160D01*
X217082Y264135D01*
X217010Y264099D01*
X216946Y264050D01*
X216916Y264026D01*
Y281988D01*
X216953Y281958D01*
X217016Y281911D01*
X217086Y281876D01*
X217161Y281852D01*
X217239Y281839D01*
X217318Y281840D01*
X217395Y281852D01*
X217470Y281877D01*
X217540Y281913D01*
X217604Y281959D01*
X217659Y282015D01*
X217705Y282079D01*
X217741Y282149D01*
X217765Y282224D01*
X217777Y282302D01*
X217777Y282380D01*
X217764Y282458D01*
X217740Y282533D01*
X217704Y282603D01*
X217657Y282666D01*
X217600Y282721D01*
X216916Y283264D01*
Y330760D01*
X217912D01*
X217990Y330754D01*
X218304Y330779D01*
X218304Y330779D01*
X218610Y330852D01*
X218901Y330972D01*
X219169Y331137D01*
X219409Y331341D01*
X219460Y331401D01*
X220145Y332087D01*
Y279786D01*
X219768Y280372D01*
X219080Y281258D01*
X219024Y281316D01*
X218959Y281363D01*
X218887Y281400D01*
X218811Y281425D01*
X218731Y281438D01*
X218651Y281438D01*
X218571Y281426D01*
X218495Y281401D01*
X218423Y281365D01*
X218358Y281318D01*
X218301Y281261D01*
X218253Y281196D01*
X218216Y281125D01*
X218191Y281048D01*
X218178Y280969D01*
X218178Y280888D01*
X218190Y280809D01*
X218215Y280732D01*
X218251Y280660D01*
X218300Y280596D01*
X218942Y279787D01*
X219501Y278918D01*
X219982Y278003D01*
X220145Y277612D01*
Y268388D01*
X219982Y267997D01*
X219501Y267082D01*
X218942Y266213D01*
X218308Y265397D01*
X218261Y265334D01*
X218226Y265264D01*
X218202Y265189D01*
X218189Y265111D01*
X218190Y265032D01*
X218202Y264955D01*
X218227Y264880D01*
X218263Y264810D01*
X218309Y264746D01*
X218365Y264691D01*
X218429Y264645D01*
X218499Y264609D01*
X218574Y264585D01*
X218652Y264573D01*
X218730Y264573D01*
X218808Y264586D01*
X218883Y264610D01*
X218953Y264646D01*
X219016Y264693D01*
X219071Y264750D01*
X219768Y265628D01*
X220145Y266214D01*
Y251581D01*
G37*
G36*
Y227951D02*X219975Y227897D01*
X218967Y227671D01*
X217942Y227535D01*
X216916Y227490D01*
Y250990D01*
X217942Y250945D01*
X218967Y250809D01*
X219975Y250583D01*
X220145Y250529D01*
Y227951D01*
G37*
G36*
Y193860D02*X216916D01*
Y226478D01*
X218031Y226527D01*
X219144Y226675D01*
X220145Y226899D01*
Y193860D01*
G37*
G36*
X216916Y406000D02*X220145D01*
Y368433D01*
X219460Y369119D01*
X219409Y369179D01*
X219169Y369383D01*
X219169Y369383D01*
X218901Y369548D01*
X218610Y369668D01*
X218304Y369741D01*
X217990Y369766D01*
X217912Y369760D01*
X216916D01*
Y406000D01*
G37*
G36*
X206115Y156007D02*X206620Y155501D01*
X206671Y155441D01*
X206911Y155237D01*
X206911Y155237D01*
X207179Y155072D01*
X207385Y154987D01*
X207470Y154952D01*
X207632Y154913D01*
X207776Y154879D01*
X208090Y154854D01*
X208168Y154860D01*
X216916D01*
Y122000D01*
X206115D01*
Y156007D01*
G37*
G36*
Y260659D02*X207116Y260435D01*
X208229Y260287D01*
X209350Y260238D01*
X210471Y260287D01*
X211584Y260435D01*
X212679Y260680D01*
X213749Y261020D01*
X214784Y261452D01*
X215778Y261975D01*
X216722Y262582D01*
X216916Y262732D01*
Y252002D01*
X216910Y252002D01*
X215789Y251953D01*
X214676Y251805D01*
X213581Y251560D01*
X212511Y251220D01*
X211476Y250788D01*
X210482Y250265D01*
X209538Y249658D01*
X208652Y248970D01*
X208594Y248914D01*
X208547Y248849D01*
X208510Y248777D01*
X208485Y248701D01*
X208472Y248621D01*
X208472Y248541D01*
X208484Y248461D01*
X208509Y248385D01*
X208545Y248313D01*
X208592Y248248D01*
X208649Y248191D01*
X208714Y248143D01*
X208785Y248106D01*
X208862Y248081D01*
X208941Y248068D01*
X209022Y248068D01*
X209101Y248080D01*
X209178Y248105D01*
X209250Y248141D01*
X209314Y248190D01*
X210123Y248832D01*
X210992Y249391D01*
X211907Y249872D01*
X212860Y250270D01*
X213845Y250583D01*
X214853Y250809D01*
X215878Y250945D01*
X216910Y250990D01*
X216916Y250990D01*
Y227490D01*
X216910Y227490D01*
X215878Y227535D01*
X214853Y227671D01*
X213845Y227897D01*
X212860Y228210D01*
X211907Y228608D01*
X210992Y229089D01*
X210123Y229648D01*
X209307Y230282D01*
X209244Y230329D01*
X209174Y230364D01*
X209099Y230389D01*
X209021Y230401D01*
X208942Y230400D01*
X208865Y230388D01*
X208790Y230363D01*
X208720Y230327D01*
X208656Y230281D01*
X208601Y230225D01*
X208555Y230161D01*
X208519Y230091D01*
X208495Y230016D01*
X208483Y229938D01*
X208483Y229860D01*
X208496Y229782D01*
X208520Y229707D01*
X208556Y229637D01*
X208603Y229574D01*
X208660Y229519D01*
X209538Y228822D01*
X210482Y228215D01*
X211476Y227692D01*
X212511Y227260D01*
X213581Y226920D01*
X214676Y226675D01*
X215789Y226527D01*
X216910Y226478D01*
X216916Y226478D01*
Y193860D01*
X209168D01*
X209090Y193866D01*
X208776Y193841D01*
X208470Y193768D01*
X208179Y193648D01*
X207911Y193483D01*
X207911Y193483D01*
X207671Y193279D01*
X207620Y193219D01*
X206115Y191713D01*
Y232454D01*
X206492Y231868D01*
X207180Y230982D01*
X207236Y230924D01*
X207301Y230877D01*
X207373Y230840D01*
X207449Y230815D01*
X207529Y230802D01*
X207609Y230802D01*
X207689Y230814D01*
X207765Y230839D01*
X207837Y230875D01*
X207902Y230922D01*
X207959Y230979D01*
X208007Y231044D01*
X208044Y231115D01*
X208069Y231192D01*
X208082Y231271D01*
X208082Y231352D01*
X208070Y231431D01*
X208045Y231508D01*
X208009Y231580D01*
X207960Y231644D01*
X207318Y232453D01*
X206759Y233322D01*
X206278Y234237D01*
X206115Y234628D01*
Y243852D01*
X206278Y244243D01*
X206759Y245158D01*
X207318Y246027D01*
X207952Y246843D01*
X207999Y246906D01*
X208034Y246976D01*
X208058Y247051D01*
X208071Y247129D01*
X208070Y247208D01*
X208058Y247285D01*
X208033Y247360D01*
X207997Y247430D01*
X207951Y247494D01*
X207895Y247549D01*
X207831Y247595D01*
X207761Y247631D01*
X207686Y247655D01*
X207608Y247667D01*
X207530Y247667D01*
X207452Y247654D01*
X207377Y247630D01*
X207307Y247594D01*
X207244Y247547D01*
X207189Y247490D01*
X206492Y246612D01*
X206115Y246026D01*
Y260659D01*
G37*
G36*
Y284289D02*X206285Y284343D01*
X207293Y284569D01*
X208318Y284705D01*
X209350Y284750D01*
X210382Y284705D01*
X211407Y284569D01*
X212415Y284343D01*
X213400Y284030D01*
X214353Y283632D01*
X215268Y283151D01*
X216137Y282592D01*
X216916Y281988D01*
Y264026D01*
X216137Y263408D01*
X215268Y262849D01*
X214353Y262368D01*
X213400Y261970D01*
X212415Y261657D01*
X211407Y261431D01*
X210382Y261295D01*
X209350Y261250D01*
X208318Y261295D01*
X207293Y261431D01*
X206285Y261657D01*
X206115Y261711D01*
Y284289D01*
G37*
G36*
Y330760D02*X216916D01*
Y283264D01*
X216722Y283418D01*
X215778Y284025D01*
X214784Y284548D01*
X213749Y284980D01*
X212679Y285320D01*
X211584Y285565D01*
X210471Y285713D01*
X209350Y285762D01*
X208229Y285713D01*
X207116Y285565D01*
X206115Y285341D01*
Y330760D01*
G37*
G36*
Y406000D02*X216916D01*
Y369760D01*
X206115D01*
Y406000D01*
G37*
G36*
Y234628D02*X205880Y235190D01*
X205567Y236175D01*
X205341Y237183D01*
X205205Y238208D01*
X205160Y239240D01*
X205205Y240272D01*
X205341Y241297D01*
X205567Y242305D01*
X205880Y243290D01*
X206115Y243852D01*
Y234628D01*
G37*
G36*
X198791Y312561D02*X199149Y311718D01*
X199519Y310571D01*
X199786Y309397D01*
X199946Y308203D01*
X200000Y307000D01*
X199946Y305797D01*
X199786Y304603D01*
X199519Y303429D01*
X199149Y302282D01*
X198791Y301439D01*
Y312561D01*
G37*
G36*
Y330760D02*X206115D01*
Y285341D01*
X206021Y285320D01*
X204951Y284980D01*
X203916Y284548D01*
X202922Y284025D01*
X201978Y283418D01*
X201092Y282730D01*
X201034Y282674D01*
X200987Y282609D01*
X200950Y282537D01*
X200925Y282461D01*
X200912Y282381D01*
X200912Y282301D01*
X200924Y282221D01*
X200949Y282145D01*
X200985Y282073D01*
X201032Y282008D01*
X201089Y281951D01*
X201154Y281903D01*
X201225Y281866D01*
X201302Y281841D01*
X201381Y281828D01*
X201462Y281828D01*
X201541Y281840D01*
X201618Y281865D01*
X201690Y281901D01*
X201754Y281950D01*
X202563Y282592D01*
X203432Y283151D01*
X204347Y283632D01*
X205300Y284030D01*
X206115Y284289D01*
Y261711D01*
X205300Y261970D01*
X204347Y262368D01*
X203432Y262849D01*
X202563Y263408D01*
X201747Y264042D01*
X201684Y264089D01*
X201614Y264124D01*
X201539Y264148D01*
X201461Y264161D01*
X201382Y264160D01*
X201305Y264148D01*
X201230Y264123D01*
X201160Y264087D01*
X201096Y264041D01*
X201041Y263985D01*
X200995Y263921D01*
X200959Y263851D01*
X200935Y263776D01*
X200923Y263698D01*
X200923Y263620D01*
X200936Y263542D01*
X200960Y263467D01*
X200996Y263397D01*
X201043Y263334D01*
X201100Y263279D01*
X201978Y262582D01*
X202922Y261975D01*
X203916Y261452D01*
X204951Y261020D01*
X206021Y260680D01*
X206115Y260659D01*
Y246026D01*
X205885Y245668D01*
X205362Y244674D01*
X204930Y243639D01*
X204590Y242569D01*
X204345Y241474D01*
X204197Y240361D01*
X204148Y239240D01*
X204197Y238119D01*
X204345Y237006D01*
X204590Y235911D01*
X204930Y234841D01*
X205362Y233806D01*
X205885Y232812D01*
X206115Y232454D01*
Y191713D01*
X202631Y188230D01*
X202571Y188179D01*
X202367Y187939D01*
X202202Y187671D01*
X202082Y187380D01*
X202009Y187074D01*
X202009Y187074D01*
Y187074D01*
X201984Y186760D01*
X201990Y186682D01*
Y161038D01*
X201984Y160960D01*
X202009Y160646D01*
X202043Y160502D01*
X202082Y160340D01*
X202117Y160255D01*
X202202Y160049D01*
X202367Y159781D01*
X202367Y159781D01*
X202571Y159541D01*
X202631Y159490D01*
X206115Y156007D01*
Y122000D01*
X198791D01*
Y195852D01*
X198895Y195942D01*
X198998Y196061D01*
X199080Y196196D01*
X199140Y196341D01*
X199177Y196494D01*
X199186Y196651D01*
X199177Y237753D01*
X199140Y237906D01*
X199080Y238051D01*
X198998Y238186D01*
X198895Y238305D01*
X198791Y238395D01*
Y265848D01*
X198932Y265628D01*
X199620Y264742D01*
X199676Y264684D01*
X199741Y264637D01*
X199813Y264600D01*
X199889Y264575D01*
X199969Y264562D01*
X200049Y264562D01*
X200129Y264574D01*
X200205Y264599D01*
X200277Y264635D01*
X200342Y264682D01*
X200399Y264739D01*
X200447Y264804D01*
X200484Y264875D01*
X200509Y264952D01*
X200522Y265031D01*
X200522Y265112D01*
X200510Y265191D01*
X200485Y265268D01*
X200449Y265340D01*
X200400Y265404D01*
X199758Y266213D01*
X199199Y267082D01*
X198791Y267859D01*
Y278141D01*
X199199Y278918D01*
X199758Y279787D01*
X200392Y280603D01*
X200439Y280666D01*
X200474Y280736D01*
X200498Y280811D01*
X200511Y280889D01*
X200510Y280968D01*
X200498Y281045D01*
X200473Y281120D01*
X200437Y281190D01*
X200391Y281254D01*
X200335Y281309D01*
X200271Y281355D01*
X200201Y281391D01*
X200126Y281415D01*
X200048Y281427D01*
X199970Y281427D01*
X199892Y281414D01*
X199817Y281390D01*
X199747Y281354D01*
X199684Y281307D01*
X199629Y281250D01*
X198932Y280372D01*
X198791Y280152D01*
Y299301D01*
X198983Y299594D01*
X199593Y300736D01*
X200099Y301928D01*
X200497Y303160D01*
X200784Y304423D01*
X200957Y305706D01*
X201014Y307000D01*
X200957Y308294D01*
X200784Y309577D01*
X200497Y310840D01*
X200099Y312072D01*
X199593Y313264D01*
X198983Y314406D01*
X198791Y314699D01*
Y330760D01*
G37*
G36*
Y267859D02*X198718Y267997D01*
X198320Y268950D01*
X198007Y269935D01*
X197781Y270943D01*
X197645Y271968D01*
X197600Y273000D01*
X197645Y274032D01*
X197781Y275057D01*
X198007Y276065D01*
X198320Y277050D01*
X198718Y278003D01*
X198791Y278141D01*
Y267859D01*
G37*
G36*
Y122000D02*X186507D01*
Y195657D01*
X198343Y195660D01*
X198496Y195697D01*
X198641Y195757D01*
X198776Y195839D01*
X198791Y195852D01*
Y122000D01*
G37*
G36*
X186507Y330760D02*X198791D01*
Y314699D01*
X198273Y315489D01*
X197470Y316505D01*
X197412Y316562D01*
X197347Y316609D01*
X197274Y316645D01*
X197197Y316669D01*
X197118Y316681D01*
X197037Y316681D01*
X196957Y316668D01*
X196880Y316642D01*
X196809Y316605D01*
X196744Y316557D01*
X196687Y316499D01*
X196640Y316434D01*
X196604Y316361D01*
X196579Y316284D01*
X196567Y316205D01*
X196568Y316124D01*
X196581Y316044D01*
X196606Y315967D01*
X196644Y315896D01*
X196693Y315832D01*
X197450Y314896D01*
X198110Y313888D01*
X198678Y312826D01*
X198791Y312561D01*
Y301439D01*
X198678Y301174D01*
X198110Y300112D01*
X197450Y299104D01*
X196703Y298160D01*
X196655Y298097D01*
X196619Y298027D01*
X196594Y297953D01*
X196581Y297875D01*
X196581Y297796D01*
X196592Y297719D01*
X196616Y297644D01*
X196651Y297573D01*
X196697Y297509D01*
X196752Y297453D01*
X196816Y297407D01*
X196886Y297370D01*
X196960Y297345D01*
X197038Y297333D01*
X197117Y297332D01*
X197194Y297344D01*
X197269Y297368D01*
X197340Y297403D01*
X197404Y297449D01*
X197459Y297505D01*
X198273Y298511D01*
X198791Y299301D01*
Y280152D01*
X198325Y279428D01*
X197802Y278434D01*
X197370Y277399D01*
X197030Y276329D01*
X196785Y275234D01*
X196637Y274121D01*
X196588Y273000D01*
X196637Y271879D01*
X196785Y270766D01*
X197030Y269671D01*
X197370Y268601D01*
X197802Y267566D01*
X198325Y266572D01*
X198791Y265848D01*
Y238395D01*
X198776Y238408D01*
X198641Y238490D01*
X198496Y238550D01*
X198343Y238587D01*
X198186Y238596D01*
X186507Y238593D01*
Y292486D01*
X187794Y292543D01*
X189077Y292716D01*
X190340Y293003D01*
X191572Y293401D01*
X192764Y293907D01*
X193906Y294517D01*
X194989Y295227D01*
X196005Y296030D01*
X196062Y296088D01*
X196109Y296153D01*
X196145Y296226D01*
X196169Y296303D01*
X196181Y296382D01*
X196181Y296463D01*
X196168Y296543D01*
X196142Y296620D01*
X196105Y296691D01*
X196057Y296756D01*
X195999Y296813D01*
X195934Y296860D01*
X195861Y296896D01*
X195784Y296921D01*
X195704Y296933D01*
X195624Y296932D01*
X195544Y296919D01*
X195467Y296894D01*
X195396Y296856D01*
X195332Y296807D01*
X194396Y296050D01*
X193388Y295390D01*
X192326Y294822D01*
X191218Y294351D01*
X190071Y293981D01*
X188897Y293714D01*
X187703Y293554D01*
X186507Y293500D01*
Y320500D01*
X187703Y320446D01*
X188897Y320286D01*
X190071Y320019D01*
X191218Y319649D01*
X192326Y319178D01*
X193388Y318610D01*
X194396Y317950D01*
X195340Y317203D01*
X195403Y317155D01*
X195473Y317119D01*
X195547Y317094D01*
X195625Y317081D01*
X195704Y317081D01*
X195781Y317092D01*
X195856Y317116D01*
X195927Y317151D01*
X195991Y317197D01*
X196047Y317252D01*
X196093Y317316D01*
X196130Y317386D01*
X196155Y317460D01*
X196167Y317538D01*
X196168Y317617D01*
X196156Y317694D01*
X196132Y317769D01*
X196097Y317840D01*
X196051Y317904D01*
X195995Y317959D01*
X194989Y318773D01*
X193906Y319483D01*
X192764Y320093D01*
X191572Y320599D01*
X190340Y320997D01*
X189077Y321284D01*
X187794Y321457D01*
X186507Y321514D01*
Y330760D01*
G37*
G36*
Y406000D02*X206115D01*
Y369760D01*
X186507D01*
Y406000D01*
G37*
G36*
X174209Y278521D02*X174482Y278003D01*
X174880Y277050D01*
X175193Y276065D01*
X175419Y275057D01*
X175555Y274032D01*
X175600Y273000D01*
X175555Y271968D01*
X175419Y270943D01*
X175193Y269935D01*
X174880Y268950D01*
X174482Y267997D01*
X174209Y267479D01*
Y278521D01*
G37*
G36*
Y195654D02*X186507Y195657D01*
Y122000D01*
X174209D01*
Y195654D01*
G37*
G36*
Y330760D02*X186507D01*
Y321514D01*
X186500Y321514D01*
X185206Y321457D01*
X183923Y321284D01*
X182660Y320997D01*
X181428Y320599D01*
X180236Y320093D01*
X179094Y319483D01*
X178011Y318773D01*
X176995Y317970D01*
X176938Y317912D01*
X176891Y317847D01*
X176855Y317774D01*
X176831Y317697D01*
X176819Y317618D01*
X176819Y317537D01*
X176832Y317457D01*
X176858Y317380D01*
X176895Y317309D01*
X176943Y317244D01*
X177001Y317187D01*
X177066Y317140D01*
X177139Y317104D01*
X177216Y317079D01*
X177295Y317067D01*
X177376Y317068D01*
X177456Y317081D01*
X177533Y317106D01*
X177604Y317144D01*
X177668Y317193D01*
X178604Y317950D01*
X179612Y318610D01*
X180674Y319178D01*
X181782Y319649D01*
X182929Y320019D01*
X184103Y320286D01*
X185297Y320446D01*
X186500Y320500D01*
X186507Y320500D01*
Y293500D01*
X186500Y293500D01*
X185297Y293554D01*
X184103Y293714D01*
X182929Y293981D01*
X181782Y294351D01*
X180674Y294822D01*
X179612Y295390D01*
X178604Y296050D01*
X177660Y296797D01*
X177597Y296845D01*
X177527Y296881D01*
X177453Y296906D01*
X177375Y296919D01*
X177296Y296919D01*
X177219Y296908D01*
X177144Y296884D01*
X177073Y296849D01*
X177009Y296803D01*
X176953Y296748D01*
X176907Y296684D01*
X176870Y296614D01*
X176845Y296540D01*
X176833Y296462D01*
X176832Y296383D01*
X176844Y296306D01*
X176868Y296231D01*
X176903Y296160D01*
X176949Y296096D01*
X177005Y296041D01*
X178011Y295227D01*
X179094Y294517D01*
X180236Y293907D01*
X181428Y293401D01*
X182660Y293003D01*
X183923Y292716D01*
X185206Y292543D01*
X186500Y292486D01*
X186507Y292486D01*
Y238593D01*
X174209Y238589D01*
Y265554D01*
X174268Y265628D01*
X174875Y266572D01*
X175398Y267566D01*
X175830Y268601D01*
X176170Y269671D01*
X176415Y270766D01*
X176563Y271879D01*
X176612Y273000D01*
X176563Y274121D01*
X176415Y275234D01*
X176170Y276329D01*
X175830Y277399D01*
X175398Y278434D01*
X174875Y279428D01*
X174268Y280372D01*
X174209Y280447D01*
Y299301D01*
X174727Y298511D01*
X175530Y297495D01*
X175588Y297438D01*
X175653Y297391D01*
X175726Y297355D01*
X175803Y297331D01*
X175882Y297319D01*
X175963Y297319D01*
X176043Y297332D01*
X176120Y297358D01*
X176191Y297395D01*
X176256Y297443D01*
X176313Y297501D01*
X176360Y297566D01*
X176396Y297639D01*
X176421Y297716D01*
X176433Y297796D01*
X176432Y297876D01*
X176419Y297956D01*
X176394Y298033D01*
X176356Y298104D01*
X176307Y298168D01*
X175550Y299104D01*
X174890Y300112D01*
X174322Y301174D01*
X174209Y301439D01*
Y312561D01*
X174322Y312826D01*
X174890Y313888D01*
X175550Y314896D01*
X176297Y315840D01*
X176345Y315903D01*
X176381Y315973D01*
X176406Y316047D01*
X176419Y316125D01*
X176419Y316204D01*
X176408Y316281D01*
X176384Y316356D01*
X176349Y316427D01*
X176303Y316491D01*
X176248Y316547D01*
X176184Y316593D01*
X176114Y316630D01*
X176040Y316655D01*
X175962Y316667D01*
X175883Y316668D01*
X175806Y316656D01*
X175731Y316632D01*
X175660Y316597D01*
X175596Y316551D01*
X175541Y316495D01*
X174727Y315489D01*
X174209Y314699D01*
Y330760D01*
G37*
G36*
Y406000D02*X186507D01*
Y369760D01*
X174209D01*
Y406000D01*
G37*
G36*
Y301439D02*X173851Y302282D01*
X173481Y303429D01*
X173214Y304603D01*
X173054Y305797D01*
X173000Y307000D01*
X173054Y308203D01*
X173214Y309397D01*
X173481Y310571D01*
X173851Y311718D01*
X174209Y312561D01*
Y301439D01*
G37*
G36*
X71036Y393319D02*X71324Y392636D01*
X71661Y391582D01*
X71904Y390502D01*
X72051Y389406D01*
X72100Y388300D01*
X72051Y387194D01*
X71904Y386098D01*
X71661Y385018D01*
X71324Y383964D01*
X71036Y383281D01*
Y393319D01*
G37*
G36*
X163856Y330760D02*X174209D01*
Y314699D01*
X174017Y314406D01*
X173407Y313264D01*
X172901Y312072D01*
X172503Y310840D01*
X172216Y309577D01*
X172043Y308294D01*
X171986Y307000D01*
X172043Y305706D01*
X172216Y304423D01*
X172503Y303160D01*
X172901Y301928D01*
X173407Y300736D01*
X174017Y299594D01*
X174209Y299301D01*
Y280447D01*
X173580Y281258D01*
X173524Y281316D01*
X173459Y281363D01*
X173387Y281400D01*
X173311Y281425D01*
X173231Y281438D01*
X173151Y281438D01*
X173071Y281426D01*
X172995Y281401D01*
X172923Y281365D01*
X172858Y281318D01*
X172801Y281261D01*
X172753Y281196D01*
X172716Y281125D01*
X172691Y281048D01*
X172678Y280969D01*
X172678Y280888D01*
X172690Y280809D01*
X172715Y280732D01*
X172751Y280660D01*
X172800Y280596D01*
X173442Y279787D01*
X174001Y278918D01*
X174209Y278521D01*
Y267479D01*
X174001Y267082D01*
X173442Y266213D01*
X172808Y265397D01*
X172761Y265334D01*
X172726Y265264D01*
X172702Y265189D01*
X172689Y265111D01*
X172690Y265032D01*
X172702Y264955D01*
X172727Y264880D01*
X172763Y264810D01*
X172809Y264746D01*
X172865Y264691D01*
X172929Y264645D01*
X172999Y264609D01*
X173074Y264585D01*
X173152Y264573D01*
X173230Y264573D01*
X173308Y264586D01*
X173383Y264610D01*
X173453Y264646D01*
X173516Y264693D01*
X173571Y264750D01*
X174209Y265554D01*
Y238589D01*
X164959Y238587D01*
X164806Y238550D01*
X164661Y238490D01*
X164526Y238408D01*
X164407Y238305D01*
X164304Y238186D01*
X164222Y238051D01*
X164162Y237906D01*
X164125Y237753D01*
X164116Y237596D01*
X164125Y196494D01*
X164162Y196341D01*
X164222Y196196D01*
X164304Y196061D01*
X164407Y195942D01*
X164526Y195839D01*
X164661Y195757D01*
X164806Y195697D01*
X164959Y195660D01*
X165116Y195651D01*
X174209Y195654D01*
Y122000D01*
X163856D01*
Y260238D01*
X164971Y260287D01*
X166084Y260435D01*
X167179Y260680D01*
X168249Y261020D01*
X169284Y261452D01*
X170278Y261975D01*
X171222Y262582D01*
X172108Y263270D01*
X172166Y263326D01*
X172213Y263391D01*
X172250Y263463D01*
X172275Y263539D01*
X172288Y263619D01*
X172288Y263699D01*
X172276Y263779D01*
X172251Y263855D01*
X172215Y263927D01*
X172168Y263992D01*
X172111Y264049D01*
X172046Y264097D01*
X171975Y264134D01*
X171898Y264159D01*
X171819Y264172D01*
X171738Y264172D01*
X171659Y264160D01*
X171582Y264135D01*
X171510Y264099D01*
X171446Y264050D01*
X170637Y263408D01*
X169768Y262849D01*
X168853Y262368D01*
X167900Y261970D01*
X166915Y261657D01*
X165907Y261431D01*
X164882Y261295D01*
X163856Y261250D01*
Y284750D01*
X164882Y284705D01*
X165907Y284569D01*
X166915Y284343D01*
X167900Y284030D01*
X168853Y283632D01*
X169768Y283151D01*
X170637Y282592D01*
X171453Y281958D01*
X171516Y281911D01*
X171586Y281876D01*
X171661Y281852D01*
X171739Y281839D01*
X171818Y281840D01*
X171895Y281852D01*
X171970Y281877D01*
X172040Y281913D01*
X172104Y281959D01*
X172159Y282015D01*
X172205Y282079D01*
X172241Y282149D01*
X172265Y282224D01*
X172277Y282302D01*
X172277Y282380D01*
X172264Y282458D01*
X172240Y282533D01*
X172204Y282603D01*
X172157Y282666D01*
X172100Y282721D01*
X171222Y283418D01*
X170278Y284025D01*
X169284Y284548D01*
X168249Y284980D01*
X167179Y285320D01*
X166084Y285565D01*
X164971Y285713D01*
X163856Y285762D01*
Y330760D01*
G37*
G36*
Y406000D02*X174209D01*
Y369760D01*
X163856D01*
Y406000D01*
G37*
G36*
X153055Y332067D02*X153720Y331401D01*
X153771Y331341D01*
X154011Y331137D01*
X154011Y331137D01*
X154279Y330972D01*
X154485Y330887D01*
X154570Y330852D01*
X154644Y330834D01*
X154876Y330779D01*
X155190Y330754D01*
X155268Y330760D01*
X163856D01*
Y285762D01*
X163850Y285762D01*
X162729Y285713D01*
X161616Y285565D01*
X160521Y285320D01*
X159451Y284980D01*
X158416Y284548D01*
X157422Y284025D01*
X156478Y283418D01*
X155592Y282730D01*
X155534Y282674D01*
X155487Y282609D01*
X155450Y282537D01*
X155425Y282461D01*
X155412Y282381D01*
X155412Y282301D01*
X155424Y282221D01*
X155449Y282145D01*
X155485Y282073D01*
X155532Y282008D01*
X155589Y281951D01*
X155654Y281903D01*
X155725Y281866D01*
X155802Y281841D01*
X155881Y281828D01*
X155962Y281828D01*
X156041Y281840D01*
X156118Y281865D01*
X156190Y281901D01*
X156254Y281950D01*
X157063Y282592D01*
X157932Y283151D01*
X158847Y283632D01*
X159800Y284030D01*
X160785Y284343D01*
X161793Y284569D01*
X162818Y284705D01*
X163850Y284750D01*
X163856Y284750D01*
Y261250D01*
X163850Y261250D01*
X162818Y261295D01*
X161793Y261431D01*
X160785Y261657D01*
X159800Y261970D01*
X158847Y262368D01*
X157932Y262849D01*
X157063Y263408D01*
X156247Y264042D01*
X156184Y264089D01*
X156114Y264124D01*
X156039Y264148D01*
X155961Y264161D01*
X155882Y264160D01*
X155805Y264148D01*
X155730Y264123D01*
X155660Y264087D01*
X155596Y264041D01*
X155541Y263985D01*
X155495Y263921D01*
X155459Y263851D01*
X155435Y263776D01*
X155423Y263698D01*
X155423Y263620D01*
X155436Y263542D01*
X155460Y263467D01*
X155496Y263397D01*
X155543Y263334D01*
X155600Y263279D01*
X156478Y262582D01*
X157422Y261975D01*
X158416Y261452D01*
X159451Y261020D01*
X160521Y260680D01*
X161616Y260435D01*
X162729Y260287D01*
X163850Y260238D01*
X163856Y260238D01*
Y122000D01*
X153055D01*
Y266214D01*
X153432Y265628D01*
X154120Y264742D01*
X154176Y264684D01*
X154241Y264637D01*
X154313Y264600D01*
X154389Y264575D01*
X154469Y264562D01*
X154549Y264562D01*
X154629Y264574D01*
X154705Y264599D01*
X154777Y264635D01*
X154842Y264682D01*
X154899Y264739D01*
X154947Y264804D01*
X154984Y264875D01*
X155009Y264952D01*
X155022Y265031D01*
X155022Y265112D01*
X155010Y265191D01*
X154985Y265268D01*
X154949Y265340D01*
X154900Y265404D01*
X154258Y266213D01*
X153699Y267082D01*
X153218Y267997D01*
X153055Y268388D01*
Y277612D01*
X153218Y278003D01*
X153699Y278918D01*
X154258Y279787D01*
X154892Y280603D01*
X154939Y280666D01*
X154974Y280736D01*
X154998Y280811D01*
X155011Y280889D01*
X155010Y280968D01*
X154998Y281045D01*
X154973Y281120D01*
X154937Y281190D01*
X154891Y281254D01*
X154835Y281309D01*
X154771Y281355D01*
X154701Y281391D01*
X154626Y281415D01*
X154548Y281427D01*
X154470Y281427D01*
X154392Y281414D01*
X154317Y281390D01*
X154247Y281354D01*
X154184Y281307D01*
X154129Y281250D01*
X153432Y280372D01*
X153055Y279786D01*
Y332067D01*
G37*
G36*
Y406000D02*X163856D01*
Y369760D01*
X156268D01*
X156190Y369766D01*
X155876Y369741D01*
X155570Y369668D01*
X155279Y369548D01*
X155011Y369383D01*
X155010Y369383D01*
X154771Y369179D01*
X154720Y369119D01*
X153055Y367453D01*
Y406000D01*
G37*
G36*
Y268388D02*X152820Y268950D01*
X152507Y269935D01*
X152281Y270943D01*
X152145Y271968D01*
X152100Y273000D01*
X152145Y274032D01*
X152281Y275057D01*
X152507Y276065D01*
X152820Y277050D01*
X153055Y277612D01*
Y268388D01*
G37*
G36*
X112151Y406000D02*X153055D01*
Y367453D01*
X149731Y364130D01*
X149671Y364079D01*
X149467Y363839D01*
X149302Y363571D01*
X149182Y363280D01*
X149109Y362974D01*
X149109Y362974D01*
X149084Y362660D01*
X149090Y362582D01*
Y336938D01*
X149084Y336860D01*
X149109Y336546D01*
X149164Y336314D01*
X149182Y336240D01*
X149217Y336155D01*
X149302Y335949D01*
X149467Y335681D01*
X149467Y335681D01*
X149671Y335441D01*
X149731Y335390D01*
X153055Y332067D01*
Y279786D01*
X152825Y279428D01*
X152302Y278434D01*
X151870Y277399D01*
X151530Y276329D01*
X151285Y275234D01*
X151137Y274121D01*
X151088Y273000D01*
X151137Y271879D01*
X151285Y270766D01*
X151530Y269671D01*
X151870Y268601D01*
X152302Y267566D01*
X152825Y266572D01*
X153055Y266214D01*
Y122000D01*
X117233D01*
X117288Y122089D01*
X117408Y122380D01*
X117481Y122686D01*
X117506Y123000D01*
X117500Y123078D01*
Y168422D01*
X117506Y168500D01*
X117481Y168814D01*
X117481Y168814D01*
X117408Y169120D01*
X117288Y169411D01*
X117123Y169679D01*
X116919Y169919D01*
X116679Y170123D01*
X116411Y170288D01*
X116120Y170408D01*
X115814Y170481D01*
X115500Y170506D01*
X115422Y170500D01*
X112151D01*
Y353156D01*
X128843Y353160D01*
X128996Y353197D01*
X129141Y353257D01*
X129276Y353339D01*
X129395Y353442D01*
X129498Y353561D01*
X129580Y353696D01*
X129640Y353841D01*
X129677Y353994D01*
X129686Y354151D01*
X129677Y395253D01*
X129640Y395406D01*
X129580Y395551D01*
X129498Y395686D01*
X129395Y395805D01*
X129276Y395908D01*
X129141Y395990D01*
X128996Y396050D01*
X128843Y396087D01*
X128686Y396096D01*
X112151Y396091D01*
Y406000D01*
G37*
G36*
X71036Y238300D02*X79422D01*
X79500Y238294D01*
X79814Y238319D01*
X80120Y238392D01*
X80411Y238512D01*
X80679Y238677D01*
X80919Y238881D01*
X81123Y239121D01*
X81288Y239389D01*
X81408Y239680D01*
X81481Y239986D01*
X81506Y240300D01*
X81500Y240378D01*
Y285722D01*
X81506Y285800D01*
X81481Y286114D01*
X81481Y286114D01*
X81408Y286420D01*
X81288Y286711D01*
X81123Y286979D01*
X80919Y287219D01*
X80679Y287423D01*
X80411Y287588D01*
X80120Y287708D01*
X79814Y287781D01*
X79500Y287806D01*
X79422Y287800D01*
X78078D01*
X80859Y290580D01*
X80919Y290631D01*
X81123Y290871D01*
X81123Y290871D01*
X81288Y291139D01*
X81408Y291430D01*
X81481Y291736D01*
X81506Y292050D01*
X81500Y292128D01*
Y358272D01*
X81506Y358350D01*
X81481Y358664D01*
X81481Y358664D01*
X81408Y358970D01*
X81288Y359261D01*
X81123Y359529D01*
X80919Y359769D01*
X80859Y359820D01*
X75370Y365309D01*
X75319Y365369D01*
X75079Y365573D01*
X74811Y365738D01*
X74520Y365858D01*
X74214Y365931D01*
X74214Y365931D01*
X73900Y365956D01*
X73822Y365950D01*
X71036D01*
Y381123D01*
X71250Y381453D01*
X71810Y382510D01*
X72274Y383613D01*
X72639Y384752D01*
X72902Y385919D01*
X73060Y387105D01*
X73113Y388300D01*
X73060Y389495D01*
X72902Y390681D01*
X72639Y391848D01*
X72274Y392987D01*
X71810Y394090D01*
X71250Y395147D01*
X71036Y395477D01*
Y406000D01*
X112151D01*
Y396091D01*
X95459Y396087D01*
X95306Y396050D01*
X95161Y395990D01*
X95026Y395908D01*
X94907Y395805D01*
X94804Y395686D01*
X94722Y395551D01*
X94662Y395406D01*
X94625Y395253D01*
X94616Y395096D01*
X94625Y353994D01*
X94662Y353841D01*
X94722Y353696D01*
X94804Y353561D01*
X94907Y353442D01*
X95026Y353339D01*
X95161Y353257D01*
X95306Y353197D01*
X95459Y353160D01*
X95616Y353151D01*
X112151Y353156D01*
Y170500D01*
X83578D01*
X83500Y170506D01*
X83186Y170481D01*
X82880Y170408D01*
X82589Y170288D01*
X82321Y170123D01*
X82081Y169919D01*
X81877Y169679D01*
X81712Y169411D01*
X81592Y169120D01*
X81519Y168814D01*
X81519Y168813D01*
X81500Y168578D01*
Y208922D01*
X81506Y209000D01*
X81481Y209314D01*
X81481Y209314D01*
X81408Y209620D01*
X81288Y209911D01*
X81123Y210179D01*
X80919Y210419D01*
X80679Y210623D01*
X80411Y210788D01*
X80120Y210908D01*
X79814Y210981D01*
X79500Y211006D01*
X79422Y211000D01*
X71036D01*
Y238300D01*
G37*
G36*
Y365950D02*X59606D01*
Y374787D01*
X60795Y374840D01*
X61981Y374998D01*
X63148Y375261D01*
X64287Y375626D01*
X65390Y376090D01*
X66447Y376650D01*
X67451Y377301D01*
X68393Y378039D01*
X68450Y378095D01*
X68497Y378161D01*
X68534Y378233D01*
X68559Y378309D01*
X68571Y378389D01*
X68571Y378470D01*
X68558Y378549D01*
X68533Y378626D01*
X68496Y378698D01*
X68449Y378763D01*
X68392Y378820D01*
X68327Y378867D01*
X68255Y378903D01*
X68178Y378928D01*
X68098Y378941D01*
X68018Y378941D01*
X67938Y378928D01*
X67861Y378903D01*
X67790Y378866D01*
X67725Y378817D01*
X66862Y378126D01*
X65934Y377523D01*
X64956Y377006D01*
X63936Y376576D01*
X62882Y376239D01*
X61802Y375996D01*
X60706Y375849D01*
X59606Y375800D01*
Y400800D01*
X60706Y400751D01*
X61802Y400604D01*
X62882Y400361D01*
X63936Y400024D01*
X64956Y399594D01*
X65934Y399077D01*
X66862Y398474D01*
X67733Y397792D01*
X67796Y397744D01*
X67866Y397709D01*
X67941Y397684D01*
X68019Y397672D01*
X68097Y397672D01*
X68175Y397684D01*
X68250Y397708D01*
X68320Y397744D01*
X68384Y397790D01*
X68440Y397845D01*
X68486Y397909D01*
X68522Y397979D01*
X68546Y398054D01*
X68559Y398131D01*
X68559Y398210D01*
X68547Y398288D01*
X68522Y398363D01*
X68487Y398433D01*
X68441Y398497D01*
X68384Y398551D01*
X67451Y399299D01*
X66447Y399950D01*
X65390Y400510D01*
X64287Y400974D01*
X63148Y401339D01*
X61981Y401602D01*
X60795Y401760D01*
X59606Y401813D01*
Y406000D01*
X71036D01*
Y395477D01*
X70599Y396151D01*
X69861Y397093D01*
X69805Y397150D01*
X69739Y397197D01*
X69667Y397234D01*
X69591Y397259D01*
X69511Y397271D01*
X69430Y397271D01*
X69351Y397258D01*
X69274Y397233D01*
X69202Y397196D01*
X69137Y397149D01*
X69080Y397092D01*
X69033Y397027D01*
X68997Y396955D01*
X68972Y396878D01*
X68959Y396798D01*
X68959Y396718D01*
X68972Y396638D01*
X68997Y396561D01*
X69034Y396490D01*
X69083Y396425D01*
X69774Y395562D01*
X70377Y394634D01*
X70894Y393656D01*
X71036Y393319D01*
Y383281D01*
X70894Y382944D01*
X70377Y381966D01*
X69774Y381038D01*
X69092Y380167D01*
X69044Y380104D01*
X69009Y380034D01*
X68984Y379959D01*
X68972Y379881D01*
X68972Y379803D01*
X68984Y379725D01*
X69008Y379650D01*
X69044Y379580D01*
X69090Y379516D01*
X69145Y379460D01*
X69209Y379414D01*
X69279Y379378D01*
X69354Y379354D01*
X69431Y379341D01*
X69510Y379341D01*
X69588Y379353D01*
X69663Y379378D01*
X69733Y379413D01*
X69797Y379459D01*
X69851Y379516D01*
X70599Y380449D01*
X71036Y381123D01*
Y365950D01*
G37*
G36*
X59606Y238300D02*X71036D01*
Y211000D01*
X59606D01*
Y238300D01*
G37*
G36*
X71036Y143319D02*X71324Y142636D01*
X71661Y141582D01*
X71904Y140502D01*
X72051Y139406D01*
X72100Y138300D01*
X72051Y137194D01*
X71904Y136098D01*
X71661Y135018D01*
X71324Y133964D01*
X71036Y133281D01*
Y143319D01*
G37*
G36*
Y161500D02*X79422D01*
X79500Y161494D01*
X79814Y161519D01*
X80120Y161592D01*
X80411Y161712D01*
X80679Y161877D01*
X80919Y162081D01*
X81123Y162321D01*
X81288Y162589D01*
X81408Y162880D01*
X81481Y163186D01*
X81500Y163422D01*
Y123078D01*
X81494Y123000D01*
X81519Y122686D01*
X81519Y122686D01*
X81592Y122380D01*
X81712Y122089D01*
X81767Y122000D01*
X71036D01*
Y131123D01*
X71250Y131453D01*
X71810Y132510D01*
X72274Y133613D01*
X72639Y134752D01*
X72902Y135919D01*
X73060Y137105D01*
X73113Y138300D01*
X73060Y139495D01*
X72902Y140681D01*
X72639Y141848D01*
X72274Y142987D01*
X71810Y144090D01*
X71250Y145147D01*
X71036Y145477D01*
Y161500D01*
G37*
G36*
X59606D02*X71036D01*
Y145477D01*
X70599Y146151D01*
X69861Y147093D01*
X69805Y147150D01*
X69739Y147197D01*
X69667Y147234D01*
X69591Y147259D01*
X69511Y147271D01*
X69430Y147271D01*
X69351Y147258D01*
X69274Y147233D01*
X69202Y147196D01*
X69137Y147149D01*
X69080Y147092D01*
X69033Y147027D01*
X68997Y146955D01*
X68972Y146878D01*
X68959Y146798D01*
X68959Y146718D01*
X68972Y146638D01*
X68997Y146561D01*
X69034Y146490D01*
X69083Y146425D01*
X69774Y145562D01*
X70377Y144634D01*
X70894Y143656D01*
X71036Y143319D01*
Y133281D01*
X70894Y132944D01*
X70377Y131966D01*
X69774Y131038D01*
X69092Y130167D01*
X69044Y130104D01*
X69009Y130034D01*
X68984Y129959D01*
X68972Y129881D01*
X68972Y129803D01*
X68984Y129725D01*
X69008Y129650D01*
X69044Y129580D01*
X69090Y129516D01*
X69145Y129460D01*
X69209Y129414D01*
X69279Y129378D01*
X69354Y129354D01*
X69431Y129341D01*
X69510Y129341D01*
X69588Y129353D01*
X69663Y129378D01*
X69733Y129413D01*
X69797Y129459D01*
X69851Y129516D01*
X70599Y130449D01*
X71036Y131123D01*
Y122000D01*
X59606D01*
Y124787D01*
X60795Y124840D01*
X61981Y124998D01*
X63148Y125261D01*
X64287Y125626D01*
X65390Y126090D01*
X66447Y126650D01*
X67451Y127301D01*
X68393Y128039D01*
X68450Y128095D01*
X68497Y128161D01*
X68534Y128233D01*
X68559Y128309D01*
X68571Y128389D01*
X68571Y128470D01*
X68558Y128549D01*
X68533Y128626D01*
X68496Y128698D01*
X68449Y128763D01*
X68392Y128820D01*
X68327Y128867D01*
X68255Y128903D01*
X68178Y128928D01*
X68098Y128941D01*
X68018Y128941D01*
X67938Y128928D01*
X67861Y128903D01*
X67790Y128866D01*
X67725Y128817D01*
X66862Y128126D01*
X65934Y127523D01*
X64956Y127006D01*
X63936Y126576D01*
X62882Y126239D01*
X61802Y125996D01*
X60706Y125849D01*
X59606Y125800D01*
Y150800D01*
X60706Y150751D01*
X61802Y150604D01*
X62882Y150361D01*
X63936Y150024D01*
X64956Y149594D01*
X65934Y149077D01*
X66862Y148474D01*
X67733Y147792D01*
X67796Y147744D01*
X67866Y147709D01*
X67941Y147684D01*
X68019Y147672D01*
X68097Y147672D01*
X68175Y147684D01*
X68250Y147708D01*
X68320Y147744D01*
X68384Y147790D01*
X68440Y147845D01*
X68486Y147909D01*
X68522Y147979D01*
X68546Y148054D01*
X68559Y148131D01*
X68559Y148210D01*
X68547Y148288D01*
X68522Y148363D01*
X68487Y148433D01*
X68441Y148497D01*
X68384Y148551D01*
X67451Y149299D01*
X66447Y149950D01*
X65390Y150510D01*
X64287Y150974D01*
X63148Y151339D01*
X61981Y151602D01*
X60795Y151760D01*
X59606Y151813D01*
Y161500D01*
G37*
G36*
Y365950D02*X48164D01*
Y381123D01*
X48601Y380449D01*
X49339Y379507D01*
X49395Y379450D01*
X49461Y379403D01*
X49533Y379366D01*
X49609Y379341D01*
X49689Y379329D01*
X49770Y379329D01*
X49849Y379342D01*
X49926Y379367D01*
X49998Y379404D01*
X50063Y379451D01*
X50120Y379508D01*
X50167Y379573D01*
X50203Y379645D01*
X50228Y379722D01*
X50241Y379802D01*
X50241Y379882D01*
X50228Y379962D01*
X50203Y380039D01*
X50166Y380110D01*
X50117Y380175D01*
X49426Y381038D01*
X48823Y381966D01*
X48306Y382944D01*
X48164Y383281D01*
Y393319D01*
X48306Y393656D01*
X48823Y394634D01*
X49426Y395562D01*
X50108Y396433D01*
X50156Y396496D01*
X50191Y396566D01*
X50216Y396641D01*
X50228Y396719D01*
X50228Y396797D01*
X50216Y396875D01*
X50192Y396950D01*
X50156Y397020D01*
X50110Y397084D01*
X50055Y397140D01*
X49991Y397186D01*
X49921Y397222D01*
X49846Y397246D01*
X49769Y397259D01*
X49690Y397259D01*
X49612Y397247D01*
X49537Y397222D01*
X49467Y397187D01*
X49403Y397141D01*
X49349Y397084D01*
X48601Y396151D01*
X48164Y395477D01*
Y406000D01*
X59606D01*
Y401813D01*
X59600Y401813D01*
X58405Y401760D01*
X57219Y401602D01*
X56052Y401339D01*
X54913Y400974D01*
X53810Y400510D01*
X52753Y399950D01*
X51749Y399299D01*
X50807Y398561D01*
X50750Y398505D01*
X50703Y398439D01*
X50666Y398367D01*
X50641Y398291D01*
X50629Y398211D01*
X50629Y398130D01*
X50642Y398051D01*
X50667Y397974D01*
X50704Y397902D01*
X50751Y397837D01*
X50808Y397780D01*
X50873Y397733D01*
X50945Y397697D01*
X51022Y397672D01*
X51102Y397659D01*
X51182Y397659D01*
X51262Y397672D01*
X51339Y397697D01*
X51410Y397734D01*
X51475Y397783D01*
X52338Y398474D01*
X53266Y399077D01*
X54244Y399594D01*
X55264Y400024D01*
X56318Y400361D01*
X57398Y400604D01*
X58494Y400751D01*
X59600Y400800D01*
X59606Y400800D01*
Y375800D01*
X59600Y375800D01*
X58494Y375849D01*
X57398Y375996D01*
X56318Y376239D01*
X55264Y376576D01*
X54244Y377006D01*
X53266Y377523D01*
X52338Y378126D01*
X51467Y378808D01*
X51404Y378856D01*
X51334Y378891D01*
X51259Y378916D01*
X51181Y378928D01*
X51103Y378928D01*
X51025Y378916D01*
X50950Y378892D01*
X50880Y378856D01*
X50816Y378810D01*
X50760Y378755D01*
X50714Y378691D01*
X50678Y378621D01*
X50654Y378546D01*
X50641Y378469D01*
X50641Y378390D01*
X50653Y378312D01*
X50678Y378237D01*
X50713Y378167D01*
X50759Y378103D01*
X50816Y378049D01*
X51749Y377301D01*
X52753Y376650D01*
X53810Y376090D01*
X54913Y375626D01*
X56052Y375261D01*
X57219Y374998D01*
X58405Y374840D01*
X59600Y374787D01*
X59606Y374787D01*
Y365950D01*
G37*
G36*
X48164Y383281D02*X47876Y383964D01*
X47539Y385018D01*
X47296Y386098D01*
X47149Y387194D01*
X47100Y388300D01*
X47149Y389406D01*
X47296Y390502D01*
X47539Y391582D01*
X47876Y392636D01*
X48164Y393319D01*
Y383281D01*
G37*
G36*
Y365950D02*X41500D01*
X41186Y365931D01*
X40880Y365858D01*
X40589Y365738D01*
X40500Y365683D01*
Y406000D01*
X48164D01*
Y395477D01*
X47950Y395147D01*
X47390Y394090D01*
X46926Y392987D01*
X46561Y391848D01*
X46298Y390681D01*
X46140Y389495D01*
X46087Y388300D01*
X46140Y387105D01*
X46298Y385919D01*
X46561Y384752D01*
X46926Y383613D01*
X47390Y382510D01*
X47950Y381453D01*
X48164Y381123D01*
Y365950D01*
G37*
G36*
Y238300D02*X59606D01*
Y211000D01*
X48164D01*
Y238300D01*
G37*
G36*
Y161500D02*X59606D01*
Y151813D01*
X59600Y151813D01*
X58405Y151760D01*
X57219Y151602D01*
X56052Y151339D01*
X54913Y150974D01*
X53810Y150510D01*
X52753Y149950D01*
X51749Y149299D01*
X50807Y148561D01*
X50750Y148505D01*
X50703Y148439D01*
X50666Y148367D01*
X50641Y148291D01*
X50629Y148211D01*
X50629Y148130D01*
X50642Y148051D01*
X50667Y147974D01*
X50704Y147902D01*
X50751Y147837D01*
X50808Y147780D01*
X50873Y147733D01*
X50945Y147697D01*
X51022Y147672D01*
X51102Y147659D01*
X51182Y147659D01*
X51262Y147672D01*
X51339Y147697D01*
X51410Y147734D01*
X51475Y147783D01*
X52338Y148474D01*
X53266Y149077D01*
X54244Y149594D01*
X55264Y150024D01*
X56318Y150361D01*
X57398Y150604D01*
X58494Y150751D01*
X59600Y150800D01*
X59606Y150800D01*
Y125800D01*
X59600Y125800D01*
X58494Y125849D01*
X57398Y125996D01*
X56318Y126239D01*
X55264Y126576D01*
X54244Y127006D01*
X53266Y127523D01*
X52338Y128126D01*
X51467Y128808D01*
X51404Y128856D01*
X51334Y128891D01*
X51259Y128916D01*
X51181Y128928D01*
X51103Y128928D01*
X51025Y128916D01*
X50950Y128892D01*
X50880Y128856D01*
X50816Y128810D01*
X50760Y128755D01*
X50714Y128691D01*
X50678Y128621D01*
X50654Y128546D01*
X50641Y128469D01*
X50641Y128390D01*
X50653Y128312D01*
X50678Y128237D01*
X50713Y128167D01*
X50759Y128103D01*
X50816Y128049D01*
X51749Y127301D01*
X52753Y126650D01*
X53810Y126090D01*
X54913Y125626D01*
X56052Y125261D01*
X57219Y124998D01*
X58405Y124840D01*
X59600Y124787D01*
X59606Y124787D01*
Y122000D01*
X48164D01*
Y131123D01*
X48601Y130449D01*
X49339Y129507D01*
X49395Y129450D01*
X49461Y129403D01*
X49533Y129366D01*
X49609Y129341D01*
X49689Y129329D01*
X49770Y129329D01*
X49849Y129342D01*
X49926Y129367D01*
X49998Y129404D01*
X50063Y129451D01*
X50120Y129508D01*
X50167Y129573D01*
X50203Y129645D01*
X50228Y129722D01*
X50241Y129802D01*
X50241Y129882D01*
X50228Y129962D01*
X50203Y130039D01*
X50166Y130110D01*
X50117Y130175D01*
X49426Y131038D01*
X48823Y131966D01*
X48306Y132944D01*
X48164Y133281D01*
Y143319D01*
X48306Y143656D01*
X48823Y144634D01*
X49426Y145562D01*
X50108Y146433D01*
X50156Y146496D01*
X50191Y146566D01*
X50216Y146641D01*
X50228Y146719D01*
X50228Y146797D01*
X50216Y146875D01*
X50192Y146950D01*
X50156Y147020D01*
X50110Y147084D01*
X50055Y147140D01*
X49991Y147186D01*
X49921Y147222D01*
X49846Y147246D01*
X49769Y147259D01*
X49690Y147259D01*
X49612Y147247D01*
X49537Y147222D01*
X49467Y147187D01*
X49403Y147141D01*
X49349Y147084D01*
X48601Y146151D01*
X48164Y145477D01*
Y161500D01*
G37*
G36*
Y133281D02*X47876Y133964D01*
X47539Y135018D01*
X47296Y136098D01*
X47149Y137194D01*
X47100Y138300D01*
X47149Y139406D01*
X47296Y140502D01*
X47539Y141582D01*
X47876Y142636D01*
X48164Y143319D01*
Y133281D01*
G37*
G36*
X47578Y211000D02*X47500Y211006D01*
X47186Y210981D01*
X46880Y210908D01*
X46589Y210788D01*
X46321Y210623D01*
X46081Y210419D01*
X45877Y210179D01*
X45712Y209911D01*
X45592Y209620D01*
X45519Y209314D01*
X45519Y209313D01*
X45494Y209000D01*
X45500Y208922D01*
Y163578D01*
X45494Y163500D01*
X45519Y163186D01*
X45519Y163186D01*
X45592Y162880D01*
X45712Y162589D01*
X45877Y162321D01*
X46081Y162081D01*
X46321Y161877D01*
X46589Y161712D01*
X46880Y161592D01*
X47186Y161519D01*
X47500Y161494D01*
X47578Y161500D01*
X48164D01*
Y145477D01*
X47950Y145147D01*
X47390Y144090D01*
X46926Y142987D01*
X46561Y141848D01*
X46298Y140681D01*
X46140Y139495D01*
X46087Y138300D01*
X46140Y137105D01*
X46298Y135919D01*
X46561Y134752D01*
X46926Y133613D01*
X47390Y132510D01*
X47950Y131453D01*
X48164Y131123D01*
Y122000D01*
X41500D01*
Y284717D01*
X41589Y284662D01*
X41880Y284542D01*
X42186Y284469D01*
X42500Y284450D01*
X45500D01*
Y240378D01*
X45494Y240300D01*
X45519Y239986D01*
X45519Y239986D01*
X45592Y239680D01*
X45712Y239389D01*
X45877Y239121D01*
X46081Y238881D01*
X46321Y238677D01*
X46589Y238512D01*
X46880Y238392D01*
X47186Y238319D01*
X47500Y238294D01*
X47578Y238300D01*
X48164D01*
Y211000D01*
X47578D01*
G37*
G36*
X127500Y393000D02*Y399500D01*
X131100D01*
Y393000D01*
X127500D01*
G37*
G36*
X93000D02*Y399500D01*
X96600D01*
Y393000D01*
X93000D01*
G37*
G36*
X225500Y303000D02*Y309500D01*
X229100D01*
Y303000D01*
X225500D01*
G37*
G36*
Y260500D02*Y267000D01*
X229100D01*
Y260500D01*
X225500D01*
G37*
G36*
X259500Y260000D02*Y266500D01*
X263100D01*
Y260000D01*
X259500D01*
G37*
G36*
X337000Y359500D02*Y406500D01*
X374500D01*
Y359500D01*
X337000D01*
G37*
G36*
X391300Y284400D02*Y290900D01*
X394900D01*
Y284400D01*
X391300D01*
G37*
G36*
X434300Y247900D02*Y254400D01*
X437900D01*
Y247900D01*
X434300D01*
G37*
G36*
X433800Y191900D02*Y198400D01*
X437400D01*
Y191900D01*
X433800D01*
G37*
G36*
X387800Y218900D02*Y225400D01*
X391400D01*
Y218900D01*
X387800D01*
G37*
G36*
X288800Y359400D02*Y365900D01*
X292400D01*
Y359400D01*
X288800D01*
G37*
G36*
X318800Y376900D02*Y383400D01*
X322400D01*
Y376900D01*
X318800D01*
G37*
G36*
X390300Y377400D02*Y383900D01*
X393900D01*
Y377400D01*
X390300D01*
G37*
G36*
X430000Y284500D02*Y291000D01*
X433600D01*
Y284500D01*
X430000D01*
G37*
G36*
X438500Y232000D02*Y214500D01*
X407000D01*
Y232000D01*
X438500D01*
G37*
G36*
X234300Y359400D02*Y365900D01*
X237900D01*
Y359400D01*
X234300D01*
G37*
G36*
X289300Y326400D02*Y332900D01*
X292900D01*
Y326400D01*
X289300D01*
G37*
G36*
X316300Y284900D02*Y291400D01*
X319900D01*
Y284900D01*
X316300D01*
G37*
G36*
X259500Y303000D02*Y309500D01*
X263100D01*
Y303000D01*
X259500D01*
G37*
G36*
X429500Y251000D02*Y257500D01*
X433100D01*
Y251000D01*
X429500D01*
G37*
G36*
X387000Y250500D02*Y257000D01*
X390600D01*
Y250500D01*
X387000D01*
G37*
G36*
X384500Y360500D02*Y306000D01*
X326000D01*
Y360500D01*
X384500D01*
G37*
G54D12*X311000Y318500D02*X400000D01*
X332500Y291000D02*Y308000D01*
X61200Y286000D02*Y363900D01*
X327500Y353500D02*X311000D01*
X413600Y231300D02*Y248100D01*
X401700Y198300D02*Y202800D01*
X405800Y206900D01*
X407800Y214600D01*
X391400Y228000D02*X407500D01*
X381500Y204000D02*X382800D01*
X383500Y203300D02*X382800Y204000D01*
X383500Y203300D02*Y200700D01*
X382800Y200000D01*
X381500D02*X382800D01*
X380300Y203500D02*Y200500D01*
X379800Y200000D01*
X378800D02*X379800D01*
X378800D02*X378300Y200500D01*
Y203500D02*Y200500D01*
X378800Y204000D02*X378300Y203500D01*
X378800Y204000D02*X379800D01*
X380300Y203500D02*X379800Y204000D01*
X375100D02*X376400D01*
X377100Y203300D02*X376400Y204000D01*
X377100Y203300D02*Y200700D01*
X376400Y200000D01*
X375100D02*X376400D01*
X373900Y204000D02*Y200000D01*
X371400Y204000D02*Y200000D01*
Y202000D02*X373900D01*
X370200Y204000D02*Y200000D01*
X368200Y204000D02*X370200D01*
X365500Y201800D02*X367000D01*
X365000Y204000D02*X367000D01*
Y200000D01*
X365000D02*X367000D01*
X363800Y204000D02*Y201000D01*
X363100Y200000D01*
X362000D02*X363100D01*
X362000D02*X361300Y201000D01*
Y204000D02*Y201000D01*
Y202000D02*X363800D01*
X358100Y200000D02*X360100D01*
X358100D02*X357600Y200500D01*
Y201500D02*Y200500D01*
X358100Y202000D02*X357600Y201500D01*
X358100Y202000D02*X359600D01*
Y204000D02*Y200000D01*
X358800Y202000D02*X357600Y204000D01*
X353600Y200000D02*X354600D01*
X354100Y204000D02*Y200000D01*
X353600Y204000D02*X354600D01*
X352400D02*Y200000D01*
X350900Y202000D01*
X349400Y200000D01*
Y204000D02*Y200000D01*
X347700Y204000D02*Y200000D01*
X346200D02*X348200D01*
X346200D02*X345700Y200500D01*
Y201500D02*Y200500D01*
X346200Y202000D02*X345700Y201500D01*
X346200Y202000D02*X347700D01*
X344500Y204000D02*Y200000D01*
X342500Y204000D02*X344500D01*
X341300D02*Y201000D01*
X340600Y200000D01*
X339500D02*X340600D01*
X339500D02*X338800Y201000D01*
Y204000D02*Y201000D01*
Y202000D02*X341300D01*
X337600Y204000D02*Y200000D01*
X335100Y204000D01*
Y200000D01*
X331900D02*X333900D01*
X332900Y204000D02*Y200000D01*
X328400Y204000D02*Y200000D01*
X326900D02*X328900D01*
X326900D02*X326400Y200500D01*
Y201500D02*Y200500D01*
X326900Y202000D02*X326400Y201500D01*
X326900Y202000D02*X328400D01*
X325200Y204000D02*Y200000D01*
X323200Y204000D02*X325200D01*
X322000D02*Y201000D01*
X321300Y200000D01*
X320200D02*X321300D01*
X320200D02*X319500Y201000D01*
Y204000D02*Y201000D01*
Y202000D02*X322000D01*
X316300Y200000D02*X318300D01*
X317300Y204000D02*Y200000D01*
X315100Y204000D02*Y200000D01*
X313100D02*X315100D01*
X313600Y201800D02*X315100D01*
X311900Y203500D02*Y200500D01*
X311400Y200000D01*
X310400D02*X311400D01*
X310400D02*X309900Y200500D01*
Y203500D02*Y200500D01*
X310400Y204000D02*X309900Y203500D01*
X310400Y204000D02*X311400D01*
X311900Y203500D02*X311400Y204000D01*
X306700Y200000D02*X308700D01*
X306700D02*X306200Y200500D01*
Y201500D02*Y200500D01*
X306700Y202000D02*X306200Y201500D01*
X306700Y202000D02*X308200D01*
Y204000D02*Y200000D01*
X307400Y202000D02*X306200Y204000D01*
X305000D02*Y200000D01*
X303500Y202000D01*
X302000Y200000D01*
Y204000D02*Y200000D01*
G54D13*X430327Y226256D03*
G54D14*X419600Y388300D03*
Y138300D03*
G54D15*X239910Y206240D03*
G54D16*X266485Y166444D03*
X213335D03*
G54D17*X216910Y239240D03*
G54D14*X59600Y138300D03*
G54D13*X412610Y226256D03*
G54D18*X327110Y152090D03*
X353110D03*
G54D17*X262410Y239240D03*
G54D15*X186500Y307000D03*
G54D19*X213076Y342206D03*
X159926D03*
G54D14*X59600Y388300D03*
G54D17*X209350Y273000D03*
X163850D03*
G54D20*X79500Y358350D02*Y292050D01*
X74100Y286650D02*X79500Y292050D01*
X73900Y286450D02*X79500Y292050D01*
X42500Y286450D02*X73900D01*
X41500Y363950D02*X73900D01*
X79500Y358350D01*
G54D21*X112151Y378561D02*Y370686D01*
G54D20*X79500Y285800D02*Y240300D01*
X47500Y285800D02*X79500D01*
X47500Y240300D02*X79500D01*
X47500Y285800D02*Y240300D01*
X115500Y168500D02*Y123000D01*
X83500Y168500D02*Y123000D01*
X115500D01*
X79500Y209000D02*Y163500D01*
X47500D02*X79500D01*
X47500Y209000D02*Y163500D01*
Y209000D02*X79500D01*
X83500Y168500D02*X115500D01*
G54D21*X181651Y221061D02*Y213186D01*
G54D20*X203990Y186760D02*X209090Y191860D01*
X203990Y186760D02*X209090Y191860D01*
G54D21*X244529Y288794D02*Y280919D01*
G54D20*X270890Y191860D02*X274990Y187760D01*
X209090Y191860D02*X270890D01*
X274990Y187760D01*
X209090Y191860D02*X270890D01*
Y156860D02*X274990Y160960D01*
Y187760D02*Y160960D01*
X270890Y156860D02*X274990Y160960D01*
Y187760D02*Y160960D01*
X203990D02*X208090Y156860D01*
X203990Y160960D02*X208090Y156860D01*
X203990Y186760D02*Y160960D01*
Y186760D02*Y160960D01*
X208090Y156860D02*X270890D01*
X208090D02*X270890D01*
X322500Y405000D02*Y376500D01*
X316600D02*X322500D01*
X311200Y371100D02*X316600Y376500D01*
X311000Y370900D02*X316600Y376500D01*
X311000Y370900D02*Y296600D01*
X316600Y291000D01*
X394900D01*
X400000Y296100D01*
Y371900D02*Y296100D01*
X394900Y377000D02*X400000Y371900D01*
X390100Y377000D02*X394900D01*
X390000Y377100D02*X390100Y377000D01*
X390000Y404000D02*Y377100D01*
X217990Y367760D02*X222090Y363660D01*
X151090Y362660D02*Y336860D01*
X156190Y367760D02*X217990D01*
X151090Y362660D02*X156190Y367760D01*
X155190Y332760D02*X217990D01*
X151090Y336860D02*X155190Y332760D01*
X233500Y333200D02*X292800D01*
X234450Y359250D02*X292250D01*
X292800Y333200D02*X296400Y336800D01*
Y355100D02*Y336800D01*
X292250Y359250D02*X296400Y355100D01*
X217990Y332760D02*X222090Y336860D01*
X229900Y336800D02*X233500Y333200D01*
X222090Y363660D02*Y336860D01*
X229900Y354700D02*X234450Y359250D01*
X229900Y354700D02*Y336800D01*
X391500Y241900D02*Y204100D01*
X397100Y198500D01*
X436500D01*
G54D21*X406472Y269760D02*X414347D01*
G54D20*X397600Y248000D02*X437000D01*
X391500Y241900D02*X397600Y248000D01*
G54D22*X369354Y155452D02*X370930D01*
G54D23*X369354Y149547D02*X370930D01*
G54D22*X387072Y155452D02*X388646D01*
G54D23*X387071Y149547D02*X388646D01*
G54D24*X330000Y309500D03*
X381000D03*
Y357000D03*
X330000D03*
X45000Y306000D03*
X60500D03*
Y343500D03*
X45000D03*
G54D25*G54D26*G54D27*G54D28*G54D29*G54D30*G54D27*G54D26*G54D31*G54D32*G54D30*G54D28*G54D29*G54D27*G54D30*M02*
