G04 start of page 4 for group 2 idx 2 *
G04 Title: (unknown), 4Sig *
G04 Creator: pcb 20110918 *
G04 CreationDate: Mon Dec 30 21:59:35 2013 UTC *
G04 For: fosse *
G04 Format: Gerber/RS-274X *
G04 PCB-Dimensions: 550000 450000 *
G04 PCB-Coordinate-Origin: lower left *
%MOIN*%
%FSLAX25Y25*%
%LNGROUP2*%
%ADD50C,0.0354*%
%ADD49C,0.0433*%
%ADD48C,0.1150*%
%ADD47C,0.0945*%
%ADD46C,0.2100*%
%ADD45C,0.1160*%
%ADD44C,0.0494*%
%ADD43C,0.0544*%
%ADD42C,0.0591*%
%ADD41C,0.1300*%
%ADD40C,0.2350*%
%ADD39C,0.2700*%
%ADD38C,0.0001*%
G54D38*G36*
X281500Y142000D02*Y168000D01*
X307500D01*
Y142000D01*
X281500D01*
G37*
G36*
X430321Y244000D02*X440500D01*
Y203000D01*
X430321D01*
Y222291D01*
X430327Y222291D01*
X430947Y222340D01*
X431552Y222485D01*
X432127Y222723D01*
X432658Y223048D01*
X433131Y223452D01*
X433535Y223925D01*
X433860Y224456D01*
X434098Y225031D01*
X434243Y225636D01*
X434280Y226256D01*
X434243Y226876D01*
X434098Y227481D01*
X433860Y228056D01*
X433535Y228587D01*
X433131Y229060D01*
X432658Y229464D01*
X432127Y229789D01*
X431552Y230027D01*
X430947Y230172D01*
X430327Y230221D01*
X430321Y230221D01*
Y244000D01*
G37*
G36*
X412604D02*X430321D01*
Y230221D01*
X429707Y230172D01*
X429102Y230027D01*
X428527Y229789D01*
X427996Y229464D01*
X427523Y229060D01*
X427119Y228587D01*
X426794Y228056D01*
X426556Y227481D01*
X426411Y226876D01*
X426362Y226256D01*
X426411Y225636D01*
X426556Y225031D01*
X426794Y224456D01*
X427119Y223925D01*
X427523Y223452D01*
X427996Y223048D01*
X428527Y222723D01*
X429102Y222485D01*
X429707Y222340D01*
X430321Y222291D01*
Y203000D01*
X412604D01*
Y222291D01*
X412610Y222291D01*
X413230Y222340D01*
X413835Y222485D01*
X414410Y222723D01*
X414941Y223048D01*
X415414Y223452D01*
X415818Y223925D01*
X416143Y224456D01*
X416381Y225031D01*
X416526Y225636D01*
X416563Y226256D01*
X416526Y226876D01*
X416381Y227481D01*
X416143Y228056D01*
X415818Y228587D01*
X415414Y229060D01*
X414941Y229464D01*
X414410Y229789D01*
X413835Y230027D01*
X413230Y230172D01*
X412610Y230221D01*
X412604Y230221D01*
Y244000D01*
G37*
G36*
X395500Y203000D02*Y244000D01*
X412604D01*
Y230221D01*
X411990Y230172D01*
X411385Y230027D01*
X410810Y229789D01*
X410279Y229464D01*
X409806Y229060D01*
X409402Y228587D01*
X409077Y228056D01*
X408839Y227481D01*
X408694Y226876D01*
X408645Y226256D01*
X408694Y225636D01*
X408839Y225031D01*
X409077Y224456D01*
X409402Y223925D01*
X409806Y223452D01*
X410279Y223048D01*
X410810Y222723D01*
X411385Y222485D01*
X411990Y222340D01*
X412604Y222291D01*
Y203000D01*
X395500D01*
G37*
G36*
X314500Y294500D02*Y408000D01*
X396000D01*
Y294500D01*
X314500D01*
G37*
G36*
X86500Y126000D02*Y165500D01*
X112500D01*
Y126000D01*
X86500D01*
G37*
G36*
X50500Y166500D02*Y206000D01*
X76500D01*
Y166500D01*
X50500D01*
G37*
G36*
Y243500D02*Y283000D01*
X76500D01*
Y243500D01*
X50500D01*
G37*
G36*
X41000Y290000D02*Y358500D01*
X76000D01*
Y290000D01*
X41000D01*
G37*
G36*
X293000Y356000D02*Y336500D01*
X233500D01*
Y356000D01*
X293000D01*
G37*
G36*
X266480Y188500D02*X271500D01*
Y160000D01*
X266480D01*
Y162962D01*
X266485Y162962D01*
X267030Y163005D01*
X267561Y163132D01*
X268066Y163341D01*
X268532Y163627D01*
X268947Y163982D01*
X269302Y164397D01*
X269588Y164863D01*
X269797Y165368D01*
X269924Y165899D01*
X269956Y166444D01*
X269924Y166989D01*
X269797Y167520D01*
X269588Y168025D01*
X269302Y168491D01*
X268947Y168906D01*
X268532Y169261D01*
X268066Y169547D01*
X267561Y169756D01*
X267030Y169883D01*
X266485Y169926D01*
X266480Y169926D01*
Y188500D01*
G37*
G36*
X213330D02*X266480D01*
Y169926D01*
X265940Y169883D01*
X265409Y169756D01*
X264904Y169547D01*
X264438Y169261D01*
X264023Y168906D01*
X263668Y168491D01*
X263382Y168025D01*
X263173Y167520D01*
X263046Y166989D01*
X263003Y166444D01*
X263046Y165899D01*
X263173Y165368D01*
X263382Y164863D01*
X263668Y164397D01*
X264023Y163982D01*
X264438Y163627D01*
X264904Y163341D01*
X265409Y163132D01*
X265940Y163005D01*
X266480Y162962D01*
Y160000D01*
X213330D01*
Y162962D01*
X213335Y162962D01*
X213880Y163005D01*
X214411Y163132D01*
X214916Y163341D01*
X215382Y163627D01*
X215797Y163982D01*
X216152Y164397D01*
X216438Y164863D01*
X216647Y165368D01*
X216774Y165899D01*
X216806Y166444D01*
X216774Y166989D01*
X216647Y167520D01*
X216438Y168025D01*
X216152Y168491D01*
X215797Y168906D01*
X215382Y169261D01*
X214916Y169547D01*
X214411Y169756D01*
X213880Y169883D01*
X213335Y169926D01*
X213330Y169926D01*
Y188500D01*
G37*
G36*
X208000Y160000D02*Y188500D01*
X213330D01*
Y169926D01*
X212790Y169883D01*
X212259Y169756D01*
X211754Y169547D01*
X211288Y169261D01*
X210873Y168906D01*
X210518Y168491D01*
X210232Y168025D01*
X210023Y167520D01*
X209896Y166989D01*
X209853Y166444D01*
X209896Y165899D01*
X210023Y165368D01*
X210232Y164863D01*
X210518Y164397D01*
X210873Y163982D01*
X211288Y163627D01*
X211754Y163341D01*
X212259Y163132D01*
X212790Y163005D01*
X213330Y162962D01*
Y160000D01*
X208000D01*
G37*
G36*
X218500Y335500D02*X213070D01*
Y338473D01*
X213076Y338473D01*
X213660Y338519D01*
X214230Y338656D01*
X214771Y338880D01*
X215270Y339186D01*
X215716Y339566D01*
X216096Y340012D01*
X216402Y340511D01*
X216626Y341052D01*
X216763Y341622D01*
X216798Y342206D01*
X216763Y342790D01*
X216626Y343360D01*
X216402Y343901D01*
X216096Y344400D01*
X215716Y344846D01*
X215270Y345226D01*
X214771Y345532D01*
X214230Y345756D01*
X213660Y345893D01*
X213076Y345939D01*
X213070Y345939D01*
Y364500D01*
X218500D01*
Y335500D01*
G37*
G36*
X213070D02*X159920D01*
Y338473D01*
X159926Y338473D01*
X160510Y338519D01*
X161080Y338656D01*
X161621Y338880D01*
X162120Y339186D01*
X162566Y339566D01*
X162946Y340012D01*
X163252Y340511D01*
X163476Y341052D01*
X163613Y341622D01*
X163648Y342206D01*
X163613Y342790D01*
X163476Y343360D01*
X163252Y343901D01*
X162946Y344400D01*
X162566Y344846D01*
X162120Y345226D01*
X161621Y345532D01*
X161080Y345756D01*
X160510Y345893D01*
X159926Y345939D01*
X159920Y345939D01*
Y364500D01*
X213070D01*
Y345939D01*
X212492Y345893D01*
X211922Y345756D01*
X211381Y345532D01*
X210882Y345226D01*
X210436Y344846D01*
X210056Y344400D01*
X209750Y343901D01*
X209526Y343360D01*
X209389Y342790D01*
X209343Y342206D01*
X209389Y341622D01*
X209526Y341052D01*
X209750Y340511D01*
X210056Y340012D01*
X210436Y339566D01*
X210882Y339186D01*
X211381Y338880D01*
X211922Y338656D01*
X212492Y338519D01*
X213070Y338473D01*
Y335500D01*
G37*
G36*
X159920D02*X154000D01*
Y364500D01*
X159920D01*
Y345939D01*
X159342Y345893D01*
X158772Y345756D01*
X158231Y345532D01*
X157732Y345226D01*
X157286Y344846D01*
X156906Y344400D01*
X156600Y343901D01*
X156376Y343360D01*
X156239Y342790D01*
X156193Y342206D01*
X156239Y341622D01*
X156376Y341052D01*
X156600Y340511D01*
X156906Y340012D01*
X157286Y339566D01*
X157732Y339186D01*
X158231Y338880D01*
X158772Y338656D01*
X159342Y338519D01*
X159920Y338473D01*
Y335500D01*
G37*
G54D39*X239910Y206240D03*
X186500Y307000D03*
G54D40*X216910Y239240D03*
X209350Y273000D03*
G54D41*X353110Y152090D03*
G54D42*X430327Y226256D03*
X412610D03*
G54D43*X159926Y342206D03*
G54D40*X163850Y273000D03*
G54D41*X327110Y152090D03*
G54D44*X266485Y166444D03*
G54D40*X262410Y239240D03*
G54D44*X213335Y166444D03*
G54D43*X213076Y342206D03*
G54D45*G54D46*G54D47*G54D48*G54D49*G54D50*G54D46*G54D48*G54D50*G54D46*G54D50*M02*
