G04 start of page 8 for group -4063 idx -4063 *
G04 Title: (unknown), componentmask *
G04 Creator: pcb 20110918 *
G04 CreationDate: Wed Jan  8 22:31:43 2014 UTC *
G04 For: fosse *
G04 Format: Gerber/RS-274X *
G04 PCB-Dimensions: 550000 850000 *
G04 PCB-Coordinate-Origin: lower left *
%MOIN*%
%FSLAX25Y25*%
%LNTOPMASK*%
%ADD103C,0.0180*%
%ADD102C,0.0400*%
%ADD101R,0.0472X0.0472*%
%ADD100R,0.0473X0.0473*%
%ADD99C,0.0651*%
%ADD98C,0.0604*%
%ADD97C,0.1360*%
%ADD96C,0.1062*%
%ADD95C,0.2410*%
%ADD94C,0.0554*%
%ADD93C,0.2760*%
G54D93*X239910Y606240D03*
X186500Y707000D03*
G54D94*X213335Y566444D03*
G54D95*X262410Y639240D03*
X216910D03*
X209350Y673000D03*
G54D96*X379000Y552500D03*
G54D97*X327110Y552090D03*
X353110D03*
G54D94*X266485Y566444D03*
G54D98*X213076Y742206D03*
X159926D03*
G54D95*X163850Y673000D03*
G54D99*X430327Y626256D03*
X412610D03*
G54D100*X387070Y549548D02*X388646D01*
G54D101*X387070Y555453D02*X388646D01*
G54D100*X369354Y549548D02*X370928D01*
G54D101*X369354Y555453D02*X370929D01*
G54D102*X391500Y641900D02*X397600Y648000D01*
X394900Y691000D02*X400000Y696100D01*
X397600Y648000D02*X437000D01*
X397100Y598500D02*X436500D01*
X391500Y641900D02*Y604100D01*
X397100Y598500D01*
G54D103*X324500Y461300D02*X325000Y460800D01*
X326500D01*
X325000Y462800D02*X326500D01*
X324500Y463300D02*X325000Y462800D01*
X324500Y464300D02*Y463300D01*
Y464300D02*X325000Y464800D01*
X326500D01*
X327000Y464300D01*
X326500Y460800D02*X327000Y461300D01*
Y462300D02*Y461300D01*
X326500Y462800D02*X327000Y462300D01*
X328700Y462800D02*X330200D01*
X328200Y463300D02*X328700Y462800D01*
X328200Y464300D02*Y463300D01*
Y464300D02*X328700Y464800D01*
X330200D01*
X330700Y464300D01*
X328200Y461300D02*X328700Y460800D01*
X330200D01*
X330700Y461300D01*
Y462300D02*Y461300D01*
X331900D02*X332400Y460800D01*
X330200Y462800D02*X330700Y462300D01*
X331900Y464300D02*Y461300D01*
Y464300D02*X332400Y464800D01*
X333400D01*
X333900Y464300D01*
Y461300D01*
X333400Y460800D02*X333900Y461300D01*
X332400Y460800D02*X333400D01*
X335600Y462600D02*X337100D01*
X335100Y460800D02*X337100D01*
Y464800D02*Y460800D01*
X340100Y464800D02*X342600Y460800D01*
X340100Y464800D02*Y460800D01*
X342600Y464800D02*Y460800D01*
X343800Y464800D02*Y461800D01*
X344500Y460800D01*
X346300Y464800D02*Y461800D01*
X345600Y460800D02*X346300Y461800D01*
X344500Y460800D02*X345600D01*
X343800Y462800D02*X346300D01*
X347500Y460800D02*X348500Y464800D01*
X349500Y460800D01*
X350700D02*X352700D01*
Y464800D02*Y460800D01*
X350700Y464800D02*X352700D01*
X351200Y462600D02*X352700D01*
X292900Y461000D02*X294900D01*
X292900Y465000D02*Y461000D01*
Y465000D02*X294900D01*
X292900Y462800D02*X294400D01*
X296100Y461000D02*X297100Y465000D01*
X298100Y461000D01*
X299300Y465000D02*Y462000D01*
X300000Y461000D01*
X299300Y463000D02*X301800D01*
X301100Y461000D02*X301800Y462000D01*
Y465000D02*Y462000D01*
X303000Y465000D02*Y461000D01*
X305500Y465000D01*
Y461000D01*
X300000D02*X301100D01*
X308500D02*X310500D01*
X311700Y461500D02*X312200Y461000D01*
X313200D01*
X313700Y461500D01*
X308500Y465000D02*Y461000D01*
Y462800D02*X310000D01*
X313700Y464500D02*Y461500D01*
X313200Y465000D02*X313700Y464500D01*
X312200Y465000D02*X313200D01*
X311700Y464500D02*X312200Y465000D01*
X311700Y464500D02*Y461500D01*
X316900Y461000D02*X317400Y461500D01*
X315400Y461000D02*X316900D01*
X314900Y461500D02*X315400Y461000D01*
X314900Y462500D02*Y461500D01*
Y462500D02*X315400Y463000D01*
X316900D01*
X317400Y463500D01*
Y464500D02*Y463500D01*
X315400Y465000D02*X316900D01*
X314900Y464500D02*X315400Y465000D01*
X316900D02*X317400Y464500D01*
X318600D02*X319100Y465000D01*
X320600D01*
X321100Y464500D01*
Y463500D01*
X320600Y463000D02*X321100Y463500D01*
X319100Y463000D02*X320600D01*
X318600Y462500D02*X319100Y463000D01*
X318600Y462500D02*Y461500D01*
X319100Y461000D01*
X320600D01*
X321100Y461500D01*
X326000Y458200D02*Y454700D01*
X325500Y454200D02*X326000Y454700D01*
X324500Y454200D02*X325500D01*
X324000Y454700D02*X324500Y454200D01*
X324000Y458200D02*Y454700D01*
X322300Y458200D02*X322800Y457700D01*
Y454700D01*
X322300Y454200D02*X322800Y454700D01*
X321300Y454200D02*X322300D01*
X320800Y454700D02*X321300Y454200D01*
X320800Y457700D02*Y454700D01*
X317100Y454200D02*X319600Y458200D01*
X317100Y454200D02*X319600D01*
X320800Y457700D02*X321300Y458200D01*
X322300D01*
X317100D02*X319600D01*
X314900D02*X315900D01*
X326000Y444500D02*X328000D01*
X325500Y444000D02*X326000Y444500D01*
X325500Y444000D02*Y443000D01*
X326000Y442500D01*
X327500D01*
Y444500D02*Y440500D01*
X324300Y444500D02*Y440500D01*
X321800Y444500D02*Y440500D01*
Y442500D02*X324300D01*
X315400Y458200D02*Y454200D01*
X314900D02*X315900D01*
X313700Y457700D02*Y454700D01*
X313200Y454200D02*X313700Y454700D01*
X312200Y454200D02*X313200D01*
X308500D02*X310500D01*
X311700Y454700D02*X312200Y454200D01*
X311700Y457700D02*Y454700D01*
Y457700D02*X312200Y458200D01*
X308500D02*Y454200D01*
X313200Y458200D02*X313700Y457700D01*
X312200Y458200D02*X313200D01*
X303000D02*X305000D01*
X305500Y457700D01*
X300800Y458200D02*X301800D01*
X305500Y457700D02*Y456700D01*
X305000Y456200D02*X305500Y456700D01*
X303500Y456200D02*X305000D01*
X303500Y458200D02*Y454200D01*
X301300Y458200D02*Y454200D01*
X300800D02*X301800D01*
X297600D02*X299600D01*
X297600Y458200D02*Y454200D01*
X295400Y458200D02*X296400D01*
X288000D02*X290000D01*
X290500Y457700D01*
X295900Y458200D02*Y454200D01*
X295400D02*X296400D01*
X294200Y458200D02*Y454200D01*
X291700Y456200D02*X294200D01*
X291700Y458200D02*Y454200D01*
X290500Y457700D02*Y456700D01*
X290000Y456200D02*X290500Y456700D01*
X288500Y456200D02*X290000D01*
X288500Y458200D02*Y454200D01*
X319600Y444500D02*X320600D01*
X320100D02*Y440500D01*
X319600D02*X320600D01*
X318400Y444500D02*Y440500D01*
X316400D02*X318400D01*
X314700Y444500D02*Y440500D01*
X314200D02*X315200D01*
X314200Y444500D02*X315200D01*
X311000D02*X313000D01*
X310500Y444000D02*X311000Y444500D01*
X310500Y444000D02*Y443000D01*
X311000Y442500D01*
X312500D01*
Y444500D02*Y440500D01*
X307500Y444500D02*Y440500D01*
X303800D02*X304300Y441000D01*
X305500Y440500D02*X307500D01*
X302800D02*X303800D01*
X302300Y441000D02*X302800Y440500D01*
X303800Y444500D02*X304300Y444000D01*
Y441000D01*
X302300Y444000D02*Y441000D01*
Y444000D02*X302800Y444500D01*
X303800D01*
X300100D02*X301100D01*
X296400D02*X298900D01*
X294700D02*X295200Y444000D01*
X300600Y444500D02*Y440500D01*
X296400Y444500D02*X298900Y440500D01*
X300100D02*X301100D01*
X296400D02*X298900D01*
X294700D02*X295200Y441000D01*
X293200Y444000D02*X293700Y444500D01*
X294700D01*
X295200Y444000D02*Y441000D01*
X293700Y440500D02*X294700D01*
X293200Y441000D02*X293700Y440500D01*
X293200Y444000D02*Y441000D01*
X292000Y444500D02*Y441000D01*
X291500Y440500D02*X292000Y441000D01*
X290500Y440500D02*X291500D01*
X290000Y441000D02*X290500Y440500D01*
X290000Y444500D02*Y441000D01*
G54D102*X74100Y686650D02*X79500Y692050D01*
X73900Y686450D02*X79500Y692050D01*
Y758350D02*Y692050D01*
X42500Y686450D02*X73900D01*
X41500Y763950D02*X73900D01*
X79500Y758350D01*
Y685800D02*Y640300D01*
X47500Y685800D02*Y640300D01*
X79500D01*
X47500Y685800D02*X79500D01*
X115500Y568500D02*Y523000D01*
X83500Y568500D02*Y523000D01*
X115500D01*
X79500Y609000D02*Y563500D01*
X47500D02*X79500D01*
X47500Y609000D02*Y563500D01*
Y609000D02*X79500D01*
X83500Y568500D02*X115500D01*
X316600Y691000D02*X394900D01*
X400000Y771900D02*Y696100D01*
X229900Y754700D02*Y736800D01*
X322500Y805000D02*Y776500D01*
X316600D02*X322500D01*
X311200Y771100D02*X316600Y776500D01*
X311000Y770900D02*X316600Y776500D01*
X311000Y770900D02*Y696600D01*
X316600Y691000D01*
X234450Y759250D02*X292250D01*
X229900Y754700D02*X234450Y759250D01*
X296400Y755100D02*Y736800D01*
X292250Y759250D02*X296400Y755100D01*
X233500Y733200D02*X292800D01*
X296400Y736800D01*
X229900D02*X233500Y733200D01*
X394900Y777000D02*X400000Y771900D01*
X390100Y777000D02*X394900D01*
X390000Y777100D02*X390100Y777000D01*
X390000Y804000D02*Y777100D01*
X151090Y762660D02*X156190Y767760D01*
X217990Y732760D02*X222090Y736860D01*
Y763660D02*Y736860D01*
X217990Y767760D02*X222090Y763660D01*
X151090Y736860D02*X155190Y732760D01*
X217990D01*
X151090Y762660D02*Y736860D01*
X156190Y767760D02*X217990D01*
X203990Y586760D02*X209090Y591860D01*
X203990Y586760D02*X209090Y591860D01*
X270890D02*X274990Y587760D01*
X209090Y591860D02*X270890D01*
X274990Y587760D01*
X209090Y591860D02*X270890D01*
Y556860D02*X274990Y560960D01*
Y587760D02*Y560960D01*
X270890Y556860D02*X274990Y560960D01*
Y587760D02*Y560960D01*
X203990Y586760D02*Y560960D01*
Y586760D02*Y560960D01*
X208090Y556860D01*
X203990Y560960D02*X208090Y556860D01*
X270890D01*
X208090D02*X270890D01*
M02*
