G04 start of page 10 for group -4079 idx -4079 *
G04 Title: (unknown), topsilk *
G04 Creator: pcb 20110918 *
G04 CreationDate: Wed Jan  8 22:31:43 2014 UTC *
G04 For: fosse *
G04 Format: Gerber/RS-274X *
G04 PCB-Dimensions: 550000 850000 *
G04 PCB-Coordinate-Origin: lower left *
%MOIN*%
%FSLAX25Y25*%
%LNTOPSILK*%
%ADD129C,0.0100*%
%ADD128C,0.0060*%
%ADD127C,0.0200*%
G54D127*X282500Y567000D02*X306500Y543000D01*
Y567000D02*X282500Y543000D01*
G54D128*X280000Y573000D02*Y569500D01*
X280500Y569000D01*
X281500D01*
X282000Y569500D01*
Y573000D02*Y569500D01*
X283200Y573000D02*X285200D01*
X284200D02*Y569000D01*
X286900Y573000D02*Y569000D01*
X288200Y573000D02*X288900Y572300D01*
Y569700D01*
X288200Y569000D02*X288900Y569700D01*
X286400Y569000D02*X288200D01*
X286400Y573000D02*X288200D01*
X290100Y571000D02*X292100D01*
X293300Y573000D02*X295300D01*
X295800Y572500D01*
Y571500D01*
X295300Y571000D02*X295800Y571500D01*
X293800Y571000D02*X295300D01*
X293800Y573000D02*Y569000D01*
X294600Y571000D02*X295800Y569000D01*
X297000Y571200D02*X298500D01*
X297000Y569000D02*X299000D01*
X297000Y573000D02*Y569000D01*
Y573000D02*X299000D01*
X302200D02*X302700Y572500D01*
X300700Y573000D02*X302200D01*
X300200Y572500D02*X300700Y573000D01*
X300200Y572500D02*Y571500D01*
X300700Y571000D01*
X302200D01*
X302700Y570500D01*
Y569500D01*
X302200Y569000D02*X302700Y569500D01*
X300700Y569000D02*X302200D01*
X300200Y569500D02*X300700Y569000D01*
X303900Y571200D02*X305400D01*
X303900Y569000D02*X305900D01*
X303900Y573000D02*Y569000D01*
Y573000D02*X305900D01*
X307100D02*X309100D01*
X308100D02*Y569000D01*
X346500Y564000D02*Y560000D01*
Y564000D02*X348000Y562000D01*
X349500Y564000D01*
Y560000D01*
X350700Y563500D02*Y560500D01*
Y563500D02*X351200Y564000D01*
X352200D01*
X352700Y563500D01*
Y560500D01*
X352200Y560000D02*X352700Y560500D01*
X351200Y560000D02*X352200D01*
X350700Y560500D02*X351200Y560000D01*
X354400Y564000D02*Y560000D01*
X355700Y564000D02*X356400Y563300D01*
Y560700D01*
X355700Y560000D02*X356400Y560700D01*
X353900Y560000D02*X355700D01*
X353900Y564000D02*X355700D01*
X357600Y562200D02*X359100D01*
X357600Y560000D02*X359600D01*
X357600Y564000D02*Y560000D01*
Y564000D02*X359600D01*
X319400D02*X319900Y563500D01*
X317900Y564000D02*X319400D01*
X317400Y563500D02*X317900Y564000D01*
X317400Y563500D02*Y562500D01*
X317900Y562000D01*
X319400D01*
X319900Y561500D01*
Y560500D01*
X319400Y560000D02*X319900Y560500D01*
X317900Y560000D02*X319400D01*
X317400Y560500D02*X317900Y560000D01*
X321100Y564000D02*X323100D01*
X322100D02*Y560000D01*
X324300Y563000D02*Y560000D01*
Y563000D02*X325000Y564000D01*
X326100D01*
X326800Y563000D01*
Y560000D01*
X324300Y562000D02*X326800D01*
X328000Y564000D02*X330000D01*
X329000D02*Y560000D01*
X331200Y564000D02*Y560500D01*
X331700Y560000D01*
X332700D01*
X333200Y560500D01*
Y564000D02*Y560500D01*
X336400Y564000D02*X336900Y563500D01*
X334900Y564000D02*X336400D01*
X334400Y563500D02*X334900Y564000D01*
X334400Y563500D02*Y562500D01*
X334900Y562000D01*
X336400D01*
X336900Y561500D01*
Y560500D01*
X336400Y560000D02*X336900Y560500D01*
X334900Y560000D02*X336400D01*
X334400Y560500D02*X334900Y560000D01*
G54D129*X385693Y546004D02*Y558996D01*
X372307Y546004D02*X385693D01*
X375850Y558996D02*X385693D01*
X375850D03*
X371323Y555650D02*Y559980D01*
X375850D02*X371323D01*
Y555650D02*X372307D01*
X371323Y559980D03*
X372307Y555453D02*Y546004D01*
X375850Y558996D02*Y559980D01*
Y559193D02*X372307Y555650D01*
G54D128*X248810Y603790D02*X248535Y604065D01*
X248810Y603790D02*X249635D01*
X249910Y604065D02*X249635Y603790D01*
X249910Y604615D02*Y604065D01*
Y604615D02*X249635Y604890D01*
X248810D02*X249635D01*
X248810D02*X248535Y605165D01*
Y605715D02*Y605165D01*
X248810Y605990D02*X248535Y605715D01*
X248810Y605990D02*X249635D01*
X249910Y605715D02*X249635Y605990D01*
X246775D02*X247490D01*
X247875Y605605D02*X247490Y605990D01*
X247875Y605605D02*Y604175D01*
X247490Y603790D01*
X246775D02*X247490D01*
X245015D02*X246115D01*
X245015D02*X244740Y604065D01*
Y604615D02*Y604065D01*
X245015Y604890D02*X244740Y604615D01*
X245015Y604890D02*X245840D01*
Y605990D02*Y603790D01*
X245400Y604890D02*X244740Y605990D01*
X243255Y604780D02*X244080D01*
X242980Y605990D02*X244080D01*
Y603790D01*
X242980D02*X244080D01*
X242320Y604890D02*Y603790D01*
Y604890D02*X242045Y605990D01*
X241495Y604890D01*
X240945Y605990D01*
X240670Y604890D01*
Y603790D01*
X240010Y605165D02*X238910Y603790D01*
X238635Y605165D02*X240010D01*
X238910Y605990D02*Y603790D01*
X236875Y604890D02*X237975D01*
X236215Y605165D02*X235115Y603790D01*
X234840Y605165D02*X236215D01*
X235115Y605990D02*Y603790D01*
X234180Y605715D02*X233905Y605990D01*
X234180Y605715D02*Y604065D01*
X233905Y603790D01*
X233355D02*X233905D01*
X233355D02*X233080Y604065D01*
Y605715D02*Y604065D01*
X233355Y605990D02*X233080Y605715D01*
X233355Y605990D02*X233905D01*
X234180Y605440D02*X233080Y604340D01*
X231320Y605990D02*X232420D01*
X230660Y605165D02*X229560Y603790D01*
X229285Y605165D02*X230660D01*
X229560Y605990D02*Y603790D01*
X176500Y708600D02*X176800Y708300D01*
X175600Y708600D02*X176500D01*
X175300Y708300D02*X175600Y708600D01*
X175300Y708300D02*Y707700D01*
X175600Y707400D01*
X176500D01*
X176800Y707100D01*
Y706500D01*
X176500Y706200D02*X176800Y706500D01*
X175600Y706200D02*X176500D01*
X175300Y706500D02*X175600Y706200D01*
X177940D02*X178720D01*
X177520Y706620D02*X177940Y706200D01*
X177520Y708180D02*Y706620D01*
Y708180D02*X177940Y708600D01*
X178720D01*
X179440D02*X180640D01*
X180940Y708300D01*
Y707700D01*
X180640Y707400D02*X180940Y707700D01*
X179740Y707400D02*X180640D01*
X179740Y708600D02*Y706200D01*
X180220Y707400D02*X180940Y706200D01*
X181660Y707520D02*X182560D01*
X181660Y706200D02*X182860D01*
X181660Y708600D02*Y706200D01*
Y708600D02*X182860D01*
X183580D02*Y707400D01*
X183880Y706200D01*
X184480Y707400D01*
X185080Y706200D01*
X185380Y707400D01*
Y708600D02*Y707400D01*
X186100Y707100D02*X187300Y708600D01*
X186100Y707100D02*X187600D01*
X187300Y708600D02*Y706200D01*
X188320Y707400D02*X189520D01*
X190240Y707100D02*X191440Y708600D01*
X190240Y707100D02*X191740D01*
X191440Y708600D02*Y706200D01*
X192460Y706500D02*X192760Y706200D01*
X192460Y708300D02*Y706500D01*
Y708300D02*X192760Y708600D01*
X193360D01*
X193660Y708300D01*
Y706500D01*
X193360Y706200D02*X193660Y706500D01*
X192760Y706200D02*X193360D01*
X192460Y706800D02*X193660Y708000D01*
X194380Y706200D02*X195580D01*
X196300Y708300D02*X196600Y708600D01*
X197200D01*
X197500Y708300D01*
X197200Y706200D02*X197500Y706500D01*
X196600Y706200D02*X197200D01*
X196300Y706500D02*X196600Y706200D01*
Y707520D02*X197200D01*
X197500Y708300D02*Y707820D01*
Y707220D02*Y706500D01*
Y707220D02*X197200Y707520D01*
X197500Y707820D02*X197200Y707520D01*
X369094Y565067D02*Y561067D01*
X371094D01*
X372294Y563267D02*X373794D01*
X372294Y561067D02*X374294D01*
X372294Y565067D02*Y561067D01*
Y565067D02*X374294D01*
X375994D02*Y561067D01*
X377294Y565067D02*X377994Y564367D01*
Y561767D01*
X377294Y561067D02*X377994Y561767D01*
X375494Y561067D02*X377294D01*
X375494Y565067D02*X377294D01*
X379194Y562567D02*X381194Y565067D01*
X379194Y562567D02*X381694D01*
X381194Y565067D02*Y561067D01*
X382894Y561567D02*X383394Y561067D01*
X382894Y564567D02*Y561567D01*
Y564567D02*X383394Y565067D01*
X384394D01*
X384894Y564567D01*
Y561567D01*
X384394Y561067D02*X384894Y561567D01*
X383394Y561067D02*X384394D01*
X382894Y562067D02*X384894Y564067D01*
X386094Y561567D02*X386594Y561067D01*
X386094Y564567D02*Y561567D01*
Y564567D02*X386594Y565067D01*
X387594D01*
X388094Y564567D01*
Y561567D01*
X387594Y561067D02*X388094Y561567D01*
X386594Y561067D02*X387594D01*
X386094Y562067D02*X388094Y564067D01*
M02*
