G04 start of page 3 for group 1 idx 1 *
G04 Title: (unknown), 2PV *
G04 Creator: pcb 20110918 *
G04 CreationDate: Mon Dec 30 21:59:35 2013 UTC *
G04 For: fosse *
G04 Format: Gerber/RS-274X *
G04 PCB-Dimensions: 550000 450000 *
G04 PCB-Coordinate-Origin: lower left *
%MOIN*%
%FSLAX25Y25*%
%LNGROUP1*%
%ADD37C,0.0354*%
%ADD36C,0.0433*%
%ADD35C,0.1150*%
%ADD34C,0.0945*%
%ADD33C,0.2100*%
%ADD32C,0.1160*%
%ADD31C,0.0494*%
%ADD30C,0.0544*%
%ADD29C,0.0591*%
%ADD28C,0.1300*%
%ADD27C,0.2350*%
%ADD26C,0.2700*%
%ADD25C,0.0001*%
G54D25*G36*
X430321Y407900D02*X440600D01*
Y118800D01*
X430321D01*
Y222291D01*
X430327Y222291D01*
X430947Y222340D01*
X431552Y222485D01*
X432127Y222723D01*
X432658Y223048D01*
X433131Y223452D01*
X433535Y223925D01*
X433860Y224456D01*
X434098Y225031D01*
X434243Y225636D01*
X434280Y226256D01*
X434243Y226876D01*
X434098Y227481D01*
X433860Y228056D01*
X433535Y228587D01*
X433131Y229060D01*
X432658Y229464D01*
X432127Y229789D01*
X431552Y230027D01*
X430947Y230172D01*
X430327Y230221D01*
X430321Y230221D01*
Y407900D01*
G37*
G36*
X412604D02*X430321D01*
Y230221D01*
X429707Y230172D01*
X429102Y230027D01*
X428527Y229789D01*
X427996Y229464D01*
X427523Y229060D01*
X427119Y228587D01*
X426794Y228056D01*
X426556Y227481D01*
X426411Y226876D01*
X426362Y226256D01*
X426411Y225636D01*
X426556Y225031D01*
X426794Y224456D01*
X427119Y223925D01*
X427523Y223452D01*
X427996Y223048D01*
X428527Y222723D01*
X429102Y222485D01*
X429707Y222340D01*
X430321Y222291D01*
Y118800D01*
X412604D01*
Y222291D01*
X412610Y222291D01*
X413230Y222340D01*
X413835Y222485D01*
X414410Y222723D01*
X414941Y223048D01*
X415414Y223452D01*
X415818Y223925D01*
X416143Y224456D01*
X416381Y225031D01*
X416526Y225636D01*
X416563Y226256D01*
X416526Y226876D01*
X416381Y227481D01*
X416143Y228056D01*
X415818Y228587D01*
X415414Y229060D01*
X414941Y229464D01*
X414410Y229789D01*
X413835Y230027D01*
X413230Y230172D01*
X412610Y230221D01*
X412604Y230221D01*
Y407900D01*
G37*
G36*
X378992D02*X412604D01*
Y230221D01*
X411990Y230172D01*
X411385Y230027D01*
X410810Y229789D01*
X410279Y229464D01*
X409806Y229060D01*
X409402Y228587D01*
X409077Y228056D01*
X408839Y227481D01*
X408694Y226876D01*
X408645Y226256D01*
X408694Y225636D01*
X408839Y225031D01*
X409077Y224456D01*
X409402Y223925D01*
X409806Y223452D01*
X410279Y223048D01*
X410810Y222723D01*
X411385Y222485D01*
X411990Y222340D01*
X412604Y222291D01*
Y118800D01*
X378992D01*
Y147172D01*
X379000Y147172D01*
X379834Y147237D01*
X380647Y147432D01*
X381419Y147752D01*
X382132Y148189D01*
X382768Y148732D01*
X383311Y149368D01*
X383748Y150081D01*
X384068Y150853D01*
X384263Y151666D01*
X384312Y152500D01*
X384263Y153334D01*
X384068Y154147D01*
X383748Y154919D01*
X383311Y155632D01*
X382768Y156268D01*
X382132Y156811D01*
X381419Y157248D01*
X380647Y157568D01*
X379834Y157763D01*
X379000Y157828D01*
X378992Y157828D01*
Y407900D01*
G37*
G36*
X353098D02*X378992D01*
Y157828D01*
X378166Y157763D01*
X377353Y157568D01*
X376581Y157248D01*
X375868Y156811D01*
X375232Y156268D01*
X374689Y155632D01*
X374252Y154919D01*
X373932Y154147D01*
X373737Y153334D01*
X373672Y152500D01*
X373737Y151666D01*
X373932Y150853D01*
X374252Y150081D01*
X374689Y149368D01*
X375232Y148732D01*
X375868Y148189D01*
X376581Y147752D01*
X377353Y147432D01*
X378166Y147237D01*
X378992Y147172D01*
Y118800D01*
X353098D01*
Y144568D01*
X353110Y144567D01*
X354287Y144659D01*
X355435Y144935D01*
X356525Y145387D01*
X357532Y146004D01*
X358430Y146770D01*
X359196Y147668D01*
X359813Y148675D01*
X360265Y149765D01*
X360541Y150913D01*
X360610Y152090D01*
X360541Y153267D01*
X360265Y154415D01*
X359813Y155505D01*
X359196Y156512D01*
X358430Y157410D01*
X357532Y158176D01*
X356525Y158793D01*
X355435Y159245D01*
X354287Y159521D01*
X353110Y159613D01*
X353098Y159612D01*
Y407900D01*
G37*
G36*
X327098D02*X353098D01*
Y159612D01*
X351933Y159521D01*
X350785Y159245D01*
X349695Y158793D01*
X348688Y158176D01*
X347790Y157410D01*
X347024Y156512D01*
X346407Y155505D01*
X345955Y154415D01*
X345679Y153267D01*
X345587Y152090D01*
X345679Y150913D01*
X345955Y149765D01*
X346407Y148675D01*
X347024Y147668D01*
X347790Y146770D01*
X348688Y146004D01*
X349695Y145387D01*
X350785Y144935D01*
X351933Y144659D01*
X353098Y144568D01*
Y118800D01*
X327098D01*
Y144568D01*
X327110Y144567D01*
X328287Y144659D01*
X329435Y144935D01*
X330525Y145387D01*
X331532Y146004D01*
X332430Y146770D01*
X333196Y147668D01*
X333813Y148675D01*
X334265Y149765D01*
X334541Y150913D01*
X334610Y152090D01*
X334541Y153267D01*
X334265Y154415D01*
X333813Y155505D01*
X333196Y156512D01*
X332430Y157410D01*
X331532Y158176D01*
X330525Y158793D01*
X329435Y159245D01*
X328287Y159521D01*
X327110Y159613D01*
X327098Y159612D01*
Y407900D01*
G37*
G36*
X266480D02*X327098D01*
Y159612D01*
X325933Y159521D01*
X324785Y159245D01*
X323695Y158793D01*
X322688Y158176D01*
X321790Y157410D01*
X321024Y156512D01*
X320407Y155505D01*
X319955Y154415D01*
X319679Y153267D01*
X319587Y152090D01*
X319679Y150913D01*
X319955Y149765D01*
X320407Y148675D01*
X321024Y147668D01*
X321790Y146770D01*
X322688Y146004D01*
X323695Y145387D01*
X324785Y144935D01*
X325933Y144659D01*
X327098Y144568D01*
Y118800D01*
X266480D01*
Y162962D01*
X266485Y162962D01*
X267030Y163005D01*
X267561Y163132D01*
X268066Y163341D01*
X268532Y163627D01*
X268947Y163982D01*
X269302Y164397D01*
X269588Y164863D01*
X269797Y165368D01*
X269924Y165899D01*
X269956Y166444D01*
X269924Y166989D01*
X269797Y167520D01*
X269588Y168025D01*
X269302Y168491D01*
X268947Y168906D01*
X268532Y169261D01*
X268066Y169547D01*
X267561Y169756D01*
X267030Y169883D01*
X266485Y169926D01*
X266480Y169926D01*
Y227125D01*
X268216Y227845D01*
X269927Y228893D01*
X271453Y230197D01*
X272757Y231723D01*
X273805Y233434D01*
X274573Y235288D01*
X275042Y237239D01*
X275160Y239240D01*
X275042Y241241D01*
X274573Y243192D01*
X273805Y245046D01*
X272757Y246757D01*
X271453Y248283D01*
X269927Y249587D01*
X268216Y250635D01*
X266480Y251355D01*
Y407900D01*
G37*
G36*
Y118800D02*X262390D01*
Y226452D01*
X262410Y226451D01*
X264411Y226608D01*
X266362Y227077D01*
X266480Y227125D01*
Y169926D01*
X265940Y169883D01*
X265409Y169756D01*
X264904Y169547D01*
X264438Y169261D01*
X264023Y168906D01*
X263668Y168491D01*
X263382Y168025D01*
X263173Y167520D01*
X263046Y166989D01*
X263003Y166444D01*
X263046Y165899D01*
X263173Y165368D01*
X263382Y164863D01*
X263668Y164397D01*
X264023Y163982D01*
X264438Y163627D01*
X264904Y163341D01*
X265409Y163132D01*
X265940Y163005D01*
X266480Y162962D01*
Y118800D01*
G37*
G36*
X262390Y407900D02*X266480D01*
Y251355D01*
X266362Y251403D01*
X264411Y251872D01*
X262410Y252029D01*
X262390Y252028D01*
Y407900D01*
G37*
G36*
X239888D02*X262390D01*
Y252028D01*
X260409Y251872D01*
X258458Y251403D01*
X256604Y250635D01*
X254893Y249587D01*
X253367Y248283D01*
X252063Y246757D01*
X251015Y245046D01*
X250247Y243192D01*
X249778Y241241D01*
X249621Y239240D01*
X249778Y237239D01*
X250247Y235288D01*
X251015Y233434D01*
X252063Y231723D01*
X253367Y230197D01*
X254893Y228893D01*
X256604Y227845D01*
X258458Y227077D01*
X260409Y226608D01*
X262390Y226452D01*
Y118800D01*
X239888D01*
Y191697D01*
X239910Y191695D01*
X242185Y191874D01*
X244405Y192407D01*
X246513Y193281D01*
X248459Y194473D01*
X250195Y195955D01*
X251677Y197691D01*
X252869Y199637D01*
X253743Y201745D01*
X254276Y203965D01*
X254410Y206240D01*
X254276Y208515D01*
X253743Y210735D01*
X252869Y212843D01*
X251677Y214789D01*
X250195Y216525D01*
X248459Y218007D01*
X246513Y219199D01*
X244405Y220073D01*
X242185Y220606D01*
X239910Y220785D01*
X239888Y220783D01*
Y407900D01*
G37*
G36*
X213330D02*X239888D01*
Y220783D01*
X237635Y220606D01*
X235415Y220073D01*
X233307Y219199D01*
X231361Y218007D01*
X229625Y216525D01*
X228143Y214789D01*
X226951Y212843D01*
X226077Y210735D01*
X225544Y208515D01*
X225365Y206240D01*
X225544Y203965D01*
X226077Y201745D01*
X226951Y199637D01*
X228143Y197691D01*
X229625Y195955D01*
X231361Y194473D01*
X233307Y193281D01*
X235415Y192407D01*
X237635Y191874D01*
X239888Y191697D01*
Y118800D01*
X213330D01*
Y162962D01*
X213335Y162962D01*
X213880Y163005D01*
X214411Y163132D01*
X214916Y163341D01*
X215382Y163627D01*
X215797Y163982D01*
X216152Y164397D01*
X216438Y164863D01*
X216647Y165368D01*
X216774Y165899D01*
X216806Y166444D01*
X216774Y166989D01*
X216647Y167520D01*
X216438Y168025D01*
X216152Y168491D01*
X215797Y168906D01*
X215382Y169261D01*
X214916Y169547D01*
X214411Y169756D01*
X213880Y169883D01*
X213335Y169926D01*
X213330Y169926D01*
Y226987D01*
X214909Y226608D01*
X216910Y226451D01*
X218911Y226608D01*
X220862Y227077D01*
X222716Y227845D01*
X224427Y228893D01*
X225953Y230197D01*
X227257Y231723D01*
X228305Y233434D01*
X229073Y235288D01*
X229542Y237239D01*
X229660Y239240D01*
X229542Y241241D01*
X229073Y243192D01*
X228305Y245046D01*
X227257Y246757D01*
X225953Y248283D01*
X224427Y249587D01*
X222716Y250635D01*
X220862Y251403D01*
X218911Y251872D01*
X216910Y252029D01*
X214909Y251872D01*
X213330Y251493D01*
Y260848D01*
X215156Y261605D01*
X216867Y262653D01*
X218393Y263957D01*
X219697Y265483D01*
X220745Y267194D01*
X221513Y269048D01*
X221982Y270999D01*
X222100Y273000D01*
X221982Y275001D01*
X221513Y276952D01*
X220745Y278806D01*
X219697Y280517D01*
X218393Y282043D01*
X216867Y283347D01*
X215156Y284395D01*
X213330Y285152D01*
Y338493D01*
X213660Y338519D01*
X214230Y338656D01*
X214771Y338880D01*
X215270Y339186D01*
X215716Y339566D01*
X216096Y340012D01*
X216402Y340511D01*
X216626Y341052D01*
X216763Y341622D01*
X216798Y342206D01*
X216763Y342790D01*
X216626Y343360D01*
X216402Y343901D01*
X216096Y344400D01*
X215716Y344846D01*
X215270Y345226D01*
X214771Y345532D01*
X214230Y345756D01*
X213660Y345893D01*
X213330Y345919D01*
Y407900D01*
G37*
G36*
Y251493D02*X212958Y251403D01*
X211104Y250635D01*
X209393Y249587D01*
X209330Y249534D01*
Y260212D01*
X209350Y260211D01*
X211351Y260368D01*
X213302Y260837D01*
X213330Y260848D01*
Y251493D01*
G37*
G36*
Y118800D02*X209330D01*
Y228946D01*
X209393Y228893D01*
X211104Y227845D01*
X212958Y227077D01*
X213330Y226987D01*
Y169926D01*
X212790Y169883D01*
X212259Y169756D01*
X211754Y169547D01*
X211288Y169261D01*
X210873Y168906D01*
X210518Y168491D01*
X210232Y168025D01*
X210023Y167520D01*
X209896Y166989D01*
X209853Y166444D01*
X209896Y165899D01*
X210023Y165368D01*
X210232Y164863D01*
X210518Y164397D01*
X210873Y163982D01*
X211288Y163627D01*
X211754Y163341D01*
X212259Y163132D01*
X212790Y163005D01*
X213330Y162962D01*
Y118800D01*
G37*
G36*
X209330Y407900D02*X213330D01*
Y345919D01*
X213076Y345939D01*
X212492Y345893D01*
X211922Y345756D01*
X211381Y345532D01*
X210882Y345226D01*
X210436Y344846D01*
X210056Y344400D01*
X209750Y343901D01*
X209526Y343360D01*
X209389Y342790D01*
X209343Y342206D01*
X209389Y341622D01*
X209526Y341052D01*
X209750Y340511D01*
X210056Y340012D01*
X210436Y339566D01*
X210882Y339186D01*
X211381Y338880D01*
X211922Y338656D01*
X212492Y338519D01*
X213076Y338473D01*
X213330Y338493D01*
Y285152D01*
X213302Y285163D01*
X211351Y285632D01*
X209350Y285789D01*
X209330Y285788D01*
Y407900D01*
G37*
G36*
X186478D02*X209330D01*
Y285788D01*
X207349Y285632D01*
X205398Y285163D01*
X203544Y284395D01*
X201833Y283347D01*
X200307Y282043D01*
X199003Y280517D01*
X197955Y278806D01*
X197187Y276952D01*
X196718Y275001D01*
X196561Y273000D01*
X196718Y270999D01*
X197187Y269048D01*
X197955Y267194D01*
X199003Y265483D01*
X200307Y263957D01*
X201833Y262653D01*
X203544Y261605D01*
X205398Y260837D01*
X207349Y260368D01*
X209330Y260212D01*
Y249534D01*
X207867Y248283D01*
X206563Y246757D01*
X205515Y245046D01*
X204747Y243192D01*
X204278Y241241D01*
X204121Y239240D01*
X204278Y237239D01*
X204747Y235288D01*
X205515Y233434D01*
X206563Y231723D01*
X207867Y230197D01*
X209330Y228946D01*
Y118800D01*
X186478D01*
Y292457D01*
X186500Y292455D01*
X188775Y292634D01*
X190995Y293167D01*
X193103Y294041D01*
X195049Y295233D01*
X196785Y296715D01*
X198267Y298451D01*
X199459Y300397D01*
X200333Y302505D01*
X200866Y304725D01*
X201000Y307000D01*
X200866Y309275D01*
X200333Y311495D01*
X199459Y313603D01*
X198267Y315549D01*
X196785Y317285D01*
X195049Y318767D01*
X193103Y319959D01*
X190995Y320833D01*
X188775Y321366D01*
X186500Y321545D01*
X186478Y321543D01*
Y407900D01*
G37*
G36*
X163830D02*X186478D01*
Y321543D01*
X184225Y321366D01*
X182005Y320833D01*
X179897Y319959D01*
X177951Y318767D01*
X176215Y317285D01*
X174733Y315549D01*
X173541Y313603D01*
X172667Y311495D01*
X172134Y309275D01*
X171955Y307000D01*
X172134Y304725D01*
X172667Y302505D01*
X173541Y300397D01*
X174733Y298451D01*
X176215Y296715D01*
X177951Y295233D01*
X179897Y294041D01*
X182005Y293167D01*
X184225Y292634D01*
X186478Y292457D01*
Y118800D01*
X163830D01*
Y260212D01*
X163850Y260211D01*
X165851Y260368D01*
X167802Y260837D01*
X169656Y261605D01*
X171367Y262653D01*
X172893Y263957D01*
X174197Y265483D01*
X175245Y267194D01*
X176013Y269048D01*
X176482Y270999D01*
X176600Y273000D01*
X176482Y275001D01*
X176013Y276952D01*
X175245Y278806D01*
X174197Y280517D01*
X172893Y282043D01*
X171367Y283347D01*
X169656Y284395D01*
X167802Y285163D01*
X165851Y285632D01*
X163850Y285789D01*
X163830Y285788D01*
Y407900D01*
G37*
G36*
X159920Y260831D02*X161849Y260368D01*
X163830Y260212D01*
Y118800D01*
X159920D01*
Y260831D01*
G37*
G36*
Y407900D02*X163830D01*
Y285788D01*
X161849Y285632D01*
X159920Y285169D01*
Y338473D01*
X159926Y338473D01*
X160510Y338519D01*
X161080Y338656D01*
X161621Y338880D01*
X162120Y339186D01*
X162566Y339566D01*
X162946Y340012D01*
X163252Y340511D01*
X163476Y341052D01*
X163613Y341622D01*
X163648Y342206D01*
X163613Y342790D01*
X163476Y343360D01*
X163252Y343901D01*
X162946Y344400D01*
X162566Y344846D01*
X162120Y345226D01*
X161621Y345532D01*
X161080Y345756D01*
X160510Y345893D01*
X159926Y345939D01*
X159920Y345939D01*
Y407900D01*
G37*
G36*
X38600Y118800D02*Y407900D01*
X159920D01*
Y345939D01*
X159342Y345893D01*
X158772Y345756D01*
X158231Y345532D01*
X157732Y345226D01*
X157286Y344846D01*
X156906Y344400D01*
X156600Y343901D01*
X156376Y343360D01*
X156239Y342790D01*
X156193Y342206D01*
X156239Y341622D01*
X156376Y341052D01*
X156600Y340511D01*
X156906Y340012D01*
X157286Y339566D01*
X157732Y339186D01*
X158231Y338880D01*
X158772Y338656D01*
X159342Y338519D01*
X159920Y338473D01*
Y285169D01*
X159898Y285163D01*
X158044Y284395D01*
X156333Y283347D01*
X154807Y282043D01*
X153503Y280517D01*
X152455Y278806D01*
X151687Y276952D01*
X151218Y275001D01*
X151061Y273000D01*
X151218Y270999D01*
X151687Y269048D01*
X152455Y267194D01*
X153503Y265483D01*
X154807Y263957D01*
X156333Y262653D01*
X158044Y261605D01*
X159898Y260837D01*
X159920Y260831D01*
Y118800D01*
X38600D01*
G37*
G54D26*X239910Y206240D03*
X186500Y307000D03*
G54D27*X216910Y239240D03*
X209350Y273000D03*
G54D28*X353110Y152090D03*
G54D29*X430327Y226256D03*
X412610D03*
G54D30*X159926Y342206D03*
G54D27*X163850Y273000D03*
G54D28*X327110Y152090D03*
G54D31*X266485Y166444D03*
G54D27*X262410Y239240D03*
G54D31*X213335Y166444D03*
G54D30*X213076Y342206D03*
G54D32*G54D33*G54D34*G54D35*G54D36*G54D37*G54D33*G54D35*G54D37*G54D33*G54D37*M02*
