G04 start of page 14 for group -3984 idx -3984 *
G04 Title: (unknown), fab *
G04 Creator: pcb 20110918 *
G04 CreationDate: Mon Dec 30 21:59:35 2013 UTC *
G04 For: fosse *
G04 Format: Gerber/RS-274X *
G04 PCB-Dimensions: 550000 450000 *
G04 PCB-Coordinate-Origin: lower left *
%MOIN*%
%FSLAX25Y25*%
%LNFAB*%
%ADD146C,0.0100*%
%ADD145C,0.0075*%
%ADD144C,0.0060*%
%ADD143C,0.0001*%
%ADD142R,0.0080X0.0080*%
G54D142*X262410Y239240D02*Y236040D01*
G54D143*G36*
X261864Y239387D02*X265330Y241386D01*
X265730Y240693D01*
X262263Y238694D01*
X261864Y239387D01*
G37*
G36*
X262557Y238694D02*X259090Y240693D01*
X259490Y241386D01*
X262956Y239387D01*
X262557Y238694D01*
G37*
G54D142*X260810Y239240D02*G75*G03X264010Y239240I1600J0D01*G01*
G75*G03X260810Y239240I-1600J0D01*G01*
X216910D02*Y236040D01*
G54D143*G36*
X216364Y239387D02*X219830Y241386D01*
X220230Y240693D01*
X216763Y238694D01*
X216364Y239387D01*
G37*
G36*
X217057Y238694D02*X213590Y240693D01*
X213990Y241386D01*
X217456Y239387D01*
X217057Y238694D01*
G37*
G54D142*X215310Y239240D02*G75*G03X218510Y239240I1600J0D01*G01*
G75*G03X215310Y239240I-1600J0D01*G01*
X209350Y273000D02*Y269800D01*
G54D143*G36*
X208804Y273147D02*X212270Y275146D01*
X212670Y274453D01*
X209203Y272454D01*
X208804Y273147D01*
G37*
G36*
X209497Y272454D02*X206030Y274453D01*
X206430Y275146D01*
X209896Y273147D01*
X209497Y272454D01*
G37*
G54D142*X207750Y273000D02*G75*G03X210950Y273000I1600J0D01*G01*
G75*G03X207750Y273000I-1600J0D01*G01*
X163850D02*Y269800D01*
G54D143*G36*
X163304Y273147D02*X166770Y275146D01*
X167170Y274453D01*
X163703Y272454D01*
X163304Y273147D01*
G37*
G36*
X163997Y272454D02*X160530Y274453D01*
X160930Y275146D01*
X164396Y273147D01*
X163997Y272454D01*
G37*
G54D142*X162250Y273000D02*G75*G03X165450Y273000I1600J0D01*G01*
G75*G03X162250Y273000I-1600J0D01*G01*
X15000Y461250D02*Y458050D01*
G54D143*G36*
X14454Y461397D02*X17920Y463396D01*
X18320Y462703D01*
X14853Y460704D01*
X14454Y461397D01*
G37*
G36*
X15147Y460704D02*X11680Y462703D01*
X12080Y463396D01*
X15546Y461397D01*
X15147Y460704D01*
G37*
G54D142*X13400Y461250D02*G75*G03X16600Y461250I1600J0D01*G01*
G75*G03X13400Y461250I-1600J0D01*G01*
G54D144*X135000Y463500D02*X136500Y460500D01*
X138000Y463500D01*
X136500Y460500D02*Y457500D01*
X139800Y460800D02*X142050D01*
X139800Y457500D02*X142800D01*
X139800Y463500D02*Y457500D01*
Y463500D02*X142800D01*
X147600D02*X148350Y462750D01*
X145350Y463500D02*X147600D01*
X144600Y462750D02*X145350Y463500D01*
X144600Y462750D02*Y461250D01*
X145350Y460500D01*
X147600D01*
X148350Y459750D01*
Y458250D01*
X147600Y457500D02*X148350Y458250D01*
X145350Y457500D02*X147600D01*
X144600Y458250D02*X145350Y457500D01*
X98000Y459750D02*X101000Y463500D01*
X98000Y459750D02*X101750D01*
X101000Y463500D02*Y457500D01*
X45000Y458250D02*X45750Y457500D01*
X45000Y462750D02*Y458250D01*
Y462750D02*X45750Y463500D01*
X47250D01*
X48000Y462750D01*
Y458250D01*
X47250Y457500D02*X48000Y458250D01*
X45750Y457500D02*X47250D01*
X45000Y459000D02*X48000Y462000D01*
X49800Y457500D02*X50550D01*
X52350Y462750D02*X53100Y463500D01*
X55350D01*
X56100Y462750D01*
Y461250D01*
X52350Y457500D02*X56100Y461250D01*
X52350Y457500D02*X56100D01*
X57900Y462300D02*X59100Y463500D01*
Y457500D01*
X57900D02*X60150D01*
X61950Y458250D02*X62700Y457500D01*
X61950Y462750D02*Y458250D01*
Y462750D02*X62700Y463500D01*
X64200D01*
X64950Y462750D01*
Y458250D01*
X64200Y457500D02*X64950Y458250D01*
X62700Y457500D02*X64200D01*
X61950Y459000D02*X64950Y462000D01*
X238310Y207840D02*X241510D01*
X238310D02*Y204640D01*
X241510D01*
Y207840D02*Y204640D01*
X184900Y308600D02*X188100D01*
X184900D02*Y305400D01*
X188100D01*
Y308600D02*Y305400D01*
X13400Y477850D02*X16600D01*
X13400D02*Y474650D01*
X16600D01*
Y477850D02*Y474650D01*
X135000Y478500D02*X136500Y475500D01*
X138000Y478500D01*
X136500Y475500D02*Y472500D01*
X139800Y475800D02*X142050D01*
X139800Y472500D02*X142800D01*
X139800Y478500D02*Y472500D01*
Y478500D02*X142800D01*
X147600D02*X148350Y477750D01*
X145350Y478500D02*X147600D01*
X144600Y477750D02*X145350Y478500D01*
X144600Y477750D02*Y476250D01*
X145350Y475500D01*
X147600D01*
X148350Y474750D01*
Y473250D01*
X147600Y472500D02*X148350Y473250D01*
X145350Y472500D02*X147600D01*
X144600Y473250D02*X145350Y472500D01*
X98000Y477750D02*X98750Y478500D01*
X101000D01*
X101750Y477750D01*
Y476250D01*
X98000Y472500D02*X101750Y476250D01*
X98000Y472500D02*X101750D01*
X45000Y473250D02*X45750Y472500D01*
X45000Y477750D02*Y473250D01*
Y477750D02*X45750Y478500D01*
X47250D01*
X48000Y477750D01*
Y473250D01*
X47250Y472500D02*X48000Y473250D01*
X45750Y472500D02*X47250D01*
X45000Y474000D02*X48000Y477000D01*
X49800Y472500D02*X50550D01*
X52350Y477300D02*X53550Y478500D01*
Y472500D01*
X52350D02*X54600D01*
X56400Y477300D02*X57600Y478500D01*
Y472500D01*
X56400D02*X58650D01*
X62700Y478500D02*X63450Y477750D01*
X61200Y478500D02*X62700D01*
X60450Y477750D02*X61200Y478500D01*
X60450Y477750D02*Y473250D01*
X61200Y472500D01*
X62700Y475800D02*X63450Y475050D01*
X60450Y475800D02*X62700D01*
X61200Y472500D02*X62700D01*
X63450Y473250D01*
Y475050D02*Y473250D01*
X326310Y152090D02*G75*G03X327910Y152090I800J0D01*G01*
G75*G03X326310Y152090I-800J0D01*G01*
X352310D02*G75*G03X353910Y152090I800J0D01*G01*
G75*G03X352310Y152090I-800J0D01*G01*
X14200Y491250D02*G75*G03X15800Y491250I800J0D01*G01*
G75*G03X14200Y491250I-800J0D01*G01*
X135000Y493500D02*X136500Y490500D01*
X138000Y493500D01*
X136500Y490500D02*Y487500D01*
X139800Y490800D02*X142050D01*
X139800Y487500D02*X142800D01*
X139800Y493500D02*Y487500D01*
Y493500D02*X142800D01*
X147600D02*X148350Y492750D01*
X145350Y493500D02*X147600D01*
X144600Y492750D02*X145350Y493500D01*
X144600Y492750D02*Y491250D01*
X145350Y490500D01*
X147600D01*
X148350Y489750D01*
Y488250D01*
X147600Y487500D02*X148350Y488250D01*
X145350Y487500D02*X147600D01*
X144600Y488250D02*X145350Y487500D01*
X98000Y492750D02*X98750Y493500D01*
X101000D01*
X101750Y492750D01*
Y491250D01*
X98000Y487500D02*X101750Y491250D01*
X98000Y487500D02*X101750D01*
X45000Y488250D02*X45750Y487500D01*
X45000Y492750D02*Y488250D01*
Y492750D02*X45750Y493500D01*
X47250D01*
X48000Y492750D01*
Y488250D01*
X47250Y487500D02*X48000Y488250D01*
X45750Y487500D02*X47250D01*
X45000Y489000D02*X48000Y492000D01*
X49800Y487500D02*X50550D01*
X52350Y492300D02*X53550Y493500D01*
Y487500D01*
X52350D02*X54600D01*
X56400Y492300D02*X57600Y493500D01*
Y487500D01*
X56400D02*X58650D01*
X60450Y493500D02*X63450D01*
X60450D02*Y490500D01*
X61200Y491250D01*
X62700D01*
X63450Y490500D01*
Y488250D01*
X62700Y487500D02*X63450Y488250D01*
X61200Y487500D02*X62700D01*
X60450Y488250D02*X61200Y487500D01*
X377800Y153700D02*X380200Y151300D01*
X377800D02*X380200Y153700D01*
X13800Y507450D02*X16200Y505050D01*
X13800D02*X16200Y507450D01*
X135000Y508500D02*X136500Y505500D01*
X138000Y508500D01*
X136500Y505500D02*Y502500D01*
X139800Y505800D02*X142050D01*
X139800Y502500D02*X142800D01*
X139800Y508500D02*Y502500D01*
Y508500D02*X142800D01*
X147600D02*X148350Y507750D01*
X145350Y508500D02*X147600D01*
X144600Y507750D02*X145350Y508500D01*
X144600Y507750D02*Y506250D01*
X145350Y505500D01*
X147600D01*
X148350Y504750D01*
Y503250D01*
X147600Y502500D02*X148350Y503250D01*
X145350Y502500D02*X147600D01*
X144600Y503250D02*X145350Y502500D01*
X98000Y507300D02*X99200Y508500D01*
Y502500D01*
X98000D02*X100250D01*
X45000Y503250D02*X45750Y502500D01*
X45000Y507750D02*Y503250D01*
Y507750D02*X45750Y508500D01*
X47250D01*
X48000Y507750D01*
Y503250D01*
X47250Y502500D02*X48000Y503250D01*
X45750Y502500D02*X47250D01*
X45000Y504000D02*X48000Y507000D01*
X49800Y502500D02*X50550D01*
X52350Y503250D02*X53100Y502500D01*
X52350Y507750D02*Y503250D01*
Y507750D02*X53100Y508500D01*
X54600D01*
X55350Y507750D01*
Y503250D01*
X54600Y502500D02*X55350Y503250D01*
X53100Y502500D02*X54600D01*
X52350Y504000D02*X55350Y507000D01*
X57900Y502500D02*X60150Y505500D01*
Y507750D02*Y505500D01*
X59400Y508500D02*X60150Y507750D01*
X57900Y508500D02*X59400D01*
X57150Y507750D02*X57900Y508500D01*
X57150Y507750D02*Y506250D01*
X57900Y505500D01*
X60150D01*
X61950Y504750D02*X64950Y508500D01*
X61950Y504750D02*X65700D01*
X64950Y508500D02*Y502500D01*
X430327Y227856D02*Y224656D01*
X428727Y226256D02*X431927D01*
X412610Y227856D02*Y224656D01*
X411010Y226256D02*X414210D01*
X15000Y522850D02*Y519650D01*
X13400Y521250D02*X16600D01*
X135000Y523500D02*X136500Y520500D01*
X138000Y523500D01*
X136500Y520500D02*Y517500D01*
X139800Y520800D02*X142050D01*
X139800Y517500D02*X142800D01*
X139800Y523500D02*Y517500D01*
Y523500D02*X142800D01*
X147600D02*X148350Y522750D01*
X145350Y523500D02*X147600D01*
X144600Y522750D02*X145350Y523500D01*
X144600Y522750D02*Y521250D01*
X145350Y520500D01*
X147600D01*
X148350Y519750D01*
Y518250D01*
X147600Y517500D02*X148350Y518250D01*
X145350Y517500D02*X147600D01*
X144600Y518250D02*X145350Y517500D01*
X98000Y522750D02*X98750Y523500D01*
X101000D01*
X101750Y522750D01*
Y521250D01*
X98000Y517500D02*X101750Y521250D01*
X98000Y517500D02*X101750D01*
X45000Y518250D02*X45750Y517500D01*
X45000Y522750D02*Y518250D01*
Y522750D02*X45750Y523500D01*
X47250D01*
X48000Y522750D01*
Y518250D01*
X47250Y517500D02*X48000Y518250D01*
X45750Y517500D02*X47250D01*
X45000Y519000D02*X48000Y522000D01*
X49800Y517500D02*X50550D01*
X52350Y518250D02*X53100Y517500D01*
X52350Y522750D02*Y518250D01*
Y522750D02*X53100Y523500D01*
X54600D01*
X55350Y522750D01*
Y518250D01*
X54600Y517500D02*X55350Y518250D01*
X53100Y517500D02*X54600D01*
X52350Y519000D02*X55350Y522000D01*
X57150Y519750D02*X60150Y523500D01*
X57150Y519750D02*X60900D01*
X60150Y523500D02*Y517500D01*
X62700Y522750D02*X63450Y523500D01*
X64950D01*
X65700Y522750D01*
X64950Y517500D02*X65700Y518250D01*
X63450Y517500D02*X64950D01*
X62700Y518250D02*X63450Y517500D01*
Y520800D02*X64950D01*
X65700Y522750D02*Y521550D01*
Y520050D02*Y518250D01*
Y520050D02*X64950Y520800D01*
X65700Y521550D02*X64950Y520800D01*
X266485Y166444D02*Y164844D01*
Y166444D02*X267872Y167244D01*
X266485Y166444D02*X265098Y167244D01*
X213335Y166444D02*Y164844D01*
Y166444D02*X214722Y167244D01*
X213335Y166444D02*X211948Y167244D01*
X213076Y342206D02*Y340606D01*
Y342206D02*X214463Y343006D01*
X213076Y342206D02*X211689Y343006D01*
X159926Y342206D02*Y340606D01*
Y342206D02*X161313Y343006D01*
X159926Y342206D02*X158539Y343006D01*
X15000Y536250D02*Y534650D01*
Y536250D02*X16387Y537050D01*
X15000Y536250D02*X13613Y537050D01*
X135000Y538500D02*X136500Y535500D01*
X138000Y538500D01*
X136500Y535500D02*Y532500D01*
X139800Y535800D02*X142050D01*
X139800Y532500D02*X142800D01*
X139800Y538500D02*Y532500D01*
Y538500D02*X142800D01*
X147600D02*X148350Y537750D01*
X145350Y538500D02*X147600D01*
X144600Y537750D02*X145350Y538500D01*
X144600Y537750D02*Y536250D01*
X145350Y535500D01*
X147600D01*
X148350Y534750D01*
Y533250D01*
X147600Y532500D02*X148350Y533250D01*
X145350Y532500D02*X147600D01*
X144600Y533250D02*X145350Y532500D01*
X98000Y534750D02*X101000Y538500D01*
X98000Y534750D02*X101750D01*
X101000Y538500D02*Y532500D01*
X45000Y533250D02*X45750Y532500D01*
X45000Y537750D02*Y533250D01*
Y537750D02*X45750Y538500D01*
X47250D01*
X48000Y537750D01*
Y533250D01*
X47250Y532500D02*X48000Y533250D01*
X45750Y532500D02*X47250D01*
X45000Y534000D02*X48000Y537000D01*
X49800Y532500D02*X50550D01*
X52350Y533250D02*X53100Y532500D01*
X52350Y537750D02*Y533250D01*
Y537750D02*X53100Y538500D01*
X54600D01*
X55350Y537750D01*
Y533250D01*
X54600Y532500D02*X55350Y533250D01*
X53100Y532500D02*X54600D01*
X52350Y534000D02*X55350Y537000D01*
X57150Y537750D02*X57900Y538500D01*
X59400D01*
X60150Y537750D01*
X59400Y532500D02*X60150Y533250D01*
X57900Y532500D02*X59400D01*
X57150Y533250D02*X57900Y532500D01*
Y535800D02*X59400D01*
X60150Y537750D02*Y536550D01*
Y535050D02*Y533250D01*
Y535050D02*X59400Y535800D01*
X60150Y536550D02*X59400Y535800D01*
X61950Y538500D02*X64950D01*
X61950D02*Y535500D01*
X62700Y536250D01*
X64200D01*
X64950Y535500D01*
Y533250D01*
X64200Y532500D02*X64950Y533250D01*
X62700Y532500D02*X64200D01*
X61950Y533250D02*X62700Y532500D01*
X3000Y553500D02*X3750Y552750D01*
X750Y553500D02*X3000D01*
X0Y552750D02*X750Y553500D01*
X0Y552750D02*Y551250D01*
X750Y550500D01*
X3000D01*
X3750Y549750D01*
Y548250D01*
X3000Y547500D02*X3750Y548250D01*
X750Y547500D02*X3000D01*
X0Y548250D02*X750Y547500D01*
X5550Y550500D02*Y548250D01*
X6300Y547500D01*
X8550Y550500D02*Y546000D01*
X7800Y545250D02*X8550Y546000D01*
X6300Y545250D02*X7800D01*
X5550Y546000D02*X6300Y545250D01*
Y547500D02*X7800D01*
X8550Y548250D01*
X11100Y549750D02*Y547500D01*
Y549750D02*X11850Y550500D01*
X12600D01*
X13350Y549750D01*
Y547500D01*
Y549750D02*X14100Y550500D01*
X14850D01*
X15600Y549750D01*
Y547500D01*
X10350Y550500D02*X11100Y549750D01*
X17400Y553500D02*Y547500D01*
Y548250D02*X18150Y547500D01*
X19650D01*
X20400Y548250D01*
Y549750D02*Y548250D01*
X19650Y550500D02*X20400Y549750D01*
X18150Y550500D02*X19650D01*
X17400Y549750D02*X18150Y550500D01*
X22200Y549750D02*Y548250D01*
Y549750D02*X22950Y550500D01*
X24450D01*
X25200Y549750D01*
Y548250D01*
X24450Y547500D02*X25200Y548250D01*
X22950Y547500D02*X24450D01*
X22200Y548250D02*X22950Y547500D01*
X27000Y553500D02*Y548250D01*
X27750Y547500D01*
X0Y544250D02*X29250D01*
X41750Y553500D02*Y547500D01*
X43700Y553500D02*X44750Y552450D01*
Y548550D01*
X43700Y547500D02*X44750Y548550D01*
X41000Y547500D02*X43700D01*
X41000Y553500D02*X43700D01*
G54D145*X46550Y552000D02*Y551850D01*
G54D144*Y549750D02*Y547500D01*
X50300Y550500D02*X51050Y549750D01*
X48800Y550500D02*X50300D01*
X48050Y549750D02*X48800Y550500D01*
X48050Y549750D02*Y548250D01*
X48800Y547500D01*
X51050Y550500D02*Y548250D01*
X51800Y547500D01*
X48800D02*X50300D01*
X51050Y548250D01*
X54350Y549750D02*Y547500D01*
Y549750D02*X55100Y550500D01*
X55850D01*
X56600Y549750D01*
Y547500D01*
Y549750D02*X57350Y550500D01*
X58100D01*
X58850Y549750D01*
Y547500D01*
X53600Y550500D02*X54350Y549750D01*
X60650Y547500D02*X61400D01*
X65900Y548250D02*X66650Y547500D01*
X65900Y552750D02*X66650Y553500D01*
X65900Y552750D02*Y548250D01*
X68450Y553500D02*X69950D01*
X69200D02*Y547500D01*
X68450D02*X69950D01*
X72500Y549750D02*Y547500D01*
Y549750D02*X73250Y550500D01*
X74000D01*
X74750Y549750D01*
Y547500D01*
X71750Y550500D02*X72500Y549750D01*
X77300Y550500D02*X79550D01*
X76550Y549750D02*X77300Y550500D01*
X76550Y549750D02*Y548250D01*
X77300Y547500D01*
X79550D01*
X81350Y553500D02*Y547500D01*
Y549750D02*X82100Y550500D01*
X83600D01*
X84350Y549750D01*
Y547500D01*
X86150Y553500D02*X86900Y552750D01*
Y548250D01*
X86150Y547500D02*X86900Y548250D01*
X41000Y544250D02*X88700D01*
X96050Y547500D02*X98000D01*
X95000Y548550D02*X96050Y547500D01*
X95000Y552450D02*Y548550D01*
Y552450D02*X96050Y553500D01*
X98000D01*
X99800Y549750D02*Y548250D01*
Y549750D02*X100550Y550500D01*
X102050D01*
X102800Y549750D01*
Y548250D01*
X102050Y547500D02*X102800Y548250D01*
X100550Y547500D02*X102050D01*
X99800Y548250D02*X100550Y547500D01*
X104600Y550500D02*Y548250D01*
X105350Y547500D01*
X106850D01*
X107600Y548250D01*
Y550500D02*Y548250D01*
X110150Y549750D02*Y547500D01*
Y549750D02*X110900Y550500D01*
X111650D01*
X112400Y549750D01*
Y547500D01*
X109400Y550500D02*X110150Y549750D01*
X114950Y553500D02*Y548250D01*
X115700Y547500D01*
X114200Y551250D02*X115700D01*
X95000Y544250D02*X117200D01*
X130750Y553500D02*Y547500D01*
X130000Y553500D02*X133000D01*
X133750Y552750D01*
Y551250D01*
X133000Y550500D02*X133750Y551250D01*
X130750Y550500D02*X133000D01*
X135550Y553500D02*Y548250D01*
X136300Y547500D01*
X140050Y550500D02*X140800Y549750D01*
X138550Y550500D02*X140050D01*
X137800Y549750D02*X138550Y550500D01*
X137800Y549750D02*Y548250D01*
X138550Y547500D01*
X140800Y550500D02*Y548250D01*
X141550Y547500D01*
X138550D02*X140050D01*
X140800Y548250D01*
X144100Y553500D02*Y548250D01*
X144850Y547500D01*
X143350Y551250D02*X144850D01*
X147100Y547500D02*X149350D01*
X146350Y548250D02*X147100Y547500D01*
X146350Y549750D02*Y548250D01*
Y549750D02*X147100Y550500D01*
X148600D01*
X149350Y549750D01*
X146350Y549000D02*X149350D01*
Y549750D02*Y549000D01*
X154150Y553500D02*Y547500D01*
X153400D02*X154150Y548250D01*
X151900Y547500D02*X153400D01*
X151150Y548250D02*X151900Y547500D01*
X151150Y549750D02*Y548250D01*
Y549750D02*X151900Y550500D01*
X153400D01*
X154150Y549750D01*
X157450Y550500D02*Y549750D01*
Y548250D02*Y547500D01*
X155950Y552750D02*Y552000D01*
Y552750D02*X156700Y553500D01*
X158200D01*
X158950Y552750D01*
Y552000D01*
X157450Y550500D02*X158950Y552000D01*
X130000Y544250D02*X160750D01*
X0Y568500D02*X3000D01*
X1500D02*Y562500D01*
X4800Y568500D02*Y562500D01*
Y564750D02*X5550Y565500D01*
X7050D01*
X7800Y564750D01*
Y562500D01*
X10350D02*X12600D01*
X9600Y563250D02*X10350Y562500D01*
X9600Y564750D02*Y563250D01*
Y564750D02*X10350Y565500D01*
X11850D01*
X12600Y564750D01*
X9600Y564000D02*X12600D01*
Y564750D02*Y564000D01*
X15150Y564750D02*Y562500D01*
Y564750D02*X15900Y565500D01*
X17400D01*
X14400D02*X15150Y564750D01*
X19950Y562500D02*X22200D01*
X19200Y563250D02*X19950Y562500D01*
X19200Y564750D02*Y563250D01*
Y564750D02*X19950Y565500D01*
X21450D01*
X22200Y564750D01*
X19200Y564000D02*X22200D01*
Y564750D02*Y564000D01*
X28950Y565500D02*X29700Y564750D01*
X27450Y565500D02*X28950D01*
X26700Y564750D02*X27450Y565500D01*
X26700Y564750D02*Y563250D01*
X27450Y562500D01*
X29700Y565500D02*Y563250D01*
X30450Y562500D01*
X27450D02*X28950D01*
X29700Y563250D01*
X33000Y564750D02*Y562500D01*
Y564750D02*X33750Y565500D01*
X35250D01*
X32250D02*X33000Y564750D01*
X37800Y562500D02*X40050D01*
X37050Y563250D02*X37800Y562500D01*
X37050Y564750D02*Y563250D01*
Y564750D02*X37800Y565500D01*
X39300D01*
X40050Y564750D01*
X37050Y564000D02*X40050D01*
Y564750D02*Y564000D01*
X46800Y568500D02*X47550Y567750D01*
X45300Y568500D02*X46800D01*
X44550Y567750D02*X45300Y568500D01*
X44550Y567750D02*Y563250D01*
X45300Y562500D01*
X46800Y565800D02*X47550Y565050D01*
X44550Y565800D02*X46800D01*
X45300Y562500D02*X46800D01*
X47550Y563250D01*
Y565050D02*Y563250D01*
X55050Y568500D02*Y562500D01*
X54300D02*X55050Y563250D01*
X52800Y562500D02*X54300D01*
X52050Y563250D02*X52800Y562500D01*
X52050Y564750D02*Y563250D01*
Y564750D02*X52800Y565500D01*
X54300D01*
X55050Y564750D01*
G54D145*X56850Y567000D02*Y566850D01*
G54D144*Y564750D02*Y562500D01*
X59100Y567750D02*Y562500D01*
Y567750D02*X59850Y568500D01*
X60600D01*
X58350Y565500D02*X59850D01*
X62850Y567750D02*Y562500D01*
Y567750D02*X63600Y568500D01*
X64350D01*
X62100Y565500D02*X63600D01*
X66600Y562500D02*X68850D01*
X65850Y563250D02*X66600Y562500D01*
X65850Y564750D02*Y563250D01*
Y564750D02*X66600Y565500D01*
X68100D01*
X68850Y564750D01*
X65850Y564000D02*X68850D01*
Y564750D02*Y564000D01*
X71400Y564750D02*Y562500D01*
Y564750D02*X72150Y565500D01*
X73650D01*
X70650D02*X71400Y564750D01*
X76200Y562500D02*X78450D01*
X75450Y563250D02*X76200Y562500D01*
X75450Y564750D02*Y563250D01*
Y564750D02*X76200Y565500D01*
X77700D01*
X78450Y564750D01*
X75450Y564000D02*X78450D01*
Y564750D02*Y564000D01*
X81000Y564750D02*Y562500D01*
Y564750D02*X81750Y565500D01*
X82500D01*
X83250Y564750D01*
Y562500D01*
X80250Y565500D02*X81000Y564750D01*
X85800Y568500D02*Y563250D01*
X86550Y562500D01*
X85050Y566250D02*X86550D01*
X93750Y568500D02*Y562500D01*
X93000D02*X93750Y563250D01*
X91500Y562500D02*X93000D01*
X90750Y563250D02*X91500Y562500D01*
X90750Y564750D02*Y563250D01*
Y564750D02*X91500Y565500D01*
X93000D01*
X93750Y564750D01*
X96300D02*Y562500D01*
Y564750D02*X97050Y565500D01*
X98550D01*
X95550D02*X96300Y564750D01*
G54D145*X100350Y567000D02*Y566850D01*
G54D144*Y564750D02*Y562500D01*
X101850Y568500D02*Y563250D01*
X102600Y562500D01*
X104100Y568500D02*Y563250D01*
X104850Y562500D01*
X109800D02*X112050D01*
X112800Y563250D01*
X112050Y564000D02*X112800Y563250D01*
X109800Y564000D02*X112050D01*
X109050Y564750D02*X109800Y564000D01*
X109050Y564750D02*X109800Y565500D01*
X112050D01*
X112800Y564750D01*
X109050Y563250D02*X109800Y562500D01*
G54D145*X114600Y567000D02*Y566850D01*
G54D144*Y564750D02*Y562500D01*
X116100Y565500D02*X119100D01*
X116100Y562500D02*X119100Y565500D01*
X116100Y562500D02*X119100D01*
X121650D02*X123900D01*
X120900Y563250D02*X121650Y562500D01*
X120900Y564750D02*Y563250D01*
Y564750D02*X121650Y565500D01*
X123150D01*
X123900Y564750D01*
X120900Y564000D02*X123900D01*
Y564750D02*Y564000D01*
X126450Y562500D02*X128700D01*
X129450Y563250D01*
X128700Y564000D02*X129450Y563250D01*
X126450Y564000D02*X128700D01*
X125700Y564750D02*X126450Y564000D01*
X125700Y564750D02*X126450Y565500D01*
X128700D01*
X129450Y564750D01*
X125700Y563250D02*X126450Y562500D01*
X133950Y565500D02*Y563250D01*
X134700Y562500D01*
X136200D01*
X136950Y563250D01*
Y565500D02*Y563250D01*
X139500Y562500D02*X141750D01*
X142500Y563250D01*
X141750Y564000D02*X142500Y563250D01*
X139500Y564000D02*X141750D01*
X138750Y564750D02*X139500Y564000D01*
X138750Y564750D02*X139500Y565500D01*
X141750D01*
X142500Y564750D01*
X138750Y563250D02*X139500Y562500D01*
X145050D02*X147300D01*
X144300Y563250D02*X145050Y562500D01*
X144300Y564750D02*Y563250D01*
Y564750D02*X145050Y565500D01*
X146550D01*
X147300Y564750D01*
X144300Y564000D02*X147300D01*
Y564750D02*Y564000D01*
X152100Y568500D02*Y562500D01*
X151350D02*X152100Y563250D01*
X149850Y562500D02*X151350D01*
X149100Y563250D02*X149850Y562500D01*
X149100Y564750D02*Y563250D01*
Y564750D02*X149850Y565500D01*
X151350D01*
X152100Y564750D01*
G54D145*X156600Y567000D02*Y566850D01*
G54D144*Y564750D02*Y562500D01*
X158850Y564750D02*Y562500D01*
Y564750D02*X159600Y565500D01*
X160350D01*
X161100Y564750D01*
Y562500D01*
X158100Y565500D02*X158850Y564750D01*
X166350Y568500D02*Y563250D01*
X167100Y562500D01*
X165600Y566250D02*X167100D01*
X168600Y568500D02*Y562500D01*
Y564750D02*X169350Y565500D01*
X170850D01*
X171600Y564750D01*
Y562500D01*
G54D145*X173400Y567000D02*Y566850D01*
G54D144*Y564750D02*Y562500D01*
X175650D02*X177900D01*
X178650Y563250D01*
X177900Y564000D02*X178650Y563250D01*
X175650Y564000D02*X177900D01*
X174900Y564750D02*X175650Y564000D01*
X174900Y564750D02*X175650Y565500D01*
X177900D01*
X178650Y564750D01*
X174900Y563250D02*X175650Y562500D01*
X183150Y568500D02*Y563250D01*
X183900Y562500D01*
X187650Y565500D02*X188400Y564750D01*
X186150Y565500D02*X187650D01*
X185400Y564750D02*X186150Y565500D01*
X185400Y564750D02*Y563250D01*
X186150Y562500D01*
X188400Y565500D02*Y563250D01*
X189150Y562500D01*
X186150D02*X187650D01*
X188400Y563250D01*
X190950Y565500D02*Y563250D01*
X191700Y562500D01*
X193950Y565500D02*Y561000D01*
X193200Y560250D02*X193950Y561000D01*
X191700Y560250D02*X193200D01*
X190950Y561000D02*X191700Y560250D01*
Y562500D02*X193200D01*
X193950Y563250D01*
X195750Y564750D02*Y563250D01*
Y564750D02*X196500Y565500D01*
X198000D01*
X198750Y564750D01*
Y563250D01*
X198000Y562500D02*X198750Y563250D01*
X196500Y562500D02*X198000D01*
X195750Y563250D02*X196500Y562500D01*
X200550Y565500D02*Y563250D01*
X201300Y562500D01*
X202800D01*
X203550Y563250D01*
Y565500D02*Y563250D01*
X206100Y568500D02*Y563250D01*
X206850Y562500D01*
X205350Y566250D02*X206850D01*
X208350Y561000D02*X209850Y562500D01*
X214350Y567300D02*X215550Y568500D01*
Y562500D01*
X214350D02*X216600D01*
X218400Y568500D02*X221400D01*
X218400D02*Y565500D01*
X219150Y566250D01*
X220650D01*
X221400Y565500D01*
Y563250D01*
X220650Y562500D02*X221400Y563250D01*
X219150Y562500D02*X220650D01*
X218400Y563250D02*X219150Y562500D01*
X225900Y568500D02*Y562500D01*
Y564750D02*X226650Y565500D01*
X228150D01*
X228900Y564750D01*
Y562500D01*
X230700Y564750D02*Y563250D01*
Y564750D02*X231450Y565500D01*
X232950D01*
X233700Y564750D01*
Y563250D01*
X232950Y562500D02*X233700Y563250D01*
X231450Y562500D02*X232950D01*
X230700Y563250D02*X231450Y562500D01*
X235500Y568500D02*Y563250D01*
X236250Y562500D01*
X238500D02*X240750D01*
X237750Y563250D02*X238500Y562500D01*
X237750Y564750D02*Y563250D01*
Y564750D02*X238500Y565500D01*
X240000D01*
X240750Y564750D01*
X237750Y564000D02*X240750D01*
Y564750D02*Y564000D01*
X243300Y562500D02*X245550D01*
X246300Y563250D01*
X245550Y564000D02*X246300Y563250D01*
X243300Y564000D02*X245550D01*
X242550Y564750D02*X243300Y564000D01*
X242550Y564750D02*X243300Y565500D01*
X245550D01*
X246300Y564750D01*
X242550Y563250D02*X243300Y562500D01*
X251550Y568500D02*Y563250D01*
X252300Y562500D01*
X250800Y566250D02*X252300D01*
X253800Y564750D02*Y563250D01*
Y564750D02*X254550Y565500D01*
X256050D01*
X256800Y564750D01*
Y563250D01*
X256050Y562500D02*X256800Y563250D01*
X254550Y562500D02*X256050D01*
X253800Y563250D02*X254550Y562500D01*
X259350Y568500D02*Y563250D01*
X260100Y562500D01*
X258600Y566250D02*X260100D01*
X263850Y565500D02*X264600Y564750D01*
X262350Y565500D02*X263850D01*
X261600Y564750D02*X262350Y565500D01*
X261600Y564750D02*Y563250D01*
X262350Y562500D01*
X264600Y565500D02*Y563250D01*
X265350Y562500D01*
X262350D02*X263850D01*
X264600Y563250D01*
X267150Y568500D02*Y563250D01*
X267900Y562500D01*
G54D146*X32350Y112560D02*X446850Y112550D01*
Y209290D01*
X401800Y209300D02*Y237700D01*
X446850D01*
Y414150D01*
X389850Y300750D02*X320750D01*
X331850Y367300D02*X331800Y414150D01*
X32350D01*
X446850Y209290D02*X401800Y209300D01*
X389750Y366000D02*X379950D01*
X380000Y414150D01*
X446850D01*
X69750Y296250D02*Y353750D01*
X320750Y367300D02*X331850D01*
X320750Y300750D02*Y367300D01*
X32400Y353750D02*X69750D01*
X389750Y300750D02*Y365750D01*
X32400Y296250D02*X69500D01*
X69750Y296500D01*
X32350Y112560D02*Y296100D01*
X32500Y296250D01*
X32400Y353750D02*Y414050D01*
X32500Y414150D01*
X55500Y278000D02*X71500D01*
Y248500D01*
X55500D01*
Y278000D01*
X159000Y359500D02*Y340500D01*
X213500D01*
Y359500D01*
X159000D01*
X238500Y351000D02*X288000D01*
Y341500D01*
X238500D01*
Y351000D01*
X55500Y201000D02*X71500D01*
Y171500D01*
X55500D01*
Y201000D01*
X91500Y160500D02*X107500D01*
Y131000D01*
X91500D01*
Y160500D01*
X212409Y183738D02*Y164738D01*
X266909D01*
Y183738D01*
X212409D01*
G54D144*X188675Y-9500D02*X191675D01*
X192425Y-8750D01*
Y-6950D02*Y-8750D01*
X191675Y-6200D02*X192425Y-6950D01*
X189425Y-6200D02*X191675D01*
X189425Y-3500D02*Y-9500D01*
X188675Y-3500D02*X191675D01*
X192425Y-4250D01*
Y-5450D01*
X191675Y-6200D02*X192425Y-5450D01*
X194225Y-7250D02*Y-8750D01*
Y-7250D02*X194975Y-6500D01*
X196475D01*
X197225Y-7250D01*
Y-8750D01*
X196475Y-9500D02*X197225Y-8750D01*
X194975Y-9500D02*X196475D01*
X194225Y-8750D02*X194975Y-9500D01*
X201275Y-6500D02*X202025Y-7250D01*
X199775Y-6500D02*X201275D01*
X199025Y-7250D02*X199775Y-6500D01*
X199025Y-7250D02*Y-8750D01*
X199775Y-9500D01*
X202025Y-6500D02*Y-8750D01*
X202775Y-9500D01*
X199775D02*X201275D01*
X202025Y-8750D01*
X205325Y-7250D02*Y-9500D01*
Y-7250D02*X206075Y-6500D01*
X207575D01*
X204575D02*X205325Y-7250D01*
X212375Y-3500D02*Y-9500D01*
X211625D02*X212375Y-8750D01*
X210125Y-9500D02*X211625D01*
X209375Y-8750D02*X210125Y-9500D01*
X209375Y-7250D02*Y-8750D01*
Y-7250D02*X210125Y-6500D01*
X211625D01*
X212375Y-7250D01*
X216875D02*Y-8750D01*
Y-7250D02*X217625Y-6500D01*
X219125D01*
X219875Y-7250D01*
Y-8750D01*
X219125Y-9500D02*X219875Y-8750D01*
X217625Y-9500D02*X219125D01*
X216875Y-8750D02*X217625Y-9500D01*
X221675Y-6500D02*Y-8750D01*
X222425Y-9500D01*
X223925D01*
X224675Y-8750D01*
Y-6500D02*Y-8750D01*
X227225Y-3500D02*Y-8750D01*
X227975Y-9500D01*
X226475Y-5750D02*X227975D01*
X229475Y-3500D02*Y-8750D01*
X230225Y-9500D01*
G54D145*X231725Y-5000D02*Y-5150D01*
G54D144*Y-7250D02*Y-9500D01*
X233975Y-7250D02*Y-9500D01*
Y-7250D02*X234725Y-6500D01*
X235475D01*
X236225Y-7250D01*
Y-9500D01*
X233225Y-6500D02*X233975Y-7250D01*
X238775Y-9500D02*X241025D01*
X238025Y-8750D02*X238775Y-9500D01*
X238025Y-7250D02*Y-8750D01*
Y-7250D02*X238775Y-6500D01*
X240275D01*
X241025Y-7250D01*
X238025Y-8000D02*X241025D01*
Y-7250D02*Y-8000D01*
G54D145*X245525Y-5000D02*Y-5150D01*
G54D144*Y-7250D02*Y-9500D01*
X247775D02*X250025D01*
X250775Y-8750D01*
X250025Y-8000D02*X250775Y-8750D01*
X247775Y-8000D02*X250025D01*
X247025Y-7250D02*X247775Y-8000D01*
X247025Y-7250D02*X247775Y-6500D01*
X250025D01*
X250775Y-7250D01*
X247025Y-8750D02*X247775Y-9500D01*
X256025Y-3500D02*Y-8750D01*
X256775Y-9500D01*
X255275Y-5750D02*X256775D01*
X258275Y-3500D02*Y-9500D01*
Y-7250D02*X259025Y-6500D01*
X260525D01*
X261275Y-7250D01*
Y-9500D01*
X263825D02*X266075D01*
X263075Y-8750D02*X263825Y-9500D01*
X263075Y-7250D02*Y-8750D01*
Y-7250D02*X263825Y-6500D01*
X265325D01*
X266075Y-7250D01*
X263075Y-8000D02*X266075D01*
Y-7250D02*Y-8000D01*
X271325Y-6500D02*X273575D01*
X270575Y-7250D02*X271325Y-6500D01*
X270575Y-7250D02*Y-8750D01*
X271325Y-9500D01*
X273575D01*
X276125D02*X278375D01*
X275375Y-8750D02*X276125Y-9500D01*
X275375Y-7250D02*Y-8750D01*
Y-7250D02*X276125Y-6500D01*
X277625D01*
X278375Y-7250D01*
X275375Y-8000D02*X278375D01*
Y-7250D02*Y-8000D01*
X280925Y-7250D02*Y-9500D01*
Y-7250D02*X281675Y-6500D01*
X282425D01*
X283175Y-7250D01*
Y-9500D01*
X280175Y-6500D02*X280925Y-7250D01*
X285725Y-3500D02*Y-8750D01*
X286475Y-9500D01*
X284975Y-5750D02*X286475D01*
X288725Y-9500D02*X290975D01*
X287975Y-8750D02*X288725Y-9500D01*
X287975Y-7250D02*Y-8750D01*
Y-7250D02*X288725Y-6500D01*
X290225D01*
X290975Y-7250D01*
X287975Y-8000D02*X290975D01*
Y-7250D02*Y-8000D01*
X293525Y-7250D02*Y-9500D01*
Y-7250D02*X294275Y-6500D01*
X295775D01*
X292775D02*X293525Y-7250D01*
X297575Y-3500D02*Y-8750D01*
X298325Y-9500D01*
G54D145*X299825Y-5000D02*Y-5150D01*
G54D144*Y-7250D02*Y-9500D01*
X302075Y-7250D02*Y-9500D01*
Y-7250D02*X302825Y-6500D01*
X303575D01*
X304325Y-7250D01*
Y-9500D01*
X301325Y-6500D02*X302075Y-7250D01*
X306875Y-9500D02*X309125D01*
X306125Y-8750D02*X306875Y-9500D01*
X306125Y-7250D02*Y-8750D01*
Y-7250D02*X306875Y-6500D01*
X308375D01*
X309125Y-7250D01*
X306125Y-8000D02*X309125D01*
Y-7250D02*Y-8000D01*
X313625Y-7250D02*Y-8750D01*
Y-7250D02*X314375Y-6500D01*
X315875D01*
X316625Y-7250D01*
Y-8750D01*
X315875Y-9500D02*X316625Y-8750D01*
X314375Y-9500D02*X315875D01*
X313625Y-8750D02*X314375Y-9500D01*
X319175Y-4250D02*Y-9500D01*
Y-4250D02*X319925Y-3500D01*
X320675D01*
X318425Y-6500D02*X319925D01*
X325625Y-3500D02*Y-8750D01*
X326375Y-9500D01*
X324875Y-5750D02*X326375D01*
X327875Y-3500D02*Y-9500D01*
Y-7250D02*X328625Y-6500D01*
X330125D01*
X330875Y-7250D01*
Y-9500D01*
G54D145*X332675Y-5000D02*Y-5150D01*
G54D144*Y-7250D02*Y-9500D01*
X334925D02*X337175D01*
X337925Y-8750D01*
X337175Y-8000D02*X337925Y-8750D01*
X334925Y-8000D02*X337175D01*
X334175Y-7250D02*X334925Y-8000D01*
X334175Y-7250D02*X334925Y-6500D01*
X337175D01*
X337925Y-7250D01*
X334175Y-8750D02*X334925Y-9500D01*
X343175Y-7250D02*Y-11750D01*
X342425Y-6500D02*X343175Y-7250D01*
X343925Y-6500D01*
X345425D01*
X346175Y-7250D01*
Y-8750D01*
X345425Y-9500D02*X346175Y-8750D01*
X343925Y-9500D02*X345425D01*
X343175Y-8750D02*X343925Y-9500D01*
X350225Y-6500D02*X350975Y-7250D01*
X348725Y-6500D02*X350225D01*
X347975Y-7250D02*X348725Y-6500D01*
X347975Y-7250D02*Y-8750D01*
X348725Y-9500D01*
X350975Y-6500D02*Y-8750D01*
X351725Y-9500D01*
X348725D02*X350225D01*
X350975Y-8750D01*
X354275Y-3500D02*Y-8750D01*
X355025Y-9500D01*
X353525Y-5750D02*X355025D01*
X356525Y-3500D02*Y-9500D01*
Y-7250D02*X357275Y-6500D01*
X358775D01*
X359525Y-7250D01*
Y-9500D01*
X200750Y478500D02*Y472500D01*
X202700Y478500D02*X203750Y477450D01*
Y473550D01*
X202700Y472500D02*X203750Y473550D01*
X200000Y472500D02*X202700D01*
X200000Y478500D02*X202700D01*
X207800Y475500D02*X208550Y474750D01*
X206300Y475500D02*X207800D01*
X205550Y474750D02*X206300Y475500D01*
X205550Y474750D02*Y473250D01*
X206300Y472500D01*
X208550Y475500D02*Y473250D01*
X209300Y472500D01*
X206300D02*X207800D01*
X208550Y473250D01*
X211850Y478500D02*Y473250D01*
X212600Y472500D01*
X211100Y476250D02*X212600D01*
X214850Y472500D02*X217100D01*
X214100Y473250D02*X214850Y472500D01*
X214100Y474750D02*Y473250D01*
Y474750D02*X214850Y475500D01*
X216350D01*
X217100Y474750D01*
X214100Y474000D02*X217100D01*
Y474750D02*Y474000D01*
X218900Y476250D02*X219650D01*
X218900Y474750D02*X219650D01*
X224150Y478500D02*Y472500D01*
Y478500D02*X226400Y475500D01*
X228650Y478500D01*
Y472500D01*
X230450Y474750D02*Y473250D01*
Y474750D02*X231200Y475500D01*
X232700D01*
X233450Y474750D01*
Y473250D01*
X232700Y472500D02*X233450Y473250D01*
X231200Y472500D02*X232700D01*
X230450Y473250D02*X231200Y472500D01*
X236000Y474750D02*Y472500D01*
Y474750D02*X236750Y475500D01*
X237500D01*
X238250Y474750D01*
Y472500D01*
X235250Y475500D02*X236000Y474750D01*
X243500Y478500D02*Y472500D01*
X245450Y478500D02*X246500Y477450D01*
Y473550D01*
X245450Y472500D02*X246500Y473550D01*
X242750Y472500D02*X245450D01*
X242750Y478500D02*X245450D01*
X249050Y472500D02*X251300D01*
X248300Y473250D02*X249050Y472500D01*
X248300Y474750D02*Y473250D01*
Y474750D02*X249050Y475500D01*
X250550D01*
X251300Y474750D01*
X248300Y474000D02*X251300D01*
Y474750D02*Y474000D01*
X253850Y475500D02*X256100D01*
X253100Y474750D02*X253850Y475500D01*
X253100Y474750D02*Y473250D01*
X253850Y472500D01*
X256100D01*
X260600Y477750D02*X261350Y478500D01*
X262850D01*
X263600Y477750D01*
X262850Y472500D02*X263600Y473250D01*
X261350Y472500D02*X262850D01*
X260600Y473250D02*X261350Y472500D01*
Y475800D02*X262850D01*
X263600Y477750D02*Y476550D01*
Y475050D02*Y473250D01*
Y475050D02*X262850Y475800D01*
X263600Y476550D02*X262850Y475800D01*
X265400Y473250D02*X266150Y472500D01*
X265400Y477750D02*Y473250D01*
Y477750D02*X266150Y478500D01*
X267650D01*
X268400Y477750D01*
Y473250D01*
X267650Y472500D02*X268400Y473250D01*
X266150Y472500D02*X267650D01*
X265400Y474000D02*X268400Y477000D01*
X272900Y477750D02*X273650Y478500D01*
X275900D01*
X276650Y477750D01*
Y476250D01*
X272900Y472500D02*X276650Y476250D01*
X272900Y472500D02*X276650D01*
X278450Y477300D02*X279650Y478500D01*
Y472500D01*
X278450D02*X280700D01*
X282500Y476250D02*X283250D01*
X282500Y474750D02*X283250D01*
X285050Y478500D02*X288050D01*
X285050D02*Y475500D01*
X285800Y476250D01*
X287300D01*
X288050Y475500D01*
Y473250D01*
X287300Y472500D02*X288050Y473250D01*
X285800Y472500D02*X287300D01*
X285050Y473250D02*X285800Y472500D01*
X290600D02*X292850Y475500D01*
Y477750D02*Y475500D01*
X292100Y478500D02*X292850Y477750D01*
X290600Y478500D02*X292100D01*
X289850Y477750D02*X290600Y478500D01*
X289850Y477750D02*Y476250D01*
X290600Y475500D01*
X292850D01*
X294650Y476250D02*X295400D01*
X294650Y474750D02*X295400D01*
X297200Y477750D02*X297950Y478500D01*
X299450D01*
X300200Y477750D01*
X299450Y472500D02*X300200Y473250D01*
X297950Y472500D02*X299450D01*
X297200Y473250D02*X297950Y472500D01*
Y475800D02*X299450D01*
X300200Y477750D02*Y476550D01*
Y475050D02*Y473250D01*
Y475050D02*X299450Y475800D01*
X300200Y476550D02*X299450Y475800D01*
X302000Y478500D02*X305000D01*
X302000D02*Y475500D01*
X302750Y476250D01*
X304250D01*
X305000Y475500D01*
Y473250D01*
X304250Y472500D02*X305000Y473250D01*
X302750Y472500D02*X304250D01*
X302000Y473250D02*X302750Y472500D01*
X309500Y477750D02*X310250Y478500D01*
X312500D01*
X313250Y477750D01*
Y476250D01*
X309500Y472500D02*X313250Y476250D01*
X309500Y472500D02*X313250D01*
X315050Y473250D02*X315800Y472500D01*
X315050Y477750D02*Y473250D01*
Y477750D02*X315800Y478500D01*
X317300D01*
X318050Y477750D01*
Y473250D01*
X317300Y472500D02*X318050Y473250D01*
X315800Y472500D02*X317300D01*
X315050Y474000D02*X318050Y477000D01*
X319850Y477300D02*X321050Y478500D01*
Y472500D01*
X319850D02*X322100D01*
X323900Y477750D02*X324650Y478500D01*
X326150D01*
X326900Y477750D01*
X326150Y472500D02*X326900Y473250D01*
X324650Y472500D02*X326150D01*
X323900Y473250D02*X324650Y472500D01*
Y475800D02*X326150D01*
X326900Y477750D02*Y476550D01*
Y475050D02*Y473250D01*
Y475050D02*X326150Y475800D01*
X326900Y476550D02*X326150Y475800D01*
X331400Y478500D02*Y473250D01*
X332150Y472500D01*
X333650D01*
X334400Y473250D01*
Y478500D02*Y473250D01*
X336200Y478500D02*X339200D01*
X337700D02*Y472500D01*
X342050D02*X344000D01*
X341000Y473550D02*X342050Y472500D01*
X341000Y477450D02*Y473550D01*
Y477450D02*X342050Y478500D01*
X344000D01*
X200000Y492000D02*Y487500D01*
Y492000D02*X201050Y493500D01*
X202700D01*
X203750Y492000D01*
Y487500D01*
X200000Y490500D02*X203750D01*
X205550D02*Y488250D01*
X206300Y487500D01*
X207800D01*
X208550Y488250D01*
Y490500D02*Y488250D01*
X211100Y493500D02*Y488250D01*
X211850Y487500D01*
X210350Y491250D02*X211850D01*
X213350Y493500D02*Y487500D01*
Y489750D02*X214100Y490500D01*
X215600D01*
X216350Y489750D01*
Y487500D01*
X218150Y489750D02*Y488250D01*
Y489750D02*X218900Y490500D01*
X220400D01*
X221150Y489750D01*
Y488250D01*
X220400Y487500D02*X221150Y488250D01*
X218900Y487500D02*X220400D01*
X218150Y488250D02*X218900Y487500D01*
X223700Y489750D02*Y487500D01*
Y489750D02*X224450Y490500D01*
X225950D01*
X222950D02*X223700Y489750D01*
X227750Y491250D02*X228500D01*
X227750Y489750D02*X228500D01*
X200000Y508500D02*X203000D01*
X201500D02*Y502500D01*
G54D145*X204800Y507000D02*Y506850D01*
G54D144*Y504750D02*Y502500D01*
X207050Y508500D02*Y503250D01*
X207800Y502500D01*
X206300Y506250D02*X207800D01*
X209300Y508500D02*Y503250D01*
X210050Y502500D01*
X212300D02*X214550D01*
X211550Y503250D02*X212300Y502500D01*
X211550Y504750D02*Y503250D01*
Y504750D02*X212300Y505500D01*
X213800D01*
X214550Y504750D01*
X211550Y504000D02*X214550D01*
Y504750D02*Y504000D01*
X216350Y506250D02*X217100D01*
X216350Y504750D02*X217100D01*
X221600Y503250D02*X222350Y502500D01*
X221600Y507750D02*X222350Y508500D01*
X221600Y507750D02*Y503250D01*
X224150Y505500D02*Y503250D01*
X224900Y502500D01*
X226400D01*
X227150Y503250D01*
Y505500D02*Y503250D01*
X229700Y504750D02*Y502500D01*
Y504750D02*X230450Y505500D01*
X231200D01*
X231950Y504750D01*
Y502500D01*
X228950Y505500D02*X229700Y504750D01*
X233750Y508500D02*Y502500D01*
Y504750D02*X236000Y502500D01*
X233750Y504750D02*X235250Y506250D01*
X238550Y504750D02*Y502500D01*
Y504750D02*X239300Y505500D01*
X240050D01*
X240800Y504750D01*
Y502500D01*
X237800Y505500D02*X238550Y504750D01*
X242600D02*Y503250D01*
Y504750D02*X243350Y505500D01*
X244850D01*
X245600Y504750D01*
Y503250D01*
X244850Y502500D02*X245600Y503250D01*
X243350Y502500D02*X244850D01*
X242600Y503250D02*X243350Y502500D01*
X247400Y505500D02*Y503250D01*
X248150Y502500D01*
X248900D01*
X249650Y503250D01*
Y505500D02*Y503250D01*
X250400Y502500D01*
X251150D01*
X251900Y503250D01*
Y505500D02*Y503250D01*
X254450Y504750D02*Y502500D01*
Y504750D02*X255200Y505500D01*
X255950D01*
X256700Y504750D01*
Y502500D01*
X253700Y505500D02*X254450Y504750D01*
X258500Y508500D02*X259250Y507750D01*
Y503250D01*
X258500Y502500D02*X259250Y503250D01*
X263750Y505500D02*X266750D01*
X271250Y508500D02*Y502500D01*
Y508500D02*X274250D01*
X271250Y505800D02*X273500D01*
X278300Y505500D02*X279050Y504750D01*
X276800Y505500D02*X278300D01*
X276050Y504750D02*X276800Y505500D01*
X276050Y504750D02*Y503250D01*
X276800Y502500D01*
X279050Y505500D02*Y503250D01*
X279800Y502500D01*
X276800D02*X278300D01*
X279050Y503250D01*
X281600Y508500D02*Y502500D01*
Y503250D02*X282350Y502500D01*
X283850D01*
X284600Y503250D01*
Y504750D02*Y503250D01*
X283850Y505500D02*X284600Y504750D01*
X282350Y505500D02*X283850D01*
X281600Y504750D02*X282350Y505500D01*
X287150Y504750D02*Y502500D01*
Y504750D02*X287900Y505500D01*
X289400D01*
X286400D02*X287150Y504750D01*
G54D145*X291200Y507000D02*Y506850D01*
G54D144*Y504750D02*Y502500D01*
X293450Y505500D02*X295700D01*
X292700Y504750D02*X293450Y505500D01*
X292700Y504750D02*Y503250D01*
X293450Y502500D01*
X295700D01*
X299750Y505500D02*X300500Y504750D01*
X298250Y505500D02*X299750D01*
X297500Y504750D02*X298250Y505500D01*
X297500Y504750D02*Y503250D01*
X298250Y502500D01*
X300500Y505500D02*Y503250D01*
X301250Y502500D01*
X298250D02*X299750D01*
X300500Y503250D01*
X303800Y508500D02*Y503250D01*
X304550Y502500D01*
X303050Y506250D02*X304550D01*
G54D145*X306050Y507000D02*Y506850D01*
G54D144*Y504750D02*Y502500D01*
X307550Y504750D02*Y503250D01*
Y504750D02*X308300Y505500D01*
X309800D01*
X310550Y504750D01*
Y503250D01*
X309800Y502500D02*X310550Y503250D01*
X308300Y502500D02*X309800D01*
X307550Y503250D02*X308300Y502500D01*
X313100Y504750D02*Y502500D01*
Y504750D02*X313850Y505500D01*
X314600D01*
X315350Y504750D01*
Y502500D01*
X312350Y505500D02*X313100Y504750D01*
X320600Y508500D02*Y502500D01*
X322550Y508500D02*X323600Y507450D01*
Y503550D01*
X322550Y502500D02*X323600Y503550D01*
X319850Y502500D02*X322550D01*
X319850Y508500D02*X322550D01*
X326150Y504750D02*Y502500D01*
Y504750D02*X326900Y505500D01*
X328400D01*
X325400D02*X326150Y504750D01*
X332450Y505500D02*X333200Y504750D01*
X330950Y505500D02*X332450D01*
X330200Y504750D02*X330950Y505500D01*
X330200Y504750D02*Y503250D01*
X330950Y502500D01*
X333200Y505500D02*Y503250D01*
X333950Y502500D01*
X330950D02*X332450D01*
X333200Y503250D01*
X335750Y505500D02*Y503250D01*
X336500Y502500D01*
X337250D01*
X338000Y503250D01*
Y505500D02*Y503250D01*
X338750Y502500D01*
X339500D01*
X340250Y503250D01*
Y505500D02*Y503250D01*
G54D145*X342050Y507000D02*Y506850D01*
G54D144*Y504750D02*Y502500D01*
X344300Y504750D02*Y502500D01*
Y504750D02*X345050Y505500D01*
X345800D01*
X346550Y504750D01*
Y502500D01*
X343550Y505500D02*X344300Y504750D01*
X350600Y505500D02*X351350Y504750D01*
X349100Y505500D02*X350600D01*
X348350Y504750D02*X349100Y505500D01*
X348350Y504750D02*Y503250D01*
X349100Y502500D01*
X350600D01*
X351350Y503250D01*
X348350Y501000D02*X349100Y500250D01*
X350600D01*
X351350Y501000D01*
Y505500D02*Y501000D01*
M02*
