G04 This is an RS-274x file exported by *
G04 gerbv version 2.6.0 *
G04 More information is available about gerbv at *
G04 http://gerbv.gpleda.org/ *
G04 --End of header info--*
%MOIN*%
%FSLAX34Y34*%
%IPPOS*%
G04 --Define apertures--*
%ADD10C,0.0200*%
%ADD11C,0.0060*%
%ADD12C,0.0148*%
%ADD13C,0.0100*%
G04 --Start main section--*
G54D10*
G01X0028100Y0019700D02*
G01X0038700Y0019700D01*
G01X0038700Y0027700D02*
G01X0038700Y0019700D01*
G01X0029200Y0027700D02*
G01X0038700Y0027700D01*
G01X0028100Y0026600D02*
G01X0029200Y0027700D01*
G01X0028100Y0026600D02*
G01X0028100Y0019700D01*
G01X0028250Y0016700D02*
G01X0030650Y0014300D01*
G01X0030650Y0016700D02*
G01X0028250Y0014300D01*
G54D11*
G01X0008300Y0033350D02*
G01X0008700Y0033350D01*
G01X0008700Y0033220D02*
G01X0008630Y0033150D01*
G01X0008370Y0033150D02*
G01X0008630Y0033150D01*
G01X0008300Y0033220D02*
G01X0008370Y0033150D01*
G01X0008300Y0033400D02*
G01X0008300Y0033220D01*
G01X0008700Y0033400D02*
G01X0008700Y0033220D01*
G01X0008520Y0033030D02*
G01X0008520Y0032880D01*
G01X0008300Y0033030D02*
G01X0008300Y0032830D01*
G01X0008300Y0033030D02*
G01X0008700Y0033030D01*
G01X0008700Y0033030D02*
G01X0008700Y0032830D01*
G01X0008300Y0032710D02*
G01X0008300Y0032510D01*
G01X0008300Y0032510D02*
G01X0008350Y0032460D01*
G01X0008350Y0032460D02*
G01X0008470Y0032460D01*
G01X0008520Y0032510D02*
G01X0008470Y0032460D01*
G01X0008520Y0032660D02*
G01X0008520Y0032510D01*
G01X0008300Y0032660D02*
G01X0008700Y0032660D01*
G01X0008700Y0032710D02*
G01X0008700Y0032510D01*
G01X0008700Y0032510D02*
G01X0008650Y0032460D01*
G01X0008570Y0032460D02*
G01X0008650Y0032460D01*
G01X0008520Y0032510D02*
G01X0008570Y0032460D01*
G01X0008350Y0032340D02*
G01X0008700Y0032340D01*
G01X0008350Y0032340D02*
G01X0008300Y0032290D01*
G01X0008300Y0032290D02*
G01X0008300Y0032190D01*
G01X0008300Y0032190D02*
G01X0008350Y0032140D01*
G01X0008350Y0032140D02*
G01X0008700Y0032140D01*
G01X0008700Y0031820D02*
G01X0008650Y0031770D01*
G01X0008700Y0031970D02*
G01X0008700Y0031820D01*
G01X0008650Y0032020D02*
G01X0008700Y0031970D01*
G01X0008350Y0032020D02*
G01X0008650Y0032020D01*
G01X0008350Y0032020D02*
G01X0008300Y0031970D01*
G01X0008300Y0031970D02*
G01X0008300Y0031820D01*
G01X0008300Y0031820D02*
G01X0008350Y0031770D01*
G01X0008350Y0031770D02*
G01X0008450Y0031770D01*
G01X0008500Y0031820D02*
G01X0008450Y0031770D01*
G01X0008500Y0031920D02*
G01X0008500Y0031820D01*
G01X0008700Y0026800D02*
G01X0008700Y0026600D01*
G01X0008700Y0026600D02*
G01X0008650Y0026550D01*
G01X0008550Y0026550D02*
G01X0008650Y0026550D01*
G01X0008500Y0026600D02*
G01X0008550Y0026550D01*
G01X0008500Y0026750D02*
G01X0008500Y0026600D01*
G01X0008300Y0026750D02*
G01X0008700Y0026750D01*
G01X0008500Y0026670D02*
G01X0008300Y0026550D01*
G01X0008350Y0026430D02*
G01X0008700Y0026430D01*
G01X0008350Y0026430D02*
G01X0008300Y0026380D01*
G01X0008300Y0026380D02*
G01X0008300Y0026280D01*
G01X0008300Y0026280D02*
G01X0008350Y0026230D01*
G01X0008350Y0026230D02*
G01X0008700Y0026230D01*
G01X0008300Y0026110D02*
G01X0008700Y0026110D01*
G01X0008700Y0026110D02*
G01X0008300Y0025860D01*
G01X0008300Y0025860D02*
G01X0008700Y0025860D01*
G01X0019200Y0032950D02*
G01X0019200Y0032550D01*
G01X0018950Y0032950D02*
G01X0018950Y0032550D01*
G01X0018950Y0032750D02*
G01X0019200Y0032750D01*
G01X0018680Y0032730D02*
G01X0018830Y0032730D01*
G01X0018630Y0032950D02*
G01X0018830Y0032950D01*
G01X0018830Y0032950D02*
G01X0018830Y0032550D01*
G01X0018630Y0032550D02*
G01X0018830Y0032550D01*
G01X0018510Y0032950D02*
G01X0018510Y0032650D01*
G01X0018510Y0032650D02*
G01X0018440Y0032550D01*
G01X0018330Y0032550D02*
G01X0018440Y0032550D01*
G01X0018330Y0032550D02*
G01X0018260Y0032650D01*
G01X0018260Y0032950D02*
G01X0018260Y0032650D01*
G01X0018260Y0032750D02*
G01X0018510Y0032750D01*
G01X0018090Y0032950D02*
G01X0018090Y0032550D01*
G01X0017960Y0032550D02*
G01X0017890Y0032620D01*
G01X0017890Y0032880D02*
G01X0017890Y0032620D01*
G01X0017960Y0032950D02*
G01X0017890Y0032880D01*
G01X0017960Y0032950D02*
G01X0018140Y0032950D01*
G01X0017960Y0032550D02*
G01X0018140Y0032550D01*
G01X0028900Y0032600D02*
G01X0029000Y0032600D01*
G01X0028950Y0033000D02*
G01X0028950Y0032600D01*
G01X0028900Y0033000D02*
G01X0029000Y0033000D01*
G01X0028580Y0032600D02*
G01X0028530Y0032650D01*
G01X0028580Y0032600D02*
G01X0028730Y0032600D01*
G01X0028780Y0032650D02*
G01X0028730Y0032600D01*
G01X0028780Y0032750D02*
G01X0028780Y0032650D01*
G01X0028780Y0032750D02*
G01X0028730Y0032800D01*
G01X0028580Y0032800D02*
G01X0028730Y0032800D01*
G01X0028580Y0032800D02*
G01X0028530Y0032850D01*
G01X0028530Y0032950D02*
G01X0028530Y0032850D01*
G01X0028580Y0033000D02*
G01X0028530Y0032950D01*
G01X0028580Y0033000D02*
G01X0028730Y0033000D01*
G01X0028780Y0032950D02*
G01X0028730Y0033000D01*
G01X0028410Y0032950D02*
G01X0028410Y0032650D01*
G01X0028410Y0032650D02*
G01X0028360Y0032600D01*
G01X0028260Y0032600D02*
G01X0028360Y0032600D01*
G01X0028260Y0032600D02*
G01X0028210Y0032650D01*
G01X0028210Y0032950D02*
G01X0028210Y0032650D01*
G01X0028260Y0033000D02*
G01X0028210Y0032950D01*
G01X0028260Y0033000D02*
G01X0028360Y0033000D01*
G01X0028410Y0032950D02*
G01X0028360Y0033000D01*
G01X0028090Y0033000D02*
G01X0028090Y0032600D01*
G01X0027890Y0033000D02*
G01X0028090Y0033000D01*
G01X0027770Y0033000D02*
G01X0027770Y0032700D01*
G01X0027770Y0032700D02*
G01X0027700Y0032600D01*
G01X0027590Y0032600D02*
G01X0027700Y0032600D01*
G01X0027590Y0032600D02*
G01X0027520Y0032700D01*
G01X0027520Y0033000D02*
G01X0027520Y0032700D01*
G01X0027520Y0032800D02*
G01X0027770Y0032800D01*
G01X0027200Y0032600D02*
G01X0027400Y0032600D01*
G01X0027300Y0033000D02*
G01X0027300Y0032600D01*
G01X0026930Y0032780D02*
G01X0027080Y0032780D01*
G01X0026880Y0033000D02*
G01X0027080Y0033000D01*
G01X0027080Y0033000D02*
G01X0027080Y0032600D01*
G01X0026880Y0032600D02*
G01X0027080Y0032600D01*
G01X0026710Y0033000D02*
G01X0026710Y0032600D01*
G01X0026580Y0032600D02*
G01X0026510Y0032670D01*
G01X0026510Y0032930D02*
G01X0026510Y0032670D01*
G01X0026580Y0033000D02*
G01X0026510Y0032930D01*
G01X0026580Y0033000D02*
G01X0026760Y0033000D01*
G01X0026580Y0032600D02*
G01X0026760Y0032600D01*
G01X0026010Y0032600D02*
G01X0025960Y0032650D01*
G01X0026010Y0032600D02*
G01X0026160Y0032600D01*
G01X0026210Y0032650D02*
G01X0026160Y0032600D01*
G01X0026210Y0032750D02*
G01X0026210Y0032650D01*
G01X0026210Y0032750D02*
G01X0026160Y0032800D01*
G01X0026010Y0032800D02*
G01X0026160Y0032800D01*
G01X0026010Y0032800D02*
G01X0025960Y0032850D01*
G01X0025960Y0032950D02*
G01X0025960Y0032850D01*
G01X0026010Y0033000D02*
G01X0025960Y0032950D01*
G01X0026010Y0033000D02*
G01X0026160Y0033000D01*
G01X0026210Y0032950D02*
G01X0026160Y0033000D01*
G01X0025640Y0032600D02*
G01X0025840Y0032600D01*
G01X0025740Y0033000D02*
G01X0025740Y0032600D01*
G01X0025420Y0032600D02*
G01X0025520Y0032600D01*
G01X0025470Y0033000D02*
G01X0025470Y0032600D01*
G01X0025420Y0033000D02*
G01X0025520Y0033000D01*
G01X0025300Y0033000D02*
G01X0025300Y0032600D01*
G01X0025300Y0032600D02*
G01X0025150Y0032800D01*
G01X0025150Y0032800D02*
G01X0025000Y0032600D01*
G01X0025000Y0033000D02*
G01X0025000Y0032600D01*
G01X0024880Y0032950D02*
G01X0024880Y0032600D01*
G01X0024880Y0032950D02*
G01X0024830Y0033000D01*
G01X0024730Y0033000D02*
G01X0024830Y0033000D01*
G01X0024730Y0033000D02*
G01X0024680Y0032950D01*
G01X0024680Y0032950D02*
G01X0024680Y0032600D01*
G01X0024560Y0033000D02*
G01X0024560Y0032600D01*
G01X0024360Y0033000D02*
G01X0024560Y0033000D01*
G01X0024240Y0032950D02*
G01X0024240Y0032600D01*
G01X0024240Y0032950D02*
G01X0024190Y0033000D01*
G01X0024090Y0033000D02*
G01X0024190Y0033000D01*
G01X0024090Y0033000D02*
G01X0024040Y0032950D01*
G01X0024040Y0032950D02*
G01X0024040Y0032600D01*
G01X0023720Y0032600D02*
G01X0023670Y0032650D01*
G01X0023720Y0032600D02*
G01X0023870Y0032600D01*
G01X0023920Y0032650D02*
G01X0023870Y0032600D01*
G01X0023920Y0032750D02*
G01X0023920Y0032650D01*
G01X0023920Y0032750D02*
G01X0023870Y0032800D01*
G01X0023720Y0032800D02*
G01X0023870Y0032800D01*
G01X0023720Y0032800D02*
G01X0023670Y0032850D01*
G01X0023670Y0032950D02*
G01X0023670Y0032850D01*
G01X0023720Y0033000D02*
G01X0023670Y0032950D01*
G01X0023720Y0033000D02*
G01X0023870Y0033000D01*
G01X0023920Y0032950D02*
G01X0023870Y0033000D01*
G01X0008700Y0019200D02*
G01X0008700Y0019000D01*
G01X0008300Y0019100D02*
G01X0008700Y0019100D01*
G01X0008520Y0018880D02*
G01X0008520Y0018730D01*
G01X0008300Y0018880D02*
G01X0008300Y0018680D01*
G01X0008300Y0018880D02*
G01X0008700Y0018880D01*
G01X0008700Y0018880D02*
G01X0008700Y0018680D01*
G01X0008700Y0018360D02*
G01X0008650Y0018310D01*
G01X0008700Y0018510D02*
G01X0008700Y0018360D01*
G01X0008650Y0018560D02*
G01X0008700Y0018510D01*
G01X0008550Y0018560D02*
G01X0008650Y0018560D01*
G01X0008550Y0018560D02*
G01X0008500Y0018510D01*
G01X0008500Y0018510D02*
G01X0008500Y0018360D01*
G01X0008500Y0018360D02*
G01X0008450Y0018310D01*
G01X0008350Y0018310D02*
G01X0008450Y0018310D01*
G01X0008300Y0018360D02*
G01X0008350Y0018310D01*
G01X0008300Y0018510D02*
G01X0008300Y0018360D01*
G01X0008350Y0018560D02*
G01X0008300Y0018510D01*
G01X0008700Y0018190D02*
G01X0008700Y0017990D01*
G01X0008300Y0018090D02*
G01X0008700Y0018090D01*
G01X0038150Y0021100D02*
G01X0038280Y0021100D01*
G01X0038350Y0021030D02*
G01X0038280Y0021100D01*
G01X0038350Y0021030D02*
G01X0038350Y0020770D01*
G01X0038350Y0020770D02*
G01X0038280Y0020700D01*
G01X0038150Y0020700D02*
G01X0038280Y0020700D01*
G01X0038030Y0021050D02*
G01X0038030Y0020750D01*
G01X0038030Y0020750D02*
G01X0037980Y0020700D01*
G01X0037880Y0020700D02*
G01X0037980Y0020700D01*
G01X0037880Y0020700D02*
G01X0037830Y0020750D01*
G01X0037830Y0021050D02*
G01X0037830Y0020750D01*
G01X0037880Y0021100D02*
G01X0037830Y0021050D01*
G01X0037880Y0021100D02*
G01X0037980Y0021100D01*
G01X0038030Y0021050D02*
G01X0037980Y0021100D01*
G01X0037710Y0021100D02*
G01X0037710Y0020700D01*
G01X0037710Y0020700D02*
G01X0037560Y0020900D01*
G01X0037560Y0020900D02*
G01X0037410Y0020700D01*
G01X0037410Y0021100D02*
G01X0037410Y0020700D01*
G01X0037240Y0021100D02*
G01X0037240Y0020700D01*
G01X0037090Y0020700D02*
G01X0037290Y0020700D01*
G01X0037090Y0020700D02*
G01X0037040Y0020750D01*
G01X0037040Y0020850D02*
G01X0037040Y0020750D01*
G01X0037090Y0020900D02*
G01X0037040Y0020850D01*
G01X0037090Y0020900D02*
G01X0037240Y0020900D01*
G01X0036920Y0021050D02*
G01X0036920Y0020750D01*
G01X0036920Y0020750D02*
G01X0036870Y0020700D01*
G01X0036770Y0020700D02*
G01X0036870Y0020700D01*
G01X0036770Y0020700D02*
G01X0036720Y0020750D01*
G01X0036720Y0021050D02*
G01X0036720Y0020750D01*
G01X0036770Y0021100D02*
G01X0036720Y0021050D01*
G01X0036770Y0021100D02*
G01X0036870Y0021100D01*
G01X0036920Y0021050D02*
G01X0036870Y0021100D01*
G01X0036400Y0020700D02*
G01X0036350Y0020750D01*
G01X0036400Y0020700D02*
G01X0036550Y0020700D01*
G01X0036600Y0020750D02*
G01X0036550Y0020700D01*
G01X0036600Y0020850D02*
G01X0036600Y0020750D01*
G01X0036600Y0020850D02*
G01X0036550Y0020900D01*
G01X0036400Y0020900D02*
G01X0036550Y0020900D01*
G01X0036400Y0020900D02*
G01X0036350Y0020950D01*
G01X0036350Y0021050D02*
G01X0036350Y0020950D01*
G01X0036400Y0021100D02*
G01X0036350Y0021050D01*
G01X0036400Y0021100D02*
G01X0036550Y0021100D01*
G01X0036600Y0021050D02*
G01X0036550Y0021100D01*
G01X0036080Y0020880D02*
G01X0036230Y0020880D01*
G01X0036030Y0021100D02*
G01X0036230Y0021100D01*
G01X0036230Y0021100D02*
G01X0036230Y0020700D01*
G01X0036030Y0020700D02*
G01X0036230Y0020700D01*
G01X0035860Y0021100D02*
G01X0035860Y0020700D01*
G01X0035730Y0020700D02*
G01X0035660Y0020770D01*
G01X0035660Y0021030D02*
G01X0035660Y0020770D01*
G01X0035730Y0021100D02*
G01X0035660Y0021030D01*
G01X0035730Y0021100D02*
G01X0035910Y0021100D01*
G01X0035730Y0020700D02*
G01X0035910Y0020700D01*
G01X0035360Y0021050D02*
G01X0035360Y0020750D01*
G01X0035360Y0020750D02*
G01X0035310Y0020700D01*
G01X0035210Y0020700D02*
G01X0035310Y0020700D01*
G01X0035210Y0020700D02*
G01X0035160Y0020750D01*
G01X0035160Y0021050D02*
G01X0035160Y0020750D01*
G01X0035210Y0021100D02*
G01X0035160Y0021050D01*
G01X0035210Y0021100D02*
G01X0035310Y0021100D01*
G01X0035360Y0021050D02*
G01X0035310Y0021100D01*
G01X0035040Y0021100D02*
G01X0035040Y0020700D01*
G01X0034840Y0020700D02*
G01X0035040Y0020700D01*
G01X0034890Y0020880D02*
G01X0035040Y0020880D01*
G01X0034340Y0020700D02*
G01X0034540Y0020700D01*
G01X0034440Y0021100D02*
G01X0034440Y0020700D01*
G01X0034220Y0021100D02*
G01X0034220Y0020700D01*
G01X0033970Y0021100D02*
G01X0033970Y0020700D01*
G01X0033970Y0020900D02*
G01X0034220Y0020900D01*
G01X0033700Y0020880D02*
G01X0033850Y0020880D01*
G01X0033650Y0021100D02*
G01X0033850Y0021100D01*
G01X0033850Y0021100D02*
G01X0033850Y0020700D01*
G01X0033650Y0020700D02*
G01X0033850Y0020700D01*
G01X0033330Y0020700D02*
G01X0033280Y0020750D01*
G01X0033330Y0020700D02*
G01X0033480Y0020700D01*
G01X0033530Y0020750D02*
G01X0033480Y0020700D01*
G01X0033530Y0020850D02*
G01X0033530Y0020750D01*
G01X0033530Y0020850D02*
G01X0033480Y0020900D01*
G01X0033330Y0020900D02*
G01X0033480Y0020900D01*
G01X0033330Y0020900D02*
G01X0033280Y0020950D01*
G01X0033280Y0021050D02*
G01X0033280Y0020950D01*
G01X0033330Y0021100D02*
G01X0033280Y0021050D01*
G01X0033330Y0021100D02*
G01X0033480Y0021100D01*
G01X0033530Y0021050D02*
G01X0033480Y0021100D01*
G01X0033010Y0020880D02*
G01X0033160Y0020880D01*
G01X0032960Y0021100D02*
G01X0033160Y0021100D01*
G01X0033160Y0021100D02*
G01X0033160Y0020700D01*
G01X0032960Y0020700D02*
G01X0033160Y0020700D01*
G01X0032610Y0021100D02*
G01X0032610Y0020700D01*
G01X0032460Y0020700D02*
G01X0032660Y0020700D01*
G01X0032460Y0020700D02*
G01X0032410Y0020750D01*
G01X0032410Y0020850D02*
G01X0032410Y0020750D01*
G01X0032460Y0020900D02*
G01X0032410Y0020850D01*
G01X0032460Y0020900D02*
G01X0032610Y0020900D01*
G01X0032090Y0020700D02*
G01X0032290Y0020700D01*
G01X0032090Y0020700D02*
G01X0032040Y0020750D01*
G01X0032040Y0020850D02*
G01X0032040Y0020750D01*
G01X0032090Y0020900D02*
G01X0032040Y0020850D01*
G01X0032090Y0020900D02*
G01X0032240Y0020900D01*
G01X0032240Y0021100D02*
G01X0032240Y0020700D01*
G01X0032160Y0020900D02*
G01X0032040Y0021100D01*
G01X0031920Y0021050D02*
G01X0031920Y0020750D01*
G01X0031920Y0020750D02*
G01X0031870Y0020700D01*
G01X0031770Y0020700D02*
G01X0031870Y0020700D01*
G01X0031770Y0020700D02*
G01X0031720Y0020750D01*
G01X0031720Y0021050D02*
G01X0031720Y0020750D01*
G01X0031770Y0021100D02*
G01X0031720Y0021050D01*
G01X0031770Y0021100D02*
G01X0031870Y0021100D01*
G01X0031920Y0021050D02*
G01X0031870Y0021100D01*
G01X0031450Y0020700D02*
G01X0031530Y0020700D01*
G01X0031450Y0021050D02*
G01X0031450Y0020700D01*
G01X0031500Y0021100D02*
G01X0031450Y0021050D01*
G01X0031500Y0021100D02*
G01X0031550Y0021100D01*
G01X0031600Y0021050D02*
G01X0031550Y0021100D01*
G01X0031600Y0021050D02*
G01X0031600Y0021000D01*
G01X0031180Y0020880D02*
G01X0031330Y0020880D01*
G01X0031130Y0021100D02*
G01X0031330Y0021100D01*
G01X0031330Y0021100D02*
G01X0031330Y0020700D01*
G01X0031130Y0020700D02*
G01X0031330Y0020700D01*
G01X0030810Y0021100D02*
G01X0030940Y0021100D01*
G01X0031010Y0021030D02*
G01X0030940Y0021100D01*
G01X0031010Y0021030D02*
G01X0031010Y0020770D01*
G01X0031010Y0020770D02*
G01X0030940Y0020700D01*
G01X0030810Y0020700D02*
G01X0030940Y0020700D01*
G01X0030490Y0020700D02*
G01X0030690Y0020700D01*
G01X0030590Y0021100D02*
G01X0030590Y0020700D01*
G01X0030170Y0020700D02*
G01X0030120Y0020750D01*
G01X0030170Y0020700D02*
G01X0030320Y0020700D01*
G01X0030370Y0020750D02*
G01X0030320Y0020700D01*
G01X0030370Y0020850D02*
G01X0030370Y0020750D01*
G01X0030370Y0020850D02*
G01X0030320Y0020900D01*
G01X0030170Y0020900D02*
G01X0030320Y0020900D01*
G01X0030170Y0020900D02*
G01X0030120Y0020950D01*
G01X0030120Y0021050D02*
G01X0030120Y0020950D01*
G01X0030170Y0021100D02*
G01X0030120Y0021050D01*
G01X0030170Y0021100D02*
G01X0030320Y0021100D01*
G01X0030370Y0021050D02*
G01X0030320Y0021100D01*
G01X0038140Y0021800D02*
G01X0038340Y0021800D01*
G01X0038140Y0021800D02*
G01X0038090Y0021750D01*
G01X0038090Y0021750D02*
G01X0038090Y0021630D01*
G01X0038140Y0021580D02*
G01X0038090Y0021630D01*
G01X0038140Y0021580D02*
G01X0038290Y0021580D01*
G01X0038290Y0021800D02*
G01X0038290Y0021400D01*
G01X0038140Y0021400D02*
G01X0038340Y0021400D01*
G01X0038140Y0021400D02*
G01X0038090Y0021450D01*
G01X0038090Y0021530D02*
G01X0038090Y0021450D01*
G01X0038140Y0021580D02*
G01X0038090Y0021530D01*
G01X0037970Y0021510D02*
G01X0037970Y0021500D01*
G01X0037970Y0021800D02*
G01X0037970Y0021650D01*
G01X0037670Y0021400D02*
G01X0037620Y0021450D01*
G01X0037670Y0021400D02*
G01X0037820Y0021400D01*
G01X0037870Y0021450D02*
G01X0037820Y0021400D01*
G01X0037870Y0021550D02*
G01X0037870Y0021450D01*
G01X0037870Y0021550D02*
G01X0037820Y0021600D01*
G01X0037670Y0021600D02*
G01X0037820Y0021600D01*
G01X0037670Y0021600D02*
G01X0037620Y0021650D01*
G01X0037620Y0021750D02*
G01X0037620Y0021650D01*
G01X0037670Y0021800D02*
G01X0037620Y0021750D01*
G01X0037670Y0021800D02*
G01X0037820Y0021800D01*
G01X0037870Y0021750D02*
G01X0037820Y0021800D01*
G01X0037300Y0021400D02*
G01X0037500Y0021400D01*
G01X0037400Y0021800D02*
G01X0037400Y0021400D01*
G01X0037180Y0021800D02*
G01X0037180Y0021400D01*
G01X0037180Y0021400D02*
G01X0037030Y0021600D01*
G01X0037030Y0021600D02*
G01X0036880Y0021400D01*
G01X0036880Y0021800D02*
G01X0036880Y0021400D01*
G01X0036380Y0021800D02*
G01X0036510Y0021800D01*
G01X0036580Y0021730D02*
G01X0036510Y0021800D01*
G01X0036580Y0021730D02*
G01X0036580Y0021470D01*
G01X0036580Y0021470D02*
G01X0036510Y0021400D01*
G01X0036380Y0021400D02*
G01X0036510Y0021400D01*
G01X0036260Y0021800D02*
G01X0036260Y0021400D01*
G01X0036010Y0021800D02*
G01X0036010Y0021400D01*
G01X0036010Y0021600D02*
G01X0036260Y0021600D01*
G01X0035790Y0021400D02*
G01X0035890Y0021400D01*
G01X0035840Y0021800D02*
G01X0035840Y0021400D01*
G01X0035790Y0021800D02*
G01X0035890Y0021800D01*
G01X0035620Y0021800D02*
G01X0035620Y0021400D01*
G01X0035470Y0021400D02*
G01X0035670Y0021400D01*
G01X0035470Y0021400D02*
G01X0035420Y0021450D01*
G01X0035420Y0021550D02*
G01X0035420Y0021450D01*
G01X0035470Y0021600D02*
G01X0035420Y0021550D01*
G01X0035470Y0021600D02*
G01X0035620Y0021600D01*
G01X0035070Y0021800D02*
G01X0035070Y0021400D01*
G01X0034940Y0021400D02*
G01X0034870Y0021470D01*
G01X0034870Y0021730D02*
G01X0034870Y0021470D01*
G01X0034940Y0021800D02*
G01X0034870Y0021730D01*
G01X0034940Y0021800D02*
G01X0035120Y0021800D01*
G01X0034940Y0021400D02*
G01X0035120Y0021400D01*
G01X0034600Y0021580D02*
G01X0034750Y0021580D01*
G01X0034550Y0021800D02*
G01X0034750Y0021800D01*
G01X0034750Y0021800D02*
G01X0034750Y0021400D01*
G01X0034550Y0021400D02*
G01X0034750Y0021400D01*
G01X0034430Y0021400D02*
G01X0034330Y0021800D01*
G01X0034330Y0021800D02*
G01X0034230Y0021400D01*
G01X0033960Y0021580D02*
G01X0034110Y0021580D01*
G01X0033910Y0021800D02*
G01X0034110Y0021800D01*
G01X0034110Y0021800D02*
G01X0034110Y0021400D01*
G01X0033910Y0021400D02*
G01X0034110Y0021400D01*
G01X0033790Y0021800D02*
G01X0033790Y0021400D01*
G01X0033590Y0021800D02*
G01X0033790Y0021800D01*
G01X0033470Y0021750D02*
G01X0033470Y0021450D01*
G01X0033470Y0021450D02*
G01X0033420Y0021400D01*
G01X0033320Y0021400D02*
G01X0033420Y0021400D01*
G01X0033320Y0021400D02*
G01X0033270Y0021450D01*
G01X0033270Y0021750D02*
G01X0033270Y0021450D01*
G01X0033320Y0021800D02*
G01X0033270Y0021750D01*
G01X0033320Y0021800D02*
G01X0033420Y0021800D01*
G01X0033470Y0021750D02*
G01X0033420Y0021800D01*
G01X0033100Y0021800D02*
G01X0033100Y0021400D01*
G01X0032950Y0021400D02*
G01X0033150Y0021400D01*
G01X0032950Y0021400D02*
G01X0032900Y0021450D01*
G01X0032900Y0021550D02*
G01X0032900Y0021450D01*
G01X0032950Y0021600D02*
G01X0032900Y0021550D01*
G01X0032950Y0021600D02*
G01X0033100Y0021600D01*
G01X0032630Y0021580D02*
G01X0032780Y0021580D01*
G01X0032580Y0021800D02*
G01X0032780Y0021800D01*
G01X0032780Y0021800D02*
G01X0032780Y0021400D01*
G01X0032580Y0021400D02*
G01X0032780Y0021400D01*
G01X0032410Y0021800D02*
G01X0032410Y0021400D01*
G01X0032280Y0021400D02*
G01X0032210Y0021470D01*
G01X0032210Y0021730D02*
G01X0032210Y0021470D01*
G01X0032280Y0021800D02*
G01X0032210Y0021730D01*
G01X0032280Y0021800D02*
G01X0032460Y0021800D01*
G01X0032280Y0021400D02*
G01X0032460Y0021400D01*
G01X0031710Y0021800D02*
G01X0031910Y0021800D01*
G01X0031710Y0021800D02*
G01X0031660Y0021750D01*
G01X0031660Y0021750D02*
G01X0031660Y0021630D01*
G01X0031710Y0021580D02*
G01X0031660Y0021630D01*
G01X0031710Y0021580D02*
G01X0031860Y0021580D01*
G01X0031860Y0021800D02*
G01X0031860Y0021400D01*
G01X0031710Y0021400D02*
G01X0031910Y0021400D01*
G01X0031710Y0021400D02*
G01X0031660Y0021450D01*
G01X0031660Y0021530D02*
G01X0031660Y0021450D01*
G01X0031710Y0021580D02*
G01X0031660Y0021530D01*
G01X0031540Y0021400D02*
G01X0031440Y0021600D01*
G01X0031440Y0021600D02*
G01X0031340Y0021400D01*
G01X0031440Y0021800D02*
G01X0031440Y0021600D01*
G01X0030840Y0021400D02*
G01X0030790Y0021450D01*
G01X0030840Y0021400D02*
G01X0030990Y0021400D01*
G01X0031040Y0021450D02*
G01X0030990Y0021400D01*
G01X0031040Y0021550D02*
G01X0031040Y0021450D01*
G01X0031040Y0021550D02*
G01X0030990Y0021600D01*
G01X0030840Y0021600D02*
G01X0030990Y0021600D01*
G01X0030840Y0021600D02*
G01X0030790Y0021650D01*
G01X0030790Y0021750D02*
G01X0030790Y0021650D01*
G01X0030840Y0021800D02*
G01X0030790Y0021750D01*
G01X0030840Y0021800D02*
G01X0030990Y0021800D01*
G01X0031040Y0021750D02*
G01X0030990Y0021800D01*
G01X0030670Y0021750D02*
G01X0030670Y0021450D01*
G01X0030670Y0021450D02*
G01X0030620Y0021400D01*
G01X0030520Y0021400D02*
G01X0030620Y0021400D01*
G01X0030520Y0021400D02*
G01X0030470Y0021450D01*
G01X0030470Y0021750D02*
G01X0030470Y0021450D01*
G01X0030520Y0021800D02*
G01X0030470Y0021750D01*
G01X0030520Y0021800D02*
G01X0030620Y0021800D01*
G01X0030670Y0021750D02*
G01X0030620Y0021800D01*
G01X0030350Y0021800D02*
G01X0030350Y0021400D01*
G01X0030350Y0021400D02*
G01X0030100Y0021800D01*
G01X0030100Y0021800D02*
G01X0030100Y0021400D01*
G01X0029780Y0021400D02*
G01X0029730Y0021450D01*
G01X0029780Y0021400D02*
G01X0029930Y0021400D01*
G01X0029980Y0021450D02*
G01X0029930Y0021400D01*
G01X0029980Y0021750D02*
G01X0029980Y0021450D01*
G01X0029980Y0021750D02*
G01X0029930Y0021800D01*
G01X0029780Y0021800D02*
G01X0029930Y0021800D01*
G01X0029780Y0021800D02*
G01X0029730Y0021750D01*
G01X0029730Y0021750D02*
G01X0029730Y0021650D01*
G01X0029780Y0021600D02*
G01X0029730Y0021650D01*
G01X0029780Y0021600D02*
G01X0029880Y0021600D01*
G01X0029230Y0021400D02*
G01X0029180Y0021450D01*
G01X0029230Y0021400D02*
G01X0029380Y0021400D01*
G01X0029430Y0021450D02*
G01X0029380Y0021400D01*
G01X0029430Y0021750D02*
G01X0029430Y0021450D01*
G01X0029430Y0021750D02*
G01X0029380Y0021800D01*
G01X0029230Y0021800D02*
G01X0029380Y0021800D01*
G01X0029230Y0021800D02*
G01X0029180Y0021750D01*
G01X0029180Y0021750D02*
G01X0029180Y0021650D01*
G01X0029230Y0021600D02*
G01X0029180Y0021650D01*
G01X0029230Y0021600D02*
G01X0029330Y0021600D01*
G01X0029060Y0021750D02*
G01X0029060Y0021400D01*
G01X0029060Y0021750D02*
G01X0029010Y0021800D01*
G01X0028910Y0021800D02*
G01X0029010Y0021800D01*
G01X0028910Y0021800D02*
G01X0028860Y0021750D01*
G01X0028860Y0021750D02*
G01X0028860Y0021400D01*
G01X0028740Y0021750D02*
G01X0028740Y0021450D01*
G01X0028740Y0021450D02*
G01X0028690Y0021400D01*
G01X0028590Y0021400D02*
G01X0028690Y0021400D01*
G01X0028590Y0021400D02*
G01X0028540Y0021450D01*
G01X0028540Y0021750D02*
G01X0028540Y0021450D01*
G01X0028590Y0021800D02*
G01X0028540Y0021750D01*
G01X0028590Y0021800D02*
G01X0028690Y0021800D01*
G01X0028740Y0021750D02*
G01X0028690Y0021800D01*
G01X0042500Y0019500D02*
G01X0042500Y0019100D01*
G01X0042350Y0019100D02*
G01X0042550Y0019100D01*
G01X0042350Y0019100D02*
G01X0042300Y0019150D01*
G01X0042300Y0019250D02*
G01X0042300Y0019150D01*
G01X0042350Y0019300D02*
G01X0042300Y0019250D01*
G01X0042350Y0019300D02*
G01X0042500Y0019300D01*
G01X0042180Y0019450D02*
G01X0042180Y0019150D01*
G01X0042180Y0019150D02*
G01X0042130Y0019100D01*
G01X0042030Y0019100D02*
G01X0042130Y0019100D01*
G01X0042030Y0019100D02*
G01X0041980Y0019150D01*
G01X0041980Y0019450D02*
G01X0041980Y0019150D01*
G01X0042030Y0019500D02*
G01X0041980Y0019450D01*
G01X0042030Y0019500D02*
G01X0042130Y0019500D01*
G01X0042180Y0019450D02*
G01X0042130Y0019500D01*
G01X0041860Y0019300D02*
G01X0041860Y0019100D01*
G01X0041860Y0019300D02*
G01X0041810Y0019500D01*
G01X0041810Y0019500D02*
G01X0041710Y0019300D01*
G01X0041710Y0019300D02*
G01X0041610Y0019500D01*
G01X0041610Y0019500D02*
G01X0041560Y0019300D01*
G01X0041560Y0019300D02*
G01X0041560Y0019100D01*
G01X0041290Y0019280D02*
G01X0041440Y0019280D01*
G01X0041240Y0019500D02*
G01X0041440Y0019500D01*
G01X0041440Y0019500D02*
G01X0041440Y0019100D01*
G01X0041240Y0019100D02*
G01X0041440Y0019100D01*
G01X0040920Y0019100D02*
G01X0041120Y0019100D01*
G01X0040920Y0019100D02*
G01X0040870Y0019150D01*
G01X0040870Y0019250D02*
G01X0040870Y0019150D01*
G01X0040920Y0019300D02*
G01X0040870Y0019250D01*
G01X0040920Y0019300D02*
G01X0041070Y0019300D01*
G01X0041070Y0019500D02*
G01X0041070Y0019100D01*
G01X0040990Y0019300D02*
G01X0040870Y0019500D01*
G01X0033510Y0013950D02*
G01X0033460Y0014000D01*
G01X0033510Y0013950D02*
G01X0033660Y0013950D01*
G01X0033710Y0014000D02*
G01X0033660Y0013950D01*
G01X0033710Y0014100D02*
G01X0033710Y0014000D01*
G01X0033710Y0014100D02*
G01X0033660Y0014150D01*
G01X0033510Y0014150D02*
G01X0033660Y0014150D01*
G01X0033510Y0014150D02*
G01X0033460Y0014200D01*
G01X0033460Y0014300D02*
G01X0033460Y0014200D01*
G01X0033510Y0014350D02*
G01X0033460Y0014300D01*
G01X0033510Y0014350D02*
G01X0033660Y0014350D01*
G01X0033710Y0014300D02*
G01X0033660Y0014350D01*
G01X0033140Y0013950D02*
G01X0033340Y0013950D01*
G01X0033240Y0014350D02*
G01X0033240Y0013950D01*
G01X0033020Y0014350D02*
G01X0033020Y0014050D01*
G01X0033020Y0014050D02*
G01X0032950Y0013950D01*
G01X0032840Y0013950D02*
G01X0032950Y0013950D01*
G01X0032840Y0013950D02*
G01X0032770Y0014050D01*
G01X0032770Y0014350D02*
G01X0032770Y0014050D01*
G01X0032770Y0014150D02*
G01X0033020Y0014150D01*
G01X0032450Y0013950D02*
G01X0032650Y0013950D01*
G01X0032550Y0014350D02*
G01X0032550Y0013950D01*
G01X0032330Y0014300D02*
G01X0032330Y0013950D01*
G01X0032330Y0014300D02*
G01X0032280Y0014350D01*
G01X0032180Y0014350D02*
G01X0032280Y0014350D01*
G01X0032180Y0014350D02*
G01X0032130Y0014300D01*
G01X0032130Y0014300D02*
G01X0032130Y0013950D01*
G01X0031810Y0013950D02*
G01X0031760Y0014000D01*
G01X0031810Y0013950D02*
G01X0031960Y0013950D01*
G01X0032010Y0014000D02*
G01X0031960Y0013950D01*
G01X0032010Y0014100D02*
G01X0032010Y0014000D01*
G01X0032010Y0014100D02*
G01X0031960Y0014150D01*
G01X0031810Y0014150D02*
G01X0031960Y0014150D01*
G01X0031810Y0014150D02*
G01X0031760Y0014200D01*
G01X0031760Y0014300D02*
G01X0031760Y0014200D01*
G01X0031810Y0014350D02*
G01X0031760Y0014300D01*
G01X0031810Y0014350D02*
G01X0031960Y0014350D01*
G01X0032010Y0014300D02*
G01X0031960Y0014350D01*
G01X0030900Y0014000D02*
G01X0030900Y0013650D01*
G01X0030900Y0014000D02*
G01X0030850Y0014050D01*
G01X0030750Y0014050D02*
G01X0030850Y0014050D01*
G01X0030750Y0014050D02*
G01X0030700Y0014000D01*
G01X0030700Y0014000D02*
G01X0030700Y0013650D01*
G01X0030380Y0013650D02*
G01X0030580Y0013650D01*
G01X0030480Y0014050D02*
G01X0030480Y0013650D01*
G01X0030210Y0014050D02*
G01X0030210Y0013650D01*
G01X0030080Y0013650D02*
G01X0030010Y0013720D01*
G01X0030010Y0013980D02*
G01X0030010Y0013720D01*
G01X0030080Y0014050D02*
G01X0030010Y0013980D01*
G01X0030080Y0014050D02*
G01X0030260Y0014050D01*
G01X0030080Y0013650D02*
G01X0030260Y0013650D01*
G01X0029690Y0013850D02*
G01X0029890Y0013850D01*
G01X0029370Y0013650D02*
G01X0029570Y0013650D01*
G01X0029370Y0013650D02*
G01X0029320Y0013700D01*
G01X0029320Y0013800D02*
G01X0029320Y0013700D01*
G01X0029370Y0013850D02*
G01X0029320Y0013800D01*
G01X0029370Y0013850D02*
G01X0029520Y0013850D01*
G01X0029520Y0014050D02*
G01X0029520Y0013650D01*
G01X0029440Y0013850D02*
G01X0029320Y0014050D01*
G01X0029050Y0013830D02*
G01X0029200Y0013830D01*
G01X0029000Y0014050D02*
G01X0029200Y0014050D01*
G01X0029200Y0014050D02*
G01X0029200Y0013650D01*
G01X0029000Y0013650D02*
G01X0029200Y0013650D01*
G01X0028680Y0013650D02*
G01X0028630Y0013700D01*
G01X0028680Y0013650D02*
G01X0028830Y0013650D01*
G01X0028880Y0013700D02*
G01X0028830Y0013650D01*
G01X0028880Y0013800D02*
G01X0028880Y0013700D01*
G01X0028880Y0013800D02*
G01X0028830Y0013850D01*
G01X0028680Y0013850D02*
G01X0028830Y0013850D01*
G01X0028680Y0013850D02*
G01X0028630Y0013900D01*
G01X0028630Y0014000D02*
G01X0028630Y0013900D01*
G01X0028680Y0014050D02*
G01X0028630Y0014000D01*
G01X0028680Y0014050D02*
G01X0028830Y0014050D01*
G01X0028880Y0014000D02*
G01X0028830Y0014050D01*
G01X0028360Y0013830D02*
G01X0028510Y0013830D01*
G01X0028310Y0014050D02*
G01X0028510Y0014050D01*
G01X0028510Y0014050D02*
G01X0028510Y0013650D01*
G01X0028310Y0013650D02*
G01X0028510Y0013650D01*
G01X0027990Y0013650D02*
G01X0028190Y0013650D01*
G01X0028090Y0014050D02*
G01X0028090Y0013650D01*
G01X0024250Y0014900D02*
G01X0024350Y0014900D01*
G01X0024300Y0015300D02*
G01X0024300Y0014900D01*
G01X0024250Y0015300D02*
G01X0024350Y0015300D01*
G01X0024130Y0015250D02*
G01X0023830Y0014950D01*
G01X0023710Y0015250D02*
G01X0023710Y0014950D01*
G01X0023710Y0014950D02*
G01X0023660Y0014900D01*
G01X0023560Y0014900D02*
G01X0023660Y0014900D01*
G01X0023560Y0014900D02*
G01X0023510Y0014950D01*
G01X0023510Y0015250D02*
G01X0023510Y0014950D01*
G01X0023560Y0015300D02*
G01X0023510Y0015250D01*
G01X0023560Y0015300D02*
G01X0023660Y0015300D01*
G01X0023710Y0015250D02*
G01X0023660Y0015300D01*
G01X0012300Y0015400D02*
G01X0012300Y0015200D01*
G01X0012300Y0015200D02*
G01X0012250Y0015150D01*
G01X0012150Y0015150D02*
G01X0012250Y0015150D01*
G01X0012100Y0015200D02*
G01X0012150Y0015150D01*
G01X0012100Y0015350D02*
G01X0012100Y0015200D01*
G01X0011900Y0015350D02*
G01X0012300Y0015350D01*
G01X0012100Y0015270D02*
G01X0011900Y0015150D01*
G01X0012120Y0015030D02*
G01X0012120Y0014880D01*
G01X0011900Y0015030D02*
G01X0011900Y0014830D01*
G01X0011900Y0015030D02*
G01X0012300Y0015030D01*
G01X0012300Y0015030D02*
G01X0012300Y0014830D01*
G01X0012300Y0014510D02*
G01X0012250Y0014460D01*
G01X0012300Y0014660D02*
G01X0012300Y0014510D01*
G01X0012250Y0014710D02*
G01X0012300Y0014660D01*
G01X0012150Y0014710D02*
G01X0012250Y0014710D01*
G01X0012150Y0014710D02*
G01X0012100Y0014660D01*
G01X0012100Y0014660D02*
G01X0012100Y0014510D01*
G01X0012100Y0014510D02*
G01X0012050Y0014460D01*
G01X0011950Y0014460D02*
G01X0012050Y0014460D01*
G01X0011900Y0014510D02*
G01X0011950Y0014460D01*
G01X0011900Y0014660D02*
G01X0011900Y0014510D01*
G01X0011950Y0014710D02*
G01X0011900Y0014660D01*
G01X0012120Y0014340D02*
G01X0012120Y0014190D01*
G01X0011900Y0014340D02*
G01X0011900Y0014140D01*
G01X0011900Y0014340D02*
G01X0012300Y0014340D01*
G01X0012300Y0014340D02*
G01X0012300Y0014140D01*
G01X0012300Y0014020D02*
G01X0012300Y0013820D01*
G01X0011900Y0013920D02*
G01X0012300Y0013920D01*
G01X0038350Y0025200D02*
G01X0038350Y0024900D01*
G01X0038350Y0025200D02*
G01X0038250Y0025300D01*
G01X0037950Y0025300D02*
G01X0038250Y0025300D01*
G01X0037850Y0025150D02*
G01X0037850Y0024900D01*
G01X0037850Y0024900D02*
G01X0037950Y0024800D01*
G01X0037950Y0024800D02*
G01X0038250Y0024800D01*
G01X0038250Y0024800D02*
G01X0038350Y0024900D01*
G01X0038200Y0025100D02*
G01X0038200Y0025000D01*
G01X0038200Y0025100D02*
G01X0038150Y0025150D01*
G01X0038050Y0025150D02*
G01X0038150Y0025150D01*
G01X0038050Y0025150D02*
G01X0038000Y0025100D01*
G01X0038000Y0025100D02*
G01X0037950Y0025150D01*
G01X0038000Y0025100D02*
G01X0038000Y0024950D01*
G01X0038000Y0025000D02*
G01X0038050Y0024950D01*
G01X0038050Y0024950D02*
G01X0038150Y0024950D01*
G01X0038150Y0024950D02*
G01X0038200Y0025000D01*
G01X0037850Y0025150D02*
G01X0037950Y0025150D01*
G01X0037400Y0025080D02*
G01X0037550Y0025080D01*
G01X0037350Y0025300D02*
G01X0037550Y0025300D01*
G01X0037550Y0025300D02*
G01X0037550Y0024900D01*
G01X0037350Y0024900D02*
G01X0037550Y0024900D01*
G01X0037180Y0025300D02*
G01X0037180Y0024900D01*
G01X0037030Y0024900D02*
G01X0037230Y0024900D01*
G01X0037030Y0024900D02*
G01X0036980Y0024950D01*
G01X0036980Y0025050D02*
G01X0036980Y0024950D01*
G01X0037030Y0025100D02*
G01X0036980Y0025050D01*
G01X0037030Y0025100D02*
G01X0037180Y0025100D01*
G01X0036860Y0025300D02*
G01X0036860Y0024900D01*
G01X0036660Y0025300D02*
G01X0036860Y0025300D01*
G01X0036360Y0025250D02*
G01X0036310Y0025300D01*
G01X0036360Y0024950D02*
G01X0036310Y0024900D01*
G01X0036360Y0025250D02*
G01X0036360Y0024950D01*
G01X0036040Y0025080D02*
G01X0036190Y0025080D01*
G01X0035990Y0025300D02*
G01X0036190Y0025300D01*
G01X0036190Y0025300D02*
G01X0036190Y0024900D01*
G01X0035990Y0024900D02*
G01X0036190Y0024900D01*
G01X0035870Y0025300D02*
G01X0035870Y0025000D01*
G01X0035870Y0025000D02*
G01X0035800Y0024900D01*
G01X0035690Y0024900D02*
G01X0035800Y0024900D01*
G01X0035690Y0024900D02*
G01X0035620Y0025000D01*
G01X0035620Y0025300D02*
G01X0035620Y0025000D01*
G01X0035620Y0025100D02*
G01X0035870Y0025100D01*
G01X0035300Y0024900D02*
G01X0035500Y0024900D01*
G01X0035400Y0025300D02*
G01X0035400Y0024900D01*
G01X0035180Y0025250D02*
G01X0035180Y0024950D01*
G01X0035180Y0024950D02*
G01X0035130Y0024900D01*
G01X0035030Y0024900D02*
G01X0035130Y0024900D01*
G01X0035030Y0024900D02*
G01X0034980Y0024950D01*
G01X0034980Y0025250D02*
G01X0034980Y0024950D01*
G01X0035030Y0025300D02*
G01X0034980Y0025250D01*
G01X0035030Y0025300D02*
G01X0035130Y0025300D01*
G01X0035180Y0025250D02*
G01X0035130Y0025300D01*
G01X0034860Y0025300D02*
G01X0034860Y0024900D01*
G01X0034860Y0024900D02*
G01X0034610Y0025300D01*
G01X0034610Y0025300D02*
G01X0034610Y0024900D01*
G01X0034260Y0025300D02*
G01X0034260Y0024900D01*
G01X0034110Y0024900D02*
G01X0034310Y0024900D01*
G01X0034110Y0024900D02*
G01X0034060Y0024950D01*
G01X0034060Y0025050D02*
G01X0034060Y0024950D01*
G01X0034110Y0025100D02*
G01X0034060Y0025050D01*
G01X0034110Y0025100D02*
G01X0034260Y0025100D01*
G01X0033790Y0025080D02*
G01X0033940Y0025080D01*
G01X0033740Y0025300D02*
G01X0033940Y0025300D01*
G01X0033940Y0025300D02*
G01X0033940Y0024900D01*
G01X0033740Y0024900D02*
G01X0033940Y0024900D01*
G01X0033620Y0025300D02*
G01X0033620Y0025000D01*
G01X0033620Y0025000D02*
G01X0033550Y0024900D01*
G01X0033440Y0024900D02*
G01X0033550Y0024900D01*
G01X0033440Y0024900D02*
G01X0033370Y0025000D01*
G01X0033370Y0025300D02*
G01X0033370Y0025000D01*
G01X0033370Y0025100D02*
G01X0033620Y0025100D01*
G01X0033050Y0025300D02*
G01X0033250Y0025300D01*
G01X0033050Y0025300D02*
G01X0033000Y0025250D01*
G01X0033000Y0025250D02*
G01X0033000Y0025130D01*
G01X0033050Y0025080D02*
G01X0033000Y0025130D01*
G01X0033050Y0025080D02*
G01X0033200Y0025080D01*
G01X0033200Y0025300D02*
G01X0033200Y0024900D01*
G01X0033050Y0024900D02*
G01X0033250Y0024900D01*
G01X0033050Y0024900D02*
G01X0033000Y0024950D01*
G01X0033000Y0025030D02*
G01X0033000Y0024950D01*
G01X0033050Y0025080D02*
G01X0033000Y0025030D01*
G01X0032880Y0025250D02*
G01X0032880Y0024950D01*
G01X0032880Y0024950D02*
G01X0032830Y0024900D01*
G01X0032730Y0024900D02*
G01X0032830Y0024900D01*
G01X0032730Y0024900D02*
G01X0032680Y0024950D01*
G01X0032680Y0025250D02*
G01X0032680Y0024950D01*
G01X0032730Y0025300D02*
G01X0032680Y0025250D01*
G01X0032730Y0025300D02*
G01X0032830Y0025300D01*
G01X0032880Y0025250D02*
G01X0032830Y0025300D01*
G01X0032510Y0025300D02*
G01X0032510Y0024900D01*
G01X0032380Y0024900D02*
G01X0032310Y0024970D01*
G01X0032310Y0025230D02*
G01X0032310Y0024970D01*
G01X0032380Y0025300D02*
G01X0032310Y0025230D01*
G01X0032380Y0025300D02*
G01X0032560Y0025300D01*
G01X0032380Y0024900D02*
G01X0032560Y0024900D01*
G01X0032190Y0024900D02*
G01X0032090Y0025100D01*
G01X0032090Y0025100D02*
G01X0031990Y0024900D01*
G01X0032090Y0025300D02*
G01X0032090Y0025100D01*
G01X0031690Y0025300D02*
G01X0031690Y0024900D01*
G01X0031490Y0025300D02*
G01X0031690Y0025300D01*
G01X0031370Y0025300D02*
G01X0031370Y0025000D01*
G01X0031370Y0025000D02*
G01X0031300Y0024900D01*
G01X0031190Y0024900D02*
G01X0031300Y0024900D01*
G01X0031190Y0024900D02*
G01X0031120Y0025000D01*
G01X0031120Y0025300D02*
G01X0031120Y0025000D01*
G01X0031120Y0025100D02*
G01X0031370Y0025100D01*
G01X0030800Y0025300D02*
G01X0031000Y0025300D01*
G01X0030800Y0025300D02*
G01X0030750Y0025250D01*
G01X0030750Y0025250D02*
G01X0030750Y0025130D01*
G01X0030800Y0025080D02*
G01X0030750Y0025130D01*
G01X0030800Y0025080D02*
G01X0030950Y0025080D01*
G01X0030950Y0025300D02*
G01X0030950Y0024900D01*
G01X0030800Y0024900D02*
G01X0031000Y0024900D01*
G01X0030800Y0024900D02*
G01X0030750Y0024950D01*
G01X0030750Y0025030D02*
G01X0030750Y0024950D01*
G01X0030800Y0025080D02*
G01X0030750Y0025030D01*
G01X0030630Y0024900D02*
G01X0030580Y0024950D01*
G01X0030580Y0025250D02*
G01X0030580Y0024950D01*
G01X0030630Y0025300D02*
G01X0030580Y0025250D01*
G01X0038250Y0024200D02*
G01X0038350Y0024200D01*
G01X0038300Y0024600D02*
G01X0038300Y0024200D01*
G01X0038250Y0024600D02*
G01X0038350Y0024600D01*
G01X0038130Y0024600D02*
G01X0038130Y0024200D01*
G01X0038130Y0024200D02*
G01X0037880Y0024600D01*
G01X0037880Y0024600D02*
G01X0037880Y0024200D01*
G01X0037380Y0024600D02*
G01X0037510Y0024600D01*
G01X0037580Y0024530D02*
G01X0037510Y0024600D01*
G01X0037580Y0024530D02*
G01X0037580Y0024270D01*
G01X0037580Y0024270D02*
G01X0037510Y0024200D01*
G01X0037380Y0024200D02*
G01X0037510Y0024200D01*
G01X0037260Y0024550D02*
G01X0037260Y0024250D01*
G01X0037260Y0024250D02*
G01X0037210Y0024200D01*
G01X0037110Y0024200D02*
G01X0037210Y0024200D01*
G01X0037110Y0024200D02*
G01X0037060Y0024250D01*
G01X0037060Y0024550D02*
G01X0037060Y0024250D01*
G01X0037110Y0024600D02*
G01X0037060Y0024550D01*
G01X0037110Y0024600D02*
G01X0037210Y0024600D01*
G01X0037260Y0024550D02*
G01X0037210Y0024600D01*
G01X0036940Y0024550D02*
G01X0036940Y0024250D01*
G01X0036940Y0024250D02*
G01X0036890Y0024200D01*
G01X0036790Y0024200D02*
G01X0036890Y0024200D01*
G01X0036790Y0024200D02*
G01X0036740Y0024250D01*
G01X0036740Y0024550D02*
G01X0036740Y0024250D01*
G01X0036790Y0024600D02*
G01X0036740Y0024550D01*
G01X0036790Y0024600D02*
G01X0036890Y0024600D01*
G01X0036940Y0024550D02*
G01X0036890Y0024600D01*
G01X0036420Y0024200D02*
G01X0036620Y0024200D01*
G01X0036420Y0024200D02*
G01X0036370Y0024250D01*
G01X0036370Y0024350D02*
G01X0036370Y0024250D01*
G01X0036420Y0024400D02*
G01X0036370Y0024350D01*
G01X0036420Y0024400D02*
G01X0036570Y0024400D01*
G01X0036570Y0024600D02*
G01X0036570Y0024200D01*
G01X0036490Y0024400D02*
G01X0036370Y0024600D01*
G01X0036200Y0024600D02*
G01X0036200Y0024200D01*
G01X0036070Y0024200D02*
G01X0036000Y0024270D01*
G01X0036000Y0024530D02*
G01X0036000Y0024270D01*
G01X0036070Y0024600D02*
G01X0036000Y0024530D01*
G01X0036070Y0024600D02*
G01X0036250Y0024600D01*
G01X0036070Y0024200D02*
G01X0036250Y0024200D01*
G01X0035780Y0024200D02*
G01X0035880Y0024200D01*
G01X0035830Y0024600D02*
G01X0035830Y0024200D01*
G01X0035780Y0024600D02*
G01X0035880Y0024600D01*
G01X0035660Y0024600D02*
G01X0035660Y0024200D01*
G01X0035660Y0024200D02*
G01X0035410Y0024600D01*
G01X0035410Y0024600D02*
G01X0035410Y0024200D01*
G01X0035290Y0024600D02*
G01X0035290Y0024300D01*
G01X0035290Y0024300D02*
G01X0035220Y0024200D01*
G01X0035110Y0024200D02*
G01X0035220Y0024200D01*
G01X0035110Y0024200D02*
G01X0035040Y0024300D01*
G01X0035040Y0024600D02*
G01X0035040Y0024300D01*
G01X0035040Y0024400D02*
G01X0035290Y0024400D01*
G01X0034720Y0024200D02*
G01X0034920Y0024200D01*
G01X0034820Y0024600D02*
G01X0034820Y0024200D01*
G01X0034500Y0024200D02*
G01X0034600Y0024200D01*
G01X0034550Y0024600D02*
G01X0034550Y0024200D01*
G01X0034500Y0024600D02*
G01X0034600Y0024600D01*
G01X0034380Y0024550D02*
G01X0034380Y0024250D01*
G01X0034380Y0024250D02*
G01X0034330Y0024200D01*
G01X0034230Y0024200D02*
G01X0034330Y0024200D01*
G01X0034230Y0024200D02*
G01X0034180Y0024250D01*
G01X0034180Y0024550D02*
G01X0034180Y0024250D01*
G01X0034230Y0024600D02*
G01X0034180Y0024550D01*
G01X0034230Y0024600D02*
G01X0034330Y0024600D01*
G01X0034380Y0024550D02*
G01X0034330Y0024600D01*
G01X0034060Y0024600D02*
G01X0034060Y0024200D01*
G01X0034060Y0024200D02*
G01X0033810Y0024600D01*
G01X0033810Y0024600D02*
G01X0033810Y0024200D01*
G01X0033510Y0024400D02*
G01X0033510Y0024200D01*
G01X0033510Y0024400D02*
G01X0033460Y0024600D01*
G01X0033460Y0024600D02*
G01X0033360Y0024400D01*
G01X0033360Y0024400D02*
G01X0033260Y0024600D01*
G01X0033260Y0024600D02*
G01X0033210Y0024400D01*
G01X0033210Y0024400D02*
G01X0033210Y0024200D01*
G01X0032990Y0024200D02*
G01X0033090Y0024200D01*
G01X0033040Y0024600D02*
G01X0033040Y0024200D01*
G01X0032990Y0024600D02*
G01X0033090Y0024600D01*
G01X0032670Y0024200D02*
G01X0032870Y0024200D01*
G01X0032770Y0024600D02*
G01X0032770Y0024200D01*
G01X0032550Y0024600D02*
G01X0032550Y0024200D01*
G01X0032300Y0024600D02*
G01X0032300Y0024200D01*
G01X0032300Y0024400D02*
G01X0032550Y0024400D01*
G01X0031850Y0024380D02*
G01X0032000Y0024380D01*
G01X0031800Y0024600D02*
G01X0032000Y0024600D01*
G01X0032000Y0024600D02*
G01X0032000Y0024200D01*
G01X0031800Y0024200D02*
G01X0032000Y0024200D01*
G01X0031680Y0024200D02*
G01X0031580Y0024600D01*
G01X0031580Y0024600D02*
G01X0031480Y0024200D01*
G01X0031360Y0024600D02*
G01X0031360Y0024300D01*
G01X0031360Y0024300D02*
G01X0031290Y0024200D01*
G01X0031180Y0024200D02*
G01X0031290Y0024200D01*
G01X0031180Y0024200D02*
G01X0031110Y0024300D01*
G01X0031110Y0024600D02*
G01X0031110Y0024300D01*
G01X0031110Y0024400D02*
G01X0031360Y0024400D01*
G01X0030990Y0024600D02*
G01X0030990Y0024200D01*
G01X0030990Y0024200D02*
G01X0030740Y0024600D01*
G01X0030740Y0024600D02*
G01X0030740Y0024200D01*
G01X0030440Y0024600D02*
G01X0030440Y0024200D01*
G01X0030240Y0024200D02*
G01X0030440Y0024200D01*
G01X0030290Y0024380D02*
G01X0030440Y0024380D01*
G01X0030120Y0024550D02*
G01X0030120Y0024250D01*
G01X0030120Y0024250D02*
G01X0030070Y0024200D01*
G01X0029970Y0024200D02*
G01X0030070Y0024200D01*
G01X0029970Y0024200D02*
G01X0029920Y0024250D01*
G01X0029920Y0024550D02*
G01X0029920Y0024250D01*
G01X0029970Y0024600D02*
G01X0029920Y0024550D01*
G01X0029970Y0024600D02*
G01X0030070Y0024600D01*
G01X0030120Y0024550D02*
G01X0030070Y0024600D01*
G01X0029600Y0024200D02*
G01X0029550Y0024250D01*
G01X0029600Y0024200D02*
G01X0029750Y0024200D01*
G01X0029800Y0024250D02*
G01X0029750Y0024200D01*
G01X0029800Y0024350D02*
G01X0029800Y0024250D01*
G01X0029800Y0024350D02*
G01X0029750Y0024400D01*
G01X0029600Y0024400D02*
G01X0029750Y0024400D01*
G01X0029600Y0024400D02*
G01X0029550Y0024450D01*
G01X0029550Y0024550D02*
G01X0029550Y0024450D01*
G01X0029600Y0024600D02*
G01X0029550Y0024550D01*
G01X0029600Y0024600D02*
G01X0029750Y0024600D01*
G01X0029800Y0024550D02*
G01X0029750Y0024600D01*
G01X0029230Y0024200D02*
G01X0029180Y0024250D01*
G01X0029230Y0024200D02*
G01X0029380Y0024200D01*
G01X0029430Y0024250D02*
G01X0029380Y0024200D01*
G01X0029430Y0024350D02*
G01X0029430Y0024250D01*
G01X0029430Y0024350D02*
G01X0029380Y0024400D01*
G01X0029230Y0024400D02*
G01X0029380Y0024400D01*
G01X0029230Y0024400D02*
G01X0029180Y0024450D01*
G01X0029180Y0024550D02*
G01X0029180Y0024450D01*
G01X0029230Y0024600D02*
G01X0029180Y0024550D01*
G01X0029230Y0024600D02*
G01X0029380Y0024600D01*
G01X0029430Y0024550D02*
G01X0029380Y0024600D01*
G01X0038255Y0025595D02*
G01X0038355Y0025595D01*
G01X0038305Y0025995D02*
G01X0038305Y0025595D01*
G01X0038255Y0025995D02*
G01X0038355Y0025995D01*
G01X0038135Y0025995D02*
G01X0038135Y0025595D01*
G01X0038135Y0025595D02*
G01X0037985Y0025795D01*
G01X0037985Y0025795D02*
G01X0037835Y0025595D01*
G01X0037835Y0025995D02*
G01X0037835Y0025595D01*
G01X0037665Y0025995D02*
G01X0037665Y0025595D01*
G01X0037515Y0025595D02*
G01X0037715Y0025595D01*
G01X0037515Y0025595D02*
G01X0037465Y0025645D01*
G01X0037465Y0025745D02*
G01X0037465Y0025645D01*
G01X0037515Y0025795D02*
G01X0037465Y0025745D01*
G01X0037515Y0025795D02*
G01X0037665Y0025795D01*
G01X0037345Y0025995D02*
G01X0037345Y0025595D01*
G01X0037145Y0025995D02*
G01X0037345Y0025995D01*
G01X0037025Y0025995D02*
G01X0037025Y0025695D01*
G01X0037025Y0025695D02*
G01X0036955Y0025595D01*
G01X0036845Y0025595D02*
G01X0036955Y0025595D01*
G01X0036845Y0025595D02*
G01X0036775Y0025695D01*
G01X0036775Y0025995D02*
G01X0036775Y0025695D01*
G01X0036775Y0025795D02*
G01X0037025Y0025795D01*
G01X0036655Y0025995D02*
G01X0036655Y0025595D01*
G01X0036655Y0025595D02*
G01X0036405Y0025995D01*
G01X0036405Y0025995D02*
G01X0036405Y0025595D01*
G01X0036085Y0025595D02*
G01X0036285Y0025595D01*
G01X0036185Y0025995D02*
G01X0036185Y0025595D01*
G01X0035735Y0025995D02*
G01X0035735Y0025595D01*
G01X0035585Y0025595D02*
G01X0035785Y0025595D01*
G01X0035585Y0025595D02*
G01X0035535Y0025645D01*
G01X0035535Y0025745D02*
G01X0035535Y0025645D01*
G01X0035585Y0025795D02*
G01X0035535Y0025745D01*
G01X0035585Y0025795D02*
G01X0035735Y0025795D01*
G01X0035215Y0025595D02*
G01X0035415Y0025595D01*
G01X0035215Y0025595D02*
G01X0035165Y0025645D01*
G01X0035165Y0025745D02*
G01X0035165Y0025645D01*
G01X0035215Y0025795D02*
G01X0035165Y0025745D01*
G01X0035215Y0025795D02*
G01X0035365Y0025795D01*
G01X0035365Y0025995D02*
G01X0035365Y0025595D01*
G01X0035285Y0025795D02*
G01X0035165Y0025995D01*
G01X0035045Y0025945D02*
G01X0035045Y0025645D01*
G01X0035045Y0025645D02*
G01X0034995Y0025595D01*
G01X0034895Y0025595D02*
G01X0034995Y0025595D01*
G01X0034895Y0025595D02*
G01X0034845Y0025645D01*
G01X0034845Y0025945D02*
G01X0034845Y0025645D01*
G01X0034895Y0025995D02*
G01X0034845Y0025945D01*
G01X0034895Y0025995D02*
G01X0034995Y0025995D01*
G01X0035045Y0025945D02*
G01X0034995Y0025995D01*
G01X0034525Y0025995D02*
G01X0034655Y0025995D01*
G01X0034725Y0025925D02*
G01X0034655Y0025995D01*
G01X0034725Y0025925D02*
G01X0034725Y0025665D01*
G01X0034725Y0025665D02*
G01X0034655Y0025595D01*
G01X0034525Y0025595D02*
G01X0034655Y0025595D01*
G01X0034255Y0025775D02*
G01X0034405Y0025775D01*
G01X0034205Y0025995D02*
G01X0034405Y0025995D01*
G01X0034405Y0025995D02*
G01X0034405Y0025595D01*
G01X0034205Y0025595D02*
G01X0034405Y0025595D01*
G01X0033885Y0025595D02*
G01X0033835Y0025645D01*
G01X0033885Y0025595D02*
G01X0034035Y0025595D01*
G01X0034085Y0025645D02*
G01X0034035Y0025595D01*
G01X0034085Y0025745D02*
G01X0034085Y0025645D01*
G01X0034085Y0025745D02*
G01X0034035Y0025795D01*
G01X0033885Y0025795D02*
G01X0034035Y0025795D01*
G01X0033885Y0025795D02*
G01X0033835Y0025845D01*
G01X0033835Y0025945D02*
G01X0033835Y0025845D01*
G01X0033885Y0025995D02*
G01X0033835Y0025945D01*
G01X0033885Y0025995D02*
G01X0034035Y0025995D01*
G01X0034085Y0025945D02*
G01X0034035Y0025995D01*
G01X0033515Y0025595D02*
G01X0033465Y0025645D01*
G01X0033515Y0025595D02*
G01X0033665Y0025595D01*
G01X0033715Y0025645D02*
G01X0033665Y0025595D01*
G01X0033715Y0025745D02*
G01X0033715Y0025645D01*
G01X0033715Y0025745D02*
G01X0033665Y0025795D01*
G01X0033515Y0025795D02*
G01X0033665Y0025795D01*
G01X0033515Y0025795D02*
G01X0033465Y0025845D01*
G01X0033465Y0025945D02*
G01X0033465Y0025845D01*
G01X0033515Y0025995D02*
G01X0033465Y0025945D01*
G01X0033515Y0025995D02*
G01X0033665Y0025995D01*
G01X0033715Y0025945D02*
G01X0033665Y0025995D01*
G01X0033345Y0025945D02*
G01X0033345Y0025645D01*
G01X0033345Y0025645D02*
G01X0033295Y0025595D01*
G01X0033195Y0025595D02*
G01X0033295Y0025595D01*
G01X0033195Y0025595D02*
G01X0033145Y0025645D01*
G01X0033145Y0025945D02*
G01X0033145Y0025645D01*
G01X0033195Y0025995D02*
G01X0033145Y0025945D01*
G01X0033195Y0025995D02*
G01X0033295Y0025995D01*
G01X0033345Y0025945D02*
G01X0033295Y0025995D01*
G01X0032825Y0025595D02*
G01X0033025Y0025595D01*
G01X0032825Y0025595D02*
G01X0032775Y0025645D01*
G01X0032775Y0025745D02*
G01X0032775Y0025645D01*
G01X0032825Y0025795D02*
G01X0032775Y0025745D01*
G01X0032825Y0025795D02*
G01X0032975Y0025795D01*
G01X0032975Y0025995D02*
G01X0032975Y0025595D01*
G01X0032895Y0025795D02*
G01X0032775Y0025995D01*
G01X0032425Y0025995D02*
G01X0032425Y0025595D01*
G01X0032295Y0025595D02*
G01X0032225Y0025665D01*
G01X0032225Y0025925D02*
G01X0032225Y0025665D01*
G01X0032295Y0025995D02*
G01X0032225Y0025925D01*
G01X0032295Y0025995D02*
G01X0032475Y0025995D01*
G01X0032295Y0025595D02*
G01X0032475Y0025595D01*
G01X0031905Y0025595D02*
G01X0031855Y0025645D01*
G01X0031905Y0025595D02*
G01X0032055Y0025595D01*
G01X0032105Y0025645D02*
G01X0032055Y0025595D01*
G01X0032105Y0025745D02*
G01X0032105Y0025645D01*
G01X0032105Y0025745D02*
G01X0032055Y0025795D01*
G01X0031905Y0025795D02*
G01X0032055Y0025795D01*
G01X0031905Y0025795D02*
G01X0031855Y0025845D01*
G01X0031855Y0025945D02*
G01X0031855Y0025845D01*
G01X0031905Y0025995D02*
G01X0031855Y0025945D01*
G01X0031905Y0025995D02*
G01X0032055Y0025995D01*
G01X0032105Y0025945D02*
G01X0032055Y0025995D01*
G01X0031685Y0025995D02*
G01X0031685Y0025595D01*
G01X0031535Y0025595D02*
G01X0031735Y0025595D01*
G01X0031535Y0025595D02*
G01X0031485Y0025645D01*
G01X0031485Y0025745D02*
G01X0031485Y0025645D01*
G01X0031535Y0025795D02*
G01X0031485Y0025745D01*
G01X0031535Y0025795D02*
G01X0031685Y0025795D01*
G01X0038340Y0027050D02*
G01X0038290Y0027000D01*
G01X0038140Y0027000D02*
G01X0038290Y0027000D01*
G01X0038140Y0027000D02*
G01X0038090Y0027050D01*
G01X0038090Y0027150D02*
G01X0038090Y0027050D01*
G01X0038340Y0027400D02*
G01X0038090Y0027150D01*
G01X0038090Y0027400D02*
G01X0038340Y0027400D01*
G01X0037970Y0027350D02*
G01X0037920Y0027400D01*
G01X0037970Y0027350D02*
G01X0037970Y0027050D01*
G01X0037970Y0027050D02*
G01X0037920Y0027000D01*
G01X0037820Y0027000D02*
G01X0037920Y0027000D01*
G01X0037820Y0027000D02*
G01X0037770Y0027050D01*
G01X0037770Y0027350D02*
G01X0037770Y0027050D01*
G01X0037820Y0027400D02*
G01X0037770Y0027350D01*
G01X0037820Y0027400D02*
G01X0037920Y0027400D01*
G01X0037970Y0027300D02*
G01X0037770Y0027100D01*
G01X0037650Y0027080D02*
G01X0037570Y0027000D01*
G01X0037570Y0027400D02*
G01X0037570Y0027000D01*
G01X0037500Y0027400D02*
G01X0037650Y0027400D01*
G01X0037380Y0027250D02*
G01X0037180Y0027000D01*
G01X0037130Y0027250D02*
G01X0037380Y0027250D01*
G01X0037180Y0027400D02*
G01X0037180Y0027000D01*
G01X0036960Y0027400D02*
G01X0037010Y0027400D01*
G01X0036840Y0027350D02*
G01X0036790Y0027400D01*
G01X0036840Y0027350D02*
G01X0036840Y0027050D01*
G01X0036840Y0027050D02*
G01X0036790Y0027000D01*
G01X0036690Y0027000D02*
G01X0036790Y0027000D01*
G01X0036690Y0027000D02*
G01X0036640Y0027050D01*
G01X0036640Y0027350D02*
G01X0036640Y0027050D01*
G01X0036690Y0027400D02*
G01X0036640Y0027350D01*
G01X0036690Y0027400D02*
G01X0036790Y0027400D01*
G01X0036840Y0027300D02*
G01X0036640Y0027100D01*
G01X0036520Y0027080D02*
G01X0036440Y0027000D01*
G01X0036440Y0027400D02*
G01X0036440Y0027000D01*
G01X0036370Y0027400D02*
G01X0036520Y0027400D01*
G01X0036200Y0027400D02*
G01X0036250Y0027400D01*
G01X0036080Y0027350D02*
G01X0036030Y0027400D01*
G01X0036080Y0027350D02*
G01X0036080Y0027050D01*
G01X0036080Y0027050D02*
G01X0036030Y0027000D01*
G01X0035930Y0027000D02*
G01X0036030Y0027000D01*
G01X0035930Y0027000D02*
G01X0035880Y0027050D01*
G01X0035880Y0027350D02*
G01X0035880Y0027050D01*
G01X0035930Y0027400D02*
G01X0035880Y0027350D01*
G01X0035930Y0027400D02*
G01X0036030Y0027400D01*
G01X0036080Y0027300D02*
G01X0035880Y0027100D01*
G01X0035710Y0027400D02*
G01X0035510Y0027000D01*
G01X0035510Y0027000D02*
G01X0035760Y0027000D01*
G01X0038152Y0026700D02*
G01X0038352Y0026700D01*
G01X0038152Y0026700D02*
G01X0038102Y0026650D01*
G01X0038102Y0026650D02*
G01X0038102Y0026530D01*
G01X0038152Y0026480D02*
G01X0038102Y0026530D01*
G01X0038152Y0026480D02*
G01X0038302Y0026480D01*
G01X0038302Y0026700D02*
G01X0038302Y0026300D01*
G01X0038152Y0026300D02*
G01X0038352Y0026300D01*
G01X0038152Y0026300D02*
G01X0038102Y0026350D01*
G01X0038102Y0026430D02*
G01X0038102Y0026350D01*
G01X0038152Y0026480D02*
G01X0038102Y0026430D01*
G01X0037982Y0026300D02*
G01X0037882Y0026500D01*
G01X0037882Y0026500D02*
G01X0037782Y0026300D01*
G01X0037882Y0026700D02*
G01X0037882Y0026500D01*
G01X0037332Y0026480D02*
G01X0037482Y0026480D01*
G01X0037282Y0026700D02*
G01X0037482Y0026700D01*
G01X0037482Y0026700D02*
G01X0037482Y0026300D01*
G01X0037282Y0026300D02*
G01X0037482Y0026300D01*
G01X0037162Y0026300D02*
G01X0037062Y0026700D01*
G01X0037062Y0026700D02*
G01X0036962Y0026300D01*
G01X0036842Y0026700D02*
G01X0036842Y0026400D01*
G01X0036842Y0026400D02*
G01X0036772Y0026300D01*
G01X0036662Y0026300D02*
G01X0036772Y0026300D01*
G01X0036662Y0026300D02*
G01X0036592Y0026400D01*
G01X0036592Y0026700D02*
G01X0036592Y0026400D01*
G01X0036592Y0026500D02*
G01X0036842Y0026500D01*
G01X0036472Y0026700D02*
G01X0036472Y0026300D01*
G01X0036472Y0026300D02*
G01X0036222Y0026700D01*
G01X0036222Y0026700D02*
G01X0036222Y0026300D01*
G01X0035922Y0026700D02*
G01X0035922Y0026300D01*
G01X0035722Y0026300D02*
G01X0035922Y0026300D01*
G01X0035772Y0026480D02*
G01X0035922Y0026480D01*
G01X0035602Y0026650D02*
G01X0035602Y0026350D01*
G01X0035602Y0026350D02*
G01X0035552Y0026300D01*
G01X0035452Y0026300D02*
G01X0035552Y0026300D01*
G01X0035452Y0026300D02*
G01X0035402Y0026350D01*
G01X0035402Y0026650D02*
G01X0035402Y0026350D01*
G01X0035452Y0026700D02*
G01X0035402Y0026650D01*
G01X0035452Y0026700D02*
G01X0035552Y0026700D01*
G01X0035602Y0026650D02*
G01X0035552Y0026700D01*
G01X0035082Y0026300D02*
G01X0035032Y0026350D01*
G01X0035082Y0026300D02*
G01X0035232Y0026300D01*
G01X0035282Y0026350D02*
G01X0035232Y0026300D01*
G01X0035282Y0026450D02*
G01X0035282Y0026350D01*
G01X0035282Y0026450D02*
G01X0035232Y0026500D01*
G01X0035082Y0026500D02*
G01X0035232Y0026500D01*
G01X0035082Y0026500D02*
G01X0035032Y0026550D01*
G01X0035032Y0026650D02*
G01X0035032Y0026550D01*
G01X0035082Y0026700D02*
G01X0035032Y0026650D01*
G01X0035082Y0026700D02*
G01X0035232Y0026700D01*
G01X0035282Y0026650D02*
G01X0035232Y0026700D01*
G01X0034712Y0026300D02*
G01X0034662Y0026350D01*
G01X0034712Y0026300D02*
G01X0034862Y0026300D01*
G01X0034912Y0026350D02*
G01X0034862Y0026300D01*
G01X0034912Y0026450D02*
G01X0034912Y0026350D01*
G01X0034912Y0026450D02*
G01X0034862Y0026500D01*
G01X0034712Y0026500D02*
G01X0034862Y0026500D01*
G01X0034712Y0026500D02*
G01X0034662Y0026550D01*
G01X0034662Y0026650D02*
G01X0034662Y0026550D01*
G01X0034712Y0026700D02*
G01X0034662Y0026650D01*
G01X0034712Y0026700D02*
G01X0034862Y0026700D01*
G01X0034912Y0026650D02*
G01X0034862Y0026700D01*
G01X0034362Y0026600D02*
G01X0034362Y0026300D01*
G01X0034362Y0026600D02*
G01X0034262Y0026700D01*
G01X0033962Y0026700D02*
G01X0034262Y0026700D01*
G01X0033862Y0026550D02*
G01X0033862Y0026300D01*
G01X0033862Y0026300D02*
G01X0033962Y0026200D01*
G01X0033962Y0026200D02*
G01X0034262Y0026200D01*
G01X0034262Y0026200D02*
G01X0034362Y0026300D01*
G01X0034212Y0026500D02*
G01X0034212Y0026400D01*
G01X0034212Y0026500D02*
G01X0034162Y0026550D01*
G01X0034062Y0026550D02*
G01X0034162Y0026550D01*
G01X0034062Y0026550D02*
G01X0034012Y0026500D01*
G01X0034012Y0026500D02*
G01X0033962Y0026550D01*
G01X0034012Y0026500D02*
G01X0034012Y0026350D01*
G01X0034012Y0026400D02*
G01X0034062Y0026350D01*
G01X0034062Y0026350D02*
G01X0034162Y0026350D01*
G01X0034162Y0026350D02*
G01X0034212Y0026400D01*
G01X0033862Y0026550D02*
G01X0033962Y0026550D01*
G01X0033412Y0026480D02*
G01X0033562Y0026480D01*
G01X0033362Y0026700D02*
G01X0033562Y0026700D01*
G01X0033562Y0026700D02*
G01X0033562Y0026300D01*
G01X0033362Y0026300D02*
G01X0033562Y0026300D01*
G01X0033192Y0026700D02*
G01X0033192Y0026300D01*
G01X0033042Y0026300D02*
G01X0033242Y0026300D01*
G01X0033042Y0026300D02*
G01X0032992Y0026350D01*
G01X0032992Y0026450D02*
G01X0032992Y0026350D01*
G01X0033042Y0026500D02*
G01X0032992Y0026450D01*
G01X0033042Y0026500D02*
G01X0033192Y0026500D01*
G01X0032872Y0026700D02*
G01X0032872Y0026300D01*
G01X0032672Y0026700D02*
G01X0032872Y0026700D01*
G01X0037600Y0028800D02*
G01X0037600Y0028400D01*
G01X0037600Y0028400D02*
G01X0037450Y0028600D01*
G01X0037450Y0028600D02*
G01X0037300Y0028400D01*
G01X0037300Y0028800D02*
G01X0037300Y0028400D01*
G01X0037180Y0028510D02*
G01X0037180Y0028500D01*
G01X0037180Y0028800D02*
G01X0037180Y0028650D01*
G01X0036880Y0028600D02*
G01X0037030Y0028600D01*
G01X0037080Y0028650D02*
G01X0037030Y0028600D01*
G01X0037080Y0028750D02*
G01X0037080Y0028650D01*
G01X0037080Y0028750D02*
G01X0037030Y0028800D01*
G01X0036880Y0028800D02*
G01X0037030Y0028800D01*
G01X0036710Y0028800D02*
G01X0036710Y0028650D01*
G01X0036710Y0028650D02*
G01X0036660Y0028600D01*
G01X0036560Y0028600D02*
G01X0036660Y0028600D01*
G01X0036760Y0028600D02*
G01X0036710Y0028650D01*
G01X0036440Y0028750D02*
G01X0036440Y0028650D01*
G01X0036440Y0028650D02*
G01X0036390Y0028600D01*
G01X0036290Y0028600D02*
G01X0036390Y0028600D01*
G01X0036290Y0028600D02*
G01X0036240Y0028650D01*
G01X0036240Y0028750D02*
G01X0036240Y0028650D01*
G01X0036290Y0028800D02*
G01X0036240Y0028750D01*
G01X0036290Y0028800D02*
G01X0036390Y0028800D01*
G01X0036440Y0028750D02*
G01X0036390Y0028800D01*
G01X0035740Y0028400D02*
G01X0035690Y0028450D01*
G01X0035740Y0028400D02*
G01X0035890Y0028400D01*
G01X0035940Y0028450D02*
G01X0035890Y0028400D01*
G01X0035940Y0028550D02*
G01X0035940Y0028450D01*
G01X0035940Y0028550D02*
G01X0035890Y0028600D01*
G01X0035740Y0028600D02*
G01X0035890Y0028600D01*
G01X0035740Y0028600D02*
G01X0035690Y0028650D01*
G01X0035690Y0028750D02*
G01X0035690Y0028650D01*
G01X0035740Y0028800D02*
G01X0035690Y0028750D01*
G01X0035740Y0028800D02*
G01X0035890Y0028800D01*
G01X0035940Y0028750D02*
G01X0035890Y0028800D01*
G01X0035520Y0028800D02*
G01X0035520Y0028400D01*
G01X0035390Y0028400D02*
G01X0035320Y0028470D01*
G01X0035320Y0028730D02*
G01X0035320Y0028470D01*
G01X0035390Y0028800D02*
G01X0035320Y0028730D01*
G01X0035390Y0028800D02*
G01X0035570Y0028800D01*
G01X0035390Y0028400D02*
G01X0035570Y0028400D01*
G01X0035000Y0028600D02*
G01X0035200Y0028600D01*
G01X0034680Y0028800D02*
G01X0034810Y0028800D01*
G01X0034880Y0028730D02*
G01X0034810Y0028800D01*
G01X0034880Y0028730D02*
G01X0034880Y0028470D01*
G01X0034880Y0028470D02*
G01X0034810Y0028400D01*
G01X0034680Y0028400D02*
G01X0034810Y0028400D01*
G01X0034560Y0028800D02*
G01X0034560Y0028500D01*
G01X0034560Y0028500D02*
G01X0034490Y0028400D01*
G01X0034380Y0028400D02*
G01X0034490Y0028400D01*
G01X0034380Y0028400D02*
G01X0034310Y0028500D01*
G01X0034310Y0028800D02*
G01X0034310Y0028500D01*
G01X0034310Y0028600D02*
G01X0034560Y0028600D01*
G01X0033990Y0028400D02*
G01X0034190Y0028400D01*
G01X0033990Y0028400D02*
G01X0033940Y0028450D01*
G01X0033940Y0028550D02*
G01X0033940Y0028450D01*
G01X0033990Y0028600D02*
G01X0033940Y0028550D01*
G01X0033990Y0028600D02*
G01X0034140Y0028600D01*
G01X0034140Y0028800D02*
G01X0034140Y0028400D01*
G01X0034060Y0028600D02*
G01X0033940Y0028800D01*
G01X0033770Y0028800D02*
G01X0033770Y0028400D01*
G01X0033640Y0028400D02*
G01X0033570Y0028470D01*
G01X0033570Y0028730D02*
G01X0033570Y0028470D01*
G01X0033640Y0028800D02*
G01X0033570Y0028730D01*
G01X0033640Y0028800D02*
G01X0033820Y0028800D01*
G01X0033640Y0028400D02*
G01X0033820Y0028400D01*
G01X0038350Y0023800D02*
G01X0038350Y0023500D01*
G01X0038350Y0023800D02*
G01X0038250Y0023900D01*
G01X0037950Y0023900D02*
G01X0038250Y0023900D01*
G01X0037850Y0023750D02*
G01X0037850Y0023500D01*
G01X0037850Y0023500D02*
G01X0037950Y0023400D01*
G01X0037950Y0023400D02*
G01X0038250Y0023400D01*
G01X0038250Y0023400D02*
G01X0038350Y0023500D01*
G01X0038200Y0023700D02*
G01X0038200Y0023600D01*
G01X0038200Y0023700D02*
G01X0038150Y0023750D01*
G01X0038050Y0023750D02*
G01X0038150Y0023750D01*
G01X0038050Y0023750D02*
G01X0038000Y0023700D01*
G01X0038000Y0023700D02*
G01X0037950Y0023750D01*
G01X0038000Y0023700D02*
G01X0038000Y0023550D01*
G01X0038000Y0023600D02*
G01X0038050Y0023550D01*
G01X0038050Y0023550D02*
G01X0038150Y0023550D01*
G01X0038150Y0023550D02*
G01X0038200Y0023600D01*
G01X0037850Y0023750D02*
G01X0037950Y0023750D01*
G01X0037550Y0023850D02*
G01X0037550Y0023500D01*
G01X0037550Y0023850D02*
G01X0037500Y0023900D01*
G01X0037400Y0023900D02*
G01X0037500Y0023900D01*
G01X0037400Y0023900D02*
G01X0037350Y0023850D01*
G01X0037350Y0023850D02*
G01X0037350Y0023500D01*
G01X0037030Y0023500D02*
G01X0037230Y0023500D01*
G01X0037130Y0023900D02*
G01X0037130Y0023500D01*
G01X0036860Y0023900D02*
G01X0036860Y0023500D01*
G01X0036730Y0023500D02*
G01X0036660Y0023570D01*
G01X0036660Y0023830D02*
G01X0036660Y0023570D01*
G01X0036730Y0023900D02*
G01X0036660Y0023830D01*
G01X0036730Y0023900D02*
G01X0036910Y0023900D01*
G01X0036730Y0023500D02*
G01X0036910Y0023500D01*
G01X0036360Y0023850D02*
G01X0036310Y0023900D01*
G01X0036360Y0023550D02*
G01X0036310Y0023500D01*
G01X0036360Y0023850D02*
G01X0036360Y0023550D01*
G01X0036190Y0023850D02*
G01X0036190Y0023500D01*
G01X0036190Y0023850D02*
G01X0036140Y0023900D01*
G01X0036040Y0023900D02*
G01X0036140Y0023900D01*
G01X0036040Y0023900D02*
G01X0035990Y0023850D01*
G01X0035990Y0023850D02*
G01X0035990Y0023500D01*
G01X0035870Y0023900D02*
G01X0035870Y0023500D01*
G01X0035870Y0023500D02*
G01X0035620Y0023900D01*
G01X0035620Y0023900D02*
G01X0035620Y0023500D01*
G01X0035400Y0023500D02*
G01X0035500Y0023500D01*
G01X0035450Y0023900D02*
G01X0035450Y0023500D01*
G01X0035400Y0023900D02*
G01X0035500Y0023900D01*
G01X0035280Y0023500D02*
G01X0035180Y0023900D01*
G01X0035180Y0023900D02*
G01X0035080Y0023500D01*
G01X0034810Y0023680D02*
G01X0034960Y0023680D01*
G01X0034760Y0023900D02*
G01X0034960Y0023900D01*
G01X0034960Y0023900D02*
G01X0034960Y0023500D01*
G01X0034760Y0023500D02*
G01X0034960Y0023500D01*
G01X0034440Y0023500D02*
G01X0034640Y0023500D01*
G01X0034440Y0023500D02*
G01X0034390Y0023550D01*
G01X0034390Y0023650D02*
G01X0034390Y0023550D01*
G01X0034440Y0023700D02*
G01X0034390Y0023650D01*
G01X0034440Y0023700D02*
G01X0034590Y0023700D01*
G01X0034590Y0023900D02*
G01X0034590Y0023500D01*
G01X0034510Y0023700D02*
G01X0034390Y0023900D01*
G01X0034070Y0023500D02*
G01X0034020Y0023550D01*
G01X0034070Y0023500D02*
G01X0034220Y0023500D01*
G01X0034270Y0023550D02*
G01X0034220Y0023500D01*
G01X0034270Y0023650D02*
G01X0034270Y0023550D01*
G01X0034270Y0023650D02*
G01X0034220Y0023700D01*
G01X0034070Y0023700D02*
G01X0034220Y0023700D01*
G01X0034070Y0023700D02*
G01X0034020Y0023750D01*
G01X0034020Y0023850D02*
G01X0034020Y0023750D01*
G01X0034070Y0023900D02*
G01X0034020Y0023850D01*
G01X0034070Y0023900D02*
G01X0034220Y0023900D01*
G01X0034270Y0023850D02*
G01X0034220Y0023900D01*
G01X0033800Y0023500D02*
G01X0033900Y0023500D01*
G01X0033850Y0023900D02*
G01X0033850Y0023500D01*
G01X0033800Y0023900D02*
G01X0033900Y0023900D01*
G01X0033480Y0023500D02*
G01X0033680Y0023500D01*
G01X0033580Y0023900D02*
G01X0033580Y0023500D01*
G01X0033360Y0023500D02*
G01X0033260Y0023700D01*
G01X0033260Y0023700D02*
G01X0033160Y0023500D01*
G01X0033260Y0023900D02*
G01X0033260Y0023700D01*
G01X0032660Y0023500D02*
G01X0032860Y0023500D01*
G01X0032760Y0023900D02*
G01X0032760Y0023500D01*
G01X0032390Y0023680D02*
G01X0032540Y0023680D01*
G01X0032340Y0023900D02*
G01X0032540Y0023900D01*
G01X0032540Y0023900D02*
G01X0032540Y0023500D01*
G01X0032340Y0023500D02*
G01X0032540Y0023500D01*
G01X0032220Y0023900D02*
G01X0031970Y0023500D01*
G01X0032220Y0023500D02*
G01X0031970Y0023900D01*
G01X0031850Y0023900D02*
G01X0031850Y0023600D01*
G01X0031850Y0023600D02*
G01X0031780Y0023500D01*
G01X0031670Y0023500D02*
G01X0031780Y0023500D01*
G01X0031670Y0023500D02*
G01X0031600Y0023600D01*
G01X0031600Y0023900D02*
G01X0031600Y0023600D01*
G01X0031600Y0023700D02*
G01X0031850Y0023700D01*
G01X0031280Y0023500D02*
G01X0031230Y0023550D01*
G01X0031280Y0023500D02*
G01X0031430Y0023500D01*
G01X0031480Y0023550D02*
G01X0031430Y0023500D01*
G01X0031480Y0023650D02*
G01X0031480Y0023550D01*
G01X0031480Y0023650D02*
G01X0031430Y0023700D01*
G01X0031280Y0023700D02*
G01X0031430Y0023700D01*
G01X0031280Y0023700D02*
G01X0031230Y0023750D01*
G01X0031230Y0023850D02*
G01X0031230Y0023750D01*
G01X0031280Y0023900D02*
G01X0031230Y0023850D01*
G01X0031280Y0023900D02*
G01X0031430Y0023900D01*
G01X0031480Y0023850D02*
G01X0031430Y0023900D01*
G01X0030880Y0023900D02*
G01X0030880Y0023500D01*
G01X0030750Y0023500D02*
G01X0030680Y0023570D01*
G01X0030680Y0023830D02*
G01X0030680Y0023570D01*
G01X0030750Y0023900D02*
G01X0030680Y0023830D01*
G01X0030750Y0023900D02*
G01X0030930Y0023900D01*
G01X0030750Y0023500D02*
G01X0030930Y0023500D01*
G01X0030560Y0023900D02*
G01X0030560Y0023600D01*
G01X0030560Y0023600D02*
G01X0030490Y0023500D01*
G01X0030380Y0023500D02*
G01X0030490Y0023500D01*
G01X0030380Y0023500D02*
G01X0030310Y0023600D01*
G01X0030310Y0023900D02*
G01X0030310Y0023600D01*
G01X0030310Y0023700D02*
G01X0030560Y0023700D01*
G01X0030190Y0023900D02*
G01X0030190Y0023500D01*
G01X0029990Y0023900D02*
G01X0030190Y0023900D01*
G01X0029870Y0023900D02*
G01X0029870Y0023500D01*
G01X0029670Y0023900D02*
G01X0029870Y0023900D01*
G01X0029550Y0023900D02*
G01X0029550Y0023600D01*
G01X0029550Y0023600D02*
G01X0029480Y0023500D01*
G01X0029370Y0023500D02*
G01X0029480Y0023500D01*
G01X0029370Y0023500D02*
G01X0029300Y0023600D01*
G01X0029300Y0023900D02*
G01X0029300Y0023600D01*
G01X0029300Y0023700D02*
G01X0029550Y0023700D01*
G01X0028980Y0023500D02*
G01X0028930Y0023550D01*
G01X0028980Y0023500D02*
G01X0029130Y0023500D01*
G01X0029180Y0023550D02*
G01X0029130Y0023500D01*
G01X0029180Y0023650D02*
G01X0029180Y0023550D01*
G01X0029180Y0023650D02*
G01X0029130Y0023700D01*
G01X0028980Y0023700D02*
G01X0029130Y0023700D01*
G01X0028980Y0023700D02*
G01X0028930Y0023750D01*
G01X0028930Y0023850D02*
G01X0028930Y0023750D01*
G01X0028980Y0023900D02*
G01X0028930Y0023850D01*
G01X0028980Y0023900D02*
G01X0029130Y0023900D01*
G01X0029180Y0023850D02*
G01X0029130Y0023900D01*
G01X0028810Y0023500D02*
G01X0028760Y0023550D01*
G01X0028760Y0023850D02*
G01X0028760Y0023550D01*
G01X0028810Y0023900D02*
G01X0028760Y0023850D01*
G01X0038150Y0022500D02*
G01X0038280Y0022500D01*
G01X0038350Y0022430D02*
G01X0038280Y0022500D01*
G01X0038350Y0022430D02*
G01X0038350Y0022170D01*
G01X0038350Y0022170D02*
G01X0038280Y0022100D01*
G01X0038150Y0022100D02*
G01X0038280Y0022100D01*
G01X0038030Y0022450D02*
G01X0038030Y0022150D01*
G01X0038030Y0022150D02*
G01X0037980Y0022100D01*
G01X0037880Y0022100D02*
G01X0037980Y0022100D01*
G01X0037880Y0022100D02*
G01X0037830Y0022150D01*
G01X0037830Y0022450D02*
G01X0037830Y0022150D01*
G01X0037880Y0022500D02*
G01X0037830Y0022450D01*
G01X0037880Y0022500D02*
G01X0037980Y0022500D01*
G01X0038030Y0022450D02*
G01X0037980Y0022500D01*
G01X0037510Y0022500D02*
G01X0037640Y0022500D01*
G01X0037710Y0022430D02*
G01X0037640Y0022500D01*
G01X0037710Y0022430D02*
G01X0037710Y0022170D01*
G01X0037710Y0022170D02*
G01X0037640Y0022100D01*
G01X0037510Y0022100D02*
G01X0037640Y0022100D01*
G01X0037390Y0022500D02*
G01X0037390Y0022100D01*
G01X0037140Y0022500D02*
G01X0037140Y0022100D01*
G01X0037140Y0022300D02*
G01X0037390Y0022300D01*
G01X0037020Y0022500D02*
G01X0037020Y0022100D01*
G01X0036820Y0022500D02*
G01X0037020Y0022500D01*
G01X0036550Y0022280D02*
G01X0036700Y0022280D01*
G01X0036500Y0022500D02*
G01X0036700Y0022500D01*
G01X0036700Y0022500D02*
G01X0036700Y0022100D01*
G01X0036500Y0022100D02*
G01X0036700Y0022100D01*
G01X0036380Y0022500D02*
G01X0036380Y0022200D01*
G01X0036380Y0022200D02*
G01X0036310Y0022100D01*
G01X0036200Y0022100D02*
G01X0036310Y0022100D01*
G01X0036200Y0022100D02*
G01X0036130Y0022200D01*
G01X0036130Y0022500D02*
G01X0036130Y0022200D01*
G01X0036130Y0022300D02*
G01X0036380Y0022300D01*
G01X0035810Y0022100D02*
G01X0036010Y0022100D01*
G01X0035810Y0022100D02*
G01X0035760Y0022150D01*
G01X0035760Y0022250D02*
G01X0035760Y0022150D01*
G01X0035810Y0022300D02*
G01X0035760Y0022250D01*
G01X0035810Y0022300D02*
G01X0035960Y0022300D01*
G01X0035960Y0022500D02*
G01X0035960Y0022100D01*
G01X0035880Y0022300D02*
G01X0035760Y0022500D01*
G01X0035360Y0022100D02*
G01X0035460Y0022100D01*
G01X0035410Y0022500D02*
G01X0035410Y0022100D01*
G01X0035360Y0022500D02*
G01X0035460Y0022500D01*
G01X0035240Y0022500D02*
G01X0035240Y0022100D01*
G01X0035240Y0022100D02*
G01X0035090Y0022300D01*
G01X0035090Y0022300D02*
G01X0034940Y0022100D01*
G01X0034940Y0022500D02*
G01X0034940Y0022100D01*
G01X0034770Y0022500D02*
G01X0034770Y0022100D01*
G01X0034620Y0022100D02*
G01X0034820Y0022100D01*
G01X0034620Y0022100D02*
G01X0034570Y0022150D01*
G01X0034570Y0022250D02*
G01X0034570Y0022150D01*
G01X0034620Y0022300D02*
G01X0034570Y0022250D01*
G01X0034620Y0022300D02*
G01X0034770Y0022300D01*
G01X0034450Y0022500D02*
G01X0034450Y0022100D01*
G01X0034250Y0022500D02*
G01X0034450Y0022500D01*
G01X0034130Y0022500D02*
G01X0034130Y0022200D01*
G01X0034130Y0022200D02*
G01X0034060Y0022100D01*
G01X0033950Y0022100D02*
G01X0034060Y0022100D01*
G01X0033950Y0022100D02*
G01X0033880Y0022200D01*
G01X0033880Y0022500D02*
G01X0033880Y0022200D01*
G01X0033880Y0022300D02*
G01X0034130Y0022300D01*
G01X0033760Y0022500D02*
G01X0033760Y0022100D01*
G01X0033760Y0022100D02*
G01X0033510Y0022500D01*
G01X0033510Y0022500D02*
G01X0033510Y0022100D01*
G01X0033190Y0022100D02*
G01X0033390Y0022100D01*
G01X0033290Y0022500D02*
G01X0033290Y0022100D01*
G01X0032840Y0022500D02*
G01X0032840Y0022100D01*
G01X0032690Y0022100D02*
G01X0032890Y0022100D01*
G01X0032690Y0022100D02*
G01X0032640Y0022150D01*
G01X0032640Y0022250D02*
G01X0032640Y0022150D01*
G01X0032690Y0022300D02*
G01X0032640Y0022250D01*
G01X0032690Y0022300D02*
G01X0032840Y0022300D01*
G01X0032320Y0022100D02*
G01X0032520Y0022100D01*
G01X0032320Y0022100D02*
G01X0032270Y0022150D01*
G01X0032270Y0022250D02*
G01X0032270Y0022150D01*
G01X0032320Y0022300D02*
G01X0032270Y0022250D01*
G01X0032320Y0022300D02*
G01X0032470Y0022300D01*
G01X0032470Y0022500D02*
G01X0032470Y0022100D01*
G01X0032390Y0022300D02*
G01X0032270Y0022500D01*
G01X0032150Y0022450D02*
G01X0032150Y0022150D01*
G01X0032150Y0022150D02*
G01X0032100Y0022100D01*
G01X0032000Y0022100D02*
G01X0032100Y0022100D01*
G01X0032000Y0022100D02*
G01X0031950Y0022150D01*
G01X0031950Y0022450D02*
G01X0031950Y0022150D01*
G01X0032000Y0022500D02*
G01X0031950Y0022450D01*
G01X0032000Y0022500D02*
G01X0032100Y0022500D01*
G01X0032150Y0022450D02*
G01X0032100Y0022500D01*
G01X0031630Y0022500D02*
G01X0031760Y0022500D01*
G01X0031830Y0022430D02*
G01X0031760Y0022500D01*
G01X0031830Y0022430D02*
G01X0031830Y0022170D01*
G01X0031830Y0022170D02*
G01X0031760Y0022100D01*
G01X0031630Y0022100D02*
G01X0031760Y0022100D01*
G01X0031360Y0022280D02*
G01X0031510Y0022280D01*
G01X0031310Y0022500D02*
G01X0031510Y0022500D01*
G01X0031510Y0022500D02*
G01X0031510Y0022100D01*
G01X0031310Y0022100D02*
G01X0031510Y0022100D01*
G01X0030990Y0022100D02*
G01X0030940Y0022150D01*
G01X0030990Y0022100D02*
G01X0031140Y0022100D01*
G01X0031190Y0022150D02*
G01X0031140Y0022100D01*
G01X0031190Y0022250D02*
G01X0031190Y0022150D01*
G01X0031190Y0022250D02*
G01X0031140Y0022300D01*
G01X0030990Y0022300D02*
G01X0031140Y0022300D01*
G01X0030990Y0022300D02*
G01X0030940Y0022350D01*
G01X0030940Y0022450D02*
G01X0030940Y0022350D01*
G01X0030990Y0022500D02*
G01X0030940Y0022450D01*
G01X0030990Y0022500D02*
G01X0031140Y0022500D01*
G01X0031190Y0022450D02*
G01X0031140Y0022500D01*
G01X0030620Y0022100D02*
G01X0030570Y0022150D01*
G01X0030620Y0022100D02*
G01X0030770Y0022100D01*
G01X0030820Y0022150D02*
G01X0030770Y0022100D01*
G01X0030820Y0022250D02*
G01X0030820Y0022150D01*
G01X0030820Y0022250D02*
G01X0030770Y0022300D01*
G01X0030620Y0022300D02*
G01X0030770Y0022300D01*
G01X0030620Y0022300D02*
G01X0030570Y0022350D01*
G01X0030570Y0022450D02*
G01X0030570Y0022350D01*
G01X0030620Y0022500D02*
G01X0030570Y0022450D01*
G01X0030620Y0022500D02*
G01X0030770Y0022500D01*
G01X0030820Y0022450D02*
G01X0030770Y0022500D01*
G01X0030450Y0022450D02*
G01X0030450Y0022150D01*
G01X0030450Y0022150D02*
G01X0030400Y0022100D01*
G01X0030300Y0022100D02*
G01X0030400Y0022100D01*
G01X0030300Y0022100D02*
G01X0030250Y0022150D01*
G01X0030250Y0022450D02*
G01X0030250Y0022150D01*
G01X0030300Y0022500D02*
G01X0030250Y0022450D01*
G01X0030300Y0022500D02*
G01X0030400Y0022500D01*
G01X0030450Y0022450D02*
G01X0030400Y0022500D01*
G01X0029930Y0022100D02*
G01X0030130Y0022100D01*
G01X0029930Y0022100D02*
G01X0029880Y0022150D01*
G01X0029880Y0022250D02*
G01X0029880Y0022150D01*
G01X0029930Y0022300D02*
G01X0029880Y0022250D01*
G01X0029930Y0022300D02*
G01X0030080Y0022300D01*
G01X0030080Y0022500D02*
G01X0030080Y0022100D01*
G01X0030000Y0022300D02*
G01X0029880Y0022500D01*
G01X0038150Y0023200D02*
G01X0038350Y0023200D01*
G01X0038150Y0023200D02*
G01X0038100Y0023150D01*
G01X0038100Y0023150D02*
G01X0038100Y0023030D01*
G01X0038150Y0022980D02*
G01X0038100Y0023030D01*
G01X0038150Y0022980D02*
G01X0038300Y0022980D01*
G01X0038300Y0023200D02*
G01X0038300Y0022800D01*
G01X0038150Y0022800D02*
G01X0038350Y0022800D01*
G01X0038150Y0022800D02*
G01X0038100Y0022850D01*
G01X0038100Y0022930D02*
G01X0038100Y0022850D01*
G01X0038150Y0022980D02*
G01X0038100Y0022930D01*
G01X0037980Y0022800D02*
G01X0037880Y0023000D01*
G01X0037880Y0023000D02*
G01X0037780Y0022800D01*
G01X0037880Y0023200D02*
G01X0037880Y0023000D01*
G01X0037430Y0023200D02*
G01X0037430Y0022800D01*
G01X0037280Y0022800D02*
G01X0037480Y0022800D01*
G01X0037280Y0022800D02*
G01X0037230Y0022850D01*
G01X0037230Y0022950D02*
G01X0037230Y0022850D01*
G01X0037280Y0023000D02*
G01X0037230Y0022950D01*
G01X0037280Y0023000D02*
G01X0037430Y0023000D01*
G01X0037110Y0023200D02*
G01X0037110Y0022800D01*
G01X0036860Y0023200D02*
G01X0036860Y0022800D01*
G01X0036860Y0023000D02*
G01X0037110Y0023000D01*
G01X0036640Y0022800D02*
G01X0036740Y0022800D01*
G01X0036690Y0023200D02*
G01X0036690Y0022800D01*
G01X0036640Y0023200D02*
G01X0036740Y0023200D01*
G01X0036520Y0023200D02*
G01X0036520Y0022800D01*
G01X0036320Y0023200D02*
G01X0036520Y0023200D01*
G01X0036100Y0022800D02*
G01X0036200Y0022800D01*
G01X0036150Y0023200D02*
G01X0036150Y0022800D01*
G01X0036100Y0023200D02*
G01X0036200Y0023200D01*
G01X0035930Y0023200D02*
G01X0035930Y0022800D01*
G01X0035780Y0022800D02*
G01X0035980Y0022800D01*
G01X0035780Y0022800D02*
G01X0035730Y0022850D01*
G01X0035730Y0022950D02*
G01X0035730Y0022850D01*
G01X0035780Y0023000D02*
G01X0035730Y0022950D01*
G01X0035780Y0023000D02*
G01X0035930Y0023000D01*
G01X0035430Y0023200D02*
G01X0035430Y0022800D01*
G01X0035230Y0023200D02*
G01X0035430Y0023200D01*
G01X0035110Y0023150D02*
G01X0035110Y0022850D01*
G01X0035110Y0022850D02*
G01X0035060Y0022800D01*
G01X0034960Y0022800D02*
G01X0035060Y0022800D01*
G01X0034960Y0022800D02*
G01X0034910Y0022850D01*
G01X0034910Y0023150D02*
G01X0034910Y0022850D01*
G01X0034960Y0023200D02*
G01X0034910Y0023150D01*
G01X0034960Y0023200D02*
G01X0035060Y0023200D01*
G01X0035110Y0023150D02*
G01X0035060Y0023200D01*
G01X0034690Y0022800D02*
G01X0034790Y0022800D01*
G01X0034740Y0023200D02*
G01X0034740Y0022800D01*
G01X0034690Y0023200D02*
G01X0034790Y0023200D01*
G01X0034320Y0022800D02*
G01X0034570Y0022800D01*
G01X0034570Y0023200D02*
G01X0034320Y0022800D01*
G01X0034320Y0023200D02*
G01X0034570Y0023200D01*
G01X0034200Y0023150D02*
G01X0034200Y0022850D01*
G01X0034200Y0022850D02*
G01X0034150Y0022800D01*
G01X0034050Y0022800D02*
G01X0034150Y0022800D01*
G01X0034050Y0022800D02*
G01X0034000Y0022850D01*
G01X0034000Y0023150D02*
G01X0034000Y0022850D01*
G01X0034050Y0023200D02*
G01X0034000Y0023150D01*
G01X0034050Y0023200D02*
G01X0034150Y0023200D01*
G01X0034200Y0023150D02*
G01X0034150Y0023200D01*
G01X0033880Y0023150D02*
G01X0033880Y0022800D01*
G01X0033880Y0023150D02*
G01X0033830Y0023200D01*
G01X0033730Y0023200D02*
G01X0033830Y0023200D01*
G01X0033730Y0023200D02*
G01X0033680Y0023150D01*
G01X0033680Y0023150D02*
G01X0033680Y0022800D01*
G01X0033560Y0022900D02*
G01X0033460Y0022800D01*
G01X0033140Y0022800D02*
G01X0033090Y0022850D01*
G01X0033140Y0022800D02*
G01X0033290Y0022800D01*
G01X0033340Y0022850D02*
G01X0033290Y0022800D01*
G01X0033340Y0022950D02*
G01X0033340Y0022850D01*
G01X0033340Y0022950D02*
G01X0033290Y0023000D01*
G01X0033140Y0023000D02*
G01X0033290Y0023000D01*
G01X0033140Y0023000D02*
G01X0033090Y0023050D01*
G01X0033090Y0023150D02*
G01X0033090Y0023050D01*
G01X0033140Y0023200D02*
G01X0033090Y0023150D01*
G01X0033140Y0023200D02*
G01X0033290Y0023200D01*
G01X0033340Y0023150D02*
G01X0033290Y0023200D01*
G01X0032590Y0022800D02*
G01X0032540Y0022850D01*
G01X0032590Y0022800D02*
G01X0032740Y0022800D01*
G01X0032790Y0022850D02*
G01X0032740Y0022800D01*
G01X0032790Y0023150D02*
G01X0032790Y0022850D01*
G01X0032790Y0023150D02*
G01X0032740Y0023200D01*
G01X0032590Y0023200D02*
G01X0032740Y0023200D01*
G01X0032590Y0023200D02*
G01X0032540Y0023150D01*
G01X0032540Y0023150D02*
G01X0032540Y0023050D01*
G01X0032590Y0023000D02*
G01X0032540Y0023050D01*
G01X0032590Y0023000D02*
G01X0032690Y0023000D01*
G01X0032220Y0022800D02*
G01X0032420Y0022800D01*
G01X0032220Y0022800D02*
G01X0032170Y0022850D01*
G01X0032170Y0022950D02*
G01X0032170Y0022850D01*
G01X0032220Y0023000D02*
G01X0032170Y0022950D01*
G01X0032220Y0023000D02*
G01X0032370Y0023000D01*
G01X0032370Y0023200D02*
G01X0032370Y0022800D01*
G01X0032290Y0023000D02*
G01X0032170Y0023200D01*
G01X0032050Y0023150D02*
G01X0032050Y0022850D01*
G01X0032050Y0022850D02*
G01X0032000Y0022800D01*
G01X0031900Y0022800D02*
G01X0032000Y0022800D01*
G01X0031900Y0022800D02*
G01X0031850Y0022850D01*
G01X0031850Y0023150D02*
G01X0031850Y0022850D01*
G01X0031900Y0023200D02*
G01X0031850Y0023150D01*
G01X0031900Y0023200D02*
G01X0032000Y0023200D01*
G01X0032050Y0023150D02*
G01X0032000Y0023200D01*
G01X0031730Y0023150D02*
G01X0031730Y0022800D01*
G01X0031730Y0023150D02*
G01X0031680Y0023200D01*
G01X0031580Y0023200D02*
G01X0031680Y0023200D01*
G01X0031580Y0023200D02*
G01X0031530Y0023150D01*
G01X0031530Y0023150D02*
G01X0031530Y0022800D01*
G01X0031360Y0023200D02*
G01X0031360Y0022800D01*
G01X0031210Y0022800D02*
G01X0031410Y0022800D01*
G01X0031210Y0022800D02*
G01X0031160Y0022850D01*
G01X0031160Y0022950D02*
G01X0031160Y0022850D01*
G01X0031210Y0023000D02*
G01X0031160Y0022950D01*
G01X0031210Y0023000D02*
G01X0031360Y0023000D01*
G01X0030860Y0023200D02*
G01X0030860Y0022900D01*
G01X0030860Y0022900D02*
G01X0030790Y0022800D01*
G01X0030680Y0022800D02*
G01X0030790Y0022800D01*
G01X0030680Y0022800D02*
G01X0030610Y0022900D01*
G01X0030610Y0023200D02*
G01X0030610Y0022900D01*
G01X0030610Y0023000D02*
G01X0030860Y0023000D01*
G01X0030290Y0022800D02*
G01X0030490Y0022800D01*
G01X0030390Y0023200D02*
G01X0030390Y0022800D01*
G01X0029990Y0023150D02*
G01X0029990Y0022800D01*
G01X0029990Y0023150D02*
G01X0029940Y0023200D01*
G01X0029840Y0023200D02*
G01X0029940Y0023200D01*
G01X0029840Y0023200D02*
G01X0029790Y0023150D01*
G01X0029790Y0023150D02*
G01X0029790Y0022800D01*
G01X0029470Y0022800D02*
G01X0029670Y0022800D01*
G01X0029570Y0023200D02*
G01X0029570Y0022800D01*
G01X0029300Y0023200D02*
G01X0029300Y0022800D01*
G01X0029170Y0022800D02*
G01X0029100Y0022870D01*
G01X0029100Y0023130D02*
G01X0029100Y0022870D01*
G01X0029170Y0023200D02*
G01X0029100Y0023130D01*
G01X0029170Y0023200D02*
G01X0029350Y0023200D01*
G01X0029170Y0022800D02*
G01X0029350Y0022800D01*
G01X0035950Y0014350D02*
G01X0035950Y0013950D01*
G01X0035950Y0013950D02*
G01X0035800Y0014150D01*
G01X0035800Y0014150D02*
G01X0035650Y0013950D01*
G01X0035650Y0014350D02*
G01X0035650Y0013950D01*
G01X0035530Y0014300D02*
G01X0035530Y0014000D01*
G01X0035530Y0014000D02*
G01X0035480Y0013950D01*
G01X0035380Y0013950D02*
G01X0035480Y0013950D01*
G01X0035380Y0013950D02*
G01X0035330Y0014000D01*
G01X0035330Y0014300D02*
G01X0035330Y0014000D01*
G01X0035380Y0014350D02*
G01X0035330Y0014300D01*
G01X0035380Y0014350D02*
G01X0035480Y0014350D01*
G01X0035530Y0014300D02*
G01X0035480Y0014350D01*
G01X0035160Y0014350D02*
G01X0035160Y0013950D01*
G01X0035030Y0013950D02*
G01X0034960Y0014020D01*
G01X0034960Y0014280D02*
G01X0034960Y0014020D01*
G01X0035030Y0014350D02*
G01X0034960Y0014280D01*
G01X0035030Y0014350D02*
G01X0035210Y0014350D01*
G01X0035030Y0013950D02*
G01X0035210Y0013950D01*
G01X0034690Y0014130D02*
G01X0034840Y0014130D01*
G01X0034640Y0014350D02*
G01X0034840Y0014350D01*
G01X0034840Y0014350D02*
G01X0034840Y0013950D01*
G01X0034640Y0013950D02*
G01X0034840Y0013950D01*
G01X0038400Y0013750D02*
G01X0038400Y0013350D01*
G01X0038270Y0013350D02*
G01X0038200Y0013420D01*
G01X0038200Y0013680D02*
G01X0038200Y0013420D01*
G01X0038270Y0013750D02*
G01X0038200Y0013680D01*
G01X0038270Y0013750D02*
G01X0038450Y0013750D01*
G01X0038270Y0013350D02*
G01X0038450Y0013350D01*
G01X0037880Y0013350D02*
G01X0037830Y0013400D01*
G01X0037880Y0013350D02*
G01X0038030Y0013350D01*
G01X0038080Y0013400D02*
G01X0038030Y0013350D01*
G01X0038080Y0013500D02*
G01X0038080Y0013400D01*
G01X0038080Y0013500D02*
G01X0038030Y0013550D01*
G01X0037880Y0013550D02*
G01X0038030Y0013550D01*
G01X0037880Y0013550D02*
G01X0037830Y0013600D01*
G01X0037830Y0013700D02*
G01X0037830Y0013600D01*
G01X0037880Y0013750D02*
G01X0037830Y0013700D01*
G01X0037880Y0013750D02*
G01X0038030Y0013750D01*
G01X0038080Y0013700D02*
G01X0038030Y0013750D01*
G01X0037660Y0013750D02*
G01X0037660Y0013350D01*
G01X0037510Y0013350D02*
G01X0037710Y0013350D01*
G01X0037510Y0013350D02*
G01X0037460Y0013400D01*
G01X0037460Y0013500D02*
G01X0037460Y0013400D01*
G01X0037510Y0013550D02*
G01X0037460Y0013500D01*
G01X0037510Y0013550D02*
G01X0037660Y0013550D01*
G01X0043430Y0017050D02*
G01X0043430Y0016950D01*
G01X0043330Y0017050D02*
G01X0043330Y0016950D01*
G01X0043160Y0017350D02*
G01X0043160Y0016950D01*
G01X0043030Y0016950D02*
G01X0042960Y0017020D01*
G01X0042960Y0017280D02*
G01X0042960Y0017020D01*
G01X0043030Y0017350D02*
G01X0042960Y0017280D01*
G01X0043030Y0017350D02*
G01X0043210Y0017350D01*
G01X0043030Y0016950D02*
G01X0043210Y0016950D01*
G01X0042840Y0017300D02*
G01X0042840Y0017000D01*
G01X0042840Y0017000D02*
G01X0042790Y0016950D01*
G01X0042690Y0016950D02*
G01X0042790Y0016950D01*
G01X0042690Y0016950D02*
G01X0042640Y0017000D01*
G01X0042640Y0017300D02*
G01X0042640Y0017000D01*
G01X0042690Y0017350D02*
G01X0042640Y0017300D01*
G01X0042690Y0017350D02*
G01X0042790Y0017350D01*
G01X0042840Y0017300D02*
G01X0042790Y0017350D01*
G01X0042520Y0017350D02*
G01X0042520Y0016950D01*
G01X0042520Y0016950D02*
G01X0042270Y0017350D01*
G01X0042270Y0017350D02*
G01X0042270Y0016950D01*
G01X0042150Y0017050D02*
G01X0042050Y0016950D01*
G01X0041730Y0016950D02*
G01X0041930Y0016950D01*
G01X0041830Y0017350D02*
G01X0041830Y0016950D01*
G01X0041380Y0017350D02*
G01X0041380Y0016950D01*
G01X0041250Y0016950D02*
G01X0041180Y0017020D01*
G01X0041180Y0017280D02*
G01X0041180Y0017020D01*
G01X0041250Y0017350D02*
G01X0041180Y0017280D01*
G01X0041250Y0017350D02*
G01X0041430Y0017350D01*
G01X0041250Y0016950D02*
G01X0041430Y0016950D01*
G01X0041060Y0017300D02*
G01X0041060Y0017000D01*
G01X0041060Y0017000D02*
G01X0041010Y0016950D01*
G01X0040910Y0016950D02*
G01X0041010Y0016950D01*
G01X0040910Y0016950D02*
G01X0040860Y0017000D01*
G01X0040860Y0017300D02*
G01X0040860Y0017000D01*
G01X0040910Y0017350D02*
G01X0040860Y0017300D01*
G01X0040910Y0017350D02*
G01X0041010Y0017350D01*
G01X0041060Y0017300D02*
G01X0041010Y0017350D01*
G01X0040560Y0017350D02*
G01X0040560Y0017050D01*
G01X0040560Y0017050D02*
G01X0040490Y0016950D01*
G01X0040380Y0016950D02*
G01X0040490Y0016950D01*
G01X0040380Y0016950D02*
G01X0040310Y0017050D01*
G01X0040310Y0017350D02*
G01X0040310Y0017050D01*
G01X0040310Y0017150D02*
G01X0040560Y0017150D01*
G01X0040190Y0017350D02*
G01X0040190Y0016950D01*
G01X0040190Y0016950D02*
G01X0039940Y0017350D01*
G01X0039940Y0017350D02*
G01X0039940Y0016950D01*
G01X0039820Y0016950D02*
G01X0039720Y0017150D01*
G01X0039720Y0017150D02*
G01X0039620Y0016950D01*
G01X0039720Y0017350D02*
G01X0039720Y0017150D01*
G01X0039300Y0016950D02*
G01X0039500Y0016950D01*
G01X0039400Y0017350D02*
G01X0039400Y0016950D01*
G01X0039180Y0017350D02*
G01X0039180Y0016950D01*
G01X0038930Y0017350D02*
G01X0038930Y0016950D01*
G01X0038930Y0017150D02*
G01X0039180Y0017150D01*
G01X0038710Y0016950D02*
G01X0038810Y0016950D01*
G01X0038760Y0017350D02*
G01X0038760Y0016950D01*
G01X0038710Y0017350D02*
G01X0038810Y0017350D01*
G01X0038590Y0017350D02*
G01X0038590Y0016950D01*
G01X0038590Y0016950D02*
G01X0038340Y0017350D01*
G01X0038340Y0017350D02*
G01X0038340Y0016950D01*
G01X0038020Y0016950D02*
G01X0037970Y0017000D01*
G01X0038020Y0016950D02*
G01X0038170Y0016950D01*
G01X0038220Y0017000D02*
G01X0038170Y0016950D01*
G01X0038220Y0017300D02*
G01X0038220Y0017000D01*
G01X0038220Y0017300D02*
G01X0038170Y0017350D01*
G01X0038020Y0017350D02*
G01X0038170Y0017350D01*
G01X0038020Y0017350D02*
G01X0037970Y0017300D01*
G01X0037970Y0017300D02*
G01X0037970Y0017200D01*
G01X0038020Y0017150D02*
G01X0037970Y0017200D01*
G01X0038020Y0017150D02*
G01X0038120Y0017150D01*
G01X0037470Y0016950D02*
G01X0037670Y0016950D01*
G01X0037570Y0017350D02*
G01X0037570Y0016950D01*
G01X0037350Y0017350D02*
G01X0037350Y0016950D01*
G01X0037100Y0017350D02*
G01X0037100Y0016950D01*
G01X0037100Y0017150D02*
G01X0037350Y0017150D01*
G01X0036980Y0017350D02*
G01X0036980Y0017050D01*
G01X0036980Y0017050D02*
G01X0036910Y0016950D01*
G01X0036800Y0016950D02*
G01X0036910Y0016950D01*
G01X0036800Y0016950D02*
G01X0036730Y0017050D01*
G01X0036730Y0017350D02*
G01X0036730Y0017050D01*
G01X0036730Y0017150D02*
G01X0036980Y0017150D01*
G01X0036410Y0016950D02*
G01X0036610Y0016950D01*
G01X0036510Y0017350D02*
G01X0036510Y0016950D01*
G01X0035910Y0016950D02*
G01X0035860Y0017000D01*
G01X0035910Y0016950D02*
G01X0036060Y0016950D01*
G01X0036110Y0017000D02*
G01X0036060Y0016950D01*
G01X0036110Y0017100D02*
G01X0036110Y0017000D01*
G01X0036110Y0017100D02*
G01X0036060Y0017150D01*
G01X0035910Y0017150D02*
G01X0036060Y0017150D01*
G01X0035910Y0017150D02*
G01X0035860Y0017200D01*
G01X0035860Y0017300D02*
G01X0035860Y0017200D01*
G01X0035910Y0017350D02*
G01X0035860Y0017300D01*
G01X0035910Y0017350D02*
G01X0036060Y0017350D01*
G01X0036110Y0017300D02*
G01X0036060Y0017350D01*
G01X0035740Y0017300D02*
G01X0035740Y0017000D01*
G01X0035740Y0017000D02*
G01X0035690Y0016950D01*
G01X0035590Y0016950D02*
G01X0035690Y0016950D01*
G01X0035590Y0016950D02*
G01X0035540Y0017000D01*
G01X0035540Y0017300D02*
G01X0035540Y0017000D01*
G01X0035590Y0017350D02*
G01X0035540Y0017300D01*
G01X0035590Y0017350D02*
G01X0035690Y0017350D01*
G01X0035740Y0017300D02*
G01X0035690Y0017350D01*
G01X0035420Y0017350D02*
G01X0035420Y0016950D01*
G01X0035420Y0016950D02*
G01X0035270Y0017150D01*
G01X0035270Y0017150D02*
G01X0035120Y0016950D01*
G01X0035120Y0017350D02*
G01X0035120Y0016950D01*
G01X0034850Y0017130D02*
G01X0035000Y0017130D01*
G01X0034800Y0017350D02*
G01X0035000Y0017350D01*
G01X0035000Y0017350D02*
G01X0035000Y0016950D01*
G01X0034800Y0016950D02*
G01X0035000Y0016950D01*
G01X0034680Y0017300D02*
G01X0034680Y0017000D01*
G01X0034680Y0017000D02*
G01X0034630Y0016950D01*
G01X0034530Y0016950D02*
G01X0034630Y0016950D01*
G01X0034530Y0016950D02*
G01X0034480Y0017000D01*
G01X0034480Y0017300D02*
G01X0034480Y0017000D01*
G01X0034530Y0017350D02*
G01X0034480Y0017300D01*
G01X0034530Y0017350D02*
G01X0034630Y0017350D01*
G01X0034680Y0017300D02*
G01X0034630Y0017350D01*
G01X0034360Y0017350D02*
G01X0034360Y0016950D01*
G01X0034360Y0016950D02*
G01X0034110Y0017350D01*
G01X0034110Y0017350D02*
G01X0034110Y0016950D01*
G01X0033840Y0017130D02*
G01X0033990Y0017130D01*
G01X0033790Y0017350D02*
G01X0033990Y0017350D01*
G01X0033990Y0017350D02*
G01X0033990Y0016950D01*
G01X0033790Y0016950D02*
G01X0033990Y0016950D01*
G01X0033340Y0017130D02*
G01X0033490Y0017130D01*
G01X0033290Y0017350D02*
G01X0033490Y0017350D01*
G01X0033490Y0017350D02*
G01X0033490Y0016950D01*
G01X0033290Y0016950D02*
G01X0033490Y0016950D01*
G01X0033170Y0017350D02*
G01X0033170Y0016950D01*
G01X0032970Y0017350D02*
G01X0033170Y0017350D01*
G01X0032650Y0016950D02*
G01X0032600Y0017000D01*
G01X0032650Y0016950D02*
G01X0032800Y0016950D01*
G01X0032850Y0017000D02*
G01X0032800Y0016950D01*
G01X0032850Y0017100D02*
G01X0032850Y0017000D01*
G01X0032850Y0017100D02*
G01X0032800Y0017150D01*
G01X0032650Y0017150D02*
G01X0032800Y0017150D01*
G01X0032650Y0017150D02*
G01X0032600Y0017200D01*
G01X0032600Y0017300D02*
G01X0032600Y0017200D01*
G01X0032650Y0017350D02*
G01X0032600Y0017300D01*
G01X0032650Y0017350D02*
G01X0032800Y0017350D01*
G01X0032850Y0017300D02*
G01X0032800Y0017350D01*
G01X0032330Y0017130D02*
G01X0032480Y0017130D01*
G01X0032280Y0017350D02*
G01X0032480Y0017350D01*
G01X0032480Y0017350D02*
G01X0032480Y0016950D01*
G01X0032280Y0016950D02*
G01X0032480Y0016950D01*
G01X0031780Y0017350D02*
G01X0031910Y0017350D01*
G01X0031980Y0017280D02*
G01X0031910Y0017350D01*
G01X0031980Y0017280D02*
G01X0031980Y0017020D01*
G01X0031980Y0017020D02*
G01X0031910Y0016950D01*
G01X0031780Y0016950D02*
G01X0031910Y0016950D01*
G01X0031660Y0017350D02*
G01X0031660Y0017050D01*
G01X0031660Y0017050D02*
G01X0031590Y0016950D01*
G01X0031480Y0016950D02*
G01X0031590Y0016950D01*
G01X0031480Y0016950D02*
G01X0031410Y0017050D01*
G01X0031410Y0017350D02*
G01X0031410Y0017050D01*
G01X0031410Y0017150D02*
G01X0031660Y0017150D01*
G01X0031290Y0017350D02*
G01X0031290Y0016950D01*
G01X0031290Y0016950D02*
G01X0031040Y0017350D01*
G01X0031040Y0017350D02*
G01X0031040Y0016950D01*
G01X0030690Y0017350D02*
G01X0030690Y0016950D01*
G01X0030560Y0016950D02*
G01X0030490Y0017020D01*
G01X0030490Y0017280D02*
G01X0030490Y0017020D01*
G01X0030560Y0017350D02*
G01X0030490Y0017280D01*
G01X0030560Y0017350D02*
G01X0030740Y0017350D01*
G01X0030560Y0016950D02*
G01X0030740Y0016950D01*
G01X0030370Y0017300D02*
G01X0030370Y0017000D01*
G01X0030370Y0017000D02*
G01X0030320Y0016950D01*
G01X0030220Y0016950D02*
G01X0030320Y0016950D01*
G01X0030220Y0016950D02*
G01X0030170Y0017000D01*
G01X0030170Y0017300D02*
G01X0030170Y0017000D01*
G01X0030220Y0017350D02*
G01X0030170Y0017300D01*
G01X0030220Y0017350D02*
G01X0030320Y0017350D01*
G01X0030370Y0017300D02*
G01X0030320Y0017350D01*
G01X0030000Y0017350D02*
G01X0030050Y0017350D01*
G01X0043380Y0017950D02*
G01X0043380Y0017550D01*
G01X0043250Y0017550D02*
G01X0043180Y0017620D01*
G01X0043180Y0017880D02*
G01X0043180Y0017620D01*
G01X0043250Y0017950D02*
G01X0043180Y0017880D01*
G01X0043250Y0017950D02*
G01X0043430Y0017950D01*
G01X0043250Y0017550D02*
G01X0043430Y0017550D01*
G01X0043060Y0017900D02*
G01X0043060Y0017600D01*
G01X0043060Y0017600D02*
G01X0043010Y0017550D01*
G01X0042910Y0017550D02*
G01X0043010Y0017550D01*
G01X0042910Y0017550D02*
G01X0042860Y0017600D01*
G01X0042860Y0017900D02*
G01X0042860Y0017600D01*
G01X0042910Y0017950D02*
G01X0042860Y0017900D01*
G01X0042910Y0017950D02*
G01X0043010Y0017950D01*
G01X0043060Y0017900D02*
G01X0043010Y0017950D01*
G01X0042740Y0017950D02*
G01X0042740Y0017550D01*
G01X0042740Y0017550D02*
G01X0042490Y0017950D01*
G01X0042490Y0017950D02*
G01X0042490Y0017550D01*
G01X0042370Y0017650D02*
G01X0042270Y0017550D01*
G01X0041950Y0017550D02*
G01X0042150Y0017550D01*
G01X0042050Y0017950D02*
G01X0042050Y0017550D01*
G01X0041650Y0017900D02*
G01X0041650Y0017550D01*
G01X0041650Y0017900D02*
G01X0041600Y0017950D01*
G01X0041500Y0017950D02*
G01X0041600Y0017950D01*
G01X0041500Y0017950D02*
G01X0041450Y0017900D01*
G01X0041450Y0017900D02*
G01X0041450Y0017550D01*
G01X0041330Y0017950D02*
G01X0041330Y0017550D01*
G01X0041330Y0017550D02*
G01X0041080Y0017950D01*
G01X0041080Y0017950D02*
G01X0041080Y0017550D01*
G01X0040910Y0017950D02*
G01X0040910Y0017550D01*
G01X0040780Y0017550D02*
G01X0040710Y0017620D01*
G01X0040710Y0017880D02*
G01X0040710Y0017620D01*
G01X0040780Y0017950D02*
G01X0040710Y0017880D01*
G01X0040780Y0017950D02*
G01X0040960Y0017950D01*
G01X0040780Y0017550D02*
G01X0040960Y0017550D01*
G01X0040440Y0017730D02*
G01X0040590Y0017730D01*
G01X0040390Y0017950D02*
G01X0040590Y0017950D01*
G01X0040590Y0017950D02*
G01X0040590Y0017550D01*
G01X0040390Y0017550D02*
G01X0040590Y0017550D01*
G01X0040070Y0017550D02*
G01X0040270Y0017550D01*
G01X0040070Y0017550D02*
G01X0040020Y0017600D01*
G01X0040020Y0017700D02*
G01X0040020Y0017600D01*
G01X0040070Y0017750D02*
G01X0040020Y0017700D01*
G01X0040070Y0017750D02*
G01X0040220Y0017750D01*
G01X0040220Y0017950D02*
G01X0040220Y0017550D01*
G01X0040140Y0017750D02*
G01X0040020Y0017950D01*
G01X0039700Y0017550D02*
G01X0039900Y0017550D01*
G01X0039800Y0017950D02*
G01X0039800Y0017550D01*
G01X0039580Y0017950D02*
G01X0039580Y0017650D01*
G01X0039580Y0017650D02*
G01X0039510Y0017550D01*
G01X0039400Y0017550D02*
G01X0039510Y0017550D01*
G01X0039400Y0017550D02*
G01X0039330Y0017650D01*
G01X0039330Y0017950D02*
G01X0039330Y0017650D01*
G01X0039330Y0017750D02*
G01X0039580Y0017750D01*
G01X0039210Y0017950D02*
G01X0039210Y0017550D01*
G01X0039210Y0017750D02*
G01X0039010Y0017550D01*
G01X0039210Y0017750D02*
G01X0039010Y0017950D01*
G01X0038740Y0017730D02*
G01X0038890Y0017730D01*
G01X0038690Y0017950D02*
G01X0038890Y0017950D01*
G01X0038890Y0017950D02*
G01X0038890Y0017550D01*
G01X0038690Y0017550D02*
G01X0038890Y0017550D01*
G01X0038390Y0017950D02*
G01X0038390Y0017650D01*
G01X0038390Y0017650D02*
G01X0038320Y0017550D01*
G01X0038210Y0017550D02*
G01X0038320Y0017550D01*
G01X0038210Y0017550D02*
G01X0038140Y0017650D01*
G01X0038140Y0017950D02*
G01X0038140Y0017650D01*
G01X0038140Y0017750D02*
G01X0038390Y0017750D01*
G01X0037790Y0017950D02*
G01X0037790Y0017550D01*
G01X0037640Y0017550D02*
G01X0037840Y0017550D01*
G01X0037640Y0017550D02*
G01X0037590Y0017600D01*
G01X0037590Y0017700D02*
G01X0037590Y0017600D01*
G01X0037640Y0017750D02*
G01X0037590Y0017700D01*
G01X0037640Y0017750D02*
G01X0037790Y0017750D01*
G01X0037270Y0017550D02*
G01X0037470Y0017550D01*
G01X0037270Y0017550D02*
G01X0037220Y0017600D01*
G01X0037220Y0017700D02*
G01X0037220Y0017600D01*
G01X0037270Y0017750D02*
G01X0037220Y0017700D01*
G01X0037270Y0017750D02*
G01X0037420Y0017750D01*
G01X0037420Y0017950D02*
G01X0037420Y0017550D01*
G01X0037340Y0017750D02*
G01X0037220Y0017950D01*
G01X0037100Y0017900D02*
G01X0037100Y0017600D01*
G01X0037100Y0017600D02*
G01X0037050Y0017550D01*
G01X0036950Y0017550D02*
G01X0037050Y0017550D01*
G01X0036950Y0017550D02*
G01X0036900Y0017600D01*
G01X0036900Y0017900D02*
G01X0036900Y0017600D01*
G01X0036950Y0017950D02*
G01X0036900Y0017900D01*
G01X0036950Y0017950D02*
G01X0037050Y0017950D01*
G01X0037100Y0017900D02*
G01X0037050Y0017950D01*
G01X0036630Y0017550D02*
G01X0036710Y0017550D01*
G01X0036630Y0017900D02*
G01X0036630Y0017550D01*
G01X0036680Y0017950D02*
G01X0036630Y0017900D01*
G01X0036680Y0017950D02*
G01X0036730Y0017950D01*
G01X0036780Y0017900D02*
G01X0036730Y0017950D01*
G01X0036780Y0017900D02*
G01X0036780Y0017850D01*
G01X0036360Y0017730D02*
G01X0036510Y0017730D01*
G01X0036310Y0017950D02*
G01X0036510Y0017950D01*
G01X0036510Y0017950D02*
G01X0036510Y0017550D01*
G01X0036310Y0017550D02*
G01X0036510Y0017550D01*
G01X0035990Y0017950D02*
G01X0036120Y0017950D01*
G01X0036190Y0017880D02*
G01X0036120Y0017950D01*
G01X0036190Y0017880D02*
G01X0036190Y0017620D01*
G01X0036190Y0017620D02*
G01X0036120Y0017550D01*
G01X0035990Y0017550D02*
G01X0036120Y0017550D01*
G01X0035670Y0017550D02*
G01X0035870Y0017550D01*
G01X0035770Y0017950D02*
G01X0035770Y0017550D01*
G01X0035370Y0017900D02*
G01X0035370Y0017550D01*
G01X0035370Y0017900D02*
G01X0035320Y0017950D01*
G01X0035220Y0017950D02*
G01X0035320Y0017950D01*
G01X0035220Y0017950D02*
G01X0035170Y0017900D01*
G01X0035170Y0017900D02*
G01X0035170Y0017550D01*
G01X0035050Y0017950D02*
G01X0035050Y0017550D01*
G01X0035050Y0017550D02*
G01X0034800Y0017950D01*
G01X0034800Y0017950D02*
G01X0034800Y0017550D01*
G01X0034680Y0017950D02*
G01X0034680Y0017550D01*
G01X0034480Y0017950D02*
G01X0034680Y0017950D01*
G01X0034210Y0017730D02*
G01X0034360Y0017730D01*
G01X0034160Y0017950D02*
G01X0034360Y0017950D01*
G01X0034360Y0017950D02*
G01X0034360Y0017550D01*
G01X0034160Y0017550D02*
G01X0034360Y0017550D01*
G01X0033840Y0017550D02*
G01X0033790Y0017600D01*
G01X0033840Y0017550D02*
G01X0033990Y0017550D01*
G01X0034040Y0017600D02*
G01X0033990Y0017550D01*
G01X0034040Y0017700D02*
G01X0034040Y0017600D01*
G01X0034040Y0017700D02*
G01X0033990Y0017750D01*
G01X0033840Y0017750D02*
G01X0033990Y0017750D01*
G01X0033840Y0017750D02*
G01X0033790Y0017800D01*
G01X0033790Y0017900D02*
G01X0033790Y0017800D01*
G01X0033840Y0017950D02*
G01X0033790Y0017900D01*
G01X0033840Y0017950D02*
G01X0033990Y0017950D01*
G01X0034040Y0017900D02*
G01X0033990Y0017950D01*
G01X0033470Y0017550D02*
G01X0033420Y0017600D01*
G01X0033470Y0017550D02*
G01X0033620Y0017550D01*
G01X0033670Y0017600D02*
G01X0033620Y0017550D01*
G01X0033670Y0017700D02*
G01X0033670Y0017600D01*
G01X0033670Y0017700D02*
G01X0033620Y0017750D01*
G01X0033470Y0017750D02*
G01X0033620Y0017750D01*
G01X0033470Y0017750D02*
G01X0033420Y0017800D01*
G01X0033420Y0017900D02*
G01X0033420Y0017800D01*
G01X0033470Y0017950D02*
G01X0033420Y0017900D01*
G01X0033470Y0017950D02*
G01X0033620Y0017950D01*
G01X0033670Y0017900D02*
G01X0033620Y0017950D01*
G01X0033020Y0017550D02*
G01X0033120Y0017550D01*
G01X0033070Y0017950D02*
G01X0033070Y0017550D01*
G01X0033020Y0017950D02*
G01X0033120Y0017950D01*
G01X0032700Y0017550D02*
G01X0032900Y0017550D01*
G01X0032800Y0017950D02*
G01X0032800Y0017550D01*
G01X0032300Y0017550D02*
G01X0032400Y0017550D01*
G01X0032350Y0017950D02*
G01X0032350Y0017550D01*
G01X0032300Y0017950D02*
G01X0032400Y0017950D01*
G01X0031980Y0017550D02*
G01X0031930Y0017600D01*
G01X0031980Y0017550D02*
G01X0032130Y0017550D01*
G01X0032180Y0017600D02*
G01X0032130Y0017550D01*
G01X0032180Y0017700D02*
G01X0032180Y0017600D01*
G01X0032180Y0017700D02*
G01X0032130Y0017750D01*
G01X0031980Y0017750D02*
G01X0032130Y0017750D01*
G01X0031980Y0017750D02*
G01X0031930Y0017800D01*
G01X0031930Y0017900D02*
G01X0031930Y0017800D01*
G01X0031980Y0017950D02*
G01X0031930Y0017900D01*
G01X0031980Y0017950D02*
G01X0032130Y0017950D01*
G01X0032180Y0017900D02*
G01X0032130Y0017950D01*
G01X0031630Y0017950D02*
G01X0031630Y0017550D01*
G01X0031630Y0017550D02*
G01X0031480Y0017750D01*
G01X0031480Y0017750D02*
G01X0031330Y0017550D01*
G01X0031330Y0017950D02*
G01X0031330Y0017550D01*
G01X0031210Y0017950D02*
G01X0031210Y0017650D01*
G01X0031210Y0017650D02*
G01X0031140Y0017550D01*
G01X0031030Y0017550D02*
G01X0031140Y0017550D01*
G01X0031030Y0017550D02*
G01X0030960Y0017650D01*
G01X0030960Y0017950D02*
G01X0030960Y0017650D01*
G01X0030960Y0017750D02*
G01X0031210Y0017750D01*
G01X0030840Y0017950D02*
G01X0030840Y0017550D01*
G01X0030840Y0017550D02*
G01X0030590Y0017950D01*
G01X0030590Y0017950D02*
G01X0030590Y0017550D01*
G01X0030370Y0017550D02*
G01X0030470Y0017550D01*
G01X0030420Y0017950D02*
G01X0030420Y0017550D01*
G01X0030370Y0017950D02*
G01X0030470Y0017950D01*
G01X0030250Y0017950D02*
G01X0030250Y0017550D01*
G01X0030050Y0017550D02*
G01X0030250Y0017550D01*
G01X0030100Y0017730D02*
G01X0030250Y0017730D01*
G01X0029780Y0017730D02*
G01X0029930Y0017730D01*
G01X0029730Y0017950D02*
G01X0029930Y0017950D01*
G01X0029930Y0017950D02*
G01X0029930Y0017550D01*
G01X0029730Y0017550D02*
G01X0029930Y0017550D01*
G01X0029410Y0017550D02*
G01X0029360Y0017600D01*
G01X0029410Y0017550D02*
G01X0029560Y0017550D01*
G01X0029610Y0017600D02*
G01X0029560Y0017550D01*
G01X0029610Y0017700D02*
G01X0029610Y0017600D01*
G01X0029610Y0017700D02*
G01X0029560Y0017750D01*
G01X0029410Y0017750D02*
G01X0029560Y0017750D01*
G01X0029410Y0017750D02*
G01X0029360Y0017800D01*
G01X0029360Y0017900D02*
G01X0029360Y0017800D01*
G01X0029410Y0017950D02*
G01X0029360Y0017900D01*
G01X0029410Y0017950D02*
G01X0029560Y0017950D01*
G01X0029610Y0017900D02*
G01X0029560Y0017950D01*
G01X0029040Y0017550D02*
G01X0029240Y0017550D01*
G01X0029140Y0017950D02*
G01X0029140Y0017550D01*
G01X0028920Y0017950D02*
G01X0028920Y0017550D01*
G01X0028720Y0017950D02*
G01X0028920Y0017950D01*
G01X0028600Y0017550D02*
G01X0028500Y0017750D01*
G01X0028500Y0017750D02*
G01X0028400Y0017550D01*
G01X0028500Y0017950D02*
G01X0028500Y0017750D01*
G01X0043330Y0018150D02*
G01X0043430Y0018150D01*
G01X0043380Y0018550D02*
G01X0043380Y0018150D01*
G01X0043330Y0018550D02*
G01X0043430Y0018550D01*
G01X0043210Y0018550D02*
G01X0043210Y0018150D01*
G01X0043210Y0018150D02*
G01X0043060Y0018350D01*
G01X0043060Y0018350D02*
G01X0042910Y0018150D01*
G01X0042910Y0018550D02*
G01X0042910Y0018150D01*
G01X0042740Y0018550D02*
G01X0042740Y0018150D01*
G01X0042590Y0018150D02*
G01X0042790Y0018150D01*
G01X0042590Y0018150D02*
G01X0042540Y0018200D01*
G01X0042540Y0018300D02*
G01X0042540Y0018200D01*
G01X0042590Y0018350D02*
G01X0042540Y0018300D01*
G01X0042590Y0018350D02*
G01X0042740Y0018350D01*
G01X0042420Y0018500D02*
G01X0042420Y0018200D01*
G01X0042420Y0018200D02*
G01X0042370Y0018150D01*
G01X0042270Y0018150D02*
G01X0042370Y0018150D01*
G01X0042270Y0018150D02*
G01X0042220Y0018200D01*
G01X0042220Y0018500D02*
G01X0042220Y0018200D01*
G01X0042270Y0018550D02*
G01X0042220Y0018500D01*
G01X0042270Y0018550D02*
G01X0042370Y0018550D01*
G01X0042420Y0018500D02*
G01X0042370Y0018550D01*
G01X0041900Y0018150D02*
G01X0042100Y0018150D01*
G01X0041900Y0018150D02*
G01X0041850Y0018200D01*
G01X0041850Y0018300D02*
G01X0041850Y0018200D01*
G01X0041900Y0018350D02*
G01X0041850Y0018300D01*
G01X0041900Y0018350D02*
G01X0042050Y0018350D01*
G01X0042050Y0018550D02*
G01X0042050Y0018150D01*
G01X0041970Y0018350D02*
G01X0041850Y0018550D01*
G01X0041530Y0018150D02*
G01X0041730Y0018150D01*
G01X0041630Y0018550D02*
G01X0041630Y0018150D01*
G01X0041410Y0018550D02*
G01X0041410Y0018250D01*
G01X0041410Y0018250D02*
G01X0041340Y0018150D01*
G01X0041230Y0018150D02*
G01X0041340Y0018150D01*
G01X0041230Y0018150D02*
G01X0041160Y0018250D01*
G01X0041160Y0018550D02*
G01X0041160Y0018250D01*
G01X0041160Y0018350D02*
G01X0041410Y0018350D01*
G01X0041040Y0018550D02*
G01X0041040Y0018150D01*
G01X0041040Y0018150D02*
G01X0040790Y0018550D01*
G01X0040790Y0018550D02*
G01X0040790Y0018150D01*
G01X0040470Y0018150D02*
G01X0040670Y0018150D01*
G01X0040570Y0018550D02*
G01X0040570Y0018150D01*
G01X0040170Y0018550D02*
G01X0040170Y0018250D01*
G01X0040170Y0018250D02*
G01X0040100Y0018150D01*
G01X0039990Y0018150D02*
G01X0040100Y0018150D01*
G01X0039990Y0018150D02*
G01X0039920Y0018250D01*
G01X0039920Y0018550D02*
G01X0039920Y0018250D01*
G01X0039920Y0018350D02*
G01X0040170Y0018350D01*
G01X0039800Y0018550D02*
G01X0039800Y0018150D01*
G01X0039800Y0018150D02*
G01X0039550Y0018550D01*
G01X0039550Y0018550D02*
G01X0039550Y0018150D01*
G01X0039380Y0018550D02*
G01X0039380Y0018150D01*
G01X0039250Y0018150D02*
G01X0039180Y0018220D01*
G01X0039180Y0018480D02*
G01X0039180Y0018220D01*
G01X0039250Y0018550D02*
G01X0039180Y0018480D01*
G01X0039250Y0018550D02*
G01X0039430Y0018550D01*
G01X0039250Y0018150D02*
G01X0039430Y0018150D01*
G01X0038880Y0018550D02*
G01X0038880Y0018150D01*
G01X0038880Y0018150D02*
G01X0038630Y0018550D01*
G01X0038630Y0018550D02*
G01X0038630Y0018150D01*
G01X0038360Y0018330D02*
G01X0038510Y0018330D01*
G01X0038310Y0018550D02*
G01X0038510Y0018550D01*
G01X0038510Y0018550D02*
G01X0038510Y0018150D01*
G01X0038310Y0018150D02*
G01X0038510Y0018150D01*
G01X0038190Y0018550D02*
G01X0038190Y0018250D01*
G01X0038190Y0018250D02*
G01X0038120Y0018150D01*
G01X0038010Y0018150D02*
G01X0038120Y0018150D01*
G01X0038010Y0018150D02*
G01X0037940Y0018250D01*
G01X0037940Y0018550D02*
G01X0037940Y0018250D01*
G01X0037940Y0018350D02*
G01X0038190Y0018350D01*
G01X0037620Y0018150D02*
G01X0037820Y0018150D01*
G01X0037620Y0018150D02*
G01X0037570Y0018200D01*
G01X0037570Y0018300D02*
G01X0037570Y0018200D01*
G01X0037620Y0018350D02*
G01X0037570Y0018300D01*
G01X0037620Y0018350D02*
G01X0037770Y0018350D01*
G01X0037770Y0018550D02*
G01X0037770Y0018150D01*
G01X0037690Y0018350D02*
G01X0037570Y0018550D01*
G01X0037450Y0018550D02*
G01X0037450Y0018150D01*
G01X0037250Y0018550D02*
G01X0037450Y0018550D01*
G01X0037130Y0018150D02*
G01X0037030Y0018350D01*
G01X0037030Y0018350D02*
G01X0036930Y0018150D01*
G01X0037030Y0018550D02*
G01X0037030Y0018350D01*
G01X0036530Y0018150D02*
G01X0036630Y0018150D01*
G01X0036580Y0018550D02*
G01X0036580Y0018150D01*
G01X0036530Y0018550D02*
G01X0036630Y0018550D01*
G01X0036410Y0018550D02*
G01X0036410Y0018150D01*
G01X0036410Y0018150D02*
G01X0036260Y0018350D01*
G01X0036260Y0018350D02*
G01X0036110Y0018150D01*
G01X0036110Y0018550D02*
G01X0036110Y0018150D01*
G01X0035940Y0018550D02*
G01X0035940Y0018150D01*
G01X0035790Y0018150D02*
G01X0035990Y0018150D01*
G01X0035790Y0018150D02*
G01X0035740Y0018200D01*
G01X0035740Y0018300D02*
G01X0035740Y0018200D01*
G01X0035790Y0018350D02*
G01X0035740Y0018300D01*
G01X0035790Y0018350D02*
G01X0035940Y0018350D01*
G01X0035620Y0018500D02*
G01X0035620Y0018200D01*
G01X0035620Y0018200D02*
G01X0035570Y0018150D01*
G01X0035470Y0018150D02*
G01X0035570Y0018150D01*
G01X0035470Y0018150D02*
G01X0035420Y0018200D01*
G01X0035420Y0018500D02*
G01X0035420Y0018200D01*
G01X0035470Y0018550D02*
G01X0035420Y0018500D01*
G01X0035470Y0018550D02*
G01X0035570Y0018550D01*
G01X0035620Y0018500D02*
G01X0035570Y0018550D01*
G01X0035100Y0018150D02*
G01X0035050Y0018200D01*
G01X0035100Y0018150D02*
G01X0035250Y0018150D01*
G01X0035300Y0018200D02*
G01X0035250Y0018150D01*
G01X0035300Y0018300D02*
G01X0035300Y0018200D01*
G01X0035300Y0018300D02*
G01X0035250Y0018350D01*
G01X0035100Y0018350D02*
G01X0035250Y0018350D01*
G01X0035100Y0018350D02*
G01X0035050Y0018400D01*
G01X0035050Y0018500D02*
G01X0035050Y0018400D01*
G01X0035100Y0018550D02*
G01X0035050Y0018500D01*
G01X0035100Y0018550D02*
G01X0035250Y0018550D01*
G01X0035300Y0018500D02*
G01X0035250Y0018550D01*
G01X0034730Y0018150D02*
G01X0034680Y0018200D01*
G01X0034730Y0018150D02*
G01X0034880Y0018150D01*
G01X0034930Y0018200D02*
G01X0034880Y0018150D01*
G01X0034930Y0018300D02*
G01X0034930Y0018200D01*
G01X0034930Y0018300D02*
G01X0034880Y0018350D01*
G01X0034730Y0018350D02*
G01X0034880Y0018350D01*
G01X0034730Y0018350D02*
G01X0034680Y0018400D01*
G01X0034680Y0018500D02*
G01X0034680Y0018400D01*
G01X0034730Y0018550D02*
G01X0034680Y0018500D01*
G01X0034730Y0018550D02*
G01X0034880Y0018550D01*
G01X0034930Y0018500D02*
G01X0034880Y0018550D01*
G01X0034460Y0018150D02*
G01X0034560Y0018150D01*
G01X0034510Y0018550D02*
G01X0034510Y0018150D01*
G01X0034460Y0018550D02*
G01X0034560Y0018550D01*
G01X0034140Y0018550D02*
G01X0034340Y0018550D01*
G01X0034140Y0018550D02*
G01X0034090Y0018500D01*
G01X0034090Y0018500D02*
G01X0034090Y0018380D01*
G01X0034140Y0018330D02*
G01X0034090Y0018380D01*
G01X0034140Y0018330D02*
G01X0034290Y0018330D01*
G01X0034290Y0018550D02*
G01X0034290Y0018150D01*
G01X0034140Y0018150D02*
G01X0034340Y0018150D01*
G01X0034140Y0018150D02*
G01X0034090Y0018200D01*
G01X0034090Y0018280D02*
G01X0034090Y0018200D01*
G01X0034140Y0018330D02*
G01X0034090Y0018280D01*
G01X0033970Y0018550D02*
G01X0033970Y0018150D01*
G01X0033770Y0018550D02*
G01X0033970Y0018550D01*
G01X0033500Y0018330D02*
G01X0033650Y0018330D01*
G01X0033450Y0018550D02*
G01X0033650Y0018550D01*
G01X0033650Y0018550D02*
G01X0033650Y0018150D01*
G01X0033450Y0018150D02*
G01X0033650Y0018150D01*
G01X0033280Y0018550D02*
G01X0033330Y0018550D01*
G01X0033160Y0018250D02*
G01X0033160Y0018150D01*
G01X0033060Y0018250D02*
G01X0033060Y0018150D01*
G01X0032560Y0018350D02*
G01X0032760Y0018350D01*
G01X0032290Y0018330D02*
G01X0032440Y0018330D01*
G01X0032240Y0018550D02*
G01X0032440Y0018550D01*
G01X0032440Y0018550D02*
G01X0032440Y0018150D01*
G01X0032240Y0018150D02*
G01X0032440Y0018150D01*
G01X0032070Y0018550D02*
G01X0032070Y0018150D01*
G01X0031940Y0018150D02*
G01X0031870Y0018220D01*
G01X0031870Y0018480D02*
G01X0031870Y0018220D01*
G01X0031940Y0018550D02*
G01X0031870Y0018480D01*
G01X0031940Y0018550D02*
G01X0032120Y0018550D01*
G01X0031940Y0018150D02*
G01X0032120Y0018150D01*
G01X0031750Y0018350D02*
G01X0031750Y0018150D01*
G01X0031750Y0018350D02*
G01X0031700Y0018550D01*
G01X0031700Y0018550D02*
G01X0031600Y0018350D01*
G01X0031600Y0018350D02*
G01X0031500Y0018550D01*
G01X0031500Y0018550D02*
G01X0031450Y0018350D01*
G01X0031450Y0018350D02*
G01X0031450Y0018150D01*
G01X0031230Y0018150D02*
G01X0031330Y0018150D01*
G01X0031280Y0018550D02*
G01X0031280Y0018150D01*
G01X0031230Y0018550D02*
G01X0031330Y0018550D01*
G01X0031110Y0018550D02*
G01X0031110Y0018150D01*
G01X0031110Y0018150D02*
G01X0030860Y0018550D01*
G01X0030860Y0018550D02*
G01X0030860Y0018150D01*
G01X0030560Y0018550D02*
G01X0030560Y0018150D01*
G01X0030360Y0018550D02*
G01X0030560Y0018550D01*
G01X0030240Y0018550D02*
G01X0030240Y0018250D01*
G01X0030240Y0018250D02*
G01X0030170Y0018150D01*
G01X0030060Y0018150D02*
G01X0030170Y0018150D01*
G01X0030060Y0018150D02*
G01X0029990Y0018250D01*
G01X0029990Y0018550D02*
G01X0029990Y0018250D01*
G01X0029990Y0018350D02*
G01X0030240Y0018350D01*
G01X0029870Y0018550D02*
G01X0029870Y0018150D01*
G01X0029870Y0018150D02*
G01X0029620Y0018550D01*
G01X0029620Y0018550D02*
G01X0029620Y0018150D01*
G01X0029450Y0018550D02*
G01X0029450Y0018150D01*
G01X0029320Y0018150D02*
G01X0029250Y0018220D01*
G01X0029250Y0018480D02*
G01X0029250Y0018220D01*
G01X0029320Y0018550D02*
G01X0029250Y0018480D01*
G01X0029320Y0018550D02*
G01X0029500Y0018550D01*
G01X0029320Y0018150D02*
G01X0029500Y0018150D01*
G54D12*
G01X0009483Y0039588D02*
G01X0009483Y0035336D01*
G01X0009483Y0039588D02*
G01X0012947Y0039588D01*
G01X0012947Y0039588D02*
G01X0012947Y0035336D01*
G01X0009483Y0035336D02*
G01X0012947Y0035336D01*
G01X0012416Y0038171D02*
G01X0012416Y0036754D01*
G01X0012790Y0039431D02*
G01X0012790Y0035494D01*
G01X0009640Y0036675D02*
G01X0012416Y0036754D01*
G01X0009640Y0038250D02*
G01X0012416Y0038171D01*
G01X0012219Y0034825D02*
G01X0012672Y0034825D01*
G01X0012672Y0035140D02*
G01X0012672Y0034825D01*
G01X0012436Y0035140D02*
G01X0012672Y0035140D01*
G01X0012514Y0034982D03*
G01X0012436Y0035140D02*
G01X0012337Y0035080D01*
G01X0012298Y0035080D02*
G01X0012337Y0035080D01*
G01X0012298Y0035080D02*
G01X0012219Y0035159D01*
G01X0011983Y0036741D02*
G01X0011983Y0035597D01*
G01X0011983Y0039330D02*
G01X0011983Y0038183D01*
G01X0009640Y0036675D02*
G01X0009640Y0035888D01*
G01X0009640Y0039037D02*
G01X0009640Y0038250D01*
G01X0012219Y0039785D02*
G01X0012672Y0039785D01*
G01X0012672Y0040100D02*
G01X0012672Y0039785D01*
G01X0012436Y0040100D02*
G01X0012672Y0040100D01*
G01X0012514Y0039943D03*
G01X0012436Y0040100D02*
G01X0012337Y0040041D01*
G01X0012298Y0040041D02*
G01X0012337Y0040041D01*
G01X0012298Y0040041D02*
G01X0012219Y0040120D01*
G01X0012416Y0035494D02*
G01X0012790Y0035494D01*
G01X0012416Y0035494D02*
G01X0009640Y0035888D01*
G01X0012416Y0039431D02*
G01X0012790Y0039431D01*
G01X0012416Y0039431D02*
G01X0009640Y0039037D01*
G01X0016433Y0019586D02*
G01X0016433Y0023838D01*
G01X0016433Y0023838D02*
G01X0019897Y0023838D01*
G01X0019897Y0019586D02*
G01X0019897Y0023838D01*
G01X0016433Y0019586D02*
G01X0019897Y0019586D01*
G01X0019366Y0021004D02*
G01X0019366Y0022421D01*
G01X0019740Y0019744D02*
G01X0019740Y0023681D01*
G01X0016590Y0020925D02*
G01X0019366Y0021004D01*
G01X0016590Y0022500D02*
G01X0019366Y0022421D01*
G01X0019169Y0019075D02*
G01X0019622Y0019075D01*
G01X0019622Y0019075D02*
G01X0019622Y0019390D01*
G01X0019386Y0019390D02*
G01X0019622Y0019390D01*
G01X0019464Y0019232D03*
G01X0019386Y0019390D02*
G01X0019287Y0019330D01*
G01X0019248Y0019330D02*
G01X0019287Y0019330D01*
G01X0019248Y0019330D02*
G01X0019169Y0019409D01*
G01X0018933Y0019847D02*
G01X0018933Y0020991D01*
G01X0018933Y0022433D02*
G01X0018933Y0023580D01*
G01X0016590Y0020138D02*
G01X0016590Y0020925D01*
G01X0016590Y0022500D02*
G01X0016590Y0023287D01*
G01X0019169Y0024035D02*
G01X0019622Y0024035D01*
G01X0019622Y0024035D02*
G01X0019622Y0024350D01*
G01X0019386Y0024350D02*
G01X0019622Y0024350D01*
G01X0019464Y0024193D03*
G01X0019386Y0024350D02*
G01X0019287Y0024291D01*
G01X0019248Y0024291D02*
G01X0019287Y0024291D01*
G01X0019248Y0024291D02*
G01X0019169Y0024370D01*
G01X0019366Y0019744D02*
G01X0019740Y0019744D01*
G01X0019366Y0019744D02*
G01X0016590Y0020138D01*
G01X0019366Y0023681D02*
G01X0019740Y0023681D01*
G01X0019366Y0023681D02*
G01X0016590Y0023287D01*
G01X0026185Y0030612D02*
G01X0026185Y0026360D01*
G01X0022721Y0026360D02*
G01X0026185Y0026360D01*
G01X0022721Y0030612D02*
G01X0022721Y0026360D01*
G01X0022721Y0030612D02*
G01X0026185Y0030612D01*
G01X0023252Y0029194D02*
G01X0023252Y0027777D01*
G01X0022878Y0030454D02*
G01X0022878Y0026517D01*
G01X0026028Y0029273D02*
G01X0023252Y0029194D01*
G01X0026028Y0027698D02*
G01X0023252Y0027777D01*
G01X0022996Y0031124D02*
G01X0023449Y0031124D01*
G01X0022996Y0031124D02*
G01X0022996Y0030809D01*
G01X0022996Y0030809D02*
G01X0023232Y0030809D01*
G01X0023154Y0030966D03*
G01X0023232Y0030809D02*
G01X0023331Y0030868D01*
G01X0023331Y0030868D02*
G01X0023370Y0030868D01*
G01X0023370Y0030868D02*
G01X0023449Y0030789D01*
G01X0023685Y0030351D02*
G01X0023685Y0029207D01*
G01X0023685Y0027765D02*
G01X0023685Y0026618D01*
G01X0026028Y0030061D02*
G01X0026028Y0029273D01*
G01X0026028Y0027698D02*
G01X0026028Y0026911D01*
G01X0022996Y0026163D02*
G01X0023449Y0026163D01*
G01X0022996Y0026163D02*
G01X0022996Y0025848D01*
G01X0022996Y0025848D02*
G01X0023232Y0025848D01*
G01X0023154Y0026005D03*
G01X0023232Y0025848D02*
G01X0023331Y0025907D01*
G01X0023331Y0025907D02*
G01X0023370Y0025907D01*
G01X0023370Y0025907D02*
G01X0023449Y0025828D01*
G01X0022878Y0030454D02*
G01X0023252Y0030454D01*
G01X0023252Y0030454D02*
G01X0026028Y0030061D01*
G01X0022878Y0026517D02*
G01X0023252Y0026517D01*
G01X0023252Y0026517D02*
G01X0026028Y0026911D01*
G54D13*
G01X0037231Y0015900D02*
G01X0037231Y0014600D01*
G01X0037231Y0015900D02*
G01X0038569Y0015900D01*
G01X0037231Y0014600D02*
G01X0038215Y0014600D01*
G01X0038215Y0014600D03*
G01X0038668Y0014935D02*
G01X0038668Y0014502D01*
G01X0038215Y0014502D02*
G01X0038668Y0014502D01*
G01X0038569Y0014935D02*
G01X0038668Y0014935D01*
G01X0038668Y0014502D03*
G01X0038569Y0015900D02*
G01X0038569Y0014955D01*
G01X0038215Y0014600D02*
G01X0038215Y0014502D01*
G01X0038215Y0014581D02*
G01X0038569Y0014935D01*
G54D12*
G01X0038915Y0025244D02*
G01X0043167Y0025244D01*
G01X0038915Y0028708D02*
G01X0038915Y0025244D01*
G01X0038915Y0028708D02*
G01X0043167Y0028708D01*
G01X0043167Y0028708D02*
G01X0043167Y0025244D01*
G01X0040332Y0028177D02*
G01X0041750Y0028177D01*
G01X0039073Y0028551D02*
G01X0043010Y0028551D01*
G01X0041828Y0025401D02*
G01X0041750Y0028177D01*
G01X0040254Y0025401D02*
G01X0040332Y0028177D01*
G01X0043679Y0028433D02*
G01X0043679Y0027980D01*
G01X0043364Y0028433D02*
G01X0043679Y0028433D01*
G01X0043364Y0028433D02*
G01X0043364Y0028197D01*
G01X0043521Y0028275D03*
G01X0043364Y0028197D02*
G01X0043423Y0028098D01*
G01X0043423Y0028098D02*
G01X0043423Y0028059D01*
G01X0043423Y0028059D02*
G01X0043344Y0027980D01*
G01X0041762Y0027744D02*
G01X0042906Y0027744D01*
G01X0039173Y0027744D02*
G01X0040320Y0027744D01*
G01X0041828Y0025401D02*
G01X0042616Y0025401D01*
G01X0039466Y0025401D02*
G01X0040254Y0025401D01*
G01X0038718Y0028433D02*
G01X0038718Y0027980D01*
G01X0038403Y0028433D02*
G01X0038718Y0028433D01*
G01X0038403Y0028433D02*
G01X0038403Y0028197D01*
G01X0038561Y0028275D03*
G01X0038403Y0028197D02*
G01X0038462Y0028098D01*
G01X0038462Y0028098D02*
G01X0038462Y0028059D01*
G01X0038462Y0028059D02*
G01X0038384Y0027980D01*
G01X0043010Y0028551D02*
G01X0043010Y0028177D01*
G01X0043010Y0028177D02*
G01X0042616Y0025401D01*
G01X0039073Y0028551D02*
G01X0039073Y0028177D01*
G01X0039073Y0028177D02*
G01X0039466Y0025401D01*
G54D11*
G01X0024207Y0029144D02*
G01X0024207Y0029014D01*
G01X0024277Y0029214D02*
G01X0024207Y0029144D01*
G01X0024277Y0029214D02*
G01X0024537Y0029214D01*
G01X0024537Y0029214D02*
G01X0024607Y0029144D01*
G01X0024607Y0029144D02*
G01X0024607Y0029014D01*
G01X0024207Y0028894D02*
G01X0024607Y0028894D01*
G01X0024207Y0028894D02*
G01X0024207Y0028694D01*
G01X0024607Y0028574D02*
G01X0024607Y0028474D01*
G01X0024207Y0028524D02*
G01X0024607Y0028524D01*
G01X0024207Y0028574D02*
G01X0024207Y0028474D01*
G01X0024207Y0028304D02*
G01X0024607Y0028304D01*
G01X0024607Y0028354D02*
G01X0024607Y0028154D01*
G01X0024607Y0028154D02*
G01X0024557Y0028104D01*
G01X0024457Y0028104D02*
G01X0024557Y0028104D01*
G01X0024407Y0028154D02*
G01X0024457Y0028104D01*
G01X0024407Y0028304D02*
G01X0024407Y0028154D01*
G01X0024357Y0027884D02*
G01X0024407Y0027884D01*
G01X0024207Y0027884D02*
G01X0024257Y0027884D01*
G01X0024507Y0027984D02*
G01X0024557Y0027984D01*
G01X0024557Y0027984D02*
G01X0024607Y0027934D01*
G01X0024607Y0027934D02*
G01X0024607Y0027834D01*
G01X0024607Y0027834D02*
G01X0024557Y0027784D01*
G01X0024507Y0027784D02*
G01X0024557Y0027784D01*
G01X0024407Y0027884D02*
G01X0024507Y0027784D01*
G01X0011511Y0036784D02*
G01X0011511Y0036654D01*
G01X0011441Y0036584D02*
G01X0011511Y0036654D01*
G01X0011181Y0036584D02*
G01X0011441Y0036584D01*
G01X0011181Y0036584D02*
G01X0011111Y0036654D01*
G01X0011111Y0036784D02*
G01X0011111Y0036654D01*
G01X0011111Y0036904D02*
G01X0011511Y0036904D01*
G01X0011511Y0037104D02*
G01X0011511Y0036904D01*
G01X0011111Y0037324D02*
G01X0011111Y0037224D01*
G01X0011111Y0037274D02*
G01X0011511Y0037274D01*
G01X0011511Y0037324D02*
G01X0011511Y0037224D01*
G01X0011111Y0037494D02*
G01X0011511Y0037494D01*
G01X0011111Y0037644D02*
G01X0011111Y0037444D01*
G01X0011111Y0037644D02*
G01X0011161Y0037694D01*
G01X0011161Y0037694D02*
G01X0011261Y0037694D01*
G01X0011311Y0037644D02*
G01X0011261Y0037694D01*
G01X0011311Y0037644D02*
G01X0011311Y0037494D01*
G01X0011311Y0037914D02*
G01X0011361Y0037914D01*
G01X0011461Y0037914D02*
G01X0011511Y0037914D01*
G01X0011161Y0037814D02*
G01X0011211Y0037814D01*
G01X0011161Y0037814D02*
G01X0011111Y0037864D01*
G01X0011111Y0037964D02*
G01X0011111Y0037864D01*
G01X0011111Y0037964D02*
G01X0011161Y0038014D01*
G01X0011161Y0038014D02*
G01X0011211Y0038014D01*
G01X0011311Y0037914D02*
G01X0011211Y0038014D01*
G01X0017650Y0030860D02*
G01X0017680Y0030830D01*
G01X0017560Y0030860D02*
G01X0017650Y0030860D01*
G01X0017530Y0030830D02*
G01X0017560Y0030860D01*
G01X0017530Y0030830D02*
G01X0017530Y0030770D01*
G01X0017530Y0030770D02*
G01X0017560Y0030740D01*
G01X0017560Y0030740D02*
G01X0017650Y0030740D01*
G01X0017650Y0030740D02*
G01X0017680Y0030710D01*
G01X0017680Y0030710D02*
G01X0017680Y0030650D01*
G01X0017650Y0030620D02*
G01X0017680Y0030650D01*
G01X0017560Y0030620D02*
G01X0017650Y0030620D01*
G01X0017530Y0030650D02*
G01X0017560Y0030620D01*
G01X0017794Y0030620D02*
G01X0017872Y0030620D01*
G01X0017752Y0030662D02*
G01X0017794Y0030620D01*
G01X0017752Y0030818D02*
G01X0017752Y0030662D01*
G01X0017752Y0030818D02*
G01X0017794Y0030860D01*
G01X0017794Y0030860D02*
G01X0017872Y0030860D01*
G01X0017944Y0030860D02*
G01X0018064Y0030860D01*
G01X0018064Y0030860D02*
G01X0018094Y0030830D01*
G01X0018094Y0030830D02*
G01X0018094Y0030770D01*
G01X0018064Y0030740D02*
G01X0018094Y0030770D01*
G01X0017974Y0030740D02*
G01X0018064Y0030740D01*
G01X0017974Y0030860D02*
G01X0017974Y0030620D01*
G01X0018022Y0030740D02*
G01X0018094Y0030620D01*
G01X0018166Y0030752D02*
G01X0018256Y0030752D01*
G01X0018166Y0030620D02*
G01X0018286Y0030620D01*
G01X0018166Y0030860D02*
G01X0018166Y0030620D01*
G01X0018166Y0030860D02*
G01X0018286Y0030860D01*
G01X0018358Y0030860D02*
G01X0018358Y0030740D01*
G01X0018358Y0030740D02*
G01X0018388Y0030620D01*
G01X0018388Y0030620D02*
G01X0018448Y0030740D01*
G01X0018448Y0030740D02*
G01X0018508Y0030620D01*
G01X0018508Y0030620D02*
G01X0018538Y0030740D01*
G01X0018538Y0030860D02*
G01X0018538Y0030740D01*
G01X0018610Y0030710D02*
G01X0018730Y0030860D01*
G01X0018610Y0030710D02*
G01X0018760Y0030710D01*
G01X0018730Y0030860D02*
G01X0018730Y0030620D01*
G01X0018832Y0030740D02*
G01X0018952Y0030740D01*
G01X0019024Y0030710D02*
G01X0019144Y0030860D01*
G01X0019024Y0030710D02*
G01X0019174Y0030710D01*
G01X0019144Y0030860D02*
G01X0019144Y0030620D01*
G01X0019246Y0030650D02*
G01X0019276Y0030620D01*
G01X0019246Y0030830D02*
G01X0019246Y0030650D01*
G01X0019246Y0030830D02*
G01X0019276Y0030860D01*
G01X0019276Y0030860D02*
G01X0019336Y0030860D01*
G01X0019336Y0030860D02*
G01X0019366Y0030830D01*
G01X0019366Y0030830D02*
G01X0019366Y0030650D01*
G01X0019336Y0030620D02*
G01X0019366Y0030650D01*
G01X0019276Y0030620D02*
G01X0019336Y0030620D01*
G01X0019246Y0030680D02*
G01X0019366Y0030800D01*
G01X0019438Y0030620D02*
G01X0019558Y0030620D01*
G01X0019630Y0030830D02*
G01X0019660Y0030860D01*
G01X0019660Y0030860D02*
G01X0019720Y0030860D01*
G01X0019720Y0030860D02*
G01X0019750Y0030830D01*
G01X0019720Y0030620D02*
G01X0019750Y0030650D01*
G01X0019660Y0030620D02*
G01X0019720Y0030620D01*
G01X0019630Y0030650D02*
G01X0019660Y0030620D01*
G01X0019660Y0030752D02*
G01X0019720Y0030752D01*
G01X0019750Y0030830D02*
G01X0019750Y0030782D01*
G01X0019750Y0030722D02*
G01X0019750Y0030650D01*
G01X0019750Y0030722D02*
G01X0019720Y0030752D01*
G01X0019750Y0030782D02*
G01X0019720Y0030752D01*
G01X0043290Y0030020D02*
G01X0043340Y0030070D01*
G01X0043290Y0030020D02*
G01X0043290Y0029870D01*
G01X0043340Y0029820D02*
G01X0043290Y0029870D01*
G01X0043340Y0029820D02*
G01X0043440Y0029820D01*
G01X0043440Y0029820D02*
G01X0043490Y0029870D01*
G01X0043490Y0030020D02*
G01X0043490Y0029870D01*
G01X0043490Y0030020D02*
G01X0043540Y0030070D01*
G01X0043540Y0030070D02*
G01X0043640Y0030070D01*
G01X0043690Y0030020D02*
G01X0043640Y0030070D01*
G01X0043690Y0030020D02*
G01X0043690Y0029870D01*
G01X0043640Y0029820D02*
G01X0043690Y0029870D01*
G01X0043470Y0030340D02*
G01X0043470Y0030190D01*
G01X0043690Y0030390D02*
G01X0043690Y0030190D01*
G01X0043290Y0030190D02*
G01X0043690Y0030190D01*
G01X0043290Y0030390D02*
G01X0043290Y0030190D01*
G01X0043290Y0030710D02*
G01X0043290Y0030510D01*
G01X0043290Y0030710D02*
G01X0043340Y0030760D01*
G01X0043340Y0030760D02*
G01X0043440Y0030760D01*
G01X0043490Y0030710D02*
G01X0043440Y0030760D01*
G01X0043490Y0030710D02*
G01X0043490Y0030560D01*
G01X0043290Y0030560D02*
G01X0043690Y0030560D01*
G01X0043490Y0030640D02*
G01X0043690Y0030760D01*
G01X0043290Y0030930D02*
G01X0043690Y0030930D01*
G01X0043290Y0031080D02*
G01X0043290Y0030880D01*
G01X0043290Y0031080D02*
G01X0043340Y0031130D01*
G01X0043340Y0031130D02*
G01X0043440Y0031130D01*
G01X0043490Y0031080D02*
G01X0043440Y0031130D01*
G01X0043490Y0031080D02*
G01X0043490Y0030930D01*
G01X0043390Y0031250D02*
G01X0043690Y0031250D01*
G01X0043390Y0031250D02*
G01X0043290Y0031320D01*
G01X0043290Y0031430D02*
G01X0043290Y0031320D01*
G01X0043290Y0031430D02*
G01X0043390Y0031500D01*
G01X0043390Y0031500D02*
G01X0043690Y0031500D01*
G01X0043490Y0031500D02*
G01X0043490Y0031250D01*
G01X0043690Y0031820D02*
G01X0043690Y0031690D01*
G01X0043620Y0031620D02*
G01X0043690Y0031690D01*
G01X0043360Y0031620D02*
G01X0043620Y0031620D01*
G01X0043360Y0031620D02*
G01X0043290Y0031690D01*
G01X0043290Y0031820D02*
G01X0043290Y0031690D01*
G01X0043490Y0032140D02*
G01X0043490Y0031940D01*
G01X0043640Y0032260D02*
G01X0043690Y0032310D01*
G01X0043340Y0032260D02*
G01X0043640Y0032260D01*
G01X0043340Y0032260D02*
G01X0043290Y0032310D01*
G01X0043290Y0032410D02*
G01X0043290Y0032310D01*
G01X0043290Y0032410D02*
G01X0043340Y0032460D01*
G01X0043340Y0032460D02*
G01X0043640Y0032460D01*
G01X0043690Y0032410D02*
G01X0043640Y0032460D01*
G01X0043690Y0032410D02*
G01X0043690Y0032310D01*
G01X0043590Y0032260D02*
G01X0043390Y0032460D01*
G01X0043340Y0032580D02*
G01X0043290Y0032630D01*
G01X0043290Y0032730D02*
G01X0043290Y0032630D01*
G01X0043290Y0032730D02*
G01X0043340Y0032780D01*
G01X0043690Y0032730D02*
G01X0043640Y0032780D01*
G01X0043690Y0032730D02*
G01X0043690Y0032630D01*
G01X0043640Y0032580D02*
G01X0043690Y0032630D01*
G01X0043470Y0032730D02*
G01X0043470Y0032630D01*
G01X0043340Y0032780D02*
G01X0043420Y0032780D01*
G01X0043520Y0032780D02*
G01X0043640Y0032780D01*
G01X0043520Y0032780D02*
G01X0043470Y0032730D01*
G01X0043420Y0032780D02*
G01X0043470Y0032730D01*
G01X0043370Y0032900D02*
G01X0043290Y0032980D01*
G01X0043290Y0032980D02*
G01X0043690Y0032980D01*
G01X0043690Y0033050D02*
G01X0043690Y0032900D01*
G01X0043390Y0033170D02*
G01X0043400Y0033170D01*
G01X0043540Y0033170D02*
G01X0043690Y0033170D01*
G01X0043690Y0033470D02*
G01X0043690Y0033270D01*
G01X0043290Y0033790D02*
G01X0043340Y0033840D01*
G01X0043290Y0033790D02*
G01X0043290Y0033640D01*
G01X0043340Y0033590D02*
G01X0043290Y0033640D01*
G01X0043340Y0033590D02*
G01X0043640Y0033590D01*
G01X0043640Y0033590D02*
G01X0043690Y0033640D01*
G01X0043690Y0033790D02*
G01X0043690Y0033640D01*
G01X0043690Y0033790D02*
G01X0043640Y0033840D01*
G01X0043540Y0033840D02*
G01X0043640Y0033840D01*
G01X0043490Y0033790D02*
G01X0043540Y0033840D01*
G01X0043490Y0033790D02*
G01X0043490Y0033690D01*
G01X0043490Y0033960D02*
G01X0043690Y0034160D01*
G01X0043690Y0033960D02*
G01X0043490Y0034160D01*
G01X0043490Y0034480D02*
G01X0043490Y0034280D01*
G01X0043390Y0034600D02*
G01X0043400Y0034600D01*
G01X0043540Y0034600D02*
G01X0043690Y0034600D01*
G01X0043540Y0034750D02*
G01X0043690Y0034750D01*
G01X0043540Y0034750D02*
G01X0043490Y0034800D01*
G01X0043490Y0034850D02*
G01X0043490Y0034800D01*
G01X0043490Y0034850D02*
G01X0043540Y0034900D01*
G01X0043540Y0034900D02*
G01X0043690Y0034900D01*
G01X0043490Y0034700D02*
G01X0043540Y0034750D01*
G01X0043690Y0035220D02*
G01X0043690Y0035070D01*
G01X0043690Y0035220D02*
G01X0043640Y0035270D01*
G01X0043590Y0035220D02*
G01X0043640Y0035270D01*
G01X0043590Y0035220D02*
G01X0043590Y0035070D01*
G01X0043540Y0035020D02*
G01X0043590Y0035070D01*
G01X0043540Y0035020D02*
G01X0043490Y0035070D01*
G01X0043490Y0035220D02*
G01X0043490Y0035070D01*
G01X0043490Y0035220D02*
G01X0043540Y0035270D01*
G01X0043640Y0035020D02*
G01X0043690Y0035070D01*
G01X0043690Y0035590D02*
G01X0043690Y0035440D01*
G01X0043640Y0035390D02*
G01X0043690Y0035440D01*
G01X0043540Y0035390D02*
G01X0043640Y0035390D01*
G01X0043540Y0035390D02*
G01X0043490Y0035440D01*
G01X0043490Y0035540D02*
G01X0043490Y0035440D01*
G01X0043490Y0035540D02*
G01X0043540Y0035590D01*
G01X0043590Y0035590D02*
G01X0043590Y0035390D01*
G01X0043540Y0035590D02*
G01X0043590Y0035590D01*
G01X0043540Y0035760D02*
G01X0043690Y0035760D01*
G01X0043540Y0035760D02*
G01X0043490Y0035810D01*
G01X0043490Y0035910D02*
G01X0043490Y0035810D01*
G01X0043490Y0035710D02*
G01X0043540Y0035760D01*
G01X0043290Y0036080D02*
G01X0043640Y0036080D01*
G01X0043640Y0036080D02*
G01X0043690Y0036130D01*
G01X0043440Y0036130D02*
G01X0043440Y0036030D01*
G01X0024881Y0020379D02*
G01X0024854Y0020407D01*
G01X0024881Y0020379D02*
G01X0024964Y0020379D01*
G01X0024991Y0020407D02*
G01X0024964Y0020379D01*
G01X0024991Y0020462D02*
G01X0024991Y0020407D01*
G01X0024991Y0020462D02*
G01X0024964Y0020489D01*
G01X0024881Y0020489D02*
G01X0024964Y0020489D01*
G01X0024881Y0020489D02*
G01X0024854Y0020517D01*
G01X0024854Y0020572D02*
G01X0024854Y0020517D01*
G01X0024881Y0020599D02*
G01X0024854Y0020572D01*
G01X0024881Y0020599D02*
G01X0024964Y0020599D01*
G01X0024991Y0020572D02*
G01X0024964Y0020599D01*
G01X0024678Y0020599D02*
G01X0024749Y0020599D01*
G01X0024787Y0020561D02*
G01X0024749Y0020599D01*
G01X0024787Y0020561D02*
G01X0024787Y0020418D01*
G01X0024787Y0020418D02*
G01X0024749Y0020379D01*
G01X0024678Y0020379D02*
G01X0024749Y0020379D01*
G01X0024502Y0020379D02*
G01X0024612Y0020379D01*
G01X0024502Y0020379D02*
G01X0024474Y0020407D01*
G01X0024474Y0020462D02*
G01X0024474Y0020407D01*
G01X0024502Y0020489D02*
G01X0024474Y0020462D01*
G01X0024502Y0020489D02*
G01X0024584Y0020489D01*
G01X0024584Y0020599D02*
G01X0024584Y0020379D01*
G01X0024540Y0020489D02*
G01X0024474Y0020599D01*
G01X0024326Y0020478D02*
G01X0024408Y0020478D01*
G01X0024298Y0020599D02*
G01X0024408Y0020599D01*
G01X0024408Y0020599D02*
G01X0024408Y0020379D01*
G01X0024298Y0020379D02*
G01X0024408Y0020379D01*
G01X0024232Y0020489D02*
G01X0024232Y0020379D01*
G01X0024232Y0020489D02*
G01X0024205Y0020599D01*
G01X0024205Y0020599D02*
G01X0024150Y0020489D01*
G01X0024150Y0020489D02*
G01X0024095Y0020599D01*
G01X0024095Y0020599D02*
G01X0024067Y0020489D01*
G01X0024067Y0020489D02*
G01X0024067Y0020379D01*
G01X0024001Y0020517D02*
G01X0023891Y0020379D01*
G01X0023864Y0020517D02*
G01X0024001Y0020517D01*
G01X0023891Y0020599D02*
G01X0023891Y0020379D01*
G01X0023688Y0020489D02*
G01X0023798Y0020489D01*
G01X0023622Y0020517D02*
G01X0023512Y0020379D01*
G01X0023484Y0020517D02*
G01X0023622Y0020517D01*
G01X0023512Y0020599D02*
G01X0023512Y0020379D01*
G01X0023418Y0020572D02*
G01X0023391Y0020599D01*
G01X0023418Y0020572D02*
G01X0023418Y0020407D01*
G01X0023418Y0020407D02*
G01X0023391Y0020379D01*
G01X0023335Y0020379D02*
G01X0023391Y0020379D01*
G01X0023335Y0020379D02*
G01X0023308Y0020407D01*
G01X0023308Y0020572D02*
G01X0023308Y0020407D01*
G01X0023335Y0020599D02*
G01X0023308Y0020572D01*
G01X0023335Y0020599D02*
G01X0023391Y0020599D01*
G01X0023418Y0020544D02*
G01X0023308Y0020434D01*
G01X0023132Y0020599D02*
G01X0023242Y0020599D01*
G01X0023066Y0020517D02*
G01X0022956Y0020379D01*
G01X0022929Y0020517D02*
G01X0023066Y0020517D01*
G01X0022956Y0020599D02*
G01X0022956Y0020379D01*
G01X0018461Y0021034D02*
G01X0018461Y0020904D01*
G01X0018391Y0020834D02*
G01X0018461Y0020904D01*
G01X0018131Y0020834D02*
G01X0018391Y0020834D01*
G01X0018131Y0020834D02*
G01X0018061Y0020904D01*
G01X0018061Y0021034D02*
G01X0018061Y0020904D01*
G01X0018061Y0021154D02*
G01X0018461Y0021154D01*
G01X0018461Y0021354D02*
G01X0018461Y0021154D01*
G01X0018061Y0021574D02*
G01X0018061Y0021474D01*
G01X0018061Y0021524D02*
G01X0018461Y0021524D01*
G01X0018461Y0021574D02*
G01X0018461Y0021474D01*
G01X0018061Y0021744D02*
G01X0018461Y0021744D01*
G01X0018061Y0021894D02*
G01X0018061Y0021694D01*
G01X0018061Y0021894D02*
G01X0018111Y0021944D01*
G01X0018111Y0021944D02*
G01X0018211Y0021944D01*
G01X0018261Y0021894D02*
G01X0018211Y0021944D01*
G01X0018261Y0021894D02*
G01X0018261Y0021744D01*
G01X0018261Y0022164D02*
G01X0018311Y0022164D01*
G01X0018411Y0022164D02*
G01X0018461Y0022164D01*
G01X0018111Y0022064D02*
G01X0018161Y0022064D01*
G01X0018111Y0022064D02*
G01X0018061Y0022114D01*
G01X0018061Y0022214D02*
G01X0018061Y0022114D01*
G01X0018061Y0022214D02*
G01X0018111Y0022264D01*
G01X0018111Y0022264D02*
G01X0018161Y0022264D01*
G01X0018261Y0022164D02*
G01X0018161Y0022264D01*
G01X0038841Y0014343D02*
G01X0038841Y0013943D01*
G01X0038641Y0014343D02*
G01X0038841Y0014343D01*
G01X0038371Y0014123D02*
G01X0038521Y0014123D01*
G01X0038321Y0014343D02*
G01X0038521Y0014343D01*
G01X0038521Y0014343D02*
G01X0038521Y0013943D01*
G01X0038321Y0013943D02*
G01X0038521Y0013943D01*
G01X0038151Y0014343D02*
G01X0038151Y0013943D01*
G01X0038021Y0013943D02*
G01X0037951Y0014013D01*
G01X0037951Y0014273D02*
G01X0037951Y0014013D01*
G01X0038021Y0014343D02*
G01X0037951Y0014273D01*
G01X0038021Y0014343D02*
G01X0038201Y0014343D01*
G01X0038021Y0013943D02*
G01X0038201Y0013943D01*
G01X0037831Y0014193D02*
G01X0037631Y0013943D01*
G01X0037581Y0014193D02*
G01X0037831Y0014193D01*
G01X0037631Y0014343D02*
G01X0037631Y0013943D01*
G01X0037461Y0014293D02*
G01X0037411Y0014343D01*
G01X0037461Y0014293D02*
G01X0037461Y0013993D01*
G01X0037461Y0013993D02*
G01X0037411Y0013943D01*
G01X0037311Y0013943D02*
G01X0037411Y0013943D01*
G01X0037311Y0013943D02*
G01X0037261Y0013993D01*
G01X0037261Y0014293D02*
G01X0037261Y0013993D01*
G01X0037311Y0014343D02*
G01X0037261Y0014293D01*
G01X0037311Y0014343D02*
G01X0037411Y0014343D01*
G01X0037461Y0014243D02*
G01X0037261Y0014043D01*
G01X0037141Y0014293D02*
G01X0037091Y0014343D01*
G01X0037141Y0014293D02*
G01X0037141Y0013993D01*
G01X0037141Y0013993D02*
G01X0037091Y0013943D01*
G01X0036991Y0013943D02*
G01X0037091Y0013943D01*
G01X0036991Y0013943D02*
G01X0036941Y0013993D01*
G01X0036941Y0014293D02*
G01X0036941Y0013993D01*
G01X0036991Y0014343D02*
G01X0036941Y0014293D01*
G01X0036991Y0014343D02*
G01X0037091Y0014343D01*
G01X0037141Y0014243D02*
G01X0036941Y0014043D01*
G01X0041719Y0027272D02*
G01X0041849Y0027272D01*
G01X0041919Y0027202D02*
G01X0041849Y0027272D01*
G01X0041919Y0027202D02*
G01X0041919Y0026942D01*
G01X0041919Y0026942D02*
G01X0041849Y0026872D01*
G01X0041719Y0026872D02*
G01X0041849Y0026872D01*
G01X0041599Y0027272D02*
G01X0041599Y0026872D01*
G01X0041399Y0027272D02*
G01X0041599Y0027272D01*
G01X0041179Y0026872D02*
G01X0041279Y0026872D01*
G01X0041229Y0027272D02*
G01X0041229Y0026872D01*
G01X0041179Y0027272D02*
G01X0041279Y0027272D01*
G01X0041009Y0027272D02*
G01X0041009Y0026872D01*
G01X0040859Y0026872D02*
G01X0041059Y0026872D01*
G01X0040859Y0026872D02*
G01X0040809Y0026922D01*
G01X0040809Y0027022D02*
G01X0040809Y0026922D01*
G01X0040859Y0027072D02*
G01X0040809Y0027022D01*
G01X0040859Y0027072D02*
G01X0041009Y0027072D01*
G01X0040589Y0027122D02*
G01X0040589Y0027072D01*
G01X0040589Y0027272D02*
G01X0040589Y0027222D01*
G01X0040689Y0026972D02*
G01X0040689Y0026922D01*
G01X0040689Y0026922D02*
G01X0040639Y0026872D01*
G01X0040539Y0026872D02*
G01X0040639Y0026872D01*
G01X0040539Y0026872D02*
G01X0040489Y0026922D01*
G01X0040489Y0026972D02*
G01X0040489Y0026922D01*
G01X0040589Y0027072D02*
G01X0040489Y0026972D01*
M02*
