G04 start of page 11 for group -4078 idx -4078 *
G04 Title: (unknown), bottomsilk *
G04 Creator: pcb 20110918 *
G04 CreationDate: Thu Jan  9 16:43:57 2014 UTC *
G04 For: fosse *
G04 Format: Gerber/RS-274X *
G04 PCB-Dimensions: 550000 850000 *
G04 PCB-Coordinate-Origin: lower left *
%MOIN*%
%FSLAX25Y25*%
%LNBOTTOMSILK*%
%ADD131C,0.0148*%
%ADD130C,0.0100*%
%ADD129C,0.0060*%
%ADD128C,0.0200*%
G54D128*X388000Y597000D02*Y644000D01*
X383500Y670500D02*X377000Y677000D01*
X282000D01*
X388000Y644000D02*X383500Y648500D01*
X282000Y597000D02*X388000D01*
X383500Y648500D02*Y670500D01*
X282500Y543000D02*X306500Y567000D01*
Y543000D02*X282500Y567000D01*
X282000Y677000D02*Y597000D01*
G54D129*X280000Y536500D02*Y540000D01*
X280500Y540500D01*
X281500D01*
X282000Y540000D01*
Y536500D02*Y540000D01*
X283200Y536500D02*X285200D01*
X284200D02*Y540500D01*
X286900Y536500D02*Y540500D01*
X288200Y536500D02*X288900Y537200D01*
Y539800D01*
X288200Y540500D02*X288900Y539800D01*
X286400Y540500D02*X288200D01*
X286400Y536500D02*X288200D01*
X290100Y538500D02*X292100D01*
X293300Y536500D02*X295300D01*
X295800Y537000D01*
Y538000D01*
X295300Y538500D02*X295800Y538000D01*
X293800Y538500D02*X295300D01*
X293800Y536500D02*Y540500D01*
X294600Y538500D02*X295800Y540500D01*
X297000Y538300D02*X298500D01*
X297000Y540500D02*X299000D01*
X297000Y536500D02*Y540500D01*
Y536500D02*X299000D01*
X302200D02*X302700Y537000D01*
X300700Y536500D02*X302200D01*
X300200Y537000D02*X300700Y536500D01*
X300200Y537000D02*Y538000D01*
X300700Y538500D01*
X302200D01*
X302700Y539000D01*
Y540000D01*
X302200Y540500D02*X302700Y540000D01*
X300700Y540500D02*X302200D01*
X300200Y540000D02*X300700Y540500D01*
X303900Y538300D02*X305400D01*
X303900Y540500D02*X305900D01*
X303900Y536500D02*Y540500D01*
Y536500D02*X305900D01*
X307100D02*X309100D01*
X308100D02*Y540500D01*
X285000Y531000D02*Y534500D01*
X285500Y535000D01*
X286500D01*
X287000Y534500D01*
Y531000D02*Y534500D01*
X288200Y531000D02*X290200D01*
X289200D02*Y535000D01*
X291900Y531000D02*Y535000D01*
X293200Y531000D02*X293900Y531700D01*
Y534300D01*
X293200Y535000D02*X293900Y534300D01*
X291400Y535000D02*X293200D01*
X291400Y531000D02*X293200D01*
X295100Y533000D02*X297100D01*
X300300Y531000D02*X300800Y531500D01*
X298800Y531000D02*X300300D01*
X298300Y531500D02*X298800Y531000D01*
X298300Y531500D02*Y532500D01*
X298800Y533000D01*
X300300D01*
X300800Y533500D01*
Y534500D01*
X300300Y535000D02*X300800Y534500D01*
X298800Y535000D02*X300300D01*
X298300Y534500D02*X298800Y535000D01*
X302000Y531500D02*X302500Y531000D01*
X304000D01*
X304500Y531500D01*
Y532500D01*
X302000Y535000D02*X304500Y532500D01*
X302000Y535000D02*X304500D01*
X122500Y538500D02*Y540500D01*
X122000Y541000D01*
X121000D02*X122000D01*
X120500Y540500D02*X121000Y541000D01*
X120500Y539000D02*Y540500D01*
X118500Y539000D02*X122500D01*
X120500Y539800D02*X118500Y541000D01*
X120700Y542200D02*Y543700D01*
X118500Y542200D02*Y544200D01*
Y542200D02*X122500D01*
Y544200D01*
Y547400D02*X122000Y547900D01*
X122500Y545900D02*Y547400D01*
X122000Y545400D02*X122500Y545900D01*
X121000Y545400D02*X122000D01*
X121000D02*X120500Y545900D01*
Y547400D01*
X120000Y547900D01*
X119000D02*X120000D01*
X118500Y547400D02*X119000Y547900D01*
X118500Y545900D02*Y547400D01*
X119000Y545400D02*X118500Y545900D01*
X120700Y549100D02*Y550600D01*
X118500Y549100D02*Y551100D01*
Y549100D02*X122500D01*
Y551100D01*
Y552300D02*Y554300D01*
X118500Y553300D02*X122500D01*
X280000Y536500D02*Y540000D01*
X280500Y540500D01*
X281500D01*
X282000Y540000D01*
Y536500D02*Y540000D01*
X283200Y536500D02*X285200D01*
X284200D02*Y540500D01*
X286900Y536500D02*Y540500D01*
X288200Y536500D02*X288900Y537200D01*
Y539800D01*
X288200Y540500D02*X288900Y539800D01*
X286400Y540500D02*X288200D01*
X286400Y536500D02*X288200D01*
X290100Y538500D02*X292100D01*
X293300Y536500D02*X295300D01*
X295800Y537000D01*
Y538000D01*
X295300Y538500D02*X295800Y538000D01*
X293800Y538500D02*X295300D01*
X293800Y536500D02*Y540500D01*
X294600Y538500D02*X295800Y540500D01*
X297000Y538300D02*X298500D01*
X297000Y540500D02*X299000D01*
X297000Y536500D02*Y540500D01*
Y536500D02*X299000D01*
X302200D02*X302700Y537000D01*
X300700Y536500D02*X302200D01*
X300200Y537000D02*X300700Y536500D01*
X300200Y537000D02*Y538000D01*
X300700Y538500D01*
X302200D01*
X302700Y539000D01*
Y540000D01*
X302200Y540500D02*X302700Y540000D01*
X300700Y540500D02*X302200D01*
X300200Y540000D02*X300700Y540500D01*
X303900Y538300D02*X305400D01*
X303900Y540500D02*X305900D01*
X303900Y536500D02*Y540500D01*
Y536500D02*X305900D01*
X307100D02*X309100D01*
X308100D02*Y540500D01*
X285000Y531000D02*Y534500D01*
X285500Y535000D01*
X286500D01*
X287000Y534500D01*
Y531000D02*Y534500D01*
X288200Y531000D02*X290200D01*
X289200D02*Y535000D01*
X291900Y531000D02*Y535000D01*
X293200Y531000D02*X293900Y531700D01*
Y534300D01*
X293200Y535000D02*X293900Y534300D01*
X291400Y535000D02*X293200D01*
X291400Y531000D02*X293200D01*
X295100Y533000D02*X297100D01*
X300300Y531000D02*X300800Y531500D01*
X298800Y531000D02*X300300D01*
X298300Y531500D02*X298800Y531000D01*
X298300Y531500D02*Y532500D01*
X298800Y533000D01*
X300300D01*
X300800Y533500D01*
Y534500D01*
X300300Y535000D02*X300800Y534500D01*
X298800Y535000D02*X300300D01*
X298300Y534500D02*X298800Y535000D01*
X302000Y531500D02*X302500Y531000D01*
X304000D01*
X304500Y531500D01*
Y532500D01*
X302000Y535000D02*X304500Y532500D01*
X302000Y535000D02*X304500D01*
X235100Y549000D02*X236100D01*
X235600D02*Y553000D01*
X235100D02*X236100D01*
X237300Y552500D02*X240300Y549500D01*
X241500D02*Y552500D01*
Y549500D02*X242000Y549000D01*
X243000D01*
X243500Y549500D01*
Y552500D01*
X243000Y553000D02*X243500Y552500D01*
X242000Y553000D02*X243000D01*
X241500Y552500D02*X242000Y553000D01*
X82700Y716500D02*X86700D01*
Y717800D02*X86000Y718500D01*
X83400D02*X86000D01*
X82700Y717800D02*X83400Y718500D01*
X82700Y716000D02*Y717800D01*
X86700Y716000D02*Y717800D01*
X84900Y719700D02*Y721200D01*
X82700Y719700D02*Y721700D01*
Y719700D02*X86700D01*
Y721700D01*
X82700Y722900D02*Y724900D01*
X83200Y725400D01*
X84400D01*
X84900Y724900D02*X84400Y725400D01*
X84900Y723400D02*Y724900D01*
X82700Y723400D02*X86700D01*
Y722900D02*Y724900D01*
X86200Y725400D01*
X85400D02*X86200D01*
X84900Y724900D02*X85400Y725400D01*
X83200Y726600D02*X86700D01*
X83200D02*X82700Y727100D01*
Y728100D01*
X83200Y728600D01*
X86700D01*
Y731800D02*X86200Y732300D01*
X86700Y730300D02*Y731800D01*
X86200Y729800D02*X86700Y730300D01*
X83200Y729800D02*X86200D01*
X83200D02*X82700Y730300D01*
Y731800D01*
X83200Y732300D01*
X84200D01*
X84700Y731800D02*X84200Y732300D01*
X84700Y730800D02*Y731800D01*
X181010Y726190D02*Y730190D01*
X183510Y726190D02*Y730190D01*
X181010Y728190D02*X183510D01*
X184710Y727990D02*X186210D01*
X184710Y730190D02*X186710D01*
X184710Y726190D02*Y730190D01*
Y726190D02*X186710D01*
X187910Y727190D02*Y730190D01*
Y727190D02*X188610Y726190D01*
X189710D01*
X190410Y727190D01*
Y730190D01*
X187910Y728190D02*X190410D01*
X192110Y726190D02*Y730190D01*
X193410Y726190D02*X194110Y726890D01*
Y729490D01*
X193410Y730190D02*X194110Y729490D01*
X191610Y730190D02*X193410D01*
X191610Y726190D02*X193410D01*
X86500Y658600D02*Y660600D01*
X86000Y661100D01*
X85000D02*X86000D01*
X84500Y660600D02*X85000Y661100D01*
X84500Y659100D02*Y660600D01*
X82500Y659100D02*X86500D01*
X84500Y659900D02*X82500Y661100D01*
X83000Y662300D02*X86500D01*
X83000D02*X82500Y662800D01*
Y663800D01*
X83000Y664300D01*
X86500D01*
X82500Y665500D02*X86500D01*
X82500Y668000D01*
X86500D01*
X335250Y769250D02*Y773250D01*
Y769250D02*X336750Y771250D01*
X338250Y769250D01*
Y773250D01*
X339450Y770250D02*Y770350D01*
Y771750D02*Y773250D01*
X340950Y771250D02*X342450D01*
X340450Y771750D02*X340950Y771250D01*
X340450Y771750D02*Y772750D01*
X340950Y773250D01*
X342450D01*
X344150Y771750D02*Y773250D01*
Y771750D02*X344650Y771250D01*
X345650D01*
X343650D02*X344150Y771750D01*
X346850D02*Y772750D01*
Y771750D02*X347350Y771250D01*
X348350D01*
X348850Y771750D01*
Y772750D01*
X348350Y773250D02*X348850Y772750D01*
X347350Y773250D02*X348350D01*
X346850Y772750D02*X347350Y773250D01*
X353850Y769250D02*X354350Y769750D01*
X352350Y769250D02*X353850D01*
X351850Y769750D02*X352350Y769250D01*
X351850Y769750D02*Y770750D01*
X352350Y771250D01*
X353850D01*
X354350Y771750D01*
Y772750D01*
X353850Y773250D02*X354350Y772750D01*
X352350Y773250D02*X353850D01*
X351850Y772750D02*X352350Y773250D01*
X356050Y769250D02*Y773250D01*
X357350Y769250D02*X358050Y769950D01*
Y772550D01*
X357350Y773250D02*X358050Y772550D01*
X355550Y773250D02*X357350D01*
X355550Y769250D02*X357350D01*
X359250Y771250D02*X361250D01*
X363150Y773250D02*X364450D01*
X362450Y772550D02*X363150Y773250D01*
X362450Y769950D02*Y772550D01*
Y769950D02*X363150Y769250D01*
X364450D01*
X365650Y770250D02*Y773250D01*
Y770250D02*X366350Y769250D01*
X367450D01*
X368150Y770250D01*
Y773250D01*
X365650Y771250D02*X368150D01*
X369350Y769250D02*X371350D01*
X371850Y769750D01*
Y770750D01*
X371350Y771250D02*X371850Y770750D01*
X369850Y771250D02*X371350D01*
X369850Y769250D02*Y773250D01*
X370650Y771250D02*X371850Y773250D01*
X373550Y769250D02*Y773250D01*
X374850Y769250D02*X375550Y769950D01*
Y772550D01*
X374850Y773250D02*X375550Y772550D01*
X373050Y773250D02*X374850D01*
X373050Y769250D02*X374850D01*
X237000Y726500D02*X238000D01*
X237500D02*Y730500D01*
X237000D02*X238000D01*
X241200Y726500D02*X241700Y727000D01*
X239700Y726500D02*X241200D01*
X239200Y727000D02*X239700Y726500D01*
X239200Y727000D02*Y728000D01*
X239700Y728500D01*
X241200D01*
X241700Y729000D01*
Y730000D01*
X241200Y730500D02*X241700Y730000D01*
X239700Y730500D02*X241200D01*
X239200Y730000D02*X239700Y730500D01*
X242900Y727000D02*Y730000D01*
Y727000D02*X243400Y726500D01*
X244400D01*
X244900Y727000D01*
Y730000D01*
X244400Y730500D02*X244900Y730000D01*
X243400Y730500D02*X244400D01*
X242900Y730000D02*X243400Y730500D01*
X246100Y726500D02*Y730500D01*
X248100D01*
X249300Y727500D02*Y730500D01*
Y727500D02*X250000Y726500D01*
X251100D01*
X251800Y727500D01*
Y730500D01*
X249300Y728500D02*X251800D01*
X253000Y726500D02*X255000D01*
X254000D02*Y730500D01*
X256200Y728300D02*X257700D01*
X256200Y730500D02*X258200D01*
X256200Y726500D02*Y730500D01*
Y726500D02*X258200D01*
X259900D02*Y730500D01*
X261200Y726500D02*X261900Y727200D01*
Y729800D01*
X261200Y730500D02*X261900Y729800D01*
X259400Y730500D02*X261200D01*
X259400Y726500D02*X261200D01*
X266900D02*X267400Y727000D01*
X265400Y726500D02*X266900D01*
X264900Y727000D02*X265400Y726500D01*
X264900Y727000D02*Y728000D01*
X265400Y728500D01*
X266900D01*
X267400Y729000D01*
Y730000D01*
X266900Y730500D02*X267400Y730000D01*
X265400Y730500D02*X266900D01*
X264900Y730000D02*X265400Y730500D01*
X268600Y726500D02*X270600D01*
X269600D02*Y730500D01*
X271800Y726500D02*X272800D01*
X272300D02*Y730500D01*
X271800D02*X272800D01*
X274000Y726500D02*Y730500D01*
Y726500D02*X275500Y728500D01*
X277000Y726500D01*
Y730500D01*
X278200Y726500D02*Y730000D01*
X278700Y730500D01*
X279700D01*
X280200Y730000D01*
Y726500D02*Y730000D01*
X281400Y726500D02*Y730500D01*
X283400D01*
X284600Y726500D02*Y730000D01*
X285100Y730500D01*
X286100D01*
X286600Y730000D01*
Y726500D02*Y730000D01*
X289800Y726500D02*X290300Y727000D01*
X288300Y726500D02*X289800D01*
X287800Y727000D02*X288300Y726500D01*
X287800Y727000D02*Y728000D01*
X288300Y728500D01*
X289800D01*
X290300Y729000D01*
Y730000D01*
X289800Y730500D02*X290300Y730000D01*
X288300Y730500D02*X289800D01*
X287800Y730000D02*X288300Y730500D01*
X336850Y682750D02*Y686750D01*
Y682750D02*X338350Y684750D01*
X339850Y682750D01*
Y686750D01*
X341050Y683750D02*Y683850D01*
Y685250D02*Y686750D01*
X342550Y684750D02*X344050D01*
X342050Y685250D02*X342550Y684750D01*
X342050Y685250D02*Y686250D01*
X342550Y686750D01*
X344050D01*
X345750Y685250D02*Y686750D01*
Y685250D02*X346250Y684750D01*
X347250D01*
X345250D02*X345750Y685250D01*
X348450D02*Y686250D01*
Y685250D02*X348950Y684750D01*
X349950D01*
X350450Y685250D01*
Y686250D01*
X349950Y686750D02*X350450Y686250D01*
X348950Y686750D02*X349950D01*
X348450Y686250D02*X348950Y686750D01*
X355450Y682750D02*X355950Y683250D01*
X353950Y682750D02*X355450D01*
X353450Y683250D02*X353950Y682750D01*
X353450Y683250D02*Y684250D01*
X353950Y684750D01*
X355450D01*
X355950Y685250D01*
Y686250D01*
X355450Y686750D02*X355950Y686250D01*
X353950Y686750D02*X355450D01*
X353450Y686250D02*X353950Y686750D01*
X357650Y682750D02*Y686750D01*
X358950Y682750D02*X359650Y683450D01*
Y686050D01*
X358950Y686750D02*X359650Y686050D01*
X357150Y686750D02*X358950D01*
X357150Y682750D02*X358950D01*
X360850Y684750D02*X362850D01*
X364750Y686750D02*X366050D01*
X364050Y686050D02*X364750Y686750D01*
X364050Y683450D02*Y686050D01*
Y683450D02*X364750Y682750D01*
X366050D01*
X367250Y683750D02*Y686750D01*
Y683750D02*X367950Y682750D01*
X369050D01*
X369750Y683750D01*
Y686750D01*
X367250Y684750D02*X369750D01*
X370950Y682750D02*X372950D01*
X373450Y683250D01*
Y684250D01*
X372950Y684750D02*X373450Y684250D01*
X371450Y684750D02*X372950D01*
X371450Y682750D02*Y686750D01*
X372250Y684750D02*X373450Y686750D01*
X375150Y682750D02*Y686750D01*
X376450Y682750D02*X377150Y683450D01*
Y686050D01*
X376450Y686750D02*X377150Y686050D01*
X374650Y686750D02*X376450D01*
X374650Y682750D02*X376450D01*
X285600Y656100D02*X286600D01*
X286100D02*Y660100D01*
X285600D02*X286600D01*
X287800Y656100D02*Y660100D01*
Y656100D02*X289300Y658100D01*
X290800Y656100D01*
Y660100D01*
X292500Y656100D02*Y660100D01*
X292000Y656100D02*X294000D01*
X294500Y656600D01*
Y657600D01*
X294000Y658100D02*X294500Y657600D01*
X292500Y658100D02*X294000D01*
X295700Y656100D02*Y660100D01*
X297700D01*
X298900Y657100D02*Y660100D01*
Y657100D02*X299600Y656100D01*
X300700D01*
X301400Y657100D01*
Y660100D01*
X298900Y658100D02*X301400D01*
X302600Y656100D02*Y660100D01*
Y656100D02*X305100Y660100D01*
Y656100D02*Y660100D01*
X306300Y656100D02*X308300D01*
X307300D02*Y660100D01*
X311800Y656100D02*Y660100D01*
X311300Y656100D02*X313300D01*
X313800Y656600D01*
Y657600D01*
X313300Y658100D02*X313800Y657600D01*
X311800Y658100D02*X313300D01*
X315000Y656100D02*X317000D01*
X317500Y656600D01*
Y657600D01*
X317000Y658100D02*X317500Y657600D01*
X315500Y658100D02*X317000D01*
X315500Y656100D02*Y660100D01*
X316300Y658100D02*X317500Y660100D01*
X318700Y656600D02*Y659600D01*
Y656600D02*X319200Y656100D01*
X320200D01*
X320700Y656600D01*
Y659600D01*
X320200Y660100D02*X320700Y659600D01*
X319200Y660100D02*X320200D01*
X318700Y659600D02*X319200Y660100D01*
X322600D02*X323900D01*
X321900Y659400D02*X322600Y660100D01*
X321900Y656800D02*Y659400D01*
Y656800D02*X322600Y656100D01*
X323900D01*
X325100Y657900D02*X326600D01*
X325100Y660100D02*X327100D01*
X325100Y656100D02*Y660100D01*
Y656100D02*X327100D01*
X330300D02*X330800Y656600D01*
X328800Y656100D02*X330300D01*
X328300Y656600D02*X328800Y656100D01*
X328300Y656600D02*Y657600D01*
X328800Y658100D01*
X330300D01*
X330800Y658600D01*
Y659600D01*
X330300Y660100D02*X330800Y659600D01*
X328800Y660100D02*X330300D01*
X328300Y659600D02*X328800Y660100D01*
X334000Y656100D02*X334500Y656600D01*
X332500Y656100D02*X334000D01*
X332000Y656600D02*X332500Y656100D01*
X332000Y656600D02*Y657600D01*
X332500Y658100D01*
X334000D01*
X334500Y658600D01*
Y659600D01*
X334000Y660100D02*X334500Y659600D01*
X332500Y660100D02*X334000D01*
X332000Y659600D02*X332500Y660100D01*
X335700Y656600D02*Y659600D01*
Y656600D02*X336200Y656100D01*
X337200D01*
X337700Y656600D01*
Y659600D01*
X337200Y660100D02*X337700Y659600D01*
X336200Y660100D02*X337200D01*
X335700Y659600D02*X336200Y660100D01*
X338900Y656100D02*X340900D01*
X341400Y656600D01*
Y657600D01*
X340900Y658100D02*X341400Y657600D01*
X339400Y658100D02*X340900D01*
X339400Y656100D02*Y660100D01*
X340200Y658100D02*X341400Y660100D01*
X344900Y656100D02*Y660100D01*
X346200Y656100D02*X346900Y656800D01*
Y659400D01*
X346200Y660100D02*X346900Y659400D01*
X344400Y660100D02*X346200D01*
X344400Y656100D02*X346200D01*
X350100D02*X350600Y656600D01*
X348600Y656100D02*X350100D01*
X348100Y656600D02*X348600Y656100D01*
X348100Y656600D02*Y657600D01*
X348600Y658100D01*
X350100D01*
X350600Y658600D01*
Y659600D01*
X350100Y660100D02*X350600Y659600D01*
X348600Y660100D02*X350100D01*
X348100Y659600D02*X348600Y660100D01*
X352300Y656100D02*Y660100D01*
X351800Y656100D02*X353800D01*
X354300Y656600D01*
Y657600D01*
X353800Y658100D02*X354300Y657600D01*
X352300Y658100D02*X353800D01*
X285600Y667100D02*X287600D01*
X288100Y666600D01*
Y665400D02*Y666600D01*
X287600Y664900D02*X288100Y665400D01*
X286100Y664900D02*X287600D01*
X286100Y663100D02*Y667100D01*
X285600Y663100D02*X287600D01*
X288100Y663600D01*
Y664400D01*
X287600Y664900D02*X288100Y664400D01*
X289300Y663100D02*X290300Y665100D01*
X291300Y663100D01*
X290300Y665100D02*Y667100D01*
X294300Y664900D02*X295800D01*
X294300Y667100D02*X296300D01*
X294300Y663100D02*Y667100D01*
Y663100D02*X296300D01*
X297500D02*X298500Y667100D01*
X299500Y663100D01*
X300700Y664100D02*Y667100D01*
Y664100D02*X301400Y663100D01*
X302500D01*
X303200Y664100D01*
Y667100D01*
X300700Y665100D02*X303200D01*
X304400Y663100D02*Y667100D01*
Y663100D02*X306900Y667100D01*
Y663100D02*Y667100D01*
X309900Y663100D02*Y667100D01*
Y663100D02*X311900D01*
X309900Y664900D02*X311400D01*
X313100Y663600D02*Y666600D01*
Y663600D02*X313600Y663100D01*
X314600D01*
X315100Y663600D01*
Y666600D01*
X314600Y667100D02*X315100Y666600D01*
X313600Y667100D02*X314600D01*
X313100Y666600D02*X313600Y667100D01*
X318300Y663100D02*X318800Y663600D01*
X316800Y663100D02*X318300D01*
X316300Y663600D02*X316800Y663100D01*
X316300Y663600D02*Y664600D01*
X316800Y665100D01*
X318300D01*
X318800Y665600D01*
Y666600D01*
X318300Y667100D02*X318800Y666600D01*
X316800Y667100D02*X318300D01*
X316300Y666600D02*X316800Y667100D01*
X322000Y663100D02*X322500Y663600D01*
X320500Y663100D02*X322000D01*
X320000Y663600D02*X320500Y663100D01*
X320000Y663600D02*Y664600D01*
X320500Y665100D01*
X322000D01*
X322500Y665600D01*
Y666600D01*
X322000Y667100D02*X322500Y666600D01*
X320500Y667100D02*X322000D01*
X320000Y666600D02*X320500Y667100D01*
X325500Y663100D02*Y666100D01*
X326500Y667100D01*
X329500D01*
X330500Y663100D02*Y665600D01*
Y663100D02*X329500Y662100D01*
X326500D02*X329500D01*
X326500D02*X325500Y663100D01*
X327000Y664100D02*Y665100D01*
X327500Y665600D01*
X328500D01*
X329000Y665100D01*
X329500Y665600D01*
X329000Y663600D02*Y665100D01*
Y664100D02*X328500Y663600D01*
X327500D02*X328500D01*
X327500D02*X327000Y664100D01*
X329500Y665600D02*X330500D01*
X333500Y664900D02*X335000D01*
X333500Y667100D02*X335500D01*
X333500Y663100D02*Y667100D01*
Y663100D02*X335500D01*
X337200D02*Y667100D01*
X336700Y663100D02*X338700D01*
X339200Y663600D01*
Y664600D01*
X338700Y665100D02*X339200Y664600D01*
X337200Y665100D02*X338700D01*
X340400Y663100D02*Y667100D01*
X342400D01*
X285600Y670600D02*X286100Y670100D01*
X287600D01*
X288100Y670600D01*
Y671600D01*
X285600Y674100D02*X288100Y671600D01*
X285600Y674100D02*X288100D01*
X289300Y673600D02*X289800Y674100D01*
X289300Y670600D02*Y673600D01*
Y670600D02*X289800Y670100D01*
X290800D01*
X291300Y670600D01*
Y673600D01*
X290800Y674100D02*X291300Y673600D01*
X289800Y674100D02*X290800D01*
X289300Y673100D02*X291300Y671100D01*
X292500Y670900D02*X293300Y670100D01*
Y674100D01*
X292500D02*X294000D01*
X295200Y672600D02*X297200Y670100D01*
X295200Y672600D02*X297700D01*
X297200Y670100D02*Y674100D01*
X298900D02*X299400D01*
X300600Y673600D02*X301100Y674100D01*
X300600Y670600D02*Y673600D01*
Y670600D02*X301100Y670100D01*
X302100D01*
X302600Y670600D01*
Y673600D01*
X302100Y674100D02*X302600Y673600D01*
X301100Y674100D02*X302100D01*
X300600Y673100D02*X302600Y671100D01*
X303800Y670900D02*X304600Y670100D01*
Y674100D01*
X303800D02*X305300D01*
X306500D02*X307000D01*
X308200Y673600D02*X308700Y674100D01*
X308200Y670600D02*Y673600D01*
Y670600D02*X308700Y670100D01*
X309700D01*
X310200Y670600D01*
Y673600D01*
X309700Y674100D02*X310200Y673600D01*
X308700Y674100D02*X309700D01*
X308200Y673100D02*X310200Y671100D01*
X311900Y674100D02*X313900Y670100D01*
X311400D02*X313900D01*
X285500Y649000D02*Y652000D01*
X286500Y653000D01*
X289500D01*
X290500Y649000D02*Y651500D01*
Y649000D02*X289500Y648000D01*
X286500D02*X289500D01*
X286500D02*X285500Y649000D01*
X287000Y650000D02*Y651000D01*
X287500Y651500D01*
X288500D01*
X289000Y651000D01*
X289500Y651500D01*
X289000Y649500D02*Y651000D01*
Y650000D02*X288500Y649500D01*
X287500D02*X288500D01*
X287500D02*X287000Y650000D01*
X289500Y651500D02*X290500D01*
X293500Y650800D02*X295000D01*
X293500Y653000D02*X295500D01*
X293500Y649000D02*Y653000D01*
Y649000D02*X295500D01*
X297200D02*Y653000D01*
X296700Y649000D02*X298700D01*
X299200Y649500D01*
Y650500D01*
X298700Y651000D02*X299200Y650500D01*
X297200Y651000D02*X298700D01*
X300400Y649000D02*Y653000D01*
X302400D01*
X305400Y652500D02*X305900Y653000D01*
X305400Y649500D02*X305900Y649000D01*
X305400Y649500D02*Y652500D01*
X307100Y650800D02*X308600D01*
X307100Y653000D02*X309100D01*
X307100Y649000D02*Y653000D01*
Y649000D02*X309100D01*
X310300Y650000D02*Y653000D01*
Y650000D02*X311000Y649000D01*
X312100D01*
X312800Y650000D01*
Y653000D01*
X310300Y651000D02*X312800D01*
X314000Y649000D02*X316000D01*
X315000D02*Y653000D01*
X317200Y649500D02*Y652500D01*
Y649500D02*X317700Y649000D01*
X318700D01*
X319200Y649500D01*
Y652500D01*
X318700Y653000D02*X319200Y652500D01*
X317700Y653000D02*X318700D01*
X317200Y652500D02*X317700Y653000D01*
X320400Y649000D02*Y653000D01*
Y649000D02*X322900Y653000D01*
Y649000D02*Y653000D01*
X326400Y649000D02*Y653000D01*
X325900Y649000D02*X327900D01*
X328400Y649500D01*
Y650500D01*
X327900Y651000D02*X328400Y650500D01*
X326400Y651000D02*X327900D01*
X329600Y650800D02*X331100D01*
X329600Y653000D02*X331600D01*
X329600Y649000D02*Y653000D01*
Y649000D02*X331600D01*
X332800Y650000D02*Y653000D01*
Y650000D02*X333500Y649000D01*
X334600D01*
X335300Y650000D01*
Y653000D01*
X332800Y651000D02*X335300D01*
X336500Y653000D02*X338500D01*
X339000Y652500D01*
Y651300D02*Y652500D01*
X338500Y650800D02*X339000Y651300D01*
X337000Y650800D02*X338500D01*
X337000Y649000D02*Y653000D01*
X336500Y649000D02*X338500D01*
X339000Y649500D01*
Y650300D01*
X338500Y650800D02*X339000Y650300D01*
X340200Y649500D02*Y652500D01*
Y649500D02*X340700Y649000D01*
X341700D01*
X342200Y649500D01*
Y652500D01*
X341700Y653000D02*X342200Y652500D01*
X340700Y653000D02*X341700D01*
X340200Y652500D02*X340700Y653000D01*
X343900Y649000D02*Y653000D01*
X345200Y649000D02*X345900Y649700D01*
Y652300D01*
X345200Y653000D02*X345900Y652300D01*
X343400Y653000D02*X345200D01*
X343400Y649000D02*X345200D01*
X347100D02*X348100Y651000D01*
X349100Y649000D01*
X348100Y651000D02*Y653000D01*
X352100Y649000D02*Y653000D01*
X354100D01*
X355300Y650000D02*Y653000D01*
Y650000D02*X356000Y649000D01*
X357100D01*
X357800Y650000D01*
Y653000D01*
X355300Y651000D02*X357800D01*
X359000Y653000D02*X361000D01*
X361500Y652500D01*
Y651300D02*Y652500D01*
X361000Y650800D02*X361500Y651300D01*
X359500Y650800D02*X361000D01*
X359500Y649000D02*Y653000D01*
X359000Y649000D02*X361000D01*
X361500Y649500D01*
Y650300D01*
X361000Y650800D02*X361500Y650300D01*
X362700Y649000D02*X363200Y649500D01*
Y652500D01*
X362700Y653000D02*X363200Y652500D01*
X318500Y540000D02*X319000Y540500D01*
X317000Y540000D02*X318500D01*
X316500Y540500D02*X317000Y540000D01*
X316500Y540500D02*Y541500D01*
X317000Y542000D01*
X318500D01*
X319000Y542500D01*
Y543500D01*
X318500Y544000D02*X319000Y543500D01*
X317000Y544000D02*X318500D01*
X316500Y543500D02*X317000Y544000D01*
X320200Y540000D02*X322200D01*
X321200D02*Y544000D01*
X323400Y541000D02*Y544000D01*
Y541000D02*X324100Y540000D01*
X325200D01*
X325900Y541000D01*
Y544000D01*
X323400Y542000D02*X325900D01*
X327100Y540000D02*X329100D01*
X328100D02*Y544000D01*
X330300Y540000D02*Y543500D01*
X330800Y544000D01*
X331800D01*
X332300Y543500D01*
Y540000D02*Y543500D01*
X335500Y540000D02*X336000Y540500D01*
X334000Y540000D02*X335500D01*
X333500Y540500D02*X334000Y540000D01*
X333500Y540500D02*Y541500D01*
X334000Y542000D01*
X335500D01*
X336000Y542500D01*
Y543500D01*
X335500Y544000D02*X336000Y543500D01*
X334000Y544000D02*X335500D01*
X333500Y543500D02*X334000Y544000D01*
X318500Y540000D02*X319000Y540500D01*
X317000Y540000D02*X318500D01*
X316500Y540500D02*X317000Y540000D01*
X316500Y540500D02*Y541500D01*
X317000Y542000D01*
X318500D01*
X319000Y542500D01*
Y543500D01*
X318500Y544000D02*X319000Y543500D01*
X317000Y544000D02*X318500D01*
X316500Y543500D02*X317000Y544000D01*
X320200Y540000D02*X322200D01*
X321200D02*Y544000D01*
X323400Y541000D02*Y544000D01*
Y541000D02*X324100Y540000D01*
X325200D01*
X325900Y541000D01*
Y544000D01*
X323400Y542000D02*X325900D01*
X327100Y540000D02*X329100D01*
X328100D02*Y544000D01*
X330300Y540000D02*Y543500D01*
X330800Y544000D01*
X331800D01*
X332300Y543500D01*
Y540000D02*Y543500D01*
X335500Y540000D02*X336000Y540500D01*
X334000Y540000D02*X335500D01*
X333500Y540500D02*X334000Y540000D01*
X333500Y540500D02*Y541500D01*
X334000Y542000D01*
X335500D01*
X336000Y542500D01*
Y543500D01*
X335500Y544000D02*X336000Y543500D01*
X334000Y544000D02*X335500D01*
X333500Y543500D02*X334000Y544000D01*
X410500Y591000D02*Y595000D01*
X410000Y591000D02*X412000D01*
X412500Y591500D01*
Y592500D01*
X412000Y593000D02*X412500Y592500D01*
X410500Y593000D02*X412000D01*
X413700Y591500D02*Y594500D01*
Y591500D02*X414200Y591000D01*
X415200D01*
X415700Y591500D01*
Y594500D01*
X415200Y595000D02*X415700Y594500D01*
X414200Y595000D02*X415200D01*
X413700Y594500D02*X414200Y595000D01*
X416900Y591000D02*Y593000D01*
X417400Y595000D01*
X418400Y593000D01*
X419400Y595000D01*
X419900Y593000D01*
Y591000D02*Y593000D01*
X421100Y592800D02*X422600D01*
X421100Y595000D02*X423100D01*
X421100Y591000D02*Y595000D01*
Y591000D02*X423100D01*
X424300D02*X426300D01*
X426800Y591500D01*
Y592500D01*
X426300Y593000D02*X426800Y592500D01*
X424800Y593000D02*X426300D01*
X424800Y591000D02*Y595000D01*
X425600Y593000D02*X426800Y595000D01*
X86700Y580500D02*Y582500D01*
X82700Y581500D02*X86700D01*
X84900Y583700D02*Y585200D01*
X82700Y583700D02*Y585700D01*
Y583700D02*X86700D01*
Y585700D01*
Y588900D02*X86200Y589400D01*
X86700Y587400D02*Y588900D01*
X86200Y586900D02*X86700Y587400D01*
X85200Y586900D02*X86200D01*
X85200D02*X84700Y587400D01*
Y588900D01*
X84200Y589400D01*
X83200D02*X84200D01*
X82700Y588900D02*X83200Y589400D01*
X82700Y587400D02*Y588900D01*
X83200Y586900D02*X82700Y587400D01*
X86700Y590600D02*Y592600D01*
X82700Y591600D02*X86700D01*
X288700Y583000D02*Y587000D01*
Y583000D02*X290200Y585000D01*
X291700Y583000D01*
Y587000D01*
X292900Y584000D02*Y587000D01*
Y584000D02*X293600Y583000D01*
X294700D01*
X295400Y584000D01*
Y587000D01*
X292900Y585000D02*X295400D01*
X296600Y583000D02*Y587000D01*
Y583000D02*X299100Y587000D01*
Y583000D02*Y587000D01*
X300300Y583000D02*X301300D01*
X300800D02*Y587000D01*
X300300D02*X301300D01*
X302500Y583000D02*Y587000D01*
Y583000D02*X304500D01*
X302500Y584800D02*X304000D01*
X305700D02*X307200D01*
X305700Y587000D02*X307700D01*
X305700Y583000D02*Y587000D01*
Y583000D02*X307700D01*
X310900D02*X311400Y583500D01*
X309400Y583000D02*X310900D01*
X308900Y583500D02*X309400Y583000D01*
X308900Y583500D02*Y584500D01*
X309400Y585000D01*
X310900D01*
X311400Y585500D01*
Y586500D01*
X310900Y587000D02*X311400Y586500D01*
X309400Y587000D02*X310900D01*
X308900Y586500D02*X309400Y587000D01*
X312600Y583000D02*X314600D01*
X313600D02*Y587000D01*
X315800Y583000D02*Y587000D01*
X317800D01*
X319000Y583000D02*X320000Y585000D01*
X321000Y583000D01*
X320000Y585000D02*Y587000D01*
X324000Y583000D02*X325000D01*
X324500D02*Y587000D01*
X324000D02*X325000D01*
X326200Y583000D02*Y587000D01*
Y583000D02*X327700Y585000D01*
X329200Y583000D01*
Y587000D01*
X330900Y583000D02*Y587000D01*
X330400Y583000D02*X332400D01*
X332900Y583500D01*
Y584500D01*
X332400Y585000D02*X332900Y584500D01*
X330900Y585000D02*X332400D01*
X334100Y583500D02*Y586500D01*
Y583500D02*X334600Y583000D01*
X335600D01*
X336100Y583500D01*
Y586500D01*
X335600Y587000D02*X336100Y586500D01*
X334600Y587000D02*X335600D01*
X334100Y586500D02*X334600Y587000D01*
X337300Y583000D02*X339300D01*
X339800Y583500D01*
Y584500D01*
X339300Y585000D02*X339800Y584500D01*
X337800Y585000D02*X339300D01*
X337800Y583000D02*Y587000D01*
X338600Y585000D02*X339800Y587000D01*
X341000Y583000D02*X343000D01*
X342000D02*Y587000D01*
X344200Y584000D02*Y587000D01*
Y584000D02*X344900Y583000D01*
X346000D01*
X346700Y584000D01*
Y587000D01*
X344200Y585000D02*X346700D01*
X347900Y583000D02*Y587000D01*
Y583000D02*X350400Y587000D01*
Y583000D02*Y587000D01*
X351600Y583000D02*X353600D01*
X352600D02*Y587000D01*
X356600Y584000D02*Y587000D01*
Y584000D02*X357300Y583000D01*
X358400D01*
X359100Y584000D01*
Y587000D01*
X356600Y585000D02*X359100D01*
X360300Y583000D02*Y587000D01*
Y583000D02*X362800Y587000D01*
Y583000D02*Y587000D01*
X364500Y583000D02*Y587000D01*
X365800Y583000D02*X366500Y583700D01*
Y586300D01*
X365800Y587000D02*X366500Y586300D01*
X364000Y587000D02*X365800D01*
X364000Y583000D02*X365800D01*
X369500D02*Y587000D01*
Y583000D02*X372000Y587000D01*
Y583000D02*Y587000D01*
X373200Y584800D02*X374700D01*
X373200Y587000D02*X375200D01*
X373200Y583000D02*Y587000D01*
Y583000D02*X375200D01*
X376400Y584000D02*Y587000D01*
Y584000D02*X377100Y583000D01*
X378200D01*
X378900Y584000D01*
Y587000D01*
X376400Y585000D02*X378900D01*
X380100Y583000D02*X382100D01*
X382600Y583500D01*
Y584500D01*
X382100Y585000D02*X382600Y584500D01*
X380600Y585000D02*X382100D01*
X380600Y583000D02*Y587000D01*
X381400Y585000D02*X382600Y587000D01*
X383800Y583000D02*Y587000D01*
X385800D01*
X387000Y583000D02*X388000Y585000D01*
X389000Y583000D01*
X388000Y585000D02*Y587000D01*
X392000Y583000D02*X393000D01*
X392500D02*Y587000D01*
X392000D02*X393000D01*
X394200Y583000D02*Y587000D01*
Y583000D02*X395700Y585000D01*
X397200Y583000D01*
Y587000D01*
X398900Y583000D02*Y587000D01*
X398400Y583000D02*X400400D01*
X400900Y583500D01*
Y584500D01*
X400400Y585000D02*X400900Y584500D01*
X398900Y585000D02*X400400D01*
X402100Y583500D02*Y586500D01*
Y583500D02*X402600Y583000D01*
X403600D01*
X404100Y583500D01*
Y586500D01*
X403600Y587000D02*X404100Y586500D01*
X402600Y587000D02*X403600D01*
X402100Y586500D02*X402600Y587000D01*
X407300Y583000D02*X407800Y583500D01*
X405800Y583000D02*X407300D01*
X405300Y583500D02*X405800Y583000D01*
X405300Y583500D02*Y584500D01*
X405800Y585000D01*
X407300D01*
X407800Y585500D01*
Y586500D01*
X407300Y587000D02*X407800Y586500D01*
X405800Y587000D02*X407300D01*
X405300Y586500D02*X405800Y587000D01*
X411000Y583000D02*X411500Y583500D01*
X409500Y583000D02*X411000D01*
X409000Y583500D02*X409500Y583000D01*
X409000Y583500D02*Y584500D01*
X409500Y585000D01*
X411000D01*
X411500Y585500D01*
Y586500D01*
X411000Y587000D02*X411500Y586500D01*
X409500Y587000D02*X411000D01*
X409000Y586500D02*X409500Y587000D01*
X412700Y583000D02*X413700D01*
X413200D02*Y587000D01*
X412700D02*X413700D01*
X414900D02*X416900D01*
X417400Y586500D01*
Y585300D02*Y586500D01*
X416900Y584800D02*X417400Y585300D01*
X415400Y584800D02*X416900D01*
X415400Y583000D02*Y587000D01*
X414900Y583000D02*X416900D01*
X417400Y583500D01*
Y584300D01*
X416900Y584800D02*X417400Y584300D01*
X418600Y583000D02*Y587000D01*
X420600D01*
X421800Y584800D02*X423300D01*
X421800Y587000D02*X423800D01*
X421800Y583000D02*Y587000D01*
Y583000D02*X423800D01*
X425000Y587000D02*X425500D01*
X426700Y583000D02*Y584000D01*
X427700Y583000D02*Y584000D01*
X289000Y591000D02*X291000D01*
X294000Y590800D02*X295500D01*
X294000Y593000D02*X296000D01*
X294000Y589000D02*Y593000D01*
Y589000D02*X296000D01*
X297700D02*Y593000D01*
X299000Y589000D02*X299700Y589700D01*
Y592300D01*
X299000Y593000D02*X299700Y592300D01*
X297200Y593000D02*X299000D01*
X297200Y589000D02*X299000D01*
X300900D02*Y591000D01*
X301400Y593000D01*
X302400Y591000D01*
X303400Y593000D01*
X303900Y591000D01*
Y589000D02*Y591000D01*
X305100Y589000D02*X306100D01*
X305600D02*Y593000D01*
X305100D02*X306100D01*
X307300Y589000D02*Y593000D01*
Y589000D02*X309800Y593000D01*
Y589000D02*Y593000D01*
X312800Y589000D02*Y593000D01*
X314800D01*
X316000Y590000D02*Y593000D01*
Y590000D02*X316700Y589000D01*
X317800D01*
X318500Y590000D01*
Y593000D01*
X316000Y591000D02*X318500D01*
X319700Y589000D02*Y593000D01*
Y589000D02*X322200Y593000D01*
Y589000D02*Y593000D01*
X323900Y589000D02*Y593000D01*
X325200Y589000D02*X325900Y589700D01*
Y592300D01*
X325200Y593000D02*X325900Y592300D01*
X323400Y593000D02*X325200D01*
X323400Y589000D02*X325200D01*
X347000Y540000D02*Y544000D01*
Y540000D02*X348500Y542000D01*
X350000Y540000D01*
Y544000D01*
X351200Y540500D02*Y543500D01*
Y540500D02*X351700Y540000D01*
X352700D01*
X353200Y540500D01*
Y543500D01*
X352700Y544000D02*X353200Y543500D01*
X351700Y544000D02*X352700D01*
X351200Y543500D02*X351700Y544000D01*
X354900Y540000D02*Y544000D01*
X356200Y540000D02*X356900Y540700D01*
Y543300D01*
X356200Y544000D02*X356900Y543300D01*
X354400Y544000D02*X356200D01*
X354400Y540000D02*X356200D01*
X358100Y541800D02*X359600D01*
X358100Y544000D02*X360100D01*
X358100Y540000D02*Y544000D01*
Y540000D02*X360100D01*
X369000Y534500D02*Y538500D01*
X371000D01*
X372200Y536300D02*X373700D01*
X372200Y538500D02*X374200D01*
X372200Y534500D02*Y538500D01*
Y534500D02*X374200D01*
X375900D02*Y538500D01*
X377200Y534500D02*X377900Y535200D01*
Y537800D01*
X377200Y538500D02*X377900Y537800D01*
X375400Y538500D02*X377200D01*
X375400Y534500D02*X377200D01*
X379100Y537000D02*X381100Y534500D01*
X379100Y537000D02*X381600D01*
X381100Y534500D02*Y538500D01*
X382800Y538000D02*X383300Y538500D01*
X382800Y535000D02*Y538000D01*
Y535000D02*X383300Y534500D01*
X384300D01*
X384800Y535000D01*
Y538000D01*
X384300Y538500D02*X384800Y538000D01*
X383300Y538500D02*X384300D01*
X382800Y537500D02*X384800Y535500D01*
X386000Y538000D02*X386500Y538500D01*
X386000Y535000D02*Y538000D01*
Y535000D02*X386500Y534500D01*
X387500D01*
X388000Y535000D01*
Y538000D01*
X387500Y538500D02*X388000Y538000D01*
X386500Y538500D02*X387500D01*
X386000Y537500D02*X388000Y535500D01*
X374500Y540000D02*Y544000D01*
X375800Y540000D02*X376500Y540700D01*
Y543300D01*
X375800Y544000D02*X376500Y543300D01*
X374000Y544000D02*X375800D01*
X374000Y540000D02*X375800D01*
X379700D02*X380200Y540500D01*
X378200Y540000D02*X379700D01*
X377700Y540500D02*X378200Y540000D01*
X377700Y540500D02*Y541500D01*
X378200Y542000D01*
X379700D01*
X380200Y542500D01*
Y543500D01*
X379700Y544000D02*X380200Y543500D01*
X378200Y544000D02*X379700D01*
X377700Y543500D02*X378200Y544000D01*
X381900Y540000D02*Y544000D01*
X381400Y540000D02*X383400D01*
X383900Y540500D01*
Y541500D01*
X383400Y542000D02*X383900Y541500D01*
X381900Y542000D02*X383400D01*
X347000Y540000D02*Y544000D01*
Y540000D02*X348500Y542000D01*
X350000Y540000D01*
Y544000D01*
X351200Y540500D02*Y543500D01*
Y540500D02*X351700Y540000D01*
X352700D01*
X353200Y540500D01*
Y543500D01*
X352700Y544000D02*X353200Y543500D01*
X351700Y544000D02*X352700D01*
X351200Y543500D02*X351700Y544000D01*
X354900Y540000D02*Y544000D01*
X356200Y540000D02*X356900Y540700D01*
Y543300D01*
X356200Y544000D02*X356900Y543300D01*
X354400Y544000D02*X356200D01*
X354400Y540000D02*X356200D01*
X358100Y541800D02*X359600D01*
X358100Y544000D02*X360100D01*
X358100Y540000D02*Y544000D01*
Y540000D02*X360100D01*
X416910Y623856D02*Y627856D01*
X416410Y623856D02*X418410D01*
X418910Y624356D01*
Y625356D01*
X418410Y625856D02*X418910Y625356D01*
X416910Y625856D02*X418410D01*
X420110Y624356D02*Y627356D01*
Y624356D02*X420610Y623856D01*
X421610D01*
X422110Y624356D01*
Y627356D01*
X421610Y627856D02*X422110Y627356D01*
X420610Y627856D02*X421610D01*
X420110Y627356D02*X420610Y627856D01*
X423310Y623856D02*Y625856D01*
X423810Y627856D01*
X424810Y625856D01*
X425810Y627856D01*
X426310Y625856D01*
Y623856D02*Y625856D01*
X427510Y625656D02*X429010D01*
X427510Y627856D02*X429510D01*
X427510Y623856D02*Y627856D01*
Y623856D02*X429510D01*
X430710D02*X432710D01*
X433210Y624356D01*
Y625356D01*
X432710Y625856D02*X433210Y625356D01*
X431210Y625856D02*X432710D01*
X431210Y623856D02*Y627856D01*
X432010Y625856D02*X433210Y627856D01*
X289200Y577000D02*Y581000D01*
X290500Y577000D02*X291200Y577700D01*
Y580300D01*
X290500Y581000D02*X291200Y580300D01*
X288700Y581000D02*X290500D01*
X288700Y577000D02*X290500D01*
X292400Y577500D02*Y580500D01*
Y577500D02*X292900Y577000D01*
X293900D01*
X294400Y577500D01*
Y580500D01*
X293900Y581000D02*X294400Y580500D01*
X292900Y581000D02*X293900D01*
X292400Y580500D02*X292900Y581000D01*
X295600Y577000D02*Y581000D01*
Y577000D02*X298100Y581000D01*
Y577000D02*Y581000D01*
X299300Y578000D02*X300300Y577000D01*
X301500D02*X303500D01*
X302500D02*Y581000D01*
X306500Y577000D02*Y580500D01*
X307000Y581000D01*
X308000D01*
X308500Y580500D01*
Y577000D02*Y580500D01*
X309700Y577000D02*Y581000D01*
Y577000D02*X312200Y581000D01*
Y577000D02*Y581000D01*
X313900Y577000D02*Y581000D01*
X315200Y577000D02*X315900Y577700D01*
Y580300D01*
X315200Y581000D02*X315900Y580300D01*
X313400Y581000D02*X315200D01*
X313400Y577000D02*X315200D01*
X317100Y578800D02*X318600D01*
X317100Y581000D02*X319100D01*
X317100Y577000D02*Y581000D01*
Y577000D02*X319100D01*
X320300D02*X322300D01*
X322800Y577500D01*
Y578500D01*
X322300Y579000D02*X322800Y578500D01*
X320800Y579000D02*X322300D01*
X320800Y577000D02*Y581000D01*
X321600Y579000D02*X322800Y581000D01*
X324000Y577000D02*X326000D01*
X325000D02*Y581000D01*
X327200Y578000D02*Y581000D01*
Y578000D02*X327900Y577000D01*
X329000D01*
X329700Y578000D01*
Y581000D01*
X327200Y579000D02*X329700D01*
X330900Y577000D02*Y581000D01*
Y579000D02*X332900Y577000D01*
X330900Y579000D02*X332900Y581000D01*
X334100Y578800D02*X335600D01*
X334100Y581000D02*X336100D01*
X334100Y577000D02*Y581000D01*
Y577000D02*X336100D01*
X339100Y578000D02*Y581000D01*
Y578000D02*X339800Y577000D01*
X340900D01*
X341600Y578000D01*
Y581000D01*
X339100Y579000D02*X341600D01*
X345100Y577000D02*Y581000D01*
X344600Y577000D02*X346600D01*
X347100Y577500D01*
Y578500D01*
X346600Y579000D02*X347100Y578500D01*
X345100Y579000D02*X346600D01*
X348300Y577000D02*X350300D01*
X350800Y577500D01*
Y578500D01*
X350300Y579000D02*X350800Y578500D01*
X348800Y579000D02*X350300D01*
X348800Y577000D02*Y581000D01*
X349600Y579000D02*X350800Y581000D01*
X352000Y577500D02*Y580500D01*
Y577500D02*X352500Y577000D01*
X353500D01*
X354000Y577500D01*
Y580500D01*
X353500Y581000D02*X354000Y580500D01*
X352500Y581000D02*X353500D01*
X352000Y580500D02*X352500Y581000D01*
X355900Y577000D02*X356700D01*
Y580500D01*
X356200Y581000D02*X356700Y580500D01*
X355700Y581000D02*X356200D01*
X355200Y580500D02*X355700Y581000D01*
X355200Y580000D02*Y580500D01*
X357900Y578800D02*X359400D01*
X357900Y581000D02*X359900D01*
X357900Y577000D02*Y581000D01*
Y577000D02*X359900D01*
X361800Y581000D02*X363100D01*
X361100Y580300D02*X361800Y581000D01*
X361100Y577700D02*Y580300D01*
Y577700D02*X361800Y577000D01*
X363100D01*
X364300D02*X366300D01*
X365300D02*Y581000D01*
X369300Y577000D02*Y580500D01*
X369800Y581000D01*
X370800D01*
X371300Y580500D01*
Y577000D02*Y580500D01*
X372500Y577000D02*Y581000D01*
Y577000D02*X375000Y581000D01*
Y577000D02*Y581000D01*
X376200Y577000D02*Y581000D01*
X378200D01*
X379400Y578800D02*X380900D01*
X379400Y581000D02*X381400D01*
X379400Y577000D02*Y581000D01*
Y577000D02*X381400D01*
X384600D02*X385100Y577500D01*
X383100Y577000D02*X384600D01*
X382600Y577500D02*X383100Y577000D01*
X382600Y577500D02*Y578500D01*
X383100Y579000D01*
X384600D01*
X385100Y579500D01*
Y580500D01*
X384600Y581000D02*X385100Y580500D01*
X383100Y581000D02*X384600D01*
X382600Y580500D02*X383100Y581000D01*
X388300Y577000D02*X388800Y577500D01*
X386800Y577000D02*X388300D01*
X386300Y577500D02*X386800Y577000D01*
X386300Y577500D02*Y578500D01*
X386800Y579000D01*
X388300D01*
X388800Y579500D01*
Y580500D01*
X388300Y581000D02*X388800Y580500D01*
X386800Y581000D02*X388300D01*
X386300Y580500D02*X386800Y581000D01*
X391800Y577000D02*X392800D01*
X392300D02*Y581000D01*
X391800D02*X392800D01*
X394000Y577000D02*X396000D01*
X395000D02*Y581000D01*
X399000Y577000D02*X400000D01*
X399500D02*Y581000D01*
X399000D02*X400000D01*
X403200Y577000D02*X403700Y577500D01*
X401700Y577000D02*X403200D01*
X401200Y577500D02*X401700Y577000D01*
X401200Y577500D02*Y578500D01*
X401700Y579000D01*
X403200D01*
X403700Y579500D01*
Y580500D01*
X403200Y581000D02*X403700Y580500D01*
X401700Y581000D02*X403200D01*
X401200Y580500D02*X401700Y581000D01*
X288700Y571000D02*Y572000D01*
X289700Y571000D02*Y572000D01*
X291400Y571000D02*Y575000D01*
X292700Y571000D02*X293400Y571700D01*
Y574300D01*
X292700Y575000D02*X293400Y574300D01*
X290900Y575000D02*X292700D01*
X290900Y571000D02*X292700D01*
X294600Y571500D02*Y574500D01*
Y571500D02*X295100Y571000D01*
X296100D01*
X296600Y571500D01*
Y574500D01*
X296100Y575000D02*X296600Y574500D01*
X295100Y575000D02*X296100D01*
X294600Y574500D02*X295100Y575000D01*
X297800Y571000D02*Y575000D01*
Y571000D02*X300300Y575000D01*
Y571000D02*Y575000D01*
X301500Y572000D02*X302500Y571000D01*
X303700D02*X305700D01*
X304700D02*Y575000D01*
X309200Y571000D02*Y575000D01*
X310500Y571000D02*X311200Y571700D01*
Y574300D01*
X310500Y575000D02*X311200Y574300D01*
X308700Y575000D02*X310500D01*
X308700Y571000D02*X310500D01*
X312400Y571500D02*Y574500D01*
Y571500D02*X312900Y571000D01*
X313900D01*
X314400Y571500D01*
Y574500D01*
X313900Y575000D02*X314400Y574500D01*
X312900Y575000D02*X313900D01*
X312400Y574500D02*X312900Y575000D01*
X317400Y572000D02*Y575000D01*
Y572000D02*X318100Y571000D01*
X319200D01*
X319900Y572000D01*
Y575000D01*
X317400Y573000D02*X319900D01*
X321100Y571000D02*Y575000D01*
Y571000D02*X323600Y575000D01*
Y571000D02*Y575000D01*
X324800Y571000D02*X325800Y573000D01*
X326800Y571000D01*
X325800Y573000D02*Y575000D01*
X328000Y571000D02*X330000D01*
X329000D02*Y575000D01*
X331200Y571000D02*Y575000D01*
X333700Y571000D02*Y575000D01*
X331200Y573000D02*X333700D01*
X334900Y571000D02*X335900D01*
X335400D02*Y575000D01*
X334900D02*X335900D01*
X337100Y571000D02*Y575000D01*
Y571000D02*X339600Y575000D01*
Y571000D02*Y575000D01*
X342800Y571000D02*X343300Y571500D01*
X341300Y571000D02*X342800D01*
X340800Y571500D02*X341300Y571000D01*
X340800Y571500D02*Y574500D01*
X341300Y575000D01*
X342800D01*
X343300Y574500D01*
Y573500D02*Y574500D01*
X342800Y573000D02*X343300Y573500D01*
X341800Y573000D02*X342800D01*
X346300Y571000D02*X348300D01*
X347300D02*Y575000D01*
X349500Y571000D02*Y575000D01*
X352000Y571000D02*Y575000D01*
X349500Y573000D02*X352000D01*
X353200Y572000D02*Y575000D01*
Y572000D02*X353900Y571000D01*
X355000D01*
X355700Y572000D01*
Y575000D01*
X353200Y573000D02*X355700D01*
X356900Y571000D02*X358900D01*
X357900D02*Y575000D01*
X363900Y571000D02*X364400Y571500D01*
X362400Y571000D02*X363900D01*
X361900Y571500D02*X362400Y571000D01*
X361900Y571500D02*Y572500D01*
X362400Y573000D01*
X363900D01*
X364400Y573500D01*
Y574500D01*
X363900Y575000D02*X364400Y574500D01*
X362400Y575000D02*X363900D01*
X361900Y574500D02*X362400Y575000D01*
X365600Y571500D02*Y574500D01*
Y571500D02*X366100Y571000D01*
X367100D01*
X367600Y571500D01*
Y574500D01*
X367100Y575000D02*X367600Y574500D01*
X366100Y575000D02*X367100D01*
X365600Y574500D02*X366100Y575000D01*
X368800Y571000D02*Y575000D01*
Y571000D02*X370300Y573000D01*
X371800Y571000D01*
Y575000D01*
X373000Y572800D02*X374500D01*
X373000Y575000D02*X375000D01*
X373000Y571000D02*Y575000D01*
Y571000D02*X375000D01*
X376200Y571500D02*Y574500D01*
Y571500D02*X376700Y571000D01*
X377700D01*
X378200Y571500D01*
Y574500D01*
X377700Y575000D02*X378200Y574500D01*
X376700Y575000D02*X377700D01*
X376200Y574500D02*X376700Y575000D01*
X379400Y571000D02*Y575000D01*
Y571000D02*X381900Y575000D01*
Y571000D02*Y575000D01*
X383100Y572800D02*X384600D01*
X383100Y575000D02*X385100D01*
X383100Y571000D02*Y575000D01*
Y571000D02*X385100D01*
X388100Y572800D02*X389600D01*
X388100Y575000D02*X390100D01*
X388100Y571000D02*Y575000D01*
Y571000D02*X390100D01*
X391300D02*Y575000D01*
X393300D01*
X396500Y571000D02*X397000Y571500D01*
X395000Y571000D02*X396500D01*
X394500Y571500D02*X395000Y571000D01*
X394500Y571500D02*Y572500D01*
X395000Y573000D01*
X396500D01*
X397000Y573500D01*
Y574500D01*
X396500Y575000D02*X397000Y574500D01*
X395000Y575000D02*X396500D01*
X394500Y574500D02*X395000Y575000D01*
X398200Y572800D02*X399700D01*
X398200Y575000D02*X400200D01*
X398200Y571000D02*Y575000D01*
Y571000D02*X400200D01*
X403900Y575000D02*X405200D01*
X403200Y574300D02*X403900Y575000D01*
X403200Y571700D02*Y574300D01*
Y571700D02*X403900Y571000D01*
X405200D01*
X406400Y572000D02*Y575000D01*
Y572000D02*X407100Y571000D01*
X408200D01*
X408900Y572000D01*
Y575000D01*
X406400Y573000D02*X408900D01*
X410100Y571000D02*Y575000D01*
Y571000D02*X412600Y575000D01*
Y571000D02*Y575000D01*
X416100Y571000D02*Y575000D01*
X417400Y571000D02*X418100Y571700D01*
Y574300D01*
X417400Y575000D02*X418100Y574300D01*
X415600Y575000D02*X417400D01*
X415600Y571000D02*X417400D01*
X419300Y571500D02*Y574500D01*
Y571500D02*X419800Y571000D01*
X420800D01*
X421300Y571500D01*
Y574500D01*
X420800Y575000D02*X421300Y574500D01*
X419800Y575000D02*X420800D01*
X419300Y574500D02*X419800Y575000D01*
X422500D02*X423000D01*
X286200Y611000D02*X287500D01*
X285500Y610300D02*X286200Y611000D01*
X285500Y607700D02*Y610300D01*
Y607700D02*X286200Y607000D01*
X287500D01*
X288700Y607500D02*Y610500D01*
Y607500D02*X289200Y607000D01*
X290200D01*
X290700Y607500D01*
Y610500D01*
X290200Y611000D02*X290700Y610500D01*
X289200Y611000D02*X290200D01*
X288700Y610500D02*X289200Y611000D01*
X291900Y607000D02*Y611000D01*
Y607000D02*X293400Y609000D01*
X294900Y607000D01*
Y611000D01*
X296600Y607000D02*Y611000D01*
X296100Y607000D02*X298100D01*
X298600Y607500D01*
Y608500D01*
X298100Y609000D02*X298600Y608500D01*
X296600Y609000D02*X298100D01*
X299800Y607500D02*Y610500D01*
Y607500D02*X300300Y607000D01*
X301300D01*
X301800Y607500D01*
Y610500D01*
X301300Y611000D02*X301800Y610500D01*
X300300Y611000D02*X301300D01*
X299800Y610500D02*X300300Y611000D01*
X305000Y607000D02*X305500Y607500D01*
X303500Y607000D02*X305000D01*
X303000Y607500D02*X303500Y607000D01*
X303000Y607500D02*Y608500D01*
X303500Y609000D01*
X305000D01*
X305500Y609500D01*
Y610500D01*
X305000Y611000D02*X305500Y610500D01*
X303500Y611000D02*X305000D01*
X303000Y610500D02*X303500Y611000D01*
X306700Y608800D02*X308200D01*
X306700Y611000D02*X308700D01*
X306700Y607000D02*Y611000D01*
Y607000D02*X308700D01*
X310400D02*Y611000D01*
X311700Y607000D02*X312400Y607700D01*
Y610300D01*
X311700Y611000D02*X312400Y610300D01*
X309900Y611000D02*X311700D01*
X309900Y607000D02*X311700D01*
X315400Y607500D02*Y610500D01*
Y607500D02*X315900Y607000D01*
X316900D01*
X317400Y607500D01*
Y610500D01*
X316900Y611000D02*X317400Y610500D01*
X315900Y611000D02*X316900D01*
X315400Y610500D02*X315900Y611000D01*
X318600Y607000D02*Y611000D01*
Y607000D02*X320600D01*
X318600Y608800D02*X320100D01*
X323600Y607000D02*X325600D01*
X324600D02*Y611000D01*
X326800Y607000D02*Y611000D01*
X329300Y607000D02*Y611000D01*
X326800Y609000D02*X329300D01*
X330500Y608800D02*X332000D01*
X330500Y611000D02*X332500D01*
X330500Y607000D02*Y611000D01*
Y607000D02*X332500D01*
X335700D02*X336200Y607500D01*
X334200Y607000D02*X335700D01*
X333700Y607500D02*X334200Y607000D01*
X333700Y607500D02*Y608500D01*
X334200Y609000D01*
X335700D01*
X336200Y609500D01*
Y610500D01*
X335700Y611000D02*X336200Y610500D01*
X334200Y611000D02*X335700D01*
X333700Y610500D02*X334200Y611000D01*
X337400Y608800D02*X338900D01*
X337400Y611000D02*X339400D01*
X337400Y607000D02*Y611000D01*
Y607000D02*X339400D01*
X342900D02*Y611000D01*
X342400Y607000D02*X344400D01*
X344900Y607500D01*
Y608500D01*
X344400Y609000D02*X344900Y608500D01*
X342900Y609000D02*X344400D01*
X346100Y607000D02*X348100D01*
X348600Y607500D01*
Y608500D01*
X348100Y609000D02*X348600Y608500D01*
X346600Y609000D02*X348100D01*
X346600Y607000D02*Y611000D01*
X347400Y609000D02*X348600Y611000D01*
X349800Y607500D02*Y610500D01*
Y607500D02*X350300Y607000D01*
X351300D01*
X351800Y607500D01*
Y610500D01*
X351300Y611000D02*X351800Y610500D01*
X350300Y611000D02*X351300D01*
X349800Y610500D02*X350300Y611000D01*
X353700Y607000D02*X354500D01*
Y610500D01*
X354000Y611000D02*X354500Y610500D01*
X353500Y611000D02*X354000D01*
X353000Y610500D02*X353500Y611000D01*
X353000Y610000D02*Y610500D01*
X355700Y608800D02*X357200D01*
X355700Y611000D02*X357700D01*
X355700Y607000D02*Y611000D01*
Y607000D02*X357700D01*
X359600Y611000D02*X360900D01*
X358900Y610300D02*X359600Y611000D01*
X358900Y607700D02*Y610300D01*
Y607700D02*X359600Y607000D01*
X360900D01*
X362100D02*X364100D01*
X363100D02*Y611000D01*
X367300Y607000D02*X367800Y607500D01*
X365800Y607000D02*X367300D01*
X365300Y607500D02*X365800Y607000D01*
X365300Y607500D02*Y608500D01*
X365800Y609000D01*
X367300D01*
X367800Y609500D01*
Y610500D01*
X367300Y611000D02*X367800Y610500D01*
X365800Y611000D02*X367300D01*
X365300Y610500D02*X365800Y611000D01*
X285500Y621000D02*Y624000D01*
X286500Y625000D01*
X289500D01*
X290500Y621000D02*Y623500D01*
Y621000D02*X289500Y620000D01*
X286500D02*X289500D01*
X286500D02*X285500Y621000D01*
X287000Y622000D02*Y623000D01*
X287500Y623500D01*
X288500D01*
X289000Y623000D01*
X289500Y623500D01*
X289000Y621500D02*Y623000D01*
Y622000D02*X288500Y621500D01*
X287500D02*X288500D01*
X287500D02*X287000Y622000D01*
X289500Y623500D02*X290500D01*
X293500Y621000D02*Y624500D01*
X294000Y625000D01*
X295000D01*
X295500Y624500D01*
Y621000D02*Y624500D01*
X296700Y621000D02*X298700D01*
X297700D02*Y625000D01*
X300400Y621000D02*Y625000D01*
X301700Y621000D02*X302400Y621700D01*
Y624300D01*
X301700Y625000D02*X302400Y624300D01*
X299900Y625000D02*X301700D01*
X299900Y621000D02*X301700D01*
X305400Y624500D02*X305900Y625000D01*
X305400Y621500D02*X305900Y621000D01*
X305400Y621500D02*Y624500D01*
X307100Y621000D02*Y624500D01*
X307600Y625000D01*
X308600D01*
X309100Y624500D01*
Y621000D02*Y624500D01*
X310300Y621000D02*Y625000D01*
Y621000D02*X312800Y625000D01*
Y621000D02*Y625000D01*
X314000Y621000D02*X315000D01*
X314500D02*Y625000D01*
X314000D02*X315000D01*
X316200Y621000D02*X317200Y625000D01*
X318200Y621000D01*
X319400Y622800D02*X320900D01*
X319400Y625000D02*X321400D01*
X319400Y621000D02*Y625000D01*
Y621000D02*X321400D01*
X322600D02*X324600D01*
X325100Y621500D01*
Y622500D01*
X324600Y623000D02*X325100Y622500D01*
X323100Y623000D02*X324600D01*
X323100Y621000D02*Y625000D01*
X323900Y623000D02*X325100Y625000D01*
X328300Y621000D02*X328800Y621500D01*
X326800Y621000D02*X328300D01*
X326300Y621500D02*X326800Y621000D01*
X326300Y621500D02*Y622500D01*
X326800Y623000D01*
X328300D01*
X328800Y623500D01*
Y624500D01*
X328300Y625000D02*X328800Y624500D01*
X326800Y625000D02*X328300D01*
X326300Y624500D02*X326800Y625000D01*
X330000Y621000D02*X331000D01*
X330500D02*Y625000D01*
X330000D02*X331000D01*
X332200Y621000D02*X334200D01*
X333200D02*Y625000D01*
X335400Y621000D02*X336400Y623000D01*
X337400Y621000D01*
X336400Y623000D02*Y625000D01*
X340400Y621000D02*X342400D01*
X341400D02*Y625000D01*
X343600Y622800D02*X345100D01*
X343600Y625000D02*X345600D01*
X343600Y621000D02*Y625000D01*
Y621000D02*X345600D01*
X346800Y625000D02*X349300Y621000D01*
X346800D02*X349300Y625000D01*
X350500Y622000D02*Y625000D01*
Y622000D02*X351200Y621000D01*
X352300D01*
X353000Y622000D01*
Y625000D01*
X350500Y623000D02*X353000D01*
X356200Y621000D02*X356700Y621500D01*
X354700Y621000D02*X356200D01*
X354200Y621500D02*X354700Y621000D01*
X354200Y621500D02*Y622500D01*
X354700Y623000D01*
X356200D01*
X356700Y623500D01*
Y624500D01*
X356200Y625000D02*X356700Y624500D01*
X354700Y625000D02*X356200D01*
X354200Y624500D02*X354700Y625000D01*
X360200Y621000D02*Y625000D01*
X361500Y621000D02*X362200Y621700D01*
Y624300D01*
X361500Y625000D02*X362200Y624300D01*
X359700Y625000D02*X361500D01*
X359700Y621000D02*X361500D01*
X363400Y622000D02*Y625000D01*
Y622000D02*X364100Y621000D01*
X365200D01*
X365900Y622000D01*
Y625000D01*
X363400Y623000D02*X365900D01*
X367100Y621000D02*Y625000D01*
X369100D01*
X370300Y621000D02*Y625000D01*
X372300D01*
X373500Y622000D02*Y625000D01*
Y622000D02*X374200Y621000D01*
X375300D01*
X376000Y622000D01*
Y625000D01*
X373500Y623000D02*X376000D01*
X379200Y621000D02*X379700Y621500D01*
X377700Y621000D02*X379200D01*
X377200Y621500D02*X377700Y621000D01*
X377200Y621500D02*Y622500D01*
X377700Y623000D01*
X379200D01*
X379700Y623500D01*
Y624500D01*
X379200Y625000D02*X379700Y624500D01*
X377700Y625000D02*X379200D01*
X377200Y624500D02*X377700Y625000D01*
X380900Y621000D02*X381400Y621500D01*
Y624500D01*
X380900Y625000D02*X381400Y624500D01*
X286200Y632000D02*X287500D01*
X285500Y631300D02*X286200Y632000D01*
X285500Y628700D02*Y631300D01*
Y628700D02*X286200Y628000D01*
X287500D01*
X288700Y628500D02*Y631500D01*
Y628500D02*X289200Y628000D01*
X290200D01*
X290700Y628500D01*
Y631500D01*
X290200Y632000D02*X290700Y631500D01*
X289200Y632000D02*X290200D01*
X288700Y631500D02*X289200Y632000D01*
X292600D02*X293900D01*
X291900Y631300D02*X292600Y632000D01*
X291900Y628700D02*Y631300D01*
Y628700D02*X292600Y628000D01*
X293900D01*
X295100D02*Y632000D01*
X297600Y628000D02*Y632000D01*
X295100Y630000D02*X297600D01*
X298800Y628000D02*Y632000D01*
X300800D01*
X302000Y629800D02*X303500D01*
X302000Y632000D02*X304000D01*
X302000Y628000D02*Y632000D01*
Y628000D02*X304000D01*
X305200Y629000D02*Y632000D01*
Y629000D02*X305900Y628000D01*
X307000D01*
X307700Y629000D01*
Y632000D01*
X305200Y630000D02*X307700D01*
X308900Y628000D02*X310900D01*
X311400Y628500D01*
Y629500D01*
X310900Y630000D02*X311400Y629500D01*
X309400Y630000D02*X310900D01*
X309400Y628000D02*Y632000D01*
X310200Y630000D02*X311400Y632000D01*
X314400Y628000D02*X315400D01*
X314900D02*Y632000D01*
X314400D02*X315400D01*
X316600Y628000D02*Y632000D01*
Y628000D02*X318100Y630000D01*
X319600Y628000D01*
Y632000D01*
X321300Y628000D02*Y632000D01*
X320800Y628000D02*X322800D01*
X323300Y628500D01*
Y629500D01*
X322800Y630000D02*X323300Y629500D01*
X321300Y630000D02*X322800D01*
X324500Y628000D02*Y632000D01*
X326500D01*
X327700Y629000D02*Y632000D01*
Y629000D02*X328400Y628000D01*
X329500D01*
X330200Y629000D01*
Y632000D01*
X327700Y630000D02*X330200D01*
X331400Y628000D02*Y632000D01*
Y628000D02*X333900Y632000D01*
Y628000D02*Y632000D01*
X335100Y628000D02*X337100D01*
X336100D02*Y632000D01*
X340600Y628000D02*Y632000D01*
X340100Y628000D02*X342100D01*
X342600Y628500D01*
Y629500D01*
X342100Y630000D02*X342600Y629500D01*
X340600Y630000D02*X342100D01*
X343800Y628000D02*X345800D01*
X346300Y628500D01*
Y629500D01*
X345800Y630000D02*X346300Y629500D01*
X344300Y630000D02*X345800D01*
X344300Y628000D02*Y632000D01*
X345100Y630000D02*X346300Y632000D01*
X347500Y628500D02*Y631500D01*
Y628500D02*X348000Y628000D01*
X349000D01*
X349500Y628500D01*
Y631500D01*
X349000Y632000D02*X349500Y631500D01*
X348000Y632000D02*X349000D01*
X347500Y631500D02*X348000Y632000D01*
X351400D02*X352700D01*
X350700Y631300D02*X351400Y632000D01*
X350700Y628700D02*Y631300D01*
Y628700D02*X351400Y628000D01*
X352700D01*
X353900Y629800D02*X355400D01*
X353900Y632000D02*X355900D01*
X353900Y628000D02*Y632000D01*
Y628000D02*X355900D01*
X359100D02*X359600Y628500D01*
X357600Y628000D02*X359100D01*
X357100Y628500D02*X357600Y628000D01*
X357100Y628500D02*Y629500D01*
X357600Y630000D01*
X359100D01*
X359600Y630500D01*
Y631500D01*
X359100Y632000D02*X359600Y631500D01*
X357600Y632000D02*X359100D01*
X357100Y631500D02*X357600Y632000D01*
X362800Y628000D02*X363300Y628500D01*
X361300Y628000D02*X362800D01*
X360800Y628500D02*X361300Y628000D01*
X360800Y628500D02*Y629500D01*
X361300Y630000D01*
X362800D01*
X363300Y630500D01*
Y631500D01*
X362800Y632000D02*X363300Y631500D01*
X361300Y632000D02*X362800D01*
X360800Y631500D02*X361300Y632000D01*
X364500Y628500D02*Y631500D01*
Y628500D02*X365000Y628000D01*
X366000D01*
X366500Y628500D01*
Y631500D01*
X366000Y632000D02*X366500Y631500D01*
X365000Y632000D02*X366000D01*
X364500Y631500D02*X365000Y632000D01*
X367700Y628000D02*X369700D01*
X370200Y628500D01*
Y629500D01*
X369700Y630000D02*X370200Y629500D01*
X368200Y630000D02*X369700D01*
X368200Y628000D02*Y632000D01*
X369000Y630000D02*X370200Y632000D01*
X285500Y618000D02*X287500D01*
X288000Y617500D01*
Y616300D02*Y617500D01*
X287500Y615800D02*X288000Y616300D01*
X286000Y615800D02*X287500D01*
X286000Y614000D02*Y618000D01*
X285500Y614000D02*X287500D01*
X288000Y614500D01*
Y615300D01*
X287500Y615800D02*X288000Y615300D01*
X289200Y615000D02*Y615100D01*
Y616500D02*Y618000D01*
X292200Y614000D02*X292700Y614500D01*
X290700Y614000D02*X292200D01*
X290200Y614500D02*X290700Y614000D01*
X290200Y614500D02*Y615500D01*
X290700Y616000D01*
X292200D01*
X292700Y616500D01*
Y617500D01*
X292200Y618000D02*X292700Y617500D01*
X290700Y618000D02*X292200D01*
X290200Y617500D02*X290700Y618000D01*
X293900Y614000D02*X295900D01*
X294900D02*Y618000D01*
X297100Y614000D02*Y618000D01*
Y614000D02*X298600Y616000D01*
X300100Y614000D01*
Y618000D01*
X303800D02*X305100D01*
X303100Y617300D02*X303800Y618000D01*
X303100Y614700D02*Y617300D01*
Y614700D02*X303800Y614000D01*
X305100D01*
X306300D02*Y618000D01*
X308800Y614000D02*Y618000D01*
X306300Y616000D02*X308800D01*
X310000Y614000D02*X311000D01*
X310500D02*Y618000D01*
X310000D02*X311000D01*
X312700Y614000D02*Y618000D01*
X312200Y614000D02*X314200D01*
X314700Y614500D01*
Y615500D01*
X314200Y616000D02*X314700Y615500D01*
X312700Y616000D02*X314200D01*
X318200Y614000D02*Y618000D01*
X319500Y614000D02*X320200Y614700D01*
Y617300D01*
X319500Y618000D02*X320200Y617300D01*
X317700Y618000D02*X319500D01*
X317700Y614000D02*X319500D01*
X321400Y615800D02*X322900D01*
X321400Y618000D02*X323400D01*
X321400Y614000D02*Y618000D01*
Y614000D02*X323400D01*
X324600D02*X325600Y618000D01*
X326600Y614000D01*
X327800Y615800D02*X329300D01*
X327800Y618000D02*X329800D01*
X327800Y614000D02*Y618000D01*
Y614000D02*X329800D01*
X331000D02*Y618000D01*
X333000D01*
X334200Y614500D02*Y617500D01*
Y614500D02*X334700Y614000D01*
X335700D01*
X336200Y614500D01*
Y617500D01*
X335700Y618000D02*X336200Y617500D01*
X334700Y618000D02*X335700D01*
X334200Y617500D02*X334700Y618000D01*
X337900Y614000D02*Y618000D01*
X337400Y614000D02*X339400D01*
X339900Y614500D01*
Y615500D01*
X339400Y616000D02*X339900Y615500D01*
X337900Y616000D02*X339400D01*
X341100Y615800D02*X342600D01*
X341100Y618000D02*X343100D01*
X341100Y614000D02*Y618000D01*
Y614000D02*X343100D01*
X344800D02*Y618000D01*
X346100Y614000D02*X346800Y614700D01*
Y617300D01*
X346100Y618000D02*X346800Y617300D01*
X344300Y618000D02*X346100D01*
X344300Y614000D02*X346100D01*
X349800Y618000D02*X351800D01*
X352300Y617500D01*
Y616300D02*Y617500D01*
X351800Y615800D02*X352300Y616300D01*
X350300Y615800D02*X351800D01*
X350300Y614000D02*Y618000D01*
X349800Y614000D02*X351800D01*
X352300Y614500D01*
Y615300D01*
X351800Y615800D02*X352300Y615300D01*
X353500Y614000D02*X354500Y616000D01*
X355500Y614000D01*
X354500Y616000D02*Y618000D01*
X360500Y614000D02*X361000Y614500D01*
X359000Y614000D02*X360500D01*
X358500Y614500D02*X359000Y614000D01*
X358500Y614500D02*Y615500D01*
X359000Y616000D01*
X360500D01*
X361000Y616500D01*
Y617500D01*
X360500Y618000D02*X361000Y617500D01*
X359000Y618000D02*X360500D01*
X358500Y617500D02*X359000Y618000D01*
X362200Y614500D02*Y617500D01*
Y614500D02*X362700Y614000D01*
X363700D01*
X364200Y614500D01*
Y617500D01*
X363700Y618000D02*X364200Y617500D01*
X362700Y618000D02*X363700D01*
X362200Y617500D02*X362700Y618000D01*
X365400Y614000D02*Y618000D01*
Y614000D02*X367900Y618000D01*
Y614000D02*Y618000D01*
X371100Y614000D02*X371600Y614500D01*
X369600Y614000D02*X371100D01*
X369100Y614500D02*X369600Y614000D01*
X369100Y614500D02*Y617500D01*
X369600Y618000D01*
X371100D01*
X371600Y617500D01*
Y616500D02*Y617500D01*
X371100Y616000D02*X371600Y616500D01*
X370100Y616000D02*X371100D01*
X376600Y614000D02*X377100Y614500D01*
X375100Y614000D02*X376600D01*
X374600Y614500D02*X375100Y614000D01*
X374600Y614500D02*Y617500D01*
X375100Y618000D01*
X376600D01*
X377100Y617500D01*
Y616500D02*Y617500D01*
X376600Y616000D02*X377100Y616500D01*
X375600Y616000D02*X376600D01*
X378300Y614000D02*Y617500D01*
X378800Y618000D01*
X379800D01*
X380300Y617500D01*
Y614000D02*Y617500D01*
X381500Y614500D02*Y617500D01*
Y614500D02*X382000Y614000D01*
X383000D01*
X383500Y614500D01*
Y617500D01*
X383000Y618000D02*X383500Y617500D01*
X382000Y618000D02*X383000D01*
X381500Y617500D02*X382000Y618000D01*
X285500Y639000D02*X287500D01*
X288000Y638500D01*
Y637300D02*Y638500D01*
X287500Y636800D02*X288000Y637300D01*
X286000Y636800D02*X287500D01*
X286000Y635000D02*Y639000D01*
X285500Y635000D02*X287500D01*
X288000Y635500D01*
Y636300D01*
X287500Y636800D02*X288000Y636300D01*
X289200Y635000D02*X290200Y637000D01*
X291200Y635000D01*
X290200Y637000D02*Y639000D01*
X294700Y635000D02*Y639000D01*
X294200Y635000D02*X296200D01*
X296700Y635500D01*
Y636500D01*
X296200Y637000D02*X296700Y636500D01*
X294700Y637000D02*X296200D01*
X297900Y635000D02*Y639000D01*
X300400Y635000D02*Y639000D01*
X297900Y637000D02*X300400D01*
X301600Y635000D02*X302600D01*
X302100D02*Y639000D01*
X301600D02*X302600D01*
X303800Y635000D02*Y639000D01*
X305800D01*
X307000Y635000D02*X308000D01*
X307500D02*Y639000D01*
X307000D02*X308000D01*
X309700Y635000D02*Y639000D01*
X309200Y635000D02*X311200D01*
X311700Y635500D01*
Y636500D01*
X311200Y637000D02*X311700Y636500D01*
X309700Y637000D02*X311200D01*
X314700Y635000D02*Y639000D01*
X316700D01*
X317900Y635500D02*Y638500D01*
Y635500D02*X318400Y635000D01*
X319400D01*
X319900Y635500D01*
Y638500D01*
X319400Y639000D02*X319900Y638500D01*
X318400Y639000D02*X319400D01*
X317900Y638500D02*X318400Y639000D01*
X321100Y635000D02*X322100D01*
X321600D02*Y639000D01*
X321100D02*X322100D01*
X323300Y635000D02*X325800D01*
X323300Y639000D02*X325800Y635000D01*
X323300Y639000D02*X325800D01*
X327000Y635500D02*Y638500D01*
Y635500D02*X327500Y635000D01*
X328500D01*
X329000Y635500D01*
Y638500D01*
X328500Y639000D02*X329000Y638500D01*
X327500Y639000D02*X328500D01*
X327000Y638500D02*X327500Y639000D01*
X330200Y635000D02*Y638500D01*
X330700Y639000D01*
X331700D01*
X332200Y638500D01*
Y635000D02*Y638500D01*
X333400Y636000D02*X334400Y635000D01*
X337600D02*X338100Y635500D01*
X336100Y635000D02*X337600D01*
X335600Y635500D02*X336100Y635000D01*
X335600Y635500D02*Y636500D01*
X336100Y637000D01*
X337600D01*
X338100Y637500D01*
Y638500D01*
X337600Y639000D02*X338100Y638500D01*
X336100Y639000D02*X337600D01*
X335600Y638500D02*X336100Y639000D01*
X343100Y635000D02*X343600Y635500D01*
X341600Y635000D02*X343100D01*
X341100Y635500D02*X341600Y635000D01*
X341100Y635500D02*Y638500D01*
X341600Y639000D01*
X343100D01*
X343600Y638500D01*
Y637500D02*Y638500D01*
X343100Y637000D02*X343600Y637500D01*
X342100Y637000D02*X343100D01*
X344800Y635000D02*X346800D01*
X347300Y635500D01*
Y636500D01*
X346800Y637000D02*X347300Y636500D01*
X345300Y637000D02*X346800D01*
X345300Y635000D02*Y639000D01*
X346100Y637000D02*X347300Y639000D01*
X348500Y635500D02*Y638500D01*
Y635500D02*X349000Y635000D01*
X350000D01*
X350500Y635500D01*
Y638500D01*
X350000Y639000D02*X350500Y638500D01*
X349000Y639000D02*X350000D01*
X348500Y638500D02*X349000Y639000D01*
X351700Y635000D02*Y638500D01*
X352200Y639000D01*
X353200D01*
X353700Y638500D01*
Y635000D02*Y638500D01*
X355400Y635000D02*Y639000D01*
X354900Y635000D02*X356900D01*
X357400Y635500D01*
Y636500D01*
X356900Y637000D02*X357400Y636500D01*
X355400Y637000D02*X356900D01*
X360400Y636000D02*Y639000D01*
Y636000D02*X361100Y635000D01*
X362200D01*
X362900Y636000D01*
Y639000D01*
X360400Y637000D02*X362900D01*
X364100Y635000D02*X366100D01*
X365100D02*Y639000D01*
X369100Y635000D02*Y638500D01*
X369600Y639000D01*
X370600D01*
X371100Y638500D01*
Y635000D02*Y638500D01*
X372300Y635000D02*X374300D01*
X373300D02*Y639000D01*
X376000Y635000D02*Y639000D01*
X377300Y635000D02*X378000Y635700D01*
Y638300D01*
X377300Y639000D02*X378000Y638300D01*
X375500Y639000D02*X377300D01*
X375500Y635000D02*X377300D01*
X285500Y642000D02*X286500D01*
X286000D02*Y646000D01*
X285500D02*X286500D01*
X287700Y642000D02*Y646000D01*
Y642000D02*X290200Y646000D01*
Y642000D02*Y646000D01*
X293900D02*X295200D01*
X293200Y645300D02*X293900Y646000D01*
X293200Y642700D02*Y645300D01*
Y642700D02*X293900Y642000D01*
X295200D01*
X296400Y642500D02*Y645500D01*
Y642500D02*X296900Y642000D01*
X297900D01*
X298400Y642500D01*
Y645500D01*
X297900Y646000D02*X298400Y645500D01*
X296900Y646000D02*X297900D01*
X296400Y645500D02*X296900Y646000D01*
X299600Y642500D02*Y645500D01*
Y642500D02*X300100Y642000D01*
X301100D01*
X301600Y642500D01*
Y645500D01*
X301100Y646000D02*X301600Y645500D01*
X300100Y646000D02*X301100D01*
X299600Y645500D02*X300100Y646000D01*
X302800Y642000D02*X304800D01*
X305300Y642500D01*
Y643500D01*
X304800Y644000D02*X305300Y643500D01*
X303300Y644000D02*X304800D01*
X303300Y642000D02*Y646000D01*
X304100Y644000D02*X305300Y646000D01*
X307000Y642000D02*Y646000D01*
X308300Y642000D02*X309000Y642700D01*
Y645300D01*
X308300Y646000D02*X309000Y645300D01*
X306500Y646000D02*X308300D01*
X306500Y642000D02*X308300D01*
X310200D02*X311200D01*
X310700D02*Y646000D01*
X310200D02*X311200D01*
X312400Y642000D02*Y646000D01*
Y642000D02*X314900Y646000D01*
Y642000D02*Y646000D01*
X316100Y643000D02*Y646000D01*
Y643000D02*X316800Y642000D01*
X317900D01*
X318600Y643000D01*
Y646000D01*
X316100Y644000D02*X318600D01*
X319800Y642000D02*X321800D01*
X320800D02*Y646000D01*
X323000Y642000D02*X324000D01*
X323500D02*Y646000D01*
X323000D02*X324000D01*
X325200Y642500D02*Y645500D01*
Y642500D02*X325700Y642000D01*
X326700D01*
X327200Y642500D01*
Y645500D01*
X326700Y646000D02*X327200Y645500D01*
X325700Y646000D02*X326700D01*
X325200Y645500D02*X325700Y646000D01*
X328400Y642000D02*Y646000D01*
Y642000D02*X330900Y646000D01*
Y642000D02*Y646000D01*
X333900Y642000D02*Y644000D01*
X334400Y646000D01*
X335400Y644000D01*
X336400Y646000D01*
X336900Y644000D01*
Y642000D02*Y644000D01*
X338100Y642000D02*X339100D01*
X338600D02*Y646000D01*
X338100D02*X339100D01*
X340300Y642000D02*X342300D01*
X341300D02*Y646000D01*
X343500Y642000D02*Y646000D01*
X346000Y642000D02*Y646000D01*
X343500Y644000D02*X346000D01*
X349000Y643800D02*X350500D01*
X349000Y646000D02*X351000D01*
X349000Y642000D02*Y646000D01*
Y642000D02*X351000D01*
X352200D02*X353200Y646000D01*
X354200Y642000D01*
X355400Y643000D02*Y646000D01*
Y643000D02*X356100Y642000D01*
X357200D01*
X357900Y643000D01*
Y646000D01*
X355400Y644000D02*X357900D01*
X359100Y642000D02*Y646000D01*
Y642000D02*X361600Y646000D01*
Y642000D02*Y646000D01*
X364600Y642000D02*Y646000D01*
Y642000D02*X366600D01*
X364600Y643800D02*X366100D01*
X367800Y642500D02*Y645500D01*
Y642500D02*X368300Y642000D01*
X369300D01*
X369800Y642500D01*
Y645500D01*
X369300Y646000D02*X369800Y645500D01*
X368300Y646000D02*X369300D01*
X367800Y645500D02*X368300Y646000D01*
X373000Y642000D02*X373500Y642500D01*
X371500Y642000D02*X373000D01*
X371000Y642500D02*X371500Y642000D01*
X371000Y642500D02*Y643500D01*
X371500Y644000D01*
X373000D01*
X373500Y644500D01*
Y645500D01*
X373000Y646000D02*X373500Y645500D01*
X371500Y646000D02*X373000D01*
X371000Y645500D02*X371500Y646000D01*
X376700Y642000D02*X377200Y642500D01*
X375200Y642000D02*X376700D01*
X374700Y642500D02*X375200Y642000D01*
X374700Y642500D02*Y643500D01*
X375200Y644000D01*
X376700D01*
X377200Y644500D01*
Y645500D01*
X376700Y646000D02*X377200Y645500D01*
X375200Y646000D02*X376700D01*
X374700Y645500D02*X375200Y646000D01*
G54D130*X215241Y740158D02*X157761D01*
X157760Y755671D01*
X161697Y759608D02*X211303D01*
X215240Y755671D02*X215241Y740158D01*
X215240Y755671D02*X211303Y759608D01*
X157760Y755671D02*X161697Y759608D01*
X216933Y757404D02*X212603Y761734D01*
X159611D01*
X155674Y757797D01*
Y738269D01*
X216933D01*
X216934Y757404D01*
G54D131*X94738Y795877D02*Y753357D01*
X129384D01*
Y795877D02*Y753357D01*
X94738Y795877D02*X129384D01*
X124069Y781703D02*Y767530D01*
X127809Y794302D02*Y754932D01*
X96313Y782491D02*X124069Y781703D01*
X96313Y766743D02*X124069Y767530D01*
X122100Y800995D02*X126628D01*
Y797845D01*
X124266D02*X126628D01*
X125053Y799420D03*
X124266Y797845D02*X123282Y798436D01*
X122888D02*X123282D01*
X122888D02*X122100Y797648D01*
X119738Y793267D02*Y781830D01*
Y767407D02*Y755941D01*
X96313Y790365D02*Y782491D01*
Y766743D02*Y758869D01*
X122100Y751388D02*X126628D01*
Y748239D01*
X124266D02*X126628D01*
X125053Y749814D03*
X124266Y748239D02*X123282Y748829D01*
X122888D02*X123282D01*
X122888D02*X122100Y748042D01*
X124069Y794302D02*X127809D01*
X124069D02*X96313Y790365D01*
X124069Y754932D02*X127809D01*
X124069D02*X96313Y758869D01*
G54D130*X49316Y757705D02*X52465D01*
X49316Y692548D02*X52465D01*
Y757705D01*
X49316Y692548D02*Y757705D01*
X52465Y696091D02*X62780D01*
X71442Y704280D02*Y744201D01*
X52465Y752390D02*X62780D01*
X55418Y696091D02*Y752390D01*
X268650Y564396D02*X211170D01*
X211169Y579909D01*
X264712Y583846D02*X215106D01*
X268649Y579909D02*X268650Y564396D01*
X268649Y579909D02*X264712Y583846D01*
X211169Y579909D02*X215106Y583846D01*
X270342Y581642D02*X266012Y585972D01*
X213020D01*
X209083Y582035D01*
Y562507D02*Y582035D01*
X270342Y562507D02*X209083D01*
X270342D02*X270343Y581642D01*
G54D131*X261762Y663623D02*Y706143D01*
X227116D02*X261762D01*
X227116Y663623D02*Y706143D01*
Y663623D02*X261762D01*
X232431Y677797D02*Y691970D01*
X228691Y665198D02*Y704568D01*
X260187Y677009D02*X232431Y677797D01*
X260187Y692757D02*X232431Y691970D01*
X229872Y658505D02*X234400D01*
X229872D02*Y661655D01*
X232234D01*
X231447Y660080D03*
X232234Y661655D02*X233218Y661064D01*
X233612D01*
X234400Y661852D01*
X236762Y666233D02*Y677670D01*
Y692093D02*Y703559D01*
X260187Y669135D02*Y677009D01*
Y692757D02*Y700631D01*
X229872Y708112D02*X234400D01*
X229872D02*Y711261D01*
X232234D01*
X231447Y709686D03*
X232234Y711261D02*X233218Y710671D01*
X233612D01*
X234400Y711458D01*
X228691Y665198D02*X232431D01*
X260187Y669135D01*
X228691Y704568D02*X232431D01*
X260187Y700631D01*
X164238Y595857D02*Y638377D01*
Y595857D02*X198884D01*
Y638377D01*
X164238D02*X198884D01*
X193569Y610030D02*Y624203D01*
X197309Y597432D02*Y636802D01*
X165813Y624991D02*X193569Y624203D01*
X165813Y609243D02*X193569Y610030D01*
X191600Y643495D02*X196128D01*
Y640345D02*Y643495D01*
X193766Y640345D02*X196128D01*
X194553Y641920D03*
X193766Y640345D02*X192782Y640936D01*
X192388D02*X192782D01*
X192388D02*X191600Y640148D01*
X189238Y624330D02*Y635767D01*
Y598441D02*Y609907D01*
X165813Y624991D02*Y632865D01*
Y601369D02*Y609243D01*
X191600Y593888D02*X196128D01*
Y590739D02*Y593888D01*
X193766Y590739D02*X196128D01*
X194553Y592314D03*
X193766Y590739D02*X192782Y591329D01*
X192388D02*X192782D01*
X192388D02*X191600Y590542D01*
X193569Y636802D02*X197309D01*
X193569D02*X165813Y632865D01*
X193569Y597432D02*X197309D01*
X193569D02*X165813Y601369D01*
G54D130*X446075Y635311D02*X398831D01*
Y611689D02*Y635311D01*
X440169Y611689D02*X398831D01*
X446075Y617201D02*X440169D01*
X446075D02*Y635311D01*
X440169Y611689D02*Y635311D01*
G54D131*X386740Y651677D02*X429260D01*
Y686323D02*Y651677D01*
X386740Y686323D02*X429260D01*
X386740D02*Y651677D01*
X400914Y681008D02*X415087D01*
X388315Y684748D02*X427685D01*
X400126Y653252D02*X400914Y681008D01*
X415874Y653252D02*X415087Y681008D01*
X381622Y683567D02*Y679039D01*
Y683567D02*X384772D01*
Y681205D01*
X383197Y681992D03*
X384772Y681205D02*X384181Y680221D01*
Y679827D01*
X384969Y679039D01*
X389350Y676677D02*X400787D01*
X415210D02*X426676D01*
X392252Y653252D02*X400126D01*
X415874D02*X423748D01*
X431229Y683567D02*Y679039D01*
Y683567D02*X434378D01*
Y681205D01*
X432803Y681992D03*
X434378Y681205D02*X433788Y680221D01*
Y679827D01*
X434575Y679039D01*
X388315Y684748D02*Y681008D01*
X392252Y653252D01*
X427685Y684748D02*Y681008D01*
X423748Y653252D01*
G54D130*X321409Y701740D02*X389519D01*
X321409Y766701D02*X321410Y701740D01*
X317473Y760992D02*Y717685D01*
X313536Y760992D02*Y717685D01*
X301725D02*X321410D01*
X301725Y760992D02*Y717685D01*
Y760992D02*X321410D01*
X389519Y766701D02*Y701740D01*
X321409Y766701D02*X389519D01*
X326330Y804890D02*Y766701D01*
Y804890D02*X364814D01*
X385386Y784318D02*Y766701D01*
X364814Y804890D02*X385386Y784318D01*
G54D129*X64611Y712751D02*Y714051D01*
X65311Y712051D02*X64611Y712751D01*
X65311Y712051D02*X67911D01*
X68611Y712751D01*
Y714051D01*
X65111Y715251D02*X68111D01*
X68611Y715751D01*
Y716751D01*
X68111Y717251D01*
X65111D02*X68111D01*
X64611Y716751D02*X65111Y717251D01*
X64611Y715751D02*Y716751D01*
X65111Y715251D02*X64611Y715751D01*
Y718451D02*X68611D01*
X64611Y720951D01*
X68611D01*
X64611Y722151D02*X68611D01*
X64611Y724651D01*
X68611D01*
X66111Y725851D02*X68611Y727851D01*
X66111Y725851D02*Y728351D01*
X64611Y727851D02*X68611D01*
X65111Y729551D02*X64611Y730051D01*
X65111Y729551D02*X68111D01*
X68611Y730051D01*
Y731051D01*
X68111Y731551D01*
X65111D02*X68111D01*
X64611Y731051D02*X65111Y731551D01*
X64611Y730051D02*Y731051D01*
X65611Y729551D02*X67611Y731551D01*
X65111Y732751D02*X64611Y733251D01*
X65111Y732751D02*X68111D01*
X68611Y733251D01*
Y734251D01*
X68111Y734751D01*
X65111D02*X68111D01*
X64611Y734251D02*X65111Y734751D01*
X64611Y733251D02*Y734251D01*
X65611Y732751D02*X67611Y734751D01*
X177096Y747944D02*X178396D01*
X176396Y747244D02*X177096Y747944D01*
X176396Y744644D02*Y747244D01*
Y744644D02*X177096Y743944D01*
X178396D01*
X179596Y744444D02*Y747444D01*
Y744444D02*X180096Y743944D01*
X181096D01*
X181596Y744444D01*
Y747444D01*
X181096Y747944D02*X181596Y747444D01*
X180096Y747944D02*X181096D01*
X179596Y747444D02*X180096Y747944D01*
X182796Y743944D02*Y747944D01*
Y743944D02*X185296Y747944D01*
Y743944D02*Y747944D01*
X186496Y743944D02*Y747944D01*
Y743944D02*X188996Y747944D01*
Y743944D02*Y747944D01*
X190696D02*X192696Y743944D01*
X190196D02*X192696D01*
X193896Y747444D02*X194396Y747944D01*
X193896Y744444D02*Y747444D01*
Y744444D02*X194396Y743944D01*
X195396D01*
X195896Y744444D01*
Y747444D01*
X195396Y747944D02*X195896Y747444D01*
X194396Y747944D02*X195396D01*
X193896Y746944D02*X195896Y744944D01*
X197096Y746444D02*X199096Y743944D01*
X197096Y746444D02*X199596D01*
X199096Y743944D02*Y747944D01*
X184516Y623899D02*Y625199D01*
X183816Y625899D02*X184516Y625199D01*
X181216Y625899D02*X183816D01*
X181216D02*X180516Y625199D01*
Y623899D02*Y625199D01*
Y622699D02*X184516D01*
Y620699D02*Y622699D01*
X180516Y618499D02*Y619499D01*
Y618999D02*X184516D01*
Y618499D02*Y619499D01*
X180516Y616799D02*X184516D01*
X180516Y615299D02*Y617299D01*
Y615299D02*X181016Y614799D01*
X182016D01*
X182516Y615299D02*X182016Y614799D01*
X182516Y615299D02*Y616799D01*
Y612599D02*X183016D01*
X184016D02*X184516D01*
X181016Y613599D02*X181516D01*
X181016D02*X180516Y613099D01*
Y612099D02*Y613099D01*
Y612099D02*X181016Y611599D01*
X181516D01*
X182516Y612599D02*X181516Y611599D01*
X115016Y781399D02*Y782699D01*
X114316Y783399D02*X115016Y782699D01*
X111716Y783399D02*X114316D01*
X111716D02*X111016Y782699D01*
Y781399D02*Y782699D01*
Y780199D02*X115016D01*
Y778199D02*Y780199D01*
X111016Y775999D02*Y776999D01*
Y776499D02*X115016D01*
Y775999D02*Y776999D01*
X111016Y774299D02*X115016D01*
X111016Y772799D02*Y774799D01*
Y772799D02*X111516Y772299D01*
X112516D01*
X113016Y772799D02*X112516Y772299D01*
X113016Y772799D02*Y774299D01*
Y770099D02*X113516D01*
X114516D02*X115016D01*
X111516Y771099D02*X112016D01*
X111516D02*X111016Y770599D01*
Y769599D02*Y770599D01*
Y769599D02*X111516Y769099D01*
X112016D01*
X113016Y770099D02*X112016Y769099D01*
X314410Y534390D02*Y538390D01*
X316410D01*
X318110Y534390D02*Y538390D01*
X317610Y534390D02*X319610D01*
X320110Y534890D01*
Y535890D01*
X319610Y536390D02*X320110Y535890D01*
X318110Y536390D02*X319610D01*
X321310Y534390D02*X322310D01*
X321810D02*Y538390D01*
X321310D02*X322310D01*
X324010Y534390D02*Y538390D01*
X323510Y534390D02*X325510D01*
X326010Y534890D01*
Y535890D01*
X325510Y536390D02*X326010Y535890D01*
X324010Y536390D02*X325510D01*
X327210Y536190D02*X328710D01*
X327210Y538390D02*X329210D01*
X327210Y534390D02*Y538390D01*
Y534390D02*X329210D01*
X330410Y537890D02*X330910Y538390D01*
X330410Y537090D02*Y537890D01*
Y537090D02*X331110Y536390D01*
X331710D01*
X332410Y537090D01*
Y537890D01*
X331910Y538390D02*X332410Y537890D01*
X330910Y538390D02*X331910D01*
X330410Y535690D02*X331110Y536390D01*
X330410Y534890D02*Y535690D01*
Y534890D02*X330910Y534390D01*
X331910D01*
X332410Y534890D01*
Y535690D01*
X331710Y536390D02*X332410Y535690D01*
X333610Y537890D02*X334110Y538390D01*
X333610Y534890D02*Y537890D01*
Y534890D02*X334110Y534390D01*
X335110D01*
X335610Y534890D01*
Y537890D01*
X335110Y538390D02*X335610Y537890D01*
X334110Y538390D02*X335110D01*
X333610Y537390D02*X335610Y535390D01*
X336810Y537890D02*X337310Y538390D01*
X336810Y534890D02*Y537890D01*
Y534890D02*X337310Y534390D01*
X338310D01*
X338810Y534890D01*
Y537890D01*
X338310Y538390D02*X338810Y537890D01*
X337310Y538390D02*X338310D01*
X336810Y537390D02*X338810Y535390D01*
X341610Y534590D02*Y538590D01*
X343610D01*
X345310Y534590D02*Y538590D01*
X344810Y534590D02*X346810D01*
X347310Y535090D01*
Y536090D01*
X346810Y536590D02*X347310Y536090D01*
X345310Y536590D02*X346810D01*
X348510Y534590D02*X349510D01*
X349010D02*Y538590D01*
X348510D02*X349510D01*
X351210Y534590D02*Y538590D01*
X350710Y534590D02*X352710D01*
X353210Y535090D01*
Y536090D01*
X352710Y536590D02*X353210Y536090D01*
X351210Y536590D02*X352710D01*
X354410Y536390D02*X355910D01*
X354410Y538590D02*X356410D01*
X354410Y534590D02*Y538590D01*
Y534590D02*X356410D01*
X357610Y538090D02*X358110Y538590D01*
X357610Y537290D02*Y538090D01*
Y537290D02*X358310Y536590D01*
X358910D01*
X359610Y537290D01*
Y538090D01*
X359110Y538590D02*X359610Y538090D01*
X358110Y538590D02*X359110D01*
X357610Y535890D02*X358310Y536590D01*
X357610Y535090D02*Y535890D01*
Y535090D02*X358110Y534590D01*
X359110D01*
X359610Y535090D01*
Y535890D01*
X358910Y536590D02*X359610Y535890D01*
X360810Y538090D02*X361310Y538590D01*
X360810Y535090D02*Y538090D01*
Y535090D02*X361310Y534590D01*
X362310D01*
X362810Y535090D01*
Y538090D01*
X362310Y538590D02*X362810Y538090D01*
X361310Y538590D02*X362310D01*
X360810Y537590D02*X362810Y535590D01*
X364010Y535390D02*X364810Y534590D01*
Y538590D01*
X364010D02*X365510D01*
X225510Y574640D02*X226810D01*
X224810Y573940D02*X225510Y574640D01*
X224810Y571340D02*Y573940D01*
Y571340D02*X225510Y570640D01*
X226810D01*
X228010Y571140D02*Y574140D01*
Y571140D02*X228510Y570640D01*
X229510D01*
X230010Y571140D01*
Y574140D01*
X229510Y574640D02*X230010Y574140D01*
X228510Y574640D02*X229510D01*
X228010Y574140D02*X228510Y574640D01*
X231210Y570640D02*Y574640D01*
Y570640D02*X233710Y574640D01*
Y570640D02*Y574640D01*
X234910Y570640D02*Y574640D01*
Y570640D02*X237410Y574640D01*
Y570640D02*Y574640D01*
X239110D02*X241110Y570640D01*
X238610D02*X241110D01*
X242310Y574140D02*X242810Y574640D01*
X242310Y571140D02*Y574140D01*
Y571140D02*X242810Y570640D01*
X243810D01*
X244310Y571140D01*
Y574140D01*
X243810Y574640D02*X244310Y574140D01*
X242810Y574640D02*X243810D01*
X242310Y573640D02*X244310Y571640D01*
X247010Y570640D02*X247510Y571140D01*
X246010Y570640D02*X247010D01*
X245510Y571140D02*X246010Y570640D01*
X245510Y571140D02*Y574140D01*
X246010Y574640D01*
X247010Y572440D02*X247510Y572940D01*
X245510Y572440D02*X247010D01*
X246010Y574640D02*X247010D01*
X247510Y574140D01*
Y572940D02*Y574140D01*
X411354Y621673D02*X412654D01*
X410654Y620973D02*X411354Y621673D01*
X410654Y618373D02*Y620973D01*
Y618373D02*X411354Y617673D01*
X412654D01*
X413854Y618173D02*Y621173D01*
Y618173D02*X414354Y617673D01*
X415354D01*
X415854Y618173D01*
Y621173D01*
X415354Y621673D02*X415854Y621173D01*
X414354Y621673D02*X415354D01*
X413854Y621173D02*X414354Y621673D01*
X417054Y617673D02*Y621673D01*
Y617673D02*X419554Y621673D01*
Y617673D02*Y621673D01*
X420754Y617673D02*Y621673D01*
Y617673D02*X423254Y621673D01*
Y617673D02*Y621673D01*
X424454Y618473D02*X425254Y617673D01*
Y621673D01*
X424454D02*X425954D01*
X427154Y620173D02*X429154Y617673D01*
X427154Y620173D02*X429654D01*
X429154Y617673D02*Y621673D01*
X430854Y621173D02*X431354Y621673D01*
X430854Y618173D02*Y621173D01*
Y618173D02*X431354Y617673D01*
X432354D01*
X432854Y618173D01*
Y621173D01*
X432354Y621673D02*X432854Y621173D01*
X431354Y621673D02*X432354D01*
X430854Y620673D02*X432854Y618673D01*
X434054Y618473D02*X434854Y617673D01*
Y621673D01*
X434054D02*X435554D01*
X399918Y671955D02*X401218D01*
X399218Y671255D02*X399918Y671955D01*
X399218Y668655D02*Y671255D01*
Y668655D02*X399918Y667955D01*
X401218D01*
X402418D02*Y671955D01*
X404418D01*
X405618Y667955D02*X406618D01*
X406118D02*Y671955D01*
X405618D02*X406618D01*
X408318Y667955D02*Y671955D01*
X407818Y667955D02*X409818D01*
X410318Y668455D01*
Y669455D01*
X409818Y669955D02*X410318Y669455D01*
X408318Y669955D02*X409818D01*
X412518D02*Y670455D01*
Y671455D02*Y671955D01*
X411518Y668455D02*Y668955D01*
Y668455D02*X412018Y667955D01*
X413018D01*
X413518Y668455D01*
Y668955D01*
X412518Y669955D02*X413518Y668955D01*
X241984Y678301D02*Y679601D01*
X242684Y677601D02*X241984Y678301D01*
X242684Y677601D02*X245284D01*
X245984Y678301D01*
Y679601D01*
X241984Y680801D02*X245984D01*
X241984D02*Y682801D01*
X245984Y684001D02*Y685001D01*
X241984Y684501D02*X245984D01*
X241984Y684001D02*Y685001D01*
Y686701D02*X245984D01*
Y686201D02*Y688201D01*
X245484Y688701D01*
X244484D02*X245484D01*
X243984Y688201D02*X244484Y688701D01*
X243984Y686701D02*Y688201D01*
X243484Y690901D02*X243984D01*
X241984D02*X242484D01*
X244984Y689901D02*X245484D01*
X245984Y690401D01*
Y691401D01*
X245484Y691901D01*
X244984D02*X245484D01*
X243984Y690901D02*X244984Y691901D01*
X347473Y720512D02*Y721812D01*
X348173Y719812D02*X347473Y720512D01*
X348173Y719812D02*X350773D01*
X351473Y720512D01*
Y721812D01*
X347973Y723012D02*X350973D01*
X351473Y723512D01*
Y724512D01*
X350973Y725012D01*
X347973D02*X350973D01*
X347473Y724512D02*X347973Y725012D01*
X347473Y723512D02*Y724512D01*
X347973Y723012D02*X347473Y723512D01*
Y726212D02*X351473D01*
X347473Y728712D01*
X351473D01*
X347473Y729912D02*X351473D01*
X347473Y732412D01*
X351473D01*
X350973Y733612D02*X351473Y734112D01*
Y735112D01*
X350973Y735612D01*
X347473Y735112D02*X347973Y735612D01*
X347473Y734112D02*Y735112D01*
X347973Y733612D02*X347473Y734112D01*
X349673D02*Y735112D01*
X350173Y735612D02*X350973D01*
X347973D02*X349173D01*
X349673Y735112D01*
X350173Y735612D02*X349673Y735112D01*
X347973Y736812D02*X347473Y737312D01*
X347973Y736812D02*X350973D01*
X351473Y737312D01*
Y738312D01*
X350973Y738812D01*
X347973D02*X350973D01*
X347473Y738312D02*X347973Y738812D01*
X347473Y737312D02*Y738312D01*
X348473Y736812D02*X350473Y738812D01*
X347973Y740012D02*X347473Y740512D01*
X347973Y740012D02*X350973D01*
X351473Y740512D01*
Y741512D01*
X350973Y742012D01*
X347973D02*X350973D01*
X347473Y741512D02*X347973Y742012D01*
X347473Y740512D02*Y741512D01*
X348473Y740012D02*X350473Y742012D01*
M02*
