G04 start of page 9 for group -4062 idx -4062 *
G04 Title: (unknown), soldermask *
G04 Creator: pcb 20110918 *
G04 CreationDate: Thu Jan  9 16:43:57 2014 UTC *
G04 For: fosse *
G04 Format: Gerber/RS-274X *
G04 PCB-Dimensions: 550000 850000 *
G04 PCB-Coordinate-Origin: lower left *
%MOIN*%
%FSLAX25Y25*%
%LNBOTTOMMASK*%
%ADD124R,0.0966X0.0966*%
%ADD123R,0.0435X0.0435*%
%ADD122R,0.0218X0.0218*%
%ADD121R,0.0651X0.0651*%
%ADD120R,0.0454X0.0454*%
%ADD119R,0.0651X0.0651*%
%ADD118R,0.0848X0.0848*%
%ADD117R,0.0927X0.0927*%
%ADD116R,0.0336X0.0336*%
%ADD115R,0.0277X0.0277*%
%ADD114R,0.0336X0.0336*%
%ADD113C,0.0180*%
%ADD112C,0.0400*%
%ADD111R,0.3407X0.3407*%
%ADD110R,0.0297X0.0297*%
%ADD109R,0.0297X0.0297*%
%ADD108C,0.0651*%
%ADD107C,0.1062*%
%ADD106C,0.0554*%
%ADD105C,0.1360*%
%ADD104C,0.2410*%
%ADD103C,0.0604*%
%ADD102C,0.2760*%
G54D102*X186500Y707000D03*
G54D103*X213076Y742206D03*
G54D104*X209350Y673000D03*
X163850D03*
G54D102*X239910Y606240D03*
G54D105*X327110Y552090D03*
X353110D03*
G54D106*X266485Y566444D03*
X213335D03*
G54D107*X379000Y552500D03*
G54D103*X159926Y742206D03*
G54D108*X430327Y626256D03*
X412610D03*
G54D104*X262410Y639240D03*
X216910D03*
G54D109*X217862Y585696D02*Y581640D01*
X221012Y585696D02*Y581640D01*
X224161Y585696D02*Y581640D01*
X227311Y585696D02*Y581640D01*
X230460Y585696D02*Y581640D01*
G54D110*X233611Y585696D02*Y581641D01*
G54D111*X181561Y621054D02*Y613179D01*
G54D112*X203990Y587840D02*X208090Y591940D01*
G54D109*X261957Y585696D02*Y581640D01*
X258807Y585696D02*Y581640D01*
X255657Y585696D02*Y581640D01*
X252508Y585696D02*Y581640D01*
G54D110*X249359Y585696D02*Y581641D01*
G54D109*X261957Y566601D02*Y562546D01*
X258807Y566601D02*Y562546D01*
X255657Y566601D02*Y562546D01*
X252508Y566601D02*Y562546D01*
G54D110*X249359Y566601D02*Y562547D01*
G54D111*X244439Y688821D02*Y680946D01*
G54D109*X236760Y585696D02*Y581640D01*
X239909Y585696D02*Y581640D01*
X243059Y585696D02*Y581640D01*
X246208Y585696D02*Y581640D01*
X243059Y566601D02*Y562546D01*
X246208Y566601D02*Y562546D01*
G54D112*X208090Y591940D02*X270890D01*
X274990Y587840D01*
Y561040D01*
X270890Y556940D02*X274990Y561040D01*
G54D109*X227311Y566601D02*Y562546D01*
X230460Y566601D02*Y562546D01*
G54D110*X233611Y566601D02*Y562547D01*
G54D109*X236760Y566601D02*Y562546D01*
G54D112*X203990Y562040D02*X209090Y556940D01*
G54D109*X217862Y566601D02*Y562546D01*
X221012Y566601D02*Y562546D01*
X224161Y566601D02*Y562546D01*
X239909Y566601D02*Y562546D01*
G54D112*X203990Y587840D02*Y562040D01*
X209090Y556940D02*X270890D01*
G54D113*X322000Y663100D02*X322500Y663600D01*
X320500Y663100D02*X322000D01*
X320000Y663600D02*X320500Y663100D01*
X320000Y664600D02*Y663600D01*
Y664600D02*X320500Y665100D01*
X322000D01*
X322500Y665600D01*
Y666600D02*Y665600D01*
X322000Y667100D02*X322500Y666600D01*
X320500Y667100D02*X322000D01*
X320000Y666600D02*X320500Y667100D01*
X318300Y663100D02*X318800Y663600D01*
X316800Y663100D02*X318300D01*
X316300Y663600D02*X316800Y663100D01*
X314600D02*X315100Y663600D01*
X316300Y664600D02*X316800Y665100D01*
X318300D01*
X318800Y665600D01*
X316300Y664600D02*Y663600D01*
X315100Y666600D02*Y663600D01*
X313100D02*X313600Y663100D01*
X314600D01*
X318800Y666600D02*Y665600D01*
X318300Y667100D02*X318800Y666600D01*
X316800Y667100D02*X318300D01*
X316300Y666600D02*X316800Y667100D01*
X314600D02*X315100Y666600D01*
X313600Y667100D02*X314600D01*
X313100Y666600D02*X313600Y667100D01*
X313100Y666600D02*Y663600D01*
X309900Y663100D02*X311900D01*
X309900Y664900D02*X311400D01*
X309900Y667100D02*Y663100D01*
X304400D02*X306900Y667100D01*
Y663100D01*
X304400Y667100D02*Y663100D01*
X303200Y667100D02*Y664100D01*
X302500Y663100D02*X303200Y664100D01*
X300700Y667100D02*Y664100D01*
X301400Y663100D01*
X302500D01*
X300700Y665100D02*X303200D01*
X298500Y667100D02*X299500Y663100D01*
X297500D02*X298500Y667100D01*
X294300Y663100D02*X296300D01*
X294300Y667100D02*Y663100D01*
Y667100D02*X296300D01*
X294300Y664900D02*X295800D01*
X294200Y635000D02*X296200D01*
X296700Y635500D01*
Y636500D02*Y635500D01*
X296200Y637000D02*X296700Y636500D01*
X294700Y637000D02*X296200D01*
X297900D02*X300400D01*
X294700Y639000D02*Y635000D01*
X297900Y639000D02*Y635000D01*
X300400Y639000D02*Y635000D01*
X301600D02*X302600D01*
X302100Y639000D02*Y635000D01*
X301600Y639000D02*X302600D01*
X303800D02*Y635000D01*
Y639000D02*X305800D01*
X307000Y635000D02*X308000D01*
X307500Y639000D02*Y635000D01*
X307000Y639000D02*X308000D01*
X309700D02*Y635000D01*
X309200D02*X311200D01*
X311700Y635500D01*
Y636500D02*Y635500D01*
X314700Y639000D02*Y635000D01*
X311200Y637000D02*X311700Y636500D01*
X309700Y637000D02*X311200D01*
X310000Y614000D02*X311000D01*
X312200D02*X314200D01*
X314700Y614500D01*
Y615500D02*Y614500D01*
X314200Y616000D02*X314700Y615500D01*
X312700Y616000D02*X314200D01*
X310500Y618000D02*Y614000D01*
X310000Y618000D02*X311000D01*
X312700D02*Y614000D01*
X303800D02*X305100D01*
X306300Y618000D02*Y614000D01*
X303100Y614700D02*X303800Y614000D01*
X303100Y617300D02*Y614700D01*
Y617300D02*X303800Y618000D01*
X305100D01*
X306300Y616000D02*X308800D01*
Y618000D02*Y614000D01*
X285500D02*X287500D01*
X288000Y614500D01*
X287500Y618000D02*X288000Y617500D01*
X285500Y618000D02*X287500D01*
X286000D02*Y614000D01*
X288000Y615300D02*Y614500D01*
X287500Y615800D02*X288000Y615300D01*
X287500Y615800D02*X288000Y616300D01*
Y617500D02*Y616300D01*
X286000Y615800D02*X287500D01*
X289200Y615100D02*Y615000D01*
Y618000D02*Y616500D01*
X290200Y615500D02*X290700Y616000D01*
X290200Y615500D02*Y614500D01*
X290700Y614000D01*
X290200Y617500D02*X290700Y618000D01*
X292200D01*
X292700Y617500D01*
X290700Y616000D02*X292200D01*
X290700Y614000D02*X292200D01*
X292700Y614500D01*
X293900Y614000D02*X295900D01*
X292700Y617500D02*Y616500D01*
X292200Y616000D02*X292700Y616500D01*
X294900Y618000D02*Y614000D01*
X297100Y618000D02*Y614000D01*
X298600Y616000D01*
X300100Y614000D01*
Y618000D02*Y614000D01*
G54D114*X338812Y700165D02*Y697409D01*
G54D110*X320622Y700755D02*X328300D01*
G54D115*X320524Y709319D02*Y700657D01*
G54D116*X342158Y700164D02*Y697410D01*
G54D114*X345505Y700165D02*Y697409D01*
X349836Y700165D02*Y697409D01*
X354166Y700165D02*Y697409D01*
X358497Y700165D02*Y697409D01*
X362828Y700165D02*Y697409D01*
G54D112*X394900Y691000D02*X400000Y696100D01*
X316600Y691000D02*X394900D01*
G54D113*X314700Y639000D02*X316700D01*
X317900Y638500D02*X318400Y639000D01*
X319400D01*
X319900Y638500D01*
X317900Y635500D02*X318400Y635000D01*
X317900Y638500D02*Y635500D01*
X319900Y638500D02*Y635500D01*
X319400Y635000D02*X319900Y635500D01*
X318400Y635000D02*X319400D01*
X321100D02*X322100D01*
X323300D02*X325800D01*
X327000Y635500D02*X327500Y635000D01*
X321600Y639000D02*Y635000D01*
X323300Y639000D02*X325800Y635000D01*
X321100Y639000D02*X322100D01*
X323300D02*X325800D01*
X327000Y638500D02*X327500Y639000D01*
Y635000D02*X328500D01*
X327000Y638500D02*Y635500D01*
X327500Y639000D02*X328500D01*
X329000Y638500D01*
Y635500D01*
X330200Y638500D02*Y635000D01*
G54D117*X402571Y636689D02*X402965D01*
G54D111*X404063Y669000D02*X411938D01*
G54D112*X397600Y648000D02*X437000D01*
X391500Y641900D02*X397600Y648000D01*
G54D113*X376700Y642000D02*X377200Y642500D01*
X375200Y642000D02*X376700D01*
X374700Y642500D02*X375200Y642000D01*
X374700Y643500D02*Y642500D01*
Y643500D02*X375200Y644000D01*
X376700D01*
X377200Y644500D01*
Y645500D02*Y644500D01*
X374700Y645500D02*X375200Y646000D01*
X376700D02*X377200Y645500D01*
X375200Y646000D02*X376700D01*
G54D118*X423043Y639051D02*X425799D01*
X423043Y607949D02*X425799D01*
G54D117*X400996Y619760D02*X401390D01*
G54D112*X391500Y641900D02*Y604100D01*
G54D117*X411626Y611098D02*X412020D01*
G54D112*X391500Y604100D02*X397100Y598500D01*
X436500D01*
G54D113*X371000Y645500D02*X371500Y646000D01*
X369300D02*X369800Y645500D01*
X368300Y646000D02*X369300D01*
X367800Y645500D02*X368300Y646000D01*
X369300Y642000D02*X369800Y642500D01*
X367800D02*X368300Y642000D01*
X369300D01*
X364600D02*X366600D01*
X364600Y646000D02*Y642000D01*
Y643800D02*X366100D01*
X359100Y642000D02*X361600Y646000D01*
Y642000D01*
X359100Y646000D02*Y642000D01*
X357900Y646000D02*Y643000D01*
X357200Y642000D02*X357900Y643000D01*
X356100Y642000D02*X357200D01*
X355400Y644000D02*X357900D01*
X355400Y646000D02*Y643000D01*
X356100Y642000D01*
X353200Y646000D02*X354200Y642000D01*
X352200D02*X353200Y646000D01*
X349000Y642000D02*X351000D01*
X349000Y646000D02*Y642000D01*
Y646000D02*X351000D01*
X349000Y643800D02*X350500D01*
X344400Y660100D02*X346200D01*
X346900Y659400D01*
Y656800D01*
X346200Y656100D02*X346900Y656800D01*
X344400Y656100D02*X346200D01*
X344900Y660100D02*Y656100D01*
X348100Y659600D02*X348600Y660100D01*
X350100D01*
X350600Y659600D01*
Y658600D01*
X350100Y658100D02*X350600Y658600D01*
X348600Y658100D02*X350100D01*
X348100Y657600D02*X348600Y658100D01*
X348100Y657600D02*Y656600D01*
X348600Y656100D01*
X350100D01*
X350600Y656600D01*
X351800Y656100D02*X353800D01*
X354300Y656600D01*
Y657600D02*Y656600D01*
X353800Y658100D02*X354300Y657600D01*
X352300Y658100D02*X353800D01*
X352300Y660100D02*Y656100D01*
X328500Y635000D02*X329000Y635500D01*
X337600Y635000D02*X338100Y635500D01*
X336100Y635000D02*X337600D01*
X335600Y635500D02*X336100Y635000D01*
X330200Y638500D02*X330700Y639000D01*
X331700D01*
X332200Y638500D01*
Y635000D01*
X333400Y636000D02*X334400Y635000D01*
X335600Y636500D02*Y635500D01*
Y636500D02*X336100Y637000D01*
X337600D01*
X338100Y637500D01*
Y638500D02*Y637500D01*
X337600Y639000D02*X338100Y638500D01*
X336100Y639000D02*X337600D01*
X335600Y638500D02*X336100Y639000D01*
X342100Y637000D02*X343100D01*
X343600Y637500D01*
Y638500D02*Y637500D01*
X343100Y639000D02*X343600Y638500D01*
X341600Y639000D02*X343100D01*
X341100Y638500D02*X341600Y639000D01*
X341100Y638500D02*Y635500D01*
X341600Y635000D01*
X343100D01*
X343600Y635500D01*
X344800Y635000D02*X346800D01*
X347300Y635500D01*
X348000Y628000D02*X349000D01*
X343800D02*X345800D01*
X346300Y628500D01*
X351400Y628000D02*X352700D01*
X350700Y628700D02*X351400Y628000D01*
X347500Y628500D02*X348000Y628000D01*
X346300Y629500D02*Y628500D01*
X345800Y630000D02*X346300Y629500D01*
X344300Y630000D02*X345800D01*
X344300Y632000D02*Y628000D01*
X345100Y630000D02*X346300Y632000D01*
X347500Y631500D02*Y628500D01*
X349500Y631500D02*Y628500D01*
X349000Y628000D02*X349500Y628500D01*
X350700Y631300D02*Y628700D01*
X347500Y631500D02*X348000Y632000D01*
X349000D01*
X349500Y631500D01*
X350700Y631300D02*X351400Y632000D01*
X352700D01*
X349000Y635000D02*X350000D01*
X348500Y635500D02*X349000Y635000D01*
X350000Y639000D02*X350500Y638500D01*
X351700D02*X352200Y639000D01*
X353200D01*
X353700Y638500D01*
X350500D02*Y635500D01*
X351700Y638500D02*Y635000D01*
X353700Y638500D02*Y635000D01*
X350000D02*X350500Y635500D01*
X348500Y638500D02*Y635500D01*
Y638500D02*X349000Y639000D01*
X350000D01*
X347300Y636500D02*Y635500D01*
X346800Y637000D02*X347300Y636500D01*
X345300Y637000D02*X346800D01*
X345300Y639000D02*Y635000D01*
X346100Y637000D02*X347300Y639000D01*
X340100Y628000D02*X342100D01*
X342600Y628500D01*
Y629500D02*Y628500D01*
X342100Y630000D02*X342600Y629500D01*
X340600Y630000D02*X342100D01*
X340600Y632000D02*Y628000D01*
X354900Y635000D02*X356900D01*
X357400Y635500D01*
Y636500D02*Y635500D01*
X356900Y637000D02*X357400Y636500D01*
X355400Y637000D02*X356900D01*
X355400Y639000D02*Y635000D01*
X353900Y628000D02*X355900D01*
X353900Y632000D02*Y628000D01*
Y629800D02*X355400D01*
X353900Y632000D02*X355900D01*
X357600Y630000D02*X359100D01*
X357100Y629500D02*X357600Y630000D01*
X357100Y629500D02*Y628500D01*
X357600Y628000D01*
X359100D01*
X357100Y631500D02*X357600Y632000D01*
X359100D01*
X359600Y631500D01*
Y630500D01*
X359100Y630000D02*X359600Y630500D01*
X359100Y628000D02*X359600Y628500D01*
X360800Y631500D02*X361300Y632000D01*
X362800D01*
X363300Y631500D01*
Y630500D01*
X362800Y630000D02*X363300Y630500D01*
X361300Y630000D02*X362800D01*
X360800Y629500D02*X361300Y630000D01*
X360800Y629500D02*Y628500D01*
X361300Y628000D01*
X362800D01*
X363300Y628500D01*
X373000Y642000D02*X373500Y642500D01*
X371500Y642000D02*X373000D01*
X371000Y642500D02*X371500Y642000D01*
X371000Y643500D02*Y642500D01*
Y643500D02*X371500Y644000D01*
X373000D01*
X373500Y644500D01*
X369800Y645500D02*Y642500D01*
X367800Y645500D02*Y642500D01*
X373500Y645500D02*Y644500D01*
X373000Y646000D02*X373500Y645500D01*
X371500Y646000D02*X373000D01*
X365000Y628000D02*X366000D01*
X364500Y628500D02*X365000Y628000D01*
X364500Y631500D02*Y628500D01*
Y631500D02*X365000Y632000D01*
X366000D01*
X366500Y631500D01*
Y628500D01*
X366000Y628000D02*X366500Y628500D01*
X367700Y628000D02*X369700D01*
X370200Y628500D01*
Y629500D02*Y628500D01*
X369700Y630000D02*X370200Y629500D01*
X368200Y630000D02*X369700D01*
X368200Y632000D02*Y628000D01*
X369000Y630000D02*X370200Y632000D01*
X370100Y616000D02*X371100D01*
X371600Y616500D01*
Y617500D02*Y616500D01*
X371100Y618000D02*X371600Y617500D01*
X369600Y618000D02*X371100D01*
X369100Y617500D02*X369600Y618000D01*
X371100Y614000D02*X371600Y614500D01*
X369100Y617500D02*Y614500D01*
X369600Y614000D01*
X371100D01*
X367900Y618000D02*Y614000D01*
X365400D02*X367900Y618000D01*
X365400D02*Y614000D01*
X362700D02*X363700D01*
X364200Y614500D01*
Y617500D02*Y614500D01*
X363700Y618000D02*X364200Y617500D01*
X362700Y618000D02*X363700D01*
X362200Y617500D02*X362700Y618000D01*
X362200Y617500D02*Y614500D01*
X362700Y614000D01*
X358500Y617500D02*X359000Y618000D01*
X360500D01*
X361000Y617500D01*
Y616500D01*
X360500Y616000D02*X361000Y616500D01*
X359000Y616000D02*X360500D01*
X358500Y615500D02*X359000Y616000D01*
X358500Y615500D02*Y614500D01*
X359000Y614000D01*
X360500D01*
X361000Y614500D01*
X381500D02*X382000Y614000D01*
X381500Y617500D02*Y614500D01*
X383000Y614000D02*X383500Y614500D01*
X382000Y614000D02*X383000D01*
X381500Y617500D02*X382000Y618000D01*
X383000D01*
X383500Y617500D01*
Y614500D01*
X380300Y617500D02*Y614000D01*
X379800Y618000D02*X380300Y617500D01*
X378800Y618000D02*X379800D01*
X378300Y617500D02*X378800Y618000D01*
X378300Y617500D02*Y614000D01*
X375100Y618000D02*X376600D01*
X377100Y617500D01*
Y616500D01*
X376600Y616000D02*X377100Y616500D01*
X375600Y616000D02*X376600D01*
Y614000D02*X377100Y614500D01*
X375100Y614000D02*X376600D01*
X374600Y614500D02*X375100Y614000D01*
X374600Y617500D02*Y614500D01*
Y617500D02*X375100Y618000D01*
G54D119*X318654Y764162D02*Y761012D01*
G54D112*X322500Y805000D02*Y776500D01*
X316600D02*X322500D01*
X311000Y770900D02*X316600Y776500D01*
X311000Y696600D02*X316600Y691000D01*
X311000Y770900D02*Y696600D01*
G54D120*X392100Y729890D02*X392847D01*
X392100Y734890D02*X392847D01*
X392100Y739890D02*X392847D01*
X392100Y744890D02*X392847D01*
X392100Y749890D02*X392847D01*
X392100Y754890D02*X392847D01*
G54D116*X367158Y700164D02*Y697410D01*
G54D114*X371489Y700165D02*Y697409D01*
X375820Y700165D02*Y697409D01*
G54D110*X381252Y700755D02*X389126D01*
G54D121*X391883Y764162D02*Y761012D01*
G54D112*X400000Y771900D02*Y696100D01*
X394900Y777000D02*X400000Y771900D01*
X390000Y804000D02*Y777100D01*
X390100Y777000D01*
X394900D01*
G54D109*X208548Y761458D02*Y757402D01*
X205398Y761458D02*Y757402D01*
X202248Y761458D02*Y757402D01*
G54D112*X217491Y767742D02*X221591Y763642D01*
G54D109*X164453Y761458D02*Y757402D01*
X167603Y761458D02*Y757402D01*
X170752Y761458D02*Y757402D01*
X173902Y761458D02*Y757402D01*
X177051Y761458D02*Y757402D01*
G54D110*X180202Y761458D02*Y757403D01*
G54D109*X164453Y742363D02*Y738308D01*
X167603Y742363D02*Y738308D01*
X170752Y742363D02*Y738308D01*
X173902Y742363D02*Y738308D01*
X177051Y742363D02*Y738308D01*
G54D110*X180202Y742363D02*Y738309D01*
G54D109*X183351Y761458D02*Y757402D01*
X186500Y761458D02*Y757402D01*
X189650Y761458D02*Y757402D01*
X192799Y761458D02*Y757402D01*
X202248Y742363D02*Y738308D01*
X199099Y742363D02*Y738308D01*
G54D110*X195950Y742363D02*Y738309D01*
G54D109*X183351Y742363D02*Y738308D01*
G54D112*X150591Y763642D02*Y737842D01*
G54D109*X186500Y742363D02*Y738308D01*
X189650Y742363D02*Y738308D01*
X192799Y742363D02*Y738308D01*
X199099Y761458D02*Y757402D01*
G54D110*X195950Y761458D02*Y757403D01*
G54D112*X154691Y767742D02*X217491D01*
X150591Y763642D02*X154691Y767742D01*
X155691Y732742D02*X217491D01*
X150591Y737842D02*X155691Y732742D01*
X234450Y733250D02*X292250D01*
X233500Y759300D02*X292800D01*
X296400Y755700D01*
Y737400D01*
X292250Y733250D02*X296400Y737400D01*
G54D109*X208548Y742363D02*Y738308D01*
X205398Y742363D02*Y738308D01*
G54D112*X221591Y763642D02*Y736842D01*
X217491Y732742D02*X221591Y736842D01*
X229900Y737800D02*X234450Y733250D01*
X229900Y755700D02*Y737800D01*
Y755700D02*X233500Y759300D01*
G54D122*X72545Y717351D02*X74513D01*
X72545Y719319D02*X74513D01*
X72545Y721288D02*X74513D01*
X72545Y723256D02*X74513D01*
X72545Y725225D02*X74513D01*
X72545Y727193D02*X74513D01*
G54D112*X79500Y758350D02*Y692050D01*
X73900Y686450D02*X79500Y692050D01*
G54D122*X72545Y705540D02*X74513D01*
X72545Y707508D02*X74513D01*
X72545Y709477D02*X74513D01*
X72545Y711445D02*X74513D01*
X72545Y713414D02*X74513D01*
X72545Y715382D02*X74513D01*
G54D114*X65497Y705737D02*Y704949D01*
G54D123*X61619Y702095D02*Y700323D01*
G54D124*X67622Y699437D02*Y695500D01*
G54D112*X41500Y686450D02*X73900D01*
G54D122*X72545Y729162D02*X74513D01*
X72545Y731130D02*X74513D01*
X72545Y733099D02*X74513D01*
G54D114*X65497Y743532D02*Y742744D01*
G54D122*X72545Y735067D02*X74513D01*
X72545Y737036D02*X74513D01*
X72545Y742941D02*X74513D01*
X72545Y740973D02*X74513D01*
X72545Y739004D02*X74513D01*
G54D124*X67623Y752980D02*Y749043D01*
G54D123*X61619Y748158D02*Y746386D01*
G54D111*X112061Y778554D02*Y770679D01*
G54D112*X42500Y763950D02*X73900D01*
X74100Y763750D02*X79500Y758350D01*
X73900Y763950D02*X79500Y758350D01*
Y685800D02*Y640300D01*
X47500Y685800D02*X79500D01*
X47500Y640300D02*X79500D01*
X47500Y685800D02*Y640300D01*
X115500Y568500D02*Y523000D01*
X83500D02*X115500D01*
X83500Y568500D02*Y523000D01*
X79500Y609000D02*Y563500D01*
X47500D02*X79500D01*
X47500Y609000D02*Y563500D01*
Y609000D02*X79500D01*
X83500Y568500D02*X115500D01*
M02*
