G04 start of page 12 for group -3984 idx -3984 *
G04 Title: (unknown), fab *
G04 Creator: pcb 20110918 *
G04 CreationDate: Tue Jan 14 22:18:45 2014 UTC *
G04 For: fosse *
G04 Format: Gerber/RS-274X *
G04 PCB-Dimensions: 550000 450000 *
G04 PCB-Coordinate-Origin: lower left *
%MOIN*%
%FSLAX25Y25*%
%LNFAB*%
%ADD143C,0.0100*%
%ADD142C,0.0075*%
%ADD141C,0.0060*%
%ADD140R,0.0080X0.0080*%
%ADD139C,0.0001*%
G54D139*G36*
X260010Y242206D02*X265376Y236840D01*
X264810Y236274D01*
X259444Y241640D01*
X260010Y242206D01*
G37*
G36*
X259444Y236840D02*X264810Y242206D01*
X265376Y241640D01*
X260010Y236274D01*
X259444Y236840D01*
G37*
G54D140*X260810Y240840D02*X264010D01*
X260810D02*Y237640D01*
X264010D01*
Y240840D02*Y237640D01*
G54D139*G36*
X214510Y242206D02*X219876Y236840D01*
X219310Y236274D01*
X213944Y241640D01*
X214510Y242206D01*
G37*
G36*
X213944Y236840D02*X219310Y242206D01*
X219876Y241640D01*
X214510Y236274D01*
X213944Y236840D01*
G37*
G54D140*X215310Y240840D02*X218510D01*
X215310D02*Y237640D01*
X218510D01*
Y240840D02*Y237640D01*
G54D139*G36*
X206950Y275966D02*X212316Y270600D01*
X211750Y270034D01*
X206384Y275400D01*
X206950Y275966D01*
G37*
G36*
X206384Y270600D02*X211750Y275966D01*
X212316Y275400D01*
X206950Y270034D01*
X206384Y270600D01*
G37*
G54D140*X207750Y274600D02*X210950D01*
X207750D02*Y271400D01*
X210950D01*
Y274600D02*Y271400D01*
G54D139*G36*
X161450Y275966D02*X166816Y270600D01*
X166250Y270034D01*
X160884Y275400D01*
X161450Y275966D01*
G37*
G36*
X160884Y270600D02*X166250Y275966D01*
X166816Y275400D01*
X161450Y270034D01*
X160884Y270600D01*
G37*
G54D140*X162250Y274600D02*X165450D01*
X162250D02*Y271400D01*
X165450D01*
Y274600D02*Y271400D01*
G54D139*G36*
X12600Y464216D02*X17966Y458850D01*
X17400Y458284D01*
X12034Y463650D01*
X12600Y464216D01*
G37*
G36*
X12034Y458850D02*X17400Y464216D01*
X17966Y463650D01*
X12600Y458284D01*
X12034Y458850D01*
G37*
G54D140*X13400Y462850D02*X16600D01*
X13400D02*Y459650D01*
X16600D01*
Y462850D02*Y459650D01*
G54D141*X135000Y463500D02*X136500Y460500D01*
X138000Y463500D01*
X136500Y460500D02*Y457500D01*
X139800Y460800D02*X142050D01*
X139800Y457500D02*X142800D01*
X139800Y463500D02*Y457500D01*
Y463500D02*X142800D01*
X147600D02*X148350Y462750D01*
X145350Y463500D02*X147600D01*
X144600Y462750D02*X145350Y463500D01*
X144600Y462750D02*Y461250D01*
X145350Y460500D01*
X147600D01*
X148350Y459750D01*
Y458250D01*
X147600Y457500D02*X148350Y458250D01*
X145350Y457500D02*X147600D01*
X144600Y458250D02*X145350Y457500D01*
X98000Y459750D02*X101000Y463500D01*
X98000Y459750D02*X101750D01*
X101000Y463500D02*Y457500D01*
X45000Y458250D02*X45750Y457500D01*
X45000Y462750D02*Y458250D01*
Y462750D02*X45750Y463500D01*
X47250D01*
X48000Y462750D01*
Y458250D01*
X47250Y457500D02*X48000Y458250D01*
X45750Y457500D02*X47250D01*
X45000Y459000D02*X48000Y462000D01*
X49800Y457500D02*X50550D01*
X52350Y462750D02*X53100Y463500D01*
X55350D01*
X56100Y462750D01*
Y461250D01*
X52350Y457500D02*X56100Y461250D01*
X52350Y457500D02*X56100D01*
X57900Y462300D02*X59100Y463500D01*
Y457500D01*
X57900D02*X60150D01*
X61950Y458250D02*X62700Y457500D01*
X61950Y462750D02*Y458250D01*
Y462750D02*X62700Y463500D01*
X64200D01*
X64950Y462750D01*
Y458250D01*
X64200Y457500D02*X64950Y458250D01*
X62700Y457500D02*X64200D01*
X61950Y459000D02*X64950Y462000D01*
X239910Y209440D02*Y203040D01*
X236710Y206240D02*X243110D01*
X238310Y207840D02*X241510D01*
X238310D02*Y204640D01*
X241510D01*
Y207840D02*Y204640D01*
X186500Y310200D02*Y303800D01*
X183300Y307000D02*X189700D01*
X184900Y308600D02*X188100D01*
X184900D02*Y305400D01*
X188100D01*
Y308600D02*Y305400D01*
X15000Y479450D02*Y473050D01*
X11800Y476250D02*X18200D01*
X13400Y477850D02*X16600D01*
X13400D02*Y474650D01*
X16600D01*
Y477850D02*Y474650D01*
X135000Y478500D02*X136500Y475500D01*
X138000Y478500D01*
X136500Y475500D02*Y472500D01*
X139800Y475800D02*X142050D01*
X139800Y472500D02*X142800D01*
X139800Y478500D02*Y472500D01*
Y478500D02*X142800D01*
X147600D02*X148350Y477750D01*
X145350Y478500D02*X147600D01*
X144600Y477750D02*X145350Y478500D01*
X144600Y477750D02*Y476250D01*
X145350Y475500D01*
X147600D01*
X148350Y474750D01*
Y473250D01*
X147600Y472500D02*X148350Y473250D01*
X145350Y472500D02*X147600D01*
X144600Y473250D02*X145350Y472500D01*
X98000Y477750D02*X98750Y478500D01*
X101000D01*
X101750Y477750D01*
Y476250D01*
X98000Y472500D02*X101750Y476250D01*
X98000Y472500D02*X101750D01*
X45000Y473250D02*X45750Y472500D01*
X45000Y477750D02*Y473250D01*
Y477750D02*X45750Y478500D01*
X47250D01*
X48000Y477750D01*
Y473250D01*
X47250Y472500D02*X48000Y473250D01*
X45750Y472500D02*X47250D01*
X45000Y474000D02*X48000Y477000D01*
X49800Y472500D02*X50550D01*
X52350Y477300D02*X53550Y478500D01*
Y472500D01*
X52350D02*X54600D01*
X56400Y477300D02*X57600Y478500D01*
Y472500D01*
X56400D02*X58650D01*
X62700Y478500D02*X63450Y477750D01*
X61200Y478500D02*X62700D01*
X60450Y477750D02*X61200Y478500D01*
X60450Y477750D02*Y473250D01*
X61200Y472500D01*
X62700Y475800D02*X63450Y475050D01*
X60450Y475800D02*X62700D01*
X61200Y472500D02*X62700D01*
X63450Y473250D01*
Y475050D02*Y473250D01*
X327110Y152090D02*Y148890D01*
Y152090D02*X329883Y153690D01*
X327110Y152090D02*X324337Y153690D01*
X325510Y152090D02*G75*G03X328710Y152090I1600J0D01*G01*
G75*G03X325510Y152090I-1600J0D01*G01*
X353110D02*Y148890D01*
Y152090D02*X355883Y153690D01*
X353110Y152090D02*X350337Y153690D01*
X351510Y152090D02*G75*G03X354710Y152090I1600J0D01*G01*
G75*G03X351510Y152090I-1600J0D01*G01*
X15000Y491250D02*Y488050D01*
Y491250D02*X17773Y492850D01*
X15000Y491250D02*X12227Y492850D01*
X13400Y491250D02*G75*G03X16600Y491250I1600J0D01*G01*
G75*G03X13400Y491250I-1600J0D01*G01*
X135000Y493500D02*X136500Y490500D01*
X138000Y493500D01*
X136500Y490500D02*Y487500D01*
X139800Y490800D02*X142050D01*
X139800Y487500D02*X142800D01*
X139800Y493500D02*Y487500D01*
Y493500D02*X142800D01*
X147600D02*X148350Y492750D01*
X145350Y493500D02*X147600D01*
X144600Y492750D02*X145350Y493500D01*
X144600Y492750D02*Y491250D01*
X145350Y490500D01*
X147600D01*
X148350Y489750D01*
Y488250D01*
X147600Y487500D02*X148350Y488250D01*
X145350Y487500D02*X147600D01*
X144600Y488250D02*X145350Y487500D01*
X98000Y492750D02*X98750Y493500D01*
X101000D01*
X101750Y492750D01*
Y491250D01*
X98000Y487500D02*X101750Y491250D01*
X98000Y487500D02*X101750D01*
X45000Y488250D02*X45750Y487500D01*
X45000Y492750D02*Y488250D01*
Y492750D02*X45750Y493500D01*
X47250D01*
X48000Y492750D01*
Y488250D01*
X47250Y487500D02*X48000Y488250D01*
X45750Y487500D02*X47250D01*
X45000Y489000D02*X48000Y492000D01*
X49800Y487500D02*X50550D01*
X52350Y492300D02*X53550Y493500D01*
Y487500D01*
X52350D02*X54600D01*
X56400Y492300D02*X57600Y493500D01*
Y487500D01*
X56400D02*X58650D01*
X60450Y493500D02*X63450D01*
X60450D02*Y490500D01*
X61200Y491250D01*
X62700D01*
X63450Y490500D01*
Y488250D01*
X62700Y487500D02*X63450Y488250D01*
X61200Y487500D02*X62700D01*
X60450Y488250D02*X61200Y487500D01*
X58000Y389900D02*X61200D01*
X58000D02*Y386700D01*
X61200D01*
Y389900D02*Y386700D01*
X418000Y389900D02*X421200D01*
X418000D02*Y386700D01*
X421200D01*
Y389900D02*Y386700D01*
X58000Y139900D02*X61200D01*
X58000D02*Y136700D01*
X61200D01*
Y139900D02*Y136700D01*
X418000Y139900D02*X421200D01*
X418000D02*Y136700D01*
X421200D01*
Y139900D02*Y136700D01*
X13400Y507850D02*X16600D01*
X13400D02*Y504650D01*
X16600D01*
Y507850D02*Y504650D01*
X135000Y508500D02*X136500Y505500D01*
X138000Y508500D01*
X136500Y505500D02*Y502500D01*
X139800Y505800D02*X142050D01*
X139800Y502500D02*X142800D01*
X139800Y508500D02*Y502500D01*
Y508500D02*X142800D01*
X147600D02*X148350Y507750D01*
X145350Y508500D02*X147600D01*
X144600Y507750D02*X145350Y508500D01*
X144600Y507750D02*Y506250D01*
X145350Y505500D01*
X147600D01*
X148350Y504750D01*
Y503250D01*
X147600Y502500D02*X148350Y503250D01*
X145350Y502500D02*X147600D01*
X144600Y503250D02*X145350Y502500D01*
X98000Y504750D02*X101000Y508500D01*
X98000Y504750D02*X101750D01*
X101000Y508500D02*Y502500D01*
X45000Y503250D02*X45750Y502500D01*
X45000Y507750D02*Y503250D01*
Y507750D02*X45750Y508500D01*
X47250D01*
X48000Y507750D01*
Y503250D01*
X47250Y502500D02*X48000Y503250D01*
X45750Y502500D02*X47250D01*
X45000Y504000D02*X48000Y507000D01*
X49800Y502500D02*X50550D01*
X52350Y507300D02*X53550Y508500D01*
Y502500D01*
X52350D02*X54600D01*
X56400Y503250D02*X57150Y502500D01*
X56400Y507750D02*Y503250D01*
Y507750D02*X57150Y508500D01*
X58650D01*
X59400Y507750D01*
Y503250D01*
X58650Y502500D02*X59400Y503250D01*
X57150Y502500D02*X58650D01*
X56400Y504000D02*X59400Y507000D01*
X61950Y502500D02*X64200Y505500D01*
Y507750D02*Y505500D01*
X63450Y508500D02*X64200Y507750D01*
X61950Y508500D02*X63450D01*
X61200Y507750D02*X61950Y508500D01*
X61200Y507750D02*Y506250D01*
X61950Y505500D01*
X64200D01*
X378200Y152500D02*G75*G03X379800Y152500I800J0D01*G01*
G75*G03X378200Y152500I-800J0D01*G01*
X14200Y521250D02*G75*G03X15800Y521250I800J0D01*G01*
G75*G03X14200Y521250I-800J0D01*G01*
X135000Y523500D02*X136500Y520500D01*
X138000Y523500D01*
X136500Y520500D02*Y517500D01*
X139800Y520800D02*X142050D01*
X139800Y517500D02*X142800D01*
X139800Y523500D02*Y517500D01*
Y523500D02*X142800D01*
X147600D02*X148350Y522750D01*
X145350Y523500D02*X147600D01*
X144600Y522750D02*X145350Y523500D01*
X144600Y522750D02*Y521250D01*
X145350Y520500D01*
X147600D01*
X148350Y519750D01*
Y518250D01*
X147600Y517500D02*X148350Y518250D01*
X145350Y517500D02*X147600D01*
X144600Y518250D02*X145350Y517500D01*
X98000Y522300D02*X99200Y523500D01*
Y517500D01*
X98000D02*X100250D01*
X45000Y518250D02*X45750Y517500D01*
X45000Y522750D02*Y518250D01*
Y522750D02*X45750Y523500D01*
X47250D01*
X48000Y522750D01*
Y518250D01*
X47250Y517500D02*X48000Y518250D01*
X45750Y517500D02*X47250D01*
X45000Y519000D02*X48000Y522000D01*
X49800Y517500D02*X50550D01*
X52350Y518250D02*X53100Y517500D01*
X52350Y522750D02*Y518250D01*
Y522750D02*X53100Y523500D01*
X54600D01*
X55350Y522750D01*
Y518250D01*
X54600Y517500D02*X55350Y518250D01*
X53100Y517500D02*X54600D01*
X52350Y519000D02*X55350Y522000D01*
X57900Y517500D02*X60150Y520500D01*
Y522750D02*Y520500D01*
X59400Y523500D02*X60150Y522750D01*
X57900Y523500D02*X59400D01*
X57150Y522750D02*X57900Y523500D01*
X57150Y522750D02*Y521250D01*
X57900Y520500D01*
X60150D01*
X61950Y519750D02*X64950Y523500D01*
X61950Y519750D02*X65700D01*
X64950Y523500D02*Y517500D01*
X429127Y227456D02*X431527Y225056D01*
X429127D02*X431527Y227456D01*
X411410D02*X413810Y225056D01*
X411410D02*X413810Y227456D01*
X13800Y537450D02*X16200Y535050D01*
X13800D02*X16200Y537450D01*
X135000Y538500D02*X136500Y535500D01*
X138000Y538500D01*
X136500Y535500D02*Y532500D01*
X139800Y535800D02*X142050D01*
X139800Y532500D02*X142800D01*
X139800Y538500D02*Y532500D01*
Y538500D02*X142800D01*
X147600D02*X148350Y537750D01*
X145350Y538500D02*X147600D01*
X144600Y537750D02*X145350Y538500D01*
X144600Y537750D02*Y536250D01*
X145350Y535500D01*
X147600D01*
X148350Y534750D01*
Y533250D01*
X147600Y532500D02*X148350Y533250D01*
X145350Y532500D02*X147600D01*
X144600Y533250D02*X145350Y532500D01*
X98000Y537750D02*X98750Y538500D01*
X101000D01*
X101750Y537750D01*
Y536250D01*
X98000Y532500D02*X101750Y536250D01*
X98000Y532500D02*X101750D01*
X45000Y533250D02*X45750Y532500D01*
X45000Y537750D02*Y533250D01*
Y537750D02*X45750Y538500D01*
X47250D01*
X48000Y537750D01*
Y533250D01*
X47250Y532500D02*X48000Y533250D01*
X45750Y532500D02*X47250D01*
X45000Y534000D02*X48000Y537000D01*
X49800Y532500D02*X50550D01*
X52350Y533250D02*X53100Y532500D01*
X52350Y537750D02*Y533250D01*
Y537750D02*X53100Y538500D01*
X54600D01*
X55350Y537750D01*
Y533250D01*
X54600Y532500D02*X55350Y533250D01*
X53100Y532500D02*X54600D01*
X52350Y534000D02*X55350Y537000D01*
X57150Y534750D02*X60150Y538500D01*
X57150Y534750D02*X60900D01*
X60150Y538500D02*Y532500D01*
X62700Y537750D02*X63450Y538500D01*
X64950D01*
X65700Y537750D01*
X64950Y532500D02*X65700Y533250D01*
X63450Y532500D02*X64950D01*
X62700Y533250D02*X63450Y532500D01*
Y535800D02*X64950D01*
X65700Y537750D02*Y536550D01*
Y535050D02*Y533250D01*
Y535050D02*X64950Y535800D01*
X65700Y536550D02*X64950Y535800D01*
X266485Y168044D02*Y164844D01*
X264885Y166444D02*X268085D01*
X213335Y168044D02*Y164844D01*
X211735Y166444D02*X214935D01*
X213076Y343806D02*Y340606D01*
X211476Y342206D02*X214676D01*
X159926Y343806D02*Y340606D01*
X158326Y342206D02*X161526D01*
X15000Y552850D02*Y549650D01*
X13400Y551250D02*X16600D01*
X135000Y553500D02*X136500Y550500D01*
X138000Y553500D01*
X136500Y550500D02*Y547500D01*
X139800Y550800D02*X142050D01*
X139800Y547500D02*X142800D01*
X139800Y553500D02*Y547500D01*
Y553500D02*X142800D01*
X147600D02*X148350Y552750D01*
X145350Y553500D02*X147600D01*
X144600Y552750D02*X145350Y553500D01*
X144600Y552750D02*Y551250D01*
X145350Y550500D01*
X147600D01*
X148350Y549750D01*
Y548250D01*
X147600Y547500D02*X148350Y548250D01*
X145350Y547500D02*X147600D01*
X144600Y548250D02*X145350Y547500D01*
X98000Y549750D02*X101000Y553500D01*
X98000Y549750D02*X101750D01*
X101000Y553500D02*Y547500D01*
X45000Y548250D02*X45750Y547500D01*
X45000Y552750D02*Y548250D01*
Y552750D02*X45750Y553500D01*
X47250D01*
X48000Y552750D01*
Y548250D01*
X47250Y547500D02*X48000Y548250D01*
X45750Y547500D02*X47250D01*
X45000Y549000D02*X48000Y552000D01*
X49800Y547500D02*X50550D01*
X52350Y548250D02*X53100Y547500D01*
X52350Y552750D02*Y548250D01*
Y552750D02*X53100Y553500D01*
X54600D01*
X55350Y552750D01*
Y548250D01*
X54600Y547500D02*X55350Y548250D01*
X53100Y547500D02*X54600D01*
X52350Y549000D02*X55350Y552000D01*
X57150Y552750D02*X57900Y553500D01*
X59400D01*
X60150Y552750D01*
X59400Y547500D02*X60150Y548250D01*
X57900Y547500D02*X59400D01*
X57150Y548250D02*X57900Y547500D01*
Y550800D02*X59400D01*
X60150Y552750D02*Y551550D01*
Y550050D02*Y548250D01*
Y550050D02*X59400Y550800D01*
X60150Y551550D02*X59400Y550800D01*
X61950Y553500D02*X64950D01*
X61950D02*Y550500D01*
X62700Y551250D01*
X64200D01*
X64950Y550500D01*
Y548250D01*
X64200Y547500D02*X64950Y548250D01*
X62700Y547500D02*X64200D01*
X61950Y548250D02*X62700Y547500D01*
X45000Y306000D02*Y304400D01*
Y306000D02*X46387Y306800D01*
X45000Y306000D02*X43613Y306800D01*
X60500Y306000D02*Y304400D01*
Y306000D02*X61887Y306800D01*
X60500Y306000D02*X59113Y306800D01*
X60500Y343500D02*Y341900D01*
Y343500D02*X61887Y344300D01*
X60500Y343500D02*X59113Y344300D01*
X45000Y343500D02*Y341900D01*
Y343500D02*X46387Y344300D01*
X45000Y343500D02*X43613Y344300D01*
X330000Y309500D02*Y307900D01*
Y309500D02*X331387Y310300D01*
X330000Y309500D02*X328613Y310300D01*
X381000Y309500D02*Y307900D01*
Y309500D02*X382387Y310300D01*
X381000Y309500D02*X379613Y310300D01*
X381000Y357000D02*Y355400D01*
Y357000D02*X382387Y357800D01*
X381000Y357000D02*X379613Y357800D01*
X330000Y357000D02*Y355400D01*
Y357000D02*X331387Y357800D01*
X330000Y357000D02*X328613Y357800D01*
X15000Y566250D02*Y564650D01*
Y566250D02*X16387Y567050D01*
X15000Y566250D02*X13613Y567050D01*
X135000Y568500D02*X136500Y565500D01*
X138000Y568500D01*
X136500Y565500D02*Y562500D01*
X139800Y565800D02*X142050D01*
X139800Y562500D02*X142800D01*
X139800Y568500D02*Y562500D01*
Y568500D02*X142800D01*
X147600D02*X148350Y567750D01*
X145350Y568500D02*X147600D01*
X144600Y567750D02*X145350Y568500D01*
X144600Y567750D02*Y566250D01*
X145350Y565500D01*
X147600D01*
X148350Y564750D01*
Y563250D01*
X147600Y562500D02*X148350Y563250D01*
X145350Y562500D02*X147600D01*
X144600Y563250D02*X145350Y562500D01*
X98000Y563250D02*X98750Y562500D01*
X98000Y564450D02*Y563250D01*
Y564450D02*X99050Y565500D01*
X99950D01*
X101000Y564450D01*
Y563250D01*
X100250Y562500D02*X101000Y563250D01*
X98750Y562500D02*X100250D01*
X98000Y566550D02*X99050Y565500D01*
X98000Y567750D02*Y566550D01*
Y567750D02*X98750Y568500D01*
X100250D01*
X101000Y567750D01*
Y566550D01*
X99950Y565500D02*X101000Y566550D01*
X45000Y563250D02*X45750Y562500D01*
X45000Y567750D02*Y563250D01*
Y567750D02*X45750Y568500D01*
X47250D01*
X48000Y567750D01*
Y563250D01*
X47250Y562500D02*X48000Y563250D01*
X45750Y562500D02*X47250D01*
X45000Y564000D02*X48000Y567000D01*
X49800Y562500D02*X50550D01*
X52350Y563250D02*X53100Y562500D01*
X52350Y567750D02*Y563250D01*
Y567750D02*X53100Y568500D01*
X54600D01*
X55350Y567750D01*
Y563250D01*
X54600Y562500D02*X55350Y563250D01*
X53100Y562500D02*X54600D01*
X52350Y564000D02*X55350Y567000D01*
X57150Y567300D02*X58350Y568500D01*
Y562500D01*
X57150D02*X59400D01*
X61200Y568500D02*X64200D01*
X61200D02*Y565500D01*
X61950Y566250D01*
X63450D01*
X64200Y565500D01*
Y563250D01*
X63450Y562500D02*X64200Y563250D01*
X61950Y562500D02*X63450D01*
X61200Y563250D02*X61950Y562500D01*
X3000Y583500D02*X3750Y582750D01*
X750Y583500D02*X3000D01*
X0Y582750D02*X750Y583500D01*
X0Y582750D02*Y581250D01*
X750Y580500D01*
X3000D01*
X3750Y579750D01*
Y578250D01*
X3000Y577500D02*X3750Y578250D01*
X750Y577500D02*X3000D01*
X0Y578250D02*X750Y577500D01*
X5550Y580500D02*Y578250D01*
X6300Y577500D01*
X8550Y580500D02*Y576000D01*
X7800Y575250D02*X8550Y576000D01*
X6300Y575250D02*X7800D01*
X5550Y576000D02*X6300Y575250D01*
Y577500D02*X7800D01*
X8550Y578250D01*
X11100Y579750D02*Y577500D01*
Y579750D02*X11850Y580500D01*
X12600D01*
X13350Y579750D01*
Y577500D01*
Y579750D02*X14100Y580500D01*
X14850D01*
X15600Y579750D01*
Y577500D01*
X10350Y580500D02*X11100Y579750D01*
X17400Y583500D02*Y577500D01*
Y578250D02*X18150Y577500D01*
X19650D01*
X20400Y578250D01*
Y579750D02*Y578250D01*
X19650Y580500D02*X20400Y579750D01*
X18150Y580500D02*X19650D01*
X17400Y579750D02*X18150Y580500D01*
X22200Y579750D02*Y578250D01*
Y579750D02*X22950Y580500D01*
X24450D01*
X25200Y579750D01*
Y578250D01*
X24450Y577500D02*X25200Y578250D01*
X22950Y577500D02*X24450D01*
X22200Y578250D02*X22950Y577500D01*
X27000Y583500D02*Y578250D01*
X27750Y577500D01*
X0Y574250D02*X29250D01*
X41750Y583500D02*Y577500D01*
X43700Y583500D02*X44750Y582450D01*
Y578550D01*
X43700Y577500D02*X44750Y578550D01*
X41000Y577500D02*X43700D01*
X41000Y583500D02*X43700D01*
G54D142*X46550Y582000D02*Y581850D01*
G54D141*Y579750D02*Y577500D01*
X50300Y580500D02*X51050Y579750D01*
X48800Y580500D02*X50300D01*
X48050Y579750D02*X48800Y580500D01*
X48050Y579750D02*Y578250D01*
X48800Y577500D01*
X51050Y580500D02*Y578250D01*
X51800Y577500D01*
X48800D02*X50300D01*
X51050Y578250D01*
X54350Y579750D02*Y577500D01*
Y579750D02*X55100Y580500D01*
X55850D01*
X56600Y579750D01*
Y577500D01*
Y579750D02*X57350Y580500D01*
X58100D01*
X58850Y579750D01*
Y577500D01*
X53600Y580500D02*X54350Y579750D01*
X60650Y577500D02*X61400D01*
X65900Y578250D02*X66650Y577500D01*
X65900Y582750D02*X66650Y583500D01*
X65900Y582750D02*Y578250D01*
X68450Y583500D02*X69950D01*
X69200D02*Y577500D01*
X68450D02*X69950D01*
X72500Y579750D02*Y577500D01*
Y579750D02*X73250Y580500D01*
X74000D01*
X74750Y579750D01*
Y577500D01*
X71750Y580500D02*X72500Y579750D01*
X77300Y580500D02*X79550D01*
X76550Y579750D02*X77300Y580500D01*
X76550Y579750D02*Y578250D01*
X77300Y577500D01*
X79550D01*
X81350Y583500D02*Y577500D01*
Y579750D02*X82100Y580500D01*
X83600D01*
X84350Y579750D01*
Y577500D01*
X86150Y583500D02*X86900Y582750D01*
Y578250D01*
X86150Y577500D02*X86900Y578250D01*
X41000Y574250D02*X88700D01*
X96050Y577500D02*X98000D01*
X95000Y578550D02*X96050Y577500D01*
X95000Y582450D02*Y578550D01*
Y582450D02*X96050Y583500D01*
X98000D01*
X99800Y579750D02*Y578250D01*
Y579750D02*X100550Y580500D01*
X102050D01*
X102800Y579750D01*
Y578250D01*
X102050Y577500D02*X102800Y578250D01*
X100550Y577500D02*X102050D01*
X99800Y578250D02*X100550Y577500D01*
X104600Y580500D02*Y578250D01*
X105350Y577500D01*
X106850D01*
X107600Y578250D01*
Y580500D02*Y578250D01*
X110150Y579750D02*Y577500D01*
Y579750D02*X110900Y580500D01*
X111650D01*
X112400Y579750D01*
Y577500D01*
X109400Y580500D02*X110150Y579750D01*
X114950Y583500D02*Y578250D01*
X115700Y577500D01*
X114200Y581250D02*X115700D01*
X95000Y574250D02*X117200D01*
X130750Y583500D02*Y577500D01*
X130000Y583500D02*X133000D01*
X133750Y582750D01*
Y581250D01*
X133000Y580500D02*X133750Y581250D01*
X130750Y580500D02*X133000D01*
X135550Y583500D02*Y578250D01*
X136300Y577500D01*
X140050Y580500D02*X140800Y579750D01*
X138550Y580500D02*X140050D01*
X137800Y579750D02*X138550Y580500D01*
X137800Y579750D02*Y578250D01*
X138550Y577500D01*
X140800Y580500D02*Y578250D01*
X141550Y577500D01*
X138550D02*X140050D01*
X140800Y578250D01*
X144100Y583500D02*Y578250D01*
X144850Y577500D01*
X143350Y581250D02*X144850D01*
X147100Y577500D02*X149350D01*
X146350Y578250D02*X147100Y577500D01*
X146350Y579750D02*Y578250D01*
Y579750D02*X147100Y580500D01*
X148600D01*
X149350Y579750D01*
X146350Y579000D02*X149350D01*
Y579750D02*Y579000D01*
X154150Y583500D02*Y577500D01*
X153400D02*X154150Y578250D01*
X151900Y577500D02*X153400D01*
X151150Y578250D02*X151900Y577500D01*
X151150Y579750D02*Y578250D01*
Y579750D02*X151900Y580500D01*
X153400D01*
X154150Y579750D01*
X157450Y580500D02*Y579750D01*
Y578250D02*Y577500D01*
X155950Y582750D02*Y582000D01*
Y582750D02*X156700Y583500D01*
X158200D01*
X158950Y582750D01*
Y582000D01*
X157450Y580500D02*X158950Y582000D01*
X130000Y574250D02*X160750D01*
X0Y598500D02*X3000D01*
X1500D02*Y592500D01*
X4800Y598500D02*Y592500D01*
Y594750D02*X5550Y595500D01*
X7050D01*
X7800Y594750D01*
Y592500D01*
X10350D02*X12600D01*
X9600Y593250D02*X10350Y592500D01*
X9600Y594750D02*Y593250D01*
Y594750D02*X10350Y595500D01*
X11850D01*
X12600Y594750D01*
X9600Y594000D02*X12600D01*
Y594750D02*Y594000D01*
X15150Y594750D02*Y592500D01*
Y594750D02*X15900Y595500D01*
X17400D01*
X14400D02*X15150Y594750D01*
X19950Y592500D02*X22200D01*
X19200Y593250D02*X19950Y592500D01*
X19200Y594750D02*Y593250D01*
Y594750D02*X19950Y595500D01*
X21450D01*
X22200Y594750D01*
X19200Y594000D02*X22200D01*
Y594750D02*Y594000D01*
X28950Y595500D02*X29700Y594750D01*
X27450Y595500D02*X28950D01*
X26700Y594750D02*X27450Y595500D01*
X26700Y594750D02*Y593250D01*
X27450Y592500D01*
X29700Y595500D02*Y593250D01*
X30450Y592500D01*
X27450D02*X28950D01*
X29700Y593250D01*
X33000Y594750D02*Y592500D01*
Y594750D02*X33750Y595500D01*
X35250D01*
X32250D02*X33000Y594750D01*
X37800Y592500D02*X40050D01*
X37050Y593250D02*X37800Y592500D01*
X37050Y594750D02*Y593250D01*
Y594750D02*X37800Y595500D01*
X39300D01*
X40050Y594750D01*
X37050Y594000D02*X40050D01*
Y594750D02*Y594000D01*
X44550Y593250D02*X45300Y592500D01*
X44550Y594450D02*Y593250D01*
Y594450D02*X45600Y595500D01*
X46500D01*
X47550Y594450D01*
Y593250D01*
X46800Y592500D02*X47550Y593250D01*
X45300Y592500D02*X46800D01*
X44550Y596550D02*X45600Y595500D01*
X44550Y597750D02*Y596550D01*
Y597750D02*X45300Y598500D01*
X46800D01*
X47550Y597750D01*
Y596550D01*
X46500Y595500D02*X47550Y596550D01*
X55050Y598500D02*Y592500D01*
X54300D02*X55050Y593250D01*
X52800Y592500D02*X54300D01*
X52050Y593250D02*X52800Y592500D01*
X52050Y594750D02*Y593250D01*
Y594750D02*X52800Y595500D01*
X54300D01*
X55050Y594750D01*
G54D142*X56850Y597000D02*Y596850D01*
G54D141*Y594750D02*Y592500D01*
X59100Y597750D02*Y592500D01*
Y597750D02*X59850Y598500D01*
X60600D01*
X58350Y595500D02*X59850D01*
X62850Y597750D02*Y592500D01*
Y597750D02*X63600Y598500D01*
X64350D01*
X62100Y595500D02*X63600D01*
X66600Y592500D02*X68850D01*
X65850Y593250D02*X66600Y592500D01*
X65850Y594750D02*Y593250D01*
Y594750D02*X66600Y595500D01*
X68100D01*
X68850Y594750D01*
X65850Y594000D02*X68850D01*
Y594750D02*Y594000D01*
X71400Y594750D02*Y592500D01*
Y594750D02*X72150Y595500D01*
X73650D01*
X70650D02*X71400Y594750D01*
X76200Y592500D02*X78450D01*
X75450Y593250D02*X76200Y592500D01*
X75450Y594750D02*Y593250D01*
Y594750D02*X76200Y595500D01*
X77700D01*
X78450Y594750D01*
X75450Y594000D02*X78450D01*
Y594750D02*Y594000D01*
X81000Y594750D02*Y592500D01*
Y594750D02*X81750Y595500D01*
X82500D01*
X83250Y594750D01*
Y592500D01*
X80250Y595500D02*X81000Y594750D01*
X85800Y598500D02*Y593250D01*
X86550Y592500D01*
X85050Y596250D02*X86550D01*
X93750Y598500D02*Y592500D01*
X93000D02*X93750Y593250D01*
X91500Y592500D02*X93000D01*
X90750Y593250D02*X91500Y592500D01*
X90750Y594750D02*Y593250D01*
Y594750D02*X91500Y595500D01*
X93000D01*
X93750Y594750D01*
X96300D02*Y592500D01*
Y594750D02*X97050Y595500D01*
X98550D01*
X95550D02*X96300Y594750D01*
G54D142*X100350Y597000D02*Y596850D01*
G54D141*Y594750D02*Y592500D01*
X101850Y598500D02*Y593250D01*
X102600Y592500D01*
X104100Y598500D02*Y593250D01*
X104850Y592500D01*
X109800D02*X112050D01*
X112800Y593250D01*
X112050Y594000D02*X112800Y593250D01*
X109800Y594000D02*X112050D01*
X109050Y594750D02*X109800Y594000D01*
X109050Y594750D02*X109800Y595500D01*
X112050D01*
X112800Y594750D01*
X109050Y593250D02*X109800Y592500D01*
G54D142*X114600Y597000D02*Y596850D01*
G54D141*Y594750D02*Y592500D01*
X116100Y595500D02*X119100D01*
X116100Y592500D02*X119100Y595500D01*
X116100Y592500D02*X119100D01*
X121650D02*X123900D01*
X120900Y593250D02*X121650Y592500D01*
X120900Y594750D02*Y593250D01*
Y594750D02*X121650Y595500D01*
X123150D01*
X123900Y594750D01*
X120900Y594000D02*X123900D01*
Y594750D02*Y594000D01*
X126450Y592500D02*X128700D01*
X129450Y593250D01*
X128700Y594000D02*X129450Y593250D01*
X126450Y594000D02*X128700D01*
X125700Y594750D02*X126450Y594000D01*
X125700Y594750D02*X126450Y595500D01*
X128700D01*
X129450Y594750D01*
X125700Y593250D02*X126450Y592500D01*
X133950Y595500D02*Y593250D01*
X134700Y592500D01*
X136200D01*
X136950Y593250D01*
Y595500D02*Y593250D01*
X139500Y592500D02*X141750D01*
X142500Y593250D01*
X141750Y594000D02*X142500Y593250D01*
X139500Y594000D02*X141750D01*
X138750Y594750D02*X139500Y594000D01*
X138750Y594750D02*X139500Y595500D01*
X141750D01*
X142500Y594750D01*
X138750Y593250D02*X139500Y592500D01*
X145050D02*X147300D01*
X144300Y593250D02*X145050Y592500D01*
X144300Y594750D02*Y593250D01*
Y594750D02*X145050Y595500D01*
X146550D01*
X147300Y594750D01*
X144300Y594000D02*X147300D01*
Y594750D02*Y594000D01*
X152100Y598500D02*Y592500D01*
X151350D02*X152100Y593250D01*
X149850Y592500D02*X151350D01*
X149100Y593250D02*X149850Y592500D01*
X149100Y594750D02*Y593250D01*
Y594750D02*X149850Y595500D01*
X151350D01*
X152100Y594750D01*
G54D142*X156600Y597000D02*Y596850D01*
G54D141*Y594750D02*Y592500D01*
X158850Y594750D02*Y592500D01*
Y594750D02*X159600Y595500D01*
X160350D01*
X161100Y594750D01*
Y592500D01*
X158100Y595500D02*X158850Y594750D01*
X166350Y598500D02*Y593250D01*
X167100Y592500D01*
X165600Y596250D02*X167100D01*
X168600Y598500D02*Y592500D01*
Y594750D02*X169350Y595500D01*
X170850D01*
X171600Y594750D01*
Y592500D01*
G54D142*X173400Y597000D02*Y596850D01*
G54D141*Y594750D02*Y592500D01*
X175650D02*X177900D01*
X178650Y593250D01*
X177900Y594000D02*X178650Y593250D01*
X175650Y594000D02*X177900D01*
X174900Y594750D02*X175650Y594000D01*
X174900Y594750D02*X175650Y595500D01*
X177900D01*
X178650Y594750D01*
X174900Y593250D02*X175650Y592500D01*
X183150Y598500D02*Y593250D01*
X183900Y592500D01*
X187650Y595500D02*X188400Y594750D01*
X186150Y595500D02*X187650D01*
X185400Y594750D02*X186150Y595500D01*
X185400Y594750D02*Y593250D01*
X186150Y592500D01*
X188400Y595500D02*Y593250D01*
X189150Y592500D01*
X186150D02*X187650D01*
X188400Y593250D01*
X190950Y595500D02*Y593250D01*
X191700Y592500D01*
X193950Y595500D02*Y591000D01*
X193200Y590250D02*X193950Y591000D01*
X191700Y590250D02*X193200D01*
X190950Y591000D02*X191700Y590250D01*
Y592500D02*X193200D01*
X193950Y593250D01*
X195750Y594750D02*Y593250D01*
Y594750D02*X196500Y595500D01*
X198000D01*
X198750Y594750D01*
Y593250D01*
X198000Y592500D02*X198750Y593250D01*
X196500Y592500D02*X198000D01*
X195750Y593250D02*X196500Y592500D01*
X200550Y595500D02*Y593250D01*
X201300Y592500D01*
X202800D01*
X203550Y593250D01*
Y595500D02*Y593250D01*
X206100Y598500D02*Y593250D01*
X206850Y592500D01*
X205350Y596250D02*X206850D01*
X208350Y591000D02*X209850Y592500D01*
X214350Y597750D02*X215100Y598500D01*
X217350D01*
X218100Y597750D01*
Y596250D01*
X214350Y592500D02*X218100Y596250D01*
X214350Y592500D02*X218100D01*
X220650D02*X223650Y598500D01*
X219900D02*X223650D01*
X228150D02*Y592500D01*
Y594750D02*X228900Y595500D01*
X230400D01*
X231150Y594750D01*
Y592500D01*
X232950Y594750D02*Y593250D01*
Y594750D02*X233700Y595500D01*
X235200D01*
X235950Y594750D01*
Y593250D01*
X235200Y592500D02*X235950Y593250D01*
X233700Y592500D02*X235200D01*
X232950Y593250D02*X233700Y592500D01*
X237750Y598500D02*Y593250D01*
X238500Y592500D01*
X240750D02*X243000D01*
X240000Y593250D02*X240750Y592500D01*
X240000Y594750D02*Y593250D01*
Y594750D02*X240750Y595500D01*
X242250D01*
X243000Y594750D01*
X240000Y594000D02*X243000D01*
Y594750D02*Y594000D01*
X245550Y592500D02*X247800D01*
X248550Y593250D01*
X247800Y594000D02*X248550Y593250D01*
X245550Y594000D02*X247800D01*
X244800Y594750D02*X245550Y594000D01*
X244800Y594750D02*X245550Y595500D01*
X247800D01*
X248550Y594750D01*
X244800Y593250D02*X245550Y592500D01*
X253800Y598500D02*Y593250D01*
X254550Y592500D01*
X253050Y596250D02*X254550D01*
X256050Y594750D02*Y593250D01*
Y594750D02*X256800Y595500D01*
X258300D01*
X259050Y594750D01*
Y593250D01*
X258300Y592500D02*X259050Y593250D01*
X256800Y592500D02*X258300D01*
X256050Y593250D02*X256800Y592500D01*
X261600Y598500D02*Y593250D01*
X262350Y592500D01*
X260850Y596250D02*X262350D01*
X266100Y595500D02*X266850Y594750D01*
X264600Y595500D02*X266100D01*
X263850Y594750D02*X264600Y595500D01*
X263850Y594750D02*Y593250D01*
X264600Y592500D01*
X266850Y595500D02*Y593250D01*
X267600Y592500D01*
X264600D02*X266100D01*
X266850Y593250D01*
X269400Y598500D02*Y593250D01*
X270150Y592500D01*
G54D143*X55500Y278000D02*X71500D01*
Y248500D01*
X55500D01*
Y278000D01*
X159000Y359500D02*Y340500D01*
X213500D01*
Y359500D01*
X159000D01*
X238500Y351000D02*X288000D01*
Y341500D01*
X238500D01*
Y351000D01*
X55500Y201000D02*X71500D01*
Y171500D01*
X55500D01*
Y201000D01*
X91500Y160500D02*X107500D01*
Y131000D01*
X91500D01*
Y160500D01*
X212409Y183738D02*Y164738D01*
X266909D01*
Y183738D01*
X212409D01*
X33600Y113800D02*Y412800D01*
X445600D01*
Y113800D01*
X33600D01*
X71000Y295000D02*Y355000D01*
X381200Y412800D02*Y367200D01*
X391000D01*
X319500Y368500D02*X330100D01*
X319500D02*X330600D01*
Y412800D01*
X71000Y295000D02*X67000D01*
X33600D02*X55400D01*
X71000Y355000D02*X67000D01*
X33600D02*X55400D01*
X391000Y299500D02*Y312000D01*
Y367200D02*Y325000D01*
X319500Y312000D02*Y299500D01*
X400600Y238900D02*X407500D01*
X419700D02*X445600D01*
Y208100D02*X412300D01*
X400600Y211000D02*Y222200D01*
Y238900D02*Y233800D01*
X319500Y324500D02*Y347200D01*
Y368500D02*Y360000D01*
X391000Y299500D02*X338500D01*
X319500D02*X326500D01*
G54D141*X188675Y-9500D02*X191675D01*
X192425Y-8750D01*
Y-6950D02*Y-8750D01*
X191675Y-6200D02*X192425Y-6950D01*
X189425Y-6200D02*X191675D01*
X189425Y-3500D02*Y-9500D01*
X188675Y-3500D02*X191675D01*
X192425Y-4250D01*
Y-5450D01*
X191675Y-6200D02*X192425Y-5450D01*
X194225Y-7250D02*Y-8750D01*
Y-7250D02*X194975Y-6500D01*
X196475D01*
X197225Y-7250D01*
Y-8750D01*
X196475Y-9500D02*X197225Y-8750D01*
X194975Y-9500D02*X196475D01*
X194225Y-8750D02*X194975Y-9500D01*
X201275Y-6500D02*X202025Y-7250D01*
X199775Y-6500D02*X201275D01*
X199025Y-7250D02*X199775Y-6500D01*
X199025Y-7250D02*Y-8750D01*
X199775Y-9500D01*
X202025Y-6500D02*Y-8750D01*
X202775Y-9500D01*
X199775D02*X201275D01*
X202025Y-8750D01*
X205325Y-7250D02*Y-9500D01*
Y-7250D02*X206075Y-6500D01*
X207575D01*
X204575D02*X205325Y-7250D01*
X212375Y-3500D02*Y-9500D01*
X211625D02*X212375Y-8750D01*
X210125Y-9500D02*X211625D01*
X209375Y-8750D02*X210125Y-9500D01*
X209375Y-7250D02*Y-8750D01*
Y-7250D02*X210125Y-6500D01*
X211625D01*
X212375Y-7250D01*
X216875D02*Y-8750D01*
Y-7250D02*X217625Y-6500D01*
X219125D01*
X219875Y-7250D01*
Y-8750D01*
X219125Y-9500D02*X219875Y-8750D01*
X217625Y-9500D02*X219125D01*
X216875Y-8750D02*X217625Y-9500D01*
X221675Y-6500D02*Y-8750D01*
X222425Y-9500D01*
X223925D01*
X224675Y-8750D01*
Y-6500D02*Y-8750D01*
X227225Y-3500D02*Y-8750D01*
X227975Y-9500D01*
X226475Y-5750D02*X227975D01*
X229475Y-3500D02*Y-8750D01*
X230225Y-9500D01*
G54D142*X231725Y-5000D02*Y-5150D01*
G54D141*Y-7250D02*Y-9500D01*
X233975Y-7250D02*Y-9500D01*
Y-7250D02*X234725Y-6500D01*
X235475D01*
X236225Y-7250D01*
Y-9500D01*
X233225Y-6500D02*X233975Y-7250D01*
X238775Y-9500D02*X241025D01*
X238025Y-8750D02*X238775Y-9500D01*
X238025Y-7250D02*Y-8750D01*
Y-7250D02*X238775Y-6500D01*
X240275D01*
X241025Y-7250D01*
X238025Y-8000D02*X241025D01*
Y-7250D02*Y-8000D01*
G54D142*X245525Y-5000D02*Y-5150D01*
G54D141*Y-7250D02*Y-9500D01*
X247775D02*X250025D01*
X250775Y-8750D01*
X250025Y-8000D02*X250775Y-8750D01*
X247775Y-8000D02*X250025D01*
X247025Y-7250D02*X247775Y-8000D01*
X247025Y-7250D02*X247775Y-6500D01*
X250025D01*
X250775Y-7250D01*
X247025Y-8750D02*X247775Y-9500D01*
X256025Y-3500D02*Y-8750D01*
X256775Y-9500D01*
X255275Y-5750D02*X256775D01*
X258275Y-3500D02*Y-9500D01*
Y-7250D02*X259025Y-6500D01*
X260525D01*
X261275Y-7250D01*
Y-9500D01*
X263825D02*X266075D01*
X263075Y-8750D02*X263825Y-9500D01*
X263075Y-7250D02*Y-8750D01*
Y-7250D02*X263825Y-6500D01*
X265325D01*
X266075Y-7250D01*
X263075Y-8000D02*X266075D01*
Y-7250D02*Y-8000D01*
X271325Y-6500D02*X273575D01*
X270575Y-7250D02*X271325Y-6500D01*
X270575Y-7250D02*Y-8750D01*
X271325Y-9500D01*
X273575D01*
X276125D02*X278375D01*
X275375Y-8750D02*X276125Y-9500D01*
X275375Y-7250D02*Y-8750D01*
Y-7250D02*X276125Y-6500D01*
X277625D01*
X278375Y-7250D01*
X275375Y-8000D02*X278375D01*
Y-7250D02*Y-8000D01*
X280925Y-7250D02*Y-9500D01*
Y-7250D02*X281675Y-6500D01*
X282425D01*
X283175Y-7250D01*
Y-9500D01*
X280175Y-6500D02*X280925Y-7250D01*
X285725Y-3500D02*Y-8750D01*
X286475Y-9500D01*
X284975Y-5750D02*X286475D01*
X288725Y-9500D02*X290975D01*
X287975Y-8750D02*X288725Y-9500D01*
X287975Y-7250D02*Y-8750D01*
Y-7250D02*X288725Y-6500D01*
X290225D01*
X290975Y-7250D01*
X287975Y-8000D02*X290975D01*
Y-7250D02*Y-8000D01*
X293525Y-7250D02*Y-9500D01*
Y-7250D02*X294275Y-6500D01*
X295775D01*
X292775D02*X293525Y-7250D01*
X297575Y-3500D02*Y-8750D01*
X298325Y-9500D01*
G54D142*X299825Y-5000D02*Y-5150D01*
G54D141*Y-7250D02*Y-9500D01*
X302075Y-7250D02*Y-9500D01*
Y-7250D02*X302825Y-6500D01*
X303575D01*
X304325Y-7250D01*
Y-9500D01*
X301325Y-6500D02*X302075Y-7250D01*
X306875Y-9500D02*X309125D01*
X306125Y-8750D02*X306875Y-9500D01*
X306125Y-7250D02*Y-8750D01*
Y-7250D02*X306875Y-6500D01*
X308375D01*
X309125Y-7250D01*
X306125Y-8000D02*X309125D01*
Y-7250D02*Y-8000D01*
X313625Y-7250D02*Y-8750D01*
Y-7250D02*X314375Y-6500D01*
X315875D01*
X316625Y-7250D01*
Y-8750D01*
X315875Y-9500D02*X316625Y-8750D01*
X314375Y-9500D02*X315875D01*
X313625Y-8750D02*X314375Y-9500D01*
X319175Y-4250D02*Y-9500D01*
Y-4250D02*X319925Y-3500D01*
X320675D01*
X318425Y-6500D02*X319925D01*
X325625Y-3500D02*Y-8750D01*
X326375Y-9500D01*
X324875Y-5750D02*X326375D01*
X327875Y-3500D02*Y-9500D01*
Y-7250D02*X328625Y-6500D01*
X330125D01*
X330875Y-7250D01*
Y-9500D01*
G54D142*X332675Y-5000D02*Y-5150D01*
G54D141*Y-7250D02*Y-9500D01*
X334925D02*X337175D01*
X337925Y-8750D01*
X337175Y-8000D02*X337925Y-8750D01*
X334925Y-8000D02*X337175D01*
X334175Y-7250D02*X334925Y-8000D01*
X334175Y-7250D02*X334925Y-6500D01*
X337175D01*
X337925Y-7250D01*
X334175Y-8750D02*X334925Y-9500D01*
X343175Y-7250D02*Y-11750D01*
X342425Y-6500D02*X343175Y-7250D01*
X343925Y-6500D01*
X345425D01*
X346175Y-7250D01*
Y-8750D01*
X345425Y-9500D02*X346175Y-8750D01*
X343925Y-9500D02*X345425D01*
X343175Y-8750D02*X343925Y-9500D01*
X350225Y-6500D02*X350975Y-7250D01*
X348725Y-6500D02*X350225D01*
X347975Y-7250D02*X348725Y-6500D01*
X347975Y-7250D02*Y-8750D01*
X348725Y-9500D01*
X350975Y-6500D02*Y-8750D01*
X351725Y-9500D01*
X348725D02*X350225D01*
X350975Y-8750D01*
X354275Y-3500D02*Y-8750D01*
X355025Y-9500D01*
X353525Y-5750D02*X355025D01*
X356525Y-3500D02*Y-9500D01*
Y-7250D02*X357275Y-6500D01*
X358775D01*
X359525Y-7250D01*
Y-9500D01*
X200750Y478500D02*Y472500D01*
X202700Y478500D02*X203750Y477450D01*
Y473550D01*
X202700Y472500D02*X203750Y473550D01*
X200000Y472500D02*X202700D01*
X200000Y478500D02*X202700D01*
X207800Y475500D02*X208550Y474750D01*
X206300Y475500D02*X207800D01*
X205550Y474750D02*X206300Y475500D01*
X205550Y474750D02*Y473250D01*
X206300Y472500D01*
X208550Y475500D02*Y473250D01*
X209300Y472500D01*
X206300D02*X207800D01*
X208550Y473250D01*
X211850Y478500D02*Y473250D01*
X212600Y472500D01*
X211100Y476250D02*X212600D01*
X214850Y472500D02*X217100D01*
X214100Y473250D02*X214850Y472500D01*
X214100Y474750D02*Y473250D01*
Y474750D02*X214850Y475500D01*
X216350D01*
X217100Y474750D01*
X214100Y474000D02*X217100D01*
Y474750D02*Y474000D01*
X218900Y476250D02*X219650D01*
X218900Y474750D02*X219650D01*
X224150Y478500D02*X227150D01*
X225650D02*Y472500D01*
X228950Y475500D02*Y473250D01*
X229700Y472500D01*
X231200D01*
X231950Y473250D01*
Y475500D02*Y473250D01*
X234500Y472500D02*X236750D01*
X233750Y473250D02*X234500Y472500D01*
X233750Y474750D02*Y473250D01*
Y474750D02*X234500Y475500D01*
X236000D01*
X236750Y474750D01*
X233750Y474000D02*X236750D01*
Y474750D02*Y474000D01*
X242300Y478500D02*X243500D01*
Y473250D01*
X242750Y472500D02*X243500Y473250D01*
X242000Y472500D02*X242750D01*
X241250Y473250D02*X242000Y472500D01*
X241250Y474000D02*Y473250D01*
X247550Y475500D02*X248300Y474750D01*
X246050Y475500D02*X247550D01*
X245300Y474750D02*X246050Y475500D01*
X245300Y474750D02*Y473250D01*
X246050Y472500D01*
X248300Y475500D02*Y473250D01*
X249050Y472500D01*
X246050D02*X247550D01*
X248300Y473250D01*
X251600Y474750D02*Y472500D01*
Y474750D02*X252350Y475500D01*
X253100D01*
X253850Y474750D01*
Y472500D01*
X250850Y475500D02*X251600Y474750D01*
X258350Y477300D02*X259550Y478500D01*
Y472500D01*
X258350D02*X260600D01*
X262400Y474750D02*X265400Y478500D01*
X262400Y474750D02*X266150D01*
X265400Y478500D02*Y472500D01*
X270650Y477750D02*X271400Y478500D01*
X273650D01*
X274400Y477750D01*
Y476250D01*
X270650Y472500D02*X274400Y476250D01*
X270650Y472500D02*X274400D01*
X276200Y477750D02*X276950Y478500D01*
X279200D01*
X279950Y477750D01*
Y476250D01*
X276200Y472500D02*X279950Y476250D01*
X276200Y472500D02*X279950D01*
X281750Y476250D02*X282500D01*
X281750Y474750D02*X282500D01*
X284300Y477300D02*X285500Y478500D01*
Y472500D01*
X284300D02*X286550D01*
X288350Y473250D02*X289100Y472500D01*
X288350Y474450D02*Y473250D01*
Y474450D02*X289400Y475500D01*
X290300D01*
X291350Y474450D01*
Y473250D01*
X290600Y472500D02*X291350Y473250D01*
X289100Y472500D02*X290600D01*
X288350Y476550D02*X289400Y475500D01*
X288350Y477750D02*Y476550D01*
Y477750D02*X289100Y478500D01*
X290600D01*
X291350Y477750D01*
Y476550D01*
X290300Y475500D02*X291350Y476550D01*
X293150Y476250D02*X293900D01*
X293150Y474750D02*X293900D01*
X295700D02*X298700Y478500D01*
X295700Y474750D02*X299450D01*
X298700Y478500D02*Y472500D01*
X301250Y478500D02*X304250D01*
X301250D02*Y475500D01*
X302000Y476250D01*
X303500D01*
X304250Y475500D01*
Y473250D01*
X303500Y472500D02*X304250Y473250D01*
X302000Y472500D02*X303500D01*
X301250Y473250D02*X302000Y472500D01*
X308750Y477750D02*X309500Y478500D01*
X311750D01*
X312500Y477750D01*
Y476250D01*
X308750Y472500D02*X312500Y476250D01*
X308750Y472500D02*X312500D01*
X314300Y473250D02*X315050Y472500D01*
X314300Y477750D02*Y473250D01*
Y477750D02*X315050Y478500D01*
X316550D01*
X317300Y477750D01*
Y473250D01*
X316550Y472500D02*X317300Y473250D01*
X315050Y472500D02*X316550D01*
X314300Y474000D02*X317300Y477000D01*
X319100Y477300D02*X320300Y478500D01*
Y472500D01*
X319100D02*X321350D01*
X323150Y474750D02*X326150Y478500D01*
X323150Y474750D02*X326900D01*
X326150Y478500D02*Y472500D01*
X331400Y478500D02*Y473250D01*
X332150Y472500D01*
X333650D01*
X334400Y473250D01*
Y478500D02*Y473250D01*
X336200Y478500D02*X339200D01*
X337700D02*Y472500D01*
X342050D02*X344000D01*
X341000Y473550D02*X342050Y472500D01*
X341000Y477450D02*Y473550D01*
Y477450D02*X342050Y478500D01*
X344000D01*
X200000Y492000D02*Y487500D01*
Y492000D02*X201050Y493500D01*
X202700D01*
X203750Y492000D01*
Y487500D01*
X200000Y490500D02*X203750D01*
X205550D02*Y488250D01*
X206300Y487500D01*
X207800D01*
X208550Y488250D01*
Y490500D02*Y488250D01*
X211100Y493500D02*Y488250D01*
X211850Y487500D01*
X210350Y491250D02*X211850D01*
X213350Y493500D02*Y487500D01*
Y489750D02*X214100Y490500D01*
X215600D01*
X216350Y489750D01*
Y487500D01*
X218150Y489750D02*Y488250D01*
Y489750D02*X218900Y490500D01*
X220400D01*
X221150Y489750D01*
Y488250D01*
X220400Y487500D02*X221150Y488250D01*
X218900Y487500D02*X220400D01*
X218150Y488250D02*X218900Y487500D01*
X223700Y489750D02*Y487500D01*
Y489750D02*X224450Y490500D01*
X225950D01*
X222950D02*X223700Y489750D01*
X227750Y491250D02*X228500D01*
X227750Y489750D02*X228500D01*
X200000Y508500D02*X203000D01*
X201500D02*Y502500D01*
G54D142*X204800Y507000D02*Y506850D01*
G54D141*Y504750D02*Y502500D01*
X207050Y508500D02*Y503250D01*
X207800Y502500D01*
X206300Y506250D02*X207800D01*
X209300Y508500D02*Y503250D01*
X210050Y502500D01*
X212300D02*X214550D01*
X211550Y503250D02*X212300Y502500D01*
X211550Y504750D02*Y503250D01*
Y504750D02*X212300Y505500D01*
X213800D01*
X214550Y504750D01*
X211550Y504000D02*X214550D01*
Y504750D02*Y504000D01*
X216350Y506250D02*X217100D01*
X216350Y504750D02*X217100D01*
X221600Y503250D02*X222350Y502500D01*
X221600Y507750D02*X222350Y508500D01*
X221600Y507750D02*Y503250D01*
X224150Y505500D02*Y503250D01*
X224900Y502500D01*
X226400D01*
X227150Y503250D01*
Y505500D02*Y503250D01*
X229700Y504750D02*Y502500D01*
Y504750D02*X230450Y505500D01*
X231200D01*
X231950Y504750D01*
Y502500D01*
X228950Y505500D02*X229700Y504750D01*
X233750Y508500D02*Y502500D01*
Y504750D02*X236000Y502500D01*
X233750Y504750D02*X235250Y506250D01*
X238550Y504750D02*Y502500D01*
Y504750D02*X239300Y505500D01*
X240050D01*
X240800Y504750D01*
Y502500D01*
X237800Y505500D02*X238550Y504750D01*
X242600D02*Y503250D01*
Y504750D02*X243350Y505500D01*
X244850D01*
X245600Y504750D01*
Y503250D01*
X244850Y502500D02*X245600Y503250D01*
X243350Y502500D02*X244850D01*
X242600Y503250D02*X243350Y502500D01*
X247400Y505500D02*Y503250D01*
X248150Y502500D01*
X248900D01*
X249650Y503250D01*
Y505500D02*Y503250D01*
X250400Y502500D01*
X251150D01*
X251900Y503250D01*
Y505500D02*Y503250D01*
X254450Y504750D02*Y502500D01*
Y504750D02*X255200Y505500D01*
X255950D01*
X256700Y504750D01*
Y502500D01*
X253700Y505500D02*X254450Y504750D01*
X258500Y508500D02*X259250Y507750D01*
Y503250D01*
X258500Y502500D02*X259250Y503250D01*
X263750Y505500D02*X266750D01*
X271250Y508500D02*Y502500D01*
Y508500D02*X274250D01*
X271250Y505800D02*X273500D01*
X278300Y505500D02*X279050Y504750D01*
X276800Y505500D02*X278300D01*
X276050Y504750D02*X276800Y505500D01*
X276050Y504750D02*Y503250D01*
X276800Y502500D01*
X279050Y505500D02*Y503250D01*
X279800Y502500D01*
X276800D02*X278300D01*
X279050Y503250D01*
X281600Y508500D02*Y502500D01*
Y503250D02*X282350Y502500D01*
X283850D01*
X284600Y503250D01*
Y504750D02*Y503250D01*
X283850Y505500D02*X284600Y504750D01*
X282350Y505500D02*X283850D01*
X281600Y504750D02*X282350Y505500D01*
X287150Y504750D02*Y502500D01*
Y504750D02*X287900Y505500D01*
X289400D01*
X286400D02*X287150Y504750D01*
G54D142*X291200Y507000D02*Y506850D01*
G54D141*Y504750D02*Y502500D01*
X293450Y505500D02*X295700D01*
X292700Y504750D02*X293450Y505500D01*
X292700Y504750D02*Y503250D01*
X293450Y502500D01*
X295700D01*
X299750Y505500D02*X300500Y504750D01*
X298250Y505500D02*X299750D01*
X297500Y504750D02*X298250Y505500D01*
X297500Y504750D02*Y503250D01*
X298250Y502500D01*
X300500Y505500D02*Y503250D01*
X301250Y502500D01*
X298250D02*X299750D01*
X300500Y503250D01*
X303800Y508500D02*Y503250D01*
X304550Y502500D01*
X303050Y506250D02*X304550D01*
G54D142*X306050Y507000D02*Y506850D01*
G54D141*Y504750D02*Y502500D01*
X307550Y504750D02*Y503250D01*
Y504750D02*X308300Y505500D01*
X309800D01*
X310550Y504750D01*
Y503250D01*
X309800Y502500D02*X310550Y503250D01*
X308300Y502500D02*X309800D01*
X307550Y503250D02*X308300Y502500D01*
X313100Y504750D02*Y502500D01*
Y504750D02*X313850Y505500D01*
X314600D01*
X315350Y504750D01*
Y502500D01*
X312350Y505500D02*X313100Y504750D01*
X320600Y508500D02*Y502500D01*
X322550Y508500D02*X323600Y507450D01*
Y503550D01*
X322550Y502500D02*X323600Y503550D01*
X319850Y502500D02*X322550D01*
X319850Y508500D02*X322550D01*
X326150Y504750D02*Y502500D01*
Y504750D02*X326900Y505500D01*
X328400D01*
X325400D02*X326150Y504750D01*
X332450Y505500D02*X333200Y504750D01*
X330950Y505500D02*X332450D01*
X330200Y504750D02*X330950Y505500D01*
X330200Y504750D02*Y503250D01*
X330950Y502500D01*
X333200Y505500D02*Y503250D01*
X333950Y502500D01*
X330950D02*X332450D01*
X333200Y503250D01*
X335750Y505500D02*Y503250D01*
X336500Y502500D01*
X337250D01*
X338000Y503250D01*
Y505500D02*Y503250D01*
X338750Y502500D01*
X339500D01*
X340250Y503250D01*
Y505500D02*Y503250D01*
G54D142*X342050Y507000D02*Y506850D01*
G54D141*Y504750D02*Y502500D01*
X344300Y504750D02*Y502500D01*
Y504750D02*X345050Y505500D01*
X345800D01*
X346550Y504750D01*
Y502500D01*
X343550Y505500D02*X344300Y504750D01*
X350600Y505500D02*X351350Y504750D01*
X349100Y505500D02*X350600D01*
X348350Y504750D02*X349100Y505500D01*
X348350Y504750D02*Y503250D01*
X349100Y502500D01*
X350600D01*
X351350Y503250D01*
X348350Y501000D02*X349100Y500250D01*
X350600D01*
X351350Y501000D01*
Y505500D02*Y501000D01*
M02*
