G04 start of page 4 for group 2 idx 2 *
G04 Title: (unknown), 4Sig *
G04 Creator: pcb 20110918 *
G04 CreationDate: Thu Jan  9 16:43:57 2014 UTC *
G04 For: fosse *
G04 Format: Gerber/RS-274X *
G04 PCB-Dimensions: 550000 850000 *
G04 PCB-Coordinate-Origin: lower left *
%MOIN*%
%FSLAX25Y25*%
%LNGROUP2*%
%ADD54C,0.0433*%
%ADD53C,0.0945*%
%ADD52C,0.1150*%
%ADD51C,0.2100*%
%ADD50C,0.0354*%
%ADD49C,0.1160*%
%ADD48C,0.0591*%
%ADD47C,0.0494*%
%ADD46C,0.1300*%
%ADD45C,0.2350*%
%ADD44C,0.0544*%
%ADD43C,0.2700*%
%ADD42C,0.0200*%
%ADD41C,0.0001*%
G54D41*G36*
X281500Y542000D02*Y568000D01*
X307500D01*
Y542000D01*
X281500D01*
G37*
G36*
X293000Y756000D02*Y736500D01*
X233500D01*
Y756000D01*
X293000D01*
G37*
G36*
X266480Y588500D02*X271500D01*
Y560000D01*
X266480D01*
Y562962D01*
X266485Y562962D01*
X267030Y563005D01*
X267561Y563132D01*
X268066Y563341D01*
X268532Y563627D01*
X268947Y563982D01*
X269302Y564397D01*
X269588Y564863D01*
X269797Y565368D01*
X269924Y565899D01*
X269956Y566444D01*
X269924Y566989D01*
X269797Y567520D01*
X269588Y568025D01*
X269302Y568491D01*
X268947Y568906D01*
X268532Y569261D01*
X268066Y569547D01*
X267561Y569756D01*
X267030Y569883D01*
X266485Y569926D01*
X266480Y569926D01*
Y588500D01*
G37*
G36*
X213330D02*X266480D01*
Y569926D01*
X265940Y569883D01*
X265409Y569756D01*
X264904Y569547D01*
X264438Y569261D01*
X264023Y568906D01*
X263668Y568491D01*
X263382Y568025D01*
X263173Y567520D01*
X263046Y566989D01*
X263003Y566444D01*
X263046Y565899D01*
X263173Y565368D01*
X263382Y564863D01*
X263668Y564397D01*
X264023Y563982D01*
X264438Y563627D01*
X264904Y563341D01*
X265409Y563132D01*
X265940Y563005D01*
X266480Y562962D01*
Y560000D01*
X213330D01*
Y562962D01*
X213335Y562962D01*
X213880Y563005D01*
X214411Y563132D01*
X214916Y563341D01*
X215382Y563627D01*
X215797Y563982D01*
X216152Y564397D01*
X216438Y564863D01*
X216647Y565368D01*
X216774Y565899D01*
X216806Y566444D01*
X216774Y566989D01*
X216647Y567520D01*
X216438Y568025D01*
X216152Y568491D01*
X215797Y568906D01*
X215382Y569261D01*
X214916Y569547D01*
X214411Y569756D01*
X213880Y569883D01*
X213335Y569926D01*
X213330Y569926D01*
Y588500D01*
G37*
G36*
X208000Y560000D02*Y588500D01*
X213330D01*
Y569926D01*
X212790Y569883D01*
X212259Y569756D01*
X211754Y569547D01*
X211288Y569261D01*
X210873Y568906D01*
X210518Y568491D01*
X210232Y568025D01*
X210023Y567520D01*
X209896Y566989D01*
X209853Y566444D01*
X209896Y565899D01*
X210023Y565368D01*
X210232Y564863D01*
X210518Y564397D01*
X210873Y563982D01*
X211288Y563627D01*
X211754Y563341D01*
X212259Y563132D01*
X212790Y563005D01*
X213330Y562962D01*
Y560000D01*
X208000D01*
G37*
G36*
X218500Y735500D02*X213070D01*
Y738473D01*
X213076Y738473D01*
X213660Y738519D01*
X214230Y738656D01*
X214771Y738880D01*
X215270Y739186D01*
X215716Y739566D01*
X216096Y740012D01*
X216402Y740511D01*
X216626Y741052D01*
X216763Y741622D01*
X216798Y742206D01*
X216763Y742790D01*
X216626Y743360D01*
X216402Y743901D01*
X216096Y744400D01*
X215716Y744846D01*
X215270Y745226D01*
X214771Y745532D01*
X214230Y745756D01*
X213660Y745893D01*
X213076Y745939D01*
X213070Y745939D01*
Y764500D01*
X218500D01*
Y735500D01*
G37*
G36*
X213070D02*X159920D01*
Y738473D01*
X159926Y738473D01*
X160510Y738519D01*
X161080Y738656D01*
X161621Y738880D01*
X162120Y739186D01*
X162566Y739566D01*
X162946Y740012D01*
X163252Y740511D01*
X163476Y741052D01*
X163613Y741622D01*
X163648Y742206D01*
X163613Y742790D01*
X163476Y743360D01*
X163252Y743901D01*
X162946Y744400D01*
X162566Y744846D01*
X162120Y745226D01*
X161621Y745532D01*
X161080Y745756D01*
X160510Y745893D01*
X159926Y745939D01*
X159920Y745939D01*
Y764500D01*
X213070D01*
Y745939D01*
X212492Y745893D01*
X211922Y745756D01*
X211381Y745532D01*
X210882Y745226D01*
X210436Y744846D01*
X210056Y744400D01*
X209750Y743901D01*
X209526Y743360D01*
X209389Y742790D01*
X209343Y742206D01*
X209389Y741622D01*
X209526Y741052D01*
X209750Y740511D01*
X210056Y740012D01*
X210436Y739566D01*
X210882Y739186D01*
X211381Y738880D01*
X211922Y738656D01*
X212492Y738519D01*
X213070Y738473D01*
Y735500D01*
G37*
G36*
X159920D02*X154000D01*
Y764500D01*
X159920D01*
Y745939D01*
X159342Y745893D01*
X158772Y745756D01*
X158231Y745532D01*
X157732Y745226D01*
X157286Y744846D01*
X156906Y744400D01*
X156600Y743901D01*
X156376Y743360D01*
X156239Y742790D01*
X156193Y742206D01*
X156239Y741622D01*
X156376Y741052D01*
X156600Y740511D01*
X156906Y740012D01*
X157286Y739566D01*
X157732Y739186D01*
X158231Y738880D01*
X158772Y738656D01*
X159342Y738519D01*
X159920Y738473D01*
Y735500D01*
G37*
G36*
X49500Y642000D02*Y684000D01*
X78000D01*
Y642000D01*
X49500D01*
G37*
G36*
X438000Y647000D02*X398000D01*
X392500Y641500D01*
Y604500D01*
X397500Y599500D01*
X437500D01*
Y596500D01*
X396000D01*
X389500Y603000D01*
Y642500D01*
X397000Y650000D01*
X438000D01*
Y647000D01*
G37*
G54D42*X79000Y564000D02*Y608400D01*
X48000Y608500D02*X79000D01*
X48000Y564000D02*Y608500D01*
Y564000D02*X79000D01*
Y564100D02*Y608500D01*
X47500Y640000D02*X80000D01*
Y685900D01*
X79900Y686000D01*
X47500D01*
Y640000D01*
G54D43*X186500Y707000D03*
G54D44*X213076Y742206D03*
G54D45*X209350Y673000D03*
X163850D03*
G54D43*X239910Y606240D03*
G54D46*X327110Y552090D03*
X353110D03*
G54D47*X266485Y566444D03*
X213335D03*
G54D44*X159926Y742206D03*
G54D48*X430327Y626256D03*
X412610D03*
G54D45*X262410Y639240D03*
X216910D03*
G54D49*G54D50*G54D51*G54D49*G54D52*G54D50*G54D53*G54D50*G54D54*G54D51*M02*
