G04 start of page 5 for group 3 idx 3 *
G04 Title: (unknown), 3GND *
G04 Creator: pcb 20110918 *
G04 CreationDate: Mon Dec 30 21:59:35 2013 UTC *
G04 For: fosse *
G04 Format: Gerber/RS-274X *
G04 PCB-Dimensions: 550000 450000 *
G04 PCB-Coordinate-Origin: lower left *
%MOIN*%
%FSLAX25Y25*%
%LNBOTTOM*%
%ADD78C,0.0354*%
%ADD77C,0.0433*%
%ADD76C,0.1150*%
%ADD75C,0.0945*%
%ADD74C,0.2100*%
%ADD73C,0.1160*%
%ADD72R,0.0157X0.0157*%
%ADD71R,0.0158X0.0158*%
%ADD70R,0.0551X0.0551*%
%ADD69R,0.0177X0.0177*%
%ADD68R,0.0748X0.0748*%
%ADD67R,0.0827X0.0827*%
%ADD66R,0.0236X0.0236*%
%ADD65R,0.0354X0.0354*%
%ADD64R,0.0197X0.0197*%
%ADD63R,0.0197X0.0197*%
%ADD62R,0.3307X0.3307*%
%ADD61R,0.0866X0.0866*%
%ADD60R,0.0118X0.0118*%
%ADD59R,0.0236X0.0236*%
%ADD58R,0.0335X0.0335*%
%ADD57R,0.0551X0.0551*%
%ADD56C,0.0494*%
%ADD55C,0.0544*%
%ADD54C,0.0591*%
%ADD53C,0.1300*%
%ADD52C,0.2350*%
%ADD51C,0.2700*%
G54D51*X239910Y206240D03*
X186500Y307000D03*
G54D52*X216910Y239240D03*
X209350Y273000D03*
G54D53*X353110Y152090D03*
G54D54*X430327Y226256D03*
X412610D03*
G54D55*X159926Y342206D03*
G54D52*X163850Y273000D03*
G54D53*X327110Y152090D03*
G54D56*X266485Y166444D03*
G54D52*X262410Y239240D03*
G54D56*X213335Y166444D03*
G54D55*X213076Y342206D03*
G54D57*X71284Y202185D02*Y196870D01*
X63410Y202185D02*Y196870D01*
X55536Y202185D02*Y196870D01*
X71284Y175610D02*Y170295D01*
X55536Y175610D02*Y170295D01*
X107284Y161685D02*Y156370D01*
Y135110D02*Y129795D01*
X99410Y161685D02*Y156370D01*
X91536Y161685D02*Y156370D01*
Y135110D02*Y129795D01*
G54D58*X61619Y348158D02*Y346386D01*
G54D59*X65497Y343532D02*Y342744D01*
G54D60*X72545Y342941D02*X74513D01*
X72545Y340973D02*X74513D01*
G54D61*X67623Y352980D02*Y349043D01*
G54D62*X112061Y378554D02*Y370679D01*
G54D60*X72545Y305540D02*X74513D01*
G54D59*X65497Y305737D02*Y304949D01*
G54D58*X61619Y302095D02*Y300323D01*
G54D61*X67622Y299437D02*Y295500D01*
G54D60*X72545Y307508D02*X74513D01*
X72545Y309477D02*X74513D01*
X72545Y311445D02*X74513D01*
X72545Y321288D02*X74513D01*
X72545Y323256D02*X74513D01*
X72545Y325225D02*X74513D01*
X72545Y327193D02*X74513D01*
X72545Y329162D02*X74513D01*
X72545Y331130D02*X74513D01*
X72545Y333099D02*X74513D01*
X72545Y335067D02*X74513D01*
X72545Y337036D02*X74513D01*
X72545Y339004D02*X74513D01*
X72545Y313414D02*X74513D01*
X72545Y315382D02*X74513D01*
X72545Y317351D02*X74513D01*
X72545Y319319D02*X74513D01*
G54D57*X71284Y252610D02*Y247295D01*
Y279185D02*Y273870D01*
X63410Y279185D02*Y273870D01*
X55536Y279185D02*Y273870D01*
Y252610D02*Y247295D01*
G54D63*X261957Y185696D02*Y181640D01*
X258807Y185696D02*Y181640D01*
X255657Y185696D02*Y181640D01*
X252508Y185696D02*Y181640D01*
G54D64*X249359Y185696D02*Y181641D01*
G54D63*X261957Y166601D02*Y162546D01*
X258807Y166601D02*Y162546D01*
X255657Y166601D02*Y162546D01*
X252508Y166601D02*Y162546D01*
G54D64*X249359Y166601D02*Y162547D01*
G54D63*X217862Y185696D02*Y181640D01*
X221012Y185696D02*Y181640D01*
X224161Y185696D02*Y181640D01*
X227311Y185696D02*Y181640D01*
X230460Y185696D02*Y181640D01*
G54D64*X233611Y185696D02*Y181641D01*
G54D63*X236760Y185696D02*Y181640D01*
X239909Y185696D02*Y181640D01*
X243059Y185696D02*Y181640D01*
X246208Y185696D02*Y181640D01*
X217862Y166601D02*Y162546D01*
X221012Y166601D02*Y162546D01*
X224161Y166601D02*Y162546D01*
X227311Y166601D02*Y162546D01*
X230460Y166601D02*Y162546D01*
G54D64*X233611Y166601D02*Y162547D01*
G54D63*X236760Y166601D02*Y162546D01*
X239909Y166601D02*Y162546D01*
X243059Y166601D02*Y162546D01*
X246208Y166601D02*Y162546D01*
G54D65*X392100Y329890D02*X392847D01*
X392100Y334890D02*X392847D01*
X392100Y339890D02*X392847D01*
X392100Y344890D02*X392847D01*
X392100Y349890D02*X392847D01*
X392100Y354890D02*X392847D01*
G54D57*X391883Y364162D02*Y361012D01*
G54D66*X367158Y300164D02*Y297410D01*
G54D59*X371489Y300165D02*Y297409D01*
X375820Y300165D02*Y297409D01*
G54D64*X381252Y300755D02*X389126D01*
G54D67*X402571Y236689D02*X402965D01*
G54D62*X404063Y266000D02*X411938D01*
G54D68*X423043Y239051D02*X425799D01*
X423043Y207949D02*X425799D01*
G54D67*X400996Y219760D02*X401390D01*
X411626Y211098D02*X412020D01*
G54D59*X338812Y300165D02*Y297409D01*
G54D66*X342158Y300164D02*Y297410D01*
G54D59*X345505Y300165D02*Y297409D01*
X349836Y300165D02*Y297409D01*
X354166Y300165D02*Y297409D01*
X358497Y300165D02*Y297409D01*
X362828Y300165D02*Y297409D01*
G54D64*X320622Y300755D02*X328300D01*
G54D69*X320524Y309319D02*Y300657D01*
G54D70*X318654Y364162D02*Y361012D01*
G54D71*X279943Y353402D02*Y348678D01*
X276006Y353402D02*Y348678D01*
G54D72*X281911Y343953D02*Y339228D01*
G54D71*X272069Y353402D02*Y348678D01*
G54D72*X277974Y343953D02*Y339228D01*
X274037Y343953D02*Y339228D01*
G54D59*X285848Y353008D02*Y349071D01*
Y343559D02*Y339622D01*
G54D71*X268132Y353402D02*Y348678D01*
X264195Y353402D02*Y348678D01*
X260258Y353402D02*Y348678D01*
X256321Y353402D02*Y348678D01*
X252384Y353402D02*Y348678D01*
X248447Y353402D02*Y348678D01*
X244510Y353402D02*Y348678D01*
G54D59*X240572Y353008D02*Y349071D01*
G54D72*X270100Y343953D02*Y339228D01*
X266163Y343953D02*Y339228D01*
G54D71*X262226Y343953D02*Y339229D01*
X258289Y343953D02*Y339229D01*
X254352Y343953D02*Y339229D01*
X250415Y343953D02*Y339229D01*
X246478Y343953D02*Y339229D01*
G54D59*X240572Y343559D02*Y339622D01*
G54D62*X244439Y288821D02*Y280946D01*
G54D63*X208548Y361458D02*Y357402D01*
X205398Y361458D02*Y357402D01*
X202248Y361458D02*Y357402D01*
X199099Y361458D02*Y357402D01*
G54D64*X195950Y361458D02*Y357403D01*
G54D63*X164453Y361458D02*Y357402D01*
X167603Y361458D02*Y357402D01*
X170752Y361458D02*Y357402D01*
X173902Y361458D02*Y357402D01*
X177051Y361458D02*Y357402D01*
G54D64*X180202Y361458D02*Y357403D01*
G54D63*X183351Y361458D02*Y357402D01*
X186500Y361458D02*Y357402D01*
X189650Y361458D02*Y357402D01*
X192799Y361458D02*Y357402D01*
X208548Y342363D02*Y338308D01*
X205398Y342363D02*Y338308D01*
X202248Y342363D02*Y338308D01*
X199099Y342363D02*Y338308D01*
G54D64*X195950Y342363D02*Y338309D01*
G54D63*X164453Y342363D02*Y338308D01*
X167603Y342363D02*Y338308D01*
X170752Y342363D02*Y338308D01*
X173902Y342363D02*Y338308D01*
X177051Y342363D02*Y338308D01*
G54D64*X180202Y342363D02*Y338309D01*
G54D63*X183351Y342363D02*Y338308D01*
X186500Y342363D02*Y338308D01*
X189650Y342363D02*Y338308D01*
X192799Y342363D02*Y338308D01*
G54D62*X181561Y221054D02*Y213179D01*
G54D73*G54D74*G54D75*G54D76*G54D77*G54D78*G54D74*G54D76*G54D78*G54D74*G54D78*M02*
