G04 start of page 3 for group 3 idx 3 *
G04 Title: (unknown), 3GND *
G04 Creator: pcb 20110918 *
G04 CreationDate: Thu May 15 21:16:40 2014 UTC *
G04 For: fosse *
G04 Format: Gerber/RS-274X *
G04 PCB-Dimensions: 550000 450000 *
G04 PCB-Coordinate-Origin: lower left *
%MOIN*%
%FSLAX25Y25*%
%LNBOTTOM*%
%ADD53C,0.1150*%
%ADD52C,0.0945*%
%ADD51C,0.0354*%
%ADD50C,0.1090*%
%ADD49C,0.2100*%
%ADD48C,0.1160*%
%ADD47R,0.0236X0.0236*%
%ADD46R,0.0177X0.0177*%
%ADD45R,0.0551X0.0551*%
%ADD44R,0.0354X0.0354*%
%ADD43R,0.0551X0.0551*%
%ADD42R,0.0197X0.0197*%
%ADD41R,0.0866X0.0866*%
%ADD40R,0.0335X0.0335*%
%ADD39R,0.0118X0.0118*%
%ADD38R,0.0197X0.0197*%
%ADD37R,0.0236X0.0236*%
%ADD36R,0.0157X0.0157*%
%ADD35R,0.0158X0.0158*%
%ADD34R,0.3307X0.3307*%
%ADD33C,0.1300*%
%ADD32C,0.0494*%
%ADD31C,0.0544*%
%ADD30C,0.2500*%
%ADD29C,0.2350*%
%ADD28C,0.2700*%
%ADD27C,0.0060*%
%ADD26C,0.0001*%
G54D26*G36*
X252201Y211801D02*X252559Y210958D01*
X252929Y209811D01*
X253196Y208637D01*
X253356Y207443D01*
X253410Y206240D01*
X253356Y205037D01*
X253196Y203843D01*
X252929Y202669D01*
X252559Y201522D01*
X252201Y200679D01*
Y211801D01*
G37*
G36*
X273205Y243852D02*X273440Y243290D01*
X273753Y242305D01*
X273979Y241297D01*
X274115Y240272D01*
X274160Y239240D01*
X274115Y238208D01*
X273979Y237183D01*
X273753Y236175D01*
X273440Y235190D01*
X273205Y234628D01*
Y243852D01*
G37*
G36*
X431045Y393357D02*X431333Y392674D01*
X431670Y391620D01*
X431913Y390540D01*
X432060Y389444D01*
X432109Y388338D01*
X432060Y387232D01*
X431913Y386136D01*
X431670Y385056D01*
X431333Y384002D01*
X431045Y383319D01*
Y393357D01*
G37*
G36*
Y143357D02*X431333Y142674D01*
X431670Y141620D01*
X431913Y140540D01*
X432060Y139444D01*
X432109Y138338D01*
X432060Y137232D01*
X431913Y136136D01*
X431670Y135056D01*
X431333Y134002D01*
X431045Y133319D01*
Y143357D01*
G37*
G36*
Y405000D02*X438000D01*
X437500Y122000D01*
X431045D01*
Y131161D01*
X431259Y131491D01*
X431819Y132548D01*
X432283Y133651D01*
X432648Y134790D01*
X432911Y135957D01*
X433069Y137143D01*
X433122Y138338D01*
X433069Y139533D01*
X432911Y140719D01*
X432648Y141886D01*
X432283Y143025D01*
X431819Y144128D01*
X431259Y145185D01*
X431045Y145515D01*
Y252143D01*
X431063Y252153D01*
X431182Y252256D01*
X431285Y252375D01*
X431367Y252510D01*
X431427Y252655D01*
X431464Y252808D01*
X431473Y252965D01*
X431464Y286192D01*
X431427Y286345D01*
X431367Y286490D01*
X431285Y286625D01*
X431182Y286744D01*
X431063Y286847D01*
X431045Y286857D01*
Y381161D01*
X431259Y381491D01*
X431819Y382548D01*
X432283Y383651D01*
X432648Y384790D01*
X432911Y385957D01*
X433069Y387143D01*
X433122Y388338D01*
X433069Y389533D01*
X432911Y390719D01*
X432648Y391886D01*
X432283Y393025D01*
X431819Y394128D01*
X431259Y395185D01*
X431045Y395515D01*
Y405000D01*
G37*
G36*
Y122000D02*X419615D01*
Y124825D01*
X420804Y124878D01*
X421990Y125036D01*
X423157Y125299D01*
X424296Y125664D01*
X425399Y126128D01*
X426456Y126688D01*
X427460Y127339D01*
X428402Y128077D01*
X428459Y128133D01*
X428506Y128199D01*
X428543Y128271D01*
X428568Y128347D01*
X428580Y128427D01*
X428580Y128508D01*
X428567Y128587D01*
X428542Y128664D01*
X428505Y128736D01*
X428458Y128801D01*
X428401Y128858D01*
X428336Y128905D01*
X428264Y128941D01*
X428187Y128966D01*
X428107Y128979D01*
X428027Y128979D01*
X427947Y128966D01*
X427870Y128941D01*
X427799Y128904D01*
X427734Y128855D01*
X426871Y128164D01*
X425943Y127561D01*
X424965Y127044D01*
X423945Y126614D01*
X422891Y126277D01*
X421811Y126034D01*
X420715Y125887D01*
X419615Y125838D01*
Y150838D01*
X420715Y150789D01*
X421811Y150642D01*
X422891Y150399D01*
X423945Y150062D01*
X424965Y149632D01*
X425943Y149115D01*
X426871Y148512D01*
X427742Y147830D01*
X427805Y147782D01*
X427875Y147747D01*
X427950Y147722D01*
X428028Y147710D01*
X428106Y147710D01*
X428184Y147722D01*
X428259Y147746D01*
X428329Y147782D01*
X428393Y147828D01*
X428449Y147883D01*
X428495Y147947D01*
X428531Y148017D01*
X428555Y148092D01*
X428568Y148169D01*
X428568Y148248D01*
X428556Y148326D01*
X428531Y148401D01*
X428496Y148471D01*
X428450Y148535D01*
X428393Y148589D01*
X427460Y149337D01*
X426456Y149988D01*
X425399Y150548D01*
X424296Y151012D01*
X423157Y151377D01*
X421990Y151640D01*
X420804Y151798D01*
X419615Y151851D01*
Y251972D01*
X430630Y251974D01*
X430783Y252011D01*
X430928Y252071D01*
X431045Y252143D01*
Y145515D01*
X430608Y146189D01*
X429870Y147131D01*
X429814Y147188D01*
X429748Y147235D01*
X429676Y147272D01*
X429600Y147297D01*
X429520Y147309D01*
X429439Y147309D01*
X429360Y147296D01*
X429283Y147271D01*
X429211Y147234D01*
X429146Y147187D01*
X429089Y147130D01*
X429042Y147065D01*
X429006Y146993D01*
X428981Y146916D01*
X428968Y146836D01*
X428968Y146756D01*
X428981Y146676D01*
X429006Y146599D01*
X429043Y146528D01*
X429092Y146463D01*
X429783Y145600D01*
X430386Y144672D01*
X430903Y143694D01*
X431045Y143357D01*
Y133319D01*
X430903Y132982D01*
X430386Y132004D01*
X429783Y131076D01*
X429101Y130205D01*
X429053Y130142D01*
X429018Y130072D01*
X428993Y129997D01*
X428981Y129919D01*
X428981Y129841D01*
X428993Y129763D01*
X429017Y129688D01*
X429053Y129618D01*
X429099Y129554D01*
X429154Y129498D01*
X429218Y129452D01*
X429288Y129416D01*
X429363Y129392D01*
X429440Y129379D01*
X429519Y129379D01*
X429597Y129391D01*
X429672Y129416D01*
X429742Y129451D01*
X429806Y129497D01*
X429860Y129554D01*
X430608Y130487D01*
X431045Y131161D01*
Y122000D01*
G37*
G36*
X419615Y405000D02*X431045D01*
Y395515D01*
X430608Y396189D01*
X429870Y397131D01*
X429814Y397188D01*
X429748Y397235D01*
X429676Y397272D01*
X429600Y397297D01*
X429520Y397309D01*
X429439Y397309D01*
X429360Y397296D01*
X429283Y397271D01*
X429211Y397234D01*
X429146Y397187D01*
X429089Y397130D01*
X429042Y397065D01*
X429006Y396993D01*
X428981Y396916D01*
X428968Y396836D01*
X428968Y396756D01*
X428981Y396676D01*
X429006Y396599D01*
X429043Y396528D01*
X429092Y396463D01*
X429783Y395600D01*
X430386Y394672D01*
X430903Y393694D01*
X431045Y393357D01*
Y383319D01*
X430903Y382982D01*
X430386Y382004D01*
X429783Y381076D01*
X429101Y380205D01*
X429053Y380142D01*
X429018Y380072D01*
X428993Y379997D01*
X428981Y379919D01*
X428981Y379841D01*
X428993Y379763D01*
X429017Y379688D01*
X429053Y379618D01*
X429099Y379554D01*
X429154Y379498D01*
X429218Y379452D01*
X429288Y379416D01*
X429363Y379392D01*
X429440Y379379D01*
X429519Y379379D01*
X429597Y379391D01*
X429672Y379416D01*
X429742Y379451D01*
X429806Y379497D01*
X429860Y379554D01*
X430608Y380487D01*
X431045Y381161D01*
Y286857D01*
X430928Y286929D01*
X430783Y286989D01*
X430630Y287026D01*
X430473Y287035D01*
X419615Y287033D01*
Y374825D01*
X420804Y374878D01*
X421990Y375036D01*
X423157Y375299D01*
X424296Y375664D01*
X425399Y376128D01*
X426456Y376688D01*
X427460Y377339D01*
X428402Y378077D01*
X428459Y378133D01*
X428506Y378199D01*
X428543Y378271D01*
X428568Y378347D01*
X428580Y378427D01*
X428580Y378508D01*
X428567Y378587D01*
X428542Y378664D01*
X428505Y378736D01*
X428458Y378801D01*
X428401Y378858D01*
X428336Y378905D01*
X428264Y378941D01*
X428187Y378966D01*
X428107Y378979D01*
X428027Y378979D01*
X427947Y378966D01*
X427870Y378941D01*
X427799Y378904D01*
X427734Y378855D01*
X426871Y378164D01*
X425943Y377561D01*
X424965Y377044D01*
X423945Y376614D01*
X422891Y376277D01*
X421811Y376034D01*
X420715Y375887D01*
X419615Y375838D01*
Y400838D01*
X420715Y400789D01*
X421811Y400642D01*
X422891Y400399D01*
X423945Y400062D01*
X424965Y399632D01*
X425943Y399115D01*
X426871Y398512D01*
X427742Y397830D01*
X427805Y397782D01*
X427875Y397747D01*
X427950Y397722D01*
X428028Y397710D01*
X428106Y397710D01*
X428184Y397722D01*
X428259Y397746D01*
X428329Y397782D01*
X428393Y397828D01*
X428449Y397883D01*
X428495Y397947D01*
X428531Y398017D01*
X428555Y398092D01*
X428568Y398169D01*
X428568Y398248D01*
X428556Y398326D01*
X428531Y398401D01*
X428496Y398471D01*
X428450Y398535D01*
X428393Y398589D01*
X427460Y399337D01*
X426456Y399988D01*
X425399Y400548D01*
X424296Y401012D01*
X423157Y401377D01*
X421990Y401640D01*
X420804Y401798D01*
X419615Y401851D01*
Y405000D01*
G37*
G36*
X408173Y251969D02*X419615Y251972D01*
Y151851D01*
X419609Y151851D01*
X418414Y151798D01*
X417228Y151640D01*
X416061Y151377D01*
X414922Y151012D01*
X413819Y150548D01*
X412762Y149988D01*
X411758Y149337D01*
X410816Y148599D01*
X410759Y148543D01*
X410712Y148477D01*
X410675Y148405D01*
X410650Y148329D01*
X410638Y148249D01*
X410638Y148168D01*
X410651Y148089D01*
X410676Y148012D01*
X410713Y147940D01*
X410760Y147875D01*
X410817Y147818D01*
X410882Y147771D01*
X410954Y147735D01*
X411031Y147710D01*
X411111Y147697D01*
X411191Y147697D01*
X411271Y147710D01*
X411348Y147735D01*
X411419Y147772D01*
X411484Y147821D01*
X412347Y148512D01*
X413275Y149115D01*
X414253Y149632D01*
X415273Y150062D01*
X416327Y150399D01*
X417407Y150642D01*
X418503Y150789D01*
X419609Y150838D01*
X419615Y150838D01*
Y125838D01*
X419609Y125838D01*
X418503Y125887D01*
X417407Y126034D01*
X416327Y126277D01*
X415273Y126614D01*
X414253Y127044D01*
X413275Y127561D01*
X412347Y128164D01*
X411476Y128846D01*
X411413Y128894D01*
X411343Y128929D01*
X411268Y128954D01*
X411190Y128966D01*
X411112Y128966D01*
X411034Y128954D01*
X410959Y128930D01*
X410889Y128894D01*
X410825Y128848D01*
X410769Y128793D01*
X410723Y128729D01*
X410687Y128659D01*
X410663Y128584D01*
X410650Y128507D01*
X410650Y128428D01*
X410662Y128350D01*
X410687Y128275D01*
X410722Y128205D01*
X410768Y128141D01*
X410825Y128087D01*
X411758Y127339D01*
X412762Y126688D01*
X413819Y126128D01*
X414922Y125664D01*
X416061Y125299D01*
X417228Y125036D01*
X418414Y124878D01*
X419609Y124825D01*
X419615Y124825D01*
Y122000D01*
X408173D01*
Y131161D01*
X408610Y130487D01*
X409348Y129545D01*
X409404Y129488D01*
X409470Y129441D01*
X409542Y129404D01*
X409618Y129379D01*
X409698Y129367D01*
X409779Y129367D01*
X409858Y129380D01*
X409935Y129405D01*
X410007Y129442D01*
X410072Y129489D01*
X410129Y129546D01*
X410176Y129611D01*
X410212Y129683D01*
X410237Y129760D01*
X410250Y129840D01*
X410250Y129920D01*
X410237Y130000D01*
X410212Y130077D01*
X410175Y130148D01*
X410126Y130213D01*
X409435Y131076D01*
X408832Y132004D01*
X408315Y132982D01*
X408173Y133319D01*
Y143357D01*
X408315Y143694D01*
X408832Y144672D01*
X409435Y145600D01*
X410117Y146471D01*
X410165Y146534D01*
X410200Y146604D01*
X410225Y146679D01*
X410237Y146757D01*
X410237Y146835D01*
X410225Y146913D01*
X410201Y146988D01*
X410165Y147058D01*
X410119Y147122D01*
X410064Y147178D01*
X410000Y147224D01*
X409930Y147260D01*
X409855Y147284D01*
X409778Y147297D01*
X409699Y147297D01*
X409621Y147285D01*
X409546Y147260D01*
X409476Y147225D01*
X409412Y147179D01*
X409358Y147122D01*
X408610Y146189D01*
X408173Y145515D01*
Y251969D01*
G37*
G36*
Y405000D02*X419615D01*
Y401851D01*
X419609Y401851D01*
X418414Y401798D01*
X417228Y401640D01*
X416061Y401377D01*
X414922Y401012D01*
X413819Y400548D01*
X412762Y399988D01*
X411758Y399337D01*
X410816Y398599D01*
X410759Y398543D01*
X410712Y398477D01*
X410675Y398405D01*
X410650Y398329D01*
X410638Y398249D01*
X410638Y398168D01*
X410651Y398089D01*
X410676Y398012D01*
X410713Y397940D01*
X410760Y397875D01*
X410817Y397818D01*
X410882Y397771D01*
X410954Y397735D01*
X411031Y397710D01*
X411111Y397697D01*
X411191Y397697D01*
X411271Y397710D01*
X411348Y397735D01*
X411419Y397772D01*
X411484Y397821D01*
X412347Y398512D01*
X413275Y399115D01*
X414253Y399632D01*
X415273Y400062D01*
X416327Y400399D01*
X417407Y400642D01*
X418503Y400789D01*
X419609Y400838D01*
X419615Y400838D01*
Y375838D01*
X419609Y375838D01*
X418503Y375887D01*
X417407Y376034D01*
X416327Y376277D01*
X415273Y376614D01*
X414253Y377044D01*
X413275Y377561D01*
X412347Y378164D01*
X411476Y378846D01*
X411413Y378894D01*
X411343Y378929D01*
X411268Y378954D01*
X411190Y378966D01*
X411112Y378966D01*
X411034Y378954D01*
X410959Y378930D01*
X410889Y378894D01*
X410825Y378848D01*
X410769Y378793D01*
X410723Y378729D01*
X410687Y378659D01*
X410663Y378584D01*
X410650Y378507D01*
X410650Y378428D01*
X410662Y378350D01*
X410687Y378275D01*
X410722Y378205D01*
X410768Y378141D01*
X410825Y378087D01*
X411758Y377339D01*
X412762Y376688D01*
X413819Y376128D01*
X414922Y375664D01*
X416061Y375299D01*
X417228Y375036D01*
X418414Y374878D01*
X419609Y374825D01*
X419615Y374825D01*
Y287033D01*
X408173Y287030D01*
Y381161D01*
X408610Y380487D01*
X409348Y379545D01*
X409404Y379488D01*
X409470Y379441D01*
X409542Y379404D01*
X409618Y379379D01*
X409698Y379367D01*
X409779Y379367D01*
X409858Y379380D01*
X409935Y379405D01*
X410007Y379442D01*
X410072Y379489D01*
X410129Y379546D01*
X410176Y379611D01*
X410212Y379683D01*
X410237Y379760D01*
X410250Y379840D01*
X410250Y379920D01*
X410237Y380000D01*
X410212Y380077D01*
X410175Y380148D01*
X410126Y380213D01*
X409435Y381076D01*
X408832Y382004D01*
X408315Y382982D01*
X408173Y383319D01*
Y393357D01*
X408315Y393694D01*
X408832Y394672D01*
X409435Y395600D01*
X410117Y396471D01*
X410165Y396534D01*
X410200Y396604D01*
X410225Y396679D01*
X410237Y396757D01*
X410237Y396835D01*
X410225Y396913D01*
X410201Y396988D01*
X410165Y397058D01*
X410119Y397122D01*
X410064Y397178D01*
X410000Y397224D01*
X409930Y397260D01*
X409855Y397284D01*
X409778Y397297D01*
X409699Y397297D01*
X409621Y397285D01*
X409546Y397260D01*
X409476Y397225D01*
X409412Y397179D01*
X409358Y397122D01*
X408610Y396189D01*
X408173Y395515D01*
Y405000D01*
G37*
G36*
Y383319D02*X407885Y384002D01*
X407548Y385056D01*
X407305Y386136D01*
X407158Y387232D01*
X407109Y388338D01*
X407158Y389444D01*
X407305Y390540D01*
X407548Y391620D01*
X407885Y392674D01*
X408173Y393357D01*
Y383319D01*
G37*
G36*
Y133319D02*X407885Y134002D01*
X407548Y135056D01*
X407305Y136136D01*
X407158Y137232D01*
X407109Y138338D01*
X407158Y139444D01*
X407305Y140540D01*
X407548Y141620D01*
X407885Y142674D01*
X408173Y143357D01*
Y133319D01*
G37*
G36*
X378992Y292000D02*X394500D01*
X399000Y296500D01*
Y371500D01*
X394500Y376000D01*
X389000D01*
Y405000D01*
X408173D01*
Y395515D01*
X407959Y395185D01*
X407399Y394128D01*
X406935Y393025D01*
X406570Y391886D01*
X406307Y390719D01*
X406149Y389533D01*
X406096Y388338D01*
X406149Y387143D01*
X406307Y385957D01*
X406570Y384790D01*
X406935Y383651D01*
X407399Y382548D01*
X407959Y381491D01*
X408173Y381161D01*
Y287030D01*
X389371Y287026D01*
X389218Y286989D01*
X389073Y286929D01*
X388938Y286847D01*
X388819Y286744D01*
X388716Y286625D01*
X388634Y286490D01*
X388574Y286345D01*
X388537Y286192D01*
X388528Y286035D01*
X388537Y252808D01*
X388574Y252655D01*
X388634Y252510D01*
X388716Y252375D01*
X388819Y252256D01*
X388938Y252153D01*
X389073Y252071D01*
X389218Y252011D01*
X389371Y251974D01*
X389528Y251965D01*
X408173Y251969D01*
Y145515D01*
X407959Y145185D01*
X407399Y144128D01*
X406935Y143025D01*
X406570Y141886D01*
X406307Y140719D01*
X406149Y139533D01*
X406096Y138338D01*
X406149Y137143D01*
X406307Y135957D01*
X406570Y134790D01*
X406935Y133651D01*
X407399Y132548D01*
X407959Y131491D01*
X408173Y131161D01*
Y122000D01*
X378992D01*
Y147172D01*
X379000Y147172D01*
X379834Y147237D01*
X380647Y147432D01*
X381419Y147752D01*
X382132Y148189D01*
X382768Y148732D01*
X383311Y149368D01*
X383748Y150081D01*
X384068Y150853D01*
X384263Y151666D01*
X384312Y152500D01*
X384263Y153334D01*
X384068Y154147D01*
X383748Y154919D01*
X383311Y155632D01*
X382768Y156268D01*
X382132Y156811D01*
X381419Y157248D01*
X380647Y157568D01*
X379834Y157763D01*
X379000Y157828D01*
X378992Y157828D01*
Y213154D01*
X379021Y213141D01*
X379159Y213108D01*
X379300Y213097D01*
X379441Y213108D01*
X379579Y213141D01*
X379710Y213196D01*
X379831Y213270D01*
X379938Y213362D01*
X380030Y213469D01*
X380104Y213590D01*
X380114Y213613D01*
X380339Y213389D01*
X380362Y213362D01*
X380469Y213270D01*
X380469Y213270D01*
X380590Y213196D01*
X380721Y213141D01*
X380859Y213108D01*
X381000Y213097D01*
X381035Y213100D01*
X381965D01*
X382000Y213097D01*
X382141Y213108D01*
X382141Y213108D01*
X382279Y213141D01*
X382410Y213196D01*
X382531Y213270D01*
X382638Y213362D01*
X382661Y213389D01*
X383111Y213839D01*
X383138Y213862D01*
X383230Y213969D01*
X383304Y214090D01*
X383359Y214221D01*
X383392Y214359D01*
X383403Y214500D01*
X383400Y214535D01*
Y217465D01*
X383403Y217500D01*
X383392Y217641D01*
X383392Y217641D01*
X383359Y217779D01*
X383304Y217910D01*
X383230Y218031D01*
X383138Y218138D01*
X383111Y218161D01*
X382661Y218611D01*
X382638Y218638D01*
X382531Y218730D01*
X382484Y218759D01*
X382410Y218804D01*
X382279Y218859D01*
X382141Y218892D01*
X382000Y218903D01*
X381965Y218900D01*
X381035D01*
X381000Y218903D01*
X380859Y218892D01*
X380721Y218859D01*
X380590Y218804D01*
X380469Y218730D01*
X380469Y218730D01*
X380362Y218638D01*
X380339Y218612D01*
X379900Y218173D01*
X379461Y218611D01*
X379438Y218638D01*
X379331Y218730D01*
X379284Y218759D01*
X379210Y218804D01*
X379079Y218859D01*
X378992Y218880D01*
Y292000D01*
G37*
G36*
X333411Y153653D02*X333500Y153275D01*
X333582Y152684D01*
X333609Y152088D01*
X333582Y151492D01*
X333500Y150901D01*
X333411Y150523D01*
Y153653D01*
G37*
G36*
X359411D02*X359500Y153275D01*
X359582Y152684D01*
X359609Y152088D01*
X359582Y151492D01*
X359500Y150901D01*
X359411Y150523D01*
Y153653D01*
G37*
G36*
X369900Y292000D02*X378992D01*
Y218880D01*
X378941Y218892D01*
X378800Y218903D01*
X378765Y218900D01*
X377835D01*
X377800Y218903D01*
X377659Y218892D01*
X377521Y218859D01*
X377390Y218804D01*
X377269Y218730D01*
X377269Y218730D01*
X377162Y218638D01*
X377139Y218612D01*
X376700Y218173D01*
X376261Y218611D01*
X376238Y218638D01*
X376131Y218730D01*
X376010Y218804D01*
X375879Y218859D01*
X375741Y218892D01*
X375741Y218892D01*
X375600Y218903D01*
X375565Y218900D01*
X374135D01*
X374100Y218903D01*
X373959Y218892D01*
X373821Y218859D01*
X373690Y218804D01*
X373569Y218730D01*
X373462Y218638D01*
X373439Y218611D01*
X372989Y218161D01*
X372962Y218138D01*
X372870Y218031D01*
X372796Y217910D01*
X372741Y217779D01*
X372708Y217641D01*
X372708Y217641D01*
X372697Y217500D01*
X372700Y217465D01*
Y214535D01*
X372697Y214500D01*
X372708Y214359D01*
Y214359D01*
X372741Y214221D01*
X372796Y214090D01*
X372870Y213969D01*
X372962Y213862D01*
X372989Y213839D01*
X373439Y213389D01*
X373462Y213362D01*
X373569Y213270D01*
X373690Y213196D01*
X373821Y213141D01*
X373959Y213108D01*
X373959D01*
X374100Y213097D01*
X374135Y213100D01*
X375565D01*
X375600Y213097D01*
X375741Y213108D01*
X375741Y213108D01*
X375879Y213141D01*
X376010Y213196D01*
X376131Y213270D01*
X376238Y213362D01*
X376261Y213389D01*
X376486Y213613D01*
X376496Y213590D01*
X376570Y213469D01*
X376662Y213362D01*
X376769Y213270D01*
X376890Y213196D01*
X377021Y213141D01*
X377159Y213108D01*
X377300Y213097D01*
X377441Y213108D01*
X377579Y213141D01*
X377710Y213196D01*
X377831Y213270D01*
X377938Y213362D01*
X378030Y213469D01*
X378104Y213590D01*
X378159Y213721D01*
X378192Y213859D01*
X378200Y214000D01*
Y217100D01*
X378400D01*
Y214000D01*
X378408Y213859D01*
X378441Y213721D01*
X378496Y213590D01*
X378570Y213469D01*
X378662Y213362D01*
X378769Y213270D01*
X378890Y213196D01*
X378992Y213154D01*
Y157828D01*
X378166Y157763D01*
X377353Y157568D01*
X376581Y157248D01*
X375868Y156811D01*
X375232Y156268D01*
X374689Y155632D01*
X374252Y154919D01*
X373932Y154147D01*
X373737Y153334D01*
X373672Y152500D01*
X373737Y151666D01*
X373932Y150853D01*
X374252Y150081D01*
X374689Y149368D01*
X375232Y148732D01*
X375868Y148189D01*
X376581Y147752D01*
X377353Y147432D01*
X378166Y147237D01*
X378992Y147172D01*
Y122000D01*
X369900D01*
Y213100D01*
X370065D01*
X370100Y213097D01*
X370241Y213108D01*
X370241Y213108D01*
X370379Y213141D01*
X370510Y213196D01*
X370631Y213270D01*
X370738Y213362D01*
X370761Y213389D01*
X371236Y213864D01*
X371330Y213969D01*
X371404Y214090D01*
X371459Y214221D01*
X371492Y214359D01*
X371503Y214500D01*
X371492Y214641D01*
X371459Y214779D01*
X371404Y214910D01*
X371330Y215031D01*
X371238Y215138D01*
X371131Y215230D01*
X371010Y215304D01*
X370879Y215359D01*
X370760Y215387D01*
X370761Y215389D01*
X371211Y215839D01*
X371238Y215862D01*
X371330Y215969D01*
X371330Y215969D01*
X371404Y216090D01*
X371459Y216221D01*
X371492Y216359D01*
X371503Y216500D01*
X371500Y216535D01*
Y217465D01*
X371503Y217500D01*
X371492Y217641D01*
X371459Y217779D01*
X371404Y217910D01*
X371359Y217984D01*
X371330Y218031D01*
X371238Y218138D01*
X371211Y218161D01*
X370761Y218611D01*
X370738Y218638D01*
X370631Y218730D01*
X370510Y218804D01*
X370379Y218859D01*
X370241Y218892D01*
X370241Y218892D01*
X370100Y218903D01*
X370065Y218900D01*
X369900D01*
Y227934D01*
X369930Y227969D01*
X369930Y227969D01*
X370004Y228090D01*
X370059Y228221D01*
X370092Y228359D01*
X370103Y228500D01*
X370100Y228535D01*
Y229465D01*
X370103Y229500D01*
X370092Y229641D01*
X370059Y229779D01*
X370004Y229910D01*
X369959Y229984D01*
X369930Y230031D01*
X369900Y230066D01*
Y231417D01*
X369972Y231537D01*
X370037Y231662D01*
X370080Y231797D01*
X370101Y231938D01*
X370099Y232079D01*
X370076Y232219D01*
X370031Y232353D01*
X369965Y232479D01*
X369900Y232567D01*
Y241329D01*
X369969Y241270D01*
X370090Y241196D01*
X370221Y241141D01*
X370359Y241108D01*
X370359D01*
X370500Y241097D01*
X370535Y241100D01*
X371965D01*
X372000Y241097D01*
X372141Y241108D01*
X372141Y241108D01*
X372279Y241141D01*
X372410Y241196D01*
X372531Y241270D01*
X372638Y241362D01*
X372661Y241389D01*
X373100Y241827D01*
X373539Y241389D01*
X373562Y241362D01*
X373669Y241270D01*
X373790Y241196D01*
X373921Y241141D01*
X374059Y241108D01*
X374059D01*
X374200Y241097D01*
X374235Y241100D01*
X375665D01*
X375700Y241097D01*
X375841Y241108D01*
X375841Y241108D01*
X375979Y241141D01*
X376110Y241196D01*
X376231Y241270D01*
X376338Y241362D01*
X376361Y241389D01*
X376836Y241864D01*
X376930Y241969D01*
X377004Y242090D01*
X377059Y242221D01*
X377092Y242359D01*
X377103Y242500D01*
X377092Y242641D01*
X377059Y242779D01*
X377004Y242910D01*
X376930Y243031D01*
X376838Y243138D01*
X376731Y243230D01*
X376610Y243304D01*
X376479Y243359D01*
X376360Y243387D01*
X376361Y243389D01*
X376811Y243839D01*
X376838Y243862D01*
X376930Y243969D01*
X376930Y243969D01*
X377004Y244090D01*
X377059Y244221D01*
X377092Y244359D01*
X377103Y244500D01*
X377100Y244535D01*
Y245465D01*
X377103Y245500D01*
X377092Y245641D01*
X377059Y245779D01*
X377004Y245910D01*
X376959Y245984D01*
X376930Y246031D01*
X376838Y246138D01*
X376811Y246161D01*
X376361Y246611D01*
X376338Y246638D01*
X376231Y246730D01*
X376110Y246804D01*
X375979Y246859D01*
X375841Y246892D01*
X375841Y246892D01*
X375700Y246903D01*
X375665Y246900D01*
X374235D01*
X374200Y246903D01*
X374059Y246892D01*
X373921Y246859D01*
X373790Y246804D01*
X373669Y246730D01*
X373562Y246638D01*
X373539Y246611D01*
X373100Y246173D01*
X372661Y246611D01*
X372638Y246638D01*
X372531Y246730D01*
X372410Y246804D01*
X372279Y246859D01*
X372141Y246892D01*
X372141Y246892D01*
X372000Y246903D01*
X371965Y246900D01*
X370535D01*
X370500Y246903D01*
X370359Y246892D01*
X370221Y246859D01*
X370090Y246804D01*
X369969Y246730D01*
X369900Y246671D01*
Y292000D01*
G37*
G36*
Y230066D02*X369838Y230138D01*
X369811Y230161D01*
X369396Y230577D01*
X369900Y231417D01*
Y230066D01*
G37*
G36*
Y218900D02*X368635D01*
X368600Y218903D01*
X368459Y218892D01*
X368321Y218859D01*
X368190Y218804D01*
X368069Y218730D01*
X367962Y218638D01*
X367939Y218611D01*
X367714Y218387D01*
X367704Y218410D01*
X367688Y218437D01*
X367674Y218465D01*
X367651Y218497D01*
X367630Y218531D01*
X367610Y218555D01*
X367592Y218580D01*
X367564Y218608D01*
X367538Y218638D01*
X367514Y218659D01*
X367492Y218681D01*
X367461Y218705D01*
X367431Y218730D01*
X367404Y218747D01*
X367378Y218766D01*
X367343Y218784D01*
X367310Y218804D01*
X367281Y218816D01*
X367253Y218831D01*
X367215Y218844D01*
X367179Y218859D01*
X367148Y218866D01*
X367118Y218876D01*
X367080Y218882D01*
X367041Y218892D01*
X367010Y218894D01*
X366979Y218899D01*
X366939Y218900D01*
X366900Y218903D01*
X366869Y218900D01*
X366837Y218901D01*
X366798Y218895D01*
X366759Y218892D01*
X366728Y218884D01*
X366697Y218880D01*
X366659Y218868D01*
X366621Y218859D01*
X366592Y218847D01*
X366562Y218837D01*
X366527Y218819D01*
X366490Y218804D01*
X366463Y218788D01*
X366435Y218774D01*
X366403Y218751D01*
X366369Y218730D01*
X366345Y218710D01*
X366320Y218692D01*
X366292Y218664D01*
X366262Y218638D01*
X366241Y218614D01*
X366219Y218592D01*
X366201Y218567D01*
X366170Y218531D01*
X366135Y218475D01*
X365300Y217138D01*
Y218000D01*
X365292Y218141D01*
X365259Y218279D01*
X365204Y218410D01*
X365130Y218531D01*
X365038Y218638D01*
X364931Y218730D01*
X364810Y218804D01*
X364679Y218859D01*
X364541Y218892D01*
X364400Y218903D01*
X364259Y218892D01*
X364121Y218859D01*
X363990Y218804D01*
X363869Y218730D01*
X363762Y218638D01*
X363670Y218531D01*
X363596Y218410D01*
X363586Y218387D01*
X363361Y218611D01*
X363338Y218638D01*
X363231Y218730D01*
X363184Y218759D01*
X363110Y218804D01*
X362979Y218859D01*
X362841Y218892D01*
X362700Y218903D01*
X362665Y218900D01*
X361735D01*
X361700Y218903D01*
X361559Y218892D01*
X361421Y218859D01*
X361290Y218804D01*
X361169Y218730D01*
X361169Y218730D01*
X361062Y218638D01*
X361039Y218612D01*
X360600Y218173D01*
X360161Y218611D01*
X360138Y218638D01*
X360031Y218730D01*
X359910Y218804D01*
X359779Y218859D01*
X359641Y218892D01*
X359641Y218892D01*
X359500Y218903D01*
X359465Y218900D01*
X359411D01*
Y227616D01*
X359639Y227389D01*
X359662Y227362D01*
X359769Y227270D01*
X359890Y227196D01*
X360021Y227141D01*
X360159Y227108D01*
X360159D01*
X360300Y227097D01*
X360335Y227100D01*
X361765D01*
X361800Y227097D01*
X361941Y227108D01*
X361941Y227108D01*
X362079Y227141D01*
X362210Y227196D01*
X362331Y227270D01*
X362438Y227362D01*
X362461Y227389D01*
X362900Y227827D01*
X363339Y227389D01*
X363362Y227362D01*
X363469Y227270D01*
X363469Y227270D01*
X363590Y227196D01*
X363721Y227141D01*
X363859Y227108D01*
X364000Y227097D01*
X364035Y227100D01*
X364965D01*
X365000Y227097D01*
X365141Y227108D01*
X365141Y227108D01*
X365279Y227141D01*
X365410Y227196D01*
X365531Y227270D01*
X365638Y227362D01*
X365661Y227389D01*
X365886Y227613D01*
X365896Y227590D01*
X365970Y227469D01*
X366062Y227362D01*
X366169Y227270D01*
X366290Y227196D01*
X366421Y227141D01*
X366559Y227108D01*
X366700Y227100D01*
X367165D01*
X367200Y227097D01*
X367235Y227100D01*
X368665D01*
X368700Y227097D01*
X368841Y227108D01*
X368841Y227108D01*
X368979Y227141D01*
X369110Y227196D01*
X369231Y227270D01*
X369338Y227362D01*
X369361Y227389D01*
X369811Y227839D01*
X369838Y227862D01*
X369900Y227934D01*
Y218900D01*
G37*
G36*
Y122000D02*X359411D01*
Y148022D01*
X359507Y148159D01*
X359840Y148762D01*
X359840Y148763D01*
X359841Y148764D01*
X360117Y149395D01*
X360335Y150049D01*
X360492Y150719D01*
X360586Y151402D01*
X360618Y152090D01*
X360586Y152778D01*
X360492Y153461D01*
X360335Y154131D01*
X360117Y154785D01*
X359841Y155416D01*
X359508Y156019D01*
X359411Y156161D01*
Y199105D01*
X366394Y199106D01*
X366486Y199128D01*
X366573Y199164D01*
X366654Y199213D01*
X366726Y199274D01*
X366787Y199346D01*
X366836Y199427D01*
X366872Y199514D01*
X366895Y199606D01*
X366900Y199700D01*
X366895Y204394D01*
X366872Y204486D01*
X366836Y204573D01*
X366787Y204654D01*
X366726Y204726D01*
X366654Y204787D01*
X366573Y204836D01*
X366486Y204872D01*
X366394Y204894D01*
X366300Y204900D01*
X359411Y204900D01*
Y213100D01*
X359465D01*
X359500Y213097D01*
X359641Y213108D01*
X359641Y213108D01*
X359779Y213141D01*
X359910Y213196D01*
X360031Y213270D01*
X360138Y213362D01*
X360161Y213389D01*
X360600Y213827D01*
X361039Y213389D01*
X361062Y213362D01*
X361169Y213270D01*
X361169Y213270D01*
X361290Y213196D01*
X361421Y213141D01*
X361559Y213108D01*
X361700Y213097D01*
X361735Y213100D01*
X362665D01*
X362700Y213097D01*
X362841Y213108D01*
X362841Y213108D01*
X362979Y213141D01*
X363110Y213196D01*
X363231Y213270D01*
X363338Y213362D01*
X363361Y213389D01*
X363586Y213613D01*
X363596Y213590D01*
X363612Y213563D01*
X363626Y213535D01*
X363649Y213503D01*
X363670Y213469D01*
X363690Y213445D01*
X363708Y213420D01*
X363736Y213392D01*
X363762Y213362D01*
X363786Y213341D01*
X363808Y213319D01*
X363839Y213295D01*
X363869Y213270D01*
X363896Y213253D01*
X363922Y213234D01*
X363957Y213216D01*
X363990Y213196D01*
X364019Y213184D01*
X364047Y213169D01*
X364085Y213157D01*
X364121Y213141D01*
X364152Y213134D01*
X364182Y213124D01*
X364220Y213118D01*
X364259Y213108D01*
X364290Y213106D01*
X364321Y213101D01*
X364361Y213100D01*
X364400Y213097D01*
X364431Y213100D01*
X364463Y213099D01*
X364502Y213105D01*
X364541Y213108D01*
X364572Y213116D01*
X364603Y213120D01*
X364641Y213132D01*
X364679Y213141D01*
X364708Y213153D01*
X364738Y213163D01*
X364773Y213181D01*
X364810Y213196D01*
X364837Y213212D01*
X364865Y213226D01*
X364897Y213249D01*
X364931Y213270D01*
X364955Y213290D01*
X364980Y213308D01*
X365008Y213336D01*
X365038Y213362D01*
X365059Y213386D01*
X365081Y213408D01*
X365099Y213433D01*
X365130Y213469D01*
X365165Y213526D01*
X366000Y214862D01*
Y214000D01*
X366008Y213859D01*
X366041Y213721D01*
X366096Y213590D01*
X366170Y213469D01*
X366262Y213362D01*
X366369Y213270D01*
X366490Y213196D01*
X366621Y213141D01*
X366759Y213108D01*
X366900Y213097D01*
X367041Y213108D01*
X367179Y213141D01*
X367310Y213196D01*
X367431Y213270D01*
X367538Y213362D01*
X367630Y213469D01*
X367704Y213590D01*
X367714Y213613D01*
X367939Y213389D01*
X367962Y213362D01*
X368069Y213270D01*
X368190Y213196D01*
X368321Y213141D01*
X368459Y213108D01*
X368459D01*
X368600Y213097D01*
X368635Y213100D01*
X369900D01*
Y122000D01*
G37*
G36*
X359411Y292000D02*X369900D01*
Y246671D01*
X369862Y246638D01*
X369839Y246611D01*
X369400Y246173D01*
X368961Y246611D01*
X368938Y246638D01*
X368831Y246730D01*
X368784Y246759D01*
X368710Y246804D01*
X368579Y246859D01*
X368441Y246892D01*
X368300Y246903D01*
X368265Y246900D01*
X367335D01*
X367300Y246903D01*
X367159Y246892D01*
X367021Y246859D01*
X366890Y246804D01*
X366769Y246730D01*
X366769Y246730D01*
X366662Y246638D01*
X366639Y246612D01*
X366189Y246161D01*
X366162Y246138D01*
X366070Y246031D01*
X365996Y245910D01*
X365941Y245779D01*
X365908Y245641D01*
X365908Y245641D01*
X365897Y245500D01*
X365900Y245465D01*
Y244217D01*
X365830Y244331D01*
X365738Y244438D01*
X365631Y244530D01*
X365510Y244604D01*
X365379Y244659D01*
X365241Y244692D01*
X365100Y244700D01*
X364500D01*
Y246000D01*
X364492Y246141D01*
X364459Y246279D01*
X364404Y246410D01*
X364330Y246531D01*
X364238Y246638D01*
X364131Y246730D01*
X364010Y246804D01*
X363879Y246859D01*
X363741Y246892D01*
X363600Y246903D01*
X363459Y246892D01*
X363321Y246859D01*
X363190Y246804D01*
X363069Y246730D01*
X362962Y246638D01*
X362870Y246531D01*
X362796Y246410D01*
X362741Y246279D01*
X362708Y246141D01*
X362700Y246000D01*
Y243835D01*
X362697Y243800D01*
X362700Y243765D01*
Y242035D01*
X362697Y242000D01*
X362708Y241859D01*
X362741Y241721D01*
X362796Y241590D01*
X362870Y241469D01*
X362962Y241362D01*
X363069Y241270D01*
X363190Y241196D01*
X363321Y241141D01*
X363459Y241108D01*
X363600Y241097D01*
X363635Y241100D01*
X365600D01*
X365741Y241108D01*
X365879Y241141D01*
X366010Y241196D01*
X366131Y241270D01*
X366238Y241362D01*
X366330Y241469D01*
X366404Y241590D01*
X366414Y241613D01*
X366639Y241389D01*
X366662Y241362D01*
X366769Y241270D01*
X366769Y241270D01*
X366890Y241196D01*
X367021Y241141D01*
X367159Y241108D01*
X367300Y241097D01*
X367335Y241100D01*
X368265D01*
X368300Y241097D01*
X368441Y241108D01*
X368441Y241108D01*
X368579Y241141D01*
X368710Y241196D01*
X368831Y241270D01*
X368938Y241362D01*
X368961Y241389D01*
X369400Y241827D01*
X369839Y241389D01*
X369862Y241362D01*
X369900Y241329D01*
Y232567D01*
X369881Y232593D01*
X369780Y232692D01*
X369664Y232774D01*
X369538Y232837D01*
X369403Y232880D01*
X369262Y232901D01*
X369121Y232899D01*
X368981Y232876D01*
X368847Y232831D01*
X368721Y232765D01*
X368607Y232681D01*
X368508Y232580D01*
X368428Y232463D01*
X368100Y231916D01*
Y232000D01*
X368092Y232141D01*
X368059Y232279D01*
X368004Y232410D01*
X367930Y232531D01*
X367838Y232638D01*
X367731Y232730D01*
X367610Y232804D01*
X367479Y232859D01*
X367341Y232892D01*
X367200Y232903D01*
X367059Y232892D01*
X366921Y232859D01*
X366790Y232804D01*
X366669Y232730D01*
X366562Y232638D01*
X366470Y232531D01*
X366396Y232410D01*
X366341Y232279D01*
X366308Y232141D01*
X366300Y232000D01*
Y231917D01*
X366230Y232031D01*
X366138Y232138D01*
X366111Y232161D01*
X365661Y232611D01*
X365638Y232638D01*
X365531Y232730D01*
X365484Y232759D01*
X365410Y232804D01*
X365279Y232859D01*
X365141Y232892D01*
X365000Y232903D01*
X364965Y232900D01*
X364035D01*
X364000Y232903D01*
X363859Y232892D01*
X363721Y232859D01*
X363590Y232804D01*
X363469Y232730D01*
X363469Y232730D01*
X363362Y232638D01*
X363339Y232612D01*
X362900Y232173D01*
X362461Y232611D01*
X362438Y232638D01*
X362331Y232730D01*
X362210Y232804D01*
X362079Y232859D01*
X361941Y232892D01*
X361941Y232892D01*
X361800Y232903D01*
X361765Y232900D01*
X360335D01*
X360300Y232903D01*
X360159Y232892D01*
X360021Y232859D01*
X359890Y232804D01*
X359769Y232730D01*
X359662Y232638D01*
X359639Y232611D01*
X359411Y232384D01*
Y242400D01*
X359700Y242862D01*
Y242000D01*
X359708Y241859D01*
X359741Y241721D01*
X359796Y241590D01*
X359870Y241469D01*
X359962Y241362D01*
X360069Y241270D01*
X360190Y241196D01*
X360321Y241141D01*
X360459Y241108D01*
X360600Y241097D01*
X360741Y241108D01*
X360879Y241141D01*
X361010Y241196D01*
X361131Y241270D01*
X361238Y241362D01*
X361330Y241469D01*
X361404Y241590D01*
X361459Y241721D01*
X361492Y241859D01*
X361500Y242000D01*
Y245996D01*
X361501Y246063D01*
X361493Y246110D01*
X361492Y246141D01*
X361484Y246172D01*
X361480Y246203D01*
X361468Y246241D01*
X361459Y246279D01*
X361447Y246308D01*
X361437Y246338D01*
X361419Y246373D01*
X361404Y246410D01*
X361388Y246437D01*
X361374Y246465D01*
X361351Y246497D01*
X361330Y246531D01*
X361310Y246555D01*
X361292Y246580D01*
X361264Y246608D01*
X361238Y246638D01*
X361214Y246659D01*
X361192Y246681D01*
X361161Y246705D01*
X361131Y246730D01*
X361104Y246747D01*
X361078Y246766D01*
X361043Y246784D01*
X361010Y246804D01*
X360981Y246816D01*
X360953Y246831D01*
X360915Y246844D01*
X360879Y246859D01*
X360848Y246866D01*
X360818Y246876D01*
X360780Y246882D01*
X360741Y246892D01*
X360710Y246894D01*
X360679Y246899D01*
X360639Y246900D01*
X360600Y246903D01*
X360569Y246900D01*
X360537Y246901D01*
X360498Y246895D01*
X360459Y246892D01*
X360428Y246884D01*
X360397Y246880D01*
X360359Y246868D01*
X360321Y246859D01*
X360292Y246847D01*
X360262Y246837D01*
X360227Y246819D01*
X360190Y246804D01*
X360163Y246788D01*
X360135Y246774D01*
X360103Y246751D01*
X360069Y246730D01*
X360045Y246710D01*
X360020Y246692D01*
X359992Y246664D01*
X359962Y246638D01*
X359941Y246614D01*
X359919Y246592D01*
X359901Y246567D01*
X359870Y246531D01*
X359835Y246475D01*
X359411Y245796D01*
Y292000D01*
G37*
G36*
Y232384D02*X359200Y232173D01*
X358761Y232611D01*
X358738Y232638D01*
X358631Y232730D01*
X358510Y232804D01*
X358379Y232859D01*
X358241Y232892D01*
X358241Y232892D01*
X358100Y232903D01*
X358065Y232900D01*
X356635D01*
X356600Y232903D01*
X356459Y232892D01*
X356321Y232859D01*
X356190Y232804D01*
X356069Y232730D01*
X355962Y232638D01*
X355939Y232611D01*
X355714Y232387D01*
X355704Y232410D01*
X355630Y232531D01*
X355538Y232638D01*
X355431Y232730D01*
X355310Y232804D01*
X355179Y232859D01*
X355041Y232892D01*
X354900Y232900D01*
X353106D01*
Y234194D01*
X353110Y234196D01*
X353231Y234270D01*
X353300Y234329D01*
X353369Y234270D01*
X353490Y234196D01*
X353621Y234141D01*
X353759Y234108D01*
X353900Y234100D01*
X354365D01*
X354400Y234097D01*
X354435Y234100D01*
X355865D01*
X355900Y234097D01*
X356041Y234108D01*
X356041Y234108D01*
X356179Y234141D01*
X356310Y234196D01*
X356431Y234270D01*
X356538Y234362D01*
X356561Y234389D01*
X357011Y234839D01*
X357038Y234862D01*
X357130Y234969D01*
X357130Y234969D01*
X357204Y235090D01*
X357259Y235221D01*
X357292Y235359D01*
X357303Y235500D01*
X357300Y235535D01*
Y236465D01*
X357303Y236500D01*
X357292Y236641D01*
X357259Y236779D01*
X357204Y236910D01*
X357159Y236984D01*
X357130Y237031D01*
X357038Y237138D01*
X357011Y237161D01*
X356561Y237611D01*
X356538Y237638D01*
X356431Y237730D01*
X356310Y237804D01*
X356179Y237859D01*
X356041Y237892D01*
X356041Y237892D01*
X355900Y237903D01*
X355865Y237900D01*
X355300D01*
Y239000D01*
X355292Y239141D01*
X355259Y239279D01*
X355204Y239410D01*
X355130Y239531D01*
X355038Y239638D01*
X354931Y239730D01*
X354810Y239804D01*
X354679Y239859D01*
X354541Y239892D01*
X354400Y239903D01*
X354259Y239892D01*
X354121Y239859D01*
X353990Y239804D01*
X353869Y239730D01*
X353762Y239638D01*
X353670Y239531D01*
X353596Y239410D01*
X353541Y239279D01*
X353508Y239141D01*
X353500Y239000D01*
Y238917D01*
X353430Y239031D01*
X353338Y239138D01*
X353311Y239161D01*
X353106Y239367D01*
Y241104D01*
X353138Y241099D01*
X353279Y241101D01*
X353419Y241124D01*
X353553Y241169D01*
X353679Y241235D01*
X353793Y241319D01*
X353892Y241420D01*
X353974Y241536D01*
X354037Y241662D01*
X354080Y241797D01*
X354091Y241872D01*
X354347Y241506D01*
X354370Y241469D01*
X354432Y241396D01*
X354451Y241373D01*
X354457Y241368D01*
X354462Y241362D01*
X354509Y241321D01*
X354557Y241279D01*
X354563Y241275D01*
X354569Y241270D01*
X354623Y241237D01*
X354676Y241203D01*
X354683Y241200D01*
X354690Y241196D01*
X354748Y241172D01*
X354806Y241146D01*
X354814Y241144D01*
X354821Y241141D01*
X354882Y241127D01*
X354943Y241111D01*
X354951Y241110D01*
X354959Y241108D01*
X354988Y241107D01*
X355084Y241097D01*
X355127Y241100D01*
X356173D01*
X356216Y241097D01*
X356311Y241107D01*
X356341Y241108D01*
X356349Y241110D01*
X356357Y241111D01*
X356418Y241127D01*
X356479Y241141D01*
X356486Y241144D01*
X356494Y241146D01*
X356552Y241172D01*
X356610Y241196D01*
X356617Y241200D01*
X356624Y241203D01*
X356677Y241237D01*
X356731Y241270D01*
X356737Y241275D01*
X356743Y241279D01*
X356790Y241321D01*
X356838Y241362D01*
X356844Y241368D01*
X356849Y241373D01*
X356868Y241396D01*
X356930Y241469D01*
X356953Y241506D01*
X357208Y241870D01*
X357208Y241859D01*
X357216Y241828D01*
X357220Y241797D01*
X357232Y241759D01*
X357241Y241721D01*
X357253Y241692D01*
X357263Y241662D01*
X357281Y241627D01*
X357296Y241590D01*
X357312Y241563D01*
X357326Y241535D01*
X357349Y241503D01*
X357370Y241469D01*
X357390Y241445D01*
X357408Y241420D01*
X357436Y241392D01*
X357462Y241362D01*
X357486Y241341D01*
X357508Y241319D01*
X357539Y241295D01*
X357569Y241270D01*
X357596Y241253D01*
X357622Y241234D01*
X357657Y241216D01*
X357690Y241196D01*
X357719Y241184D01*
X357747Y241169D01*
X357785Y241157D01*
X357821Y241141D01*
X357852Y241134D01*
X357882Y241124D01*
X357920Y241118D01*
X357959Y241108D01*
X357990Y241106D01*
X358021Y241101D01*
X358061Y241100D01*
X358100Y241097D01*
X358131Y241100D01*
X358163Y241099D01*
X358202Y241105D01*
X358241Y241108D01*
X358272Y241116D01*
X358303Y241120D01*
X358341Y241132D01*
X358379Y241141D01*
X358408Y241153D01*
X358438Y241163D01*
X358473Y241181D01*
X358510Y241196D01*
X358537Y241212D01*
X358565Y241226D01*
X358597Y241249D01*
X358631Y241270D01*
X358655Y241290D01*
X358680Y241308D01*
X358708Y241336D01*
X358738Y241362D01*
X358759Y241386D01*
X358781Y241408D01*
X358799Y241433D01*
X358830Y241469D01*
X358865Y241526D01*
X359411Y242400D01*
Y232384D01*
G37*
G36*
Y204900D02*X353106Y204899D01*
Y227100D01*
X354900D01*
X355041Y227108D01*
X355179Y227141D01*
X355310Y227196D01*
X355431Y227270D01*
X355538Y227362D01*
X355630Y227469D01*
X355704Y227590D01*
X355714Y227613D01*
X355939Y227389D01*
X355962Y227362D01*
X356069Y227270D01*
X356190Y227196D01*
X356321Y227141D01*
X356459Y227108D01*
X356459D01*
X356600Y227097D01*
X356635Y227100D01*
X358065D01*
X358100Y227097D01*
X358241Y227108D01*
X358241Y227108D01*
X358379Y227141D01*
X358510Y227196D01*
X358631Y227270D01*
X358738Y227362D01*
X358761Y227389D01*
X359200Y227827D01*
X359411Y227616D01*
Y218900D01*
X358035D01*
X358000Y218903D01*
X357859Y218892D01*
X357721Y218859D01*
X357590Y218804D01*
X357469Y218730D01*
X357362Y218638D01*
X357339Y218611D01*
X356864Y218136D01*
X356770Y218031D01*
X356696Y217910D01*
X356641Y217779D01*
X356608Y217641D01*
X356597Y217500D01*
X356608Y217359D01*
X356641Y217221D01*
X356696Y217090D01*
X356770Y216969D01*
X356862Y216862D01*
X356969Y216770D01*
X357090Y216696D01*
X357221Y216641D01*
X357340Y216613D01*
X357339Y216611D01*
X356889Y216161D01*
X356862Y216138D01*
X356770Y216031D01*
X356696Y215910D01*
X356641Y215779D01*
X356608Y215641D01*
X356608Y215641D01*
X356597Y215500D01*
X356600Y215465D01*
Y214535D01*
X356597Y214500D01*
X356608Y214359D01*
X356641Y214221D01*
X356696Y214090D01*
X356770Y213969D01*
X356770Y213969D01*
X356862Y213862D01*
X356888Y213839D01*
X357339Y213389D01*
X357362Y213362D01*
X357469Y213270D01*
X357590Y213196D01*
X357721Y213141D01*
X357859Y213108D01*
X357859D01*
X358000Y213097D01*
X358035Y213100D01*
X359411D01*
Y204900D01*
G37*
G36*
Y122000D02*X353106D01*
Y144580D01*
X353109Y144580D01*
X353797Y144612D01*
X354480Y144706D01*
X355150Y144863D01*
X355804Y145081D01*
X356435Y145357D01*
X357038Y145690D01*
X357608Y146077D01*
X357668Y146130D01*
X357719Y146191D01*
X357760Y146260D01*
X357760Y146261D01*
X357761Y146262D01*
X357790Y146336D01*
X357808Y146414D01*
X357813Y146493D01*
X357806Y146573D01*
X357786Y146650D01*
X357754Y146723D01*
X357712Y146791D01*
X357659Y146851D01*
X357598Y146901D01*
X357529Y146942D01*
X357455Y146972D01*
X357377Y146989D01*
X357297Y146994D01*
X357218Y146987D01*
X357141Y146967D01*
X357067Y146936D01*
X357001Y146892D01*
X356512Y146551D01*
X355990Y146263D01*
X355443Y146023D01*
X354877Y145835D01*
X354297Y145699D01*
X353706Y145617D01*
X353110Y145590D01*
X353106Y145590D01*
Y158588D01*
X353109Y158588D01*
X353705Y158561D01*
X354296Y158479D01*
X354876Y158343D01*
X355442Y158155D01*
X355989Y157915D01*
X356511Y157627D01*
X357004Y157292D01*
X357070Y157248D01*
X357142Y157217D01*
X357218Y157198D01*
X357296Y157191D01*
X357375Y157196D01*
X357452Y157213D01*
X357525Y157242D01*
X357593Y157282D01*
X357653Y157332D01*
X357705Y157391D01*
X357747Y157458D01*
X357748Y157459D01*
X357748Y157460D01*
X357779Y157532D01*
X357799Y157609D01*
X357806Y157687D01*
X357801Y157765D01*
X357784Y157842D01*
X357755Y157915D01*
X357715Y157983D01*
X357664Y158044D01*
X357604Y158094D01*
X357039Y158488D01*
X356436Y158821D01*
X355805Y159097D01*
X355151Y159315D01*
X354481Y159472D01*
X353798Y159566D01*
X353110Y159598D01*
X353106Y159598D01*
Y199105D01*
X359411Y199105D01*
Y156161D01*
X359121Y156589D01*
X359068Y156649D01*
X359007Y156700D01*
X358938Y156741D01*
X358864Y156770D01*
X358786Y156788D01*
X358707Y156793D01*
X358627Y156786D01*
X358550Y156766D01*
X358477Y156734D01*
X358409Y156692D01*
X358349Y156639D01*
X358299Y156578D01*
X358258Y156509D01*
X358257Y156508D01*
X358257Y156507D01*
X358227Y156433D01*
X358210Y156355D01*
X358205Y156275D01*
X358212Y156196D01*
X358232Y156119D01*
X358263Y156045D01*
X358307Y155979D01*
X358648Y155490D01*
X358936Y154968D01*
X359176Y154421D01*
X359364Y153855D01*
X359411Y153653D01*
Y150523D01*
X359364Y150321D01*
X359176Y149755D01*
X358937Y149209D01*
X358649Y148688D01*
X358314Y148195D01*
X358270Y148129D01*
X358270Y148128D01*
X358269Y148127D01*
X358238Y148055D01*
X358219Y147979D01*
X358212Y147901D01*
X358217Y147822D01*
X358234Y147745D01*
X358263Y147672D01*
X358303Y147604D01*
X358353Y147544D01*
X358412Y147492D01*
X358479Y147450D01*
X358551Y147419D01*
X358628Y147399D01*
X358706Y147392D01*
X358784Y147397D01*
X358861Y147414D01*
X358934Y147443D01*
X359002Y147483D01*
X359063Y147534D01*
X359113Y147594D01*
X359411Y148022D01*
Y122000D01*
G37*
G36*
X353106Y292000D02*X359411D01*
Y245796D01*
X359000Y245138D01*
Y246000D01*
X358992Y246141D01*
X358959Y246279D01*
X358904Y246410D01*
X358830Y246531D01*
X358738Y246638D01*
X358631Y246730D01*
X358510Y246804D01*
X358379Y246859D01*
X358241Y246892D01*
X358100Y246903D01*
X357959Y246892D01*
X357821Y246859D01*
X357690Y246804D01*
X357569Y246730D01*
X357500Y246671D01*
X357431Y246730D01*
X357310Y246804D01*
X357179Y246859D01*
X357041Y246892D01*
X356900Y246903D01*
X356759Y246892D01*
X356621Y246859D01*
X356490Y246804D01*
X356369Y246730D01*
X356262Y246638D01*
X356170Y246531D01*
X356096Y246410D01*
X356041Y246279D01*
X356008Y246141D01*
X356000Y246000D01*
Y244900D01*
X355300D01*
Y246000D01*
X355292Y246141D01*
X355259Y246279D01*
X355204Y246410D01*
X355130Y246531D01*
X355038Y246638D01*
X354931Y246730D01*
X354810Y246804D01*
X354679Y246859D01*
X354541Y246892D01*
X354400Y246903D01*
X354259Y246892D01*
X354121Y246859D01*
X353990Y246804D01*
X353869Y246730D01*
X353762Y246638D01*
X353670Y246531D01*
X353596Y246410D01*
X353541Y246279D01*
X353508Y246141D01*
X353500Y246000D01*
Y244511D01*
X353106Y246087D01*
Y255253D01*
X353210Y255296D01*
X353331Y255370D01*
X353438Y255462D01*
X353461Y255489D01*
X353911Y255939D01*
X353938Y255962D01*
X354030Y256069D01*
X354030Y256069D01*
X354104Y256190D01*
X354159Y256321D01*
X354192Y256459D01*
X354203Y256600D01*
X354200Y256635D01*
Y257565D01*
X354203Y257600D01*
X354192Y257741D01*
X354159Y257879D01*
X354104Y258010D01*
X354059Y258084D01*
X354030Y258131D01*
X353938Y258238D01*
X353911Y258261D01*
X353461Y258711D01*
X353438Y258738D01*
X353331Y258830D01*
X353210Y258904D01*
X353106Y258947D01*
Y292000D01*
G37*
G36*
Y239367D02*X352861Y239611D01*
X352838Y239638D01*
X352731Y239730D01*
X352684Y239759D01*
X352610Y239804D01*
X352479Y239859D01*
X352341Y239892D01*
X352200Y239903D01*
X352165Y239900D01*
X351235D01*
X351200Y239903D01*
X351059Y239892D01*
X350921Y239859D01*
X350790Y239804D01*
X350669Y239730D01*
X350669Y239730D01*
X350562Y239638D01*
X350539Y239612D01*
X350100Y239173D01*
X349661Y239611D01*
X349638Y239638D01*
X349531Y239730D01*
X349484Y239759D01*
X349410Y239804D01*
X349279Y239859D01*
X349141Y239892D01*
X349000Y239903D01*
X348965Y239900D01*
X348035D01*
X348000Y239903D01*
X347859Y239892D01*
X347721Y239859D01*
X347590Y239804D01*
X347469Y239730D01*
X347469Y239730D01*
X347362Y239638D01*
X347339Y239612D01*
X347114Y239386D01*
X347065Y239479D01*
X346981Y239593D01*
X346880Y239692D01*
X346808Y239743D01*
Y255619D01*
X346939Y255489D01*
X346962Y255462D01*
X347069Y255370D01*
X347190Y255296D01*
X347321Y255241D01*
X347459Y255208D01*
X347459D01*
X347600Y255197D01*
X347635Y255200D01*
X349065D01*
X349100Y255197D01*
X349241Y255208D01*
X349241Y255208D01*
X349379Y255241D01*
X349510Y255296D01*
X349631Y255370D01*
X349738Y255462D01*
X349761Y255489D01*
X349986Y255713D01*
X349996Y255690D01*
X350070Y255569D01*
X350162Y255462D01*
X350269Y255370D01*
X350390Y255296D01*
X350521Y255241D01*
X350659Y255208D01*
X350800Y255200D01*
X351265D01*
X351300Y255197D01*
X351335Y255200D01*
X352765D01*
X352800Y255197D01*
X352941Y255208D01*
X352941Y255208D01*
X353079Y255241D01*
X353106Y255253D01*
Y246087D01*
X353084Y246176D01*
X353080Y246203D01*
X353037Y246338D01*
X353033Y246346D01*
X353031Y246353D01*
X353002Y246409D01*
X352974Y246464D01*
X352969Y246471D01*
X352965Y246479D01*
X352928Y246529D01*
X352892Y246580D01*
X352886Y246586D01*
X352881Y246593D01*
X352837Y246636D01*
X352793Y246681D01*
X352786Y246686D01*
X352780Y246692D01*
X352729Y246728D01*
X352679Y246765D01*
X352671Y246769D01*
X352664Y246774D01*
X352609Y246802D01*
X352553Y246831D01*
X352545Y246833D01*
X352538Y246837D01*
X352478Y246856D01*
X352419Y246876D01*
X352411Y246877D01*
X352403Y246880D01*
X352341Y246889D01*
X352279Y246899D01*
X352271Y246899D01*
X352262Y246901D01*
X352200Y246900D01*
X352138Y246901D01*
X352129Y246899D01*
X352121Y246899D01*
X352059Y246889D01*
X351997Y246880D01*
X351989Y246877D01*
X351981Y246876D01*
X351922Y246856D01*
X351862Y246837D01*
X351855Y246833D01*
X351847Y246831D01*
X351792Y246802D01*
X351736Y246774D01*
X351729Y246769D01*
X351721Y246765D01*
X351671Y246728D01*
X351620Y246692D01*
X351614Y246686D01*
X351607Y246681D01*
X351564Y246637D01*
X351519Y246593D01*
X351514Y246586D01*
X351508Y246580D01*
X351472Y246529D01*
X351435Y246479D01*
X351431Y246471D01*
X351426Y246464D01*
X351398Y246409D01*
X351369Y246353D01*
X351367Y246346D01*
X351363Y246338D01*
X351320Y246203D01*
X351316Y246176D01*
X350465Y242771D01*
X350410Y242804D01*
X350279Y242859D01*
X350141Y242892D01*
X350000Y242900D01*
X349500D01*
X349641Y242908D01*
X349779Y242941D01*
X349910Y242996D01*
X350031Y243070D01*
X350138Y243162D01*
X350230Y243269D01*
X350304Y243390D01*
X350359Y243521D01*
X350392Y243659D01*
X350403Y243800D01*
X350392Y243941D01*
X350359Y244079D01*
X350304Y244210D01*
X350230Y244331D01*
X350138Y244438D01*
X350031Y244530D01*
X349910Y244604D01*
X349779Y244659D01*
X349641Y244692D01*
X349500Y244700D01*
X348900D01*
Y245100D01*
X350000D01*
X350141Y245108D01*
X350279Y245141D01*
X350410Y245196D01*
X350531Y245270D01*
X350638Y245362D01*
X350730Y245469D01*
X350804Y245590D01*
X350859Y245721D01*
X350892Y245859D01*
X350903Y246000D01*
X350892Y246141D01*
X350859Y246279D01*
X350804Y246410D01*
X350730Y246531D01*
X350638Y246638D01*
X350531Y246730D01*
X350410Y246804D01*
X350279Y246859D01*
X350141Y246892D01*
X350000Y246900D01*
X348035D01*
X348000Y246903D01*
X347859Y246892D01*
X347721Y246859D01*
X347590Y246804D01*
X347469Y246730D01*
X347362Y246638D01*
X347270Y246531D01*
X347196Y246410D01*
X347141Y246279D01*
X347108Y246141D01*
X347108Y246141D01*
X347097Y246000D01*
X347100Y245965D01*
Y243835D01*
X347097Y243800D01*
X347100Y243765D01*
Y242035D01*
X347097Y242000D01*
X347108Y241859D01*
X347141Y241721D01*
X347196Y241590D01*
X347270Y241469D01*
X347362Y241362D01*
X347469Y241270D01*
X347590Y241196D01*
X347721Y241141D01*
X347859Y241108D01*
X348000Y241097D01*
X348035Y241100D01*
X350000D01*
X350141Y241108D01*
X350279Y241141D01*
X350410Y241196D01*
X350531Y241270D01*
X350599Y241328D01*
X350607Y241319D01*
X350721Y241235D01*
X350847Y241169D01*
X350981Y241124D01*
X351121Y241101D01*
X351262Y241099D01*
X351403Y241120D01*
X351538Y241163D01*
X351664Y241226D01*
X351780Y241308D01*
X351881Y241407D01*
X351965Y241521D01*
X352031Y241647D01*
X352073Y241782D01*
X352200Y242289D01*
X352327Y241782D01*
X352369Y241647D01*
X352435Y241521D01*
X352519Y241407D01*
X352620Y241308D01*
X352736Y241226D01*
X352862Y241163D01*
X352997Y241120D01*
X353106Y241104D01*
Y239367D01*
G37*
G36*
Y232900D02*X352935D01*
X352900Y232903D01*
X352759Y232892D01*
X352621Y232859D01*
X352490Y232804D01*
X352369Y232730D01*
X352300Y232671D01*
X352231Y232730D01*
X352110Y232804D01*
X351979Y232859D01*
X351841Y232892D01*
X351700Y232900D01*
X350435D01*
X350400Y232903D01*
X350259Y232892D01*
X350121Y232859D01*
X349990Y232804D01*
X349869Y232730D01*
X349762Y232638D01*
X349739Y232611D01*
X349197Y232070D01*
X349138Y232138D01*
X349111Y232161D01*
X348661Y232611D01*
X348638Y232638D01*
X348531Y232730D01*
X348484Y232759D01*
X348410Y232804D01*
X348279Y232859D01*
X348141Y232892D01*
X348000Y232903D01*
X347965Y232900D01*
X347035D01*
X347000Y232903D01*
X346859Y232892D01*
X346808Y232879D01*
Y234735D01*
X346900Y234827D01*
X347339Y234389D01*
X347362Y234362D01*
X347469Y234270D01*
X347469Y234270D01*
X347590Y234196D01*
X347721Y234141D01*
X347859Y234108D01*
X348000Y234097D01*
X348035Y234100D01*
X348965D01*
X349000Y234097D01*
X349141Y234108D01*
X349141Y234108D01*
X349279Y234141D01*
X349410Y234196D01*
X349531Y234270D01*
X349638Y234362D01*
X349661Y234389D01*
X349886Y234613D01*
X349896Y234590D01*
X349970Y234469D01*
X350062Y234362D01*
X350169Y234270D01*
X350290Y234196D01*
X350421Y234141D01*
X350559Y234108D01*
X350700Y234097D01*
X350841Y234108D01*
X350979Y234141D01*
X351110Y234196D01*
X351231Y234270D01*
X351338Y234362D01*
X351430Y234469D01*
X351504Y234590D01*
X351559Y234721D01*
X351592Y234859D01*
X351600Y235000D01*
Y238100D01*
X351800D01*
Y235000D01*
X351808Y234859D01*
X351841Y234721D01*
X351896Y234590D01*
X351970Y234469D01*
X352062Y234362D01*
X352169Y234270D01*
X352290Y234196D01*
X352421Y234141D01*
X352559Y234108D01*
X352700Y234097D01*
X352841Y234108D01*
X352979Y234141D01*
X353106Y234194D01*
Y232900D01*
G37*
G36*
Y204899D02*X346808Y204899D01*
Y227121D01*
X346859Y227108D01*
X347000Y227097D01*
X347035Y227100D01*
X347965D01*
X348000Y227097D01*
X348141Y227108D01*
X348141Y227108D01*
X348279Y227141D01*
X348410Y227196D01*
X348531Y227270D01*
X348638Y227362D01*
X348661Y227389D01*
X349111Y227839D01*
X349138Y227862D01*
X349197Y227930D01*
X349739Y227389D01*
X349762Y227362D01*
X349869Y227270D01*
X349990Y227196D01*
X350121Y227141D01*
X350259Y227108D01*
X350259D01*
X350400Y227097D01*
X350435Y227100D01*
X351700D01*
X351841Y227108D01*
X351979Y227141D01*
X352110Y227196D01*
X352231Y227270D01*
X352300Y227329D01*
X352369Y227270D01*
X352490Y227196D01*
X352621Y227141D01*
X352759Y227108D01*
X352900Y227097D01*
X352935Y227100D01*
X353106D01*
Y204899D01*
G37*
G36*
Y122000D02*X346808D01*
Y148017D01*
X347098Y147589D01*
X347151Y147529D01*
X347212Y147478D01*
X347281Y147437D01*
X347355Y147408D01*
X347433Y147390D01*
X347512Y147385D01*
X347592Y147392D01*
X347669Y147412D01*
X347742Y147444D01*
X347810Y147486D01*
X347870Y147539D01*
X347920Y147600D01*
X347961Y147669D01*
X347962Y147670D01*
X347962Y147671D01*
X347992Y147745D01*
X348009Y147823D01*
X348014Y147903D01*
X348007Y147982D01*
X347987Y148059D01*
X347956Y148133D01*
X347912Y148199D01*
X347571Y148688D01*
X347283Y149210D01*
X347043Y149757D01*
X346855Y150323D01*
X346808Y150525D01*
Y153655D01*
X346855Y153857D01*
X347043Y154423D01*
X347282Y154969D01*
X347570Y155490D01*
X347905Y155983D01*
X347949Y156049D01*
X347949Y156050D01*
X347950Y156051D01*
X347981Y156123D01*
X348000Y156199D01*
X348007Y156277D01*
X348002Y156356D01*
X347985Y156433D01*
X347956Y156506D01*
X347916Y156574D01*
X347866Y156634D01*
X347807Y156686D01*
X347740Y156728D01*
X347668Y156759D01*
X347591Y156779D01*
X347513Y156786D01*
X347435Y156781D01*
X347358Y156764D01*
X347285Y156735D01*
X347217Y156695D01*
X347156Y156644D01*
X347106Y156584D01*
X346808Y156156D01*
Y199104D01*
X353106Y199105D01*
Y159598D01*
X352422Y159566D01*
X351739Y159472D01*
X351069Y159315D01*
X350415Y159097D01*
X349784Y158821D01*
X349181Y158488D01*
X348611Y158101D01*
X348551Y158048D01*
X348500Y157987D01*
X348459Y157918D01*
X348459Y157917D01*
X348458Y157916D01*
X348429Y157842D01*
X348411Y157764D01*
X348406Y157685D01*
X348413Y157605D01*
X348433Y157528D01*
X348465Y157455D01*
X348507Y157387D01*
X348560Y157327D01*
X348621Y157277D01*
X348690Y157236D01*
X348764Y157206D01*
X348842Y157189D01*
X348922Y157184D01*
X349001Y157191D01*
X349078Y157211D01*
X349152Y157242D01*
X349218Y157286D01*
X349707Y157627D01*
X350229Y157915D01*
X350776Y158155D01*
X351342Y158343D01*
X351922Y158479D01*
X352513Y158561D01*
X353106Y158588D01*
Y145590D01*
X352514Y145617D01*
X351923Y145699D01*
X351343Y145835D01*
X350777Y146023D01*
X350230Y146263D01*
X349708Y146551D01*
X349215Y146886D01*
X349149Y146930D01*
X349077Y146961D01*
X349001Y146980D01*
X348923Y146987D01*
X348844Y146982D01*
X348767Y146965D01*
X348694Y146936D01*
X348626Y146896D01*
X348566Y146846D01*
X348514Y146787D01*
X348472Y146720D01*
X348471Y146719D01*
X348471Y146718D01*
X348440Y146646D01*
X348420Y146569D01*
X348413Y146491D01*
X348418Y146413D01*
X348435Y146336D01*
X348464Y146263D01*
X348504Y146195D01*
X348555Y146134D01*
X348615Y146084D01*
X349180Y145690D01*
X349783Y145357D01*
X350414Y145081D01*
X351068Y144863D01*
X351738Y144706D01*
X352421Y144612D01*
X353106Y144580D01*
Y122000D01*
G37*
G36*
X346808Y292000D02*X353106D01*
Y258947D01*
X353079Y258959D01*
X352941Y258992D01*
X352941Y258992D01*
X352800Y259003D01*
X352765Y259000D01*
X352200D01*
Y260100D01*
X352192Y260241D01*
X352159Y260379D01*
X352104Y260510D01*
X352030Y260631D01*
X351938Y260738D01*
X351831Y260830D01*
X351710Y260904D01*
X351579Y260959D01*
X351441Y260992D01*
X351300Y261003D01*
X351159Y260992D01*
X351021Y260959D01*
X350890Y260904D01*
X350769Y260830D01*
X350662Y260738D01*
X350570Y260631D01*
X350496Y260510D01*
X350441Y260379D01*
X350408Y260241D01*
X350400Y260100D01*
Y260017D01*
X350359Y260084D01*
X350330Y260131D01*
X350238Y260238D01*
X350211Y260261D01*
X349761Y260711D01*
X349738Y260738D01*
X349631Y260830D01*
X349510Y260904D01*
X349379Y260959D01*
X349241Y260992D01*
X349241Y260992D01*
X349100Y261003D01*
X349065Y261000D01*
X347635D01*
X347600Y261003D01*
X347459Y260992D01*
X347321Y260959D01*
X347190Y260904D01*
X347069Y260830D01*
X346962Y260738D01*
X346939Y260711D01*
X346808Y260581D01*
Y292000D01*
G37*
G36*
Y150525D02*X346719Y150903D01*
X346637Y151494D01*
X346610Y152090D01*
X346637Y152686D01*
X346719Y153277D01*
X346808Y153655D01*
Y150525D01*
G37*
G36*
Y122000D02*X333411D01*
Y148022D01*
X333507Y148159D01*
X333840Y148762D01*
X333840Y148763D01*
X333841Y148764D01*
X334117Y149395D01*
X334335Y150049D01*
X334492Y150719D01*
X334586Y151402D01*
X334618Y152090D01*
X334586Y152778D01*
X334492Y153461D01*
X334335Y154131D01*
X334117Y154785D01*
X333841Y155416D01*
X333508Y156019D01*
X333411Y156161D01*
Y199103D01*
X346808Y199104D01*
Y156156D01*
X346712Y156019D01*
X346379Y155416D01*
X346379Y155415D01*
X346378Y155414D01*
X346102Y154783D01*
X345884Y154129D01*
X345727Y153459D01*
X345633Y152776D01*
X345601Y152088D01*
X345633Y151400D01*
X345727Y150717D01*
X345884Y150047D01*
X346102Y149393D01*
X346378Y148762D01*
X346711Y148159D01*
X346808Y148017D01*
Y122000D01*
G37*
G36*
X333411Y292000D02*X346808D01*
Y260581D01*
X346464Y260236D01*
X346404Y260169D01*
X345861Y260711D01*
X345838Y260738D01*
X345731Y260830D01*
X345610Y260904D01*
X345479Y260959D01*
X345341Y260992D01*
X345341Y260992D01*
X345200Y261003D01*
X345165Y261000D01*
X343935D01*
X343900Y261003D01*
X343865Y261000D01*
X343400D01*
X343259Y260992D01*
X343121Y260959D01*
X342990Y260904D01*
X342869Y260830D01*
X342762Y260738D01*
X342670Y260631D01*
X342596Y260510D01*
X342541Y260379D01*
X342508Y260241D01*
X342497Y260100D01*
X342508Y259959D01*
X342541Y259821D01*
X342596Y259690D01*
X342670Y259569D01*
X342762Y259462D01*
X342869Y259370D01*
X342990Y259296D01*
X343000Y259292D01*
Y256908D01*
X342990Y256904D01*
X342869Y256830D01*
X342762Y256738D01*
X342670Y256631D01*
X342596Y256510D01*
X342541Y256379D01*
X342508Y256241D01*
X342497Y256100D01*
X342508Y255959D01*
X342541Y255821D01*
X342596Y255690D01*
X342670Y255569D01*
X342762Y255462D01*
X342869Y255370D01*
X342990Y255296D01*
X343121Y255241D01*
X343259Y255208D01*
X343400Y255200D01*
X343865D01*
X343900Y255197D01*
X343935Y255200D01*
X345165D01*
X345200Y255197D01*
X345341Y255208D01*
X345341Y255208D01*
X345479Y255241D01*
X345610Y255296D01*
X345731Y255370D01*
X345838Y255462D01*
X345861Y255489D01*
X346403Y256030D01*
X346462Y255962D01*
X346488Y255939D01*
X346808Y255619D01*
Y239743D01*
X346764Y239774D01*
X346638Y239837D01*
X346503Y239880D01*
X346362Y239901D01*
X346221Y239899D01*
X346081Y239876D01*
X345947Y239831D01*
X345821Y239765D01*
X345707Y239681D01*
X345608Y239580D01*
X345528Y239463D01*
X345200Y238916D01*
Y239000D01*
X345192Y239141D01*
X345159Y239279D01*
X345104Y239410D01*
X345030Y239531D01*
X344938Y239638D01*
X344831Y239730D01*
X344710Y239804D01*
X344579Y239859D01*
X344441Y239892D01*
X344300Y239903D01*
X344159Y239892D01*
X344021Y239859D01*
X343890Y239804D01*
X343769Y239730D01*
X343662Y239638D01*
X343570Y239531D01*
X343496Y239410D01*
X343441Y239279D01*
X343408Y239141D01*
X343400Y239000D01*
Y238917D01*
X343359Y238984D01*
X343330Y239031D01*
X343238Y239138D01*
X343211Y239161D01*
X342761Y239611D01*
X342738Y239638D01*
X342631Y239730D01*
X342510Y239804D01*
X342379Y239859D01*
X342241Y239892D01*
X342241Y239892D01*
X342100Y239903D01*
X342065Y239900D01*
X340635D01*
X340600Y239903D01*
X340459Y239892D01*
X340321Y239859D01*
X340190Y239804D01*
X340069Y239730D01*
X339962Y239638D01*
X339939Y239611D01*
X339489Y239161D01*
X339462Y239138D01*
X339370Y239031D01*
X339296Y238910D01*
X339241Y238779D01*
X339208Y238641D01*
X339208Y238641D01*
X339197Y238500D01*
X339200Y238465D01*
Y235535D01*
X339197Y235500D01*
X339208Y235359D01*
Y235359D01*
X339241Y235221D01*
X339296Y235090D01*
X339370Y234969D01*
X339462Y234862D01*
X339489Y234839D01*
X339939Y234389D01*
X339962Y234362D01*
X340069Y234270D01*
X340190Y234196D01*
X340321Y234141D01*
X340459Y234108D01*
X340459D01*
X340600Y234097D01*
X340635Y234100D01*
X342065D01*
X342100Y234097D01*
X342241Y234108D01*
X342241Y234108D01*
X342379Y234141D01*
X342510Y234196D01*
X342631Y234270D01*
X342738Y234362D01*
X342761Y234389D01*
X342986Y234613D01*
X342996Y234590D01*
X343070Y234469D01*
X343162Y234362D01*
X343269Y234270D01*
X343390Y234196D01*
X343521Y234141D01*
X343659Y234108D01*
X343800Y234100D01*
X344265D01*
X344300Y234097D01*
X344335Y234100D01*
X345765D01*
X345800Y234097D01*
X345941Y234108D01*
X345941Y234108D01*
X346079Y234141D01*
X346210Y234196D01*
X346331Y234270D01*
X346438Y234362D01*
X346461Y234389D01*
X346808Y234735D01*
Y232879D01*
X346721Y232859D01*
X346590Y232804D01*
X346469Y232730D01*
X346469Y232730D01*
X346362Y232638D01*
X346339Y232612D01*
X346114Y232386D01*
X346065Y232479D01*
X345981Y232593D01*
X345880Y232692D01*
X345764Y232774D01*
X345638Y232837D01*
X345503Y232880D01*
X345362Y232901D01*
X345221Y232899D01*
X345081Y232876D01*
X344947Y232831D01*
X344821Y232765D01*
X344707Y232681D01*
X344608Y232580D01*
X344528Y232463D01*
X344200Y231916D01*
Y232000D01*
X344192Y232141D01*
X344159Y232279D01*
X344104Y232410D01*
X344030Y232531D01*
X343938Y232638D01*
X343831Y232730D01*
X343710Y232804D01*
X343579Y232859D01*
X343441Y232892D01*
X343300Y232903D01*
X343159Y232892D01*
X343021Y232859D01*
X342890Y232804D01*
X342769Y232730D01*
X342662Y232638D01*
X342570Y232531D01*
X342496Y232410D01*
X342441Y232279D01*
X342408Y232141D01*
X342400Y232000D01*
Y230035D01*
X342397Y230000D01*
X342400Y229965D01*
Y229917D01*
X342359Y229984D01*
X342330Y230031D01*
X342238Y230138D01*
X342211Y230161D01*
X341761Y230611D01*
X341738Y230638D01*
X341631Y230730D01*
X341510Y230804D01*
X341379Y230859D01*
X341241Y230892D01*
X341241Y230892D01*
X341100Y230903D01*
X341065Y230900D01*
X340500D01*
Y232000D01*
X340492Y232141D01*
X340459Y232279D01*
X340404Y232410D01*
X340330Y232531D01*
X340238Y232638D01*
X340131Y232730D01*
X340010Y232804D01*
X339879Y232859D01*
X339741Y232892D01*
X339600Y232903D01*
X339459Y232892D01*
X339321Y232859D01*
X339190Y232804D01*
X339069Y232730D01*
X338962Y232638D01*
X338870Y232531D01*
X338796Y232410D01*
X338741Y232279D01*
X338708Y232141D01*
X338700Y232000D01*
Y230035D01*
X338697Y230000D01*
X338700Y229965D01*
Y228808D01*
X338690Y228804D01*
X338569Y228730D01*
X338462Y228638D01*
X338370Y228531D01*
X338296Y228410D01*
X338241Y228279D01*
X338208Y228141D01*
X338197Y228000D01*
X338208Y227859D01*
X338241Y227721D01*
X338296Y227590D01*
X338370Y227469D01*
X338462Y227362D01*
X338569Y227270D01*
X338690Y227196D01*
X338821Y227141D01*
X338959Y227108D01*
X339100Y227100D01*
X339565D01*
X339600Y227097D01*
X339635Y227100D01*
X341065D01*
X341100Y227097D01*
X341241Y227108D01*
X341241Y227108D01*
X341379Y227141D01*
X341510Y227196D01*
X341631Y227270D01*
X341738Y227362D01*
X341761Y227389D01*
X341986Y227613D01*
X341996Y227590D01*
X342070Y227469D01*
X342162Y227362D01*
X342269Y227270D01*
X342390Y227196D01*
X342521Y227141D01*
X342659Y227108D01*
X342800Y227100D01*
X343265D01*
X343300Y227097D01*
X343335Y227100D01*
X344765D01*
X344800Y227097D01*
X344941Y227108D01*
X344941Y227108D01*
X345079Y227141D01*
X345210Y227196D01*
X345331Y227270D01*
X345438Y227362D01*
X345461Y227389D01*
X345900Y227827D01*
X346339Y227389D01*
X346362Y227362D01*
X346469Y227270D01*
X346469Y227270D01*
X346590Y227196D01*
X346721Y227141D01*
X346808Y227121D01*
Y204899D01*
X333411Y204898D01*
Y234098D01*
X333541Y234108D01*
X333679Y234141D01*
X333810Y234196D01*
X333931Y234270D01*
X334038Y234362D01*
X334130Y234469D01*
X334204Y234590D01*
X334214Y234613D01*
X334439Y234389D01*
X334462Y234362D01*
X334569Y234270D01*
X334690Y234196D01*
X334821Y234141D01*
X334959Y234108D01*
X334959D01*
X335100Y234097D01*
X335135Y234100D01*
X336565D01*
X336600Y234097D01*
X336741Y234108D01*
X336741Y234108D01*
X336879Y234141D01*
X337010Y234196D01*
X337131Y234270D01*
X337238Y234362D01*
X337261Y234389D01*
X337736Y234864D01*
X337830Y234969D01*
X337904Y235090D01*
X337959Y235221D01*
X337992Y235359D01*
X338003Y235500D01*
X337992Y235641D01*
X337959Y235779D01*
X337904Y235910D01*
X337830Y236031D01*
X337738Y236138D01*
X337631Y236230D01*
X337510Y236304D01*
X337379Y236359D01*
X337260Y236387D01*
X337261Y236389D01*
X337711Y236839D01*
X337738Y236862D01*
X337830Y236969D01*
X337830Y236969D01*
X337904Y237090D01*
X337959Y237221D01*
X337992Y237359D01*
X338003Y237500D01*
X338000Y237535D01*
Y238465D01*
X338003Y238500D01*
X337992Y238641D01*
X337959Y238779D01*
X337904Y238910D01*
X337859Y238984D01*
X337830Y239031D01*
X337738Y239138D01*
X337711Y239161D01*
X337261Y239611D01*
X337238Y239638D01*
X337131Y239730D01*
X337010Y239804D01*
X336879Y239859D01*
X336741Y239892D01*
X336741Y239892D01*
X336600Y239903D01*
X336565Y239900D01*
X335135D01*
X335100Y239903D01*
X334959Y239892D01*
X334821Y239859D01*
X334690Y239804D01*
X334569Y239730D01*
X334462Y239638D01*
X334439Y239611D01*
X333964Y239136D01*
X333870Y239031D01*
X333796Y238910D01*
X333741Y238779D01*
X333708Y238641D01*
X333697Y238500D01*
X333708Y238359D01*
X333741Y238221D01*
X333796Y238090D01*
X333870Y237969D01*
X333962Y237862D01*
X334069Y237770D01*
X334190Y237696D01*
X334321Y237641D01*
X334440Y237613D01*
X334439Y237611D01*
X333989Y237161D01*
X333962Y237138D01*
X333870Y237031D01*
X333796Y236910D01*
X333741Y236779D01*
X333708Y236641D01*
X333708Y236641D01*
X333697Y236500D01*
X333700Y236465D01*
Y235973D01*
X333411Y236262D01*
Y292000D01*
G37*
G36*
Y204898D02*X327106Y204897D01*
Y234100D01*
X327465D01*
X327500Y234097D01*
X327641Y234108D01*
X327641Y234108D01*
X327779Y234141D01*
X327910Y234196D01*
X328031Y234270D01*
X328138Y234362D01*
X328161Y234389D01*
X328386Y234613D01*
X328396Y234590D01*
X328470Y234469D01*
X328562Y234362D01*
X328669Y234270D01*
X328790Y234196D01*
X328921Y234141D01*
X329059Y234108D01*
X329200Y234097D01*
X329341Y234108D01*
X329479Y234141D01*
X329610Y234196D01*
X329731Y234270D01*
X329838Y234362D01*
X329930Y234469D01*
X330004Y234590D01*
X330059Y234721D01*
X330092Y234859D01*
X330100Y235000D01*
Y238100D01*
X330300D01*
Y235000D01*
X330308Y234859D01*
X330341Y234721D01*
X330396Y234590D01*
X330470Y234469D01*
X330562Y234362D01*
X330669Y234270D01*
X330790Y234196D01*
X330921Y234141D01*
X331059Y234108D01*
X331200Y234097D01*
X331341Y234108D01*
X331479Y234141D01*
X331610Y234196D01*
X331731Y234270D01*
X331838Y234362D01*
X331930Y234469D01*
X332004Y234590D01*
X332059Y234721D01*
X332092Y234859D01*
X332100Y235000D01*
Y235027D01*
X332764Y234364D01*
X332869Y234270D01*
X332990Y234196D01*
X333121Y234141D01*
X333259Y234108D01*
X333400Y234097D01*
X333411Y234098D01*
Y204898D01*
G37*
G36*
Y122000D02*X327106D01*
Y144580D01*
X327109Y144580D01*
X327797Y144612D01*
X328480Y144706D01*
X329150Y144863D01*
X329804Y145081D01*
X330435Y145357D01*
X331038Y145690D01*
X331608Y146077D01*
X331668Y146130D01*
X331719Y146191D01*
X331760Y146260D01*
X331760Y146261D01*
X331761Y146262D01*
X331790Y146336D01*
X331808Y146414D01*
X331813Y146493D01*
X331806Y146573D01*
X331786Y146650D01*
X331754Y146723D01*
X331712Y146791D01*
X331659Y146851D01*
X331598Y146901D01*
X331529Y146942D01*
X331455Y146972D01*
X331377Y146989D01*
X331297Y146994D01*
X331218Y146987D01*
X331141Y146967D01*
X331067Y146936D01*
X331001Y146892D01*
X330512Y146551D01*
X329990Y146263D01*
X329443Y146023D01*
X328877Y145835D01*
X328297Y145699D01*
X327706Y145617D01*
X327110Y145590D01*
X327106Y145590D01*
Y158588D01*
X327109Y158588D01*
X327705Y158561D01*
X328296Y158479D01*
X328876Y158343D01*
X329442Y158155D01*
X329989Y157915D01*
X330511Y157627D01*
X331004Y157292D01*
X331070Y157248D01*
X331142Y157217D01*
X331218Y157198D01*
X331296Y157191D01*
X331375Y157196D01*
X331452Y157213D01*
X331525Y157242D01*
X331593Y157282D01*
X331653Y157332D01*
X331705Y157391D01*
X331747Y157458D01*
X331748Y157459D01*
X331748Y157460D01*
X331779Y157532D01*
X331799Y157609D01*
X331806Y157687D01*
X331801Y157765D01*
X331784Y157842D01*
X331755Y157915D01*
X331715Y157983D01*
X331664Y158044D01*
X331604Y158094D01*
X331039Y158488D01*
X330436Y158821D01*
X329805Y159097D01*
X329151Y159315D01*
X328481Y159472D01*
X327798Y159566D01*
X327110Y159598D01*
X327106Y159598D01*
Y199103D01*
X333411Y199103D01*
Y156161D01*
X333121Y156589D01*
X333068Y156649D01*
X333007Y156700D01*
X332938Y156741D01*
X332864Y156770D01*
X332786Y156788D01*
X332707Y156793D01*
X332627Y156786D01*
X332550Y156766D01*
X332477Y156734D01*
X332409Y156692D01*
X332349Y156639D01*
X332299Y156578D01*
X332258Y156509D01*
X332257Y156508D01*
X332257Y156507D01*
X332227Y156433D01*
X332210Y156355D01*
X332205Y156275D01*
X332212Y156196D01*
X332232Y156119D01*
X332263Y156045D01*
X332307Y155979D01*
X332648Y155490D01*
X332936Y154968D01*
X333176Y154421D01*
X333364Y153855D01*
X333411Y153653D01*
Y150523D01*
X333364Y150321D01*
X333176Y149755D01*
X332937Y149209D01*
X332649Y148688D01*
X332314Y148195D01*
X332270Y148129D01*
X332270Y148128D01*
X332269Y148127D01*
X332238Y148055D01*
X332219Y147979D01*
X332212Y147901D01*
X332217Y147822D01*
X332234Y147745D01*
X332263Y147672D01*
X332303Y147604D01*
X332353Y147544D01*
X332412Y147492D01*
X332479Y147450D01*
X332551Y147419D01*
X332628Y147399D01*
X332706Y147392D01*
X332784Y147397D01*
X332861Y147414D01*
X332934Y147443D01*
X333002Y147483D01*
X333063Y147534D01*
X333113Y147594D01*
X333411Y148022D01*
Y122000D01*
G37*
G36*
X327106Y292000D02*X333411D01*
Y236262D01*
X333036Y236636D01*
X332931Y236730D01*
X332810Y236804D01*
X332679Y236859D01*
X332541Y236892D01*
X332400Y236903D01*
X332259Y236892D01*
X332121Y236859D01*
X332100Y236850D01*
Y238465D01*
X332103Y238500D01*
X332092Y238641D01*
X332092Y238641D01*
X332059Y238779D01*
X332004Y238910D01*
X331930Y239031D01*
X331838Y239138D01*
X331811Y239161D01*
X331361Y239611D01*
X331338Y239638D01*
X331231Y239730D01*
X331184Y239759D01*
X331110Y239804D01*
X330979Y239859D01*
X330841Y239892D01*
X330700Y239903D01*
X330665Y239900D01*
X329735D01*
X329700Y239903D01*
X329559Y239892D01*
X329421Y239859D01*
X329290Y239804D01*
X329169Y239730D01*
X329169Y239730D01*
X329062Y239638D01*
X329039Y239612D01*
X328600Y239173D01*
X328161Y239611D01*
X328138Y239638D01*
X328031Y239730D01*
X327984Y239759D01*
X327910Y239804D01*
X327779Y239859D01*
X327641Y239892D01*
X327500Y239903D01*
X327465Y239900D01*
X327106D01*
Y292000D01*
G37*
G36*
Y204897D02*X320808Y204897D01*
Y234100D01*
X321100D01*
X321241Y234108D01*
X321379Y234141D01*
X321510Y234196D01*
X321631Y234270D01*
X321700Y234329D01*
X321769Y234270D01*
X321890Y234196D01*
X322021Y234141D01*
X322159Y234108D01*
X322300Y234100D01*
X324733D01*
X324737Y234099D01*
X324879Y234101D01*
X324915Y234107D01*
X324941Y234108D01*
X324980Y234118D01*
X325018Y234124D01*
X325048Y234134D01*
X325079Y234141D01*
X325115Y234157D01*
X325153Y234169D01*
X325181Y234184D01*
X325210Y234196D01*
X325244Y234216D01*
X325278Y234234D01*
X325304Y234253D01*
X325331Y234270D01*
X325361Y234295D01*
X325392Y234319D01*
X325414Y234341D01*
X325438Y234362D01*
X325464Y234392D01*
X325492Y234420D01*
X325510Y234445D01*
X325530Y234469D01*
X325551Y234503D01*
X325574Y234535D01*
X325588Y234563D01*
X325604Y234590D01*
X325614Y234613D01*
X325839Y234389D01*
X325862Y234362D01*
X325969Y234270D01*
X325969Y234270D01*
X326090Y234196D01*
X326221Y234141D01*
X326359Y234108D01*
X326500Y234097D01*
X326535Y234100D01*
X327106D01*
Y204897D01*
G37*
G36*
Y122000D02*X320808D01*
Y148017D01*
X321098Y147589D01*
X321151Y147529D01*
X321212Y147478D01*
X321281Y147437D01*
X321355Y147408D01*
X321433Y147390D01*
X321512Y147385D01*
X321592Y147392D01*
X321669Y147412D01*
X321742Y147444D01*
X321810Y147486D01*
X321870Y147539D01*
X321920Y147600D01*
X321961Y147669D01*
X321962Y147670D01*
X321962Y147671D01*
X321992Y147745D01*
X322009Y147823D01*
X322014Y147903D01*
X322007Y147982D01*
X321987Y148059D01*
X321956Y148133D01*
X321912Y148199D01*
X321571Y148688D01*
X321283Y149210D01*
X321043Y149757D01*
X320855Y150323D01*
X320808Y150525D01*
Y153655D01*
X320855Y153857D01*
X321043Y154423D01*
X321282Y154969D01*
X321570Y155490D01*
X321905Y155983D01*
X321949Y156049D01*
X321949Y156050D01*
X321950Y156051D01*
X321981Y156123D01*
X322000Y156199D01*
X322007Y156277D01*
X322002Y156356D01*
X321985Y156433D01*
X321956Y156506D01*
X321916Y156574D01*
X321866Y156634D01*
X321807Y156686D01*
X321740Y156728D01*
X321668Y156759D01*
X321591Y156779D01*
X321513Y156786D01*
X321435Y156781D01*
X321358Y156764D01*
X321285Y156735D01*
X321217Y156695D01*
X321156Y156644D01*
X321106Y156584D01*
X320808Y156156D01*
Y199102D01*
X327106Y199103D01*
Y159598D01*
X326422Y159566D01*
X325739Y159472D01*
X325069Y159315D01*
X324415Y159097D01*
X323784Y158821D01*
X323181Y158488D01*
X322611Y158101D01*
X322551Y158048D01*
X322500Y157987D01*
X322459Y157918D01*
X322459Y157917D01*
X322458Y157916D01*
X322429Y157842D01*
X322411Y157764D01*
X322406Y157685D01*
X322413Y157605D01*
X322433Y157528D01*
X322465Y157455D01*
X322507Y157387D01*
X322560Y157327D01*
X322621Y157277D01*
X322690Y157236D01*
X322764Y157206D01*
X322842Y157189D01*
X322922Y157184D01*
X323001Y157191D01*
X323078Y157211D01*
X323152Y157242D01*
X323218Y157286D01*
X323707Y157627D01*
X324229Y157915D01*
X324776Y158155D01*
X325342Y158343D01*
X325922Y158479D01*
X326513Y158561D01*
X327106Y158588D01*
Y145590D01*
X326514Y145617D01*
X325923Y145699D01*
X325343Y145835D01*
X324777Y146023D01*
X324230Y146263D01*
X323708Y146551D01*
X323215Y146886D01*
X323149Y146930D01*
X323077Y146961D01*
X323001Y146980D01*
X322923Y146987D01*
X322844Y146982D01*
X322767Y146965D01*
X322694Y146936D01*
X322626Y146896D01*
X322566Y146846D01*
X322514Y146787D01*
X322472Y146720D01*
X322471Y146719D01*
X322471Y146718D01*
X322440Y146646D01*
X322420Y146569D01*
X322413Y146491D01*
X322418Y146413D01*
X322435Y146336D01*
X322464Y146263D01*
X322504Y146195D01*
X322555Y146134D01*
X322615Y146084D01*
X323180Y145690D01*
X323783Y145357D01*
X324414Y145081D01*
X325068Y144863D01*
X325738Y144706D01*
X326421Y144612D01*
X327106Y144580D01*
Y122000D01*
G37*
G36*
X320808Y292000D02*X327106D01*
Y239900D01*
X326535D01*
X326500Y239903D01*
X326359Y239892D01*
X326221Y239859D01*
X326090Y239804D01*
X325969Y239730D01*
X325969Y239730D01*
X325862Y239638D01*
X325839Y239612D01*
X325614Y239387D01*
X325604Y239410D01*
X325530Y239531D01*
X325438Y239638D01*
X325331Y239730D01*
X325210Y239804D01*
X325079Y239859D01*
X324941Y239892D01*
X324800Y239900D01*
X322367D01*
X322363Y239901D01*
X322221Y239899D01*
X322184Y239893D01*
X322159Y239892D01*
X322120Y239882D01*
X322082Y239876D01*
X322052Y239866D01*
X322021Y239859D01*
X321985Y239844D01*
X321947Y239831D01*
X321919Y239816D01*
X321890Y239804D01*
X321857Y239784D01*
X321822Y239766D01*
X321796Y239747D01*
X321769Y239730D01*
X321739Y239705D01*
X321708Y239681D01*
X321699Y239672D01*
X321631Y239730D01*
X321510Y239804D01*
X321379Y239859D01*
X321241Y239892D01*
X321100Y239900D01*
X320808D01*
Y262200D01*
X320965D01*
X321000Y262197D01*
X321141Y262208D01*
X321141Y262208D01*
X321279Y262241D01*
X321410Y262296D01*
X321531Y262370D01*
X321638Y262462D01*
X321661Y262489D01*
X322136Y262964D01*
X322230Y263069D01*
X322304Y263190D01*
X322359Y263321D01*
X322392Y263459D01*
X322403Y263600D01*
X322392Y263741D01*
X322359Y263879D01*
X322304Y264010D01*
X322230Y264131D01*
X322138Y264238D01*
X322031Y264330D01*
X321910Y264404D01*
X321779Y264459D01*
X321660Y264487D01*
X321661Y264489D01*
X322111Y264939D01*
X322138Y264962D01*
X322230Y265069D01*
X322230Y265069D01*
X322304Y265190D01*
X322359Y265321D01*
X322392Y265459D01*
X322403Y265600D01*
X322400Y265635D01*
Y266565D01*
X322403Y266600D01*
X322392Y266741D01*
X322359Y266879D01*
X322304Y267010D01*
X322259Y267084D01*
X322230Y267131D01*
X322138Y267238D01*
X322111Y267261D01*
X321661Y267711D01*
X321638Y267738D01*
X321531Y267830D01*
X321410Y267904D01*
X321279Y267959D01*
X321141Y267992D01*
X321141Y267992D01*
X321000Y268003D01*
X320965Y268000D01*
X320808D01*
Y292000D01*
G37*
G36*
Y406000D02*X323500D01*
Y375500D01*
X320808D01*
Y406000D01*
G37*
G36*
Y150525D02*X320719Y150903D01*
X320637Y151494D01*
X320610Y152090D01*
X320637Y152686D01*
X320719Y153277D01*
X320808Y153655D01*
Y150525D01*
G37*
G36*
X299599Y199101D02*X320808Y199102D01*
Y156156D01*
X320712Y156019D01*
X320379Y155416D01*
X320379Y155415D01*
X320378Y155414D01*
X320102Y154783D01*
X319884Y154129D01*
X319727Y153459D01*
X319633Y152776D01*
X319601Y152088D01*
X319633Y151400D01*
X319727Y150717D01*
X319884Y150047D01*
X320102Y149393D01*
X320378Y148762D01*
X320711Y148159D01*
X320808Y148017D01*
Y122000D01*
X299599D01*
Y142000D01*
X307500D01*
Y168000D01*
X299599D01*
Y199101D01*
G37*
G36*
X307900Y406000D02*X320808D01*
Y375500D01*
X317000D01*
X312000Y370500D01*
Y297000D01*
X317000Y292000D01*
X320808D01*
Y268000D01*
X319535D01*
X319500Y268003D01*
X319359Y267992D01*
X319221Y267959D01*
X319090Y267904D01*
X318969Y267830D01*
X318862Y267738D01*
X318839Y267711D01*
X318400Y267273D01*
X317961Y267711D01*
X317938Y267738D01*
X317831Y267830D01*
X317710Y267904D01*
X317579Y267959D01*
X317441Y267992D01*
X317441Y267992D01*
X317300Y268003D01*
X317265Y268000D01*
X315835D01*
X315800Y268003D01*
X315659Y267992D01*
X315521Y267959D01*
X315390Y267904D01*
X315269Y267830D01*
X315162Y267738D01*
X315139Y267711D01*
X314700Y267273D01*
X314261Y267711D01*
X314238Y267738D01*
X314131Y267830D01*
X314084Y267859D01*
X314010Y267904D01*
X313879Y267959D01*
X313741Y267992D01*
X313600Y268003D01*
X313565Y268000D01*
X312635D01*
X312600Y268003D01*
X312459Y267992D01*
X312321Y267959D01*
X312190Y267904D01*
X312069Y267830D01*
X312069Y267830D01*
X311962Y267738D01*
X311939Y267712D01*
X311489Y267261D01*
X311462Y267238D01*
X311370Y267131D01*
X311296Y267010D01*
X311241Y266879D01*
X311208Y266741D01*
X311208Y266741D01*
X311197Y266600D01*
X311200Y266565D01*
Y265317D01*
X311130Y265431D01*
X311038Y265538D01*
X310931Y265630D01*
X310810Y265704D01*
X310679Y265759D01*
X310541Y265792D01*
X310400Y265800D01*
X309800D01*
Y267100D01*
X309792Y267241D01*
X309759Y267379D01*
X309704Y267510D01*
X309630Y267631D01*
X309538Y267738D01*
X309431Y267830D01*
X309310Y267904D01*
X309179Y267959D01*
X309041Y267992D01*
X308900Y268003D01*
X308759Y267992D01*
X308621Y267959D01*
X308490Y267904D01*
X308369Y267830D01*
X308262Y267738D01*
X308170Y267631D01*
X308096Y267510D01*
X308041Y267379D01*
X308008Y267241D01*
X308000Y267100D01*
Y264935D01*
X307997Y264900D01*
X308000Y264865D01*
Y263135D01*
X307997Y263100D01*
X308008Y262959D01*
X308041Y262821D01*
X308096Y262690D01*
X308170Y262569D01*
X308262Y262462D01*
X308369Y262370D01*
X308490Y262296D01*
X308621Y262241D01*
X308759Y262208D01*
X308900Y262197D01*
X308935Y262200D01*
X310900D01*
X311041Y262208D01*
X311179Y262241D01*
X311310Y262296D01*
X311431Y262370D01*
X311538Y262462D01*
X311630Y262569D01*
X311704Y262690D01*
X311714Y262713D01*
X311939Y262488D01*
X311962Y262462D01*
X312069Y262370D01*
X312069Y262370D01*
X312190Y262296D01*
X312321Y262241D01*
X312459Y262208D01*
X312600Y262197D01*
X312635Y262200D01*
X313565D01*
X313600Y262197D01*
X313741Y262208D01*
X313741Y262208D01*
X313879Y262241D01*
X314010Y262296D01*
X314131Y262370D01*
X314238Y262462D01*
X314261Y262489D01*
X314700Y262927D01*
X315139Y262489D01*
X315162Y262462D01*
X315269Y262370D01*
X315390Y262296D01*
X315521Y262241D01*
X315659Y262208D01*
X315659D01*
X315800Y262197D01*
X315835Y262200D01*
X317265D01*
X317300Y262197D01*
X317441Y262208D01*
X317441Y262208D01*
X317579Y262241D01*
X317710Y262296D01*
X317831Y262370D01*
X317938Y262462D01*
X317961Y262489D01*
X318400Y262927D01*
X318839Y262489D01*
X318862Y262462D01*
X318969Y262370D01*
X319090Y262296D01*
X319221Y262241D01*
X319359Y262208D01*
X319359D01*
X319500Y262197D01*
X319535Y262200D01*
X320808D01*
Y239900D01*
X320635D01*
X320600Y239903D01*
X320565Y239900D01*
X320100D01*
X319959Y239892D01*
X319821Y239859D01*
X319690Y239804D01*
X319569Y239730D01*
X319462Y239638D01*
X319370Y239531D01*
X319296Y239410D01*
X319286Y239387D01*
X319061Y239611D01*
X319038Y239638D01*
X318931Y239730D01*
X318884Y239759D01*
X318810Y239804D01*
X318679Y239859D01*
X318541Y239892D01*
X318400Y239903D01*
X318365Y239900D01*
X317435D01*
X317400Y239903D01*
X317259Y239892D01*
X317121Y239859D01*
X316990Y239804D01*
X316869Y239730D01*
X316869Y239730D01*
X316762Y239638D01*
X316739Y239612D01*
X316514Y239387D01*
X316504Y239410D01*
X316430Y239531D01*
X316338Y239638D01*
X316231Y239730D01*
X316110Y239804D01*
X315979Y239859D01*
X315841Y239892D01*
X315700Y239900D01*
X313735D01*
X313700Y239903D01*
X313559Y239892D01*
X313421Y239859D01*
X313290Y239804D01*
X313169Y239730D01*
X313062Y239638D01*
X312970Y239531D01*
X312896Y239410D01*
X312841Y239279D01*
X312808Y239141D01*
X312808Y239141D01*
X312797Y239000D01*
X312800Y238965D01*
Y235000D01*
X312808Y234859D01*
X312841Y234721D01*
X312896Y234590D01*
X312970Y234469D01*
X313062Y234362D01*
X313169Y234270D01*
X313290Y234196D01*
X313421Y234141D01*
X313559Y234108D01*
X313700Y234097D01*
X313841Y234108D01*
X313979Y234141D01*
X314110Y234196D01*
X314231Y234270D01*
X314338Y234362D01*
X314430Y234469D01*
X314504Y234590D01*
X314559Y234721D01*
X314592Y234859D01*
X314600Y235000D01*
Y238100D01*
X315700D01*
X315841Y238108D01*
X315979Y238141D01*
X316000Y238150D01*
Y235535D01*
X315997Y235500D01*
X316008Y235359D01*
Y235359D01*
X316041Y235221D01*
X316096Y235090D01*
X316170Y234969D01*
X316262Y234862D01*
X316289Y234839D01*
X316739Y234389D01*
X316762Y234362D01*
X316869Y234270D01*
X316869Y234270D01*
X316990Y234196D01*
X317121Y234141D01*
X317259Y234108D01*
X317400Y234097D01*
X317435Y234100D01*
X318365D01*
X318400Y234097D01*
X318541Y234108D01*
X318541Y234108D01*
X318679Y234141D01*
X318810Y234196D01*
X318931Y234270D01*
X319038Y234362D01*
X319061Y234389D01*
X319286Y234613D01*
X319296Y234590D01*
X319370Y234469D01*
X319462Y234362D01*
X319569Y234270D01*
X319690Y234196D01*
X319821Y234141D01*
X319959Y234108D01*
X320100Y234100D01*
X320565D01*
X320600Y234097D01*
X320635Y234100D01*
X320808D01*
Y204897D01*
X307900Y204896D01*
Y213105D01*
X307941Y213108D01*
X308079Y213141D01*
X308210Y213196D01*
X308331Y213270D01*
X308400Y213329D01*
X308469Y213270D01*
X308590Y213196D01*
X308721Y213141D01*
X308859Y213108D01*
X309000Y213100D01*
X309465D01*
X309500Y213097D01*
X309535Y213100D01*
X310000D01*
X310141Y213108D01*
X310279Y213141D01*
X310410Y213196D01*
X310531Y213270D01*
X310600Y213329D01*
X310669Y213270D01*
X310790Y213196D01*
X310921Y213141D01*
X311059Y213108D01*
X311200Y213100D01*
X311665D01*
X311700Y213097D01*
X311735Y213100D01*
X313165D01*
X313200Y213097D01*
X313341Y213108D01*
X313341Y213108D01*
X313479Y213141D01*
X313610Y213196D01*
X313731Y213270D01*
X313838Y213362D01*
X313861Y213389D01*
X314311Y213839D01*
X314338Y213862D01*
X314430Y213969D01*
X314430Y213969D01*
X314504Y214090D01*
X314559Y214221D01*
X314592Y214359D01*
X314603Y214500D01*
X314600Y214535D01*
Y215465D01*
X314603Y215500D01*
X314592Y215641D01*
X314559Y215779D01*
X314504Y215910D01*
X314459Y215984D01*
X314430Y216031D01*
X314338Y216138D01*
X314311Y216161D01*
X313861Y216611D01*
X313838Y216638D01*
X313731Y216730D01*
X313610Y216804D01*
X313479Y216859D01*
X313341Y216892D01*
X313341Y216892D01*
X313200Y216903D01*
X313165Y216900D01*
X312600D01*
Y218000D01*
X312592Y218141D01*
X312559Y218279D01*
X312504Y218410D01*
X312430Y218531D01*
X312338Y218638D01*
X312231Y218730D01*
X312110Y218804D01*
X311979Y218859D01*
X311841Y218892D01*
X311700Y218903D01*
X311559Y218892D01*
X311421Y218859D01*
X311290Y218804D01*
X311169Y218730D01*
X311062Y218638D01*
X310970Y218531D01*
X310896Y218410D01*
X310850Y218300D01*
X310804Y218410D01*
X310730Y218531D01*
X310638Y218638D01*
X310531Y218730D01*
X310410Y218804D01*
X310279Y218859D01*
X310141Y218892D01*
X310000Y218900D01*
X309535D01*
X309500Y218903D01*
X309465Y218900D01*
X309000D01*
X308859Y218892D01*
X308721Y218859D01*
X308590Y218804D01*
X308469Y218730D01*
X308400Y218671D01*
X308331Y218730D01*
X308210Y218804D01*
X308079Y218859D01*
X307941Y218892D01*
X307900Y218895D01*
Y234150D01*
X307921Y234141D01*
X308059Y234108D01*
X308200Y234100D01*
X308665D01*
X308700Y234097D01*
X308735Y234100D01*
X310165D01*
X310200Y234097D01*
X310341Y234108D01*
X310341Y234108D01*
X310479Y234141D01*
X310610Y234196D01*
X310731Y234270D01*
X310838Y234362D01*
X310861Y234389D01*
X311311Y234839D01*
X311338Y234862D01*
X311430Y234969D01*
X311430Y234969D01*
X311504Y235090D01*
X311559Y235221D01*
X311592Y235359D01*
X311603Y235500D01*
X311600Y235535D01*
Y236465D01*
X311603Y236500D01*
X311592Y236641D01*
X311559Y236779D01*
X311504Y236910D01*
X311459Y236984D01*
X311430Y237031D01*
X311338Y237138D01*
X311311Y237161D01*
X310861Y237611D01*
X310838Y237638D01*
X310731Y237730D01*
X310610Y237804D01*
X310479Y237859D01*
X310341Y237892D01*
X310341Y237892D01*
X310200Y237903D01*
X310165Y237900D01*
X309600D01*
Y239000D01*
X309592Y239141D01*
X309559Y239279D01*
X309504Y239410D01*
X309430Y239531D01*
X309338Y239638D01*
X309231Y239730D01*
X309110Y239804D01*
X308979Y239859D01*
X308841Y239892D01*
X308700Y239903D01*
X308559Y239892D01*
X308421Y239859D01*
X308290Y239804D01*
X308169Y239730D01*
X308062Y239638D01*
X307970Y239531D01*
X307900Y239417D01*
Y406000D01*
G37*
G36*
Y204896D02*X299599Y204895D01*
Y213250D01*
X299631Y213270D01*
X299636Y213274D01*
X299642Y213278D01*
X299690Y213320D01*
X299738Y213362D01*
X299743Y213367D01*
X299748Y213371D01*
X299789Y213421D01*
X299830Y213469D01*
X299834Y213475D01*
X299838Y213481D01*
X299871Y213536D01*
X299904Y213590D01*
X299907Y213596D01*
X299911Y213602D01*
X299934Y213662D01*
X299959Y213721D01*
X299960Y213728D01*
X299963Y213734D01*
X299977Y213797D01*
X299992Y213859D01*
X299992Y213865D01*
X299994Y213872D01*
X300003Y214014D01*
X300000Y214042D01*
Y218000D01*
X299992Y218141D01*
X299959Y218279D01*
X299904Y218410D01*
X299830Y218531D01*
X299738Y218638D01*
X299631Y218730D01*
X299599Y218750D01*
Y234122D01*
X299679Y234141D01*
X299810Y234196D01*
X299931Y234270D01*
X300000Y234329D01*
X300069Y234270D01*
X300190Y234196D01*
X300321Y234141D01*
X300459Y234108D01*
X300600Y234100D01*
X301065D01*
X301100Y234097D01*
X301135Y234100D01*
X301600D01*
X301741Y234108D01*
X301879Y234141D01*
X302010Y234196D01*
X302131Y234270D01*
X302200Y234329D01*
X302269Y234270D01*
X302390Y234196D01*
X302521Y234141D01*
X302659Y234108D01*
X302800Y234097D01*
X302941Y234108D01*
X303079Y234141D01*
X303210Y234196D01*
X303331Y234270D01*
X303438Y234362D01*
X303530Y234469D01*
X303604Y234590D01*
X303659Y234721D01*
X303692Y234859D01*
X303700Y235000D01*
Y238100D01*
X304800D01*
X304941Y238108D01*
X305079Y238141D01*
X305210Y238196D01*
X305331Y238270D01*
X305400Y238329D01*
X305469Y238270D01*
X305590Y238196D01*
X305600Y238192D01*
Y235808D01*
X305590Y235804D01*
X305469Y235730D01*
X305362Y235638D01*
X305270Y235531D01*
X305196Y235410D01*
X305141Y235279D01*
X305108Y235141D01*
X305097Y235000D01*
X305108Y234859D01*
X305141Y234721D01*
X305196Y234590D01*
X305270Y234469D01*
X305362Y234362D01*
X305469Y234270D01*
X305590Y234196D01*
X305721Y234141D01*
X305859Y234108D01*
X306000Y234100D01*
X306465D01*
X306500Y234097D01*
X306535Y234100D01*
X307000D01*
X307141Y234108D01*
X307279Y234141D01*
X307410Y234196D01*
X307531Y234270D01*
X307600Y234329D01*
X307669Y234270D01*
X307790Y234196D01*
X307900Y234150D01*
Y218895D01*
X307800Y218903D01*
X307659Y218892D01*
X307521Y218859D01*
X307390Y218804D01*
X307269Y218730D01*
X307162Y218638D01*
X307070Y218531D01*
X306996Y218410D01*
X306941Y218279D01*
X306908Y218141D01*
X306900Y218000D01*
Y216900D01*
X306200D01*
Y218000D01*
X306192Y218141D01*
X306159Y218279D01*
X306104Y218410D01*
X306030Y218531D01*
X305938Y218638D01*
X305831Y218730D01*
X305710Y218804D01*
X305579Y218859D01*
X305441Y218892D01*
X305300Y218903D01*
X305159Y218892D01*
X305021Y218859D01*
X304890Y218804D01*
X304769Y218730D01*
X304700Y218671D01*
X304631Y218730D01*
X304510Y218804D01*
X304379Y218859D01*
X304241Y218892D01*
X304100Y218900D01*
X302835D01*
X302800Y218903D01*
X302659Y218892D01*
X302521Y218859D01*
X302390Y218804D01*
X302269Y218730D01*
X302162Y218638D01*
X302139Y218611D01*
X301489Y217961D01*
X301462Y217938D01*
X301370Y217831D01*
X301296Y217710D01*
X301241Y217579D01*
X301208Y217441D01*
X301208Y217441D01*
X301197Y217300D01*
X301200Y217265D01*
Y214735D01*
X301197Y214700D01*
X301208Y214559D01*
Y214559D01*
X301241Y214421D01*
X301296Y214290D01*
X301370Y214169D01*
X301462Y214062D01*
X301489Y214039D01*
X302139Y213389D01*
X302162Y213362D01*
X302269Y213270D01*
X302390Y213196D01*
X302521Y213141D01*
X302659Y213108D01*
X302659D01*
X302800Y213097D01*
X302835Y213100D01*
X304100D01*
X304241Y213108D01*
X304379Y213141D01*
X304510Y213196D01*
X304631Y213270D01*
X304700Y213329D01*
X304769Y213270D01*
X304890Y213196D01*
X305021Y213141D01*
X305159Y213108D01*
X305300Y213097D01*
X305441Y213108D01*
X305579Y213141D01*
X305710Y213196D01*
X305831Y213270D01*
X305938Y213362D01*
X306030Y213469D01*
X306104Y213590D01*
X306159Y213721D01*
X306192Y213859D01*
X306200Y214000D01*
Y215100D01*
X306900D01*
Y214000D01*
X306908Y213859D01*
X306941Y213721D01*
X306996Y213590D01*
X307070Y213469D01*
X307162Y213362D01*
X307269Y213270D01*
X307390Y213196D01*
X307521Y213141D01*
X307659Y213108D01*
X307800Y213097D01*
X307900Y213105D01*
Y204896D01*
G37*
G36*
X299599Y406000D02*X307900D01*
Y239417D01*
X307896Y239410D01*
X307850Y239300D01*
X307804Y239410D01*
X307730Y239531D01*
X307638Y239638D01*
X307531Y239730D01*
X307410Y239804D01*
X307279Y239859D01*
X307141Y239892D01*
X307000Y239900D01*
X306535D01*
X306500Y239903D01*
X306465Y239900D01*
X306000D01*
X305859Y239892D01*
X305721Y239859D01*
X305590Y239804D01*
X305469Y239730D01*
X305400Y239671D01*
X305331Y239730D01*
X305210Y239804D01*
X305079Y239859D01*
X304941Y239892D01*
X304800Y239900D01*
X302835D01*
X302800Y239903D01*
X302659Y239892D01*
X302521Y239859D01*
X302390Y239804D01*
X302269Y239730D01*
X302200Y239671D01*
X302131Y239730D01*
X302010Y239804D01*
X301879Y239859D01*
X301741Y239892D01*
X301600Y239900D01*
X301135D01*
X301100Y239903D01*
X301065Y239900D01*
X300600D01*
X300459Y239892D01*
X300321Y239859D01*
X300190Y239804D01*
X300069Y239730D01*
X300000Y239671D01*
X299931Y239730D01*
X299810Y239804D01*
X299679Y239859D01*
X299599Y239878D01*
Y262675D01*
X299647Y262606D01*
X299670Y262569D01*
X299732Y262496D01*
X299751Y262473D01*
X299757Y262468D01*
X299762Y262462D01*
X299809Y262421D01*
X299857Y262379D01*
X299863Y262375D01*
X299869Y262370D01*
X299923Y262337D01*
X299976Y262303D01*
X299983Y262300D01*
X299990Y262296D01*
X300048Y262272D01*
X300106Y262246D01*
X300114Y262244D01*
X300121Y262241D01*
X300182Y262227D01*
X300243Y262211D01*
X300251Y262210D01*
X300259Y262208D01*
X300288Y262207D01*
X300384Y262197D01*
X300427Y262200D01*
X301473D01*
X301516Y262197D01*
X301611Y262207D01*
X301641Y262208D01*
X301649Y262210D01*
X301657Y262211D01*
X301718Y262227D01*
X301779Y262241D01*
X301786Y262244D01*
X301794Y262246D01*
X301852Y262272D01*
X301910Y262296D01*
X301917Y262300D01*
X301924Y262303D01*
X301977Y262337D01*
X302031Y262370D01*
X302037Y262375D01*
X302043Y262379D01*
X302090Y262421D01*
X302138Y262462D01*
X302144Y262468D01*
X302149Y262473D01*
X302168Y262496D01*
X302230Y262569D01*
X302253Y262606D01*
X302508Y262970D01*
X302508Y262959D01*
X302516Y262928D01*
X302520Y262897D01*
X302532Y262859D01*
X302541Y262821D01*
X302553Y262792D01*
X302563Y262762D01*
X302581Y262727D01*
X302596Y262690D01*
X302612Y262663D01*
X302626Y262635D01*
X302649Y262603D01*
X302670Y262569D01*
X302690Y262545D01*
X302708Y262520D01*
X302736Y262492D01*
X302762Y262462D01*
X302786Y262441D01*
X302808Y262419D01*
X302839Y262395D01*
X302869Y262370D01*
X302896Y262353D01*
X302922Y262334D01*
X302957Y262316D01*
X302990Y262296D01*
X303019Y262284D01*
X303047Y262269D01*
X303085Y262257D01*
X303121Y262241D01*
X303152Y262234D01*
X303182Y262224D01*
X303220Y262218D01*
X303259Y262208D01*
X303290Y262206D01*
X303321Y262201D01*
X303361Y262200D01*
X303400Y262197D01*
X303431Y262200D01*
X303463Y262199D01*
X303502Y262205D01*
X303541Y262208D01*
X303572Y262216D01*
X303603Y262220D01*
X303641Y262232D01*
X303679Y262241D01*
X303708Y262253D01*
X303738Y262263D01*
X303773Y262281D01*
X303810Y262296D01*
X303837Y262312D01*
X303865Y262326D01*
X303897Y262349D01*
X303931Y262370D01*
X303955Y262390D01*
X303980Y262408D01*
X304008Y262436D01*
X304038Y262462D01*
X304059Y262486D01*
X304081Y262508D01*
X304099Y262533D01*
X304130Y262569D01*
X304165Y262626D01*
X305000Y263962D01*
Y263100D01*
X305008Y262959D01*
X305041Y262821D01*
X305096Y262690D01*
X305170Y262569D01*
X305262Y262462D01*
X305369Y262370D01*
X305490Y262296D01*
X305621Y262241D01*
X305759Y262208D01*
X305900Y262197D01*
X306041Y262208D01*
X306179Y262241D01*
X306310Y262296D01*
X306431Y262370D01*
X306538Y262462D01*
X306630Y262569D01*
X306704Y262690D01*
X306759Y262821D01*
X306792Y262959D01*
X306800Y263100D01*
Y267096D01*
X306801Y267163D01*
X306793Y267210D01*
X306792Y267241D01*
X306784Y267272D01*
X306780Y267303D01*
X306768Y267341D01*
X306759Y267379D01*
X306747Y267408D01*
X306737Y267438D01*
X306719Y267473D01*
X306704Y267510D01*
X306688Y267537D01*
X306674Y267565D01*
X306651Y267597D01*
X306630Y267631D01*
X306610Y267655D01*
X306592Y267680D01*
X306564Y267708D01*
X306538Y267738D01*
X306514Y267759D01*
X306492Y267781D01*
X306461Y267805D01*
X306431Y267830D01*
X306404Y267847D01*
X306378Y267866D01*
X306343Y267884D01*
X306310Y267904D01*
X306281Y267916D01*
X306253Y267931D01*
X306215Y267944D01*
X306179Y267959D01*
X306148Y267966D01*
X306118Y267976D01*
X306080Y267982D01*
X306041Y267992D01*
X306010Y267994D01*
X305979Y267999D01*
X305939Y268000D01*
X305900Y268003D01*
X305869Y268000D01*
X305837Y268001D01*
X305798Y267995D01*
X305759Y267992D01*
X305728Y267984D01*
X305697Y267980D01*
X305659Y267968D01*
X305621Y267959D01*
X305592Y267947D01*
X305562Y267937D01*
X305527Y267919D01*
X305490Y267904D01*
X305463Y267888D01*
X305435Y267874D01*
X305403Y267851D01*
X305369Y267830D01*
X305345Y267810D01*
X305320Y267792D01*
X305292Y267764D01*
X305262Y267738D01*
X305241Y267714D01*
X305219Y267692D01*
X305201Y267667D01*
X305170Y267631D01*
X305135Y267575D01*
X304300Y266238D01*
Y267100D01*
X304292Y267241D01*
X304259Y267379D01*
X304204Y267510D01*
X304130Y267631D01*
X304038Y267738D01*
X303931Y267830D01*
X303810Y267904D01*
X303679Y267959D01*
X303541Y267992D01*
X303400Y268003D01*
X303259Y267992D01*
X303121Y267959D01*
X302990Y267904D01*
X302869Y267830D01*
X302800Y267771D01*
X302731Y267830D01*
X302610Y267904D01*
X302479Y267959D01*
X302341Y267992D01*
X302200Y268003D01*
X302059Y267992D01*
X301921Y267959D01*
X301790Y267904D01*
X301669Y267830D01*
X301562Y267738D01*
X301470Y267631D01*
X301396Y267510D01*
X301341Y267379D01*
X301308Y267241D01*
X301300Y267100D01*
Y266000D01*
X300600D01*
Y267100D01*
X300592Y267241D01*
X300559Y267379D01*
X300504Y267510D01*
X300430Y267631D01*
X300338Y267738D01*
X300231Y267830D01*
X300110Y267904D01*
X299979Y267959D01*
X299841Y267992D01*
X299700Y268003D01*
X299599Y267995D01*
Y406000D01*
G37*
G36*
X273205D02*X299599D01*
Y267995D01*
X299559Y267992D01*
X299421Y267959D01*
X299290Y267904D01*
X299169Y267830D01*
X299062Y267738D01*
X298970Y267631D01*
X298896Y267510D01*
X298841Y267379D01*
X298808Y267241D01*
X298800Y267100D01*
Y265611D01*
X298384Y267276D01*
X298380Y267303D01*
X298337Y267438D01*
X298333Y267446D01*
X298331Y267453D01*
X298302Y267509D01*
X298274Y267564D01*
X298269Y267571D01*
X298265Y267579D01*
X298228Y267629D01*
X298192Y267680D01*
X298186Y267686D01*
X298181Y267693D01*
X298137Y267736D01*
X298093Y267781D01*
X298086Y267786D01*
X298080Y267792D01*
X298029Y267828D01*
X297979Y267865D01*
X297971Y267869D01*
X297964Y267874D01*
X297909Y267902D01*
X297853Y267931D01*
X297845Y267933D01*
X297838Y267937D01*
X297778Y267956D01*
X297719Y267976D01*
X297711Y267977D01*
X297703Y267980D01*
X297641Y267989D01*
X297579Y267999D01*
X297571Y267999D01*
X297562Y268001D01*
X297500Y268000D01*
X297438Y268001D01*
X297429Y267999D01*
X297421Y267999D01*
X297359Y267989D01*
X297297Y267980D01*
X297289Y267977D01*
X297281Y267976D01*
X297222Y267956D01*
X297162Y267937D01*
X297155Y267933D01*
X297147Y267931D01*
X297092Y267902D01*
X297036Y267874D01*
X297029Y267869D01*
X297021Y267865D01*
X296971Y267828D01*
X296920Y267792D01*
X296914Y267786D01*
X296907Y267781D01*
X296864Y267737D01*
X296819Y267693D01*
X296814Y267686D01*
X296808Y267680D01*
X296772Y267629D01*
X296735Y267579D01*
X296731Y267571D01*
X296726Y267564D01*
X296698Y267509D01*
X296669Y267453D01*
X296667Y267446D01*
X296663Y267438D01*
X296620Y267303D01*
X296616Y267276D01*
X295765Y263871D01*
X295710Y263904D01*
X295579Y263959D01*
X295441Y263992D01*
X295300Y264000D01*
X294800D01*
X294941Y264008D01*
X295079Y264041D01*
X295210Y264096D01*
X295331Y264170D01*
X295438Y264262D01*
X295530Y264369D01*
X295604Y264490D01*
X295659Y264621D01*
X295692Y264759D01*
X295703Y264900D01*
X295692Y265041D01*
X295659Y265179D01*
X295604Y265310D01*
X295530Y265431D01*
X295438Y265538D01*
X295331Y265630D01*
X295210Y265704D01*
X295079Y265759D01*
X294941Y265792D01*
X294800Y265800D01*
X294200D01*
Y266200D01*
X295300D01*
X295441Y266208D01*
X295579Y266241D01*
X295710Y266296D01*
X295831Y266370D01*
X295938Y266462D01*
X296030Y266569D01*
X296104Y266690D01*
X296159Y266821D01*
X296192Y266959D01*
X296203Y267100D01*
X296192Y267241D01*
X296159Y267379D01*
X296104Y267510D01*
X296030Y267631D01*
X295938Y267738D01*
X295831Y267830D01*
X295710Y267904D01*
X295579Y267959D01*
X295441Y267992D01*
X295300Y268000D01*
X293335D01*
X293300Y268003D01*
X293159Y267992D01*
X293021Y267959D01*
X292890Y267904D01*
X292769Y267830D01*
X292662Y267738D01*
X292570Y267631D01*
X292496Y267510D01*
X292441Y267379D01*
X292408Y267241D01*
X292408Y267241D01*
X292397Y267100D01*
X292400Y267065D01*
Y264935D01*
X292397Y264900D01*
X292400Y264865D01*
Y263135D01*
X292397Y263100D01*
X292408Y262959D01*
X292441Y262821D01*
X292496Y262690D01*
X292570Y262569D01*
X292662Y262462D01*
X292769Y262370D01*
X292890Y262296D01*
X293021Y262241D01*
X293159Y262208D01*
X293300Y262197D01*
X293335Y262200D01*
X295300D01*
X295441Y262208D01*
X295579Y262241D01*
X295710Y262296D01*
X295831Y262370D01*
X295899Y262428D01*
X295907Y262419D01*
X296021Y262335D01*
X296147Y262269D01*
X296281Y262224D01*
X296421Y262201D01*
X296562Y262199D01*
X296703Y262220D01*
X296838Y262263D01*
X296964Y262326D01*
X297080Y262408D01*
X297181Y262507D01*
X297265Y262621D01*
X297331Y262747D01*
X297373Y262882D01*
X297500Y263389D01*
X297627Y262882D01*
X297669Y262747D01*
X297735Y262621D01*
X297819Y262507D01*
X297920Y262408D01*
X298036Y262326D01*
X298162Y262263D01*
X298297Y262220D01*
X298438Y262199D01*
X298579Y262201D01*
X298719Y262224D01*
X298853Y262269D01*
X298979Y262335D01*
X299093Y262419D01*
X299192Y262520D01*
X299274Y262636D01*
X299337Y262762D01*
X299380Y262897D01*
X299391Y262972D01*
X299599Y262675D01*
Y239878D01*
X299541Y239892D01*
X299400Y239903D01*
X299259Y239892D01*
X299121Y239859D01*
X298990Y239804D01*
X298869Y239730D01*
X298762Y239638D01*
X298670Y239531D01*
X298596Y239410D01*
X298541Y239279D01*
X298508Y239141D01*
X298500Y239000D01*
Y237900D01*
X297800D01*
Y239000D01*
X297792Y239141D01*
X297759Y239279D01*
X297704Y239410D01*
X297630Y239531D01*
X297538Y239638D01*
X297431Y239730D01*
X297310Y239804D01*
X297179Y239859D01*
X297041Y239892D01*
X296900Y239903D01*
X296759Y239892D01*
X296621Y239859D01*
X296490Y239804D01*
X296369Y239730D01*
X296262Y239638D01*
X296170Y239531D01*
X296096Y239410D01*
X296041Y239279D01*
X296008Y239141D01*
X296000Y239000D01*
Y237473D01*
X295861Y237611D01*
X295838Y237638D01*
X295731Y237730D01*
X295610Y237804D01*
X295479Y237859D01*
X295341Y237892D01*
X295341Y237892D01*
X295200Y237903D01*
X295165Y237900D01*
X294600D01*
Y239000D01*
X294592Y239141D01*
X294559Y239279D01*
X294504Y239410D01*
X294430Y239531D01*
X294338Y239638D01*
X294231Y239730D01*
X294110Y239804D01*
X293979Y239859D01*
X293841Y239892D01*
X293700Y239903D01*
X293559Y239892D01*
X293421Y239859D01*
X293290Y239804D01*
X293169Y239730D01*
X293062Y239638D01*
X292970Y239531D01*
X292896Y239410D01*
X292841Y239279D01*
X292808Y239141D01*
X292800Y239000D01*
Y237035D01*
X292797Y237000D01*
X292800Y236965D01*
Y235808D01*
X292790Y235804D01*
X292669Y235730D01*
X292562Y235638D01*
X292470Y235531D01*
X292396Y235410D01*
X292341Y235279D01*
X292308Y235141D01*
X292297Y235000D01*
X292308Y234859D01*
X292341Y234721D01*
X292396Y234590D01*
X292470Y234469D01*
X292562Y234362D01*
X292669Y234270D01*
X292790Y234196D01*
X292921Y234141D01*
X293059Y234108D01*
X293200Y234100D01*
X293665D01*
X293700Y234097D01*
X293735Y234100D01*
X295165D01*
X295200Y234097D01*
X295341Y234108D01*
X295341Y234108D01*
X295479Y234141D01*
X295610Y234196D01*
X295731Y234270D01*
X295838Y234362D01*
X295861Y234389D01*
X296086Y234613D01*
X296096Y234590D01*
X296170Y234469D01*
X296262Y234362D01*
X296369Y234270D01*
X296490Y234196D01*
X296621Y234141D01*
X296759Y234108D01*
X296900Y234097D01*
X297041Y234108D01*
X297179Y234141D01*
X297310Y234196D01*
X297431Y234270D01*
X297538Y234362D01*
X297630Y234469D01*
X297704Y234590D01*
X297759Y234721D01*
X297792Y234859D01*
X297800Y235000D01*
Y236100D01*
X298500D01*
Y235000D01*
X298508Y234859D01*
X298541Y234721D01*
X298596Y234590D01*
X298670Y234469D01*
X298762Y234362D01*
X298869Y234270D01*
X298990Y234196D01*
X299121Y234141D01*
X299259Y234108D01*
X299400Y234097D01*
X299541Y234108D01*
X299599Y234122D01*
Y218750D01*
X299510Y218804D01*
X299379Y218859D01*
X299241Y218892D01*
X299100Y218903D01*
X298959Y218892D01*
X298821Y218859D01*
X298690Y218804D01*
X298569Y218730D01*
X298462Y218638D01*
X298370Y218531D01*
X298296Y218410D01*
X298241Y218279D01*
X298208Y218141D01*
X298200Y218000D01*
Y216672D01*
X298185Y216684D01*
X298142Y216722D01*
X298130Y216730D01*
X298119Y216738D01*
X298070Y216767D01*
X298022Y216798D01*
X298009Y216804D01*
X297998Y216811D01*
X297944Y216832D01*
X297892Y216854D01*
X297879Y216858D01*
X297866Y216863D01*
X297810Y216875D01*
X297755Y216889D01*
X297741Y216891D01*
X297728Y216894D01*
X297671Y216897D01*
X297614Y216903D01*
X297600Y216902D01*
X297586Y216903D01*
X297530Y216897D01*
X297472Y216894D01*
X297459Y216891D01*
X297445Y216889D01*
X297390Y216875D01*
X297334Y216863D01*
X297321Y216858D01*
X297308Y216854D01*
X297256Y216832D01*
X297202Y216811D01*
X297191Y216804D01*
X297178Y216798D01*
X297130Y216768D01*
X297081Y216738D01*
X297070Y216730D01*
X297058Y216722D01*
X297016Y216685D01*
X297000Y216672D01*
Y218000D01*
X296992Y218141D01*
X296959Y218279D01*
X296904Y218410D01*
X296830Y218531D01*
X296738Y218638D01*
X296631Y218730D01*
X296510Y218804D01*
X296379Y218859D01*
X296241Y218892D01*
X296100Y218903D01*
X295959Y218892D01*
X295821Y218859D01*
X295690Y218804D01*
X295569Y218730D01*
X295462Y218638D01*
X295370Y218531D01*
X295296Y218410D01*
X295241Y218279D01*
X295208Y218141D01*
X295200Y218000D01*
Y214850D01*
X295179Y214859D01*
X295041Y214892D01*
X294900Y214900D01*
X294800D01*
Y218000D01*
X294792Y218141D01*
X294759Y218279D01*
X294704Y218410D01*
X294630Y218531D01*
X294538Y218638D01*
X294431Y218730D01*
X294310Y218804D01*
X294179Y218859D01*
X294041Y218892D01*
X293900Y218903D01*
X293759Y218892D01*
X293621Y218859D01*
X293490Y218804D01*
X293369Y218730D01*
X293262Y218638D01*
X293170Y218531D01*
X293096Y218410D01*
X293041Y218279D01*
X293008Y218141D01*
X293000Y218000D01*
Y214900D01*
X292900D01*
X292759Y214892D01*
X292621Y214859D01*
X292540Y214825D01*
X292504Y214910D01*
X292430Y215031D01*
X292338Y215138D01*
X292231Y215230D01*
X292110Y215304D01*
X291979Y215359D01*
X291860Y215387D01*
X291861Y215389D01*
X292311Y215839D01*
X292338Y215862D01*
X292430Y215969D01*
X292430Y215969D01*
X292504Y216090D01*
X292559Y216221D01*
X292592Y216359D01*
X292603Y216500D01*
X292600Y216535D01*
Y217465D01*
X292603Y217500D01*
X292592Y217641D01*
X292559Y217779D01*
X292504Y217910D01*
X292459Y217984D01*
X292430Y218031D01*
X292338Y218138D01*
X292311Y218161D01*
X291861Y218611D01*
X291838Y218638D01*
X291731Y218730D01*
X291610Y218804D01*
X291479Y218859D01*
X291341Y218892D01*
X291341Y218892D01*
X291200Y218903D01*
X291165Y218900D01*
X289735D01*
X289700Y218903D01*
X289559Y218892D01*
X289421Y218859D01*
X289290Y218804D01*
X289169Y218730D01*
X289062Y218638D01*
X289039Y218611D01*
X288941Y218514D01*
X288930Y218531D01*
X288838Y218638D01*
X288731Y218730D01*
X288610Y218804D01*
X288479Y218859D01*
X288341Y218892D01*
X288200Y218903D01*
X288059Y218892D01*
X287921Y218859D01*
X287790Y218804D01*
X287669Y218730D01*
X287562Y218638D01*
X287470Y218531D01*
X287396Y218410D01*
X287386Y218387D01*
X287161Y218611D01*
X287138Y218638D01*
X287031Y218730D01*
X286984Y218759D01*
X286910Y218804D01*
X286779Y218859D01*
X286641Y218892D01*
X286500Y218903D01*
X286465Y218900D01*
X285035D01*
X285000Y218903D01*
X284965Y218900D01*
X284500D01*
X284359Y218892D01*
X284221Y218859D01*
X284090Y218804D01*
X283969Y218730D01*
X283862Y218638D01*
X283770Y218531D01*
X283696Y218410D01*
X283641Y218279D01*
X283608Y218141D01*
X283597Y218000D01*
X283608Y217859D01*
X283641Y217721D01*
X283696Y217590D01*
X283770Y217469D01*
X283862Y217362D01*
X283969Y217270D01*
X284090Y217196D01*
X284100Y217192D01*
Y215835D01*
X284097Y215800D01*
X284100Y215765D01*
Y214808D01*
X284090Y214804D01*
X283969Y214730D01*
X283862Y214638D01*
X283770Y214531D01*
X283696Y214410D01*
X283641Y214279D01*
X283608Y214141D01*
X283597Y214000D01*
X283608Y213859D01*
X283641Y213721D01*
X283696Y213590D01*
X283770Y213469D01*
X283862Y213362D01*
X283969Y213270D01*
X284090Y213196D01*
X284221Y213141D01*
X284359Y213108D01*
X284500Y213100D01*
X284965D01*
X285000Y213097D01*
X285035Y213100D01*
X286465D01*
X286500Y213097D01*
X286641Y213108D01*
X286641Y213108D01*
X286779Y213141D01*
X286910Y213196D01*
X287031Y213270D01*
X287138Y213362D01*
X287161Y213389D01*
X287611Y213839D01*
X287638Y213862D01*
X287730Y213969D01*
X287804Y214090D01*
X287840Y214175D01*
X287921Y214141D01*
X288059Y214108D01*
X288200Y214097D01*
X288341Y214108D01*
X288384Y214119D01*
X288396Y214090D01*
X288470Y213969D01*
X288470Y213969D01*
X288562Y213862D01*
X288588Y213839D01*
X289039Y213389D01*
X289062Y213362D01*
X289169Y213270D01*
X289290Y213196D01*
X289421Y213141D01*
X289559Y213108D01*
X289559D01*
X289700Y213097D01*
X289735Y213100D01*
X291165D01*
X291200Y213097D01*
X291341Y213108D01*
X291341Y213108D01*
X291479Y213141D01*
X291610Y213196D01*
X291731Y213270D01*
X291838Y213362D01*
X291861Y213389D01*
X292086Y213613D01*
X292096Y213590D01*
X292170Y213469D01*
X292262Y213362D01*
X292369Y213270D01*
X292490Y213196D01*
X292621Y213141D01*
X292759Y213108D01*
X292900Y213100D01*
X293865D01*
X293900Y213097D01*
X293935Y213100D01*
X294900D01*
X295041Y213108D01*
X295179Y213141D01*
X295310Y213196D01*
X295431Y213270D01*
X295500Y213329D01*
X295510Y213320D01*
X295558Y213278D01*
X295564Y213274D01*
X295569Y213270D01*
X295624Y213236D01*
X295678Y213202D01*
X295684Y213199D01*
X295690Y213196D01*
X295749Y213171D01*
X295808Y213146D01*
X295815Y213144D01*
X295821Y213141D01*
X295883Y213127D01*
X295945Y213111D01*
X295952Y213110D01*
X295959Y213108D01*
X296022Y213103D01*
X296086Y213097D01*
X296093Y213098D01*
X296100Y213097D01*
X296164Y213102D01*
X296228Y213106D01*
X296234Y213108D01*
X296241Y213108D01*
X296303Y213123D01*
X296366Y213137D01*
X296372Y213140D01*
X296379Y213141D01*
X296438Y213166D01*
X296498Y213189D01*
X296504Y213193D01*
X296510Y213196D01*
X296564Y213229D01*
X296619Y213262D01*
X296625Y213266D01*
X296631Y213270D01*
X296679Y213311D01*
X296729Y213352D01*
X296733Y213357D01*
X296738Y213362D01*
X296830Y213469D01*
X296845Y213494D01*
X297600Y214500D01*
X298355Y213494D01*
X298370Y213469D01*
X298462Y213362D01*
X298467Y213357D01*
X298471Y213352D01*
X298521Y213311D01*
X298569Y213270D01*
X298575Y213266D01*
X298581Y213262D01*
X298636Y213229D01*
X298690Y213196D01*
X298696Y213193D01*
X298702Y213189D01*
X298762Y213166D01*
X298821Y213141D01*
X298828Y213140D01*
X298834Y213137D01*
X298897Y213123D01*
X298959Y213108D01*
X298966Y213108D01*
X298972Y213106D01*
X299037Y213102D01*
X299100Y213097D01*
X299107Y213098D01*
X299114Y213097D01*
X299178Y213103D01*
X299241Y213108D01*
X299248Y213110D01*
X299255Y213111D01*
X299317Y213127D01*
X299379Y213141D01*
X299385Y213144D01*
X299392Y213146D01*
X299451Y213171D01*
X299510Y213196D01*
X299516Y213199D01*
X299522Y213202D01*
X299576Y213236D01*
X299599Y213250D01*
Y204895D01*
X284106Y204894D01*
X284014Y204872D01*
X283927Y204836D01*
X283846Y204787D01*
X283774Y204726D01*
X283713Y204654D01*
X283664Y204573D01*
X283628Y204486D01*
X283606Y204394D01*
X283600Y204300D01*
X283606Y199606D01*
X283628Y199514D01*
X283664Y199427D01*
X283713Y199346D01*
X283774Y199274D01*
X283846Y199213D01*
X283927Y199164D01*
X284014Y199128D01*
X284106Y199106D01*
X284200Y199100D01*
X299599Y199101D01*
Y168000D01*
X281500D01*
Y142000D01*
X299599D01*
Y122000D01*
X273205D01*
Y159705D01*
X274500Y161000D01*
Y188000D01*
X273205Y189295D01*
Y232454D01*
X273435Y232812D01*
X273958Y233806D01*
X274390Y234841D01*
X274730Y235911D01*
X274975Y237006D01*
X275123Y238119D01*
X275172Y239240D01*
X275123Y240361D01*
X274975Y241474D01*
X274730Y242569D01*
X274390Y243639D01*
X273958Y244674D01*
X273435Y245668D01*
X273205Y246026D01*
Y334000D01*
X292500D01*
X295500Y337000D01*
Y354500D01*
X291500Y358500D01*
X273205D01*
Y406000D01*
G37*
G36*
Y189295D02*X271500Y191000D01*
X262416D01*
Y226478D01*
X263531Y226527D01*
X264644Y226675D01*
X265739Y226920D01*
X266809Y227260D01*
X267844Y227692D01*
X268838Y228215D01*
X269782Y228822D01*
X270668Y229510D01*
X270726Y229566D01*
X270773Y229631D01*
X270810Y229703D01*
X270835Y229779D01*
X270848Y229859D01*
X270848Y229939D01*
X270836Y230019D01*
X270811Y230095D01*
X270775Y230167D01*
X270728Y230232D01*
X270671Y230289D01*
X270606Y230337D01*
X270535Y230374D01*
X270458Y230399D01*
X270379Y230412D01*
X270298Y230412D01*
X270219Y230400D01*
X270142Y230375D01*
X270070Y230339D01*
X270006Y230290D01*
X269197Y229648D01*
X268328Y229089D01*
X267413Y228608D01*
X266460Y228210D01*
X265475Y227897D01*
X264467Y227671D01*
X263442Y227535D01*
X262416Y227490D01*
Y250990D01*
X263442Y250945D01*
X264467Y250809D01*
X265475Y250583D01*
X266460Y250270D01*
X267413Y249872D01*
X268328Y249391D01*
X269197Y248832D01*
X270013Y248198D01*
X270076Y248151D01*
X270146Y248116D01*
X270221Y248092D01*
X270299Y248079D01*
X270378Y248080D01*
X270455Y248092D01*
X270530Y248117D01*
X270600Y248153D01*
X270664Y248199D01*
X270719Y248255D01*
X270765Y248319D01*
X270801Y248389D01*
X270825Y248464D01*
X270837Y248542D01*
X270837Y248620D01*
X270824Y248698D01*
X270800Y248773D01*
X270764Y248843D01*
X270717Y248906D01*
X270660Y248961D01*
X269782Y249658D01*
X268838Y250265D01*
X267844Y250788D01*
X266809Y251220D01*
X265739Y251560D01*
X264644Y251805D01*
X263531Y251953D01*
X262416Y252002D01*
Y334000D01*
X273205D01*
Y246026D01*
X272828Y246612D01*
X272140Y247498D01*
X272084Y247556D01*
X272019Y247603D01*
X271947Y247640D01*
X271871Y247665D01*
X271791Y247678D01*
X271711Y247678D01*
X271631Y247666D01*
X271555Y247641D01*
X271483Y247605D01*
X271418Y247558D01*
X271361Y247501D01*
X271313Y247436D01*
X271276Y247365D01*
X271251Y247288D01*
X271238Y247209D01*
X271238Y247128D01*
X271250Y247049D01*
X271275Y246972D01*
X271311Y246900D01*
X271360Y246836D01*
X272002Y246027D01*
X272561Y245158D01*
X273042Y244243D01*
X273205Y243852D01*
Y234628D01*
X273042Y234237D01*
X272561Y233322D01*
X272002Y232453D01*
X271368Y231637D01*
X271321Y231574D01*
X271286Y231504D01*
X271262Y231429D01*
X271249Y231351D01*
X271250Y231272D01*
X271262Y231195D01*
X271287Y231120D01*
X271323Y231050D01*
X271369Y230986D01*
X271425Y230931D01*
X271489Y230885D01*
X271559Y230849D01*
X271634Y230825D01*
X271712Y230813D01*
X271790Y230813D01*
X271868Y230826D01*
X271943Y230850D01*
X272013Y230886D01*
X272076Y230933D01*
X272131Y230990D01*
X272828Y231868D01*
X273205Y232454D01*
Y189295D01*
G37*
G36*
Y122000D02*X262416D01*
Y157500D01*
X271000D01*
X273205Y159705D01*
Y122000D01*
G37*
G36*
X262416Y406000D02*X273205D01*
Y358500D01*
X262416D01*
Y406000D01*
G37*
G36*
Y191000D02*X252201D01*
Y198541D01*
X252393Y198834D01*
X253003Y199976D01*
X253509Y201168D01*
X253907Y202400D01*
X254194Y203663D01*
X254367Y204946D01*
X254424Y206240D01*
X254367Y207534D01*
X254194Y208817D01*
X253907Y210080D01*
X253509Y211312D01*
X253003Y212504D01*
X252393Y213646D01*
X252201Y213939D01*
Y231599D01*
X252680Y230982D01*
X252736Y230924D01*
X252801Y230877D01*
X252873Y230840D01*
X252949Y230815D01*
X253029Y230802D01*
X253109Y230802D01*
X253189Y230814D01*
X253265Y230839D01*
X253337Y230875D01*
X253402Y230922D01*
X253459Y230979D01*
X253507Y231044D01*
X253544Y231115D01*
X253569Y231192D01*
X253582Y231271D01*
X253582Y231352D01*
X253570Y231431D01*
X253545Y231508D01*
X253509Y231580D01*
X253460Y231644D01*
X252818Y232453D01*
X252259Y233322D01*
X252201Y233433D01*
Y245047D01*
X252259Y245158D01*
X252818Y246027D01*
X253452Y246843D01*
X253499Y246906D01*
X253534Y246976D01*
X253558Y247051D01*
X253571Y247129D01*
X253570Y247208D01*
X253558Y247285D01*
X253533Y247360D01*
X253497Y247430D01*
X253451Y247494D01*
X253395Y247549D01*
X253331Y247595D01*
X253261Y247631D01*
X253186Y247655D01*
X253108Y247667D01*
X253030Y247667D01*
X252952Y247654D01*
X252877Y247630D01*
X252807Y247594D01*
X252744Y247547D01*
X252689Y247490D01*
X252201Y246875D01*
Y263418D01*
X261131Y263420D01*
X261284Y263457D01*
X261429Y263517D01*
X261564Y263599D01*
X261683Y263702D01*
X261786Y263821D01*
X261868Y263956D01*
X261928Y264101D01*
X261965Y264254D01*
X261974Y264411D01*
X261965Y305513D01*
X261928Y305666D01*
X261868Y305811D01*
X261786Y305946D01*
X261683Y306065D01*
X261564Y306168D01*
X261429Y306250D01*
X261284Y306310D01*
X261131Y306347D01*
X260974Y306356D01*
X252201Y306354D01*
Y334000D01*
X262416D01*
Y252002D01*
X262410Y252002D01*
X261289Y251953D01*
X260176Y251805D01*
X259081Y251560D01*
X258011Y251220D01*
X256976Y250788D01*
X255982Y250265D01*
X255038Y249658D01*
X254152Y248970D01*
X254094Y248914D01*
X254047Y248849D01*
X254010Y248777D01*
X253985Y248701D01*
X253972Y248621D01*
X253972Y248541D01*
X253984Y248461D01*
X254009Y248385D01*
X254045Y248313D01*
X254092Y248248D01*
X254149Y248191D01*
X254214Y248143D01*
X254285Y248106D01*
X254362Y248081D01*
X254441Y248068D01*
X254522Y248068D01*
X254601Y248080D01*
X254678Y248105D01*
X254750Y248141D01*
X254814Y248190D01*
X255623Y248832D01*
X256492Y249391D01*
X257407Y249872D01*
X258360Y250270D01*
X259345Y250583D01*
X260353Y250809D01*
X261378Y250945D01*
X262410Y250990D01*
X262416Y250990D01*
Y227490D01*
X262410Y227490D01*
X261378Y227535D01*
X260353Y227671D01*
X259345Y227897D01*
X258360Y228210D01*
X257407Y228608D01*
X256492Y229089D01*
X255623Y229648D01*
X254807Y230282D01*
X254744Y230329D01*
X254674Y230364D01*
X254599Y230389D01*
X254521Y230401D01*
X254442Y230400D01*
X254365Y230388D01*
X254290Y230363D01*
X254220Y230327D01*
X254156Y230281D01*
X254101Y230225D01*
X254055Y230161D01*
X254019Y230091D01*
X253995Y230016D01*
X253983Y229938D01*
X253983Y229860D01*
X253996Y229782D01*
X254020Y229707D01*
X254056Y229637D01*
X254103Y229574D01*
X254160Y229519D01*
X255038Y228822D01*
X255982Y228215D01*
X256976Y227692D01*
X258011Y227260D01*
X259081Y226920D01*
X260176Y226675D01*
X261289Y226527D01*
X262410Y226478D01*
X262416Y226478D01*
Y191000D01*
G37*
G36*
Y122000D02*X252201D01*
Y157500D01*
X262416D01*
Y122000D01*
G37*
G36*
X252201Y406000D02*X262416D01*
Y358500D01*
X252201D01*
Y406000D01*
G37*
G36*
Y233433D02*X251778Y234237D01*
X251380Y235190D01*
X251067Y236175D01*
X250841Y237183D01*
X250705Y238208D01*
X250660Y239240D01*
X250705Y240272D01*
X250841Y241297D01*
X251067Y242305D01*
X251380Y243290D01*
X251778Y244243D01*
X252201Y245047D01*
Y233433D01*
G37*
G36*
Y306354D02*X239917Y306350D01*
Y334000D01*
X252201D01*
Y306354D01*
G37*
G36*
Y191000D02*X239917D01*
Y191726D01*
X241204Y191783D01*
X242487Y191956D01*
X243750Y192243D01*
X244982Y192641D01*
X246174Y193147D01*
X247316Y193757D01*
X248399Y194467D01*
X249415Y195270D01*
X249472Y195328D01*
X249519Y195393D01*
X249555Y195466D01*
X249579Y195543D01*
X249591Y195622D01*
X249591Y195703D01*
X249578Y195783D01*
X249552Y195860D01*
X249515Y195931D01*
X249467Y195996D01*
X249409Y196053D01*
X249344Y196100D01*
X249271Y196136D01*
X249194Y196161D01*
X249114Y196173D01*
X249034Y196172D01*
X248954Y196159D01*
X248877Y196134D01*
X248806Y196096D01*
X248742Y196047D01*
X247806Y195290D01*
X246798Y194630D01*
X245736Y194062D01*
X244628Y193591D01*
X243481Y193221D01*
X242307Y192954D01*
X241113Y192794D01*
X239917Y192740D01*
Y219740D01*
X241113Y219686D01*
X242307Y219526D01*
X243481Y219259D01*
X244628Y218889D01*
X245736Y218418D01*
X246798Y217850D01*
X247806Y217190D01*
X248750Y216443D01*
X248813Y216395D01*
X248883Y216359D01*
X248957Y216334D01*
X249035Y216321D01*
X249114Y216321D01*
X249191Y216332D01*
X249266Y216356D01*
X249337Y216391D01*
X249401Y216437D01*
X249457Y216492D01*
X249503Y216556D01*
X249540Y216626D01*
X249565Y216700D01*
X249577Y216778D01*
X249578Y216857D01*
X249566Y216934D01*
X249542Y217009D01*
X249507Y217080D01*
X249461Y217144D01*
X249405Y217199D01*
X248399Y218013D01*
X247316Y218723D01*
X246174Y219333D01*
X244982Y219839D01*
X243750Y220237D01*
X242487Y220524D01*
X241204Y220697D01*
X239917Y220754D01*
Y263414D01*
X252201Y263418D01*
Y246875D01*
X251992Y246612D01*
X251385Y245668D01*
X250862Y244674D01*
X250430Y243639D01*
X250090Y242569D01*
X249845Y241474D01*
X249697Y240361D01*
X249648Y239240D01*
X249697Y238119D01*
X249845Y237006D01*
X250090Y235911D01*
X250430Y234841D01*
X250862Y233806D01*
X251385Y232812D01*
X251992Y231868D01*
X252201Y231599D01*
Y213939D01*
X251683Y214729D01*
X250880Y215745D01*
X250822Y215802D01*
X250757Y215849D01*
X250684Y215885D01*
X250607Y215909D01*
X250528Y215921D01*
X250447Y215921D01*
X250367Y215908D01*
X250290Y215882D01*
X250219Y215845D01*
X250154Y215797D01*
X250097Y215739D01*
X250050Y215674D01*
X250014Y215601D01*
X249989Y215524D01*
X249977Y215445D01*
X249978Y215364D01*
X249991Y215284D01*
X250016Y215207D01*
X250054Y215136D01*
X250103Y215072D01*
X250860Y214136D01*
X251520Y213128D01*
X252088Y212066D01*
X252201Y211801D01*
Y200679D01*
X252088Y200414D01*
X251520Y199352D01*
X250860Y198344D01*
X250113Y197400D01*
X250065Y197337D01*
X250029Y197267D01*
X250004Y197193D01*
X249991Y197115D01*
X249991Y197036D01*
X250002Y196959D01*
X250026Y196884D01*
X250061Y196813D01*
X250107Y196749D01*
X250162Y196693D01*
X250226Y196647D01*
X250296Y196610D01*
X250370Y196585D01*
X250448Y196573D01*
X250527Y196572D01*
X250604Y196584D01*
X250679Y196608D01*
X250750Y196643D01*
X250814Y196689D01*
X250869Y196745D01*
X251683Y197751D01*
X252201Y198541D01*
Y191000D01*
G37*
G36*
Y122000D02*X239917D01*
Y157500D01*
X252201D01*
Y122000D01*
G37*
G36*
X239917Y406000D02*X252201D01*
Y358500D01*
X239917D01*
Y406000D01*
G37*
G36*
X227619Y244057D02*X227940Y243290D01*
X228253Y242305D01*
X228479Y241297D01*
X228615Y240272D01*
X228660Y239240D01*
X228615Y238208D01*
X228479Y237183D01*
X228253Y236175D01*
X227940Y235190D01*
X227619Y234423D01*
Y244057D01*
G37*
G36*
Y157500D02*X239917D01*
Y122000D01*
X227619D01*
Y157500D01*
G37*
G36*
Y263451D02*X227747Y263420D01*
X227904Y263411D01*
X239917Y263414D01*
Y220754D01*
X239910Y220754D01*
X238616Y220697D01*
X237333Y220524D01*
X236070Y220237D01*
X234838Y219839D01*
X233646Y219333D01*
X232504Y218723D01*
X231421Y218013D01*
X230405Y217210D01*
X230348Y217152D01*
X230301Y217087D01*
X230265Y217014D01*
X230241Y216937D01*
X230229Y216858D01*
X230229Y216777D01*
X230242Y216697D01*
X230268Y216620D01*
X230305Y216549D01*
X230353Y216484D01*
X230411Y216427D01*
X230476Y216380D01*
X230549Y216344D01*
X230626Y216319D01*
X230705Y216307D01*
X230786Y216308D01*
X230866Y216321D01*
X230943Y216346D01*
X231014Y216384D01*
X231078Y216433D01*
X232014Y217190D01*
X233022Y217850D01*
X234084Y218418D01*
X235192Y218889D01*
X236339Y219259D01*
X237513Y219526D01*
X238707Y219686D01*
X239910Y219740D01*
X239917Y219740D01*
Y192740D01*
X239910Y192740D01*
X238707Y192794D01*
X237513Y192954D01*
X236339Y193221D01*
X235192Y193591D01*
X234084Y194062D01*
X233022Y194630D01*
X232014Y195290D01*
X231070Y196037D01*
X231007Y196085D01*
X230937Y196121D01*
X230863Y196146D01*
X230785Y196159D01*
X230706Y196159D01*
X230629Y196148D01*
X230554Y196124D01*
X230483Y196089D01*
X230419Y196043D01*
X230363Y195988D01*
X230317Y195924D01*
X230280Y195854D01*
X230255Y195780D01*
X230243Y195702D01*
X230242Y195623D01*
X230254Y195546D01*
X230278Y195471D01*
X230313Y195400D01*
X230359Y195336D01*
X230415Y195281D01*
X231421Y194467D01*
X232504Y193757D01*
X233646Y193147D01*
X234838Y192641D01*
X236070Y192243D01*
X237333Y191956D01*
X238616Y191783D01*
X239910Y191726D01*
X239917Y191726D01*
Y191000D01*
X227619D01*
Y198541D01*
X228137Y197751D01*
X228940Y196735D01*
X228998Y196678D01*
X229063Y196631D01*
X229136Y196595D01*
X229213Y196571D01*
X229292Y196559D01*
X229373Y196559D01*
X229453Y196572D01*
X229530Y196598D01*
X229601Y196635D01*
X229666Y196683D01*
X229723Y196741D01*
X229770Y196806D01*
X229806Y196879D01*
X229831Y196956D01*
X229843Y197036D01*
X229842Y197116D01*
X229829Y197196D01*
X229804Y197273D01*
X229766Y197344D01*
X229717Y197408D01*
X228960Y198344D01*
X228300Y199352D01*
X227732Y200414D01*
X227619Y200679D01*
Y211801D01*
X227732Y212066D01*
X228300Y213128D01*
X228960Y214136D01*
X229707Y215080D01*
X229755Y215143D01*
X229791Y215213D01*
X229816Y215287D01*
X229829Y215365D01*
X229829Y215444D01*
X229818Y215521D01*
X229794Y215596D01*
X229759Y215667D01*
X229713Y215731D01*
X229658Y215787D01*
X229594Y215833D01*
X229524Y215870D01*
X229450Y215895D01*
X229372Y215907D01*
X229293Y215908D01*
X229216Y215896D01*
X229141Y215872D01*
X229070Y215837D01*
X229006Y215791D01*
X228951Y215735D01*
X228137Y214729D01*
X227619Y213939D01*
Y232321D01*
X227935Y232812D01*
X228458Y233806D01*
X228890Y234841D01*
X229230Y235911D01*
X229475Y237006D01*
X229623Y238119D01*
X229672Y239240D01*
X229623Y240361D01*
X229475Y241474D01*
X229230Y242569D01*
X228890Y243639D01*
X228458Y244674D01*
X227935Y245668D01*
X227619Y246159D01*
Y263451D01*
G37*
G36*
Y406000D02*X239917D01*
Y358500D01*
X234500D01*
X230500Y354500D01*
Y337500D01*
X234000Y334000D01*
X239917D01*
Y306350D01*
X227747Y306347D01*
X227619Y306316D01*
Y406000D01*
G37*
G36*
Y200679D02*X227261Y201522D01*
X226891Y202669D01*
X226624Y203843D01*
X226464Y205037D01*
X226410Y206240D01*
X226464Y207443D01*
X226624Y208637D01*
X226891Y209811D01*
X227261Y210958D01*
X227619Y211801D01*
Y200679D01*
G37*
G36*
X198791Y312561D02*X199149Y311718D01*
X199519Y310571D01*
X199786Y309397D01*
X199946Y308203D01*
X200000Y307000D01*
X199946Y305797D01*
X199786Y304603D01*
X199519Y303429D01*
X199149Y302282D01*
X198791Y301439D01*
Y312561D01*
G37*
G36*
X216916Y157500D02*X227619D01*
Y122000D01*
X216916D01*
Y157500D01*
G37*
G36*
X220145Y277612D02*X220380Y277050D01*
X220693Y276065D01*
X220919Y275057D01*
X221055Y274032D01*
X221100Y273000D01*
X221055Y271968D01*
X220919Y270943D01*
X220693Y269935D01*
X220380Y268950D01*
X220145Y268388D01*
Y277612D01*
G37*
G36*
Y406000D02*X227619D01*
Y306316D01*
X227594Y306310D01*
X227449Y306250D01*
X227314Y306168D01*
X227195Y306065D01*
X227092Y305946D01*
X227010Y305811D01*
X226950Y305666D01*
X226913Y305513D01*
X226904Y305356D01*
X226913Y264254D01*
X226950Y264101D01*
X227010Y263956D01*
X227092Y263821D01*
X227195Y263702D01*
X227314Y263599D01*
X227449Y263517D01*
X227594Y263457D01*
X227619Y263451D01*
Y246159D01*
X227328Y246612D01*
X226640Y247498D01*
X226584Y247556D01*
X226519Y247603D01*
X226447Y247640D01*
X226371Y247665D01*
X226291Y247678D01*
X226211Y247678D01*
X226131Y247666D01*
X226055Y247641D01*
X225983Y247605D01*
X225918Y247558D01*
X225861Y247501D01*
X225813Y247436D01*
X225776Y247365D01*
X225751Y247288D01*
X225738Y247209D01*
X225738Y247128D01*
X225750Y247049D01*
X225775Y246972D01*
X225811Y246900D01*
X225860Y246836D01*
X226502Y246027D01*
X227061Y245158D01*
X227542Y244243D01*
X227619Y244057D01*
Y234423D01*
X227542Y234237D01*
X227061Y233322D01*
X226502Y232453D01*
X225868Y231637D01*
X225821Y231574D01*
X225786Y231504D01*
X225761Y231429D01*
X225749Y231351D01*
X225750Y231272D01*
X225762Y231195D01*
X225787Y231120D01*
X225823Y231050D01*
X225869Y230986D01*
X225925Y230931D01*
X225989Y230885D01*
X226059Y230849D01*
X226134Y230825D01*
X226212Y230813D01*
X226290Y230813D01*
X226368Y230826D01*
X226443Y230850D01*
X226513Y230886D01*
X226576Y230933D01*
X226631Y230990D01*
X227328Y231868D01*
X227619Y232321D01*
Y213939D01*
X227427Y213646D01*
X226817Y212504D01*
X226311Y211312D01*
X225913Y210080D01*
X225626Y208817D01*
X225453Y207534D01*
X225396Y206240D01*
X225453Y204946D01*
X225626Y203663D01*
X225913Y202400D01*
X226311Y201168D01*
X226817Y199976D01*
X227427Y198834D01*
X227619Y198541D01*
Y191000D01*
X220145D01*
Y226899D01*
X220239Y226920D01*
X221309Y227260D01*
X222344Y227692D01*
X223338Y228215D01*
X224282Y228822D01*
X225168Y229510D01*
X225226Y229566D01*
X225273Y229631D01*
X225310Y229703D01*
X225335Y229779D01*
X225348Y229859D01*
X225348Y229939D01*
X225336Y230019D01*
X225311Y230095D01*
X225275Y230167D01*
X225228Y230232D01*
X225171Y230289D01*
X225106Y230337D01*
X225035Y230374D01*
X224958Y230399D01*
X224879Y230412D01*
X224798Y230412D01*
X224719Y230400D01*
X224642Y230375D01*
X224570Y230339D01*
X224506Y230290D01*
X223697Y229648D01*
X222828Y229089D01*
X221913Y228608D01*
X220960Y228210D01*
X220145Y227951D01*
Y250529D01*
X220960Y250270D01*
X221913Y249872D01*
X222828Y249391D01*
X223697Y248832D01*
X224513Y248198D01*
X224576Y248151D01*
X224646Y248116D01*
X224721Y248092D01*
X224799Y248079D01*
X224878Y248080D01*
X224955Y248092D01*
X225030Y248117D01*
X225100Y248153D01*
X225164Y248199D01*
X225219Y248255D01*
X225265Y248319D01*
X225301Y248389D01*
X225325Y248464D01*
X225337Y248542D01*
X225337Y248620D01*
X225324Y248698D01*
X225300Y248773D01*
X225264Y248843D01*
X225217Y248906D01*
X225160Y248961D01*
X224282Y249658D01*
X223338Y250265D01*
X222344Y250788D01*
X221309Y251220D01*
X220239Y251560D01*
X220145Y251581D01*
Y266214D01*
X220375Y266572D01*
X220898Y267566D01*
X221330Y268601D01*
X221670Y269671D01*
X221915Y270766D01*
X222063Y271879D01*
X222112Y273000D01*
X222063Y274121D01*
X221915Y275234D01*
X221670Y276329D01*
X221330Y277399D01*
X220898Y278434D01*
X220375Y279428D01*
X220145Y279786D01*
Y336645D01*
X220500Y337000D01*
Y367000D01*
X220145D01*
Y406000D01*
G37*
G36*
Y251581D02*X219144Y251805D01*
X218031Y251953D01*
X216916Y252002D01*
Y262732D01*
X217608Y263270D01*
X217666Y263326D01*
X217713Y263391D01*
X217750Y263463D01*
X217775Y263539D01*
X217788Y263619D01*
X217788Y263699D01*
X217776Y263779D01*
X217751Y263855D01*
X217715Y263927D01*
X217668Y263992D01*
X217611Y264049D01*
X217546Y264097D01*
X217475Y264134D01*
X217398Y264159D01*
X217319Y264172D01*
X217238Y264172D01*
X217159Y264160D01*
X217082Y264135D01*
X217010Y264099D01*
X216946Y264050D01*
X216916Y264026D01*
Y281988D01*
X216953Y281958D01*
X217016Y281911D01*
X217086Y281876D01*
X217161Y281852D01*
X217239Y281839D01*
X217318Y281840D01*
X217395Y281852D01*
X217470Y281877D01*
X217540Y281913D01*
X217604Y281959D01*
X217659Y282015D01*
X217705Y282079D01*
X217741Y282149D01*
X217765Y282224D01*
X217777Y282302D01*
X217777Y282380D01*
X217764Y282458D01*
X217740Y282533D01*
X217704Y282603D01*
X217657Y282666D01*
X217600Y282721D01*
X216916Y283264D01*
Y333500D01*
X217000D01*
X220145Y336645D01*
Y279786D01*
X219768Y280372D01*
X219080Y281258D01*
X219024Y281316D01*
X218959Y281363D01*
X218887Y281400D01*
X218811Y281425D01*
X218731Y281438D01*
X218651Y281438D01*
X218571Y281426D01*
X218495Y281401D01*
X218423Y281365D01*
X218358Y281318D01*
X218301Y281261D01*
X218253Y281196D01*
X218216Y281125D01*
X218191Y281048D01*
X218178Y280969D01*
X218178Y280888D01*
X218190Y280809D01*
X218215Y280732D01*
X218251Y280660D01*
X218300Y280596D01*
X218942Y279787D01*
X219501Y278918D01*
X219982Y278003D01*
X220145Y277612D01*
Y268388D01*
X219982Y267997D01*
X219501Y267082D01*
X218942Y266213D01*
X218308Y265397D01*
X218261Y265334D01*
X218226Y265264D01*
X218202Y265189D01*
X218189Y265111D01*
X218190Y265032D01*
X218202Y264955D01*
X218227Y264880D01*
X218263Y264810D01*
X218309Y264746D01*
X218365Y264691D01*
X218429Y264645D01*
X218499Y264609D01*
X218574Y264585D01*
X218652Y264573D01*
X218730Y264573D01*
X218808Y264586D01*
X218883Y264610D01*
X218953Y264646D01*
X219016Y264693D01*
X219071Y264750D01*
X219768Y265628D01*
X220145Y266214D01*
Y251581D01*
G37*
G36*
Y227951D02*X219975Y227897D01*
X218967Y227671D01*
X217942Y227535D01*
X216916Y227490D01*
Y250990D01*
X217942Y250945D01*
X218967Y250809D01*
X219975Y250583D01*
X220145Y250529D01*
Y227951D01*
G37*
G36*
Y191000D02*X216916D01*
Y226478D01*
X218031Y226527D01*
X219144Y226675D01*
X220145Y226899D01*
Y191000D01*
G37*
G36*
X216916Y406000D02*X220145D01*
Y367000D01*
X216916D01*
Y406000D01*
G37*
G36*
X206115Y284289D02*X206285Y284343D01*
X207293Y284569D01*
X208318Y284705D01*
X209350Y284750D01*
X210382Y284705D01*
X211407Y284569D01*
X212415Y284343D01*
X213400Y284030D01*
X214353Y283632D01*
X215268Y283151D01*
X216137Y282592D01*
X216916Y281988D01*
Y264026D01*
X216137Y263408D01*
X215268Y262849D01*
X214353Y262368D01*
X213400Y261970D01*
X212415Y261657D01*
X211407Y261431D01*
X210382Y261295D01*
X209350Y261250D01*
X208318Y261295D01*
X207293Y261431D01*
X206285Y261657D01*
X206115Y261711D01*
Y284289D01*
G37*
G36*
Y333500D02*X216916D01*
Y283264D01*
X216722Y283418D01*
X215778Y284025D01*
X214784Y284548D01*
X213749Y284980D01*
X212679Y285320D01*
X211584Y285565D01*
X210471Y285713D01*
X209350Y285762D01*
X208229Y285713D01*
X207116Y285565D01*
X206115Y285341D01*
Y333500D01*
G37*
G36*
Y159885D02*X208500Y157500D01*
X216916D01*
Y122000D01*
X206115D01*
Y159885D01*
G37*
G36*
X216916Y191000D02*X208000D01*
X206115Y189115D01*
Y232454D01*
X206492Y231868D01*
X207180Y230982D01*
X207236Y230924D01*
X207301Y230877D01*
X207373Y230840D01*
X207449Y230815D01*
X207529Y230802D01*
X207609Y230802D01*
X207689Y230814D01*
X207765Y230839D01*
X207837Y230875D01*
X207902Y230922D01*
X207959Y230979D01*
X208007Y231044D01*
X208044Y231115D01*
X208069Y231192D01*
X208082Y231271D01*
X208082Y231352D01*
X208070Y231431D01*
X208045Y231508D01*
X208009Y231580D01*
X207960Y231644D01*
X207318Y232453D01*
X206759Y233322D01*
X206278Y234237D01*
X206115Y234628D01*
Y243852D01*
X206278Y244243D01*
X206759Y245158D01*
X207318Y246027D01*
X207952Y246843D01*
X207999Y246906D01*
X208034Y246976D01*
X208058Y247051D01*
X208071Y247129D01*
X208070Y247208D01*
X208058Y247285D01*
X208033Y247360D01*
X207997Y247430D01*
X207951Y247494D01*
X207895Y247549D01*
X207831Y247595D01*
X207761Y247631D01*
X207686Y247655D01*
X207608Y247667D01*
X207530Y247667D01*
X207452Y247654D01*
X207377Y247630D01*
X207307Y247594D01*
X207244Y247547D01*
X207189Y247490D01*
X206492Y246612D01*
X206115Y246026D01*
Y260659D01*
X207116Y260435D01*
X208229Y260287D01*
X209350Y260238D01*
X210471Y260287D01*
X211584Y260435D01*
X212679Y260680D01*
X213749Y261020D01*
X214784Y261452D01*
X215778Y261975D01*
X216722Y262582D01*
X216916Y262732D01*
Y252002D01*
X216910Y252002D01*
X215789Y251953D01*
X214676Y251805D01*
X213581Y251560D01*
X212511Y251220D01*
X211476Y250788D01*
X210482Y250265D01*
X209538Y249658D01*
X208652Y248970D01*
X208594Y248914D01*
X208547Y248849D01*
X208510Y248777D01*
X208485Y248701D01*
X208472Y248621D01*
X208472Y248541D01*
X208484Y248461D01*
X208509Y248385D01*
X208545Y248313D01*
X208592Y248248D01*
X208649Y248191D01*
X208714Y248143D01*
X208785Y248106D01*
X208862Y248081D01*
X208941Y248068D01*
X209022Y248068D01*
X209101Y248080D01*
X209178Y248105D01*
X209250Y248141D01*
X209314Y248190D01*
X210123Y248832D01*
X210992Y249391D01*
X211907Y249872D01*
X212860Y250270D01*
X213845Y250583D01*
X214853Y250809D01*
X215878Y250945D01*
X216910Y250990D01*
X216916Y250990D01*
Y227490D01*
X216910Y227490D01*
X215878Y227535D01*
X214853Y227671D01*
X213845Y227897D01*
X212860Y228210D01*
X211907Y228608D01*
X210992Y229089D01*
X210123Y229648D01*
X209307Y230282D01*
X209244Y230329D01*
X209174Y230364D01*
X209099Y230389D01*
X209021Y230401D01*
X208942Y230400D01*
X208865Y230388D01*
X208790Y230363D01*
X208720Y230327D01*
X208656Y230281D01*
X208601Y230225D01*
X208555Y230161D01*
X208519Y230091D01*
X208495Y230016D01*
X208483Y229938D01*
X208483Y229860D01*
X208496Y229782D01*
X208520Y229707D01*
X208556Y229637D01*
X208603Y229574D01*
X208660Y229519D01*
X209538Y228822D01*
X210482Y228215D01*
X211476Y227692D01*
X212511Y227260D01*
X213581Y226920D01*
X214676Y226675D01*
X215789Y226527D01*
X216910Y226478D01*
X216916Y226478D01*
Y191000D01*
G37*
G36*
X206115Y234628D02*X205880Y235190D01*
X205567Y236175D01*
X205341Y237183D01*
X205205Y238208D01*
X205160Y239240D01*
X205205Y240272D01*
X205341Y241297D01*
X205567Y242305D01*
X205880Y243290D01*
X206115Y243852D01*
Y234628D01*
G37*
G36*
Y189115D02*X205000Y188000D01*
Y161000D01*
X206115Y159885D01*
Y122000D01*
X198791D01*
Y195662D01*
X198804Y195670D01*
X198947Y195793D01*
X199070Y195936D01*
X199168Y196098D01*
X199241Y196272D01*
X199285Y196456D01*
X199296Y196644D01*
X199285Y237777D01*
X199241Y237961D01*
X199168Y238135D01*
X199070Y238297D01*
X198947Y238440D01*
X198804Y238563D01*
X198791Y238571D01*
Y265848D01*
X198932Y265628D01*
X199620Y264742D01*
X199676Y264684D01*
X199741Y264637D01*
X199813Y264600D01*
X199889Y264575D01*
X199969Y264562D01*
X200049Y264562D01*
X200129Y264574D01*
X200205Y264599D01*
X200277Y264635D01*
X200342Y264682D01*
X200399Y264739D01*
X200447Y264804D01*
X200484Y264875D01*
X200509Y264952D01*
X200522Y265031D01*
X200522Y265112D01*
X200510Y265191D01*
X200485Y265268D01*
X200449Y265340D01*
X200400Y265404D01*
X199758Y266213D01*
X199199Y267082D01*
X198791Y267859D01*
Y278141D01*
X199199Y278918D01*
X199758Y279787D01*
X200392Y280603D01*
X200439Y280666D01*
X200474Y280736D01*
X200498Y280811D01*
X200511Y280889D01*
X200510Y280968D01*
X200498Y281045D01*
X200473Y281120D01*
X200437Y281190D01*
X200391Y281254D01*
X200335Y281309D01*
X200271Y281355D01*
X200201Y281391D01*
X200126Y281415D01*
X200048Y281427D01*
X199970Y281427D01*
X199892Y281414D01*
X199817Y281390D01*
X199747Y281354D01*
X199684Y281307D01*
X199629Y281250D01*
X198932Y280372D01*
X198791Y280152D01*
Y299301D01*
X198983Y299594D01*
X199593Y300736D01*
X200099Y301928D01*
X200497Y303160D01*
X200784Y304423D01*
X200957Y305706D01*
X201014Y307000D01*
X200957Y308294D01*
X200784Y309577D01*
X200497Y310840D01*
X200099Y312072D01*
X199593Y313264D01*
X198983Y314406D01*
X198791Y314699D01*
Y333500D01*
X206115D01*
Y285341D01*
X206021Y285320D01*
X204951Y284980D01*
X203916Y284548D01*
X202922Y284025D01*
X201978Y283418D01*
X201092Y282730D01*
X201034Y282674D01*
X200987Y282609D01*
X200950Y282537D01*
X200925Y282461D01*
X200912Y282381D01*
X200912Y282301D01*
X200924Y282221D01*
X200949Y282145D01*
X200985Y282073D01*
X201032Y282008D01*
X201089Y281951D01*
X201154Y281903D01*
X201225Y281866D01*
X201302Y281841D01*
X201381Y281828D01*
X201462Y281828D01*
X201541Y281840D01*
X201618Y281865D01*
X201690Y281901D01*
X201754Y281950D01*
X202563Y282592D01*
X203432Y283151D01*
X204347Y283632D01*
X205300Y284030D01*
X206115Y284289D01*
Y261711D01*
X205300Y261970D01*
X204347Y262368D01*
X203432Y262849D01*
X202563Y263408D01*
X201747Y264042D01*
X201684Y264089D01*
X201614Y264124D01*
X201539Y264148D01*
X201461Y264161D01*
X201382Y264160D01*
X201305Y264148D01*
X201230Y264123D01*
X201160Y264087D01*
X201096Y264041D01*
X201041Y263985D01*
X200995Y263921D01*
X200959Y263851D01*
X200935Y263776D01*
X200923Y263698D01*
X200923Y263620D01*
X200936Y263542D01*
X200960Y263467D01*
X200996Y263397D01*
X201043Y263334D01*
X201100Y263279D01*
X201978Y262582D01*
X202922Y261975D01*
X203916Y261452D01*
X204951Y261020D01*
X206021Y260680D01*
X206115Y260659D01*
Y246026D01*
X205885Y245668D01*
X205362Y244674D01*
X204930Y243639D01*
X204590Y242569D01*
X204345Y241474D01*
X204197Y240361D01*
X204148Y239240D01*
X204197Y238119D01*
X204345Y237006D01*
X204590Y235911D01*
X204930Y234841D01*
X205362Y233806D01*
X205885Y232812D01*
X206115Y232454D01*
Y189115D01*
G37*
G36*
X198791Y406000D02*X216916D01*
Y367000D01*
X198791D01*
Y406000D01*
G37*
G36*
Y267859D02*X198718Y267997D01*
X198320Y268950D01*
X198007Y269935D01*
X197781Y270943D01*
X197645Y271968D01*
X197600Y273000D01*
X197645Y274032D01*
X197781Y275057D01*
X198007Y276065D01*
X198320Y277050D01*
X198718Y278003D01*
X198791Y278141D01*
Y267859D01*
G37*
G36*
Y238571D02*X198642Y238662D01*
X198468Y238734D01*
X198284Y238778D01*
X198096Y238789D01*
X186507Y238785D01*
Y292486D01*
X187794Y292543D01*
X189077Y292716D01*
X190340Y293003D01*
X191572Y293401D01*
X192764Y293907D01*
X193906Y294517D01*
X194989Y295227D01*
X196005Y296030D01*
X196062Y296088D01*
X196109Y296153D01*
X196145Y296226D01*
X196169Y296303D01*
X196181Y296382D01*
X196181Y296463D01*
X196168Y296543D01*
X196142Y296620D01*
X196105Y296691D01*
X196057Y296756D01*
X195999Y296813D01*
X195934Y296860D01*
X195861Y296896D01*
X195784Y296921D01*
X195704Y296933D01*
X195624Y296932D01*
X195544Y296919D01*
X195467Y296894D01*
X195396Y296856D01*
X195332Y296807D01*
X194396Y296050D01*
X193388Y295390D01*
X192326Y294822D01*
X191218Y294351D01*
X190071Y293981D01*
X188897Y293714D01*
X187703Y293554D01*
X186507Y293500D01*
Y320500D01*
X187703Y320446D01*
X188897Y320286D01*
X190071Y320019D01*
X191218Y319649D01*
X192326Y319178D01*
X193388Y318610D01*
X194396Y317950D01*
X195340Y317203D01*
X195403Y317155D01*
X195473Y317119D01*
X195547Y317094D01*
X195625Y317081D01*
X195704Y317081D01*
X195781Y317092D01*
X195856Y317116D01*
X195927Y317151D01*
X195991Y317197D01*
X196047Y317252D01*
X196093Y317316D01*
X196130Y317386D01*
X196155Y317460D01*
X196167Y317538D01*
X196168Y317617D01*
X196156Y317694D01*
X196132Y317769D01*
X196097Y317840D01*
X196051Y317904D01*
X195995Y317959D01*
X194989Y318773D01*
X193906Y319483D01*
X192764Y320093D01*
X191572Y320599D01*
X190340Y320997D01*
X189077Y321284D01*
X187794Y321457D01*
X186507Y321514D01*
Y333500D01*
X198791D01*
Y314699D01*
X198273Y315489D01*
X197470Y316505D01*
X197412Y316562D01*
X197347Y316609D01*
X197274Y316645D01*
X197197Y316669D01*
X197118Y316681D01*
X197037Y316681D01*
X196957Y316668D01*
X196880Y316642D01*
X196809Y316605D01*
X196744Y316557D01*
X196687Y316499D01*
X196640Y316434D01*
X196604Y316361D01*
X196579Y316284D01*
X196567Y316205D01*
X196568Y316124D01*
X196581Y316044D01*
X196606Y315967D01*
X196644Y315896D01*
X196693Y315832D01*
X197450Y314896D01*
X198110Y313888D01*
X198678Y312826D01*
X198791Y312561D01*
Y301439D01*
X198678Y301174D01*
X198110Y300112D01*
X197450Y299104D01*
X196703Y298160D01*
X196655Y298097D01*
X196619Y298027D01*
X196594Y297953D01*
X196581Y297875D01*
X196581Y297796D01*
X196592Y297719D01*
X196616Y297644D01*
X196651Y297573D01*
X196697Y297509D01*
X196752Y297453D01*
X196816Y297407D01*
X196886Y297370D01*
X196960Y297345D01*
X197038Y297333D01*
X197117Y297332D01*
X197194Y297344D01*
X197269Y297368D01*
X197340Y297403D01*
X197404Y297449D01*
X197459Y297505D01*
X198273Y298511D01*
X198791Y299301D01*
Y280152D01*
X198325Y279428D01*
X197802Y278434D01*
X197370Y277399D01*
X197030Y276329D01*
X196785Y275234D01*
X196637Y274121D01*
X196588Y273000D01*
X196637Y271879D01*
X196785Y270766D01*
X197030Y269671D01*
X197370Y268601D01*
X197802Y267566D01*
X198325Y266572D01*
X198791Y265848D01*
Y238571D01*
G37*
G36*
Y122000D02*X186507D01*
Y195451D01*
X198284Y195455D01*
X198468Y195499D01*
X198642Y195572D01*
X198791Y195662D01*
Y122000D01*
G37*
G36*
X186507Y406000D02*X198791D01*
Y367000D01*
X186507D01*
Y406000D01*
G37*
G36*
X174209Y278521D02*X174482Y278003D01*
X174880Y277050D01*
X175193Y276065D01*
X175419Y275057D01*
X175555Y274032D01*
X175600Y273000D01*
X175555Y271968D01*
X175419Y270943D01*
X175193Y269935D01*
X174880Y268950D01*
X174482Y267997D01*
X174209Y267479D01*
Y278521D01*
G37*
G36*
Y195447D02*X186507Y195451D01*
Y122000D01*
X174209D01*
Y195447D01*
G37*
G36*
Y333500D02*X186507D01*
Y321514D01*
X186500Y321514D01*
X185206Y321457D01*
X183923Y321284D01*
X182660Y320997D01*
X181428Y320599D01*
X180236Y320093D01*
X179094Y319483D01*
X178011Y318773D01*
X176995Y317970D01*
X176938Y317912D01*
X176891Y317847D01*
X176855Y317774D01*
X176831Y317697D01*
X176819Y317618D01*
X176819Y317537D01*
X176832Y317457D01*
X176858Y317380D01*
X176895Y317309D01*
X176943Y317244D01*
X177001Y317187D01*
X177066Y317140D01*
X177139Y317104D01*
X177216Y317079D01*
X177295Y317067D01*
X177376Y317068D01*
X177456Y317081D01*
X177533Y317106D01*
X177604Y317144D01*
X177668Y317193D01*
X178604Y317950D01*
X179612Y318610D01*
X180674Y319178D01*
X181782Y319649D01*
X182929Y320019D01*
X184103Y320286D01*
X185297Y320446D01*
X186500Y320500D01*
X186507Y320500D01*
Y293500D01*
X186500Y293500D01*
X185297Y293554D01*
X184103Y293714D01*
X182929Y293981D01*
X181782Y294351D01*
X180674Y294822D01*
X179612Y295390D01*
X178604Y296050D01*
X177660Y296797D01*
X177597Y296845D01*
X177527Y296881D01*
X177453Y296906D01*
X177375Y296919D01*
X177296Y296919D01*
X177219Y296908D01*
X177144Y296884D01*
X177073Y296849D01*
X177009Y296803D01*
X176953Y296748D01*
X176907Y296684D01*
X176870Y296614D01*
X176845Y296540D01*
X176833Y296462D01*
X176832Y296383D01*
X176844Y296306D01*
X176868Y296231D01*
X176903Y296160D01*
X176949Y296096D01*
X177005Y296041D01*
X178011Y295227D01*
X179094Y294517D01*
X180236Y293907D01*
X181428Y293401D01*
X182660Y293003D01*
X183923Y292716D01*
X185206Y292543D01*
X186500Y292486D01*
X186507Y292486D01*
Y238785D01*
X174209Y238781D01*
Y265554D01*
X174268Y265628D01*
X174875Y266572D01*
X175398Y267566D01*
X175830Y268601D01*
X176170Y269671D01*
X176415Y270766D01*
X176563Y271879D01*
X176612Y273000D01*
X176563Y274121D01*
X176415Y275234D01*
X176170Y276329D01*
X175830Y277399D01*
X175398Y278434D01*
X174875Y279428D01*
X174268Y280372D01*
X174209Y280447D01*
Y299301D01*
X174727Y298511D01*
X175530Y297495D01*
X175588Y297438D01*
X175653Y297391D01*
X175726Y297355D01*
X175803Y297331D01*
X175882Y297319D01*
X175963Y297319D01*
X176043Y297332D01*
X176120Y297358D01*
X176191Y297395D01*
X176256Y297443D01*
X176313Y297501D01*
X176360Y297566D01*
X176396Y297639D01*
X176421Y297716D01*
X176433Y297796D01*
X176432Y297876D01*
X176419Y297956D01*
X176394Y298033D01*
X176356Y298104D01*
X176307Y298168D01*
X175550Y299104D01*
X174890Y300112D01*
X174322Y301174D01*
X174209Y301439D01*
Y312561D01*
X174322Y312826D01*
X174890Y313888D01*
X175550Y314896D01*
X176297Y315840D01*
X176345Y315903D01*
X176381Y315973D01*
X176406Y316047D01*
X176419Y316125D01*
X176419Y316204D01*
X176408Y316281D01*
X176384Y316356D01*
X176349Y316427D01*
X176303Y316491D01*
X176248Y316547D01*
X176184Y316593D01*
X176114Y316630D01*
X176040Y316655D01*
X175962Y316667D01*
X175883Y316668D01*
X175806Y316656D01*
X175731Y316632D01*
X175660Y316597D01*
X175596Y316551D01*
X175541Y316495D01*
X174727Y315489D01*
X174209Y314699D01*
Y333500D01*
G37*
G36*
Y406000D02*X186507D01*
Y367000D01*
X174209D01*
Y406000D01*
G37*
G36*
Y301439D02*X173851Y302282D01*
X173481Y303429D01*
X173214Y304603D01*
X173054Y305797D01*
X173000Y307000D01*
X173054Y308203D01*
X173214Y309397D01*
X173481Y310571D01*
X173851Y311718D01*
X174209Y312561D01*
Y301439D01*
G37*
G36*
X163856Y196378D02*X163881Y196272D01*
X163953Y196098D01*
X164052Y195936D01*
X164175Y195793D01*
X164318Y195670D01*
X164480Y195572D01*
X164654Y195499D01*
X164838Y195455D01*
X165026Y195444D01*
X174209Y195447D01*
Y122000D01*
X163856D01*
Y196378D01*
G37*
G36*
Y333500D02*X174209D01*
Y314699D01*
X174017Y314406D01*
X173407Y313264D01*
X172901Y312072D01*
X172503Y310840D01*
X172216Y309577D01*
X172043Y308294D01*
X171986Y307000D01*
X172043Y305706D01*
X172216Y304423D01*
X172503Y303160D01*
X172901Y301928D01*
X173407Y300736D01*
X174017Y299594D01*
X174209Y299301D01*
Y280447D01*
X173580Y281258D01*
X173524Y281316D01*
X173459Y281363D01*
X173387Y281400D01*
X173311Y281425D01*
X173231Y281438D01*
X173151Y281438D01*
X173071Y281426D01*
X172995Y281401D01*
X172923Y281365D01*
X172858Y281318D01*
X172801Y281261D01*
X172753Y281196D01*
X172716Y281125D01*
X172691Y281048D01*
X172678Y280969D01*
X172678Y280888D01*
X172690Y280809D01*
X172715Y280732D01*
X172751Y280660D01*
X172800Y280596D01*
X173442Y279787D01*
X174001Y278918D01*
X174209Y278521D01*
Y267479D01*
X174001Y267082D01*
X173442Y266213D01*
X172808Y265397D01*
X172761Y265334D01*
X172726Y265264D01*
X172702Y265189D01*
X172689Y265111D01*
X172690Y265032D01*
X172702Y264955D01*
X172727Y264880D01*
X172763Y264810D01*
X172809Y264746D01*
X172865Y264691D01*
X172929Y264645D01*
X172999Y264609D01*
X173074Y264585D01*
X173152Y264573D01*
X173230Y264573D01*
X173308Y264586D01*
X173383Y264610D01*
X173453Y264646D01*
X173516Y264693D01*
X173571Y264750D01*
X174209Y265554D01*
Y238781D01*
X164838Y238778D01*
X164654Y238734D01*
X164480Y238662D01*
X164318Y238563D01*
X164175Y238440D01*
X164052Y238297D01*
X163953Y238135D01*
X163881Y237961D01*
X163856Y237855D01*
Y260238D01*
X164971Y260287D01*
X166084Y260435D01*
X167179Y260680D01*
X168249Y261020D01*
X169284Y261452D01*
X170278Y261975D01*
X171222Y262582D01*
X172108Y263270D01*
X172166Y263326D01*
X172213Y263391D01*
X172250Y263463D01*
X172275Y263539D01*
X172288Y263619D01*
X172288Y263699D01*
X172276Y263779D01*
X172251Y263855D01*
X172215Y263927D01*
X172168Y263992D01*
X172111Y264049D01*
X172046Y264097D01*
X171975Y264134D01*
X171898Y264159D01*
X171819Y264172D01*
X171738Y264172D01*
X171659Y264160D01*
X171582Y264135D01*
X171510Y264099D01*
X171446Y264050D01*
X170637Y263408D01*
X169768Y262849D01*
X168853Y262368D01*
X167900Y261970D01*
X166915Y261657D01*
X165907Y261431D01*
X164882Y261295D01*
X163856Y261250D01*
Y284750D01*
X164882Y284705D01*
X165907Y284569D01*
X166915Y284343D01*
X167900Y284030D01*
X168853Y283632D01*
X169768Y283151D01*
X170637Y282592D01*
X171453Y281958D01*
X171516Y281911D01*
X171586Y281876D01*
X171661Y281852D01*
X171739Y281839D01*
X171818Y281840D01*
X171895Y281852D01*
X171970Y281877D01*
X172040Y281913D01*
X172104Y281959D01*
X172159Y282015D01*
X172205Y282079D01*
X172241Y282149D01*
X172265Y282224D01*
X172277Y282302D01*
X172277Y282380D01*
X172264Y282458D01*
X172240Y282533D01*
X172204Y282603D01*
X172157Y282666D01*
X172100Y282721D01*
X171222Y283418D01*
X170278Y284025D01*
X169284Y284548D01*
X168249Y284980D01*
X167179Y285320D01*
X166084Y285565D01*
X164971Y285713D01*
X163856Y285762D01*
Y333500D01*
G37*
G36*
Y406000D02*X174209D01*
Y367000D01*
X163856D01*
Y406000D01*
G37*
G36*
X153055Y336945D02*X156500Y333500D01*
X163856D01*
Y285762D01*
X163850Y285762D01*
X162729Y285713D01*
X161616Y285565D01*
X160521Y285320D01*
X159451Y284980D01*
X158416Y284548D01*
X157422Y284025D01*
X156478Y283418D01*
X155592Y282730D01*
X155534Y282674D01*
X155487Y282609D01*
X155450Y282537D01*
X155425Y282461D01*
X155412Y282381D01*
X155412Y282301D01*
X155424Y282221D01*
X155449Y282145D01*
X155485Y282073D01*
X155532Y282008D01*
X155589Y281951D01*
X155654Y281903D01*
X155725Y281866D01*
X155802Y281841D01*
X155881Y281828D01*
X155962Y281828D01*
X156041Y281840D01*
X156118Y281865D01*
X156190Y281901D01*
X156254Y281950D01*
X157063Y282592D01*
X157932Y283151D01*
X158847Y283632D01*
X159800Y284030D01*
X160785Y284343D01*
X161793Y284569D01*
X162818Y284705D01*
X163850Y284750D01*
X163856Y284750D01*
Y261250D01*
X163850Y261250D01*
X162818Y261295D01*
X161793Y261431D01*
X160785Y261657D01*
X159800Y261970D01*
X158847Y262368D01*
X157932Y262849D01*
X157063Y263408D01*
X156247Y264042D01*
X156184Y264089D01*
X156114Y264124D01*
X156039Y264148D01*
X155961Y264161D01*
X155882Y264160D01*
X155805Y264148D01*
X155730Y264123D01*
X155660Y264087D01*
X155596Y264041D01*
X155541Y263985D01*
X155495Y263921D01*
X155459Y263851D01*
X155435Y263776D01*
X155423Y263698D01*
X155423Y263620D01*
X155436Y263542D01*
X155460Y263467D01*
X155496Y263397D01*
X155543Y263334D01*
X155600Y263279D01*
X156478Y262582D01*
X157422Y261975D01*
X158416Y261452D01*
X159451Y261020D01*
X160521Y260680D01*
X161616Y260435D01*
X162729Y260287D01*
X163850Y260238D01*
X163856Y260238D01*
Y237855D01*
X163837Y237777D01*
X163826Y237589D01*
X163837Y196456D01*
X163856Y196378D01*
Y122000D01*
X153055D01*
Y266214D01*
X153432Y265628D01*
X154120Y264742D01*
X154176Y264684D01*
X154241Y264637D01*
X154313Y264600D01*
X154389Y264575D01*
X154469Y264562D01*
X154549Y264562D01*
X154629Y264574D01*
X154705Y264599D01*
X154777Y264635D01*
X154842Y264682D01*
X154899Y264739D01*
X154947Y264804D01*
X154984Y264875D01*
X155009Y264952D01*
X155022Y265031D01*
X155022Y265112D01*
X155010Y265191D01*
X154985Y265268D01*
X154949Y265340D01*
X154900Y265404D01*
X154258Y266213D01*
X153699Y267082D01*
X153218Y267997D01*
X153055Y268388D01*
Y277612D01*
X153218Y278003D01*
X153699Y278918D01*
X154258Y279787D01*
X154892Y280603D01*
X154939Y280666D01*
X154974Y280736D01*
X154998Y280811D01*
X155011Y280889D01*
X155010Y280968D01*
X154998Y281045D01*
X154973Y281120D01*
X154937Y281190D01*
X154891Y281254D01*
X154835Y281309D01*
X154771Y281355D01*
X154701Y281391D01*
X154626Y281415D01*
X154548Y281427D01*
X154470Y281427D01*
X154392Y281414D01*
X154317Y281390D01*
X154247Y281354D01*
X154184Y281307D01*
X154129Y281250D01*
X153432Y280372D01*
X153055Y279786D01*
Y336945D01*
G37*
G36*
Y406000D02*X163856D01*
Y367000D01*
X156500D01*
X153055Y363555D01*
Y406000D01*
G37*
G36*
Y268388D02*X152820Y268950D01*
X152507Y269935D01*
X152281Y270943D01*
X152145Y271968D01*
X152100Y273000D01*
X152145Y274032D01*
X152281Y275057D01*
X152507Y276065D01*
X152820Y277050D01*
X153055Y277612D01*
Y268388D01*
G37*
G36*
X71045Y143357D02*X71333Y142674D01*
X71670Y141620D01*
X71913Y140540D01*
X72060Y139444D01*
X72109Y138338D01*
X72060Y137232D01*
X71913Y136136D01*
X71670Y135056D01*
X71333Y134002D01*
X71045Y133319D01*
Y143357D01*
G37*
G36*
Y393357D02*X71333Y392674D01*
X71670Y391620D01*
X71913Y390540D01*
X72060Y389444D01*
X72109Y388338D01*
X72060Y387232D01*
X71913Y386136D01*
X71670Y385056D01*
X71333Y384002D01*
X71045Y383319D01*
Y393357D01*
G37*
G36*
X112061Y406000D02*X153055D01*
Y363555D01*
X152000Y362500D01*
Y338000D01*
X153055Y336945D01*
Y279786D01*
X152825Y279428D01*
X152302Y278434D01*
X151870Y277399D01*
X151530Y276329D01*
X151285Y275234D01*
X151137Y274121D01*
X151088Y273000D01*
X151137Y271879D01*
X151285Y270766D01*
X151530Y269671D01*
X151870Y268601D01*
X152302Y267566D01*
X152825Y266572D01*
X153055Y266214D01*
Y122000D01*
X112061D01*
Y124000D01*
X115000D01*
Y167500D01*
X112061D01*
Y353149D01*
X128753Y353153D01*
X128906Y353190D01*
X129051Y353250D01*
X129186Y353332D01*
X129305Y353435D01*
X129408Y353554D01*
X129490Y353689D01*
X129550Y353834D01*
X129587Y353987D01*
X129596Y354144D01*
X129587Y395246D01*
X129550Y395399D01*
X129490Y395544D01*
X129408Y395679D01*
X129305Y395798D01*
X129186Y395901D01*
X129051Y395983D01*
X128906Y396043D01*
X128753Y396080D01*
X128596Y396089D01*
X112061Y396084D01*
Y406000D01*
G37*
G36*
X71045D02*X112061D01*
Y396084D01*
X95369Y396080D01*
X95216Y396043D01*
X95071Y395983D01*
X94936Y395901D01*
X94817Y395798D01*
X94714Y395679D01*
X94632Y395544D01*
X94572Y395399D01*
X94535Y395246D01*
X94526Y395089D01*
X94535Y353987D01*
X94572Y353834D01*
X94632Y353689D01*
X94714Y353554D01*
X94817Y353435D01*
X94936Y353332D01*
X95071Y353250D01*
X95216Y353190D01*
X95369Y353153D01*
X95526Y353144D01*
X112061Y353149D01*
Y167500D01*
X84500D01*
Y124000D01*
X112061D01*
Y122000D01*
X71045D01*
Y131161D01*
X71259Y131491D01*
X71819Y132548D01*
X72283Y133651D01*
X72648Y134790D01*
X72911Y135957D01*
X73069Y137143D01*
X73122Y138338D01*
X73069Y139533D01*
X72911Y140719D01*
X72648Y141886D01*
X72283Y143025D01*
X71819Y144128D01*
X71259Y145185D01*
X71045Y145515D01*
Y165000D01*
X78000D01*
Y207500D01*
X71045D01*
Y241000D01*
X79000D01*
Y285000D01*
X71045D01*
Y287500D01*
X73500D01*
X78500Y292500D01*
Y358000D01*
X73500Y363000D01*
X71045D01*
Y381161D01*
X71259Y381491D01*
X71819Y382548D01*
X72283Y383651D01*
X72648Y384790D01*
X72911Y385957D01*
X73069Y387143D01*
X73122Y388338D01*
X73069Y389533D01*
X72911Y390719D01*
X72648Y391886D01*
X72283Y393025D01*
X71819Y394128D01*
X71259Y395185D01*
X71045Y395515D01*
Y406000D01*
G37*
G36*
Y285000D02*X59615D01*
Y287500D01*
X71045D01*
Y285000D01*
G37*
G36*
Y207500D02*X59615D01*
Y241000D01*
X71045D01*
Y207500D01*
G37*
G36*
Y122000D02*X59615D01*
Y124825D01*
X60804Y124878D01*
X61990Y125036D01*
X63157Y125299D01*
X64296Y125664D01*
X65399Y126128D01*
X66456Y126688D01*
X67460Y127339D01*
X68402Y128077D01*
X68459Y128133D01*
X68506Y128199D01*
X68543Y128271D01*
X68568Y128347D01*
X68580Y128427D01*
X68580Y128508D01*
X68567Y128587D01*
X68542Y128664D01*
X68505Y128736D01*
X68458Y128801D01*
X68401Y128858D01*
X68336Y128905D01*
X68264Y128941D01*
X68187Y128966D01*
X68107Y128979D01*
X68027Y128979D01*
X67947Y128966D01*
X67870Y128941D01*
X67799Y128904D01*
X67734Y128855D01*
X66871Y128164D01*
X65943Y127561D01*
X64965Y127044D01*
X63945Y126614D01*
X62891Y126277D01*
X61811Y126034D01*
X60715Y125887D01*
X59615Y125838D01*
Y150838D01*
X60715Y150789D01*
X61811Y150642D01*
X62891Y150399D01*
X63945Y150062D01*
X64965Y149632D01*
X65943Y149115D01*
X66871Y148512D01*
X67742Y147830D01*
X67805Y147782D01*
X67875Y147747D01*
X67950Y147722D01*
X68028Y147710D01*
X68106Y147710D01*
X68184Y147722D01*
X68259Y147746D01*
X68329Y147782D01*
X68393Y147828D01*
X68449Y147883D01*
X68495Y147947D01*
X68531Y148017D01*
X68555Y148092D01*
X68568Y148169D01*
X68568Y148248D01*
X68556Y148326D01*
X68531Y148401D01*
X68496Y148471D01*
X68450Y148535D01*
X68393Y148589D01*
X67460Y149337D01*
X66456Y149988D01*
X65399Y150548D01*
X64296Y151012D01*
X63157Y151377D01*
X61990Y151640D01*
X60804Y151798D01*
X59615Y151851D01*
Y165000D01*
X71045D01*
Y145515D01*
X70608Y146189D01*
X69870Y147131D01*
X69814Y147188D01*
X69748Y147235D01*
X69676Y147272D01*
X69600Y147297D01*
X69520Y147309D01*
X69439Y147309D01*
X69360Y147296D01*
X69283Y147271D01*
X69211Y147234D01*
X69146Y147187D01*
X69089Y147130D01*
X69042Y147065D01*
X69006Y146993D01*
X68981Y146916D01*
X68968Y146836D01*
X68968Y146756D01*
X68981Y146676D01*
X69006Y146599D01*
X69043Y146528D01*
X69092Y146463D01*
X69783Y145600D01*
X70386Y144672D01*
X70903Y143694D01*
X71045Y143357D01*
Y133319D01*
X70903Y132982D01*
X70386Y132004D01*
X69783Y131076D01*
X69101Y130205D01*
X69053Y130142D01*
X69018Y130072D01*
X68993Y129997D01*
X68981Y129919D01*
X68981Y129841D01*
X68993Y129763D01*
X69017Y129688D01*
X69053Y129618D01*
X69099Y129554D01*
X69154Y129498D01*
X69218Y129452D01*
X69288Y129416D01*
X69363Y129392D01*
X69440Y129379D01*
X69519Y129379D01*
X69597Y129391D01*
X69672Y129416D01*
X69742Y129451D01*
X69806Y129497D01*
X69860Y129554D01*
X70608Y130487D01*
X71045Y131161D01*
Y122000D01*
G37*
G36*
X59615Y406000D02*X71045D01*
Y395515D01*
X70608Y396189D01*
X69870Y397131D01*
X69814Y397188D01*
X69748Y397235D01*
X69676Y397272D01*
X69600Y397297D01*
X69520Y397309D01*
X69439Y397309D01*
X69360Y397296D01*
X69283Y397271D01*
X69211Y397234D01*
X69146Y397187D01*
X69089Y397130D01*
X69042Y397065D01*
X69006Y396993D01*
X68981Y396916D01*
X68968Y396836D01*
X68968Y396756D01*
X68981Y396676D01*
X69006Y396599D01*
X69043Y396528D01*
X69092Y396463D01*
X69783Y395600D01*
X70386Y394672D01*
X70903Y393694D01*
X71045Y393357D01*
Y383319D01*
X70903Y382982D01*
X70386Y382004D01*
X69783Y381076D01*
X69101Y380205D01*
X69053Y380142D01*
X69018Y380072D01*
X68993Y379997D01*
X68981Y379919D01*
X68981Y379841D01*
X68993Y379763D01*
X69017Y379688D01*
X69053Y379618D01*
X69099Y379554D01*
X69154Y379498D01*
X69218Y379452D01*
X69288Y379416D01*
X69363Y379392D01*
X69440Y379379D01*
X69519Y379379D01*
X69597Y379391D01*
X69672Y379416D01*
X69742Y379451D01*
X69806Y379497D01*
X69860Y379554D01*
X70608Y380487D01*
X71045Y381161D01*
Y363000D01*
X59615D01*
Y374825D01*
X60804Y374878D01*
X61990Y375036D01*
X63157Y375299D01*
X64296Y375664D01*
X65399Y376128D01*
X66456Y376688D01*
X67460Y377339D01*
X68402Y378077D01*
X68459Y378133D01*
X68506Y378199D01*
X68543Y378271D01*
X68568Y378347D01*
X68580Y378427D01*
X68580Y378508D01*
X68567Y378587D01*
X68542Y378664D01*
X68505Y378736D01*
X68458Y378801D01*
X68401Y378858D01*
X68336Y378905D01*
X68264Y378941D01*
X68187Y378966D01*
X68107Y378979D01*
X68027Y378979D01*
X67947Y378966D01*
X67870Y378941D01*
X67799Y378904D01*
X67734Y378855D01*
X66871Y378164D01*
X65943Y377561D01*
X64965Y377044D01*
X63945Y376614D01*
X62891Y376277D01*
X61811Y376034D01*
X60715Y375887D01*
X59615Y375838D01*
Y400838D01*
X60715Y400789D01*
X61811Y400642D01*
X62891Y400399D01*
X63945Y400062D01*
X64965Y399632D01*
X65943Y399115D01*
X66871Y398512D01*
X67742Y397830D01*
X67805Y397782D01*
X67875Y397747D01*
X67950Y397722D01*
X68028Y397710D01*
X68106Y397710D01*
X68184Y397722D01*
X68259Y397746D01*
X68329Y397782D01*
X68393Y397828D01*
X68449Y397883D01*
X68495Y397947D01*
X68531Y398017D01*
X68555Y398092D01*
X68568Y398169D01*
X68568Y398248D01*
X68556Y398326D01*
X68531Y398401D01*
X68496Y398471D01*
X68450Y398535D01*
X68393Y398589D01*
X67460Y399337D01*
X66456Y399988D01*
X65399Y400548D01*
X64296Y401012D01*
X63157Y401377D01*
X61990Y401640D01*
X60804Y401798D01*
X59615Y401851D01*
Y406000D01*
G37*
G36*
Y122000D02*X48173D01*
Y131161D01*
X48610Y130487D01*
X49348Y129545D01*
X49404Y129488D01*
X49470Y129441D01*
X49542Y129404D01*
X49618Y129379D01*
X49698Y129367D01*
X49779Y129367D01*
X49858Y129380D01*
X49935Y129405D01*
X50007Y129442D01*
X50072Y129489D01*
X50129Y129546D01*
X50176Y129611D01*
X50212Y129683D01*
X50237Y129760D01*
X50250Y129840D01*
X50250Y129920D01*
X50237Y130000D01*
X50212Y130077D01*
X50175Y130148D01*
X50126Y130213D01*
X49435Y131076D01*
X48832Y132004D01*
X48315Y132982D01*
X48173Y133319D01*
Y143357D01*
X48315Y143694D01*
X48832Y144672D01*
X49435Y145600D01*
X50117Y146471D01*
X50165Y146534D01*
X50200Y146604D01*
X50225Y146679D01*
X50237Y146757D01*
X50237Y146835D01*
X50225Y146913D01*
X50201Y146988D01*
X50165Y147058D01*
X50119Y147122D01*
X50064Y147178D01*
X50000Y147224D01*
X49930Y147260D01*
X49855Y147284D01*
X49778Y147297D01*
X49699Y147297D01*
X49621Y147285D01*
X49546Y147260D01*
X49476Y147225D01*
X49412Y147179D01*
X49358Y147122D01*
X48610Y146189D01*
X48173Y145515D01*
Y287500D01*
X59615D01*
Y285000D01*
X48500D01*
Y241000D01*
X59615D01*
Y207500D01*
X49000D01*
Y165000D01*
X59615D01*
Y151851D01*
X59609Y151851D01*
X58414Y151798D01*
X57228Y151640D01*
X56061Y151377D01*
X54922Y151012D01*
X53819Y150548D01*
X52762Y149988D01*
X51758Y149337D01*
X50816Y148599D01*
X50759Y148543D01*
X50712Y148477D01*
X50675Y148405D01*
X50650Y148329D01*
X50638Y148249D01*
X50638Y148168D01*
X50651Y148089D01*
X50676Y148012D01*
X50713Y147940D01*
X50760Y147875D01*
X50817Y147818D01*
X50882Y147771D01*
X50954Y147735D01*
X51031Y147710D01*
X51111Y147697D01*
X51191Y147697D01*
X51271Y147710D01*
X51348Y147735D01*
X51419Y147772D01*
X51484Y147821D01*
X52347Y148512D01*
X53275Y149115D01*
X54253Y149632D01*
X55273Y150062D01*
X56327Y150399D01*
X57407Y150642D01*
X58503Y150789D01*
X59609Y150838D01*
X59615Y150838D01*
Y125838D01*
X59609Y125838D01*
X58503Y125887D01*
X57407Y126034D01*
X56327Y126277D01*
X55273Y126614D01*
X54253Y127044D01*
X53275Y127561D01*
X52347Y128164D01*
X51476Y128846D01*
X51413Y128894D01*
X51343Y128929D01*
X51268Y128954D01*
X51190Y128966D01*
X51112Y128966D01*
X51034Y128954D01*
X50959Y128930D01*
X50889Y128894D01*
X50825Y128848D01*
X50769Y128793D01*
X50723Y128729D01*
X50687Y128659D01*
X50663Y128584D01*
X50650Y128507D01*
X50650Y128428D01*
X50662Y128350D01*
X50687Y128275D01*
X50722Y128205D01*
X50768Y128141D01*
X50825Y128087D01*
X51758Y127339D01*
X52762Y126688D01*
X53819Y126128D01*
X54922Y125664D01*
X56061Y125299D01*
X57228Y125036D01*
X58414Y124878D01*
X59609Y124825D01*
X59615Y124825D01*
Y122000D01*
G37*
G36*
X48173Y133319D02*X47885Y134002D01*
X47548Y135056D01*
X47305Y136136D01*
X47158Y137232D01*
X47109Y138338D01*
X47158Y139444D01*
X47305Y140540D01*
X47548Y141620D01*
X47885Y142674D01*
X48173Y143357D01*
Y133319D01*
G37*
G36*
Y122000D02*X41500D01*
Y287500D01*
X48173D01*
Y145515D01*
X47959Y145185D01*
X47399Y144128D01*
X46935Y143025D01*
X46570Y141886D01*
X46307Y140719D01*
X46149Y139533D01*
X46096Y138338D01*
X46149Y137143D01*
X46307Y135957D01*
X46570Y134790D01*
X46935Y133651D01*
X47399Y132548D01*
X47959Y131491D01*
X48173Y131161D01*
Y122000D01*
G37*
G36*
Y406000D02*X59615D01*
Y401851D01*
X59609Y401851D01*
X58414Y401798D01*
X57228Y401640D01*
X56061Y401377D01*
X54922Y401012D01*
X53819Y400548D01*
X52762Y399988D01*
X51758Y399337D01*
X50816Y398599D01*
X50759Y398543D01*
X50712Y398477D01*
X50675Y398405D01*
X50650Y398329D01*
X50638Y398249D01*
X50638Y398168D01*
X50651Y398089D01*
X50676Y398012D01*
X50713Y397940D01*
X50760Y397875D01*
X50817Y397818D01*
X50882Y397771D01*
X50954Y397735D01*
X51031Y397710D01*
X51111Y397697D01*
X51191Y397697D01*
X51271Y397710D01*
X51348Y397735D01*
X51419Y397772D01*
X51484Y397821D01*
X52347Y398512D01*
X53275Y399115D01*
X54253Y399632D01*
X55273Y400062D01*
X56327Y400399D01*
X57407Y400642D01*
X58503Y400789D01*
X59609Y400838D01*
X59615Y400838D01*
Y375838D01*
X59609Y375838D01*
X58503Y375887D01*
X57407Y376034D01*
X56327Y376277D01*
X55273Y376614D01*
X54253Y377044D01*
X53275Y377561D01*
X52347Y378164D01*
X51476Y378846D01*
X51413Y378894D01*
X51343Y378929D01*
X51268Y378954D01*
X51190Y378966D01*
X51112Y378966D01*
X51034Y378954D01*
X50959Y378930D01*
X50889Y378894D01*
X50825Y378848D01*
X50769Y378793D01*
X50723Y378729D01*
X50687Y378659D01*
X50663Y378584D01*
X50650Y378507D01*
X50650Y378428D01*
X50662Y378350D01*
X50687Y378275D01*
X50722Y378205D01*
X50768Y378141D01*
X50825Y378087D01*
X51758Y377339D01*
X52762Y376688D01*
X53819Y376128D01*
X54922Y375664D01*
X56061Y375299D01*
X57228Y375036D01*
X58414Y374878D01*
X59609Y374825D01*
X59615Y374825D01*
Y363000D01*
X48173D01*
Y381161D01*
X48610Y380487D01*
X49348Y379545D01*
X49404Y379488D01*
X49470Y379441D01*
X49542Y379404D01*
X49618Y379379D01*
X49698Y379367D01*
X49779Y379367D01*
X49858Y379380D01*
X49935Y379405D01*
X50007Y379442D01*
X50072Y379489D01*
X50129Y379546D01*
X50176Y379611D01*
X50212Y379683D01*
X50237Y379760D01*
X50250Y379840D01*
X50250Y379920D01*
X50237Y380000D01*
X50212Y380077D01*
X50175Y380148D01*
X50126Y380213D01*
X49435Y381076D01*
X48832Y382004D01*
X48315Y382982D01*
X48173Y383319D01*
Y393357D01*
X48315Y393694D01*
X48832Y394672D01*
X49435Y395600D01*
X50117Y396471D01*
X50165Y396534D01*
X50200Y396604D01*
X50225Y396679D01*
X50237Y396757D01*
X50237Y396835D01*
X50225Y396913D01*
X50201Y396988D01*
X50165Y397058D01*
X50119Y397122D01*
X50064Y397178D01*
X50000Y397224D01*
X49930Y397260D01*
X49855Y397284D01*
X49778Y397297D01*
X49699Y397297D01*
X49621Y397285D01*
X49546Y397260D01*
X49476Y397225D01*
X49412Y397179D01*
X49358Y397122D01*
X48610Y396189D01*
X48173Y395515D01*
Y406000D01*
G37*
G36*
Y383319D02*X47885Y384002D01*
X47548Y385056D01*
X47305Y386136D01*
X47158Y387232D01*
X47109Y388338D01*
X47158Y389444D01*
X47305Y390540D01*
X47548Y391620D01*
X47885Y392674D01*
X48173Y393357D01*
Y383319D01*
G37*
G36*
X40500Y406000D02*X48173D01*
Y395515D01*
X47959Y395185D01*
X47399Y394128D01*
X46935Y393025D01*
X46570Y391886D01*
X46307Y390719D01*
X46149Y389533D01*
X46096Y388338D01*
X46149Y387143D01*
X46307Y385957D01*
X46570Y384790D01*
X46935Y383651D01*
X47399Y382548D01*
X47959Y381491D01*
X48173Y381161D01*
Y363000D01*
X40500D01*
Y406000D01*
G37*
G54D27*X285200Y204000D02*X286500D01*
X284500Y203300D02*X285200Y204000D01*
X284500Y200700D02*Y203300D01*
Y200700D02*X285200Y200000D01*
X286500D01*
X287700Y200500D02*Y203500D01*
Y200500D02*X288200Y200000D01*
X289200D01*
X289700Y200500D01*
Y203500D01*
X289200Y204000D02*X289700Y203500D01*
X288200Y204000D02*X289200D01*
X287700Y203500D02*X288200Y204000D01*
X291600D02*X292900D01*
X290900Y203300D02*X291600Y204000D01*
X290900Y200700D02*Y203300D01*
Y200700D02*X291600Y200000D01*
X292900D01*
X294100D02*Y204000D01*
X296600Y200000D02*Y204000D01*
X294100Y202000D02*X296600D01*
X297800Y200000D02*Y204000D01*
X299800D01*
X301000Y201800D02*X302500D01*
X301000Y204000D02*X303000D01*
X301000Y200000D02*Y204000D01*
Y200000D02*X303000D01*
X304200Y201000D02*Y204000D01*
Y201000D02*X304900Y200000D01*
X306000D01*
X306700Y201000D01*
Y204000D01*
X304200Y202000D02*X306700D01*
X307900Y200000D02*X309900D01*
X310400Y200500D01*
Y201500D01*
X309900Y202000D02*X310400Y201500D01*
X308400Y202000D02*X309900D01*
X308400Y200000D02*Y204000D01*
X309200Y202000D02*X310400Y204000D01*
X313400Y200000D02*X314400D01*
X313900D02*Y204000D01*
X313400D02*X314400D01*
X315600Y200000D02*Y204000D01*
Y200000D02*X317100Y202000D01*
X318600Y200000D01*
Y204000D01*
X320300Y200000D02*Y204000D01*
X319800Y200000D02*X321800D01*
X322300Y200500D01*
Y201500D01*
X321800Y202000D02*X322300Y201500D01*
X320300Y202000D02*X321800D01*
X323500Y200000D02*Y204000D01*
X325500D01*
X326700Y201000D02*Y204000D01*
Y201000D02*X327400Y200000D01*
X328500D01*
X329200Y201000D01*
Y204000D01*
X326700Y202000D02*X329200D01*
X330400Y200000D02*Y204000D01*
Y200000D02*X332900Y204000D01*
Y200000D02*Y204000D01*
X334100Y200000D02*X336100D01*
X335100D02*Y204000D01*
X339600Y200000D02*Y204000D01*
X339100Y200000D02*X341100D01*
X341600Y200500D01*
Y201500D01*
X341100Y202000D02*X341600Y201500D01*
X339600Y202000D02*X341100D01*
X342800Y200000D02*Y204000D01*
X344800D01*
X346000Y201000D02*Y204000D01*
Y201000D02*X346700Y200000D01*
X347800D01*
X348500Y201000D01*
Y204000D01*
X346000Y202000D02*X348500D01*
X349700Y200000D02*X351700D01*
X350700D02*Y204000D01*
X352900Y200000D02*Y204000D01*
Y200000D02*X354900D01*
X352900Y201800D02*X354400D01*
X356100Y200500D02*Y203500D01*
Y200500D02*X356600Y200000D01*
X357600D01*
X358100Y200500D01*
Y203500D01*
X357600Y204000D02*X358100Y203500D01*
X356600Y204000D02*X357600D01*
X356100Y203500D02*X356600Y204000D01*
X359300Y200000D02*X361300D01*
X361800Y200500D01*
Y201500D01*
X361300Y202000D02*X361800Y201500D01*
X359800Y202000D02*X361300D01*
X359800Y200000D02*Y204000D01*
X360600Y202000D02*X361800Y204000D01*
X363000Y200000D02*Y204000D01*
Y200000D02*X364500Y202000D01*
X366000Y200000D01*
Y204000D01*
G54D28*X239910Y206240D03*
X186500Y307000D03*
G54D29*X262410Y239240D03*
X216910D03*
X209350Y273000D03*
X163850D03*
G54D30*X59609Y388338D03*
G54D31*X159926Y342206D03*
G54D30*X59609Y138338D03*
G54D31*X213076Y342206D03*
G54D32*X266485Y166444D03*
X213335D03*
G54D30*X419609Y138338D03*
G54D33*X327110Y152090D03*
X353110D03*
X327109Y152088D03*
X353109D03*
G54D30*X419609Y388338D03*
G54D34*X244439Y288821D02*Y280946D01*
G54D35*X279942Y353400D02*Y348676D01*
G54D36*X281910Y343951D02*Y339226D01*
X277973Y343951D02*Y339226D01*
G54D35*X276005Y353400D02*Y348676D01*
X272068Y353400D02*Y348676D01*
G54D36*X274036Y343951D02*Y339226D01*
X270099Y343951D02*Y339226D01*
G54D37*X285847Y353006D02*Y349069D01*
Y343557D02*Y339620D01*
G54D35*X268131Y353400D02*Y348676D01*
G54D36*X266162Y343951D02*Y339226D01*
G54D35*X262225Y343951D02*Y339227D01*
X264194Y353400D02*Y348676D01*
X260257Y353400D02*Y348676D01*
X256320Y353400D02*Y348676D01*
X258288Y343951D02*Y339227D01*
X254351Y343951D02*Y339227D01*
X250414Y343951D02*Y339227D01*
X246477Y343951D02*Y339227D01*
X252383Y353400D02*Y348676D01*
X248446Y353400D02*Y348676D01*
X244509Y353400D02*Y348676D01*
G54D37*X240571Y353006D02*Y349069D01*
Y343557D02*Y339620D01*
G54D38*X208548Y361458D02*Y357402D01*
X205398Y361458D02*Y357402D01*
X202248Y361458D02*Y357402D01*
X199099Y361458D02*Y357402D01*
X208548Y342363D02*Y338308D01*
X205398Y342363D02*Y338308D01*
X202248Y342363D02*Y338308D01*
X199099Y342363D02*Y338308D01*
G54D39*X72545Y342941D02*X74513D01*
X72545Y340973D02*X74513D01*
G54D34*X112061Y378554D02*Y370679D01*
G54D39*X72545Y311445D02*X74513D01*
X72545Y313414D02*X74513D01*
X72545Y315382D02*X74513D01*
X72544Y315380D02*X74512D01*
X72545Y317351D02*X74513D01*
X72544Y317349D02*X74512D01*
X72545Y319319D02*X74513D01*
X72544Y319317D02*X74512D01*
X72545Y321288D02*X74513D01*
X72544Y321286D02*X74512D01*
X72544Y311443D02*X74512D01*
X72544Y313412D02*X74512D01*
G54D37*X65497Y305737D02*Y304949D01*
G54D39*X72544Y305538D02*X74512D01*
X72545Y305540D02*X74513D01*
X72545Y307508D02*X74513D01*
X72545Y309477D02*X74513D01*
X72544Y307506D02*X74512D01*
X72544Y309475D02*X74512D01*
G54D37*X65496Y305735D02*Y304947D01*
G54D40*X61619Y348158D02*Y346386D01*
G54D41*X67623Y352980D02*Y349043D01*
G54D40*X61618Y348156D02*Y346384D01*
G54D41*X67622Y352978D02*Y349041D01*
G54D39*X72545Y323256D02*X74513D01*
X72545Y325225D02*X74513D01*
X72545Y327193D02*X74513D01*
X72544Y323254D02*X74512D01*
X72544Y325223D02*X74512D01*
X72544Y327191D02*X74512D01*
X72545Y329162D02*X74513D01*
X72545Y331130D02*X74513D01*
X72544Y329160D02*X74512D01*
X72544Y331128D02*X74512D01*
G54D37*X65497Y343532D02*Y342744D01*
X65496Y343530D02*Y342742D01*
G54D39*X72545Y337036D02*X74513D01*
X72545Y339004D02*X74513D01*
X72544Y337034D02*X74512D01*
X72544Y342939D02*X74512D01*
X72544Y340971D02*X74512D01*
X72544Y339002D02*X74512D01*
X72545Y333099D02*X74513D01*
X72545Y335067D02*X74513D01*
X72544Y333097D02*X74512D01*
X72544Y335065D02*X74512D01*
G54D38*X164453Y361458D02*Y357402D01*
Y342363D02*Y338308D01*
X167603Y361458D02*Y357402D01*
Y342363D02*Y338308D01*
X170752Y361458D02*Y357402D01*
Y342363D02*Y338308D01*
X173902Y361458D02*Y357402D01*
X177051Y361458D02*Y357402D01*
G54D42*X180202Y361458D02*Y357403D01*
G54D38*X183351Y361458D02*Y357402D01*
X186500Y361458D02*Y357402D01*
X189650Y361458D02*Y357402D01*
X192799Y361458D02*Y357402D01*
G54D42*X195950Y361458D02*Y357403D01*
G54D38*X173902Y342363D02*Y338308D01*
X177051Y342363D02*Y338308D01*
G54D42*X180202Y342363D02*Y338309D01*
G54D38*X183351Y342363D02*Y338308D01*
X186500Y342363D02*Y338308D01*
X189650Y342363D02*Y338308D01*
X192799Y342363D02*Y338308D01*
G54D42*X195950Y342363D02*Y338309D01*
G54D43*X71283Y202183D02*Y196868D01*
X63409Y202183D02*Y196868D01*
X55535Y202183D02*Y196868D01*
X71283Y175608D02*Y170293D01*
Y252608D02*Y247293D01*
X55535Y175608D02*Y170293D01*
Y252608D02*Y247293D01*
G54D40*X61619Y302095D02*Y300323D01*
G54D41*X67622Y299437D02*Y295500D01*
G54D40*X61618Y302093D02*Y300321D01*
G54D41*X67621Y299435D02*Y295498D01*
G54D43*X71283Y279183D02*Y273868D01*
X63409Y279183D02*Y273868D01*
X55535Y279183D02*Y273868D01*
G54D34*X181561Y221054D02*Y213179D01*
G54D43*X107283Y161683D02*Y156368D01*
X99409Y161683D02*Y156368D01*
X91535Y161683D02*Y156368D01*
X107283Y135108D02*Y129793D01*
X91535Y135108D02*Y129793D01*
G54D38*X261957Y185696D02*Y181640D01*
X258807Y185696D02*Y181640D01*
X255657Y185696D02*Y181640D01*
X252508Y185696D02*Y181640D01*
G54D42*X249359Y185696D02*Y181641D01*
G54D38*X261957Y166601D02*Y162546D01*
X258807Y166601D02*Y162546D01*
X255657Y166601D02*Y162546D01*
X252508Y166601D02*Y162546D01*
G54D42*X249359Y166601D02*Y162547D01*
G54D38*X217862Y185696D02*Y181640D01*
X221012Y185696D02*Y181640D01*
X224161Y185696D02*Y181640D01*
X227311Y185696D02*Y181640D01*
X230460Y185696D02*Y181640D01*
G54D42*X233611Y185696D02*Y181641D01*
G54D38*X236760Y185696D02*Y181640D01*
X239909Y185696D02*Y181640D01*
X243059Y185696D02*Y181640D01*
X246208Y185696D02*Y181640D01*
X217862Y166601D02*Y162546D01*
X221012Y166601D02*Y162546D01*
X224161Y166601D02*Y162546D01*
X227311Y166601D02*Y162546D01*
X230460Y166601D02*Y162546D01*
G54D42*X233611Y166601D02*Y162547D01*
G54D38*X236760Y166601D02*Y162546D01*
X239909Y166601D02*Y162546D01*
X243059Y166601D02*Y162546D01*
X246208Y166601D02*Y162546D01*
G54D27*X380500Y217500D02*X381000Y218000D01*
X378800D02*X379300Y217500D01*
X377800Y218000D02*X378800D01*
X377300Y217500D02*X377800Y218000D01*
X381000D02*X382000D01*
X382500Y217500D01*
X380500Y214500D02*X381000Y214000D01*
X380500Y217500D02*Y214500D01*
X382500Y217500D02*Y214500D01*
X382000Y214000D02*X382500Y214500D01*
X381000Y214000D02*X382000D01*
X379300Y217500D02*Y214000D01*
X377300Y217500D02*Y214000D01*
X375600D02*X376100Y214500D01*
X374100Y214000D02*X375600D01*
X373600Y214500D02*X374100Y214000D01*
X373600Y217500D02*Y214500D01*
Y217500D02*X374100Y218000D01*
X375600D01*
X376100Y217500D01*
Y216500D01*
X375600Y216000D02*X376100Y216500D01*
X374600Y216000D02*X375600D01*
X369100D02*X370100D01*
X370600Y216500D01*
Y217500D02*Y216500D01*
X370100Y218000D02*X370600Y217500D01*
X368600Y218000D02*X370100D01*
X368100Y217500D02*X368600Y218000D01*
X368100Y217500D02*Y214500D01*
X368600Y214000D01*
X370100D01*
X370600Y214500D01*
G54D37*X371488Y300163D02*Y297407D01*
X375819Y300163D02*Y297407D01*
G54D44*X392099Y329888D02*X392846D01*
X392099Y334888D02*X392846D01*
X392099Y339888D02*X392846D01*
X392099Y344888D02*X392846D01*
X392099Y349888D02*X392846D01*
X392099Y354888D02*X392846D01*
G54D42*X381251Y300753D02*X389125D01*
G54D43*X391882Y364160D02*Y361010D01*
G54D27*X366900Y218000D02*Y214000D01*
X364400D02*X366900Y218000D01*
X364400D02*Y214000D01*
X361700D02*X362700D01*
X363200Y214500D01*
Y217500D02*Y214500D01*
X362700Y218000D02*X363200Y217500D01*
X361700Y218000D02*X362700D01*
X364000Y228000D02*X365000D01*
X366700D02*X368700D01*
X369200Y228500D01*
Y229500D02*Y228500D01*
X368700Y230000D02*X369200Y229500D01*
X367200Y230000D02*X368700D01*
X363500Y228500D02*X364000Y228000D01*
X361800D02*X362300Y228500D01*
X363500Y231500D02*Y228500D01*
X365500Y231500D02*Y228500D01*
X365000Y228000D02*X365500Y228500D01*
X367200Y232000D02*Y228000D01*
X368000Y230000D02*X369200Y232000D01*
X363500Y231500D02*X364000Y232000D01*
X365000D01*
X365500Y231500D01*
X361800Y232000D02*X362300Y231500D01*
Y230500D01*
X361800Y230000D02*X362300Y230500D01*
X361200Y217500D02*X361700Y218000D01*
X361200Y217500D02*Y214500D01*
X361700Y214000D01*
X357500Y217500D02*X358000Y218000D01*
X359500D01*
X360000Y217500D01*
Y216500D01*
X359500Y216000D02*X360000Y216500D01*
X358000Y216000D02*X359500D01*
X357500Y215500D02*X358000Y216000D01*
X357500Y215500D02*Y214500D01*
X358000Y214000D01*
X359500D01*
X360000Y214500D01*
X347000Y228000D02*X348000D01*
X346500Y228500D02*X347000Y228000D01*
X348000Y232000D02*X348500Y231500D01*
Y228500D01*
X348000Y228000D02*X348500Y228500D01*
X346500Y231500D02*Y228500D01*
Y231500D02*X347000Y232000D01*
X348000D01*
X345300Y229500D02*Y228500D01*
X344800Y230000D02*X345300Y229500D01*
X352900Y228000D02*X354900D01*
X350400D02*X351700D01*
X349700Y228700D02*X350400Y228000D01*
X349700Y231300D02*Y228700D01*
Y231300D02*X350400Y232000D01*
X351700D01*
X352900D02*Y228000D01*
Y232000D02*X354900D01*
X352900Y229800D02*X354400D01*
X356100Y229500D02*X356600Y230000D01*
X356100Y229500D02*Y228500D01*
X356600Y228000D01*
X358100D01*
X358600Y228500D01*
X359800Y229500D02*Y228500D01*
X360300Y228000D01*
X361800D01*
X356100Y231500D02*X356600Y232000D01*
X358100D01*
X358600Y231500D01*
X358100Y230000D02*X358600Y230500D01*
X356600Y230000D02*X358100D01*
X358600Y231500D02*Y230500D01*
X359800Y231500D02*X360300Y232000D01*
X361800D01*
X360300Y230000D02*X361800D01*
X359800Y229500D02*X360300Y230000D01*
X339100Y228000D02*X341100D01*
X342800D02*X344800D01*
X345300Y228500D01*
X341100Y228000D02*X341600Y228500D01*
Y229500D02*Y228500D01*
X341100Y230000D02*X341600Y229500D01*
X339600Y230000D02*X341100D01*
X339600Y232000D02*Y228000D01*
X343300Y230000D02*X344800D01*
X343300Y232000D02*Y228000D01*
X344100Y230000D02*X345300Y232000D01*
X335100Y237000D02*X336600D01*
X337100Y237500D01*
Y238500D02*Y237500D01*
X336600Y239000D02*X337100Y238500D01*
X335100Y239000D02*X336600D01*
X334600Y238500D02*X335100Y239000D01*
X340100Y238500D02*Y235500D01*
X340600Y235000D01*
G54D45*X318653Y364160D02*Y361010D01*
G54D42*X320621Y300753D02*X328299D01*
G54D46*X320523Y309317D02*Y300655D01*
G54D27*X341100Y237000D02*X342100D01*
X342600Y237500D01*
Y238500D02*Y237500D01*
X342100Y239000D02*X342600Y238500D01*
X340600Y239000D02*X342100D01*
X340100Y238500D02*X340600Y239000D01*
Y235000D02*X342100D01*
X342600Y235500D01*
X343800Y235000D02*X345800D01*
X346300Y235500D01*
Y236500D02*Y235500D01*
X345800Y237000D02*X346300Y236500D01*
X344300Y237000D02*X345800D01*
X344300Y239000D02*Y235000D01*
X345100Y237000D02*X346300Y239000D01*
X348000Y235000D02*X349000D01*
X347500Y235500D02*X348000Y235000D01*
X347500Y238500D02*Y235500D01*
Y238500D02*X348000Y239000D01*
X349000D01*
X349500Y238500D01*
Y235500D01*
X349000Y235000D02*X349500Y235500D01*
X353900Y235000D02*X355900D01*
X356400Y235500D01*
Y236500D02*Y235500D01*
X355900Y237000D02*X356400Y236500D01*
X354400Y237000D02*X355900D01*
X354400Y239000D02*Y235000D01*
X350700Y238500D02*Y235000D01*
Y238500D02*X351200Y239000D01*
X352200D01*
X352700Y238500D01*
Y235000D01*
G54D37*X338811Y300163D02*Y297407D01*
G54D47*X342157Y300162D02*Y297408D01*
G54D37*X345504Y300163D02*Y297407D01*
X349835Y300163D02*Y297407D01*
X354165Y300163D02*Y297407D01*
X358496Y300163D02*Y297407D01*
X362827Y300163D02*Y297407D01*
G54D47*X367157Y300162D02*Y297408D01*
G54D27*X375700Y242000D02*X376200Y242500D01*
X374200Y242000D02*X375700D01*
X374200Y244000D02*X375700D01*
X376200Y244500D01*
Y245500D02*Y244500D01*
X375700Y246000D02*X376200Y245500D01*
X374200Y246000D02*X375700D01*
X373700Y245500D02*X374200Y246000D01*
G54D34*X406063Y269500D02*X413938D01*
G54D27*X373700Y242500D02*X374200Y242000D01*
X373700Y243500D02*Y242500D01*
X372000Y242000D02*X372500Y242500D01*
X370500Y242000D02*X372000D01*
X373700Y243500D02*X374200Y244000D01*
X370500D02*X372000D01*
X372500Y244500D01*
Y245500D02*Y244500D01*
X372000Y246000D02*X372500Y245500D01*
X370000Y242500D02*X370500Y242000D01*
X370000Y243500D02*Y242500D01*
Y243500D02*X370500Y244000D01*
X368300Y242000D02*X368800Y242500D01*
X370500Y246000D02*X372000D01*
X370000Y245500D02*X370500Y246000D01*
X368800Y245500D02*Y242500D01*
X368300Y246000D02*X368800Y245500D01*
X367300Y246000D02*X368300D01*
X367300Y242000D02*X368300D01*
X366800Y245500D02*X367300Y246000D01*
X366800Y245500D02*Y242500D01*
X367300Y242000D01*
X363600D02*X365600D01*
X363600Y246000D02*Y242000D01*
Y243800D02*X365100D01*
X358100Y242000D02*X360600Y246000D01*
Y242000D01*
X358100Y246000D02*Y242000D01*
X356900Y246000D02*Y243000D01*
X356200Y242000D02*X356900Y243000D01*
X355100Y242000D02*X356200D01*
X354400Y244000D02*X356900D01*
X354400Y246000D02*Y243000D01*
X352200Y246000D02*X353200Y242000D01*
X351200D02*X352200Y246000D01*
X348000D02*Y242000D01*
Y246000D02*X350000D01*
X348000Y243800D02*X349500D01*
X354400Y243000D02*X355100Y242000D01*
X348000D02*X350000D01*
X309000Y214000D02*X310000D01*
X309500Y218000D02*Y214000D01*
X309000Y218000D02*X310000D01*
X311200Y214000D02*X313200D01*
X313700Y214500D01*
Y215500D02*Y214500D01*
X313200Y216000D02*X313700Y215500D01*
X311700Y216000D02*X313200D01*
X311700Y218000D02*Y214000D01*
X302800D02*X304100D01*
X302100Y214700D02*X302800Y214000D01*
X302100Y217300D02*Y214700D01*
Y217300D02*X302800Y218000D01*
X304100D01*
X305300D02*Y214000D01*
Y216000D02*X307800D01*
Y218000D02*Y214000D01*
X284500D02*X286500D01*
X287000Y214500D01*
X286500Y218000D02*X287000Y217500D01*
X284500Y218000D02*X286500D01*
X285000D02*Y214000D01*
X287000Y215300D02*Y214500D01*
X286500Y215800D02*X287000Y215300D01*
X286500Y215800D02*X287000Y216300D01*
Y217500D02*Y216300D01*
X285000Y215800D02*X286500D01*
X288200Y215100D02*Y215000D01*
Y218000D02*Y216500D01*
X289200Y215500D02*X289700Y216000D01*
X289200Y215500D02*Y214500D01*
X289700Y214000D01*
X289200Y217500D02*X289700Y218000D01*
X291200D01*
X291700Y217500D01*
X289700Y216000D02*X291200D01*
X289700Y214000D02*X291200D01*
X291700Y214500D01*
X292900Y214000D02*X294900D01*
X291700Y217500D02*Y216500D01*
X291200Y216000D02*X291700Y216500D01*
X293900Y218000D02*Y214000D01*
X296100Y218000D02*Y214000D01*
X297600Y216000D01*
X299100Y214000D01*
Y218000D02*Y214000D01*
X293200Y235000D02*X295200D01*
X295700Y235500D01*
Y236500D02*Y235500D01*
X295200Y237000D02*X295700Y236500D01*
X293700Y237000D02*X295200D01*
X293700Y239000D02*Y235000D01*
X296900Y239000D02*Y235000D01*
X299400Y239000D02*Y235000D01*
X296900Y237000D02*X299400D01*
X300600Y235000D02*X301600D01*
X301100Y239000D02*Y235000D01*
X302800Y239000D02*Y235000D01*
X306500Y239000D02*Y235000D01*
X306000Y239000D02*X307000D01*
X300600D02*X301600D01*
X302800D02*X304800D01*
X306000Y235000D02*X307000D01*
X308200D02*X310200D01*
X310700Y235500D01*
Y236500D02*Y235500D01*
X310200Y237000D02*X310700Y236500D01*
X308700Y237000D02*X310200D01*
X308700Y239000D02*Y235000D01*
X313700Y239000D02*Y235000D01*
Y239000D02*X315700D01*
X316900Y235500D02*X317400Y235000D01*
X316900Y238500D02*Y235500D01*
X318400Y235000D02*X318900Y235500D01*
X317400Y235000D02*X318400D01*
X316900Y238500D02*X317400Y239000D01*
X318400D01*
X318900Y238500D01*
Y235500D01*
X320100Y235000D02*X321100D01*
X320600Y239000D02*Y235000D01*
X320100Y239000D02*X321100D01*
X322300Y235000D02*X324800D01*
X322300Y239000D02*X324800Y235000D01*
X322300Y239000D02*X324800D01*
X326500D02*X327500D01*
X328000Y238500D01*
Y235500D01*
X327500Y235000D02*X328000Y235500D01*
X326000D02*X326500Y235000D01*
X326000Y238500D02*Y235500D01*
Y238500D02*X326500Y239000D01*
Y235000D02*X327500D01*
X329200Y238500D02*Y235000D01*
X331200Y238500D02*Y235000D01*
X329200Y238500D02*X329700Y239000D01*
X330700D01*
X331200Y238500D01*
X332400Y236000D02*X333400Y235000D01*
X336600D02*X337100Y235500D01*
X335100Y235000D02*X336600D01*
X334600Y235500D02*X335100Y235000D01*
X334600Y236500D02*Y235500D01*
Y236500D02*X335100Y237000D01*
X343400Y260100D02*X345200D01*
X345900Y259400D01*
Y256800D01*
X345200Y256100D02*X345900Y256800D01*
X343400Y256100D02*X345200D01*
X343900Y260100D02*Y256100D01*
X347100Y259600D02*X347600Y260100D01*
X349100D01*
X349600Y259600D01*
Y258600D01*
X349100Y258100D02*X349600Y258600D01*
X347600Y258100D02*X349100D01*
X347100Y257600D02*X347600Y258100D01*
X347100Y257600D02*Y256600D01*
X347600Y256100D01*
X349100D01*
X349600Y256600D01*
X350800Y256100D02*X352800D01*
X353300Y256600D01*
Y257600D02*Y256600D01*
X352800Y258100D02*X353300Y257600D01*
X351300Y258100D02*X352800D01*
X351300Y260100D02*Y256100D01*
X321000Y263100D02*X321500Y263600D01*
X319500Y263100D02*X321000D01*
X319000Y263600D02*X319500Y263100D01*
X319000Y264600D02*Y263600D01*
Y264600D02*X319500Y265100D01*
X321000D01*
X321500Y265600D01*
Y266600D02*Y265600D01*
X321000Y267100D02*X321500Y266600D01*
X319500Y267100D02*X321000D01*
X319000Y266600D02*X319500Y267100D01*
X315800Y265100D02*X317300D01*
X317800Y265600D01*
Y266600D02*Y265600D01*
X317300Y267100D02*X317800Y266600D01*
X315800Y267100D02*X317300D01*
X315300Y266600D02*X315800Y267100D01*
X317300Y263100D02*X317800Y263600D01*
X315800Y263100D02*X317300D01*
X315300Y263600D02*X315800Y263100D01*
X315300Y264600D02*Y263600D01*
X313600Y263100D02*X314100Y263600D01*
X315300Y264600D02*X315800Y265100D01*
X314100Y266600D02*Y263600D01*
X313600Y267100D02*X314100Y266600D01*
X312600Y267100D02*X313600D01*
X312100Y266600D02*X312600Y267100D01*
X312100Y266600D02*Y263600D01*
X312600Y263100D01*
X313600D01*
X308900Y264900D02*X310400D01*
X308900Y263100D02*X310900D01*
X308900Y267100D02*Y263100D01*
X303400D02*X305900Y267100D01*
Y263100D01*
X303400Y267100D02*Y263100D01*
X302200Y267100D02*Y264100D01*
X301500Y263100D02*X302200Y264100D01*
X299700Y267100D02*Y264100D01*
X300400Y263100D01*
X301500D01*
X299700Y265100D02*X302200D01*
X297500Y267100D02*X298500Y263100D01*
X296500D02*X297500Y267100D01*
X293300Y263100D02*X295300D01*
X293300Y267100D02*Y263100D01*
Y267100D02*X295300D01*
X293300Y264900D02*X294800D01*
G54D48*G54D49*G54D50*G54D51*G54D50*G54D51*G54D52*G54D50*G54D53*G54D50*M02*
