G04 start of page 9 for group -4062 idx -4062 *
G04 Title: (unknown), soldermask *
G04 Creator: pcb 20110918 *
G04 CreationDate: Mon Dec 30 21:59:35 2013 UTC *
G04 For: fosse *
G04 Format: Gerber/RS-274X *
G04 PCB-Dimensions: 550000 450000 *
G04 PCB-Coordinate-Origin: lower left *
%MOIN*%
%FSLAX25Y25*%
%LNBOTTOMMASK*%
%ADD118R,0.0257X0.0257*%
%ADD117R,0.0258X0.0258*%
%ADD116R,0.0651X0.0651*%
%ADD115R,0.0277X0.0277*%
%ADD114R,0.0848X0.0848*%
%ADD113R,0.0927X0.0927*%
%ADD112R,0.0336X0.0336*%
%ADD111R,0.0454X0.0454*%
%ADD110R,0.0297X0.0297*%
%ADD109R,0.0297X0.0297*%
%ADD108R,0.3407X0.3407*%
%ADD107R,0.0966X0.0966*%
%ADD106R,0.0218X0.0218*%
%ADD105R,0.0336X0.0336*%
%ADD104R,0.0435X0.0435*%
%ADD103R,0.0651X0.0651*%
%ADD102C,0.0554*%
%ADD101C,0.0604*%
%ADD100C,0.0651*%
%ADD99C,0.1360*%
%ADD98C,0.1062*%
%ADD97C,0.2410*%
%ADD96C,0.2760*%
G54D96*X239910Y206240D03*
X186500Y307000D03*
G54D97*X216910Y239240D03*
X209350Y273000D03*
G54D98*X379000Y152500D03*
G54D99*X353110Y152090D03*
G54D100*X430327Y226256D03*
X412610D03*
G54D101*X159926Y342206D03*
G54D97*X163850Y273000D03*
G54D99*X327110Y152090D03*
G54D102*X266485Y166444D03*
G54D97*X262410Y239240D03*
G54D102*X213335Y166444D03*
G54D101*X213076Y342206D03*
G54D103*X71284Y202185D02*Y196870D01*
X63410Y202185D02*Y196870D01*
X55536Y202185D02*Y196870D01*
X71284Y175610D02*Y170295D01*
X55536Y175610D02*Y170295D01*
X107284Y161685D02*Y156370D01*
Y135110D02*Y129795D01*
X99410Y161685D02*Y156370D01*
X91536Y161685D02*Y156370D01*
Y135110D02*Y129795D01*
G54D104*X61619Y348158D02*Y346386D01*
G54D105*X65497Y343532D02*Y342744D01*
G54D106*X72545Y342941D02*X74513D01*
X72545Y340973D02*X74513D01*
G54D107*X67623Y352980D02*Y349043D01*
G54D108*X112061Y378554D02*Y370679D01*
G54D106*X72545Y305540D02*X74513D01*
G54D105*X65497Y305737D02*Y304949D01*
G54D104*X61619Y302095D02*Y300323D01*
G54D107*X67622Y299437D02*Y295500D01*
G54D106*X72545Y307508D02*X74513D01*
X72545Y309477D02*X74513D01*
X72545Y311445D02*X74513D01*
X72545Y321288D02*X74513D01*
X72545Y323256D02*X74513D01*
X72545Y325225D02*X74513D01*
X72545Y327193D02*X74513D01*
X72545Y329162D02*X74513D01*
X72545Y331130D02*X74513D01*
X72545Y333099D02*X74513D01*
X72545Y335067D02*X74513D01*
X72545Y337036D02*X74513D01*
X72545Y339004D02*X74513D01*
X72545Y313414D02*X74513D01*
X72545Y315382D02*X74513D01*
X72545Y317351D02*X74513D01*
X72545Y319319D02*X74513D01*
G54D103*X71284Y252610D02*Y247295D01*
Y279185D02*Y273870D01*
X63410Y279185D02*Y273870D01*
X55536Y279185D02*Y273870D01*
Y252610D02*Y247295D01*
G54D109*X261957Y185696D02*Y181640D01*
X258807Y185696D02*Y181640D01*
X255657Y185696D02*Y181640D01*
X252508Y185696D02*Y181640D01*
G54D110*X249359Y185696D02*Y181641D01*
G54D109*X261957Y166601D02*Y162546D01*
X258807Y166601D02*Y162546D01*
X255657Y166601D02*Y162546D01*
X252508Y166601D02*Y162546D01*
G54D110*X249359Y166601D02*Y162547D01*
G54D109*X217862Y185696D02*Y181640D01*
X221012Y185696D02*Y181640D01*
X224161Y185696D02*Y181640D01*
X227311Y185696D02*Y181640D01*
X230460Y185696D02*Y181640D01*
G54D110*X233611Y185696D02*Y181641D01*
G54D109*X236760Y185696D02*Y181640D01*
X239909Y185696D02*Y181640D01*
X243059Y185696D02*Y181640D01*
X246208Y185696D02*Y181640D01*
X217862Y166601D02*Y162546D01*
X221012Y166601D02*Y162546D01*
X224161Y166601D02*Y162546D01*
X227311Y166601D02*Y162546D01*
X230460Y166601D02*Y162546D01*
G54D110*X233611Y166601D02*Y162547D01*
G54D109*X236760Y166601D02*Y162546D01*
X239909Y166601D02*Y162546D01*
X243059Y166601D02*Y162546D01*
X246208Y166601D02*Y162546D01*
G54D111*X392100Y329890D02*X392847D01*
X392100Y334890D02*X392847D01*
X392100Y339890D02*X392847D01*
X392100Y344890D02*X392847D01*
X392100Y349890D02*X392847D01*
X392100Y354890D02*X392847D01*
G54D103*X391883Y364162D02*Y361012D01*
G54D112*X367158Y300164D02*Y297410D01*
G54D105*X371489Y300165D02*Y297409D01*
X375820Y300165D02*Y297409D01*
G54D110*X381252Y300755D02*X389126D01*
G54D113*X402571Y236689D02*X402965D01*
G54D108*X404063Y266000D02*X411938D01*
G54D114*X423043Y239051D02*X425799D01*
X423043Y207949D02*X425799D01*
G54D113*X400996Y219760D02*X401390D01*
X411626Y211098D02*X412020D01*
G54D105*X338812Y300165D02*Y297409D01*
G54D112*X342158Y300164D02*Y297410D01*
G54D105*X345505Y300165D02*Y297409D01*
X349836Y300165D02*Y297409D01*
X354166Y300165D02*Y297409D01*
X358497Y300165D02*Y297409D01*
X362828Y300165D02*Y297409D01*
G54D110*X320622Y300755D02*X328300D01*
G54D115*X320524Y309319D02*Y300657D01*
G54D116*X318654Y364162D02*Y361012D01*
G54D117*X279943Y353402D02*Y348678D01*
X276006Y353402D02*Y348678D01*
G54D118*X281911Y343953D02*Y339228D01*
G54D117*X272069Y353402D02*Y348678D01*
G54D118*X277974Y343953D02*Y339228D01*
X274037Y343953D02*Y339228D01*
G54D105*X285848Y353008D02*Y349071D01*
Y343559D02*Y339622D01*
G54D117*X268132Y353402D02*Y348678D01*
X264195Y353402D02*Y348678D01*
X260258Y353402D02*Y348678D01*
X256321Y353402D02*Y348678D01*
X252384Y353402D02*Y348678D01*
X248447Y353402D02*Y348678D01*
X244510Y353402D02*Y348678D01*
G54D105*X240572Y353008D02*Y349071D01*
G54D118*X270100Y343953D02*Y339228D01*
X266163Y343953D02*Y339228D01*
G54D117*X262226Y343953D02*Y339229D01*
X258289Y343953D02*Y339229D01*
X254352Y343953D02*Y339229D01*
X250415Y343953D02*Y339229D01*
X246478Y343953D02*Y339229D01*
G54D105*X240572Y343559D02*Y339622D01*
G54D108*X244439Y288821D02*Y280946D01*
G54D109*X208548Y361458D02*Y357402D01*
X205398Y361458D02*Y357402D01*
X202248Y361458D02*Y357402D01*
X199099Y361458D02*Y357402D01*
G54D110*X195950Y361458D02*Y357403D01*
G54D109*X164453Y361458D02*Y357402D01*
X167603Y361458D02*Y357402D01*
X170752Y361458D02*Y357402D01*
X173902Y361458D02*Y357402D01*
X177051Y361458D02*Y357402D01*
G54D110*X180202Y361458D02*Y357403D01*
G54D109*X183351Y361458D02*Y357402D01*
X186500Y361458D02*Y357402D01*
X189650Y361458D02*Y357402D01*
X192799Y361458D02*Y357402D01*
X208548Y342363D02*Y338308D01*
X205398Y342363D02*Y338308D01*
X202248Y342363D02*Y338308D01*
X199099Y342363D02*Y338308D01*
G54D110*X195950Y342363D02*Y338309D01*
G54D109*X164453Y342363D02*Y338308D01*
X167603Y342363D02*Y338308D01*
X170752Y342363D02*Y338308D01*
X173902Y342363D02*Y338308D01*
X177051Y342363D02*Y338308D01*
G54D110*X180202Y342363D02*Y338309D01*
G54D109*X183351Y342363D02*Y338308D01*
X186500Y342363D02*Y338308D01*
X189650Y342363D02*Y338308D01*
X192799Y342363D02*Y338308D01*
G54D108*X181561Y221054D02*Y213179D01*
M02*
