G04 start of page 10 for group -4015 idx -4015 *
G04 Title: (unknown), toppaste *
G04 Creator: pcb 20110918 *
G04 CreationDate: Mon Jan 27 16:51:53 2014 UTC *
G04 For: fosse *
G04 Format: Gerber/RS-274X *
G04 PCB-Dimensions: 550000 450000 *
G04 PCB-Coordinate-Origin: lower left *
%MOIN*%
%FSLAX25Y25*%
%LNTOPPASTE*%
%ADD122R,0.3307X0.3307*%
%ADD121R,0.0433X0.0433*%
%ADD120R,0.0433X0.0433*%
%ADD119C,0.0200*%
G54D119*X115500Y168500D02*Y123000D01*
X83500Y168500D02*X115500D01*
X83500D02*Y123000D01*
X115500D01*
X41500Y363950D02*X73900D01*
X79500Y358350D01*
Y292050D01*
X74100Y286650D02*X79500Y292050D01*
X73900Y286450D02*X79500Y292050D01*
X42500Y286450D02*X73900D01*
X79500Y209000D02*Y163500D01*
X47500Y209000D02*X79500D01*
X47500D02*Y163500D01*
X79500D01*
Y285800D02*Y240300D01*
X47500Y285800D02*X79500D01*
X47500D02*Y240300D01*
X79500D01*
X155190Y332760D02*X217990D01*
X222090Y336860D01*
Y363660D02*Y336860D01*
X217990Y367760D02*X222090Y363660D01*
X156190Y367760D02*X217990D01*
X151090Y362660D02*X156190Y367760D01*
X151090Y362660D02*Y336860D01*
X155190Y332760D01*
X208090Y156860D02*X270890D01*
X274990Y160960D01*
Y187760D02*Y160960D01*
X270890Y191860D02*X274990Y187760D01*
X209090Y191860D02*X270890D01*
X203990Y186760D02*X209090Y191860D01*
X203990Y186760D02*Y160960D01*
X208090Y156860D01*
X270890D01*
X274990Y160960D01*
Y187760D02*Y160960D01*
X270890Y191860D02*X274990Y187760D01*
X209090Y191860D02*X270890D01*
X203990Y186760D02*X209090Y191860D01*
X203990Y186760D02*Y160960D01*
X208090Y156860D01*
X233500Y333200D02*X292800D01*
X296400Y336800D01*
Y355100D02*Y336800D01*
X292250Y359250D02*X296400Y355100D01*
X234450Y359250D02*X292250D01*
X229900Y354700D02*X234450Y359250D01*
X229900Y354700D02*Y336800D01*
X233500Y333200D01*
X322500Y405000D02*Y376500D01*
X316600D02*X322500D01*
X311200Y371100D02*X316600Y376500D01*
X311000Y370900D02*X316600Y376500D01*
X311000Y370900D02*Y296600D01*
X316600Y291000D01*
X394900D01*
X400000Y296100D01*
Y371900D02*Y296100D01*
X394900Y377000D02*X400000Y371900D01*
X390100Y377000D02*X394900D01*
X390000Y377100D02*X390100Y377000D01*
X390000Y404000D02*Y377100D01*
G54D120*X369354Y155452D02*X370930D01*
G54D121*X369354Y149547D02*X370930D01*
G54D120*X387072Y155452D02*X388646D01*
G54D121*X387071Y149547D02*X388646D01*
G54D122*X244529Y288794D02*Y280919D01*
X112151Y378561D02*Y370686D01*
X181651Y221061D02*Y213186D01*
G54D119*X397600Y248000D02*X437000D01*
X391500Y241900D02*X397600Y248000D01*
X391500Y241900D02*Y204100D01*
X397100Y198500D01*
X436500D01*
G54D122*X406472Y269760D02*X414347D01*
M02*
